<?xml version="1.0" encoding="utf-8"?>
<COLLADA xmlns="http://www.collada.org/2005/11/COLLADASchema" version="1.4.1">
  <asset>
    <contributor><authoring_tool>Morrobroom Kurpulio VFX preview converter</authoring_tool></contributor>
    <unit name="unit" meter="1"/>
    <up_axis>Z_UP</up_axis>
  </asset>
  <library_images>
    <image id="VFXTexture" name="darkmap_newgen-1.dds">
      <init_from>../../../Textures/Kurp/darkmap_newgen-1.dds</init_from>
    </image>
  </library_images>
  <library_effects>
    <effect id="PreviewEffect">
      <profile_COMMON>
        <newparam sid="VFXTexture-surface">
          <surface type="2D"><init_from>VFXTexture</init_from></surface>
        </newparam>
        <newparam sid="VFXTexture-sampler">
          <sampler2D><source>VFXTexture-surface</source></sampler2D>
        </newparam>
        <technique sid="common"><phong>
          <emission><color>0.08 0.08 0.08 1</color></emission>
          <ambient><color>0.2 0.2 0.2 1</color></ambient>
          <diffuse><texture texture="VFXTexture-sampler" texcoord="UVSET0"/></diffuse>
          <specular><color>0.15 0.15 0.15 1</color></specular>
          <shininess><float>8</float></shininess>
          <transparent opaque="A_ONE"><texture texture="VFXTexture-sampler" texcoord="UVSET0"/></transparent>
          <transparency><float>1</float></transparency>
        </phong></technique>
      </profile_COMMON>
      <extra><technique profile="GOOGLEEARTH"><double_sided>1</double_sided></technique></extra>
    </effect>
  </library_effects>
  <library_materials><material id="PreviewMaterial" name="PreviewMaterial"><instance_effect url="#PreviewEffect"/></material></library_materials>
  <library_geometries>
    <geometry id="vfx_kurp_1055-mesh" name="vfx_kurp_1055"><mesh>
      <source id="vfx_kurp_1055-mesh-positions">
        <float_array id="vfx_kurp_1055-mesh-positions-array" count="918">3.80546644 -2.01017398 3.78399536 3.32105336 -1.52978044 3.98278164 3.05719359 -1.09146427 2.99722408 3.05719359 -1.09146427 2.99722408 3.32105336 -1.52978044 3.98278164 2.92685198 -0.485706497 3.16881764 3.20579426 -1.13116719 4.09650226 2.92685198 -0.485706497 3.16881764 3.32105336 -1.52978044 3.98278164 2.92685198 -0.485706497 3.16881764 3.20579426 -1.13116719 4.09650226 3.17505958 0.136014529 3.38111378 3.34472723 -0.73151028 4.22963568 3.17505958 0.136014529 3.38111378 3.20579426 -1.13116719 4.09650226 3.17505958 0.136014529 3.38111378 3.34472723 -0.73151028 4.22963568 3.63402003 0.943864829 3.68839412 2.21195377 -0.922489626 4.8495641 3.34472723 -0.73151028 4.22963568 2.13257403 -1.75176639 4.6076464 3.20579426 -1.13116719 4.09650226 2.13257403 -1.75176639 4.6076464 3.34472723 -0.73151028 4.22963568 2.13257403 -1.75176639 4.6076464 3.20579426 -1.13116719 4.09650226 2.62731782 -2.74354026 4.30035906 3.32105336 -1.52978044 3.98278164 2.62731782 -2.74354026 4.30035906 3.20579426 -1.13116719 4.09650226 2.62731782 -2.74354026 4.30035906 3.32105336 -1.52978044 3.98278164 3.67742672 -3.46598556 3.91399456 3.80546644 -2.01017398 3.78399536 3.67742672 -3.46598556 3.91399456 3.32105336 -1.52978044 3.98278164 3.67742672 -3.46598556 3.91399456 3.80546644 -2.01017398 3.78399536 5.06216939 -3.62171981 3.4329127 4.57091819 -2.22463797 3.52111826 5.06216939 -3.62171981 3.4329127 4.57091819 -2.22463797 3.52111826 6.4348085 -3.08180393 2.86426635 5.44791619 -2.0375048 3.18653356 6.4348085 -3.08180393 2.86426635 4.57091819 -2.22463797 3.52111826 6.4348085 -3.08180393 2.86426635 5.44791619 -2.0375048 3.18653356 7.44152583 -1.9157344 2.23735768 6.21880133 -1.41212727 2.78761336 7.44152583 -1.9157344 2.23735768 5.44791619 -2.0375048 3.18653356 7.44152583 -1.9157344 2.23735768 6.21880133 -1.41212727 2.78761336 7.80031296 -0.599946463 1.69221246 6.64396611 -0.493764803 2.37725972 7.80031296 -0.599946463 1.69221246 6.21880133 -1.41212727 2.78761336 7.80031296 -0.599946463 1.69221246 6.64396611 -0.493764803 2.37725972 7.63171336 0.797094094 1.16944519 6.64614131 0.6725459 1.93043155 7.63171336 0.797094094 1.16944519 6.64396611 -0.493764803 2.37725972 7.63171336 0.797094094 1.16944519 6.64614131 0.6725459 1.93043155 6.75847021 2.28739923 0.613494812 6.18812524 1.72987577 1.54085881 6.75847021 2.28739923 0.613494812 6.64614131 0.6725459 1.93043155 3.3814589 -1.4233786 2.86418318 3.80546644 -2.01017398 3.78399536 3.05719359 -1.09146427 2.99722408 3.80546644 -2.01017398 3.78399536 3.3814589 -1.4233786 2.86418318 4.57091819 -2.22463797 3.52111826 3.91191088 -1.60988636 2.6815438 4.57091819 -2.22463797 3.52111826 3.3814589 -1.4233786 2.86418318 4.57091819 -2.22463797 3.52111826 3.91191088 -1.60988636 2.6815438 5.44791619 -2.0375048 3.18653356 4.46863884 -1.52904189 2.47499626 5.44791619 -2.0375048 3.18653356 3.91191088 -1.60988636 2.6815438 5.44791619 -2.0375048 3.18653356 4.46863884 -1.52904189 2.47499626 6.21880133 -1.41212727 2.78761336 5.01188955 -1.12636181 2.2047264 6.21880133 -1.41212727 2.78761336 4.46863884 -1.52904189 2.47499626 6.21880133 -1.41212727 2.78761336 5.01188955 -1.12636181 2.2047264 6.64396611 -0.493764803 2.37725972 5.26862165 -0.587161941 1.9628643 6.64396611 -0.493764803 2.37725972 5.26862165 -0.587161941 1.9628643 6.64614131 0.6725459 1.93043155 5.29705165 0.13288221 1.68492716 6.64614131 0.6725459 1.93043155 5.26862165 -0.587161941 1.9628643 6.64614131 0.6725459 1.93043155 5.29705165 0.13288221 1.68492716 6.18812524 1.72987577 1.54085881 5.0422275 0.770135233 1.45075281 6.18812524 1.72987577 1.54085881 5.0422275 0.770135233 1.45075281 5.34086786 2.60578739 1.19360037 4.4962618 1.36631442 1.21682974 5.34086786 2.60578739 1.19360037 4.4962618 1.36631442 1.21682974 4.19327958 3.17746986 0.901599069 3.74000468 1.75747012 1.02059097 2.86906392 3.36181514 0.671916958 4.19327958 3.17746986 0.901599069 3.74000468 1.75747012 1.02059097 6.75847021 2.28739923 0.613494812 6.18812524 1.72987577 1.54085881 5.56277079 3.21923509 0.216448123 5.34086786 2.60578739 1.19360037 5.56277079 3.21923509 0.216448123 6.18812524 1.72987577 1.54085881 5.56277079 3.21923509 0.216448123 5.34086786 2.60578739 1.19360037 4.09375127 3.72587265 -0.102596802 4.19327958 3.17746986 0.901599069 4.09375127 3.72587265 -0.102596802 5.34086786 2.60578739 1.19360037 4.09375127 3.72587265 -0.102596802 4.19327958 3.17746986 0.901599069 2.51403122 3.74908528 -0.341414683 2.86906392 3.36181514 0.671916958 2.51403122 3.74908528 -0.341414683 4.19327958 3.17746986 0.901599069 2.51403122 3.74908528 -0.341414683 2.86906392 3.36181514 0.671916958 0.98901792 3.2878641 -0.504543928 1.50950093 3.12305248 0.505540089 0.98901792 3.2878641 -0.504543928 2.86906392 3.36181514 0.671916958 0.98901792 3.2878641 -0.504543928 1.50950093 3.12305248 0.505540089 -0.332934705 2.39182158 -0.601152082 0.255813492 2.47381936 0.398300241 -0.332934705 2.39182158 -0.601152082 1.50950093 3.12305248 0.505540089 -0.332934705 2.39182158 -0.601152082 0.255813492 2.47381936 0.398300241 -1.34048528 1.13971529 -0.637618249 -1.34048528 1.13971529 -0.637618249 0.255813492 2.47381936 0.398300241 -0.766014734 1.47110973 0.343777519 -0.766014734 1.47110973 0.343777519 0.255813492 2.47381936 0.398300241 1.09816754 1.29975723 0.680714144 1.09816754 1.29975723 0.680714144 0.255813492 2.47381936 0.398300241 1.94618973 1.73229098 0.753855998 1.50950093 3.12305248 0.505540089 0.255813492 2.47381936 0.398300241 2.85825266 1.88749395 0.866177124 1.50950093 3.12305248 0.505540089 3.80546644 -2.01017398 3.78399536 3.32105336 -1.52978044 3.98278164 3.67742672 -3.46598556 3.91399456 2.62731782 -2.74354026 4.30035906 3.20579426 -1.13116719 4.09650226 2.62731782 -2.74354026 4.30035906 3.32105336 -1.52978044 3.98278164 2.62731782 -2.74354026 4.30035906 3.20579426 -1.13116719 4.09650226 2.13257403 -1.75176639 4.6076464 3.34472723 -0.73151028 4.22963568 2.13257403 -1.75176639 4.6076464 2.13257403 -1.75176639 4.6076464 3.34472723 -0.73151028 4.22963568 2.21195377 -0.922489626 4.8495641 3.63402003 0.943864829 3.68839412 3.17505958 0.136014529 3.38111378 3.17505958 0.136014529 3.38111378 3.34472723 -0.73151028 4.22963568 3.17505958 0.136014529 3.38111378 3.20579426 -1.13116719 4.09650226 2.92685198 -0.485706497 3.16881764 3.32105336 -1.52978044 3.98278164 2.92685198 -0.485706497 3.16881764 3.20579426 -1.13116719 4.09650226 2.92685198 -0.485706497 3.16881764 3.05719359 -1.09146427 2.99722408 3.80546644 -2.01017398 3.78399536 3.05719359 -1.09146427 2.99722408 3.32105336 -1.52978044 3.98278164 3.05719359 -1.09146427 2.99722408 3.3814589 -1.4233786 2.86418318 4.57091819 -2.22463797 3.52111826 3.3814589 -1.4233786 2.86418318 3.80546644 -2.01017398 3.78399536 3.3814589 -1.4233786 2.86418318 4.57091819 -2.22463797 3.52111826 3.91191088 -1.60988636 2.6815438 5.44791619 -2.0375048 3.18653356 3.91191088 -1.60988636 2.6815438 4.57091819 -2.22463797 3.52111826 3.91191088 -1.60988636 2.6815438 5.44791619 -2.0375048 3.18653356 4.46863884 -1.52904189 2.47499626 6.21880133 -1.41212727 2.78761336 4.46863884 -1.52904189 2.47499626 4.46863884 -1.52904189 2.47499626 6.21880133 -1.41212727 2.78761336 5.01188955 -1.12636181 2.2047264 6.64396611 -0.493764803 2.37725972 5.01188955 -1.12636181 2.2047264 6.64396611 -0.493764803 2.37725972 5.26862165 -0.587161941 1.9628643 6.64614131 0.6725459 1.93043155 5.26862165 -0.587161941 1.9628643 5.26862165 -0.587161941 1.9628643 6.64614131 0.6725459 1.93043155 5.29705165 0.13288221 1.68492716 6.18812524 1.72987577 1.54085881 5.29705165 0.13288221 1.68492716 5.06216939 -3.62171981 3.4329127 3.67742672 -3.46598556 3.91399456 3.80546644 -2.01017398 3.78399536 4.57091819 -2.22463797 3.52111826 6.4348085 -3.08180393 2.86426635 5.06216939 -3.62171981 3.4329127 4.57091819 -2.22463797 3.52111826 6.4348085 -3.08180393 2.86426635 5.44791619 -2.0375048 3.18653356 7.44152583 -1.9157344 2.23735768 6.4348085 -3.08180393 2.86426635 5.44791619 -2.0375048 3.18653356 7.44152583 -1.9157344 2.23735768 6.21880133 -1.41212727 2.78761336 7.80031296 -0.599946463 1.69221246 7.44152583 -1.9157344 2.23735768 6.21880133 -1.41212727 2.78761336 7.80031296 -0.599946463 1.69221246 6.64396611 -0.493764803 2.37725972 7.63171336 0.797094094 1.16944519 7.80031296 -0.599946463 1.69221246 6.64396611 -0.493764803 2.37725972 7.63171336 0.797094094 1.16944519 6.64614131 0.6725459 1.93043155 6.75847021 2.28739923 0.613494812 7.63171336 0.797094094 1.16944519 6.64614131 0.6725459 1.93043155 6.75847021 2.28739923 0.613494812 6.18812524 1.72987577 1.54085881 5.56277079 3.21923509 0.216448123 6.75847021 2.28739923 0.613494812 6.18812524 1.72987577 1.54085881 5.56277079 3.21923509 0.216448123 5.34086786 2.60578739 1.19360037 4.09375127 3.72587265 -0.102596802 5.34086786 2.60578739 1.19360037 5.56277079 3.21923509 0.216448123 5.34086786 2.60578739 1.19360037 4.09375127 3.72587265 -0.102596802 4.19327958 3.17746986 0.901599069 2.51403122 3.74908528 -0.341414683 4.19327958 3.17746986 0.901599069 4.09375127 3.72587265 -0.102596802 2.86906392 3.36181514 0.671916958 4.19327958 3.17746986 0.901599069 2.51403122 3.74908528 -0.341414683 6.18812524 1.72987577 1.54085881 5.0422275 0.770135233 1.45075281 5.34086786 2.60578739 1.19360037 5.0422275 0.770135233 1.45075281 6.18812524 1.72987577 1.54085881 4.4962618 1.36631442 1.21682974 4.19327958 3.17746986 0.901599069 4.4962618 1.36631442 1.21682974 5.34086786 2.60578739 1.19360037 3.74000468 1.75747012 1.02059097 2.86906392 3.36181514 0.671916958 3.74000468 1.75747012 1.02059097 4.19327958 3.17746986 0.901599069 2.85825266 1.88749395 0.866177124 1.50950093 3.12305248 0.505540089 1.94618973 1.73229098 0.753855998 0.255813492 2.47381936 0.398300241 0.255813492 2.47381936 0.398300241 1.09816754 1.29975723 0.680714144 1.09816754 1.29975723 0.680714144 -0.766014734 1.47110973 0.343777519 -0.766014734 1.47110973 0.343777519 -1.34048528 1.13971529 -0.637618249 -1.34048528 1.13971529 -0.637618249 0.255813492 2.47381936 0.398300241 -0.332934705 2.39182158 -0.601152082 1.50950093 3.12305248 0.505540089 -0.332934705 2.39182158 -0.601152082 0.255813492 2.47381936 0.398300241 -0.332934705 2.39182158 -0.601152082 1.50950093 3.12305248 0.505540089 0.98901792 3.2878641 -0.504543928 2.86906392 3.36181514 0.671916958 0.98901792 3.2878641 -0.504543928 1.50950093 3.12305248 0.505540089 0.98901792 3.2878641 -0.504543928 2.86906392 3.36181514 0.671916958 2.51403122 3.74908528 -0.341414683</float_array>
        <technique_common><accessor source="#vfx_kurp_1055-mesh-positions-array" count="306" stride="3"><param name="X" type="float"/><param name="Y" type="float"/><param name="Z" type="float"/></accessor></technique_common>
      </source>
      <source id="vfx_kurp_1055-mesh-normals">
        <float_array id="vfx_kurp_1055-mesh-normals-array" count="918">-0.722306952 -0.682727254 -0.110254992 -0.722306933 -0.682727275 -0.110254993 -0.722306952 -0.682727254 -0.110254992 -0.957765085 -0.247534623 0.146330627 -0.957765075 -0.247534665 0.146330621 -0.957765075 -0.247534665 0.146330621 -0.951406722 -0.297634108 0.0789885205 -0.951406722 -0.297634108 0.0789885279 -0.951406722 -0.297634108 0.0789885279 -0.885305601 0.212138997 0.413800723 -0.885305601 0.212138997 0.413800723 -0.885305601 0.212138997 0.413800723 -0.907005845 0.190132569 0.375752583 -0.907005852 0.190132542 0.37575258 -0.907005852 0.190132542 0.37575258 -0.832879703 0.295080911 0.468229276 -0.832879698 0.295080925 0.468229277 -0.832879703 0.295080911 0.468229276 -0.496670861 0.286542169 -0.819275071 -0.496670861 0.286542169 -0.819275071 -0.496670837 0.286542155 -0.81927509 -0.579035175 0.431688349 -0.691638226 -0.579035171 0.431688355 -0.691638225 0.0259203526 0.205462943 -0.97832158 -0.452838751 0.0499167605 -0.890194014 -0.452838771 0.0499167748 -0.890194003 -0.452838751 0.0499167605 -0.890194014 -0.534367741 0.0853961544 -0.840927235 -0.534367685 0.0853961097 -0.840927275 0.570882944 -0.577606037 0.583492871 -0.365783893 -0.0342830323 -0.930068179 -0.365783887 -0.0342830195 -0.930068182 -0.365783887 -0.0342830195 -0.930068182 -0.41666509 -0.0444330679 -0.907973516 -0.416665078 -0.0444330424 -0.907973522 0.269101211 0.12900713 -0.954432658 -0.333171551 -0.0547500928 -0.941275276 -0.333171528 -0.0547501082 -0.941275283 -0.333171551 -0.0547500928 -0.941275276 -0.339219536 -0.0600075185 -0.938791353 -0.359082757 -0.0674925667 -0.930862142 -0.359082764 -0.0674925794 -0.930862138 -0.359082764 -0.0674925794 -0.930862138 -0.348608155 -0.040476506 -0.936394151 -0.348608162 -0.0404765188 -0.936394148 -0.348608149 -0.0404764933 -0.936394154 -0.420767038 -0.120154009 -0.899176353 -0.420767016 -0.120154025 -0.899176361 -0.420767038 -0.120154009 -0.899176353 -0.426859019 -0.0498004621 -0.902945896 -0.426859019 -0.0498004621 -0.902945896 -0.426859019 -0.0498004621 -0.902945896 -0.474985217 -0.223155108 -0.851229018 -0.474985217 -0.223155108 -0.851229018 -0.474985217 -0.223155108 -0.851229018 -0.514159085 -0.140065635 -0.846180863 -0.514159085 -0.140065635 -0.846180863 -0.514159085 -0.140065635 -0.846180863 -0.500314522 -0.355762154 -0.78937866 -0.500314522 -0.355762154 -0.78937866 -0.500314522 -0.355762154 -0.78937866 -0.560199405 -0.295438875 -0.773881449 -0.560199393 -0.295438833 -0.773881474 -0.560199393 -0.295438833 -0.773881474 -0.471866323 -0.537269912 -0.699058806 -0.471866313 -0.537269883 -0.699058835 -0.471866313 -0.537269883 -0.699058835 -0.579005671 -0.49071728 -0.65111365 -0.579005671 -0.49071728 -0.65111365 -0.579005649 -0.490717298 -0.651113654 -0.730762151 -0.676068179 -0.0944377924 -0.730762132 -0.6760682 -0.0944377859 -0.730762151 -0.676068179 -0.0944377924 -0.256104932 -0.965354726 0.0500051664 -0.367087478 -0.851646589 -0.374092061 -0.367087489 -0.851646596 -0.374092036 -0.408306786 -0.859111884 -0.308564966 -0.408306786 -0.859111884 -0.308564966 -0.408306786 -0.859111884 -0.308564966 0.160264381 -0.975044808 -0.153632521 -0.0417031101 -0.821453288 -0.56874893 -0.0417031101 -0.821453288 -0.56874893 -0.0677463996 -0.853499756 -0.516670681 -0.0677463996 -0.853499756 -0.516670681 -0.0677464262 -0.85349975 -0.516670687 0.501926256 -0.794230807 -0.342443367 0.173426588 -0.672645224 -0.719355003 0.173426571 -0.67264524 -0.719354993 0.170890703 -0.697574981 -0.6958344 0.17089068 -0.697574977 -0.695834411 0.170890657 -0.697574972 -0.695834421 0.677955218 -0.509706143 -0.529694602 0.279341597 -0.496545464 -0.821833849 0.279341597 -0.496545464 -0.821833849 0.280699292 -0.500896108 -0.818725226 0.758730883 -0.199261567 -0.620179228 0.292285569 -0.342608667 -0.892854102 0.292285546 -0.342608657 -0.892854113 0.302521513 -0.35360291 -0.88512469 0.302521513 -0.35360291 -0.88512469 0.302521513 -0.35360291 -0.88512469 0.783623789 0.191297184 -0.59104919 0.262949908 -0.231219226 -0.936693661 0.262949908 -0.231219226 -0.936693661 0.270260953 -0.235024958 -0.933660691 0.218030336 -0.17009615 -0.96100472 0.218030323 -0.17009614 -0.961004725 0.218030338 -0.170096147 -0.96100472 0.224427164 -0.170910124 -0.959386355 0.178238687 -0.139710435 -0.974018462 0.178238687 -0.139710435 -0.974018462 0.178238687 -0.139710435 -0.974018462 0.180626426 -0.139246004 -0.97364503 0.151763459 -0.13054498 -0.979758062 0.151763459 -0.13054498 -0.979758062 0.151763459 -0.13054498 -0.979758062 -0.33729973 -0.700692805 -0.628695861 -0.337299715 -0.700692785 -0.62869589 -0.33729973 -0.700692805 -0.628695861 -0.487054444 -0.685613832 -0.541028319 -0.487054444 -0.685613832 -0.541028319 -0.487054444 -0.685613832 -0.541028319 -0.162683186 -0.818594906 -0.550850762 -0.162683186 -0.818594906 -0.550850762 -0.162683186 -0.818594906 -0.550850762 -0.311941153 -0.846524858 -0.431379627 -0.311941153 -0.846524858 -0.431379627 -0.53267457 -0.712768755 0.456309658 0.060185088 -0.873540835 -0.483015698 0.0601850889 -0.873540848 -0.483015675 0.060185088 -0.873540835 -0.483015698 -0.0729736304 -0.939875498 -0.333629882 -0.0729736037 -0.939875501 -0.333629878 -0.240750224 -0.752313047 0.613240906 0.3031463 -0.849896413 -0.431020194 0.303146343 -0.849896419 -0.431020152 0.303146339 -0.849896408 -0.431020176 0.197524406 -0.946233789 -0.256175186 0.197524406 -0.946233789 -0.256175186 0.197524406 -0.946233789 -0.256175186 0.534629034 -0.745926345 -0.397197285 0.534629049 -0.745926319 -0.397197315 0.534629034 -0.745926345 -0.397197285 0.463930556 -0.862408593 -0.202533599 0.463930554 -0.86240859 -0.202533614 0.463930554 -0.86240859 -0.202533614 0.725844737 -0.572992514 -0.380564052 0.725844728 -0.572992507 -0.380564077 0.725844719 -0.572992519 -0.380564077 0.694739812 -0.698702477 -0.170737936 0.694739834 -0.698702458 -0.170737923 0.694739836 -0.69870246 -0.170737908 0.166299848 -0.116226213 -0.979201628 0.166299848 -0.116226213 -0.979201628 0.166299836 -0.116226205 -0.979201631 0.149956401 -0.128226524 -0.980342306 0.149956399 -0.128226527 -0.980342306 0.149956412 -0.128226534 -0.980342303 0.150099204 -0.127910347 -0.980361756 -0.192926655 0.0968153642 0.976425159 0.142993179 -0.130275574 -0.981112239 -0.162855003 0.123581395 0.978879914 0.489248542 0.133755433 0.861826751 0.389642964 0.0390272367 0.920138705 0.379474893 0.0370021246 0.924461815 0.365783893 0.0342830323 0.930068179 0.956837004 -0.185028358 0.224114825 0.534367685 -0.0853961097 0.840927275 0.534367741 -0.0853961544 0.840927235 0.452838751 -0.0499167605 0.890194014 0.452838771 -0.0499167748 0.890194003 0.452838751 -0.0499167605 0.890194014 0.579035171 -0.431688355 0.691638225 0.579035171 -0.431688355 0.691638225 0.496670837 -0.286542155 0.81927509 0.496670861 -0.286542169 0.819275071 0.496670861 -0.286542169 0.819275071 0.832879703 -0.295080911 -0.468229276 0.832879703 -0.295080911 -0.468229276 0.907005852 -0.190132542 -0.37575258 0.907005845 -0.190132569 -0.375752583 0.885305601 -0.212138997 -0.413800723 0.885305601 -0.212138997 -0.413800723 0.885305601 -0.212138997 -0.413800723 0.951406722 0.297634108 -0.0789885279 0.951406722 0.297634108 -0.0789885279 0.951406722 0.297634108 -0.0789885205 0.957765075 0.247534665 -0.146330621 0.957765085 0.247534623 -0.146330627 0.722306952 0.682727254 0.110254992 0.722306952 0.682727254 0.110254992 0.722306933 0.682727275 0.110254993 0.730762151 0.676068179 0.0944377924 0.730762151 0.676068179 0.0944377924 0.367087489 0.851646596 0.374092036 0.367087478 0.851646589 0.374092061 0.367087492 0.851646583 0.374092062 0.408306786 0.859111884 0.308564966 0.408306786 0.859111884 0.308564966 0.408306786 0.859111884 0.308564966 -0.104211592 0.728584555 0.676981898 0.0417031101 0.821453288 0.56874893 0.0417031101 0.821453288 0.56874893 0.0677464262 0.85349975 0.516670687 0.0677463996 0.853499756 0.516670681 0.0677463996 0.853499756 0.516670681 -0.24452906 0.560183108 0.791454625 -0.173426588 0.672645224 0.719355003 -0.170890657 0.697574972 0.695834421 -0.17089068 0.697574977 0.695834411 -0.170890703 0.697574981 0.6958344 -0.28848629 0.400702268 0.869605286 -0.279341597 0.496545464 0.821833849 -0.280699288 0.500896079 0.818725245 -0.280699292 0.500896108 0.818725226 -0.274320297 0.273029931 0.922064549 -0.292285569 0.342608667 0.892854102 -0.302521513 0.35360291 0.88512469 -0.302521513 0.35360291 0.88512469 -0.302521513 0.35360291 0.88512469 0.024645855 0.498378243 0.866609317 -0.262949908 0.231219226 0.936693661 0.333171551 0.0547500928 0.941275276 0.333171551 0.0547500928 0.941275276 0.33921951 0.0600075024 0.938791363 0.339219536 0.0600075185 0.938791353 0.359082764 0.0674925794 0.930862138 0.359082757 0.0674925667 0.930862142 0.348608149 0.0404764933 0.936394154 0.348608162 0.0404765188 0.936394148 0.348608155 0.040476506 0.936394151 0.420767038 0.120154009 0.899176353 0.420767038 0.120154009 0.899176353 0.426859019 0.0498004621 0.902945896 0.426859019 0.0498004621 0.902945896 0.426859019 0.0498004621 0.902945896 0.474985217 0.223155108 0.851229018 0.474985217 0.223155108 0.851229018 0.514159085 0.140065635 0.846180863 0.514159085 0.140065635 0.846180863 0.514159085 0.140065635 0.846180863 0.500314522 0.355762154 0.78937866 0.500314522 0.355762154 0.78937866 0.560199393 0.295438833 0.773881474 0.560199393 0.295438833 0.773881474 0.560199405 0.295438875 0.773881449 0.471866313 0.537269883 0.699058835 0.471866323 0.537269912 0.699058806 0.579005649 0.490717298 0.651113654 0.579005671 0.49071728 0.65111365 0.579005671 0.49071728 0.65111365 0.33729973 0.700692805 0.628695861 0.33729973 0.700692805 0.628695861 0.487054444 0.685613832 0.541028319 0.487054444 0.685613832 0.541028319 0.487054444 0.685613832 0.541028319 0.162683186 0.818594906 0.550850762 0.162683186 0.818594906 0.550850762 0.162683186 0.818594906 0.550850762 0.311941153 0.846524858 0.431379627 0.311941153 0.846524858 0.431379627 0.311941153 0.846524858 0.431379627 -0.060185088 0.873540835 0.483015698 -0.0601850889 0.873540848 0.483015675 -0.060185088 0.873540835 0.483015698 0.0324258879 0.862662643 0.504739266 0.0729736304 0.939875498 0.333629882 0.0729736037 0.939875501 0.333629878 -0.27026093 0.235024945 0.933660701 -0.270260953 0.235024958 0.933660691 -0.218030338 0.170096147 0.96100472 -0.218030323 0.17009614 0.961004725 -0.218030336 0.17009615 0.96100472 -0.224427164 0.170910124 0.959386355 -0.178238687 0.139710435 0.974018462 -0.178238687 0.139710435 0.974018462 -0.178238687 0.139710435 0.974018462 -0.180626426 0.139246004 0.97364503 -0.151763459 0.13054498 0.979758062 -0.151763459 0.13054498 0.979758062 -0.151763459 0.13054498 0.979758062 -0.152367965 0.130206202 0.979709318 -0.142950652 0.130322012 0.981112269 -0.142993181 0.13027557 0.981112239 -0.386542968 0.370437984 0.844606556 -0.149956399 0.128226527 0.980342306 -0.149956401 0.128226524 0.980342306 -0.166299836 0.116226205 0.979201631 -0.166299848 0.116226213 0.979201628 -0.694739836 0.69870246 0.170737908 -0.694739812 0.698702477 0.170737936 -0.725844719 0.572992519 0.380564077 -0.725844728 0.572992507 0.380564077 -0.725844737 0.572992514 0.380564052 -0.463930554 0.86240859 0.202533614 -0.463930554 0.86240859 0.202533614 -0.463930556 0.862408593 0.202533599 -0.534629034 0.745926345 0.397197285 -0.534629049 0.745926319 0.397197315 -0.534629034 0.745926345 0.397197285 -0.197524406 0.946233789 0.256175186 -0.197524406 0.946233789 0.256175186 -0.197524406 0.946233789 0.256175186 -0.303146339 0.849896408 0.431020176 -0.303146343 0.849896419 0.431020152 -0.3031463 0.849896413 0.431020194</float_array>
        <technique_common><accessor source="#vfx_kurp_1055-mesh-normals-array" count="306" stride="3"><param name="X" type="float"/><param name="Y" type="float"/><param name="Z" type="float"/></accessor></technique_common>
      </source>
      <source id="vfx_kurp_1055-mesh-uv0">
        <float_array id="vfx_kurp_1055-mesh-uv0-array" count="612">0.5 0.199999928 0.5 0.133333266 1 0.199999928 1 0.199999928 0.5 0.133333266 1 0.133333266 0.5 0.0666666031 1 0.133333266 0.5 0.133333266 1 0.133333266 0.5 0.0666666031 1 0.0666666031 0.5 0 1 0.0666666031 0.5 0.0666666031 1 0.0666666031 0.5 0 1 0 0 0 0.5 0 0 0.0666666031 0.5 0.0666666031 0 0.0666666031 0.5 0 0 0.0666666031 0.5 0.0666666031 0 0.133333266 0.5 0.133333266 0 0.133333266 0.5 0.0666666031 0 0.133333266 0.5 0.133333266 0 0.199999928 0.5 0.199999928 0 0.199999928 0.5 0.133333266 0 0.199999928 0.5 0.199999928 0 0.266666651 0.5 0.266666651 0 0.266666651 0.5 0.266666651 0 0.333333313 0.5 0.333333313 0 0.333333313 0.5 0.266666651 0 0.333333313 0.5 0.333333313 0 0.399999976 0.5 0.399999976 0 0.399999976 0.5 0.333333313 0 0.399999976 0.5 0.399999976 0 0.466666639 0.5 0.466666639 0 0.466666639 0.5 0.399999976 0 0.466666639 0.5 0.466666639 0 0.533333302 0.5 0.533333302 0 0.533333302 0.5 0.466666639 0 0.533333302 0.5 0.533333302 0 0.599999964 0.5 0.599999964 0 0.599999964 0.5 0.533333302 1 0.266666651 0.5 0.199999928 1 0.199999928 0.5 0.199999928 1 0.266666651 0.5 0.266666651 1 0.333333313 0.5 0.266666651 1 0.266666651 0.5 0.266666651 1 0.333333313 0.5 0.333333313 1 0.399999976 0.5 0.333333313 1 0.333333313 0.5 0.333333313 1 0.399999976 0.5 0.399999976 1 0.466666639 0.5 0.399999976 1 0.399999976 0.5 0.399999976 1 0.466666639 0.5 0.466666639 1 0.533333302 0.5 0.466666639 1 0.533333302 0.5 0.533333302 1 0.599999964 0.5 0.533333302 1 0.533333302 0.5 0.533333302 1 0.599999964 0.5 0.599999964 1 0.666666627 0.5 0.599999964 1 0.666666627 0.5 0.666666627 1 0.733333349 0.5 0.666666627 1 0.733333349 0.5 0.733333349 1 0.799999952 0.5 0.799999952 0.5 0.733333349 1 0.799999952 0 0.599999964 0.5 0.599999964 0 0.666666627 0.5 0.666666627 0 0.666666627 0.5 0.599999964 0 0.666666627 0.5 0.666666627 0 0.733333349 0.5 0.733333349 0 0.733333349 0.5 0.666666627 0 0.733333349 0.5 0.733333349 0 0.799999952 0.5 0.799999952 0 0.799999952 0.5 0.733333349 0 0.799999952 0.5 0.799999952 0 0.866666675 0.5 0.866666675 0 0.866666675 0.5 0.799999952 0 0.866666675 0.5 0.866666675 0 0.933333337 0.5 0.933333337 0 0.933333337 0.5 0.866666675 0 0.933333337 0.5 0.933333337 0 1 0 1 0.5 0.933333337 0.5 1 0.5 1 0.5 0.933333337 1 1 1 1 0.5 0.933333337 1 0.933333337 0.5 0.866666675 0.5 0.933333337 1 0.866666675 0.5 0.866666675 0.5 0.199999928 0.5 0.133333266 0 0.199999928 0 0.133333266 0.5 0.0666666031 0 0.133333266 0.5 0.133333266 0 0.133333266 0.5 0.0666666031 0 0.0666666031 0.5 0 0 0.0666666031 0 0.0666666031 0.5 0 0 0 1 0 1 0.0666666031 1 0.0666666031 0.5 0 1 0.0666666031 0.5 0.0666666031 1 0.133333266 0.5 0.133333266 1 0.133333266 0.5 0.0666666031 1 0.133333266 1 0.199999928 0.5 0.199999928 1 0.199999928 0.5 0.133333266 1 0.199999928 1 0.266666651 0.5 0.266666651 1 0.266666651 0.5 0.199999928 1 0.266666651 0.5 0.266666651 1 0.333333313 0.5 0.333333313 1 0.333333313 0.5 0.266666651 1 0.333333313 0.5 0.333333313 1 0.399999976 0.5 0.399999976 1 0.399999976 1 0.399999976 0.5 0.399999976 1 0.466666639 0.5 0.466666639 1 0.466666639 0.5 0.466666639 1 0.533333302 0.5 0.533333302 1 0.533333302 1 0.533333302 0.5 0.533333302 1 0.599999964 0.5 0.599999964 1 0.599999964 0 0.266666651 0 0.199999928 0.5 0.199999928 0.5 0.266666651 0 0.333333313 0 0.266666651 0.5 0.266666651 0 0.333333313 0.5 0.333333313 0 0.399999976 0 0.333333313 0.5 0.333333313 0 0.399999976 0.5 0.399999976 0 0.466666639 0 0.399999976 0.5 0.399999976 0 0.466666639 0.5 0.466666639 0 0.533333302 0 0.466666639 0.5 0.466666639 0 0.533333302 0.5 0.533333302 0 0.599999964 0 0.533333302 0.5 0.533333302 0 0.599999964 0.5 0.599999964 0 0.666666627 0 0.599999964 0.5 0.599999964 0 0.666666627 0.5 0.666666627 0 0.733333349 0.5 0.666666627 0 0.666666627 0.5 0.666666627 0 0.733333349 0.5 0.733333349 0 0.799999952 0.5 0.733333349 0 0.733333349 0.5 0.799999952 0.5 0.733333349 0 0.799999952 0.5 0.599999964 1 0.666666627 0.5 0.666666627 1 0.666666627 0.5 0.599999964 1 0.733333349 0.5 0.733333349 1 0.733333349 0.5 0.666666627 1 0.799999952 0.5 0.799999952 1 0.799999952 0.5 0.733333349 1 0.866666675 0.5 0.866666675 1 0.933333337 0.5 0.933333337 0.5 0.933333337 1 1 1 1 0.5 1 0.5 1 0 1 0 1 0.5 0.933333337 0 0.933333337 0.5 0.866666675 0 0.933333337 0.5 0.933333337 0 0.933333337 0.5 0.866666675 0 0.866666675 0.5 0.799999952 0 0.866666675 0.5 0.866666675 0 0.866666675 0.5 0.799999952 0 0.799999952</float_array>
        <technique_common><accessor source="#vfx_kurp_1055-mesh-uv0-array" count="306" stride="2"><param name="S" type="float"/><param name="T" type="float"/></accessor></technique_common>
      </source>
      <source id="vfx_kurp_1055-mesh-colors">
        <float_array id="vfx_kurp_1055-mesh-colors-array" count="1224">0.164705887 0.164705887 0.164705887 0.849999964 0.164705887 0.164705887 0.164705887 0.599999964 0.164705887 0.164705887 0.164705887 0 0.164705887 0.164705887 0.164705887 0 0.164705887 0.164705887 0.164705887 0.599999964 0.164705887 0.164705887 0.164705887 0 0.164705887 0.164705887 0.164705887 0.299999982 0.164705887 0.164705887 0.164705887 0 0.164705887 0.164705887 0.164705887 0.599999964 0.164705887 0.164705887 0.164705887 0 0.164705887 0.164705887 0.164705887 0.299999982 0.164705887 0.164705887 0.164705887 0 0.164705887 0.164705887 0.164705887 0 0.164705887 0.164705887 0.164705887 0 0.164705887 0.164705887 0.164705887 0.299999982 0.164705887 0.164705887 0.164705887 0 0.164705887 0.164705887 0.164705887 0 0.164705887 0.164705887 0.164705887 0 0.164705887 0.164705887 0.164705887 0 0.164705887 0.164705887 0.164705887 0 0.164705887 0.164705887 0.164705887 0 0.164705887 0.164705887 0.164705887 0.299999982 0.164705887 0.164705887 0.164705887 0 0.164705887 0.164705887 0.164705887 0 0.164705887 0.164705887 0.164705887 0 0.164705887 0.164705887 0.164705887 0.299999982 0.164705887 0.164705887 0.164705887 0 0.164705887 0.164705887 0.164705887 0.599999964 0.164705887 0.164705887 0.164705887 0 0.164705887 0.164705887 0.164705887 0.299999982 0.164705887 0.164705887 0.164705887 0 0.164705887 0.164705887 0.164705887 0.599999964 0.164705887 0.164705887 0.164705887 0 0.164705887 0.164705887 0.164705887 0.849999964 0.164705887 0.164705887 0.164705887 0 0.164705887 0.164705887 0.164705887 0.599999964 0.164705887 0.164705887 0.164705887 0 0.164705887 0.164705887 0.164705887 0.849999964 0.164705887 0.164705887 0.164705887 0 0.164705887 0.164705887 0.164705887 1 0.164705887 0.164705887 0.164705887 0 0.164705887 0.164705887 0.164705887 1 0.164705887 0.164705887 0.164705887 0 0.164705887 0.164705887 0.164705887 1 0.164705887 0.164705887 0.164705887 0 0.164705887 0.164705887 0.164705887 1 0.164705887 0.164705887 0.164705887 0 0.164705887 0.164705887 0.164705887 1 0.164705887 0.164705887 0.164705887 0 0.164705887 0.164705887 0.164705887 1 0.164705887 0.164705887 0.164705887 0 0.164705887 0.164705887 0.164705887 1 0.164705887 0.164705887 0.164705887 0 0.164705887 0.164705887 0.164705887 1 0.164705887 0.164705887 0.164705887 0 0.164705887 0.164705887 0.164705887 1 0.164705887 0.164705887 0.164705887 0 0.164705887 0.164705887 0.164705887 1 0.164705887 0.164705887 0.164705887 0 0.164705887 0.164705887 0.164705887 1 0.164705887 0.164705887 0.164705887 0 0.164705887 0.164705887 0.164705887 1 0.164705887 0.164705887 0.164705887 0 0.164705887 0.164705887 0.164705887 1 0.164705887 0.164705887 0.164705887 0 0.164705887 0.164705887 0.164705887 1 0.164705887 0.164705887 0.164705887 0 0.164705887 0.164705887 0.164705887 1 0.164705887 0.164705887 0.164705887 0 0.164705887 0.164705887 0.164705887 1 0.164705887 0.164705887 0.164705887 0 0.164705887 0.164705887 0.164705887 0.849999964 0.164705887 0.164705887 0.164705887 0 0.164705887 0.164705887 0.164705887 0.849999964 0.164705887 0.164705887 0.164705887 0 0.164705887 0.164705887 0.164705887 1 0.164705887 0.164705887 0.164705887 0 0.164705887 0.164705887 0.164705887 1 0.164705887 0.164705887 0.164705887 0 0.164705887 0.164705887 0.164705887 1 0.164705887 0.164705887 0.164705887 0 0.164705887 0.164705887 0.164705887 1 0.164705887 0.164705887 0.164705887 0 0.164705887 0.164705887 0.164705887 1 0.164705887 0.164705887 0.164705887 0 0.164705887 0.164705887 0.164705887 1 0.164705887 0.164705887 0.164705887 0 0.164705887 0.164705887 0.164705887 1 0.164705887 0.164705887 0.164705887 0 0.164705887 0.164705887 0.164705887 1 0.164705887 0.164705887 0.164705887 0 0.164705887 0.164705887 0.164705887 1 0.164705887 0.164705887 0.164705887 0 0.164705887 0.164705887 0.164705887 1 0.164705887 0.164705887 0.164705887 0 0.164705887 0.164705887 0.164705887 1 0.164705887 0.164705887 0.164705887 0 0.164705887 0.164705887 0.164705887 1 0.164705887 0.164705887 0.164705887 0 0.164705887 0.164705887 0.164705887 1 0.164705887 0.164705887 0.164705887 0 0.164705887 0.164705887 0.164705887 1 0.164705887 0.164705887 0.164705887 0 0.164705887 0.164705887 0.164705887 1 0.164705887 0.164705887 0.164705887 0 0.164705887 0.164705887 0.164705887 1 0.164705887 0.164705887 0.164705887 0 0.164705887 0.164705887 0.164705887 1 0.164705887 0.164705887 0.164705887 0 0.164705887 0.164705887 0.164705887 1 0.164705887 0.164705887 0.164705887 0 0.164705887 0.164705887 0.164705887 1 0.164705887 0.164705887 0.164705887 0 0.164705887 0.164705887 0.164705887 0.849999964 0.164705887 0.164705887 0.164705887 1 0.164705887 0.164705887 0.164705887 0 0.164705887 0.164705887 0.164705887 0 0.164705887 0.164705887 0.164705887 1 0.164705887 0.164705887 0.164705887 0 0.164705887 0.164705887 0.164705887 1 0.164705887 0.164705887 0.164705887 0 0.164705887 0.164705887 0.164705887 1 0.164705887 0.164705887 0.164705887 0 0.164705887 0.164705887 0.164705887 1 0.164705887 0.164705887 0.164705887 0 0.164705887 0.164705887 0.164705887 1 0.164705887 0.164705887 0.164705887 0 0.164705887 0.164705887 0.164705887 1 0.164705887 0.164705887 0.164705887 0 0.164705887 0.164705887 0.164705887 1 0.164705887 0.164705887 0.164705887 0 0.164705887 0.164705887 0.164705887 0.849999964 0.164705887 0.164705887 0.164705887 0 0.164705887 0.164705887 0.164705887 1 0.164705887 0.164705887 0.164705887 0 0.164705887 0.164705887 0.164705887 0.849999964 0.164705887 0.164705887 0.164705887 0 0.164705887 0.164705887 0.164705887 0.599999964 0.164705887 0.164705887 0.164705887 0 0.164705887 0.164705887 0.164705887 0.849999964 0.164705887 0.164705887 0.164705887 0 0.164705887 0.164705887 0.164705887 0.599999964 0.164705887 0.164705887 0.164705887 0 0.164705887 0.164705887 0.164705887 0.299999982 0.164705887 0.164705887 0.164705887 0 0.164705887 0.164705887 0.164705887 0.599999964 0.164705887 0.164705887 0.164705887 0 0.164705887 0.164705887 0.164705887 0.299999982 0.164705887 0.164705887 0.164705887 0 0.164705887 0.164705887 0.164705887 0 0.164705887 0.164705887 0.164705887 0.299999982 0.164705887 0.164705887 0.164705887 0 0.164705887 0.164705887 0.164705887 0 0.164705887 0.164705887 0.164705887 0.299999982 0.164705887 0.164705887 0.164705887 0 0.164705887 0.164705887 0.164705887 0 0.164705887 0.164705887 0.164705887 0.299999982 0.164705887 0.164705887 0.164705887 0 0.164705887 0.164705887 0.164705887 0.599999964 0.164705887 0.164705887 0.164705887 0.299999982 0.164705887 0.164705887 0.164705887 0 0.164705887 0.164705887 0.164705887 0.599999964 0.164705887 0.164705887 0.164705887 0.849999964 0.164705887 0.164705887 0.164705887 0.599999964 0.164705887 0.164705887 0.164705887 0 0.164705887 0.164705887 0.164705887 0 0.164705887 0.164705887 0.164705887 0.299999982 0.164705887 0.164705887 0.164705887 0 0.164705887 0.164705887 0.164705887 0.599999964 0.164705887 0.164705887 0.164705887 0 0.164705887 0.164705887 0.164705887 0.299999982 0.164705887 0.164705887 0.164705887 0 0.164705887 0.164705887 0.164705887 0 0.164705887 0.164705887 0.164705887 0 0.164705887 0.164705887 0.164705887 0 0.164705887 0.164705887 0.164705887 0 0.164705887 0.164705887 0.164705887 0 0.164705887 0.164705887 0.164705887 0 0.164705887 0.164705887 0.164705887 0 0.164705887 0.164705887 0.164705887 0 0.164705887 0.164705887 0.164705887 0 0.164705887 0.164705887 0.164705887 0 0.164705887 0.164705887 0.164705887 0.299999982 0.164705887 0.164705887 0.164705887 0 0.164705887 0.164705887 0.164705887 0.599999964 0.164705887 0.164705887 0.164705887 0 0.164705887 0.164705887 0.164705887 0.299999982 0.164705887 0.164705887 0.164705887 0 0.164705887 0.164705887 0.164705887 0 0.164705887 0.164705887 0.164705887 0.849999964 0.164705887 0.164705887 0.164705887 0 0.164705887 0.164705887 0.164705887 0.599999964 0.164705887 0.164705887 0.164705887 0 0.164705887 0.164705887 0.164705887 0 0.164705887 0.164705887 0.164705887 1 0.164705887 0.164705887 0.164705887 0 0.164705887 0.164705887 0.164705887 0.849999964 0.164705887 0.164705887 0.164705887 0 0.164705887 0.164705887 0.164705887 1 0.164705887 0.164705887 0.164705887 0 0.164705887 0.164705887 0.164705887 1 0.164705887 0.164705887 0.164705887 0 0.164705887 0.164705887 0.164705887 1 0.164705887 0.164705887 0.164705887 0 0.164705887 0.164705887 0.164705887 1 0.164705887 0.164705887 0.164705887 0 0.164705887 0.164705887 0.164705887 1 0.164705887 0.164705887 0.164705887 0 0.164705887 0.164705887 0.164705887 0 0.164705887 0.164705887 0.164705887 1 0.164705887 0.164705887 0.164705887 0 0.164705887 0.164705887 0.164705887 1 0.164705887 0.164705887 0.164705887 0 0.164705887 0.164705887 0.164705887 1 0.164705887 0.164705887 0.164705887 0 0.164705887 0.164705887 0.164705887 1 0.164705887 0.164705887 0.164705887 0 0.164705887 0.164705887 0.164705887 0 0.164705887 0.164705887 0.164705887 1 0.164705887 0.164705887 0.164705887 0 0.164705887 0.164705887 0.164705887 1 0.164705887 0.164705887 0.164705887 0 0.164705887 0.164705887 0.164705887 0 0.164705887 0.164705887 0.164705887 0 0.164705887 0.164705887 0.164705887 0.849999964 0.164705887 0.164705887 0.164705887 1 0.164705887 0.164705887 0.164705887 0 0.164705887 0.164705887 0.164705887 0 0.164705887 0.164705887 0.164705887 1 0.164705887 0.164705887 0.164705887 0 0.164705887 0.164705887 0.164705887 1 0.164705887 0.164705887 0.164705887 0 0.164705887 0.164705887 0.164705887 0 0.164705887 0.164705887 0.164705887 1 0.164705887 0.164705887 0.164705887 0 0.164705887 0.164705887 0.164705887 1 0.164705887 0.164705887 0.164705887 0 0.164705887 0.164705887 0.164705887 0 0.164705887 0.164705887 0.164705887 1 0.164705887 0.164705887 0.164705887 0 0.164705887 0.164705887 0.164705887 1 0.164705887 0.164705887 0.164705887 0 0.164705887 0.164705887 0.164705887 0 0.164705887 0.164705887 0.164705887 1 0.164705887 0.164705887 0.164705887 0 0.164705887 0.164705887 0.164705887 1 0.164705887 0.164705887 0.164705887 0 0.164705887 0.164705887 0.164705887 0 0.164705887 0.164705887 0.164705887 1 0.164705887 0.164705887 0.164705887 0 0.164705887 0.164705887 0.164705887 1 0.164705887 0.164705887 0.164705887 0 0.164705887 0.164705887 0.164705887 0 0.164705887 0.164705887 0.164705887 1 0.164705887 0.164705887 0.164705887 0 0.164705887 0.164705887 0.164705887 1 0.164705887 0.164705887 0.164705887 0 0.164705887 0.164705887 0.164705887 1 0.164705887 0.164705887 0.164705887 0 0.164705887 0.164705887 0.164705887 1 0.164705887 0.164705887 0.164705887 0 0.164705887 0.164705887 0.164705887 1 0.164705887 0.164705887 0.164705887 0 0.164705887 0.164705887 0.164705887 1 0.164705887 0.164705887 0.164705887 0 0.164705887 0.164705887 0.164705887 0.849999964 0.164705887 0.164705887 0.164705887 1 0.164705887 0.164705887 0.164705887 0 0.164705887 0.164705887 0.164705887 1 0.164705887 0.164705887 0.164705887 0 0.164705887 0.164705887 0.164705887 1 0.164705887 0.164705887 0.164705887 0 0.164705887 0.164705887 0.164705887 1 0.164705887 0.164705887 0.164705887 0 0.164705887 0.164705887 0.164705887 1 0.164705887 0.164705887 0.164705887 0 0.164705887 0.164705887 0.164705887 1 0.164705887 0.164705887 0.164705887 0 0.164705887 0.164705887 0.164705887 0.849999964 0.164705887 0.164705887 0.164705887 0 0.164705887 0.164705887 0.164705887 1 0.164705887 0.164705887 0.164705887 0 0.164705887 0.164705887 0.164705887 0.599999964 0.164705887 0.164705887 0.164705887 0 0.164705887 0.164705887 0.164705887 0.299999982 0.164705887 0.164705887 0.164705887 0.299999982 0.164705887 0.164705887 0.164705887 0 0.164705887 0.164705887 0.164705887 0 0.164705887 0.164705887 0.164705887 0 0.164705887 0.164705887 0.164705887 0 0.164705887 0.164705887 0.164705887 0 0.164705887 0.164705887 0.164705887 0 0.164705887 0.164705887 0.164705887 0.299999982 0.164705887 0.164705887 0.164705887 0 0.164705887 0.164705887 0.164705887 0.599999964 0.164705887 0.164705887 0.164705887 0 0.164705887 0.164705887 0.164705887 0.299999982 0.164705887 0.164705887 0.164705887 0 0.164705887 0.164705887 0.164705887 0.599999964 0.164705887 0.164705887 0.164705887 0 0.164705887 0.164705887 0.164705887 0.849999964 0.164705887 0.164705887 0.164705887 0 0.164705887 0.164705887 0.164705887 0.599999964 0.164705887 0.164705887 0.164705887 0 0.164705887 0.164705887 0.164705887 0.849999964 0.164705887 0.164705887 0.164705887 0</float_array>
        <technique_common><accessor source="#vfx_kurp_1055-mesh-colors-array" count="306" stride="4"><param name="R" type="float"/><param name="G" type="float"/><param name="B" type="float"/><param name="A" type="float"/></accessor></technique_common>
      </source>
      <vertices id="vfx_kurp_1055-mesh-vertices"><input semantic="POSITION" source="#vfx_kurp_1055-mesh-positions"/></vertices>
      <triangles material="PreviewMaterial" count="120">
        <input semantic="VERTEX" source="#vfx_kurp_1055-mesh-vertices" offset="0"/>
        <input semantic="NORMAL" source="#vfx_kurp_1055-mesh-normals" offset="1"/>
        <input semantic="TEXCOORD" source="#vfx_kurp_1055-mesh-uv0" offset="2" set="0"/>
        <input semantic="COLOR" source="#vfx_kurp_1055-mesh-colors" offset="3" set="0"/>
        <p>0 0 0 0 1 1 1 1 2 2 2 2 3 3 3 3 4 4 4 4 5 5 5 5 6 6 6 6 7 7 7 7 8 8 8 8 9 9 9 9 10 10 10 10 11 11 11 11 12 12 12 12 13 13 13 13 14 14 14 14 15 15 15 15 16 16 16 16 17 17 17 17 18 18 18 18 19 19 19 19 20 20 20 20 21 21 21 21 22 22 22 22 23 23 23 23 24 24 24 24 25 25 25 25 26 26 26 26 27 27 27 27 28 28 28 28 29 29 29 29 30 30 30 30 31 31 31 31 32 32 32 32 33 33 33 33 34 34 34 34 35 35 35 35 36 36 36 36 37 37 37 37 38 38 38 38 39 39 39 39 38 38 38 38 37 37 37 37 40 40 40 40 41 41 41 41 42 42 42 42 43 43 43 43 44 44 44 44 45 45 45 45 46 46 46 46 47 47 47 47 48 48 48 48 49 49 49 49 50 50 50 50 51 51 51 51 52 52 52 52 53 53 53 53 54 54 54 54 55 55 55 55 56 56 56 56 57 57 57 57 58 58 58 58 59 59 59 59 60 60 60 60 61 61 61 61 62 62 62 62 63 63 63 63 64 64 64 64 65 65 65 65 66 66 66 66 67 67 67 67 68 68 68 68 69 69 69 69 70 70 70 70 71 71 71 71 72 72 72 72 73 73 73 73 74 74 74 74 75 75 75 75 76 76 76 76 77 77 77 77 78 78 78 78 79 79 79 79 80 80 80 80 81 81 81 81 82 82 82 82 83 83 83 83 84 84 84 84 85 85 85 85 86 86 86 86 87 87 87 87 88 88 88 88 89 89 89 89 90 90 90 90 91 91 91 91 92 92 92 92 93 93 93 93 94 94 94 94 93 93 93 93 92 92 92 92 95 95 95 95 96 96 96 96 97 97 97 97 98 98 98 98 99 99 99 99 100 100 100 100 101 101 101 101 102 102 102 102 103 103 103 103 104 104 104 104 103 103 103 103 102 102 102 102 105 105 105 105 106 106 106 106 107 107 107 107 108 108 108 108 107 107 107 107 106 106 106 106 109 109 109 109 110 110 110 110 111 111 111 111 112 112 112 112 111 111 111 111 110 110 110 110 113 113 113 113 114 114 114 114 115 115 115 115 116 116 116 116 117 117 117 117 118 118 118 118 119 119 119 119 120 120 120 120 121 121 121 121 122 122 122 122 123 123 123 123 124 124 124 124 125 125 125 125 126 126 126 126 127 127 127 127 128 128 128 128 129 129 129 129 130 130 130 130 131 131 131 131 132 132 132 132 133 133 133 133 134 134 134 134 135 135 135 135 136 136 136 136 137 137 137 137 138 138 138 138 139 139 139 139 140 140 140 140 141 141 141 141 142 142 142 142 143 143 143 143 144 144 144 144 145 145 145 145 146 146 146 146 147 147 147 147 148 148 148 148 149 149 149 149 150 150 150 150 151 151 151 151 152 152 152 152 153 153 153 153 154 154 154 154 155 155 155 155 156 156 156 156 157 157 157 157 158 158 158 158 157 157 157 157 159 159 159 159 157 157 157 157 158 158 158 158 160 160 160 160 113 113 113 113 160 160 160 160 161 161 161 161 160 160 160 160 113 113 113 113 115 115 115 115 162 162 162 162 163 163 163 163 164 164 164 164 164 164 164 164 163 163 163 163 165 165 165 165 166 166 166 166 167 167 167 167 168 168 168 168 169 169 169 169 170 170 170 170 171 171 171 171 172 172 172 172 173 173 173 173 29 29 29 29 174 174 174 174 175 175 175 175 176 176 176 176 177 177 177 177 23 23 23 23 178 178 178 178 166 166 166 166 179 179 179 179 180 180 180 180 181 181 181 181 182 182 182 182 183 183 183 183 184 184 184 184 185 185 185 185 186 186 186 186 187 187 187 187 35 35 35 35 188 188 188 188 189 189 189 189 190 190 190 190 191 191 191 191 192 192 192 192 162 162 162 162 193 193 193 193 194 194 194 194 195 195 195 195 196 196 196 196 197 197 197 197 198 198 198 198 199 199 199 199 200 200 200 200 201 201 201 201 202 202 202 202 203 203 203 203 204 204 204 204 205 205 205 205 206 206 206 206 207 207 207 207 200 200 200 200 208 208 208 208 209 209 209 209 210 210 210 210 211 211 211 211 212 212 212 212 206 206 206 206 212 212 212 212 213 213 213 213 214 214 214 214 215 215 215 215 216 216 216 216 211 211 211 211 217 217 217 217 218 218 218 218 219 219 219 219 220 220 220 220 221 221 221 221 215 215 215 215 222 222 222 222 73 73 73 73 223 223 223 223 224 224 224 224 222 222 222 222 225 225 225 225 226 226 226 226 79 79 79 79 227 227 227 227 228 228 228 228 229 229 229 229 230 230 230 230 231 231 231 231 85 85 85 85 232 232 232 232 233 233 233 233 234 234 234 234 235 235 235 235 236 236 236 236 91 91 91 91 237 237 237 237 238 238 238 238 239 239 239 239 240 240 240 240 241 241 241 241 95 95 95 95 242 242 242 242 243 243 243 243 244 244 244 244 245 245 245 245 246 246 246 246 101 101 101 101 247 247 247 247 248 248 248 248 249 249 249 249 250 250 250 250 251 251 251 251 220 220 220 220 252 252 252 252 253 253 253 253 254 254 254 254 255 255 255 255 256 256 256 256 257 257 257 257 258 258 258 258 259 259 259 259 260 260 260 260 261 261 261 261 262 262 262 262 263 263 263 263 264 264 264 264 265 265 265 265 266 266 266 266 267 267 267 267 221 221 221 221 268 268 268 268 269 269 269 269 270 270 270 270 271 271 271 271 272 272 272 272 271 271 271 271 127 127 127 127 273 273 273 273 274 274 274 274 275 275 275 275 276 276 276 276 275 275 275 275 133 133 133 133 277 277 277 277 278 278 278 278 279 279 279 279 280 280 280 280 279 279 279 279 265 265 265 265 281 281 281 281 282 282 282 282 281 281 281 281 278 278 278 278 281 281 281 281 282 282 282 282 283 283 283 283 284 284 284 284 283 283 283 283 161 161 161 161 283 283 283 283 285 285 285 285 286 286 286 286 287 287 287 287 159 159 159 159 288 288 288 288 289 289 289 289 284 284 284 284 290 290 290 290 291 291 291 291 292 292 292 292 293 293 293 293 294 294 294 294 295 295 295 295 296 296 296 296 297 297 297 297 298 298 298 298 299 299 299 299 300 300 300 300 301 301 301 301 302 302 302 302 303 303 303 303 304 304 304 304 305 305 305 305</p>
      </triangles>
    </mesh></geometry>
  </library_geometries>
  <library_visual_scenes>
    <visual_scene id="Scene" name="Scene">
      <node id="vfx_kurp_1055" name="vfx_kurp_1055" type="NODE">
        <instance_geometry url="#vfx_kurp_1055-mesh"><bind_material><technique_common><instance_material symbol="PreviewMaterial" target="#PreviewMaterial"><bind_vertex_input semantic="UVSET0" input_semantic="TEXCOORD" input_set="0"/></instance_material></technique_common></bind_material></instance_geometry>
      </node>
    </visual_scene>
  </library_visual_scenes>
  <scene><instance_visual_scene url="#Scene"/></scene>
</COLLADA>
