<?xml version="1.0" encoding="utf-8"?>
<COLLADA xmlns="http://www.collada.org/2005/11/COLLADASchema" version="1.4.1">
  <asset>
    <contributor><authoring_tool>Morrobroom Kurpulio VFX preview converter</authoring_tool></contributor>
    <unit name="unit" meter="1"/>
    <up_axis>Z_UP</up_axis>
  </asset>
  <library_images>
    <image id="VFXTexture" name="darkmap_newgen-1.dds">
      <init_from>../../../Textures/Kurp/darkmap_newgen-1.dds</init_from>
    </image>
  </library_images>
  <library_effects>
    <effect id="PreviewEffect">
      <profile_COMMON>
        <newparam sid="VFXTexture-surface">
          <surface type="2D"><init_from>VFXTexture</init_from></surface>
        </newparam>
        <newparam sid="VFXTexture-sampler">
          <sampler2D><source>VFXTexture-surface</source></sampler2D>
        </newparam>
        <technique sid="common"><phong>
          <emission><color>0.08 0.08 0.08 1</color></emission>
          <ambient><color>0.2 0.2 0.2 1</color></ambient>
          <diffuse><texture texture="VFXTexture-sampler" texcoord="UVSET0"/></diffuse>
          <specular><color>0.15 0.15 0.15 1</color></specular>
          <shininess><float>8</float></shininess>
          <transparent opaque="A_ONE"><texture texture="VFXTexture-sampler" texcoord="UVSET0"/></transparent>
          <transparency><float>1</float></transparency>
        </phong></technique>
      </profile_COMMON>
      <extra><technique profile="GOOGLEEARTH"><double_sided>1</double_sided></technique></extra>
    </effect>
  </library_effects>
  <library_materials><material id="PreviewMaterial" name="PreviewMaterial"><instance_effect url="#PreviewEffect"/></material></library_materials>
  <library_geometries>
    <geometry id="vfx_kurp_1100-mesh" name="vfx_kurp_1100"><mesh>
      <source id="vfx_kurp_1100-mesh-positions">
        <float_array id="vfx_kurp_1100-mesh-positions-array" count="708">1.22241979 -2.00626334 -0.32392286 2.09672494 -1.25643594 -0.81999929 -0.293743283 -1.35276725 -0.194492975 -0.424551815 -0.28929029 -0.566964995 -0.880879398 -2.41474098 -0.504085076 1.22241979 -2.00626334 -0.32392286 -0.293743283 -1.35276725 -0.194492975 1.51594071 -2.77384364 -0.278503451 -0.714502393 -3.22579759 -0.768733784 1.56616857 -3.76779391 -1.01194745 -2.02439757 -3.96739889 -0.21213204 1.56616857 -3.76779391 -1.01194745 -0.714502393 -3.22579759 -0.768733784 1.56616857 -3.76779391 -1.01194745 -2.02439757 -3.96739889 -0.21213204 0.809889214 -4.16480747 -0.0688820387 -1.65686787 -4.99191843 0.107024929 0.809889214 -4.16480747 -0.0688820387 -2.02439757 -3.96739889 -0.21213204 0.479290269 -4.88290489 -0.0177584096 -1.2867587 -5.3767017 1.46124396 0.479290269 -4.88290489 -0.0177584096 -1.65686787 -4.99191843 0.107024929 0.778942564 -5.19239946 1.22919056 -1.26033587 -6.21507624 1.84151876 0.778942564 -5.19239946 1.22919056 -1.2867587 -5.3767017 1.46124396 1.93945691 -5.50124436 1.69677015 -1.46724855 -7.08772569 1.71986803 1.93945691 -5.50124436 1.69677015 -1.26033587 -6.21507624 1.84151876 2.36102174 -6.34091659 1.11014848 -1.0928872 -7.68973904 1.04887895 1.30696421 -7.2270115 0.754788161 -1.39022425 -8.72764183 1.56157398 1.30696421 -7.2270115 0.754788161 -1.0928872 -7.68973904 1.04887895 1.96895757 -7.69052766 1.2423533 -2.26345001 0.933844583 0.68529923 -2.05746949 1.94050327 0.468227921 -1.48636266 -0.420379803 -0.969875591 -0.666901557 -0.388825949 -2.35746522 -1.51246397 -1.76771654 -1.85304498 -2.78008582 0.600265815 0.932355411 -1.67378859 -3.18973282 -2.06835591 -2.78008582 0.600265815 0.932355411 -1.67378859 -3.18973282 -2.06835591 -4.05235554 0.052866155 1.07171557 -3.14651594 -2.61581982 -2.13561004 -4.05235554 0.052866155 1.07171557 -1.67378859 -3.18973282 -2.06835591 -4.69530321 -0.278659662 0.147659936 -3.82671688 -2.93504668 -1.17158879 -4.69530321 -0.278659662 0.147659936 -3.14651594 -2.61581982 -2.13561004 -5.50310871 -0.449930455 0.846270927 -4.23636255 -4.05693795 -1.74907598 -5.50310871 -0.449930455 0.846270927 -3.82671688 -2.93504668 -1.17158879 -6.11953241 -0.93712865 0.59392482 -4.74392733 -4.07485018 -0.349337789 -6.11953241 -0.93712865 0.59392482 -4.23636255 -4.05693795 -1.74907598 -5.49887271 -2.54262192 1.42815213 -4.50723387 -5.87558431 -0.370625626 -5.49887271 -2.54262192 1.42815213 -4.50723387 -5.87558431 -0.370625626 -6.2022602 -2.90729199 1.31822425 -5.02887951 -6.06615896 0.141017861 -6.2022602 -2.90729199 1.31822425 -4.50723387 -5.87558431 -0.370625626 -6.81669117 -2.89572773 1.65305303 -5.07672032 -7.05387829 1.10517356 -6.81669117 -2.89572773 1.65305303 -5.02887951 -6.06615896 0.141017861 -7.33228149 -3.53090311 2.77917741 5.8348613 -5.45948267 -1.24839146 6.0913405 -5.82002194 -1.73570515 5.55194257 -5.52082175 1.39928429 6.07749183 -5.77196321 1.34773576 5.55194257 -5.52082175 1.39928429 6.0913405 -5.82002194 -1.73570515 5.50089952 -4.94835233 1.15699092 5.8348613 -5.45948267 -1.24839146 5.50089952 -4.94835233 1.15699092 6.49036521 -4.4325052 -1.07517317 4.15141878 -5.20672452 0.793117721 6.49036521 -4.4325052 -1.07517317 5.50089952 -4.94835233 1.15699092 5.54758832 -4.44810268 -1.34201188 3.4673789 -4.89161696 1.50509178 5.54758832 -4.44810268 -1.34201188 4.15141878 -5.20672452 0.793117721 5.54758832 -4.44810268 -1.34201188 3.4673789 -4.89161696 1.50509178 5.67219342 -3.68947676 -0.567651821 3.56796548 -4.27350652 -0.822944786 5.67219342 -3.68947676 -0.567651821 3.4673789 -4.89161696 1.50509178 5.67219342 -3.68947676 -0.567651821 3.56796548 -4.27350652 -0.822944786 5.84399699 -3.12805728 -0.833626221 5.84399699 -3.12805728 -0.833626221 3.56796548 -4.27350652 -0.822944786 6.19501153 -2.49499902 -0.596793669 4.27887013 -3.30505921 -0.580492009 3.57449939 -3.30532312 -1.38872248 6.19501153 -2.49499902 -0.596793669 4.27887013 -3.30505921 -0.580492009 6.19501153 -2.49499902 -0.596793669 3.57449939 -3.30532312 -1.38872248 5.32420687 -1.74350109 -1.27854958 2.64846791 -3.42994193 -0.581778738 5.32420687 -1.74350109 -1.27854958 3.57449939 -3.30532312 -1.38872248 5.32420687 -1.74350109 -1.27854958 2.64846791 -3.42994193 -0.581778738 3.58142126 -1.6507022 -0.688945127 2.46427979 -2.82474613 -0.199500457 3.30347965 -1.09907078 -0.566754012 1.55934622 -2.95324393 0.360924614 2.4901978 -1.05459843 0.292607011 -7.03629322 -4.1981554 0.489933159 -7.31893482 -5.45247751 1.49135635 -5.00664507 -4.98242697 1.71929364 -4.92996501 -5.44120711 2.39005476 -4.30302846 -4.37022529 0.81548571 -7.03629322 -4.1981554 0.489933159 -4.30302846 -4.37022529 0.81548571 -6.03188067 -4.22051741 0.00178689515 -3.91694419 -3.66770401 1.24391453 -6.03188067 -4.22051741 0.00178689515 -4.30302846 -4.37022529 0.81548571 -6.62672017 -3.07705674 -0.162418643 -4.08958605 -3.03419235 0.626598762 -6.62672017 -3.07705674 -0.162418643 -3.91694419 -3.66770401 1.24391453 -6.48728228 -2.08115963 -1.28883148 -3.6312219 -2.60999911 0.306031534 -6.48728228 -2.08115963 -1.28883148 -3.6312219 -2.60999911 0.306031534 -5.66632318 -0.770020399 -0.491670385 -3.13767831 -2.5624957 -0.169663436 -5.66632318 -0.770020399 -0.491670385 -3.6312219 -2.60999911 0.306031534 -4.58196653 -0.367757448 -1.83090067 -4.58196653 -0.367757448 -1.83090067 -3.13767831 -2.5624957 -0.169663436 -3.71257184 0.0434847609 -1.53662348 -1.92201086 -2.54244632 0.33327255 -2.82487444 0.339167063 -0.916788193 -1.31843629 -1.57931992 0.121888958 -0.935566184 -0.662235941 0.56656583 -2.82487444 0.339167063 -0.916788193 -1.31843629 -1.57931992 0.121888958 -2.60602347 1.33227158 -0.88468964 -0.39729213 -0.137983959 0.100997503 -2.60602347 1.33227158 -0.88468964 -0.935566184 -0.662235941 0.56656583 -2.46537719 2.12171767 -1.8959246 0.27743228 -7.6887505 -0.412116256 0.597767411 -8.64537201 0.153480068 -0.176145953 -7.16760069 2.16051358 -0.0334030303 -7.7775051 2.35620921 0.0527466798 -6.57469282 3.27211361 0.27743228 -7.6887505 -0.412116256 -0.176145953 -7.16760069 2.16051358 0.648709944 -6.91163925 -0.381192312 0.027033178 -5.64184605 3.39791444 0.772657633 -6.17918701 0.182519137 0.772657633 -6.17918701 0.182519137 0.027033178 -5.64184605 3.39791444 0.210023193 -5.85175745 -0.241538265 -0.715754174 -4.62085506 2.7794215 -1.12172804 -4.27204283 1.82442706 -0.247990278 -5.61140997 -1.6535091 -0.960959537 -3.78114789 1.36492361 -0.247990278 -5.61140997 -1.6535091 -1.12172804 -4.27204283 1.82442706 -0.206495846 -4.45119328 -1.50911451 0.0493164146 -3.54028588 0.319206426 -0.206495846 -4.45119328 -1.50911451 -0.960959537 -3.78114789 1.36492361 0.715871837 -3.69633853 -2.30432828 -0.099816464 -2.55403746 1.0337007 0.715871837 -3.69633853 -2.30432828 0.0493164146 -3.54028588 0.319206426 0.478833812 -2.58047734 -1.744709 0.0726432186 -1.69853338 1.26767709 0.825114634 -1.58319023 -1.93588942 0.49317381 -0.852057366 1.00753428 0.993148732 -0.582248756 -2.5006256 4.91930469 -6.27999907 0.168411176 5.25759146 -6.6712618 -0.138638279 6.6220442 -4.69498956 0.0362980387 7.07512774 -4.95777382 -0.130384896 6.55628418 -4.24846818 -0.031096719 4.91930469 -6.27999907 0.168411176 6.6220442 -4.69498956 0.0362980387 4.93912051 -5.50415825 -0.160994398 5.77978046 -4.2970327 0.313868141 4.93912051 -5.50415825 -0.160994398 6.55628418 -4.24846818 -0.031096719 4.93912051 -5.50415825 -0.160994398 5.77978046 -4.2970327 0.313868141 3.81747068 -5.45999996 -0.535571021 3.83528887 -4.70384495 -0.385314308 5.36569621 -3.75881418 1.62146135 3.83528887 -4.70384495 -0.385314308 5.77978046 -4.2970327 0.313868141 4.88357794 -3.50372164 0.505060403 3.83528887 -4.70384495 -0.385314308 5.36569621 -3.75881418 1.62146135 3.83528887 -4.70384495 -0.385314308 4.88357794 -3.50372164 0.505060403 4.5833362 -3.89979506 -2.19033579 5.34753215 -2.74249123 0.606845359 5.29077719 -2.97861574 -1.72171839 5.29077719 -2.97861574 -1.72171839 5.34753215 -2.74249123 0.606845359 4.60852576 -2.36965724 -2.55486249 4.43213334 -2.53992713 0.0992253736 4.60852576 -2.36965724 -2.55486249 5.34753215 -2.74249123 0.606845359 2.87425127 -2.3265024 -2.02445971 3.31501992 -2.5961578 0.121675797 2.87425127 -2.3265024 -2.02445971 3.31501992 -2.5961578 0.121675797 2.4596783 -1.92208018 -1.57215167 3.29696549 -1.95597145 0.788652902 2.4596783 -1.92208018 -1.57215167 3.31501992 -2.5961578 0.121675797 2.81779077 -1.80365005 0.991380266 2.4596783 -1.92208018 -1.57215167 3.29696549 -1.95597145 0.788652902 1.30669181 -1.88385763 -0.687617264</float_array>
        <technique_common><accessor source="#vfx_kurp_1100-mesh-positions-array" count="236" stride="3"><param name="X" type="float"/><param name="Y" type="float"/><param name="Z" type="float"/></accessor></technique_common>
      </source>
      <source id="vfx_kurp_1100-mesh-normals">
        <float_array id="vfx_kurp_1100-mesh-normals-array" count="708">0.225039409 0.341363128 0.912594367 0.224767329 0.343454147 0.91187658 0.224516349 0.345373928 0.91121307 0.224356629 0.34659106 0.910790173 -0.0944494946 -0.261730488 0.96050843 -0.0753213502 -0.0513820797 0.995834613 -0.0313653579 -0.263715605 0.964090397 -0.083712295 -0.337827888 0.93747777 -0.11730148 -0.404770563 0.90686336 -0.0557871693 -0.594653932 0.802043947 0.183474463 0.361907124 0.9139805 0.183474463 0.361907124 0.9139805 0.183474463 0.361907124 0.9139805 0.0422247034 0.90827823 0.416230383 0.0422247038 0.908278242 0.416230357 0.0422247038 0.908278242 0.416230357 -0.0159481851 0.253277325 0.967262246 0.0279302065 0.127556979 0.991437906 -0.0283175705 0.288028141 0.957203168 0.055954269 0.0452482838 0.997407496 -0.0412807441 0.961490121 0.271721634 -0.0481965187 0.963299216 0.264067634 -0.0325054977 0.959044682 0.281383528 -0.0576717335 0.965608277 0.253524411 0.0230864832 0.479282216 0.877357152 -0.0893253839 0.636710223 0.765911919 0.0650720223 0.413903246 0.907992144 -0.116533789 0.670874589 0.732357264 0.185419769 -0.460044035 0.868319639 0.211971492 -0.442487299 0.87136277 0.0793544625 -0.156066253 0.984553805 0.226239013 -0.520559124 0.823306812 0.237705341 -0.641807211 0.729095107 0.206942474 -0.566158469 0.797896861 -0.0123283392 0.490596556 0.871299622 -0.0991562287 0.603556859 0.791130306 0.0259838864 0.43674164 0.899211642 -0.12210851 0.631249731 0.765906841 -0.769808774 0.264924143 -0.580697555 -0.871324761 0.0837460728 -0.483507762 -0.755092459 0.280584223 -0.592543561 -0.857758105 0.0996898916 -0.504294515 -0.804098906 0.219865082 -0.552344363 -0.641776271 0.415016109 -0.644891345 -0.832026674 0.174139671 -0.526694397 -0.31466494 0.531051847 -0.786746409 -0.314664956 0.531051865 -0.78674639 -0.31466494 0.531051847 -0.786746409 0.330114322 0.769355316 -0.546915837 0.358171847 0.764946066 -0.535322747 0.325152196 0.770055263 -0.548899755 0.369162176 0.76300597 -0.530604539 -0.801928084 0.0340029252 -0.596452135 -0.690275237 0.127966057 -0.712140987 -0.819535231 0.0164949921 -0.57279134 -0.664665331 0.146517519 -0.732634025 -0.207039701 0.522449786 -0.827152213 -0.124013524 0.550480612 -0.825585696 -0.236188595 0.511512088 -0.826178147 -0.102778272 0.556925751 -0.824178581 -0.931777287 -0.223380592 -0.286168129 -0.921510953 -0.360835327 -0.143580747 -0.897221496 -0.29441197 -0.329112715 -0.932793417 -0.347126428 -0.0969519727 -0.946898961 -0.1209411 -0.297918794 -0.0949821081 0.450760158 -0.887577421 -0.0949821089 0.450760133 -0.887577434 -0.0949821081 0.450760158 -0.887577421 -0.68509502 0.0169148611 -0.728257305 -0.492819978 0.137154722 -0.859253776 -0.701193083 0.00523144906 -0.712952237 -0.470994158 0.14906223 -0.86945095 -0.860725053 -0.306626051 -0.406365412 -0.822089036 -0.278575684 -0.496553326 -0.873937243 -0.317171809 -0.368287576 -0.808911103 -0.269649522 -0.522448048 -0.88608183 -0.451446857 -0.105141459 -0.871541299 -0.479115993 -0.104228741 -0.979393832 -0.17027653 -0.108598456 -0.430163407 -0.902669449 0.0121370928 -0.430163432 -0.902669437 0.0121370926 -0.430163408 -0.902669449 0.0121370781 -0.98508078 -0.133694665 -0.108358635 -0.802689375 0.550885836 -0.228505061 -0.802689375 0.550885836 -0.228505061 -0.802689375 0.550885836 -0.228505061 0.18856787 -0.968082434 -0.165101663 0.135780037 -0.963810851 -0.229417579 0.219298905 -0.967440146 -0.126362787 0.0944665674 -0.955958289 -0.27788454 -0.751034754 -0.288842018 -0.593731494 -0.751034754 -0.288842018 -0.593731494 -0.751034754 -0.288842018 -0.593731494 -0.709489715 0.557086457 -0.431600539 -0.709489715 0.557086457 -0.431600539 -0.709489726 0.557086486 -0.431600482 0.286286098 -0.929054984 -0.234301317 0.286286098 -0.929054984 -0.234301317 0.286286098 -0.929054984 -0.234301317 0.234504113 -0.473879669 -0.848790834 0.234504113 -0.473879669 -0.848790834 0.234504113 -0.473879669 -0.848790834 -0.230820422 0.450603298 -0.862368019 -0.176470784 0.376319867 -0.90952813 -0.209031725 0.420997773 -0.882647502 -0.153547996 0.344569969 -0.926118 0.366701092 -0.873831683 -0.319293751 0.366701118 -0.873831673 -0.319293747 0.366701118 -0.873831673 -0.319293747 0.368930331 -0.352649683 -0.859958494 0.368930336 -0.352649659 -0.859958502 0.368930331 -0.352649683 -0.859958494 -0.547053567 0.650066641 -0.527395257 -0.547053567 0.650066641 -0.527395257 -0.547053547 0.650066626 -0.527395296 -0.313467279 0.107540278 -0.943489986 -0.515307739 0.220320346 -0.82820099 -0.381461118 0.0761345205 -0.92124424 -0.563442012 0.159556747 -0.81060147 -0.545160963 0.136942093 -0.827070969 -0.601188307 0.175457082 -0.779607229 -0.682286935 0.310693385 -0.661781051 -0.148305197 0.704348978 0.694188796 -0.20674857 0.672397437 0.710729707 -0.135201114 0.789295187 0.598943876 -0.21736582 0.793907934 0.567857634 -0.0135070676 0.832717766 0.553532909 0.0547386645 0.996250828 0.0669922799 0.0547386571 0.996250828 0.0669922874 0.0547386571 0.996250829 0.06699228 -0.448239143 -0.227536347 0.86447029 -0.471776514 -0.148096518 0.869191775 -0.428153052 -0.287240507 0.856841792 -0.478239845 -0.123929834 0.869441227 -0.229372755 0.691849869 0.684639977 -0.213520734 0.732147735 0.646814185 -0.23705941 0.644092327 0.727288052 -0.212258722 0.74261442 0.63519293 -0.224897034 0.730397506 0.644934731 -0.505450049 -0.194608269 0.8406235 -0.505450049 -0.194608269 0.8406235 -0.505450049 -0.194608269 0.8406235 0.438885975 0.716535259 0.542177392 0.432056871 0.709511231 0.556705194 0.443480687 0.721214199 0.53214186 0.430110535 0.707494656 0.560763978 -0.441409107 0.338521576 0.831000086 -0.372462215 0.365331775 0.853114642 -0.493640982 0.276903023 0.824404814 -0.337547832 0.325994209 0.883056757 -0.545061475 0.184051116 0.817944482 -0.209607177 0.333119901 0.919291011 -0.635540407 -0.0587166538 0.769831634 -0.595029011 0.0640972861 0.80114419 -0.646024444 -0.0973868915 0.757078735 -0.580394386 0.101787771 0.807949012 0.093230616 0.647260813 0.756545764 0.205811322 0.739145882 0.641330698 0.0670586146 0.623147354 0.779224305 0.224834259 0.752648861 0.618845092 -0.927216635 -0.363595085 -0.0898216334 -0.931183136 -0.350224819 -0.101195575 -0.943445415 -0.298681678 -0.143874963 -0.947659517 -0.274249281 -0.163489365 -0.972946718 0.139839278 -0.183901222 -0.864836455 0.4635152 -0.192902996 -0.632026089 0.730255884 -0.259363389 -0.904357829 0.374123818 -0.205349179 -0.98340862 0.0430202319 -0.176229243 -0.89501612 0.357121338 -0.267227422 -0.515986038 -0.856276128 0.0234435702 -0.771672691 -0.636016337 -0.00211606308 -0.66237454 -0.746289441 0.0656661222 -0.777048686 -0.629176369 0.0182328321 -0.719578161 -0.691380899 0.0648052642 -0.690683117 -0.715902103 0.102181264 -0.961486295 0.0656284699 -0.266902619 -0.961104664 0.0673386679 -0.267849452 -0.961566547 0.0652666418 -0.266702158 -0.961016249 0.0677324283 -0.268067319 -0.567095542 0.766145499 -0.302363556 -0.688160858 0.683254606 -0.24412656 -0.520956189 0.790870023 -0.321137441 -0.725297706 0.651311844 -0.223015963 -0.964103056 0.158873376 -0.212754666 -0.974294662 -0.0700221382 -0.214118686 -0.968198693 0.0332363504 -0.247964989 -0.975139343 0.0748002336 -0.208586163 -0.927296034 0.316042948 -0.200596413 -0.967099812 0.190270163 -0.1688645 -0.920802292 0.341377376 -0.18863888 -0.986903548 0.0902369201 -0.133711202 0.384133635 -0.341155598 0.857936016 0.360771039 -0.326418248 0.873667777 0.237969498 -0.247436997 0.939225985 0.214454043 -0.232046327 0.948769711 -0.131921271 0.201612946 0.97054057 -0.310475577 0.337449293 0.888669168 -0.0546867757 0.141140019 0.988478048 -0.358103478 0.372628888 0.856101402 0.367406829 -0.550704466 0.749491036 0.367406829 -0.550704466 0.749491036 0.367406829 -0.550704466 0.749491036 -0.318520898 -0.146585644 0.93651326 -0.310337967 -0.160707328 0.936943702 -0.306300048 -0.167608108 0.937063393 -0.299481624 -0.179161408 0.937129632 0.0504368806 -0.917828636 0.393759718 0.0504368797 -0.917828669 0.393759643 0.0504368806 -0.917828636 0.393759718 -0.812401532 0.384203284 0.438624655 -0.812401534 0.38420325 0.438624681 -0.812401534 0.38420325 0.438624681 -0.747808542 0.663761768 -0.014237267 -0.823603157 0.567104163 0.00840885378 -0.780763402 0.62445776 -0.0214712585 -0.836871776 0.547394721 0.00215648254 -0.781377237 0.622500333 -0.044078899 -0.720581135 -0.687851132 0.087313505 -0.720581135 -0.687851132 0.087313505 -0.720581137 -0.687851132 0.0873134905 -0.0929728853 -0.991660572 -0.0892488283 -0.0712414898 -0.995099107 -0.0685741759 -0.175810997 -0.981588914 -0.0746572019 -0.0214212279 -0.996201541 -0.0844015481 0.0471309127 -0.989852934 -0.134051655 -0.671923857 -0.739244899 0.0451143958 -0.671923857 -0.739244899 0.0451143958 -0.671923857 -0.739244899 0.0451143958 -0.885486734 -0.346973609 0.30906724 -0.885486724 -0.34697361 0.309067266 -0.885486741 -0.346973583 0.309067248 -0.186736369 -0.979815526 0.0713516815 -0.0434688067 -0.997692038 0.05216379 -0.270222771 -0.959293898 0.0820662567 0.00206683045 -0.998945711 0.0458606099</float_array>
        <technique_common><accessor source="#vfx_kurp_1100-mesh-normals-array" count="236" stride="3"><param name="X" type="float"/><param name="Y" type="float"/><param name="Z" type="float"/></accessor></technique_common>
      </source>
      <source id="vfx_kurp_1100-mesh-uv0">
        <float_array id="vfx_kurp_1100-mesh-uv0-array" count="472">0 0.899999976 0 1 1 0.899999976 1 1 1 0.800000012 0 0.899999976 1 0.899999976 0 0.800000012 1 0.699999988 0 0.699999988 1 0.600000024 0 0.699999988 1 0.699999988 0 0.699999988 1 0.600000024 0 0.600000024 1 0.5 0 0.600000024 1 0.600000024 0 0.5 1 0.399999976 0 0.5 1 0.5 0 0.399999976 1 0.300000012 0 0.399999976 1 0.399999976 0 0.300000012 1 0.199999988 0 0.300000012 1 0.300000012 0 0.199999988 1 0.0999999642 0 0.0999999642 1 0 0 0.0999999642 1 0.0999999642 0 0 0 0.899999976 0 1 1 0.899999976 1 1 1 0.800000012 0 0.800000012 1 0.699999988 0 0.800000012 1 0.699999988 0 0.699999988 1 0.600000024 0 0.699999988 1 0.699999988 0 0.600000024 1 0.5 0 0.600000024 1 0.600000024 0 0.5 1 0.399999976 0 0.5 1 0.5 0 0.399999976 1 0.300000012 0 0.399999976 1 0.399999976 0 0.300000012 1 0.199999988 0 0.300000012 1 0.199999988 0 0.199999988 1 0.0999999642 0 0.199999988 1 0.199999988 0 0.0999999642 1 0 0 0.0999999642 1 0.0999999642 0 0 1 0.0999999642 1 0 0 0.0999999642 0 0 0 0.0999999642 1 0 0 0.199999988 1 0.0999999642 0 0.199999988 1 0.199999988 0 0.300000012 1 0.199999988 0 0.199999988 1 0.300000012 0 0.399999976 1 0.300000012 0 0.300000012 1 0.300000012 0 0.399999976 1 0.399999976 0 0.5 1 0.399999976 0 0.399999976 1 0.399999976 0 0.5 1 0.5 1 0.5 0 0.5 1 0.600000024 0 0.600000024 0 0.699999988 1 0.600000024 0 0.600000024 1 0.600000024 0 0.699999988 1 0.699999988 0 0.800000012 1 0.699999988 0 0.699999988 1 0.699999988 0 0.800000012 1 0.800000012 0 0.899999976 1 0.899999976 0 1 1 1 1 0.0999999642 1 0 0 0.0999999642 0 0 0 0.199999988 1 0.0999999642 0 0.199999988 1 0.199999988 0 0.300000012 1 0.199999988 0 0.199999988 1 0.300000012 0 0.399999976 1 0.300000012 0 0.300000012 1 0.399999976 0 0.5 1 0.399999976 0 0.5 1 0.5 0 0.600000024 1 0.5 0 0.5 1 0.600000024 1 0.600000024 0 0.600000024 1 0.699999988 0 0.699999988 1 0.800000012 0 0.800000012 0 0.899999976 1 0.800000012 0 0.800000012 1 0.899999976 0 1 1 0.899999976 0 0.899999976 1 1 1 0.0999999642 1 0 0 0.0999999642 0 0 0 0.199999988 1 0.0999999642 0 0.0999999642 1 0.199999988 0 0.300000012 1 0.300000012 1 0.300000012 0 0.300000012 1 0.399999976 0 0.399999976 0 0.5 1 0.5 0 0.600000024 1 0.5 0 0.5 1 0.600000024 0 0.699999988 1 0.600000024 0 0.600000024 1 0.699999988 0 0.800000012 1 0.699999988 0 0.699999988 1 0.800000012 0 0.899999976 1 0.899999976 0 1 1 1 1 0.0999999642 1 0 0 0.0999999642 0 0 0 0.199999988 1 0.0999999642 0 0.0999999642 1 0.199999988 0 0.300000012 1 0.199999988 0 0.199999988 1 0.199999988 0 0.300000012 1 0.300000012 1 0.399999976 0 0.399999976 1 0.399999976 0 0.300000012 0 0.5 1 0.399999976 0 0.399999976 1 0.399999976 0 0.5 1 0.5 0 0.600000024 1 0.600000024 1 0.600000024 0 0.600000024 1 0.699999988 0 0.699999988 1 0.699999988 0 0.600000024 1 0.800000012 0 0.800000012 1 0.800000012 0 0.800000012 1 0.899999976 0 0.899999976 1 0.899999976 0 0.800000012 0 1 1 0.899999976 0 0.899999976 1 1</float_array>
        <technique_common><accessor source="#vfx_kurp_1100-mesh-uv0-array" count="236" stride="2"><param name="S" type="float"/><param name="T" type="float"/></accessor></technique_common>
      </source>
      <vertices id="vfx_kurp_1100-mesh-vertices"><input semantic="POSITION" source="#vfx_kurp_1100-mesh-positions"/></vertices>
      <triangles material="PreviewMaterial" count="120">
        <input semantic="VERTEX" source="#vfx_kurp_1100-mesh-vertices" offset="0"/>
        <input semantic="NORMAL" source="#vfx_kurp_1100-mesh-normals" offset="1"/>
        <input semantic="TEXCOORD" source="#vfx_kurp_1100-mesh-uv0" offset="2" set="0"/>
        <p>0 0 0 1 1 1 2 2 2 3 3 3 2 2 2 1 1 1 4 4 4 5 5 5 6 6 6 5 5 5 4 4 4 7 7 7 8 8 8 7 7 7 4 4 4 7 7 7 8 8 8 9 9 9 10 10 10 11 11 11 12 12 12 13 13 13 14 14 14 15 15 15 16 16 16 17 17 17 18 18 18 17 17 17 16 16 16 19 19 19 20 20 20 21 21 21 22 22 22 21 21 21 20 20 20 23 23 23 24 24 24 25 25 25 26 26 26 25 25 25 24 24 24 27 27 27 28 28 28 29 29 29 30 30 30 29 29 29 28 28 28 31 31 31 32 32 32 31 31 31 28 28 28 31 31 31 32 32 32 33 33 33 34 34 34 35 35 35 36 36 36 37 37 37 35 35 35 34 34 34 38 38 38 39 39 39 40 40 40 41 41 41 40 40 40 39 39 39 42 42 42 38 38 38 40 40 40 38 38 38 42 42 42 43 43 43 44 44 44 43 43 43 42 42 42 45 45 45 46 46 46 47 47 47 48 48 48 49 49 49 50 50 50 49 49 49 48 48 48 51 51 51 52 52 52 53 53 53 54 54 54 53 53 53 52 52 52 55 55 55 56 56 56 57 57 57 58 58 58 57 57 57 56 56 56 59 59 59 60 60 60 61 61 61 62 62 62 61 61 61 60 60 60 63 63 63 64 64 64 63 63 63 60 60 60 65 65 65 66 66 66 67 67 67 68 68 68 69 69 69 70 70 70 69 69 69 68 68 68 71 71 71 72 72 72 73 73 73 74 74 74 75 75 75 73 73 73 72 72 72 76 76 76 77 77 77 78 78 78 79 79 79 80 80 80 81 81 81 82 82 82 76 76 76 78 78 78 83 83 83 84 84 84 85 85 85 86 86 86 87 87 87 88 88 88 87 87 87 86 86 86 89 89 89 90 90 90 91 91 91 92 92 92 93 93 93 94 94 94 95 95 95 96 96 96 97 97 97 98 98 98 99 99 99 100 100 100 101 101 101 102 102 102 103 103 103 104 104 104 105 105 105 104 104 104 103 103 103 106 106 106 107 107 107 108 108 108 109 109 109 110 110 110 111 111 111 112 112 112 113 113 113 114 114 114 115 115 115 116 116 116 117 117 117 118 118 118 117 117 117 116 116 116 117 117 117 118 118 118 119 119 119 120 120 120 119 119 119 118 118 118 121 121 121 119 119 119 120 120 120 122 122 122 123 123 123 124 124 124 125 125 125 124 124 124 123 123 123 126 126 126 122 122 122 124 124 124 127 127 127 128 128 128 129 129 129 130 130 130 131 131 131 132 132 132 131 131 131 130 130 130 133 133 133 134 134 134 135 135 135 136 136 136 135 135 135 134 134 134 137 137 137 138 138 138 137 137 137 134 134 134 139 139 139 140 140 140 141 141 141 142 142 142 143 143 143 144 144 144 143 143 143 142 142 142 145 145 145 146 146 146 147 147 147 148 148 148 149 149 149 148 148 148 147 147 147 148 148 148 149 149 149 150 150 150 151 151 151 150 150 150 149 149 149 152 152 152 153 153 153 154 154 154 153 153 153 152 152 152 155 155 155 156 156 156 157 157 157 158 158 158 159 159 159 157 157 157 156 156 156 160 160 160 161 161 161 162 162 162 163 163 163 162 162 162 161 161 161 164 164 164 165 165 165 166 166 166 165 165 165 164 164 164 167 167 167 168 168 168 167 167 167 164 164 164 167 167 167 168 168 168 169 169 169 170 170 170 171 171 171 172 172 172 173 173 173 172 172 172 171 171 171 174 174 174 172 172 172 173 173 173 172 172 172 174 174 174 175 175 175 176 176 176 177 177 177 178 178 178 177 177 177 176 176 176 179 179 179 180 180 180 181 181 181 182 182 182 181 181 181 180 180 180 183 183 183 184 184 184 185 185 185 186 186 186 185 185 185 184 184 184 187 187 187 188 188 188 187 187 187 184 184 184 187 187 187 188 188 188 189 189 189 190 190 190 189 189 189 188 188 188 191 191 191 189 189 189 190 190 190 192 192 192 193 193 193 194 194 194 195 195 195 194 194 194 193 193 193 196 196 196 197 197 197 198 198 198 197 197 197 196 196 196 199 199 199 200 200 200 201 201 201 202 202 202 203 203 203 204 204 204 205 205 205 205 205 205 204 204 204 206 206 206 207 207 207 208 208 208 209 209 209 210 210 210 211 211 211 212 212 212 213 213 213 214 214 214 215 215 215 216 216 216 215 215 215 214 214 214 215 215 215 216 216 216 217 217 217 218 218 218 219 219 219 220 220 220 221 221 221 222 222 222 223 223 223 222 222 222 221 221 221 224 224 224 225 225 225 224 224 224 221 221 221 226 226 226 227 227 227 228 228 228 229 229 229 230 230 230 231 231 231 232 232 232 233 233 233 234 234 234 235 235 235 233 233 233 232 232 232</p>
      </triangles>
    </mesh></geometry>
  </library_geometries>
  <library_visual_scenes>
    <visual_scene id="Scene" name="Scene">
      <node id="vfx_kurp_1100" name="vfx_kurp_1100" type="NODE">
        <instance_geometry url="#vfx_kurp_1100-mesh"><bind_material><technique_common><instance_material symbol="PreviewMaterial" target="#PreviewMaterial"><bind_vertex_input semantic="UVSET0" input_semantic="TEXCOORD" input_set="0"/></instance_material></technique_common></bind_material></instance_geometry>
      </node>
    </visual_scene>
  </library_visual_scenes>
  <scene><instance_visual_scene url="#Scene"/></scene>
</COLLADA>
