<?xml version="1.0" encoding="utf-8"?>
<COLLADA xmlns="http://www.collada.org/2005/11/COLLADASchema" version="1.4.1">
  <asset>
    <contributor><authoring_tool>Morrobroom Kurpulio VFX preview converter</authoring_tool></contributor>
    <unit name="unit" meter="1"/>
    <up_axis>Z_UP</up_axis>
  </asset>
  <library_images>
    <image id="VFXTexture" name="darkmap_newgen-1.dds">
      <init_from>../../../Textures/Kurp/darkmap_newgen-1.dds</init_from>
    </image>
  </library_images>
  <library_effects>
    <effect id="PreviewEffect">
      <profile_COMMON>
        <newparam sid="VFXTexture-surface">
          <surface type="2D"><init_from>VFXTexture</init_from></surface>
        </newparam>
        <newparam sid="VFXTexture-sampler">
          <sampler2D><source>VFXTexture-surface</source></sampler2D>
        </newparam>
        <technique sid="common"><phong>
          <emission><color>0.08 0.08 0.08 1</color></emission>
          <ambient><color>0.2 0.2 0.2 1</color></ambient>
          <diffuse><texture texture="VFXTexture-sampler" texcoord="UVSET0"/></diffuse>
          <specular><color>0.15 0.15 0.15 1</color></specular>
          <shininess><float>8</float></shininess>
          <transparent opaque="A_ONE"><texture texture="VFXTexture-sampler" texcoord="UVSET0"/></transparent>
          <transparency><float>1</float></transparency>
        </phong></technique>
      </profile_COMMON>
      <extra><technique profile="GOOGLEEARTH"><double_sided>1</double_sided></technique></extra>
    </effect>
  </library_effects>
  <library_materials><material id="PreviewMaterial" name="PreviewMaterial"><instance_effect url="#PreviewEffect"/></material></library_materials>
  <library_geometries>
    <geometry id="vfx_kurp_1040-mesh" name="vfx_kurp_1040"><mesh>
      <source id="vfx_kurp_1040-mesh-positions">
        <float_array id="vfx_kurp_1040-mesh-positions-array" count="558">-0.739587302 -0.433427075 6.04058535 -0.401253943 -0.719254859 6.22922206 -0.600049897 0.0276049048 6.77992028 -0.347680385 -0.26004398 6.98398477 -0.0166508731 -0.941241774 6.41606173 -0.0454778845 -0.500372169 7.18598018 0.297512426 -0.685549918 7.38585705 0.402074357 -1.09268386 6.60111703 0.472411871 -1.48606535 5.92247802 -0.017214055 -1.3620499 5.74577071 -0.478683884 -1.15376092 5.56766013 -0.89717431 -0.866770467 5.38810127 -1.01802 -0.095718644 5.85184276 -1.28471486 -0.464790279 5.1855 -1.22309157 0.293591676 5.65929047 -1.56088555 -0.037467849 5.00141366 -1.35271518 0.711797165 5.46487392 -1.75491901 0.432619467 4.81572113 -1.40251494 1.14487989 5.26857693 -1.85982584 0.930140229 4.62838057 -1.37067288 1.57811108 5.0703846 -1.87144851 1.43857858 4.43934632 -0.79495403 0.353267841 6.57380574 -0.891555742 0.654233299 6.39152975 -0.952374031 1.01947364 6.18228781 -0.943619101 1.38631648 5.97103512 -0.865885741 1.74216441 5.75779134 -0.742283992 2.01547452 5.57059088 -1.25527677 1.99198866 4.87159463 -0.535132634 2.30816955 5.35403072 -1.05403868 2.37335821 4.66911193 -0.275768546 2.55256907 5.1354411 -0.784094584 2.70739277 4.46462261 0.0261205975 2.73956275 4.91481948 -0.455159813 2.98187947 4.25808606 -1.761813 1.99157423 4.22271075 -1.56581793 2.45971314 4.02856116 -1.28527882 2.88198897 3.83253684 -0.929708182 3.24324914 3.63456929 -0.077474625 3.17654787 4.05024166 -0.451708062 3.54203856 3.4058676 0.334257767 3.28701187 3.83890142 0.0214854229 3.71843934 3.20213632 0.75908532 3.31308726 3.62530661 0.519671883 3.79971453 2.99618724 1.17689218 3.24461378 3.40983705 1.0792847 3.75648033 2.75803416 1.57034655 3.0846979 3.19082314 1.56133877 3.61470303 2.54561431 0.305290201 2.83089611 4.72134864 0.655507501 2.87606536 4.49698229 1.0073576 2.8482155 4.27043714 1.28783672 2.75553949 4.07081735 1.59478179 2.57896155 3.83995138 1.85859377 2.34119357 3.60666851 1.92295813 2.84818117 2.96925251 2.02141246 2.08566828 3.39931229 2.20652471 2.53404142 2.74489243 2.15453443 1.75292769 3.16091344 2.41751621 2.16627635 2.51707362 2.19594577 1.44590957 2.94688452 2.53729739 1.76093801 2.28621744 2.00574103 3.38084035 2.33060381 2.41712211 3.00601991 2.08198271 2.7105143 2.60296055 1.85959167 2.91544692 2.09354608 1.60430658 2.55989214 1.33837279 2.05147039 2.99673603 1.60695621 1.37383814 2.48504808 0.923529145 1.81334007 2.95362607 1.07013659 1.11157669 2.31224604 0.53922305 1.57093383 2.8078339 0.60677324 0.872323124 2.05427195 0.209187199 1.32470553 2.53108269 0.162063388 0.602876568 1.72472959 -0.0481144137 1.073899 2.19598715 -0.174868317 0.354175493 2.16480186 1.08456418 2.70267505 2.06266227 0.78262485 2.48077562 1.86682192 0.471934 2.22997764 1.62825795 0.245658409 1.99885612 1.30600953 0.0605456464 1.74064009 0.976795797 -0.0233916489 1.49881268 1.34332662 -0.210382782 0.81874538 0.629081448 -0.0313958893 1.24967222 0.936866357 -0.276115043 0.559321793 0.262889138 0.0657275182 0.978199717 0.530118685 -0.228297309 0.293953848 -0.0476051932 0.246189855 0.715676192 0.155482334 -0.0783252169 0.0244412729 1.75883778 -0.426286168 0.0775114326 1.28823375 -0.559177508 -0.200187892 0.838032516 -0.568662009 -0.464866595 0.391288744 -0.456634888 -0.748999404 3.36110741 0.775562222 11.8027583 3.45488299 1.18698788 12.0329245 2.98789597 0.647112661 12.7048463 3.12741843 0.987029177 12.9538366 3.47378503 1.60611666 12.260893 3.20407413 1.34549644 13.2002969 3.21568237 1.71127818 13.4441725 3.41806336 2.019676 12.4866865 3.64202358 2.28733857 11.6586543 3.75649128 1.82735385 11.4430471 3.78782875 1.35028333 11.2257278 3.73356299 0.871077534 11.0066393 3.19602448 0.388807607 11.5724664 3.56744013 0.362969472 10.7594384 2.95307282 0.0381169241 11.3375266 3.32906893 -0.0656108594 10.534825 2.65027717 -0.263975696 11.1003117 3.01615708 -0.446685849 10.3082567 2.29717114 -0.507140457 10.8608013 2.63807556 -0.767126584 10.0796757 1.90510221 -0.682828429 10.6189789 2.20652883 -1.01558874 9.8490275 2.78958308 0.33652093 12.4533614 2.56756846 0.118284967 12.2309567 2.27280042 -0.100362087 11.9756558 1.94366579 -0.262241269 11.7178983 1.59090281 -0.361824794 11.4577098 1.28750548 -0.384822756 11.2293013 1.48944489 -0.780157813 10.3764299 0.925729886 -0.347201492 10.9650659 1.05974792 -0.790865824 10.1293705 0.579298371 -0.243343747 10.6983588 0.636661105 -0.722108257 9.87986661 0.260412779 -0.076925104 10.4291679 0.234966973 -0.576098696 9.62786566 1.67818532 -1.18440832 9.58470329 1.18107854 -1.24173114 9.34781493 0.681775147 -1.2071581 9.10863619 0.1973883 -1.08132918 8.86708909 -0.123563395 -0.35164419 9.37426614 -0.295604602 -0.823724722 8.58804294 -0.428418293 -0.0587927529 9.11640038 -0.682591715 -0.5122104 8.33946302 -0.669301982 0.285145749 8.85578768 -1.00242062 -0.1346045 8.08817674 -0.828128745 0.66834631 8.5928884 -1.25010191 0.353826749 7.7975988 -0.899281283 1.07498147 8.32565756 -1.37680452 0.824499395 7.53841729 0.0344885111 0.115565142 10.1931096 -0.189348362 0.389595613 9.91935063 -0.353103133 0.699752877 9.64293412 -0.426343659 0.980973857 9.3993725 -0.444676986 1.32475447 9.11768532 -0.391284384 1.6618803 8.83304637 -0.887077217 1.48425729 8.05531453 -0.272440465 1.92308029 8.58004609 -0.777174754 1.8732813 7.78156445 -0.0770904217 2.1969814 8.28916627 -0.587796529 2.22764908 7.50359502 0.143033038 2.38190917 8.0280228 -0.323279445 2.52421692 7.22191734 -1.40885948 1.30787079 7.27607415 -1.30976027 1.83156446 6.97272279 -1.12870527 2.27039758 6.70137725 -0.818410767 2.68695618 6.38989475 0.00234568731 2.74829656 6.93549591 -0.465946456 2.98958447 6.10869265 0.36857712 2.88772237 6.64494454 -0.013303758 3.21319662 5.78869788 0.756731205 2.93114848 6.34917636 0.429340321 3.31607896 5.49677557 1.14107301 2.87779461 6.04874433 0.918488009 3.30144482 5.16801458 1.49978524 2.73009478 5.74272645 1.34780055 3.18645245 4.86456578 0.441429099 2.5329743 7.73005303 0.726555253 2.59618353 7.45930665 1.06255843 2.58610337 7.15330021 1.35080621 2.49969598 6.8712997 1.64405414 2.32431667 6.55623884 1.85831302 2.09428986 6.26117765 1.8049981 2.49369886 5.43140363 2.01872909 1.81240816 5.95719205 2.04267734 2.19008416 5.11487099 2.1004516 1.46482271 5.62595767 2.18683987 1.83163617 4.79108576 2.08759798 1.12313951 5.30564354 2.2315392 1.45063148 4.46224386 1.75466093 2.94581121 4.52699735 2.08004452 2.62039677 4.18816545 2.29458748 2.25247905 3.86522136 2.40692063 1.82899392 3.51854049</float_array>
        <technique_common><accessor source="#vfx_kurp_1040-mesh-positions-array" count="186" stride="3"><param name="X" type="float"/><param name="Y" type="float"/><param name="Z" type="float"/></accessor></technique_common>
      </source>
      <source id="vfx_kurp_1040-mesh-normals">
        <float_array id="vfx_kurp_1040-mesh-normals-array" count="558">-0.753688812 -0.465378306 0.464086421 -0.657319315 -0.606255915 0.447643925 -0.834926766 -0.405561474 0.372044603 -0.745866872 -0.562086807 0.357408772 -0.535791391 -0.727240629 0.429008918 -0.628746026 -0.699243478 0.340201401 -0.585337226 -0.74894929 0.310572525 -0.485134131 -0.777364811 0.400435794 -0.407650732 -0.786395319 0.464115593 -0.467359518 -0.735621784 0.490342404 -0.589230728 -0.626991731 0.509596427 -0.694106936 -0.496593626 0.521162482 -0.826017693 -0.303524494 0.47493963 -0.778917312 -0.33951399 0.527274191 -0.865584807 -0.127877591 0.484159337 -0.821900854 -0.179538302 0.540596877 -0.867910191 0.0430952146 0.494848161 -0.832935682 -0.0182386559 0.553069165 -0.837801226 0.210863832 0.5036125 -0.813638686 0.141230559 0.563955688 -0.776140933 0.371851477 0.509246239 -0.76648664 0.302764375 0.566420307 -0.901050383 -0.218118836 0.374876488 -0.920465787 -0.0388631019 0.388886095 -0.903008871 0.132665293 0.408625623 -0.856525122 0.307911383 0.414192342 -0.774226854 0.479391985 0.413226455 -0.660687216 0.623779768 0.417601729 -0.680833935 0.526188403 0.509500655 -0.518494063 0.742589748 0.423939114 -0.556363874 0.655494533 0.51067226 -0.357969561 0.832633798 0.422585792 -0.413433145 0.751963426 0.513443317 -0.168843984 0.895464705 0.411867298 -0.248195755 0.82258437 0.511618824 -0.684854006 0.46210659 0.563411475 -0.576487779 0.585784455 0.569665176 -0.448067483 0.684136047 0.575494048 -0.29446745 0.765653454 0.571894841 -0.0659410129 0.860069657 0.505897192 -0.119405401 0.817455654 0.563479019 0.114660645 0.85635953 0.503489118 0.0460393637 0.822803491 0.566458112 0.293060308 0.815622912 0.498873653 0.221740418 0.79819083 0.560109441 0.467420756 0.736055646 0.489632437 0.398705907 0.734975316 0.548493286 0.615073922 0.622338631 0.484126739 0.539459993 0.638410758 0.549012404 0.019818777 0.911967734 0.409782953 0.204032075 0.88730267 0.413599908 0.395551239 0.826315759 0.400925785 0.56246735 0.726227351 0.395252215 0.701611027 0.59309677 0.39494074 0.825489529 0.42079365 0.376164514 0.741191968 0.474934426 0.474417283 0.900050567 0.23439408 0.367380446 0.834092507 0.300823343 0.462379722 0.931613763 0.0338115514 0.3618737 0.884691122 0.112492304 0.452401481 0.920874974 -0.171244105 0.350235261 0.894595034 -0.0904944342 0.437619107 0.672695759 0.507096258 0.538826318 0.778071883 0.345388918 0.524700525 0.840507203 0.169561861 0.514583732 0.866638962 -0.0280217786 0.49814826 0.858132172 -0.290398221 0.423412386 0.846201302 -0.221070717 0.484841309 0.776260846 -0.482759453 0.405416341 0.781182912 -0.415816194 0.465671721 0.650546954 -0.654038781 0.386033591 0.67347204 -0.587861193 0.448168081 0.48743633 -0.793699278 0.363933071 0.524743503 -0.737289035 0.425498689 0.289642718 -0.895451296 0.338044483 0.343035631 -0.84882503 0.402271829 0.862914998 -0.375145056 0.338591041 0.762691915 -0.560033199 0.32351794 0.616330802 -0.725872331 0.305361591 0.44048173 -0.8510989 0.285668527 0.227896916 -0.938180203 0.260539638 0.00822872296 -0.972050887 0.234626004 0.0747535609 -0.948067252 0.309160785 -0.218695799 -0.953465655 0.207546122 -0.156226128 -0.948567617 0.275341375 -0.450559236 -0.876722379 0.168387188 -0.386887214 -0.891165218 0.236944797 -0.552148649 -0.817565125 0.163459891 -0.478094364 -0.846759053 0.233291416 0.132129672 -0.920212055 0.368444737 -0.0920208009 -0.937052176 0.336846243 -0.317405736 -0.898706086 0.302623477 -0.406394008 -0.863566399 0.298491181 0.836659781 -0.450338831 0.311761685 0.912861245 -0.284336892 0.292979315 0.812553224 -0.539036371 0.221804077 0.904298954 -0.375289831 0.203472219 0.95548756 -0.106628832 0.275088742 0.962552524 -0.197129963 0.186097866 0.977007307 -0.138867806 0.161779033 0.967554764 -0.0317913328 0.250653325 0.946884745 0.0473428145 0.318069077 0.939287293 -0.0428094187 0.340450782 0.907827955 -0.217198564 0.358710452 0.843247107 -0.38874221 0.371232825 0.725683256 -0.604885503 0.327867872 0.739876158 -0.553352964 0.382601317 0.583238532 -0.73538028 0.345034286 0.611850917 -0.680969666 0.402391314 0.425194257 -0.828267506 0.364942162 0.464319553 -0.778291888 0.422692666 0.252814828 -0.88801438 0.384076975 0.301878064 -0.844494655 0.442378133 0.0709044172 -0.913390029 0.400863091 0.121754785 -0.882789314 0.45371665 0.680103782 -0.694732233 0.234106748 0.525956142 -0.811646785 0.254164578 0.364248105 -0.886518131 0.285322488 0.181457501 -0.935328696 0.303699532 -0.0142630149 -0.948005114 0.317935324 -0.205182864 -0.920082145 0.333689735 -0.121471318 -0.902444633 0.413326025 -0.383931881 -0.852979974 0.353583759 -0.304308436 -0.852032533 0.425954151 -0.545593497 -0.754622518 0.364516929 -0.465159724 -0.768845233 0.438752138 -0.69401193 -0.618925996 0.367801649 -0.612122398 -0.652609764 0.446549735 -0.0707412432 -0.883734957 0.462610206 -0.242613805 -0.844016149 0.478304591 -0.400231473 -0.772751581 0.492615227 -0.554349792 -0.667971832 0.496497674 -0.73688256 -0.504884019 0.449551132 -0.686470587 -0.530338866 0.497492533 -0.824129591 -0.339619869 0.453286623 -0.774420982 -0.380688073 0.505320426 -0.877102219 -0.159018809 0.45321597 -0.839980786 -0.205496281 0.502198723 -0.893634794 0.0372481606 0.447246497 -0.868622877 -0.0138374889 0.495280549 -0.867828008 0.226760786 0.442101904 -0.85312589 0.162480882 0.495758186 -0.807427037 -0.457997202 0.371887271 -0.879167896 -0.284208597 0.382477822 -0.921987369 -0.0874909314 0.377206346 -0.921584861 0.112651322 0.371471431 -0.878068327 0.302102053 0.371120416 -0.793229991 0.495715672 0.35362714 -0.801588517 0.413939302 0.431404802 -0.668846677 0.662530969 0.337189616 -0.694990163 0.586083582 0.41652696 -0.513586152 0.79316984 0.32727797 -0.554678679 0.728643407 0.401759067 -0.32793608 0.893575486 0.306562845 -0.37969357 0.842831968 0.38140145 -0.801430515 0.351850928 0.483642486 -0.709017915 0.526535476 0.469099125 -0.581920488 0.674872002 0.453780041 -0.417825969 0.798222113 0.43389275 -0.183370064 0.914609824 0.360366883 -0.232146498 0.880363737 0.413603305 0.0303690672 0.941466678 0.335735332 -0.023604236 0.920689137 0.38958228 0.247982738 0.917931495 0.309687474 0.188725411 0.911675146 0.365008422 0.456470938 0.843760087 0.282317549 0.398712181 0.852327929 0.33847555 0.647865174 0.718600882 0.252751833 0.593318339 0.742745757 0.31032578 -0.121173135 0.949931268 0.288006351 0.0941711735 0.959978113 0.263768482 0.314652301 0.918568114 0.239220711 0.517081855 0.829169472 0.212377827 0.701278231 0.688497949 0.184876762 0.845034997 0.511422655 0.156085622 0.802981782 0.552861703 0.222630177 0.943182982 0.305094927 0.131616672 0.918347468 0.346610241 0.191047816 0.993070522 0.0633846261 0.0989612431 0.980985466 0.112817506 0.157923167 0.993202377 -0.0736697987 0.0901210244 0.988191697 0.0113027729 0.152805162 0.761654547 0.586215262 0.276105086 0.887042107 0.390498685 0.246306876 0.96213502 0.16696956 0.215446904 0.973285465 0.0828914963 0.214113062</float_array>
        <technique_common><accessor source="#vfx_kurp_1040-mesh-normals-array" count="186" stride="3"><param name="X" type="float"/><param name="Y" type="float"/><param name="Z" type="float"/></accessor></technique_common>
      </source>
      <source id="vfx_kurp_1040-mesh-uv0">
        <float_array id="vfx_kurp_1040-mesh-uv0-array" count="372">0.5 -0.233333349 0.5 -0.266666651 0 -0.233333349 0 -0.266666651 0.5 -0.299999952 0 -0.299999952 0 -0.333333254 0.5 -0.333333254 1 -0.333333254 1 -0.299999952 1 -0.266666651 1 -0.233333349 0.5 -0.200000048 1 -0.200000048 0.5 -0.166666627 1 -0.166666627 0.5 -0.133333325 1 -0.133333325 0.5 -0.0999999046 1 -0.0999999046 0.5 -0.0666666031 1 -0.0666666031 0 -0.200000048 0 -0.166666627 0 -0.133333325 0 -0.0999999046 0 -0.0666666031 0 -0.0333333015 0.5 -0.0333333015 0 5.96046448e-08 0.5 5.96046448e-08 0 0.0333333611 0.5 0.0333333611 0 0.0666667223 0.5 0.0666667223 1 -0.0333333015 1 5.96046448e-08 1 0.0333333611 1 0.0666667223 0.5 0.100000024 1 0.100000024 0.5 0.133333385 1 0.133333385 0.5 0.166666746 1 0.166666746 0.5 0.200000048 1 0.200000048 0.5 0.233333349 1 0.233333349 0 0.100000024 0 0.133333385 0 0.166666746 0 0.200000048 0 0.233333349 0 0.26666671 0.5 0.26666671 0 0.300000072 0.5 0.300000072 0 0.333333373 0.5 0.333333373 0 0.366666734 0.5 0.366666734 1 0.26666671 1 0.300000072 1 0.333333373 1 0.366666734 0.5 0.400000095 1 0.400000095 0.5 0.433333397 1 0.433333397 0.5 0.466666698 1 0.466666698 0.5 0.50000006 1 0.50000006 0.5 0.533333421 1 0.533333421 0 0.400000095 0 0.433333397 0 0.466666698 0 0.50000006 0 0.533333421 0 0.566666722 0.5 0.566666722 0 0.600000083 0.5 0.600000083 0 0.633333385 0.5 0.633333385 0 0.666666746 0.5 0.666666746 1 0.566666722 1 0.600000083 1 0.633333385 1 0.666666746 0.5 -0.233333349 0.5 -0.266666651 0 -0.233333349 0 -0.266666651 0.5 -0.299999952 0 -0.299999952 0 -0.333333254 0.5 -0.333333254 1 -0.333333254 1 -0.299999952 1 -0.266666651 1 -0.233333349 0.5 -0.200000048 1 -0.200000048 0.5 -0.166666627 1 -0.166666627 0.5 -0.133333325 1 -0.133333325 0.5 -0.0999999046 1 -0.0999999046 0.5 -0.0666666031 1 -0.0666666031 0 -0.200000048 0 -0.166666627 0 -0.133333325 0 -0.0999999046 0 -0.0666666031 0 -0.0333333015 0.5 -0.0333333015 0 5.96046448e-08 0.5 5.96046448e-08 0 0.0333333611 0.5 0.0333333611 0 0.0666667223 0.5 0.0666667223 1 -0.0333333015 1 5.96046448e-08 1 0.0333333611 1 0.0666667223 0.5 0.100000024 1 0.100000024 0.5 0.133333385 1 0.133333385 0.5 0.166666746 1 0.166666746 0.5 0.200000048 1 0.200000048 0.5 0.233333349 1 0.233333349 0 0.100000024 0 0.133333385 0 0.166666746 0 0.200000048 0 0.233333349 0 0.26666671 0.5 0.26666671 0 0.300000072 0.5 0.300000072 0 0.333333373 0.5 0.333333373 0 0.366666734 0.5 0.366666734 1 0.26666671 1 0.300000072 1 0.333333373 1 0.366666734 0.5 0.400000095 1 0.400000095 0.5 0.433333397 1 0.433333397 0.5 0.466666698 1 0.466666698 0.5 0.50000006 1 0.50000006 0.5 0.533333421 1 0.533333421 0 0.400000095 0 0.433333397 0 0.466666698 0 0.50000006 0 0.533333421 0 0.566666722 0.5 0.566666722 0 0.600000083 0.5 0.600000083 0 0.633333385 0.5 0.633333385 0 0.666666746 0.5 0.666666746 1 0.566666722 1 0.600000083 1 0.633333385 1 0.666666746</float_array>
        <technique_common><accessor source="#vfx_kurp_1040-mesh-uv0-array" count="186" stride="2"><param name="S" type="float"/><param name="T" type="float"/></accessor></technique_common>
      </source>
      <vertices id="vfx_kurp_1040-mesh-vertices"><input semantic="POSITION" source="#vfx_kurp_1040-mesh-positions"/></vertices>
      <triangles material="PreviewMaterial" count="240">
        <input semantic="VERTEX" source="#vfx_kurp_1040-mesh-vertices" offset="0"/>
        <input semantic="NORMAL" source="#vfx_kurp_1040-mesh-normals" offset="1"/>
        <input semantic="TEXCOORD" source="#vfx_kurp_1040-mesh-uv0" offset="2" set="0"/>
        <p>0 0 0 1 1 1 2 2 2 2 2 2 1 1 1 3 3 3 4 4 4 3 3 3 1 1 1 3 3 3 4 4 4 5 5 5 6 6 6 5 5 5 7 7 7 4 4 4 7 7 7 5 5 5 7 7 7 4 4 4 8 8 8 8 8 8 4 4 4 9 9 9 1 1 1 9 9 9 4 4 4 9 9 9 1 1 1 10 10 10 0 0 0 10 10 10 1 1 1 10 10 10 0 0 0 11 11 11 12 12 12 11 11 11 0 0 0 11 11 11 12 12 12 13 13 13 14 14 14 13 13 13 12 12 12 13 13 13 14 14 14 15 15 15 16 16 16 15 15 15 14 14 14 15 15 15 16 16 16 17 17 17 18 18 18 17 17 17 16 16 16 17 17 17 18 18 18 19 19 19 20 20 20 19 19 19 18 18 18 19 19 19 20 20 20 21 21 21 22 22 22 0 0 0 2 2 2 0 0 0 22 22 22 12 12 12 23 23 23 12 12 12 22 22 22 12 12 12 23 23 23 14 14 14 24 24 24 14 14 14 23 23 23 14 14 14 24 24 24 16 16 16 25 25 25 16 16 16 24 24 24 16 16 16 25 25 25 18 18 18 26 26 26 18 18 18 25 25 25 18 18 18 26 26 26 20 20 20 27 27 27 20 20 20 26 26 26 20 20 20 27 27 27 28 28 28 29 29 29 28 28 28 27 27 27 28 28 28 29 29 29 30 30 30 31 31 31 30 30 30 29 29 29 30 30 30 31 31 31 32 32 32 33 33 33 32 32 32 31 31 31 34 34 34 32 32 32 33 33 33 20 20 20 28 28 28 21 21 21 21 21 21 28 28 28 35 35 35 30 30 30 35 35 35 28 28 28 35 35 35 30 30 30 36 36 36 32 32 32 36 36 36 30 30 30 36 36 36 32 32 32 37 37 37 34 34 34 37 37 37 32 32 32 37 37 37 34 34 34 38 38 38 39 39 39 38 38 38 34 34 34 38 38 38 39 39 39 40 40 40 41 41 41 40 40 40 39 39 39 40 40 40 41 41 41 42 42 42 43 43 43 42 42 42 41 41 41 42 42 42 43 43 43 44 44 44 45 45 45 44 44 44 43 43 43 44 44 44 45 45 45 46 46 46 47 47 47 46 46 46 45 45 45 46 46 46 47 47 47 48 48 48 49 49 49 34 34 34 33 33 33 34 34 34 49 49 49 39 39 39 50 50 50 39 39 39 49 49 49 39 39 39 50 50 50 41 41 41 51 51 51 41 41 41 50 50 50 41 41 41 51 51 51 43 43 43 52 52 52 43 43 43 51 51 51 43 43 43 52 52 52 45 45 45 53 53 53 45 45 45 52 52 52 45 45 45 53 53 53 47 47 47 54 54 54 47 47 47 53 53 53 47 47 47 54 54 54 55 55 55 56 56 56 55 55 55 54 54 54 55 55 55 56 56 56 57 57 57 58 58 58 57 57 57 56 56 56 57 57 57 58 58 58 59 59 59 60 60 60 59 59 59 58 58 58 61 61 61 59 59 59 60 60 60 47 47 47 55 55 55 48 48 48 48 48 48 55 55 55 62 62 62 57 57 57 62 62 62 55 55 55 62 62 62 57 57 57 63 63 63 59 59 59 63 63 63 57 57 57 63 63 63 59 59 59 64 64 64 61 61 61 64 64 64 59 59 59 64 64 64 61 61 61 65 65 65 66 66 66 65 65 65 61 61 61 65 65 65 66 66 66 67 67 67 68 68 68 67 67 67 66 66 66 67 67 67 68 68 68 69 69 69 70 70 70 69 69 69 68 68 68 69 69 69 70 70 70 71 71 71 72 72 72 71 71 71 70 70 70 71 71 71 72 72 72 73 73 73 74 74 74 73 73 73 72 72 72 73 73 73 74 74 74 75 75 75 76 76 76 61 61 61 60 60 60 61 61 61 76 76 76 66 66 66 77 77 77 66 66 66 76 76 76 66 66 66 77 77 77 68 68 68 78 78 78 68 68 68 77 77 77 68 68 68 78 78 78 70 70 70 79 79 79 70 70 70 78 78 78 70 70 70 79 79 79 72 72 72 80 80 80 72 72 72 79 79 79 72 72 72 80 80 80 74 74 74 81 81 81 74 74 74 80 80 80 74 74 74 81 81 81 82 82 82 83 83 83 82 82 82 81 81 81 82 82 82 83 83 83 84 84 84 85 85 85 84 84 84 83 83 83 84 84 84 85 85 85 86 86 86 87 87 87 86 86 86 85 85 85 88 88 88 86 86 86 87 87 87 74 74 74 82 82 82 75 75 75 75 75 75 82 82 82 89 89 89 84 84 84 89 89 89 82 82 82 89 89 89 84 84 84 90 90 90 86 86 86 90 90 90 84 84 84 90 90 90 86 86 86 91 91 91 88 88 88 91 91 91 86 86 86 91 91 91 88 88 88 92 92 92 93 93 93 94 94 94 95 95 95 95 95 95 94 94 94 96 96 96 97 97 97 96 96 96 94 94 94 96 96 96 97 97 97 98 98 98 99 99 99 98 98 98 100 100 100 97 97 97 100 100 100 98 98 98 100 100 100 97 97 97 101 101 101 101 101 101 97 97 97 102 102 102 94 94 94 102 102 102 97 97 97 102 102 102 94 94 94 103 103 103 93 93 93 103 103 103 94 94 94 103 103 103 93 93 93 104 104 104 105 105 105 104 104 104 93 93 93 104 104 104 105 105 105 106 106 106 107 107 107 106 106 106 105 105 105 106 106 106 107 107 107 108 108 108 109 109 109 108 108 108 107 107 107 108 108 108 109 109 109 110 110 110 111 111 111 110 110 110 109 109 109 110 110 110 111 111 111 112 112 112 113 113 113 112 112 112 111 111 111 112 112 112 113 113 113 114 114 114 115 115 115 93 93 93 95 95 95 93 93 93 115 115 115 105 105 105 116 116 116 105 105 105 115 115 115 105 105 105 116 116 116 107 107 107 117 117 117 107 107 107 116 116 116 107 107 107 117 117 117 109 109 109 118 118 118 109 109 109 117 117 117 109 109 109 118 118 118 111 111 111 119 119 119 111 111 111 118 118 118 111 111 111 119 119 119 113 113 113 120 120 120 113 113 113 119 119 119 113 113 113 120 120 120 121 121 121 122 122 122 121 121 121 120 120 120 121 121 121 122 122 122 123 123 123 124 124 124 123 123 123 122 122 122 123 123 123 124 124 124 125 125 125 126 126 126 125 125 125 124 124 124 127 127 127 125 125 125 126 126 126 113 113 113 121 121 121 114 114 114 114 114 114 121 121 121 128 128 128 123 123 123 128 128 128 121 121 121 128 128 128 123 123 123 129 129 129 125 125 125 129 129 129 123 123 123 129 129 129 125 125 125 130 130 130 127 127 127 130 130 130 125 125 125 130 130 130 127 127 127 131 131 131 132 132 132 131 131 131 127 127 127 131 131 131 132 132 132 133 133 133 134 134 134 133 133 133 132 132 132 133 133 133 134 134 134 135 135 135 136 136 136 135 135 135 134 134 134 135 135 135 136 136 136 137 137 137 138 138 138 137 137 137 136 136 136 137 137 137 138 138 138 139 139 139 140 140 140 139 139 139 138 138 138 139 139 139 140 140 140 141 141 141 142 142 142 127 127 127 126 126 126 127 127 127 142 142 142 132 132 132 143 143 143 132 132 132 142 142 142 132 132 132 143 143 143 134 134 134 144 144 144 134 134 134 143 143 143 134 134 134 144 144 144 136 136 136 145 145 145 136 136 136 144 144 144 136 136 136 145 145 145 138 138 138 146 146 146 138 138 138 145 145 145 138 138 138 146 146 146 140 140 140 147 147 147 140 140 140 146 146 146 140 140 140 147 147 147 148 148 148 149 149 149 148 148 148 147 147 147 148 148 148 149 149 149 150 150 150 151 151 151 150 150 150 149 149 149 150 150 150 151 151 151 152 152 152 153 153 153 152 152 152 151 151 151 154 154 154 152 152 152 153 153 153 140 140 140 148 148 148 141 141 141 141 141 141 148 148 148 155 155 155 150 150 150 155 155 155 148 148 148 155 155 155 150 150 150 156 156 156 152 152 152 156 156 156 150 150 150 156 156 156 152 152 152 157 157 157 154 154 154 157 157 157 152 152 152 157 157 157 154 154 154 158 158 158 159 159 159 158 158 158 154 154 154 158 158 158 159 159 159 160 160 160 161 161 161 160 160 160 159 159 159 160 160 160 161 161 161 162 162 162 163 163 163 162 162 162 161 161 161 162 162 162 163 163 163 164 164 164 165 165 165 164 164 164 163 163 163 164 164 164 165 165 165 166 166 166 167 167 167 166 166 166 165 165 165 166 166 166 167 167 167 168 168 168 169 169 169 154 154 154 153 153 153 154 154 154 169 169 169 159 159 159 170 170 170 159 159 159 169 169 169 159 159 159 170 170 170 161 161 161 171 171 171 161 161 161 170 170 170 161 161 161 171 171 171 163 163 163 172 172 172 163 163 163 171 171 171 163 163 163 172 172 172 165 165 165 173 173 173 165 165 165 172 172 172 165 165 165 173 173 173 167 167 167 174 174 174 167 167 167 173 173 173 167 167 167 174 174 174 175 175 175 176 176 176 175 175 175 174 174 174 175 175 175 176 176 176 177 177 177 178 178 178 177 177 177 176 176 176 177 177 177 178 178 178 179 179 179 180 180 180 179 179 179 178 178 178 181 181 181 179 179 179 180 180 180 167 167 167 175 175 175 168 168 168 168 168 168 175 175 175 182 182 182 177 177 177 182 182 182 175 175 175 182 182 182 177 177 177 183 183 183 179 179 179 183 183 183 177 177 177 183 183 183 179 179 179 184 184 184 181 181 181 184 184 184 179 179 179 184 184 184 181 181 181 185 185 185</p>
      </triangles>
    </mesh></geometry>
  </library_geometries>
  <library_visual_scenes>
    <visual_scene id="Scene" name="Scene">
      <node id="vfx_kurp_1040" name="vfx_kurp_1040" type="NODE">
        <instance_geometry url="#vfx_kurp_1040-mesh"><bind_material><technique_common><instance_material symbol="PreviewMaterial" target="#PreviewMaterial"><bind_vertex_input semantic="UVSET0" input_semantic="TEXCOORD" input_set="0"/></instance_material></technique_common></bind_material></instance_geometry>
      </node>
    </visual_scene>
  </library_visual_scenes>
  <scene><instance_visual_scene url="#Scene"/></scene>
</COLLADA>
