<?xml version="1.0" encoding="utf-8"?>
<COLLADA xmlns="http://www.collada.org/2005/11/COLLADASchema" version="1.4.1">
  <asset>
    <contributor><authoring_tool>Morrobroom Kurpulio VFX preview converter</authoring_tool></contributor>
    <unit name="unit" meter="1"/>
    <up_axis>Z_UP</up_axis>
  </asset>
  <library_images>
    <image id="VFXTexture" name="darkmap_newgen-1.dds">
      <init_from>../../../Textures/Kurp/darkmap_newgen-1.dds</init_from>
    </image>
  </library_images>
  <library_effects>
    <effect id="PreviewEffect">
      <profile_COMMON>
        <newparam sid="VFXTexture-surface">
          <surface type="2D"><init_from>VFXTexture</init_from></surface>
        </newparam>
        <newparam sid="VFXTexture-sampler">
          <sampler2D><source>VFXTexture-surface</source></sampler2D>
        </newparam>
        <technique sid="common"><phong>
          <emission><color>0.08 0.08 0.08 1</color></emission>
          <ambient><color>0.2 0.2 0.2 1</color></ambient>
          <diffuse><texture texture="VFXTexture-sampler" texcoord="UVSET0"/></diffuse>
          <specular><color>0.15 0.15 0.15 1</color></specular>
          <shininess><float>8</float></shininess>
          <transparent opaque="A_ONE"><texture texture="VFXTexture-sampler" texcoord="UVSET0"/></transparent>
          <transparency><float>1</float></transparency>
        </phong></technique>
      </profile_COMMON>
      <extra><technique profile="GOOGLEEARTH"><double_sided>1</double_sided></technique></extra>
    </effect>
  </library_effects>
  <library_materials><material id="PreviewMaterial" name="PreviewMaterial"><instance_effect url="#PreviewEffect"/></material></library_materials>
  <library_geometries>
    <geometry id="vfx_kurp_0706-mesh" name="vfx_kurp_0706"><mesh>
      <source id="vfx_kurp_0706-mesh-positions">
        <float_array id="vfx_kurp_0706-mesh-positions-array" count="972">-2.55869164 9.90951148e-07 -0.330906603 -2.94536295 1.08361506e-06 -0.854471191 -1.91478346 6.58193783e-07 -0.939266125 -2.17441359 7.20418166e-07 -1.29076938 -3.20085717 1.11170791e-06 -1.47527482 -2.34634269 7.39292128e-07 -1.70877814 -3.29669372 1.07009012e-06 -2.14077122 -2.41099917 7.11302873e-07 -2.15702498 -3.2297657 9.65003926e-07 -2.78879804 -2.36604525 6.40746645e-07 -2.59205979 -3.01465987 8.05568031e-07 -3.39246275 -2.22102885 5.33272894e-07 -2.99892838 -2.66586276 6.00543797e-07 -3.92750204 -1.98560455 3.94887041e-07 -3.36008016 -2.19703516 3.58329514e-07 -4.3699047 -1.67025832 2.3196051e-07 -3.657707 -1.62282944 8.79023462e-08 -4.69417158 -1.28483371 5.04439153e-08 -3.87534443 -1.58322759 5.57973261e-07 -0.662573777 -2.0668841 8.42298294e-07 0.0795821992 -1.19694295 4.25430675e-07 -0.471096191 -1.49455953 6.45918737e-07 0.363255886 -0.773906723 2.66585931e-07 -0.374975911 -0.865559073 4.09729718e-07 0.506113718 -0.330618872 8.69596525e-08 -0.383560302 -0.205199227 1.42147034e-07 0.493359895 0.111311266 -1.05641142e-07 -0.504306032 0.449307298 -1.43099707e-07 0.314520991 0.49685627 -2.87217014e-07 -0.722032838 1.02369186 -4.13614956e-07 -0.00987883798 0.812177094 -4.50136305e-07 -1.01968452 1.49248137 -6.55818242e-07 -0.452317571 1.04757172 -5.88512387e-07 -1.38085442 1.84123407 -8.60827841e-07 -0.987383879 1.19255576 -6.95974626e-07 -1.78773566 2.05629258 -1.02024707e-06 -1.59106848 1.23747417 -7.66517325e-07 -2.22277692 2.12316718 -1.12531296e-06 -2.23910538 1.17277851 -7.94490765e-07 -2.67102353 2.02727137 -1.16690736e-06 -2.9046059 1.00081638 -7.7560119e-07 -3.08901317 1.77172916 -1.1387912e-06 -3.52537645 0.741159065 -7.13362936e-07 -3.44049219 1.38501738 -1.04610656e-06 -4.04890439 0.409580925 -6.13130181e-07 -3.71715748 0.893177913 -8.97435928e-07 -4.45935239 0.0232810562 -4.80577687e-07 -3.90860376 0.320830332 -7.01041566e-07 -4.74298019 -0.399765072 -3.2172485e-07 -4.00469001 -0.308185802 -4.64840102e-07 -4.88578717 -0.843056903 -1.4209245e-07 -3.99606815 -0.968551121 -1.9724854e-07 -4.87297798 -1.28483371 5.04439153e-08 -3.87534443 -1.62282944 8.79023462e-08 -4.69417158 -2.23673746 0.442922408 -0.635086177 -2.5598884 0.442922459 -1.07262009 -2.23673764 -0.442921287 -0.635086116 -2.55988857 -0.442921209 -1.07262003 -2.77359989 0.442922535 -1.59202628 -2.77360027 -0.442921186 -1.59202616 -2.85384651 0.4429225 -2.14889787 -2.85384663 -0.442921168 -2.14889761 -2.79790564 0.442922465 -2.69042866 -2.79790596 -0.442921203 -2.69042834 -2.61784444 0.442922385 -3.195695 -2.61784472 -0.442921336 -3.19569492 -2.32573397 0.442922239 -3.64379059 -2.32573425 -0.442921402 -3.6437905 -1.93364722 0.442922142 -4.01380573 -1.93364749 -0.442921552 -4.01380564 -1.45383213 0.442921969 -4.28475786 -1.4538324 -0.442921725 -4.28475777 -1.825056 -0.442921411 -0.291495629 -1.82505573 0.442922336 -0.291495717 -1.34575143 -0.442921523 -0.0539200823 -1.34575115 0.442922172 -0.0539201706 -0.81973305 -0.442921667 0.0655688971 -0.819732776 0.442922027 0.0655687961 -0.267909223 -0.442921838 0.0548997084 -0.267908949 0.442921882 0.0548996106 0.28030906 -0.442921971 -0.0948926863 0.280309334 0.442921696 -0.0948927841 0.760273777 -0.442922171 -0.365956054 0.76027405 0.442921549 -0.365956155 1.15232885 -0.442922294 -0.736001315 1.15232912 0.4429214 -0.736001404 1.44440244 -0.442922413 -1.18411946 1.44440272 0.442921334 -1.18411955 1.62442346 -0.442922494 -1.68940231 1.62442364 0.4429212 -1.68940238 1.68031991 -0.442922529 -2.23094142 1.68032029 0.442921112 -2.23094154 1.60002443 -0.442922537 -2.78781501 1.60002461 0.44292113 -2.78781507 1.38627166 -0.442922514 -3.30719494 1.38627203 0.442921154 -3.30719505 1.06308737 -0.442922436 -3.74469827 1.06308775 0.442921284 -3.74469839 0.651378458 -0.442922338 -4.0882551 0.651378734 0.442921356 -4.08825519 0.172054893 -0.4429222 -4.32579175 0.172055169 0.442921467 -4.32579184 -0.35397629 -0.442922056 -4.44523835 -0.353976013 0.442921665 -4.44523844 -0.905804864 -0.442921911 -4.43452283 -0.905804588 0.442921836 -4.43452292 -1.4538324 -0.442921725 -4.28475777 -1.45383213 0.442921969 -4.28475786 -1.56046215 0.661362805 -1.66532616 -1.65758737 0.661362814 -1.91256098 -1.24237103 0.661362709 -1.83713055 -1.30759036 0.661362715 -2.00311896 -1.69273093 0.661362795 -2.18427213 -1.33121269 0.661362702 -2.18606043 -1.66021588 0.661362749 -2.45673716 -1.30935361 0.661362671 -2.36959107 -1.56538338 0.661362681 -2.70512324 -1.24568116 0.661362626 -2.53633571 -1.41682428 0.661362648 -2.92036994 -1.14553869 0.661362568 -2.6814079 -1.22281204 0.661362549 -3.09444271 -1.01458581 0.661362554 -2.79890849 -0.991268168 0.661362494 -3.21931933 -0.858837327 0.661362481 -2.88292558 -0.730662045 0.66136238 -3.28649557 -0.683912576 0.661362405 -2.92800814 -1.14089622 0.661362685 -1.69303588 -1.40994769 0.66136277 -1.45156124 -1.00884594 0.661362646 -1.57675222 -1.21429804 0.661362764 -1.27928275 -0.852235819 0.661362593 -1.49417716 -0.981432453 0.661362685 -1.15652797 -0.676582696 0.66136258 -1.45073794 -0.719768055 0.661362641 -1.09180381 -0.48961757 0.661362505 -1.45165684 -0.442868013 0.661362529 -1.09316954 -0.314635935 0.661362481 -1.49676196 -0.182177279 0.661362469 -1.16037906 -0.158894764 0.661362408 -1.58079131 0.0493554155 0.66136236 -1.28527389 -0.027951745 0.661362342 -1.69830237 0.243352951 0.661362314 -1.45936207 0.0721793137 0.661362337 -1.84338287 0.391895517 0.661362228 -1.67462172 0.135838522 0.661362291 -2.01013369 0.486708001 0.661362213 -1.92301742 0.157682059 0.66136226 -2.19366848 0.519200141 0.661362167 -2.19549041 0.134044682 0.661362247 -2.37660592 0.484034178 0.661362148 -2.46719337 0.0688120881 0.661362254 -2.54258772 0.386889149 0.661362158 -2.71441807 -0.0326744156 0.661362277 -2.68667422 0.23635787 0.66136214 -2.92817029 -0.164733888 0.661362316 -2.8029469 0.0406942107 0.661362198 -3.10043311 -0.321351588 0.661362317 -2.88550976 -0.192182977 0.661362277 -3.22316958 -0.497010177 0.661362382 -2.92893439 -0.453855342 0.661362322 -3.28787247 -0.683912576 0.661362405 -2.92800814 -0.730662045 0.66136238 -3.28649557 -1.40141666 0.842124156 -1.75122812 -1.48258912 0.842124164 -1.95783969 -1.40141671 0.48060141 -1.7512281 -1.48258917 0.480601418 -1.95783967 -1.51197198 0.842124148 -2.18516591 -1.51197214 0.480601402 -2.18516586 -1.48478497 0.84212411 -2.41316384 -1.48478508 0.480601364 -2.41316381 -1.4055326 0.842124106 -2.62072917 -1.4055327 0.48060136 -2.62072914 -1.28118185 0.842124034 -2.80088871 -1.28118196 0.480601288 -2.80088868 -1.1186994 0.842124004 -2.94667547 -1.1186995 0.480601258 -2.94667544 -0.925053215 0.842123966 -3.05112233 -0.925053331 0.480601167 -3.0511223 -0.707287782 0.842123871 -3.10725173 -0.707287885 0.480601125 -3.1072517 -1.27542209 0.480601381 -1.57229825 -1.27542199 0.842124127 -1.57229828 -1.11157211 0.480601332 -1.42801734 -1.11157201 0.842124078 -1.42801737 -0.916834199 0.480601266 -1.32535244 -0.916834095 0.842124012 -1.32535247 -0.698175439 0.480601237 -1.2712708 -0.69817531 0.842123983 -1.27127084 -0.466242863 0.480601144 -1.27241322 -0.466242747 0.84212389 -1.27241326 -0.248406663 0.480601102 -1.32857054 -0.248406546 0.842123848 -1.32857058 -0.0547697927 0.480601011 -1.43303273 -0.0547696637 0.842123757 -1.43303277 0.107700484 0.480600981 -1.57883241 0.107700587 0.842123727 -1.57883244 0.232037142 0.480600909 -1.75900249 0.232037246 0.842123655 -1.75900253 0.311272908 0.480600905 -1.96657595 0.311273012 0.842123651 -1.96657598 0.338440813 0.480600867 -2.1945797 0.338440968 0.842123613 -2.19457974 0.309038988 0.480600851 -2.42189996 0.309039041 0.842123597 -2.42189998 0.22785013 0.480600912 -2.62850298 0.227850284 0.842123658 -2.62850303 0.101841134 0.480600888 -2.80742242 0.101841289 0.842123634 -2.80742247 -0.0620204062 0.480600937 -2.95169017 -0.0620203026 0.842123683 -2.95169021 -0.256767846 0.480601003 -3.05433962 -0.256767743 0.842123749 -3.05433966 -0.475433349 0.480601032 -3.10840338 -0.475433246 0.84212383 -3.10840342 -0.707287885 0.480601125 -3.1072517 -0.707287782 0.842123871 -3.10725173 -0.31127779 1.26715381 -4.53866252 0.240899347 1.26715371 -4.40555822 -0.400478103 1.26715384 -3.77078145 -0.0297438046 1.2671538 -3.68143799 0.759929658 1.26715354 -4.13386747 0.319667923 1.26715368 -3.49844088 1.1972988 1.26715341 -3.74274193 0.614329514 1.2671536 -3.23505636 1.51606046 1.26715333 -3.27199371 0.828305509 1.26715355 -2.91901916 1.71088083 1.26715332 -2.74778291 0.959590192 1.26715354 -2.56568239 1.777834 1.26715336 -2.19445555 1.004793 1.26715357 -2.19219404 1.71258341 1.26715335 -1.6357261 0.960934388 1.26715352 -1.81634084 1.51062078 1.26715339 -1.09685988 0.825359165 1.26715362 -1.45465083 -0.777330463 1.26715399 -3.76976798 -0.870309846 1.26715393 -4.53720044 -1.14296874 1.26715404 -3.68108872 -1.41203213 1.26715417 -4.40579752 -1.47968588 1.2671542 -3.50804777 -1.91265315 1.26715429 -4.14846723 -1.77120841 1.26715424 -3.25365214 -2.34694958 1.26715441 -3.76952054 -1.99890771 1.26715437 -2.9250381 -2.68416943 1.2671545 -3.28282902 -2.13451315 1.26715436 -2.56322094 -2.88617698 1.26715464 -2.74377343 -2.1783408 1.26715443 -2.18736521 -2.95138203 1.26715463 -2.18504132 -2.13310815 1.26715445 -1.81388136 -2.88438389 1.26715467 -1.63172076 -2.00179468 1.26715444 -1.46055426 -2.68952074 1.26715466 -1.10752328 -1.78779134 1.26715439 -1.14453292 -2.37071764 1.26715458 -0.636798302 -1.49310364 1.26715431 -0.881170489 -1.93330673 1.26715446 -0.245702925 -1.1436806 1.26715419 -0.698204613 -1.41426282 1.26715428 0.0259386163 -0.772941733 1.26715405 -0.60889266 -0.862079256 1.26715418 0.158995488 -0.396089712 1.267154 -0.609936866 -0.303048683 1.26715395 0.157488298 -0.0304587835 1.26715385 -0.698645426 0.238663224 1.26715382 0.0260417715 0.3062459 1.26715379 -0.871714579 0.739266256 1.2671537 -0.231331 0.597750097 1.26715365 -1.1261376 1.17353518 1.26715358 -0.610318112 0.825359165 1.26715362 -1.45465083 1.51062078 1.26715339 -1.09685988 -0.355878018 1.65367613 -4.15472241 0.105577765 1.65367596 -4.0434992 -0.355878247 0.880631568 -4.15472234 0.105577537 0.880631448 -4.04349913 0.539798808 1.65367592 -3.81615539 0.539798478 0.880631353 -3.81615529 0.905814204 1.65367592 -3.48890004 0.905814077 0.880631351 -3.48889999 1.17218328 1.65367586 -3.09550762 1.17218295 0.880631291 -3.09550752 1.33523578 1.65367584 -2.65673393 1.33523545 0.880631331 -2.65673383 1.39131416 1.65367588 -2.19332607 1.39131383 0.880631364 -2.19332597 1.33675967 1.65367606 -1.72603472 1.33675944 0.880631443 -1.72603465 1.16799081 1.65367608 -1.27575657 1.16799068 0.880631512 -1.27575652 -0.823820463 0.880631651 -4.15348434 -0.823820209 1.65367622 -4.15348442 -1.27750072 0.880631794 -4.04344326 -1.27750048 1.65367631 -4.04344333 -1.69616982 0.880631936 -3.82825785 -1.69616959 1.6536765 -3.82825792 -2.05907918 0.880632067 -3.51158628 -2.05907885 1.65367658 -3.51158638 -2.3415386 0.880632178 -3.10393322 -2.34153827 1.65367674 -3.10393332 -2.51034502 0.8806323 -2.65349697 -2.51034479 1.65367687 -2.65349705 -2.56486122 0.880632378 -2.18620309 -2.56486089 1.65367694 -2.1862032 -2.50874567 0.880632411 -1.72280093 -2.50874534 1.65367698 -1.72280103 -2.34565694 0.880632399 -1.28403892 -2.34565682 1.65367696 -1.28403896 -2.07925383 0.880632392 -0.890665562 -2.0792535 1.6536769 -0.890665663 -1.7132044 0.880632336 -0.563436608 -1.71320418 1.6536769 -0.563436682 -1.27897072 0.880632294 -0.336133351 -1.2789705 1.65367686 -0.336133425 -0.817509548 0.880632175 -0.224948977 -0.817509269 1.65367679 -0.224949064 -0.349568187 0.880632039 -0.226224843 -0.349567965 1.6536766 -0.226224942 0.104103169 0.880631948 -0.336302516 0.104103403 1.65367651 -0.336302619 0.522756988 0.880631807 -0.551523623 0.522757216 1.65367632 -0.551523697 0.8856434 0.880631622 -0.868228835 0.885643628 1.65367624 -0.868228909 1.16799068 0.880631512 -1.27575652 1.16799081 1.65367608 -1.27575657</float_array>
        <technique_common><accessor source="#vfx_kurp_0706-mesh-positions-array" count="324" stride="3"><param name="X" type="float"/><param name="Y" type="float"/><param name="Z" type="float"/></accessor></technique_common>
      </source>
      <source id="vfx_kurp_0706-mesh-normals">
        <float_array id="vfx_kurp_0706-mesh-normals-array" count="972">-4.27459526e-07 -1 1.30500837e-07 -4.27459526e-07 -1 1.30500837e-07 -4.27459526e-07 -1 1.30500837e-07 -4.27459526e-07 -1 1.30500837e-07 -4.27459526e-07 -1 1.30500837e-07 -4.27459526e-07 -1 1.30500837e-07 -4.27459526e-07 -1 1.30500837e-07 -4.27459526e-07 -1 1.30500837e-07 -4.27459526e-07 -1 1.30500837e-07 -4.27459526e-07 -1 1.30500837e-07 -4.27459526e-07 -1 1.30500837e-07 -4.27459526e-07 -1 1.30500837e-07 -4.27459526e-07 -1 1.30500837e-07 -4.27459526e-07 -1 1.30500837e-07 -4.27459526e-07 -1 1.30500837e-07 -4.27459526e-07 -1 1.30500837e-07 -4.27459526e-07 -1 1.30500837e-07 -4.27459526e-07 -1 1.30500837e-07 -4.27459526e-07 -1 1.30500837e-07 -4.27459526e-07 -1 1.30500837e-07 -4.27459526e-07 -1 1.30500837e-07 -4.27459526e-07 -1 1.30500837e-07 -4.27459526e-07 -1 1.30500837e-07 -4.27459526e-07 -1 1.30500837e-07 -4.27459526e-07 -1 1.30500837e-07 -4.27459526e-07 -1 1.30500837e-07 -4.27459526e-07 -1 1.30500837e-07 -4.27459526e-07 -1 1.30500837e-07 -4.27459526e-07 -1 1.30500837e-07 -4.27459526e-07 -1 1.30500837e-07 -4.27459526e-07 -1 1.30500837e-07 -4.27459526e-07 -1 1.30500837e-07 -4.27459526e-07 -1 1.30500837e-07 -4.27459526e-07 -1 1.30500837e-07 -4.27459526e-07 -1 1.30500837e-07 -4.27459526e-07 -1 1.30500837e-07 -4.27459526e-07 -1 1.30500837e-07 -4.27459526e-07 -1 1.30500837e-07 -4.27459526e-07 -1 1.30500837e-07 -4.27459526e-07 -1 1.30500837e-07 -4.27459526e-07 -1 1.30500837e-07 -4.27459526e-07 -1 1.30500837e-07 -4.27459526e-07 -1 1.30500837e-07 -4.27459526e-07 -1 1.30500837e-07 -4.27459526e-07 -1 1.30500837e-07 -4.27459526e-07 -1 1.30500837e-07 -4.27459526e-07 -1 1.30500837e-07 -4.27459526e-07 -1 1.30500837e-07 -4.27459526e-07 -1 1.30500837e-07 -4.27459526e-07 -1 1.30500837e-07 -4.27459526e-07 -1 1.30500837e-07 -4.27459526e-07 -1 1.30500837e-07 -4.27459526e-07 -1 1.30500837e-07 -4.27459526e-07 -1 1.30500837e-07 -0.727771901 1.98036144e-07 0.685819262 -0.871156045 1.79242123e-07 0.491006258 -0.727771956 1.65960389e-07 0.685819203 -0.871156002 2.5551341e-07 0.491006334 -0.964638158 3.44129906e-07 0.263577738 -0.96463816 3.34995985e-07 0.263577732 -0.999798193 2.02069082e-07 0.0200891245 -0.999798193 1.89511761e-07 0.0200891534 -0.975318654 1.82464318e-07 -0.220801999 -0.975318684 2.67565046e-07 -0.220801869 -0.89604314 2.05717076e-07 -0.443966994 -0.89604314 2.1799598e-07 -0.443966994 -0.767394813 1.63290131e-07 -0.64117486 -0.767394813 1.63290124e-07 -0.64117486 -0.593380658 9.85325396e-08 -0.80492198 -0.593380658 9.85325396e-08 -0.80492198 -0.380570621 2.65515403e-08 -0.92475186 -0.380570621 2.65515403e-08 -0.92475186 -0.546208396 2.00230654e-07 0.837649323 -0.546208396 2.32299046e-07 0.837649323 -0.335156345 1.80947561e-07 0.942162526 -0.335156391 1.85273684e-07 0.942162509 -0.101840645 1.28135079e-07 0.994800725 -0.101840645 1.31287311e-07 0.994800725 0.142541069 6.00438527e-08 0.989788888 0.142541083 5.88680994e-08 0.989788886 0.38057069 -1.5467998e-08 0.924751832 0.38057069 -1.42945011e-08 0.924751832 0.593430229 -8.58494843e-08 0.804885435 0.593430251 -8.89829859e-08 0.804885419 0.767446627 -1.59005467e-07 0.641112841 0.767446658 -1.63310615e-07 0.641112804 0.896079004 -2.18012807e-07 0.443894603 0.896079004 -1.85736637e-07 0.443894603 0.9753367 -1.87622992e-07 0.220722272 0.975336683 -2.28159957e-07 0.220722349 0.9997965 -3.3237857e-07 -0.0201732288 0.999796499 -3.28922081e-07 -0.0201732577 0.964615592 -2.58305641e-07 -0.26366031 0.964615588 -2.58270839e-07 -0.263660325 0.871114723 -3.33884581e-07 -0.491079566 0.871114765 -4.10155552e-07 -0.49107949 0.727715896 -3.75866993e-07 -0.685878688 0.727715841 -3.43793036e-07 -0.685878746 0.546140651 -2.64350106e-07 -0.837693493 0.546140618 -2.32283508e-07 -0.837693515 0.335079673 -1.80927946e-07 -0.942189797 0.335079641 -1.80927938e-07 -0.942189808 0.101758239 -1.1851395e-07 -0.994809158 0.101758239 -1.1851395e-07 -0.994809158 -0.142603356 -4.77522408e-08 -0.989779916 -0.142603349 -4.77522438e-08 -0.989779917 -0.380570621 2.65515403e-08 -0.92475186 -0.380570621 2.65515403e-08 -0.92475186 -2.98872466e-07 -1 6.12516213e-08 -2.86009249e-07 -1 9.41409672e-08 -2.98858482e-07 -1 6.12694939e-08 -2.86003175e-07 -1 9.41864225e-08 -2.81405696e-07 -1 1.29785272e-07 -2.8140362e-07 -1 1.29788133e-07 -2.85665171e-07 -1 1.65475928e-07 -2.85648788e-07 -1 1.65427645e-07 -2.50713765e-07 -1 1.08549443e-07 -3.16154696e-07 -1 1.3780976e-07 -3.51412426e-07 -1 9.66107869e-08 -3.22723542e-07 -1 1.10906116e-07 -2.59026867e-07 -1 1.27480635e-07 -2.08351768e-07 -1 1.00803108e-07 -3.44696123e-07 -1 1.35091221e-07 -4.27459526e-07 -1 1.30500837e-07 -3.32216377e-07 -1 1.18080408e-07 -3.05005753e-07 -1 1.35375872e-07 -3.18736171e-07 -1 3.29788708e-08 -2.93843883e-07 -1 1.12742992e-07 -3.65011045e-07 -1 1.19804524e-07 -3.43501269e-07 -1 1.88487964e-07 -2.9002343e-07 -1 1.83088794e-07 -3.17716912e-07 -1 1.54581143e-07 -3.06095654e-07 -1 1.66573035e-07 -3.29416928e-07 -1 1.42296885e-07 -2.81585125e-07 -1 1.11477666e-07 -3.19127926e-07 -1 9.94601602e-08 -3.03156521e-07 -1 1.04520444e-07 -3.35625718e-07 -1 9.43391185e-08 -4.27459526e-07 -1 1.30500837e-07 -3.45277841e-07 -1 1.15118765e-07 -2.21434255e-07 -1 5.05097012e-08 -2.63575299e-07 -1 8.75848915e-08 -3.30479017e-07 -1 8.72726904e-08 -3.62428673e-07 -1 8.0870404e-08 -3.17276955e-07 -1 1.10953029e-07 -2.61529482e-07 -1 6.82672922e-08 -2.81403709e-07 -1 1.29775831e-07 -2.8140575e-07 -1 1.29772718e-07 -2.86006287e-07 -1 9.4174641e-08 -2.8601233e-07 -1 9.41290823e-08 -2.98864161e-07 -1 6.12589516e-08 -2.93375733e-07 -1 1.44452722e-07 -3.64251767e-07 -1 1.34664156e-07 -3.59545563e-07 -1 2.06158581e-07 -3.03820637e-07 -1 2.15879255e-07 -3.66708917e-07 -1 1.10077052e-07 -3.21659716e-07 -1 8.4732639e-08 -3.19515479e-07 -1 5.19985999e-08 -2.36000665e-07 -1 1.09673981e-07 -2.19883265e-07 -1 1.38998905e-07 -3.05005753e-07 -1 1.35375872e-07 -3.32216377e-07 -1 1.18080408e-07 -0.880476692 1.72734359e-07 0.474089438 -0.968553864 1.28120082e-07 0.248803965 -0.880476726 1.27613618e-07 0.474089374 -0.968553827 2.21506345e-07 0.248804107 -0.999987848 3.10074009e-07 0.00492987194 -0.999987848 3.59756883e-07 0.00492992958 -0.970930386 2.78095366e-07 -0.239362039 -0.970930373 2.34386924e-07 -0.239362092 -0.88493788 1.93142563e-07 -0.465709081 -0.884937901 1.93142579e-07 -0.465709042 -0.750604231 1.41832759e-07 -0.660752063 -0.750604176 1.41832731e-07 -0.660752125 -0.575297857 8.29283687e-08 -0.817943993 -0.575297857 8.56941172e-08 -0.817943993 -0.364832557 1.97671238e-08 -0.931073147 -0.364832557 2.2647102e-08 -0.931073147 -0.128259758 -4.86043061e-08 -0.991740608 -0.128259758 -4.84909976e-08 -0.991740608 -0.744396264 2.05034446e-07 0.667738124 -0.744396229 2.50144837e-07 0.667738163 -0.567585667 2.16729342e-07 0.823314345 -0.567585598 2.16729319e-07 0.823314393 -0.355843906 1.70498932e-07 0.934545405 -0.355843906 1.81966978e-07 0.934545405 -0.118491895 1.28846231e-07 0.992955019 -0.118491868 1.37340965e-07 0.992955023 0.128259802 5.63161519e-08 0.991740603 0.128259788 5.33395479e-08 0.991740605 0.364889859 -2.25529197e-08 0.931050692 0.364889859 -2.53205842e-08 0.931050692 0.575364425 -1.05308847e-07 0.817897169 0.575364448 -9.71911916e-08 0.817897153 0.750657599 -1.52735281e-07 0.660691433 0.750657599 -1.41851741e-07 0.660691433 0.884975927 -1.93158518e-07 0.465636777 0.884975927 -1.93158511e-07 0.465636777 0.97095056 -2.34398978e-07 0.23928019 0.970950535 -2.78108603e-07 0.239280294 0.999987424 -3.59765793e-07 -0.00501519792 0.999987423 -3.10082442e-07 -0.00501534205 0.968532914 -2.21509162e-07 -0.248885503 0.968532911 -2.23086524e-07 -0.248885517 0.880437902 -3.16945229e-07 -0.474161472 0.880437984 -4.11872126e-07 -0.47416132 0.744342418 -3.80385787e-07 -0.667798147 0.7443424 -3.40339256e-07 -0.667798166 0.567518688 -2.56765708e-07 -0.823360515 0.567518619 -2.16715603e-07 -0.823360563 0.355766063 -1.70481004e-07 -0.934575042 0.355766063 -1.70481004e-07 -0.934575042 0.118429426 -1.13176724e-07 -0.992962472 0.118429426 -1.13176724e-07 -0.992962472 -0.128259758 -4.84909976e-08 -0.991740608 -0.128259758 -4.86043061e-08 -0.991740608 -2.51896084e-07 -1 4.60567934e-08 -2.75053047e-07 -1 2.48064257e-08 -2.95788035e-07 -1 2.8514505e-08 -2.48879158e-07 -1 5.1419816e-08 -3.49653039e-07 -1 1.82147335e-08 -3.49649757e-07 -1 1.82146559e-08 -3.24593006e-07 -1 4.06254433e-08 -3.2462121e-07 -1 4.05870031e-08 -3.06003957e-07 -1 6.7974741e-08 -3.06017212e-07 -1 6.79568442e-08 -2.94707547e-07 -1 9.82829571e-08 -2.9470935e-07 -1 9.82797976e-08 -2.91133018e-07 -1 3.57304442e-08 -2.71120746e-07 -1 1.01931761e-08 -2.63554747e-07 -1 -3.43202134e-08 -2.91678154e-07 -1 -2.45739625e-08 -3.67349644e-07 -1 8.45766387e-08 -3.41889526e-07 -1 9.52144822e-08 -2.50093601e-07 -1 6.7315661e-08 -3.03082521e-07 -1 6.69237115e-08 -3.80203306e-07 -1 3.27120746e-08 -3.97996112e-07 -1 8.28649411e-09 -3.01429309e-07 -1 -4.43948453e-09 -2.71776922e-07 -1 6.36212688e-09 -3.34712909e-07 -1 5.68672816e-08 -2.98191906e-07 -1 3.38381087e-08 -2.58894321e-07 -1 1.59831399e-08 -2.90621218e-07 -1 6.04832347e-08 -3.5088989e-07 -1 7.20148532e-08 -3.79545898e-07 -1 6.95473919e-08 -3.32256823e-07 -1 8.79419888e-08 -2.9114071e-07 -1 3.57189223e-08 -2.94711927e-07 -1 9.82690799e-08 -2.94710101e-07 -1 9.82722171e-08 -3.06022289e-07 -1 6.79469536e-08 -3.06009055e-07 -1 6.79648284e-08 -3.24628787e-07 -1 4.05783301e-08 -3.24600579e-07 -1 4.06167253e-08 -3.49659199e-07 -1 1.820816e-08 -3.49662679e-07 -1 1.82080772e-08 -3.79405005e-07 -1 2.635262e-09 -3.25442086e-07 -1 5.71685828e-08 -2.40576621e-07 -1 1.10835352e-07 -2.93197797e-07 -1 9.76043774e-08 -3.58811741e-07 -1 4.64249035e-08 -3.69392213e-07 -1 1.85970337e-08 -2.70412714e-07 -1 2.7989364e-08 -2.43934621e-07 -1 4.55789139e-08 -3.17045335e-07 -1 8.0055315e-08 -2.74651255e-07 -1 6.57437901e-08 -2.38861547e-07 -1 6.36834727e-08 -2.7541454e-07 -1 9.49799886e-08 -3.41889526e-07 -1 9.52144822e-08 -3.67349644e-07 -1 8.45766387e-08 0.11666873 -1.19105733e-07 -0.993170885 0.351730685 -1.75048777e-07 -0.936101236 0.11666873 -1.16225701e-07 -0.993170885 0.351730763 -2.04894344e-07 -0.936101207 0.569531022 -2.98695806e-07 -0.821969838 0.569530985 -2.54852787e-07 -0.821969864 0.752976469 -2.11134109e-07 -0.658047443 0.752976486 -2.21884083e-07 -0.658047423 0.889065972 -3.28971668e-07 -0.457779093 0.889066044 -4.1337323e-07 -0.457778952 0.971785214 -4.1994672e-07 -0.235867542 0.971785213 -4.1994672e-07 -0.235867547 0.999997787 -4.03131786e-07 -0.002103717 0.999997787 -3.61454619e-07 -0.0021037746 0.971949862 -2.84984224e-07 0.235188149 0.971949894 -2.0714155e-07 0.235188019 0.885953351 -1.36176777e-07 0.463774363 0.885953351 -1.28361247e-07 0.463774363 -0.120011148 -5.40049117e-08 -0.992772544 -0.120011133 -5.67502107e-08 -0.992772546 -0.348865955 1.61507469e-08 -0.937172634 -0.348865948 1.51003546e-08 -0.937172636 -0.561431404 8.27897517e-08 -0.82752328 -0.561431451 1.01143587e-07 -0.827523248 -0.74541726 2.00407507e-07 -0.666598161 -0.745417293 2.19951881e-07 -0.666598124 -0.885953351 3.01022154e-07 -0.463774363 -0.885953351 2.64864189e-07 -0.463774363 -0.971964389 2.79448657e-07 -0.235128107 -0.971964402 2.84994813e-07 -0.235128054 -0.999997613 3.61462888e-07 0.00218472396 -0.999997613 4.03141488e-07 0.00218478157 -0.971766133 4.19948508e-07 0.235946142 -0.971766167 3.30469864e-07 0.235946003 -0.889028646 2.35878756e-07 0.457851577 -0.889028653 2.30777444e-07 0.457851564 -0.752921176 2.98240967e-07 0.658110707 -0.752921088 3.45833512e-07 0.658110807 -0.56946056 2.61161911e-07 0.822018656 -0.569460591 2.24318671e-07 0.822018634 -0.351652338 1.75030068e-07 0.936130671 -0.351652338 1.8570929e-07 0.936130671 -0.116587719 1.30778743e-07 0.993180398 -0.116587691 1.46558877e-07 0.993180402 0.120091345 8.07514992e-08 0.992762846 0.120091359 8.59891789e-08 0.992762845 0.348942313 1.75551473e-08 0.937144206 0.348942292 7.91898577e-09 0.937144213 0.561500185 -7.18542001e-08 0.827476611 0.561500185 -8.16274668e-08 0.827476611 0.745459224 -1.45178085e-07 0.666551233 0.745459257 -1.16831465e-07 0.666551196 0.885953351 -1.28361247e-07 0.463774363 0.885953351 -1.36176777e-07 0.463774363</float_array>
        <technique_common><accessor source="#vfx_kurp_0706-mesh-normals-array" count="324" stride="3"><param name="X" type="float"/><param name="Y" type="float"/><param name="Z" type="float"/></accessor></technique_common>
      </source>
      <source id="vfx_kurp_0706-mesh-uv0">
        <float_array id="vfx_kurp_0706-mesh-uv0-array" count="648">1 0.403846145 1 0.384615362 0 0.403846145 0 0.384615362 1 0.365384579 0 0.365384579 1 0.346153855 0 0.346153855 1 0.326923072 0 0.326923072 1 0.307692289 0 0.307692289 1 0.288461506 0 0.288461506 1 0.269230723 0 0.269230723 1 0.25 0 0.25 0 0.423076868 1 0.423076868 0 0.442307711 1 0.442307711 0 0.461538434 1 0.461538434 0 0.480769217 1 0.480769217 0 0.5 1 0.5 0 0.519230723 1 0.519230723 0 0.538461566 1 0.538461566 0 0.557692289 1 0.557692289 0 0.576923072 1 0.576923072 0 0.596153855 1 0.596153855 0 0.615384579 1 0.615384579 0 0.634615362 1 0.634615362 0 0.653846145 1 0.653846145 0 0.673076928 1 0.673076928 0 0.692307711 1 0.692307711 0 0.711538434 1 0.711538434 0 0.730769217 1 0.730769217 0 0.75 1 0.75 1 0.403846145 1 0.384615362 0 0.403846145 0 0.384615362 1 0.365384579 0 0.365384579 1 0.346153855 0 0.346153855 1 0.326923072 0 0.326923072 1 0.307692289 0 0.307692289 1 0.288461506 0 0.288461506 1 0.269230723 0 0.269230723 1 0.25 0 0.25 0 0.423076868 1 0.423076868 0 0.442307711 1 0.442307711 0 0.461538434 1 0.461538434 0 0.480769217 1 0.480769217 0 0.5 1 0.5 0 0.519230723 1 0.519230723 0 0.538461566 1 0.538461566 0 0.557692289 1 0.557692289 0 0.576923072 1 0.576923072 0 0.596153855 1 0.596153855 0 0.615384579 1 0.615384579 0 0.634615362 1 0.634615362 0 0.653846145 1 0.653846145 0 0.673076928 1 0.673076928 0 0.692307711 1 0.692307711 0 0.711538434 1 0.711538434 0 0.730769217 1 0.730769217 0 0.75 1 0.75 1 0.403846145 1 0.384615362 0 0.403846145 0 0.384615362 1 0.365384579 0 0.365384579 1 0.346153855 0 0.346153855 1 0.326923072 0 0.326923072 1 0.307692289 0 0.307692289 1 0.288461506 0 0.288461506 1 0.269230723 0 0.269230723 1 0.25 0 0.25 0 0.423076868 1 0.423076868 0 0.442307711 1 0.442307711 0 0.461538434 1 0.461538434 0 0.480769217 1 0.480769217 0 0.5 1 0.5 0 0.519230723 1 0.519230723 0 0.538461566 1 0.538461566 0 0.557692289 1 0.557692289 0 0.576923072 1 0.576923072 0 0.596153855 1 0.596153855 0 0.615384579 1 0.615384579 0 0.634615362 1 0.634615362 0 0.653846145 1 0.653846145 0 0.673076928 1 0.673076928 0 0.692307711 1 0.692307711 0 0.711538434 1 0.711538434 0 0.730769217 1 0.730769217 0 0.75 1 0.75 1 0.403846145 1 0.384615362 0 0.403846145 0 0.384615362 1 0.365384579 0 0.365384579 1 0.346153855 0 0.346153855 1 0.326923072 0 0.326923072 1 0.307692289 0 0.307692289 1 0.288461506 0 0.288461506 1 0.269230723 0 0.269230723 1 0.25 0 0.25 0 0.423076868 1 0.423076868 0 0.442307711 1 0.442307711 0 0.461538434 1 0.461538434 0 0.480769217 1 0.480769217 0 0.5 1 0.5 0 0.519230723 1 0.519230723 0 0.538461566 1 0.538461566 0 0.557692289 1 0.557692289 0 0.576923072 1 0.576923072 0 0.596153855 1 0.596153855 0 0.615384579 1 0.615384579 0 0.634615362 1 0.634615362 0 0.653846145 1 0.653846145 0 0.673076928 1 0.673076928 0 0.692307711 1 0.692307711 0 0.711538434 1 0.711538434 0 0.730769217 1 0.730769217 0 0.75 1 0.75 1 0.403846145 1 0.384615362 0 0.403846145 0 0.384615362 1 0.365384579 0 0.365384579 1 0.346153855 0 0.346153855 1 0.326923072 0 0.326923072 1 0.307692289 0 0.307692289 1 0.288461506 0 0.288461506 1 0.269230723 0 0.269230723 1 0.25 0 0.25 0 0.423076868 1 0.423076868 0 0.442307711 1 0.442307711 0 0.461538434 1 0.461538434 0 0.480769217 1 0.480769217 0 0.5 1 0.5 0 0.519230723 1 0.519230723 0 0.538461566 1 0.538461566 0 0.557692289 1 0.557692289 0 0.576923072 1 0.576923072 0 0.596153855 1 0.596153855 0 0.615384579 1 0.615384579 0 0.634615362 1 0.634615362 0 0.653846145 1 0.653846145 0 0.673076928 1 0.673076928 0 0.692307711 1 0.692307711 0 0.711538434 1 0.711538434 0 0.730769217 1 0.730769217 0 0.75 1 0.75 1 0.403846145 1 0.384615362 0 0.403846145 0 0.384615362 1 0.365384579 0 0.365384579 1 0.346153855 0 0.346153855 1 0.326923072 0 0.326923072 1 0.307692289 0 0.307692289 1 0.288461506 0 0.288461506 1 0.269230723 0 0.269230723 1 0.25 0 0.25 0 0.423076868 1 0.423076868 0 0.442307711 1 0.442307711 0 0.461538434 1 0.461538434 0 0.480769217 1 0.480769217 0 0.5 1 0.5 0 0.519230723 1 0.519230723 0 0.538461566 1 0.538461566 0 0.557692289 1 0.557692289 0 0.576923072 1 0.576923072 0 0.596153855 1 0.596153855 0 0.615384579 1 0.615384579 0 0.634615362 1 0.634615362 0 0.653846145 1 0.653846145 0 0.673076928 1 0.673076928 0 0.692307711 1 0.692307711 0 0.711538434 1 0.711538434 0 0.730769217 1 0.730769217 0 0.75 1 0.75</float_array>
        <technique_common><accessor source="#vfx_kurp_0706-mesh-uv0-array" count="324" stride="2"><param name="S" type="float"/><param name="T" type="float"/></accessor></technique_common>
      </source>
      <vertices id="vfx_kurp_0706-mesh-vertices"><input semantic="POSITION" source="#vfx_kurp_0706-mesh-positions"/></vertices>
      <triangles material="PreviewMaterial" count="312">
        <input semantic="VERTEX" source="#vfx_kurp_0706-mesh-vertices" offset="0"/>
        <input semantic="NORMAL" source="#vfx_kurp_0706-mesh-normals" offset="1"/>
        <input semantic="TEXCOORD" source="#vfx_kurp_0706-mesh-uv0" offset="2" set="0"/>
        <p>0 0 0 1 1 1 2 2 2 2 2 2 1 1 1 3 3 3 4 4 4 3 3 3 1 1 1 3 3 3 4 4 4 5 5 5 6 6 6 5 5 5 4 4 4 5 5 5 6 6 6 7 7 7 8 8 8 7 7 7 6 6 6 7 7 7 8 8 8 9 9 9 10 10 10 9 9 9 8 8 8 9 9 9 10 10 10 11 11 11 12 12 12 11 11 11 10 10 10 11 11 11 12 12 12 13 13 13 14 14 14 13 13 13 12 12 12 13 13 13 14 14 14 15 15 15 16 16 16 15 15 15 14 14 14 15 15 15 16 16 16 17 17 17 18 18 18 0 0 0 2 2 2 0 0 0 18 18 18 19 19 19 20 20 20 19 19 19 18 18 18 19 19 19 20 20 20 21 21 21 22 22 22 21 21 21 20 20 20 21 21 21 22 22 22 23 23 23 24 24 24 23 23 23 22 22 22 23 23 23 24 24 24 25 25 25 26 26 26 25 25 25 24 24 24 25 25 25 26 26 26 27 27 27 28 28 28 27 27 27 26 26 26 27 27 27 28 28 28 29 29 29 30 30 30 29 29 29 28 28 28 29 29 29 30 30 30 31 31 31 32 32 32 31 31 31 30 30 30 31 31 31 32 32 32 33 33 33 34 34 34 33 33 33 32 32 32 35 35 35 33 33 33 34 34 34 36 36 36 35 35 35 34 34 34 35 35 35 36 36 36 37 37 37 38 38 38 37 37 37 36 36 36 37 37 37 38 38 38 39 39 39 40 40 40 39 39 39 38 38 38 39 39 39 40 40 40 41 41 41 42 42 42 41 41 41 40 40 40 41 41 41 42 42 42 43 43 43 44 44 44 43 43 43 42 42 42 43 43 43 44 44 44 45 45 45 46 46 46 45 45 45 44 44 44 45 45 45 46 46 46 47 47 47 48 48 48 47 47 47 46 46 46 47 47 47 48 48 48 49 49 49 50 50 50 49 49 49 48 48 48 49 49 49 50 50 50 51 51 51 52 52 52 51 51 51 50 50 50 53 53 53 51 51 51 52 52 52 54 54 54 55 55 55 56 56 56 56 56 56 55 55 55 57 57 57 58 58 58 57 57 57 55 55 55 57 57 57 58 58 58 59 59 59 60 60 60 59 59 59 58 58 58 59 59 59 60 60 60 61 61 61 62 62 62 61 61 61 60 60 60 61 61 61 62 62 62 63 63 63 64 64 64 63 63 63 62 62 62 63 63 63 64 64 64 65 65 65 66 66 66 65 65 65 64 64 64 65 65 65 66 66 66 67 67 67 68 68 68 67 67 67 66 66 66 67 67 67 68 68 68 69 69 69 70 70 70 69 69 69 68 68 68 69 69 69 70 70 70 71 71 71 72 72 72 54 54 54 56 56 56 54 54 54 72 72 72 73 73 73 74 74 74 73 73 73 72 72 72 73 73 73 74 74 74 75 75 75 76 76 76 75 75 75 74 74 74 75 75 75 76 76 76 77 77 77 78 78 78 77 77 77 76 76 76 77 77 77 78 78 78 79 79 79 80 80 80 79 79 79 78 78 78 79 79 79 80 80 80 81 81 81 82 82 82 81 81 81 80 80 80 81 81 81 82 82 82 83 83 83 84 84 84 83 83 83 82 82 82 83 83 83 84 84 84 85 85 85 86 86 86 85 85 85 84 84 84 85 85 85 86 86 86 87 87 87 88 88 88 87 87 87 86 86 86 89 89 89 87 87 87 88 88 88 90 90 90 89 89 89 88 88 88 89 89 89 90 90 90 91 91 91 92 92 92 91 91 91 90 90 90 91 91 91 92 92 92 93 93 93 94 94 94 93 93 93 92 92 92 93 93 93 94 94 94 95 95 95 96 96 96 95 95 95 94 94 94 95 95 95 96 96 96 97 97 97 98 98 98 97 97 97 96 96 96 97 97 97 98 98 98 99 99 99 100 100 100 99 99 99 98 98 98 99 99 99 100 100 100 101 101 101 102 102 102 101 101 101 100 100 100 101 101 101 102 102 102 103 103 103 104 104 104 103 103 103 102 102 102 103 103 103 104 104 104 105 105 105 106 106 106 105 105 105 104 104 104 107 107 107 105 105 105 106 106 106 108 108 108 109 109 109 110 110 110 110 110 110 109 109 109 111 111 111 112 112 112 111 111 111 109 109 109 111 111 111 112 112 112 113 113 113 114 114 114 113 113 113 112 112 112 113 113 113 114 114 114 115 115 115 116 116 116 115 115 115 114 114 114 115 115 115 116 116 116 117 117 117 118 118 118 117 117 117 116 116 116 117 117 117 118 118 118 119 119 119 120 120 120 119 119 119 118 118 118 119 119 119 120 120 120 121 121 121 122 122 122 121 121 121 120 120 120 121 121 121 122 122 122 123 123 123 124 124 124 123 123 123 122 122 122 123 123 123 124 124 124 125 125 125 126 126 126 108 108 108 110 110 110 108 108 108 126 126 126 127 127 127 128 128 128 127 127 127 126 126 126 127 127 127 128 128 128 129 129 129 130 130 130 129 129 129 128 128 128 129 129 129 130 130 130 131 131 131 132 132 132 131 131 131 130 130 130 131 131 131 132 132 132 133 133 133 134 134 134 133 133 133 132 132 132 133 133 133 134 134 134 135 135 135 136 136 136 135 135 135 134 134 134 135 135 135 136 136 136 137 137 137 138 138 138 137 137 137 136 136 136 137 137 137 138 138 138 139 139 139 140 140 140 139 139 139 138 138 138 139 139 139 140 140 140 141 141 141 142 142 142 141 141 141 140 140 140 143 143 143 141 141 141 142 142 142 144 144 144 143 143 143 142 142 142 143 143 143 144 144 144 145 145 145 146 146 146 145 145 145 144 144 144 145 145 145 146 146 146 147 147 147 148 148 148 147 147 147 146 146 146 147 147 147 148 148 148 149 149 149 150 150 150 149 149 149 148 148 148 149 149 149 150 150 150 151 151 151 152 152 152 151 151 151 150 150 150 151 151 151 152 152 152 153 153 153 154 154 154 153 153 153 152 152 152 153 153 153 154 154 154 155 155 155 156 156 156 155 155 155 154 154 154 155 155 155 156 156 156 157 157 157 158 158 158 157 157 157 156 156 156 157 157 157 158 158 158 159 159 159 160 160 160 159 159 159 158 158 158 161 161 161 159 159 159 160 160 160 162 162 162 163 163 163 164 164 164 164 164 164 163 163 163 165 165 165 166 166 166 165 165 165 163 163 163 165 165 165 166 166 166 167 167 167 168 168 168 167 167 167 166 166 166 167 167 167 168 168 168 169 169 169 170 170 170 169 169 169 168 168 168 169 169 169 170 170 170 171 171 171 172 172 172 171 171 171 170 170 170 171 171 171 172 172 172 173 173 173 174 174 174 173 173 173 172 172 172 173 173 173 174 174 174 175 175 175 176 176 176 175 175 175 174 174 174 175 175 175 176 176 176 177 177 177 178 178 178 177 177 177 176 176 176 177 177 177 178 178 178 179 179 179 180 180 180 162 162 162 164 164 164 162 162 162 180 180 180 181 181 181 182 182 182 181 181 181 180 180 180 181 181 181 182 182 182 183 183 183 184 184 184 183 183 183 182 182 182 183 183 183 184 184 184 185 185 185 186 186 186 185 185 185 184 184 184 185 185 185 186 186 186 187 187 187 188 188 188 187 187 187 186 186 186 187 187 187 188 188 188 189 189 189 190 190 190 189 189 189 188 188 188 189 189 189 190 190 190 191 191 191 192 192 192 191 191 191 190 190 190 191 191 191 192 192 192 193 193 193 194 194 194 193 193 193 192 192 192 193 193 193 194 194 194 195 195 195 196 196 196 195 195 195 194 194 194 197 197 197 195 195 195 196 196 196 198 198 198 197 197 197 196 196 196 197 197 197 198 198 198 199 199 199 200 200 200 199 199 199 198 198 198 199 199 199 200 200 200 201 201 201 202 202 202 201 201 201 200 200 200 201 201 201 202 202 202 203 203 203 204 204 204 203 203 203 202 202 202 203 203 203 204 204 204 205 205 205 206 206 206 205 205 205 204 204 204 205 205 205 206 206 206 207 207 207 208 208 208 207 207 207 206 206 206 207 207 207 208 208 208 209 209 209 210 210 210 209 209 209 208 208 208 209 209 209 210 210 210 211 211 211 212 212 212 211 211 211 210 210 210 211 211 211 212 212 212 213 213 213 214 214 214 213 213 213 212 212 212 215 215 215 213 213 213 214 214 214 216 216 216 217 217 217 218 218 218 218 218 218 217 217 217 219 219 219 220 220 220 219 219 219 217 217 217 219 219 219 220 220 220 221 221 221 222 222 222 221 221 221 220 220 220 221 221 221 222 222 222 223 223 223 224 224 224 223 223 223 222 222 222 223 223 223 224 224 224 225 225 225 226 226 226 225 225 225 224 224 224 225 225 225 226 226 226 227 227 227 228 228 228 227 227 227 226 226 226 227 227 227 228 228 228 229 229 229 230 230 230 229 229 229 228 228 228 229 229 229 230 230 230 231 231 231 232 232 232 231 231 231 230 230 230 231 231 231 232 232 232 233 233 233 234 234 234 216 216 216 218 218 218 216 216 216 234 234 234 235 235 235 236 236 236 235 235 235 234 234 234 235 235 235 236 236 236 237 237 237 238 238 238 237 237 237 236 236 236 237 237 237 238 238 238 239 239 239 240 240 240 239 239 239 238 238 238 239 239 239 240 240 240 241 241 241 242 242 242 241 241 241 240 240 240 241 241 241 242 242 242 243 243 243 244 244 244 243 243 243 242 242 242 243 243 243 244 244 244 245 245 245 246 246 246 245 245 245 244 244 244 245 245 245 246 246 246 247 247 247 248 248 248 247 247 247 246 246 246 247 247 247 248 248 248 249 249 249 250 250 250 249 249 249 248 248 248 251 251 251 249 249 249 250 250 250 252 252 252 251 251 251 250 250 250 251 251 251 252 252 252 253 253 253 254 254 254 253 253 253 252 252 252 253 253 253 254 254 254 255 255 255 256 256 256 255 255 255 254 254 254 255 255 255 256 256 256 257 257 257 258 258 258 257 257 257 256 256 256 257 257 257 258 258 258 259 259 259 260 260 260 259 259 259 258 258 258 259 259 259 260 260 260 261 261 261 262 262 262 261 261 261 260 260 260 261 261 261 262 262 262 263 263 263 264 264 264 263 263 263 262 262 262 263 263 263 264 264 264 265 265 265 266 266 266 265 265 265 264 264 264 265 265 265 266 266 266 267 267 267 268 268 268 267 267 267 266 266 266 269 269 269 267 267 267 268 268 268 270 270 270 271 271 271 272 272 272 272 272 272 271 271 271 273 273 273 274 274 274 273 273 273 271 271 271 273 273 273 274 274 274 275 275 275 276 276 276 275 275 275 274 274 274 275 275 275 276 276 276 277 277 277 278 278 278 277 277 277 276 276 276 277 277 277 278 278 278 279 279 279 280 280 280 279 279 279 278 278 278 279 279 279 280 280 280 281 281 281 282 282 282 281 281 281 280 280 280 281 281 281 282 282 282 283 283 283 284 284 284 283 283 283 282 282 282 283 283 283 284 284 284 285 285 285 286 286 286 285 285 285 284 284 284 285 285 285 286 286 286 287 287 287 288 288 288 270 270 270 272 272 272 270 270 270 288 288 288 289 289 289 290 290 290 289 289 289 288 288 288 289 289 289 290 290 290 291 291 291 292 292 292 291 291 291 290 290 290 291 291 291 292 292 292 293 293 293 294 294 294 293 293 293 292 292 292 293 293 293 294 294 294 295 295 295 296 296 296 295 295 295 294 294 294 295 295 295 296 296 296 297 297 297 298 298 298 297 297 297 296 296 296 297 297 297 298 298 298 299 299 299 300 300 300 299 299 299 298 298 298 299 299 299 300 300 300 301 301 301 302 302 302 301 301 301 300 300 300 301 301 301 302 302 302 303 303 303 304 304 304 303 303 303 302 302 302 305 305 305 303 303 303 304 304 304 306 306 306 305 305 305 304 304 304 305 305 305 306 306 306 307 307 307 308 308 308 307 307 307 306 306 306 307 307 307 308 308 308 309 309 309 310 310 310 309 309 309 308 308 308 309 309 309 310 310 310 311 311 311 312 312 312 311 311 311 310 310 310 311 311 311 312 312 312 313 313 313 314 314 314 313 313 313 312 312 312 313 313 313 314 314 314 315 315 315 316 316 316 315 315 315 314 314 314 315 315 315 316 316 316 317 317 317 318 318 318 317 317 317 316 316 316 317 317 317 318 318 318 319 319 319 320 320 320 319 319 319 318 318 318 319 319 319 320 320 320 321 321 321 322 322 322 321 321 321 320 320 320 323 323 323 321 321 321 322 322 322</p>
      </triangles>
    </mesh></geometry>
  </library_geometries>
  <library_visual_scenes>
    <visual_scene id="Scene" name="Scene">
      <node id="vfx_kurp_0706" name="vfx_kurp_0706" type="NODE">
        <instance_geometry url="#vfx_kurp_0706-mesh"><bind_material><technique_common><instance_material symbol="PreviewMaterial" target="#PreviewMaterial"><bind_vertex_input semantic="UVSET0" input_semantic="TEXCOORD" input_set="0"/></instance_material></technique_common></bind_material></instance_geometry>
      </node>
    </visual_scene>
  </library_visual_scenes>
  <scene><instance_visual_scene url="#Scene"/></scene>
</COLLADA>
