<?xml version="1.0" encoding="utf-8"?>
<COLLADA xmlns="http://www.collada.org/2005/11/COLLADASchema" version="1.4.1">
  <asset>
    <contributor><authoring_tool>Morrobroom Kurpulio VFX preview converter</authoring_tool></contributor>
    <unit name="unit" meter="1"/>
    <up_axis>Z_UP</up_axis>
  </asset>
  <library_images>
    <image id="VFXTexture" name="darkmap_newgen-1.dds">
      <init_from>../../../Textures/Kurp/darkmap_newgen-1.dds</init_from>
    </image>
  </library_images>
  <library_effects>
    <effect id="PreviewEffect">
      <profile_COMMON>
        <newparam sid="VFXTexture-surface">
          <surface type="2D"><init_from>VFXTexture</init_from></surface>
        </newparam>
        <newparam sid="VFXTexture-sampler">
          <sampler2D><source>VFXTexture-surface</source></sampler2D>
        </newparam>
        <technique sid="common"><phong>
          <emission><color>0.08 0.08 0.08 1</color></emission>
          <ambient><color>0.2 0.2 0.2 1</color></ambient>
          <diffuse><texture texture="VFXTexture-sampler" texcoord="UVSET0"/></diffuse>
          <specular><color>0.15 0.15 0.15 1</color></specular>
          <shininess><float>8</float></shininess>
          <transparent opaque="A_ONE"><texture texture="VFXTexture-sampler" texcoord="UVSET0"/></transparent>
          <transparency><float>1</float></transparency>
        </phong></technique>
      </profile_COMMON>
      <extra><technique profile="GOOGLEEARTH"><double_sided>1</double_sided></technique></extra>
    </effect>
  </library_effects>
  <library_materials><material id="PreviewMaterial" name="PreviewMaterial"><instance_effect url="#PreviewEffect"/></material></library_materials>
  <library_geometries>
    <geometry id="vfx_kurp_0038-mesh" name="vfx_kurp_0038"><mesh>
      <source id="vfx_kurp_0038-mesh-positions">
        <float_array id="vfx_kurp_0038-mesh-positions-array" count="432">1.13809083 -1.43417484 -8.59164036e-07 0.65587382 -2.26997985 -1.19902699e-06 -0.234116018 -0.988318008 -0.548364711 -0.50109106 -1.60200599 -0.508851495 -0.0147290155 -2.93632317 -1.35518079e-06 -0.888395641 -2.14967059 -0.449581672 -0.815372671 -3.38655174 -1.57991251e-06 -1.38075348 -2.60837326 -0.370554938 -1.67607647 -3.59314443 -1.72842106e-06 -1.95863345 -2.95851109 -0.271771674 -2.52116984 -3.55047955 -1.86401409e-06 -2.59894204 -3.18458878 -0.153231592 -0.0979600119 -0.334009423 0.568120375 1.3901047 0.490411879 -1.82398324e-07 -0.0979601575 0.334009424 0.568120584 1.39010473 -0.490410774 -4.90294656e-07 -0.234116018 -0.988318412 0.548363375 1.13809083 -1.43417484 -8.59164036e-07 -0.50109106 -1.60200631 0.508849774 0.65587382 -2.26997985 -1.19902699e-06 -0.888395641 -2.14967088 0.449579518 -0.0147290155 -2.93632317 -1.35518079e-06 -1.38075348 -2.60837349 0.370552287 -0.815372671 -3.38655174 -1.57991251e-06 -1.95863333 -2.9585115 0.271768684 -1.67607647 -3.59314443 -1.72842106e-06 -2.59894228 -3.18458887 0.153228371 -2.52116984 -3.55047955 -1.86401409e-06 -3.2758467 -3.27584817 0.0149314551 -3.2758467 -3.27584817 -1.78869702e-06 -2.52116984 -3.55047955 -1.86401409e-06 -3.2758467 -3.27584817 0.0149314551 -3.2758467 -3.27584817 -1.78869702e-06 -3.2758467 -3.27584816 -0.0149349656 -2.59894204 -3.18458878 -0.153231592 -3.2758467 -3.27584817 -1.78869702e-06 1.13809004 1.43417626 4.12586264e-08 -0.234116554 0.988318653 0.548363996 0.655872956 2.26998029 2.26141235e-07 -0.501091901 1.60200632 0.508850779 -0.0147303111 2.93632364 5.55469272e-07 -0.888396767 2.1496708 0.449580867 -0.81537429 3.38655197 6.8053542e-07 -1.38075451 2.60837284 0.370554044 -1.67607791 3.59314416 5.27473202e-07 -1.9586347 2.95851049 0.271770661 -2.52117091 3.55047879 3.65093656e-07 -2.59894348 3.18458775 0.15323037 -3.27584841 3.27584718 2.67988018e-07 -2.59894348 3.18458775 0.15323037 -3.27584841 3.27584718 2.67988018e-07 -3.27584841 3.27584717 0.0149335118 -3.27584841 3.27584718 2.67988018e-07 -2.52117091 3.55047879 3.65093656e-07 -3.27584841 3.27584718 -0.0149329089 -3.27584841 3.27584718 -0.0149329089 -2.52117091 3.55047879 3.65093656e-07 -2.59894324 3.18458785 -0.153229653 -1.67607791 3.59314416 5.27473202e-07 -1.9586347 2.95851067 -0.271769817 -0.81537429 3.38655197 6.8053542e-07 -1.38075463 2.60837307 -0.37055339 -0.0147303111 2.93632364 5.55469272e-07 -0.888396767 2.14967085 -0.449580322 0.655872956 2.26998029 2.26141235e-07 -0.501091901 1.60200652 -0.508850489 1.13809004 1.43417626 4.12586264e-08 -0.234116554 0.988318938 -0.548364091 1.3901047 0.490411879 -1.82398324e-07 -0.0979601724 0.334009781 -0.568120971 1.39010473 -0.490410774 -4.90294656e-07 -0.0979600342 -0.334009007 -0.56812118 -7.79193804 1.43417455 -1.52563625e-08 -7.30972038 2.26997933 1.69626484e-07 -6.41973081 0.988317825 -0.548364091 -6.15275598 1.60200567 -0.508850548 -6.63911768 2.93632264 4.31824959e-07 -5.76545128 2.14967011 -0.449580352 -5.83847431 3.38655098 4.89761436e-07 -5.27309362 2.60837272 -0.37055333 -4.97776992 3.59314367 4.70958601e-07 -4.69521329 2.95851049 -0.271769876 -4.13267666 3.55047855 3.08578982e-07 -4.05490446 3.18458787 -0.153229653 -6.5558868 0.334008539 0.568120525 -8.04395191 -0.490412139 -5.46809611e-07 -6.5558867 -0.334010279 0.568120315 -8.04395206 0.490410484 -2.38913204e-07 -6.41973081 0.98831754 0.548363936 -7.79193804 1.43417455 -1.52563625e-08 -6.15275598 1.60200535 0.50885072 -7.30972038 2.26997933 1.69626484e-07 -5.76545128 2.14966983 0.449580808 -6.63911768 2.93632264 4.31824959e-07 -5.27309362 2.60837249 0.370553865 -5.83847431 3.38655098 4.89761436e-07 -4.69521329 2.95851056 0.271770482 -4.97776992 3.59314367 4.70958601e-07 -4.05490446 3.18458777 0.153230311 -4.13267666 3.55047855 3.08578982e-07 -3.3779998 3.27584716 0.014933455 -3.3779998 3.27584716 2.11473322e-07 -4.13267666 3.55047855 3.08578982e-07 -3.3779998 3.27584716 0.014933455 -3.3779998 3.27584716 2.11473322e-07 -3.3779998 3.27584717 -0.0149329657 -4.05490446 3.18458787 -0.153229653 -3.3779998 3.27584716 2.11473322e-07 -7.79193761 -1.43417655 -9.15679081e-07 -6.41973099 -0.988319585 0.548363316 -7.30972017 -2.26998058 -1.25554178e-06 -6.1527555 -1.60200729 0.508849714 -6.63911727 -2.93632417 -1.34456621e-06 -5.76545063 -2.14967161 0.449579458 -5.83847329 -3.38655274 -1.50216833e-06 -5.27309331 -2.60837384 0.370552347 -4.97776979 -3.59314493 -1.78493594e-06 -4.69521287 -2.95851143 0.271768744 -4.13267654 -3.5504798 -1.92052888e-06 -4.05490398 -3.18458885 0.153228311 -3.37799929 -3.27584818 -1.84521178e-06 -4.05490398 -3.18458885 0.153228311 -3.37799929 -3.27584818 -1.84521178e-06 -3.37799929 -3.27584819 0.0149313983 -3.37799929 -3.27584818 -1.84521178e-06 -4.13267654 -3.5504798 -1.92052888e-06 -3.37799929 -3.27584818 -0.0149350224 -3.37799929 -3.27584818 -0.0149350224 -4.13267654 -3.5504798 -1.92052888e-06 -4.05490446 -3.18458876 -0.153231726 -4.97776979 -3.59314493 -1.78493594e-06 -4.69521287 -2.95851126 -0.271771734 -5.83847329 -3.38655274 -1.50216833e-06 -5.27309283 -2.60837361 -0.370555057 -6.63911727 -2.93632417 -1.34456621e-06 -5.76545063 -2.14967133 -0.449581702 -7.30972017 -2.26998058 -1.25554178e-06 -6.1527555 -1.60200685 -0.508851554 -7.79193761 -1.43417655 -9.15679081e-07 -6.41973099 -0.988319121 -0.548364711 -8.04395191 -0.490412139 -5.46809611e-07 -6.5558867 -0.334009922 -0.56812124 -8.04395206 0.490410484 -2.38913204e-07 -6.5558868 0.334008866 -0.56812103</float_array>
        <technique_common><accessor source="#vfx_kurp_0038-mesh-positions-array" count="144" stride="3"><param name="X" type="float"/><param name="Y" type="float"/><param name="Z" type="float"/></accessor></technique_common>
      </source>
      <source id="vfx_kurp_0038-mesh-normals">
        <float_array id="vfx_kurp_0038-mesh-normals-array" count="432">0.330624237 -0.135593292 -0.933971131 0.287020085 -0.218972224 -0.932561331 0.324011774 -0.142838587 -0.935207736 0.274371927 -0.227760651 -0.934261811 0.222670342 -0.290993479 -0.930451887 0.204721013 -0.297943349 -0.932372816 0.139646491 -0.347250681 -0.927316463 0.119366852 -0.349877398 -0.929159492 0.0406207579 -0.384045875 -0.922420034 0.0225803404 -0.383065344 -0.923445218 -0.0714445864 -0.401741178 -0.912962046 -0.0869414275 -0.400483424 -0.912170058 0.351648792 -0.0498967982 0.934801282 0.352120875 0.0455624822 0.93484488 0.35037651 0.0482850648 0.935363488 0.350940868 -0.0462763155 0.935253447 0.327630922 -0.145346047 0.933559053 0.32735299 -0.135086482 0.935196056 0.279771568 -0.23184287 0.9316527 0.282469035 -0.216208588 0.934593543 0.211062846 -0.303789662 0.929066368 0.218206524 -0.28537374 0.93324581 0.125811872 -0.356723409 0.925699618 0.13720725 -0.339071524 0.930701172 0.0292432136 -0.38815319 0.921130792 0.042681285 -0.375625149 0.925788343 -0.0735251286 -0.401599788 0.912859061 -0.0602610737 -0.39644974 0.916076529 -0.129989565 -0.40638451 0.904408283 -0.341966785 -0.93971204 -2.94991081e-07 -0.341966759 -0.939712049 -2.94991084e-07 -0.341966785 -0.93971204 -2.94991081e-07 -0.148733671 -0.408714326 -0.90046149 0.133609817 -0.991034014 -3.11101906e-07 0.133609832 -0.991034012 -3.11101905e-07 0.133609817 -0.991034014 -3.11101906e-07 0.330624176 0.135593649 0.9339711 0.32401172 0.142838903 0.935207706 0.287020111 0.218972416 0.932561278 0.274371948 0.227760854 0.934261755 0.222670305 0.290993614 0.930451853 0.204720746 0.297943504 0.932372825 0.13964612 0.347250788 0.927316478 0.119366475 0.349877595 0.929159466 0.0406203024 0.384046091 0.922419964 0.0225799869 0.383065599 0.923445121 -0.0714449215 0.401741591 0.912961838 -0.0869417356 0.400483879 0.912169829 -0.148733873 0.408714858 0.900461215 0.133609819 0.991034014 3.11101899e-07 0.133609819 0.991034014 3.11101899e-07 0.133609819 0.991034014 3.11101899e-07 -0.341966741 0.939712056 2.94991103e-07 -0.341966741 0.939712056 2.94991103e-07 -0.341966768 0.939712046 2.949911e-07 -0.129989354 0.406383738 -0.904408661 -0.0602609194 0.396449018 -0.916076852 -0.0735250143 0.401599186 -0.912859336 0.0426813237 0.375624739 -0.925788507 0.0292431309 0.388152978 -0.921130884 0.137207216 0.33907149 -0.93070119 0.125811809 0.356723419 -0.925699623 0.218206395 0.285373808 -0.933245819 0.211062768 0.303789545 -0.929066424 0.282468849 0.216208597 -0.934593597 0.27977135 0.23184288 -0.931652763 0.327352826 0.135086535 -0.935196105 0.327630825 0.145346149 -0.933559071 0.350940783 0.0462763567 -0.935253477 0.351648732 0.0498968352 -0.934801302 0.35212089 -0.0455622755 -0.934844884 0.350376527 -0.0482848104 -0.935363494 -0.330624101 0.135593958 -0.933971082 -0.287020053 0.218972882 -0.932561186 -0.324011701 0.142839198 -0.935207667 -0.274371984 0.227761205 -0.934261659 -0.222670328 0.290994064 -0.930451707 -0.204720942 0.297943939 -0.932372643 -0.139646463 0.347251238 -0.927316258 -0.119366874 0.349878 -0.929159262 -0.0406206867 0.384046481 -0.922419785 -0.0225803039 0.383065996 -0.923444948 0.0714446531 0.401741749 -0.912961789 0.0869414994 0.400484044 -0.912169779 -0.351648668 0.0498961846 0.934801361 -0.352120804 -0.0455630081 0.934844881 -0.350376486 -0.0482854891 0.935363474 -0.350940744 0.0462757054 0.935253523 -0.327630871 0.145345406 0.933559171 -0.32735288 0.135085973 0.935196167 -0.279771565 0.231842327 0.931652836 -0.282468999 0.216208131 0.93459366 -0.21106286 0.303789077 0.929066556 -0.218206511 0.285373127 0.933246 -0.12581184 0.356722881 0.925699826 -0.137207213 0.339070922 0.930701397 -0.0292431333 0.388152638 0.921131027 -0.0426812097 0.37562462 0.925788561 0.0735251656 0.401599214 0.912859311 0.0602611561 0.396449138 0.916076784 0.129989548 0.406383847 0.904408584 0.341966785 0.93971204 2.94991081e-07 0.341966759 0.939712049 2.94991084e-07 0.341966785 0.93971204 2.94991081e-07 0.148733671 0.408714891 -0.900461233 -0.133609817 0.991034014 3.11101906e-07 -0.133609832 0.991034012 3.11101905e-07 -0.133609817 0.991034014 3.11101906e-07 -0.330624178 -0.135594192 0.933971021 -0.324011807 -0.14283934 0.935207609 -0.287020181 -0.218973024 0.932561114 -0.274371918 -0.227761485 0.93426161 -0.222670368 -0.290994113 0.930451683 -0.204720815 -0.297944102 0.932372619 -0.139646179 -0.347251368 0.927316253 -0.119366584 -0.34987805 0.929159281 -0.0406203401 -0.384046645 0.922419732 -0.0225800278 -0.383066178 0.923444879 0.0714448491 -0.401742116 0.912961612 0.0869416839 -0.400484453 0.912169582 0.148733918 -0.408715396 0.900460964 -0.133609863 -0.991034008 -3.11101897e-07 -0.133609863 -0.991034008 -3.11101897e-07 -0.133609863 -0.991034008 -3.11101897e-07 0.341966892 -0.939712001 -2.94991085e-07 0.341966892 -0.939712001 -2.94991085e-07 0.341966892 -0.939712001 -2.94991085e-07 0.129989387 -0.406383119 -0.904408934 0.0602608786 -0.396448443 -0.916077103 0.0735249306 -0.401598543 -0.912859625 -0.0426813794 -0.375624157 -0.925788741 -0.0292432094 -0.388152374 -0.921131136 -0.137207233 -0.339070852 -0.930701419 -0.125811833 -0.35672279 -0.925699861 -0.21820647 -0.285373163 -0.933245999 -0.211062833 -0.303789029 -0.929066578 -0.282468916 -0.216208076 -0.934593698 -0.279771444 -0.231842359 -0.931652864 -0.327352854 -0.135085917 -0.935196185 -0.327630831 -0.145345432 -0.933559181 -0.350940758 -0.0462757031 -0.935253518 -0.351648656 -0.0498960975 -0.93480137 -0.352120819 0.0455628497 -0.934844883 -0.350376402 0.0482854267 -0.935363509</float_array>
        <technique_common><accessor source="#vfx_kurp_0038-mesh-normals-array" count="144" stride="3"><param name="X" type="float"/><param name="Y" type="float"/><param name="Z" type="float"/></accessor></technique_common>
      </source>
      <source id="vfx_kurp_0038-mesh-uv0">
        <float_array id="vfx_kurp_0038-mesh-uv0-array" count="288">0.5 0.399999976 0.5 0.333333313 0 0.399999976 0 0.333333313 0.5 0.266666651 0 0.266666651 0.5 0.199999928 0 0.199999928 0.5 0.133333266 0 0.133333266 0.5 0.0666666031 0 0.0666666031 1 0.466666639 0.5 0.533333302 1 0.533333302 0.5 0.466666639 1 0.399999976 0.5 0.399999976 1 0.333333313 0.5 0.333333313 1 0.266666651 0.5 0.266666651 1 0.199999928 0.5 0.199999928 1 0.133333266 0.5 0.133333266 1 0.0666666031 0.5 0.0666666031 1 0 0.5 0 0.5 0.0666666031 1 0 0.5 0 0 0 0 0.0666666031 0.5 0 0.5 0.599999964 1 0.599999964 0.5 0.666666627 1 0.666666627 0.5 0.733333349 1 0.733333349 0.5 0.799999952 1 0.799999952 0.5 0.866666675 1 0.866666675 0.5 0.933333337 1 0.933333337 0.5 1 1 0.933333337 0.5 1 1 1 0.5 1 0.5 0.933333337 0 1 0 1 0.5 0.933333337 0 0.933333337 0.5 0.866666675 0 0.866666675 0.5 0.799999952 0 0.799999952 0.5 0.733333349 0 0.733333349 0.5 0.666666627 0 0.666666627 0.5 0.599999964 0 0.599999964 0.5 0.533333302 0 0.533333302 0.5 0.466666639 0 0.466666639 0.5 0.399999976 0.5 0.333333313 0 0.399999976 0 0.333333313 0.5 0.266666651 0 0.266666651 0.5 0.199999928 0 0.199999928 0.5 0.133333266 0 0.133333266 0.5 0.0666666031 0 0.0666666031 1 0.466666639 0.5 0.533333302 1 0.533333302 0.5 0.466666639 1 0.399999976 0.5 0.399999976 1 0.333333313 0.5 0.333333313 1 0.266666651 0.5 0.266666651 1 0.199999928 0.5 0.199999928 1 0.133333266 0.5 0.133333266 1 0.0666666031 0.5 0.0666666031 1 0 0.5 0 0.5 0.0666666031 1 0 0.5 0 0 0 0 0.0666666031 0.5 0 0.5 0.599999964 1 0.599999964 0.5 0.666666627 1 0.666666627 0.5 0.733333349 1 0.733333349 0.5 0.799999952 1 0.799999952 0.5 0.866666675 1 0.866666675 0.5 0.933333337 1 0.933333337 0.5 1 1 0.933333337 0.5 1 1 1 0.5 1 0.5 0.933333337 0 1 0 1 0.5 0.933333337 0 0.933333337 0.5 0.866666675 0 0.866666675 0.5 0.799999952 0 0.799999952 0.5 0.733333349 0 0.733333349 0.5 0.666666627 0 0.666666627 0.5 0.599999964 0 0.599999964 0.5 0.533333302 0 0.533333302 0.5 0.466666639 0 0.466666639</float_array>
        <technique_common><accessor source="#vfx_kurp_0038-mesh-uv0-array" count="144" stride="2"><param name="S" type="float"/><param name="T" type="float"/></accessor></technique_common>
      </source>
      <vertices id="vfx_kurp_0038-mesh-vertices"><input semantic="POSITION" source="#vfx_kurp_0038-mesh-positions"/></vertices>
      <triangles material="PreviewMaterial" count="120">
        <input semantic="VERTEX" source="#vfx_kurp_0038-mesh-vertices" offset="0"/>
        <input semantic="NORMAL" source="#vfx_kurp_0038-mesh-normals" offset="1"/>
        <input semantic="TEXCOORD" source="#vfx_kurp_0038-mesh-uv0" offset="2" set="0"/>
        <p>0 0 0 1 1 1 2 2 2 2 2 2 1 1 1 3 3 3 4 4 4 3 3 3 1 1 1 3 3 3 4 4 4 5 5 5 6 6 6 5 5 5 4 4 4 5 5 5 6 6 6 7 7 7 8 8 8 7 7 7 6 6 6 7 7 7 8 8 8 9 9 9 10 10 10 9 9 9 8 8 8 9 9 9 10 10 10 11 11 11 12 12 12 13 13 13 14 14 14 13 13 13 12 12 12 15 15 15 16 16 16 15 15 15 12 12 12 15 15 15 16 16 16 17 17 17 18 18 18 17 17 17 16 16 16 17 17 17 18 18 18 19 19 19 20 20 20 19 19 19 18 18 18 19 19 19 20 20 20 21 21 21 22 22 22 21 21 21 20 20 20 21 21 21 22 22 22 23 23 23 24 24 24 23 23 23 22 22 22 23 23 23 24 24 24 25 25 25 26 26 26 25 25 25 24 24 24 25 25 25 26 26 26 27 27 27 28 28 28 27 27 27 26 26 26 29 29 29 30 30 30 31 31 31 10 10 10 32 32 32 11 11 11 33 33 33 34 34 34 35 35 35 13 13 13 36 36 36 14 14 14 14 14 14 36 36 36 37 37 37 38 38 38 37 37 37 36 36 36 37 37 37 38 38 38 39 39 39 40 40 40 39 39 39 38 38 38 39 39 39 40 40 40 41 41 41 42 42 42 41 41 41 40 40 40 41 41 41 42 42 42 43 43 43 44 44 44 43 43 43 42 42 42 43 43 43 44 44 44 45 45 45 46 46 46 45 45 45 44 44 44 45 45 45 46 46 46 47 47 47 48 48 48 47 47 47 46 46 46 49 49 49 50 50 50 51 51 51 52 52 52 53 53 53 54 54 54 55 55 55 56 56 56 57 57 57 58 58 58 57 57 57 56 56 56 57 57 57 58 58 58 59 59 59 60 60 60 59 59 59 58 58 58 59 59 59 60 60 60 61 61 61 62 62 62 61 61 61 60 60 60 61 61 61 62 62 62 63 63 63 64 64 64 63 63 63 62 62 62 63 63 63 64 64 64 65 65 65 66 66 66 65 65 65 64 64 64 65 65 65 66 66 66 67 67 67 68 68 68 67 67 67 66 66 66 67 67 67 68 68 68 69 69 69 70 70 70 69 69 69 68 68 68 69 69 69 70 70 70 71 71 71 0 0 0 71 71 71 70 70 70 71 71 71 0 0 0 2 2 2 72 72 72 73 73 73 74 74 74 74 74 74 73 73 73 75 75 75 76 76 76 75 75 75 73 73 73 75 75 75 76 76 76 77 77 77 78 78 78 77 77 77 76 76 76 77 77 77 78 78 78 79 79 79 80 80 80 79 79 79 78 78 78 79 79 79 80 80 80 81 81 81 82 82 82 81 81 81 80 80 80 81 81 81 82 82 82 83 83 83 84 84 84 85 85 85 86 86 86 85 85 85 84 84 84 87 87 87 88 88 88 87 87 87 84 84 84 87 87 87 88 88 88 89 89 89 90 90 90 89 89 89 88 88 88 89 89 89 90 90 90 91 91 91 92 92 92 91 91 91 90 90 90 91 91 91 92 92 92 93 93 93 94 94 94 93 93 93 92 92 92 93 93 93 94 94 94 95 95 95 96 96 96 95 95 95 94 94 94 95 95 95 96 96 96 97 97 97 98 98 98 97 97 97 96 96 96 97 97 97 98 98 98 99 99 99 100 100 100 99 99 99 98 98 98 101 101 101 102 102 102 103 103 103 82 82 82 104 104 104 83 83 83 105 105 105 106 106 106 107 107 107 85 85 85 108 108 108 86 86 86 86 86 86 108 108 108 109 109 109 110 110 110 109 109 109 108 108 108 109 109 109 110 110 110 111 111 111 112 112 112 111 111 111 110 110 110 111 111 111 112 112 112 113 113 113 114 114 114 113 113 113 112 112 112 113 113 113 114 114 114 115 115 115 116 116 116 115 115 115 114 114 114 115 115 115 116 116 116 117 117 117 118 118 118 117 117 117 116 116 116 117 117 117 118 118 118 119 119 119 120 120 120 119 119 119 118 118 118 121 121 121 122 122 122 123 123 123 124 124 124 125 125 125 126 126 126 127 127 127 128 128 128 129 129 129 130 130 130 129 129 129 128 128 128 129 129 129 130 130 130 131 131 131 132 132 132 131 131 131 130 130 130 131 131 131 132 132 132 133 133 133 134 134 134 133 133 133 132 132 132 133 133 133 134 134 134 135 135 135 136 136 136 135 135 135 134 134 134 135 135 135 136 136 136 137 137 137 138 138 138 137 137 137 136 136 136 137 137 137 138 138 138 139 139 139 140 140 140 139 139 139 138 138 138 139 139 139 140 140 140 141 141 141 142 142 142 141 141 141 140 140 140 141 141 141 142 142 142 143 143 143 72 72 72 143 143 143 142 142 142 143 143 143 72 72 72 74 74 74</p>
      </triangles>
    </mesh></geometry>
  </library_geometries>
  <library_visual_scenes>
    <visual_scene id="Scene" name="Scene">
      <node id="vfx_kurp_0038" name="vfx_kurp_0038" type="NODE">
        <instance_geometry url="#vfx_kurp_0038-mesh"><bind_material><technique_common><instance_material symbol="PreviewMaterial" target="#PreviewMaterial"><bind_vertex_input semantic="UVSET0" input_semantic="TEXCOORD" input_set="0"/></instance_material></technique_common></bind_material></instance_geometry>
      </node>
    </visual_scene>
  </library_visual_scenes>
  <scene><instance_visual_scene url="#Scene"/></scene>
</COLLADA>
