<?xml version="1.0" encoding="utf-8"?>
<COLLADA xmlns="http://www.collada.org/2005/11/COLLADASchema" version="1.4.1">
  <asset>
    <contributor><authoring_tool>Morrobroom Kurpulio VFX preview converter</authoring_tool></contributor>
    <unit name="unit" meter="1"/>
    <up_axis>Z_UP</up_axis>
  </asset>
  <library_images>
    <image id="VFXTexture" name="darkmap_newgen-1.dds">
      <init_from>../../../Textures/Kurp/darkmap_newgen-1.dds</init_from>
    </image>
  </library_images>
  <library_effects>
    <effect id="PreviewEffect">
      <profile_COMMON>
        <newparam sid="VFXTexture-surface">
          <surface type="2D"><init_from>VFXTexture</init_from></surface>
        </newparam>
        <newparam sid="VFXTexture-sampler">
          <sampler2D><source>VFXTexture-surface</source></sampler2D>
        </newparam>
        <technique sid="common"><phong>
          <emission><color>0.08 0.08 0.08 1</color></emission>
          <ambient><color>0.2 0.2 0.2 1</color></ambient>
          <diffuse><texture texture="VFXTexture-sampler" texcoord="UVSET0"/></diffuse>
          <specular><color>0.15 0.15 0.15 1</color></specular>
          <shininess><float>8</float></shininess>
          <transparent opaque="A_ONE"><texture texture="VFXTexture-sampler" texcoord="UVSET0"/></transparent>
          <transparency><float>1</float></transparency>
        </phong></technique>
      </profile_COMMON>
      <extra><technique profile="GOOGLEEARTH"><double_sided>1</double_sided></technique></extra>
    </effect>
  </library_effects>
  <library_materials><material id="PreviewMaterial" name="PreviewMaterial"><instance_effect url="#PreviewEffect"/></material></library_materials>
  <library_geometries>
    <geometry id="vfx_kurp_0934-mesh" name="vfx_kurp_0934"><mesh>
      <source id="vfx_kurp_0934-mesh-positions">
        <float_array id="vfx_kurp_0934-mesh-positions-array" count="288">-2.45923199 2.77705734 2.3142111 -1.72476432 2.88575466 1.17901105 -2.90426191 1.58790292 0.957543791 -2.2420489 1.34975527 0.208919764 -1.11155489 3.71552639 -0.00208191208 -2.2420489 1.34975527 0.208919764 -1.72476432 2.88575466 1.17901105 -1.92805225 1.78030248 -0.382299783 -0.130518034 3.21770327 -1.14107372 -1.92805225 1.78030248 -0.382299783 -1.11155489 3.71552639 -0.00208191208 -1.27709743 1.50032173 -1.16161532 0.654505081 2.26674476 -1.89132329 -0.9751879 1.17342172 -1.45945046 1.07362341 1.09699318 -1.96671427 -0.684189466 0.346953247 -1.49985598 -2.93652811 0.938941886 1.26747266 -2.45923199 2.77705734 2.3142111 -2.90426191 1.58790292 0.957543791 -2.31773213 1.52757161 2.76532519 -3.3138967 0.340506339 2.020306 -2.31773213 1.52757161 2.76532519 -2.93652811 0.938941886 1.26747266 -2.3485405 0.691164975 3.4944016 -2.97319266 -0.164709077 1.77945655 -2.3485405 0.691164975 3.4944016 -3.3138967 0.340506339 2.020306 -1.99084278 -0.237200499 3.30999409 -2.26764502 -0.924925449 1.17783513 -1.65710735 -0.640929985 2.83738926 -2.53220837 -1.88256392 1.92686355 -1.65710735 -0.640929985 2.83738926 -2.26764502 -0.924925449 1.17783513 -1.7324243 -1.23411411 3.50860974 -2.34382154 -2.53414582 1.95303825 -1.7324243 -1.23411411 3.50860974 -2.53220837 -1.88256392 1.92686355 -1.25804846 -2.49302476 3.28684219 -2.02062244 -2.80441937 1.18350441 -1.25804846 -2.49302476 3.28684219 -2.34382154 -2.53414582 1.95303825 -0.0318008096 -3.28499827 2.1344992 -1.55980452 -1.89516764 0.584187421 -0.0318008096 -3.28499827 2.1344992 -2.02062244 -2.80441937 1.18350441 0.261770621 -2.38218897 0.868734055 -0.697772974 -1.33443436 -0.69888466 0.994905203 -2.12310175 -0.323755752 3.65116311 -2.39947998 0.164147598 2.32983336 -2.69408211 0.0790976625 2.75298282 -1.63582499 -1.2720941 1.73314843 -1.51096413 -1.26706516 1.13409035 -3.70838781 0.0489407606 1.73314843 -1.51096413 -1.26706516 2.32983336 -2.69408211 0.0790976625 1.1319241 -2.03249866 -1.27307196 -0.416642357 -3.39103157 0.00337562572 1.1319241 -2.03249866 -1.27307196 1.13409035 -3.70838781 0.0489407606 0.0907775939 -1.87612213 -1.30507411 -1.59851182 -2.56578533 -0.0715292511 -0.366348306 -1.5983911 -1.32997724 -2.0575258 -1.40867173 -0.0790930562 -0.677562569 -0.778326566 -1.33160637 2.93517706 -0.939370284 -1.27028132 3.65116311 -2.39947998 0.164147598 2.75298282 -1.63582499 -1.2720941 3.76177 -1.07013229 0.237233597 3.68070812 -0.224309002 -1.25760246 3.76177 -1.07013229 0.237233597 2.93517706 -0.939370284 -1.27028132 4.24252176 -0.0911934348 0.443714141 3.22195641 0.243511634 -1.26220695 4.24252176 -0.0911934348 0.443714141 3.68070812 -0.224309002 -1.25760246 3.76688978 0.799813112 0.382903456 2.22649486 0.911889631 -1.26339821 3.14669771 1.1127993 0.259884797 2.85594092 1.98511488 -1.25373363 3.14669771 1.1127993 0.259884797 2.22649486 0.911889631 -1.26339821 3.63959667 1.8382643 0.456933309 2.68097852 2.6409495 -1.25199637 3.63959667 1.8382643 0.456933309 2.85594092 1.98511488 -1.25373363 3.02305514 3.05214003 0.383098055 1.85536191 2.75206805 -1.52712834 3.02305514 3.05214003 0.383098055 2.68097852 2.6409495 -1.25199637 1.27293569 3.6781626 0.446165468 1.21116601 1.78472629 -1.30910494 1.27293569 3.6781626 0.446165468 1.85536191 2.75206805 -1.52712834 0.222575365 2.53561918 0.138355514 -0.251263754 1.03380014 -1.2744281 -1.12427145 2.08212145 0.054766342</float_array>
        <technique_common><accessor source="#vfx_kurp_0934-mesh-positions-array" count="96" stride="3"><param name="X" type="float"/><param name="Y" type="float"/><param name="Z" type="float"/></accessor></technique_common>
      </source>
      <source id="vfx_kurp_0934-mesh-normals">
        <float_array id="vfx_kurp_0934-mesh-normals-array" count="288">-0.658061335 0.659921194 -0.362573161 -0.619856634 0.640655406 -0.453142808 -0.57120077 0.612376883 -0.546556707 -0.513266267 0.575156726 -0.636987032 -0.894325058 0.411742386 -0.175073977 -0.894322071 0.41173884 -0.175097578 -0.89432755 0.411745337 -0.175054309 -0.894317594 0.411733563 -0.175132845 -0.534020152 0.357801932 -0.766028886 -0.612291618 0.408300251 -0.677044961 -0.605578753 0.391610073 -0.692759645 -0.53295626 0.374910743 -0.758550961 -0.349722446 0.148203071 -0.925056788 -0.353781299 0.158286936 -0.921837317 -0.241208255 -0.0275037067 -0.970083565 -0.241484523 -0.0376195755 -0.9696752 -0.958559841 0.0961994432 0.268157974 -0.943200589 0.0587051338 0.326995957 -0.970658543 0.141212107 0.194630762 -0.927836581 0.0291762853 0.371844084 -0.809436717 0.54975497 0.206353276 -0.814846158 0.47785654 0.328144582 -0.789396189 0.60764139 0.0873246646 -0.805898278 0.40561964 0.431277953 -0.6063501 -0.674996818 0.420379414 -0.739943655 -0.454183782 0.496185933 -0.5694442 -0.633657116 0.523652522 -0.685292739 -0.594106119 0.421202779 -0.544651295 -0.774938655 0.32066345 -0.507827866 -0.798426676 0.323458965 -0.868344484 0.42700858 0.252272729 -0.868767715 0.420589177 0.26143336 -0.867958605 0.431754217 0.245430551 -0.869044193 0.415037057 0.269270183 -0.789083282 -0.281939642 0.545763329 -0.74669787 -0.33584324 0.57415295 -0.831317205 -0.219846217 0.51046973 -0.713782161 -0.373347697 0.5925593 -0.296723117 -0.923197998 0.244255703 -0.319092767 -0.913884718 0.250987108 -0.244662701 -0.942367374 0.228218965 -0.341608449 -0.903832895 0.257662113 -0.0159238881 -0.78126691 -0.623993947 0.00307584505 -0.743082078 -0.669193219 0.216268519 -0.611357563 -0.761229175 -0.189495763 -0.839527031 -0.50920106 -0.223110249 -0.868014193 -0.443591227 -0.318615093 -0.866550641 -0.384154148 0.214492058 -0.800434269 -0.559730416 0.118682346 -0.799416514 -0.588937805 0.0130417236 -0.789189555 -0.614011204 -0.0972129134 -0.768543323 -0.632369204 0.478405443 -0.543496828 -0.689738669 0.478384981 -0.543498758 -0.689751339 0.478422513 -0.543495149 -0.689728151 0.478354369 -0.543501767 -0.689770199 -0.208442083 -0.592997902 -0.777756637 -0.0849074984 -0.629157891 -0.772626083 -0.10314367 -0.616117911 -0.780871374 -0.20138158 -0.607533074 -0.768341736 -0.471195429 -0.408252078 -0.781860031 -0.464986998 -0.417654814 -0.780609729 -0.594743159 -0.237307589 -0.768092236 -0.595437313 -0.227499005 -0.770518403 0.821934449 -0.139479695 -0.552240143 0.852972131 -0.0872877 -0.514606064 0.77845406 -0.202098655 -0.594277216 0.874210764 -0.0461639062 -0.483347116 0.733393153 -0.573844084 -0.364468723 0.821790497 -0.475656924 -0.313705069 0.636241394 -0.656157635 -0.405775857 0.886779604 -0.379998446 -0.263102861 0.626230055 0.681294195 -0.379043715 0.794477785 0.471458996 -0.382794285 0.686944774 0.67087863 -0.279336251 0.686142914 0.594375364 -0.419435131 0.499152954 0.760525606 -0.415267542 0.475307688 0.788125057 -0.391077355 0.791448482 -0.451367715 -0.412160753 0.797989536 -0.443010254 -0.408600803 0.786513168 -0.45755445 -0.414778207 0.803524204 -0.435792519 -0.405504296 0.88363006 0.311889393 -0.349174632 0.872344835 0.375645108 -0.312898132 0.890482773 0.238587746 -0.387448472 0.861298493 0.420077443 -0.285831853 0.266745116 0.913701671 -0.306588159 0.287115134 0.903754896 -0.317477538 0.21934666 0.934347975 -0.280857445 0.307620428 0.893066113 -0.328333049 -0.559644698 0.598939297 -0.572773542 -0.601833581 0.553408668 -0.575790923 -0.791591609 0.429107725 -0.435027913 -0.368867337 0.662649676 -0.651791604 -0.300670651 0.70209179 -0.645495374 -0.194639879 0.7039626 -0.683046101</float_array>
        <technique_common><accessor source="#vfx_kurp_0934-mesh-normals-array" count="96" stride="3"><param name="X" type="float"/><param name="Y" type="float"/><param name="Z" type="float"/></accessor></technique_common>
      </source>
      <source id="vfx_kurp_0934-mesh-uv0">
        <float_array id="vfx_kurp_0934-mesh-uv0-array" count="192">1 0.357142806 1 0.285714269 0 0.357142806 0 0.285714269 1 0.214285672 0 0.285714269 1 0.285714269 0 0.214285672 1 0.142857075 0 0.214285672 1 0.214285672 0 0.142857075 1 0.0714285374 0 0.0714285374 1 0 0 0 0 0.428571403 1 0.357142806 0 0.357142806 1 0.428571403 0 0.5 1 0.428571403 0 0.428571403 1 0.5 0 0.571428537 1 0.5 0 0.5 1 0.571428537 0 0.642857134 1 0.642857134 0 0.714285731 1 0.642857134 0 0.642857134 1 0.714285731 0 0.785714269 1 0.714285731 0 0.714285731 1 0.785714269 0 0.857142866 1 0.785714269 0 0.785714269 1 0.857142866 0 0.928571403 1 0.857142866 0 0.857142866 1 0.928571403 0 1 1 1 1 0.357142806 1 0.285714269 0 0.357142806 0 0.285714269 1 0.214285672 0 0.285714269 1 0.285714269 0 0.214285672 1 0.142857075 0 0.214285672 1 0.214285672 0 0.142857075 1 0.0714285374 0 0.0714285374 1 0 0 0 0 0.428571403 1 0.357142806 0 0.357142806 1 0.428571403 0 0.5 1 0.428571403 0 0.428571403 1 0.5 0 0.571428537 1 0.5 0 0.5 1 0.571428537 0 0.642857134 1 0.642857134 0 0.714285731 1 0.642857134 0 0.642857134 1 0.714285731 0 0.785714269 1 0.714285731 0 0.714285731 1 0.785714269 0 0.857142866 1 0.785714269 0 0.785714269 1 0.857142866 0 0.928571403 1 0.857142866 0 0.857142866 1 0.928571403 0 1 1 1</float_array>
        <technique_common><accessor source="#vfx_kurp_0934-mesh-uv0-array" count="96" stride="2"><param name="S" type="float"/><param name="T" type="float"/></accessor></technique_common>
      </source>
      <vertices id="vfx_kurp_0934-mesh-vertices"><input semantic="POSITION" source="#vfx_kurp_0934-mesh-positions"/></vertices>
      <triangles material="PreviewMaterial" count="56">
        <input semantic="VERTEX" source="#vfx_kurp_0934-mesh-vertices" offset="0"/>
        <input semantic="NORMAL" source="#vfx_kurp_0934-mesh-normals" offset="1"/>
        <input semantic="TEXCOORD" source="#vfx_kurp_0934-mesh-uv0" offset="2" set="0"/>
        <p>0 0 0 1 1 1 2 2 2 2 2 2 1 1 1 3 3 3 4 4 4 5 5 5 6 6 6 5 5 5 4 4 4 7 7 7 8 8 8 9 9 9 10 10 10 9 9 9 8 8 8 11 11 11 12 12 12 11 11 11 8 8 8 11 11 11 12 12 12 13 13 13 14 14 14 13 13 13 12 12 12 13 13 13 14 14 14 15 15 15 16 16 16 17 17 17 18 18 18 17 17 17 16 16 16 19 19 19 20 20 20 21 21 21 22 22 22 21 21 21 20 20 20 23 23 23 24 24 24 25 25 25 26 26 26 25 25 25 24 24 24 27 27 27 28 28 28 27 27 27 24 24 24 27 27 27 28 28 28 29 29 29 30 30 30 31 31 31 32 32 32 31 31 31 30 30 30 33 33 33 34 34 34 35 35 35 36 36 36 35 35 35 34 34 34 37 37 37 38 38 38 39 39 39 40 40 40 39 39 39 38 38 38 41 41 41 42 42 42 43 43 43 44 44 44 43 43 43 42 42 42 45 45 45 46 46 46 45 45 45 42 42 42 47 47 47 45 45 45 46 46 46 48 48 48 49 49 49 50 50 50 50 50 50 49 49 49 51 51 51 52 52 52 53 53 53 54 54 54 53 53 53 52 52 52 55 55 55 56 56 56 57 57 57 58 58 58 57 57 57 56 56 56 59 59 59 60 60 60 59 59 59 56 56 56 59 59 59 60 60 60 61 61 61 62 62 62 61 61 61 60 60 60 61 61 61 62 62 62 63 63 63 64 64 64 65 65 65 66 66 66 65 65 65 64 64 64 67 67 67 68 68 68 69 69 69 70 70 70 69 69 69 68 68 68 71 71 71 72 72 72 73 73 73 74 74 74 73 73 73 72 72 72 75 75 75 76 76 76 75 75 75 72 72 72 75 75 75 76 76 76 77 77 77 78 78 78 79 79 79 80 80 80 79 79 79 78 78 78 81 81 81 82 82 82 83 83 83 84 84 84 83 83 83 82 82 82 85 85 85 86 86 86 87 87 87 88 88 88 87 87 87 86 86 86 89 89 89 90 90 90 91 91 91 92 92 92 91 91 91 90 90 90 93 93 93 94 94 94 93 93 93 90 90 90 95 95 95 93 93 93 94 94 94</p>
      </triangles>
    </mesh></geometry>
  </library_geometries>
  <library_visual_scenes>
    <visual_scene id="Scene" name="Scene">
      <node id="vfx_kurp_0934" name="vfx_kurp_0934" type="NODE">
        <instance_geometry url="#vfx_kurp_0934-mesh"><bind_material><technique_common><instance_material symbol="PreviewMaterial" target="#PreviewMaterial"><bind_vertex_input semantic="UVSET0" input_semantic="TEXCOORD" input_set="0"/></instance_material></technique_common></bind_material></instance_geometry>
      </node>
    </visual_scene>
  </library_visual_scenes>
  <scene><instance_visual_scene url="#Scene"/></scene>
</COLLADA>
