<?xml version="1.0" encoding="utf-8"?>
<COLLADA xmlns="http://www.collada.org/2005/11/COLLADASchema" version="1.4.1">
  <asset>
    <contributor><authoring_tool>Morrobroom Kurpulio VFX preview converter</authoring_tool></contributor>
    <unit name="unit" meter="1"/>
    <up_axis>Z_UP</up_axis>
  </asset>
  <library_images>
    <image id="VFXTexture" name="darkmap_newgen-1.dds">
      <init_from>../../../Textures/Kurp/darkmap_newgen-1.dds</init_from>
    </image>
  </library_images>
  <library_effects>
    <effect id="PreviewEffect">
      <profile_COMMON>
        <newparam sid="VFXTexture-surface">
          <surface type="2D"><init_from>VFXTexture</init_from></surface>
        </newparam>
        <newparam sid="VFXTexture-sampler">
          <sampler2D><source>VFXTexture-surface</source></sampler2D>
        </newparam>
        <technique sid="common"><phong>
          <emission><color>0.08 0.08 0.08 1</color></emission>
          <ambient><color>0.2 0.2 0.2 1</color></ambient>
          <diffuse><texture texture="VFXTexture-sampler" texcoord="UVSET0"/></diffuse>
          <specular><color>0.15 0.15 0.15 1</color></specular>
          <shininess><float>8</float></shininess>
          <transparent opaque="A_ONE"><texture texture="VFXTexture-sampler" texcoord="UVSET0"/></transparent>
          <transparency><float>1</float></transparency>
        </phong></technique>
      </profile_COMMON>
      <extra><technique profile="GOOGLEEARTH"><double_sided>1</double_sided></technique></extra>
    </effect>
  </library_effects>
  <library_materials><material id="PreviewMaterial" name="PreviewMaterial"><instance_effect url="#PreviewEffect"/></material></library_materials>
  <library_geometries>
    <geometry id="vfx_kurp_0565-mesh" name="vfx_kurp_0565"><mesh>
      <source id="vfx_kurp_0565-mesh-positions">
        <float_array id="vfx_kurp_0565-mesh-positions-array" count="216">0.866226196 -2.89192462 4.47652404e-08 0.866226196 2.89192462 -4.93803327e-08 -0.866226196 -2.89192462 4.93803327e-08 -0.866226196 2.89192462 -4.47652404e-08 2.10231423 -3.74008632 -0.865503073 6.14971685 -0.733424783 -3.69948268 2.13668036 -4.9524169 -2.10262322 6.18408298 -1.94575536 -4.93660259 2.46464634 -3.98870587 -0.341814727 7.69846058 -1.79611897 -1.46104193 3.01691842 -5.55640507 -0.830391347 8.25073242 -3.36381817 -1.94961858 2.46464658 -3.98870659 0.341813028 7.69846296 -1.79612279 1.46103704 3.01691747 -5.55640602 0.830390215 8.25073338 -3.36382222 1.94961429 2.10231519 -3.74008584 0.865502119 6.14972067 -0.73342669 3.69947958 2.13668156 -4.95241642 2.10262227 6.18408728 -1.94575715 4.93659973 1.54718995 -3.35917902 0.984213114 3.77691364 0.894713819 4.20689154 0.788079977 -4.02705288 2.39101481 3.01780343 0.226840287 5.61369276 1.05902052 -3.02421331 0.642399609 1.69029355 2.32647681 2.74585485 -0.397860765 -3.21330166 1.56062353 0.233412161 2.13738823 3.66407871 1.05902064 -3.02421355 -0.642400384 1.69029737 2.32647538 -2.74586058 -0.397860587 -3.21330166 -1.560624 0.233416006 2.13738704 -3.6640842 1.54719114 -3.35917878 -0.984212816 3.77691507 0.894712269 -4.20689201 0.788081348 -4.02705288 -2.3910141 3.0178051 0.226838097 -5.61369324 2.69479012 -4.28535557 2.20137095 10.7318373 -0.918429434 3.92004991 3.61139464 -4.91429949 -0.852827907 11.6484423 -1.54737353 0.865851045 3.6113956 -4.91429806 0.852824926 11.6484337 -1.54736555 -0.865860522 2.6947875 -4.28535414 -2.20137262 10.7318258 -0.918422163 -3.92005825 3.59880805 -4.90566206 -0.894767463 9.81399727 -0.288641214 -5.24662256 1.27787912 -3.31312156 -2.51987147 7.49306822 1.30389953 -6.87172651 1.27787912 -3.31311893 2.5198698 7.49307251 1.30390608 6.87172031 3.59880781 -4.90566111 0.894765377 9.81400013 -0.288636118 5.24661541 0.0236559771 -2.45251513 1.65929401 3.44761324 4.07975864 6.60804176 2.6629169 -4.26348591 2.22368765 6.08687401 2.26878786 7.17243481 -0.481018543 -2.10622573 0.0223157313 0.488363504 6.11028624 3.25237823 1.24163723 -3.28825259 2.51212072 2.21101975 4.92825985 5.74218273 -2.26759744e-06 -2.43628263 -1.62510288 -7.50272193e-06 6.44539261 -1.62509918 8.46410941e-08 -2.43628383 1.62510443 -5.36456128e-06 6.44539165 1.62510824 1.24163687 -3.28825307 -2.51212168 2.21102214 4.92826271 -5.74218988 -0.481019408 -2.10622406 -0.0223165266 0.488365799 6.110291 -3.25238442 2.66291761 -4.26348734 -2.22368717 6.08687687 2.26878214 -7.17243862 0.0236575194 -2.45251513 -1.65929461 3.44761729 4.07975388 -6.60804605</float_array>
        <technique_common><accessor source="#vfx_kurp_0565-mesh-positions-array" count="72" stride="3"><param name="X" type="float"/><param name="Y" type="float"/><param name="Z" type="float"/></accessor></technique_common>
      </source>
      <source id="vfx_kurp_0565-mesh-normals">
        <float_array id="vfx_kurp_0565-mesh-normals-array" count="216">2.66390709e-09 1.62773208e-08 1 2.66390709e-09 1.62773208e-08 1 2.66390709e-09 1.62773208e-08 1 2.66390709e-09 1.62773208e-08 1 -0.714086339 0.489980956 -0.499999364 -0.714086309 0.489980947 -0.499999415 -0.714086309 0.489980947 -0.499999415 -0.714086309 0.489980947 -0.499999415 -0.282014853 0.193508361 -0.939692576 -0.282014878 0.193508388 -0.939692563 -0.282014852 0.193508375 -0.939692573 -0.282014878 0.193508402 -0.93969256 0.282014375 -0.193509075 -0.939692572 0.282014399 -0.193509131 -0.939692554 0.282014374 -0.19350909 -0.93969257 0.282014425 -0.193509144 -0.939692543 0.714085833 -0.489981245 -0.499999802 0.714085812 -0.48998123 -0.499999847 0.714085833 -0.489981245 -0.499999802 0.714085801 -0.489981223 -0.49999987 0.81202819 -0.55718626 0.173648183 0.812028113 -0.557186307 0.173648388 0.812028181 -0.557186254 0.173648241 0.812028107 -0.557186303 0.173648431 0.530013988 -0.363677151 0.766044452 0.530013988 -0.363677151 0.766044452 0.530013964 -0.363677134 0.766044477 0.530013988 -0.363677151 0.766044452 -0.530013737 0.363678185 0.766044135 -0.530013742 0.363678159 0.766044143 -0.530013742 0.363678159 0.766044143 -0.530013742 0.363678159 0.766044143 -0.81202812 0.557186432 0.173647957 -0.812028111 0.557186426 0.173648015 -0.812028118 0.55718643 0.173647972 -0.812028111 0.557186426 0.173648015 -0.318779557 0.904901978 -0.28201419 -0.318779501 0.904901988 -0.282014223 -0.31877953 0.904901987 -0.282014193 -0.318779498 0.90490198 -0.28201425 -0.318780118 0.904901606 0.282014752 -0.318780085 0.904901656 0.28201463 -0.318780123 0.904901621 0.282014697 -0.31878009 0.904901671 0.282014575 -0.0198367612 0.699777309 0.714085583 -0.019836738 0.69977728 0.714085613 -0.0198367547 0.69977728 0.714085613 -0.0198367305 0.69977728 0.714085613 -0.0198370533 0.699776763 -0.71408611 -0.0198371316 0.699776823 -0.71408605 -0.0198370738 0.699776823 -0.714086051 -0.0198371539 0.699776822 -0.71408605 0.438170938 0.385508089 -0.812028166 0.438170825 0.385508065 -0.812028238 0.438170874 0.385508055 -0.812028217 0.438170791 0.385508121 -0.81202823 0.840935729 0.109144787 -0.530013694 0.840935631 0.109144782 -0.530013849 0.840935703 0.109144776 -0.530013737 0.840935614 0.109144788 -0.530013876 1 5.89430158e-07 -7.23719324e-07 1 6.08150401e-07 -6.72563374e-07 1 5.94813173e-07 -7.09009328e-07 1 6.13533416e-07 -6.57853434e-07 0.840935703 0.109144776 0.530013737 0.840935703 0.109144769 0.530013738 0.840935703 0.109144776 0.530013737 0.840935703 0.109144769 0.530013738 0.438171117 0.385508387 0.812027928 0.438171117 0.385508387 0.812027928 0.438171117 0.385508387 0.812027928 0.438171117 0.385508387 0.812027928</float_array>
        <technique_common><accessor source="#vfx_kurp_0565-mesh-normals-array" count="72" stride="3"><param name="X" type="float"/><param name="Y" type="float"/><param name="Z" type="float"/></accessor></technique_common>
      </source>
      <source id="vfx_kurp_0565-mesh-uv0">
        <float_array id="vfx_kurp_0565-mesh-uv0-array" count="144">1 0.320000291 1 -0.279999495 0 0.320000291 0 -0.279999495 1 0.320000291 1 -0.279999495 0 0.320000291 0 -0.279999495 1 0.320000291 1 -0.279999495 0 0.320000291 0 -0.279999495 1 0.320000291 1 -0.279999495 0 0.320000291 0 -0.279999495 1 0.320000291 1 -0.279999495 0 0.320000291 0 -0.279999495 1 0.320000291 1 -0.279999495 0 0.320000291 0 -0.279999495 1 0.320000291 1 -0.279999495 0 0.320000291 0 -0.279999495 1 0.320000291 1 -0.279999495 0 0.320000291 0 -0.279999495 1 0.320000291 1 -0.279999495 0 0.320000291 0 -0.279999495 1 0.320000291 1 -0.279999495 0 0.320000291 0 -0.279999495 1 0.320000291 1 -0.279999495 0 0.320000291 0 -0.279999495 1 0.320000291 1 -0.279999495 0 0.320000291 0 -0.279999495 1 0.320000291 1 -0.279999495 0 0.320000291 0 -0.279999495 1 0.320000291 1 -0.279999495 0 0.320000291 0 -0.279999495 1 0.320000291 1 -0.279999495 0 0.320000291 0 -0.279999495 1 0.320000291 1 -0.279999495 0 0.320000291 0 -0.279999495 1 0.320000291 1 -0.279999495 0 0.320000291 0 -0.279999495 1 0.320000291 1 -0.279999495 0 0.320000291 0 -0.279999495</float_array>
        <technique_common><accessor source="#vfx_kurp_0565-mesh-uv0-array" count="72" stride="2"><param name="S" type="float"/><param name="T" type="float"/></accessor></technique_common>
      </source>
      <vertices id="vfx_kurp_0565-mesh-vertices"><input semantic="POSITION" source="#vfx_kurp_0565-mesh-positions"/></vertices>
      <triangles material="PreviewMaterial" count="36">
        <input semantic="VERTEX" source="#vfx_kurp_0565-mesh-vertices" offset="0"/>
        <input semantic="NORMAL" source="#vfx_kurp_0565-mesh-normals" offset="1"/>
        <input semantic="TEXCOORD" source="#vfx_kurp_0565-mesh-uv0" offset="2" set="0"/>
        <p>0 0 0 1 1 1 2 2 2 3 3 3 2 2 2 1 1 1 4 4 4 5 5 5 6 6 6 7 7 7 6 6 6 5 5 5 8 8 8 9 9 9 10 10 10 11 11 11 10 10 10 9 9 9 12 12 12 13 13 13 14 14 14 15 15 15 14 14 14 13 13 13 16 16 16 17 17 17 18 18 18 19 19 19 18 18 18 17 17 17 20 20 20 21 21 21 22 22 22 23 23 23 22 22 22 21 21 21 24 24 24 25 25 25 26 26 26 27 27 27 26 26 26 25 25 25 28 28 28 29 29 29 30 30 30 31 31 31 30 30 30 29 29 29 32 32 32 33 33 33 34 34 34 35 35 35 34 34 34 33 33 33 36 36 36 37 37 37 38 38 38 39 39 39 38 38 38 37 37 37 40 40 40 41 41 41 42 42 42 43 43 43 42 42 42 41 41 41 44 44 44 45 45 45 46 46 46 47 47 47 46 46 46 45 45 45 48 48 48 49 49 49 50 50 50 51 51 51 50 50 50 49 49 49 52 52 52 53 53 53 54 54 54 55 55 55 54 54 54 53 53 53 56 56 56 57 57 57 58 58 58 59 59 59 58 58 58 57 57 57 60 60 60 61 61 61 62 62 62 63 63 63 62 62 62 61 61 61 64 64 64 65 65 65 66 66 66 67 67 67 66 66 66 65 65 65 68 68 68 69 69 69 70 70 70 71 71 71 70 70 70 69 69 69</p>
      </triangles>
    </mesh></geometry>
  </library_geometries>
  <library_visual_scenes>
    <visual_scene id="Scene" name="Scene">
      <node id="vfx_kurp_0565" name="vfx_kurp_0565" type="NODE">
        <instance_geometry url="#vfx_kurp_0565-mesh"><bind_material><technique_common><instance_material symbol="PreviewMaterial" target="#PreviewMaterial"><bind_vertex_input semantic="UVSET0" input_semantic="TEXCOORD" input_set="0"/></instance_material></technique_common></bind_material></instance_geometry>
      </node>
    </visual_scene>
  </library_visual_scenes>
  <scene><instance_visual_scene url="#Scene"/></scene>
</COLLADA>
