<?xml version="1.0" encoding="utf-8"?>
<COLLADA xmlns="http://www.collada.org/2005/11/COLLADASchema" version="1.4.1">
  <asset>
    <contributor><authoring_tool>Morrobroom Kurpulio VFX preview converter</authoring_tool></contributor>
    <unit name="unit" meter="1"/>
    <up_axis>Z_UP</up_axis>
  </asset>
  <library_images>
    <image id="VFXTexture" name="darkmap_newgen-1.dds">
      <init_from>../../../Textures/Kurp/darkmap_newgen-1.dds</init_from>
    </image>
  </library_images>
  <library_effects>
    <effect id="PreviewEffect">
      <profile_COMMON>
        <newparam sid="VFXTexture-surface">
          <surface type="2D"><init_from>VFXTexture</init_from></surface>
        </newparam>
        <newparam sid="VFXTexture-sampler">
          <sampler2D><source>VFXTexture-surface</source></sampler2D>
        </newparam>
        <technique sid="common"><phong>
          <emission><color>0.08 0.08 0.08 1</color></emission>
          <ambient><color>0.2 0.2 0.2 1</color></ambient>
          <diffuse><texture texture="VFXTexture-sampler" texcoord="UVSET0"/></diffuse>
          <specular><color>0.15 0.15 0.15 1</color></specular>
          <shininess><float>8</float></shininess>
          <transparent opaque="A_ONE"><texture texture="VFXTexture-sampler" texcoord="UVSET0"/></transparent>
          <transparency><float>1</float></transparency>
        </phong></technique>
      </profile_COMMON>
      <extra><technique profile="GOOGLEEARTH"><double_sided>1</double_sided></technique></extra>
    </effect>
  </library_effects>
  <library_materials><material id="PreviewMaterial" name="PreviewMaterial"><instance_effect url="#PreviewEffect"/></material></library_materials>
  <library_geometries>
    <geometry id="vfx_kurp_0063-mesh" name="vfx_kurp_0063"><mesh>
      <source id="vfx_kurp_0063-mesh-positions">
        <float_array id="vfx_kurp_0063-mesh-positions-array" count="534">0.44859007 3.48032022 0.520201325 1.49071443 3.53567529 0.664681077 -0.399645686 3.06597233 1.23751068 0.103600129 2.6619215 2.00756359 2.09185362 2.97269201 0.920298457 0.103600129 2.6619215 2.00756359 2.09185362 2.97269201 0.920298457 0.883877575 2.17784524 1.66855538 2.68595457 2.2815125 1.41971898 0.883877575 2.17784524 1.66855538 2.09185362 2.97269201 0.920298457 1.52008128 1.23837578 1.79022551 4.08105373 2.7374289 0.919329703 2.5771358 1.35870266 1.43535709 4.69138527 2.24895573 1.51831186 2.5771358 1.35870266 1.43535709 4.08105373 2.7374289 0.919329703 3.61614561 1.39929795 1.97202122 4.89228916 1.02183318 1.68176496 3.61614561 1.39929795 1.97202122 4.69138527 2.24895573 1.51831186 4.35705328 0.628609896 1.83616245 -0.20466952 3.01574087 0.487595916 0.430552185 2.6455121 0.517557621 0.339290828 3.61257458 1.30913913 0.698401213 3.4946425 1.56764615 1.36066949 2.13210821 0.576679051 1.90691519 3.03228378 1.80306029 1.83856285 1.54356265 0.862171233 2.35440063 2.38404441 2.144279 3.21282363 1.4734813 0.405695587 2.35440063 2.38404441 2.144279 1.83856285 1.54356265 0.862171233 3.33832693 2.178056 2.30115008 3.95248318 1.59397244 1.01600945 4.13148642 1.7546705 2.46360064 4.59852457 0.79233557 1.39170802 4.78690624 0.837458551 2.07161593 0.466512412 4.4638443 0.186224163 1.53975642 3.6203053 0.581741035 -1.57239079 3.04531431 0.21689716 -0.357385784 2.22517347 0.810032427 2.31022954 2.76263905 0.36244908 -0.357385784 2.22517347 0.810032427 1.53975642 3.6203053 0.581741035 0.711170495 1.85939538 0.217065841 3.04883456 1.60325193 0.224044576 0.711170495 1.85939538 0.217065841 2.31022954 2.76263905 0.36244908 1.56304133 0.785002172 -0.401164085 4.66995859 1.75910807 0.271570235 3.16723728 1.0794549 -0.489513516 5.61247826 0.891564369 0.396565855 3.16723728 1.0794549 -0.489513516 4.66995859 1.75910807 0.271570235 4.22255898 0.140320033 -0.00607681135 6.19114828 -0.207199112 -0.321032792 4.22255898 0.140320033 -0.00607681135 5.61247826 0.891564369 0.396565855 4.91694069 -0.83738482 -0.586363375 -0.433214307 4.13660336 -0.732782304 0.244481221 3.31576252 -0.304650009 -0.308604181 3.46490431 1.39251518 0.348199785 2.49312687 1.48155725 1.45845795 2.55888748 -0.611963153 1.96223974 2.15550065 1.06316459 2.06847668 1.6929394 -0.836784422 1.96223974 2.15550065 1.06316459 1.45845795 2.55888748 -0.611963153 2.52963305 1.20390379 0.830808997 3.86583853 1.64294004 -0.838612914 2.52963305 1.20390379 0.830808997 2.06847668 1.6929394 -0.836784422 3.99323463 0.74502033 0.598125696 4.76021147 0.973186612 -0.549777687 4.80518436 -0.11532411 0.679392874 5.70413494 -0.00191422564 -1.08610952 5.77782774 -0.97926116 -0.0304396171 0.247464985 4.0142827 0.465859771 0.0624569133 2.97276306 0.669340432 -1.64149678 3.75742364 0.654227436 -1.68527675 2.75668073 0.782369733 0.662649155 2.35072684 -0.0345506445 -1.68527675 2.75668073 0.782369733 0.0624569133 2.97276306 0.669340432 -0.726875722 2.22150826 -0.0222167447 0.381127477 1.4596858 -0.235022277 -0.726875722 2.22150826 -0.0222167447 0.662649155 2.35072684 -0.0345506445 -1.03082001 1.2950412 -0.162228242 1.32735002 0.964781046 -1.11930883 -1.03082001 1.2950412 -0.162228242 0.381127477 1.4596858 -0.235022277 -0.0410691574 0.83039844 -1.08940518 1.34810734 -0.0375185534 -0.942442417 -0.0410691574 0.83039844 -1.08940518 1.32735002 0.964781046 -1.11930883 0.0816458836 -0.207800657 -0.81008476 1.73038614 -0.844181001 -1.272856 0.0816458836 -0.207800657 -0.81008476 1.34810734 -0.0375185534 -0.942442417 0.636490643 -0.963953674 -1.21148992 -0.582141876 4.2242198 -0.198061004 -0.643093288 3.12123561 0.148908436 -0.755530655 3.53691411 1.49012268 -0.903483927 2.54732776 1.63746834 -0.0370175242 2.53521585 -0.629820108 -0.903483927 2.54732776 1.63746834 -0.643093288 3.12123561 0.148908436 -0.0163730122 2.03647804 0.648516834 -0.296070725 1.59196901 -0.729130089 -0.0163730122 2.03647804 0.648516834 -0.0370175242 2.53521585 -0.629820108 -0.358218938 1.12015855 0.57916826 0.608701229 1.14158297 -1.7096771 -0.358218938 1.12015855 0.57916826 -0.296070725 1.59196901 -0.729130089 0.701051533 0.662125409 -0.44337669 0.841008306 0.103191771 -1.38772953 0.701051533 0.662125409 -0.44337669 0.608701229 1.14158297 -1.7096771 0.64994818 -0.349096119 -0.23715651 1.39898074 -0.708903491 -1.63272274 0.64994818 -0.349096119 -0.23715651 0.841008306 0.103191771 -1.38772953 1.10832429 -1.14446092 -0.662041903 0.129661396 -5.0148592 -0.31959179 0.444265783 -2.67763424 1.16402769 -0.192926317 -5.16605091 -0.217623398 -0.616070926 -3.30891728 1.18949986 0.27133736 -1.4164238 0.459378392 -0.616070926 -3.30891728 1.18949986 0.444265783 -2.67763424 1.16402769 -0.949131012 -1.85896349 0.571262121 -0.949131012 -1.85896349 0.571262121 0.27133736 -1.4164238 0.459378392 -0.0736625269 -1.38138092 0.524748623 1.16591322 -0.872266889 0.502816319 -0.0736625269 -1.38138092 0.524748623 1.16591322 -0.872266889 0.502816319 -0.275486767 -0.59578985 -0.208370596 0.983196616 -0.113192007 0.231721029 -0.0751906708 1.22772205 -0.0229695216 -1.31527889 0.782070875 -0.532910883 0.549962342 2.55884647 0.794103861 -0.902611375 2.03459477 0.475201398 0.14000459 3.85828733 -0.0949052945 -0.902611375 2.03459477 0.475201398 0.549962342 2.55884647 0.794103861 -1.06952846 3.41507864 -0.676189244 -0.0623017848 -5.16061449 -0.0797657073 -0.351713926 -2.8038311 2.13523197 -0.0591234565 -5.05436993 -0.402353406 -0.0545109399 -3.22684789 0.47242707 -0.130546421 -1.97965407 1.39957571 -0.0545109399 -3.22684789 0.47242707 -0.130546421 -1.97965407 1.39957571 -0.609091222 -1.47616732 -0.0724547207 -0.609091222 -1.47616732 -0.0724547207 -0.130546421 -1.97965407 1.39957571 0.182686672 -0.940985262 -0.184761107 0.407986045 -1.34450305 1.31031501 0.182686672 -0.940985262 -0.184761107 0.407986045 -1.34450305 1.31031501 0.00526319724 -0.150449455 -0.820242286 0.246082574 -0.593133152 0.69788003 -1.04566896 0.660371363 0.445425004 0.00526319724 -0.150449455 -0.820242286 0.246082574 -0.593133152 0.69788003 -0.704152048 1.17169309 -1.05026937 -1.08751833 2.02070928 1.78950047 -0.704152048 1.17169309 -1.05026937 -1.04566896 0.660371363 0.445425004 -0.0214606151 2.55303454 -0.0889426172 -0.778958619 3.35323429 0.170742914 -0.0214606151 2.55303454 -0.0889426172 -1.08751833 2.02070928 1.78950047 -0.223424688 3.77572727 -1.05657005</float_array>
        <technique_common><accessor source="#vfx_kurp_0063-mesh-positions-array" count="178" stride="3"><param name="X" type="float"/><param name="Y" type="float"/><param name="Z" type="float"/></accessor></technique_common>
      </source>
      <source id="vfx_kurp_0063-mesh-normals">
        <float_array id="vfx_kurp_0063-mesh-normals-array" count="534">0.104090457 -0.909565311 -0.402313463 -0.155057565 -0.755715788 -0.636278869 0.0735761735 -0.876442477 -0.475852005 -0.0203474921 -0.828281079 -0.559943241 -0.291480536 -0.635756482 -0.714739668 -0.460533683 -0.127101795 -0.878495225 -0.460533683 -0.127101795 -0.878495225 -0.460533707 -0.127101793 -0.878495213 -0.26676742 -0.149774198 -0.952051907 -0.106374965 -0.368049148 -0.923701354 -0.0715751431 -0.623858636 -0.778252787 -0.185875306 -0.142862674 -0.972132001 -0.337091092 0.0291857779 -0.941019546 -0.317351281 -0.00874857138 -0.948267698 0.294144901 -0.631729786 -0.717214232 0.310377688 -0.674713076 -0.669647635 0.276971989 -0.586882279 -0.760825675 0.333087562 -0.736143645 -0.589190301 -0.254106727 -0.121234885 -0.959547745 -0.256256016 -0.129803942 -0.957853742 -0.266082858 -0.169950101 -0.948850292 -0.237535605 -0.0574193211 -0.969680286 -0.385934261 -0.605868395 0.695685442 -0.420086475 -0.628637556 0.654478553 -0.546732436 -0.560646247 0.621899855 -0.477891663 -0.614656817 0.627548051 -0.580593362 -0.516170097 0.629666403 -0.631815312 -0.478854685 0.609514235 -0.767746259 -0.316766705 0.556978039 -0.808319457 -0.287572536 0.513733094 -0.0602388818 -0.905253513 0.420579783 -0.106680271 -0.901480414 0.419466783 0.125337672 -0.852093975 0.508159745 -0.327476149 -0.902089729 0.281057809 -0.449448846 -0.850172386 0.274231012 -0.640407501 -0.74710363 0.178085371 -0.776107554 -0.598363165 0.199044184 -0.735910592 -0.630898831 0.245768725 0.157791104 -0.247469538 -0.955960666 0.165705146 -0.300989989 -0.939120243 0.171198729 -0.339826323 -0.924775143 0.177946122 -0.389825408 -0.903532694 -0.205334903 0.226186515 -0.952196008 -0.22611007 0.372824906 -0.899931011 -0.181876037 0.0870470793 -0.979461032 -0.245758483 0.562179552 -0.789656203 -0.0118605589 0.535861738 -0.844222438 0.0437085256 0.373657018 -0.92653656 0.0171239657 0.129267127 -0.991461941 0.0160375908 0.608337043 -0.793516753 -0.11394231 0.784447134 -0.609639109 -0.186037628 0.886283744 -0.424135739 0.345394812 0.0894975865 -0.934180178 0.34342239 0.0454289251 -0.9380817 0.346865152 0.246456552 -0.904955101 0.33110585 -0.110330877 -0.937121131 -0.0476506029 0.508992804 -0.859450839 -0.0485751751 0.505548726 -0.86142959 -0.0417126274 0.530841477 -0.846443963 -0.0552622088 0.480296857 -0.875363363 -0.713395549 -0.679120195 -0.172807846 -0.672878083 -0.699942346 -0.23940718 -0.778293489 -0.594733714 -0.201372921 -0.584691992 -0.777277457 -0.232325267 -0.424505302 -0.869522112 -0.252441173 -0.241255232 -0.957509791 -0.158021878 -0.817920673 -0.567844323 0.0925126882 -0.832388675 -0.54736559 0.0867179533 -0.801247702 -0.590108265 0.0988653434 -0.847369627 -0.524880538 0.0804060712 -0.271136936 -0.872410347 -0.406675483 -0.179823834 -0.906373817 -0.382295557 -0.0270188828 -0.961231068 -0.274417226 -0.460118504 -0.737746242 -0.493985268 -0.605806106 -0.648845129 -0.460433448 -0.699082544 -0.54851412 -0.458711082 -0.755704749 -0.504819385 -0.417214238 -0.754490908 -0.507023749 -0.416737793 -0.0735528609 -0.178623704 -0.981164384 -0.0661673638 -0.16264904 -0.984462884 -0.0568244525 -0.1424316 -0.988172162 -0.048663986 -0.124764817 -0.990992208 -0.110879261 0.725517428 -0.679212965 -0.103983532 0.738712818 -0.665951047 -0.131025076 0.684782507 -0.716871919 -0.0784120701 0.78446769 -0.615192646 -0.0448336382 0.207749175 -0.977154146 -0.056102696 0.192090643 -0.979772255 -0.0298754835 0.228376077 -0.973114496 -0.070679149 0.171684113 -0.982613364 -0.109166368 0.825451668 -0.553816077 -0.109284223 0.825280735 -0.554047531 -0.123721266 0.803617725 -0.582143969 -0.0945419439 0.845928842 -0.524848755 -0.0298691919 -0.21316715 -0.97655906 -0.0390775834 -0.227309791 -0.973038129 -0.00444578377 -0.17386341 -0.984759742 -0.0646898458 -0.266383533 -0.961693838 -0.122380785 0.35649514 -0.926247353 -0.117590652 0.366510038 -0.92295332 -0.140689763 0.317447429 -0.937781169 -0.095854155 0.410939869 -0.90660929 -0.995453615 0.0262029865 -0.0915723982 -0.993275909 0.0568081269 -0.100875194 -0.989010747 0.0958031858 -0.112603254 -0.984069458 0.128896757 -0.122445612 -0.772676533 -0.56351215 -0.29227561 -0.759400369 -0.583856583 -0.287093312 -0.837720755 -0.444123568 -0.317770661 -0.681000177 -0.685858492 -0.256587 -0.952558562 0.287204976 0.100724815 -0.946599283 0.308849089 0.092531284 -0.961023241 0.251951941 0.11381806 -0.935924452 0.343158745 0.0792937263 -0.614185632 -0.742831708 -0.266415209 -0.617162963 -0.739915991 -0.267645666 -0.655634574 -0.699827245 -0.283522721 -0.578422619 -0.775961358 -0.251617259 -0.989417467 -0.125906568 -0.0721152629 -0.991694185 -0.0845213435 -0.0969473321 -0.974927452 -0.222142375 -0.013008756 -0.987446525 0.017897531 -0.156936419 -0.847979588 -0.395150325 -0.353251807 -0.852545254 -0.379038211 -0.359856394 -0.823024141 -0.468671493 -0.320902313 -0.871904204 -0.29282606 -0.392474149 0.468812799 -0.517497546 0.715828785 0.346245681 -0.521612413 0.779765617 0.432309498 -0.519807326 0.736823481 0.329335569 -0.521406469 0.787193354 -0.132199272 0.410131958 0.90239411 -0.153471127 0.417495102 0.895625174 -0.24543867 0.446961739 0.860223845 -0.0536175635 0.381208125 0.922933108 0.162284749 -0.203450549 0.965542093 0.14849326 -0.297418326 0.943128884 0.159636407 -0.222496568 0.961775179 0.145780234 -0.314533589 0.937985472 -0.244532152 0.627234516 0.739446339 -0.343308668 0.398233664 0.850616898 -0.334128409 0.188695296 0.923445879 -0.361497226 0.0972189167 0.927290805 -0.267886404 -0.278124217 0.922433626 -0.252059961 -0.268363262 0.929756385 -0.0459926319 -0.566316669 0.822903462 0.0617953676 -0.638081359 0.767485186 -0.441474173 0.48781604 0.753084368 -0.425656828 0.482632401 0.765429442 -0.344219775 0.453747839 0.821964504 -0.517198316 0.510445289 0.68698727 -0.995533871 -0.0863150049 -0.0382365281 -0.978697503 0.0804526677 -0.188887705 -0.995862103 -0.034825272 -0.0839396919 -0.975456295 0.0951751543 -0.198561593 -0.97665248 0.0866044814 -0.196595008 -0.946155805 -0.228292514 0.229503204 -0.946155802 -0.228292514 0.229503218 -0.946155805 -0.228292499 0.229503219 -0.467179273 0.778950877 0.418304983 -0.630552964 0.700371224 0.334489324 -0.547280558 0.745451819 0.380506998 -0.712177863 0.643325677 0.280953314 -0.985019439 -0.129941999 0.113365702 -0.985671409 -0.11882271 0.119720661 -0.98544235 -0.123057471 0.117304021 -0.986013118 -0.11146845 0.123906881 -0.752702938 -0.616971124 -0.22974969 -0.749477131 -0.623346494 -0.222986947 -0.682287275 -0.723815857 -0.102833263 -0.798820979 -0.489464972 -0.349727157 -0.887215899 0.395259315 -0.237945419 -0.88379087 0.401947477 -0.239482617 -0.974467302 0.141925875 -0.173984264 -0.771724035 0.573164872 -0.275543179 -0.700108638 -0.496082687 -0.513565831 -0.699868546 -0.495597383 -0.514361014 -0.694481808 -0.484918875 -0.531553104 -0.705714806 -0.507674564 -0.494199504</float_array>
        <technique_common><accessor source="#vfx_kurp_0063-mesh-normals-array" count="178" stride="3"><param name="X" type="float"/><param name="Y" type="float"/><param name="Z" type="float"/></accessor></technique_common>
      </source>
      <source id="vfx_kurp_0063-mesh-uv0">
        <float_array id="vfx_kurp_0063-mesh-uv0-array" count="356">0 0 0 0.166666627 1 0 1 0.166666627 0 0.333333313 1 0.166666627 0 0.333333313 1 0.333333313 0 0.5 1 0.333333313 0 0.333333313 1 0.5 0 0.666666627 1 0.666666627 0 0.833333313 1 0.666666627 0 0.666666627 1 0.833333313 0 1 1 0.833333313 0 0.833333313 1 1 0 0 0 0.166666627 1 0 1 0.166666627 0 0.333333313 1 0.333333313 0 0.5 1 0.5 0 0.666666627 1 0.5 0 0.5 1 0.666666627 0 0.833333313 1 0.833333313 0 1 1 1 0 0 0 0.166666627 1 0 1 0.166666627 0 0.333333313 1 0.166666627 0 0.166666627 1 0.333333313 0 0.5 1 0.333333313 0 0.333333313 1 0.5 0 0.666666627 1 0.666666627 0 0.833333313 1 0.666666627 0 0.666666627 1 0.833333313 0 1 1 0.833333313 0 0.833333313 1 1 0 0 0 0.166666627 1 0 1 0.166666627 0 0.333333313 1 0.333333313 0 0.5 1 0.333333313 0 0.333333313 1 0.5 0 0.666666627 1 0.5 0 0.5 1 0.666666627 0 0.833333313 1 0.833333313 0 1 1 1 0 0 0 0.166666627 1 0 1 0.166666627 0 0.333333313 1 0.166666627 0 0.166666627 1 0.333333313 0 0.5 1 0.333333313 0 0.333333313 1 0.5 0 0.666666627 1 0.5 0 0.5 1 0.666666627 0 0.833333313 1 0.666666627 0 0.666666627 1 0.833333313 0 1 1 0.833333313 0 0.833333313 1 1 0 0 0 0.166666627 1 0 1 0.166666627 0 0.333333313 1 0.166666627 0 0.166666627 1 0.333333313 0 0.5 1 0.333333313 0 0.333333313 1 0.5 0 0.666666627 1 0.5 0 0.5 1 0.666666627 0 0.833333313 1 0.666666627 0 0.666666627 1 0.833333313 0 1 1 0.833333313 0 0.833333313 1 1 1 1 1 0.833333313 0 1 0 0.833333313 1 0.666666627 0 0.833333313 1 0.833333313 0 0.666666627 0 0.666666627 1 0.666666627 0 0.583333313 1 0.583333313 0 0.583333313 1 0.583333313 0 0.5 1 0.5 1 0.333333313 0 0.333333313 1 0.166666627 0 0.166666627 1 0 0 0.166666627 1 0.166666627 0 0 1 1 1 0.833333313 0 1 0 0.833333313 1 0.666666627 0 0.833333313 1 0.666666627 0 0.666666627 0 0.666666627 1 0.666666627 0 0.583333313 1 0.583333313 0 0.583333313 1 0.583333313 0 0.5 1 0.5 1 0.333333313 0 0.5 1 0.5 0 0.333333313 1 0.166666627 0 0.333333313 1 0.333333313 0 0.166666627 1 0 0 0.166666627 1 0.166666627 0 0</float_array>
        <technique_common><accessor source="#vfx_kurp_0063-mesh-uv0-array" count="178" stride="2"><param name="S" type="float"/><param name="T" type="float"/></accessor></technique_common>
      </source>
      <vertices id="vfx_kurp_0063-mesh-vertices"><input semantic="POSITION" source="#vfx_kurp_0063-mesh-positions"/></vertices>
      <triangles material="PreviewMaterial" count="100">
        <input semantic="VERTEX" source="#vfx_kurp_0063-mesh-vertices" offset="0"/>
        <input semantic="NORMAL" source="#vfx_kurp_0063-mesh-normals" offset="1"/>
        <input semantic="TEXCOORD" source="#vfx_kurp_0063-mesh-uv0" offset="2" set="0"/>
        <p>0 0 0 1 1 1 2 2 2 2 2 2 1 1 1 3 3 3 4 4 4 3 3 3 1 1 1 5 5 5 6 6 6 7 7 7 8 8 8 9 9 9 10 10 10 9 9 9 8 8 8 11 11 11 12 12 12 11 11 11 8 8 8 11 11 11 12 12 12 13 13 13 14 14 14 15 15 15 16 16 16 15 15 15 14 14 14 17 17 17 18 18 18 19 19 19 20 20 20 19 19 19 18 18 18 21 21 21 22 22 22 23 23 23 24 24 24 24 24 24 23 23 23 25 25 25 26 26 26 25 25 25 23 23 23 25 25 25 26 26 26 27 27 27 28 28 28 27 27 27 26 26 26 27 27 27 28 28 28 29 29 29 30 30 30 31 31 31 32 32 32 31 31 31 30 30 30 33 33 33 34 34 34 33 33 33 30 30 30 33 33 33 34 34 34 35 35 35 36 36 36 35 35 35 34 34 34 35 35 35 36 36 36 37 37 37 38 38 38 39 39 39 40 40 40 40 40 40 39 39 39 41 41 41 42 42 42 43 43 43 44 44 44 43 43 43 42 42 42 45 45 45 46 46 46 47 47 47 48 48 48 47 47 47 46 46 46 49 49 49 50 50 50 49 49 49 46 46 46 49 49 49 50 50 50 51 51 51 52 52 52 53 53 53 54 54 54 53 53 53 52 52 52 55 55 55 56 56 56 57 57 57 58 58 58 57 57 57 56 56 56 59 59 59 60 60 60 61 61 61 62 62 62 62 62 62 61 61 61 63 63 63 64 64 64 63 63 63 61 61 61 63 63 63 64 64 64 65 65 65 66 66 66 67 67 67 68 68 68 67 67 67 66 66 66 69 69 69 70 70 70 71 71 71 72 72 72 71 71 71 70 70 70 73 73 73 74 74 74 73 73 73 70 70 70 73 73 73 74 74 74 75 75 75 76 76 76 75 75 75 74 74 74 75 75 75 76 76 76 77 77 77 78 78 78 79 79 79 80 80 80 80 80 80 79 79 79 81 81 81 82 82 82 83 83 83 84 84 84 83 83 83 82 82 82 85 85 85 86 86 86 87 87 87 88 88 88 87 87 87 86 86 86 89 89 89 90 90 90 91 91 91 92 92 92 91 91 91 90 90 90 93 93 93 94 94 94 95 95 95 96 96 96 95 95 95 94 94 94 97 97 97 98 98 98 99 99 99 100 100 100 99 99 99 98 98 98 101 101 101 102 102 102 103 103 103 104 104 104 104 104 104 103 103 103 105 105 105 106 106 106 107 107 107 108 108 108 107 107 107 106 106 106 109 109 109 110 110 110 111 111 111 112 112 112 111 111 111 110 110 110 113 113 113 114 114 114 115 115 115 116 116 116 115 115 115 114 114 114 117 117 117 118 118 118 119 119 119 120 120 120 119 119 119 118 118 118 121 121 121 122 122 122 123 123 123 124 124 124 123 123 123 122 122 122 125 125 125 126 126 126 127 127 127 128 128 128 128 128 128 127 127 127 129 129 129 130 130 130 131 131 131 132 132 132 131 131 131 130 130 130 133 133 133 134 134 134 135 135 135 136 136 136 137 137 137 136 136 136 135 135 135 138 138 138 139 139 139 140 140 140 141 141 141 140 140 140 139 139 139 142 142 142 140 140 140 141 141 141 140 140 140 142 142 142 143 143 143 144 144 144 143 143 143 142 142 142 143 143 143 144 144 144 145 145 145 146 146 146 147 147 147 148 148 148 147 147 147 146 146 146 149 149 149 150 150 150 151 151 151 152 152 152 152 152 152 151 151 151 153 153 153 154 154 154 153 153 153 151 151 151 155 155 155 156 156 156 157 157 157 158 158 158 159 159 159 160 160 160 161 161 161 160 160 160 159 159 159 162 162 162 163 163 163 164 164 164 165 165 165 164 164 164 163 163 163 166 166 166 167 167 167 168 168 168 167 167 167 166 166 166 169 169 169 170 170 170 171 171 171 172 172 172 171 171 171 170 170 170 173 173 173 174 174 174 175 175 175 176 176 176 175 175 175 174 174 174 177 177 177</p>
      </triangles>
    </mesh></geometry>
  </library_geometries>
  <library_visual_scenes>
    <visual_scene id="Scene" name="Scene">
      <node id="vfx_kurp_0063" name="vfx_kurp_0063" type="NODE">
        <instance_geometry url="#vfx_kurp_0063-mesh"><bind_material><technique_common><instance_material symbol="PreviewMaterial" target="#PreviewMaterial"><bind_vertex_input semantic="UVSET0" input_semantic="TEXCOORD" input_set="0"/></instance_material></technique_common></bind_material></instance_geometry>
      </node>
    </visual_scene>
  </library_visual_scenes>
  <scene><instance_visual_scene url="#Scene"/></scene>
</COLLADA>
