<?xml version="1.0" encoding="utf-8"?>
<COLLADA xmlns="http://www.collada.org/2005/11/COLLADASchema" version="1.4.1">
  <asset>
    <contributor><authoring_tool>Morrobroom Kurpulio VFX preview converter</authoring_tool></contributor>
    <unit name="unit" meter="1"/>
    <up_axis>Z_UP</up_axis>
  </asset>
  <library_images>
    <image id="VFXTexture" name="darkmap_newgen-1.dds">
      <init_from>../../../Textures/Kurp/darkmap_newgen-1.dds</init_from>
    </image>
  </library_images>
  <library_effects>
    <effect id="PreviewEffect">
      <profile_COMMON>
        <newparam sid="VFXTexture-surface">
          <surface type="2D"><init_from>VFXTexture</init_from></surface>
        </newparam>
        <newparam sid="VFXTexture-sampler">
          <sampler2D><source>VFXTexture-surface</source></sampler2D>
        </newparam>
        <technique sid="common"><phong>
          <emission><color>0.08 0.08 0.08 1</color></emission>
          <ambient><color>0.2 0.2 0.2 1</color></ambient>
          <diffuse><texture texture="VFXTexture-sampler" texcoord="UVSET0"/></diffuse>
          <specular><color>0.15 0.15 0.15 1</color></specular>
          <shininess><float>8</float></shininess>
          <transparent opaque="A_ONE"><texture texture="VFXTexture-sampler" texcoord="UVSET0"/></transparent>
          <transparency><float>1</float></transparency>
        </phong></technique>
      </profile_COMMON>
      <extra><technique profile="GOOGLEEARTH"><double_sided>1</double_sided></technique></extra>
    </effect>
  </library_effects>
  <library_materials><material id="PreviewMaterial" name="PreviewMaterial"><instance_effect url="#PreviewEffect"/></material></library_materials>
  <library_geometries>
    <geometry id="vfx_kurp_0560-mesh" name="vfx_kurp_0560"><mesh>
      <source id="vfx_kurp_0560-mesh-positions">
        <float_array id="vfx_kurp_0560-mesh-positions-array" count="663">1.94754884 -1.95779064 -3.950564 -1.07502581 -2.41657643 -4.30537357 0.343722419 -1.43346003 -2.25403779 0.343722419 -1.43346003 -2.25403779 -1.07502581 -2.41657643 -4.30537357 0.334797403 -0.0356041904 -4.34432559 -2.24685017 -1.55511178 -2.80944767 0.334797403 -0.0356041904 -4.34432559 -1.07502581 -2.41657643 -4.30537357 0.334797403 -0.0356041904 -4.34432559 -2.24685017 -1.55511178 -2.80944767 -1.78124556 -0.120939706 -4.59110555 -2.24685017 -1.55511178 -2.80944767 -1.07502581 -2.41657643 -4.30537357 -0.42988288 0.530551729 -2.75450941 -0.42988288 0.530551729 -2.75450941 -1.07502581 -2.41657643 -4.30537357 0.116441134 -1.54955994 -2.5146246 1.94754884 -1.95779064 -3.950564 0.116441134 -1.54955994 -2.5146246 -1.07502581 -2.41657643 -4.30537357 0.116441134 -1.54955994 -2.5146246 1.94754884 -1.95779064 -3.950564 0.2960681 -3.97211671 -3.22494573 3.48632619 -2.08620331 -2.65317246 0.2960681 -3.97211671 -3.22494573 1.94754884 -1.95779064 -3.950564 0.2960681 -3.97211671 -3.22494573 3.48632619 -2.08620331 -2.65317246 2.59636339 -4.42991523 -1.7517254 3.82490135 -1.21915344 -2.17249184 2.59636339 -4.42991523 -1.7517254 3.48632619 -2.08620331 -2.65317246 2.59636339 -4.42991523 -1.7517254 3.82490135 -1.21915344 -2.17249184 3.87282015 -1.28073651 -0.0497636212 3.1821736 1.82008812 -1.15900133 3.87282015 -1.28073651 -0.0497636212 3.82490135 -1.21915344 -2.17249184 3.87282015 -1.28073651 -0.0497636212 3.1821736 1.82008812 -1.15900133 2.9618246 -0.229880263 0.2553388 2.55522989 2.6200445 0.428670161 2.9618246 -0.229880263 0.2553388 3.1821736 1.82008812 -1.15900133 2.9618246 -0.229880263 0.2553388 2.55522989 2.6200445 0.428670161 2.53650361 -0.129846788 0.661398897 1.97677831 1.70044352 2.20541465 2.53650361 -0.129846788 0.661398897 2.55522989 2.6200445 0.428670161 2.53650361 -0.129846788 0.661398897 1.97677831 1.70044352 2.20541465 0.375467442 1.39785196 0.500102378 -0.101401677 3.54654553 1.69364621 0.375467442 1.39785196 0.500102378 1.97677831 1.70044352 2.20541465 0.375467442 1.39785196 0.500102378 -0.101401677 3.54654553 1.69364621 0.55062858 2.88840061 -0.314039287 -1.31514012 4.38702936 1.19531817 0.55062858 2.88840061 -0.314039287 -0.101401677 3.54654553 1.69364621 0.55062858 2.88840061 -0.314039287 -1.31514012 4.38702936 1.19531817 -0.220084489 3.68704461 -0.689492554 1.31594496 -1.96012763 -1.32258034 1.94754884 -1.95779064 -3.950564 0.343722419 -1.43346003 -2.25403779 1.94754884 -1.95779064 -3.950564 1.31594496 -1.96012763 -1.32258034 3.48632619 -2.08620331 -2.65317246 1.44196784 -1.61797555 -1.11991648 3.48632619 -2.08620331 -2.65317246 1.31594496 -1.96012763 -1.32258034 3.48632619 -2.08620331 -2.65317246 1.44196784 -1.61797555 -1.11991648 3.82490135 -1.21915344 -2.17249184 0.829603005 0.364884111 -1.08558407 3.82490135 -1.21915344 -2.17249184 1.44196784 -1.61797555 -1.11991648 3.82490135 -1.21915344 -2.17249184 0.829603005 0.364884111 -1.08558407 3.1821736 1.82008812 -1.15900133 0.160184572 1.27411346 0.188990272 3.1821736 1.82008812 -1.15900133 0.829603005 0.364884111 -1.08558407 3.1821736 1.82008812 -1.15900133 0.160184572 1.27411346 0.188990272 2.55522989 2.6200445 0.428670161 2.94033516 2.58598413 0.328459589 2.55522989 2.6200445 0.428670161 0.160184572 1.27411346 0.188990272 2.55522989 2.6200445 0.428670161 2.94033516 2.58598413 0.328459589 1.97677831 1.70044352 2.20541465 2.075547 4.79405007 0.783913902 1.97677831 1.70044352 2.20541465 2.94033516 2.58598413 0.328459589 1.97677831 1.70044352 2.20541465 2.075547 4.79405007 0.783913902 -0.101401677 3.54654553 1.69364621 -1.20012909 6.30715334 -0.328718739 -0.101401677 3.54654553 1.69364621 2.075547 4.79405007 0.783913902 -0.101401677 3.54654553 1.69364621 -1.20012909 6.30715334 -0.328718739 -1.31514012 4.38702936 1.19531817 -1.07194451 2.8494652 -1.07862528 -1.31514012 4.38702936 1.19531817 -1.20012909 6.30715334 -0.328718739 -2.74137505 2.73257818 0.625224539 -1.31514012 4.38702936 1.19531817 -1.07194451 2.8494652 -1.07862528 -1.31514012 4.38702936 1.19531817 -2.74137505 2.73257818 0.625224539 -0.220084489 3.68704461 -0.689492554 -0.0599432539 3.2816496 0.919165345 -0.220084489 3.68704461 -0.689492554 -2.74137505 2.73257818 0.625224539 -0.101401677 3.54654553 1.69364621 0.55062858 2.88840061 -0.314039287 -1.31514012 4.38702936 1.19531817 -0.220084489 3.68704461 -0.689492554 -1.31514012 4.38702936 1.19531817 -0.220084489 3.68704461 -0.689492554 -2.74137505 2.73257818 0.625224539 -0.0599432539 3.2816496 0.919165345 -2.74137505 2.73257818 0.625224539 -0.220084489 3.68704461 -0.689492554 -2.74137505 2.73257818 0.625224539 -1.07194451 2.8494652 -1.07862528 -1.31514012 4.38702936 1.19531817 -1.20012909 6.30715334 -0.328718739 -1.07194451 2.8494652 -1.07862528 -1.31514012 4.38702936 1.19531817 -1.20012909 6.30715334 -0.328718739 -0.101401677 3.54654553 1.69364621 2.075547 4.79405007 0.783913902 -1.20012909 6.30715334 -0.328718739 -0.101401677 3.54654553 1.69364621 2.075547 4.79405007 0.783913902 1.97677831 1.70044352 2.20541465 2.94033516 2.58598413 0.328459589 1.97677831 1.70044352 2.20541465 2.075547 4.79405007 0.783913902 1.97677831 1.70044352 2.20541465 2.94033516 2.58598413 0.328459589 2.55522989 2.6200445 0.428670161 0.160184572 1.27411346 0.188990272 2.55522989 2.6200445 0.428670161 2.94033516 2.58598413 0.328459589 0.160184572 1.27411346 0.188990272 3.1821736 1.82008812 -1.15900133 0.829603005 0.364884111 -1.08558407 3.1821736 1.82008812 -1.15900133 0.160184572 1.27411346 0.188990272 0.829603005 0.364884111 -1.08558407 3.82490135 -1.21915344 -2.17249184 1.44196784 -1.61797555 -1.11991648 3.82490135 -1.21915344 -2.17249184 0.829603005 0.364884111 -1.08558407 1.44196784 -1.61797555 -1.11991648 3.48632619 -2.08620331 -2.65317246 1.31594496 -1.96012763 -1.32258034 3.48632619 -2.08620331 -2.65317246 1.44196784 -1.61797555 -1.11991648 1.31594496 -1.96012763 -1.32258034 1.94754884 -1.95779064 -3.950564 0.343722419 -1.43346003 -2.25403779 1.94754884 -1.95779064 -3.950564 1.31594496 -1.96012763 -1.32258034 0.343722419 -1.43346003 -2.25403779 -1.07502581 -2.41657643 -4.30537357 0.334797403 -0.0356041904 -4.34432559 0.343722419 -1.43346003 -2.25403779 0.55062858 2.88840061 -0.314039287 0.375467442 1.39785196 0.500102378 1.97677831 1.70044352 2.20541465 0.375467442 1.39785196 0.500102378 -0.101401677 3.54654553 1.69364621 0.375467442 1.39785196 0.500102378 2.53650361 -0.129846788 0.661398897 2.55522989 2.6200445 0.428670161 2.53650361 -0.129846788 0.661398897 1.97677831 1.70044352 2.20541465 2.53650361 -0.129846788 0.661398897 2.9618246 -0.229880263 0.2553388 3.1821736 1.82008812 -1.15900133 2.9618246 -0.229880263 0.2553388 2.55522989 2.6200445 0.428670161 2.9618246 -0.229880263 0.2553388 3.87282015 -1.28073651 -0.0497636212 3.82490135 -1.21915344 -2.17249184 3.87282015 -1.28073651 -0.0497636212 3.1821736 1.82008812 -1.15900133 3.87282015 -1.28073651 -0.0497636212 2.59636339 -4.42991523 -1.7517254 3.48632619 -2.08620331 -2.65317246 2.59636339 -4.42991523 -1.7517254 3.82490135 -1.21915344 -2.17249184 2.59636339 -4.42991523 -1.7517254 0.2960681 -3.97211671 -3.22494573 1.94754884 -1.95779064 -3.950564 0.2960681 -3.97211671 -3.22494573 3.48632619 -2.08620331 -2.65317246 0.2960681 -3.97211671 -3.22494573 1.94754884 -1.95779064 -3.950564 0.116441134 -1.54955994 -2.5146246 0.116441134 -1.54955994 -2.5146246 0.116441134 -1.54955994 -2.5146246 -0.42988288 0.530551729 -2.75450941 -0.42988288 0.530551729 -2.75450941 -1.07502581 -2.41657643 -4.30537357 -2.24685017 -1.55511178 -2.80944767 0.334797403 -0.0356041904 -4.34432559 -2.24685017 -1.55511178 -2.80944767 -1.07502581 -2.41657643 -4.30537357 -1.78124556 -0.120939706 -4.59110555 -2.24685017 -1.55511178 -2.80944767 0.334797403 -0.0356041904 -4.34432559</float_array>
        <technique_common><accessor source="#vfx_kurp_0560-mesh-positions-array" count="221" stride="3"><param name="X" type="float"/><param name="Y" type="float"/><param name="Z" type="float"/></accessor></technique_common>
      </source>
      <source id="vfx_kurp_0560-mesh-normals">
        <float_array id="vfx_kurp_0560-mesh-normals-array" count="663">-0.0953113114 0.920670122 -0.378526459 -0.095257 0.920549512 -0.378833341 -0.0958436679 0.921847668 -0.375514139 0.810507566 -0.485284221 -0.327988888 0.810507567 -0.485284227 -0.327988875 0.810507567 -0.485284227 -0.327988875 -0.623783711 0.357988713 -0.694793468 -0.623783711 0.357988713 -0.694793468 -0.623783706 0.357988691 -0.694793484 0.102599341 -0.787793782 -0.60733379 0.102599341 -0.787793782 -0.60733379 0.102599369 -0.787793779 -0.60733379 0.532808068 -0.482479071 0.695219036 0.532808097 -0.482479073 0.695219012 0.532808097 -0.482479073 0.695219012 -0.79195637 -0.139448061 0.594440364 -0.791956346 -0.139448046 0.5944404 -0.791956346 -0.139448046 0.5944404 0.0946810813 -0.919266169 0.3820801 0.0946810813 -0.919266169 0.3820801 -0.692858479 -0.32773477 0.64229047 -0.579399183 0.189471954 -0.792714933 -0.579399183 0.189471954 -0.792714933 -0.579399178 0.189471941 -0.79271494 0.476775708 -0.616579775 -0.62650962 0.476775702 -0.616579778 -0.626509622 0.476775702 -0.616579778 -0.626509622 0.412476717 -0.459228879 -0.786747606 0.412476727 -0.459228916 -0.786747579 0.412476731 -0.459228946 -0.786747559 0.933442605 -0.358567062 -0.0107035128 0.933442605 -0.358567062 -0.0107035128 0.933442605 -0.358567062 -0.0107035128 0.932116221 -0.360786028 -0.0315085946 0.932116206 -0.360786066 -0.0315086083 0.932116221 -0.360786029 -0.0315085928 0.977151086 0.211949631 -0.0159094186 0.977151085 0.211949635 -0.0159094326 0.977151083 0.211949644 -0.0159094145 0.656179209 0.37947518 0.652247985 0.656179209 0.37947518 0.652247985 0.656179198 0.379475165 0.652248005 0.942385764 0.11535075 0.314011588 0.942385764 0.115350763 0.314011582 0.942385764 0.115350763 0.314011582 0.696300114 0.0558190229 0.715576961 0.696300085 0.0558190009 0.715576992 0.696300085 0.0558190009 0.715576992 0.94749387 0.0205548449 0.319112621 0.94749387 0.0205548449 0.319112621 0.94749387 0.0205548449 0.319112621 -0.498022873 -0.64306545 0.581756001 -0.498022873 -0.64306545 0.581756001 -0.498022873 -0.64306545 0.581756001 -0.591480273 -0.487870911 0.641975904 -0.591480273 -0.487870911 0.641975904 -0.591480298 -0.487870913 0.64197588 -0.954540583 -0.0484730554 -0.294113307 -0.954540586 -0.0484730421 -0.294113302 -0.954540586 -0.0484730421 -0.294113302 -0.587905231 -0.805614837 0.0731585476 -0.587905251 -0.805614822 0.073158557 -0.587905231 -0.805614837 0.0731585476 -0.682458197 -0.71939141 -0.129332164 -0.682458197 -0.71939141 -0.129332164 -0.682458217 -0.719391392 -0.129332157 0.400556168 0.911114935 0.0970789979 0.400556169 0.911114931 0.0970790266 0.400556168 0.911114933 0.0970790122 0.0685943069 0.997493361 0.0173728339 0.0685943052 0.997493361 0.017372862 0.0685942804 0.997493363 0.017372828 -0.404407639 0.571764188 -0.713820828 -0.404407662 0.571764173 -0.713820827 -0.404407668 0.571764191 -0.713820809 -0.601998109 0.763449458 -0.233972651 -0.411446528 0.559530618 -0.719470113 -0.411446528 0.559530618 -0.719470113 -0.387291612 -0.103744987 -0.916101624 -0.387291612 -0.103744987 -0.916101624 -0.387291612 -0.103744987 -0.916101624 -0.819761371 0.406287672 -0.403635507 -0.197762249 0.272204313 -0.941697884 -0.197762248 0.27220431 -0.941697885 -0.408899704 0.62762869 -0.662482648 -0.408899704 0.62762869 -0.662482648 -0.408899704 0.62762869 -0.662482648 -0.539434961 0.510059436 -0.669962159 -0.374176247 0.760372246 -0.530873039 -0.374176222 0.76037226 -0.530873036 0.181693065 -0.476498959 0.860195543 0.181693065 -0.476498959 0.860195543 0.181693065 -0.476498959 0.860195543 -0.26043183 -0.798694087 -0.542460152 -0.204879784 -0.840434447 -0.501691354 -0.204879784 -0.840434447 -0.501691354 0.824057878 0.214598188 0.524286401 0.824057878 0.214598188 0.524286401 0.824057878 0.214598188 0.524286401 0.535515966 0.840857444 0.0786219409 0.141898894 0.409558767 0.901180515 0.141898894 0.409558767 0.901180515 -0.00125685865 0.590642155 0.806932627 -0.00125685865 0.590642155 0.806932627 -0.00125685865 0.590642155 0.806932627 0.6964538 0.363614135 0.618657309 0.104414325 0.614447473 0.782017871 0.104414359 0.614447514 0.782017835 -0.995297659 -0.0161854597 -0.0955018421 -0.995297657 -0.0161854861 -0.0955018515 -0.995297659 -0.0161854597 -0.0955018421 -0.560556518 0.656958724 -0.504164283 -0.560556518 0.656958724 -0.504164283 -0.560556518 0.656958724 -0.504164283 0.865556946 -0.349231051 0.358955215 0.530612834 -0.646363671 0.548328391 0.530612834 -0.646363671 0.548328391 -0.220926794 0.94028449 0.258952564 -0.220926809 0.940284486 0.258952565 -0.220926809 0.940284486 0.258952565 0.606380597 0.369258871 -0.704237501 0.649794603 0.758452169 0.0501725163 0.621646333 0.783243577 -0.00923781079 0.682458217 0.719391392 0.129332157 -0.530612831 0.646363643 -0.548328428 -0.530612834 0.646363671 -0.548328391 -0.530612834 0.646363671 -0.548328391 0.220926794 -0.94028449 -0.258952564 0.220926809 -0.940284486 -0.258952565 0.220926809 -0.940284486 -0.258952565 0.560556518 -0.656958724 0.504164283 0.560556518 -0.656958724 0.504164283 0.560556518 -0.656958724 0.504164283 0.995297659 0.0161854597 0.0955018421 0.995297659 0.0161854597 0.0955018421 -0.104414359 -0.614447514 -0.782017835 -0.104414325 -0.614447473 -0.782017871 -0.104414351 -0.614447475 -0.782017867 0.00125685865 -0.590642155 -0.806932627 0.00125685865 -0.590642155 -0.806932627 -0.141898894 -0.409558767 -0.901180515 -0.141898894 -0.409558767 -0.901180515 -0.141898894 -0.409558767 -0.901180515 -0.824057878 -0.214598188 -0.524286401 -0.824057878 -0.214598188 -0.524286401 -0.824057878 -0.214598188 -0.524286401 0.204879784 0.840434447 0.501691354 0.204879784 0.840434447 0.501691354 0.463527606 0.232962803 0.854909639 -0.181693065 0.476498959 -0.860195543 -0.181693065 0.476498959 -0.860195543 -0.181693065 0.476498959 -0.860195543 0.374176247 -0.760372246 0.530873039 0.290678712 -0.513190606 0.807552654 0.408899704 -0.62762869 0.662482648 0.408899704 -0.62762869 0.662482648 0.408899704 -0.62762869 0.662482648 0.197762249 -0.272204313 0.941697884 0.336603198 -0.459030332 0.822185771 0.387291612 0.103744987 0.916101624 0.387291612 0.103744987 0.916101624 0.387291612 0.103744987 0.916101624 0.411446528 -0.559530618 0.719470113 0.212912391 -0.878492967 0.427689631 0.404407668 -0.571764191 0.713820809 0.404407662 -0.571764173 0.713820827 0.404407639 -0.571764188 0.713820828 -0.0685943052 -0.997493361 -0.017372862 0.00949465405 -0.984920857 0.172744775 -0.400556168 -0.911114933 -0.0970790122 -0.400556169 -0.911114931 -0.0970790266 -0.400556168 -0.911114935 -0.0970789979 0.0958436679 -0.921847668 0.375514139 0.669276848 -0.736925147 -0.0949201174 -0.810507567 0.485284227 0.327988875 -0.810507566 0.485284221 0.327988888 0.954540586 0.0484730421 0.294113302 0.954540583 0.0484730554 0.294113307 0.591480298 0.487870913 -0.64197588 0.591480273 0.487870911 -0.641975904 0.591480273 0.487870911 -0.641975904 0.498022873 0.64306545 -0.581756001 0.498022873 0.64306545 -0.581756001 -0.94749387 -0.0205548449 -0.319112621 -0.94749387 -0.0205548449 -0.319112621 -0.94749387 -0.0205548449 -0.319112621 -0.696300085 -0.0558190009 -0.715576992 -0.696300114 -0.0558190229 -0.715576961 -0.942385764 -0.115350763 -0.314011582 -0.942385764 -0.115350763 -0.314011582 -0.942385764 -0.11535075 -0.314011588 -0.656179198 -0.379475165 -0.652248005 -0.656179209 -0.37947518 -0.652247985 -0.977151083 -0.211949644 0.0159094145 -0.977151085 -0.211949635 0.0159094326 -0.977151086 -0.211949631 0.0159094186 -0.932116221 0.360786029 0.0315085928 -0.932116221 0.360786028 0.0315085946 -0.933442605 0.358567062 0.0107035128 -0.933442605 0.358567062 0.0107035128 -0.933442605 0.358567062 0.0107035128 -0.412476731 0.459228946 0.786747559 -0.412476717 0.459228879 0.786747606 -0.476775702 0.616579778 0.626509622 -0.476775702 0.616579778 0.626509622 -0.476775708 0.616579775 0.62650962 0.579399178 -0.189471941 0.79271494 0.579399183 -0.189471954 0.792714933 0.579399183 -0.189471954 0.792714933 -0.0946810813 0.919266169 -0.3820801 0.791956346 0.139448046 -0.5944404 0.79195637 0.139448061 -0.594440364 -0.532808097 0.482479073 -0.695219012 -0.532808097 0.482479073 -0.695219012 -0.532808068 0.482479071 -0.695219036 0.623783711 -0.357988713 0.694793468 0.623783711 -0.357988713 0.694793468 0.623783706 -0.357988691 0.694793484 -0.102599369 0.787793779 0.60733379 -0.102599341 0.787793782 0.60733379 -0.102599341 0.787793782 0.60733379</float_array>
        <technique_common><accessor source="#vfx_kurp_0560-mesh-normals-array" count="221" stride="3"><param name="X" type="float"/><param name="Y" type="float"/><param name="Z" type="float"/></accessor></technique_common>
      </source>
      <source id="vfx_kurp_0560-mesh-uv0">
        <float_array id="vfx_kurp_0560-mesh-uv0-array" count="442">0.5 0.199999988 0.5 0.0999999642 0 0.199999988 0 0.199999988 0.5 0.0999999642 0 0.0999999642 0.5 0 0 0.0999999642 0.5 0.0999999642 0 0.0999999642 0.5 0 0 0 0.5 0 0.5 0.0999999642 1 0 1 0 0.5 0.0999999642 1 0.0999999642 0.5 0.199999988 1 0.0999999642 0.5 0.0999999642 1 0.0999999642 0.5 0.199999988 1 0.199999988 0.5 0.300000012 1 0.199999988 0.5 0.199999988 1 0.199999988 0.5 0.300000012 1 0.300000012 0.5 0.399999976 1 0.300000012 0.5 0.300000012 1 0.300000012 0.5 0.399999976 1 0.399999976 0.5 0.5 1 0.399999976 0.5 0.399999976 1 0.399999976 0.5 0.5 1 0.5 0.5 0.600000024 1 0.5 0.5 0.5 1 0.5 0.5 0.600000024 1 0.600000024 0.5 0.699999988 1 0.600000024 0.5 0.600000024 1 0.600000024 0.5 0.699999988 1 0.699999988 0.5 0.800000012 1 0.699999988 0.5 0.699999988 1 0.699999988 0.5 0.800000012 1 0.800000012 0.5 0.899999976 1 0.800000012 0.5 0.800000012 1 0.800000012 0.5 0.899999976 1 0.899999976 0 0.300000012 0.5 0.199999988 0 0.199999988 0.5 0.199999988 0 0.300000012 0.5 0.300000012 0 0.399999976 0.5 0.300000012 0 0.300000012 0.5 0.300000012 0 0.399999976 0.5 0.399999976 0 0.5 0.5 0.399999976 0 0.399999976 0.5 0.399999976 0 0.5 0.5 0.5 0 0.600000024 0.5 0.5 0 0.5 0.5 0.5 0 0.600000024 0.5 0.600000024 0 0.699999988 0.5 0.600000024 0 0.600000024 0.5 0.600000024 0 0.699999988 0.5 0.699999988 0 0.800000012 0.5 0.699999988 0 0.699999988 0.5 0.699999988 0 0.800000012 0.5 0.800000012 0 0.899999976 0.5 0.800000012 0 0.800000012 0.5 0.800000012 0 0.899999976 0.5 0.899999976 0 1 0.5 0.899999976 0 0.899999976 0.5 1 0.5 0.899999976 0 1 0.5 0.899999976 0.5 1 1 0.899999976 1 1 1 0.899999976 0.5 1 0.5 0.800000012 1 0.800000012 0.5 0.899999976 1 0.899999976 0.5 0.899999976 1 0.899999976 0.5 1 1 1 0.5 1 1 0.899999976 0.5 1 0 1 0.5 0.899999976 0 0.899999976 0 1 0.5 0.899999976 0 0.899999976 0.5 0.800000012 0 0.800000012 0 0.899999976 0.5 0.800000012 0 0.800000012 0.5 0.699999988 0 0.699999988 0.5 0.699999988 0 0.800000012 0.5 0.699999988 0 0.699999988 0.5 0.600000024 0 0.600000024 0.5 0.600000024 0 0.699999988 0 0.600000024 0.5 0.5 0 0.5 0.5 0.5 0 0.600000024 0 0.5 0.5 0.399999976 0 0.399999976 0.5 0.399999976 0 0.5 0 0.399999976 0.5 0.300000012 0 0.300000012 0.5 0.300000012 0 0.399999976 0 0.300000012 0.5 0.199999988 0 0.199999988 0.5 0.199999988 0 0.300000012 0 0.199999988 0.5 0.0999999642 0 0.0999999642 0 0.199999988 1 0.800000012 1 0.699999988 0.5 0.699999988 1 0.699999988 0.5 0.800000012 1 0.699999988 1 0.600000024 0.5 0.600000024 1 0.600000024 0.5 0.699999988 1 0.600000024 1 0.5 0.5 0.5 1 0.5 0.5 0.600000024 1 0.5 1 0.399999976 0.5 0.399999976 1 0.399999976 0.5 0.5 1 0.399999976 1 0.300000012 0.5 0.300000012 1 0.300000012 0.5 0.399999976 1 0.300000012 1 0.199999988 0.5 0.199999988 1 0.199999988 0.5 0.300000012 1 0.199999988 0.5 0.199999988 1 0.0999999642 1 0.0999999642 1 0.0999999642 1 0 1 0 0.5 0.0999999642 0.5 0 0 0.0999999642 0.5 0 0.5 0.0999999642 0 0 0.5 0 0 0.0999999642</float_array>
        <technique_common><accessor source="#vfx_kurp_0560-mesh-uv0-array" count="221" stride="2"><param name="S" type="float"/><param name="T" type="float"/></accessor></technique_common>
      </source>
      <vertices id="vfx_kurp_0560-mesh-vertices"><input semantic="POSITION" source="#vfx_kurp_0560-mesh-positions"/></vertices>
      <triangles material="PreviewMaterial" count="80">
        <input semantic="VERTEX" source="#vfx_kurp_0560-mesh-vertices" offset="0"/>
        <input semantic="NORMAL" source="#vfx_kurp_0560-mesh-normals" offset="1"/>
        <input semantic="TEXCOORD" source="#vfx_kurp_0560-mesh-uv0" offset="2" set="0"/>
        <p>0 0 0 1 1 1 2 2 2 3 3 3 4 4 4 5 5 5 6 6 6 7 7 7 8 8 8 9 9 9 10 10 10 11 11 11 12 12 12 13 13 13 14 14 14 15 15 15 16 16 16 17 17 17 18 18 18 19 19 19 20 20 20 21 21 21 22 22 22 23 23 23 24 24 24 25 25 25 26 26 26 27 27 27 28 28 28 29 29 29 30 30 30 31 31 31 32 32 32 33 33 33 34 34 34 35 35 35 36 36 36 37 37 37 38 38 38 39 39 39 40 40 40 41 41 41 42 42 42 43 43 43 44 44 44 45 45 45 46 46 46 47 47 47 48 48 48 49 49 49 50 50 50 51 51 51 52 52 52 53 53 53 54 54 54 55 55 55 56 56 56 57 57 57 58 58 58 59 59 59 60 60 60 61 61 61 62 62 62 63 63 63 64 64 64 65 65 65 66 66 66 67 67 67 68 68 68 69 69 69 70 70 70 71 71 71 72 72 72 73 73 73 74 74 74 75 75 75 76 76 76 77 77 77 78 78 78 79 79 79 80 80 80 81 81 81 82 82 82 83 83 83 84 84 84 85 85 85 86 86 86 87 87 87 88 88 88 89 89 89 90 90 90 91 91 91 92 92 92 93 93 93 94 94 94 95 95 95 96 96 96 97 97 97 98 98 98 99 99 99 100 100 100 101 101 101 102 102 102 103 103 103 104 104 104 105 105 105 106 106 106 107 107 107 108 108 108 109 109 109 110 110 110 111 111 111 112 112 112 113 113 113 114 114 114 115 115 115 116 116 116 117 117 117 118 118 118 119 119 119 120 120 120 121 121 121 122 122 122 123 123 123 122 122 122 121 121 121 124 124 124 125 125 125 126 126 126 127 127 127 128 128 128 129 129 129 130 130 130 131 131 131 132 132 132 133 133 133 114 114 114 134 134 134 135 135 135 136 136 136 137 137 137 138 138 138 120 120 120 139 139 139 140 140 140 141 141 141 142 142 142 143 143 143 144 144 144 145 145 145 146 146 146 147 147 147 148 148 148 149 149 149 150 150 150 151 151 151 148 148 148 152 152 152 153 153 153 154 154 154 155 155 155 156 156 156 153 153 153 157 157 157 158 158 158 159 159 159 160 160 160 161 161 161 158 158 158 162 162 162 163 163 163 164 164 164 165 165 165 166 166 166 163 163 163 167 167 167 168 168 168 169 169 169 170 170 170 171 171 171 168 168 168 172 172 172 173 173 173 174 174 174 20 20 20 175 175 175 176 176 176 105 105 105 177 177 177 178 178 178 179 179 179 180 180 180 181 181 181 99 99 99 182 182 182 183 183 183 184 184 184 185 185 185 186 186 186 93 93 93 187 187 187 188 188 188 189 189 189 190 190 190 191 191 191 87 87 87 192 192 192 193 193 193 194 194 194 195 195 195 196 196 196 81 81 81 197 197 197 198 198 198 199 199 199 200 200 200 201 201 201 75 75 75 202 202 202 203 203 203 204 204 204 205 205 205 206 206 206 207 207 207 208 208 208 1 1 1 209 209 209 0 0 0 210 210 210 173 173 173 211 211 211 212 212 212 213 213 213 214 214 214 215 215 215 216 216 216 217 217 217 218 218 218 219 219 219 220 220 220</p>
      </triangles>
    </mesh></geometry>
  </library_geometries>
  <library_visual_scenes>
    <visual_scene id="Scene" name="Scene">
      <node id="vfx_kurp_0560" name="vfx_kurp_0560" type="NODE">
        <instance_geometry url="#vfx_kurp_0560-mesh"><bind_material><technique_common><instance_material symbol="PreviewMaterial" target="#PreviewMaterial"><bind_vertex_input semantic="UVSET0" input_semantic="TEXCOORD" input_set="0"/></instance_material></technique_common></bind_material></instance_geometry>
      </node>
    </visual_scene>
  </library_visual_scenes>
  <scene><instance_visual_scene url="#Scene"/></scene>
</COLLADA>
