<?xml version="1.0" encoding="utf-8"?>
<COLLADA xmlns="http://www.collada.org/2005/11/COLLADASchema" version="1.4.1">
  <asset>
    <contributor><authoring_tool>Morrobroom Kurpulio VFX preview converter</authoring_tool></contributor>
    <unit name="unit" meter="1"/>
    <up_axis>Z_UP</up_axis>
  </asset>
  <library_images>
    <image id="VFXTexture" name="darkmap_newgen-1.dds">
      <init_from>../../../Textures/Kurp/darkmap_newgen-1.dds</init_from>
    </image>
  </library_images>
  <library_effects>
    <effect id="PreviewEffect">
      <profile_COMMON>
        <newparam sid="VFXTexture-surface">
          <surface type="2D"><init_from>VFXTexture</init_from></surface>
        </newparam>
        <newparam sid="VFXTexture-sampler">
          <sampler2D><source>VFXTexture-surface</source></sampler2D>
        </newparam>
        <technique sid="common"><phong>
          <emission><color>0.08 0.08 0.08 1</color></emission>
          <ambient><color>0.2 0.2 0.2 1</color></ambient>
          <diffuse><texture texture="VFXTexture-sampler" texcoord="UVSET0"/></diffuse>
          <specular><color>0.15 0.15 0.15 1</color></specular>
          <shininess><float>8</float></shininess>
          <transparent opaque="A_ONE"><texture texture="VFXTexture-sampler" texcoord="UVSET0"/></transparent>
          <transparency><float>1</float></transparency>
        </phong></technique>
      </profile_COMMON>
      <extra><technique profile="GOOGLEEARTH"><double_sided>1</double_sided></technique></extra>
    </effect>
  </library_effects>
  <library_materials><material id="PreviewMaterial" name="PreviewMaterial"><instance_effect url="#PreviewEffect"/></material></library_materials>
  <library_geometries>
    <geometry id="vfx_kurp_0446-mesh" name="vfx_kurp_0446"><mesh>
      <source id="vfx_kurp_0446-mesh-positions">
        <float_array id="vfx_kurp_0446-mesh-positions-array" count="378">-0.0242189669 -1.9851423 3.41207534 -0.025404248 -2.0822885 2.53922713 1.01966533 -1.76611431 3.41207604 1.06956458 -1.85254194 2.54213196 -0.0279214791 -2.28862229 1.49630899 1.17554774 -2.03611047 1.49687211 -0.035081456 -2.87560227 -0.396141217 1.4770501 -2.55832646 1.26232845e-06 -0.0254047439 -2.08228849 4.28369028 1.06956416 -1.85254197 4.28325003 -0.0279227623 -2.28862255 5.32760317 1.17554679 -2.03611051 5.32751379 -0.0350833637 -2.87560277 7.22029504 1.4770485 -2.55832691 6.82415328 1.4770485 -2.55832691 6.82415328 1.17554679 -2.03611051 5.32751379 2.50788291 -1.40741985 7.22029583 1.9959638 -1.12013163 5.32760344 1.06956416 -1.85254197 4.28325003 1.81601475 -1.01914455 4.28369049 1.01966533 -1.76611431 3.41207604 1.73129146 -0.971597705 3.41207624 1.81601536 -1.01914456 2.53922788 1.06956458 -1.85254194 2.54213196 1.99596467 -1.12013135 1.49630962 1.17554774 -2.03611047 1.49687211 2.50788541 -1.40741976 -0.396140298 1.4770501 -2.55832646 1.26232845e-06 3.0169631 0.0362946299 6.8241537 2.40112839 0.0288858222 5.32751413 2.18465099 0.026281747 4.28324998 2.08272944 0.0250556846 3.41207596 2.18465125 0.0262818654 2.54213208 2.40112943 0.0288860228 1.49687208 3.0169649 0.0362950602 1.45431669e-06 -1.75551133 -1.01354483 3.41207438 -1.84141997 -1.06314429 2.53922632 -1.06306501 -1.7911697 3.41207499 -1.11508803 -1.87882362 2.54213124 -2.02388669 -1.16849115 1.49630803 -1.22558212 -2.06499596 1.49687114 -2.54296657 -1.46818277 -0.396142716 -1.53991503 -2.5946214 -1.91988382e-07 -1.84142071 -1.06314434 4.28368929 -1.11508849 -1.87882342 4.28324896 -2.02388813 -1.16849133 5.32760212 -1.22558318 -2.06499615 5.32751301 -2.54296848 -1.46818327 7.22029345 -1.53991675 -2.59462187 6.82415229 -1.53991675 -2.59462187 6.82415229 -1.22558318 -2.06499615 5.32751301 -1.11508849 -1.87882342 4.28324896 -1.06306501 -1.7911697 3.41207499 -1.11508803 -1.87882362 2.54213124 -1.22558212 -2.06499596 1.49687114 -1.53991503 -2.5946214 -1.91988382e-07 -3.01696499 -0.0362952151 -1.45431668e-06 -2.40113029 -0.0288864074 1.49687033 -2.18465297 -0.026282487 2.54213029 -2.08273109 -0.0250562043 3.41207424 -2.18465323 -0.0262826053 4.28324818 -2.40113133 -0.028886608 5.32751219 -3.01696664 -0.0362957348 6.824151 -2.50788678 1.40741901 7.22029265 -2.40113133 -0.028886608 5.32751219 -3.01696664 -0.0362957348 6.824151 -1.99596659 1.12013072 5.32760169 -2.18465323 -0.0262826053 4.28324818 -1.81601684 1.0191436 4.28368887 -2.08273109 -0.0250562043 3.41207424 -1.73129318 0.971597052 3.41207396 -2.40113029 -0.0288864074 1.49687033 -2.50788513 1.40741941 -0.396143341 -3.01696499 -0.0362952151 -1.45431668e-06 -1.99596531 1.12013098 1.4963076 -2.18465297 -0.026282487 2.54213029 -1.81601664 1.01914397 2.5392259 -1.47705019 2.55832631 -1.26232843e-06 -1.17554868 2.03610993 1.4968703 -1.06956605 1.85254138 2.54213041 -1.01966696 1.76611347 3.41207417 -1.06956618 1.8525415 4.28324849 -1.17554963 2.03610988 5.32751216 -1.47705194 2.55832596 6.8241507 0.0350798206 2.87560195 7.22029343 -1.17554963 2.03610988 5.32751216 -1.47705194 2.55832596 6.8241507 0.0279200107 2.28862208 5.32760232 -1.06956618 1.8525415 4.28324849 0.0254025236 2.08228803 4.28368943 -1.01966696 1.76611347 3.41207417 0.0242174864 1.9851419 3.4120745 0.0254029421 2.08228806 2.53922665 -1.06956605 1.85254138 2.54213041 0.0279208173 2.28862241 1.49630805 -1.17554868 2.03610993 1.4968703 0.0350818178 2.8756026 -0.396142422 -1.47705019 2.55832631 -1.26232843e-06 1.5399148 2.59462153 1.9198824e-07 1.225581 2.06499593 1.49687118 1.11508652 1.8788235 2.54213131 1.06306339 1.79116957 3.41207521 1.11508639 1.87882331 4.2832492 1.22558031 2.06499574 5.32751295 1.53991308 2.59462105 6.82415241 2.54296469 1.46818239 7.22029502 1.22558031 2.06499574 5.32751295 1.53991308 2.59462105 6.82415241 2.02388505 1.16849063 5.32760301 1.11508639 1.87882331 4.2832492 1.8414189 1.06314405 4.28369007 1.06306339 1.79116957 3.41207521 1.75550994 1.01354457 3.41207582 1.84141907 1.06314402 2.53922746 1.11508652 1.8788235 2.54213131 2.02388585 1.16849097 1.4963091 1.225581 2.06499593 1.49687118 2.5429666 1.46818288 -0.396140878 1.5399148 2.59462153 1.9198824e-07 3.0169649 0.0362950602 1.45431669e-06 2.40112943 0.0288860228 1.49687208 2.18465125 0.0262818654 2.54213208 2.08272944 0.0250556846 3.41207596 2.18465099 0.026281747 4.28324998 2.40112839 0.0288858222 5.32751413 3.0169631 0.0362946299 6.8241537</float_array>
        <technique_common><accessor source="#vfx_kurp_0446-mesh-positions-array" count="126" stride="3"><param name="X" type="float"/><param name="Y" type="float"/><param name="Z" type="float"/></accessor></technique_common>
      </source>
      <source id="vfx_kurp_0446-mesh-normals">
        <float_array id="vfx_kurp_0446-mesh-normals-array" count="378">0.0114389485 -0.99993457 -7.88211671e-05 0.0111216075 -0.988102938 0.153391311 0.205256613 -0.978708191 1.10204534e-05 0.202749239 -0.967644296 0.150190753 0.0109580516 -0.968969181 0.24693855 0.17873859 -0.950043607 0.255870398 0.0104856557 -0.945026323 0.326826102 0.104864634 -0.932226093 0.346349419 0.0111193498 -0.988124394 -0.153253198 0.202978541 -0.967597383 -0.150183275 0.0109569957 -0.968976995 -0.246907934 0.178796017 -0.950007025 -0.255966087 0.0104857643 -0.945022761 -0.326836396 0.104849699 -0.932210892 -0.346394852 0.75489382 -0.556907557 -0.346394707 0.733332178 -0.629845593 -0.255965712 0.813171105 -0.48159221 -0.326835886 0.833680138 -0.493977818 -0.24690756 0.736474627 -0.659583307 -0.15018317 0.850181152 -0.503691874 -0.153253076 0.744957823 -0.667111566 1.11897098e-05 0.860249266 -0.509873704 -7.8612621e-05 0.850161388 -0.503683096 0.153391504 0.736629745 -0.659408318 0.150190842 0.83367263 -0.493974836 0.246938874 0.733392321 -0.629814248 0.255870505 0.813173837 -0.481594141 0.326826245 0.754898896 -0.556928646 0.346349737 0.850163403 -0.395234817 -0.347867255 0.904136901 -0.340399914 -0.258194428 0.932156951 -0.328740922 -0.151699787 0.943054252 -0.332638959 1.07657475e-05 0.932076688 -0.328965579 0.15170595 0.904138213 -0.340469111 0.258098578 0.850184272 -0.395229314 0.347822502 -0.866025381 -0.500000033 -8.09163711e-05 -0.85533674 -0.49382885 0.156627355 -0.74689004 -0.664947568 9.82658352e-06 -0.738139881 -0.656896128 0.153743271 -0.838088162 -0.483870234 0.251948069 -0.734459912 -0.626335136 0.2612909 -0.816500416 -0.471406436 0.33332123 -0.756907268 -0.549700471 0.353441339 -0.855356262 -0.493840218 -0.156484839 -0.737976339 -0.657081547 -0.15373602 -0.838094866 -0.483874182 -0.251918183 -0.734396214 -0.626368846 -0.261389114 -0.816496792 -0.471404755 -0.333332485 -0.75690105 -0.549679197 -0.353487737 -0.0827979052 -0.933880223 -0.34786813 -0.157273619 -0.953205362 -0.258194785 -0.181380633 -0.971641998 -0.151700012 -0.183453379 -0.983028411 1.05743791e-05 -0.181145778 -0.971684925 0.151705682 -0.157214584 -0.953241324 0.258097952 -0.0828131428 -0.933895782 0.347822729 -0.854508485 -0.380650216 0.353441173 -0.909652209 -0.322893064 0.261290886 -0.937958767 -0.310799554 0.153743255 -0.949306519 -0.314351925 9.79348151e-06 -0.938037505 -0.310565388 -0.15373607 -0.909649446 -0.322821353 -0.261389095 -0.854486669 -0.38065602 -0.353487661 -0.813170967 0.481592124 -0.326836356 -0.904136728 0.340399926 -0.258195019 -0.850163361 0.395234533 -0.347867682 -0.83368 0.493977752 -0.246908156 -0.93215681 0.328741053 -0.151700368 -0.850181099 0.503691826 -0.153253525 -0.943054203 0.332639098 1.04408803e-05 -0.860249219 0.509873784 -7.88138541e-05 -0.904138315 0.340469334 0.258097926 -0.813173994 0.481594212 0.326825749 -0.850184412 0.395229501 0.347821948 -0.833672707 0.493974955 0.246938375 -0.93207662 0.328965919 0.151705631 -0.850161393 0.503683173 0.153391224 -0.754899161 0.556928539 0.346349331 -0.7333925 0.629814213 0.25587008 -0.736629877 0.659408201 0.150190709 -0.744957852 0.667111533 1.09833375e-05 -0.736474715 0.659583095 -0.150183671 -0.73333212 0.629845462 -0.255966202 -0.754893538 0.556907676 -0.346395131 -0.010485438 0.945022793 -0.326836313 -0.178795939 0.950007034 -0.255966105 -0.104849525 0.932210915 -0.346394843 -0.0109569411 0.968977015 -0.246907856 -0.202978479 0.967597355 -0.150183541 -0.0111194125 0.988124389 -0.153253222 -0.205256821 0.978708147 1.09884438e-05 -0.011439296 0.999934566 -7.8796586e-05 -0.011122004 0.988102895 0.15339156 -0.202749529 0.967644204 0.150190954 -0.0109583765 0.968969137 0.246938709 -0.178739165 0.950043516 0.255870334 -0.0104860589 0.945026294 0.32682617 -0.104865138 0.932226017 0.34634947 0.0828128835 0.933895744 0.347822894 0.157214519 0.953241292 0.258098111 0.181145545 0.971684944 0.151705837 0.183453119 0.98302846 1.06128162e-05 0.181380578 0.97164203 -0.151699874 0.157273819 0.953205395 -0.258194539 0.0827983783 0.933880266 -0.347867902 0.816497147 0.471404469 -0.333332018 0.734396606 0.626368621 -0.261388553 0.756901366 0.549679132 -0.353487161 0.83809517 0.483874031 -0.251917461 0.737976473 0.657081553 -0.153735352 0.855356541 0.493840006 -0.156483979 0.746889915 0.664947708 1.01724383e-05 0.866025435 0.49999994 -8.05557386e-05 0.855336778 0.493828729 0.156627529 0.738139587 0.65689642 0.153743437 0.838087996 0.483870316 0.251948465 0.734459656 0.626335256 0.261291335 0.816500061 0.471406658 0.333321787 0.756906917 0.549700608 0.353441879 0.854508146 0.38065039 0.353441805 0.909651989 0.322893154 0.261291543 0.937958901 0.310799058 0.153743443 0.949306704 0.314351366 1.01503754e-05 0.938037773 0.310564984 -0.153735248 0.909649625 0.322821248 -0.261388605 0.854486981 0.380655757 -0.353487191</float_array>
        <technique_common><accessor source="#vfx_kurp_0446-mesh-normals-array" count="126" stride="3"><param name="X" type="float"/><param name="Y" type="float"/><param name="Z" type="float"/></accessor></technique_common>
      </source>
      <source id="vfx_kurp_0446-mesh-uv0">
        <float_array id="vfx_kurp_0446-mesh-uv0-array" count="252">0.833333373 0.5 0.833333373 0.666666687 0.916666687 0.5 0.916666687 0.666666687 0.833333373 0.833333373 0.916666687 0.833333373 0.833333373 1 0.916666687 1 0.833333373 0.333333373 0.916666687 0.333333373 0.833333373 0.166666746 0.916666687 0.166666746 0.833333373 0 0.916666687 0 0.916666687 0 0.916666687 0.166666746 1 0 1 0.166666746 0.916666687 0.333333373 1 0.333333373 0.916666687 0.5 1 0.5 1 0.666666687 0.916666687 0.666666687 1 0.833333373 0.916666687 0.833333373 1 1 0.916666687 1 1.08333337 0 1.08333337 0.166666746 1.08333337 0.333333373 1.08333337 0.5 1.08333337 0.666666687 1.08333337 0.833333373 1.08333337 1 0.666666687 0.5 0.666666687 0.666666687 0.75 0.5 0.75 0.666666687 0.666666687 0.833333373 0.75 0.833333373 0.666666687 1 0.75 1 0.666666687 0.333333373 0.75 0.333333373 0.666666687 0.166666746 0.75 0.166666746 0.666666687 0 0.75 0 0.75 0 0.75 0.166666746 0.75 0.333333373 0.75 0.5 0.75 0.666666687 0.75 0.833333373 0.75 1 0.583333373 1 0.583333373 0.833333373 0.583333373 0.666666687 0.583333373 0.5 0.583333373 0.333333373 0.583333373 0.166666746 0.583333373 0 0.5 0 0.583333373 0.166666746 0.583333373 0 0.5 0.166666746 0.583333373 0.333333373 0.5 0.333333373 0.583333373 0.5 0.5 0.5 0.583333373 0.833333373 0.5 1 0.583333373 1 0.5 0.833333373 0.583333373 0.666666687 0.5 0.666666687 0.416666687 1 0.416666687 0.833333373 0.416666687 0.666666687 0.416666687 0.5 0.416666687 0.333333373 0.416666687 0.166666746 0.416666687 0 0.333333373 0 0.416666687 0.166666746 0.416666687 0 0.333333373 0.166666746 0.416666687 0.333333373 0.333333373 0.333333373 0.416666687 0.5 0.333333373 0.5 0.333333373 0.666666687 0.416666687 0.666666687 0.333333373 0.833333373 0.416666687 0.833333373 0.333333373 1 0.416666687 1 0.25000003 1 0.25000003 0.833333373 0.25000003 0.666666687 0.25000003 0.5 0.25000003 0.333333373 0.25000003 0.166666746 0.25000003 0 0.166666687 0 0.25000003 0.166666746 0.25000003 0 0.166666687 0.166666746 0.25000003 0.333333373 0.166666687 0.333333373 0.25000003 0.5 0.166666687 0.5 0.166666687 0.666666687 0.25000003 0.666666687 0.166666687 0.833333373 0.25000003 0.833333373 0.166666687 1 0.25000003 1 0.0833333582 1 0.0833333582 0.833333373 0.0833333582 0.666666687 0.0833333582 0.5 0.0833333582 0.333333373 0.0833333582 0.166666746 0.0833333582 0</float_array>
        <technique_common><accessor source="#vfx_kurp_0446-mesh-uv0-array" count="126" stride="2"><param name="S" type="float"/><param name="T" type="float"/></accessor></technique_common>
      </source>
      <vertices id="vfx_kurp_0446-mesh-vertices"><input semantic="POSITION" source="#vfx_kurp_0446-mesh-positions"/></vertices>
      <triangles material="PreviewMaterial" count="144">
        <input semantic="VERTEX" source="#vfx_kurp_0446-mesh-vertices" offset="0"/>
        <input semantic="NORMAL" source="#vfx_kurp_0446-mesh-normals" offset="1"/>
        <input semantic="TEXCOORD" source="#vfx_kurp_0446-mesh-uv0" offset="2" set="0"/>
        <p>0 0 0 1 1 1 2 2 2 2 2 2 1 1 1 3 3 3 4 4 4 3 3 3 1 1 1 3 3 3 4 4 4 5 5 5 6 6 6 5 5 5 4 4 4 5 5 5 6 6 6 7 7 7 0 0 0 2 2 2 8 8 8 9 9 9 8 8 8 2 2 2 8 8 8 9 9 9 10 10 10 11 11 11 10 10 10 9 9 9 10 10 10 11 11 11 12 12 12 12 12 12 11 11 11 13 13 13 14 14 14 15 15 15 16 16 16 16 16 16 15 15 15 17 17 17 18 18 18 17 17 17 15 15 15 17 17 17 18 18 18 19 19 19 20 20 20 19 19 19 18 18 18 19 19 19 20 20 20 21 21 21 21 21 21 20 20 20 22 22 22 23 23 23 22 22 22 20 20 20 22 22 22 23 23 23 24 24 24 25 25 25 24 24 24 23 23 23 24 24 24 25 25 25 26 26 26 27 27 27 26 26 26 25 25 25 28 28 28 16 16 16 29 29 29 17 17 17 29 29 29 16 16 16 29 29 29 17 17 17 30 30 30 19 19 19 30 30 30 17 17 17 30 30 30 19 19 19 31 31 31 21 21 21 31 31 31 19 19 19 22 22 22 31 31 31 21 21 21 31 31 31 22 22 22 32 32 32 24 24 24 32 32 32 22 22 22 32 32 32 24 24 24 33 33 33 26 26 26 33 33 33 24 24 24 33 33 33 26 26 26 34 34 34 35 35 35 36 36 36 37 37 37 37 37 37 36 36 36 38 38 38 39 39 39 38 38 38 36 36 36 38 38 38 39 39 39 40 40 40 41 41 41 40 40 40 39 39 39 40 40 40 41 41 41 42 42 42 35 35 35 37 37 37 43 43 43 44 44 44 43 43 43 37 37 37 43 43 43 44 44 44 45 45 45 46 46 46 45 45 45 44 44 44 45 45 45 46 46 46 47 47 47 47 47 47 46 46 46 48 48 48 49 49 49 50 50 50 12 12 12 12 12 12 50 50 50 10 10 10 51 51 51 10 10 10 50 50 50 10 10 10 51 51 51 8 8 8 52 52 52 8 8 8 51 51 51 8 8 8 52 52 52 0 0 0 0 0 0 52 52 52 1 1 1 53 53 53 1 1 1 52 52 52 1 1 1 53 53 53 4 4 4 54 54 54 4 4 4 53 53 53 4 4 4 54 54 54 6 6 6 55 55 55 6 6 6 54 54 54 56 56 56 41 41 41 57 57 57 39 39 39 57 57 57 41 41 41 57 57 57 39 39 39 58 58 58 36 36 36 58 58 58 39 39 39 58 58 58 36 36 36 59 59 59 35 35 35 59 59 59 36 36 36 43 43 43 59 59 59 35 35 35 59 59 59 43 43 43 60 60 60 45 45 45 60 60 60 43 43 43 60 60 60 45 45 45 61 61 61 47 47 47 61 61 61 45 45 45 62 62 62 61 61 61 47 47 47 63 63 63 64 64 64 65 65 65 66 66 66 64 64 64 63 63 63 64 64 64 66 66 66 67 67 67 68 68 68 67 67 67 66 66 66 67 67 67 68 68 68 69 69 69 70 70 70 69 69 69 68 68 68 71 71 71 72 72 72 73 73 73 72 72 72 71 71 71 74 74 74 75 75 75 74 74 74 71 71 71 74 74 74 75 75 75 76 76 76 69 69 69 76 76 76 75 75 75 70 70 70 76 76 76 69 69 69 77 77 77 72 72 72 78 78 78 74 74 74 78 78 78 72 72 72 78 78 78 74 74 74 79 79 79 76 76 76 79 79 79 74 74 74 79 79 79 76 76 76 80 80 80 70 70 70 80 80 80 76 76 76 68 68 68 80 80 80 70 70 70 80 80 80 68 68 68 81 81 81 66 66 66 81 81 81 68 68 68 81 81 81 66 66 66 82 82 82 63 63 63 82 82 82 66 66 66 83 83 83 82 82 82 63 63 63 84 84 84 85 85 85 86 86 86 87 87 87 85 85 85 84 84 84 85 85 85 87 87 87 88 88 88 89 89 89 88 88 88 87 87 87 88 88 88 89 89 89 90 90 90 91 91 91 90 90 90 89 89 89 91 91 91 92 92 92 90 90 90 90 90 90 92 92 92 93 93 93 94 94 94 93 93 93 92 92 92 93 93 93 94 94 94 95 95 95 96 96 96 95 95 95 94 94 94 95 95 95 96 96 96 97 97 97 98 98 98 96 96 96 99 99 99 94 94 94 99 99 99 96 96 96 99 99 99 94 94 94 100 100 100 92 92 92 100 100 100 94 94 94 100 100 100 92 92 92 101 101 101 91 91 91 101 101 101 92 92 92 89 89 89 101 101 101 91 91 91 101 101 101 89 89 89 102 102 102 87 87 87 102 102 102 89 89 89 102 102 102 87 87 87 103 103 103 84 84 84 103 103 103 87 87 87 104 104 104 103 103 103 84 84 84 105 105 105 106 106 106 107 107 107 108 108 108 106 106 106 105 105 105 106 106 106 108 108 108 109 109 109 110 110 110 109 109 109 108 108 108 109 109 109 110 110 110 111 111 111 112 112 112 111 111 111 110 110 110 112 112 112 113 113 113 111 111 111 111 111 111 113 113 113 114 114 114 115 115 115 114 114 114 113 113 113 114 114 114 115 115 115 116 116 116 117 117 117 116 116 116 115 115 115 116 116 116 117 117 117 118 118 118 119 119 119 117 117 117 120 120 120 115 115 115 120 120 120 117 117 117 120 120 120 115 115 115 121 121 121 113 113 113 121 121 121 115 115 115 121 121 121 113 113 113 122 122 122 112 112 112 122 122 122 113 113 113 110 110 110 122 122 122 112 112 112 122 122 122 110 110 110 123 123 123 108 108 108 123 123 123 110 110 110 123 123 123 108 108 108 124 124 124 105 105 105 124 124 124 108 108 108 124 124 124 105 105 105 125 125 125</p>
      </triangles>
    </mesh></geometry>
  </library_geometries>
  <library_visual_scenes>
    <visual_scene id="Scene" name="Scene">
      <node id="vfx_kurp_0446" name="vfx_kurp_0446" type="NODE">
        <instance_geometry url="#vfx_kurp_0446-mesh"><bind_material><technique_common><instance_material symbol="PreviewMaterial" target="#PreviewMaterial"><bind_vertex_input semantic="UVSET0" input_semantic="TEXCOORD" input_set="0"/></instance_material></technique_common></bind_material></instance_geometry>
      </node>
    </visual_scene>
  </library_visual_scenes>
  <scene><instance_visual_scene url="#Scene"/></scene>
</COLLADA>
