<?xml version="1.0" encoding="utf-8"?>
<COLLADA xmlns="http://www.collada.org/2005/11/COLLADASchema" version="1.4.1">
  <asset>
    <contributor><authoring_tool>Morrobroom Kurpulio VFX preview converter</authoring_tool></contributor>
    <unit name="unit" meter="1"/>
    <up_axis>Z_UP</up_axis>
  </asset>
  <library_images>
    <image id="VFXTexture" name="darkmap_newgen-1.dds">
      <init_from>../../../Textures/Kurp/darkmap_newgen-1.dds</init_from>
    </image>
  </library_images>
  <library_effects>
    <effect id="PreviewEffect">
      <profile_COMMON>
        <newparam sid="VFXTexture-surface">
          <surface type="2D"><init_from>VFXTexture</init_from></surface>
        </newparam>
        <newparam sid="VFXTexture-sampler">
          <sampler2D><source>VFXTexture-surface</source></sampler2D>
        </newparam>
        <technique sid="common"><phong>
          <emission><color>0.08 0.08 0.08 1</color></emission>
          <ambient><color>0.2 0.2 0.2 1</color></ambient>
          <diffuse><texture texture="VFXTexture-sampler" texcoord="UVSET0"/></diffuse>
          <specular><color>0.15 0.15 0.15 1</color></specular>
          <shininess><float>8</float></shininess>
          <transparent opaque="A_ONE"><texture texture="VFXTexture-sampler" texcoord="UVSET0"/></transparent>
          <transparency><float>1</float></transparency>
        </phong></technique>
      </profile_COMMON>
      <extra><technique profile="GOOGLEEARTH"><double_sided>1</double_sided></technique></extra>
    </effect>
  </library_effects>
  <library_materials><material id="PreviewMaterial" name="PreviewMaterial"><instance_effect url="#PreviewEffect"/></material></library_materials>
  <library_geometries>
    <geometry id="vfx_kurp_0946-mesh" name="vfx_kurp_0946"><mesh>
      <source id="vfx_kurp_0946-mesh-positions">
        <float_array id="vfx_kurp_0946-mesh-positions-array" count="249">2.90217802 1.23615639 0.345031122 1.2115515 0.2982425 -0.253256991 3.05843803 0.758079337 0.38771329 1.24289897 0.102537694 -0.252852246 3.13798635 0.261443767 0.414736336 3.13886508 -0.241521269 0.41503114 1.2432446 -0.09566216 -0.252893105 0.0117032648 -0.00090084398 -0.234305904 1.14997513 0.486634779 -0.25385572 1.059687 0.663075164 -0.254251197 2.67305552 1.68390322 0.30434854 0.942908387 0.823218331 -0.254064664 2.37670984 2.09029496 0.283021105 0.802515704 0.963123028 -0.253096446 2.02043762 2.44532346 0.291281504 0.641965174 1.07934118 -0.251422182 1.61301533 2.74024909 0.328121136 0.465210756 1.16901405 -0.24938339 1.16447064 2.9678088 0.381479717 0.276604135 1.22993206 -0.247476384 0.685851163 3.1223992 0.432698433 -0.313115031 1.22890259 -0.246270344 -0.117409305 1.26025094 -0.245778039 0.0807903058 1.26059587 -0.246178672 0.188940316 3.20021258 0.46355355 -0.314025117 3.19933436 0.463188263 -0.810661029 3.11978702 0.432293956 -0.501507024 1.16732644 -0.247362569 -1.28873824 2.96352726 0.382921732 -0.677947423 1.07703735 -0.248582885 -1.73648522 2.73440286 0.33398212 -0.83809069 0.960258982 -0.249453157 -2.14287636 2.43805714 0.304122787 -0.97799472 0.81986565 -0.249663159 -2.49790642 2.08178636 0.304687363 -2.79283156 1.67436128 0.335431943 -1.09421322 0.659315266 -0.249177575 -3.02039069 1.22581779 0.384633637 -1.18388602 0.482560156 -0.248238132 -1.24480407 0.293954569 -0.247260899 -1.27546742 0.0981406391 -0.246668324 -1.27512151 -0.100058818 -0.2467217 -1.24377469 -0.295764187 -0.247417927 -1.18219842 -0.48415616 -0.248490423 -1.09190924 -0.660596865 -0.249514371 -0.97513046 -0.820740283 -0.250073865 -0.834737219 -0.960643947 -0.249929577 -0.674186625 -1.07686282 -0.249119848 -0.497432406 -1.16653555 -0.247956231 -0.308826197 -1.2274533 -0.246914581 -0.113012566 -1.25811709 -0.246461868 -3.17498045 0.747197401 0.433551762 -3.2527945 0.250287103 0.463553639 -3.25191606 -0.252678515 0.46319327 -3.17236797 -0.749314067 0.432559166 -3.01610825 -1.2273917 0.383231766 -2.78698405 -1.6751383 0.333876113 -2.49063789 -2.08152983 0.30314241 -2.1343662 -2.43655901 0.302576434 -1.72694246 -2.73148452 0.332234303 -1.27839831 -2.95904275 0.380660034 -0.799778485 -3.11363366 0.429233287 -0.302868017 -3.191447 0.459215763 0.200098181 -3.19056884 0.458826783 0.0851879978 -1.25777092 -0.246883854 0.696733426 -3.1110193 0.427649383 0.280892785 -1.22642369 -0.248177812 1.17481035 -2.95476024 0.376714982 0.469284769 -1.16484766 -0.250051573 1.62255722 -2.72563558 0.324247132 0.645725127 -1.07455833 -0.25202842 2.02894826 -2.42928962 0.288718355 0.805867827 -0.957779558 -0.253617301 2.38397616 -2.07301903 0.281868083 0.945772666 -0.817386587 -0.25448583 1.06199129 -0.656836094 -0.254568472 1.15166379 -0.480081886 -0.25407283 1.21258115 -0.291475888 -0.25338231 1.2432446 -0.09566216 -0.252893105 3.13886508 -0.241521269 0.41503114 3.0610513 -0.738431175 0.388420916 2.90646109 -1.21705117 0.345685253 2.67890266 -1.66559489 0.304355037</float_array>
        <technique_common><accessor source="#vfx_kurp_0946-mesh-positions-array" count="83" stride="3"><param name="X" type="float"/><param name="Y" type="float"/><param name="Z" type="float"/></accessor></technique_common>
      </source>
      <source id="vfx_kurp_0946-mesh-normals">
        <float_array id="vfx_kurp_0946-mesh-normals-array" count="249">-0.305522196 -0.0461615958 0.951065347 -0.155143186 -0.0313248517 0.987395233 -0.327176449 -0.0129322116 0.944874769 -0.16618987 -0.0102483648 0.986040516 -0.332219816 -0.000971383267 0.94320149 -0.330132646 0.0019339284 0.94393257 -0.168804485 0.0117002976 0.985580108 0.00268016128 -0.00027978061 0.999996369 -0.140995233 -0.055913611 0.988430075 -0.126003456 -0.0728003202 0.989354963 -0.268233252 -0.0967868091 0.958479648 -0.104137188 -0.0904295339 0.990443308 -0.213862052 -0.166805774 0.962516938 -0.0833015082 -0.108636202 0.990585198 -0.146100803 -0.236690262 0.960537493 -0.0642143867 -0.128056787 0.989685795 -0.0794494124 -0.291414318 0.953291921 -0.0459932758 -0.147620944 0.987974026 -0.0292422716 -0.324812249 0.945326342 -0.0272414786 -0.164552158 0.985992134 -0.00316434406 -0.33992904 0.940445764 0.0343490457 -0.169760091 0.98488662 0.0137388274 -0.177416398 0.984039972 -0.00719977396 -0.175391163 0.9844725 0.00222628475 -0.343628703 0.939102954 -0.000402787444 -0.341066163 0.940039207 0.00533609032 -0.332729089 0.943007359 0.0534698753 -0.153808752 0.986652847 0.0325425734 -0.314221289 0.948791843 0.0708839786 -0.132693 0.988619254 0.0850480381 -0.278958781 0.956529576 0.087561932 -0.110034157 0.990063327 0.154979709 -0.223749701 0.962245998 0.108857372 -0.0885360951 0.990106778 0.225242549 -0.15150439 0.962451149 0.277849536 -0.0812759306 0.95718016 0.131304894 -0.0715776683 0.988754602 0.310931288 -0.0297961076 0.949965224 0.152071806 -0.0535127908 0.986919727 0.167504657 -0.033577888 0.985299302 0.174499496 -0.0121016387 0.984582894 0.171785126 0.00965818916 0.985087098 0.160384766 0.0304342552 0.986585264 0.143178029 0.0498468953 0.988440863 0.123721398 0.0687135708 0.989935079 0.104782374 0.0884892281 0.990550509 0.08733465 0.11006781 0.990079661 0.0706090228 0.132678841 0.98864083 0.0531235937 0.153676228 0.986692202 0.0339331728 0.169443063 0.984955627 0.0132798885 0.17688161 0.984142541 0.328105792 -0.00410574704 0.944632062 0.335870293 0.000587864404 0.941908064 0.338139841 -0.00194569033 0.941093865 0.333865895 0.00483200518 0.942608198 0.317516127 0.0332551526 0.947669565 0.282246832 0.0861375393 0.955466928 0.225558013 0.155082276 0.96180719 0.154516458 0.224251368 0.962203715 0.0848543005 0.279132074 0.956496227 0.0326928936 0.314080388 0.948833328 0.00570940041 0.332374551 0.943130193 -0.000106592439 0.340586968 0.940213011 0.00206229584 0.343029219 0.93932247 -0.00767267483 0.174657542 0.984599346 -0.00410470872 0.339097294 0.940742354 -0.0277182115 0.163681894 0.986123693 -0.0310579173 0.323549411 0.945701424 -0.0464906074 0.146702156 0.988087598 -0.0819288635 0.289554859 0.953648596 -0.0647692757 0.127167561 0.989764291 -0.148753733 0.234285967 0.960719737 -0.083941465 0.107812438 0.990621173 -0.216130748 0.164223522 0.962454225 -0.104850711 0.0896581277 0.99043816 -0.126720059 0.0720312676 0.989319727 -0.146944431 0.0535541733 0.987693923 -0.161977062 0.0333529532 0.986230709 -0.168804485 0.0117002976 0.985580108 -0.330132646 0.0019339284 0.94393257 -0.322053647 0.011620054 0.946650106 -0.304053266 0.0411499587 0.951765881 -0.269786648 0.0945561411 0.958266299</float_array>
        <technique_common><accessor source="#vfx_kurp_0946-mesh-normals-array" count="83" stride="3"><param name="X" type="float"/><param name="Y" type="float"/><param name="Z" type="float"/></accessor></technique_common>
      </source>
      <source id="vfx_kurp_0946-mesh-uv0">
        <float_array id="vfx_kurp_0946-mesh-uv0-array" count="166">0.0500000119 0.117500007 0.5 0.0950000286 0.0500000119 0.0950000286 0.5 0.0724999905 0.0500000119 0.0724999905 0.0500000119 0.0500000119 0.5 0.0500000119 0.949999988 0.5 0.5 0.117500007 0.5 0.139999986 0.0500000119 0.139999986 0.5 0.162500024 0.0500000119 0.162500024 0.5 0.185000002 0.0500000119 0.185000002 0.5 0.207500041 0.0500000119 0.207500041 0.5 0.230000019 0.0500000119 0.230000019 0.5 0.252499998 0.0500000119 0.252499998 0.5 0.319999993 0.5 0.297499955 0.5 0.274999976 0.0500000119 0.274999976 0.0500000119 0.297499955 0.0500000119 0.319999993 0.5 0.342499971 0.0500000119 0.342499971 0.5 0.36499995 0.0500000119 0.36499995 0.5 0.387499988 0.0500000119 0.387499988 0.5 0.409999967 0.0500000119 0.409999967 0.0500000119 0.432500005 0.5 0.432500005 0.0500000119 0.454999983 0.5 0.454999983 0.5 0.477499962 0.5 0.5 0.5 0.522499979 0.5 0.544999957 0.5 0.567499995 0.5 0.590000033 0.5 0.612500012 0.5 0.63499999 0.5 0.657499909 0.5 0.679999948 0.5 0.702499986 0.5 0.725000024 0.0500000119 0.477499962 0.0500000119 0.5 0.0500000119 0.522499979 0.0500000119 0.544999957 0.0500000119 0.567499995 0.0500000119 0.590000033 0.0500000119 0.612500012 0.0500000119 0.63499999 0.0500000119 0.657499909 0.0500000119 0.679999948 0.0500000119 0.702499986 0.0500000119 0.725000024 0.0500000119 0.747499943 0.5 0.747499943 0.0500000119 0.769999981 0.5 0.769999981 0.0500000119 0.792499959 0.5 0.792499959 0.0500000119 0.814999998 0.5 0.814999998 0.0500000119 0.837499976 0.5 0.837499976 0.0500000119 0.859999955 0.5 0.859999955 0.5 0.882499993 0.5 0.904999971 0.5 0.92750001 0.5 0.949999988 0.0500000119 0.949999988 0.0500000119 0.92750001 0.0500000119 0.904999971 0.0500000119 0.882499993</float_array>
        <technique_common><accessor source="#vfx_kurp_0946-mesh-uv0-array" count="83" stride="2"><param name="S" type="float"/><param name="T" type="float"/></accessor></technique_common>
      </source>
      <vertices id="vfx_kurp_0946-mesh-vertices"><input semantic="POSITION" source="#vfx_kurp_0946-mesh-positions"/></vertices>
      <triangles material="PreviewMaterial" count="120">
        <input semantic="VERTEX" source="#vfx_kurp_0946-mesh-vertices" offset="0"/>
        <input semantic="NORMAL" source="#vfx_kurp_0946-mesh-normals" offset="1"/>
        <input semantic="TEXCOORD" source="#vfx_kurp_0946-mesh-uv0" offset="2" set="0"/>
        <p>0 0 0 1 1 1 2 2 2 3 3 3 2 2 2 1 1 1 2 2 2 3 3 3 4 4 4 5 5 5 4 4 4 6 6 6 3 3 3 6 6 6 4 4 4 6 6 6 3 3 3 7 7 7 1 1 1 7 7 7 3 3 3 7 7 7 1 1 1 8 8 8 0 0 0 8 8 8 1 1 1 8 8 8 0 0 0 9 9 9 10 10 10 9 9 9 0 0 0 9 9 9 10 10 10 11 11 11 12 12 12 11 11 11 10 10 10 11 11 11 12 12 12 13 13 13 14 14 14 13 13 13 12 12 12 13 13 13 14 14 14 15 15 15 16 16 16 15 15 15 14 14 14 15 15 15 16 16 16 17 17 17 18 18 18 17 17 17 16 16 16 17 17 17 18 18 18 19 19 19 20 20 20 19 19 19 18 18 18 21 21 21 7 7 7 22 22 22 22 22 22 7 7 7 23 23 23 23 23 23 7 7 7 19 19 19 19 19 19 7 7 7 17 17 17 17 17 17 7 7 7 15 15 15 15 15 15 7 7 7 13 13 13 13 13 13 7 7 7 11 11 11 11 11 11 7 7 7 9 9 9 8 8 8 9 9 9 7 7 7 19 19 19 20 20 20 23 23 23 24 24 24 23 23 23 20 20 20 23 23 23 24 24 24 22 22 22 25 25 25 22 22 22 24 24 24 22 22 22 25 25 25 21 21 21 26 26 26 21 21 21 25 25 25 21 21 21 26 26 26 27 27 27 28 28 28 27 27 27 26 26 26 27 27 27 28 28 28 29 29 29 30 30 30 29 29 29 28 28 28 29 29 29 30 30 30 31 31 31 32 32 32 31 31 31 30 30 30 31 31 31 32 32 32 33 33 33 34 34 34 33 33 33 32 32 32 35 35 35 33 33 33 34 34 34 33 33 33 35 35 35 36 36 36 37 37 37 36 36 36 35 35 35 36 36 36 37 37 37 38 38 38 21 21 21 27 27 27 7 7 7 29 29 29 7 7 7 27 27 27 31 31 31 7 7 7 29 29 29 33 33 33 7 7 7 31 31 31 36 36 36 7 7 7 33 33 33 38 38 38 7 7 7 36 36 36 39 39 39 7 7 7 38 38 38 40 40 40 7 7 7 39 39 39 41 41 41 7 7 7 40 40 40 42 42 42 7 7 7 41 41 41 43 43 43 7 7 7 42 42 42 44 44 44 7 7 7 43 43 43 45 45 45 7 7 7 44 44 44 46 46 46 7 7 7 45 45 45 47 47 47 7 7 7 46 46 46 48 48 48 7 7 7 47 47 47 49 49 49 7 7 7 48 48 48 50 50 50 7 7 7 49 49 49 37 37 37 51 51 51 38 38 38 38 38 38 51 51 51 39 39 39 52 52 52 39 39 39 51 51 51 39 39 39 52 52 52 40 40 40 53 53 53 40 40 40 52 52 52 40 40 40 53 53 53 41 41 41 54 54 54 41 41 41 53 53 53 41 41 41 54 54 54 42 42 42 55 55 55 42 42 42 54 54 54 42 42 42 55 55 55 43 43 43 56 56 56 43 43 43 55 55 55 43 43 43 56 56 56 44 44 44 57 57 57 44 44 44 56 56 56 44 44 44 57 57 57 45 45 45 58 58 58 45 45 45 57 57 57 45 45 45 58 58 58 46 46 46 59 59 59 46 46 46 58 58 58 46 46 46 59 59 59 47 47 47 59 59 59 60 60 60 47 47 47 47 47 47 60 60 60 48 48 48 61 61 61 48 48 48 60 60 60 48 48 48 61 61 61 49 49 49 62 62 62 49 49 49 61 61 61 49 49 49 62 62 62 50 50 50 63 63 63 50 50 50 62 62 62 50 50 50 63 63 63 64 64 64 65 65 65 64 64 64 63 63 63 64 64 64 65 65 65 66 66 66 67 67 67 66 66 66 65 65 65 66 66 66 67 67 67 68 68 68 69 69 69 68 68 68 67 67 67 68 68 68 69 69 69 70 70 70 71 71 71 70 70 70 69 69 69 70 70 70 71 71 71 72 72 72 73 73 73 72 72 72 71 71 71 72 72 72 73 73 73 74 74 74 50 50 50 64 64 64 7 7 7 66 66 66 7 7 7 64 64 64 68 68 68 7 7 7 66 66 66 70 70 70 7 7 7 68 68 68 72 72 72 7 7 7 70 70 70 74 74 74 7 7 7 72 72 72 75 75 75 7 7 7 74 74 74 76 76 76 7 7 7 75 75 75 77 77 77 7 7 7 76 76 76 7 7 7 77 77 77 78 78 78 78 78 78 77 77 77 79 79 79 79 79 79 77 77 77 80 80 80 76 76 76 80 80 80 77 77 77 80 80 80 76 76 76 81 81 81 75 75 75 81 81 81 76 76 76 81 81 81 75 75 75 82 82 82 74 74 74 82 82 82 75 75 75 73 73 73 82 82 82 74 74 74</p>
      </triangles>
    </mesh></geometry>
  </library_geometries>
  <library_visual_scenes>
    <visual_scene id="Scene" name="Scene">
      <node id="vfx_kurp_0946" name="vfx_kurp_0946" type="NODE">
        <instance_geometry url="#vfx_kurp_0946-mesh"><bind_material><technique_common><instance_material symbol="PreviewMaterial" target="#PreviewMaterial"><bind_vertex_input semantic="UVSET0" input_semantic="TEXCOORD" input_set="0"/></instance_material></technique_common></bind_material></instance_geometry>
      </node>
    </visual_scene>
  </library_visual_scenes>
  <scene><instance_visual_scene url="#Scene"/></scene>
</COLLADA>
