<?xml version="1.0" encoding="utf-8"?>
<COLLADA xmlns="http://www.collada.org/2005/11/COLLADASchema" version="1.4.1">
  <asset>
    <contributor><authoring_tool>Morrobroom Kurpulio VFX preview converter</authoring_tool></contributor>
    <unit name="unit" meter="1"/>
    <up_axis>Z_UP</up_axis>
  </asset>
  <library_images>
    <image id="VFXTexture" name="darkmap_newgen-1.dds">
      <init_from>../../../Textures/Kurp/darkmap_newgen-1.dds</init_from>
    </image>
  </library_images>
  <library_effects>
    <effect id="PreviewEffect">
      <profile_COMMON>
        <newparam sid="VFXTexture-surface">
          <surface type="2D"><init_from>VFXTexture</init_from></surface>
        </newparam>
        <newparam sid="VFXTexture-sampler">
          <sampler2D><source>VFXTexture-surface</source></sampler2D>
        </newparam>
        <technique sid="common"><phong>
          <emission><color>0.08 0.08 0.08 1</color></emission>
          <ambient><color>0.2 0.2 0.2 1</color></ambient>
          <diffuse><texture texture="VFXTexture-sampler" texcoord="UVSET0"/></diffuse>
          <specular><color>0.15 0.15 0.15 1</color></specular>
          <shininess><float>8</float></shininess>
          <transparent opaque="A_ONE"><texture texture="VFXTexture-sampler" texcoord="UVSET0"/></transparent>
          <transparency><float>1</float></transparency>
        </phong></technique>
      </profile_COMMON>
      <extra><technique profile="GOOGLEEARTH"><double_sided>1</double_sided></technique></extra>
    </effect>
  </library_effects>
  <library_materials><material id="PreviewMaterial" name="PreviewMaterial"><instance_effect url="#PreviewEffect"/></material></library_materials>
  <library_geometries>
    <geometry id="vfx_kurp_0440-mesh" name="vfx_kurp_0440"><mesh>
      <source id="vfx_kurp_0440-mesh-positions">
        <float_array id="vfx_kurp_0440-mesh-positions-array" count="1008">-1.77232407 -1.20388294 -1.03501343e-05 -1.16126107 -1.74799871 -5.06891841e-06 -1.39454463 -0.909241934 3.91118534e-05 -0.822485427 -1.32280579 1.96604757e-05 -1.01039368 -0.532647818 8.72531781e-05 -0.505666835 -0.85068285 4.37252151e-05 -0.625636848 -0.101391428 0.000134075363 -0.202612491 -0.349136581 6.71754675e-05 -0.231107367 0.373650599 0.000179580744 0.103940771 0.180210137 8.98717974e-05 0.439144793 -0.0133196978 0.000179716064 0.220527899 -0.596949112 0.000134246813 -0.000865774039 -1.16876401 8.74616628e-05 -0.250394439 -1.73639263 3.93574158e-05 -0.55020552 -2.29210769 -1.00699375e-05 -0.932184989 -2.8254877 -6.08261192e-05 -1.53018707 -2.10875425 -3.046573e-05 -1.437397 -3.31274332 -0.000112919465 -1.93745839 -2.38756388 -5.65327491e-05 -2.09833331 -3.70263815 -0.000166359362 -2.3912711 -2.5669173 -8.32727328e-05 -2.90456023 -3.92638474 -0.00022115025 -2.89981824 -2.62929937 -0.000110688468 -3.80336015 -3.94222528 -0.000277287766 -3.47128557 -2.55719611 -0.000138830103 -2.12822718 -1.39197245 -6.11325518e-05 -2.43757292 -1.46228439 -0.000113232705 -2.68425009 -1.43103467 -0.000166646692 -2.89507427 -1.33199237 -0.000221375623 -3.13914605 -1.17189706 -0.000277429401 -4.11385774 -2.33309725 -0.000167605628 -3.4765548 -0.914923547 -0.000334820227 -4.83572177 -1.93949654 -0.000197017824 -3.93227885 -0.513607514 -0.000393556053 -5.64506676 -1.35888692 -0.000227164235 -4.51024278 0.0693709199 -0.000453640735 -6.45966136 -0.658013142 -0.000515133015 -5.13932321 0.794791532 -0.000515060097 -4.75102319 -3.75096607 -0.000334765273 -5.7389543 -3.3650532 -0.000393580339 -6.77960871 -2.78678978 -0.00045373463 -7.77999971 -2.1108175 -0.000515205893 -1.16125728 -1.74800245 -0.818200242 -1.16126107 -1.74799871 -5.06891841e-06 -0.822501489 -1.32279479 -0.705913874 -0.822485427 -1.32280579 1.96604757e-05 -0.505703832 -0.850659852 -0.596613354 -0.505666835 -0.85068285 4.37252151e-05 -0.202670468 -0.349102916 -0.490298805 -0.202612491 -0.349136581 6.71754675e-05 0.10386291 0.180254802 -0.386970182 0.103940771 0.180210137 8.98717974e-05 0.103862763 0.180254886 0.386970391 -0.202670653 -0.349102809 0.490299097 -0.505704058 -0.850659722 0.596613559 -0.822501757 -1.32279463 0.705914023 -1.16125759 -1.74800227 0.818200446 -1.53016748 -2.10877732 0.933472407 -1.53018707 -2.10875425 -3.046573e-05 -1.93743178 -2.38761355 1.05173091 -1.93745839 -2.38756388 -5.65327491e-05 -2.39125071 -2.56699806 1.17297494 -2.3912711 -2.5669173 -8.32727328e-05 -2.89981859 -2.62941017 1.29720475 -2.89981824 -2.62929937 -0.000110688468 -3.47131827 -2.55733102 1.42442067 -3.47128557 -2.55719611 -0.000138830103 -1.53016712 -2.10877753 -0.933472585 -1.93743139 -2.38761378 -1.05173082 -2.39125028 -2.56699831 -1.17297505 -2.89981819 -2.6294104 -1.29720517 -3.47131784 -2.55733127 -1.42442111 -4.11385774 -2.33309725 -0.000167605628 -4.11392623 -2.33325081 -1.55462329 -4.83572177 -1.93949654 -0.000197017824 -4.83582692 -1.93966323 -1.68781122 -5.64506676 -1.35888692 -0.000227164235 -5.64520755 -1.35906464 -1.82398505 -6.46000768 -0.658394026 -8.25377429e-07 -6.46000755 -0.658394486 -1.96314495 -4.11392667 -2.33325016 1.55462229 -4.83582726 -1.93966265 1.68781026 -5.6452081 -1.35906433 1.82398375 -6.46000769 -0.658394021 1.96314328 1.20388379 -1.77232427 -1.03501456e-05 1.74799945 -1.16126114 -5.06893069e-06 0.90924274 -1.39454491 3.91118409e-05 1.32280648 -0.82248558 1.9660463e-05 0.53264851 -1.01039398 8.72531642e-05 0.850683479 -0.505667082 4.37252019e-05 0.101392079 -0.625637223 0.000134075349 0.349137155 -0.202612833 6.71754551e-05 -0.373650029 -0.23110784 0.000179580738 -0.180209658 0.10394035 8.98717837e-05 0.0133201411 0.439144393 0.000179716053 0.596949582 0.220527628 0.000134246799 1.16876458 -0.000865957681 8.74616458e-05 1.73639316 -0.250394508 3.93574045e-05 2.29210829 -0.550205481 -1.00699493e-05 2.82548851 -0.932184925 -6.08261333e-05 2.10875503 -1.53018706 -3.04657408e-05 3.31274419 -1.43739682 -0.000112919482 2.38756471 -1.93745829 -5.65327558e-05 3.70263909 -2.09833302 -0.00016635937 2.56691817 -2.39127092 -8.3272749e-05 3.92638573 -2.90455984 -0.000221150261 2.62930082 -2.8998184 -0.000110688474 3.94222661 -3.80335985 -0.000277287777 2.55719731 -3.4712855 -0.000138830114 1.39197334 -2.12822731 -6.11325634e-05 1.46228532 -2.43757298 -0.000113232715 1.4310357 -2.68425031 -0.000166646707 1.33199341 -2.89507448 -0.000221375637 1.1718981 -3.13914626 -0.000277429404 2.33309874 -4.11385782 -0.000167605632 0.914924726 -3.47655509 -0.000334820242 1.93949803 -4.83572186 -0.000197017818 0.513608693 -3.93227914 -0.000393556045 1.35888841 -5.64506685 -0.000227164236 -0.0693695967 -4.51024316 -0.000453640757 0.658014922 -6.45966161 -0.000515133008 -0.794790064 -5.13932367 -0.000515060112 3.75096773 -4.75102299 -0.000334765277 3.36505486 -5.7389541 -0.000393580365 2.78679144 -6.77960851 -0.00045373466 2.11081957 -7.78000013 -0.000515205905 1.74800316 -1.16125734 -0.81820027 1.74799945 -1.16126114 -5.06893069e-06 1.32279543 -0.822501623 -0.705913843 1.32280648 -0.82248558 1.9660463e-05 0.850660498 -0.505704089 -0.596613346 0.850683479 -0.505667082 4.37252019e-05 0.349103491 -0.202670811 -0.490298818 0.349137155 -0.202612833 6.71754551e-05 -0.1802543 0.103862475 -0.386970177 -0.180209658 0.10394035 8.98717837e-05 -0.180254375 0.103862324 0.386970396 0.34910338 -0.202670995 0.490299084 0.850660332 -0.505704294 0.596613567 1.32279535 -0.822501933 0.705914054 1.74800302 -1.16125767 0.818200418 2.1087781 -1.53016747 0.933472407 2.10875503 -1.53018706 -3.04657408e-05 2.3876145 -1.93743177 1.05173094 2.38756471 -1.93745829 -5.65327558e-05 2.56699902 -2.39125064 1.17297492 2.56691817 -2.39127092 -8.3272749e-05 2.62941116 -2.89981842 1.29720478 2.62930082 -2.8998184 -0.000110688474 2.55733225 -3.47131831 1.42442066 2.55719731 -3.4712855 -0.000138830114 2.1087783 -1.53016711 -0.933472586 2.38761475 -1.93743139 -1.05173079 2.56699933 -2.39125024 -1.17297506 2.62941148 -2.89981812 -1.29720514 2.55733235 -3.47131779 -1.42442112 2.33309874 -4.11385782 -0.000167605632 2.33325199 -4.11392606 -1.55462333 1.93949803 -4.83572186 -0.000197017818 1.93966471 -4.83582695 -1.68781127 1.35888841 -5.64506685 -0.000227164236 1.35906613 -5.64520761 -1.82398512 0.658395805 -6.46000793 -8.25389026e-07 0.658396269 -6.46000782 -1.96314487 2.33325139 -4.11392668 1.55462225 1.93966415 -4.8358274 1.6878102 1.35906582 -5.64520821 1.82398368 0.658395796 -6.46000793 1.96314336 1.77232415 1.20388308 -1.03501466e-05 1.16126104 1.74799874 -5.06893073e-06 1.39454486 0.909241995 3.91118422e-05 0.822485545 1.32280573 1.96604633e-05 1.01039401 0.532647724 8.7253162e-05 0.505667074 0.850682616 4.37252032e-05 0.625637323 0.10139125 0.000134075352 0.202612899 0.34913625 6.7175451e-05 0.231108002 -0.373650917 0.000179580729 -0.103940188 -0.180210571 8.9871778e-05 -0.439144284 0.0133191625 0.00017971606 -0.220527591 0.596948645 0.000134246805 0.00086593791 1.16876362 8.74616551e-05 0.25039438 1.73639227 3.93574039e-05 0.550205281 2.29210744 -1.00699495e-05 0.932184533 2.82548758 -6.08261313e-05 1.53018689 2.10875436 -3.04657399e-05 1.43739636 3.3127433 -0.000112919477 1.93745803 2.38756409 -5.65327584e-05 2.09833265 3.70263853 -0.000166359372 2.39127083 2.56691784 -8.32727486e-05 2.9045594 3.92638522 -0.000221150253 2.89981807 2.62930024 -0.00011068848 3.80335938 3.94222612 -0.000277287774 3.47128516 2.55719673 -0.00013883011 2.12822728 1.39197278 -6.11325649e-05 2.43757295 1.46228476 -0.000113232718 2.6842502 1.43103519 -0.000166646704 2.89507438 1.33199289 -0.000221375625 3.13914624 1.17189772 -0.000277429421 4.11385749 2.33309817 -0.000167605631 3.47655507 0.914924353 -0.000334820246 4.83572169 1.93949774 -0.000197017825 3.93227935 0.513608382 -0.000393556059 5.64506685 1.35888841 -0.000227164237 4.51024337 -0.0693699082 -0.000453640766 6.45966161 0.658014921 -0.000515133014 5.13932396 -0.794790231 -0.000515060104 4.75102251 3.75096723 -0.000334765289 5.73895381 3.36505503 -0.000393580341 6.77960822 2.7867916 -0.000453734626 7.77999955 2.11081991 -0.000515205923 1.16125724 1.74800247 -0.818200279 1.16126104 1.74799874 -5.06893073e-06 0.822501608 1.32279472 -0.705913856 0.822485545 1.32280573 1.96604633e-05 0.505704071 0.850659617 -0.59661335 0.505667074 0.850682616 4.37252032e-05 0.202670875 0.349102584 -0.490298805 0.202612899 0.34913625 6.7175451e-05 -0.103862326 -0.180255235 -0.386970182 -0.103940188 -0.180210571 8.9871778e-05 -0.10386218 -0.180255319 0.386970391 0.202671061 0.349102477 0.490299097 0.505704297 0.850659487 0.596613563 0.822501873 1.32279456 0.705914041 1.16125755 1.74800229 0.818200408 1.5301673 2.10877742 0.933472418 1.53018689 2.10875436 -3.04657399e-05 1.93743146 2.38761373 1.05173091 1.93745803 2.38756409 -5.65327584e-05 2.39125045 2.5669986 1.17297496 2.39127083 2.56691784 -8.32727486e-05 2.89981822 2.62941077 1.29720475 2.89981807 2.62930024 -0.00011068848 3.47131786 2.55733164 1.42442061 3.47128516 2.55719673 -0.00013883011 1.53016693 2.10877763 -0.933472574 1.93743109 2.38761395 -1.05173082 2.39125001 2.56699885 -1.17297502 2.89981789 2.62941096 -1.29720517 3.47131742 2.55733189 -1.42442117 4.11385749 2.33309817 -0.000167605631 4.11392602 2.3332517 -1.55462329 4.83572169 1.93949774 -0.000197017825 4.83582677 1.93966447 -1.68781126 5.64506685 1.35888841 -0.000227164237 5.64520761 1.35906615 -1.82398508 6.46000793 0.658395805 -8.25388905e-07 6.46000782 0.658396256 -1.96314495 4.11392639 2.3332511 1.55462229 4.83582725 1.93966381 1.68781022 5.64520821 1.3590658 1.82398372 6.46000793 0.658395809 1.96314328 -1.2038833 1.77232312 -1.03501465e-05 -1.74799869 1.16125977 -5.06893095e-06 -0.909242063 1.39454374 3.91118421e-05 -1.32280564 0.822484357 1.96604622e-05 -0.5326478 1.01039304 8.72531659e-05 -0.850682558 0.505666005 4.37252064e-05 -0.101391213 0.625636386 0.000134075346 -0.349136145 0.202611911 6.71754533e-05 0.373650996 0.231107137 0.000179580735 0.180210724 -0.103941091 8.98717816e-05 -0.0133189752 -0.439145211 0.000179716051 -0.596948499 -0.22052859 0.000134246798 -1.1687635 0.000864809211 8.7461652e-05 -1.7363922 0.250393179 3.93574028e-05 -2.29210742 0.550203972 -1.00699495e-05 -2.82548758 0.932183187 -6.08261321e-05 -2.10875464 1.53018573 -3.04657416e-05 -3.31274337 1.43739491 -0.00011291948 -2.3875641 1.93745668 -5.65327616e-05 -3.70263866 2.09833109 -0.000166359373 -2.56691788 2.39126941 -8.32727475e-05 -3.92638568 2.90455793 -0.000221150261 -2.62930033 2.89981658 -0.000110688474 -3.94222662 3.80335784 -0.000277287783 -2.5571974 3.47128401 -0.000138830119 -1.39197289 2.12822609 -6.11325633e-05 -1.46228505 2.43757177 -0.000113232717 -1.43103548 2.68424902 -0.000166646699 -1.33199333 2.89507328 -0.000221375632 -1.17189802 3.13914506 -0.000277429417 -2.33309883 4.11385633 -0.000167605638 -0.914924793 3.47655398 -0.000334820231 -1.93949841 4.83572053 -0.000197017811 -0.513608905 3.93227811 -0.000393556067 -1.35888908 5.6450657 -0.000227164235 0.069369263 4.51024258 -0.000453640744 -0.658015878 6.45966062 -0.00051513302 0.794789586 5.13932318 -0.000515060089 -3.75096807 4.75102106 -0.000334765285 -3.36505528 5.73895203 -0.000393580356 -2.78679244 6.77960677 -0.000453734637 -2.11082057 7.7799984 -0.00051520591 -1.74800245 1.16125599 -0.818200251 -1.74799869 1.16125977 -5.06893095e-06 -1.32279467 0.822500439 -0.705913887 -1.32280564 0.822484357 1.96604622e-05 -0.850659542 0.505702992 -0.596613358 -0.850682558 0.505666005 4.37252064e-05 -0.349102478 0.202669886 -0.490298792 -0.349136145 0.202611911 6.71754533e-05 0.180255374 -0.103863221 -0.386970188 0.180210724 -0.103941091 8.98717816e-05 0.180255468 -0.10386308 0.386970386 -0.349102375 0.202670074 0.49029911 -0.850659448 0.505703239 0.596613555 -1.32279444 0.822500662 0.70591401 -1.74800237 1.16125637 0.818200436 -2.10877756 1.53016605 0.933472419 -2.10875464 1.53018573 -3.04657416e-05 -2.38761391 1.93743018 1.05173088 -2.3875641 1.93745668 -5.65327616e-05 -2.56699884 2.39124909 1.17297498 -2.56691788 2.39126941 -8.32727475e-05 -2.62941103 2.89981689 1.29720472 -2.62930033 2.89981658 -0.000110688474 -2.55733228 3.47131659 1.42442062 -2.5571974 3.47128401 -0.000138830119 -2.10877778 1.5301657 -0.933472574 -2.38761411 1.93742977 -1.05173085 -2.56699903 2.39124862 -1.172975 -2.62941117 2.8998164 -1.29720519 -2.55733238 3.47131607 -1.42442116 -2.33309883 4.11385633 -0.000167605638 -2.33325218 4.11392464 -1.55462325 -1.93949841 4.83572053 -0.000197017811 -1.93966516 4.83582567 -1.6878112 -1.35888908 5.6450657 -0.000227164235 -1.35906682 5.64520647 -1.82398502 -0.658396761 6.46000694 -8.25389475e-07 -0.658397209 6.46000682 -1.96314503 -2.33325174 4.11392515 1.55462233 -1.93966447 4.83582604 1.68781027 -1.35906646 5.64520704 1.82398378 -0.65839677 6.46000695 1.9631432</float_array>
        <technique_common><accessor source="#vfx_kurp_0440-mesh-positions-array" count="336" stride="3"><param name="X" type="float"/><param name="Y" type="float"/><param name="Z" type="float"/></accessor></technique_common>
      </source>
      <source id="vfx_kurp_0440-mesh-normals">
        <float_array id="vfx_kurp_0440-mesh-normals-array" count="1008">-8.40177197e-05 -5.77922712e-05 0.999999995 -3.01430501e-05 -4.73043435e-05 0.999999998 -4.22933883e-05 -7.80065303e-05 0.999999996 -2.37464273e-05 -4.96509656e-05 0.999999998 3.40450371e-06 -0.000100460484 0.999999995 -1.89608275e-05 -5.23948661e-05 0.999999998 6.04240591e-05 -0.000130054806 0.99999999 -1.50695323e-05 -5.61858089e-05 0.999999998 0.000134354414 -0.000150219668 0.99999998 -1.20186543e-05 -6.09835722e-05 0.999999998 -0.000257352396 1.84917572e-05 0.999999967 -0.000173828025 4.18849592e-06 0.999999985 -0.000114885967 -2.2563603e-05 0.999999993 -7.47991925e-05 -4.05132146e-05 0.999999996 -4.892286e-05 -5.43607235e-05 0.999999997 -3.47513531e-05 -6.58301255e-05 0.999999997 -3.82253809e-05 -4.3724256e-05 0.999999998 -3.16224008e-05 -7.54796948e-05 0.999999997 -4.70336879e-05 -3.70172811e-05 0.999999998 -3.891548e-05 -8.23709446e-05 0.999999996 -5.38544564e-05 -2.60045244e-05 0.999999998 -5.3438548e-05 -8.48457744e-05 0.999999995 -5.52868203e-05 -1.21823467e-05 0.999999998 -6.97109608e-05 -8.31193485e-05 0.999999994 -5.05105634e-05 2.94484078e-07 0.999999999 -0.000128012647 -3.4134634e-05 0.999999991 -0.000176014941 2.32891987e-06 0.999999985 -0.000197740868 5.91151639e-05 0.999999979 -0.000154791278 0.000111015838 0.999999982 -8.37716391e-05 0.000134552408 0.999999987 -4.24093484e-05 8.42453087e-06 0.999999999 -2.40852505e-05 0.000137594583 0.99999999 -3.43038991e-05 1.2439675e-05 0.999999999 1.7194915e-05 0.000133058846 0.999999991 -8.96953236e-05 9.46403222e-05 0.999999991 -2.57655144e-05 0.000121104553 0.999999992 -0.000151965143 0.000186956246 0.999999971 -4.77008703e-05 4.3301322e-05 0.999999998 -8.36633086e-05 -7.97329244e-05 0.999999993 -9.44830033e-05 -7.69459118e-05 0.999999993 -0.000104479703 -7.42200103e-05 0.999999992 -0.000140461204 1.57376608e-05 0.99999999 -0.73647186 0.67646818 -1.67309726e-05 -0.742052434 0.670341842 9.20436447e-06 -0.803907527 0.594754309 1.55134233e-05 -0.806915141 0.590667381 1.09614199e-05 -0.841886503 0.539654623 5.86099896e-05 -0.843372071 0.537330019 1.32933841e-05 -0.860162343 0.510020323 0.00011901601 -0.860671588 0.509160503 1.63660937e-05 -0.865375617 0.501123743 0.000191848271 -0.865373829 0.501126867 2.02079663e-05 -0.865401155 0.501079622 -0.000232451586 -0.860165747 0.510014573 -0.000152540003 -0.841889469 0.539649992 -8.58843223e-05 -0.803910393 0.594750433 -3.81205715e-05 -0.736474775 0.676465007 -2.34613717e-06 -0.624685248 0.780876648 2.53419695e-05 -0.63442024 0.772988331 7.82431396e-06 -0.454035858 0.89098341 4.75426162e-05 -0.469163717 0.883111209 6.70561371e-06 -0.227612995 0.973751673 6.58392644e-05 -0.246648651 0.96910497 5.72272881e-06 0.0198415283 0.999803134 8.09835282e-05 0.0017217845 0.999998518 4.84892164e-06 0.241851015 0.970313391 9.36656787e-05 0.22849618 0.973544809 4.10948206e-06 -0.624682197 0.780879089 -4.16308072e-05 -0.454032779 0.890984979 -6.15085916e-05 -0.227610039 0.973752363 -7.7692363e-05 0.0198439276 0.999803086 -9.09154168e-05 0.241852544 0.970313009 -0.000102105535 0.405362748 0.914155918 3.34356757e-06 0.413751137 0.910390018 -0.00011166204 0.531815415 0.846860298 2.73383413e-06 0.536762003 0.843733689 -0.000119649459 0.617983468 0.786191092 -1.99193983e-05 0.62093608 0.783861199 -7.80709338e-05 0.651875718 0.758325818 -4.10716733e-05 0.652008338 0.758211795 -1.34631127e-07 0.413750335 0.910390383 0.000104604765 0.536761149 0.843734233 0.000113883681 0.62097238 0.783832437 0.000122011323 0.651961004 0.758252493 8.1100905e-05 5.77922985e-05 -8.40177221e-05 0.999999995 4.73043487e-05 -3.01430397e-05 0.999999998 7.80065362e-05 -4.22933694e-05 0.999999996 4.9650964e-05 -2.3746414e-05 0.999999998 0.00010046049 3.40452223e-06 0.999999995 5.23948655e-05 -1.89608127e-05 0.999999998 0.00013005479 6.04240822e-05 0.99999999 5.61858218e-05 -1.50695085e-05 0.999999998 0.000150219649 0.000134354448 0.99999998 6.09835797e-05 -1.20186326e-05 0.999999998 -1.84916948e-05 -0.00025735241 0.999999967 -4.18845146e-06 -0.000173828012 0.999999985 2.25636312e-05 -0.000114885953 0.999999993 4.05132266e-05 -7.47991777e-05 0.999999996 5.43607215e-05 -4.89228402e-05 0.999999997 6.58301187e-05 -3.47513417e-05 0.999999997 4.37242639e-05 -3.82253731e-05 0.999999998 7.54796896e-05 -3.16223865e-05 0.999999997 3.7017289e-05 -4.70336874e-05 0.999999998 8.23709464e-05 -3.89154828e-05 0.999999996 2.60045165e-05 -5.38544468e-05 0.999999998 8.48458167e-05 -5.34385097e-05 0.999999995 1.21824089e-05 -5.52867839e-05 0.999999998 8.31193813e-05 -6.9710939e-05 0.999999994 -2.94501314e-07 -5.05105737e-05 0.999999999 3.41346613e-05 -0.00012801265 0.999999991 -2.32888073e-06 -0.000176014908 0.999999985 -5.91151311e-05 -0.000197740832 0.999999979 -0.000111015789 -0.000154791268 0.999999982 -0.000134552379 -8.37716676e-05 0.999999987 -8.42450259e-06 -4.24093472e-05 0.999999999 -0.00013759456 -2.40852753e-05 0.99999999 -1.24396587e-05 -3.43039077e-05 0.999999999 -0.000133058842 1.7194901e-05 0.999999991 -9.46403049e-05 -8.96953286e-05 0.999999991 -0.000121104567 -2.57655436e-05 0.999999992 -0.000186956237 -0.000151965177 0.999999971 -4.33013165e-05 -4.77008685e-05 0.999999998 7.9732939e-05 -8.36633036e-05 0.999999993 7.69459362e-05 -9.4483025e-05 0.999999993 7.42200683e-05 -0.000104479681 0.999999992 -1.57376027e-05 -0.000140461183 0.99999999 -0.676468053 -0.736471977 -1.67232823e-05 -0.670341723 -0.742052542 9.21204345e-06 -0.594754166 -0.803907632 1.55250419e-05 -0.590667238 -0.806915246 1.09668888e-05 -0.539654467 -0.841886603 5.86120013e-05 -0.537329857 -0.843372174 1.32925113e-05 -0.51002016 -0.860162439 0.000119015799 -0.509160341 -0.860671684 1.63659612e-05 -0.50112358 -0.865375711 0.000191848223 -0.501126704 -0.865373923 2.02079466e-05 -0.501079459 -0.865401249 -0.000232451465 -0.51001441 -0.860165843 -0.000152540051 -0.539649824 -0.841889577 -8.58858201e-05 -0.594750285 -0.803910503 -3.81169657e-05 -0.6764649 -0.736474873 -2.34186613e-06 -0.780876483 -0.624685455 2.53416395e-05 -0.772988229 -0.634420364 7.83276903e-06 -0.890983373 -0.454035932 4.75884135e-05 -0.883111131 -0.469163862 6.69812585e-06 -0.973751654 -0.227613077 6.59025639e-05 -0.969104814 -0.246649264 5.6217818e-06 -0.999803143 0.019841074 8.07452759e-05 -0.999998518 0.0017215184 4.82359942e-06 -0.970313416 0.241850916 9.35774332e-05 -0.973544816 0.228496152 4.16643907e-06 -0.780878923 -0.624682404 -4.16578537e-05 -0.890984918 -0.454032897 -6.1584602e-05 -0.973752286 -0.227610367 -7.76267951e-05 -0.999803087 0.0198438754 -9.07278581e-05 -0.970313041 0.241852417 -0.000101958824 -0.914156017 0.405362524 3.38319396e-06 -0.910390107 0.413750941 -0.00011150523 -0.846860316 0.531815387 2.79480118e-06 -0.843733801 0.536761827 -0.000119631636 -0.786191174 0.617983363 -1.9910079e-05 -0.783861314 0.620935934 -7.80673209e-05 -0.758326009 0.651875496 -4.10722927e-05 -0.758211993 0.652008108 -1.40261126e-07 -0.910390499 0.413750079 0.00010449762 -0.843734293 0.536761055 0.000113846609 -0.783832519 0.620972276 0.00012202537 -0.758252665 0.651960804 8.11051583e-05 8.40177006e-05 5.77922991e-05 0.999999995 3.01430387e-05 4.73043585e-05 0.999999998 4.22933702e-05 7.80065408e-05 0.999999996 2.37464112e-05 4.96509706e-05 0.999999998 -3.40453426e-06 0.000100460485 0.999999995 1.89608135e-05 5.239487e-05 0.999999998 -6.04241074e-05 0.000130054784 0.99999999 1.50695022e-05 5.61858178e-05 0.999999998 -0.000134354484 0.000150219624 0.99999998 1.20186319e-05 6.09835726e-05 0.999999998 0.000257352436 -1.8491671e-05 0.999999967 0.000173828026 -4.18844651e-06 0.999999985 0.000114885968 2.25636362e-05 0.999999993 7.47991729e-05 4.05132343e-05 0.999999996 4.89228343e-05 5.43607383e-05 0.999999997 3.47513288e-05 6.58301395e-05 0.999999997 3.82253667e-05 4.37242725e-05 0.999999998 3.162236e-05 7.54797015e-05 0.999999997 4.70336711e-05 3.7017295e-05 0.999999998 3.89154472e-05 8.23709551e-05 0.999999996 5.38544336e-05 2.60045459e-05 0.999999998 5.34385171e-05 8.48458174e-05 0.999999995 5.52867949e-05 1.21824075e-05 0.999999998 6.97109463e-05 8.31193736e-05 0.999999994 5.05105747e-05 -2.94505329e-07 0.999999999 0.000128012633 3.41346844e-05 0.999999991 0.000176014898 -2.32886123e-06 0.999999985 0.000197740845 -5.91150999e-05 0.999999979 0.000154791329 -0.00011101579 0.999999982 8.37717039e-05 -0.000134552395 0.999999987 4.24093301e-05 -8.42453078e-06 0.999999999 2.40852827e-05 -0.000137594568 0.99999999 3.43039027e-05 -1.2439666e-05 0.999999999 -1.71948878e-05 -0.000133058862 0.999999991 8.96953631e-05 -9.46402946e-05 0.999999991 2.57655593e-05 -0.000121104545 0.999999992 0.000151965222 -0.000186956208 0.999999971 4.77008742e-05 -4.3301298e-05 0.999999998 8.36632679e-05 7.97329731e-05 0.999999993 9.44829773e-05 7.69459352e-05 0.999999993 0.000104479684 7.42200381e-05 0.999999992 0.000140461235 -1.57376196e-05 0.99999999 0.736472075 -0.676467946 -1.67383031e-05 0.742052628 -0.670341627 9.20271073e-06 0.80390772 -0.594754047 1.55124559e-05 0.806915333 -0.590667119 1.09640176e-05 0.841886684 -0.539654341 5.86108011e-05 0.84337225 -0.537329738 1.32937528e-05 0.860162512 -0.510020038 0.000119016054 0.860671757 -0.509160217 1.63661519e-05 0.865375783 -0.501123455 0.000191848295 0.865373995 -0.501126579 2.02079947e-05 0.865401321 -0.501079335 -0.000232451593 0.860165917 -0.510014286 -0.000152539907 0.841889656 -0.539649701 -8.5884301e-05 0.8039106 -0.594750154 -3.81186904e-05 0.736474971 -0.676464794 -2.34153029e-06 0.624685499 -0.780876448 2.53380966e-05 0.634420488 -0.772988127 7.81065039e-06 0.454036315 -0.890983178 4.75133065e-05 0.469164096 -0.883111007 6.70974013e-06 0.227613323 -0.973751596 6.58255325e-05 0.246649264 -0.969104814 5.69420275e-06 -0.0198413952 -0.999803137 8.0828892e-05 -0.00172175867 -0.999998518 4.86383609e-06 -0.241850777 -0.970313451 9.35945834e-05 -0.228496097 -0.973544829 4.15588783e-06 0.624682404 -0.780878923 -4.1607944e-05 0.454033162 -0.890984783 -6.14751527e-05 0.227610491 -0.973752257 -7.75950195e-05 -0.0198439276 -0.999803086 -9.07865675e-05 -0.24185225 -0.970313083 -0.000102103708 -0.405362336 -0.914156101 3.34518269e-06 -0.413750752 -0.910390192 -0.000111660071 -0.5318151 -0.846860496 2.73534086e-06 -0.536761688 -0.843733889 -0.000119648572 -0.617983229 -0.786191279 -1.99174184e-05 -0.620935819 -0.783861406 -7.80703514e-05 -0.651875496 -0.758326009 -4.10718718e-05 -0.652008119 -0.758211984 -1.36419675e-07 -0.413749925 -0.910390569 0.000104605735 -0.536760842 -0.843734428 0.000113886195 -0.62097213 -0.783832634 0.00012201455 -0.651960782 -0.758252684 8.11022643e-05 -5.77923079e-05 8.40176939e-05 0.999999995 -4.73043579e-05 3.01430192e-05 0.999999998 -7.80065534e-05 4.22933425e-05 0.999999996 -4.96509804e-05 2.3746403e-05 0.999999998 -0.000100460491 -3.40455087e-06 0.999999995 -5.23948668e-05 1.89607987e-05 0.999999998 -0.00013005477 -6.04241187e-05 0.99999999 -5.61858195e-05 1.50695008e-05 0.999999998 -0.000150219614 -0.000134354501 0.99999998 -6.09835756e-05 1.20186134e-05 0.999999998 1.84916267e-05 0.000257352382 0.999999967 4.18840419e-06 0.000173828005 0.999999985 -2.2563655e-05 0.000114885958 0.999999993 -4.0513254e-05 7.47991767e-05 0.999999996 -5.43607489e-05 4.89228392e-05 0.999999997 -6.58301533e-05 3.47513136e-05 0.999999997 -4.37242818e-05 3.82253593e-05 0.999999998 -7.54797131e-05 3.16223633e-05 0.999999997 -3.70173033e-05 4.70336872e-05 0.999999998 -8.23709593e-05 3.89154341e-05 0.999999996 -2.60045435e-05 5.38544246e-05 0.999999998 -8.48458031e-05 5.3438507e-05 0.999999995 -1.21823785e-05 5.52867958e-05 0.999999998 -8.31194043e-05 6.97109165e-05 0.999999994 2.94449067e-07 5.0510566e-05 0.999999999 -3.41347112e-05 0.000128012653 0.999999991 2.32881988e-06 0.000176014893 0.999999985 5.91150564e-05 0.000197740858 0.999999979 0.000111015756 0.000154791337 0.999999982 0.000134552359 8.37716955e-05 0.999999987 8.42449931e-06 4.24093406e-05 0.999999999 0.000137594561 2.40853085e-05 0.99999999 1.24396401e-05 3.43039101e-05 0.999999999 0.000133058871 -1.7194863e-05 0.999999991 9.46402867e-05 8.96953727e-05 0.999999991 0.000121104538 2.57655851e-05 0.999999992 0.000186956207 0.000151965244 0.999999971 4.33012867e-05 4.77008941e-05 0.999999998 -7.97329638e-05 8.36632927e-05 0.999999993 -7.69459818e-05 9.44829925e-05 0.999999993 -7.42200849e-05 0.00010447967 0.999999992 1.57376034e-05 0.000140461216 0.99999999 0.676467797 0.736472212 -1.67195501e-05 0.670341465 0.742052775 9.19910787e-06 0.594753922 0.803907813 1.55053089e-05 0.590666988 0.806915429 1.09613258e-05 0.539654207 0.84188677 5.86087868e-05 0.537329609 0.843372332 1.32946159e-05 0.510019902 0.860162593 0.000119016134 0.50916008 0.860671838 1.63662153e-05 0.501123317 0.865375863 0.000191848168 0.501126442 0.865374075 2.02079797e-05 0.501079197 0.865401401 -0.000232451568 0.51001415 0.860165998 -0.000152539821 0.539649579 0.841889734 -8.5882785e-05 0.594750017 0.803910701 -3.81222991e-05 0.676464676 0.736475079 -2.31824159e-06 0.780876365 0.624685602 2.52978166e-05 0.772988096 0.634420526 7.83518318e-06 0.89098314 0.454036388 4.75789205e-05 0.883111031 0.469164052 6.74001257e-06 0.973751586 0.227613365 6.5975918e-05 0.969104793 0.246649345 5.70279075e-06 0.999803144 -0.0198410479 8.09754628e-05 0.999998519 -0.00172114507 4.84501265e-06 0.970313535 -0.241850439 9.36086048e-05 0.973544938 -0.22849563 4.17132079e-06 0.780878823 0.624682529 -4.16207942e-05 0.890984723 0.45403328 -6.15825784e-05 0.973752229 0.227610613 -7.76912454e-05 0.999803095 -0.0198434499 -9.07781331e-05 0.970313146 -0.241851996 -0.000101952316 0.914156101 -0.405362336 3.41412047e-06 0.910390259 -0.413750605 -0.000111571021 0.846860512 -0.531815075 2.74815629e-06 0.843733971 -0.53676156 -0.000119666389 0.786191371 -0.617983113 -1.99267495e-05 0.783861488 -0.620935715 -7.80739706e-05 0.758326226 -0.651875243 -4.10712621e-05 0.758212182 -0.652007889 -1.30789774e-07 0.910390581 -0.413749898 0.000104565066 0.843734442 -0.53676082 0.00011385726 0.783832744 -0.620971991 0.000122000501 0.758252882 -0.651960551 8.10980292e-05</float_array>
        <technique_common><accessor source="#vfx_kurp_0440-mesh-normals-array" count="336" stride="3"><param name="X" type="float"/><param name="Y" type="float"/><param name="Z" type="float"/></accessor></technique_common>
      </source>
      <source id="vfx_kurp_0440-mesh-uv0">
        <float_array id="vfx_kurp_0440-mesh-uv0-array" count="672">-0.0299999528 0.807692349 0.470000058 0.807692289 -0.0299999584 0.730769217 0.470000029 0.730769217 -0.0299999621 0.653846145 0.470000029 0.653846145 -0.0299999677 0.576923072 0.470000029 0.576923072 -0.0299999714 0.50000006 0.470000029 0.5 0.970000029 0.49999994 0.970000029 0.576923013 0.970000029 0.653846085 0.970000029 0.730769217 0.970000029 0.807692289 0.970000029 0.884615362 0.470000058 0.884615362 0.970000029 0.961538494 0.469999999 0.961538434 0.970000029 1.03846145 0.469999999 1.03846157 0.970000029 1.11538458 0.469999999 1.11538458 0.970000029 1.19230771 0.469999999 1.19230771 -0.029999949 0.884615362 -0.0299999435 0.961538494 -0.0299999397 1.03846157 -0.0299999341 1.11538458 -0.0299999304 1.19230771 0.470000029 1.26923084 -0.0299999248 1.26923084 0.470000029 1.34615386 -0.0300000403 1.34615386 0.470000029 1.42307699 -0.0300000347 1.42307699 0.470000029 1.5 -0.030000031 1.5 0.970000029 1.26923072 0.970000029 1.34615374 0.970000029 1.42307687 0.970000029 1.5 -0.0299999528 0.807692349 0.470000058 0.807692289 -0.0299999584 0.730769217 0.470000058 0.730769217 -0.0299999621 0.653846145 0.470000058 0.653846145 -0.0299999677 0.576923072 0.470000058 0.576923013 -0.0299999714 0.49999994 0.470000058 0.5 0.970000088 0.49999994 0.970000088 0.576923013 0.970000088 0.653846085 0.970000088 0.730769217 0.970000088 0.80769223 0.970000088 0.884615362 0.470000058 0.884615421 0.970000088 0.961538434 0.470000058 0.961538494 0.970000088 1.03846145 0.469999999 1.03846145 0.970000088 1.11538458 0.470000058 1.11538458 0.970000088 1.19230771 0.470000058 1.19230771 -0.029999949 0.884615362 -0.0299999435 0.961538494 -0.0299999397 1.03846157 -0.0299999341 1.1153847 -0.0300000496 1.19230771 0.470000029 1.26923084 -0.0299999248 1.26923084 0.470000088 1.34615386 -0.0299999211 1.34615397 0.470000088 1.42307699 -0.0300000347 1.42307711 0.470000029 1.5 -0.0299999118 1.5 0.970000088 1.26923084 0.970000088 1.34615386 0.970000088 1.42307699 0.970000088 1.5 -0.0299999528 0.807692349 0.470000058 0.807692289 -0.0299999584 0.730769217 0.470000029 0.730769217 -0.0299999621 0.653846145 0.470000029 0.653846145 -0.0299999677 0.576923072 0.470000029 0.576923072 -0.0299999714 0.50000006 0.470000029 0.5 0.970000029 0.49999994 0.970000029 0.576923013 0.970000029 0.653846085 0.970000029 0.730769217 0.970000029 0.807692289 0.970000029 0.884615362 0.470000058 0.884615362 0.970000029 0.961538494 0.469999999 0.961538434 0.970000029 1.03846145 0.469999999 1.03846157 0.970000029 1.11538458 0.469999999 1.11538458 0.970000029 1.19230771 0.469999999 1.19230771 -0.029999949 0.884615362 -0.0299999435 0.961538494 -0.0299999397 1.03846157 -0.0299999341 1.11538458 -0.0299999304 1.19230771 0.470000029 1.26923084 -0.0299999248 1.26923084 0.470000029 1.34615386 -0.0300000403 1.34615386 0.470000029 1.42307699 -0.0300000347 1.42307699 0.470000029 1.5 -0.030000031 1.5 0.970000029 1.26923072 0.970000029 1.34615374 0.970000029 1.42307687 0.970000029 1.5 -0.0299999528 0.807692349 0.470000058 0.807692289 -0.0299999584 0.730769217 0.470000058 0.730769217 -0.0299999621 0.653846145 0.470000058 0.653846145 -0.0299999677 0.576923072 0.470000058 0.576923013 -0.0299999714 0.49999994 0.470000058 0.5 0.970000088 0.49999994 0.970000088 0.576923013 0.970000088 0.653846085 0.970000088 0.730769217 0.970000088 0.80769223 0.970000088 0.884615362 0.470000058 0.884615421 0.970000088 0.961538434 0.470000058 0.961538494 0.970000088 1.03846145 0.469999999 1.03846145 0.970000088 1.11538458 0.470000058 1.11538458 0.970000088 1.19230771 0.470000058 1.19230771 -0.029999949 0.884615362 -0.0299999435 0.961538494 -0.0299999397 1.03846157 -0.0299999341 1.1153847 -0.0300000496 1.19230771 0.470000029 1.26923084 -0.0299999248 1.26923084 0.470000088 1.34615386 -0.0299999211 1.34615397 0.470000088 1.42307699 -0.0300000347 1.42307711 0.470000029 1.5 -0.0299999118 1.5 0.970000088 1.26923084 0.970000088 1.34615386 0.970000088 1.42307699 0.970000088 1.5 -0.0299999528 0.807692349 0.470000058 0.807692289 -0.0299999584 0.730769217 0.470000029 0.730769217 -0.0299999621 0.653846145 0.470000029 0.653846145 -0.0299999677 0.576923072 0.470000029 0.576923072 -0.0299999714 0.50000006 0.470000029 0.5 0.970000029 0.49999994 0.970000029 0.576923013 0.970000029 0.653846085 0.970000029 0.730769217 0.970000029 0.807692289 0.970000029 0.884615362 0.470000058 0.884615362 0.970000029 0.961538494 0.469999999 0.961538434 0.970000029 1.03846145 0.469999999 1.03846157 0.970000029 1.11538458 0.469999999 1.11538458 0.970000029 1.19230771 0.469999999 1.19230771 -0.029999949 0.884615362 -0.0299999435 0.961538494 -0.0299999397 1.03846157 -0.0299999341 1.11538458 -0.0299999304 1.19230771 0.470000029 1.26923084 -0.0299999248 1.26923084 0.470000029 1.34615386 -0.0300000403 1.34615386 0.470000029 1.42307699 -0.0300000347 1.42307699 0.470000029 1.5 -0.030000031 1.5 0.970000029 1.26923072 0.970000029 1.34615374 0.970000029 1.42307687 0.970000029 1.5 -0.0299999528 0.807692349 0.470000058 0.807692289 -0.0299999584 0.730769217 0.470000058 0.730769217 -0.0299999621 0.653846145 0.470000058 0.653846145 -0.0299999677 0.576923072 0.470000058 0.576923013 -0.0299999714 0.49999994 0.470000058 0.5 0.970000088 0.49999994 0.970000088 0.576923013 0.970000088 0.653846085 0.970000088 0.730769217 0.970000088 0.80769223 0.970000088 0.884615362 0.470000058 0.884615421 0.970000088 0.961538434 0.470000058 0.961538494 0.970000088 1.03846145 0.469999999 1.03846145 0.970000088 1.11538458 0.470000058 1.11538458 0.970000088 1.19230771 0.470000058 1.19230771 -0.029999949 0.884615362 -0.0299999435 0.961538494 -0.0299999397 1.03846157 -0.0299999341 1.1153847 -0.0300000496 1.19230771 0.470000029 1.26923084 -0.0299999248 1.26923084 0.470000088 1.34615386 -0.0299999211 1.34615397 0.470000088 1.42307699 -0.0300000347 1.42307711 0.470000029 1.5 -0.0299999118 1.5 0.970000088 1.26923084 0.970000088 1.34615386 0.970000088 1.42307699 0.970000088 1.5 -0.0299999528 0.807692349 0.470000058 0.807692289 -0.0299999584 0.730769217 0.470000029 0.730769217 -0.0299999621 0.653846145 0.470000029 0.653846145 -0.0299999677 0.576923072 0.470000029 0.576923072 -0.0299999714 0.50000006 0.470000029 0.5 0.970000029 0.49999994 0.970000029 0.576923013 0.970000029 0.653846085 0.970000029 0.730769217 0.970000029 0.807692289 0.970000029 0.884615362 0.470000058 0.884615362 0.970000029 0.961538494 0.469999999 0.961538434 0.970000029 1.03846145 0.469999999 1.03846157 0.970000029 1.11538458 0.469999999 1.11538458 0.970000029 1.19230771 0.469999999 1.19230771 -0.029999949 0.884615362 -0.0299999435 0.961538494 -0.0299999397 1.03846157 -0.0299999341 1.11538458 -0.0299999304 1.19230771 0.470000029 1.26923084 -0.0299999248 1.26923084 0.470000029 1.34615386 -0.0300000403 1.34615386 0.470000029 1.42307699 -0.0300000347 1.42307699 0.470000029 1.5 -0.030000031 1.5 0.970000029 1.26923072 0.970000029 1.34615374 0.970000029 1.42307687 0.970000029 1.5 -0.0299999528 0.807692349 0.470000058 0.807692289 -0.0299999584 0.730769217 0.470000058 0.730769217 -0.0299999621 0.653846145 0.470000058 0.653846145 -0.0299999677 0.576923072 0.470000058 0.576923013 -0.0299999714 0.49999994 0.470000058 0.5 0.970000088 0.49999994 0.970000088 0.576923013 0.970000088 0.653846085 0.970000088 0.730769217 0.970000088 0.80769223 0.970000088 0.884615362 0.470000058 0.884615421 0.970000088 0.961538434 0.470000058 0.961538494 0.970000088 1.03846145 0.469999999 1.03846145 0.970000088 1.11538458 0.470000058 1.11538458 0.970000088 1.19230771 0.470000058 1.19230771 -0.029999949 0.884615362 -0.0299999435 0.961538494 -0.0299999397 1.03846157 -0.0299999341 1.1153847 -0.0300000496 1.19230771 0.470000029 1.26923084 -0.0299999248 1.26923084 0.470000088 1.34615386 -0.0299999211 1.34615397 0.470000088 1.42307699 -0.0300000347 1.42307711 0.470000029 1.5 -0.0299999118 1.5 0.970000088 1.26923084 0.970000088 1.34615386 0.970000088 1.42307699 0.970000088 1.5</float_array>
        <technique_common><accessor source="#vfx_kurp_0440-mesh-uv0-array" count="336" stride="2"><param name="S" type="float"/><param name="T" type="float"/></accessor></technique_common>
      </source>
      <vertices id="vfx_kurp_0440-mesh-vertices"><input semantic="POSITION" source="#vfx_kurp_0440-mesh-positions"/></vertices>
      <triangles material="PreviewMaterial" count="416">
        <input semantic="VERTEX" source="#vfx_kurp_0440-mesh-vertices" offset="0"/>
        <input semantic="NORMAL" source="#vfx_kurp_0440-mesh-normals" offset="1"/>
        <input semantic="TEXCOORD" source="#vfx_kurp_0440-mesh-uv0" offset="2" set="0"/>
        <p>0 0 0 1 1 1 2 2 2 3 3 3 2 2 2 1 1 1 2 2 2 3 3 3 4 4 4 5 5 5 4 4 4 3 3 3 4 4 4 5 5 5 6 6 6 7 7 7 6 6 6 5 5 5 6 6 6 7 7 7 8 8 8 9 9 9 8 8 8 7 7 7 10 10 10 9 9 9 11 11 11 7 7 7 11 11 11 9 9 9 11 11 11 7 7 7 12 12 12 5 5 5 12 12 12 7 7 7 12 12 12 5 5 5 13 13 13 3 3 3 13 13 13 5 5 5 13 13 13 3 3 3 14 14 14 1 1 1 14 14 14 3 3 3 14 14 14 1 1 1 15 15 15 16 16 16 15 15 15 1 1 1 15 15 15 16 16 16 17 17 17 18 18 18 17 17 17 16 16 16 17 17 17 18 18 18 19 19 19 20 20 20 19 19 19 18 18 18 19 19 19 20 20 20 21 21 21 22 22 22 21 21 21 20 20 20 21 21 21 22 22 22 23 23 23 24 24 24 23 23 23 22 22 22 1 1 1 0 0 0 16 16 16 25 25 25 16 16 16 0 0 0 16 16 16 25 25 25 18 18 18 26 26 26 18 18 18 25 25 25 18 18 18 26 26 26 20 20 20 27 27 27 20 20 20 26 26 26 20 20 20 27 27 27 22 22 22 28 28 28 22 22 22 27 27 27 22 22 22 28 28 28 24 24 24 29 29 29 24 24 24 28 28 28 24 24 24 29 29 29 30 30 30 31 31 31 30 30 30 29 29 29 30 30 30 31 31 31 32 32 32 33 33 33 32 32 32 31 31 31 32 32 32 33 33 33 34 34 34 35 35 35 34 34 34 33 33 33 34 34 34 35 35 35 36 36 36 37 37 37 36 36 36 35 35 35 23 23 23 24 24 24 38 38 38 30 30 30 38 38 38 24 24 24 38 38 38 30 30 30 39 39 39 32 32 32 39 39 39 30 30 30 39 39 39 32 32 32 40 40 40 34 34 34 40 40 40 32 32 32 40 40 40 34 34 34 41 41 41 36 36 36 41 41 41 34 34 34 42 42 42 43 43 43 44 44 44 45 45 45 44 44 44 43 43 43 44 44 44 45 45 45 46 46 46 47 47 47 46 46 46 45 45 45 46 46 46 47 47 47 48 48 48 49 49 49 48 48 48 47 47 47 48 48 48 49 49 49 50 50 50 51 51 51 50 50 50 49 49 49 52 52 52 51 51 51 53 53 53 49 49 49 53 53 53 51 51 51 53 53 53 49 49 49 54 54 54 47 47 47 54 54 54 49 49 49 54 54 54 47 47 47 55 55 55 45 45 45 55 55 55 47 47 47 55 55 55 45 45 45 56 56 56 43 43 43 56 56 56 45 45 45 56 56 56 43 43 43 57 57 57 58 58 58 57 57 57 43 43 43 57 57 57 58 58 58 59 59 59 60 60 60 59 59 59 58 58 58 59 59 59 60 60 60 61 61 61 62 62 62 61 61 61 60 60 60 61 61 61 62 62 62 63 63 63 64 64 64 63 63 63 62 62 62 63 63 63 64 64 64 65 65 65 66 66 66 65 65 65 64 64 64 43 43 43 42 42 42 58 58 58 67 67 67 58 58 58 42 42 42 58 58 58 67 67 67 60 60 60 68 68 68 60 60 60 67 67 67 60 60 60 68 68 68 62 62 62 69 69 69 62 62 62 68 68 68 62 62 62 69 69 69 64 64 64 70 70 70 64 64 64 69 69 69 64 64 64 70 70 70 66 66 66 71 71 71 66 66 66 70 70 70 66 66 66 71 71 71 72 72 72 73 73 73 72 72 72 71 71 71 72 72 72 73 73 73 74 74 74 75 75 75 74 74 74 73 73 73 74 74 74 75 75 75 76 76 76 77 77 77 76 76 76 75 75 75 76 76 76 77 77 77 78 78 78 79 79 79 78 78 78 77 77 77 65 65 65 66 66 66 80 80 80 72 72 72 80 80 80 66 66 66 80 80 80 72 72 72 81 81 81 74 74 74 81 81 81 72 72 72 81 81 81 74 74 74 82 82 82 76 76 76 82 82 82 74 74 74 82 82 82 76 76 76 83 83 83 78 78 78 83 83 83 76 76 76 84 84 84 85 85 85 86 86 86 87 87 87 86 86 86 85 85 85 86 86 86 87 87 87 88 88 88 89 89 89 88 88 88 87 87 87 88 88 88 89 89 89 90 90 90 91 91 91 90 90 90 89 89 89 90 90 90 91 91 91 92 92 92 93 93 93 92 92 92 91 91 91 94 94 94 93 93 93 95 95 95 91 91 91 95 95 95 93 93 93 95 95 95 91 91 91 96 96 96 89 89 89 96 96 96 91 91 91 96 96 96 89 89 89 97 97 97 87 87 87 97 97 97 89 89 89 97 97 97 87 87 87 98 98 98 85 85 85 98 98 98 87 87 87 98 98 98 85 85 85 99 99 99 100 100 100 99 99 99 85 85 85 99 99 99 100 100 100 101 101 101 102 102 102 101 101 101 100 100 100 101 101 101 102 102 102 103 103 103 104 104 104 103 103 103 102 102 102 103 103 103 104 104 104 105 105 105 106 106 106 105 105 105 104 104 104 105 105 105 106 106 106 107 107 107 108 108 108 107 107 107 106 106 106 85 85 85 84 84 84 100 100 100 109 109 109 100 100 100 84 84 84 100 100 100 109 109 109 102 102 102 110 110 110 102 102 102 109 109 109 102 102 102 110 110 110 104 104 104 111 111 111 104 104 104 110 110 110 104 104 104 111 111 111 106 106 106 112 112 112 106 106 106 111 111 111 106 106 106 112 112 112 108 108 108 113 113 113 108 108 108 112 112 112 108 108 108 113 113 113 114 114 114 115 115 115 114 114 114 113 113 113 114 114 114 115 115 115 116 116 116 117 117 117 116 116 116 115 115 115 116 116 116 117 117 117 118 118 118 119 119 119 118 118 118 117 117 117 118 118 118 119 119 119 120 120 120 121 121 121 120 120 120 119 119 119 107 107 107 108 108 108 122 122 122 114 114 114 122 122 122 108 108 108 122 122 122 114 114 114 123 123 123 116 116 116 123 123 123 114 114 114 123 123 123 116 116 116 124 124 124 118 118 118 124 124 124 116 116 116 124 124 124 118 118 118 125 125 125 120 120 120 125 125 125 118 118 118 126 126 126 127 127 127 128 128 128 129 129 129 128 128 128 127 127 127 128 128 128 129 129 129 130 130 130 131 131 131 130 130 130 129 129 129 130 130 130 131 131 131 132 132 132 133 133 133 132 132 132 131 131 131 132 132 132 133 133 133 134 134 134 135 135 135 134 134 134 133 133 133 136 136 136 135 135 135 137 137 137 133 133 133 137 137 137 135 135 135 137 137 137 133 133 133 138 138 138 131 131 131 138 138 138 133 133 133 138 138 138 131 131 131 139 139 139 129 129 129 139 139 139 131 131 131 139 139 139 129 129 129 140 140 140 127 127 127 140 140 140 129 129 129 140 140 140 127 127 127 141 141 141 142 142 142 141 141 141 127 127 127 141 141 141 142 142 142 143 143 143 144 144 144 143 143 143 142 142 142 143 143 143 144 144 144 145 145 145 146 146 146 145 145 145 144 144 144 145 145 145 146 146 146 147 147 147 148 148 148 147 147 147 146 146 146 147 147 147 148 148 148 149 149 149 150 150 150 149 149 149 148 148 148 127 127 127 126 126 126 142 142 142 151 151 151 142 142 142 126 126 126 142 142 142 151 151 151 144 144 144 152 152 152 144 144 144 151 151 151 144 144 144 152 152 152 146 146 146 153 153 153 146 146 146 152 152 152 146 146 146 153 153 153 148 148 148 154 154 154 148 148 148 153 153 153 148 148 148 154 154 154 150 150 150 155 155 155 150 150 150 154 154 154 150 150 150 155 155 155 156 156 156 157 157 157 156 156 156 155 155 155 156 156 156 157 157 157 158 158 158 159 159 159 158 158 158 157 157 157 158 158 158 159 159 159 160 160 160 161 161 161 160 160 160 159 159 159 160 160 160 161 161 161 162 162 162 163 163 163 162 162 162 161 161 161 149 149 149 150 150 150 164 164 164 156 156 156 164 164 164 150 150 150 164 164 164 156 156 156 165 165 165 158 158 158 165 165 165 156 156 156 165 165 165 158 158 158 166 166 166 160 160 160 166 166 166 158 158 158 166 166 166 160 160 160 167 167 167 162 162 162 167 167 167 160 160 160 168 168 168 169 169 169 170 170 170 171 171 171 170 170 170 169 169 169 170 170 170 171 171 171 172 172 172 173 173 173 172 172 172 171 171 171 172 172 172 173 173 173 174 174 174 175 175 175 174 174 174 173 173 173 174 174 174 175 175 175 176 176 176 177 177 177 176 176 176 175 175 175 178 178 178 177 177 177 179 179 179 175 175 175 179 179 179 177 177 177 179 179 179 175 175 175 180 180 180 173 173 173 180 180 180 175 175 175 180 180 180 173 173 173 181 181 181 171 171 171 181 181 181 173 173 173 181 181 181 171 171 171 182 182 182 169 169 169 182 182 182 171 171 171 182 182 182 169 169 169 183 183 183 184 184 184 183 183 183 169 169 169 183 183 183 184 184 184 185 185 185 186 186 186 185 185 185 184 184 184 185 185 185 186 186 186 187 187 187 188 188 188 187 187 187 186 186 186 187 187 187 188 188 188 189 189 189 190 190 190 189 189 189 188 188 188 189 189 189 190 190 190 191 191 191 192 192 192 191 191 191 190 190 190 169 169 169 168 168 168 184 184 184 193 193 193 184 184 184 168 168 168 184 184 184 193 193 193 186 186 186 194 194 194 186 186 186 193 193 193 186 186 186 194 194 194 188 188 188 195 195 195 188 188 188 194 194 194 188 188 188 195 195 195 190 190 190 196 196 196 190 190 190 195 195 195 190 190 190 196 196 196 192 192 192 197 197 197 192 192 192 196 196 196 192 192 192 197 197 197 198 198 198 199 199 199 198 198 198 197 197 197 198 198 198 199 199 199 200 200 200 201 201 201 200 200 200 199 199 199 200 200 200 201 201 201 202 202 202 203 203 203 202 202 202 201 201 201 202 202 202 203 203 203 204 204 204 205 205 205 204 204 204 203 203 203 191 191 191 192 192 192 206 206 206 198 198 198 206 206 206 192 192 192 206 206 206 198 198 198 207 207 207 200 200 200 207 207 207 198 198 198 207 207 207 200 200 200 208 208 208 202 202 202 208 208 208 200 200 200 208 208 208 202 202 202 209 209 209 204 204 204 209 209 209 202 202 202 210 210 210 211 211 211 212 212 212 213 213 213 212 212 212 211 211 211 212 212 212 213 213 213 214 214 214 215 215 215 214 214 214 213 213 213 214 214 214 215 215 215 216 216 216 217 217 217 216 216 216 215 215 215 216 216 216 217 217 217 218 218 218 219 219 219 218 218 218 217 217 217 220 220 220 219 219 219 221 221 221 217 217 217 221 221 221 219 219 219 221 221 221 217 217 217 222 222 222 215 215 215 222 222 222 217 217 217 222 222 222 215 215 215 223 223 223 213 213 213 223 223 223 215 215 215 223 223 223 213 213 213 224 224 224 211 211 211 224 224 224 213 213 213 224 224 224 211 211 211 225 225 225 226 226 226 225 225 225 211 211 211 225 225 225 226 226 226 227 227 227 228 228 228 227 227 227 226 226 226 227 227 227 228 228 228 229 229 229 230 230 230 229 229 229 228 228 228 229 229 229 230 230 230 231 231 231 232 232 232 231 231 231 230 230 230 231 231 231 232 232 232 233 233 233 234 234 234 233 233 233 232 232 232 211 211 211 210 210 210 226 226 226 235 235 235 226 226 226 210 210 210 226 226 226 235 235 235 228 228 228 236 236 236 228 228 228 235 235 235 228 228 228 236 236 236 230 230 230 237 237 237 230 230 230 236 236 236 230 230 230 237 237 237 232 232 232 238 238 238 232 232 232 237 237 237 232 232 232 238 238 238 234 234 234 239 239 239 234 234 234 238 238 238 234 234 234 239 239 239 240 240 240 241 241 241 240 240 240 239 239 239 240 240 240 241 241 241 242 242 242 243 243 243 242 242 242 241 241 241 242 242 242 243 243 243 244 244 244 245 245 245 244 244 244 243 243 243 244 244 244 245 245 245 246 246 246 247 247 247 246 246 246 245 245 245 233 233 233 234 234 234 248 248 248 240 240 240 248 248 248 234 234 234 248 248 248 240 240 240 249 249 249 242 242 242 249 249 249 240 240 240 249 249 249 242 242 242 250 250 250 244 244 244 250 250 250 242 242 242 250 250 250 244 244 244 251 251 251 246 246 246 251 251 251 244 244 244 252 252 252 253 253 253 254 254 254 255 255 255 254 254 254 253 253 253 254 254 254 255 255 255 256 256 256 257 257 257 256 256 256 255 255 255 256 256 256 257 257 257 258 258 258 259 259 259 258 258 258 257 257 257 258 258 258 259 259 259 260 260 260 261 261 261 260 260 260 259 259 259 262 262 262 261 261 261 263 263 263 259 259 259 263 263 263 261 261 261 263 263 263 259 259 259 264 264 264 257 257 257 264 264 264 259 259 259 264 264 264 257 257 257 265 265 265 255 255 255 265 265 265 257 257 257 265 265 265 255 255 255 266 266 266 253 253 253 266 266 266 255 255 255 266 266 266 253 253 253 267 267 267 268 268 268 267 267 267 253 253 253 267 267 267 268 268 268 269 269 269 270 270 270 269 269 269 268 268 268 269 269 269 270 270 270 271 271 271 272 272 272 271 271 271 270 270 270 271 271 271 272 272 272 273 273 273 274 274 274 273 273 273 272 272 272 273 273 273 274 274 274 275 275 275 276 276 276 275 275 275 274 274 274 253 253 253 252 252 252 268 268 268 277 277 277 268 268 268 252 252 252 268 268 268 277 277 277 270 270 270 278 278 278 270 270 270 277 277 277 270 270 270 278 278 278 272 272 272 279 279 279 272 272 272 278 278 278 272 272 272 279 279 279 274 274 274 280 280 280 274 274 274 279 279 279 274 274 274 280 280 280 276 276 276 281 281 281 276 276 276 280 280 280 276 276 276 281 281 281 282 282 282 283 283 283 282 282 282 281 281 281 282 282 282 283 283 283 284 284 284 285 285 285 284 284 284 283 283 283 284 284 284 285 285 285 286 286 286 287 287 287 286 286 286 285 285 285 286 286 286 287 287 287 288 288 288 289 289 289 288 288 288 287 287 287 275 275 275 276 276 276 290 290 290 282 282 282 290 290 290 276 276 276 290 290 290 282 282 282 291 291 291 284 284 284 291 291 291 282 282 282 291 291 291 284 284 284 292 292 292 286 286 286 292 292 292 284 284 284 292 292 292 286 286 286 293 293 293 288 288 288 293 293 293 286 286 286 294 294 294 295 295 295 296 296 296 297 297 297 296 296 296 295 295 295 296 296 296 297 297 297 298 298 298 299 299 299 298 298 298 297 297 297 298 298 298 299 299 299 300 300 300 301 301 301 300 300 300 299 299 299 300 300 300 301 301 301 302 302 302 303 303 303 302 302 302 301 301 301 304 304 304 303 303 303 305 305 305 301 301 301 305 305 305 303 303 303 305 305 305 301 301 301 306 306 306 299 299 299 306 306 306 301 301 301 306 306 306 299 299 299 307 307 307 297 297 297 307 307 307 299 299 299 307 307 307 297 297 297 308 308 308 295 295 295 308 308 308 297 297 297 308 308 308 295 295 295 309 309 309 310 310 310 309 309 309 295 295 295 309 309 309 310 310 310 311 311 311 312 312 312 311 311 311 310 310 310 311 311 311 312 312 312 313 313 313 314 314 314 313 313 313 312 312 312 313 313 313 314 314 314 315 315 315 316 316 316 315 315 315 314 314 314 315 315 315 316 316 316 317 317 317 318 318 318 317 317 317 316 316 316 295 295 295 294 294 294 310 310 310 319 319 319 310 310 310 294 294 294 310 310 310 319 319 319 312 312 312 320 320 320 312 312 312 319 319 319 312 312 312 320 320 320 314 314 314 321 321 321 314 314 314 320 320 320 314 314 314 321 321 321 316 316 316 322 322 322 316 316 316 321 321 321 316 316 316 322 322 322 318 318 318 323 323 323 318 318 318 322 322 322 318 318 318 323 323 323 324 324 324 325 325 325 324 324 324 323 323 323 324 324 324 325 325 325 326 326 326 327 327 327 326 326 326 325 325 325 326 326 326 327 327 327 328 328 328 329 329 329 328 328 328 327 327 327 328 328 328 329 329 329 330 330 330 331 331 331 330 330 330 329 329 329 317 317 317 318 318 318 332 332 332 324 324 324 332 332 332 318 318 318 332 332 332 324 324 324 333 333 333 326 326 326 333 333 333 324 324 324 333 333 333 326 326 326 334 334 334 328 328 328 334 334 334 326 326 326 334 334 334 328 328 328 335 335 335 330 330 330 335 335 335 328 328 328</p>
      </triangles>
    </mesh></geometry>
  </library_geometries>
  <library_visual_scenes>
    <visual_scene id="Scene" name="Scene">
      <node id="vfx_kurp_0440" name="vfx_kurp_0440" type="NODE">
        <instance_geometry url="#vfx_kurp_0440-mesh"><bind_material><technique_common><instance_material symbol="PreviewMaterial" target="#PreviewMaterial"><bind_vertex_input semantic="UVSET0" input_semantic="TEXCOORD" input_set="0"/></instance_material></technique_common></bind_material></instance_geometry>
      </node>
    </visual_scene>
  </library_visual_scenes>
  <scene><instance_visual_scene url="#Scene"/></scene>
</COLLADA>
