<?xml version="1.0" encoding="utf-8"?>
<COLLADA xmlns="http://www.collada.org/2005/11/COLLADASchema" version="1.4.1">
  <asset>
    <contributor><authoring_tool>Morrobroom Kurpulio VFX preview converter</authoring_tool></contributor>
    <unit name="unit" meter="1"/>
    <up_axis>Z_UP</up_axis>
  </asset>
  <library_images>
    <image id="VFXTexture" name="darkmap_newgen-1.dds">
      <init_from>../../../Textures/Kurp/darkmap_newgen-1.dds</init_from>
    </image>
  </library_images>
  <library_effects>
    <effect id="PreviewEffect">
      <profile_COMMON>
        <newparam sid="VFXTexture-surface">
          <surface type="2D"><init_from>VFXTexture</init_from></surface>
        </newparam>
        <newparam sid="VFXTexture-sampler">
          <sampler2D><source>VFXTexture-surface</source></sampler2D>
        </newparam>
        <technique sid="common"><phong>
          <emission><color>0.08 0.08 0.08 1</color></emission>
          <ambient><color>0.2 0.2 0.2 1</color></ambient>
          <diffuse><texture texture="VFXTexture-sampler" texcoord="UVSET0"/></diffuse>
          <specular><color>0.15 0.15 0.15 1</color></specular>
          <shininess><float>8</float></shininess>
          <transparent opaque="A_ONE"><texture texture="VFXTexture-sampler" texcoord="UVSET0"/></transparent>
          <transparency><float>1</float></transparency>
        </phong></technique>
      </profile_COMMON>
      <extra><technique profile="GOOGLEEARTH"><double_sided>1</double_sided></technique></extra>
    </effect>
  </library_effects>
  <library_materials><material id="PreviewMaterial" name="PreviewMaterial"><instance_effect url="#PreviewEffect"/></material></library_materials>
  <library_geometries>
    <geometry id="vfx_kurp_0726-mesh" name="vfx_kurp_0726"><mesh>
      <source id="vfx_kurp_0726-mesh-positions">
        <float_array id="vfx_kurp_0726-mesh-positions-array" count="1092">1.85008855 4.15730382 0.266679113 1.08399811 4.1432917 0.183741959 1.85902859 3.86386784 -1.18751163 1.14196134 3.84911377 -1.26516807 0.254886336 3.89410063 0.0902142531 0.413582155 3.62778434 -1.34737147 -0.492798816 3.46094438 0.0025160298 -0.285218875 3.22273952 -1.42933931 -1.19772637 2.79289415 -0.0843477545 -0.902445068 2.63608873 -1.50542386 -1.75334883 1.95519143 -0.157822907 -1.39267238 1.90624732 -1.57010196 -2.06923129 1.06617039 -0.206240724 -1.68717506 1.07758686 -1.6152397 1.66236927 3.75848084 1.69042265 2.57022019 3.98866815 0.341713665 2.33617249 3.6002637 1.76062307 0.945301882 3.74372662 1.61276617 0.216922753 3.52239745 1.53056295 -0.481878269 3.1173526 1.44859502 -1.09910437 2.53070168 1.37251061 -1.58933166 1.80086026 1.30783242 -1.88383432 0.972199809 1.26269468 -1.92945732 0.135017474 1.24429037 -2.1232368 0.0433012159 -0.228539679 -1.73279806 0.240404521 -1.63364401 3.21800331 3.64866682 0.406178041 2.94156146 3.27996095 1.82082747 3.79880143 3.11322026 0.460263676 3.45368181 2.80900679 1.8685365 4.22222026 2.46892849 0.495605262 3.85257752 2.20761719 1.9019212 4.52314437 1.72285814 0.516083015 4.13639489 1.51000082 1.92133211 4.69610637 0.900133444 0.521511105 4.3000721 0.739942357 1.92660572 4.73987428 0.0261617058 0.512165576 4.34257428 -0.0785835258 1.91801619 4.65698788 -0.874270009 0.488719713 4.26642733 -0.92227872 1.89621147 4.45319722 -1.77776673 0.452170969 4.07715915 -1.76926301 1.86214051 4.13683664 -2.66293162 0.403763579 3.78268027 -2.59963367 1.81697784 4.27381842 -1.66387599 -1.01579395 4.4630866 -0.816891673 -0.981722907 4.53923368 0.0268036497 -0.959918206 4.49673137 0.845329404 -0.951328654 4.33305416 1.61538786 -0.956602269 4.04923685 2.31300416 -0.976013196 3.65034115 2.91439378 -1.00939776 3.13822077 3.38534794 -1.05710693 2.5328321 3.70565092 -1.11731137 3.71816256 -3.51079221 0.344910599 3.39263617 -3.39585481 1.76204723 3.2411239 -4.25593205 0.281409922 2.91559674 -4.14099598 1.69854648 2.64796894 -4.97395096 0.205809318 2.35703625 -4.81187702 1.62743986 1.99111709 -5.6072876 0.124695113 1.73981225 -5.40379669 1.5512708 1.28464721 -6.1475688 0.0397219809 1.0769444 -5.9094479 1.47156275 0.541875213 -6.58923015 -0.0475827786 0.380597437 -6.3241458 1.38970448 -0.22498883 -6.92908095 -0.135849383 -0.338242966 -6.64538215 1.30692257 -0.956401653 -7.14468832 -0.218288262 -1.06965604 -6.86098873 1.2244835 -0.872996505 -6.75560197 -1.65345087 -0.141583682 -6.53999517 -1.57101204 0.577256689 -6.21875871 -1.48822976 1.27360392 -5.80406112 -1.40637156 1.93647177 -5.29840989 -1.32666342 2.5536955 -4.70648994 -1.25049442 3.11225598 -4.03560893 -1.17938782 3.58929542 -3.29046774 -1.11588705 3.97933954 -2.49424665 -1.06095662 1.66068854 -2.56011875 2.70978711 1.87828659 -1.97075018 2.86613394 2.33425149 -2.57182605 1.95218791 2.53824856 -2.01501545 2.09784309 2.03775035 -1.34751625 2.93960153 2.68727989 -1.42672704 2.1652518 2.13569126 -0.669993452 2.92139479 2.77501728 -0.822479792 2.14952029 2.15108979 -0.0330126117 2.80455397 2.79099557 -0.221836542 2.04124132 2.09173389 0.576925074 2.59630691 2.73607841 0.35331475 1.84624126 1.95751651 1.13683271 2.30145311 2.61008355 0.880976757 1.56900913 0.77973539 -2.31498782 3.14752281 1.39241603 -3.10170191 2.47727114 0.527841199 -2.8272567 2.93000816 0.98373268 -1.75817729 3.29317793 1.13276375 -1.16988875 3.36058698 1.22050138 -0.565641623 3.34485522 1.23647986 0.0350018674 3.2365764 1.18156272 0.610153111 3.04157616 1.05556772 1.13781506 2.76434443 0.861133657 1.59589519 2.41305933 1.75125292 1.6236739 1.92860425 2.41564927 1.33905673 1.21772416 1.09954822 -3.55761154 2.1943611 0.23497364 -3.28316628 2.64709833 0.753491971 -3.9686363 1.83263582 -0.0923844518 -3.66888327 2.30425185 0.381871284 -4.30174615 1.42092285 -0.443501578 -3.98134202 1.91476639 -0.00661412508 -4.55296043 0.969681407 -0.810233765 -4.2170828 1.48848972 -0.403930184 -4.7206684 0.489012727 -1.1851312 -4.3748778 1.03484606 -0.802908744 -4.80521347 -0.0116870879 -1.56162313 -4.45530436 0.56250489 -1.19735918 -4.80842203 -0.523974502 -1.93411091 -4.46027106 0.0791573501 -1.55864969 -4.72971557 -1.01073908 -2.29540109 -4.38156482 -0.407606452 -1.92066894 -4.55809961 -1.51841445 -2.63656033 -4.21751149 -0.886528901 -0.740884765 -4.63840348 -1.60294161 -0.379595003 -4.71710982 -1.11617772 -0.00710736264 -4.71214324 -0.632830112 0.369384849 -4.63171645 -0.160489083 0.744282501 -4.47392157 0.293155176 1.11101443 -4.23818054 0.719431705 1.46213157 -3.92572153 1.10891708 1.78948974 -3.54000452 1.45176341 2.08235732 -3.08409516 1.73467333 -2.25984296 -4.31601441 -2.01152153 -2.95651629 -3.98857193 -1.35181878 -2.57361868 -4.00921199 -2.48550404 -3.25321631 -3.70013286 -1.79964913 -2.84093797 -3.65818877 -2.90857225 -3.52053561 -3.34910956 -2.22271697 -3.08098685 -3.2167535 -3.31560234 -3.74609005 -2.93075716 -2.6059378 -3.28705458 -2.73143368 -3.68786942 -3.94061403 -2.47262195 -2.95735166 -3.45966237 -2.2071393 -4.02499734 -4.10492207 -1.97889282 -3.27711818 -3.57133005 -1.66601296 -4.28648966 -4.21658951 -1.43776725 -3.53861027 -3.65152519 -1.0692524 -4.5190069 -4.29193492 -0.874146015 -3.75769981 -2.73741903 -1.13098501 -4.95303472 -2.66207361 -1.69460598 -4.73394525 -2.55040623 -2.23573149 -4.47245318 -2.38609829 -2.72946076 -4.15268643 -2.19157418 -3.18759586 -3.80127279 -1.96601973 -3.60594831 -3.41805214 -1.69870071 -3.9569718 -2.99498388 -1.4020004 -4.24541061 -2.54715358 -1.08204443 -4.47435023 -2.08186388 -2.9978426 -3.62483801 -1.32382163 -2.3316087 -4.06470226 -1.13167056 -2.56759473 -3.33234952 -1.93145308 -1.96611659 -3.72632604 -1.7577217 -1.62903026 -4.29347634 -0.909774176 -1.30062874 -3.94388381 -1.54761021 -0.886680815 -4.32481963 -0.658078064 -0.597220405 -3.97241921 -1.30902175 -0.099147046 -4.10638877 -0.370438984 0.111155262 -3.77407362 -1.05014128 0.611886974 -3.67878478 -0.0918624318 0.78418386 -3.36903022 -0.786430539 1.26327761 -2.99815209 0.187018915 1.36818782 -2.75601898 -0.536171149 -3.10120776 -3.42487244 -0.563876554 -3.52614596 -3.02322388 -1.45547588 -3.60354217 -2.85654989 -0.689363993 -2.9978426 -3.62483801 -1.32382163 -2.49973004 -3.81884907 -0.390145175 -2.3316087 -4.06470226 -1.13167056 -1.83424212 -4.03640636 -0.180033711 -1.62903026 -4.29347634 -0.909774176 -1.13083345 -4.06494211 0.0585547746 -0.886680815 -4.32481963 -0.658078064 -0.422457794 -3.8665965 0.317435335 -0.099147046 -4.10638877 -0.370438984 0.250570812 -3.46155312 0.581145983 0.611886974 -3.67878478 -0.0918624318 0.834574696 -2.84854192 0.831405479 1.26327761 -2.99815209 0.187018915 1.28479196 -2.07153785 1.04927894 1.76265789 -2.12941942 0.429247666 1.76265789 -2.12941942 0.429247666 1.81840506 -1.97901492 -0.318297655 -3.94589858 -2.29143531 -1.53928352 -4.00252357 -2.16374523 -0.769251545 -4.24623388 -1.45687969 -1.57376826 -4.28780687 -1.37277959 -0.8021526 -4.42088083 -0.54834691 -1.55914144 -4.45348497 -0.511250027 -0.788305236 -4.46791467 0.405139266 -1.49712191 -4.49783598 0.393088637 -0.729393965 -4.3893756 1.37534508 -1.39072201 -4.42293727 1.31332176 -0.628335765 -4.19075584 2.33571687 -1.24399867 -4.23415228 2.2242205 -0.489034863 -3.88041244 3.26207931 -1.06179531 -3.93955088 3.1029108 -0.316129563 -3.46893007 4.13315825 -0.849480487 -3.54927738 3.92936657 -0.114735508 -2.96847113 4.93089701 -0.612699583 -3.07491477 4.68669303 0.109795715 -3.46893007 4.13315825 -0.849480487 -3.88041244 3.26207931 -1.06179531 -3.0156642 4.02188929 -1.48231214 -3.40593774 3.1954335 -1.68370612 -4.19075584 2.33571687 -1.24399867 -3.70053943 2.31674345 -1.85661146 -4.3893756 1.37534508 -1.39072201 -3.88932409 1.4058445 -1.99591237 -4.46791467 0.405139266 -1.49712191 -3.96422306 0.485611652 -2.0969706 -4.42088083 -0.54834691 -1.55914144 -3.91987165 -0.418727694 -2.15588178 -4.24623388 -1.45687969 -1.57376826 -3.75419381 -1.28025672 -2.16972926 -3.94589858 -2.29143531 -1.53928352 -3.46891053 -2.07122233 -2.13682807 -3.52614596 -3.02322388 -1.45547588 -3.06992889 -2.76402724 -2.05694053 -2.3921412 5.64059442 -0.357145946 -2.52886679 5.36123022 0.352096253 -1.75340396 6.25085054 -0.088365286 -1.92378979 5.94248181 0.606971206 -1.10094892 6.72851399 0.174249011 -1.27133475 6.42014526 0.869585503 -0.37478762 7.0973536 0.453191848 -0.581325841 6.76687071 1.13433359 0.369604532 7.34402502 0.728368269 0.1253768 6.99887641 1.39539926 1.11984528 7.46901316 0.995577113 0.837370346 7.11700692 1.64894602 1.86505509 7.47472111 1.25128919 1.54477561 7.12382343 1.89180022 2.56091203 7.37960506 1.48183525 2.24063201 7.02870681 2.12234618 2.56091203 7.37960506 1.48183525 1.86505509 7.47472111 1.25128919 2.77424546 7.12122986 0.754769753 2.07838879 7.21634618 0.52422365 1.11984528 7.46901316 0.995577113 1.37098326 7.20952998 0.281369546 0.369604532 7.34402502 0.728368269 0.658989726 7.09139942 0.0278226054 -0.37478762 7.0973536 0.453191848 -0.0477126626 6.85939348 -0.233242884 -1.10094892 6.72851399 0.174249011 -0.737721569 6.51266803 -0.497990972 -1.75340396 6.25085054 -0.088365286 -1.39017673 6.0350044 -0.760605429 -2.3921412 5.64059442 -0.357145946 -1.99525387 5.45375325 -1.01548031 -2.96847113 4.93089701 -0.612699583 -2.54130184 4.77921602 -1.25778101 -3.7560412 1.01503167 -0.591480727 -3.73258318 0.0984970691 -0.34433788 -3.2985276 0.849141765 -1.08798047 -3.27548841 -0.000777395822 -0.858690881 -3.42065841 -0.831059596 -0.0691364957 -2.99858052 -0.801928361 -0.620817258 -2.84674873 -1.62917249 0.193227329 -2.50242935 -1.49001799 -0.394505731 -2.03950748 -2.20833329 0.416906722 -1.80817921 -1.99054808 -0.201483753 -1.06965922 -2.4816194 0.572627324 -0.974832846 -2.22689292 -0.0672727252 -0.0546691183 -2.38358775 0.632877819 -0.104779096 -2.14005503 -0.0163760241 -3.39011001 1.13666763 -0.0129919538 -3.54190005 1.97965401 -0.831243528 -3.20878577 1.97231611 -0.221054077 -3.7560412 1.01503167 -0.591480727 -3.36707081 0.286748738 0.216297614 -3.73258318 0.0984970691 -0.34433788 -3.09016294 -0.514402474 0.454171351 -3.42065841 -0.831059596 -0.0691364957 -2.59401177 -1.2024921 0.680482878 -2.84674873 -1.62917249 0.193227329 -1.89976166 -1.70302215 0.873504844 -2.03950748 -2.20833329 0.416906722 -1.06641531 -1.93936702 1.00771568 -1.06965922 -2.4816194 0.572627324 -0.196361637 -1.85252904 1.05861245 -0.0546691183 -2.38358775 0.632877819 0.548443118 -1.4007095 1.00121768 0.885121339 -1.8224032 0.56284287 0.885121339 -1.8224032 0.56284287 0.640026179 -1.68823502 -0.0737709251 -3.1129462 2.80588108 -1.01568921 -2.81198153 2.73964512 -0.392485312 -2.51891658 3.53181372 -1.15924582 -2.25942459 3.41251658 -0.525382936 -1.71865826 4.15043026 -1.25652935 -1.56516916 3.94784495 -0.609420297 -0.864436832 4.56102191 -1.29357538 -0.772562077 4.33033123 -0.644198172 0.051300116 4.80677454 -1.28129137 0.0779960326 4.55801545 -0.63263427 0.995022297 4.88220754 -1.22106803 0.954718898 4.62584377 -0.576084886 1.93396986 4.7878912 -1.11584883 1.82661878 4.53453888 -0.477383234 2.8935311 4.49322228 -0.955285426 2.658952 4.27696971 -0.337581874 3.71980924 4.06499587 -0.770354448 3.42836961 3.88177881 -0.166331028 2.8935311 4.49322228 -0.955285426 1.93396986 4.7878912 -1.11584883 2.75053441 3.98944384 -1.41257044 1.9182012 4.24701301 -1.5523718 0.995022297 4.88220754 -1.22106803 1.04630131 4.3383179 -1.65107345 0.051300116 4.80677454 -1.28129137 0.169578452 4.27048957 -1.70762288 -0.864436832 4.56102191 -1.29357538 -0.680979658 4.04280534 -1.71918678 -1.71865826 4.15043026 -1.25652935 -1.47358675 3.66031907 -1.68440891 -2.51891658 3.53181372 -1.15924582 -2.16784218 3.12499071 -1.6003715 -3.1129462 2.80588108 -1.01568921 -2.72039914 2.45211922 -1.46747387 -3.54190005 1.97965401 -0.831243528 -3.11720357 1.68478952 -1.29604247 4.45554122 3.50543237 -0.558008879 4.11374721 3.36379274 0.0306039938 5.08208044 2.8330485 -0.324789963 4.69773337 2.74041587 0.247089784 5.58495583 2.0683625 -0.0774184879 5.16694262 2.03086607 0.476845901 5.95392869 1.23306024 0.177432936 5.51198696 1.25537871 0.713660168 6.18286565 0.349230849 0.433333674 5.72733026 0.434474942 0.951572173 6.29242639 -0.495294746 0.668551757 5.83689125 -0.410051444 1.18679044 6.40198783 -1.33982372 0.903770784 5.94645274 -1.25457886 1.42200907 6.5115489 -2.18434751 1.13898839 6.05601412 -2.09910538 1.65722741 6.5115489 -2.18434751 1.13898839 6.40198783 -1.33982372 0.903770784 6.14759654 -2.38663127 0.5822388 6.03803542 -1.54210502 0.34702051 6.29242639 -0.495294746 0.668551757 5.92847394 -0.697577062 0.111801831 6.18286565 0.349230849 0.433333674 5.81891268 0.146949055 -0.123416436 5.95392869 1.23306024 0.177432936 5.60356938 0.967852821 -0.361328441 5.58495583 2.0683625 -0.0774184879 5.25852504 1.74334018 -0.598142708 5.08208044 2.8330485 -0.324789963 4.78931579 2.45288998 -0.827898825 4.45554122 3.50543237 -0.558008879 4.20532964 3.07626684 -1.04438466 3.71980924 4.06499587 -0.770354448 3.51995202 3.59425293 -1.24131969</float_array>
        <technique_common><accessor source="#vfx_kurp_0726-mesh-positions-array" count="364" stride="3"><param name="X" type="float"/><param name="Y" type="float"/><param name="Z" type="float"/></accessor></technique_common>
      </source>
      <source id="vfx_kurp_0726-mesh-normals">
        <float_array id="vfx_kurp_0726-mesh-normals-array" count="1092">-0.103842849 -0.993693492 -0.0423072998 0.152125826 -0.988064062 -0.0242310208 -0.117731368 -0.973481261 0.196146783 0.139987877 -0.969119963 0.203002195 0.39476566 -0.918769325 -0.00479589822 0.374836024 -0.903281398 0.208759839 0.594326106 -0.804114077 0.013305301 0.573189601 -0.790722551 0.214968667 0.762328185 -0.646446102 0.0310350672 0.735391964 -0.640193369 0.222151097 0.892609036 -0.448334859 0.0473810443 0.860585231 -0.451631863 0.235418181 0.978481073 -0.196743311 0.0621840774 0.945927908 -0.201133297 0.254491237 -0.0717045269 -0.957929811 -0.27790095 -0.3444055 -0.937084717 -0.0570708656 -0.310420829 -0.902407515 -0.298830362 0.1810699 -0.951659745 -0.248107681 0.411076315 -0.88538005 -0.2170678 0.605298447 -0.773407866 -0.188292492 0.762760942 -0.625560691 -0.163919394 0.887492912 -0.436895096 -0.146557179 0.97251062 -0.18980345 -0.134899012 0.99050041 -0.050536657 -0.127886604 0.996380743 -0.0543170531 0.0653840351 0.963936683 -0.0582393036 0.259681063 -0.568988998 -0.819426184 -0.0692260739 -0.533392645 -0.787333103 -0.309190672 -0.75606253 -0.649930966 -0.0771957932 -0.715039106 -0.626703838 -0.309776331 -0.880368626 -0.467552875 -0.0796579678 -0.839715192 -0.450132004 -0.303742614 -0.952536177 -0.294183443 -0.0783002719 -0.91382007 -0.280651158 -0.293543536 -0.988643681 -0.13037331 -0.0747427095 -0.951905698 -0.120605466 -0.281655576 -0.997361342 0.0199969601 -0.0697887822 -0.962589117 0.0262497173 -0.269690831 -0.985614769 0.156432286 -0.0639723924 -0.952758011 0.159455278 -0.258507614 -0.9582764 0.279977473 -0.0576103836 -0.927280837 0.280024694 -0.248468146 -0.918501165 0.392131948 -0.0508738149 -0.889347208 0.389397733 -0.239647551 -0.953379383 0.268512469 0.137727289 -0.979471501 0.149398809 0.135335042 -0.990637166 0.0176297018 0.135377985 -0.982121466 -0.127909044 0.138118438 -0.947100893 -0.286950768 0.143732932 -0.876850006 -0.456053607 0.152148528 -0.755813698 -0.63432901 0.162395693 -0.57779179 -0.797333532 0.174401511 -0.35764486 -0.915035048 0.186550302 -0.868251773 0.494218073 -0.043443708 -0.840299189 0.489624593 -0.23273382 -0.805799964 0.59115296 -0.0349942222 -0.776073698 0.588451735 -0.226791031 -0.731143956 0.68171545 -0.0263165429 -0.701362517 0.677574841 -0.22132093 -0.649315969 0.760302822 -0.0181215733 -0.621029693 0.753129755 -0.217066101 -0.557913953 0.829842633 -0.00965536594 -0.531626206 0.819679197 -0.213306332 -0.457096183 0.889416755 -0.000957003819 -0.433480176 0.876419737 -0.209722153 -0.343126948 0.939247823 0.00879911061 -0.321771154 0.923927204 -0.206934399 -0.284656206 0.958444403 0.0188459718 -0.255285694 0.944708769 -0.205802224 -0.2990562 0.925235995 0.233460367 -0.360807423 0.905088295 0.225018183 -0.470543315 0.857260719 0.209028822 -0.566062526 0.801118515 0.194376802 -0.653081372 0.735446488 0.180563522 -0.731370379 0.66097289 0.167964897 -0.803790481 0.57370256 0.157436449 -0.866752662 0.475991301 0.148903002 -0.915441756 0.376458464 0.142286389 -0.489787192 0.464213288 -0.737980034 -0.54419052 0.316550217 -0.77695086 -0.653304213 0.477938909 -0.587169486 -0.705985087 0.333787604 -0.624636609 -0.586165924 0.152934077 -0.795625966 -0.745338583 0.174807513 -0.643360498 -0.612919543 -0.031629665 -0.789512 -0.769551763 0.000876658363 -0.638583836 -0.617741776 -0.218875773 -0.755306887 -0.77491369 -0.181606274 -0.605415505 -0.599923635 -0.397897213 -0.694096132 -0.758278986 -0.357593485 -0.545105384 -0.558805115 -0.56750272 -0.604712747 -0.718509223 -0.524553564 -0.456714413 -0.307768008 0.4210259 -0.853238563 -0.42549519 0.595015211 -0.681843635 -0.244111962 0.549316867 -0.799162268 -0.360365971 0.276751312 -0.890811472 -0.400265482 0.118703173 -0.908678766 -0.424298688 -0.0556396766 -0.903811291 -0.428498948 -0.238963232 -0.871369741 -0.411506241 -0.415050196 -0.811416015 -0.371549995 -0.582127466 -0.723241464 -0.343945095 -0.658772036 -0.669119702 -0.529502671 -0.645785626 -0.550079855 -0.689313253 -0.601841973 -0.403278413 -0.352493076 0.709526638 -0.610180777 -0.168651602 0.665221896 -0.72734893 -0.271129077 0.806943143 -0.524720675 -0.0882175894 0.760607586 -0.643190297 -0.187315265 0.882101193 -0.432215775 -0.00712985559 0.832961258 -0.553285376 -0.10274492 0.93680435 -0.33442651 0.074316685 0.885578941 -0.458505146 -0.0193875083 0.972014337 -0.234120169 0.154187494 0.919547661 -0.361466895 0.0611471766 0.98913486 -0.133690883 0.230908215 0.936366905 -0.264383085 0.141339667 0.989527491 -0.0292992176 0.308980327 0.936927107 -0.163397535 0.221854235 0.971771295 0.0802573853 0.391299083 0.918705977 -0.0535196748 0.294298659 0.938259083 0.181819119 0.461860751 0.885781426 0.0455621694 0.0454519595 0.975940917 0.213245039 -0.0369595409 0.993960478 0.103327447 -0.115346329 0.993324334 0.00141102935 -0.192304592 0.976683607 -0.0954362364 -0.272082943 0.942817505 -0.192525387 -0.353256976 0.890246953 -0.287523689 -0.434014481 0.817902996 -0.377711688 -0.514488666 0.723123621 -0.460861846 -0.589891578 0.607009734 -0.532510196 0.35474287 0.895521066 0.268699677 0.518710069 0.845169459 0.128951346 0.410676646 0.840626751 0.353116635 0.572571378 0.792441217 0.210235429 0.466398475 0.765928641 0.442522067 0.629465325 0.716967477 0.299551402 0.512275417 0.683576485 0.519901035 0.673797474 0.63676484 0.374869981 0.5443945 0.609407735 0.576417245 0.703036857 0.567089305 0.429125737 0.57602824 0.509793922 0.638984838 0.733774902 0.471426516 0.489215119 0.598692032 0.40316494 0.692116957 0.75741408 0.363816512 0.542182125 0.605459399 0.358112068 0.710756402 0.763822195 0.319991886 0.560518373 0.418222447 0.377448888 0.826209611 0.411148706 0.420892244 0.808582996 0.387604241 0.527947294 0.755668318 0.356957012 0.624655275 0.6945412 0.327800317 0.694472687 0.640511232 0.283556493 0.773888592 0.566296885 0.226407044 0.849368575 0.476773399 0.172330157 0.902524721 0.394653575 0.115740515 0.943266174 0.311212241 0.416861148 0.668470961 0.615932917 0.217797625 0.800296187 0.558650345 0.413655339 0.669932929 0.61650558 0.215169223 0.801224708 0.558337867 0.00574392126 0.875516767 0.483153597 -0.00364348794 0.877505845 0.4795521 -0.227060573 0.895301568 0.383247438 -0.24704544 0.893639865 0.37466831 -0.45826018 0.846385008 0.271348532 -0.472769321 0.840478109 0.264737072 -0.649573991 0.741203305 0.16932599 -0.664776903 0.729464343 0.161100717 -0.808127108 0.583869799 0.0776314078 -0.814292636 0.575764326 0.0736406434 0.672149306 0.73353136 -0.100732585 0.812402826 0.581337979 -0.0452526526 0.818790268 0.572599684 -0.0413775247 0.665620392 0.738896208 -0.104794499 0.475874103 0.8615607 -0.176796488 0.467435637 0.865372563 -0.180649527 0.254026526 0.932346281 -0.257295427 0.25205762 0.932667755 -0.258065526 0.00574476847 0.940830045 -0.338830081 0.014303962 0.941367729 -0.337078916 -0.227688217 0.881490934 -0.413680806 -0.221124626 0.883883124 -0.412134108 -0.429103234 0.766583467 -0.477723981 -0.418536755 0.77399918 -0.475133932 -0.584700453 0.613518735 -0.530773155 -0.581180599 0.618229195 -0.529170836 -0.647401909 0.527198914 -0.550392654 -0.649040455 0.526268687 -0.549352125 -0.869768808 0.492147284 0.0359620708 -0.868901753 0.493777334 0.0345497973 0.905151354 0.425066709 -0.00439538596 0.910008503 0.414586386 -0.00162843078 0.962640323 0.269867328 0.0222538552 0.965391977 0.259721703 0.0237269523 0.991877201 0.12198003 0.0360623054 0.992865025 0.113536123 0.0364498452 0.999117601 -0.0161637083 0.0387653787 0.999013051 -0.0222151918 0.0384631014 0.989027862 -0.144238215 0.0319252953 0.988538674 -0.1476689 0.0313876782 0.964703537 -0.26280484 0.0167541582 0.964474849 -0.263662847 0.0164367858 0.927978942 -0.372586378 -0.00587150588 0.928580738 -0.371089213 -0.00553256875 0.879771687 -0.474082529 -0.0353204539 0.881709715 -0.470571553 -0.0339174141 0.820391411 -0.567366586 -0.071085081 0.824112936 -0.562298861 -0.0682485107 0.654599608 -0.509746032 0.55826368 0.703214312 -0.410556959 0.580458969 0.655830576 -0.507363908 0.558988479 0.703613004 -0.409633732 0.580628061 0.739213548 -0.303889697 0.601011133 0.739138644 -0.304573981 0.600756818 0.76155764 -0.189238325 0.619853868 0.761405273 -0.191564831 0.619326187 0.768419044 -0.0658630269 0.63654869 0.768588288 -0.0697030609 0.635935159 0.756898154 0.0669006714 0.650099596 0.757718428 0.0619212804 0.649637236 0.722794349 0.209046026 0.658686639 0.724367678 0.203658272 0.658646169 0.660636435 0.358866791 0.659374042 0.662540019 0.354233559 0.659969173 0.564437094 0.511411552 0.647972986 0.565299857 0.508977549 0.649136292 0.749815126 -0.651986361 -0.11265461 0.755697723 -0.645942531 -0.108070341 0.668305823 -0.726657946 -0.159171471 0.676105339 -0.720557042 -0.153880212 0.567612284 -0.795122393 -0.213533782 0.573721043 -0.791297144 -0.211407176 0.451591679 -0.849115762 -0.273984264 0.457472176 -0.846399625 -0.27262957 0.333761745 -0.881743414 -0.333364139 0.341020074 -0.879988698 -0.330643615 0.209733071 -0.895829014 -0.391793844 0.217948478 -0.895608967 -0.38779252 0.0888857896 -0.891408419 -0.444398861 0.0964249376 -0.892456651 -0.440707791 0.0339708858 -0.88356856 -0.467068067 0.0339706701 -0.883568348 -0.467068483 -0.217530427 -0.938097878 0.26954199 -0.158906467 -0.944087878 0.288871621 -0.217530618 -0.938097908 0.269541731 -0.157241085 -0.944072328 0.289832159 -0.0345027616 -0.943311831 0.330109601 -0.0322641155 -0.943039758 0.331111828 0.092249996 -0.923866587 0.371430299 0.0943344071 -0.923688808 0.371348901 0.213238199 -0.886911511 0.409777309 0.215071936 -0.886926767 0.408784751 0.331853429 -0.830611541 0.447166379 0.334123074 -0.829805625 0.446972479 0.43611941 -0.761156992 0.480041555 0.441232025 -0.756824508 0.482214645 0.521317045 -0.685631915 0.508072255 0.525041092 -0.681115044 0.510307895 0.593886565 -0.601564047 0.534246615 0.596251007 -0.597960091 0.535657042 0.748717604 0.0988094346 0.65548352 0.741641099 0.297508682 0.601212994 0.747835221 0.0991354839 0.656440887 0.738934631 0.305870201 0.600349091 0.67034652 0.511649203 0.537448263 0.666942176 0.515658965 0.537851249 0.530750071 0.700861411 0.476547632 0.531067788 0.700708653 0.476418291 0.318406615 0.850266701 0.419122613 0.320451208 0.849709739 0.418693662 0.0417716987 0.925995405 0.375216783 0.0408738107 0.925937479 0.375458541 -0.287213182 0.889631362 0.355055809 -0.298385027 0.885212202 0.356883362 0.846286545 -0.208546917 -0.490211452 0.802389547 -0.398813332 -0.443980789 0.805383115 -0.392710876 -0.444000232 0.845580514 -0.208582589 -0.491413165 0.837628048 0.00157454991 -0.546238752 0.837839813 -0.00800782748 -0.545857419 0.766586832 0.208088205 -0.607489858 0.767491131 0.203169911 -0.608012624 0.629351403 0.39316682 -0.670325789 0.629079575 0.393652579 -0.670295856 0.417832353 0.542352994 -0.728882264 0.416318763 0.543808019 -0.728664207 0.137350079 0.619090289 -0.773215474 0.13856222 0.618711594 -0.773302318 -0.202462342 0.579686016 -0.789286464 -0.189831153 0.581490228 -0.791096232 -0.368045202 0.515767615 -0.773644942 -0.365193213 0.514771674 -0.775657167 -0.464520826 0.814712876 0.34707828 -0.465843728 0.812456588 0.350576544 0.720567573 -0.560665216 -0.407966774 0.720543482 -0.560675299 -0.407995466 0.610674945 -0.694587111 -0.380295749 0.607272456 -0.697608495 -0.380213824 0.466653848 -0.806558949 -0.362900604 0.469361606 -0.804960636 -0.362957378 0.320484898 -0.877258271 -0.35736166 0.321057537 -0.877124451 -0.357176084 0.172897072 -0.917285692 -0.35873885 0.171111026 -0.917335529 -0.359467027 0.0236347364 -0.929745726 -0.3674429 0.0199927439 -0.929167714 -0.369117393 -0.129515889 -0.914388493 -0.383561362 -0.13492248 -0.91281111 -0.385450128 -0.277609319 -0.869191455 -0.409193451 -0.274730235 -0.870564049 -0.408217508 -0.398680916 -0.805890009 -0.437715456 -0.396378669 -0.808149008 -0.435636467 -0.374113592 -0.563503637 0.736547806 -0.226390141 -0.607364795 0.761482442 -0.37088364 -0.564663427 0.73729271 -0.232189646 -0.607496837 0.759628568 -0.0744093463 -0.622052803 0.779431562 -0.0782248381 -0.623269512 0.778084822 0.0746277775 -0.609961255 0.78890935 0.0728929084 -0.610851636 0.78838246 0.222262965 -0.570490314 0.790657939 0.222674547 -0.570161423 0.790779361 0.369551628 -0.499670651 0.783428896 0.372326097 -0.497976555 0.783193864 0.512817795 -0.387603122 0.766016794 0.509967965 -0.391233065 0.766073994 0.622337383 -0.254155227 0.74033864 0.622274484 -0.25428857 0.740345723 0.705250374 -0.0929641806 0.702836803 0.706621091 -0.0866958603 0.702260964 -0.503833231 -0.726016649 -0.468029808 -0.502339668 -0.72819024 -0.466255114 -0.591548564 -0.632019668 -0.500621049 -0.590620195 -0.634158473 -0.499009837 -0.660475541 -0.527376995 -0.534458198 -0.659979123 -0.529609088 -0.532861869 -0.709970386 -0.415547914 -0.568561327 -0.709891676 -0.418036262 -0.566832861 -0.738002656 -0.312278079 -0.598192678 -0.737964656 -0.314858194 -0.596885654 -0.745185073 -0.266884156 -0.6111236 -0.745185164 -0.266884204 -0.611123467 -0.745185231 -0.26688438 -0.611123309 -0.745185277 -0.266884404 -0.611123243 -0.745185277 -0.266884404 -0.611123243 -0.745185231 -0.26688438 -0.611123309 -0.842954955 0.0400662509 0.536490111 -0.842955131 0.040066375 0.536489825 -0.842955047 0.0400663229 0.536489961 -0.84295514 0.0400663949 0.53648981 -0.842955052 0.0400665405 0.536489937 -0.842954951 0.0400664486 0.536490103 -0.836178373 -0.00500130387 0.548434787 -0.835389609 -0.00735534108 0.549609042 -0.808343178 -0.109078126 0.578518166 -0.806895658 -0.11108297 0.580155126 -0.758768893 -0.22088385 0.612764304 -0.75711589 -0.222490422 0.614225969 -0.689818381 -0.325553762 0.646657057 -0.687853232 -0.326889625 0.648074922 -0.602115242 -0.419655139 0.679225146 -0.599648846 -0.420768842 0.680716418 -0.496978966 -0.499737158 0.70941855 -0.493766684 -0.500568023 0.711073918</float_array>
        <technique_common><accessor source="#vfx_kurp_0726-mesh-normals-array" count="364" stride="3"><param name="X" type="float"/><param name="Y" type="float"/><param name="Z" type="float"/></accessor></technique_common>
      </source>
      <source id="vfx_kurp_0726-mesh-uv0">
        <float_array id="vfx_kurp_0726-mesh-uv0-array" count="728">0.5 0.720000029 0.5 0.75999999 1 0.720000029 1 0.75999999 0.5 0.800000012 1 0.800000012 0.5 0.840000033 1 0.840000033 0.5 0.879999995 1 0.879999995 0.5 0.920000017 1 0.920000017 0.5 0.959999979 1 0.959999979 0 0.720000029 0.5 0.680000007 0 0.680000007 0 0.75999999 0 0.800000012 0 0.840000033 0 0.879999995 0 0.920000017 0 0.959999979 0 1 0.5 1 1 1 0.5 0.639999986 0 0.639999986 0.5 0.600000024 0 0.600000024 0.5 0.560000002 0 0.560000002 0.5 0.519999981 0 0.519999981 0.5 0.480000019 0 0.480000019 0.5 0.439999998 0 0.439999998 0.5 0.400000036 0 0.400000036 0.5 0.360000014 0 0.360000014 0.5 0.319999993 0 0.319999993 1 0.360000014 1 0.400000036 1 0.439999998 1 0.480000019 1 0.519999981 1 0.560000002 1 0.600000024 1 0.639999986 1 0.680000007 0.5 0.280000031 0 0.280000031 0.5 0.24000001 0 0.24000001 0.5 0.200000048 0 0.200000048 0.5 0.160000026 0 0.160000026 0.5 0.120000005 0 0.120000005 0.5 0.0800000429 0 0.0800000429 0.5 0.0400000215 0 0.0400000215 0.5 0 0 0 1 0 1 0.0400000215 1 0.0800000429 1 0.120000005 1 0.160000026 1 0.200000048 1 0.24000001 1 0.280000031 1 0.319999993 0.5 0.720000029 0.5 0.75999999 1 0.720000029 1 0.75999999 0.5 0.800000012 1 0.800000012 0.5 0.840000033 1 0.840000033 0.5 0.879999995 1 0.879999995 0.5 0.920000017 1 0.920000017 0.5 0.959999979 1 0.959999979 0 0.720000029 0.5 0.680000007 0 0.680000007 0 0.75999999 0 0.800000012 0 0.840000033 0 0.879999995 0 0.920000017 0 0.959999979 0 1 0.5 1 1 1 0.5 0.639999986 0 0.639999986 0.5 0.600000024 0 0.600000024 0.5 0.560000002 0 0.560000002 0.5 0.519999981 0 0.519999981 0.5 0.480000019 0 0.480000019 0.5 0.439999998 0 0.439999998 0.5 0.400000036 0 0.400000036 0.5 0.360000014 0 0.360000014 0.5 0.319999993 0 0.319999993 1 0.360000014 1 0.400000036 1 0.439999998 1 0.480000019 1 0.519999981 1 0.560000002 1 0.600000024 1 0.639999986 1 0.680000007 0.5 0.280000031 0 0.280000031 0.5 0.24000001 0 0.24000001 0.5 0.200000048 0 0.200000048 0.5 0.160000026 0 0.160000026 0.5 0.120000005 0 0.120000005 0.5 0.0800000429 0 0.0800000429 0.5 0.0400000215 0 0.0400000215 0.5 0 0 0 1 0 1 0.0400000215 1 0.0800000429 1 0.120000005 1 0.160000026 1 0.200000048 1 0.24000001 1 0.280000031 1 0.319999993 0.5 0.720000029 0.5 0.75999999 1 0.720000029 1 0.75999999 0.5 0.800000012 1 0.800000012 0.5 0.840000033 1 0.840000033 0.5 0.879999995 1 0.879999995 0.5 0.920000017 1 0.920000017 0.5 0.959999979 1 0.959999979 0 0.720000029 0.5 0.680000007 0 0.680000007 0.5 0.720000029 0 0.75999999 0.5 0.75999999 0 0.800000012 0.5 0.800000012 0 0.840000033 0.5 0.840000033 0 0.879999995 0.5 0.879999995 0 0.920000017 0.5 0.920000017 0 0.959999979 0.5 0.959999979 0 1 0.5 1 0.5 1 1 1 0.5 0.639999986 0 0.639999986 0.5 0.600000024 0 0.600000024 0.5 0.560000002 0 0.560000002 0.5 0.519999981 0 0.519999981 0.5 0.480000019 0 0.480000019 0.5 0.439999998 0 0.439999998 0.5 0.400000036 0 0.400000036 0.5 0.360000014 0 0.360000014 0.5 0.319999993 0 0.319999993 0.5 0.360000014 0.5 0.400000036 1 0.360000014 1 0.400000036 0.5 0.439999998 1 0.439999998 0.5 0.480000019 1 0.480000019 0.5 0.519999981 1 0.519999981 0.5 0.560000002 1 0.560000002 0.5 0.600000024 1 0.600000024 0.5 0.639999986 1 0.639999986 0.5 0.680000007 1 0.680000007 0.5 0.280000031 0 0.280000031 0.5 0.24000001 0 0.24000001 0.5 0.200000048 0 0.200000048 0.5 0.160000026 0 0.160000026 0.5 0.120000005 0 0.120000005 0.5 0.0800000429 0 0.0800000429 0.5 0.0400000215 0 0.0400000215 0.5 0 0 0 0.5 0 0.5 0.0400000215 1 0 1 0.0400000215 0.5 0.0800000429 1 0.0800000429 0.5 0.120000005 1 0.120000005 0.5 0.160000026 1 0.160000026 0.5 0.200000048 1 0.200000048 0.5 0.24000001 1 0.24000001 0.5 0.280000031 1 0.280000031 0.5 0.319999993 1 0.319999993 0.5 0.720000029 0.5 0.75999999 1 0.720000029 1 0.75999999 0.5 0.800000012 1 0.800000012 0.5 0.840000033 1 0.840000033 0.5 0.879999995 1 0.879999995 0.5 0.920000017 1 0.920000017 0.5 0.959999979 1 0.959999979 0 0.720000029 0.5 0.680000007 0 0.680000007 0.5 0.720000029 0 0.75999999 0.5 0.75999999 0 0.800000012 0.5 0.800000012 0 0.840000033 0.5 0.840000033 0 0.879999995 0.5 0.879999995 0 0.920000017 0.5 0.920000017 0 0.959999979 0.5 0.959999979 0 1 0.5 1 0.5 1 1 1 0.5 0.639999986 0 0.639999986 0.5 0.600000024 0 0.600000024 0.5 0.560000002 0 0.560000002 0.5 0.519999981 0 0.519999981 0.5 0.480000019 0 0.480000019 0.5 0.439999998 0 0.439999998 0.5 0.400000036 0 0.400000036 0.5 0.360000014 0 0.360000014 0.5 0.319999993 0 0.319999993 0.5 0.360000014 0.5 0.400000036 1 0.360000014 1 0.400000036 0.5 0.439999998 1 0.439999998 0.5 0.480000019 1 0.480000019 0.5 0.519999981 1 0.519999981 0.5 0.560000002 1 0.560000002 0.5 0.600000024 1 0.600000024 0.5 0.639999986 1 0.639999986 0.5 0.680000007 1 0.680000007 0.5 0.280000031 0 0.280000031 0.5 0.24000001 0 0.24000001 0.5 0.200000048 0 0.200000048 0.5 0.160000026 0 0.160000026 0.5 0.120000005 0 0.120000005 0.5 0.0800000429 0 0.0800000429 0.5 0.0400000215 0 0.0400000215 0.5 0 0 0 0.5 0 0.5 0.0400000215 1 0 1 0.0400000215 0.5 0.0800000429 1 0.0800000429 0.5 0.120000005 1 0.120000005 0.5 0.160000026 1 0.160000026 0.5 0.200000048 1 0.200000048 0.5 0.24000001 1 0.24000001 0.5 0.280000031 1 0.280000031 0.5 0.319999993 1 0.319999993</float_array>
        <technique_common><accessor source="#vfx_kurp_0726-mesh-uv0-array" count="364" stride="2"><param name="S" type="float"/><param name="T" type="float"/></accessor></technique_common>
      </source>
      <vertices id="vfx_kurp_0726-mesh-vertices"><input semantic="POSITION" source="#vfx_kurp_0726-mesh-positions"/></vertices>
      <triangles material="PreviewMaterial" count="400">
        <input semantic="VERTEX" source="#vfx_kurp_0726-mesh-vertices" offset="0"/>
        <input semantic="NORMAL" source="#vfx_kurp_0726-mesh-normals" offset="1"/>
        <input semantic="TEXCOORD" source="#vfx_kurp_0726-mesh-uv0" offset="2" set="0"/>
        <p>0 0 0 1 1 1 2 2 2 2 2 2 1 1 1 3 3 3 4 4 4 3 3 3 1 1 1 3 3 3 4 4 4 5 5 5 6 6 6 5 5 5 4 4 4 5 5 5 6 6 6 7 7 7 8 8 8 7 7 7 6 6 6 7 7 7 8 8 8 9 9 9 10 10 10 9 9 9 8 8 8 9 9 9 10 10 10 11 11 11 12 12 12 11 11 11 10 10 10 11 11 11 12 12 12 13 13 13 14 14 14 15 15 15 16 16 16 15 15 15 14 14 14 0 0 0 17 17 17 0 0 0 14 14 14 0 0 0 17 17 17 1 1 1 18 18 18 1 1 1 17 17 17 1 1 1 18 18 18 4 4 4 19 19 19 4 4 4 18 18 18 4 4 4 19 19 19 6 6 6 20 20 20 6 6 6 19 19 19 6 6 6 20 20 20 8 8 8 21 21 21 8 8 8 20 20 20 8 8 8 21 21 21 10 10 10 22 22 22 10 10 10 21 21 21 10 10 10 22 22 22 12 12 12 23 23 23 12 12 12 22 22 22 24 24 24 12 12 12 23 23 23 12 12 12 24 24 24 13 13 13 25 25 25 13 13 13 24 24 24 15 15 15 26 26 26 16 16 16 16 16 16 26 26 26 27 27 27 28 28 28 27 27 27 26 26 26 27 27 27 28 28 28 29 29 29 30 30 30 29 29 29 28 28 28 29 29 29 30 30 30 31 31 31 32 32 32 31 31 31 30 30 30 31 31 31 32 32 32 33 33 33 34 34 34 33 33 33 32 32 32 33 33 33 34 34 34 35 35 35 36 36 36 35 35 35 34 34 34 35 35 35 36 36 36 37 37 37 38 38 38 37 37 37 36 36 36 37 37 37 38 38 38 39 39 39 40 40 40 39 39 39 38 38 38 39 39 39 40 40 40 41 41 41 42 42 42 41 41 41 40 40 40 41 41 41 42 42 42 43 43 43 40 40 40 38 38 38 44 44 44 44 44 44 38 38 38 45 45 45 36 36 36 45 45 45 38 38 38 45 45 45 36 36 36 46 46 46 34 34 34 46 46 46 36 36 36 46 46 46 34 34 34 47 47 47 32 32 32 47 47 47 34 34 34 47 47 47 32 32 32 48 48 48 30 30 30 48 48 48 32 32 32 48 48 48 30 30 30 49 49 49 28 28 28 49 49 49 30 30 30 49 49 49 28 28 28 50 50 50 26 26 26 50 50 50 28 28 28 50 50 50 26 26 26 51 51 51 15 15 15 51 51 51 26 26 26 51 51 51 15 15 15 52 52 52 0 0 0 52 52 52 15 15 15 52 52 52 0 0 0 2 2 2 42 42 42 53 53 53 43 43 43 43 43 43 53 53 53 54 54 54 55 55 55 54 54 54 53 53 53 54 54 54 55 55 55 56 56 56 57 57 57 56 56 56 55 55 55 56 56 56 57 57 57 58 58 58 59 59 59 58 58 58 57 57 57 58 58 58 59 59 59 60 60 60 61 61 61 60 60 60 59 59 59 60 60 60 61 61 61 62 62 62 63 63 63 62 62 62 61 61 61 62 62 62 63 63 63 64 64 64 65 65 65 64 64 64 63 63 63 64 64 64 65 65 65 66 66 66 67 67 67 66 66 66 65 65 65 66 66 66 67 67 67 68 68 68 67 67 67 65 65 65 69 69 69 69 69 69 65 65 65 70 70 70 63 63 63 70 70 70 65 65 65 70 70 70 63 63 63 71 71 71 61 61 61 71 71 71 63 63 63 71 71 71 61 61 61 72 72 72 59 59 59 72 72 72 61 61 61 72 72 72 59 59 59 73 73 73 57 57 57 73 73 73 59 59 59 73 73 73 57 57 57 74 74 74 55 55 55 74 74 74 57 57 57 74 74 74 55 55 55 75 75 75 53 53 53 75 75 75 55 55 55 75 75 75 53 53 53 76 76 76 42 42 42 76 76 76 53 53 53 76 76 76 42 42 42 77 77 77 40 40 40 77 77 77 42 42 42 77 77 77 40 40 40 44 44 44 78 78 78 79 79 79 80 80 80 80 80 80 79 79 79 81 81 81 82 82 82 81 81 81 79 79 79 81 81 81 82 82 82 83 83 83 84 84 84 83 83 83 82 82 82 83 83 83 84 84 84 85 85 85 86 86 86 85 85 85 84 84 84 85 85 85 86 86 86 87 87 87 88 88 88 87 87 87 86 86 86 87 87 87 88 88 88 89 89 89 90 90 90 89 89 89 88 88 88 89 89 89 90 90 90 91 91 91 92 92 92 93 93 93 94 94 94 93 93 93 92 92 92 78 78 78 95 95 95 78 78 78 92 92 92 78 78 78 95 95 95 79 79 79 96 96 96 79 79 79 95 95 95 79 79 79 96 96 96 82 82 82 97 97 97 82 82 82 96 96 96 82 82 82 97 97 97 84 84 84 98 98 98 84 84 84 97 97 97 84 84 84 98 98 98 86 86 86 99 99 99 86 86 86 98 98 98 86 86 86 99 99 99 88 88 88 100 100 100 88 88 88 99 99 99 88 88 88 100 100 100 90 90 90 101 101 101 90 90 90 100 100 100 102 102 102 90 90 90 101 101 101 90 90 90 102 102 102 91 91 91 103 103 103 91 91 91 102 102 102 93 93 93 104 104 104 94 94 94 94 94 94 104 104 104 105 105 105 106 106 106 105 105 105 104 104 104 105 105 105 106 106 106 107 107 107 108 108 108 107 107 107 106 106 106 107 107 107 108 108 108 109 109 109 110 110 110 109 109 109 108 108 108 109 109 109 110 110 110 111 111 111 112 112 112 111 111 111 110 110 110 111 111 111 112 112 112 113 113 113 114 114 114 113 113 113 112 112 112 113 113 113 114 114 114 115 115 115 116 116 116 115 115 115 114 114 114 115 115 115 116 116 116 117 117 117 118 118 118 117 117 117 116 116 116 117 117 117 118 118 118 119 119 119 120 120 120 119 119 119 118 118 118 119 119 119 120 120 120 121 121 121 118 118 118 116 116 116 122 122 122 122 122 122 116 116 116 123 123 123 114 114 114 123 123 123 116 116 116 123 123 123 114 114 114 124 124 124 112 112 112 124 124 124 114 114 114 124 124 124 112 112 112 125 125 125 110 110 110 125 125 125 112 112 112 125 125 125 110 110 110 126 126 126 108 108 108 126 126 126 110 110 110 126 126 126 108 108 108 127 127 127 106 106 106 127 127 127 108 108 108 127 127 127 106 106 106 128 128 128 104 104 104 128 128 128 106 106 106 128 128 128 104 104 104 129 129 129 93 93 93 129 129 129 104 104 104 129 129 129 93 93 93 130 130 130 78 78 78 130 130 130 93 93 93 130 130 130 78 78 78 80 80 80 120 120 120 131 131 131 121 121 121 121 121 121 131 131 131 132 132 132 133 133 133 132 132 132 131 131 131 132 132 132 133 133 133 134 134 134 135 135 135 134 134 134 133 133 133 134 134 134 135 135 135 136 136 136 137 137 137 136 136 136 135 135 135 136 136 136 137 137 137 138 138 138 139 139 139 138 138 138 137 137 137 138 138 138 139 139 139 140 140 140 141 141 141 140 140 140 139 139 139 140 140 140 141 141 141 142 142 142 143 143 143 142 142 142 141 141 141 142 142 142 143 143 143 144 144 144 145 145 145 144 144 144 143 143 143 144 144 144 145 145 145 146 146 146 145 145 145 143 143 143 147 147 147 147 147 147 143 143 143 148 148 148 141 141 141 148 148 148 143 143 143 148 148 148 141 141 141 149 149 149 139 139 139 149 149 149 141 141 141 149 149 149 139 139 139 150 150 150 137 137 137 150 150 150 139 139 139 150 150 150 137 137 137 151 151 151 135 135 135 151 151 151 137 137 137 151 151 151 135 135 135 152 152 152 133 133 133 152 152 152 135 135 135 152 152 152 133 133 133 153 153 153 131 131 131 153 153 153 133 133 133 153 153 153 131 131 131 154 154 154 120 120 120 154 154 154 131 131 131 154 154 154 120 120 120 155 155 155 118 118 118 155 155 155 120 120 120 155 155 155 118 118 118 122 122 122 156 156 156 157 157 157 158 158 158 158 158 158 157 157 157 159 159 159 160 160 160 159 159 159 157 157 157 159 159 159 160 160 160 161 161 161 162 162 162 161 161 161 160 160 160 161 161 161 162 162 162 163 163 163 164 164 164 163 163 163 162 162 162 163 163 163 164 164 164 165 165 165 166 166 166 165 165 165 164 164 164 165 165 165 166 166 166 167 167 167 168 168 168 167 167 167 166 166 166 167 167 167 168 168 168 169 169 169 170 170 170 171 171 171 172 172 172 171 171 171 170 170 170 173 173 173 174 174 174 173 173 173 170 170 170 173 173 173 174 174 174 175 175 175 176 176 176 175 175 175 174 174 174 175 175 175 176 176 176 177 177 177 178 178 178 177 177 177 176 176 176 177 177 177 178 178 178 179 179 179 180 180 180 179 179 179 178 178 178 179 179 179 180 180 180 181 181 181 182 182 182 181 181 181 180 180 180 181 181 181 182 182 182 183 183 183 184 184 184 183 183 183 182 182 182 183 183 183 184 184 184 185 185 185 186 186 186 185 185 185 184 184 184 187 187 187 185 185 185 186 186 186 168 168 168 188 188 188 169 169 169 189 189 189 169 169 169 188 188 188 171 171 171 190 190 190 172 172 172 172 172 172 190 190 190 191 191 191 192 192 192 191 191 191 190 190 190 191 191 191 192 192 192 193 193 193 194 194 194 193 193 193 192 192 192 193 193 193 194 194 194 195 195 195 196 196 196 195 195 195 194 194 194 195 195 195 196 196 196 197 197 197 198 198 198 197 197 197 196 196 196 197 197 197 198 198 198 199 199 199 200 200 200 199 199 199 198 198 198 199 199 199 200 200 200 201 201 201 202 202 202 201 201 201 200 200 200 201 201 201 202 202 202 203 203 203 204 204 204 203 203 203 202 202 202 203 203 203 204 204 204 205 205 205 206 206 206 205 205 205 204 204 204 205 205 205 206 206 206 207 207 207 208 208 208 209 209 209 210 210 210 210 210 210 209 209 209 211 211 211 212 212 212 211 211 211 209 209 209 211 211 211 212 212 212 213 213 213 214 214 214 213 213 213 212 212 212 213 213 213 214 214 214 215 215 215 216 216 216 215 215 215 214 214 214 215 215 215 216 216 216 217 217 217 218 218 218 217 217 217 216 216 216 217 217 217 218 218 218 219 219 219 220 220 220 219 219 219 218 218 218 219 219 219 220 220 220 221 221 221 222 222 222 221 221 221 220 220 220 221 221 221 222 222 222 223 223 223 224 224 224 223 223 223 222 222 222 223 223 223 224 224 224 225 225 225 156 156 156 225 225 225 224 224 224 225 225 225 156 156 156 158 158 158 206 206 206 226 226 226 207 207 207 207 207 207 226 226 226 227 227 227 228 228 228 227 227 227 226 226 226 227 227 227 228 228 228 229 229 229 230 230 230 229 229 229 228 228 228 229 229 229 230 230 230 231 231 231 232 232 232 231 231 231 230 230 230 231 231 231 232 232 232 233 233 233 234 234 234 233 233 233 232 232 232 233 233 233 234 234 234 235 235 235 236 236 236 235 235 235 234 234 234 235 235 235 236 236 236 237 237 237 238 238 238 237 237 237 236 236 236 237 237 237 238 238 238 239 239 239 240 240 240 239 239 239 238 238 238 239 239 239 240 240 240 241 241 241 242 242 242 243 243 243 244 244 244 244 244 244 243 243 243 245 245 245 246 246 246 245 245 245 243 243 243 245 245 245 246 246 246 247 247 247 248 248 248 247 247 247 246 246 246 247 247 247 248 248 248 249 249 249 250 250 250 249 249 249 248 248 248 249 249 249 250 250 250 251 251 251 252 252 252 251 251 251 250 250 250 251 251 251 252 252 252 253 253 253 254 254 254 253 253 253 252 252 252 253 253 253 254 254 254 255 255 255 256 256 256 255 255 255 254 254 254 255 255 255 256 256 256 257 257 257 258 258 258 257 257 257 256 256 256 257 257 257 258 258 258 259 259 259 208 208 208 259 259 259 258 258 258 259 259 259 208 208 208 210 210 210 260 260 260 261 261 261 262 262 262 262 262 262 261 261 261 263 263 263 264 264 264 263 263 263 261 261 261 263 263 263 264 264 264 265 265 265 266 266 266 265 265 265 264 264 264 265 265 265 266 266 266 267 267 267 268 268 268 267 267 267 266 266 266 267 267 267 268 268 268 269 269 269 270 270 270 269 269 269 268 268 268 269 269 269 270 270 270 271 271 271 272 272 272 271 271 271 270 270 270 271 271 271 272 272 272 273 273 273 274 274 274 275 275 275 276 276 276 275 275 275 274 274 274 277 277 277 278 278 278 277 277 277 274 274 274 277 277 277 278 278 278 279 279 279 280 280 280 279 279 279 278 278 278 279 279 279 280 280 280 281 281 281 282 282 282 281 281 281 280 280 280 281 281 281 282 282 282 283 283 283 284 284 284 283 283 283 282 282 282 283 283 283 284 284 284 285 285 285 286 286 286 285 285 285 284 284 284 285 285 285 286 286 286 287 287 287 288 288 288 287 287 287 286 286 286 287 287 287 288 288 288 289 289 289 290 290 290 289 289 289 288 288 288 291 291 291 289 289 289 290 290 290 272 272 272 292 292 292 273 273 273 293 293 293 273 273 273 292 292 292 275 275 275 294 294 294 276 276 276 276 276 276 294 294 294 295 295 295 296 296 296 295 295 295 294 294 294 295 295 295 296 296 296 297 297 297 298 298 298 297 297 297 296 296 296 297 297 297 298 298 298 299 299 299 300 300 300 299 299 299 298 298 298 299 299 299 300 300 300 301 301 301 302 302 302 301 301 301 300 300 300 301 301 301 302 302 302 303 303 303 304 304 304 303 303 303 302 302 302 303 303 303 304 304 304 305 305 305 306 306 306 305 305 305 304 304 304 305 305 305 306 306 306 307 307 307 308 308 308 307 307 307 306 306 306 307 307 307 308 308 308 309 309 309 310 310 310 309 309 309 308 308 308 309 309 309 310 310 310 311 311 311 312 312 312 313 313 313 314 314 314 314 314 314 313 313 313 315 315 315 316 316 316 315 315 315 313 313 313 315 315 315 316 316 316 317 317 317 318 318 318 317 317 317 316 316 316 317 317 317 318 318 318 319 319 319 320 320 320 319 319 319 318 318 318 319 319 319 320 320 320 321 321 321 322 322 322 321 321 321 320 320 320 321 321 321 322 322 322 323 323 323 324 324 324 323 323 323 322 322 322 323 323 323 324 324 324 325 325 325 326 326 326 325 325 325 324 324 324 325 325 325 326 326 326 327 327 327 328 328 328 327 327 327 326 326 326 327 327 327 328 328 328 329 329 329 260 260 260 329 329 329 328 328 328 329 329 329 260 260 260 262 262 262 310 310 310 330 330 330 311 311 311 311 311 311 330 330 330 331 331 331 332 332 332 331 331 331 330 330 330 331 331 331 332 332 332 333 333 333 334 334 334 333 333 333 332 332 332 333 333 333 334 334 334 335 335 335 336 336 336 335 335 335 334 334 334 335 335 335 336 336 336 337 337 337 338 338 338 337 337 337 336 336 336 337 337 337 338 338 338 339 339 339 340 340 340 339 339 339 338 338 338 339 339 339 340 340 340 341 341 341 342 342 342 341 341 341 340 340 340 341 341 341 342 342 342 343 343 343 344 344 344 343 343 343 342 342 342 343 343 343 344 344 344 345 345 345 346 346 346 347 347 347 348 348 348 348 348 348 347 347 347 349 349 349 350 350 350 349 349 349 347 347 347 349 349 349 350 350 350 351 351 351 352 352 352 351 351 351 350 350 350 351 351 351 352 352 352 353 353 353 354 354 354 353 353 353 352 352 352 353 353 353 354 354 354 355 355 355 356 356 356 355 355 355 354 354 354 355 355 355 356 356 356 357 357 357 358 358 358 357 357 357 356 356 356 357 357 357 358 358 358 359 359 359 360 360 360 359 359 359 358 358 358 359 359 359 360 360 360 361 361 361 362 362 362 361 361 361 360 360 360 361 361 361 362 362 362 363 363 363 312 312 312 363 363 363 362 362 362 363 363 363 312 312 312 314 314 314</p>
      </triangles>
    </mesh></geometry>
  </library_geometries>
  <library_visual_scenes>
    <visual_scene id="Scene" name="Scene">
      <node id="vfx_kurp_0726" name="vfx_kurp_0726" type="NODE">
        <instance_geometry url="#vfx_kurp_0726-mesh"><bind_material><technique_common><instance_material symbol="PreviewMaterial" target="#PreviewMaterial"><bind_vertex_input semantic="UVSET0" input_semantic="TEXCOORD" input_set="0"/></instance_material></technique_common></bind_material></instance_geometry>
      </node>
    </visual_scene>
  </library_visual_scenes>
  <scene><instance_visual_scene url="#Scene"/></scene>
</COLLADA>
