<?xml version="1.0" encoding="utf-8"?>
<COLLADA xmlns="http://www.collada.org/2005/11/COLLADASchema" version="1.4.1">
  <asset>
    <contributor><authoring_tool>Morrobroom Kurpulio VFX preview converter</authoring_tool></contributor>
    <unit name="unit" meter="1"/>
    <up_axis>Z_UP</up_axis>
  </asset>
  <library_images>
    <image id="VFXTexture" name="darkmap_newgen-1.dds">
      <init_from>../../../Textures/Kurp/darkmap_newgen-1.dds</init_from>
    </image>
  </library_images>
  <library_effects>
    <effect id="PreviewEffect">
      <profile_COMMON>
        <newparam sid="VFXTexture-surface">
          <surface type="2D"><init_from>VFXTexture</init_from></surface>
        </newparam>
        <newparam sid="VFXTexture-sampler">
          <sampler2D><source>VFXTexture-surface</source></sampler2D>
        </newparam>
        <technique sid="common"><phong>
          <emission><color>0.08 0.08 0.08 1</color></emission>
          <ambient><color>0.2 0.2 0.2 1</color></ambient>
          <diffuse><texture texture="VFXTexture-sampler" texcoord="UVSET0"/></diffuse>
          <specular><color>0.15 0.15 0.15 1</color></specular>
          <shininess><float>8</float></shininess>
          <transparent opaque="A_ONE"><texture texture="VFXTexture-sampler" texcoord="UVSET0"/></transparent>
          <transparency><float>1</float></transparency>
        </phong></technique>
      </profile_COMMON>
      <extra><technique profile="GOOGLEEARTH"><double_sided>1</double_sided></technique></extra>
    </effect>
  </library_effects>
  <library_materials><material id="PreviewMaterial" name="PreviewMaterial"><instance_effect url="#PreviewEffect"/></material></library_materials>
  <library_geometries>
    <geometry id="vfx_kurp_0262-mesh" name="vfx_kurp_0262"><mesh>
      <source id="vfx_kurp_0262-mesh-positions">
        <float_array id="vfx_kurp_0262-mesh-positions-array" count="456">0.343419443 -3.41243823 -0.784003666 0.239809888 -3.23066984 0.944282143 -0.6658927 -3.46539027 -0.773724353 -0.585156114 -3.28819857 1.04390771 -0.6658927 -3.46539027 -0.773724353 -0.659958753 -2.51883054 -2.33759506 0.343419443 -3.41243823 -0.784003666 0.16897921 -2.5021532 -2.25767211 1.19972741 -3.1272049 -0.738049035 0.940117707 -2.26575528 -2.12842256 2.00231194 -2.58020634 -0.631348507 1.58949192 -1.83428769 -1.95404075 2.60065059 -1.84635265 -0.477616112 2.07286923 -1.25814441 -1.74501376 2.94871967 -0.990993637 -0.290702201 2.35616085 -0.588832953 -1.51230661 3.02096346 -0.0909030807 -0.087509376 2.42075459 0.113696358 -1.26914754 2.81587639 0.771701047 0.113289367 2.26635951 0.785372693 -1.03010812 2.35772311 1.51640728 0.292861729 1.91255316 1.36344196 -0.80989872 1.00705848 -2.95426109 0.897677153 1.19972741 -3.1272049 -0.738049035 1.65262446 -2.48362353 0.899899141 2.00231194 -2.58020634 -0.631348507 2.13227489 -1.8691506 0.940461176 2.60065059 -1.84635265 -0.477616112 2.41192179 -1.1623502 1.00839776 2.94871967 -0.990993637 -0.290702201 2.47295232 -0.423172488 1.09048086 3.02096346 -0.0909030807 -0.087509376 2.31507578 0.28431166 1.17213919 2.81587639 0.771701047 0.113289367 1.95786968 0.897348146 1.23866183 2.35772311 1.51640728 0.292861729 1.44051909 1.36064708 1.27660224 1.69587142 2.07253589 0.434034436 0.81939702 1.63260968 1.27524854 0.90140797 2.38694298 0.523143506 1.69587142 2.07253589 0.434034436 1.39852062 1.79261436 -0.621966545 0.90140797 2.38694298 0.523143506 0.780634874 2.03129117 -0.477022592 0.0610363524 2.43075191 0.551700983 0.127772926 2.05708618 -0.381684394 -0.731407441 2.20407894 0.517657453 -0.485417911 1.87081964 -0.337416274 -1.38511555 1.73790847 0.426053804 -0.986775015 1.49822046 -0.339960874 -1.82313445 1.09252672 0.288904332 -1.31555014 0.988775423 -0.379402316 -1.98262324 0.258954764 0.102775873 -1.41767092 0.411079388 -0.44133032 -1.81290103 -0.462733664 -0.0651789759 -1.28718511 -0.142757498 -0.504919067 -1.2922153 -1.10204284 -0.222154443 -0.935685939 -0.569766349 -0.546484548 0.163380607 1.69085025 1.22798407 0.0610363524 2.43075191 0.551700983 -0.452883057 1.53618847 1.13334392 -0.731407441 2.20407894 0.517657453 -0.957231146 1.19435339 0.995585819 -1.38511555 1.73790847 0.426053804 -1.28891564 0.714831945 0.824625218 -1.82313445 1.09252672 0.288904332 -1.39386406 0.166218819 0.634872877 -1.98262324 0.258954764 0.102775873 -1.26612405 -0.359375756 0.447154401 -1.81290103 -0.462733664 -0.0651789759 -0.917289143 -0.758982811 0.285153827 -1.2922153 -1.10204284 -0.222154443 -0.426259903 -0.940746765 0.171515874 -0.532608762 -1.41490307 -0.310140533 -0.532608762 -1.41490307 -0.310140533 -0.442074252 -0.778091491 -0.543381899 -2.12714666 -0.153349678 -1.51349403 -1.22002719 0.538410395 -2.12439585 -1.81227734 -0.756924554 -1.83135811 -0.928184572 0.0847525734 -2.42832781 -1.81227734 -0.756924554 -1.83135811 -2.06436854 -1.42973904 -0.678021919 -2.12714666 -0.153349678 -1.51349403 -2.29588295 -0.895665844 -0.467026517 -2.25277934 0.383856463 -1.13021699 -2.37908075 -0.373710999 -0.16816478 -2.20585302 0.916602681 -0.638784867 -2.30654677 0.0956468524 0.188352271 -1.97887043 1.34786817 -0.11828044 -2.0927901 0.480929626 0.565869092 -1.59453317 1.64354953 0.387051124 -1.75645285 0.756552874 0.930146749 -1.0892872 1.78047627 0.833502833 -1.32645558 0.905219728 1.24744555 -0.511029981 1.74915908 1.18177167 -0.840426324 0.920057832 1.48739356 0.084568944 1.55556657 1.40088541 -0.342029702 0.806105374 1.62600537 -1.362312 0.981604379 -1.73450983 -2.25277934 0.383856463 -1.13021699 -1.34762393 1.37385619 -1.28888088 -2.20585302 0.916602681 -0.638784867 -1.19047134 1.68368753 -0.824164594 -1.97887043 1.34786817 -0.11828044 -0.90949717 1.88551419 -0.37459973 -1.59453317 1.64354953 0.387051124 -0.533621258 1.96203909 0.0260738417 -1.0892872 1.78047627 0.833502833 -0.10047197 1.90639008 0.347484196 -0.511029981 1.74915908 1.18177167 0.346285943 1.7236051 0.565646115 0.084568944 1.55556657 1.40088541 0.760660318 1.43112063 0.665791755 0.638964086 1.22155947 1.4717554 1.0988279 1.05798893 0.644612146 1.09648921 0.783700814 1.38988385 0.638964086 1.22155947 1.4717554 0.122741799 0.580798603 1.64851347 1.09648921 0.783700814 1.38988385 0.510065409 0.273189937 1.55160866 1.41041348 0.290344724 1.16677545 0.783143858 -0.0782506852 1.34469181 1.54863289 -0.202896989 0.829710074 0.916866851 -0.429207328 1.04980827 1.49825853 -0.638978881 0.419680751 0.90164329 -0.734231832 0.70005718 1.26840566 -0.966000343 -0.0124874338 0.745785334 -0.952154755 0.336456844 0.832241489 -1.14766579 -0.452806832 0.471145677 -1.04376453 0.00712172143 0.349087132 -1.12256762 -0.744722359 0.12992237 -0.995902349 -0.242679039 -0.205888852 -0.88090233 -0.895870093 -0.213276917 -0.8046702 -0.367633357 1.32399197 0.642680102 0.511508331 1.41041348 0.290344724 1.16677545 1.41104181 0.22950987 0.288525345 1.54863289 -0.202896989 0.829710074 1.35038648 -0.136073385 0.00876239737 1.49825853 -0.638978881 0.419680751 1.15033819 -0.41290052 -0.286762056 1.26840566 -0.966000343 -0.0124874338 0.832749636 -0.561759656 -0.549933815 0.832241489 -1.14766579 -0.452806832 0.4498187 -0.569492022 -0.735483522 0.349087132 -1.12256762 -0.744722359 0.0661533406 -0.432199889 -0.798099226 -0.205888852 -0.88090233 -0.895870093 -0.237106003 -0.187028149 -0.717250327 -0.650552145 -0.463535313 -0.823380341 -0.650552145 -0.463535313 -0.823380341 -0.477311473 -0.507213217 -0.347210823</float_array>
        <technique_common><accessor source="#vfx_kurp_0262-mesh-positions-array" count="152" stride="3"><param name="X" type="float"/><param name="Y" type="float"/><param name="Z" type="float"/></accessor></technique_common>
      </source>
      <source id="vfx_kurp_0262-mesh-normals">
        <float_array id="vfx_kurp_0262-mesh-normals-array" count="456">0.188547296 -0.974654916 0.120406442 0.198963249 -0.973997719 0.10836083 0.060997607 -0.992759622 0.103477656 0.0804557336 -0.992394216 0.0931697142 0.0395823846 -0.854894584 -0.517289556 0.0583612472 -0.848604041 -0.525799531 0.173503415 -0.831125787 -0.52832423 0.184539706 -0.822770676 -0.537581168 0.417546733 -0.739413389 -0.528131202 0.43751766 -0.719988216 -0.53869775 0.633954622 -0.578243084 -0.513552794 0.648587258 -0.552107355 -0.523938963 0.794943363 -0.359844444 -0.488443472 0.800104285 -0.334506223 -0.497934454 0.884989564 -0.102672664 -0.454149531 0.882428038 -0.080401776 -0.463525957 0.893273395 0.171186115 -0.415641619 0.884951124 0.189161757 -0.42553418 0.816178569 0.436298485 -0.378808889 0.803739484 0.449563379 -0.389737875 0.658632873 0.666129705 -0.349962791 0.643093741 0.674589455 -0.362435522 0.455481962 -0.879321095 0.139034508 0.431587365 -0.888952448 0.153283699 0.666804915 -0.721392598 0.186986431 0.645222069 -0.736824253 0.201936875 0.821256097 -0.511613523 0.252566875 0.806190383 -0.528621016 0.265738381 0.906251867 -0.265330618 0.329100619 0.89654817 -0.28238123 0.341265615 0.911084468 -0.0037360102 0.412202784 0.905456161 -0.020282705 0.423954894 0.83171118 0.248421956 0.496531011 0.829315905 0.232088368 0.50830121 0.672267395 0.464829065 0.576186159 0.673166506 0.448014179 0.588328268 0.445989351 0.620255347 0.645272658 0.451348724 0.60253238 0.658208979 0.175238035 0.693731041 0.698590634 0.187133044 0.675737374 0.712993846 0.434719795 0.835861736 -0.335192271 0.416528193 0.8391213 -0.349828113 0.167284973 0.925570569 -0.339609864 0.146831304 0.922399474 -0.357239106 -0.113683688 0.923422568 -0.366560746 -0.135145247 0.911601727 -0.388224231 -0.374029391 0.828429428 -0.416901304 -0.393293661 0.80527891 -0.443673272 -0.579696072 0.65217888 -0.488482521 -0.590849551 0.615942529 -0.521067759 -0.706765147 0.408237235 -0.577776242 -0.70088773 0.3624713 -0.614305254 -0.718214823 0.125067574 -0.684489277 -0.689165829 0.0927182947 -0.718647186 -0.607927025 -0.125231762 -0.784054678 -0.555585349 -0.151243758 -0.817588066 -0.377140369 -0.309807407 -0.872802677 -0.311867998 -0.305136197 -0.899794562 -0.109679568 0.671978133 0.732404111 -0.088953677 0.656142782 0.749375669 -0.373139206 0.552671479 0.745198879 -0.342273493 0.54360426 0.766383236 -0.578409598 0.346928776 0.738297204 -0.538672775 0.351135023 0.765856278 -0.696583883 0.0721732035 0.713836061 -0.655429953 0.0972117498 0.748973599 -0.689199881 -0.221181272 0.689987224 -0.660570402 -0.195710323 0.724806329 -0.553925703 -0.506237776 0.66097627 -0.546600281 -0.451756791 0.705084346 -0.305758654 -0.690764521 0.65525264 -0.3213638 -0.638305206 0.69949394 -0.171494958 -0.720143412 0.672296769 -0.196523525 -0.676695448 0.709550404 -0.205278162 -0.353160893 -0.912764077 -0.131053843 -0.324474328 -0.936771744 -0.647608898 0.216227421 -0.730649312 -0.65919773 0.217608202 -0.719795126 -0.612662888 0.10284452 -0.783624393 -0.627429948 0.112566804 -0.770493591 -0.892026208 -0.277433 -0.356819527 -0.90152064 -0.267163828 -0.340417427 -0.94319804 -0.175241431 -0.282255024 -0.948333215 -0.17166729 -0.26682289 -0.992436027 0.023236177 -0.120543822 -0.995139592 0.0333611575 -0.0926510991 -0.975143395 0.208266538 0.0756333843 -0.970962912 0.214221674 0.1064899 -0.889222747 0.354993446 0.288552524 -0.880775826 0.353794668 0.314743192 -0.74060157 0.449918035 0.499082234 -0.730630775 0.442508178 0.519966522 -0.541898312 0.481200093 0.689052023 -0.532469358 0.468789665 0.704778429 -0.311703876 0.442272218 0.840973233 -0.304141748 0.425884967 0.852126629 -0.0734124611 0.333232812 0.939982183 -0.0685437395 0.31339406 0.947146197 -0.693474921 0.44408325 -0.567346984 -0.680368235 0.433010173 -0.591270881 -0.655646877 0.644536419 -0.393319179 -0.646936208 0.635704909 -0.421132772 -0.547719988 0.80963142 -0.210949706 -0.544042805 0.805024978 -0.236542198 -0.378160999 0.925149096 -0.0330667499 -0.377527246 0.924295956 -0.0561263269 -0.158696734 0.979690133 0.122566677 -0.159810669 0.981899987 0.101651192 0.093054005 0.966667109 0.238528097 0.0906428396 0.971508137 0.218988161 0.354447827 0.885779743 0.299601375 0.350474214 0.893504053 0.280746029 0.599476628 0.744110498 0.294834426 0.59339769 0.755906986 0.276557065 0.801255258 0.556572285 0.219584387 0.792968876 0.574521165 0.202794955 0.146739962 0.161740046 0.97586246 0.148078461 0.13844657 0.97923711 0.322387458 -0.0568414535 0.944899664 0.318710195 -0.0837692011 0.94414328 0.430330203 -0.300266478 0.851267266 0.418990518 -0.330438865 0.84572874 0.45410641 -0.541374015 0.707602675 0.431262692 -0.57284384 0.697038325 0.38734977 -0.751231665 0.534425993 0.348776694 -0.779634651 0.520119822 0.23036729 -0.908296088 0.349183517 0.175535663 -0.925284035 0.336209289 -0.0146441292 -0.982196899 0.187282678 -0.0696382815 -0.978926009 0.191974944 -0.288325419 -0.953049887 0.0925438621 -0.349227567 -0.930497579 0.110518601 -0.566419747 -0.81946741 0.0874175903 -0.609073395 -0.782381439 0.130034165 0.93525906 0.345429336 0.0772597165 0.925996723 0.372053577 0.0640796787 0.983094052 0.138635999 -0.119608295 0.976285243 0.175993495 -0.126069087 0.936384421 -0.033196064 -0.349402686 0.938166821 0.0151817282 -0.345850447 0.794874069 -0.145270238 -0.589127976 0.814257892 -0.0911496415 -0.573302563 0.58537003 -0.155408003 -0.795732543 0.610449606 -0.111616842 -0.784151107 0.320873354 -0.0649095363 -0.944895255 0.380114219 -0.0327192989 -0.924360659 0.0857201567 0.131427052 -0.987612771 0.153988736 0.145104933 -0.977359723 0.0168192584 0.249970582 -0.968107339 0.0791538843 0.251852361 -0.964523225 -0.696089168 -0.703987984 0.140928309 -0.725240632 -0.657725653 0.203526391</float_array>
        <technique_common><accessor source="#vfx_kurp_0262-mesh-normals-array" count="152" stride="3"><param name="X" type="float"/><param name="Y" type="float"/><param name="Z" type="float"/></accessor></technique_common>
      </source>
      <source id="vfx_kurp_0262-mesh-uv0">
        <float_array id="vfx_kurp_0262-mesh-uv0-array" count="304">0.5 0.0555555224 0 0.0555555224 0.5 0 0 0 0.5 0 1 0 0.5 0.0555555224 1 0.0555555224 0.5 0.111111104 1 0.111111104 0.5 0.166666687 1 0.166666687 0.5 0.222222209 1 0.222222209 0.5 0.277777791 1 0.277777791 0.5 0.333333313 1 0.333333313 0.5 0.388888896 1 0.388888896 0.5 0.444444418 1 0.444444418 0 0.111111104 0.5 0.111111104 0 0.166666687 0.5 0.166666687 0 0.222222209 0.5 0.222222209 0 0.277777791 0.5 0.277777791 0 0.333333313 0.5 0.333333313 0 0.388888896 0.5 0.388888896 0 0.444444418 0.5 0.444444418 0 0.5 0.5 0.5 0 0.555555582 0.5 0.555555582 0.5 0.5 1 0.5 0.5 0.555555582 1 0.555555582 0.5 0.611111104 1 0.611111104 0.5 0.666666627 1 0.666666627 0.5 0.722222209 1 0.722222209 0.5 0.777777791 1 0.777777791 0.5 0.833333313 1 0.833333313 0.5 0.888888896 1 0.888888896 0.5 0.944444418 1 0.944444418 0 0.611111104 0.5 0.611111104 0 0.666666627 0.5 0.666666627 0 0.722222209 0.5 0.722222209 0 0.777777791 0.5 0.777777791 0 0.833333313 0.5 0.833333313 0 0.888888896 0.5 0.888888896 0 0.944444418 0.5 0.944444418 0 1 0.5 1 0.5 1 1 1 0.5 0.0555555224 0 0.0555555224 0.5 0 0 0 0.5 0 1 0 0.5 0.0555555224 1 0.0555555224 0.5 0.111111104 1 0.111111104 0.5 0.166666687 1 0.166666687 0.5 0.222222209 1 0.222222209 0.5 0.277777791 1 0.277777791 0.5 0.333333313 1 0.333333313 0.5 0.388888896 1 0.388888896 0.5 0.444444418 1 0.444444418 0 0.111111104 0.5 0.111111104 0 0.166666687 0.5 0.166666687 0 0.222222209 0.5 0.222222209 0 0.277777791 0.5 0.277777791 0 0.333333313 0.5 0.333333313 0 0.388888896 0.5 0.388888896 0 0.444444418 0.5 0.444444418 0 0.5 0.5 0.5 0 0.555555582 0.5 0.555555582 0.5 0.5 1 0.5 0.5 0.555555582 1 0.555555582 0.5 0.611111104 1 0.611111104 0.5 0.666666627 1 0.666666627 0.5 0.722222209 1 0.722222209 0.5 0.777777791 1 0.777777791 0.5 0.833333313 1 0.833333313 0.5 0.888888896 1 0.888888896 0.5 0.944444418 1 0.944444418 0 0.611111104 0.5 0.611111104 0 0.666666627 0.5 0.666666627 0 0.722222209 0.5 0.722222209 0 0.777777791 0.5 0.777777791 0 0.833333313 0.5 0.833333313 0 0.888888896 0.5 0.888888896 0 0.944444418 0.5 0.944444418 0 1 0.5 1 0.5 1 1 1</float_array>
        <technique_common><accessor source="#vfx_kurp_0262-mesh-uv0-array" count="152" stride="2"><param name="S" type="float"/><param name="T" type="float"/></accessor></technique_common>
      </source>
      <vertices id="vfx_kurp_0262-mesh-vertices"><input semantic="POSITION" source="#vfx_kurp_0262-mesh-positions"/></vertices>
      <triangles material="PreviewMaterial" count="144">
        <input semantic="VERTEX" source="#vfx_kurp_0262-mesh-vertices" offset="0"/>
        <input semantic="NORMAL" source="#vfx_kurp_0262-mesh-normals" offset="1"/>
        <input semantic="TEXCOORD" source="#vfx_kurp_0262-mesh-uv0" offset="2" set="0"/>
        <p>0 0 0 1 1 1 2 2 2 3 3 3 2 2 2 1 1 1 4 4 4 5 5 5 6 6 6 7 7 7 6 6 6 5 5 5 6 6 6 7 7 7 8 8 8 9 9 9 8 8 8 7 7 7 8 8 8 9 9 9 10 10 10 11 11 11 10 10 10 9 9 9 10 10 10 11 11 11 12 12 12 13 13 13 12 12 12 11 11 11 12 12 12 13 13 13 14 14 14 15 15 15 14 14 14 13 13 13 14 14 14 15 15 15 16 16 16 17 17 17 16 16 16 15 15 15 16 16 16 17 17 17 18 18 18 19 19 19 18 18 18 17 17 17 18 18 18 19 19 19 20 20 20 21 21 21 20 20 20 19 19 19 1 1 1 0 0 0 22 22 22 23 23 23 22 22 22 0 0 0 22 22 22 23 23 23 24 24 24 25 25 25 24 24 24 23 23 23 24 24 24 25 25 25 26 26 26 27 27 27 26 26 26 25 25 25 26 26 26 27 27 27 28 28 28 29 29 29 28 28 28 27 27 27 28 28 28 29 29 29 30 30 30 31 31 31 30 30 30 29 29 29 30 30 30 31 31 31 32 32 32 33 33 33 32 32 32 31 31 31 32 32 32 33 33 33 34 34 34 35 35 35 34 34 34 33 33 33 34 34 34 35 35 35 36 36 36 37 37 37 36 36 36 35 35 35 36 36 36 37 37 37 38 38 38 39 39 39 38 38 38 37 37 37 20 20 20 21 21 21 40 40 40 41 41 41 40 40 40 21 21 21 40 40 40 41 41 41 42 42 42 43 43 43 42 42 42 41 41 41 42 42 42 43 43 43 44 44 44 45 45 45 44 44 44 43 43 43 44 44 44 45 45 45 46 46 46 47 47 47 46 46 46 45 45 45 46 46 46 47 47 47 48 48 48 49 49 49 48 48 48 47 47 47 48 48 48 49 49 49 50 50 50 51 51 51 50 50 50 49 49 49 50 50 50 51 51 51 52 52 52 53 53 53 52 52 52 51 51 51 52 52 52 53 53 53 54 54 54 55 55 55 54 54 54 53 53 53 54 54 54 55 55 55 56 56 56 57 57 57 56 56 56 55 55 55 38 38 38 39 39 39 58 58 58 59 59 59 58 58 58 39 39 39 58 58 58 59 59 59 60 60 60 61 61 61 60 60 60 59 59 59 60 60 60 61 61 61 62 62 62 63 63 63 62 62 62 61 61 61 62 62 62 63 63 63 64 64 64 65 65 65 64 64 64 63 63 63 64 64 64 65 65 65 66 66 66 67 67 67 66 66 66 65 65 65 66 66 66 67 67 67 68 68 68 69 69 69 68 68 68 67 67 67 68 68 68 69 69 69 70 70 70 71 71 71 70 70 70 69 69 69 70 70 70 71 71 71 72 72 72 72 72 72 71 71 71 73 73 73 57 57 57 74 74 74 56 56 56 75 75 75 74 74 74 57 57 57 76 76 76 77 77 77 78 78 78 79 79 79 78 78 78 77 77 77 80 80 80 81 81 81 82 82 82 83 83 83 82 82 82 81 81 81 82 82 82 83 83 83 84 84 84 85 85 85 84 84 84 83 83 83 84 84 84 85 85 85 86 86 86 87 87 87 86 86 86 85 85 85 86 86 86 87 87 87 88 88 88 89 89 89 88 88 88 87 87 87 88 88 88 89 89 89 90 90 90 91 91 91 90 90 90 89 89 89 90 90 90 91 91 91 92 92 92 93 93 93 92 92 92 91 91 91 92 92 92 93 93 93 94 94 94 95 95 95 94 94 94 93 93 93 94 94 94 95 95 95 96 96 96 97 97 97 96 96 96 95 95 95 77 77 77 76 76 76 98 98 98 99 99 99 98 98 98 76 76 76 98 98 98 99 99 99 100 100 100 101 101 101 100 100 100 99 99 99 100 100 100 101 101 101 102 102 102 103 103 103 102 102 102 101 101 101 102 102 102 103 103 103 104 104 104 105 105 105 104 104 104 103 103 103 104 104 104 105 105 105 106 106 106 107 107 107 106 106 106 105 105 105 106 106 106 107 107 107 108 108 108 109 109 109 108 108 108 107 107 107 108 108 108 109 109 109 110 110 110 111 111 111 110 110 110 109 109 109 110 110 110 111 111 111 112 112 112 113 113 113 112 112 112 111 111 111 112 112 112 113 113 113 114 114 114 115 115 115 114 114 114 113 113 113 96 96 96 97 97 97 116 116 116 117 117 117 116 116 116 97 97 97 116 116 116 117 117 117 118 118 118 119 119 119 118 118 118 117 117 117 118 118 118 119 119 119 120 120 120 121 121 121 120 120 120 119 119 119 120 120 120 121 121 121 122 122 122 123 123 123 122 122 122 121 121 121 122 122 122 123 123 123 124 124 124 125 125 125 124 124 124 123 123 123 124 124 124 125 125 125 126 126 126 127 127 127 126 126 126 125 125 125 126 126 126 127 127 127 128 128 128 129 129 129 128 128 128 127 127 127 128 128 128 129 129 129 130 130 130 131 131 131 130 130 130 129 129 129 130 130 130 131 131 131 132 132 132 133 133 133 132 132 132 131 131 131 114 114 114 115 115 115 134 134 134 135 135 135 134 134 134 115 115 115 134 134 134 135 135 135 136 136 136 137 137 137 136 136 136 135 135 135 136 136 136 137 137 137 138 138 138 139 139 139 138 138 138 137 137 137 138 138 138 139 139 139 140 140 140 141 141 141 140 140 140 139 139 139 140 140 140 141 141 141 142 142 142 143 143 143 142 142 142 141 141 141 142 142 142 143 143 143 144 144 144 145 145 145 144 144 144 143 143 143 144 144 144 145 145 145 146 146 146 147 147 147 146 146 146 145 145 145 146 146 146 147 147 147 148 148 148 148 148 148 147 147 147 149 149 149 133 133 133 150 150 150 132 132 132 151 151 151 150 150 150 133 133 133</p>
      </triangles>
    </mesh></geometry>
  </library_geometries>
  <library_visual_scenes>
    <visual_scene id="Scene" name="Scene">
      <node id="vfx_kurp_0262" name="vfx_kurp_0262" type="NODE">
        <instance_geometry url="#vfx_kurp_0262-mesh"><bind_material><technique_common><instance_material symbol="PreviewMaterial" target="#PreviewMaterial"><bind_vertex_input semantic="UVSET0" input_semantic="TEXCOORD" input_set="0"/></instance_material></technique_common></bind_material></instance_geometry>
      </node>
    </visual_scene>
  </library_visual_scenes>
  <scene><instance_visual_scene url="#Scene"/></scene>
</COLLADA>
