<?xml version="1.0" encoding="utf-8"?>
<COLLADA xmlns="http://www.collada.org/2005/11/COLLADASchema" version="1.4.1">
  <asset>
    <contributor><authoring_tool>Morrobroom Kurpulio VFX preview converter</authoring_tool></contributor>
    <unit name="unit" meter="1"/>
    <up_axis>Z_UP</up_axis>
  </asset>
  <library_images>
    <image id="VFXTexture" name="darkmap_newgen-1.dds">
      <init_from>../../../Textures/Kurp/darkmap_newgen-1.dds</init_from>
    </image>
  </library_images>
  <library_effects>
    <effect id="PreviewEffect">
      <profile_COMMON>
        <newparam sid="VFXTexture-surface">
          <surface type="2D"><init_from>VFXTexture</init_from></surface>
        </newparam>
        <newparam sid="VFXTexture-sampler">
          <sampler2D><source>VFXTexture-surface</source></sampler2D>
        </newparam>
        <technique sid="common"><phong>
          <emission><color>0.08 0.08 0.08 1</color></emission>
          <ambient><color>0.2 0.2 0.2 1</color></ambient>
          <diffuse><texture texture="VFXTexture-sampler" texcoord="UVSET0"/></diffuse>
          <specular><color>0.15 0.15 0.15 1</color></specular>
          <shininess><float>8</float></shininess>
          <transparent opaque="A_ONE"><texture texture="VFXTexture-sampler" texcoord="UVSET0"/></transparent>
          <transparency><float>1</float></transparency>
        </phong></technique>
      </profile_COMMON>
      <extra><technique profile="GOOGLEEARTH"><double_sided>1</double_sided></technique></extra>
    </effect>
  </library_effects>
  <library_materials><material id="PreviewMaterial" name="PreviewMaterial"><instance_effect url="#PreviewEffect"/></material></library_materials>
  <library_geometries>
    <geometry id="vfx_kurp_0575-mesh" name="vfx_kurp_0575"><mesh>
      <source id="vfx_kurp_0575-mesh-positions">
        <float_array id="vfx_kurp_0575-mesh-positions-array" count="600">4.12816707 -4.02025869 0.116510931 4.75829686 -4.81086052 -0.326706779 4.06013482 -3.48067347 -1.44127584 4.70569327 -4.28919279 -1.89118015 5.42599282 -5.47209399 -0.285388753 4.70569327 -4.28919279 -1.89118015 4.75829686 -4.81086052 -0.326706779 5.93735668 -5.52219274 -1.85334201 5.42599282 -5.47209399 -0.285388753 4.75829686 -4.81086052 -0.326706779 4.77199954 -6.60742533 -1.28828275 4.77199954 -6.60742533 -1.28828275 4.75829686 -4.81086052 -0.326706779 3.60799712 -5.44302233 -1.32653823 4.12816707 -4.02025869 0.116510931 3.60799712 -5.44302233 -1.32653823 4.75829686 -4.81086052 -0.326706779 2.9642893 -4.63665151 -0.877434843 2.71483555 -2.72526836 -0.273938388 2.9642893 -4.63665151 -0.877434843 4.12816707 -4.02025869 0.116510931 2.9642893 -4.63665151 -0.877434843 2.71483555 -2.72526836 -0.273938388 2.62289514 -4.27543709 -0.831615967 2.45759742 -2.40905775 -0.111928249 2.62289514 -4.27543709 -0.831615967 2.71483555 -2.72526836 -0.273938388 2.62289514 -4.27543709 -0.831615967 2.45759742 -2.40905775 -0.111928249 1.28187494 -3.01158482 -1.1004207 2.2302204 -2.22310189 -0.239540382 1.28187494 -3.01158482 -1.1004207 2.45759742 -2.40905775 -0.111928249 1.28187494 -3.01158482 -1.1004207 2.2302204 -2.22310189 -0.239540382 0.619011683 -1.96067662 0.00049999789 2.42070171 -2.07623242 0.743519218 0.619011683 -1.96067662 0.00049999789 2.2302204 -2.22310189 -0.239540382 0.799973161 -1.824813 0.923817197 2.36393153 -1.45928001 2.3632911 0.799973161 -1.824813 0.923817197 2.42070171 -2.07623242 0.743519218 0.799973161 -1.824813 0.923817197 2.36393153 -1.45928001 2.3632911 0.782569238 -1.47257536 1.89255112 1.1088472 0.0283591928 2.99402364 0.782569238 -1.47257536 1.89255112 2.36393153 -1.45928001 2.3632911 0.782569238 -1.47257536 1.89255112 1.1088472 0.0283591928 2.99402364 0.739635156 -1.34031455 2.14969307 0.1983471 0.471929113 1.61145728 0.739635156 -1.34031455 2.14969307 1.1088472 0.0283591928 2.99402364 0.739635156 -1.34031455 2.14969307 0.1983471 0.471929113 1.61145728 0.298114387 -1.15893446 1.38165071 3.8648774 -3.24675921 -1.33597989 4.12816707 -4.02025869 0.116510931 4.06013482 -3.48067347 -1.44127584 4.12816707 -4.02025869 0.116510931 3.8648774 -3.24675921 -1.33597989 2.71483555 -2.72526836 -0.273938388 2.37610562 -1.85371652 -1.66351962 2.71483555 -2.72526836 -0.273938388 3.8648774 -3.24675921 -1.33597989 2.71483555 -2.72526836 -0.273938388 2.37610562 -1.85371652 -1.66351962 2.45759742 -2.40905775 -0.111928249 1.65387158 -0.684888833 -0.395113525 2.45759742 -2.40905775 -0.111928249 2.37610562 -1.85371652 -1.66351962 2.45759742 -2.40905775 -0.111928249 1.65387158 -0.684888833 -0.395113525 2.2302204 -2.22310189 -0.239540382 1.83353546 -0.550525875 0.520059427 2.2302204 -2.22310189 -0.239540382 1.65387158 -0.684888833 -0.395113525 2.2302204 -2.22310189 -0.239540382 2.42070171 -2.07623242 0.743519218 1.82149825 -0.234376548 1.40003726 2.42070171 -2.07623242 0.743519218 1.83353546 -0.550525875 0.520059427 2.42070171 -2.07623242 0.743519218 1.82149825 -0.234376548 1.40003726 2.36393153 -1.45928001 2.3632911 1.94381654 -0.286894168 1.60624785 2.36393153 -1.45928001 2.3632911 1.82149825 -0.234376548 1.40003726 2.36393153 -1.45928001 2.3632911 1.94381654 -0.286894168 1.60624785 1.1088472 0.0283591928 2.99402364 1.56623153 -0.141258281 0.921983667 1.1088472 0.0283591928 2.99402364 1.94381654 -0.286894168 1.60624785 1.1088472 0.0283591928 2.99402364 1.56623153 -0.141258281 0.921983667 0.1983471 0.471929113 1.61145728 1.0606292 -0.0455236771 -0.281679305 0.1983471 0.471929113 1.61145728 1.56623153 -0.141258281 0.921983667 -0.31738332 0.57007295 0.385105537 0.1983471 0.471929113 1.61145728 -0.31738332 0.57007295 0.385105537 0.298114387 -1.15893446 1.38165071 -0.208703003 -1.06291073 0.175265689 1.1088472 0.0283591928 2.99402364 0.739635156 -1.34031455 2.14969307 0.1983471 0.471929113 1.61145728 0.298114387 -1.15893446 1.38165071 0.1983471 0.471929113 1.61145728 0.298114387 -1.15893446 1.38165071 -0.31738332 0.57007295 0.385105537 -0.208703003 -1.06291073 0.175265689 -0.31738332 0.57007295 0.385105537 1.0606292 -0.0455236771 -0.281679305 0.1983471 0.471929113 1.61145728 1.56623153 -0.141258281 0.921983667 0.1983471 0.471929113 1.61145728 1.56623153 -0.141258281 0.921983667 1.1088472 0.0283591928 2.99402364 1.94381654 -0.286894168 1.60624785 1.56623153 -0.141258281 0.921983667 1.1088472 0.0283591928 2.99402364 1.94381654 -0.286894168 1.60624785 2.36393153 -1.45928001 2.3632911 1.82149825 -0.234376548 1.40003726 2.36393153 -1.45928001 2.3632911 1.94381654 -0.286894168 1.60624785 2.36393153 -1.45928001 2.3632911 1.82149825 -0.234376548 1.40003726 2.42070171 -2.07623242 0.743519218 1.83353546 -0.550525875 0.520059427 2.42070171 -2.07623242 0.743519218 1.82149825 -0.234376548 1.40003726 1.83353546 -0.550525875 0.520059427 2.2302204 -2.22310189 -0.239540382 1.65387158 -0.684888833 -0.395113525 2.2302204 -2.22310189 -0.239540382 1.65387158 -0.684888833 -0.395113525 2.45759742 -2.40905775 -0.111928249 2.37610562 -1.85371652 -1.66351962 2.45759742 -2.40905775 -0.111928249 1.65387158 -0.684888833 -0.395113525 2.37610562 -1.85371652 -1.66351962 2.71483555 -2.72526836 -0.273938388 3.8648774 -3.24675921 -1.33597989 2.71483555 -2.72526836 -0.273938388 2.37610562 -1.85371652 -1.66351962 3.8648774 -3.24675921 -1.33597989 4.12816707 -4.02025869 0.116510931 4.06013482 -3.48067347 -1.44127584 4.12816707 -4.02025869 0.116510931 3.8648774 -3.24675921 -1.33597989 4.06013482 -3.48067347 -1.44127584 4.75829686 -4.81086052 -0.326706779 4.70569327 -4.28919279 -1.89118015 0.739635156 -1.34031455 2.14969307 0.782569238 -1.47257536 1.89255112 2.36393153 -1.45928001 2.3632911 0.782569238 -1.47257536 1.89255112 1.1088472 0.0283591928 2.99402364 0.782569238 -1.47257536 1.89255112 0.799973161 -1.824813 0.923817197 2.42070171 -2.07623242 0.743519218 0.799973161 -1.824813 0.923817197 2.36393153 -1.45928001 2.3632911 0.799973161 -1.824813 0.923817197 0.619011683 -1.96067662 0.00049999789 2.2302204 -2.22310189 -0.239540382 2.42070171 -2.07623242 0.743519218 0.619011683 -1.96067662 0.00049999789 1.28187494 -3.01158482 -1.1004207 2.45759742 -2.40905775 -0.111928249 1.28187494 -3.01158482 -1.1004207 2.2302204 -2.22310189 -0.239540382 1.28187494 -3.01158482 -1.1004207 2.62289514 -4.27543709 -0.831615967 2.71483555 -2.72526836 -0.273938388 2.62289514 -4.27543709 -0.831615967 2.45759742 -2.40905775 -0.111928249 2.62289514 -4.27543709 -0.831615967 2.9642893 -4.63665151 -0.877434843 4.12816707 -4.02025869 0.116510931 2.9642893 -4.63665151 -0.877434843 2.71483555 -2.72526836 -0.273938388 2.9642893 -4.63665151 -0.877434843 4.12816707 -4.02025869 0.116510931 3.60799712 -5.44302233 -1.32653823 4.75829686 -4.81086052 -0.326706779 3.60799712 -5.44302233 -1.32653823 4.77199954 -6.60742533 -1.28828275 4.77199954 -6.60742533 -1.28828275 4.75829686 -4.81086052 -0.326706779 5.42599282 -5.47209399 -0.285388753 4.70569327 -4.28919279 -1.89118015 5.42599282 -5.47209399 -0.285388753 4.75829686 -4.81086052 -0.326706779 5.93735668 -5.52219274 -1.85334201</float_array>
        <technique_common><accessor source="#vfx_kurp_0575-mesh-positions-array" count="200" stride="3"><param name="X" type="float"/><param name="Y" type="float"/><param name="Z" type="float"/></accessor></technique_common>
      </source>
      <source id="vfx_kurp_0575-mesh-normals">
        <float_array id="vfx_kurp_0575-mesh-normals-array" count="600">0.813488327 0.55961915 0.158313451 0.813488331 0.559619138 0.158313476 0.813488331 0.559619138 0.158313476 0.81282471 0.560250928 0.15948319 0.68122066 0.701054259 0.210858572 0.68122066 0.701054259 0.210858572 0.68122066 0.701054259 0.210858572 0.689683095 0.695156527 0.202718108 -0.464734041 -0.420587722 0.779184342 -0.464734039 -0.420587729 0.77918434 -0.464734041 -0.420587722 0.779184342 -0.450041684 -0.424066969 0.785894197 -0.450041684 -0.424066969 0.785894197 -0.450041684 -0.424066969 0.785894197 -0.282190217 -0.630348696 0.72320758 -0.282190209 -0.630348717 0.723207564 -0.482266925 -0.688555846 0.54158052 -0.284133749 -0.629561686 0.723132143 -0.512297495 -0.318660918 0.797500154 -0.512297496 -0.318660917 0.797500154 -0.512297538 -0.318660918 0.797500126 -0.214051906 -0.319402278 0.923127275 -0.214051907 -0.319402274 0.923127276 -0.214051906 -0.319402278 0.923127275 0.16180168 -0.342535885 0.925467117 0.161801678 -0.342535878 0.925467119 0.161801653 -0.342535896 0.925467117 -0.490656841 -0.350990049 0.797534858 -0.490656842 -0.350990045 0.797534859 -0.490656841 -0.350990049 0.797534858 -0.582917561 -0.167077064 0.795168141 -0.582917561 -0.167077064 0.795168141 -0.582917561 -0.167077064 0.795168141 -0.0165280531 -0.728198755 0.685166692 -0.016528079 -0.728198752 0.685166695 -0.0165281069 -0.728198774 0.685166672 -0.133402349 -0.976079629 0.171675193 -0.133402349 -0.976079629 0.171675193 -0.133402356 -0.97607963 0.171675181 -0.132610876 -0.976535375 0.169685051 -0.10533324 -0.930531309 0.350736926 -0.10533324 -0.930531309 0.350736926 -0.10533324 -0.930531309 0.350736926 -0.0929711408 -0.936267298 0.338762326 -0.0929711408 -0.936267298 0.338762326 -0.0929711261 -0.936267292 0.338762348 -0.235742536 -0.54113542 0.807216151 -0.235742543 -0.541135396 0.807216165 -0.235742536 -0.54113542 0.807216151 0.816862611 -0.446014381 0.365795908 0.816862604 -0.446014404 0.365795896 0.816862604 -0.446014404 0.365795896 -0.845194183 -0.0963102589 0.525710116 -0.845194184 -0.0963102444 0.525710119 -0.84519418 -0.0963102456 0.525710125 -0.872672554 -0.120080094 0.473311086 -0.872672554 -0.120080094 0.473311086 -0.872672554 -0.120080094 0.473311086 0.792693935 0.585918847 0.16833131 0.792693935 0.585918847 0.16833131 0.792693935 0.585918847 0.16833131 0.602772647 0.744442421 0.287176978 0.602772647 0.744442421 0.287176978 0.602772647 0.744442421 0.287176978 0.613396203 0.727707932 0.306897805 0.613396197 0.727707947 0.306897783 0.613396203 0.727707932 0.306897805 0.80444663 0.592800442 0.0381215865 0.804511668 0.571348196 0.162241222 0.804511665 0.571348208 0.162241198 0.894052245 0.434600855 0.108594105 0.894052247 0.434600844 0.10859413 0.894052247 0.434600844 0.10859413 0.404918133 0.530066515 -0.745030734 -0.563186712 -0.128460944 0.816283353 -0.563186733 -0.128460955 0.816283337 0.919181761 0.321382957 -0.227635421 0.919181762 0.321382968 -0.227635403 0.919181764 0.321382961 -0.227635405 0.549493816 0.630204334 -0.548542654 0.919739489 0.320838645 -0.226145608 0.932880101 0.342846303 -0.110413445 0.932880101 0.342846303 -0.110413445 0.932880097 0.342846317 -0.110413441 0.741036776 0.656400518 -0.141431452 0.935929081 0.338784984 -0.096236638 0.935929091 0.338784963 -0.0962366152 0.856954694 -0.0253186038 -0.514769483 0.856954696 -0.0253186044 -0.51476948 0.856954694 -0.0253186038 -0.514769483 0.634708757 0.760515783 0.136969111 0.783246976 0.510138473 0.355363072 0.783246991 0.510138452 0.355363069 0.356406433 0.934328455 0.00218922951 0.356406433 0.934328455 0.00218923033 0.356406433 0.934328455 0.00218923033 0.322872556 0.946179787 -0.0222962677 0.416316702 0.909051564 0.0174830615 0.416316702 0.909051564 0.0174830615 0.372525002 0.924306222 -0.0829646345 0.372524963 0.92430624 -0.082964613 0.372524963 0.92430624 -0.082964613 0.372798908 0.924209348 -0.0828133721 -0.855876339 -0.399844719 0.328024227 -0.919363291 -0.109487307 0.377867264 -0.919363291 -0.109487292 0.377867267 -0.919468173 -0.109708817 0.377547685 0.805850713 -0.170661724 -0.566991362 0.859463808 0.108331158 -0.499586153 0.854935072 0.104446608 -0.508111139 0.872672554 0.120080094 -0.473311086 0.919363291 0.109487292 -0.377867267 0.919363291 0.109487292 -0.377867267 0.919363291 0.109487307 -0.377867264 0.919468173 0.109708817 -0.377547685 -0.372798908 -0.924209348 0.0828133721 -0.37279891 -0.924209348 0.0828133689 -0.37279891 -0.924209348 0.0828133689 -0.372524963 -0.92430624 0.082964613 -0.416316702 -0.909051564 -0.0174830615 -0.416316702 -0.909051564 -0.0174830615 -0.416316702 -0.909051564 -0.0174830615 -0.356406433 -0.934328455 -0.00218923033 -0.356406433 -0.934328455 -0.00218922951 -0.783246991 -0.510138452 -0.355363069 -0.783246976 -0.510138473 -0.355363072 -0.783246991 -0.510138452 -0.355363069 -0.856954694 0.0253186038 0.514769483 -0.856954696 0.0253186044 0.51476948 -0.856954694 0.0253186038 0.514769483 -0.935929091 -0.338784963 0.0962366152 -0.935929081 -0.338784984 0.096236638 -0.927642215 -0.328170681 0.17828047 -0.932880097 -0.342846317 0.110413441 -0.932880101 -0.342846303 0.110413445 -0.932880101 -0.342846303 0.110413445 -0.919739494 -0.320838641 0.226145594 0.238522761 -0.00833387852 -0.971101148 -0.919181764 -0.321382961 0.227635405 -0.919181762 -0.321382968 0.227635403 0.563186712 0.128460944 -0.816283353 -0.667676912 -0.573463138 -0.474707879 -0.894052247 -0.434600844 -0.10859413 -0.894052247 -0.434600844 -0.10859413 -0.894052245 -0.434600855 -0.108594105 -0.804511668 -0.571348196 -0.162241222 -0.730145901 -0.648492432 -0.215277792 -0.613396203 -0.727707932 -0.306897805 -0.613396197 -0.727707947 -0.306897783 -0.613396203 -0.727707932 -0.306897805 -0.602772647 -0.744442421 -0.287176978 -0.739384722 -0.639301649 -0.211195727 -0.792693935 -0.585918847 -0.16833131 -0.792693935 -0.585918847 -0.16833131 -0.792693935 -0.585918847 -0.16833131 -0.813488331 -0.559619138 -0.158313476 -0.45425294 -0.210636065 -0.86561349 -0.81282471 -0.560250928 -0.15948319 -0.816862604 0.446014404 -0.365795896 -0.816862611 0.446014381 -0.365795908 0.235742536 0.54113542 -0.807216151 0.235742543 0.541135396 -0.807216165 0.235742536 0.54113542 -0.807216151 0.0929711261 0.936267292 -0.338762348 0.0929711408 0.936267298 -0.338762326 0.10533324 0.930531309 -0.350736926 0.10533324 0.930531309 -0.350736926 0.10533324 0.930531309 -0.350736926 0.132610876 0.976535375 -0.169685051 0.132610852 0.97653538 -0.169685041 0.133402356 0.97607963 -0.171675181 0.133402349 0.976079629 -0.171675193 0.0165281069 0.728198774 -0.685166672 0.0165280531 0.728198755 -0.685166692 0.582917561 0.167077064 -0.795168141 0.582917561 0.167077064 -0.795168141 0.582917561 0.167077064 -0.795168141 0.490656841 0.350990049 -0.797534858 0.490656841 0.350990049 -0.797534858 -0.161801653 0.342535896 -0.925467117 -0.161801678 0.342535878 -0.925467119 -0.16180168 0.342535885 -0.925467117 0.214051906 0.319402278 -0.923127275 0.214051906 0.319402278 -0.923127275 0.512297538 0.318660918 -0.797500126 0.512297496 0.318660917 -0.797500154 0.512297495 0.318660918 -0.797500154 0.284133749 0.629561686 -0.723132143 0.284133711 0.629561673 -0.723132169 0.284133711 0.629561673 -0.723132169 0.282190169 0.630348728 -0.72320757 0.450041684 0.424066969 -0.785894197 0.450041684 0.424066969 -0.785894197 0.464734041 0.420587722 -0.779184342 0.464734039 0.420587729 -0.77918434 0.464734041 0.420587722 -0.779184342 -0.68122066 -0.701054259 -0.210858572 -0.68122066 -0.701054259 -0.210858572 -0.68122066 -0.701054259 -0.210858572 -0.689683095 -0.695156527 -0.202718108</float_array>
        <technique_common><accessor source="#vfx_kurp_0575-mesh-normals-array" count="200" stride="3"><param name="X" type="float"/><param name="Y" type="float"/><param name="Z" type="float"/></accessor></technique_common>
      </source>
      <source id="vfx_kurp_0575-mesh-uv0">
        <float_array id="vfx_kurp_0575-mesh-uv0-array" count="400">0.5 0.199999988 0.5 0.0999999642 0 0.199999988 0 0.0999999642 0.5 0 0 0.0999999642 0.5 0.0999999642 0 0 0.5 0 0.5 0.0999999642 1 0 1 0 0.5 0.0999999642 1 0.0999999642 0.5 0.199999988 1 0.0999999642 0.5 0.0999999642 1 0.199999988 0.5 0.300000012 1 0.199999988 0.5 0.199999988 1 0.199999988 0.5 0.300000012 1 0.300000012 0.5 0.399999976 1 0.300000012 0.5 0.300000012 1 0.300000012 0.5 0.399999976 1 0.399999976 0.5 0.5 1 0.399999976 0.5 0.399999976 1 0.399999976 0.5 0.5 1 0.5 0.5 0.600000024 1 0.5 0.5 0.5 1 0.600000024 0.5 0.699999988 1 0.600000024 0.5 0.600000024 1 0.600000024 0.5 0.699999988 1 0.699999988 0.5 0.800000012 1 0.699999988 0.5 0.699999988 1 0.699999988 0.5 0.800000012 1 0.800000012 0.5 0.899999976 1 0.800000012 0.5 0.800000012 1 0.800000012 0.5 0.899999976 1 0.899999976 0 0.300000012 0.5 0.199999988 0 0.199999988 0.5 0.199999988 0 0.300000012 0.5 0.300000012 0 0.399999976 0.5 0.300000012 0 0.300000012 0.5 0.300000012 0 0.399999976 0.5 0.399999976 0 0.5 0.5 0.399999976 0 0.399999976 0.5 0.399999976 0 0.5 0.5 0.5 0 0.600000024 0.5 0.5 0 0.5 0.5 0.5 0.5 0.600000024 0 0.699999988 0.5 0.600000024 0 0.600000024 0.5 0.600000024 0 0.699999988 0.5 0.699999988 0 0.800000012 0.5 0.699999988 0 0.699999988 0.5 0.699999988 0 0.800000012 0.5 0.800000012 0 0.899999976 0.5 0.800000012 0 0.800000012 0.5 0.800000012 0 0.899999976 0.5 0.899999976 0 1 0.5 0.899999976 0 0.899999976 0.5 1 0.5 0.899999976 0.5 1 1 0.899999976 1 1 0.5 0.800000012 1 0.800000012 0.5 0.899999976 1 0.899999976 0.5 0.899999976 1 0.899999976 0.5 1 1 1 0.5 1 0 1 0.5 0.899999976 0 0.899999976 0.5 0.899999976 0 0.899999976 0.5 0.800000012 0 0.800000012 0 0.899999976 0.5 0.800000012 0 0.800000012 0.5 0.699999988 0 0.699999988 0.5 0.699999988 0 0.800000012 0.5 0.699999988 0 0.699999988 0.5 0.600000024 0 0.600000024 0.5 0.600000024 0 0.699999988 0 0.600000024 0.5 0.5 0 0.5 0.5 0.5 0 0.5 0.5 0.399999976 0 0.399999976 0.5 0.399999976 0 0.5 0 0.399999976 0.5 0.300000012 0 0.300000012 0.5 0.300000012 0 0.399999976 0 0.300000012 0.5 0.199999988 0 0.199999988 0.5 0.199999988 0 0.300000012 0 0.199999988 0.5 0.0999999642 0 0.0999999642 1 0.800000012 1 0.699999988 0.5 0.699999988 1 0.699999988 0.5 0.800000012 1 0.699999988 1 0.600000024 0.5 0.600000024 1 0.600000024 0.5 0.699999988 1 0.600000024 1 0.5 0.5 0.5 0.5 0.600000024 1 0.5 1 0.399999976 0.5 0.399999976 1 0.399999976 0.5 0.5 1 0.399999976 1 0.300000012 0.5 0.300000012 1 0.300000012 0.5 0.399999976 1 0.300000012 1 0.199999988 0.5 0.199999988 1 0.199999988 0.5 0.300000012 1 0.199999988 0.5 0.199999988 1 0.0999999642 0.5 0.0999999642 1 0.0999999642 1 0 1 0 0.5 0.0999999642 0.5 0 0 0.0999999642 0.5 0 0.5 0.0999999642 0 0</float_array>
        <technique_common><accessor source="#vfx_kurp_0575-mesh-uv0-array" count="200" stride="2"><param name="S" type="float"/><param name="T" type="float"/></accessor></technique_common>
      </source>
      <source id="vfx_kurp_0575-mesh-colors">
        <float_array id="vfx_kurp_0575-mesh-colors-array" count="800">0.0666666701 0.0666666701 0.0666666701 1 0.0666666701 0.0666666701 0.0666666701 1 0.0666666701 0.0666666701 0.0666666701 0 0.0666666701 0.0666666701 0.0666666701 0 0.0666666701 0.0666666701 0.0666666701 0 0.0666666701 0.0666666701 0.0666666701 0 0.0666666701 0.0666666701 0.0666666701 1 0.0666666701 0.0666666701 0.0666666701 0 0.0666666701 0.0666666701 0.0666666701 0 0.0666666701 0.0666666701 0.0666666701 1 0.0666666701 0.0666666701 0.0666666701 0 0.0666666701 0.0666666701 0.0666666701 0 0.0666666701 0.0666666701 0.0666666701 1 0.0666666701 0.0666666701 0.0666666701 0 0.0666666701 0.0666666701 0.0666666701 1 0.0666666701 0.0666666701 0.0666666701 0 0.0666666701 0.0666666701 0.0666666701 1 0.0666666701 0.0666666701 0.0666666701 0 0.0666666701 0.0666666701 0.0666666701 1 0.0666666701 0.0666666701 0.0666666701 0 0.0666666701 0.0666666701 0.0666666701 1 0.0666666701 0.0666666701 0.0666666701 0 0.0666666701 0.0666666701 0.0666666701 1 0.0666666701 0.0666666701 0.0666666701 0 0.0666666701 0.0666666701 0.0666666701 1 0.0666666701 0.0666666701 0.0666666701 0 0.0666666701 0.0666666701 0.0666666701 1 0.0666666701 0.0666666701 0.0666666701 0 0.0666666701 0.0666666701 0.0666666701 1 0.0666666701 0.0666666701 0.0666666701 0 0.0666666701 0.0666666701 0.0666666701 1 0.0666666701 0.0666666701 0.0666666701 0 0.0666666701 0.0666666701 0.0666666701 1 0.0666666701 0.0666666701 0.0666666701 0 0.0666666701 0.0666666701 0.0666666701 1 0.0666666701 0.0666666701 0.0666666701 0 0.0666666701 0.0666666701 0.0666666701 1 0.0666666701 0.0666666701 0.0666666701 0 0.0666666701 0.0666666701 0.0666666701 1 0.0666666701 0.0666666701 0.0666666701 0 0.0666666701 0.0666666701 0.0666666701 1 0.0666666701 0.0666666701 0.0666666701 0 0.0666666701 0.0666666701 0.0666666701 1 0.0666666701 0.0666666701 0.0666666701 0 0.0666666701 0.0666666701 0.0666666701 1 0.0666666701 0.0666666701 0.0666666701 0 0.0666666701 0.0666666701 0.0666666701 1 0.0666666701 0.0666666701 0.0666666701 0 0.0666666701 0.0666666701 0.0666666701 1 0.0666666701 0.0666666701 0.0666666701 0 0.0666666701 0.0666666701 0.0666666701 1 0.0666666701 0.0666666701 0.0666666701 0 0.0666666701 0.0666666701 0.0666666701 1 0.0666666701 0.0666666701 0.0666666701 0 0.0666666701 0.0666666701 0.0666666701 1 0.0666666701 0.0666666701 0.0666666701 0 0.0666666701 0.0666666701 0.0666666701 1 0.0666666701 0.0666666701 0.0666666701 0 0.0666666701 0.0666666701 0.0666666701 0 0.0666666701 0.0666666701 0.0666666701 1 0.0666666701 0.0666666701 0.0666666701 0 0.0666666701 0.0666666701 0.0666666701 1 0.0666666701 0.0666666701 0.0666666701 0 0.0666666701 0.0666666701 0.0666666701 1 0.0666666701 0.0666666701 0.0666666701 0 0.0666666701 0.0666666701 0.0666666701 1 0.0666666701 0.0666666701 0.0666666701 0 0.0666666701 0.0666666701 0.0666666701 1 0.0666666701 0.0666666701 0.0666666701 0 0.0666666701 0.0666666701 0.0666666701 1 0.0666666701 0.0666666701 0.0666666701 0 0.0666666701 0.0666666701 0.0666666701 1 0.0666666701 0.0666666701 0.0666666701 0 0.0666666701 0.0666666701 0.0666666701 1 0.0666666701 0.0666666701 0.0666666701 0 0.0666666701 0.0666666701 0.0666666701 1 0.0666666701 0.0666666701 0.0666666701 0 0.0666666701 0.0666666701 0.0666666701 1 0.0666666701 0.0666666701 0.0666666701 0 0.0666666701 0.0666666701 0.0666666701 1 0.0666666701 0.0666666701 0.0666666701 1 0.0666666701 0.0666666701 0.0666666701 0 0.0666666701 0.0666666701 0.0666666701 1 0.0666666701 0.0666666701 0.0666666701 0 0.0666666701 0.0666666701 0.0666666701 1 0.0666666701 0.0666666701 0.0666666701 0 0.0666666701 0.0666666701 0.0666666701 1 0.0666666701 0.0666666701 0.0666666701 0 0.0666666701 0.0666666701 0.0666666701 1 0.0666666701 0.0666666701 0.0666666701 0 0.0666666701 0.0666666701 0.0666666701 1 0.0666666701 0.0666666701 0.0666666701 0 0.0666666701 0.0666666701 0.0666666701 1 0.0666666701 0.0666666701 0.0666666701 0 0.0666666701 0.0666666701 0.0666666701 1 0.0666666701 0.0666666701 0.0666666701 0 0.0666666701 0.0666666701 0.0666666701 1 0.0666666701 0.0666666701 0.0666666701 0 0.0666666701 0.0666666701 0.0666666701 1 0.0666666701 0.0666666701 0.0666666701 0 0.0666666701 0.0666666701 0.0666666701 1 0.0666666701 0.0666666701 0.0666666701 0 0.0666666701 0.0666666701 0.0666666701 0 0.0666666701 0.0666666701 0.0666666701 1 0.0666666701 0.0666666701 0.0666666701 0 0.0666666701 0.0666666701 0.0666666701 0 0.0666666701 0.0666666701 0.0666666701 0 0.0666666701 0.0666666701 0.0666666701 1 0.0666666701 0.0666666701 0.0666666701 0 0.0666666701 0.0666666701 0.0666666701 1 0.0666666701 0.0666666701 0.0666666701 0 0.0666666701 0.0666666701 0.0666666701 1 0.0666666701 0.0666666701 0.0666666701 0 0.0666666701 0.0666666701 0.0666666701 0 0.0666666701 0.0666666701 0.0666666701 0 0.0666666701 0.0666666701 0.0666666701 0 0.0666666701 0.0666666701 0.0666666701 0 0.0666666701 0.0666666701 0.0666666701 1 0.0666666701 0.0666666701 0.0666666701 0 0.0666666701 0.0666666701 0.0666666701 1 0.0666666701 0.0666666701 0.0666666701 0 0.0666666701 0.0666666701 0.0666666701 1 0.0666666701 0.0666666701 0.0666666701 0 0.0666666701 0.0666666701 0.0666666701 0 0.0666666701 0.0666666701 0.0666666701 1 0.0666666701 0.0666666701 0.0666666701 0 0.0666666701 0.0666666701 0.0666666701 1 0.0666666701 0.0666666701 0.0666666701 0 0.0666666701 0.0666666701 0.0666666701 1 0.0666666701 0.0666666701 0.0666666701 0 0.0666666701 0.0666666701 0.0666666701 1 0.0666666701 0.0666666701 0.0666666701 0 0.0666666701 0.0666666701 0.0666666701 1 0.0666666701 0.0666666701 0.0666666701 0 0.0666666701 0.0666666701 0.0666666701 1 0.0666666701 0.0666666701 0.0666666701 0 0.0666666701 0.0666666701 0.0666666701 0 0.0666666701 0.0666666701 0.0666666701 1 0.0666666701 0.0666666701 0.0666666701 0 0.0666666701 0.0666666701 0.0666666701 1 0.0666666701 0.0666666701 0.0666666701 0 0.0666666701 0.0666666701 0.0666666701 1 0.0666666701 0.0666666701 0.0666666701 0 0.0666666701 0.0666666701 0.0666666701 1 0.0666666701 0.0666666701 0.0666666701 0 0.0666666701 0.0666666701 0.0666666701 0 0.0666666701 0.0666666701 0.0666666701 1 0.0666666701 0.0666666701 0.0666666701 0 0.0666666701 0.0666666701 0.0666666701 1 0.0666666701 0.0666666701 0.0666666701 0 0.0666666701 0.0666666701 0.0666666701 0 0.0666666701 0.0666666701 0.0666666701 1 0.0666666701 0.0666666701 0.0666666701 0 0.0666666701 0.0666666701 0.0666666701 1 0.0666666701 0.0666666701 0.0666666701 0 0.0666666701 0.0666666701 0.0666666701 0 0.0666666701 0.0666666701 0.0666666701 1 0.0666666701 0.0666666701 0.0666666701 0 0.0666666701 0.0666666701 0.0666666701 0 0.0666666701 0.0666666701 0.0666666701 0 0.0666666701 0.0666666701 0.0666666701 1 0.0666666701 0.0666666701 0.0666666701 0 0.0666666701 0.0666666701 0.0666666701 1 0.0666666701 0.0666666701 0.0666666701 0 0.0666666701 0.0666666701 0.0666666701 0 0.0666666701 0.0666666701 0.0666666701 1 0.0666666701 0.0666666701 0.0666666701 0 0.0666666701 0.0666666701 0.0666666701 1 0.0666666701 0.0666666701 0.0666666701 0 0.0666666701 0.0666666701 0.0666666701 0 0.0666666701 0.0666666701 0.0666666701 1 0.0666666701 0.0666666701 0.0666666701 1 0.0666666701 0.0666666701 0.0666666701 0 0.0666666701 0.0666666701 0.0666666701 0 0.0666666701 0.0666666701 0.0666666701 1 0.0666666701 0.0666666701 0.0666666701 0 0.0666666701 0.0666666701 0.0666666701 1 0.0666666701 0.0666666701 0.0666666701 0 0.0666666701 0.0666666701 0.0666666701 0 0.0666666701 0.0666666701 0.0666666701 1 0.0666666701 0.0666666701 0.0666666701 0 0.0666666701 0.0666666701 0.0666666701 1 0.0666666701 0.0666666701 0.0666666701 0 0.0666666701 0.0666666701 0.0666666701 0 0.0666666701 0.0666666701 0.0666666701 1 0.0666666701 0.0666666701 0.0666666701 0 0.0666666701 0.0666666701 0.0666666701 1 0.0666666701 0.0666666701 0.0666666701 0 0.0666666701 0.0666666701 0.0666666701 1 0.0666666701 0.0666666701 0.0666666701 0 0.0666666701 0.0666666701 0.0666666701 1 0.0666666701 0.0666666701 0.0666666701 0 0.0666666701 0.0666666701 0.0666666701 0 0.0666666701 0.0666666701 0.0666666701 0 0.0666666701 0.0666666701 0.0666666701 1 0.0666666701 0.0666666701 0.0666666701 0 0.0666666701 0.0666666701 0.0666666701 0 0.0666666701 0.0666666701 0.0666666701 0 0.0666666701 0.0666666701 0.0666666701 1 0.0666666701 0.0666666701 0.0666666701 0</float_array>
        <technique_common><accessor source="#vfx_kurp_0575-mesh-colors-array" count="200" stride="4"><param name="R" type="float"/><param name="G" type="float"/><param name="B" type="float"/><param name="A" type="float"/></accessor></technique_common>
      </source>
      <vertices id="vfx_kurp_0575-mesh-vertices"><input semantic="POSITION" source="#vfx_kurp_0575-mesh-positions"/></vertices>
      <triangles material="PreviewMaterial" count="80">
        <input semantic="VERTEX" source="#vfx_kurp_0575-mesh-vertices" offset="0"/>
        <input semantic="NORMAL" source="#vfx_kurp_0575-mesh-normals" offset="1"/>
        <input semantic="TEXCOORD" source="#vfx_kurp_0575-mesh-uv0" offset="2" set="0"/>
        <input semantic="COLOR" source="#vfx_kurp_0575-mesh-colors" offset="3" set="0"/>
        <p>0 0 0 0 1 1 1 1 2 2 2 2 2 2 2 2 1 1 1 1 3 3 3 3 4 4 4 4 5 5 5 5 6 6 6 6 5 5 5 5 4 4 4 4 7 7 7 7 8 8 8 8 9 9 9 9 10 10 10 10 11 11 11 11 12 12 12 12 13 13 13 13 14 14 14 14 15 15 15 15 16 16 16 16 15 15 15 15 14 14 14 14 17 17 17 17 18 18 18 18 19 19 19 19 20 20 20 20 21 21 21 21 22 22 22 22 23 23 23 23 24 24 24 24 25 25 25 25 26 26 26 26 27 27 27 27 28 28 28 28 29 29 29 29 30 30 30 30 31 31 31 31 32 32 32 32 33 33 33 33 34 34 34 34 35 35 35 35 36 36 36 36 37 37 37 37 38 38 38 38 37 37 37 37 36 36 36 36 39 39 39 39 40 40 40 40 41 41 41 41 42 42 42 42 43 43 43 43 44 44 44 44 45 45 45 45 46 46 46 46 47 47 47 47 48 48 48 48 49 49 49 49 50 50 50 50 51 51 51 51 52 52 52 52 53 53 53 53 54 54 54 54 55 55 55 55 56 56 56 56 57 57 57 57 58 58 58 58 59 59 59 59 60 60 60 60 61 61 61 61 62 62 62 62 63 63 63 63 64 64 64 64 65 65 65 65 66 66 66 66 67 67 67 67 68 68 68 68 69 69 69 69 70 70 70 70 71 71 71 71 72 72 72 72 73 73 73 73 74 74 74 74 75 75 75 75 76 76 76 76 77 77 77 77 78 78 78 78 79 79 79 79 76 76 76 76 80 80 80 80 81 81 81 81 82 82 82 82 83 83 83 83 84 84 84 84 85 85 85 85 86 86 86 86 87 87 87 87 88 88 88 88 89 89 89 89 90 90 90 90 91 91 91 91 92 92 92 92 93 93 93 93 94 94 94 94 95 95 95 95 96 96 96 96 97 97 97 97 98 98 98 98 99 99 99 99 100 100 100 100 101 101 101 101 102 102 102 102 100 100 100 100 99 99 99 99 103 103 103 103 104 104 104 104 105 105 105 105 106 106 106 106 105 105 105 105 104 104 104 104 107 107 107 107 108 108 108 108 109 109 109 109 110 110 110 110 109 109 109 109 108 108 108 108 111 111 111 111 112 112 112 112 113 113 113 113 114 114 114 114 113 113 113 113 112 112 112 112 115 115 115 115 116 116 116 116 117 117 117 117 118 118 118 118 103 103 103 103 116 116 116 116 119 119 119 119 120 120 120 120 121 121 121 121 122 122 122 122 107 107 107 107 123 123 123 123 124 124 124 124 125 125 125 125 126 126 126 126 127 127 127 127 128 128 128 128 129 129 129 129 130 130 130 130 131 131 131 131 132 132 132 132 133 133 133 133 134 134 134 134 135 135 135 135 132 132 132 132 136 136 136 136 137 137 137 137 138 138 138 138 139 139 139 139 136 136 136 136 137 137 137 137 140 140 140 140 141 141 141 141 142 142 142 142 143 143 143 143 144 144 144 144 141 141 141 141 145 145 145 145 146 146 146 146 147 147 147 147 148 148 148 148 149 149 149 149 146 146 146 146 150 150 150 150 151 151 151 151 152 152 152 152 153 153 153 153 154 154 154 154 151 151 151 151 155 155 155 155 156 156 156 156 157 157 157 157 16 16 16 16 155 155 155 155 158 158 158 158 96 96 96 96 159 159 159 159 160 160 160 160 161 161 161 161 162 162 162 162 163 163 163 163 90 90 90 90 164 164 164 164 165 165 165 165 166 166 166 166 167 167 167 167 168 168 168 168 84 84 84 84 169 169 169 169 170 170 170 170 169 169 169 169 171 171 171 171 172 172 172 172 79 79 79 79 173 173 173 173 174 174 174 174 175 175 175 175 176 176 176 176 177 177 177 177 73 73 73 73 178 178 178 178 179 179 179 179 180 180 180 180 181 181 181 181 182 182 182 182 67 67 67 67 183 183 183 183 184 184 184 184 185 185 185 185 186 186 186 186 187 187 187 187 188 188 188 188 189 189 189 189 190 190 190 190 189 189 189 189 188 188 188 188 191 191 191 191 156 156 156 156 192 192 192 192 193 193 193 193 194 194 194 194 195 195 195 195 196 196 196 196 197 197 197 197 198 198 198 198 199 199 199 199 197 197 197 197 196 196 196 196</p>
      </triangles>
    </mesh></geometry>
  </library_geometries>
  <library_visual_scenes>
    <visual_scene id="Scene" name="Scene">
      <node id="vfx_kurp_0575" name="vfx_kurp_0575" type="NODE">
        <instance_geometry url="#vfx_kurp_0575-mesh"><bind_material><technique_common><instance_material symbol="PreviewMaterial" target="#PreviewMaterial"><bind_vertex_input semantic="UVSET0" input_semantic="TEXCOORD" input_set="0"/></instance_material></technique_common></bind_material></instance_geometry>
      </node>
    </visual_scene>
  </library_visual_scenes>
  <scene><instance_visual_scene url="#Scene"/></scene>
</COLLADA>
