<?xml version="1.0" encoding="utf-8"?>
<COLLADA xmlns="http://www.collada.org/2005/11/COLLADASchema" version="1.4.1">
  <asset>
    <contributor><authoring_tool>Morrobroom Kurpulio VFX preview converter</authoring_tool></contributor>
    <unit name="unit" meter="1"/>
    <up_axis>Z_UP</up_axis>
  </asset>
  <library_images>
    <image id="VFXTexture" name="darkmap_newgen-1.dds">
      <init_from>../../../Textures/Kurp/darkmap_newgen-1.dds</init_from>
    </image>
  </library_images>
  <library_effects>
    <effect id="PreviewEffect">
      <profile_COMMON>
        <newparam sid="VFXTexture-surface">
          <surface type="2D"><init_from>VFXTexture</init_from></surface>
        </newparam>
        <newparam sid="VFXTexture-sampler">
          <sampler2D><source>VFXTexture-surface</source></sampler2D>
        </newparam>
        <technique sid="common"><phong>
          <emission><color>0.08 0.08 0.08 1</color></emission>
          <ambient><color>0.2 0.2 0.2 1</color></ambient>
          <diffuse><texture texture="VFXTexture-sampler" texcoord="UVSET0"/></diffuse>
          <specular><color>0.15 0.15 0.15 1</color></specular>
          <shininess><float>8</float></shininess>
          <transparent opaque="A_ONE"><texture texture="VFXTexture-sampler" texcoord="UVSET0"/></transparent>
          <transparency><float>1</float></transparency>
        </phong></technique>
      </profile_COMMON>
      <extra><technique profile="GOOGLEEARTH"><double_sided>1</double_sided></technique></extra>
    </effect>
  </library_effects>
  <library_materials><material id="PreviewMaterial" name="PreviewMaterial"><instance_effect url="#PreviewEffect"/></material></library_materials>
  <library_geometries>
    <geometry id="vfx_kurp_0470-mesh" name="vfx_kurp_0470"><mesh>
      <source id="vfx_kurp_0470-mesh-positions">
        <float_array id="vfx_kurp_0470-mesh-positions-array" count="306">2.17593437 1.17228895 4.82374513 2.82330662 1.25960451 5.66266 2.17593473 1.17228869 -6.66960454 2.82330698 1.25960407 -5.83068967 3.35268867 1.05976859 6.51689816 3.35268867 1.05976805 -4.97644973 3.66227245 0.691520244 7.38646173 3.66227245 0.691519752 -4.10688794 3.72742116 0.296947964 8.27134681 3.66227245 0.691519752 -4.10688794 3.66227245 0.691520244 7.38646173 3.72742116 0.296947338 -3.22200215 3.59754503 4.1270313e-07 9.17155695 3.72742116 0.296947338 -3.22200215 3.72742116 0.296947964 8.27134681 3.59754503 -2.0160185e-07 -2.32179219 1.5708037 0.741624668 -7.4931972 1.57080352 0.741624892 4.00015318 1.18923452 3.03270262e-07 -8.30146408 1.18923452 4.95329942e-07 3.19188595 1.18605602 -0.926908493 -9.09440875 1.18605629 -0.926908672 2.39894181 1.64342701 -1.84003061 -9.87202835 1.64342719 -1.84003043 1.62132078 2.53823125 -2.50859553 -10.6343257 2.53823197 -2.50859517 0.859023839 3.73278558 -2.72509056 -11.3812988 3.7327863 -2.72508985 0.112050544 4.99353647 -2.36087769 -12.1129489 4.99353755 -2.36087626 -0.619599268 6.03590298 -1.40865701 -12.8292761 6.03590298 -1.40865523 -1.33592543 6.58680439 -3.07400433e-06 -13.5302796 6.58680439 -9.73165101e-07 -2.03692853 4.23451066 -2.36080796 4.82374513 3.83520734 -1.84382486 5.66266 4.23451102 -2.36080742 -6.66960454 3.83520734 -1.84382433 -5.83068967 3.74357915 -1.28544858 6.51689816 3.74357951 -1.28544831 -4.97644973 3.90769958 -0.833216965 7.38646173 3.90769994 -0.833216786 -4.10688794 4.2168349 -0.579510391 8.27134681 3.90769994 -0.833216786 -4.10688794 3.90769958 -0.833216965 7.38646173 4.21683526 -0.579510078 -3.22200215 4.53893709 -0.543512642 9.17155695 4.21683526 -0.579510078 -3.22200215 4.2168349 -0.579510391 8.27134681 4.53893745 -0.543512329 -2.32179219 4.91004252 -2.66953433 -7.4931972 4.91004217 -2.6695345 4.00015318 5.74309266 -2.62917066 -8.30146408 5.7430923 -2.62917066 3.19188595 6.5474081 -2.16846889 -9.09440875 6.5474081 -2.16846853 2.39894181 7.10950971 -1.3158128 -9.87202835 7.10950971 -1.3158128 1.62132078 7.24110174 -0.206607141 -10.6343257 7.24110103 -0.206606694 0.859023839 6.83131456 0.936154783 -11.3812988 6.83131385 0.936155051 0.112050544 5.88552153 1.84589052 -12.1129489 5.88551974 1.84589088 -0.619599268 4.53969097 2.27249604 -12.8292761 4.53968954 2.27249515 -1.33592543 3.04431009 2.04526359 -13.5302796 3.0443083 2.04526252 -2.03692853 6.26497364 1.18852061 4.82374513 6.01690507 0.584222049 5.66266 6.26497364 1.18852043 -6.66960454 6.01690435 0.584221959 -5.83068967 5.57915139 0.225681648 6.51689816 5.57915068 0.225681916 -4.97644973 5.10544682 0.141698353 7.38646173 5.10544646 0.141698599 -4.10688794 4.73116279 0.282564014 8.27134681 5.10544646 0.141698599 -4.10688794 5.10544682 0.141698353 7.38646173 4.73116243 0.282564327 -3.22200215 4.53893673 0.543513805 9.17155695 4.73116243 0.282564327 -3.22200215 4.73116279 0.282564014 8.27134681 4.53893638 0.543514118 -2.32179219 6.19457316 1.92791122 -7.4931972 6.19457316 1.9279114 4.00015318 5.74309194 2.62917209 -8.30146408 5.74309194 2.62917191 3.19188595 4.94195437 3.09537899 -9.09440875 4.94195402 3.09537899 2.39894181 3.92248213 3.15584493 -9.87202835 3.92248213 3.15584493 1.62132078 2.89608568 2.7152043 -10.6343257 2.89608568 2.7152034 0.859023839 2.11131853 1.78893721 -11.3812988 2.11131871 1.78893632 0.112050544 1.79636067 0.514988512 -12.1129489 1.79636139 0.514986902 -0.619599268 2.09982491 -0.863837689 -12.8292761 2.09982651 -0.863838583 -1.33592543 3.04430437 -2.04525912 -13.5302796 3.04430616 -2.04526019 -2.03692853</float_array>
        <technique_common><accessor source="#vfx_kurp_0470-mesh-positions-array" count="102" stride="3"><param name="X" type="float"/><param name="Y" type="float"/><param name="Z" type="float"/></accessor></technique_common>
      </source>
      <source id="vfx_kurp_0470-mesh-normals">
        <float_array id="vfx_kurp_0470-mesh-normals-array" count="306">-0.240467901 0.970657091 -2.75263202e-08 0.258192567 0.966093473 -2.65672211e-08 -0.493359233 0.869825653 -3.87694318e-08 -0.0415192769 0.999137703 -4.34285214e-08 0.704052449 0.710147977 -3.00279339e-08 0.428817588 0.903391098 -4.17767924e-08 0.765443628 0.643502955 -2.98422906e-08 0.765443574 0.643503019 -2.75320179e-08 0.986641505 0.162906539 -7.11452393e-09 0.98664151 0.16290651 -8.72613611e-09 0.9866415 0.162906568 -6.96989159e-09 0.98664151 0.16290651 -8.87076886e-09 0.91620088 -0.400719287 2.17899673e-08 0.916200869 -0.400719312 2.14483896e-08 0.916200869 -0.400719312 2.18204191e-08 0.916200869 -0.400719312 2.14179393e-08 -0.832429369 0.554131163 -2.64542137e-08 -0.671260723 0.741221318 -2.13359129e-08 -0.992258934 0.124186184 -5.74605002e-09 -0.939477374 0.342610951 0 -0.944409373 -0.32877186 1.08021468e-08 -0.991611354 -0.129255264 2.2998451e-08 -0.70230943 -0.711871803 2.00676329e-08 -0.822845878 -0.568264605 3.30478401e-08 -0.317589394 -0.948228336 3.74968669e-08 -0.475216261 -0.879869028 6.59973468e-08 0.130630436 -0.991431132 4.42588941e-08 -0.0269092614 -0.99963788 7.95959193e-08 0.551575703 -0.834124837 3.6200414e-08 0.425045008 -0.905172216 1.0027444e-07 0.86077022 -0.508993741 5.12399471e-08 0.785165202 -0.619286368 9.95870778e-08 0.931312558 -0.364220976 5.77413386e-08 0.931312568 -0.36422095 6.65749843e-08 -0.720379966 -0.693579631 -4.87319388e-08 -0.965757737 -0.259445551 -1.68611864e-08 -0.50661152 -0.862174442 -5.10236114e-08 -0.84451886 -0.535525811 -2.98228151e-08 -0.967032487 0.254653035 -1.95518871e-08 -0.996768427 -0.0803287188 -3.33017316e-08 -0.940011797 0.341141938 -2.14924771e-08 -0.940011778 0.341141991 -2.39419732e-08 -0.634401931 0.773003357 -7.02738949e-09 -0.634402097 0.773003221 6.19827468e-10 -0.634401902 0.773003381 -7.71368017e-09 -0.634402097 0.773003221 1.30611855e-09 -0.111067394 0.993812877 2.36021304e-08 -0.111067394 0.993812877 2.36021304e-08 -0.111067387 0.993812878 2.36021305e-08 -0.111067387 0.993812878 2.36021305e-08 -0.0636769151 -0.997970566 -2.38383514e-08 -0.306285984 -0.951939544 -2.07123763e-08 0.388581307 -0.921414439 8.30999806e-09 0.173029003 -0.98491673 8.28366872e-09 0.756929497 -0.653496547 1.73222801e-08 0.607744052 -0.794132966 2.01266244e-08 0.967653772 -0.252281939 4.74591265e-09 0.903554445 -0.428473296 1.87393533e-08 0.979984501 0.199073802 3.39001069e-08 0.999597055 0.0283853295 6.26545347e-08 0.793289303 0.608844875 3.35624683e-08 0.879166437 0.476514823 6.17469107e-08 0.446585467 0.89474098 2.30011045e-08 0.571379484 0.820685985 9.33420312e-08 0.0104163521 0.999945748 4.83747685e-08 0.143735079 0.989616202 9.83711943e-08 -0.150231707 0.988650815 5.93711188e-08 -0.150231765 0.988650806 6.89156613e-08 0.960847669 -0.277077166 4.3107766e-09 0.707565439 -0.706647826 -2.6857562e-08 0.999970729 -0.00765124099 -1.2123908e-08 0.886038016 -0.463612592 -5.58495123e-08 0.262980077 -0.964801264 -3.4773024e-08 0.567951088 -0.823062307 -5.34132458e-08 0.174568112 -0.984645101 -3.3277014e-08 0.174568295 -0.984645068 -2.64956998e-08 -0.352239376 -0.935909943 -9.47641981e-09 -0.352239553 -0.935909877 -1.41058366e-08 -0.352239403 -0.935909933 -9.06095827e-09 -0.352239553 -0.935909877 -1.45212981e-08 -0.805133532 -0.593093581 8.90469309e-09 -0.805133532 -0.593093581 8.90469309e-09 -0.805133532 -0.593093581 8.90469309e-09 -0.805133503 -0.59309362 8.90469278e-09 0.896106256 0.443839586 -6.90527068e-09 0.977546865 0.210718124 6.5449179e-10 0.603677634 0.79722852 8.30485908e-09 0.766448325 0.642305975 1.05469252e-08 0.187479695 0.982268479 5.25827662e-09 0.383867283 0.923388276 1.14513693e-08 -0.265344297 0.964153724 5.10523522e-10 -0.0807087503 0.996737728 2.01791847e-08 -0.662395262 0.749154535 3.7447188e-08 -0.524380909 0.8514838 6.97440736e-08 -0.923919786 0.382586236 4.05260745e-08 -0.852257209 0.523122977 7.24583928e-08 -0.998161146 -0.0606162218 3.46326029e-08 -0.996424648 0.0844862214 1.02214256e-07 -0.871186563 -0.490952109 5.47339921e-08 -0.928900304 -0.370329888 1.02055175e-07 -0.781080858 -0.624429894 6.10588002e-08 -0.781080829 -0.624429931 6.32314031e-08</float_array>
        <technique_common><accessor source="#vfx_kurp_0470-mesh-normals-array" count="102" stride="3"><param name="X" type="float"/><param name="Y" type="float"/><param name="Z" type="float"/></accessor></technique_common>
      </source>
      <source id="vfx_kurp_0470-mesh-uv0">
        <float_array id="vfx_kurp_0470-mesh-uv0-array" count="204">1 0.357142806 1 0.285714269 0 0.357142806 0 0.285714269 1 0.214285672 0 0.214285672 1 0.142857075 0 0.142857075 1 0.0714285374 0 0.142857075 1 0.142857075 0 0.0714285374 1 0 0 0.0714285374 1 0.0714285374 0 0 0 0.428571403 1 0.428571403 0 0.5 1 0.5 0 0.571428537 1 0.571428537 0 0.642857134 1 0.642857134 0 0.714285731 1 0.714285731 0 0.785714269 1 0.785714269 0 0.857142866 1 0.857142866 0 0.928571403 1 0.928571403 0 1 1 1 1 0.357142806 1 0.285714269 0 0.357142806 0 0.285714269 1 0.214285672 0 0.214285672 1 0.142857075 0 0.142857075 1 0.0714285374 0 0.142857075 1 0.142857075 0 0.0714285374 1 0 0 0.0714285374 1 0.0714285374 0 0 0 0.428571403 1 0.428571403 0 0.5 1 0.5 0 0.571428537 1 0.571428537 0 0.642857134 1 0.642857134 0 0.714285731 1 0.714285731 0 0.785714269 1 0.785714269 0 0.857142866 1 0.857142866 0 0.928571403 1 0.928571403 0 1 1 1 1 0.357142806 1 0.285714269 0 0.357142806 0 0.285714269 1 0.214285672 0 0.214285672 1 0.142857075 0 0.142857075 1 0.0714285374 0 0.142857075 1 0.142857075 0 0.0714285374 1 0 0 0.0714285374 1 0.0714285374 0 0 0 0.428571403 1 0.428571403 0 0.5 1 0.5 0 0.571428537 1 0.571428537 0 0.642857134 1 0.642857134 0 0.714285731 1 0.714285731 0 0.785714269 1 0.785714269 0 0.857142866 1 0.857142866 0 0.928571403 1 0.928571403 0 1 1 1</float_array>
        <technique_common><accessor source="#vfx_kurp_0470-mesh-uv0-array" count="102" stride="2"><param name="S" type="float"/><param name="T" type="float"/></accessor></technique_common>
      </source>
      <vertices id="vfx_kurp_0470-mesh-vertices"><input semantic="POSITION" source="#vfx_kurp_0470-mesh-positions"/></vertices>
      <triangles material="PreviewMaterial" count="84">
        <input semantic="VERTEX" source="#vfx_kurp_0470-mesh-vertices" offset="0"/>
        <input semantic="NORMAL" source="#vfx_kurp_0470-mesh-normals" offset="1"/>
        <input semantic="TEXCOORD" source="#vfx_kurp_0470-mesh-uv0" offset="2" set="0"/>
        <p>0 0 0 1 1 1 2 2 2 2 2 2 1 1 1 3 3 3 4 4 4 3 3 3 1 1 1 3 3 3 4 4 4 5 5 5 6 6 6 5 5 5 4 4 4 5 5 5 6 6 6 7 7 7 8 8 8 9 9 9 10 10 10 9 9 9 8 8 8 11 11 11 12 12 12 13 13 13 14 14 14 13 13 13 12 12 12 15 15 15 16 16 16 0 0 0 2 2 2 0 0 0 16 16 16 17 17 17 18 18 18 17 17 17 16 16 16 17 17 17 18 18 18 19 19 19 20 20 20 19 19 19 18 18 18 19 19 19 20 20 20 21 21 21 22 22 22 21 21 21 20 20 20 21 21 21 22 22 22 23 23 23 24 24 24 23 23 23 22 22 22 23 23 23 24 24 24 25 25 25 26 26 26 25 25 25 24 24 24 25 25 25 26 26 26 27 27 27 28 28 28 27 27 27 26 26 26 27 27 27 28 28 28 29 29 29 30 30 30 29 29 29 28 28 28 29 29 29 30 30 30 31 31 31 32 32 32 31 31 31 30 30 30 33 33 33 31 31 31 32 32 32 34 34 34 35 35 35 36 36 36 36 36 36 35 35 35 37 37 37 38 38 38 37 37 37 35 35 35 37 37 37 38 38 38 39 39 39 40 40 40 39 39 39 38 38 38 39 39 39 40 40 40 41 41 41 42 42 42 43 43 43 44 44 44 43 43 43 42 42 42 45 45 45 46 46 46 47 47 47 48 48 48 47 47 47 46 46 46 49 49 49 50 50 50 34 34 34 36 36 36 34 34 34 50 50 50 51 51 51 52 52 52 51 51 51 50 50 50 51 51 51 52 52 52 53 53 53 54 54 54 53 53 53 52 52 52 53 53 53 54 54 54 55 55 55 56 56 56 55 55 55 54 54 54 55 55 55 56 56 56 57 57 57 58 58 58 57 57 57 56 56 56 57 57 57 58 58 58 59 59 59 60 60 60 59 59 59 58 58 58 59 59 59 60 60 60 61 61 61 62 62 62 61 61 61 60 60 60 61 61 61 62 62 62 63 63 63 64 64 64 63 63 63 62 62 62 63 63 63 64 64 64 65 65 65 66 66 66 65 65 65 64 64 64 67 67 67 65 65 65 66 66 66 68 68 68 69 69 69 70 70 70 70 70 70 69 69 69 71 71 71 72 72 72 71 71 71 69 69 69 71 71 71 72 72 72 73 73 73 74 74 74 73 73 73 72 72 72 73 73 73 74 74 74 75 75 75 76 76 76 77 77 77 78 78 78 77 77 77 76 76 76 79 79 79 80 80 80 81 81 81 82 82 82 81 81 81 80 80 80 83 83 83 84 84 84 68 68 68 70 70 70 68 68 68 84 84 84 85 85 85 86 86 86 85 85 85 84 84 84 85 85 85 86 86 86 87 87 87 88 88 88 87 87 87 86 86 86 87 87 87 88 88 88 89 89 89 90 90 90 89 89 89 88 88 88 89 89 89 90 90 90 91 91 91 92 92 92 91 91 91 90 90 90 91 91 91 92 92 92 93 93 93 94 94 94 93 93 93 92 92 92 93 93 93 94 94 94 95 95 95 96 96 96 95 95 95 94 94 94 95 95 95 96 96 96 97 97 97 98 98 98 97 97 97 96 96 96 97 97 97 98 98 98 99 99 99 100 100 100 99 99 99 98 98 98 101 101 101 99 99 99 100 100 100</p>
      </triangles>
    </mesh></geometry>
  </library_geometries>
  <library_visual_scenes>
    <visual_scene id="Scene" name="Scene">
      <node id="vfx_kurp_0470" name="vfx_kurp_0470" type="NODE">
        <instance_geometry url="#vfx_kurp_0470-mesh"><bind_material><technique_common><instance_material symbol="PreviewMaterial" target="#PreviewMaterial"><bind_vertex_input semantic="UVSET0" input_semantic="TEXCOORD" input_set="0"/></instance_material></technique_common></bind_material></instance_geometry>
      </node>
    </visual_scene>
  </library_visual_scenes>
  <scene><instance_visual_scene url="#Scene"/></scene>
</COLLADA>
