<?xml version="1.0" encoding="utf-8"?>
<COLLADA xmlns="http://www.collada.org/2005/11/COLLADASchema" version="1.4.1">
  <asset>
    <contributor><authoring_tool>Morrobroom Kurpulio VFX preview converter</authoring_tool></contributor>
    <unit name="unit" meter="1"/>
    <up_axis>Z_UP</up_axis>
  </asset>
  <library_images>
    <image id="VFXTexture" name="darkmap_newgen-1.dds">
      <init_from>../../../Textures/Kurp/darkmap_newgen-1.dds</init_from>
    </image>
  </library_images>
  <library_effects>
    <effect id="PreviewEffect">
      <profile_COMMON>
        <newparam sid="VFXTexture-surface">
          <surface type="2D"><init_from>VFXTexture</init_from></surface>
        </newparam>
        <newparam sid="VFXTexture-sampler">
          <sampler2D><source>VFXTexture-surface</source></sampler2D>
        </newparam>
        <technique sid="common"><phong>
          <emission><color>0.08 0.08 0.08 1</color></emission>
          <ambient><color>0.2 0.2 0.2 1</color></ambient>
          <diffuse><texture texture="VFXTexture-sampler" texcoord="UVSET0"/></diffuse>
          <specular><color>0.15 0.15 0.15 1</color></specular>
          <shininess><float>8</float></shininess>
          <transparent opaque="A_ONE"><texture texture="VFXTexture-sampler" texcoord="UVSET0"/></transparent>
          <transparency><float>1</float></transparency>
        </phong></technique>
      </profile_COMMON>
      <extra><technique profile="GOOGLEEARTH"><double_sided>1</double_sided></technique></extra>
    </effect>
  </library_effects>
  <library_materials><material id="PreviewMaterial" name="PreviewMaterial"><instance_effect url="#PreviewEffect"/></material></library_materials>
  <library_geometries>
    <geometry id="vfx_kurp_0504-mesh" name="vfx_kurp_0504"><mesh>
      <source id="vfx_kurp_0504-mesh-positions">
        <float_array id="vfx_kurp_0504-mesh-positions-array" count="312">-0.019835374 0.0927174122 0.156110094 0.633452391 -4.25762855 1.79136016 0.0102828538 -0.0291077119 -0.180020308 0.663570624 -4.37945365 1.45522972 0.172234539 0.0604466037 -0.00647519576 0.825521939 -4.28990018 1.62877455 -0.18178615 0.00316386185 -0.0174352065 0.47150129 -4.34718287 1.61781458 0.0254936054 0.00270096739 0.226011195 5.70771509 0.844250074 -1.60021688 -0.108578864 -0.0150058285 -0.199308275 5.57364247 0.826543084 -2.02553618 -0.0739165997 0.214635963 0.0143648774 5.60830558 1.05618462 -1.81186406 -0.00916959927 -0.226939821 0.0123383519 5.67305242 0.6146087 -1.8138906 -0.101053377 0.0650685626 -0.182470231 -3.92529061 -2.00730868 2.17763466 0.156971754 -0.034766238 0.147961546 -3.66726541 -2.10714378 2.50806649 -0.0174221616 0.204354762 0.0753476345 -3.84165968 -1.86802366 2.43545285 0.0733408095 -0.174051101 -0.109856125 -3.75089633 -2.24642943 2.25024915 -0.121768555 0.080284941 -0.0144588134 -1.32681703 -7.17351638 3.52291351 0.139389065 0.025778842 -0.0372638371 -1.06565913 -7.22802273 3.50010856 0.0307613437 0.107955923 0.0942435381 -1.17428697 -7.14584641 3.63161571 -0.013140537 -0.00189081299 -0.145966011 -1.21818876 -7.25569356 3.39140636 -0.0626749911 0.107642062 0.0772490824 3.37285036 -5.70361016 4.66083516 0.0124427496 -0.0226705551 -0.144269036 3.44796797 -5.83392285 4.43931725 0.0903641675 0.110217056 -0.0341944154 3.52588978 -5.70103654 4.5493924 -0.140596254 -0.0252442155 -0.0328262279 3.2949294 -5.83649776 4.55076043 -0.142034099 0.0197087455 -0.210243623 -3.79248443 3.02081618 3.90175257 0.195409725 -0.0635898751 0.150119084 -3.45504082 2.93751761 4.26211535 0.140349915 0.193811819 -0.0866238442 -3.5101009 3.19491901 4.02537342 -0.0869731435 -0.237692219 0.026498456 -3.73742393 2.7634152 4.13849621 0.109690312 -0.0274314592 -0.0932628805 -7.21893084 0.486150845 -3.64436168 -0.0025322189 0.0199225398 0.145186304 -7.33115361 0.53350479 -3.40591229 0.0713877109 0.127744779 0.00822845053 -7.25723473 0.641326956 -3.54287033 0.0357714853 -0.135253042 0.0436953671 -7.29285057 0.37832884 -3.50740321 0.079006407 0.0822774153 0.0838841343 -1.80411041 3.44529813 -4.90555424 -0.0514728721 -0.131451071 -0.0109293271 -1.93458961 3.23156966 -5.00036724 -0.0960897662 0.0128824248 0.103195345 -1.97920649 3.37590335 -4.88624415 0.12362294 -0.0620562558 -0.0302394942 -1.75949397 3.30096466 -5.01967905 -1.05161481e-07 -0.0525069984 -0.19206257 -5.45391702e-07 7.12951452 -0.192062128 -1.17600003e-07 -0.0525069616 0.192062785 -4.45009826e-07 7.12951409 0.192063441 0.192063119 -0.0525073667 7.22613398e-08 0.192062195 7.12951452 1.19367189e-06 -0.192062276 -0.052507494 9.30274471e-08 -0.1920632 7.12951495 1.02037256e-06 -0.00710681946 -0.0146702673 0.145659269 3.65469902 6.84548953 -2.32661736 -0.0464336641 -0.085636845 -0.109510234 3.61537211 6.77452271 -2.58178693 -0.144785126 0.0130587159 0.0186826986 3.51702161 6.8732195 -2.45359485 0.0912434994 -0.113366556 0.0174667272 3.75305038 6.74679359 -2.45481073 -0.0626756474 0.0772491695 -0.10764174 3.37284757 4.6608403 5.7036093 0.0124421477 -0.144268929 0.0226708749 3.44796561 4.43932239 5.83392157 0.0903635514 -0.0341941977 -0.110216641 3.52588721 4.54939669 5.70103525 -0.140596884 -0.0328261508 0.0252445805 3.29492683 4.55076515 5.83649647 -0.0245393875 0.0559962308 0.13320881 7.33501769 -3.36111006 -0.72880792 -0.0830682321 -0.00603154114 -0.120604572 7.27648825 -3.42313777 -0.982621356 -0.00393554222 0.142534828 -0.0339251969 7.35562209 -3.27457229 -0.895942211 -0.103672803 -0.0925690633 0.0465293646 7.25588471 -3.50967618 -0.81548776 -0.174637921 0.203962317 0.0483804511 3.03763879 2.57732113 -0.911686895 0.127668867 -0.2386648 -0.0343424931 3.3399455 2.13469396 -0.994409765 -0.0991089705 -0.020334333 -0.253385044 3.11316848 2.35302431 -1.21345198 0.0521390426 -0.0143684349 0.267421676 3.26441666 2.35899014 -0.692645211</float_array>
        <technique_common><accessor source="#vfx_kurp_0504-mesh-positions-array" count="104" stride="3"><param name="X" type="float"/><param name="Y" type="float"/><param name="Z" type="float"/></accessor></technique_common>
      </source>
      <source id="vfx_kurp_0504-mesh-normals">
        <float_array id="vfx_kurp_0504-mesh-normals-array" count="312">0.98670026 0.159654249 0.0305469751 0.98670026 0.159654248 0.0305469937 0.98670026 0.159654249 0.030546977 0.98670026 0.159654248 0.0305469937 0.0839432176 -0.339541761 -0.936837728 0.0839430753 -0.339541818 -0.93683772 0.0839432093 -0.339541788 -0.936837719 0.0839430605 -0.339541819 -0.936837721 -0.145074454 0.989410322 0.00454059607 -0.145074551 0.98941031 0.00454024658 -0.145074454 0.989410322 0.00454057931 -0.145074551 0.98941031 0.00454022935 -0.300407442 -0.0396743458 -0.952985475 -0.300407471 -0.0396742041 -0.952985471 -0.30040747 -0.039674338 -0.952985466 -0.300407471 -0.0396742004 -0.952985472 -0.210604992 0.878046618 0.42974373 -0.210604714 0.878046461 0.429744188 -0.210605001 0.878046593 0.429743777 -0.210604686 0.878046466 0.429744191 0.598717521 -0.231655214 0.766728891 0.598717443 -0.231654701 0.766729106 0.598717527 -0.231655172 0.766728899 0.59871745 -0.231654658 0.766729114 0.163960977 0.410246577 0.897114566 0.163960948 0.410246579 0.89711457 0.163960977 0.410246577 0.897114566 0.163960948 0.410246579 0.89711457 0.975349786 -0.203565285 -0.0851702394 0.975349881 -0.203565042 -0.0851697307 0.975349781 -0.203565314 -0.0851702315 0.975349882 -0.203565042 -0.0851697233 0.862571641 0.505909136 -0.00510978736 0.8625718 0.505908861 -0.0051102309 0.862571667 0.505909091 -0.00510979683 0.862571841 0.505908791 -0.00511024011 0.280543352 -0.486680201 -0.827307567 0.280543741 -0.486679966 -0.827307573 0.280543352 -0.486680201 -0.827307567 0.280543741 -0.486679966 -0.827307573 0.454039734 0.861857138 -0.2259429 0.454039792 0.861857135 -0.225942795 0.454039734 0.861857138 -0.2259429 0.454039836 0.861857106 -0.225942818 0.673987461 -0.166375104 0.719764008 0.673987801 -0.166374578 0.719763811 0.673987463 -0.166375089 0.71976401 0.673987832 -0.166374571 0.719763784 0.133016422 0.982222611 -0.132458954 0.133016259 0.982222681 -0.132458598 0.133016422 0.982222613 -0.13245894 0.133016245 0.982222685 -0.132458584 -0.419119331 0.176853792 0.89054013 -0.419119318 0.176853667 0.890540161 -0.419119308 0.17685378 0.890540143 -0.419119318 0.176853667 0.890540161 -0.820564511 0.279874683 0.498341294 -0.820564168 0.279875195 0.498341571 -0.820564504 0.279874711 0.49834129 -0.820564156 0.279875191 0.498341593 -0.487303051 -0.798215513 -0.354101302 -0.48730336 -0.798215412 -0.354101102 -0.487303033 -0.798215533 -0.354101281 -0.487303388 -0.798215409 -0.354101071 1 6.12961415e-08 3.23814078e-08 1 4.6121805e-08 -2.51334598e-07 1 6.07617778e-08 2.23904024e-08 1 4.55874449e-08 -2.61325624e-07 5.40608021e-08 -1.5614134e-07 1 -4.3396733e-07 -1.30039567e-07 1 3.68749724e-08 -1.55222168e-07 1 -4.5115317e-07 -1.29120394e-07 1 -0.881499885 0.472162395 0.00454153399 -0.881499936 0.472162301 0.00454134489 -0.881499885 0.472162395 0.00454153027 -0.881499936 0.472162301 0.0045413407 -0.146874519 -0.265040251 -0.952985593 -0.146874712 -0.26504016 -0.952985589 -0.146874519 -0.265040251 -0.952985593 -0.146874726 -0.26504016 -0.952985587 0.862571668 -0.00510955283 -0.505909092 0.862571228 -0.00510840251 -0.505909854 0.862571668 -0.00510952815 -0.505909092 0.862571255 -0.00510837799 -0.505909809 0.280543865 -0.827307228 0.48668048 0.28054285 -0.827307223 0.486681073 0.280543834 -0.827307223 0.486680507 0.280542846 -0.827307211 0.486681096 0.37249022 0.878046436 -0.300475443 0.372490142 0.878046283 -0.300475988 0.37249022 0.878046436 -0.300475443 0.372490116 0.878046293 -0.300475991 -0.218588725 -0.231655642 -0.947921217 -0.218588579 -0.231655243 -0.947921348 -0.218588725 -0.231655628 -0.94792122 -0.218588565 -0.23165523 -0.947921354 -0.278871651 -0.0109998135 -0.960265383 -0.278871596 -0.0109998733 -0.960265399 -0.278871624 -0.0109998192 -0.960265391 -0.278871596 -0.0109998779 -0.960265399 0.55739438 -0.816117458 -0.152524753 0.557394279 -0.816117484 -0.152524981 0.557394378 -0.816117454 -0.152524782 0.557394278 -0.816117482 -0.152524996</float_array>
        <technique_common><accessor source="#vfx_kurp_0504-mesh-normals-array" count="104" stride="3"><param name="X" type="float"/><param name="Y" type="float"/><param name="Z" type="float"/></accessor></technique_common>
      </source>
      <source id="vfx_kurp_0504-mesh-uv0">
        <float_array id="vfx_kurp_0504-mesh-uv0-array" count="208">1 1 1 0 0 1 0 0 1 1 1 0 0 1 0 0 1 1 1 0 0 1 0 0 1 1 1 0 0 1 0 0 1 1 1 0 0 1 0 0 1 1 1 0 0 1 0 0 1 1 1 0 0 1 0 0 1 1 1 0 0 1 0 0 1 1 1 0 0 1 0 0 1 1 1 0 0 1 0 0 1 1 1 0 0 1 0 0 1 1 1 0 0 1 0 0 1 1 1 0 0 1 0 0 1 1 1 0 0 1 0 0 1 1 1 0 0 1 0 0 1 1 1 0 0 1 0 0 1 1 1 0 0 1 0 0 1 1 1 0 0 1 0 0 1 1 1 0 0 1 0 0 1 1 1 0 0 1 0 0 1 1 1 0 0 1 0 0 1 1 1 0 0 1 0 0 1 1 1 0 0 1 0 0 1 1 1 0 0 1 0 0 1 1 1 0 0 1 0 0 1 1 1 0 0 1 0 0</float_array>
        <technique_common><accessor source="#vfx_kurp_0504-mesh-uv0-array" count="104" stride="2"><param name="S" type="float"/><param name="T" type="float"/></accessor></technique_common>
      </source>
      <vertices id="vfx_kurp_0504-mesh-vertices"><input semantic="POSITION" source="#vfx_kurp_0504-mesh-positions"/></vertices>
      <triangles material="PreviewMaterial" count="52">
        <input semantic="VERTEX" source="#vfx_kurp_0504-mesh-vertices" offset="0"/>
        <input semantic="NORMAL" source="#vfx_kurp_0504-mesh-normals" offset="1"/>
        <input semantic="TEXCOORD" source="#vfx_kurp_0504-mesh-uv0" offset="2" set="0"/>
        <p>0 0 0 1 1 1 2 2 2 3 3 3 2 2 2 1 1 1 4 4 4 5 5 5 6 6 6 7 7 7 6 6 6 5 5 5 8 8 8 9 9 9 10 10 10 11 11 11 10 10 10 9 9 9 12 12 12 13 13 13 14 14 14 15 15 15 14 14 14 13 13 13 16 16 16 17 17 17 18 18 18 19 19 19 18 18 18 17 17 17 20 20 20 21 21 21 22 22 22 23 23 23 22 22 22 21 21 21 24 24 24 25 25 25 26 26 26 27 27 27 26 26 26 25 25 25 28 28 28 29 29 29 30 30 30 31 31 31 30 30 30 29 29 29 32 32 32 33 33 33 34 34 34 35 35 35 34 34 34 33 33 33 36 36 36 37 37 37 38 38 38 39 39 39 38 38 38 37 37 37 40 40 40 41 41 41 42 42 42 43 43 43 42 42 42 41 41 41 44 44 44 45 45 45 46 46 46 47 47 47 46 46 46 45 45 45 48 48 48 49 49 49 50 50 50 51 51 51 50 50 50 49 49 49 52 52 52 53 53 53 54 54 54 55 55 55 54 54 54 53 53 53 56 56 56 57 57 57 58 58 58 59 59 59 58 58 58 57 57 57 60 60 60 61 61 61 62 62 62 63 63 63 62 62 62 61 61 61 64 64 64 65 65 65 66 66 66 67 67 67 66 66 66 65 65 65 68 68 68 69 69 69 70 70 70 71 71 71 70 70 70 69 69 69 72 72 72 73 73 73 74 74 74 75 75 75 74 74 74 73 73 73 76 76 76 77 77 77 78 78 78 79 79 79 78 78 78 77 77 77 80 80 80 81 81 81 82 82 82 83 83 83 82 82 82 81 81 81 84 84 84 85 85 85 86 86 86 87 87 87 86 86 86 85 85 85 88 88 88 89 89 89 90 90 90 91 91 91 90 90 90 89 89 89 92 92 92 93 93 93 94 94 94 95 95 95 94 94 94 93 93 93 96 96 96 97 97 97 98 98 98 99 99 99 98 98 98 97 97 97 100 100 100 101 101 101 102 102 102 103 103 103 102 102 102 101 101 101</p>
      </triangles>
    </mesh></geometry>
  </library_geometries>
  <library_visual_scenes>
    <visual_scene id="Scene" name="Scene">
      <node id="vfx_kurp_0504" name="vfx_kurp_0504" type="NODE">
        <instance_geometry url="#vfx_kurp_0504-mesh"><bind_material><technique_common><instance_material symbol="PreviewMaterial" target="#PreviewMaterial"><bind_vertex_input semantic="UVSET0" input_semantic="TEXCOORD" input_set="0"/></instance_material></technique_common></bind_material></instance_geometry>
      </node>
    </visual_scene>
  </library_visual_scenes>
  <scene><instance_visual_scene url="#Scene"/></scene>
</COLLADA>
