<?xml version="1.0" encoding="utf-8"?>
<COLLADA xmlns="http://www.collada.org/2005/11/COLLADASchema" version="1.4.1">
  <asset>
    <contributor><authoring_tool>Morrobroom Kurpulio VFX preview converter</authoring_tool></contributor>
    <unit name="unit" meter="1"/>
    <up_axis>Z_UP</up_axis>
  </asset>
  <library_images>
    <image id="VFXTexture" name="darkmap_newgen-1.dds">
      <init_from>../../../Textures/Kurp/darkmap_newgen-1.dds</init_from>
    </image>
  </library_images>
  <library_effects>
    <effect id="PreviewEffect">
      <profile_COMMON>
        <newparam sid="VFXTexture-surface">
          <surface type="2D"><init_from>VFXTexture</init_from></surface>
        </newparam>
        <newparam sid="VFXTexture-sampler">
          <sampler2D><source>VFXTexture-surface</source></sampler2D>
        </newparam>
        <technique sid="common"><phong>
          <emission><color>0.08 0.08 0.08 1</color></emission>
          <ambient><color>0.2 0.2 0.2 1</color></ambient>
          <diffuse><texture texture="VFXTexture-sampler" texcoord="UVSET0"/></diffuse>
          <specular><color>0.15 0.15 0.15 1</color></specular>
          <shininess><float>8</float></shininess>
          <transparent opaque="A_ONE"><texture texture="VFXTexture-sampler" texcoord="UVSET0"/></transparent>
          <transparency><float>1</float></transparency>
        </phong></technique>
      </profile_COMMON>
      <extra><technique profile="GOOGLEEARTH"><double_sided>1</double_sided></technique></extra>
    </effect>
  </library_effects>
  <library_materials><material id="PreviewMaterial" name="PreviewMaterial"><instance_effect url="#PreviewEffect"/></material></library_materials>
  <library_geometries>
    <geometry id="vfx_kurp_0071-mesh" name="vfx_kurp_0071"><mesh>
      <source id="vfx_kurp_0071-mesh-positions">
        <float_array id="vfx_kurp_0071-mesh-positions-array" count="864">1.25506508 2.84485912 -0.976692915 0.718163013 2.32483077 -0.955649078 1.17107928 2.37491488 0.301176518 0.640300751 1.88915086 0.229048714 0.0377922878 2.40485811 -1.04625845 0.640300751 1.88915086 0.229048714 0.718163013 2.32483077 -0.955649078 -0.0242049005 2.05795169 -0.102953024 -0.65652281 2.32927823 -0.915503085 -0.71944958 1.97717011 0.0419471711 -1.14654517 2.85845494 -0.947043598 -0.71944958 1.97717011 0.0419471711 -0.65652281 2.32927823 -0.915503085 -1.20756125 2.51703715 -0.0186624732 -1.67609763 3.25611544 -0.642740488 -1.7323631 2.9412806 0.213356927 -1.75148451 3.91195393 -0.470525503 -1.7323631 2.9412806 0.213356927 -1.67609763 3.25611544 -0.642740488 -1.80015922 3.63959408 0.270074129 0.805303991 3.08326364 -0.233124316 0.507946432 2.59208107 -0.250501394 1.67761254 2.10594606 -0.535207808 0.900416493 1.54001284 -0.611611366 0.0150667587 2.69025278 -0.429593205 0.900416493 1.54001284 -0.611611366 0.507946432 2.59208107 -0.250501394 0.000670615118 1.7455579 -0.777956545 -0.527619421 2.54838276 -0.304199398 0.000670615118 1.7455579 -0.777956545 0.0150667587 2.69025278 -0.429593205 -0.892000258 1.66015029 -0.654800415 -0.862649083 3.01958561 -0.36616534 -0.892000258 1.66015029 -0.654800415 -0.527619421 2.54838276 -0.304199398 -1.52082217 2.3392396 -0.659623861 -1.3369168 3.27704501 -0.157893211 -2.14924765 2.90419722 -0.348399252 -1.42550707 3.82098889 -0.108437397 -2.20954633 3.75383496 -0.184663191 0.537549555 2.88298583 0.847858608 0.408916295 2.52268243 1.31886828 0.849550903 2.73954988 0.257595301 1.03010833 2.19342732 0.321122557 0.672343433 2.19969344 1.58902264 1.03010833 2.19342732 0.321122557 0.672343433 2.19969344 1.58902264 1.23392093 2.1226387 0.841970742 1.00853026 1.75016069 1.79689193 1.23392093 2.1226387 0.841970742 0.672343433 2.19969344 1.58902264 1.70851994 1.83890188 1.19725084 0.621468425 1.63433695 2.59341288 1.54313397 1.72809803 1.81175888 0.840612352 1.1401155 2.76507974 1.54313397 1.72809803 1.81175888 0.621468425 1.63433695 2.59341288 1.42195046 1.17119014 2.17145562 1.5189898 0.942868054 2.91570926 1.42195046 1.17119014 2.17145562 0.840612352 1.1401155 2.76507974 1.79169905 0.995618641 2.63806772 0.862359345 3.05901027 0.570307195 1.01376283 2.8490386 0.90588963 0.470043182 2.52402472 0.560046136 0.502941728 2.28853655 0.67417866 1.21909225 2.53532386 1.39067245 0.652866185 1.8112371 1.24296117 1.50839388 2.23046708 1.59334707 0.978746951 1.48401642 1.41954279 1.422122 2.0730269 2.40884614 0.978746951 1.48401642 1.41954279 1.50839388 2.23046708 1.59334707 1.00403178 1.12110221 1.87894619 1.28307378 1.56646919 2.59307218 1.17057848 0.798069417 2.25950933 1.67761528 1.15919733 2.87043309 1.63235235 0.767752707 2.76784635 -0.872831821 3.28043246 -0.392089337 -1.35009778 2.5362227 -0.370099425 0.367665529 2.8076303 -0.656577229 -0.211229667 2.03876877 -0.71667099 -1.59015632 1.87778234 -0.0735509768 -0.211229667 2.03876877 -0.71667099 -1.35009778 2.5362227 -0.370099425 -0.625241458 1.64440751 -0.204860047 -1.7809943 1.03690565 0.194020972 -0.823051274 0.861536384 0.328778893 -2.63628936 0.816327929 0.427286685 -1.67188823 0.736626089 0.622117639 -3.00788474 0.0985362232 0.571611106 -1.67188823 0.736626089 0.622117639 -2.63628936 0.816327929 0.427286685 -2.13775611 -0.067519635 0.600832224 -3.04982281 -0.640663087 1.11392677 -2.13775611 -0.067519635 0.600832224 -3.00788474 0.0985362232 0.571611106 -2.27423024 -0.763308704 1.08239961 -0.246040121 3.30837226 -0.0364572145 -0.529203415 2.65240049 -0.0984645039 -0.491811097 2.75071359 -1.09291625 -0.697946608 2.02663445 -0.970377743 -0.998379171 1.97495949 0.311455637 -1.41708302 1.53397405 -0.462059617 -1.15470672 1.34275305 0.584903538 -1.41708302 1.53397405 -0.462059617 -0.998379171 1.97495949 0.311455637 -1.53831065 0.858242154 -0.18633154 -2.06362128 0.965622246 0.886182427 -1.53831065 0.858242154 -0.18633154 -1.15470672 1.34275305 0.584903538 -2.18762922 0.309855461 0.206913948 -2.46078491 0.368059129 0.923893988 -2.48794723 -0.375800163 0.352224439 -2.7306397 -0.376859039 1.42341399 -2.76570773 -1.04837298 0.940894365 -0.796626806 2.85712767 -0.998274028 -1.24143112 2.35908628 -0.610184312 0.432563961 2.30138302 -1.04803455 -0.119184971 1.73885214 -0.705042839 -1.43078661 2.08349133 -0.0670960471 -0.119184971 1.73885214 -0.705042839 -1.24143112 2.35908628 -0.610184312 -0.473524809 1.79370034 -0.111754239 -1.56676626 1.65730166 0.535903513 -0.473524809 1.79370034 -0.111754239 -1.43078661 2.08349133 -0.0670960471 -0.596507907 1.57520199 0.66620481 -2.38953471 1.68146372 0.862145364 -1.41145277 1.70494807 0.9932248 -2.72009802 1.2741034 1.3247683 -1.41145277 1.70494807 0.9932248 -2.38953471 1.68146372 0.862145364 -1.8462708 1.13658381 1.37570179 -2.68901467 1.08560646 2.08042121 -1.8462708 1.13658381 1.37570179 -2.72009802 1.2741034 1.3247683 -1.91586006 0.945261002 2.07046533 -0.144909307 3.0722127 -0.776646912 -0.407004923 2.57661462 -0.503813386 -0.456130743 2.02515125 -1.30445576 -0.623751044 1.59266973 -0.864575267 -0.81404078 2.36788487 0.146613628 -1.27807987 1.58804488 -0.211466506 -0.923045933 2.09307694 0.655412436 -1.27807987 1.58804488 -0.211466506 -0.81404078 2.36788487 0.146613628 -1.35036266 1.28204751 0.317293882 -1.7876054 2.05000949 1.10870016 -1.35036266 1.28204751 0.317293882 -0.923045933 2.09307694 0.655412436 -1.94274104 1.16284978 0.905239284 -2.1569581 1.66320682 1.43627393 -2.20355678 0.776046753 1.34976423 -2.35583401 1.45363069 2.17479229 -2.40560055 0.674124956 2.12268496 0.603655457 1.51084971 -2.37104058 0.339851588 0.975356698 -1.55856574 1.67780864 2.03099966 -0.971574545 1.33568645 1.45758164 -0.261137098 -0.459270716 1.00236368 -1.08027565 1.33568645 1.45758164 -0.261137098 0.339851588 0.975356698 -1.55856574 0.333654165 1.3863312 -0.0472092889 -1.03348827 1.0391562 -0.314277679 -0.228673473 1.42888129 0.734279513 -1.82767785 1.59607136 -0.233630776 -0.228673473 1.42888129 0.734279513 -1.03348827 1.0391562 -0.314277679 -1.0472976 1.97396398 0.783090889 -2.35321641 2.28136253 0.235184476 -1.63359702 2.62983227 1.17274451 -2.64408731 3.13108802 0.036348559 -1.63359702 2.62983227 1.17274451 -2.35321641 2.28136253 0.235184476 -2.02155304 3.43254519 0.847420514 0.556830049 2.37530422 -1.51857364 0.494514138 1.8354938 -0.966665089 1.73153627 1.05775583 -1.93051064 1.17669904 0.398920208 -0.956330955 -0.186565727 1.80737293 -0.736896634 1.17669904 0.398920208 -0.956330955 0.494514138 1.8354938 -0.966665089 0.035150595 0.505165696 -0.423072994 -0.576084793 1.76516092 -0.0682735965 0.035150595 0.505165696 -0.423072994 -0.186565727 1.80737293 -0.736896634 -0.74145335 0.529068172 0.518081844 -1.20443225 2.23186111 -0.113410957 -0.74145335 0.529068172 0.518081844 -0.576084793 1.76516092 -0.0682735965 -1.7350086 1.27241099 0.650436282 -1.67042696 2.68714404 0.315338761 -2.44242358 2.1462574 1.10891616 -2.00526881 3.3173449 0.09781757 -2.82382894 3.19862938 0.77022326 0.701552629 1.68911171 -1.58584797 1.61596155 2.02476668 -0.383748889 1.0340513 3.15787935 -1.91301084 1.92421722 3.38644409 -0.687057912 1.13348687 2.36010504 1.00685394 1.92421722 3.38644409 -0.687057912 1.61596155 2.02476668 -0.383748889 1.37893271 3.44432878 0.765346706 0.0744278207 3.03152633 1.92698896 0.323554218 4.13200855 1.68186033 -1.40630639 3.08358216 1.62257504 0.323554218 4.13200855 1.68186033 0.0744278207 3.03152633 1.92698896 -1.16474342 4.15065241 1.38488901 -2.48623776 3.30137253 0.541380465 -1.16474342 4.15065241 1.38488901 -1.40630639 3.08358216 1.62257504 -2.26348305 4.28536081 0.322200477 -2.44589329 2.90394425 -0.882710874 -2.26348305 4.28536081 0.322200477 -2.48623776 3.30137253 0.541380465 -2.25319076 3.75518084 -1.07232094 0.406439364 2.5962081 -1.23031914 1.18544292 2.79271817 -0.467631936 1.36677098 2.13747239 -2.31377745 2.47306848 2.47337699 -0.592657983 0.804004848 2.91041398 0.584327877 1.73958468 2.841959 1.22784483 0.0615900345 3.4812324 1.32950294 0.364243329 3.65778375 2.42970395 -1.07213342 3.4386611 1.04910624 -1.53348148 3.75884604 2.01767468 -1.96481931 3.63070869 0.282434791 -2.89307261 3.91846681 0.630905449 -1.99160492 3.22749496 -0.833371699 -2.82371974 3.34884143 -1.1342845 -0.21706216 2.21592641 -0.380086601 -0.123549603 1.36305773 -0.112745933 -0.28300333 2.15264511 -0.0681336224 -0.41331166 1.5956744 0.331085294 -0.328499645 0.759124219 0.861418307 -0.246212035 0.858105481 0.184513688 -0.328499645 0.759124219 0.861418307 -0.123549603 1.36305773 -0.112745933 -0.588618875 0.221059963 0.377989024 -0.726132452 0.42301935 -0.225952178 -0.189847305 0.0515145585 -0.167217523 -0.588618875 0.221059963 0.377989024 -0.726132452 0.42301935 -0.225952178 0.0665587857 -0.173260659 0.37654987 0.281451553 -0.659922123 -0.53114748 0.260628104 -0.763417125 0.0779708251 0.0946684852 -1.37273467 -0.0522410236 0.260628104 -0.763417125 0.0779708251 0.281451553 -0.659922123 -0.53114748 0.0832535252 -1.55598438 0.542090058 0.301178128 -2.1666193 0.210652366 0.0832535252 -1.55598438 0.542090058 0.0946684852 -1.37273467 -0.0522410236 0.162561595 -2.36570096 0.549491823 -0.112662785 -3.25001192 0.298140198 -0.142764091 -3.27626586 0.457099825 -0.351704448 2.18839574 -0.243863389 -0.292259425 1.33015454 0.0985604525 -0.100298718 2.18091702 -0.251668841 0.239213184 1.27169013 0.0157218315 0.0386592522 0.781402886 0.448770612 -0.494136602 0.813600242 0.46354419 0.0386592522 0.781402886 0.448770612 -0.494136602 0.813600242 0.46354419 -0.441110313 0.5532583 0.0309826266 -0.823310852 0.151373401 0.0492869243 -0.441110313 0.5532583 0.0309826266 -0.494136602 0.813600242 0.46354419 -0.155502111 -0.263181567 0.139063418 -0.441110313 0.5532583 0.0309826266 -0.823310852 0.151373401 0.0492869243 -0.441110313 0.5532583 0.0309826266 -0.155502111 -0.263181567 0.139063418 0.40211603 0.346915752 -0.355766177 0.105247065 -0.680771291 -0.258848786 0.40211603 0.346915752 -0.355766177 -0.155502111 -0.263181567 0.139063418 0.702797055 -0.314128071 -0.62723577 -0.304983914 -1.5658164 0.300378323 0.702797055 -0.314128071 -0.62723577 0.105247065 -0.680771291 -0.258848786 0.512012661 -1.35036528 0.0557795577 -0.066871278 -2.38362145 0.476853848 0.594510615 -2.1888907 0.363027811 -0.168755382 -3.25530696 0.370433182 -0.0387651213 -3.27072001 0.336592048</float_array>
        <technique_common><accessor source="#vfx_kurp_0071-mesh-positions-array" count="288" stride="3"><param name="X" type="float"/><param name="Y" type="float"/><param name="Z" type="float"/></accessor></technique_common>
      </source>
      <source id="vfx_kurp_0071-mesh-normals">
        <float_array id="vfx_kurp_0071-mesh-normals-array" count="864">-0.675071781 0.7056827 0.215151148 -0.675071779 0.705682698 0.215151162 -0.675071777 0.705682696 0.215151176 -0.675071838 0.705682638 0.215151177 0.0161424559 0.938078942 0.346045256 0.0636467335 0.93528014 0.348138122 0.0636467854 0.935280137 0.348138121 0.0150163972 0.938119455 0.345986122 -0.0376359819 0.938679215 0.342731475 -0.0376358781 0.938679229 0.34273145 0.685055681 0.667985089 0.290679607 0.693960788 0.659794512 0.288252712 0.69396074 0.659794522 0.288252806 0.685443293 0.66763271 0.29057539 0.676072958 0.676050308 0.293055178 0.676073029 0.67605026 0.293055123 0.991297072 0.0883110842 0.0976282066 0.991297068 0.0883110987 0.097628236 0.991297085 0.0883110331 0.0976281259 0.991297053 0.0883111644 0.0976283314 0.177926036 -0.142163159 0.97372068 0.155378413 -0.193485912 0.968721193 0.132653397 -0.243514397 0.960782918 0.113511421 -0.284404277 0.9519608 -0.322088121 -0.384791968 0.864982303 -0.289073354 -0.362696506 0.88593896 -0.382711111 -0.424431412 0.820603547 -0.244322088 -0.332218285 0.911009181 0.238719627 -0.372201472 0.896927535 0.208609012 -0.391577805 0.896185864 0.294322847 -0.334603368 0.895217654 0.163328693 -0.419467986 0.89295596 -0.104982606 -0.351190564 0.930399828 -0.286272347 -0.193079755 0.938492596 -0.417916146 -0.180040686 0.890466982 -0.0925678307 -0.339765606 0.935943657 -0.0476208776 -0.317270011 0.947138845 -0.0513151822 -0.329583474 0.942730866 -0.127541599 -0.155699742 0.979535977 -0.0784516491 -0.19401324 0.977856943 0.883083471 0.223826813 0.41238955 0.774276448 0.565939376 0.283211236 0.85571099 0.305427345 0.41769946 0.823771229 0.428168739 0.371581073 0.678295261 0.710362501 0.18788469 0.204425843 0.977454193 0.0528523889 0.204425843 0.977454193 0.0528523889 0.204425829 0.977454196 0.0528523928 0.195980283 0.945850206 0.258764598 0.385401338 0.825235247 0.412859052 0.631465438 0.660256925 0.406586023 0.176234227 0.924771591 0.337252134 0.0306325062 0.985274705 0.168212379 0.064929113 0.978855375 0.193975166 0.579972733 0.42943304 0.692256378 0.619519167 0.376540776 0.688776485 0.53871638 0.479491416 0.692728405 0.67604893 0.290317682 0.677254374 0.165814876 0.948644397 0.269405335 0.174608917 0.947490757 0.267904819 0.215764236 0.941039069 0.260559524 0.100219257 0.95479953 0.27984631 0.656342738 -0.469990099 -0.590189391 0.684541115 -0.419476336 -0.59619046 0.638023198 -0.32410723 -0.698484719 0.68020405 -0.36687068 -0.63460882 0.599542485 -0.310756766 -0.737549348 0.571078171 -0.265285577 -0.776848303 0.433299145 -0.140151557 -0.890286129 0.411259799 -0.080399431 -0.907965478 0.900828825 -0.413074666 -0.13370396 0.904594264 -0.389312843 -0.173622374 0.817986201 -0.574719258 -0.0244202505 0.941525643 -0.161943317 -0.295472206 0.909978195 -0.0926146789 -0.404180907 0.83955013 0.0921907491 -0.535403068 0.714506938 0.152075592 -0.682900322 0.739885671 0.0891946683 -0.66679345 0.17688349 -0.0844615925 0.980601076 0.184270843 -0.139286205 0.972956119 0.187927981 -0.167965789 0.967714094 0.194307072 -0.220997361 0.955722202 0.268312126 0.322973996 0.907577215 0.322421553 0.485226336 0.812772875 0.383139787 0.259561507 0.886471504 0.186863777 0.56809651 0.801466334 0.0502570456 0.589090346 0.806502817 -0.00653535536 0.643552948 0.765373694 0.0111561156 0.814985033 0.579374609 -0.00196802778 0.922096604 0.386954752 -0.105069903 0.14208239 0.984262622 -0.0997844929 0.13084948 0.986367816 -0.168189839 0.27727142 0.945955992 -0.0347661272 -0.00631191828 0.999375543 0.102351495 0.568125195 0.816552469 0.10097587 0.569567613 0.815718461 0.0848270716 0.586265972 0.805665302 0.120420058 0.548884794 0.827178634 0.918260817 -0.395949187 -0.00461670339 0.910362918 -0.407872834 0.0698506176 0.949697372 -0.31313306 0.00475267738 0.85588029 -0.508651036 0.0935042906 0.755946698 -0.63686067 0.151502729 0.614492614 -0.780853772 0.112544279 0.903945111 -0.319016405 -0.284801282 0.909104208 -0.305158221 -0.283563042 0.893619076 -0.345093554 -0.286976283 0.918096638 -0.279415451 -0.281114869 0.669181538 -0.650341344 0.359516627 0.592104389 -0.719933407 0.362088778 0.449353929 -0.839970461 0.304188546 0.804587122 -0.457432834 0.378675012 0.884173081 -0.35234564 0.306741769 0.933386397 -0.240252915 0.266586516 0.954991903 -0.203132784 0.216165534 0.954590063 -0.205110903 0.21607251 0.2400656 0.4541535 0.857970341 0.244566129 0.402997735 0.881918496 0.247381183 0.364457611 0.897760102 0.250416998 0.312986468 0.916149987 0.413903137 0.811443249 0.412606408 0.369573989 0.885558387 0.28142745 0.445539531 0.726047988 0.523783204 0.292352858 0.952384898 0.0865610325 0.108800107 0.963839007 0.243263039 0.136457531 0.897507118 0.419357026 0.258043885 0.760583103 0.595757246 0.0448775595 0.982859565 0.178810182 0.0471802329 0.993153718 -0.106863077 0.020677813 0.94591209 -0.32376341 -0.0410968526 0.684746586 0.727621579 -0.0241690989 0.654751071 0.755458066 -0.101279118 0.781431265 0.615717238 0.0357670641 0.538964937 0.841568485 0.15412328 0.9550071 0.253391898 0.156665653 0.95380449 0.256345212 0.137786045 0.962329916 0.234384594 0.175041987 0.94459944 0.277654824 0.907348878 -0.370145592 0.199274318 0.898803236 -0.341873587 0.27436325 0.94776701 -0.286871132 0.139436899 0.842139525 -0.406071178 0.354834073 0.734420905 -0.464810467 0.494547433 0.568434298 -0.597796023 0.565263093 0.88156835 -0.463158923 -0.0912198252 0.889870678 -0.443744081 -0.105930951 0.871681544 -0.48432456 -0.0748398728 0.898161552 -0.422482859 -0.121713023 0.647063508 -0.367177137 0.668198898 0.568414339 -0.410911507 0.712781083 0.414917345 -0.527637356 0.741243831 0.801170697 -0.204229486 0.562508517 0.892722255 -0.157332913 0.422247949 0.943880182 -0.0818762167 0.319978886 0.967554219 -0.0759656733 0.240973132 0.967014467 -0.0779482181 0.242501744 -0.664825246 0.704472586 0.248446712 -0.664825187 0.704472646 0.248446698 -0.664825217 0.704472619 0.248446694 -0.664825215 0.704472616 0.248446708 -0.161830186 0.959096009 -0.232262431 -0.123767859 0.957412233 -0.260851172 -0.123767883 0.957412245 -0.260851116 -0.162727613 0.959109509 -0.231578654 -0.204441684 0.958377492 -0.19928919 -0.20444167 0.958377497 -0.199289176 0.417060229 0.699632887 -0.580150488 0.425621955 0.691482959 -0.583692787 0.425621898 0.691483142 -0.583692612 0.417432098 0.699282406 -0.580305575 0.408460499 0.707652869 -0.576530518 0.408460437 0.707653102 -0.576530275 0.766957768 0.11480374 -0.631344504 0.76695777 0.114803725 -0.631344505 0.76695776 0.114803836 -0.631344497 0.766957751 0.114803611 -0.631344549 0.707289985 0.463807786 0.533500904 0.707202017 0.419953554 0.568774402 0.704920427 0.375388869 0.601805939 0.701383539 0.337581549 0.627773709 0.364410586 0.211422477 0.906920868 0.392067129 0.241176989 0.887759554 0.310129169 0.154019447 0.938135336 0.4275767 0.2799438 0.859540362 0.800175059 0.232490089 0.552872709 0.784439826 0.216927893 0.581030506 0.826897985 0.26085067 0.498193387 0.759174246 0.193266516 0.621532395 0.550389765 0.274265437 0.788574395 0.357382798 0.408624612 0.839823471 0.227397293 0.392358214 0.891260626 0.558354801 0.286562774 0.778538177 0.589671426 0.310647067 0.745510569 0.589237143 0.298187847 0.750921832 0.484848308 0.460811276 0.743353944 0.535665112 0.428346975 0.727723681 -0.798081917 0.297397756 0.52404182 -0.798081895 0.29739777 0.524041845 -0.798081888 0.297397797 0.52404184 -0.798081881 0.297397824 0.524041835 -0.824069097 0.0611048352 -0.563184092 -0.926386997 0.131080238 -0.353022808 -0.926387005 0.131080254 -0.353022781 -0.823583193 0.0608300125 -0.563924139 -0.661912629 -0.0170799515 -0.74938638 -0.661912629 -0.0170799235 -0.749386381 0.186227476 -0.253592498 -0.949215556 0.18622749 -0.253592497 -0.949215554 0.186227516 -0.253592551 -0.949215534 0.186227439 -0.253592429 -0.949215582 0.643277813 -0.302309687 -0.703421998 0.643277813 -0.302309687 -0.703421998 0.643277813 -0.302309687 -0.703421998 0.643277813 -0.302309687 -0.703421998 0.975737656 -0.202162658 0.0840612075 0.975737657 -0.202162659 0.0840611927 0.975737672 -0.202162605 0.0840611516 0.975737648 -0.202162686 0.0840612292 0.0818186918 0.941748076 -0.326215056 0.196667952 0.964321065 -0.177219076 0.14488891 0.936857594 -0.318284546 0.20110865 0.95859689 -0.201611788 0.252615714 0.940071142 -0.229023034 0.243187365 0.944947291 -0.21893954 0.168208826 0.960366802 -0.222264249 0.196961855 0.953387462 -0.22860091 0.206028635 0.959143912 -0.193894709 0.200033969 0.957674948 -0.206990591 0.220203865 0.946182682 -0.237167854 0.222894147 0.948564707 -0.22481814 0.217106998 0.927585662 -0.304054916 0.239850546 0.926610808 -0.289593035 -0.954534162 -0.179308621 -0.238144812 -0.882352039 -0.232823875 -0.408959561 -0.932239129 -0.170220705 -0.319304113 -0.865540342 -0.248546873 -0.434815326 -0.859953511 -0.332597758 -0.387115861 -0.940831411 0.338566776 0.0144497015 -0.919239516 0.389875082 -0.0547369455 -0.97869182 0.183499933 -0.092141718 -0.842790777 0.507471558 0.179377599 -0.775782875 0.523823911 0.351808813 -0.649703542 -0.759695089 -0.0273619938 -0.533755761 -0.835496337 -0.130578171 -0.552068661 -0.820440128 -0.148654598 -0.758946975 -0.65109356 -0.00875589647 -0.897681994 -0.440022341 0.0233960855 -0.958186171 -0.274890608 -0.07946329 -0.966257037 0.253867686 0.0435721987 -0.965932766 0.257437522 0.0264539937 -0.965397912 0.260537868 0.0112645656 -0.966297442 0.250641374 0.0587209981 -0.957741981 -0.0188999717 -0.287007125 -0.952304349 -0.23274402 -0.197349054 -0.95331472 -0.282932907 -0.105546266 -0.943618383 0.193563109 -0.268547334 -0.934804203 0.328980864 -0.133838311 -0.937018982 0.326724854 -0.123475901 0.0398700168 0.372662847 0.927109909 0.146768407 0.478455785 0.86575926 0.0807792746 0.363787522 0.927972709 0.186482797 0.483092803 0.855479696 0.112309523 0.581812561 0.805531324 0.0568109631 0.561223916 0.825711954 -0.0376682952 -0.85821402 0.511907995 -0.0376682963 -0.858214047 0.511907951 -0.0376682944 -0.858214062 0.511907924 0.658759099 -0.606197579 0.445601779 0.658759099 -0.606197579 0.445601779 0.658759099 -0.606197579 0.445601779 -0.0662136591 0.108148939 0.991927194 -0.0662136591 0.108148946 0.991927193 -0.0662136591 0.108148946 0.991927193 0.455338725 0.271532928 0.847901241 0.455338725 0.271532928 0.847901241 0.455338749 0.271532924 0.847901229 0.671974536 -0.125279679 0.729900833 0.644703783 -0.114965331 0.755738053 0.744671321 -0.153866346 0.64945344 0.559747924 -0.0839488341 0.824399694 0.193214727 0.350190665 0.916533997 0.180610345 0.487606737 0.854177718 0.276602333 0.418421515 0.86510958 0.125711796 0.446248552 0.886035425 0.181193401 0.0577170044 0.981752361 0.107387195 0.206256647 0.972587367 0.223776504 -0.153479918 0.962480125 0.231076888 -0.158722927 0.959901299</float_array>
        <technique_common><accessor source="#vfx_kurp_0071-mesh-normals-array" count="288" stride="3"><param name="X" type="float"/><param name="Y" type="float"/><param name="Z" type="float"/></accessor></technique_common>
      </source>
      <source id="vfx_kurp_0071-mesh-uv0">
        <float_array id="vfx_kurp_0071-mesh-uv0-array" count="576">0 0 0 0.166666627 1 0 1 0.166666627 0 0.333333313 1 0.166666627 0 0.166666627 1 0.333333313 0 0.5 1 0.5 0 0.666666627 1 0.5 0 0.5 1 0.666666627 0 0.833333313 1 0.833333313 0 1 1 0.833333313 0 0.833333313 1 1 0 0 0 0.166666627 1 0 1 0.166666627 0 0.333333313 1 0.166666627 0 0.166666627 1 0.333333313 0 0.5 1 0.333333313 0 0.333333313 1 0.5 0 0.666666627 1 0.5 0 0.5 1 0.666666627 0 0.833333313 1 0.833333313 0 1 1 1 0 0 0 0.166666627 1 0 1 0.166666627 0 0.333333313 1 0.166666627 0 0.333333313 1 0.333333313 0 0.5 1 0.333333313 0 0.333333313 1 0.5 0 0.666666627 1 0.666666627 0 0.833333313 1 0.666666627 0 0.666666627 1 0.833333313 0 1 1 0.833333313 0 0.833333313 1 1 0 0 0 0.166666627 1 0 1 0.166666627 0 0.333333313 1 0.333333313 0 0.5 1 0.5 0 0.666666627 1 0.5 0 0.5 1 0.666666627 0 0.833333313 1 0.833333313 0 1 1 1 0 0 0 0.166666627 1 0 1 0.166666627 0 0.333333313 1 0.166666627 0 0.166666627 1 0.333333313 0 0.5 1 0.5 0 0.666666627 1 0.666666627 0 0.833333313 1 0.666666627 0 0.666666627 1 0.833333313 0 1 1 0.833333313 0 0.833333313 1 1 0 0 0 0.166666627 1 0 1 0.166666627 0 0.333333313 1 0.333333313 0 0.5 1 0.333333313 0 0.333333313 1 0.5 0 0.666666627 1 0.5 0 0.5 1 0.666666627 0 0.833333313 1 0.833333313 0 1 1 1 0 0 0 0.166666627 1 0 1 0.166666627 0 0.333333313 1 0.166666627 0 0.166666627 1 0.333333313 0 0.5 1 0.333333313 0 0.333333313 1 0.5 0 0.666666627 1 0.666666627 0 0.833333313 1 0.666666627 0 0.666666627 1 0.833333313 0 1 1 0.833333313 0 0.833333313 1 1 0 0 0 0.166666627 1 0 1 0.166666627 0 0.333333313 1 0.333333313 0 0.5 1 0.333333313 0 0.333333313 1 0.5 0 0.666666627 1 0.5 0 0.5 1 0.666666627 0 0.833333313 1 0.833333313 0 1 1 1 0 0 0 0.166666627 1 0 1 0.166666627 0 0.333333313 1 0.166666627 0 0.166666627 1 0.333333313 0 0.5 1 0.5 0 0.666666627 1 0.5 0 0.5 1 0.666666627 0 0.833333313 1 0.833333313 0 1 1 0.833333313 0 0.833333313 1 1 0 0 0 0.166666627 1 0 1 0.166666627 0 0.333333313 1 0.166666627 0 0.166666627 1 0.333333313 0 0.5 1 0.333333313 0 0.333333313 1 0.5 0 0.666666627 1 0.5 0 0.5 1 0.666666627 0 0.833333313 1 0.833333313 0 1 1 1 0 0 0 0.166666627 1 0 1 0.166666627 0 0.333333313 1 0.166666627 0 0.166666627 1 0.333333313 0 0.5 1 0.5 0 0.666666627 1 0.5 0 0.5 1 0.666666627 0 0.833333313 1 0.666666627 0 0.666666627 1 0.833333313 0 1 1 0.833333313 0 0.833333313 1 1 0 0 0 0.166666627 1 0 1 0.166666627 0 0.333333313 1 0.333333313 0 0.5 1 0.5 0 0.666666627 1 0.666666627 0 0.833333313 1 0.833333313 0 1 1 1 0 0 0 0.166666627 1 0 1 0.166666627 1 0.25 0 0.25 1 0.25 0 0.166666627 1 0.333333313 0 0.333333313 0 0.416666627 1 0.333333313 0 0.333333313 1 0.416666627 0 0.5 1 0.5 0 0.666666627 1 0.5 0 0.5 1 0.666666627 0 0.833333313 1 0.666666627 0 0.666666627 1 0.833333313 0 1 1 1 0 0 0 0.166666627 1 0 1 0.166666627 1 0.25 0 0.25 1 0.25 0 0.25 1 0.333333313 0 0.333333313 1 0.333333313 0 0.25 0 0.416666627 1 0.333333313 0 0.333333313 1 0.333333313 0 0.416666627 1 0.416666627 0 0.5 1 0.416666627 0 0.416666627 1 0.5 0 0.666666627 1 0.5 0 0.5 1 0.666666627 0 0.833333313 1 0.833333313 0 1 1 1</float_array>
        <technique_common><accessor source="#vfx_kurp_0071-mesh-uv0-array" count="288" stride="2"><param name="S" type="float"/><param name="T" type="float"/></accessor></technique_common>
      </source>
      <vertices id="vfx_kurp_0071-mesh-vertices"><input semantic="POSITION" source="#vfx_kurp_0071-mesh-positions"/></vertices>
      <triangles material="PreviewMaterial" count="176">
        <input semantic="VERTEX" source="#vfx_kurp_0071-mesh-vertices" offset="0"/>
        <input semantic="NORMAL" source="#vfx_kurp_0071-mesh-normals" offset="1"/>
        <input semantic="TEXCOORD" source="#vfx_kurp_0071-mesh-uv0" offset="2" set="0"/>
        <p>0 0 0 1 1 1 2 2 2 2 2 2 1 1 1 3 3 3 4 4 4 5 5 5 6 6 6 5 5 5 4 4 4 7 7 7 8 8 8 7 7 7 4 4 4 7 7 7 8 8 8 9 9 9 10 10 10 11 11 11 12 12 12 11 11 11 10 10 10 13 13 13 14 14 14 13 13 13 10 10 10 13 13 13 14 14 14 15 15 15 16 16 16 17 17 17 18 18 18 17 17 17 16 16 16 19 19 19 20 20 20 21 21 21 22 22 22 22 22 22 21 21 21 23 23 23 24 24 24 25 25 25 26 26 26 25 25 25 24 24 24 27 27 27 28 28 28 29 29 29 30 30 30 29 29 29 28 28 28 31 31 31 32 32 32 33 33 33 34 34 34 33 33 33 32 32 32 35 35 35 36 36 36 35 35 35 32 32 32 35 35 35 36 36 36 37 37 37 38 38 38 37 37 37 36 36 36 37 37 37 38 38 38 39 39 39 40 40 40 41 41 41 42 42 42 42 42 42 41 41 41 43 43 43 44 44 44 43 43 43 41 41 41 45 45 45 46 46 46 47 47 47 48 48 48 49 49 49 50 50 50 49 49 49 48 48 48 51 51 51 52 52 52 51 51 51 48 48 48 51 51 51 52 52 52 53 53 53 54 54 54 55 55 55 56 56 56 55 55 55 54 54 54 57 57 57 58 58 58 59 59 59 60 60 60 59 59 59 58 58 58 61 61 61 62 62 62 63 63 63 64 64 64 64 64 64 63 63 63 65 65 65 66 66 66 65 65 65 63 63 63 65 65 65 66 66 66 67 67 67 68 68 68 67 67 67 66 66 66 67 67 67 68 68 68 69 69 69 70 70 70 71 71 71 72 72 72 71 71 71 70 70 70 73 73 73 74 74 74 73 73 73 70 70 70 73 73 73 74 74 74 75 75 75 76 76 76 75 75 75 74 74 74 75 75 75 76 76 76 77 77 77 78 78 78 79 79 79 80 80 80 80 80 80 79 79 79 81 81 81 82 82 82 83 83 83 84 84 84 83 83 83 82 82 82 85 85 85 86 86 86 85 85 85 82 82 82 85 85 85 86 86 86 87 87 87 88 88 88 87 87 87 86 86 86 87 87 87 88 88 88 89 89 89 90 90 90 91 91 91 92 92 92 91 91 91 90 90 90 93 93 93 94 94 94 95 95 95 96 96 96 95 95 95 94 94 94 97 97 97 98 98 98 99 99 99 100 100 100 100 100 100 99 99 99 101 101 101 102 102 102 101 101 101 99 99 99 101 101 101 102 102 102 103 103 103 104 104 104 105 105 105 106 106 106 105 105 105 104 104 104 107 107 107 108 108 108 109 109 109 110 110 110 109 109 109 108 108 108 111 111 111 112 112 112 111 111 111 108 108 108 111 111 111 112 112 112 113 113 113 114 114 114 113 113 113 112 112 112 113 113 113 114 114 114 115 115 115 116 116 116 117 117 117 118 118 118 118 118 118 117 117 117 119 119 119 120 120 120 121 121 121 122 122 122 121 121 121 120 120 120 123 123 123 124 124 124 125 125 125 126 126 126 125 125 125 124 124 124 127 127 127 128 128 128 127 127 127 124 124 124 127 127 127 128 128 128 129 129 129 130 130 130 131 131 131 132 132 132 131 131 131 130 130 130 133 133 133 134 134 134 135 135 135 136 136 136 135 135 135 134 134 134 137 137 137 138 138 138 139 139 139 140 140 140 140 140 140 139 139 139 141 141 141 142 142 142 141 141 141 139 139 139 141 141 141 142 142 142 143 143 143 144 144 144 145 145 145 146 146 146 145 145 145 144 144 144 147 147 147 148 148 148 149 149 149 150 150 150 149 149 149 148 148 148 151 151 151 152 152 152 151 151 151 148 148 148 151 151 151 152 152 152 153 153 153 154 154 154 153 153 153 152 152 152 153 153 153 154 154 154 155 155 155 156 156 156 157 157 157 158 158 158 158 158 158 157 157 157 159 159 159 160 160 160 161 161 161 162 162 162 161 161 161 160 160 160 163 163 163 164 164 164 163 163 163 160 160 160 163 163 163 164 164 164 165 165 165 166 166 166 167 167 167 168 168 168 167 167 167 166 166 166 169 169 169 170 170 170 169 169 169 166 166 166 169 169 169 170 170 170 171 171 171 172 172 172 173 173 173 174 174 174 173 173 173 172 172 172 175 175 175 176 176 176 177 177 177 178 178 178 178 178 178 177 177 177 179 179 179 180 180 180 181 181 181 182 182 182 181 181 181 180 180 180 183 183 183 184 184 184 185 185 185 186 186 186 185 185 185 184 184 184 187 187 187 188 188 188 189 189 189 190 190 190 189 189 189 188 188 188 191 191 191 192 192 192 191 191 191 188 188 188 191 191 191 192 192 192 193 193 193 194 194 194 193 193 193 192 192 192 193 193 193 194 194 194 195 195 195 196 196 196 197 197 197 198 198 198 198 198 198 197 197 197 199 199 199 200 200 200 201 201 201 202 202 202 201 201 201 200 200 200 203 203 203 204 204 204 203 203 203 200 200 200 203 203 203 204 204 204 205 205 205 206 206 206 207 207 207 208 208 208 207 207 207 206 206 206 209 209 209 210 210 210 211 211 211 212 212 212 211 211 211 210 210 210 213 213 213 214 214 214 215 215 215 216 216 216 215 215 215 214 214 214 217 217 217 218 218 218 219 219 219 220 220 220 220 220 220 219 219 219 221 221 221 222 222 222 221 221 221 219 219 219 221 221 221 222 222 222 223 223 223 224 224 224 223 223 223 222 222 222 223 223 223 224 224 224 225 225 225 226 226 226 225 225 225 224 224 224 225 225 225 226 226 226 227 227 227 228 228 228 227 227 227 226 226 226 227 227 227 228 228 228 229 229 229 230 230 230 229 229 229 228 228 228 229 229 229 230 230 230 231 231 231 232 232 232 233 233 233 234 234 234 234 234 234 233 233 233 235 235 235 235 235 235 233 233 233 236 236 236 237 237 237 238 238 238 239 239 239 238 238 238 237 237 237 240 240 240 241 241 241 240 240 240 237 237 237 242 242 242 243 243 243 244 244 244 243 243 243 242 242 242 245 245 245 246 246 246 245 245 245 242 242 242 245 245 245 246 246 246 247 247 247 248 248 248 249 249 249 250 250 250 249 249 249 248 248 248 251 251 251 252 252 252 253 253 253 254 254 254 253 253 253 252 252 252 255 255 255 256 256 256 255 255 255 252 252 252 255 255 255 256 256 256 257 257 257 258 258 258 259 259 259 260 260 260 260 260 260 259 259 259 261 261 261 261 261 261 259 259 259 262 262 262 263 263 263 262 262 262 259 259 259 264 264 264 265 265 265 266 266 266 267 267 267 268 268 268 269 269 269 270 270 270 271 271 271 272 272 272 273 273 273 274 274 274 275 275 275 276 276 276 277 277 277 278 278 278 277 277 277 276 276 276 279 279 279 280 280 280 281 281 281 282 282 282 281 281 281 280 280 280 283 283 283 284 284 284 283 283 283 280 280 280 283 283 283 284 284 284 285 285 285 286 286 286 285 285 285 284 284 284 285 285 285 286 286 286 287 287 287</p>
      </triangles>
    </mesh></geometry>
  </library_geometries>
  <library_visual_scenes>
    <visual_scene id="Scene" name="Scene">
      <node id="vfx_kurp_0071" name="vfx_kurp_0071" type="NODE">
        <instance_geometry url="#vfx_kurp_0071-mesh"><bind_material><technique_common><instance_material symbol="PreviewMaterial" target="#PreviewMaterial"><bind_vertex_input semantic="UVSET0" input_semantic="TEXCOORD" input_set="0"/></instance_material></technique_common></bind_material></instance_geometry>
      </node>
    </visual_scene>
  </library_visual_scenes>
  <scene><instance_visual_scene url="#Scene"/></scene>
</COLLADA>
