<?xml version="1.0" encoding="utf-8"?>
<COLLADA xmlns="http://www.collada.org/2005/11/COLLADASchema" version="1.4.1">
  <asset>
    <contributor><authoring_tool>Morrobroom Kurpulio VFX preview converter</authoring_tool></contributor>
    <unit name="unit" meter="1"/>
    <up_axis>Z_UP</up_axis>
  </asset>
  <library_images>
    <image id="VFXTexture" name="darkmap_newgen-1.dds">
      <init_from>../../../Textures/Kurp/darkmap_newgen-1.dds</init_from>
    </image>
  </library_images>
  <library_effects>
    <effect id="PreviewEffect">
      <profile_COMMON>
        <newparam sid="VFXTexture-surface">
          <surface type="2D"><init_from>VFXTexture</init_from></surface>
        </newparam>
        <newparam sid="VFXTexture-sampler">
          <sampler2D><source>VFXTexture-surface</source></sampler2D>
        </newparam>
        <technique sid="common"><phong>
          <emission><color>0.08 0.08 0.08 1</color></emission>
          <ambient><color>0.2 0.2 0.2 1</color></ambient>
          <diffuse><texture texture="VFXTexture-sampler" texcoord="UVSET0"/></diffuse>
          <specular><color>0.15 0.15 0.15 1</color></specular>
          <shininess><float>8</float></shininess>
          <transparent opaque="A_ONE"><texture texture="VFXTexture-sampler" texcoord="UVSET0"/></transparent>
          <transparency><float>1</float></transparency>
        </phong></technique>
      </profile_COMMON>
      <extra><technique profile="GOOGLEEARTH"><double_sided>1</double_sided></technique></extra>
    </effect>
  </library_effects>
  <library_materials><material id="PreviewMaterial" name="PreviewMaterial"><instance_effect url="#PreviewEffect"/></material></library_materials>
  <library_geometries>
    <geometry id="vfx_kurp_0248-mesh" name="vfx_kurp_0248"><mesh>
      <source id="vfx_kurp_0248-mesh-positions">
        <float_array id="vfx_kurp_0248-mesh-positions-array" count="1620">-0.631724221 -0.579851404 5.47325452 -1.40690788 0.427676792 5.50503472 -0.330669875 0.260740527 4.87591954 -0.936802204 1.06042616 4.47650493 -0.330669875 0.260740527 4.87591954 -1.40690788 0.427676792 5.50503472 -0.330669875 0.260740527 4.87591954 -0.936802204 1.06042616 4.47650493 -0.107276909 0.778903416 3.8428858 -0.573218823 1.31366345 3.22084331 -0.107276909 0.778903416 3.8428858 -0.936802204 1.06042616 4.47650493 -0.107276909 0.778903416 3.8428858 -0.573218823 1.31366345 3.22084331 0.035522513 0.898740022 2.61809033 -0.298420321 1.1867393 1.81035711 0.035522513 0.898740022 2.61809033 -0.573218823 1.31366345 3.22084331 0.035522513 0.898740022 2.61809033 -0.298420321 1.1867393 1.81035711 0.115369017 0.640240126 1.45307959 -0.0972715527 0.738315926 0.653722025 0.115369017 0.640240126 1.45307959 -0.298420321 1.1867393 1.81035711 0.115369017 0.640240126 1.45307959 -0.0972715527 0.738315926 0.653722025 0.163237539 0.100864088 0.547212672 0.053951518 0.00614329069 -0.248812602 0.163237539 0.100864088 0.547212672 -0.0972715527 0.738315926 0.653722025 -1.952275 -0.424148885 6.02291791 -0.631724221 -0.579851404 5.47325452 -0.984552945 -1.57671565 5.46400945 -0.631724221 -0.579851404 5.47325452 -1.952275 -0.424148885 6.02291791 -1.40690788 0.427676792 5.50503472 -2.44027512 0.599905088 3.98312416 -1.40690788 0.427676792 5.50503472 -1.952275 -0.424148885 6.02291791 -1.97064991 0.710476053 3.47520838 -1.40690788 0.427676792 5.50503472 -2.44027512 0.599905088 3.98312416 -1.40690788 0.427676792 5.50503472 -1.97064991 0.710476053 3.47520838 -0.936802204 1.06042616 4.47650493 -1.53276514 0.748889339 2.83215516 -0.936802204 1.06042616 4.47650493 -1.97064991 0.710476053 3.47520838 -0.936802204 1.06042616 4.47650493 -1.53276514 0.748889339 2.83215516 -0.573218823 1.31366345 3.22084331 -1.135236 0.680716174 2.1516811 -0.573218823 1.31366345 3.22084331 -1.53276514 0.748889339 2.83215516 -0.573218823 1.31366345 3.22084331 -1.135236 0.680716174 2.1516811 -0.298420321 1.1867393 1.81035711 -0.779213178 0.488891569 1.45775369 -0.298420321 1.1867393 1.81035711 -1.135236 0.680716174 2.1516811 -0.298420321 1.1867393 1.81035711 -0.779213178 0.488891569 1.45775369 -0.0972715527 0.738315926 0.653722025 -0.463366919 0.169341985 0.828766533 -0.0972715527 0.738315926 0.653722025 -0.779213178 0.488891569 1.45775369 -0.0972715527 0.738315926 0.653722025 -0.463366919 0.169341985 0.828766533 0.053951518 0.00614329069 -0.248812602 -0.180516413 -0.253323394 0.321708054 0.053951518 0.00614329069 -0.248812602 -0.463366919 0.169341985 0.828766533 0.117718822 0.74660273 4.44219769 1.03440476 1.70937266 4.60473667 0.621267291 0.616331785 3.99141534 1.31585121 1.35056223 3.77608814 0.621267291 0.616331785 3.99141534 1.03440476 1.70937266 4.60473667 0.621267291 0.616331785 3.99141534 1.31585121 1.35056223 3.77608814 0.874650563 0.466790946 3.17241832 1.32708658 0.99774109 2.74648286 0.874650563 0.466790946 3.17241832 1.31585121 1.35056223 3.77608814 0.874650563 0.466790946 3.17241832 1.32708658 0.99774109 2.74648286 0.840715422 0.296155151 2.17753798 1.06886077 0.637493321 1.5728459 0.840715422 0.296155151 2.17753798 1.32708658 0.99774109 2.74648286 0.840715422 0.296155151 2.17753798 1.06886077 0.637493321 1.5728459 0.548399102 0.104633815 1.21015357 0.610443866 0.288836241 0.588584414 0.548399102 0.104633815 1.21015357 1.06886077 0.637493321 1.5728459 0.548399102 0.104633815 1.21015357 0.610443866 0.288836241 0.588584414 0.0765373037 -0.105706643 0.435659387 -0.0259029066 -0.0624416921 -0.205520619 0.0765373037 -0.105706643 0.435659387 0.610443866 0.288836241 0.588584414 0.572478535 2.06577638 5.01151159 0.117718822 0.74660273 4.44219769 -0.532649139 0.861222603 4.39583376 0.117718822 0.74660273 4.44219769 0.572478535 2.06577638 5.01151159 1.03440476 1.70937266 4.60473667 1.28503818 2.65523394 3.47447302 1.03440476 1.70937266 4.60473667 0.572478535 2.06577638 5.01151159 1.2220901 2.20723745 3.03076731 1.03440476 1.70937266 4.60473667 1.28503818 2.65523394 3.47447302 1.03440476 1.70937266 4.60473667 1.2220901 2.20723745 3.03076731 1.31585121 1.35056223 3.77608814 1.10368648 1.76671881 2.47545018 1.31585121 1.35056223 3.77608814 1.2220901 2.20723745 3.03076731 1.31585121 1.35056223 3.77608814 1.10368648 1.76671881 2.47545018 1.32708658 0.99774109 2.74648286 0.913690919 1.33913835 1.88592774 1.32708658 0.99774109 2.74648286 1.10368648 1.76671881 2.47545018 1.32708658 0.99774109 2.74648286 0.913690919 1.33913835 1.88592774 1.06886077 0.637493321 1.5728459 0.641613134 0.923009822 1.28050315 1.06886077 0.637493321 1.5728459 0.913690919 1.33913835 1.88592774 1.06886077 0.637493321 1.5728459 0.641613134 0.923009822 1.28050315 0.610443866 0.288836241 0.588584414 0.289874828 0.520084082 0.722201853 0.610443866 0.288836241 0.588584414 0.641613134 0.923009822 1.28050315 0.610443866 0.288836241 0.588584414 0.289874828 0.520084082 0.722201853 -0.0259029066 -0.0624416921 -0.205520619 -0.120987522 0.131825173 0.258221589 -0.0259029066 -0.0624416921 -0.205520619 0.289874828 0.520084082 0.722201853 0.541133284 -1.30356992 5.05166149 -0.845733157 -2.77812286 5.034517 -0.309168965 -1.08627727 4.41468137 -1.41502069 -2.19838893 4.0157002 -0.309168965 -1.08627727 4.41468137 -0.845733157 -2.77812286 5.034517 -0.309168965 -1.08627727 4.41468137 -1.41502069 -2.19838893 4.0157002 -0.833367094 -0.826860963 3.41726207 -1.6000662 -1.62133411 2.83245896 -0.833367094 -0.826860963 3.41726207 -1.41502069 -2.19838893 4.0157002 -0.833367094 -0.826860963 3.41726207 -1.6000662 -1.62133411 2.83245896 -0.94288322 -0.529700587 2.28763731 -1.39278961 -1.02853605 1.54930791 -0.94288322 -0.529700587 2.28763731 -1.6000662 -1.62133411 2.83245896 -0.94288322 -0.529700587 2.28763731 -1.39278961 -1.02853605 1.54930791 -0.649309106 -0.202472546 1.25085744 -0.845857522 -0.46105088 0.530280294 -0.649309106 -0.202472546 1.25085744 -1.39278961 -1.02853605 1.54930791 -0.649309106 -0.202472546 1.25085744 -0.845857522 -0.46105088 0.530280294 -0.0473939405 0.145863298 0.476734339 0.00649587522 0.102888316 -0.229310606 -0.0473939405 0.145863298 0.476734339 -0.845857522 -0.46105088 0.530280294 -0.0665589424 -3.33931356 5.61530753 0.541133284 -1.30356992 5.05166149 1.53714147 -1.47920624 5.15646973 0.541133284 -1.30356992 5.05166149 -0.0665589424 -3.33931356 5.61530753 -0.845733157 -2.77812286 5.034517 -1.41510716 -4.18165076 3.70194798 -0.845733157 -2.77812286 5.034517 -0.0665589424 -3.33931356 5.61530753 -1.39057819 -3.48083056 3.2030679 -0.845733157 -2.77812286 5.034517 -1.41510716 -4.18165076 3.70194798 -0.845733157 -2.77812286 5.034517 -1.39057819 -3.48083056 3.2030679 -1.41502069 -2.19838893 4.0157002 -1.2986212 -2.78753262 2.5902898 -1.41502069 -2.19838893 4.0157002 -1.39057819 -3.48083056 3.2030679 -1.41502069 -2.19838893 4.0157002 -1.2986212 -2.78753262 2.5902898 -1.6000662 -1.62133411 2.83245896 -1.10175351 -2.11299318 1.95586156 -1.6000662 -1.62133411 2.83245896 -1.2986212 -2.78753262 2.5902898 -1.6000662 -1.62133411 2.83245896 -1.10175351 -2.11299318 1.95586156 -1.39278961 -1.02853605 1.54930791 -0.780817361 -1.45564517 1.32314442 -1.39278961 -1.02853605 1.54930791 -1.10175351 -2.11299318 1.95586156 -1.39278961 -1.02853605 1.54930791 -0.780817361 -1.45564517 1.32314442 -0.845857522 -0.46105088 0.530280294 -0.32930429 -0.820466039 0.763476296 -0.845857522 -0.46105088 0.530280294 -0.780817361 -1.45564517 1.32314442 -0.845857522 -0.46105088 0.530280294 -0.32930429 -0.820466039 0.763476296 0.00649587522 0.102888316 -0.229310606 0.228773426 -0.211355719 0.325799826 0.00649587522 0.102888316 -0.229310606 -0.32930429 -0.820466039 0.763476296 1.29767093 0.313921514 6.17298485 2.17103855 -0.783833202 6.37686793 0.987706558 -0.47250833 5.47190931 1.61669125 -1.32762026 5.16140636 0.987706558 -0.47250833 5.47190931 2.17103855 -0.783833202 6.37686793 0.987706558 -0.47250833 5.47190931 1.61669125 -1.32762026 5.16140636 0.672341886 -0.929282922 4.2958068 1.10825119 -1.49529456 3.70630751 0.672341886 -0.929282922 4.2958068 1.61669125 -1.32762026 5.16140636 0.672341886 -0.929282922 4.2958068 1.10825119 -1.49529456 3.70630751 0.379657465 -0.989433908 2.91394201 0.637099812 -1.28678034 2.08832549 0.379657465 -0.989433908 2.91394201 1.10825119 -1.49529456 3.70630751 0.379657465 -0.989433908 2.91394201 0.637099812 -1.28678034 2.08832549 0.126097952 -0.679961759 1.60216587 0.245853207 -0.773696208 0.758746953 0.126097952 -0.679961759 1.60216587 0.637099812 -1.28678034 2.08832549 0.126097952 -0.679961759 1.60216587 0.245853207 -0.773696208 0.758746953 -0.0855239971 -0.102077148 0.577624124 -0.0862154701 0.00882798462 -0.285842741 -0.0855239971 -0.102077148 0.577624124 0.245853207 -0.773696208 0.758746953 2.71666261 -0.010944803 7.03600317 1.29767093 0.313921514 6.17298485 1.56810619 1.27263832 6.20830982 1.29767093 0.313921514 6.17298485 2.71666261 -0.010944803 7.03600317 2.17103855 -0.783833202 6.37686793 3.03299062 -1.01884724 4.8899986 2.17103855 -0.783833202 6.37686793 2.71666261 -0.010944803 7.03600317 2.50204306 -1.0583454 4.24039005 2.17103855 -0.783833202 6.37686793 3.03299062 -1.01884724 4.8899986 2.17103855 -0.783833202 6.37686793 2.50204306 -1.0583454 4.24039005 1.61669125 -1.32762026 5.16140636 1.97952727 -1.02434938 3.44549447 1.61669125 -1.32762026 5.16140636 2.50204306 -1.0583454 4.24039005 1.61669125 -1.32762026 5.16140636 1.97952727 -1.02434938 3.44549447 1.10825119 -1.49529456 3.70630751 1.48386813 -0.886843199 2.61450032 1.10825119 -1.49529456 3.70630751 1.97952727 -1.02434938 3.44549447 1.10825119 -1.49529456 3.70630751 1.48386813 -0.886843199 2.61450032 0.637099812 -1.28678034 2.08832549 1.01787789 -0.62972284 1.77382091 0.637099812 -1.28678034 2.08832549 1.48386813 -0.886843199 2.61450032 0.637099812 -1.28678034 2.08832549 1.01787789 -0.62972284 1.77382091 0.245853207 -0.773696208 0.758746953 0.590015587 -0.251556089 1.00999401 0.245853207 -0.773696208 0.758746953 1.01787789 -0.62972284 1.77382091 0.245853207 -0.773696208 0.758746953 0.590015587 -0.251556089 1.00999401 -0.0862154701 0.00882798462 -0.285842741 0.202499758 0.221791056 0.385340393 -0.0862154701 0.00882798462 -0.285842741 0.590015587 -0.251556089 1.00999401 -0.463366919 0.169341985 0.828766533 -0.779213178 0.488891569 1.45775369 -0.0972715527 0.738315926 0.653722025 -0.0972715527 0.738315926 0.653722025 -0.779213178 0.488891569 1.45775369 -0.298420321 1.1867393 1.81035711 -1.135236 0.680716174 2.1516811 -0.298420321 1.1867393 1.81035711 -0.779213178 0.488891569 1.45775369 -0.298420321 1.1867393 1.81035711 -1.135236 0.680716174 2.1516811 -0.573218823 1.31366345 3.22084331 -1.53276514 0.748889339 2.83215516 -0.573218823 1.31366345 3.22084331 -1.135236 0.680716174 2.1516811 -1.53276514 0.748889339 2.83215516 -0.936802204 1.06042616 4.47650493 -1.97064991 0.710476053 3.47520838 -0.936802204 1.06042616 4.47650493 -1.53276514 0.748889339 2.83215516 -1.97064991 0.710476053 3.47520838 -1.40690788 0.427676792 5.50503472 -2.44027512 0.599905088 3.98312416 -1.40690788 0.427676792 5.50503472 -1.97064991 0.710476053 3.47520838 -2.44027512 0.599905088 3.98312416 -1.952275 -0.424148885 6.02291791 -0.180516413 -0.253323394 0.321708054 -0.463366919 0.169341985 0.828766533 0.053951518 0.00614329069 -0.248812602 -0.0972715527 0.738315926 0.653722025 0.053951518 0.00614329069 -0.248812602 -0.463366919 0.169341985 0.828766533 0.053951518 0.00614329069 -0.248812602 0.163237539 0.100864088 0.547212672 0.163237539 0.100864088 0.547212672 0.115369017 0.640240126 1.45307959 -0.298420321 1.1867393 1.81035711 0.115369017 0.640240126 1.45307959 -0.0972715527 0.738315926 0.653722025 0.115369017 0.640240126 1.45307959 0.035522513 0.898740022 2.61809033 -0.573218823 1.31366345 3.22084331 0.035522513 0.898740022 2.61809033 -0.298420321 1.1867393 1.81035711 0.035522513 0.898740022 2.61809033 -0.107276909 0.778903416 3.8428858 -0.936802204 1.06042616 4.47650493 -0.107276909 0.778903416 3.8428858 -0.573218823 1.31366345 3.22084331 -0.107276909 0.778903416 3.8428858 -0.330669875 0.260740527 4.87591954 -1.40690788 0.427676792 5.50503472 -0.330669875 0.260740527 4.87591954 -0.936802204 1.06042616 4.47650493 -0.330669875 0.260740527 4.87591954 -0.631724221 -0.579851404 5.47325452 -1.952275 -0.424148885 6.02291791 -0.631724221 -0.579851404 5.47325452 -1.40690788 0.427676792 5.50503472 -0.631724221 -0.579851404 5.47325452 -1.952275 -0.424148885 6.02291791 -0.984552945 -1.57671565 5.46400945 0.289874828 0.520084082 0.722201853 0.641613134 0.923009822 1.28050315 0.610443866 0.288836241 0.588584414 0.610443866 0.288836241 0.588584414 0.641613134 0.923009822 1.28050315 1.06886077 0.637493321 1.5728459 0.913690919 1.33913835 1.88592774 1.06886077 0.637493321 1.5728459 0.641613134 0.923009822 1.28050315 1.06886077 0.637493321 1.5728459 0.913690919 1.33913835 1.88592774 1.32708658 0.99774109 2.74648286 1.10368648 1.76671881 2.47545018 1.32708658 0.99774109 2.74648286 0.913690919 1.33913835 1.88592774 1.10368648 1.76671881 2.47545018 1.31585121 1.35056223 3.77608814 1.2220901 2.20723745 3.03076731 1.31585121 1.35056223 3.77608814 1.10368648 1.76671881 2.47545018 1.2220901 2.20723745 3.03076731 1.03440476 1.70937266 4.60473667 1.28503818 2.65523394 3.47447302 1.03440476 1.70937266 4.60473667 1.2220901 2.20723745 3.03076731 1.28503818 2.65523394 3.47447302 0.572478535 2.06577638 5.01151159 -0.120987522 0.131825173 0.258221589 0.289874828 0.520084082 0.722201853 -0.0259029066 -0.0624416921 -0.205520619 0.610443866 0.288836241 0.588584414 -0.0259029066 -0.0624416921 -0.205520619 0.289874828 0.520084082 0.722201853 -0.0259029066 -0.0624416921 -0.205520619 0.0765373037 -0.105706643 0.435659387 0.0765373037 -0.105706643 0.435659387 0.548399102 0.104633815 1.21015357 1.06886077 0.637493321 1.5728459 0.548399102 0.104633815 1.21015357 0.610443866 0.288836241 0.588584414 0.548399102 0.104633815 1.21015357 0.840715422 0.296155151 2.17753798 1.32708658 0.99774109 2.74648286 0.840715422 0.296155151 2.17753798 1.06886077 0.637493321 1.5728459 0.840715422 0.296155151 2.17753798 0.874650563 0.466790946 3.17241832 1.31585121 1.35056223 3.77608814 0.874650563 0.466790946 3.17241832 1.32708658 0.99774109 2.74648286 0.874650563 0.466790946 3.17241832 0.621267291 0.616331785 3.99141534 1.03440476 1.70937266 4.60473667 0.621267291 0.616331785 3.99141534 1.31585121 1.35056223 3.77608814 0.621267291 0.616331785 3.99141534 0.117718822 0.74660273 4.44219769 0.572478535 2.06577638 5.01151159 0.117718822 0.74660273 4.44219769 1.03440476 1.70937266 4.60473667 0.117718822 0.74660273 4.44219769 0.572478535 2.06577638 5.01151159 -0.532649139 0.861222603 4.39583376 -0.32930429 -0.820466039 0.763476296 -0.780817361 -1.45564517 1.32314442 -0.845857522 -0.46105088 0.530280294 -0.845857522 -0.46105088 0.530280294 -0.780817361 -1.45564517 1.32314442 -1.39278961 -1.02853605 1.54930791 -1.10175351 -2.11299318 1.95586156 -1.39278961 -1.02853605 1.54930791 -0.780817361 -1.45564517 1.32314442 -1.39278961 -1.02853605 1.54930791 -1.10175351 -2.11299318 1.95586156 -1.6000662 -1.62133411 2.83245896 -1.2986212 -2.78753262 2.5902898 -1.6000662 -1.62133411 2.83245896 -1.10175351 -2.11299318 1.95586156 -1.2986212 -2.78753262 2.5902898 -1.41502069 -2.19838893 4.0157002 -1.39057819 -3.48083056 3.2030679 -1.41502069 -2.19838893 4.0157002 -1.2986212 -2.78753262 2.5902898 -1.39057819 -3.48083056 3.2030679 -0.845733157 -2.77812286 5.034517 -1.41510716 -4.18165076 3.70194798 -0.845733157 -2.77812286 5.034517 -1.39057819 -3.48083056 3.2030679 -1.41510716 -4.18165076 3.70194798 -0.0665589424 -3.33931356 5.61530753 0.228773426 -0.211355719 0.325799826 -0.32930429 -0.820466039 0.763476296 0.00649587522 0.102888316 -0.229310606 -0.845857522 -0.46105088 0.530280294 0.00649587522 0.102888316 -0.229310606 -0.32930429 -0.820466039 0.763476296 0.00649587522 0.102888316 -0.229310606 -0.0473939405 0.145863298 0.476734339 -0.0473939405 0.145863298 0.476734339 -0.649309106 -0.202472546 1.25085744 -1.39278961 -1.02853605 1.54930791 -0.649309106 -0.202472546 1.25085744 -0.845857522 -0.46105088 0.530280294 -0.649309106 -0.202472546 1.25085744 -0.94288322 -0.529700587 2.28763731 -1.6000662 -1.62133411 2.83245896 -0.94288322 -0.529700587 2.28763731 -1.39278961 -1.02853605 1.54930791 -0.94288322 -0.529700587 2.28763731 -0.833367094 -0.826860963 3.41726207 -1.41502069 -2.19838893 4.0157002 -0.833367094 -0.826860963 3.41726207 -1.6000662 -1.62133411 2.83245896 -0.833367094 -0.826860963 3.41726207 -0.309168965 -1.08627727 4.41468137 -0.845733157 -2.77812286 5.034517 -0.309168965 -1.08627727 4.41468137 -1.41502069 -2.19838893 4.0157002 -0.309168965 -1.08627727 4.41468137 0.541133284 -1.30356992 5.05166149 -0.0665589424 -3.33931356 5.61530753 0.541133284 -1.30356992 5.05166149 -0.845733157 -2.77812286 5.034517 0.541133284 -1.30356992 5.05166149 -0.0665589424 -3.33931356 5.61530753 1.53714147 -1.47920624 5.15646973 0.590015587 -0.251556089 1.00999401 1.01787789 -0.62972284 1.77382091 0.245853207 -0.773696208 0.758746953 0.245853207 -0.773696208 0.758746953 1.01787789 -0.62972284 1.77382091 0.637099812 -1.28678034 2.08832549 1.48386813 -0.886843199 2.61450032 0.637099812 -1.28678034 2.08832549 1.01787789 -0.62972284 1.77382091 0.637099812 -1.28678034 2.08832549 1.48386813 -0.886843199 2.61450032 1.10825119 -1.49529456 3.70630751 1.97952727 -1.02434938 3.44549447 1.10825119 -1.49529456 3.70630751 1.48386813 -0.886843199 2.61450032 1.97952727 -1.02434938 3.44549447 1.61669125 -1.32762026 5.16140636 2.50204306 -1.0583454 4.24039005 1.61669125 -1.32762026 5.16140636 1.97952727 -1.02434938 3.44549447 2.50204306 -1.0583454 4.24039005 2.17103855 -0.783833202 6.37686793 3.03299062 -1.01884724 4.8899986 2.17103855 -0.783833202 6.37686793 2.50204306 -1.0583454 4.24039005 3.03299062 -1.01884724 4.8899986 2.71666261 -0.010944803 7.03600317 0.202499758 0.221791056 0.385340393 0.590015587 -0.251556089 1.00999401 -0.0862154701 0.00882798462 -0.285842741 0.245853207 -0.773696208 0.758746953 -0.0862154701 0.00882798462 -0.285842741 0.590015587 -0.251556089 1.00999401 -0.0862154701 0.00882798462 -0.285842741 -0.0855239971 -0.102077148 0.577624124 -0.0855239971 -0.102077148 0.577624124 0.126097952 -0.679961759 1.60216587 0.637099812 -1.28678034 2.08832549 0.126097952 -0.679961759 1.60216587 0.245853207 -0.773696208 0.758746953 0.126097952 -0.679961759 1.60216587 0.379657465 -0.989433908 2.91394201 1.10825119 -1.49529456 3.70630751 0.379657465 -0.989433908 2.91394201 0.637099812 -1.28678034 2.08832549 0.379657465 -0.989433908 2.91394201 0.672341886 -0.929282922 4.2958068 1.61669125 -1.32762026 5.16140636 0.672341886 -0.929282922 4.2958068 1.10825119 -1.49529456 3.70630751 0.672341886 -0.929282922 4.2958068 0.987706558 -0.47250833 5.47190931 2.17103855 -0.783833202 6.37686793 0.987706558 -0.47250833 5.47190931 1.61669125 -1.32762026 5.16140636 0.987706558 -0.47250833 5.47190931 1.29767093 0.313921514 6.17298485 2.71666261 -0.010944803 7.03600317 1.29767093 0.313921514 6.17298485 2.17103855 -0.783833202 6.37686793 1.29767093 0.313921514 6.17298485 2.71666261 -0.010944803 7.03600317 1.56810619 1.27263832 6.20830982</float_array>
        <technique_common><accessor source="#vfx_kurp_0248-mesh-positions-array" count="540" stride="3"><param name="X" type="float"/><param name="Y" type="float"/><param name="Z" type="float"/></accessor></technique_common>
      </source>
      <source id="vfx_kurp_0248-mesh-normals">
        <float_array id="vfx_kurp_0248-mesh-normals-array" count="1620">-0.51106202 -0.368715635 -0.776443425 -0.51106202 -0.368715635 -0.776443425 -0.51106202 -0.368715635 -0.776443425 -0.45626076 -0.649585725 -0.608164867 -0.45626076 -0.649585725 -0.608164867 -0.45626076 -0.649585725 -0.608164867 -0.580418519 -0.67064069 -0.461904111 -0.580418554 -0.670640657 -0.461904116 -0.580418588 -0.67064065 -0.461904083 -0.508926905 -0.803296117 -0.309368314 -0.508926941 -0.803296104 -0.309368288 -0.508926941 -0.803296104 -0.309368288 -0.653310521 -0.742323281 -0.148800232 -0.653310521 -0.742323281 -0.148800232 -0.653310521 -0.742323281 -0.148800232 -0.591239739 -0.805363789 -0.0427169583 -0.591239739 -0.805363789 -0.0427169583 -0.591239739 -0.805363789 -0.0427169583 -0.765211796 -0.637593108 0.0890277225 -0.765211813 -0.637593087 0.0890277295 -0.765211813 -0.637593087 0.0890277295 -0.751940108 -0.648123657 0.120506431 -0.751940108 -0.648123657 0.120506431 -0.751940091 -0.648123677 0.120506424 -0.897339624 -0.398434407 0.189819972 -0.897339624 -0.398434407 0.189819972 -0.897339624 -0.398434407 0.189819972 -0.901704277 -0.397080957 0.171044176 -0.901704277 -0.397080957 0.171044176 -0.901704277 -0.397080957 0.171044176 -0.366642605 0.138301429 -0.920024954 -0.366642608 0.138301427 -0.920024952 -0.366642605 0.138301429 -0.920024954 -0.396887766 -0.277767588 -0.874828708 -0.396887778 -0.277767562 -0.874828711 -0.396887766 -0.277767588 -0.874828708 0.584206109 -0.660645622 -0.471434603 0.584206109 -0.660645622 -0.471434603 0.584206109 -0.660645622 -0.471434603 0.0642580231 -0.985792744 -0.15518883 0.0642580373 -0.985792742 -0.155188833 0.064258037 -0.985792742 -0.155188834 -0.601181008 0.521511727 0.60548073 0.525072479 -0.810758623 -0.258784366 0.525072501 -0.810758606 -0.258784371 0.231146416 -0.967808895 0.099585524 0.231146409 -0.967808897 0.0995855259 0.231146416 -0.967808895 0.099585524 0.889179078 0.128218186 0.43922735 0.514293462 -0.857279045 -0.0239765501 0.514293462 -0.857279045 -0.0239765501 0.3849298 -0.868647229 0.311899089 0.384929806 -0.868647209 0.311899135 0.3849298 -0.868647229 0.311899089 0.921937674 0.305798277 0.237735861 0.562125118 -0.806752916 0.182112833 0.562125105 -0.80675293 0.182112812 0.588910316 -0.649060551 0.481565199 0.588910316 -0.649060551 0.481565199 0.588910316 -0.649060551 0.481565199 0.975843094 0.183055956 0.119250884 0.669030977 -0.646341028 0.366934363 0.669030943 -0.646341073 0.366934348 0.76858068 -0.324997016 0.551054152 0.768580697 -0.324997003 0.551054136 0.768580697 -0.324997003 0.551054136 0.99156962 0.0399141982 0.123274267 0.808754643 -0.383079945 0.446279826 0.808754643 -0.383079945 0.446279826 0.902702328 0.102895553 0.417781058 0.902702329 0.10289555 0.417781057 0.902702328 0.102895553 0.417781058 -0.467252722 0.56034268 -0.683879357 -0.467252722 0.56034268 -0.683879357 -0.467252722 0.56034268 -0.683879357 -0.706038819 0.530252398 -0.469405561 -0.706038819 0.530252398 -0.469405561 -0.706038819 0.530252398 -0.469405561 -0.7315805 0.593897056 -0.334777925 -0.7315805 0.593897056 -0.334777925 -0.7315805 0.593897056 -0.334777925 -0.818117527 0.541200973 -0.194384202 -0.818117527 0.541200973 -0.194384202 -0.818117531 0.541200977 -0.194384177 -0.788745742 0.60979127 -0.0776837322 -0.788745742 0.60979127 -0.0776837322 -0.788745742 0.60979127 -0.0776837322 -0.824808841 0.565355934 0.00794000323 -0.824808841 0.565355934 0.00794000323 -0.824808841 0.565355934 0.00794000323 -0.743304114 0.662391929 0.0934661724 -0.743304114 0.662391929 0.0934661724 -0.743304114 0.662391929 0.0934661724 -0.749400162 0.651470804 0.118258992 -0.749400162 0.651470804 0.118258992 -0.749400162 0.651470804 0.118258992 -0.616419377 0.769604385 0.166542017 -0.6164194 0.769604367 0.166542008 -0.616419397 0.769604367 0.166542022 -0.615059909 0.773985193 0.150493291 -0.615059909 0.773985193 0.150493291 -0.615059909 0.773985193 0.150493291 0.128612934 0.355245236 -0.925883111 0.12861296 0.355245239 -0.925883106 0.128612936 0.355245229 -0.925883114 -0.35036335 0.470333482 -0.809957985 -0.350363347 0.47033344 -0.809958011 -0.350363352 0.470333482 -0.809957985 -0.760056514 -0.405462735 -0.507852406 -0.760056514 -0.405462735 -0.507852406 -0.760056538 -0.405462735 -0.50785237 -0.979629126 0.192908498 -0.05579504 -0.979629126 0.192908498 -0.05579504 -0.979629122 0.192908524 -0.0557950334 0.592637237 0.45660789 0.663543774 -0.940063921 -0.276507052 -0.199558702 -0.940063917 -0.276507045 -0.199558727 -0.983640959 0.0442627889 0.174617496 -0.983640959 0.0442627889 0.174617496 -0.983640961 0.044262761 0.174617492 -0.0588922888 -0.89427183 0.443632271 -0.964380272 -0.253285215 0.0762711718 -0.96438027 -0.253285218 0.076271186 -0.912855634 -0.128623888 0.387492564 -0.912855637 -0.128623887 0.387492558 -0.912855634 -0.128623888 0.387492564 0.293527627 -0.911625596 0.287715666 -0.895075625 -0.33118274 0.29859273 -0.895075625 -0.33118274 0.29859273 -0.68641576 -0.41748916 0.59542943 -0.686415745 -0.417489152 0.595429453 -0.686415745 -0.417489152 0.595429453 0.259336456 -0.938384391 0.228427968 -0.691091455 -0.517047863 0.505028819 -0.691091471 -0.517047865 0.505028796 -0.236789346 -0.71089753 0.662235235 -0.236789356 -0.710897512 0.662235251 -0.236789346 -0.71089753 0.662235235 0.195944466 -0.947185426 0.253861252 -0.304537156 -0.7565464 0.578700843 -0.304537156 -0.7565464 0.578700843 0.324513255 -0.846873874 0.421302491 0.324513255 -0.846873874 0.421302491 0.324513252 -0.846873875 0.421302492 0.467843861 -0.43105192 -0.771567472 0.467843894 -0.431051941 -0.77156744 0.467843894 -0.431051941 -0.77156744 0.658388921 -0.434083211 -0.614894946 0.658388934 -0.434083172 -0.614894959 0.658388906 -0.434083203 -0.614894968 0.69712351 -0.513814815 -0.500013147 0.697123517 -0.513814818 -0.500013135 0.69712351 -0.513814815 -0.500013147 0.789576439 -0.493810892 -0.364307355 0.789576438 -0.493810892 -0.364307358 0.789576459 -0.493810857 -0.364307359 0.779223354 -0.583405904 -0.22901641 0.779223378 -0.583405866 -0.229016424 0.779223352 -0.583405904 -0.229016417 0.821396342 -0.556612478 -0.124461232 0.82139632 -0.55661251 -0.124461238 0.821396318 -0.55661251 -0.124461252 0.743146786 -0.669127997 -0.00076078686 0.743146769 -0.669128015 -0.000760779141 0.743146786 -0.669127997 -0.00076078686 0.748821361 -0.661935682 0.0332824573 0.748821361 -0.661935682 0.0332824573 0.748821345 -0.6619357 0.0332824655 0.605937598 -0.786849167 0.11708124 0.6059376 -0.786849161 0.117081267 0.605937598 -0.786849167 0.11708124 0.606438203 -0.789513876 0.0943427021 0.606438203 -0.789513876 0.0943427021 0.606438182 -0.789513892 0.0943427107 0.0513556498 -0.28069327 -0.958422603 0.0513556498 -0.28069327 -0.958422603 0.0513556498 -0.28069327 -0.958422603 0.383796869 -0.351043408 -0.854089275 0.383796869 -0.351043408 -0.854089275 0.383796869 -0.351043408 -0.854089275 0.703180049 0.31835431 -0.635758092 0.70318005 0.31835431 -0.635758092 0.70318005 0.31835431 -0.635758092 0.958990836 -0.185882065 -0.213972973 0.958990838 -0.185882066 -0.213972966 0.958990838 -0.185882066 -0.213972966 -0.47727391 -0.349484939 0.806269119 0.898971557 0.246540013 -0.362033372 0.898971554 0.246540014 -0.362033379 0.994076205 -0.0440211297 0.0993712153 0.994076205 -0.0440211297 0.0993712153 0.994076206 -0.0440211017 0.099371222 0.430960961 0.782781306 0.448916559 0.966482674 0.255348442 -0.0266160594 0.966482675 0.25534844 -0.0266160452 0.89264216 0.14188824 0.42785243 0.892642175 0.141888251 0.427852396 0.892642175 0.141888251 0.427852396 0.121531904 0.860487116 0.49476451 0.884740083 0.351977484 0.305527145 0.884740083 0.351977484 0.305527145 0.557122632 0.418428156 0.717309035 0.557122632 0.418428156 0.717309035 0.557122632 0.418428156 0.717309035 -0.0485867138 0.875760121 0.480295264 0.59243218 0.525513351 0.610622494 0.592432164 0.525513372 0.610622491 0.0839735961 0.624496601 0.776500116 0.0839735927 0.6244966 0.776500118 0.0839735961 0.624496601 0.776500116 -0.217151739 0.888434635 0.404387217 0.165994508 0.693462722 0.701110032 0.165994496 0.693462755 0.701110002 -0.36468805 0.740117271 0.565003585 -0.36468805 0.740117271 0.565003585 -0.36468805 0.740117271 0.565003585 0.623962971 0.368426999 -0.689152928 0.623962971 0.368426999 -0.689152928 0.623962971 0.368426999 -0.689152928 0.573868283 0.617460135 -0.537975999 0.573868283 0.617460135 -0.537975999 0.573868283 0.617460135 -0.537975999 0.651501598 0.631744524 -0.420053001 0.651501612 0.631744503 -0.420053011 0.651501612 0.631744503 -0.420053011 0.58633702 0.755628132 -0.29195038 0.586336988 0.755628166 -0.291950359 0.586336994 0.755628166 -0.291950345 0.683102291 0.708912058 -0.175541888 0.683102291 0.708912058 -0.175541888 0.683102291 0.708912058 -0.175541888 0.627698679 0.7740153 -0.0830342357 0.627698679 0.7740153 -0.083034234 0.627698679 0.7740153 -0.0830342357 0.762904964 0.646490896 0.00505354404 0.762904961 0.646490899 0.00505352997 0.762904964 0.646490896 0.00505354404 0.751149093 0.659287948 0.0333832505 0.751149076 0.659287968 0.033383256 0.751149093 0.659287948 0.0333832505 0.886086441 0.457415687 0.0749780508 0.886086448 0.457415675 0.0749780481 0.886086441 0.457415687 0.0749780508 0.889038069 0.454192295 0.0576252629 0.889038062 0.454192308 0.0576252657 0.889038056 0.454192321 0.0576252684 0.498235427 -0.108848118 -0.860182275 0.498235427 -0.108848118 -0.860182275 0.498235427 -0.108848118 -0.860182275 0.54488168 0.287189167 -0.787798412 0.54488168 0.287189167 -0.787798412 0.54488168 0.287189168 -0.787798412 -0.529765344 0.734971658 -0.423279272 -0.529765344 0.734971658 -0.423279272 -0.529765344 0.734971658 -0.423279272 0.0689740621 0.990778983 -0.11661726 0.0689740668 0.990778984 -0.116617246 0.0689740668 0.990778984 -0.116617246 0.549627839 -0.651930359 0.522394531 -0.45492916 0.871631666 -0.182476567 -0.454929173 0.871631661 -0.182476563 -0.150880813 0.978440974 0.141025676 -0.150880806 0.978440975 0.141025674 -0.150880806 0.978440975 0.141025674 -0.88578989 -0.139717605 0.442555377 -0.460943933 0.88546388 0.0590288737 -0.46094392 0.885463887 0.05902887 -0.359232696 0.862285263 0.356953772 -0.359232693 0.862285261 0.356953779 -0.359232693 0.862285261 0.356953779 -0.903579158 -0.317503218 0.287639378 -0.539861143 0.800474713 0.260365473 -0.539861121 0.80047473 0.260365468 -0.607004587 0.600772748 0.520209128 -0.60700458 0.600772744 0.52020914 -0.607004587 0.600772748 0.520209128 -0.95247986 -0.218900406 0.211812957 -0.676627739 0.597854922 0.429819027 -0.676627739 0.597854922 0.429819027 -0.787729233 0.247851417 0.563961285 -0.787729233 0.247851417 0.563961285 -0.787729216 0.247851446 0.563961296 -0.969352885 -0.102047346 0.223475556 -0.818033303 0.304355113 0.488046596 -0.818033303 0.304355113 0.488046596 -0.888130092 -0.157135472 0.431895108 -0.888130093 -0.157135457 0.43189511 -0.888130093 -0.157135457 0.43189511 -0.76858068 0.324997016 -0.551054152 -0.768580697 0.324997003 -0.551054136 0.0766620737 0.697886159 -0.71209398 -0.669030943 0.646341073 -0.366934348 -0.669030977 0.646341028 -0.366934363 -0.66903095 0.646341026 -0.366934417 -0.588910316 0.649060551 -0.481565199 -0.588910316 0.649060551 -0.481565199 -0.588910316 0.649060551 -0.481565199 -0.562125105 0.80675293 -0.182112812 -0.562125118 0.806752916 -0.182112833 -0.532593788 0.84526966 -0.0431631601 -0.3849298 0.868647229 -0.311899089 -0.384929806 0.868647209 -0.311899135 -0.3849298 0.868647229 -0.311899089 -0.514293462 0.857279045 0.0239765501 -0.525039391 0.829416943 0.190790914 -0.231146416 0.967808895 -0.099585524 -0.231146409 0.967808897 -0.0995855259 -0.231146416 0.967808895 -0.099585524 -0.525072479 0.810758623 0.258784366 0.039457086 0.729643904 0.682688004 -0.064258037 0.985792742 0.155188834 -0.0642580373 0.985792742 0.155188833 -0.0642580231 0.985792744 0.15518883 -0.584206109 0.660645622 0.471434603 -0.584206109 0.660645622 0.471434603 -0.902702328 -0.102895553 -0.417781058 -0.902702328 -0.102895553 -0.417781058 -0.902702329 -0.10289555 -0.417781057 -0.808754643 0.383079945 -0.446279826 -0.808754643 0.383079945 -0.446279826 -0.808754643 0.383079945 -0.446279826 0.901704277 0.397080957 -0.171044176 0.901704277 0.397080957 -0.171044176 0.897339624 0.398434407 -0.189819972 0.897339624 0.398434407 -0.189819972 0.751940091 0.648123677 -0.120506424 0.751940108 0.648123657 -0.120506431 0.751940108 0.648123657 -0.120506431 0.765211813 0.637593087 -0.0890277295 0.765211796 0.637593108 -0.0890277225 0.591239739 0.805363789 0.0427169583 0.591239739 0.805363789 0.0427169583 0.591239739 0.805363789 0.0427169583 0.653310521 0.742323281 0.148800232 0.653310521 0.742323281 0.148800232 0.508926941 0.803296104 0.309368288 0.508926941 0.803296104 0.309368288 0.508926905 0.803296117 0.309368314 0.580418588 0.67064065 0.461904083 0.580418519 0.67064069 0.461904111 0.45626076 0.649585725 0.608164867 0.45626076 0.649585725 0.608164867 0.45626076 0.649585725 0.608164867 0.51106202 0.368715635 0.776443425 0.51106202 0.368715635 0.776443425 0.396887778 0.277767562 0.874828711 0.396887766 0.277767588 0.874828708 0.396887766 0.277767588 0.874828708 0.366642608 -0.138301427 0.920024952 0.366642605 -0.138301429 0.920024954 0.366642605 -0.138301429 0.920024954 0.236789346 0.71089753 -0.662235235 0.236789346 0.71089753 -0.662235235 0.627641961 0.206802756 -0.750531938 0.691091471 0.517047865 -0.505028796 0.691091455 0.517047863 -0.505028819 0.691091455 0.517047863 -0.505028819 0.686415745 0.417489152 -0.595429453 0.686415745 0.417489152 -0.595429453 0.68641576 0.41748916 -0.59542943 0.895075625 0.33118274 -0.29859273 0.895075625 0.33118274 -0.29859273 0.949647582 0.278384558 -0.143775896 0.912855634 0.128623888 -0.387492564 0.912855637 0.128623887 -0.387492558 0.912855634 0.128623888 -0.387492564 0.964380272 0.253285215 -0.0762711718 0.953654226 0.272432155 0.127766734 0.983640961 -0.044262761 -0.174617492 0.983640959 -0.0442627889 -0.174617496 0.983640959 -0.0442627889 -0.174617496 0.940063921 0.276507052 0.199558702 0.875181653 -0.0884866822 0.475633453 0.979629122 -0.192908524 0.0557950334 0.979629126 -0.192908498 0.05579504 0.979629126 -0.192908498 0.05579504 0.760056514 0.405462735 0.507852406 0.760056538 0.405462735 0.50785237 -0.324513255 0.846873874 -0.421302491 -0.324513252 0.846873875 -0.421302492 -0.324513255 0.846873874 -0.421302491 0.304537156 0.7565464 -0.578700843 0.304537156 0.7565464 -0.578700843 0.304537156 0.7565464 -0.578700843 0.615059909 -0.773985193 -0.150493291 0.615059909 -0.773985193 -0.150493291 0.616419397 -0.769604367 -0.166542022 0.616419377 -0.769604385 -0.166542017 0.749400162 -0.651470804 -0.118258992 0.749400162 -0.651470804 -0.118258992 0.749400162 -0.651470804 -0.118258992 0.743304114 -0.662391929 -0.0934661724 0.743304114 -0.662391929 -0.0934661724 0.824808841 -0.565355934 -0.00794000323 0.824808841 -0.565355934 -0.00794000323 0.824808841 -0.565355934 -0.00794000323 0.788745742 -0.60979127 0.0776837322 0.788745742 -0.60979127 0.0776837322 0.818117531 -0.541200977 0.194384177 0.818117527 -0.541200973 0.194384202 0.818117527 -0.541200973 0.194384202 0.7315805 -0.593897056 0.334777925 0.7315805 -0.593897056 0.334777925 0.706038819 -0.530252398 0.469405561 0.706038819 -0.530252398 0.469405561 0.706038819 -0.530252398 0.469405561 0.467252722 -0.56034268 0.683879357 0.467252722 -0.56034268 0.683879357 0.350363347 -0.47033344 0.809958011 0.35036335 -0.470333482 0.809957985 0.350363352 -0.470333482 0.809957985 -0.12861296 -0.355245239 0.925883106 -0.128612934 -0.355245236 0.925883111 -0.128612936 -0.355245229 0.925883114 -0.0839735961 -0.624496601 -0.776500116 -0.0839735961 -0.624496601 -0.776500116 -0.518969635 -0.0659414264 -0.852245414 -0.592432164 -0.525513372 -0.610622491 -0.59243218 -0.525513351 -0.610622494 -0.592432195 -0.525513331 -0.610622497 -0.557122632 -0.418428156 -0.717309035 -0.557122632 -0.418428156 -0.717309035 -0.557122632 -0.418428156 -0.717309035 -0.884740083 -0.351977484 -0.305527145 -0.884740083 -0.351977484 -0.305527145 -0.946689631 -0.300794512 -0.115331716 -0.892642175 -0.141888251 -0.427852396 -0.892642175 -0.141888251 -0.427852396 -0.89264216 -0.14188824 -0.42785243 -0.966482674 -0.255348442 0.0266160594 -0.935268383 -0.253036589 0.247478354 -0.994076206 0.0440211017 -0.099371222 -0.994076205 0.0440211297 -0.0993712153 -0.994076205 0.0440211297 -0.0993712153 -0.898971557 -0.246540013 0.362033372 -0.810213235 0.0264692895 0.585537267 -0.958990838 0.185882066 0.213972966 -0.958990838 0.185882066 0.213972966 -0.958990836 0.185882065 0.213972973 -0.703180049 -0.31835431 0.635758092 -0.70318005 -0.31835431 0.635758092 0.36468805 -0.740117271 -0.565003585 0.36468805 -0.740117271 -0.565003585 0.36468805 -0.740117271 -0.565003585 -0.165994496 -0.693462755 -0.701110002 -0.165994496 -0.693462755 -0.701110002 -0.165994508 -0.693462722 -0.701110032 -0.606438203 0.789513876 -0.0943427021 -0.606438203 0.789513876 -0.0943427021 -0.605937598 0.786849167 -0.11708124 -0.605937598 0.786849167 -0.11708124 -0.748821345 0.6619357 -0.0332824655 -0.748821361 0.661935682 -0.0332824573 -0.748821361 0.661935682 -0.0332824573 -0.743146786 0.669127997 0.00076078686 -0.743146786 0.669127997 0.00076078686 -0.821396318 0.55661251 0.124461252 -0.82139632 0.55661251 0.124461238 -0.821396342 0.556612478 0.124461232 -0.779223352 0.583405904 0.229016417 -0.779223354 0.583405904 0.22901641 -0.789576459 0.493810857 0.364307359 -0.789576438 0.493810892 0.364307358 -0.789576439 0.493810892 0.364307355 -0.69712351 0.513814815 0.500013147 -0.69712351 0.513814815 0.500013147 -0.658388906 0.434083203 0.614894968 -0.658388934 0.434083172 0.614894959 -0.658388921 0.434083211 0.614894946 -0.467843894 0.431051941 0.77156744 -0.467843861 0.43105192 0.771567472 -0.383796869 0.351043408 0.854089275 -0.383796869 0.351043408 0.854089275 -0.383796869 0.351043408 0.854089275 -0.0513556498 0.28069327 0.958422603 -0.0513556498 0.28069327 0.958422603 -0.0513556498 0.28069327 0.958422603 0.787729233 -0.247851417 -0.563961285 0.787729216 -0.247851446 -0.563961296 0.0837342831 -0.706257461 -0.702985753 0.676627739 -0.597854922 -0.429819027 0.676627739 -0.597854922 -0.429819027 0.676627739 -0.597854922 -0.429819027 0.607004587 -0.600772748 -0.520209128 0.60700458 -0.600772744 -0.52020914 0.607004587 -0.600772748 -0.520209128 0.539861121 -0.80047473 -0.260365468 0.539861143 -0.800474713 -0.260365473 0.488759522 -0.863644938 -0.123416173 0.359232693 -0.862285261 -0.356953779 0.359232693 -0.862285261 -0.356953779 0.359232696 -0.862285263 -0.356953772 0.460943933 -0.88546388 -0.0590288737 0.458960602 -0.879936227 0.122749352 0.150880806 -0.978440975 -0.141025674 0.150880806 -0.978440975 -0.141025674 0.150880813 -0.978440974 -0.141025676 0.45492916 -0.871631666 0.182476567 -0.184423778 -0.775339344 0.604017195 -0.0689740668 -0.990778984 0.116617246 -0.0689740668 -0.990778984 0.116617246 -0.0689740621 -0.990778983 0.11661726 0.529765344 -0.734971658 0.423279272 0.529765344 -0.734971658 0.423279272 0.888130092 0.157135472 -0.431895108 0.888130093 0.157135457 -0.43189511 0.888130093 0.157135457 -0.43189511 0.818033303 -0.304355113 -0.488046596 0.818033303 -0.304355113 -0.488046596 0.818033303 -0.304355113 -0.488046596 -0.889038069 -0.454192295 -0.0576252629 -0.889038062 -0.454192308 -0.0576252657 -0.886086441 -0.457415687 -0.0749780508 -0.886086441 -0.457415687 -0.0749780508 -0.751149093 -0.659287948 -0.0333832505 -0.751149076 -0.659287968 -0.033383256 -0.751149093 -0.659287948 -0.0333832505 -0.762904964 -0.646490896 -0.00505354404 -0.762904964 -0.646490896 -0.00505354404 -0.627698679 -0.7740153 0.0830342357 -0.627698679 -0.7740153 0.083034234 -0.627698679 -0.7740153 0.0830342357 -0.683102291 -0.708912058 0.175541888 -0.683102291 -0.708912058 0.175541888 -0.586336994 -0.755628166 0.291950345 -0.586336988 -0.755628166 0.291950359 -0.58633702 -0.755628132 0.29195038 -0.651501612 -0.631744503 0.420053011 -0.651501598 -0.631744524 0.420053001 -0.573868283 -0.617460135 0.537975999 -0.573868283 -0.617460135 0.537975999 -0.573868283 -0.617460135 0.537975999 -0.623962971 -0.368426999 0.689152928 -0.623962971 -0.368426999 0.689152928 -0.54488168 -0.287189167 0.787798412 -0.54488168 -0.287189167 0.787798412 -0.54488168 -0.287189168 0.787798412 -0.498235427 0.108848118 0.860182275 -0.498235427 0.108848118 0.860182275 -0.498235427 0.108848118 0.860182275</float_array>
        <technique_common><accessor source="#vfx_kurp_0248-mesh-normals-array" count="540" stride="3"><param name="X" type="float"/><param name="Y" type="float"/><param name="Z" type="float"/></accessor></technique_common>
      </source>
      <source id="vfx_kurp_0248-mesh-uv0">
        <float_array id="vfx_kurp_0248-mesh-uv0-array" count="1080">1 0.833333313 0.5 0.833333313 1 0.666666627 0.5 0.666666627 1 0.666666627 0.5 0.833333313 1 0.666666627 0.5 0.666666627 1 0.5 0.5 0.5 1 0.5 0.5 0.666666627 1 0.5 0.5 0.5 1 0.333333313 0.5 0.333333313 1 0.333333313 0.5 0.5 1 0.333333313 0.5 0.333333313 1 0.166666627 0.5 0.166666627 1 0.166666627 0.5 0.333333313 1 0.166666627 0.5 0.166666627 1 0 0.5 0 1 0 0.5 0.166666627 0.5 1 1 0.833333313 1 1 1 0.833333313 0.5 1 0.5 0.833333313 0 1 0.5 0.833333313 0.5 1 0 0.833333313 0.5 0.833333313 0 1 0.5 0.833333313 0 0.833333313 0.5 0.666666627 0 0.666666627 0.5 0.666666627 0 0.833333313 0.5 0.666666627 0 0.666666627 0.5 0.5 0 0.5 0.5 0.5 0 0.666666627 0.5 0.5 0 0.5 0.5 0.333333313 0 0.333333313 0.5 0.333333313 0 0.5 0.5 0.333333313 0 0.333333313 0.5 0.166666627 0 0.166666627 0.5 0.166666627 0 0.333333313 0.5 0.166666627 0 0.166666627 0.5 0 0 0 0.5 0 0 0.166666627 1 0.833333313 0.5 0.833333313 1 0.666666627 0.5 0.666666627 1 0.666666627 0.5 0.833333313 1 0.666666627 0.5 0.666666627 1 0.5 0.5 0.5 1 0.5 0.5 0.666666627 1 0.5 0.5 0.5 1 0.333333313 0.5 0.333333313 1 0.333333313 0.5 0.5 1 0.333333313 0.5 0.333333313 1 0.166666627 0.5 0.166666627 1 0.166666627 0.5 0.333333313 1 0.166666627 0.5 0.166666627 1 0 0.5 0 1 0 0.5 0.166666627 0.5 1 1 0.833333313 1 1 1 0.833333313 0.5 1 0.5 0.833333313 0 1 0.5 0.833333313 0.5 1 0 0.833333313 0.5 0.833333313 0 1 0.5 0.833333313 0 0.833333313 0.5 0.666666627 0 0.666666627 0.5 0.666666627 0 0.833333313 0.5 0.666666627 0 0.666666627 0.5 0.5 0 0.5 0.5 0.5 0 0.666666627 0.5 0.5 0 0.5 0.5 0.333333313 0 0.333333313 0.5 0.333333313 0 0.5 0.5 0.333333313 0 0.333333313 0.5 0.166666627 0 0.166666627 0.5 0.166666627 0 0.333333313 0.5 0.166666627 0 0.166666627 0.5 0 0 0 0.5 0 0 0.166666627 1 0.833333313 0.5 0.833333313 1 0.666666627 0.5 0.666666627 1 0.666666627 0.5 0.833333313 1 0.666666627 0.5 0.666666627 1 0.5 0.5 0.5 1 0.5 0.5 0.666666627 1 0.5 0.5 0.5 1 0.333333313 0.5 0.333333313 1 0.333333313 0.5 0.5 1 0.333333313 0.5 0.333333313 1 0.166666627 0.5 0.166666627 1 0.166666627 0.5 0.333333313 1 0.166666627 0.5 0.166666627 1 0 0.5 0 1 0 0.5 0.166666627 0.5 1 1 0.833333313 1 1 1 0.833333313 0.5 1 0.5 0.833333313 0 1 0.5 0.833333313 0.5 1 0 0.833333313 0.5 0.833333313 0 1 0.5 0.833333313 0 0.833333313 0.5 0.666666627 0 0.666666627 0.5 0.666666627 0 0.833333313 0.5 0.666666627 0 0.666666627 0.5 0.5 0 0.5 0.5 0.5 0 0.666666627 0.5 0.5 0 0.5 0.5 0.333333313 0 0.333333313 0.5 0.333333313 0 0.5 0.5 0.333333313 0 0.333333313 0.5 0.166666627 0 0.166666627 0.5 0.166666627 0 0.333333313 0.5 0.166666627 0 0.166666627 0.5 0 0 0 0.5 0 0 0.166666627 1 0.833333313 0.5 0.833333313 1 0.666666627 0.5 0.666666627 1 0.666666627 0.5 0.833333313 1 0.666666627 0.5 0.666666627 1 0.5 0.5 0.5 1 0.5 0.5 0.666666627 1 0.5 0.5 0.5 1 0.333333313 0.5 0.333333313 1 0.333333313 0.5 0.5 1 0.333333313 0.5 0.333333313 1 0.166666627 0.5 0.166666627 1 0.166666627 0.5 0.333333313 1 0.166666627 0.5 0.166666627 1 0 0.5 0 1 0 0.5 0.166666627 0.5 1 1 0.833333313 1 1 1 0.833333313 0.5 1 0.5 0.833333313 0 1 0.5 0.833333313 0.5 1 0 0.833333313 0.5 0.833333313 0 1 0.5 0.833333313 0 0.833333313 0.5 0.666666627 0 0.666666627 0.5 0.666666627 0 0.833333313 0.5 0.666666627 0 0.666666627 0.5 0.5 0 0.5 0.5 0.5 0 0.666666627 0.5 0.5 0 0.5 0.5 0.333333313 0 0.333333313 0.5 0.333333313 0 0.5 0.5 0.333333313 0 0.333333313 0.5 0.166666627 0 0.166666627 0.5 0.166666627 0 0.333333313 0.5 0.166666627 0 0.166666627 0.5 0 0 0 0.5 0 0 0.166666627 0 0.166666627 0 0.333333313 0.5 0.166666627 0.5 0.166666627 0 0.333333313 0.5 0.333333313 0 0.5 0.5 0.333333313 0 0.333333313 0.5 0.333333313 0 0.5 0.5 0.5 0 0.666666627 0.5 0.5 0 0.5 0 0.666666627 0.5 0.666666627 0 0.833333313 0.5 0.666666627 0 0.666666627 0 0.833333313 0.5 0.833333313 0 1 0.5 0.833333313 0 0.833333313 0 1 0.5 1 0 0 0 0.166666627 0.5 0 0.5 0.166666627 0.5 0 0 0.166666627 0.5 0 1 0 1 0 1 0.166666627 0.5 0.333333313 1 0.166666627 0.5 0.166666627 1 0.166666627 1 0.333333313 0.5 0.5 1 0.333333313 0.5 0.333333313 1 0.333333313 1 0.5 0.5 0.666666627 1 0.5 0.5 0.5 1 0.5 1 0.666666627 0.5 0.833333313 1 0.666666627 0.5 0.666666627 1 0.666666627 1 0.833333313 0.5 1 1 0.833333313 0.5 0.833333313 1 0.833333313 0.5 1 1 1 0 0.166666627 0 0.333333313 0.5 0.166666627 0.5 0.166666627 0 0.333333313 0.5 0.333333313 0 0.5 0.5 0.333333313 0 0.333333313 0.5 0.333333313 0 0.5 0.5 0.5 0 0.666666627 0.5 0.5 0 0.5 0 0.666666627 0.5 0.666666627 0 0.833333313 0.5 0.666666627 0 0.666666627 0 0.833333313 0.5 0.833333313 0 1 0.5 0.833333313 0 0.833333313 0 1 0.5 1 0 0 0 0.166666627 0.5 0 0.5 0.166666627 0.5 0 0 0.166666627 0.5 0 1 0 1 0 1 0.166666627 0.5 0.333333313 1 0.166666627 0.5 0.166666627 1 0.166666627 1 0.333333313 0.5 0.5 1 0.333333313 0.5 0.333333313 1 0.333333313 1 0.5 0.5 0.666666627 1 0.5 0.5 0.5 1 0.5 1 0.666666627 0.5 0.833333313 1 0.666666627 0.5 0.666666627 1 0.666666627 1 0.833333313 0.5 1 1 0.833333313 0.5 0.833333313 1 0.833333313 0.5 1 1 1 0 0.166666627 0 0.333333313 0.5 0.166666627 0.5 0.166666627 0 0.333333313 0.5 0.333333313 0 0.5 0.5 0.333333313 0 0.333333313 0.5 0.333333313 0 0.5 0.5 0.5 0 0.666666627 0.5 0.5 0 0.5 0 0.666666627 0.5 0.666666627 0 0.833333313 0.5 0.666666627 0 0.666666627 0 0.833333313 0.5 0.833333313 0 1 0.5 0.833333313 0 0.833333313 0 1 0.5 1 0 0 0 0.166666627 0.5 0 0.5 0.166666627 0.5 0 0 0.166666627 0.5 0 1 0 1 0 1 0.166666627 0.5 0.333333313 1 0.166666627 0.5 0.166666627 1 0.166666627 1 0.333333313 0.5 0.5 1 0.333333313 0.5 0.333333313 1 0.333333313 1 0.5 0.5 0.666666627 1 0.5 0.5 0.5 1 0.5 1 0.666666627 0.5 0.833333313 1 0.666666627 0.5 0.666666627 1 0.666666627 1 0.833333313 0.5 1 1 0.833333313 0.5 0.833333313 1 0.833333313 0.5 1 1 1 0 0.166666627 0 0.333333313 0.5 0.166666627 0.5 0.166666627 0 0.333333313 0.5 0.333333313 0 0.5 0.5 0.333333313 0 0.333333313 0.5 0.333333313 0 0.5 0.5 0.5 0 0.666666627 0.5 0.5 0 0.5 0 0.666666627 0.5 0.666666627 0 0.833333313 0.5 0.666666627 0 0.666666627 0 0.833333313 0.5 0.833333313 0 1 0.5 0.833333313 0 0.833333313 0 1 0.5 1 0 0 0 0.166666627 0.5 0 0.5 0.166666627 0.5 0 0 0.166666627 0.5 0 1 0 1 0 1 0.166666627 0.5 0.333333313 1 0.166666627 0.5 0.166666627 1 0.166666627 1 0.333333313 0.5 0.5 1 0.333333313 0.5 0.333333313 1 0.333333313 1 0.5 0.5 0.666666627 1 0.5 0.5 0.5 1 0.5 1 0.666666627 0.5 0.833333313 1 0.666666627 0.5 0.666666627 1 0.666666627 1 0.833333313 0.5 1 1 0.833333313 0.5 0.833333313 1 0.833333313 0.5 1 1 1</float_array>
        <technique_common><accessor source="#vfx_kurp_0248-mesh-uv0-array" count="540" stride="2"><param name="S" type="float"/><param name="T" type="float"/></accessor></technique_common>
      </source>
      <source id="vfx_kurp_0248-mesh-colors">
        <float_array id="vfx_kurp_0248-mesh-colors-array" count="2160">0.152941182 0.152941182 0.152941182 0 0.152941182 0.152941182 0.152941182 1 0.152941182 0.152941182 0.152941182 0 0.152941182 0.152941182 0.152941182 1 0.152941182 0.152941182 0.152941182 0 0.152941182 0.152941182 0.152941182 1 0.152941182 0.152941182 0.152941182 0 0.152941182 0.152941182 0.152941182 1 0.152941182 0.152941182 0.152941182 0 0.152941182 0.152941182 0.152941182 1 0.152941182 0.152941182 0.152941182 0 0.152941182 0.152941182 0.152941182 1 0.152941182 0.152941182 0.152941182 0 0.152941182 0.152941182 0.152941182 1 0.152941182 0.152941182 0.152941182 0 0.152941182 0.152941182 0.152941182 1 0.152941182 0.152941182 0.152941182 0 0.152941182 0.152941182 0.152941182 1 0.152941182 0.152941182 0.152941182 0 0.152941182 0.152941182 0.152941182 1 0.152941182 0.152941182 0.152941182 0 0.152941182 0.152941182 0.152941182 1 0.152941182 0.152941182 0.152941182 0 0.152941182 0.152941182 0.152941182 1 0.152941182 0.152941182 0.152941182 0 0.152941182 0.152941182 0.152941182 1 0.152941182 0.152941182 0.152941182 0 0.152941182 0.152941182 0.152941182 0 0.152941182 0.152941182 0.152941182 0 0.152941182 0.152941182 0.152941182 1 0.152941182 0.152941182 0.152941182 0 0.152941182 0.152941182 0.152941182 0 0.152941182 0.152941182 0.152941182 0 0.152941182 0.152941182 0.152941182 0 0.152941182 0.152941182 0.152941182 0 0.152941182 0.152941182 0.152941182 1 0.152941182 0.152941182 0.152941182 0 0.152941182 0.152941182 0.152941182 1 0.152941182 0.152941182 0.152941182 0 0.152941182 0.152941182 0.152941182 0 0.152941182 0.152941182 0.152941182 1 0.152941182 0.152941182 0.152941182 0 0.152941182 0.152941182 0.152941182 1 0.152941182 0.152941182 0.152941182 0 0.152941182 0.152941182 0.152941182 1 0.152941182 0.152941182 0.152941182 0 0.152941182 0.152941182 0.152941182 1 0.152941182 0.152941182 0.152941182 0 0.152941182 0.152941182 0.152941182 1 0.152941182 0.152941182 0.152941182 0 0.152941182 0.152941182 0.152941182 1 0.152941182 0.152941182 0.152941182 0 0.152941182 0.152941182 0.152941182 1 0.152941182 0.152941182 0.152941182 0 0.152941182 0.152941182 0.152941182 1 0.152941182 0.152941182 0.152941182 0 0.152941182 0.152941182 0.152941182 1 0.152941182 0.152941182 0.152941182 0 0.152941182 0.152941182 0.152941182 1 0.152941182 0.152941182 0.152941182 0 0.152941182 0.152941182 0.152941182 1 0.152941182 0.152941182 0.152941182 0 0.152941182 0.152941182 0.152941182 1 0.152941182 0.152941182 0.152941182 0 0.152941182 0.152941182 0.152941182 1 0.152941182 0.152941182 0.152941182 0 0.152941182 0.152941182 0.152941182 1 0.152941182 0.152941182 0.152941182 0 0.152941182 0.152941182 0.152941182 0 0.152941182 0.152941182 0.152941182 0 0.152941182 0.152941182 0.152941182 0 0.152941182 0.152941182 0.152941182 0 0.152941182 0.152941182 0.152941182 0 0.152941182 0.152941182 0.152941182 1 0.152941182 0.152941182 0.152941182 0 0.152941182 0.152941182 0.152941182 1 0.152941182 0.152941182 0.152941182 0 0.152941182 0.152941182 0.152941182 1 0.152941182 0.152941182 0.152941182 0 0.152941182 0.152941182 0.152941182 1 0.152941182 0.152941182 0.152941182 0 0.152941182 0.152941182 0.152941182 1 0.152941182 0.152941182 0.152941182 0 0.152941182 0.152941182 0.152941182 1 0.152941182 0.152941182 0.152941182 0 0.152941182 0.152941182 0.152941182 1 0.152941182 0.152941182 0.152941182 0 0.152941182 0.152941182 0.152941182 1 0.152941182 0.152941182 0.152941182 0 0.152941182 0.152941182 0.152941182 1 0.152941182 0.152941182 0.152941182 0 0.152941182 0.152941182 0.152941182 1 0.152941182 0.152941182 0.152941182 0 0.152941182 0.152941182 0.152941182 1 0.152941182 0.152941182 0.152941182 0 0.152941182 0.152941182 0.152941182 1 0.152941182 0.152941182 0.152941182 0 0.152941182 0.152941182 0.152941182 1 0.152941182 0.152941182 0.152941182 0 0.152941182 0.152941182 0.152941182 0 0.152941182 0.152941182 0.152941182 0 0.152941182 0.152941182 0.152941182 1 0.152941182 0.152941182 0.152941182 0 0.152941182 0.152941182 0.152941182 0 0.152941182 0.152941182 0.152941182 0 0.152941182 0.152941182 0.152941182 0 0.152941182 0.152941182 0.152941182 0 0.152941182 0.152941182 0.152941182 1 0.152941182 0.152941182 0.152941182 0 0.152941182 0.152941182 0.152941182 1 0.152941182 0.152941182 0.152941182 0 0.152941182 0.152941182 0.152941182 0 0.152941182 0.152941182 0.152941182 1 0.152941182 0.152941182 0.152941182 0 0.152941182 0.152941182 0.152941182 1 0.152941182 0.152941182 0.152941182 0 0.152941182 0.152941182 0.152941182 1 0.152941182 0.152941182 0.152941182 0 0.152941182 0.152941182 0.152941182 1 0.152941182 0.152941182 0.152941182 0 0.152941182 0.152941182 0.152941182 1 0.152941182 0.152941182 0.152941182 0 0.152941182 0.152941182 0.152941182 1 0.152941182 0.152941182 0.152941182 0 0.152941182 0.152941182 0.152941182 1 0.152941182 0.152941182 0.152941182 0 0.152941182 0.152941182 0.152941182 1 0.152941182 0.152941182 0.152941182 0 0.152941182 0.152941182 0.152941182 1 0.152941182 0.152941182 0.152941182 0 0.152941182 0.152941182 0.152941182 1 0.152941182 0.152941182 0.152941182 0 0.152941182 0.152941182 0.152941182 1 0.152941182 0.152941182 0.152941182 0 0.152941182 0.152941182 0.152941182 1 0.152941182 0.152941182 0.152941182 0 0.152941182 0.152941182 0.152941182 1 0.152941182 0.152941182 0.152941182 0 0.152941182 0.152941182 0.152941182 1 0.152941182 0.152941182 0.152941182 0 0.152941182 0.152941182 0.152941182 0 0.152941182 0.152941182 0.152941182 0 0.152941182 0.152941182 0.152941182 0 0.152941182 0.152941182 0.152941182 0 0.152941182 0.152941182 0.152941182 0 0.152941182 0.152941182 0.152941182 1 0.152941182 0.152941182 0.152941182 0 0.152941182 0.152941182 0.152941182 1 0.152941182 0.152941182 0.152941182 0 0.152941182 0.152941182 0.152941182 1 0.152941182 0.152941182 0.152941182 0 0.152941182 0.152941182 0.152941182 1 0.152941182 0.152941182 0.152941182 0 0.152941182 0.152941182 0.152941182 1 0.152941182 0.152941182 0.152941182 0 0.152941182 0.152941182 0.152941182 1 0.152941182 0.152941182 0.152941182 0 0.152941182 0.152941182 0.152941182 1 0.152941182 0.152941182 0.152941182 0 0.152941182 0.152941182 0.152941182 1 0.152941182 0.152941182 0.152941182 0 0.152941182 0.152941182 0.152941182 1 0.152941182 0.152941182 0.152941182 0 0.152941182 0.152941182 0.152941182 1 0.152941182 0.152941182 0.152941182 0 0.152941182 0.152941182 0.152941182 1 0.152941182 0.152941182 0.152941182 0 0.152941182 0.152941182 0.152941182 1 0.152941182 0.152941182 0.152941182 0 0.152941182 0.152941182 0.152941182 1 0.152941182 0.152941182 0.152941182 0 0.152941182 0.152941182 0.152941182 0 0.152941182 0.152941182 0.152941182 0 0.152941182 0.152941182 0.152941182 1 0.152941182 0.152941182 0.152941182 0 0.152941182 0.152941182 0.152941182 0 0.152941182 0.152941182 0.152941182 0 0.152941182 0.152941182 0.152941182 0 0.152941182 0.152941182 0.152941182 0 0.152941182 0.152941182 0.152941182 1 0.152941182 0.152941182 0.152941182 0 0.152941182 0.152941182 0.152941182 1 0.152941182 0.152941182 0.152941182 0 0.152941182 0.152941182 0.152941182 0 0.152941182 0.152941182 0.152941182 1 0.152941182 0.152941182 0.152941182 0 0.152941182 0.152941182 0.152941182 1 0.152941182 0.152941182 0.152941182 0 0.152941182 0.152941182 0.152941182 1 0.152941182 0.152941182 0.152941182 0 0.152941182 0.152941182 0.152941182 1 0.152941182 0.152941182 0.152941182 0 0.152941182 0.152941182 0.152941182 1 0.152941182 0.152941182 0.152941182 0 0.152941182 0.152941182 0.152941182 1 0.152941182 0.152941182 0.152941182 0 0.152941182 0.152941182 0.152941182 1 0.152941182 0.152941182 0.152941182 0 0.152941182 0.152941182 0.152941182 1 0.152941182 0.152941182 0.152941182 0 0.152941182 0.152941182 0.152941182 1 0.152941182 0.152941182 0.152941182 0 0.152941182 0.152941182 0.152941182 1 0.152941182 0.152941182 0.152941182 0 0.152941182 0.152941182 0.152941182 1 0.152941182 0.152941182 0.152941182 0 0.152941182 0.152941182 0.152941182 1 0.152941182 0.152941182 0.152941182 0 0.152941182 0.152941182 0.152941182 1 0.152941182 0.152941182 0.152941182 0 0.152941182 0.152941182 0.152941182 1 0.152941182 0.152941182 0.152941182 0 0.152941182 0.152941182 0.152941182 0 0.152941182 0.152941182 0.152941182 0 0.152941182 0.152941182 0.152941182 0 0.152941182 0.152941182 0.152941182 0 0.152941182 0.152941182 0.152941182 0 0.152941182 0.152941182 0.152941182 1 0.152941182 0.152941182 0.152941182 0 0.152941182 0.152941182 0.152941182 1 0.152941182 0.152941182 0.152941182 0 0.152941182 0.152941182 0.152941182 1 0.152941182 0.152941182 0.152941182 0 0.152941182 0.152941182 0.152941182 1 0.152941182 0.152941182 0.152941182 0 0.152941182 0.152941182 0.152941182 1 0.152941182 0.152941182 0.152941182 0 0.152941182 0.152941182 0.152941182 1 0.152941182 0.152941182 0.152941182 0 0.152941182 0.152941182 0.152941182 1 0.152941182 0.152941182 0.152941182 0 0.152941182 0.152941182 0.152941182 1 0.152941182 0.152941182 0.152941182 0 0.152941182 0.152941182 0.152941182 1 0.152941182 0.152941182 0.152941182 0 0.152941182 0.152941182 0.152941182 1 0.152941182 0.152941182 0.152941182 0 0.152941182 0.152941182 0.152941182 1 0.152941182 0.152941182 0.152941182 0 0.152941182 0.152941182 0.152941182 1 0.152941182 0.152941182 0.152941182 0 0.152941182 0.152941182 0.152941182 1 0.152941182 0.152941182 0.152941182 0 0.152941182 0.152941182 0.152941182 0 0.152941182 0.152941182 0.152941182 0 0.152941182 0.152941182 0.152941182 1 0.152941182 0.152941182 0.152941182 0 0.152941182 0.152941182 0.152941182 0 0.152941182 0.152941182 0.152941182 0 0.152941182 0.152941182 0.152941182 0 0.152941182 0.152941182 0.152941182 0 0.152941182 0.152941182 0.152941182 1 0.152941182 0.152941182 0.152941182 0 0.152941182 0.152941182 0.152941182 1 0.152941182 0.152941182 0.152941182 0 0.152941182 0.152941182 0.152941182 0 0.152941182 0.152941182 0.152941182 1 0.152941182 0.152941182 0.152941182 0 0.152941182 0.152941182 0.152941182 1 0.152941182 0.152941182 0.152941182 0 0.152941182 0.152941182 0.152941182 1 0.152941182 0.152941182 0.152941182 0 0.152941182 0.152941182 0.152941182 1 0.152941182 0.152941182 0.152941182 0 0.152941182 0.152941182 0.152941182 1 0.152941182 0.152941182 0.152941182 0 0.152941182 0.152941182 0.152941182 1 0.152941182 0.152941182 0.152941182 0 0.152941182 0.152941182 0.152941182 1 0.152941182 0.152941182 0.152941182 0 0.152941182 0.152941182 0.152941182 1 0.152941182 0.152941182 0.152941182 0 0.152941182 0.152941182 0.152941182 1 0.152941182 0.152941182 0.152941182 0 0.152941182 0.152941182 0.152941182 1 0.152941182 0.152941182 0.152941182 0 0.152941182 0.152941182 0.152941182 1 0.152941182 0.152941182 0.152941182 0 0.152941182 0.152941182 0.152941182 1 0.152941182 0.152941182 0.152941182 0 0.152941182 0.152941182 0.152941182 1 0.152941182 0.152941182 0.152941182 0 0.152941182 0.152941182 0.152941182 1 0.152941182 0.152941182 0.152941182 0 0.152941182 0.152941182 0.152941182 0 0.152941182 0.152941182 0.152941182 0 0.152941182 0.152941182 0.152941182 0 0.152941182 0.152941182 0.152941182 0 0.152941182 0.152941182 0.152941182 0 0.152941182 0.152941182 0.152941182 0 0.152941182 0.152941182 0.152941182 1 0.152941182 0.152941182 0.152941182 1 0.152941182 0.152941182 0.152941182 0 0.152941182 0.152941182 0.152941182 1 0.152941182 0.152941182 0.152941182 0 0.152941182 0.152941182 0.152941182 1 0.152941182 0.152941182 0.152941182 0 0.152941182 0.152941182 0.152941182 1 0.152941182 0.152941182 0.152941182 0 0.152941182 0.152941182 0.152941182 1 0.152941182 0.152941182 0.152941182 0 0.152941182 0.152941182 0.152941182 1 0.152941182 0.152941182 0.152941182 0 0.152941182 0.152941182 0.152941182 0 0.152941182 0.152941182 0.152941182 1 0.152941182 0.152941182 0.152941182 0 0.152941182 0.152941182 0.152941182 1 0.152941182 0.152941182 0.152941182 0 0.152941182 0.152941182 0.152941182 0 0.152941182 0.152941182 0.152941182 1 0.152941182 0.152941182 0.152941182 0 0.152941182 0.152941182 0.152941182 1 0.152941182 0.152941182 0.152941182 0 0.152941182 0.152941182 0.152941182 0 0.152941182 0.152941182 0.152941182 0 0.152941182 0.152941182 0.152941182 0 0.152941182 0.152941182 0.152941182 0 0.152941182 0.152941182 0.152941182 0 0.152941182 0.152941182 0.152941182 1 0.152941182 0.152941182 0.152941182 0 0.152941182 0.152941182 0.152941182 0 0.152941182 0.152941182 0.152941182 0 0.152941182 0.152941182 0.152941182 0 0.152941182 0.152941182 0.152941182 0 0.152941182 0.152941182 0.152941182 0 0.152941182 0.152941182 0.152941182 1 0.152941182 0.152941182 0.152941182 0 0.152941182 0.152941182 0.152941182 1 0.152941182 0.152941182 0.152941182 0 0.152941182 0.152941182 0.152941182 0 0.152941182 0.152941182 0.152941182 1 0.152941182 0.152941182 0.152941182 0 0.152941182 0.152941182 0.152941182 1 0.152941182 0.152941182 0.152941182 0 0.152941182 0.152941182 0.152941182 0 0.152941182 0.152941182 0.152941182 1 0.152941182 0.152941182 0.152941182 0 0.152941182 0.152941182 0.152941182 1 0.152941182 0.152941182 0.152941182 0 0.152941182 0.152941182 0.152941182 0 0.152941182 0.152941182 0.152941182 1 0.152941182 0.152941182 0.152941182 0 0.152941182 0.152941182 0.152941182 1 0.152941182 0.152941182 0.152941182 0 0.152941182 0.152941182 0.152941182 0 0.152941182 0.152941182 0.152941182 0 0.152941182 0.152941182 0.152941182 0 0.152941182 0.152941182 0.152941182 1 0.152941182 0.152941182 0.152941182 0 0.152941182 0.152941182 0.152941182 0 0.152941182 0.152941182 0.152941182 0 0.152941182 0.152941182 0.152941182 0 0.152941182 0.152941182 0.152941182 0 0.152941182 0.152941182 0.152941182 1 0.152941182 0.152941182 0.152941182 1 0.152941182 0.152941182 0.152941182 0 0.152941182 0.152941182 0.152941182 1 0.152941182 0.152941182 0.152941182 0 0.152941182 0.152941182 0.152941182 1 0.152941182 0.152941182 0.152941182 0 0.152941182 0.152941182 0.152941182 1 0.152941182 0.152941182 0.152941182 0 0.152941182 0.152941182 0.152941182 1 0.152941182 0.152941182 0.152941182 0 0.152941182 0.152941182 0.152941182 1 0.152941182 0.152941182 0.152941182 0 0.152941182 0.152941182 0.152941182 0 0.152941182 0.152941182 0.152941182 1 0.152941182 0.152941182 0.152941182 0 0.152941182 0.152941182 0.152941182 1 0.152941182 0.152941182 0.152941182 0 0.152941182 0.152941182 0.152941182 0 0.152941182 0.152941182 0.152941182 1 0.152941182 0.152941182 0.152941182 0 0.152941182 0.152941182 0.152941182 1 0.152941182 0.152941182 0.152941182 0 0.152941182 0.152941182 0.152941182 0 0.152941182 0.152941182 0.152941182 0 0.152941182 0.152941182 0.152941182 0 0.152941182 0.152941182 0.152941182 0 0.152941182 0.152941182 0.152941182 0 0.152941182 0.152941182 0.152941182 1 0.152941182 0.152941182 0.152941182 0 0.152941182 0.152941182 0.152941182 0 0.152941182 0.152941182 0.152941182 0 0.152941182 0.152941182 0.152941182 0 0.152941182 0.152941182 0.152941182 0 0.152941182 0.152941182 0.152941182 0 0.152941182 0.152941182 0.152941182 1 0.152941182 0.152941182 0.152941182 0 0.152941182 0.152941182 0.152941182 1 0.152941182 0.152941182 0.152941182 0 0.152941182 0.152941182 0.152941182 0 0.152941182 0.152941182 0.152941182 1 0.152941182 0.152941182 0.152941182 0 0.152941182 0.152941182 0.152941182 1 0.152941182 0.152941182 0.152941182 0 0.152941182 0.152941182 0.152941182 0 0.152941182 0.152941182 0.152941182 1 0.152941182 0.152941182 0.152941182 0 0.152941182 0.152941182 0.152941182 1 0.152941182 0.152941182 0.152941182 0 0.152941182 0.152941182 0.152941182 0 0.152941182 0.152941182 0.152941182 1 0.152941182 0.152941182 0.152941182 0 0.152941182 0.152941182 0.152941182 1 0.152941182 0.152941182 0.152941182 0 0.152941182 0.152941182 0.152941182 0 0.152941182 0.152941182 0.152941182 0 0.152941182 0.152941182 0.152941182 0 0.152941182 0.152941182 0.152941182 1 0.152941182 0.152941182 0.152941182 0 0.152941182 0.152941182 0.152941182 0 0.152941182 0.152941182 0.152941182 0 0.152941182 0.152941182 0.152941182 0 0.152941182 0.152941182 0.152941182 0 0.152941182 0.152941182 0.152941182 1 0.152941182 0.152941182 0.152941182 1 0.152941182 0.152941182 0.152941182 0 0.152941182 0.152941182 0.152941182 1 0.152941182 0.152941182 0.152941182 0 0.152941182 0.152941182 0.152941182 1 0.152941182 0.152941182 0.152941182 0 0.152941182 0.152941182 0.152941182 1 0.152941182 0.152941182 0.152941182 0 0.152941182 0.152941182 0.152941182 1 0.152941182 0.152941182 0.152941182 0 0.152941182 0.152941182 0.152941182 1 0.152941182 0.152941182 0.152941182 0 0.152941182 0.152941182 0.152941182 0 0.152941182 0.152941182 0.152941182 1 0.152941182 0.152941182 0.152941182 0 0.152941182 0.152941182 0.152941182 1 0.152941182 0.152941182 0.152941182 0 0.152941182 0.152941182 0.152941182 0 0.152941182 0.152941182 0.152941182 1 0.152941182 0.152941182 0.152941182 0 0.152941182 0.152941182 0.152941182 1 0.152941182 0.152941182 0.152941182 0 0.152941182 0.152941182 0.152941182 0 0.152941182 0.152941182 0.152941182 0 0.152941182 0.152941182 0.152941182 0 0.152941182 0.152941182 0.152941182 0 0.152941182 0.152941182 0.152941182 0 0.152941182 0.152941182 0.152941182 1 0.152941182 0.152941182 0.152941182 0 0.152941182 0.152941182 0.152941182 0 0.152941182 0.152941182 0.152941182 0 0.152941182 0.152941182 0.152941182 0 0.152941182 0.152941182 0.152941182 0 0.152941182 0.152941182 0.152941182 0 0.152941182 0.152941182 0.152941182 1 0.152941182 0.152941182 0.152941182 0 0.152941182 0.152941182 0.152941182 1 0.152941182 0.152941182 0.152941182 0 0.152941182 0.152941182 0.152941182 0 0.152941182 0.152941182 0.152941182 1 0.152941182 0.152941182 0.152941182 0 0.152941182 0.152941182 0.152941182 1 0.152941182 0.152941182 0.152941182 0 0.152941182 0.152941182 0.152941182 0 0.152941182 0.152941182 0.152941182 1 0.152941182 0.152941182 0.152941182 0 0.152941182 0.152941182 0.152941182 1 0.152941182 0.152941182 0.152941182 0 0.152941182 0.152941182 0.152941182 0 0.152941182 0.152941182 0.152941182 1 0.152941182 0.152941182 0.152941182 0 0.152941182 0.152941182 0.152941182 1 0.152941182 0.152941182 0.152941182 0 0.152941182 0.152941182 0.152941182 0 0.152941182 0.152941182 0.152941182 0 0.152941182 0.152941182 0.152941182 0 0.152941182 0.152941182 0.152941182 1 0.152941182 0.152941182 0.152941182 0 0.152941182 0.152941182 0.152941182 0 0.152941182 0.152941182 0.152941182 0 0.152941182 0.152941182 0.152941182 0 0.152941182 0.152941182 0.152941182 0 0.152941182 0.152941182 0.152941182 1 0.152941182 0.152941182 0.152941182 1 0.152941182 0.152941182 0.152941182 0 0.152941182 0.152941182 0.152941182 1 0.152941182 0.152941182 0.152941182 0 0.152941182 0.152941182 0.152941182 1 0.152941182 0.152941182 0.152941182 0 0.152941182 0.152941182 0.152941182 1 0.152941182 0.152941182 0.152941182 0 0.152941182 0.152941182 0.152941182 1 0.152941182 0.152941182 0.152941182 0 0.152941182 0.152941182 0.152941182 1 0.152941182 0.152941182 0.152941182 0 0.152941182 0.152941182 0.152941182 0 0.152941182 0.152941182 0.152941182 1 0.152941182 0.152941182 0.152941182 0 0.152941182 0.152941182 0.152941182 1 0.152941182 0.152941182 0.152941182 0 0.152941182 0.152941182 0.152941182 0 0.152941182 0.152941182 0.152941182 1 0.152941182 0.152941182 0.152941182 0 0.152941182 0.152941182 0.152941182 1 0.152941182 0.152941182 0.152941182 0 0.152941182 0.152941182 0.152941182 0 0.152941182 0.152941182 0.152941182 0 0.152941182 0.152941182 0.152941182 0 0.152941182 0.152941182 0.152941182 0 0.152941182 0.152941182 0.152941182 0 0.152941182 0.152941182 0.152941182 1 0.152941182 0.152941182 0.152941182 0 0.152941182 0.152941182 0.152941182 0 0.152941182 0.152941182 0.152941182 0 0.152941182 0.152941182 0.152941182 0 0.152941182 0.152941182 0.152941182 0 0.152941182 0.152941182 0.152941182 0 0.152941182 0.152941182 0.152941182 1 0.152941182 0.152941182 0.152941182 0 0.152941182 0.152941182 0.152941182 1 0.152941182 0.152941182 0.152941182 0 0.152941182 0.152941182 0.152941182 0 0.152941182 0.152941182 0.152941182 1 0.152941182 0.152941182 0.152941182 0 0.152941182 0.152941182 0.152941182 1 0.152941182 0.152941182 0.152941182 0 0.152941182 0.152941182 0.152941182 0 0.152941182 0.152941182 0.152941182 1 0.152941182 0.152941182 0.152941182 0 0.152941182 0.152941182 0.152941182 1 0.152941182 0.152941182 0.152941182 0 0.152941182 0.152941182 0.152941182 0 0.152941182 0.152941182 0.152941182 1 0.152941182 0.152941182 0.152941182 0 0.152941182 0.152941182 0.152941182 1 0.152941182 0.152941182 0.152941182 0 0.152941182 0.152941182 0.152941182 0 0.152941182 0.152941182 0.152941182 0 0.152941182 0.152941182 0.152941182 0 0.152941182 0.152941182 0.152941182 1 0.152941182 0.152941182 0.152941182 0 0.152941182 0.152941182 0.152941182 0 0.152941182 0.152941182 0.152941182 0</float_array>
        <technique_common><accessor source="#vfx_kurp_0248-mesh-colors-array" count="540" stride="4"><param name="R" type="float"/><param name="G" type="float"/><param name="B" type="float"/><param name="A" type="float"/></accessor></technique_common>
      </source>
      <vertices id="vfx_kurp_0248-mesh-vertices"><input semantic="POSITION" source="#vfx_kurp_0248-mesh-positions"/></vertices>
      <triangles material="PreviewMaterial" count="192">
        <input semantic="VERTEX" source="#vfx_kurp_0248-mesh-vertices" offset="0"/>
        <input semantic="NORMAL" source="#vfx_kurp_0248-mesh-normals" offset="1"/>
        <input semantic="TEXCOORD" source="#vfx_kurp_0248-mesh-uv0" offset="2" set="0"/>
        <input semantic="COLOR" source="#vfx_kurp_0248-mesh-colors" offset="3" set="0"/>
        <p>0 0 0 0 1 1 1 1 2 2 2 2 3 3 3 3 4 4 4 4 5 5 5 5 6 6 6 6 7 7 7 7 8 8 8 8 9 9 9 9 10 10 10 10 11 11 11 11 12 12 12 12 13 13 13 13 14 14 14 14 15 15 15 15 16 16 16 16 17 17 17 17 18 18 18 18 19 19 19 19 20 20 20 20 21 21 21 21 22 22 22 22 23 23 23 23 24 24 24 24 25 25 25 25 26 26 26 26 27 27 27 27 28 28 28 28 29 29 29 29 30 30 30 30 31 31 31 31 32 32 32 32 33 33 33 33 34 34 34 34 35 35 35 35 36 36 36 36 37 37 37 37 38 38 38 38 39 39 39 39 40 40 40 40 41 41 41 41 42 42 42 42 43 43 43 43 44 44 44 44 45 45 45 45 46 46 46 46 47 47 47 47 48 48 48 48 49 49 49 49 50 50 50 50 51 51 51 51 52 52 52 52 53 53 53 53 54 54 54 54 55 55 55 55 56 56 56 56 57 57 57 57 58 58 58 58 59 59 59 59 60 60 60 60 61 61 61 61 62 62 62 62 63 63 63 63 64 64 64 64 65 65 65 65 66 66 66 66 67 67 67 67 68 68 68 68 69 69 69 69 70 70 70 70 71 71 71 71 72 72 72 72 73 73 73 73 74 74 74 74 75 75 75 75 76 76 76 76 77 77 77 77 78 78 78 78 79 79 79 79 80 80 80 80 81 81 81 81 82 82 82 82 83 83 83 83 84 84 84 84 85 85 85 85 86 86 86 86 87 87 87 87 88 88 88 88 89 89 89 89 90 90 90 90 91 91 91 91 92 92 92 92 93 93 93 93 94 94 94 94 95 95 95 95 96 96 96 96 97 97 97 97 98 98 98 98 99 99 99 99 100 100 100 100 101 101 101 101 102 102 102 102 103 103 103 103 104 104 104 104 105 105 105 105 106 106 106 106 107 107 107 107 108 108 108 108 109 109 109 109 110 110 110 110 111 111 111 111 112 112 112 112 113 113 113 113 114 114 114 114 115 115 115 115 116 116 116 116 117 117 117 117 118 118 118 118 119 119 119 119 120 120 120 120 121 121 121 121 122 122 122 122 123 123 123 123 124 124 124 124 125 125 125 125 126 126 126 126 127 127 127 127 128 128 128 128 129 129 129 129 130 130 130 130 131 131 131 131 132 132 132 132 133 133 133 133 134 134 134 134 135 135 135 135 136 136 136 136 137 137 137 137 138 138 138 138 139 139 139 139 140 140 140 140 141 141 141 141 142 142 142 142 143 143 143 143 144 144 144 144 145 145 145 145 146 146 146 146 147 147 147 147 148 148 148 148 149 149 149 149 150 150 150 150 151 151 151 151 152 152 152 152 153 153 153 153 154 154 154 154 155 155 155 155 156 156 156 156 157 157 157 157 158 158 158 158 159 159 159 159 160 160 160 160 161 161 161 161 162 162 162 162 163 163 163 163 164 164 164 164 165 165 165 165 166 166 166 166 167 167 167 167 168 168 168 168 169 169 169 169 170 170 170 170 171 171 171 171 172 172 172 172 173 173 173 173 174 174 174 174 175 175 175 175 176 176 176 176 177 177 177 177 178 178 178 178 179 179 179 179 180 180 180 180 181 181 181 181 182 182 182 182 183 183 183 183 184 184 184 184 185 185 185 185 186 186 186 186 187 187 187 187 188 188 188 188 189 189 189 189 190 190 190 190 191 191 191 191 192 192 192 192 193 193 193 193 194 194 194 194 195 195 195 195 196 196 196 196 197 197 197 197 198 198 198 198 199 199 199 199 200 200 200 200 201 201 201 201 202 202 202 202 203 203 203 203 204 204 204 204 205 205 205 205 206 206 206 206 207 207 207 207 208 208 208 208 209 209 209 209 210 210 210 210 211 211 211 211 212 212 212 212 213 213 213 213 214 214 214 214 215 215 215 215 216 216 216 216 217 217 217 217 218 218 218 218 219 219 219 219 220 220 220 220 221 221 221 221 222 222 222 222 223 223 223 223 224 224 224 224 225 225 225 225 226 226 226 226 227 227 227 227 228 228 228 228 229 229 229 229 230 230 230 230 231 231 231 231 232 232 232 232 233 233 233 233 234 234 234 234 235 235 235 235 236 236 236 236 237 237 237 237 238 238 238 238 239 239 239 239 240 240 240 240 241 241 241 241 242 242 242 242 243 243 243 243 244 244 244 244 245 245 245 245 246 246 246 246 247 247 247 247 248 248 248 248 249 249 249 249 250 250 250 250 251 251 251 251 252 252 252 252 253 253 253 253 254 254 254 254 255 255 255 255 256 256 256 256 257 257 257 257 258 258 258 258 259 259 259 259 260 260 260 260 261 261 261 261 262 262 262 262 263 263 263 263 264 264 264 264 265 265 265 265 266 266 266 266 267 267 267 267 268 268 268 268 269 269 269 269 270 270 270 270 271 271 271 271 272 272 272 272 273 273 273 273 274 274 274 274 275 275 275 275 276 276 276 276 277 277 277 277 278 278 278 278 279 279 279 279 280 280 280 280 281 281 281 281 282 282 282 282 283 283 283 283 284 284 284 284 285 285 285 285 286 286 286 286 287 287 287 287 288 288 288 288 289 289 289 289 290 290 290 290 291 291 291 291 292 292 292 292 293 293 293 293 294 294 294 294 295 295 295 295 296 296 296 296 297 297 297 297 298 298 298 298 299 299 299 299 300 300 300 300 301 301 301 301 302 302 302 302 299 299 299 299 303 303 303 303 304 304 304 304 305 305 305 305 306 306 306 306 307 307 307 307 304 304 304 304 308 308 308 308 309 309 309 309 310 310 310 310 311 311 311 311 312 312 312 312 42 42 42 42 313 313 313 313 314 314 314 314 315 315 315 315 316 316 316 316 317 317 317 317 318 318 318 318 319 319 319 319 320 320 320 320 321 321 321 321 290 290 290 290 322 322 322 322 323 323 323 323 66 66 66 66 324 324 324 324 325 325 325 325 326 326 326 326 327 327 327 327 328 328 328 328 60 60 60 60 329 329 329 329 330 330 330 330 331 331 331 331 332 332 332 332 333 333 333 333 54 54 54 54 334 334 334 334 335 335 335 335 336 336 336 336 337 337 337 337 338 338 338 338 48 48 48 48 339 339 339 339 340 340 340 340 341 341 341 341 342 342 342 342 343 343 343 343 309 309 309 309 344 344 344 344 345 345 345 345 346 346 346 346 347 347 347 347 348 348 348 348 349 349 349 349 350 350 350 350 351 351 351 351 352 352 352 352 353 353 353 353 354 354 354 354 355 355 355 355 356 356 356 356 357 357 357 357 358 358 358 358 359 359 359 359 360 360 360 360 361 361 361 361 362 362 362 362 363 363 363 363 364 364 364 364 365 365 365 365 362 362 362 362 366 366 366 366 367 367 367 367 368 368 368 368 369 369 369 369 370 370 370 370 367 367 367 367 371 371 371 371 372 372 372 372 373 373 373 373 374 374 374 374 375 375 375 375 114 114 114 114 376 376 376 376 377 377 377 377 378 378 378 378 379 379 379 379 380 380 380 380 381 381 381 381 382 382 382 382 383 383 383 383 384 384 384 384 353 353 353 353 385 385 385 385 386 386 386 386 138 138 138 138 387 387 387 387 388 388 388 388 389 389 389 389 390 390 390 390 391 391 391 391 132 132 132 132 392 392 392 392 393 393 393 393 394 394 394 394 395 395 395 395 396 396 396 396 126 126 126 126 397 397 397 397 398 398 398 398 399 399 399 399 400 400 400 400 401 401 401 401 120 120 120 120 402 402 402 402 403 403 403 403 404 404 404 404 405 405 405 405 406 406 406 406 372 372 372 372 407 407 407 407 408 408 408 408 409 409 409 409 410 410 410 410 411 411 411 411 412 412 412 412 413 413 413 413 414 414 414 414 415 415 415 415 416 416 416 416 417 417 417 417 418 418 418 418 419 419 419 419 420 420 420 420 421 421 421 421 422 422 422 422 423 423 423 423 424 424 424 424 425 425 425 425 426 426 426 426 427 427 427 427 428 428 428 428 425 425 425 425 429 429 429 429 430 430 430 430 431 431 431 431 432 432 432 432 433 433 433 433 430 430 430 430 434 434 434 434 435 435 435 435 436 436 436 436 437 437 437 437 438 438 438 438 186 186 186 186 439 439 439 439 440 440 440 440 441 441 441 441 442 442 442 442 443 443 443 443 444 444 444 444 445 445 445 445 446 446 446 446 447 447 447 447 416 416 416 416 448 448 448 448 449 449 449 449 210 210 210 210 450 450 450 450 451 451 451 451 452 452 452 452 453 453 453 453 454 454 454 454 204 204 204 204 455 455 455 455 456 456 456 456 457 457 457 457 458 458 458 458 459 459 459 459 198 198 198 198 460 460 460 460 461 461 461 461 462 462 462 462 463 463 463 463 464 464 464 464 192 192 192 192 465 465 465 465 466 466 466 466 467 467 467 467 468 468 468 468 469 469 469 469 435 435 435 435 470 470 470 470 471 471 471 471 472 472 472 472 473 473 473 473 474 474 474 474 475 475 475 475 476 476 476 476 477 477 477 477 478 478 478 478 479 479 479 479 480 480 480 480 481 481 481 481 482 482 482 482 483 483 483 483 484 484 484 484 485 485 485 485 486 486 486 486 487 487 487 487 488 488 488 488 489 489 489 489 490 490 490 490 491 491 491 491 488 488 488 488 492 492 492 492 493 493 493 493 494 494 494 494 495 495 495 495 496 496 496 496 493 493 493 493 497 497 497 497 498 498 498 498 499 499 499 499 500 500 500 500 501 501 501 501 258 258 258 258 502 502 502 502 503 503 503 503 504 504 504 504 505 505 505 505 506 506 506 506 507 507 507 507 508 508 508 508 509 509 509 509 510 510 510 510 479 479 479 479 511 511 511 511 512 512 512 512 282 282 282 282 513 513 513 513 514 514 514 514 515 515 515 515 516 516 516 516 517 517 517 517 276 276 276 276 518 518 518 518 519 519 519 519 520 520 520 520 521 521 521 521 522 522 522 522 270 270 270 270 523 523 523 523 524 524 524 524 525 525 525 525 526 526 526 526 527 527 527 527 264 264 264 264 528 528 528 528 529 529 529 529 530 530 530 530 531 531 531 531 532 532 532 532 498 498 498 498 533 533 533 533 534 534 534 534 535 535 535 535 536 536 536 536 537 537 537 537 538 538 538 538 539 539 539 539</p>
      </triangles>
    </mesh></geometry>
  </library_geometries>
  <library_visual_scenes>
    <visual_scene id="Scene" name="Scene">
      <node id="vfx_kurp_0248" name="vfx_kurp_0248" type="NODE">
        <instance_geometry url="#vfx_kurp_0248-mesh"><bind_material><technique_common><instance_material symbol="PreviewMaterial" target="#PreviewMaterial"><bind_vertex_input semantic="UVSET0" input_semantic="TEXCOORD" input_set="0"/></instance_material></technique_common></bind_material></instance_geometry>
      </node>
    </visual_scene>
  </library_visual_scenes>
  <scene><instance_visual_scene url="#Scene"/></scene>
</COLLADA>
