<?xml version="1.0" encoding="utf-8"?>
<COLLADA xmlns="http://www.collada.org/2005/11/COLLADASchema" version="1.4.1">
  <asset>
    <contributor><authoring_tool>Morrobroom Kurpulio VFX preview converter</authoring_tool></contributor>
    <unit name="unit" meter="1"/>
    <up_axis>Z_UP</up_axis>
  </asset>
  <library_images>
    <image id="VFXTexture" name="darkmap_newgen-1.dds">
      <init_from>../../../Textures/Kurp/darkmap_newgen-1.dds</init_from>
    </image>
  </library_images>
  <library_effects>
    <effect id="PreviewEffect">
      <profile_COMMON>
        <newparam sid="VFXTexture-surface">
          <surface type="2D"><init_from>VFXTexture</init_from></surface>
        </newparam>
        <newparam sid="VFXTexture-sampler">
          <sampler2D><source>VFXTexture-surface</source></sampler2D>
        </newparam>
        <technique sid="common"><phong>
          <emission><color>0.08 0.08 0.08 1</color></emission>
          <ambient><color>0.2 0.2 0.2 1</color></ambient>
          <diffuse><texture texture="VFXTexture-sampler" texcoord="UVSET0"/></diffuse>
          <specular><color>0.15 0.15 0.15 1</color></specular>
          <shininess><float>8</float></shininess>
          <transparent opaque="A_ONE"><texture texture="VFXTexture-sampler" texcoord="UVSET0"/></transparent>
          <transparency><float>1</float></transparency>
        </phong></technique>
      </profile_COMMON>
      <extra><technique profile="GOOGLEEARTH"><double_sided>1</double_sided></technique></extra>
    </effect>
  </library_effects>
  <library_materials><material id="PreviewMaterial" name="PreviewMaterial"><instance_effect url="#PreviewEffect"/></material></library_materials>
  <library_geometries>
    <geometry id="vfx_kurp_1044-mesh" name="vfx_kurp_1044"><mesh>
      <source id="vfx_kurp_1044-mesh-positions">
        <float_array id="vfx_kurp_1044-mesh-positions-array" count="756">-1.98048766 -2.19516238 -3.18634954 -2.7149704 -0.0895742631 -4.18081401 -0.974273172 -2.41947762 -3.81450527 -1.35726211 -0.333996059 -4.99425913 0.198667639 -0.570946641 -5.34638158 0.187437709 -2.6375863 -4.10331567 -0.119648493 -4.3545196 -6.22086519 -0.974273172 -2.41947762 -3.81450527 0.187437709 -2.6375863 -4.10331567 -1.92567938 -4.17813225 -5.70552107 -1.98048766 -2.19516238 -3.18634954 -3.46621776 -3.99529081 -4.66271549 -2.72932512 -1.9647762 -2.28077263 -4.58673146 -3.80616515 -3.19975229 -3.14126655 -1.72835813 -1.19237196 -5.17216889 -3.6107982 -1.4705952 -3.17050831 -1.48577227 -0.0403959482 -5.16176194 -3.40900461 0.338184082 -2.81327952 -1.23665617 1.04342785 -4.55881508 -3.20032636 2.02644888 -2.11162603 -0.980371428 1.9300583 -3.43371872 -2.98397669 3.40261564 -1.25182071 -0.737937128 2.46246543 -1.77602461 -2.73469666 4.35508799 -3.73645307 0.162021317 -2.9893786 -2.72932512 -1.9647762 -2.28077263 -4.31542341 0.420674071 -1.54593802 -3.14126655 -1.72835813 -1.19237196 -4.39110762 0.686539548 -0.00740722002 -3.17050831 -1.48577227 -0.0403959482 -3.95765998 0.960133918 1.4547658 -2.81327952 -1.23665617 1.04342785 -3.06762974 1.24238698 2.67395686 -2.11162603 -0.980371428 1.9300583 -1.70767828 1.56579921 3.5486666 -1.25182071 -0.737937128 2.46246543 -0.26421187 1.87144424 3.83493395 -0.161294319 -0.464638195 2.66615815 1.16743247 2.19134261 3.59705624 0.914217994 -0.180454027 2.4568935 2.47993849 2.56230686 2.78228751 1.73644333 0.091337632 1.92806809 -0.161294319 -0.464638195 2.66615815 -0.0454829405 -2.49794787 4.60089691 0.914217994 -0.180454027 2.4568935 1.64463823 -2.24887248 4.22458444 1.73644333 0.091337632 1.92806809 3.17771899 -1.95647969 3.16288024 2.33863618 0.402030375 1.04233058 4.08456906 -1.67433439 1.72331016 2.522515 0.701075209 0.107291337 4.3753646 -1.3393315 -0.0879081738 2.28301382 1.04511364 -0.908046672 3.94643226 -1.01472078 -1.70081928 1.69324148 1.37781953 -1.62448353 2.79769635 -0.626634656 -3.09132358 0.86848594 1.72809235 -2.0161001 1.16619082 -0.2066918 -3.82274803 -0.031052464 2.09710761 -1.99501278 -0.604276679 0.24750281 -3.72824196 3.29187338 2.92029703 1.63697824 2.33863618 0.402030375 1.04233058 3.60069991 3.33674018 0.185501407 2.522515 0.701075209 0.107291337 3.32527664 3.74280554 -1.13427159 2.28301382 1.04511364 -0.908046672 2.47834571 4.21375948 -2.26657991 1.69324148 1.37781953 -1.62448353 1.25865448 4.71368101 -2.88865995 0.86848594 1.72809235 -2.0161001 -0.0637388017 5.24292604 -2.88653036 -0.031052464 2.09710761 -1.99501278 -1.18590376 5.80162838 -2.28545649 -0.801637092 2.48611271 -1.55564286 -1.84626739 6.39039243 -1.25802494 -1.2443136 2.89687402 -0.800264841 -1.87380435 7.04069359 -0.0456100158 -1.23366072 3.29273898 -0.0220078475 -0.801637092 2.48611271 -1.55564286 -2.10863835 0.738546611 -2.81913947 -1.2443136 2.89687402 -0.800264841 -2.97731381 1.26989602 -1.30901564 -1.23366072 3.29273898 -0.0220078475 -2.92214679 1.91785915 0.583872804 3.81555338 -2.19516192 -0.519644324 5.05549134 -0.089574852 -0.675522224 3.85512612 -2.41947741 0.66779881 5.07984343 -0.333994902 0.908876559 4.60559045 -0.570942399 2.43424886 3.52308445 -2.63758422 1.82020957 5.49933352 -4.35451777 2.62959427 3.85512612 -2.41947741 0.66779881 3.52308445 -2.63758422 1.82020957 5.95727599 -4.17813177 0.806028431 3.81555338 -2.19516192 -0.519644324 5.8257023 -3.99529064 -1.05137973 3.40705144 -1.96477527 -1.62292391 5.12026701 -3.80616751 -2.75514307 2.67178551 -1.72835827 -2.5258759 3.91678186 -3.61080049 -4.12863885 1.69012321 -1.48577201 -3.12920339 2.34643772 -3.40900834 -5.0259591 0.574264858 -1.23665744 -3.36378287 0.584213231 -3.2003297 -5.34989607 -0.543016668 -0.98037147 -3.20151284 -1.16877954 -2.98397866 -5.06562605 -1.43270352 -0.737936214 -2.7250256 -2.82096183 -2.73469684 -4.10852868 4.53569619 0.162021551 -2.15776565 3.40705144 -1.96477527 -1.62292391 3.5764211 0.420672062 -3.38281429 2.67178551 -1.72835827 -2.5258759 2.28316942 0.686538229 -4.21957175 1.69012321 -1.48577201 -3.12920339 0.801499253 0.960134019 -4.57726046 0.574264858 -1.23665744 -3.36378287 -0.698009167 1.24238612 -4.41808183 -0.543016668 -0.98037147 -3.20151284 -2.13397382 1.56579867 -3.67996061 -1.43270352 -0.737936214 -2.7250256 -3.10219304 1.87144854 -2.57513313 -2.15293254 -0.464636374 -1.88458302 -3.61053367 2.19134743 -1.21854167 -2.5079882 -0.180451845 -0.850715312 -3.55949365 2.56231133 0.323009402 -2.45974035 0.0913423944 0.123709575 -2.15293254 -0.464636374 -1.88458302 -3.89768161 -2.49794663 -2.73485176 -2.5079882 -0.180451845 -0.850715312 -4.41537867 -2.24887083 -1.08519431 -2.45974035 0.0913423944 0.123709575 -4.26075918 -1.95647891 0.770828721 -1.99220825 0.402035368 1.08577707 -3.46588299 -1.6743296 2.27359156 -1.2729018 0.701079888 1.71034698 -2.04085607 -1.33932646 3.42827102 -0.2721709 1.04511982 2.00811862 -0.427800515 -1.01471526 3.86063233 0.644755988 1.37782607 1.85321608 1.35284832 -0.626629308 3.55797867 1.39793306 1.72809827 1.33232061 2.80421587 -0.206686193 2.50752214 1.83114734 2.09711039 0.540215839 3.60991237 0.247506284 0.923572592 -2.97199603 2.92030452 1.5964453 -1.99220825 0.402035368 1.08577707 -1.86756506 3.33674603 2.58691678 -1.2729018 0.701079888 1.71034698 -0.585140839 3.74281417 3.00567153 -0.2721709 1.04511982 2.00811862 0.820935298 4.21376725 2.83538516 0.644755988 1.37782607 1.85321608 1.9716068 4.71368928 2.08703879 1.39793306 1.72809827 1.33232061 2.6331295 5.24293162 0.937523497 1.83114734 2.09711039 0.540215839 2.67591783 5.80163378 -0.338180382 1.83770531 2.48611744 -0.349444303 2.1186455 6.39039156 -1.42724312 1.40670542 2.89687808 -1.11323251 1.0849533 7.04069593 -2.06104146 0.729131411 3.29274191 -1.49572452 1.83770531 2.48611744 -0.349444303 3.57721948 0.738548525 -0.837406777 1.40670542 2.89687808 -1.11323251 2.70631749 1.26989755 -2.34857504 0.729131411 3.29274191 -1.49572452 1.04248835 1.91785951 -3.25176328 -1.39189895 -2.19516182 3.16651765 -1.86540886 -0.089576801 4.30124701 -2.44136029 -2.41947841 2.6090265 -3.25097618 -0.333995533 3.532005 -4.33609451 -0.570944421 2.36043954 -3.27466286 -2.63758393 1.74720014 -4.97487716 -4.35451803 3.07053989 -2.44136029 -2.41947841 2.6090265 -3.27466286 -2.63758393 1.74720014 -3.62336539 -4.17813296 4.37708799 -1.39189895 -2.19516182 3.16651765 -1.94776426 -3.99529187 5.18998624 -0.23084886 -1.96477633 3.3624056 -0.118273378 -3.80616882 5.42905686 0.920107814 -1.72836084 3.17512449 1.67424219 -3.61080049 5.07163818 1.93479462 -1.4857744 2.62462698 3.23782355 -3.40900866 4.15839873 2.69724886 -1.23665729 1.77351672 4.40080283 -3.20032874 2.79226322 3.11674931 -0.980370855 0.722724794 5.03246631 -2.98397748 1.12998516 3.15023906 -0.737935073 -0.287934076 5.03121638 -2.73469565 -0.781667267 -0.320575363 0.162019761 4.59031728 -0.23084886 -1.96477633 3.3624056 1.22127768 0.420671239 4.37016362 0.920107814 -1.72836084 3.17512449 2.59387249 0.686536541 3.66660376 1.93479462 -1.4857744 2.62462698 3.64580921 0.960131695 2.56030336 2.69724886 -1.23665729 1.77351672 4.25906558 1.24238621 1.18008751 3.11674931 -0.980370855 0.722724794 4.33934854 1.56579973 -0.434830462 3.15023906 -0.737935073 -0.287934076 3.86807813 1.87144926 -1.82786657 2.78394673 -0.464634965 -1.33402549 2.94887822 2.19134774 -2.94858519 2.06758903 -0.180450134 -2.16063169 1.59001581 2.56231266 -3.67765644 1.20097204 0.091342898 -2.60811539 2.78394673 -0.464634965 -1.33402549 4.38136331 -2.49794556 -2.40308918 2.06758903 -0.180450134 -2.16063169 3.21303775 -2.24886788 -3.67843773 1.20097204 0.091342898 -2.60811539 1.53005826 -1.95647711 -4.47506339 0.135589356 0.402037406 -2.68657005 -0.167210123 -1.67432736 -4.54043661 -0.763480129 0.70108237 -2.37811144 -1.87784496 -1.33932263 -3.88643304 -1.52005249 1.04511915 -1.66282088 -3.05704019 -1.0147141 -2.70829215 -1.84277696 1.3778259 -0.793648198 -3.68319327 -0.626629471 -1.01794889 -1.7666091 1.72809721 0.11662378 -3.49697052 -0.206687921 0.760956363 -1.29552621 2.09711017 0.885313582 -2.52577247 0.247505333 2.24725943 0.195037411 2.92030696 -3.80796119 0.135589356 0.402037406 -2.68657005 -1.21312089 3.33674966 -3.34944865 -0.763480129 0.70108237 -2.37811144 -2.215229 3.74281678 -2.45082077 -1.52005249 1.04511915 -1.66282088 -2.76879318 4.21376634 -1.15095545 -1.84277696 1.3778259 -0.793648198 -2.69395154 4.71368859 0.21662721 -1.7666091 1.72809721 0.11662378 -2.02703328 5.2429277 1.36105384 -1.29552621 2.09711017 0.885313582 -0.941386879 5.80163144 2.03262286 -0.526565493 2.48611689 1.333194 0.282733496 6.39039074 2.0910848 0.352232762 2.89687627 1.3391018 1.35098813 7.04069291 1.50903491 1.02400952 3.29274082 0.940963129 -0.526565493 2.48611689 1.333194 -0.981940021 0.738544548 3.09582401 0.352232762 2.89687627 1.3391018 0.764786937 1.26989627 3.09337358 1.02400952 3.29274082 0.940963129 2.38192884 1.91785865 2.09953115</float_array>
        <technique_common><accessor source="#vfx_kurp_1044-mesh-positions-array" count="252" stride="3"><param name="X" type="float"/><param name="Y" type="float"/><param name="Z" type="float"/></accessor></technique_common>
      </source>
      <source id="vfx_kurp_1044-mesh-normals">
        <float_array id="vfx_kurp_1044-mesh-normals-array" count="756">-0.626235444 -0.50586733 -0.593234704 -0.627007375 -0.496222577 -0.60052053 -0.406722043 -0.510601358 -0.757537744 -0.403104374 -0.500741267 -0.766005905 -0.262831282 -0.496264208 -0.827430694 -0.283780051 -0.505448365 -0.814856326 -0.083597898 0.761857464 -0.642327483 -0.132487203 0.770478274 -0.623546607 -0.0103751357 0.777449227 -0.628860125 -0.196237403 0.755733541 -0.62478612 -0.327427506 0.759593297 -0.561969084 -0.389491442 0.744372306 -0.54240786 -0.49911104 0.748975835 -0.435801983 -0.55142654 0.733388979 -0.397579397 -0.624786914 0.73857697 -0.253269365 -0.660963322 0.722743804 -0.201913055 -0.684545529 0.728309397 -0.0310296682 -0.701328944 0.712378572 0.0255828768 -0.66455282 0.71805988 0.206783845 -0.662729156 0.702230982 0.260118651 -0.564107246 0.707147381 0.426292853 -0.543121585 0.691130434 0.476820371 -0.386061909 0.699133931 0.601803913 -0.336989899 0.682081806 0.649000938 -0.789657311 -0.490660047 -0.368366733 -0.786346395 -0.500555283 -0.362082526 -0.870217712 -0.484175124 -0.0910800873 -0.864903346 -0.494757353 -0.0846012082 -0.855295251 -0.476785908 0.202842872 -0.846800904 -0.488433566 0.21062023 -0.741427439 -0.468389473 0.48051707 -0.72717112 -0.481391198 0.489371716 -0.528625675 -0.457540143 0.714990848 -0.515718371 -0.468885876 0.717063872 -0.226603113 -0.447826398 0.864929215 -0.240304354 -0.45651386 0.85664982 0.0997353265 -0.438303856 0.893276326 0.0903407823 -0.448591816 0.889159112 0.427880649 -0.423171478 0.798651395 0.420450375 -0.433768778 0.796910365 0.712778946 -0.407799414 0.570653845 0.693474874 -0.417121266 0.58745421 -0.141753813 0.692271942 0.707577144 -0.0835643637 0.674589208 0.733448292 0.12595762 0.682839973 0.719627855 0.184109807 0.665528896 0.72330828 0.386932043 0.677047793 0.626011086 0.448175823 0.659321861 0.603682959 0.601131926 0.672269711 0.43208083 0.647181042 0.654425683 0.391003484 0.724100271 0.669585236 0.165331213 0.750747268 0.65177008 0.107583931 0.727040765 0.669684268 -0.151442092 0.731931449 0.652302238 -0.19692167 0.602672092 0.670763053 -0.432276851 0.585266717 0.654703244 -0.478358163 0.366560657 0.678395544 -0.636720323 0.322250777 0.661832122 -0.676854991 0.0549812422 0.689868943 -0.721843407 -0.00464017014 0.673600505 -0.73908107 0.887314003 -0.389632769 0.24669853 0.877001515 -0.399627397 0.2667701 0.919271775 -0.368787249 -0.137605846 0.919980178 -0.378576234 -0.101570211 0.788542022 -0.34306954 -0.51039668 0.796194368 -0.356844886 -0.488606442 0.48894553 -0.313978685 -0.813848668 0.515372836 -0.326732081 -0.792235437 0.0693566297 -0.285219209 -0.955949612 0.129158299 -0.296536995 -0.946247296 -0.386640327 -0.253173376 -0.886799019 -0.313440456 -0.264779113 -0.911946874 -0.770705964 -0.218891968 -0.598413422 -0.713621661 -0.232326001 -0.660884827 -0.975011185 -0.181796039 -0.127684726 -0.954608416 -0.196987178 -0.223425208 -0.984263942 -0.162262396 0.0699671901 -0.981049751 -0.166942144 0.0983448345 -0.267406861 0.705759603 -0.656046457 -0.323497142 0.690160913 -0.647323345 -0.51955002 0.725130492 -0.451944185 -0.562804034 0.711274913 -0.421117106 -0.621296465 0.724873081 -0.297573048 -0.662517964 0.714380526 -0.225234124 0.824325681 -0.510666702 -0.244349526 0.830724465 -0.50109693 -0.242484495 0.857397059 -0.513937689 0.0271723318 0.863010392 -0.504094938 0.0331867018 0.846650481 -0.498670872 0.185769547 0.846127333 -0.507943125 0.161438277 0.598681496 0.761262737 0.249117465 0.607355098 0.769631871 0.196943059 0.550067465 0.777202745 0.305584158 0.64040611 0.754586398 0.143106194 0.652464744 0.757813216 -0.00298112038 0.666855918 0.74225686 -0.0660146843 0.629653742 0.746362644 -0.215589814 0.622998224 0.730450394 -0.27984895 0.534388904 0.735356744 -0.416748075 0.508061542 0.719251749 -0.473867482 0.371121641 0.724820439 -0.580434371 0.330187292 0.708703161 -0.623471075 0.154122022 0.71471897 -0.682219317 0.106374193 0.698801407 -0.707362089 -0.0871394577 0.704372636 -0.704461429 -0.142264517 0.688374526 -0.711267404 -0.328508049 0.697334937 -0.637029393 -0.394775081 0.680504054 -0.617306138 0.710875378 -0.496560171 -0.498080508 0.704230659 -0.506339748 -0.497673828 0.51176105 -0.490484446 -0.705354971 0.503805152 -0.50091822 -0.703748042 0.251063 -0.482819569 -0.838959257 0.24000515 -0.494283397 -0.835512688 -0.045029223 -0.473463409 -0.879661736 -0.0603826698 -0.4862376 -0.871737879 -0.353721574 -0.460996567 -0.813856998 -0.362927897 -0.472117124 -0.803360917 -0.634832937 -0.44904387 -0.62876605 -0.621825422 -0.457774257 -0.635433611 -0.82366676 -0.437201948 -0.361147511 -0.816043329 -0.44751254 -0.365794766 -0.907140718 -0.419786309 -0.0295833244 -0.902018105 -0.430388272 -0.0336046617 -0.853028009 -0.402459579 0.33221906 -0.857482875 -0.411949604 0.308254185 -0.541862143 0.691803887 -0.47727644 -0.59384163 0.674402617 -0.438786086 -0.685175498 0.683778743 -0.25096049 -0.717515633 0.666781916 -0.201427885 -0.733546002 0.679298444 0.0215380093 -0.744549277 0.661953878 0.0863911856 -0.672167847 0.675544736 0.303034148 -0.659381911 0.658018037 0.36363135 -0.502968667 0.673353232 0.541865246 -0.466457778 0.655756159 0.593633726 -0.231187562 0.673278404 0.702316526 -0.19485245 0.656008502 0.729167586 0.0731440185 0.673587193 0.735479602 0.120800445 0.657476727 0.74372818 0.367866607 0.679933916 0.634321708 0.423952433 0.663155389 0.616838118 0.59792004 0.689900848 0.40807897 0.642382622 0.673317603 0.366043675 -0.659529164 -0.383191748 0.646672534 -0.671269323 -0.393302584 0.628259957 -0.341508799 -0.362264288 0.867257935 -0.373061063 -0.372126846 0.849910027 0.048065702 -0.337618763 0.940054923 0.0247043748 -0.351470827 0.935872829 0.461353921 -0.310807417 0.830994169 0.428303092 -0.323492571 0.84374701 0.7936913 -0.285125074 0.537361901 0.754432704 -0.296121205 0.58578454 0.960589283 -0.256328981 0.107534563 0.945569496 -0.267493589 0.185325413 0.90206095 -0.224679806 -0.368517337 0.928123648 -0.237749353 -0.2864642 0.596854949 -0.188830891 -0.779812198 0.670063866 -0.20387918 -0.713756048 0.430886431 -0.169284856 -0.88638565 0.405119882 -0.173846688 -0.897582983 0.703217548 0.704435408 0.0962072568 0.723881373 0.688529034 0.0438580336 0.653262837 0.722958454 -0.224897176 0.648329367 0.7088731 -0.277791216 0.57042068 0.722359948 -0.390917322 0.528434875 0.711671932 -0.462903493 -0.20146367 -0.504841994 0.839372951 -0.206100932 -0.495112082 0.844029877 -0.45408961 -0.507669035 0.732171276 -0.462339554 -0.497666842 0.733873185 -0.586770374 -0.492170498 0.643015341 -0.565300005 -0.50157715 0.654871183 -0.512262293 0.7641771 0.391944771 -0.471722429 0.772525507 0.425067395 -0.536963341 0.779798791 0.321845019 -0.44163571 0.757728202 0.480422597 -0.321845321 0.760924138 0.563391556 -0.27481846 0.745543499 0.607157067 -0.127313037 0.749355514 0.649813592 -0.069023449 0.733518569 0.676155509 0.0936555755 0.73786098 0.668423374 0.155440743 0.721720092 0.674505956 0.316700878 0.726479604 0.609858951 0.373663519 0.710226135 0.596619152 0.513723136 0.715247575 0.473824278 0.558858163 0.699123867 0.445985844 0.654527323 0.703639328 0.276560446 0.687857564 0.687362882 0.233204289 0.717870128 0.695364854 0.033618424 0.734196897 0.678137595 -0.0329289937 0.0764483492 -0.491627823 0.867443217 0.078786209 -0.501557754 0.861529195 0.356175823 -0.487125782 0.797400311 0.357816914 -0.497700772 0.790101891 0.602007291 -0.481410516 0.637048771 0.603563177 -0.493010973 0.626619239 0.78429185 -0.474185609 0.400042876 0.784368804 -0.487091241 0.384067315 0.880275901 -0.463868206 0.0997026833 0.87553531 -0.475080261 0.0879583201 0.859437464 -0.453836143 -0.235372048 0.85904304 -0.462428973 -0.219555233 0.721974394 -0.443185634 -0.531356255 0.722670662 -0.453375628 -0.521725651 0.477417989 -0.426228096 -0.768375998 0.478626599 -0.436707103 -0.761710894 0.13850326 -0.408377685 -0.902244154 0.161122924 -0.417805434 -0.894135349 0.686890062 0.688769899 -0.231900989 0.679834058 0.671023969 -0.295892693 0.562466436 0.680063873 -0.47026018 0.535777866 0.662806834 -0.523095765 0.349858468 0.67544979 -0.649127594 0.29868912 0.657968841 -0.691275497 0.0742216505 0.6721656 -0.736671265 0.0144881816 0.65461988 -0.755819361 -0.217967684 0.670962313 -0.708731023 -0.282054124 0.653526355 -0.702387909 -0.492725746 0.672370588 -0.552394 -0.534886712 0.655269848 -0.533401942 -0.672792607 0.674187252 -0.304666469 -0.703941864 0.658356014 -0.266520564 -0.731469774 0.68187316 0.000981589994 -0.74413452 0.66543017 0.0588770305 -0.650034142 0.692719164 0.312403222 -0.635728222 0.676410359 0.371912158 -0.229433136 -0.387625174 -0.89280858 -0.208515518 -0.397683741 -0.893514925 -0.579294412 -0.364332033 -0.72916401 -0.549626575 -0.374327177 -0.746853261 -0.837996329 -0.336892532 -0.429261661 -0.823525755 -0.350786438 -0.44581858 -0.951520229 -0.307123804 -0.0168589205 -0.946094865 -0.319982954 -0.0501539124 -0.864117752 -0.279166762 0.418767751 -0.885884777 -0.290419774 0.36175201 -0.57485925 -0.249352109 0.779333285 -0.634287395 -0.260644859 0.72783498 -0.132090177 -0.218341485 0.966891504 -0.216512982 -0.231288407 0.948487112 0.377631262 -0.184874811 0.907312479 0.282731678 -0.199504572 0.938222108 0.552411207 -0.166637635 0.816745834 0.575098889 -0.171416038 0.799923627 -0.433059064 0.707448045 0.558549113 -0.398426089 0.691682995 0.602354784 -0.131124468 0.725477354 0.675639685 -0.0836520521 0.711384754 0.697806611 0.0532650176 0.724455123 0.68726095 0.136327116 0.713649574 0.687109309</float_array>
        <technique_common><accessor source="#vfx_kurp_1044-mesh-normals-array" count="252" stride="3"><param name="X" type="float"/><param name="Y" type="float"/><param name="Z" type="float"/></accessor></technique_common>
      </source>
      <source id="vfx_kurp_1044-mesh-uv0">
        <float_array id="vfx_kurp_1044-mesh-uv0-array" count="504">0.5 -0.900000095 0 -0.900000095 0.5 -0.950000048 0 -0.950000048 0 -1 0.5 -1 1 -1 0.5 -0.950000048 0.5 -1 1 -0.950000048 0.5 -0.900000095 1 -0.900000095 0.5 -0.850000024 1 -0.850000024 0.5 -0.799999952 1 -0.799999952 0.5 -0.75 1 -0.75 0.5 -0.700000048 1 -0.700000048 0.5 -0.650000095 1 -0.650000095 0.5 -0.600000024 1 -0.600000024 0 -0.850000024 0.5 -0.850000024 0 -0.799999952 0.5 -0.799999952 0 -0.75 0.5 -0.75 0 -0.700000048 0.5 -0.700000048 0 -0.650000095 0.5 -0.650000095 0 -0.600000024 0.5 -0.600000024 0 -0.549999952 0.5 -0.549999952 0 -0.5 0.5 -0.5 0 -0.450000048 0.5 -0.450000048 0.5 -0.549999952 1 -0.549999952 0.5 -0.5 1 -0.5 0.5 -0.450000048 1 -0.450000048 0.5 -0.399999976 1 -0.399999976 0.5 -0.350000024 1 -0.350000024 0.5 -0.299999952 1 -0.299999952 0.5 -0.25 1 -0.25 0.5 -0.200000048 1 -0.200000048 0.5 -0.149999976 1 -0.149999976 0 -0.399999976 0.5 -0.399999976 0 -0.350000024 0.5 -0.350000024 0 -0.299999952 0.5 -0.299999952 0 -0.25 0.5 -0.25 0 -0.200000048 0.5 -0.200000048 0 -0.149999976 0.5 -0.149999976 0 -0.100000024 0.5 -0.100000024 0 -0.0499999523 0.5 -0.0499999523 0 0 0.5 0 0.5 -0.100000024 1 -0.100000024 0.5 -0.0499999523 1 -0.0499999523 0.5 0 1 0 0.5 -0.900000095 0 -0.900000095 0.5 -0.950000048 0 -0.950000048 0 -1 0.5 -1 1 -1 0.5 -0.950000048 0.5 -1 1 -0.950000048 0.5 -0.900000095 1 -0.900000095 0.5 -0.850000024 1 -0.850000024 0.5 -0.799999952 1 -0.799999952 0.5 -0.75 1 -0.75 0.5 -0.700000048 1 -0.700000048 0.5 -0.650000095 1 -0.650000095 0.5 -0.600000024 1 -0.600000024 0 -0.850000024 0.5 -0.850000024 0 -0.799999952 0.5 -0.799999952 0 -0.75 0.5 -0.75 0 -0.700000048 0.5 -0.700000048 0 -0.650000095 0.5 -0.650000095 0 -0.600000024 0.5 -0.600000024 0 -0.549999952 0.5 -0.549999952 0 -0.5 0.5 -0.5 0 -0.450000048 0.5 -0.450000048 0.5 -0.549999952 1 -0.549999952 0.5 -0.5 1 -0.5 0.5 -0.450000048 1 -0.450000048 0.5 -0.399999976 1 -0.399999976 0.5 -0.350000024 1 -0.350000024 0.5 -0.299999952 1 -0.299999952 0.5 -0.25 1 -0.25 0.5 -0.200000048 1 -0.200000048 0.5 -0.149999976 1 -0.149999976 0 -0.399999976 0.5 -0.399999976 0 -0.350000024 0.5 -0.350000024 0 -0.299999952 0.5 -0.299999952 0 -0.25 0.5 -0.25 0 -0.200000048 0.5 -0.200000048 0 -0.149999976 0.5 -0.149999976 0 -0.100000024 0.5 -0.100000024 0 -0.0499999523 0.5 -0.0499999523 0 0 0.5 0 0.5 -0.100000024 1 -0.100000024 0.5 -0.0499999523 1 -0.0499999523 0.5 0 1 0 0.5 -0.900000095 0 -0.900000095 0.5 -0.950000048 0 -0.950000048 0 -1 0.5 -1 1 -1 0.5 -0.950000048 0.5 -1 1 -0.950000048 0.5 -0.900000095 1 -0.900000095 0.5 -0.850000024 1 -0.850000024 0.5 -0.799999952 1 -0.799999952 0.5 -0.75 1 -0.75 0.5 -0.700000048 1 -0.700000048 0.5 -0.650000095 1 -0.650000095 0.5 -0.600000024 1 -0.600000024 0 -0.850000024 0.5 -0.850000024 0 -0.799999952 0.5 -0.799999952 0 -0.75 0.5 -0.75 0 -0.700000048 0.5 -0.700000048 0 -0.650000095 0.5 -0.650000095 0 -0.600000024 0.5 -0.600000024 0 -0.549999952 0.5 -0.549999952 0 -0.5 0.5 -0.5 0 -0.450000048 0.5 -0.450000048 0.5 -0.549999952 1 -0.549999952 0.5 -0.5 1 -0.5 0.5 -0.450000048 1 -0.450000048 0.5 -0.399999976 1 -0.399999976 0.5 -0.350000024 1 -0.350000024 0.5 -0.299999952 1 -0.299999952 0.5 -0.25 1 -0.25 0.5 -0.200000048 1 -0.200000048 0.5 -0.149999976 1 -0.149999976 0 -0.399999976 0.5 -0.399999976 0 -0.350000024 0.5 -0.350000024 0 -0.299999952 0.5 -0.299999952 0 -0.25 0.5 -0.25 0 -0.200000048 0.5 -0.200000048 0 -0.149999976 0.5 -0.149999976 0 -0.100000024 0.5 -0.100000024 0 -0.0499999523 0.5 -0.0499999523 0 0 0.5 0 0.5 -0.100000024 1 -0.100000024 0.5 -0.0499999523 1 -0.0499999523 0.5 0 1 0</float_array>
        <technique_common><accessor source="#vfx_kurp_1044-mesh-uv0-array" count="252" stride="2"><param name="S" type="float"/><param name="T" type="float"/></accessor></technique_common>
      </source>
      <vertices id="vfx_kurp_1044-mesh-vertices"><input semantic="POSITION" source="#vfx_kurp_1044-mesh-positions"/></vertices>
      <triangles material="PreviewMaterial" count="240">
        <input semantic="VERTEX" source="#vfx_kurp_1044-mesh-vertices" offset="0"/>
        <input semantic="NORMAL" source="#vfx_kurp_1044-mesh-normals" offset="1"/>
        <input semantic="TEXCOORD" source="#vfx_kurp_1044-mesh-uv0" offset="2" set="0"/>
        <p>0 0 0 1 1 1 2 2 2 3 3 3 2 2 2 1 1 1 4 4 4 5 5 5 3 3 3 3 3 3 5 5 5 2 2 2 6 6 6 7 7 7 8 8 8 9 9 9 7 7 7 6 6 6 7 7 7 9 9 9 10 10 10 11 11 11 10 10 10 9 9 9 10 10 10 11 11 11 12 12 12 13 13 13 12 12 12 11 11 11 12 12 12 13 13 13 14 14 14 15 15 15 14 14 14 13 13 13 14 14 14 15 15 15 16 16 16 17 17 17 16 16 16 15 15 15 16 16 16 17 17 17 18 18 18 19 19 19 18 18 18 17 17 17 18 18 18 19 19 19 20 20 20 21 21 21 20 20 20 19 19 19 20 20 20 21 21 21 22 22 22 23 23 23 22 22 22 21 21 21 1 1 1 0 0 0 24 24 24 25 25 25 24 24 24 0 0 0 24 24 24 25 25 25 26 26 26 27 27 27 26 26 26 25 25 25 26 26 26 27 27 27 28 28 28 29 29 29 28 28 28 27 27 27 28 28 28 29 29 29 30 30 30 31 31 31 30 30 30 29 29 29 30 30 30 31 31 31 32 32 32 33 33 33 32 32 32 31 31 31 32 32 32 33 33 33 34 34 34 35 35 35 34 34 34 33 33 33 34 34 34 35 35 35 36 36 36 37 37 37 36 36 36 35 35 35 36 36 36 37 37 37 38 38 38 39 39 39 38 38 38 37 37 37 38 38 38 39 39 39 40 40 40 41 41 41 40 40 40 39 39 39 22 22 22 23 23 23 42 42 42 43 43 43 42 42 42 23 23 23 42 42 42 43 43 43 44 44 44 45 45 45 44 44 44 43 43 43 44 44 44 45 45 45 46 46 46 47 47 47 46 46 46 45 45 45 46 46 46 47 47 47 48 48 48 49 49 49 48 48 48 47 47 47 48 48 48 49 49 49 50 50 50 51 51 51 50 50 50 49 49 49 50 50 50 51 51 51 52 52 52 53 53 53 52 52 52 51 51 51 52 52 52 53 53 53 54 54 54 55 55 55 54 54 54 53 53 53 54 54 54 55 55 55 56 56 56 57 57 57 56 56 56 55 55 55 56 56 56 57 57 57 58 58 58 59 59 59 58 58 58 57 57 57 40 40 40 41 41 41 60 60 60 61 61 61 60 60 60 41 41 41 60 60 60 61 61 61 62 62 62 63 63 63 62 62 62 61 61 61 62 62 62 63 63 63 64 64 64 65 65 65 64 64 64 63 63 63 64 64 64 65 65 65 66 66 66 67 67 67 66 66 66 65 65 65 66 66 66 67 67 67 68 68 68 69 69 69 68 68 68 67 67 67 68 68 68 69 69 69 70 70 70 71 71 71 70 70 70 69 69 69 70 70 70 71 71 71 72 72 72 73 73 73 72 72 72 71 71 71 72 72 72 73 73 73 74 74 74 75 75 75 74 74 74 73 73 73 74 74 74 75 75 75 76 76 76 77 77 77 76 76 76 75 75 75 58 58 58 59 59 59 78 78 78 79 79 79 78 78 78 59 59 59 78 78 78 79 79 79 80 80 80 81 81 81 80 80 80 79 79 79 80 80 80 81 81 81 82 82 82 83 83 83 82 82 82 81 81 81 84 84 84 85 85 85 86 86 86 87 87 87 86 86 86 85 85 85 88 88 88 89 89 89 87 87 87 87 87 87 89 89 89 86 86 86 90 90 90 91 91 91 92 92 92 93 93 93 91 91 91 90 90 90 91 91 91 93 93 93 94 94 94 95 95 95 94 94 94 93 93 93 94 94 94 95 95 95 96 96 96 97 97 97 96 96 96 95 95 95 96 96 96 97 97 97 98 98 98 99 99 99 98 98 98 97 97 97 98 98 98 99 99 99 100 100 100 101 101 101 100 100 100 99 99 99 100 100 100 101 101 101 102 102 102 103 103 103 102 102 102 101 101 101 102 102 102 103 103 103 104 104 104 105 105 105 104 104 104 103 103 103 104 104 104 105 105 105 106 106 106 107 107 107 106 106 106 105 105 105 85 85 85 84 84 84 108 108 108 109 109 109 108 108 108 84 84 84 108 108 108 109 109 109 110 110 110 111 111 111 110 110 110 109 109 109 110 110 110 111 111 111 112 112 112 113 113 113 112 112 112 111 111 111 112 112 112 113 113 113 114 114 114 115 115 115 114 114 114 113 113 113 114 114 114 115 115 115 116 116 116 117 117 117 116 116 116 115 115 115 116 116 116 117 117 117 118 118 118 119 119 119 118 118 118 117 117 117 118 118 118 119 119 119 120 120 120 121 121 121 120 120 120 119 119 119 120 120 120 121 121 121 122 122 122 123 123 123 122 122 122 121 121 121 122 122 122 123 123 123 124 124 124 125 125 125 124 124 124 123 123 123 106 106 106 107 107 107 126 126 126 127 127 127 126 126 126 107 107 107 126 126 126 127 127 127 128 128 128 129 129 129 128 128 128 127 127 127 128 128 128 129 129 129 130 130 130 131 131 131 130 130 130 129 129 129 130 130 130 131 131 131 132 132 132 133 133 133 132 132 132 131 131 131 132 132 132 133 133 133 134 134 134 135 135 135 134 134 134 133 133 133 134 134 134 135 135 135 136 136 136 137 137 137 136 136 136 135 135 135 136 136 136 137 137 137 138 138 138 139 139 139 138 138 138 137 137 137 138 138 138 139 139 139 140 140 140 141 141 141 140 140 140 139 139 139 140 140 140 141 141 141 142 142 142 143 143 143 142 142 142 141 141 141 124 124 124 125 125 125 144 144 144 145 145 145 144 144 144 125 125 125 144 144 144 145 145 145 146 146 146 147 147 147 146 146 146 145 145 145 146 146 146 147 147 147 148 148 148 149 149 149 148 148 148 147 147 147 148 148 148 149 149 149 150 150 150 151 151 151 150 150 150 149 149 149 150 150 150 151 151 151 152 152 152 153 153 153 152 152 152 151 151 151 152 152 152 153 153 153 154 154 154 155 155 155 154 154 154 153 153 153 154 154 154 155 155 155 156 156 156 157 157 157 156 156 156 155 155 155 156 156 156 157 157 157 158 158 158 159 159 159 158 158 158 157 157 157 158 158 158 159 159 159 160 160 160 161 161 161 160 160 160 159 159 159 142 142 142 143 143 143 162 162 162 163 163 163 162 162 162 143 143 143 162 162 162 163 163 163 164 164 164 165 165 165 164 164 164 163 163 163 164 164 164 165 165 165 166 166 166 167 167 167 166 166 166 165 165 165 168 168 168 169 169 169 170 170 170 171 171 171 170 170 170 169 169 169 172 172 172 173 173 173 171 171 171 171 171 171 173 173 173 170 170 170 174 174 174 175 175 175 176 176 176 177 177 177 175 175 175 174 174 174 175 175 175 177 177 177 178 178 178 179 179 179 178 178 178 177 177 177 178 178 178 179 179 179 180 180 180 181 181 181 180 180 180 179 179 179 180 180 180 181 181 181 182 182 182 183 183 183 182 182 182 181 181 181 182 182 182 183 183 183 184 184 184 185 185 185 184 184 184 183 183 183 184 184 184 185 185 185 186 186 186 187 187 187 186 186 186 185 185 185 186 186 186 187 187 187 188 188 188 189 189 189 188 188 188 187 187 187 188 188 188 189 189 189 190 190 190 191 191 191 190 190 190 189 189 189 169 169 169 168 168 168 192 192 192 193 193 193 192 192 192 168 168 168 192 192 192 193 193 193 194 194 194 195 195 195 194 194 194 193 193 193 194 194 194 195 195 195 196 196 196 197 197 197 196 196 196 195 195 195 196 196 196 197 197 197 198 198 198 199 199 199 198 198 198 197 197 197 198 198 198 199 199 199 200 200 200 201 201 201 200 200 200 199 199 199 200 200 200 201 201 201 202 202 202 203 203 203 202 202 202 201 201 201 202 202 202 203 203 203 204 204 204 205 205 205 204 204 204 203 203 203 204 204 204 205 205 205 206 206 206 207 207 207 206 206 206 205 205 205 206 206 206 207 207 207 208 208 208 209 209 209 208 208 208 207 207 207 190 190 190 191 191 191 210 210 210 211 211 211 210 210 210 191 191 191 210 210 210 211 211 211 212 212 212 213 213 213 212 212 212 211 211 211 212 212 212 213 213 213 214 214 214 215 215 215 214 214 214 213 213 213 214 214 214 215 215 215 216 216 216 217 217 217 216 216 216 215 215 215 216 216 216 217 217 217 218 218 218 219 219 219 218 218 218 217 217 217 218 218 218 219 219 219 220 220 220 221 221 221 220 220 220 219 219 219 220 220 220 221 221 221 222 222 222 223 223 223 222 222 222 221 221 221 222 222 222 223 223 223 224 224 224 225 225 225 224 224 224 223 223 223 224 224 224 225 225 225 226 226 226 227 227 227 226 226 226 225 225 225 208 208 208 209 209 209 228 228 228 229 229 229 228 228 228 209 209 209 228 228 228 229 229 229 230 230 230 231 231 231 230 230 230 229 229 229 230 230 230 231 231 231 232 232 232 233 233 233 232 232 232 231 231 231 232 232 232 233 233 233 234 234 234 235 235 235 234 234 234 233 233 233 234 234 234 235 235 235 236 236 236 237 237 237 236 236 236 235 235 235 236 236 236 237 237 237 238 238 238 239 239 239 238 238 238 237 237 237 238 238 238 239 239 239 240 240 240 241 241 241 240 240 240 239 239 239 240 240 240 241 241 241 242 242 242 243 243 243 242 242 242 241 241 241 242 242 242 243 243 243 244 244 244 245 245 245 244 244 244 243 243 243 226 226 226 227 227 227 246 246 246 247 247 247 246 246 246 227 227 227 246 246 246 247 247 247 248 248 248 249 249 249 248 248 248 247 247 247 248 248 248 249 249 249 250 250 250 251 251 251 250 250 250 249 249 249</p>
      </triangles>
    </mesh></geometry>
  </library_geometries>
  <library_visual_scenes>
    <visual_scene id="Scene" name="Scene">
      <node id="vfx_kurp_1044" name="vfx_kurp_1044" type="NODE">
        <instance_geometry url="#vfx_kurp_1044-mesh"><bind_material><technique_common><instance_material symbol="PreviewMaterial" target="#PreviewMaterial"><bind_vertex_input semantic="UVSET0" input_semantic="TEXCOORD" input_set="0"/></instance_material></technique_common></bind_material></instance_geometry>
      </node>
    </visual_scene>
  </library_visual_scenes>
  <scene><instance_visual_scene url="#Scene"/></scene>
</COLLADA>
