<?xml version="1.0" encoding="utf-8"?>
<COLLADA xmlns="http://www.collada.org/2005/11/COLLADASchema" version="1.4.1">
  <asset>
    <contributor><authoring_tool>Morrobroom Kurpulio VFX preview converter</authoring_tool></contributor>
    <unit name="unit" meter="1"/>
    <up_axis>Z_UP</up_axis>
  </asset>
  <library_images>
    <image id="VFXTexture" name="darkmap_newgen-1.dds">
      <init_from>../../../Textures/Kurp/darkmap_newgen-1.dds</init_from>
    </image>
  </library_images>
  <library_effects>
    <effect id="PreviewEffect">
      <profile_COMMON>
        <newparam sid="VFXTexture-surface">
          <surface type="2D"><init_from>VFXTexture</init_from></surface>
        </newparam>
        <newparam sid="VFXTexture-sampler">
          <sampler2D><source>VFXTexture-surface</source></sampler2D>
        </newparam>
        <technique sid="common"><phong>
          <emission><color>0.08 0.08 0.08 1</color></emission>
          <ambient><color>0.2 0.2 0.2 1</color></ambient>
          <diffuse><texture texture="VFXTexture-sampler" texcoord="UVSET0"/></diffuse>
          <specular><color>0.15 0.15 0.15 1</color></specular>
          <shininess><float>8</float></shininess>
          <transparent opaque="A_ONE"><texture texture="VFXTexture-sampler" texcoord="UVSET0"/></transparent>
          <transparency><float>1</float></transparency>
        </phong></technique>
      </profile_COMMON>
      <extra><technique profile="GOOGLEEARTH"><double_sided>1</double_sided></technique></extra>
    </effect>
  </library_effects>
  <library_materials><material id="PreviewMaterial" name="PreviewMaterial"><instance_effect url="#PreviewEffect"/></material></library_materials>
  <library_geometries>
    <geometry id="vfx_kurp_1122-mesh" name="vfx_kurp_1122"><mesh>
      <source id="vfx_kurp_1122-mesh-positions">
        <float_array id="vfx_kurp_1122-mesh-positions-array" count="291">3.66629911 -2.19367235 1.7252215 3.4396125 -2.06588183 1.40682921 3.70041061 -0.628308542 1.72582762 3.53743466 -0.499107837 1.40713235 3.40049355 -0.20553003 1.08843709 3.23896137 -1.77371447 1.08843701 2.55082027 -3.19207731 1.08843685 2.67648642 -3.4429561 1.40575131 2.82818694 -3.52945741 1.72306601 2.99034065 -3.56151949 2.07897325 3.77996462 -2.27570007 2.08002559 3.11772386 -3.46921865 2.43488065 3.85885994 -2.23336631 2.43482952 3.22902585 -3.12615971 2.76254088 3.89710711 -2.03906413 2.76251515 3.28856749 -2.76640596 3.09020079 3.88359361 -1.82806747 3.09020047 3.4635957 -2.56809214 3.41741861 3.97212083 -1.76294765 3.41741829 3.57876087 -2.40470697 3.74463611 3.98792479 -1.78845847 3.74463611 3.81860464 -0.7799958 2.08055295 3.90202818 -0.807321568 2.43527828 3.92052214 -0.777636496 2.76273969 3.88725543 -0.731257888 3.09020079 3.98114168 -0.828493614 3.41741829 3.98934379 -1.07249783 3.74463548 3.84967902 -1.84233715 4.0718533 3.85686896 -1.45628782 4.07185298 3.64919557 -1.93290251 4.39907017 3.63866711 -2.17831222 4.0718533 -3.46923961 1.08371355 2.2092143 -3.3386319 1.00527398 1.86736094 -3.88489795 -0.19442546 2.20935309 -3.71332037 -0.315293728 1.86763867 -3.32232837 -0.3827602 1.48029134 -2.97717777 0.948360954 1.48015256 -2.93508045 -0.343009875 1.09294402 -2.6194674 0.998664748 1.09294386 -3.97141133 -0.13215572 2.55106719 -3.51478312 1.10355481 2.55106735 -3.5515808 1.03085006 2.84647034 -3.95079428 -0.0775815072 2.84647034 -3.50375667 0.887534496 3.14187316 -3.84555478 -0.0936180465 3.14187316 -3.62192085 -1.11003724 3.14187348 -3.64037321 -1.22832917 2.84647065 -3.57420408 -1.41723175 2.55106735 -3.42618571 -1.57149999 2.21012611 -3.19310345 -1.78436631 1.8691847 -2.90838121 -1.80562712 1.48106452 -2.62740305 -1.71967112 1.0929441 -3.43806425 0.699400414 3.43727662 -3.74641145 -0.153734669 3.43727662 -3.49642413 -1.05208792 3.43727662 -3.68711498 -0.239390788 3.73267913 -3.40807699 -0.942442407 3.73267945 -3.68711498 -0.239390788 3.73267913 -3.40807699 -0.942442407 3.73267945 -3.66918125 -0.436326448 4.02808259 -3.53101075 -0.826470321 4.02808259 -3.70434207 -0.706412665 4.32348541 -3.53173263 -0.0737674923 4.02808259 -3.66918125 -0.436326448 4.02808259 -3.70434207 -0.706412665 4.32348541 -3.41478959 0.412092547 3.73267945 3.15077428 2.42073912 2.76559642 2.96433916 2.42318743 2.34164118 1.74239237 3.37933437 2.76559642 1.41872966 3.39023472 2.34195178 2.86499447 2.34897086 1.91768593 1.18215716 3.32447052 1.91830698 1.07801581 2.95927199 1.49837831 2.7369386 2.04881941 1.49806771 3.12957 2.39103865 3.16709719 1.83178138 3.27850399 3.16709719 2.84697562 2.44925101 3.56859828 1.65977965 3.26558629 3.56859796 0.224081373 3.31522068 3.56859828 0.237065169 3.27512704 3.16709719 -0.0113414365 3.32294608 2.76559611 -0.453083105 3.4137282 2.34048213 -0.807734516 3.42784544 1.91536831 -0.826560596 3.17575504 1.49690898 -0.741544105 2.89969097 1.07844964 1.0777168 2.57009979 1.07844964 2.71272514 1.72469429 1.07844964 2.51542126 2.71383099 3.97009968 1.42866582 3.335792 3.97009936 0.156750086 3.38908219 3.97009936 1.2727958 3.47275058 4.37160045 0.293030856 3.50006055 4.37160045 0.599871999 3.40866516 4.77310153 1.15393856 3.38019218 4.77310122 1.35184929 3.21450209 5.17460199 1.64709617 3.16639881 4.77310122 2.13489245 3.07384231 4.37160045</float_array>
        <technique_common><accessor source="#vfx_kurp_1122-mesh-positions-array" count="97" stride="3"><param name="X" type="float"/><param name="Y" type="float"/><param name="Z" type="float"/></accessor></technique_common>
      </source>
      <source id="vfx_kurp_1122-mesh-normals">
        <float_array id="vfx_kurp_1122-mesh-normals-array" count="291">0.846126328 -0.239673006 -0.476053661 0.747837468 -0.210524823 -0.629617678 0.903536557 -0.0386106856 -0.426767975 0.87685574 -0.0747261428 -0.474910533 0.881889456 -0.0908397504 -0.462622013 0.776414198 -0.149589073 -0.612212465 0.698540268 -0.379838793 -0.606435475 0.723221304 -0.426273288 -0.543361785 0.759807695 -0.476011836 -0.442837441 0.809896949 -0.502236547 -0.303027035 0.919009786 -0.295280182 -0.26120993 0.853188723 -0.519245129 -0.0495327992 0.949249406 -0.312701828 -0.03381024 0.822715158 -0.497511294 0.274995057 0.950563201 -0.27825776 0.137848542 0.822690147 -0.512045394 0.246962418 0.965412238 -0.260492558 -0.0110832432 0.841038821 -0.532412885 -0.0958656369 0.957031077 -0.257764043 -0.13285035 0.841258839 -0.538698504 0.0456890286 0.952275184 -0.273102232 0.136334677 0.958964251 -0.0227933531 -0.28260932 0.989198281 -0.0230842385 -0.144754546 0.999628916 -0.0118512271 0.0245271049 0.996832713 -0.00332801691 -0.0794573265 0.980974442 -0.00612609046 -0.19404024 0.99757444 -0.00830686737 0.0691102886 0.88222979 -0.266996737 0.387792909 0.918939547 -0.0171143863 0.394026912 0.844501395 -0.321245946 0.428507218 0.819090422 -0.514436481 0.253862141 -0.907264454 0.31290617 -0.280999893 -0.793847198 0.23381245 -0.561371859 -0.939736793 -0.00150049887 -0.341895464 -0.825053936 -0.0493771549 -0.562892441 -0.71357773 -0.0331317923 -0.699792189 -0.717841274 0.178521009 -0.672929532 -0.719959622 0.0012356937 -0.694014853 -0.734570552 0.172798929 -0.656160524 -0.995606587 0.022271739 -0.0909477534 -0.933961759 0.34512395 -0.0927625532 -0.934174481 0.341142447 0.104593829 -0.980302848 0.0681733921 0.185361038 -0.887546477 0.314911424 0.33629161 -0.93910476 0.0670868101 0.337018707 -0.929438307 -0.245219309 0.2757026 -0.958562084 -0.279884937 0.0531333615 -0.936208124 -0.302536218 -0.17884682 -0.885469004 -0.305981303 -0.349742883 -0.809046736 -0.260308561 -0.526956195 -0.77370347 -0.203762639 -0.599886428 -0.778932457 -0.174087823 -0.602459673 -0.871979501 0.308586905 0.380034041 -0.953940889 0.06223016 0.293469227 -0.883963999 -0.280064641 0.374394773 -0.957832117 0.140225979 0.250787382 -0.858506666 -0.340737218 0.383228981 -0.91321485 -0.362450922 -0.186193359 -0.913226138 -0.34066451 -0.223530116 -0.903907079 -0.341182 -0.257966732 -0.899380872 -0.318518165 -0.299433175 -0.869887397 -0.308072949 -0.385210299 -0.896741585 0.358544356 0.25942335 -0.909721055 0.344881586 0.231223473 -0.914579998 0.34672365 0.208149316 -0.879050927 0.335660166 0.338528759 0.561863078 0.825497289 -0.0535173503 0.527658468 0.809292087 -0.258114043 0.306559471 0.951392764 -0.02954825 0.231160393 0.95523592 -0.184632633 0.451494604 0.765925824 -0.457722902 0.214292545 0.867359953 -0.449183055 0.234930414 0.715161274 -0.658294806 0.376960206 0.706044354 -0.59950177 0.556333852 0.815566021 0.159200225 0.352648115 0.920958356 0.165755886 0.556144229 0.811598228 0.178918731 0.303378638 0.949891498 0.0752830945 0.0229756031 0.991726577 -0.126295358 -0.0170407256 0.998900936 0.0436638811 -0.00492496038 0.986015428 0.166581271 0.0386964593 0.998800726 0.0299948948 0.0491492155 0.936192935 -0.348033251 0.0721877572 0.838613728 -0.539922164 0.102118692 0.822711341 -0.559211786 0.270553591 0.709965712 -0.65019185 0.374038541 0.723387944 -0.580349078 0.540482997 0.835477946 -0.0992709992 0.24559701 0.957502147 -0.151234079 0.0362021929 0.973244264 -0.226903069 0.222628786 0.974773462 0.0159097835 0.0276596715 0.992310768 -0.120641128 0.0357942428 0.970185389 0.239706245 0.184964161 0.939883808 0.287065649 0.278001992 0.928509645 0.246139659 0.386210831 0.890873318 0.239135788 0.460434089 0.876361985 -0.141386423</float_array>
        <technique_common><accessor source="#vfx_kurp_1122-mesh-normals-array" count="97" stride="3"><param name="X" type="float"/><param name="Y" type="float"/><param name="Z" type="float"/></accessor></technique_common>
      </source>
      <source id="vfx_kurp_1122-mesh-uv0">
        <float_array id="vfx_kurp_1122-mesh-uv0-array" count="194">0.503616691 0.796165526 0.503616691 0.896985292 0.033203125 0.796875 0.033203125 0.897460938 0.033203125 0.998046875 0.503616691 0.997804999 0.94921875 0.998046875 0.951171875 0.897460938 0.953125 0.796875 0.954101562 0.697265625 0.503616691 0.696885765 0.955078125 0.59765625 0.503616691 0.597605944 0.956054688 0.498046875 0.503616691 0.497961402 0.95703125 0.3984375 0.503616691 0.398316801 0.958007812 0.302734375 0.503616691 0.302228093 0.958984375 0.20703125 0.503616691 0.206139326 0.033203125 0.697265625 0.033203125 0.59765625 0.033203125 0.498046875 0.033203125 0.3984375 0.033203125 0.302734375 0.033203125 0.20703125 0.503567696 0.104363441 0.268360913 0.104809403 0.503518701 0.00258749723 0.731251538 0.104809403 0.033203125 0.697265625 0.033203125 0.796875 0.503616691 0.696885765 0.503616691 0.796165526 0.503616691 0.896985292 0.033203125 0.897460938 0.503616691 0.997804999 0.033203125 0.998046875 0.503616691 0.597605944 0.033203125 0.59765625 0.033203125 0.498046875 0.503616691 0.497961402 0.033203125 0.3984375 0.503616691 0.398316801 0.95703125 0.3984375 0.956054688 0.498046875 0.955078125 0.59765625 0.954101562 0.697265625 0.953125 0.796875 0.951171875 0.897460938 0.94921875 0.998046875 0.033203125 0.302734375 0.503616691 0.302228093 0.958007812 0.302734375 0.503616691 0.206139326 0.958984375 0.20703125 0.503616691 0.206139326 0.958984375 0.20703125 0.503567696 0.104363441 0.731251538 0.104809403 0.503518701 0.00258749723 0.268360913 0.104809403 0.503567696 0.104363441 0.503518701 0.00258749723 0.033203125 0.20703125 0.955078125 0.59765625 0.954101562 0.697265625 0.503616691 0.597605944 0.503616691 0.696885765 0.953125 0.796875 0.503616691 0.796165526 0.503616691 0.896985292 0.951171875 0.897460938 0.956054688 0.498046875 0.503616691 0.497961402 0.95703125 0.3984375 0.503616691 0.398316801 0.033203125 0.3984375 0.033203125 0.498046875 0.033203125 0.59765625 0.033203125 0.697265625 0.033203125 0.796875 0.033203125 0.897460938 0.033203125 0.998046875 0.503616691 0.997804999 0.94921875 0.998046875 0.958007812 0.302734375 0.503616691 0.302228093 0.033203125 0.302734375 0.503616691 0.206139326 0.033203125 0.20703125 0.268360913 0.104809403 0.503567696 0.104363441 0.503518701 0.00258749723 0.731251538 0.104809403 0.958984375 0.20703125</float_array>
        <technique_common><accessor source="#vfx_kurp_1122-mesh-uv0-array" count="97" stride="2"><param name="S" type="float"/><param name="T" type="float"/></accessor></technique_common>
      </source>
      <source id="vfx_kurp_1122-mesh-colors">
        <float_array id="vfx_kurp_1122-mesh-colors-array" count="388">1 1 1 1 1 1 1 0.5 1 1 1 0 1 1 1 0 1 1 1 0 1 1 1 0 1 1 1 0 1 1 1 0 1 1 1 0 1 1 1 0 1 1 1 1 1 1 1 0 1 1 1 1 1 1 1 0 1 1 1 1 1 1 1 0 1 1 1 1 1 1 1 0 1 1 1 1 1 1 1 0 1 1 1 1 1 1 1 0 1 1 1 0 1 1 1 0 1 1 1 0 1 1 1 0 1 1 1 0 1 1 1 0.5 1 1 1 0 1 1 1 0 1 1 1 0 1 1 1 0 1 1 1 0 1 1 1 1 1 1 1 1 1 1 1 0.5 1 1 1 0 1 1 1 0 1 1 1 0 1 1 1 1 1 1 1 0 1 1 1 0 1 1 1 1 1 1 1 0 1 1 1 1 1 1 1 0 1 1 1 0 1 1 1 0 1 1 1 0 1 1 1 0 1 1 1 0 1 1 1 0 1 1 1 0 1 1 1 1 1 1 1 0 1 1 1 1 1 1 1 0 1 1 1 1 1 1 1 0 1 1 1 0.5 1 1 1 0 1 1 1 0 1 1 1 0 1 1 1 0.5 1 1 1 0 1 1 1 0 1 1 1 0.00999999978 1 1 1 0.00999999978 1 1 1 1 1 1 1 1 1 1 1 0.00999999978 1 1 1 1 1 1 1 0.504999995 1 1 1 0.00999999978 1 1 1 0.00999999978 1 1 1 1 1 1 1 0.00999999978 1 1 1 1 1 1 1 0.00999999978 1 1 1 0.00999999978 1 1 1 0.00999999978 1 1 1 0.00999999978 1 1 1 0.00999999978 1 1 1 0.00999999978 1 1 1 0.00999999978 1 1 1 0.00999999978 1 1 1 0.00999999978 1 1 1 0.00999999978 1 1 1 1 1 1 1 0.00999999978 1 1 1 1 1 1 1 0.00999999978 1 1 1 0.00999999978 1 1 1 0.504999995 1 1 1 0.00999999978 1 1 1 0.00999999978 1 1 1 0.00999999978</float_array>
        <technique_common><accessor source="#vfx_kurp_1122-mesh-colors-array" count="97" stride="4"><param name="R" type="float"/><param name="G" type="float"/><param name="B" type="float"/><param name="A" type="float"/></accessor></technique_common>
      </source>
      <vertices id="vfx_kurp_1122-mesh-vertices"><input semantic="POSITION" source="#vfx_kurp_1122-mesh-positions"/></vertices>
      <triangles material="PreviewMaterial" count="114">
        <input semantic="VERTEX" source="#vfx_kurp_1122-mesh-vertices" offset="0"/>
        <input semantic="NORMAL" source="#vfx_kurp_1122-mesh-normals" offset="1"/>
        <input semantic="TEXCOORD" source="#vfx_kurp_1122-mesh-uv0" offset="2" set="0"/>
        <input semantic="COLOR" source="#vfx_kurp_1122-mesh-colors" offset="3" set="0"/>
        <p>0 0 0 0 1 1 1 1 2 2 2 2 3 3 3 3 2 2 2 2 1 1 1 1 4 4 4 4 3 3 3 3 5 5 5 5 1 1 1 1 5 5 5 5 3 3 3 3 5 5 5 5 1 1 1 1 6 6 6 6 6 6 6 6 1 1 1 1 7 7 7 7 0 0 0 0 7 7 7 7 1 1 1 1 7 7 7 7 0 0 0 0 8 8 8 8 8 8 8 8 0 0 0 0 9 9 9 9 10 10 10 10 9 9 9 9 0 0 0 0 9 9 9 9 10 10 10 10 11 11 11 11 12 12 12 12 11 11 11 11 10 10 10 10 11 11 11 11 12 12 12 12 13 13 13 13 14 14 14 14 13 13 13 13 12 12 12 12 13 13 13 13 14 14 14 14 15 15 15 15 16 16 16 16 15 15 15 15 14 14 14 14 15 15 15 15 16 16 16 16 17 17 17 17 18 18 18 18 17 17 17 17 16 16 16 16 17 17 17 17 18 18 18 18 19 19 19 19 20 20 20 20 19 19 19 19 18 18 18 18 21 21 21 21 0 0 0 0 2 2 2 2 0 0 0 0 21 21 21 21 10 10 10 10 22 22 22 22 10 10 10 10 21 21 21 21 10 10 10 10 22 22 22 22 12 12 12 12 12 12 12 12 22 22 22 22 14 14 14 14 23 23 23 23 14 14 14 14 22 22 22 22 14 14 14 14 23 23 23 23 16 16 16 16 24 24 24 24 16 16 16 16 23 23 23 23 25 25 25 25 16 16 16 16 24 24 24 24 16 16 16 16 25 25 25 25 18 18 18 18 26 26 26 26 18 18 18 18 25 25 25 25 18 18 18 18 26 26 26 26 20 20 20 20 20 20 20 20 26 26 26 26 27 27 27 27 28 28 28 28 27 27 27 27 26 26 26 26 29 29 29 29 27 27 27 27 28 28 28 28 30 30 30 30 27 27 27 27 29 29 29 29 19 19 19 19 27 27 27 27 30 30 30 30 20 20 20 20 27 27 27 27 19 19 19 19 31 31 31 31 32 32 32 32 33 33 33 33 33 33 33 33 32 32 32 32 34 34 34 34 34 34 34 34 32 32 32 32 35 35 35 35 36 36 36 36 35 35 35 35 32 32 32 32 35 35 35 35 36 36 36 36 37 37 37 37 38 38 38 38 37 37 37 37 36 36 36 36 39 39 39 39 31 31 31 31 33 33 33 33 31 31 31 31 39 39 39 39 40 40 40 40 40 40 40 40 39 39 39 39 41 41 41 41 42 42 42 42 41 41 41 41 39 39 39 39 41 41 41 41 42 42 42 42 43 43 43 43 43 43 43 43 42 42 42 42 44 44 44 44 44 44 44 44 42 42 42 42 45 45 45 45 45 45 45 45 42 42 42 42 46 46 46 46 39 39 39 39 46 46 46 46 42 42 42 42 46 46 46 46 39 39 39 39 47 47 47 47 33 33 33 33 47 47 47 47 39 39 39 39 47 47 47 47 33 33 33 33 48 48 48 48 34 34 34 34 48 48 48 48 33 33 33 33 48 48 48 48 34 34 34 34 49 49 49 49 35 35 35 35 49 49 49 49 34 34 34 34 49 49 49 49 35 35 35 35 50 50 50 50 37 37 37 37 50 50 50 50 35 35 35 35 51 51 51 51 50 50 50 50 37 37 37 37 43 43 43 43 44 44 44 44 52 52 52 52 52 52 52 52 44 44 44 44 53 53 53 53 45 45 45 45 53 53 53 53 44 44 44 44 54 54 54 54 53 53 53 53 45 45 45 45 53 53 53 53 54 54 54 54 55 55 55 55 56 56 56 56 55 55 55 55 54 54 54 54 57 57 57 57 58 58 58 58 59 59 59 59 60 60 60 60 59 59 59 59 58 58 58 58 61 61 61 61 59 59 59 59 60 60 60 60 62 62 62 62 63 63 63 63 64 64 64 64 63 63 63 63 62 62 62 62 55 55 55 55 65 65 65 65 55 55 55 55 62 62 62 62 55 55 55 55 65 65 65 65 53 53 53 53 52 52 52 52 53 53 53 53 65 65 65 65 66 66 66 66 67 67 67 67 68 68 68 68 68 68 68 68 67 67 67 67 69 69 69 69 70 70 70 70 69 69 69 69 67 67 67 67 69 69 69 69 70 70 70 70 71 71 71 71 71 71 71 71 70 70 70 70 72 72 72 72 73 73 73 73 72 72 72 72 70 70 70 70 66 66 66 66 68 68 68 68 74 74 74 74 75 75 75 75 74 74 74 74 68 68 68 68 74 74 74 74 75 75 75 75 76 76 76 76 76 76 76 76 75 75 75 75 77 77 77 77 77 77 77 77 75 75 75 75 78 78 78 78 78 78 78 78 75 75 75 75 79 79 79 79 68 68 68 68 79 79 79 79 75 75 75 75 79 79 79 79 68 68 68 68 80 80 80 80 69 69 69 69 80 80 80 80 68 68 68 68 80 80 80 80 69 69 69 69 81 81 81 81 71 71 71 71 81 81 81 81 69 69 69 69 81 81 81 81 71 71 71 71 82 82 82 82 82 82 82 82 71 71 71 71 83 83 83 83 72 72 72 72 83 83 83 83 71 71 71 71 83 83 83 83 72 72 72 72 84 84 84 84 84 84 84 84 72 72 72 72 85 85 85 85 73 73 73 73 85 85 85 85 72 72 72 72 86 86 86 86 85 85 85 85 73 73 73 73 76 76 76 76 77 77 77 77 87 87 87 87 87 87 87 87 77 77 77 77 88 88 88 88 78 78 78 78 88 88 88 88 77 77 77 77 89 89 89 89 88 88 88 88 78 78 78 78 88 88 88 88 89 89 89 89 90 90 90 90 91 91 91 91 90 90 90 90 89 89 89 89 92 92 92 92 90 90 90 90 91 91 91 91 90 90 90 90 92 92 92 92 93 93 93 93 94 94 94 94 93 93 93 93 92 92 92 92 95 95 95 95 93 93 93 93 94 94 94 94 96 96 96 96 93 93 93 93 95 95 95 95 93 93 93 93 96 96 96 96 90 90 90 90 90 90 90 90 96 96 96 96 88 88 88 88 87 87 87 87 88 88 88 88 96 96 96 96</p>
      </triangles>
    </mesh></geometry>
  </library_geometries>
  <library_visual_scenes>
    <visual_scene id="Scene" name="Scene">
      <node id="vfx_kurp_1122" name="vfx_kurp_1122" type="NODE">
        <instance_geometry url="#vfx_kurp_1122-mesh"><bind_material><technique_common><instance_material symbol="PreviewMaterial" target="#PreviewMaterial"><bind_vertex_input semantic="UVSET0" input_semantic="TEXCOORD" input_set="0"/></instance_material></technique_common></bind_material></instance_geometry>
      </node>
    </visual_scene>
  </library_visual_scenes>
  <scene><instance_visual_scene url="#Scene"/></scene>
</COLLADA>
