<?xml version="1.0" encoding="utf-8"?>
<COLLADA xmlns="http://www.collada.org/2005/11/COLLADASchema" version="1.4.1">
  <asset>
    <contributor><authoring_tool>Morrobroom Kurpulio VFX preview converter</authoring_tool></contributor>
    <unit name="unit" meter="1"/>
    <up_axis>Z_UP</up_axis>
  </asset>
  <library_images>
    <image id="VFXTexture" name="darkmap_newgen-1.dds">
      <init_from>../../../Textures/Kurp/darkmap_newgen-1.dds</init_from>
    </image>
  </library_images>
  <library_effects>
    <effect id="PreviewEffect">
      <profile_COMMON>
        <newparam sid="VFXTexture-surface">
          <surface type="2D"><init_from>VFXTexture</init_from></surface>
        </newparam>
        <newparam sid="VFXTexture-sampler">
          <sampler2D><source>VFXTexture-surface</source></sampler2D>
        </newparam>
        <technique sid="common"><phong>
          <emission><color>0.08 0.08 0.08 1</color></emission>
          <ambient><color>0.2 0.2 0.2 1</color></ambient>
          <diffuse><texture texture="VFXTexture-sampler" texcoord="UVSET0"/></diffuse>
          <specular><color>0.15 0.15 0.15 1</color></specular>
          <shininess><float>8</float></shininess>
          <transparent opaque="A_ONE"><texture texture="VFXTexture-sampler" texcoord="UVSET0"/></transparent>
          <transparency><float>1</float></transparency>
        </phong></technique>
      </profile_COMMON>
      <extra><technique profile="GOOGLEEARTH"><double_sided>1</double_sided></technique></extra>
    </effect>
  </library_effects>
  <library_materials><material id="PreviewMaterial" name="PreviewMaterial"><instance_effect url="#PreviewEffect"/></material></library_materials>
  <library_geometries>
    <geometry id="vfx_kurp_0959-mesh" name="vfx_kurp_0959"><mesh>
      <source id="vfx_kurp_0959-mesh-positions">
        <float_array id="vfx_kurp_0959-mesh-positions-array" count="114">-1.90337075 -1.88998783 0.872986813 -1.73226906 -1.6212922 1.22372444 -2.49146172 -2.05291668 0.446814243 -2.45307386 -1.47897396 0.720694817 -1.51863381 -1.48832918 1.64366086 -2.45307386 -1.47897396 0.720694817 -1.51863381 -1.48832918 1.64366086 -2.19318862 -0.992468268 1.05072789 -1.19318663 -1.31828937 2.08864544 -1.75667836 -0.574540962 1.43232838 -0.709912219 -1.10904041 2.55793326 -1.18841644 -0.206335019 1.86091046 -0.0971535389 -0.877199587 3.05586607 -0.533274732 0.131007303 2.33188801 0.591234181 -0.62288082 3.58271126 0.154162656 0.452987093 2.84157109 -1.89171609 -2.47100206 0.635629206 -2.26546348 -2.72971246 0.23280805 -2.26546348 -2.72971246 0.23280805 -2.49146172 -2.05291668 0.446814243 -2.60678655 -2.85012518 0.734985379 -3.04712837 -2.07754784 0.925640189 -2.45307386 -1.47897396 0.720694817 -3.04712837 -2.07754784 0.925640189 -2.49146172 -2.05291668 0.446814243 -3.14145493 -1.19835779 1.12266355 -2.19318862 -0.992468268 1.05072789 -3.14145493 -1.19835779 1.12266355 -2.45307386 -1.47897396 0.720694817 -2.83531984 -0.358309048 1.36279346 -1.75667836 -0.574540962 1.43232838 -2.28774704 0.307505853 1.68100972 -1.18841644 -0.206335019 1.86091046 -1.63449709 0.834668915 2.06888542 -0.533274732 0.131007303 2.33188801 -0.936972016 1.27751323 2.51290832 0.154162656 0.452987093 2.84157109 -0.250484858 1.66715372 3.00542911</float_array>
        <technique_common><accessor source="#vfx_kurp_0959-mesh-positions-array" count="38" stride="3"><param name="X" type="float"/><param name="Y" type="float"/><param name="Z" type="float"/></accessor></technique_common>
      </source>
      <source id="vfx_kurp_0959-mesh-normals">
        <float_array id="vfx_kurp_0959-mesh-normals-array" count="114">-0.367244847 -0.596954755 0.713285527 -0.486716648 -0.675880386 0.553437086 -0.489161709 -0.40334807 0.773324742 -0.579520198 -0.371731902 0.725239087 -0.47837594 -0.737408875 0.476848624 -0.699303216 -0.105999126 0.706922341 -0.730442106 -0.220887118 0.646268683 -0.708233611 -0.0631009886 0.703152485 -0.719984753 0.0243438613 0.693562781 -0.695598586 0.11850539 0.7085895 -0.67467263 0.178200655 0.716283023 -0.661917663 0.210849971 0.719310293 -0.648774243 0.233712318 0.724203379 -0.645800476 0.24003962 0.724791505 -0.645787348 0.239563448 0.724960727 -0.64765967 0.235959942 0.724472123 -0.585289082 -0.316673306 0.746427965 -0.510099591 -0.371462287 0.775766832 0.813527491 0.0899897234 0.574521429 0.712705145 0.144985947 0.686316583 0.739442029 0.131683384 0.660215853 0.637736758 0.178585457 0.749265682 0.5360492 -0.2566421 0.804230121 0.532732404 -0.252107477 0.80786014 0.615186286 -0.37267008 0.694739408 0.452855067 -0.1484268 0.879142635 0.0308108835 -0.522336392 0.852182717 0.163691312 -0.446574985 0.879645347 0.192192785 -0.619165964 0.761377333 -0.0361407076 -0.392956542 0.918846562 -0.232941894 -0.456593179 0.85863889 -0.24024135 -0.353138381 0.904199855 -0.365732862 -0.367968698 0.854890935 -0.35644527 -0.305260799 0.883041683 -0.437517667 -0.30908988 0.844417987 -0.431668716 -0.277510948 0.85828305 -0.467683788 -0.285460283 0.836531112 -0.457201823 -0.266865771 0.848380312</float_array>
        <technique_common><accessor source="#vfx_kurp_0959-mesh-normals-array" count="38" stride="3"><param name="X" type="float"/><param name="Y" type="float"/><param name="Z" type="float"/></accessor></technique_common>
      </source>
      <source id="vfx_kurp_0959-mesh-uv0">
        <float_array id="vfx_kurp_0959-mesh-uv0-array" count="76">0.999999881 0.523809671 0.999999881 0.380952477 0.499999881 0.523809612 0.499999881 0.380952358 0.99999994 0.238095343 0.499999881 0.380952358 0.99999994 0.238095343 0.499999911 0.238095284 0.99999994 0.0952382088 0.49999994 0.0952381492 0.99999994 -0.0476189852 0.49999997 -0.0476191044 1 -0.190476179 0.49999997 -0.190476179 1 -0.333333254 0.5 -0.333333254 0.999999821 0.666666746 0.499999851 0.666666627 0.499999851 0.666666627 0.499999881 0.523809612 -1.50995803e-07 0.666666567 -1.2942499e-07 0.523809552 0.499999881 0.380952358 -1.2942499e-07 0.523809552 0.499999881 0.523809612 -1.07854149e-07 0.380952358 0.499999911 0.238095284 -1.07854149e-07 0.380952358 0.499999881 0.380952358 -8.62833218e-08 0.238095164 0.49999994 0.0952381492 -6.47124949e-08 0.09523803 0.49999997 -0.0476191044 -4.31416609e-08 -0.0476191044 0.49999997 -0.190476179 -2.15708305e-08 -0.190476179 0.5 -0.333333254 0 -0.333333373</float_array>
        <technique_common><accessor source="#vfx_kurp_0959-mesh-uv0-array" count="38" stride="2"><param name="S" type="float"/><param name="T" type="float"/></accessor></technique_common>
      </source>
      <vertices id="vfx_kurp_0959-mesh-vertices"><input semantic="POSITION" source="#vfx_kurp_0959-mesh-positions"/></vertices>
      <triangles material="PreviewMaterial" count="28">
        <input semantic="VERTEX" source="#vfx_kurp_0959-mesh-vertices" offset="0"/>
        <input semantic="NORMAL" source="#vfx_kurp_0959-mesh-normals" offset="1"/>
        <input semantic="TEXCOORD" source="#vfx_kurp_0959-mesh-uv0" offset="2" set="0"/>
        <p>0 0 0 1 1 1 2 2 2 2 2 2 1 1 1 3 3 3 4 4 4 3 3 3 1 1 1 5 5 5 6 6 6 7 7 7 8 8 8 7 7 7 6 6 6 7 7 7 8 8 8 9 9 9 10 10 10 9 9 9 8 8 8 9 9 9 10 10 10 11 11 11 12 12 12 11 11 11 10 10 10 11 11 11 12 12 12 13 13 13 14 14 14 13 13 13 12 12 12 13 13 13 14 14 14 15 15 15 16 16 16 0 0 0 17 17 17 2 2 2 17 17 17 0 0 0 18 18 18 19 19 19 20 20 20 20 20 20 19 19 19 21 21 21 22 22 22 23 23 23 24 24 24 23 23 23 22 22 22 25 25 25 26 26 26 27 27 27 28 28 28 27 27 27 26 26 26 29 29 29 30 30 30 29 29 29 26 26 26 29 29 29 30 30 30 31 31 31 32 32 32 31 31 31 30 30 30 31 31 31 32 32 32 33 33 33 34 34 34 33 33 33 32 32 32 33 33 33 34 34 34 35 35 35 36 36 36 35 35 35 34 34 34 35 35 35 36 36 36 37 37 37</p>
      </triangles>
    </mesh></geometry>
  </library_geometries>
  <library_visual_scenes>
    <visual_scene id="Scene" name="Scene">
      <node id="vfx_kurp_0959" name="vfx_kurp_0959" type="NODE">
        <instance_geometry url="#vfx_kurp_0959-mesh"><bind_material><technique_common><instance_material symbol="PreviewMaterial" target="#PreviewMaterial"><bind_vertex_input semantic="UVSET0" input_semantic="TEXCOORD" input_set="0"/></instance_material></technique_common></bind_material></instance_geometry>
      </node>
    </visual_scene>
  </library_visual_scenes>
  <scene><instance_visual_scene url="#Scene"/></scene>
</COLLADA>
