<?xml version="1.0" encoding="utf-8"?>
<COLLADA xmlns="http://www.collada.org/2005/11/COLLADASchema" version="1.4.1">
  <asset>
    <contributor><authoring_tool>Morrobroom Kurpulio VFX preview converter</authoring_tool></contributor>
    <unit name="unit" meter="1"/>
    <up_axis>Z_UP</up_axis>
  </asset>
  <library_images>
    <image id="VFXTexture" name="darkmap_newgen-1.dds">
      <init_from>../../../Textures/Kurp/darkmap_newgen-1.dds</init_from>
    </image>
  </library_images>
  <library_effects>
    <effect id="PreviewEffect">
      <profile_COMMON>
        <newparam sid="VFXTexture-surface">
          <surface type="2D"><init_from>VFXTexture</init_from></surface>
        </newparam>
        <newparam sid="VFXTexture-sampler">
          <sampler2D><source>VFXTexture-surface</source></sampler2D>
        </newparam>
        <technique sid="common"><phong>
          <emission><color>0.08 0.08 0.08 1</color></emission>
          <ambient><color>0.2 0.2 0.2 1</color></ambient>
          <diffuse><texture texture="VFXTexture-sampler" texcoord="UVSET0"/></diffuse>
          <specular><color>0.15 0.15 0.15 1</color></specular>
          <shininess><float>8</float></shininess>
          <transparent opaque="A_ONE"><texture texture="VFXTexture-sampler" texcoord="UVSET0"/></transparent>
          <transparency><float>1</float></transparency>
        </phong></technique>
      </profile_COMMON>
      <extra><technique profile="GOOGLEEARTH"><double_sided>1</double_sided></technique></extra>
    </effect>
  </library_effects>
  <library_materials><material id="PreviewMaterial" name="PreviewMaterial"><instance_effect url="#PreviewEffect"/></material></library_materials>
  <library_geometries>
    <geometry id="vfx_kurp_0243-mesh" name="vfx_kurp_0243"><mesh>
      <source id="vfx_kurp_0243-mesh-positions">
        <float_array id="vfx_kurp_0243-mesh-positions-array" count="2100">7.52479785 -2.14301114 3.696419 3.99465345 -3.67919822 8.0923228 7.48259481 -0.693285071 3.78889548 4.34548347 -3.04980681 7.47175699 7.48259481 -0.693285071 3.78889548 3.99465345 -3.67919822 8.0923228 7.48259481 -0.693285071 3.78889548 4.34548347 -3.04980681 7.47175699 6.87894483 0.801674145 3.82853967 4.48130254 -2.296273 7.05955989 6.87894483 0.801674145 3.82853967 4.34548347 -3.04980681 7.47175699 6.87894483 0.801674145 3.82853967 4.48130254 -2.296273 7.05955989 5.767277 2.06795271 3.67552896 4.2847292 -1.30652813 6.5840893 5.767277 2.06795271 3.67552896 4.48130254 -2.296273 7.05955989 5.767277 2.06795271 3.67552896 4.2847292 -1.30652813 6.5840893 4.31473485 2.90429849 3.22770457 3.39985513 -0.316499895 5.945532 4.31473485 2.90429849 3.22770457 4.2847292 -1.30652813 6.5840893 4.31473485 2.90429849 3.22770457 3.39985513 -0.316499895 5.945532 2.7657623 3.24483728 2.46376697 2.27902819 0.310985176 5.03243551 2.7657623 3.24483728 2.46376697 2.27902819 0.310985176 5.03243551 1.32127756 3.05194048 1.36355999 1.19639791 0.519132928 3.84349444 1.32127756 3.05194048 1.36355999 1.19639791 0.519132928 3.84349444 0.31347542 2.44975339 0.0462173934 0.293092085 0.277858274 2.34720727 0.31347542 2.44975339 0.0462173934 0.293092085 0.277858274 2.34720727 -0.17161282 1.59964085 -1.39457589 -0.161304486 -0.248570701 0.683985184 -0.17161282 1.59964085 -1.39457589 -0.161304486 -0.248570701 0.683985184 -0.0502056425 0.694676825 -2.83536106 -0.040389733 -0.873270192 -1.02010284 6.83617453 3.80549747 3.69641886 5.42623277 0.223060708 8.09232275 5.78122122 4.8007664 3.78889503 5.2292602 0.916181971 7.47175694 5.78122122 4.8007664 3.78889503 5.42623277 0.223060708 8.09232275 5.78122122 4.8007664 3.78889503 5.2292602 0.916181971 7.47175694 4.29728087 5.43101752 3.82853924 4.79246991 1.54504913 7.05955964 4.29728087 5.43101752 3.82853924 5.2292602 0.916181971 7.47175694 4.29728087 5.43101752 3.82853924 4.79246991 1.54504913 7.05955964 2.61581877 5.54034381 3.67552845 3.9536165 2.10590628 6.5840892 2.61581877 5.54034381 3.67552845 4.79246991 1.54504913 7.05955964 2.61581877 5.54034381 3.67552845 3.9536165 2.10590628 6.5840892 0.997330364 5.10462739 3.227704 2.62786034 2.18026154 5.94553177 0.997330364 5.10462739 3.227704 3.9536165 2.10590628 6.5840892 0.997330364 5.10462739 3.227704 2.62786034 2.18026154 5.94553177 -0.338756 4.25013562 2.46376646 1.39161707 1.83141627 5.03243546 -0.338756 4.25013562 2.46376646 1.39161707 1.83141627 5.03243546 -1.22376266 3.09233225 1.36355965 0.478899007 1.21306383 3.84349418 -1.22376266 3.09233225 1.36355965 0.478899007 1.21306383 3.84349418 -1.51057609 1.95389786 0.0462171597 0.0107720739 0.403723103 2.34720716 -1.51057609 1.95389786 0.0462171597 0.0107720739 0.403723103 2.34720716 -1.25246525 1.00976823 -1.39457601 0.0617064562 -0.289825465 0.683985244 -1.25246525 1.00976823 -1.39457601 0.0617064562 -0.289825465 0.683985244 -0.526711341 0.455709662 -2.83536109 0.588935203 -0.646055247 -1.02010273 2.143014 7.52479734 3.69641891 3.67919964 3.99465313 8.09232293 0.693287968 7.48259487 3.78889541 3.04980811 4.34548295 7.47175714 0.693287968 7.48259487 3.78889541 3.67919964 3.99465313 8.09232293 0.693287968 7.48259487 3.78889541 3.04980811 4.34548295 7.47175714 -0.8016713 6.87894492 3.82853937 2.29627449 4.48130234 7.05956013 -0.8016713 6.87894492 3.82853937 3.04980811 4.34548295 7.47175714 -0.8016713 6.87894492 3.82853937 2.29627449 4.48130234 7.05956013 -2.06795073 5.7672778 3.67552863 1.30652975 4.28472938 6.58408925 -2.06795073 5.7672778 3.67552863 2.29627449 4.48130234 7.05956013 -2.06795073 5.7672778 3.67552863 1.30652975 4.28472938 6.58408925 -2.90429691 4.31473565 3.22770418 0.316500918 3.3998552 5.94553198 -2.90429691 4.31473565 3.22770418 0.316500918 3.3998552 5.94553198 -3.24483625 2.76576314 2.46376669 -0.310984526 2.27902842 5.03243555 -3.24483625 2.76576314 2.46376669 -0.310984526 2.27902842 5.03243555 -3.05194006 1.32127845 1.36355974 -0.519132581 1.19639824 3.84349423 -3.05194006 1.32127845 1.36355974 -0.519132581 1.19639824 3.84349423 -2.44975328 0.313475994 0.0462171862 -0.277858255 0.293092248 2.34720731 -2.44975328 0.313475994 0.0462171862 -0.277858255 0.293092248 2.34720731 -1.59964088 -0.171612577 -1.394576 0.248570604 -0.161304509 0.683985214 -1.59964088 -0.171612577 -1.394576 0.248570604 -0.161304509 0.683985214 -0.694676771 -0.0502056532 -2.83536119 0.873270223 -0.0403900105 -1.02010276 -3.80549948 6.83617162 3.69641838 -0.223062507 5.42623241 8.09232243 -4.80076839 5.78121799 3.78889476 -0.916183381 5.22925952 7.4717566 -4.80076839 5.78121799 3.78889476 -0.223062507 5.42623241 8.09232243 -4.80076839 5.78121799 3.78889476 -0.916183381 5.22925952 7.4717566 -5.43101922 4.29727728 3.82853899 -1.5450509 4.79246899 7.05955962 -5.43101922 4.29727728 3.82853899 -0.916183381 5.22925952 7.4717566 -5.43101922 4.29727728 3.82853899 -1.5450509 4.79246899 7.05955962 -5.54034524 2.61581535 3.67552831 -2.10590764 3.95361513 6.58408868 -5.54034524 2.61581535 3.67552831 -1.5450509 4.79246899 7.05955962 -5.54034524 2.61581535 3.67552831 -2.10590764 3.95361513 6.58408868 -5.1046281 0.997327348 3.22770375 -2.18026242 2.62785894 5.94553155 -5.1046281 0.997327348 3.22770375 -2.10590764 3.95361513 6.58408868 -5.1046281 0.997327348 3.22770375 -2.18026242 2.62785894 5.94553155 -4.25013583 -0.338758743 2.46376635 -1.8314166 1.39161592 5.03243505 -4.25013583 -0.338758743 2.46376635 -1.8314166 1.39161592 5.03243505 -3.09233211 -1.22376458 1.3635595 -1.21306391 0.478898206 3.84349428 -3.09233211 -1.22376458 1.3635595 -1.21306391 0.478898206 3.84349428 -1.95389755 -1.51057728 0.0462171328 -0.403723047 0.0107718082 2.3472071 -1.95389755 -1.51057728 0.0462171328 -0.403723047 0.0107718082 2.3472071 -1.00976799 -1.25246586 -1.39457599 0.289825465 0.061706632 0.683985211 -1.00976799 -1.25246586 -1.39457599 0.289825465 0.061706632 0.683985211 -0.455709643 -0.52671161 -2.83536109 0.646055083 0.588935613 -1.02010269 -7.52479718 2.14301073 3.69641873 -3.99465299 3.67919819 8.09232255 -7.48259407 0.693284759 3.78889507 -4.34548267 3.04980634 7.4717568 -7.48259407 0.693284759 3.78889507 -3.99465299 3.67919819 8.09232255 -7.48259407 0.693284759 3.78889507 -4.34548267 3.04980634 7.4717568 -6.87894402 -0.801674846 3.82853947 -4.48130183 2.29627269 7.05955968 -6.87894402 -0.801674846 3.82853947 -4.34548267 3.04980634 7.4717568 -6.87894402 -0.801674846 3.82853947 -4.48130183 2.29627269 7.05955968 -5.7672763 -2.06795316 3.6755286 -4.28472865 1.30652795 6.58408894 -5.7672763 -2.06795316 3.6755286 -4.48130183 2.29627269 7.05955968 -5.7672763 -2.06795316 3.6755286 -4.28472865 1.30652795 6.58408894 -4.31473426 -2.90429898 3.22770425 -3.3998547 0.316499629 5.94553199 -4.31473426 -2.90429898 3.22770425 -4.28472865 1.30652795 6.58408894 -4.31473426 -2.90429898 3.22770425 -3.3998547 0.316499629 5.94553199 -2.76576194 -3.24483775 2.46376677 -2.27902781 -0.310985454 5.03243553 -2.76576194 -3.24483775 2.46376677 -2.27902781 -0.310985454 5.03243553 -1.32127725 -3.05194069 1.36355984 -1.19639761 -0.519133018 3.84349427 -1.32127725 -3.05194069 1.36355984 -1.19639761 -0.519133018 3.84349427 -0.313475243 -2.44975355 0.046217352 -0.29309196 -0.277858347 2.34720727 -0.313475243 -2.44975355 0.046217352 -0.29309196 -0.277858347 2.34720727 0.171612812 -1.59964092 -1.39457596 0.161304498 0.24857073 0.68398521 0.171612812 -1.59964092 -1.39457596 0.161304498 0.24857073 0.68398521 0.0502056126 -0.694676823 -2.83536106 0.0403896893 0.873270245 -1.02010284 -6.83617284 -3.80549925 3.69641886 -5.42623228 -0.223062181 8.09232283 -5.78121947 -4.8007679 3.78889482 -5.22925944 -0.916183169 7.47175658 -5.78121947 -4.8007679 3.78889482 -5.42623228 -0.223062181 8.09232283 -5.78121947 -4.8007679 3.78889482 -5.22925944 -0.916183169 7.47175658 -4.29727889 -5.43101867 3.82853947 -4.79246937 -1.54505056 7.05955985 -4.29727889 -5.43101867 3.82853947 -5.22925944 -0.916183169 7.47175658 -4.29727889 -5.43101867 3.82853947 -4.79246937 -1.54505056 7.05955985 -2.61581685 -5.54034462 3.67552844 -3.95361556 -2.1059074 6.58408915 -2.61581685 -5.54034462 3.67552844 -4.79246937 -1.54505056 7.05955985 -2.61581685 -5.54034462 3.67552844 -3.95361556 -2.1059074 6.58408915 -0.997328737 -5.10462762 3.22770434 -2.62785952 -2.18026226 5.94553178 -0.997328737 -5.10462762 3.22770434 -3.95361556 -2.1059074 6.58408915 -0.997328737 -5.10462762 3.22770434 -2.62785952 -2.18026226 5.94553178 0.33875731 -4.25013552 2.46376688 -1.3916163 -1.83141658 5.0324353 0.33875731 -4.25013552 2.46376688 -1.3916163 -1.83141658 5.0324353 1.22376362 -3.0923319 1.3635599 -0.478898468 -1.21306381 3.84349426 1.22376362 -3.0923319 1.3635599 -0.478898468 -1.21306381 3.84349426 1.51057662 -1.95389741 0.0462173419 -0.0107718622 -0.40372306 2.34720727 1.51057662 -1.95389741 0.0462173419 -0.0107718622 -0.40372306 2.34720727 1.25246542 -1.00976787 -1.39457592 -0.0617065249 0.289825439 0.683985203 1.25246542 -1.00976787 -1.39457592 -0.0617065249 0.289825439 0.683985203 0.526711383 -0.455709621 -2.83536101 -0.588935406 0.646055068 -1.02010284 -2.14301126 -7.52479808 3.69641879 -3.67919796 -3.99465413 8.09232273 -0.693284964 -7.48259482 3.78889499 -3.04980654 -4.34548397 7.47175664 -0.693284964 -7.48259482 3.78889499 -3.67919796 -3.99465413 8.09232273 -0.693284964 -7.48259482 3.78889499 -3.04980654 -4.34548397 7.47175664 0.801673983 -6.87894465 3.8285393 -2.29627279 -4.48130299 7.05955955 0.801673983 -6.87894465 3.8285393 -3.04980654 -4.34548397 7.47175664 0.801673983 -6.87894465 3.8285393 -2.29627279 -4.48130299 7.05955955 2.06795275 -5.76727688 3.67552855 -1.30652792 -4.28472948 6.58408895 2.06795275 -5.76727688 3.67552855 -2.29627279 -4.48130299 7.05955955 2.06795275 -5.76727688 3.67552855 -1.30652792 -4.28472948 6.58408895 2.90429848 -4.31473448 3.2277041 -0.31649971 -3.39985538 5.94553186 2.90429848 -4.31473448 3.2277041 -1.30652792 -4.28472948 6.58408895 2.90429848 -4.31473448 3.2277041 -0.31649971 -3.39985538 5.94553186 3.24483724 -2.76576193 2.4637667 0.31098536 -2.27902834 5.03243537 3.24483724 -2.76576193 2.4637667 0.31098536 -2.27902834 5.03243537 3.05194044 -1.32127726 1.36355988 0.519133086 -1.19639796 3.8434943 3.05194044 -1.32127726 1.36355988 0.519133086 -1.19639796 3.8434943 2.44975344 -0.3134752 0.0462173512 0.277858363 -0.293092194 2.34720727 2.44975344 -0.3134752 0.0462173512 0.277858363 -0.293092194 2.34720727 1.59964082 0.171613063 -1.39457595 -0.248570647 0.161304427 0.683985172 1.59964082 0.171613063 -1.39457595 -0.248570647 0.161304427 0.683985172 0.694676688 0.0502058576 -2.83536106 -0.87327022 0.0403897356 -1.02010279 3.80549693 -6.83617328 3.69641886 0.223060175 -5.42623233 8.09232267 4.80076599 -5.78121993 3.78889518 0.916181429 -5.22925984 7.47175695 4.80076599 -5.78121993 3.78889518 0.223060175 -5.42623233 8.09232267 4.80076599 -5.78121993 3.78889518 0.916181429 -5.22925984 7.47175695 5.43101722 -4.29727925 3.82853939 1.54504897 -4.7924695 7.05955961 5.43101722 -4.29727925 3.82853939 0.916181429 -5.22925984 7.47175695 5.43101722 -4.29727925 3.82853939 1.54504897 -4.7924695 7.05955961 5.54034379 -2.6158174 3.67552861 2.10590614 -3.95361584 6.58408887 5.54034379 -2.6158174 3.67552861 1.54504897 -4.7924695 7.05955961 5.54034379 -2.6158174 3.67552861 2.10590614 -3.95361584 6.58408887 5.10462713 -0.997329176 3.22770431 2.18026141 -2.6278598 5.94553151 5.10462713 -0.997329176 3.22770431 2.10590614 -3.95361584 6.58408887 5.10462713 -0.997329176 3.22770431 2.18026141 -2.6278598 5.94553151 4.25013586 0.338757111 2.4637668 1.83141606 -1.39161644 5.03243532 4.25013586 0.338757111 2.4637668 1.83141606 -1.39161644 5.03243532 3.09233246 1.22376349 1.36355995 1.21306371 -0.478898513 3.84349424 3.09233246 1.22376349 1.36355995 1.21306371 -0.478898513 3.84349424 1.95389797 1.51057649 0.0462173484 0.403723018 -0.0107719089 2.34720721 1.95389797 1.51057649 0.0462173484 0.403723018 -0.0107719089 2.34720721 1.00976837 1.25246539 -1.39457582 -0.28982547 -0.0617065102 0.683985167 1.00976837 1.25246539 -1.39457582 -0.28982547 -0.0617065102 0.683985167 0.455709798 0.526711334 -2.83536091 -0.646055299 -0.588935426 -1.02010279 -0.646055299 -0.588935426 -1.02010279 -0.28982547 -0.0617065102 0.683985167 0.455709798 0.526711334 -2.83536091 1.00976837 1.25246539 -1.39457582 0.403723018 -0.0107719089 2.34720721 1.00976837 1.25246539 -1.39457582 -0.28982547 -0.0617065102 0.683985167 1.95389797 1.51057649 0.0462173484 1.21306371 -0.478898513 3.84349424 1.95389797 1.51057649 0.0462173484 0.403723018 -0.0107719089 2.34720721 3.09233246 1.22376349 1.36355995 1.83141606 -1.39161644 5.03243532 3.09233246 1.22376349 1.36355995 1.21306371 -0.478898513 3.84349424 4.25013586 0.338757111 2.4637668 2.18026141 -2.6278598 5.94553151 4.25013586 0.338757111 2.4637668 1.83141606 -1.39161644 5.03243532 5.10462713 -0.997329176 3.22770431 2.10590614 -3.95361584 6.58408887 5.10462713 -0.997329176 3.22770431 2.18026141 -2.6278598 5.94553151 5.10462713 -0.997329176 3.22770431 2.10590614 -3.95361584 6.58408887 5.54034379 -2.6158174 3.67552861 1.54504897 -4.7924695 7.05955961 5.54034379 -2.6158174 3.67552861 2.10590614 -3.95361584 6.58408887 5.54034379 -2.6158174 3.67552861 1.54504897 -4.7924695 7.05955961 5.43101722 -4.29727925 3.82853939 0.916181429 -5.22925984 7.47175695 5.43101722 -4.29727925 3.82853939 1.54504897 -4.7924695 7.05955961 5.43101722 -4.29727925 3.82853939 0.916181429 -5.22925984 7.47175695 4.80076599 -5.78121993 3.78889518 0.223060175 -5.42623233 8.09232267 4.80076599 -5.78121993 3.78889518 0.916181429 -5.22925984 7.47175695 4.80076599 -5.78121993 3.78889518 0.223060175 -5.42623233 8.09232267 3.80549693 -6.83617328 3.69641886 -0.87327022 0.0403897356 -1.02010279 -0.248570647 0.161304427 0.683985172 0.694676688 0.0502058576 -2.83536106 1.59964082 0.171613063 -1.39457595 0.277858363 -0.293092194 2.34720727 1.59964082 0.171613063 -1.39457595 -0.248570647 0.161304427 0.683985172 2.44975344 -0.3134752 0.0462173512 0.519133086 -1.19639796 3.8434943 2.44975344 -0.3134752 0.0462173512 0.277858363 -0.293092194 2.34720727 3.05194044 -1.32127726 1.36355988 0.31098536 -2.27902834 5.03243537 3.05194044 -1.32127726 1.36355988 0.519133086 -1.19639796 3.8434943 3.24483724 -2.76576193 2.4637667 -0.31649971 -3.39985538 5.94553186 3.24483724 -2.76576193 2.4637667 0.31098536 -2.27902834 5.03243537 2.90429848 -4.31473448 3.2277041 -1.30652792 -4.28472948 6.58408895 2.90429848 -4.31473448 3.2277041 -0.31649971 -3.39985538 5.94553186 2.90429848 -4.31473448 3.2277041 -1.30652792 -4.28472948 6.58408895 2.06795275 -5.76727688 3.67552855 -2.29627279 -4.48130299 7.05955955 2.06795275 -5.76727688 3.67552855 -1.30652792 -4.28472948 6.58408895 2.06795275 -5.76727688 3.67552855 -2.29627279 -4.48130299 7.05955955 0.801673983 -6.87894465 3.8285393 -3.04980654 -4.34548397 7.47175664 0.801673983 -6.87894465 3.8285393 -2.29627279 -4.48130299 7.05955955 0.801673983 -6.87894465 3.8285393 -3.04980654 -4.34548397 7.47175664 -0.693284964 -7.48259482 3.78889499 -3.67919796 -3.99465413 8.09232273 -0.693284964 -7.48259482 3.78889499 -3.04980654 -4.34548397 7.47175664 -0.693284964 -7.48259482 3.78889499 -3.67919796 -3.99465413 8.09232273 -2.14301126 -7.52479808 3.69641879 -0.588935406 0.646055068 -1.02010284 -0.0617065249 0.289825439 0.683985203 0.526711383 -0.455709621 -2.83536101 1.25246542 -1.00976787 -1.39457592 -0.0107718622 -0.40372306 2.34720727 1.25246542 -1.00976787 -1.39457592 -0.0617065249 0.289825439 0.683985203 1.51057662 -1.95389741 0.0462173419 -0.478898468 -1.21306381 3.84349426 1.51057662 -1.95389741 0.0462173419 -0.0107718622 -0.40372306 2.34720727 1.22376362 -3.0923319 1.3635599 -1.3916163 -1.83141658 5.0324353 1.22376362 -3.0923319 1.3635599 -0.478898468 -1.21306381 3.84349426 0.33875731 -4.25013552 2.46376688 -2.62785952 -2.18026226 5.94553178 0.33875731 -4.25013552 2.46376688 -1.3916163 -1.83141658 5.0324353 -0.997328737 -5.10462762 3.22770434 -3.95361556 -2.1059074 6.58408915 -0.997328737 -5.10462762 3.22770434 -2.62785952 -2.18026226 5.94553178 -0.997328737 -5.10462762 3.22770434 -3.95361556 -2.1059074 6.58408915 -2.61581685 -5.54034462 3.67552844 -4.79246937 -1.54505056 7.05955985 -2.61581685 -5.54034462 3.67552844 -3.95361556 -2.1059074 6.58408915 -2.61581685 -5.54034462 3.67552844 -4.79246937 -1.54505056 7.05955985 -4.29727889 -5.43101867 3.82853947 -5.22925944 -0.916183169 7.47175658 -4.29727889 -5.43101867 3.82853947 -4.79246937 -1.54505056 7.05955985 -4.29727889 -5.43101867 3.82853947 -5.22925944 -0.916183169 7.47175658 -5.78121947 -4.8007679 3.78889482 -5.42623228 -0.223062181 8.09232283 -5.78121947 -4.8007679 3.78889482 -5.22925944 -0.916183169 7.47175658 -5.78121947 -4.8007679 3.78889482 -5.42623228 -0.223062181 8.09232283 -6.83617284 -3.80549925 3.69641886 0.0403896893 0.873270245 -1.02010284 0.161304498 0.24857073 0.68398521 0.0502056126 -0.694676823 -2.83536106 0.171612812 -1.59964092 -1.39457596 -0.29309196 -0.277858347 2.34720727 0.171612812 -1.59964092 -1.39457596 0.161304498 0.24857073 0.68398521 -0.313475243 -2.44975355 0.046217352 -1.19639761 -0.519133018 3.84349427 -0.313475243 -2.44975355 0.046217352 -0.29309196 -0.277858347 2.34720727 -1.32127725 -3.05194069 1.36355984 -2.27902781 -0.310985454 5.03243553 -1.32127725 -3.05194069 1.36355984 -1.19639761 -0.519133018 3.84349427 -2.76576194 -3.24483775 2.46376677 -3.3998547 0.316499629 5.94553199 -2.76576194 -3.24483775 2.46376677 -2.27902781 -0.310985454 5.03243553 -4.31473426 -2.90429898 3.22770425 -4.28472865 1.30652795 6.58408894 -4.31473426 -2.90429898 3.22770425 -3.3998547 0.316499629 5.94553199 -4.31473426 -2.90429898 3.22770425 -4.28472865 1.30652795 6.58408894 -5.7672763 -2.06795316 3.6755286 -4.48130183 2.29627269 7.05955968 -5.7672763 -2.06795316 3.6755286 -4.28472865 1.30652795 6.58408894 -5.7672763 -2.06795316 3.6755286 -4.48130183 2.29627269 7.05955968 -6.87894402 -0.801674846 3.82853947 -4.34548267 3.04980634 7.4717568 -6.87894402 -0.801674846 3.82853947 -4.48130183 2.29627269 7.05955968 -6.87894402 -0.801674846 3.82853947 -4.34548267 3.04980634 7.4717568 -7.48259407 0.693284759 3.78889507 -3.99465299 3.67919819 8.09232255 -7.48259407 0.693284759 3.78889507 -4.34548267 3.04980634 7.4717568 -7.48259407 0.693284759 3.78889507 -3.99465299 3.67919819 8.09232255 -7.52479718 2.14301073 3.69641873 0.646055083 0.588935613 -1.02010269 0.289825465 0.061706632 0.683985211 -0.455709643 -0.52671161 -2.83536109 -1.00976799 -1.25246586 -1.39457599 -0.403723047 0.0107718082 2.3472071 -1.00976799 -1.25246586 -1.39457599 0.289825465 0.061706632 0.683985211 -1.95389755 -1.51057728 0.0462171328 -1.21306391 0.478898206 3.84349428 -1.95389755 -1.51057728 0.0462171328 -0.403723047 0.0107718082 2.3472071 -3.09233211 -1.22376458 1.3635595 -1.8314166 1.39161592 5.03243505 -3.09233211 -1.22376458 1.3635595 -1.21306391 0.478898206 3.84349428 -4.25013583 -0.338758743 2.46376635 -2.18026242 2.62785894 5.94553155 -4.25013583 -0.338758743 2.46376635 -1.8314166 1.39161592 5.03243505 -5.1046281 0.997327348 3.22770375 -2.10590764 3.95361513 6.58408868 -5.1046281 0.997327348 3.22770375 -2.18026242 2.62785894 5.94553155 -5.1046281 0.997327348 3.22770375 -2.10590764 3.95361513 6.58408868 -5.54034524 2.61581535 3.67552831 -1.5450509 4.79246899 7.05955962 -5.54034524 2.61581535 3.67552831 -2.10590764 3.95361513 6.58408868 -5.54034524 2.61581535 3.67552831 -1.5450509 4.79246899 7.05955962 -5.43101922 4.29727728 3.82853899 -0.916183381 5.22925952 7.4717566 -5.43101922 4.29727728 3.82853899 -1.5450509 4.79246899 7.05955962 -5.43101922 4.29727728 3.82853899 -0.916183381 5.22925952 7.4717566 -4.80076839 5.78121799 3.78889476 -0.223062507 5.42623241 8.09232243 -4.80076839 5.78121799 3.78889476 -0.916183381 5.22925952 7.4717566 -4.80076839 5.78121799 3.78889476 -0.223062507 5.42623241 8.09232243 -3.80549948 6.83617162 3.69641838 0.873270223 -0.0403900105 -1.02010276 0.248570604 -0.161304509 0.683985214 -0.694676771 -0.0502056532 -2.83536119 -1.59964088 -0.171612577 -1.394576 -0.277858255 0.293092248 2.34720731 -1.59964088 -0.171612577 -1.394576 0.248570604 -0.161304509 0.683985214 -2.44975328 0.313475994 0.0462171862 -0.519132581 1.19639824 3.84349423 -2.44975328 0.313475994 0.0462171862 -0.277858255 0.293092248 2.34720731 -3.05194006 1.32127845 1.36355974 -0.310984526 2.27902842 5.03243555 -3.05194006 1.32127845 1.36355974 -0.519132581 1.19639824 3.84349423 -3.24483625 2.76576314 2.46376669 0.316500918 3.3998552 5.94553198 -3.24483625 2.76576314 2.46376669 -0.310984526 2.27902842 5.03243555 -2.90429691 4.31473565 3.22770418 1.30652975 4.28472938 6.58408925 -2.90429691 4.31473565 3.22770418 0.316500918 3.3998552 5.94553198 -2.06795073 5.7672778 3.67552863 2.29627449 4.48130234 7.05956013 -2.06795073 5.7672778 3.67552863 1.30652975 4.28472938 6.58408925 -2.06795073 5.7672778 3.67552863 2.29627449 4.48130234 7.05956013 -0.8016713 6.87894492 3.82853937 3.04980811 4.34548295 7.47175714 -0.8016713 6.87894492 3.82853937 2.29627449 4.48130234 7.05956013 -0.8016713 6.87894492 3.82853937 3.04980811 4.34548295 7.47175714 0.693287968 7.48259487 3.78889541 3.67919964 3.99465313 8.09232293 0.693287968 7.48259487 3.78889541 3.04980811 4.34548295 7.47175714 0.693287968 7.48259487 3.78889541 3.67919964 3.99465313 8.09232293 2.143014 7.52479734 3.69641891 0.588935203 -0.646055247 -1.02010273 0.0617064562 -0.289825465 0.683985244 -0.526711341 0.455709662 -2.83536109 -1.25246525 1.00976823 -1.39457601 0.0107720739 0.403723103 2.34720716 -1.25246525 1.00976823 -1.39457601 0.0617064562 -0.289825465 0.683985244 -1.51057609 1.95389786 0.0462171597 0.478899007 1.21306383 3.84349418 -1.51057609 1.95389786 0.0462171597 0.0107720739 0.403723103 2.34720716 -1.22376266 3.09233225 1.36355965 1.39161707 1.83141627 5.03243546 -1.22376266 3.09233225 1.36355965 0.478899007 1.21306383 3.84349418 -0.338756 4.25013562 2.46376646 2.62786034 2.18026154 5.94553177 -0.338756 4.25013562 2.46376646 1.39161707 1.83141627 5.03243546 0.997330364 5.10462739 3.227704 3.9536165 2.10590628 6.5840892 0.997330364 5.10462739 3.227704 2.62786034 2.18026154 5.94553177 0.997330364 5.10462739 3.227704 3.9536165 2.10590628 6.5840892 2.61581877 5.54034381 3.67552845 4.79246991 1.54504913 7.05955964 2.61581877 5.54034381 3.67552845 3.9536165 2.10590628 6.5840892 2.61581877 5.54034381 3.67552845 4.79246991 1.54504913 7.05955964 4.29728087 5.43101752 3.82853924 5.2292602 0.916181971 7.47175694 4.29728087 5.43101752 3.82853924 4.79246991 1.54504913 7.05955964 4.29728087 5.43101752 3.82853924 5.2292602 0.916181971 7.47175694 5.78122122 4.8007664 3.78889503 5.42623277 0.223060708 8.09232275 5.78122122 4.8007664 3.78889503 5.2292602 0.916181971 7.47175694 5.78122122 4.8007664 3.78889503 5.42623277 0.223060708 8.09232275 6.83617453 3.80549747 3.69641886 -0.040389733 -0.873270192 -1.02010284 -0.161304486 -0.248570701 0.683985184 -0.0502056425 0.694676825 -2.83536106 -0.17161282 1.59964085 -1.39457589 0.293092085 0.277858274 2.34720727 -0.17161282 1.59964085 -1.39457589 -0.161304486 -0.248570701 0.683985184 0.31347542 2.44975339 0.0462173934 1.19639791 0.519132928 3.84349444 0.31347542 2.44975339 0.0462173934 0.293092085 0.277858274 2.34720727 1.32127756 3.05194048 1.36355999 2.27902819 0.310985176 5.03243551 1.32127756 3.05194048 1.36355999 1.19639791 0.519132928 3.84349444 2.7657623 3.24483728 2.46376697 3.39985513 -0.316499895 5.945532 2.7657623 3.24483728 2.46376697 2.27902819 0.310985176 5.03243551 4.31473485 2.90429849 3.22770457 4.2847292 -1.30652813 6.5840893 4.31473485 2.90429849 3.22770457 3.39985513 -0.316499895 5.945532 4.31473485 2.90429849 3.22770457 4.2847292 -1.30652813 6.5840893 5.767277 2.06795271 3.67552896 4.48130254 -2.296273 7.05955989 5.767277 2.06795271 3.67552896 4.2847292 -1.30652813 6.5840893 5.767277 2.06795271 3.67552896 4.48130254 -2.296273 7.05955989 6.87894483 0.801674145 3.82853967 4.34548347 -3.04980681 7.47175699 6.87894483 0.801674145 3.82853967 4.48130254 -2.296273 7.05955989 6.87894483 0.801674145 3.82853967 4.34548347 -3.04980681 7.47175699 7.48259481 -0.693285071 3.78889548 3.99465345 -3.67919822 8.0923228 7.48259481 -0.693285071 3.78889548 4.34548347 -3.04980681 7.47175699 7.48259481 -0.693285071 3.78889548 3.99465345 -3.67919822 8.0923228 7.52479785 -2.14301114 3.696419</float_array>
        <technique_common><accessor source="#vfx_kurp_0243-mesh-positions-array" count="700" stride="3"><param name="X" type="float"/><param name="Y" type="float"/><param name="Z" type="float"/></accessor></technique_common>
      </source>
      <source id="vfx_kurp_0243-mesh-normals">
        <float_array id="vfx_kurp_0243-mesh-normals-array" count="2100">-0.782474122 0.0169269792 -0.622452991 -0.782474122 0.0169269792 -0.622452991 -0.782474106 0.0169269889 -0.622453011 -0.543518123 -0.4159206 -0.729107745 -0.543518147 -0.41592063 -0.72910771 -0.543518146 -0.415920631 -0.72910771 -0.654808922 -0.245449262 -0.714828605 -0.654808916 -0.245449238 -0.71482862 -0.654808916 -0.245449238 -0.71482862 -0.613325287 -0.291091617 -0.734232772 -0.613325278 -0.291091628 -0.734232775 -0.613325301 -0.29109163 -0.734232754 -0.430069349 -0.47065068 -0.770407874 -0.430069343 -0.470650685 -0.770407874 -0.430069361 -0.470650697 -0.770407857 -0.456454196 -0.457309203 -0.763228576 -0.456454221 -0.457309235 -0.763228542 -0.456454209 -0.457309219 -0.763228559 -0.116578477 -0.618545791 -0.777052484 -0.116578477 -0.618545791 -0.777052484 -0.116578477 -0.618545791 -0.777052484 -0.130956702 -0.61736528 -0.775699976 -0.130956702 -0.61736528 -0.775699976 -0.130956702 -0.61736528 -0.775699976 0.207831956 -0.66463836 -0.717678012 0.207831989 -0.664638375 -0.717677988 0.207831986 -0.664638394 -0.717677971 0.212995504 -0.663378512 -0.717329676 0.53155858 -0.606164015 -0.59161699 0.531558581 -0.606164033 -0.591616971 0.53155858 -0.606164015 -0.59161699 0.532990893 -0.605225167 -0.591289443 0.7987863 -0.44054213 -0.409710969 0.798786305 -0.440542125 -0.409710965 0.7987863 -0.44054213 -0.409710969 0.79764249 -0.442115068 -0.410244714 0.956832358 -0.215540684 -0.194971927 0.956832355 -0.215540729 -0.194971891 0.95683236 -0.215540696 -0.194971902 0.957554221 -0.213037666 -0.194177413 0.99716309 0.058638266 0.0471945608 0.997163086 0.0586383055 0.0471945816 0.99716309 0.058638266 0.0471945608 0.996926358 0.0618755129 0.048054741 -0.565261749 -0.54132369 -0.622453065 -0.565261751 -0.541323688 -0.622453064 -0.565261751 -0.541323688 -0.622453064 -0.0902256751 -0.678425655 -0.729107645 -0.0902256973 -0.678425644 -0.729107653 -0.0902256751 -0.678425655 -0.729107645 -0.28946128 -0.636578626 -0.714828525 -0.289461314 -0.636578628 -0.714828509 -0.28946128 -0.636578626 -0.714828525 -0.227852727 -0.639519363 -0.734233014 -0.227852727 -0.639519363 -0.734233014 -0.227852727 -0.639519363 -0.734233014 0.0286953799 -0.636905264 -0.770407853 0.0286953799 -0.636905264 -0.770407853 0.0286953799 -0.636905264 -0.770407853 0.000604082339 -0.646128511 -0.763228395 0.000604082339 -0.646128511 -0.763228395 0.000604082339 -0.646128511 -0.763228395 0.354944439 -0.519811532 -0.77705239 0.354944414 -0.519811545 -0.777052392 0.354944414 -0.519811545 -0.777052392 0.343942807 -0.529143639 -0.775699913 0.343942807 -0.529143639 -0.775699913 0.343942783 -0.529143651 -0.775699915 0.616929727 -0.323011029 -0.717677913 0.616929727 -0.323011029 -0.717677913 0.616929748 -0.323011053 -0.717677885 0.619689935 -0.318469168 -0.717329613 0.804491377 -0.0527543357 -0.591616941 0.804491377 -0.0527543357 -0.591616941 0.804491363 -0.0527543548 -0.591616957 0.80484032 -0.0510774411 -0.591289399 0.87633759 0.253316633 -0.409711011 0.87633759 0.253316633 -0.409711011 0.87633759 0.253316633 -0.409711011 0.876641026 0.251395617 -0.41024475 0.828993062 0.524172124 -0.194972018 0.828993054 0.524172136 -0.194972017 0.828993054 0.524172136 -0.194972017 0.82773361 0.526452467 -0.194177421 0.663637398 0.746564186 0.0471945051 0.663637398 0.746564186 0.0471945051 0.663637398 0.746564186 0.0471945051 0.661180933 0.748685866 0.0480546436 -0.0169273185 -0.782474175 -0.622452915 -0.0169273118 -0.782474158 -0.622452936 -0.0169273185 -0.782474175 -0.622452915 0.415920534 -0.543518247 -0.72910769 0.415920534 -0.543518247 -0.72910769 0.415920534 -0.543518247 -0.72910769 0.245449277 -0.654808884 -0.714828636 0.24544928 -0.654808864 -0.714828653 0.245449277 -0.654808884 -0.714828636 0.291091033 -0.613325837 -0.734232544 0.291091033 -0.613325837 -0.734232544 0.291091057 -0.613325827 -0.734232543 0.470650521 -0.430069754 -0.770407745 0.470650521 -0.430069754 -0.770407745 0.470650521 -0.430069754 -0.770407745 0.457309332 -0.456454043 -0.763228591 0.457309332 -0.456454043 -0.763228591 0.457309332 -0.456454043 -0.763228591 0.61854584 -0.116578604 -0.777052426 0.618545843 -0.116578602 -0.777052424 0.618545803 -0.116578541 -0.777052465 0.617365267 -0.130957081 -0.775699923 0.664638521 0.207831699 -0.717677937 0.664638521 0.207831699 -0.717677937 0.664638521 0.207831699 -0.717677937 0.663378639 0.212995219 -0.717329644 0.606164251 0.531558331 -0.591616972 0.606164246 0.531558336 -0.591616972 0.606164246 0.531558336 -0.591616972 0.605225258 0.532990844 -0.591289394 0.440542426 0.798786089 -0.409711063 0.440542414 0.798786097 -0.40971106 0.44054242 0.798786112 -0.409711023 0.44211544 0.797642269 -0.410244743 0.215541049 0.956832264 -0.194971987 0.215541049 0.956832264 -0.194971987 0.215541049 0.956832264 -0.194971987 0.213037956 0.957554148 -0.194177451 -0.0586380051 0.997163105 0.0471945534 -0.0586380051 0.997163105 0.0471945534 -0.058637998 0.997163107 0.0471945257 -0.0618752481 0.996926378 0.0480546709 0.541323845 -0.565261787 -0.622452895 0.541323845 -0.565261787 -0.622452895 0.541323833 -0.565261795 -0.622452899 0.678425802 -0.090224428 -0.729107663 0.678425798 -0.0902244328 -0.729107666 0.678425798 -0.0902244328 -0.729107666 0.636578737 -0.289461066 -0.714828513 0.636578738 -0.289461065 -0.714828513 0.636578753 -0.289461094 -0.714828487 0.639519396 -0.227854079 -0.734232566 0.639519396 -0.227854079 -0.734232566 0.639519381 -0.227854049 -0.734232588 0.636905321 0.0286954733 -0.770407802 0.636905329 0.0286954825 -0.770407795 0.636905321 0.0286954733 -0.770407802 0.646128234 0.000605215177 -0.763228628 0.646128212 0.000605257182 -0.763228647 0.646128212 0.000605257182 -0.763228647 0.519811188 0.354944773 -0.777052467 0.519811188 0.354944773 -0.777052467 0.519811163 0.354944769 -0.777052486 0.529143577 0.343942884 -0.775699921 0.529143568 0.343942896 -0.775699922 0.529143568 0.343942896 -0.775699922 0.323010821 0.616929775 -0.717677966 0.323010821 0.616929775 -0.717677966 0.32301081 0.616929784 -0.717677963 0.318468618 0.619690173 -0.717329651 0.0527537882 0.804491391 -0.59161697 0.0527538099 0.804491382 -0.591616981 0.0527537882 0.804491391 -0.59161697 0.0510772681 0.804840254 -0.591289505 -0.253317045 0.876337484 -0.409710982 -0.253317045 0.876337484 -0.409710982 -0.253317034 0.87633749 -0.409710975 -0.25139609 0.876640898 -0.410244734 -0.524172548 0.828992806 -0.194971967 -0.524172553 0.828992802 -0.19497197 -0.524172548 0.828992806 -0.194971967 -0.526452877 0.827733345 -0.19417744 -0.746564483 0.663637062 0.0471945097 -0.746564483 0.663637062 0.0471945097 -0.746564483 0.663637062 0.0471945097 -0.748686158 0.6611806 0.0480546738 0.782474128 -0.0169268487 -0.622452987 0.782474128 -0.0169268487 -0.622452987 0.782474128 -0.0169268487 -0.622452987 0.543518307 0.415920437 -0.729107702 0.543518312 0.415920463 -0.729107683 0.543518297 0.415920448 -0.729107702 0.654809004 0.245449146 -0.71482857 0.654809004 0.245449146 -0.71482857 0.654809004 0.245449146 -0.71482857 0.613325265 0.291091634 -0.734232783 0.613325265 0.291091634 -0.734232783 0.613325265 0.291091634 -0.734232783 0.430069226 0.470650766 -0.770407891 0.430069242 0.47065078 -0.770407873 0.430069253 0.470650787 -0.770407862 0.456454002 0.457309311 -0.763228628 0.456454018 0.457309326 -0.763228609 0.456454018 0.457309326 -0.763228609 0.116578492 0.618545771 -0.777052498 0.116578492 0.618545771 -0.777052498 0.116578492 0.618545771 -0.777052498 0.130957029 0.617365238 -0.775699954 0.130957019 0.617365231 -0.775699962 0.130957007 0.617365254 -0.775699945 -0.207831955 0.664638374 -0.717677999 -0.207831955 0.664638374 -0.717677999 -0.207831955 0.664638374 -0.717677999 -0.212995488 0.663378501 -0.717329692 -0.531558641 0.606164019 -0.591616931 -0.53155865 0.606164008 -0.591616935 -0.53155865 0.606164008 -0.591616935 -0.532991096 0.605225045 -0.591289385 -0.798786309 0.440542127 -0.409710955 -0.798786319 0.440542102 -0.409710962 -0.798786319 0.440542102 -0.409710962 -0.797642519 0.442115021 -0.410244708 -0.956832399 0.215540548 -0.194971876 -0.956832395 0.215540579 -0.194971861 -0.956832389 0.215540623 -0.194971841 -0.957554241 0.213037647 -0.194177333 -0.997163087 -0.0586383038 0.0471945633 -0.997163088 -0.0586382689 0.0471945885 -0.997163087 -0.0586383038 0.0471945633 -0.996926356 -0.0618755212 0.0480547693 0.565261609 0.541323868 -0.622453037 0.565261621 0.541323879 -0.622453016 0.565261609 0.541323868 -0.622453037 0.0902236946 0.678425916 -0.729107648 0.0902236946 0.678425916 -0.729107648 0.0902236946 0.678425916 -0.729107648 0.289461267 0.63657863 -0.714828527 0.289461267 0.63657863 -0.714828527 0.289461256 0.636578639 -0.714828523 0.22785453 0.639519308 -0.734232503 0.227854519 0.639519316 -0.734232499 0.22785453 0.639519308 -0.734232503 -0.0286956072 0.636905275 -0.770407836 -0.0286955916 0.636905257 -0.770407851 -0.0286956072 0.636905275 -0.770407836 -0.000604669601 0.646128413 -0.763228477 -0.000604669601 0.646128413 -0.763228477 -0.000604669601 0.646128413 -0.763228477 -0.354944535 0.51981144 -0.777052407 -0.354944526 0.519811451 -0.777052404 -0.354944526 0.519811451 -0.777052404 -0.343943003 0.529143461 -0.775699948 -0.343942994 0.529143472 -0.775699944 -0.343942973 0.529143455 -0.775699965 -0.616929847 0.323010848 -0.717677891 -0.616929816 0.323010841 -0.717677921 -0.616929816 0.323010841 -0.717677921 -0.61969005 0.318468843 -0.717329658 -0.804491357 0.0527539839 -0.591616999 -0.804491353 0.0527540236 -0.591617002 -0.804491373 0.0527539746 -0.591616978 -0.804840321 0.051077331 -0.591289407 -0.876337532 -0.25331694 -0.409710944 -0.87633753 -0.253316937 -0.40971095 -0.876337528 -0.253316935 -0.409710957 -0.876640969 -0.251395863 -0.410244721 -0.828992912 -0.524172384 -0.194971958 -0.828992912 -0.524172384 -0.194971958 -0.828992902 -0.524172393 -0.194971974 -0.827733467 -0.526452705 -0.194177386 -0.663637183 -0.746564375 0.0471945295 -0.663637186 -0.746564372 0.0471945298 -0.663637178 -0.746564378 0.0471945559 -0.661180751 -0.748686022 0.0480546985 0.0169267729 0.78247409 -0.622453037 0.0169267729 0.78247409 -0.622453037 0.0169267729 0.78247409 -0.622453037 -0.415921241 0.543517673 -0.729107715 -0.415921265 0.543517688 -0.72910769 -0.415921273 0.543517677 -0.729107694 -0.245449307 0.654808934 -0.714828579 -0.245449307 0.654808934 -0.714828579 -0.245449307 0.654808934 -0.714828579 -0.291091548 0.613325374 -0.734232726 -0.291091548 0.613325374 -0.734232726 -0.291091548 0.613325374 -0.734232726 -0.470650682 0.43006944 -0.770407822 -0.470650697 0.430069417 -0.770407826 -0.470650682 0.43006944 -0.770407822 -0.457309289 0.456454158 -0.763228548 -0.457309273 0.456454181 -0.763228543 -0.457309273 0.456454181 -0.763228543 -0.618545862 0.116578368 -0.777052444 -0.618545849 0.116578348 -0.777052457 -0.618545862 0.116578368 -0.777052444 -0.617365343 0.130956879 -0.775699896 -0.617365343 0.130956879 -0.775699896 -0.617365343 0.130956879 -0.775699896 -0.664638446 -0.20783194 -0.717677937 -0.664638446 -0.20783194 -0.717677937 -0.664638431 -0.207831927 -0.717677955 -0.663378542 -0.212995487 -0.717329654 -0.606164053 -0.531558548 -0.59161698 -0.606164059 -0.531558555 -0.591616968 -0.606164048 -0.531558541 -0.591616991 -0.605225159 -0.532990883 -0.59128946 -0.44054216 -0.798786273 -0.40971099 -0.44054216 -0.798786273 -0.40971099 -0.440542185 -0.798786259 -0.409710991 -0.442115041 -0.797642493 -0.410244736 -0.215540677 -0.956832348 -0.194971983 -0.215540677 -0.956832348 -0.194971983 -0.215540682 -0.956832353 -0.194971955 -0.213037681 -0.957554213 -0.194177435 0.058638375 -0.997163085 0.0471945227 0.0586383356 -0.997163087 0.04719453 0.0586383356 -0.997163087 0.04719453 0.0618755052 -0.99692636 0.0480546961 -0.541323673 0.56526182 -0.622453015 -0.541323673 0.56526182 -0.622453015 -0.541323673 0.56526182 -0.622453015 -0.678425634 0.0902257837 -0.729107651 -0.678425645 0.0902258034 -0.729107638 -0.678425634 0.0902257837 -0.729107651 -0.636578651 0.289461215 -0.714828529 -0.636578651 0.289461215 -0.714828529 -0.636578651 0.289461215 -0.714828529 -0.639519366 0.227853299 -0.734232834 -0.639519366 0.227853299 -0.734232834 -0.639519366 0.227853299 -0.734232834 -0.63690529 -0.0286952995 -0.770407834 -0.63690529 -0.0286952995 -0.770407834 -0.636905305 -0.0286952782 -0.770407823 -0.646128339 -0.000604591893 -0.76322854 -0.646128366 -0.000604549892 -0.763228517 -0.646128352 -0.000604570892 -0.763228529 -0.519811409 -0.354944485 -0.777052451 -0.519811409 -0.354944485 -0.777052451 -0.519811409 -0.354944485 -0.777052451 -0.529143512 -0.343942846 -0.775699982 -0.529143526 -0.343942861 -0.775699966 -0.529143526 -0.343942861 -0.775699966 -0.323011017 -0.616929626 -0.717678006 -0.323011017 -0.616929626 -0.717678006 -0.323011028 -0.616929642 -0.717677986 -0.318469075 -0.619689873 -0.717329707 -0.0527541242 -0.804491355 -0.59161699 -0.0527541242 -0.804491355 -0.59161699 -0.0527541242 -0.804491355 -0.59161699 -0.051077371 -0.804840299 -0.591289435 0.253316853 -0.876337564 -0.409710929 0.253316853 -0.876337564 -0.409710929 0.253316853 -0.876337564 -0.409710929 0.251395777 -0.876641005 -0.410244697 0.52417225 -0.828993 -0.194971941 0.52417225 -0.828993 -0.194971941 0.52417225 -0.828993 -0.194971941 0.526452615 -0.827733523 -0.194177391 0.746564243 -0.66363733 0.0471945472 0.746564243 -0.66363733 0.0471945472 0.746564241 -0.663637332 0.047194554 0.748685915 -0.661180873 0.0480546977 -0.748685915 0.661180873 -0.0480546977 -0.748685919 0.661180868 -0.0480547005 -0.748685917 0.66118087 -0.0480547073 -0.746564243 0.66363733 -0.0471945472 -0.526452603 0.827733529 0.194177397 -0.526452603 0.827733529 0.194177397 -0.526452615 0.827733523 0.194177391 -0.52417225 0.828993 0.194971941 -0.251395823 0.876641003 0.410244674 -0.251395777 0.876641005 0.410244697 -0.251395777 0.876641005 0.410244697 -0.253316853 0.876337564 0.409710929 0.051077364 0.804840282 0.591289458 0.051077364 0.804840282 0.591289458 0.051077371 0.804840299 0.591289435 0.0527541242 0.804491355 0.59161699 0.318469075 0.619689873 0.717329707 0.318469075 0.619689873 0.717329707 0.318469075 0.619689873 0.717329707 0.323011017 0.616929626 0.717678006 0.529143526 0.343942861 0.775699966 0.529143526 0.343942861 0.775699966 0.529143512 0.343942846 0.775699982 0.519811409 0.354944485 0.777052451 0.519811409 0.354944485 0.777052451 0.519811409 0.354944485 0.777052451 0.646128352 0.000604570892 0.763228529 0.646128366 0.000604549892 0.763228517 0.646128339 0.000604591893 0.76322854 0.636905305 0.0286952782 0.770407823 0.63690529 0.0286952995 0.770407834 0.63690529 0.0286952995 0.770407834 0.639519366 -0.227853299 0.734232834 0.639519366 -0.227853299 0.734232834 0.639519366 -0.227853299 0.734232834 0.636578651 -0.289461215 0.714828529 0.636578651 -0.289461215 0.714828529 0.636578651 -0.289461215 0.714828529 0.678425634 -0.0902257837 0.729107651 0.678425645 -0.0902258034 0.729107638 0.678425634 -0.0902257837 0.729107651 0.541323673 -0.56526182 0.622453015 0.541323673 -0.56526182 0.622453015 0.541323673 -0.56526182 0.622453015 -0.0618755052 0.99692636 -0.0480546961 -0.0618755052 0.99692636 -0.0480546961 -0.0618755052 0.99692636 -0.0480546961 -0.058638375 0.997163085 -0.0471945227 0.213037683 0.957554215 0.194177421 0.213037681 0.957554213 0.194177435 0.213037681 0.957554213 0.194177435 0.215540677 0.956832348 0.194971983 0.442115041 0.797642493 0.410244736 0.442115041 0.797642493 0.410244736 0.442115041 0.797642493 0.410244736 0.44054216 0.798786273 0.40971099 0.605225159 0.532990883 0.59128946 0.605225159 0.532990883 0.59128946 0.605225159 0.532990883 0.59128946 0.606164053 0.531558548 0.59161698 0.663378557 0.2129955 0.717329636 0.663378526 0.21299551 0.717329662 0.663378542 0.212995487 0.717329654 0.664638446 0.20783194 0.717677937 0.617365343 -0.130956879 0.775699896 0.617365343 -0.130956879 0.775699896 0.617365343 -0.130956879 0.775699896 0.618545862 -0.116578368 0.777052444 0.618545849 -0.116578348 0.777052457 0.618545862 -0.116578368 0.777052444 0.457309273 -0.456454181 0.763228543 0.457309273 -0.456454181 0.763228543 0.457309289 -0.456454158 0.763228548 0.470650682 -0.43006944 0.770407822 0.470650697 -0.430069417 0.770407826 0.470650682 -0.43006944 0.770407822 0.291091548 -0.613325374 0.734232726 0.291091548 -0.613325374 0.734232726 0.291091548 -0.613325374 0.734232726 0.245449307 -0.654808934 0.714828579 0.245449307 -0.654808934 0.714828579 0.245449307 -0.654808934 0.714828579 0.415921273 -0.543517677 0.729107694 0.415921265 -0.543517688 0.72910769 0.415921241 -0.543517673 0.729107715 -0.0169267729 -0.78247409 0.622453037 -0.0169267729 -0.78247409 0.622453037 -0.0169267729 -0.78247409 0.622453037 0.661180751 0.748686022 -0.0480546985 0.661180753 0.748686022 -0.0480546718 0.661180751 0.748686022 -0.0480546985 0.663637183 0.746564375 -0.0471945295 0.827733466 0.526452702 0.1941774 0.827733466 0.526452702 0.1941774 0.827733467 0.526452705 0.194177386 0.828992912 0.524172384 0.194971958 0.876640967 0.251395861 0.410244727 0.876640977 0.251395837 0.41024472 0.876640969 0.251395863 0.410244721 0.876337532 0.25331694 0.409710944 0.80484031 -0.051077251 0.591289429 0.804840306 -0.0510772906 0.591289432 0.804840321 -0.051077331 0.591289407 0.804491357 -0.0527539839 0.591616999 0.619690117 -0.318468842 0.7173296 0.61969007 -0.318468873 0.717329627 0.61969005 -0.318468843 0.717329658 0.616929847 -0.323010848 0.717677891 0.343942973 -0.529143455 0.775699965 0.343942994 -0.529143472 0.775699944 0.343943003 -0.529143461 0.775699948 0.354944526 -0.519811451 0.777052404 0.354944526 -0.519811451 0.777052404 0.354944535 -0.51981144 0.777052407 0.000604669601 -0.646128413 0.763228477 0.000604669601 -0.646128413 0.763228477 0.000604669601 -0.646128413 0.763228477 0.0286956072 -0.636905275 0.770407836 0.0286955916 -0.636905257 0.770407851 0.0286956072 -0.636905275 0.770407836 -0.22785453 -0.639519308 0.734232503 -0.227854519 -0.639519316 0.734232499 -0.22785453 -0.639519308 0.734232503 -0.289461256 -0.636578639 0.714828523 -0.289461267 -0.63657863 0.714828527 -0.289461267 -0.63657863 0.714828527 -0.0902236946 -0.678425916 0.729107648 -0.0902236946 -0.678425916 0.729107648 -0.0902236946 -0.678425916 0.729107648 -0.565261609 -0.541323868 0.622453037 -0.565261621 -0.541323879 0.622453016 -0.565261609 -0.541323868 0.622453037 0.996926356 0.0618755212 -0.0480547693 0.996926354 0.061875591 -0.0480547139 0.996926355 0.061875556 -0.0480547441 0.997163087 0.0586383038 -0.0471945633 0.957554241 -0.213037647 0.194177333 0.957554241 -0.213037647 0.194177333 0.957554241 -0.213037647 0.194177333 0.956832399 -0.215540548 0.194971876 0.797642519 -0.442115021 0.410244708 0.797642519 -0.442115021 0.410244708 0.797642519 -0.442115021 0.410244708 0.798786309 -0.440542127 0.409710955 0.532991104 -0.605225033 0.591289389 0.532991096 -0.605225045 0.591289385 0.532991096 -0.605225045 0.591289385 0.531558641 -0.606164019 0.591616931 0.212995488 -0.663378501 0.717329691 0.212995464 -0.663378488 0.717329711 0.212995488 -0.663378501 0.717329692 0.207831955 -0.664638374 0.717677999 -0.130957007 -0.617365254 0.775699945 -0.130957019 -0.617365231 0.775699962 -0.130957029 -0.617365238 0.775699954 -0.116578492 -0.618545771 0.777052498 -0.116578492 -0.618545771 0.777052498 -0.116578492 -0.618545771 0.777052498 -0.456454018 -0.457309326 0.763228609 -0.456454018 -0.457309326 0.763228609 -0.456454002 -0.457309311 0.763228628 -0.430069253 -0.470650787 0.770407862 -0.430069242 -0.47065078 0.770407873 -0.430069226 -0.470650766 0.770407891 -0.613325265 -0.291091634 0.734232783 -0.613325265 -0.291091634 0.734232783 -0.613325265 -0.291091634 0.734232783 -0.654809004 -0.245449146 0.71482857 -0.654809004 -0.245449146 0.71482857 -0.654809004 -0.245449146 0.71482857 -0.543518297 -0.415920448 0.729107702 -0.543518312 -0.415920463 0.729107683 -0.543518307 -0.415920437 0.729107702 -0.782474128 0.0169268487 0.622452987 -0.782474128 0.0169268487 0.622452987 -0.782474128 0.0169268487 0.622452987 0.748686158 -0.6611806 -0.0480546738 0.748686157 -0.6611806 -0.048054673 0.748686157 -0.6611806 -0.048054673 0.746564483 -0.663637062 -0.0471945097 0.526452865 -0.827733346 0.194177466 0.526452877 -0.827733345 0.19417744 0.526452877 -0.827733345 0.19417744 0.524172548 -0.828992806 0.194971967 0.25139609 -0.876640898 0.410244734 0.251396079 -0.876640905 0.410244727 0.25139609 -0.876640898 0.410244734 0.253317045 -0.876337484 0.409710982 -0.0510772464 -0.804840263 0.591289494 -0.0510772681 -0.804840254 0.591289505 -0.0510772681 -0.804840254 0.591289505 -0.0527537882 -0.804491391 0.59161697 -0.318468618 -0.619690173 0.717329651 -0.318468618 -0.619690173 0.717329651 -0.318468618 -0.619690173 0.717329651 -0.323010821 -0.616929775 0.717677966 -0.529143568 -0.343942896 0.775699922 -0.529143568 -0.343942896 0.775699922 -0.529143577 -0.343942884 0.775699921 -0.519811163 -0.354944769 0.777052486 -0.519811188 -0.354944773 0.777052467 -0.519811188 -0.354944773 0.777052467 -0.646128212 -0.000605257182 0.763228647 -0.646128212 -0.000605257182 0.763228647 -0.646128234 -0.000605215177 0.763228628 -0.636905321 -0.0286954733 0.770407802 -0.636905329 -0.0286954825 0.770407795 -0.636905321 -0.0286954733 0.770407802 -0.639519381 0.227854049 0.734232588 -0.639519396 0.227854079 0.734232566 -0.639519396 0.227854079 0.734232566 -0.636578753 0.289461094 0.714828487 -0.636578738 0.289461065 0.714828513 -0.636578737 0.289461066 0.714828513 -0.678425798 0.0902244328 0.729107666 -0.678425798 0.0902244328 0.729107666 -0.678425802 0.090224428 0.729107663 -0.541323833 0.565261795 0.622452899 -0.541323845 0.565261787 0.622452895 -0.541323845 0.565261787 0.622452895 0.0618752481 -0.996926378 -0.0480546709 0.0618752481 -0.996926378 -0.0480546709 0.0618752411 -0.996926379 -0.0480546432 0.0586380051 -0.997163105 -0.0471945534 -0.213037956 -0.957554148 0.194177451 -0.213037956 -0.957554148 0.194177451 -0.213037956 -0.957554148 0.194177451 -0.215541049 -0.956832264 0.194971987 -0.442115405 -0.79764227 0.410244779 -0.442115416 -0.797642262 0.410244782 -0.44211544 -0.797642269 0.410244743 -0.440542426 -0.798786089 0.409711063 -0.605225258 -0.532990844 0.591289394 -0.605225258 -0.532990844 0.591289394 -0.605225258 -0.532990844 0.591289394 -0.606164251 -0.531558331 0.591616972 -0.663378639 -0.212995219 0.717329644 -0.663378639 -0.212995219 0.717329644 -0.663378639 -0.212995219 0.717329644 -0.664638521 -0.207831699 0.717677937 -0.617365267 0.130957081 0.775699923 -0.617365267 0.130957081 0.775699923 -0.617365267 0.130957081 0.775699923 -0.61854584 0.116578604 0.777052426 -0.457309332 0.456454043 0.763228591 -0.457309332 0.456454043 0.763228591 -0.457309332 0.456454043 0.763228591 -0.470650521 0.430069754 0.770407745 -0.470650521 0.430069754 0.770407745 -0.470650521 0.430069754 0.770407745 -0.291091057 0.613325827 0.734232543 -0.291091033 0.613325837 0.734232544 -0.291091033 0.613325837 0.734232544 -0.245449277 0.654808884 0.714828636 -0.24544928 0.654808864 0.714828653 -0.245449277 0.654808884 0.714828636 -0.415920534 0.543518247 0.72910769 -0.415920534 0.543518247 0.72910769 -0.415920534 0.543518247 0.72910769 0.0169273185 0.782474175 0.622452915 0.0169273118 0.782474158 0.622452936 0.0169273185 0.782474175 0.622452915 -0.661180933 -0.748685866 -0.0480546436 -0.661180933 -0.748685866 -0.0480546436 -0.661180933 -0.748685864 -0.0480546714 -0.663637398 -0.746564186 -0.0471945051 -0.827733597 -0.52645247 0.194177469 -0.827733605 -0.526452457 0.19417747 -0.82773361 -0.526452467 0.194177421 -0.828993062 -0.524172124 0.194972018 -0.876641026 -0.251395617 0.41024475 -0.876641026 -0.251395617 0.41024475 -0.876641026 -0.251395617 0.41024475 -0.87633759 -0.253316633 0.409711011 -0.80484032 0.0510774411 0.591289399 -0.80484032 0.0510774411 0.591289399 -0.80484032 0.0510774411 0.591289399 -0.804491377 0.0527543357 0.591616941 -0.619689935 0.318469168 0.717329613 -0.619689935 0.318469168 0.717329613 -0.619689935 0.318469168 0.717329613 -0.616929727 0.323011029 0.717677913 -0.343942783 0.529143651 0.775699915 -0.343942807 0.529143639 0.775699913 -0.343942807 0.529143639 0.775699913 -0.354944414 0.519811545 0.777052392 -0.354944414 0.519811545 0.777052392 -0.354944439 0.519811532 0.77705239 -0.000604082339 0.646128511 0.763228395 -0.000604082339 0.646128511 0.763228395 -0.000604082339 0.646128511 0.763228395 -0.0286953799 0.636905264 0.770407853 -0.0286953799 0.636905264 0.770407853 -0.0286953799 0.636905264 0.770407853 0.227852727 0.639519363 0.734233014 0.227852727 0.639519363 0.734233014 0.227852727 0.639519363 0.734233014 0.28946128 0.636578626 0.714828525 0.289461314 0.636578628 0.714828509 0.28946128 0.636578626 0.714828525 0.0902256751 0.678425655 0.729107645 0.0902256973 0.678425644 0.729107653 0.0902256751 0.678425655 0.729107645 0.565261751 0.541323688 0.622453064 0.565261751 0.541323688 0.622453064 0.565261749 0.54132369 0.622453065 -0.996926358 -0.0618755129 -0.048054741 -0.996926358 -0.0618755129 -0.048054741 -0.996926358 -0.0618755129 -0.048054741 -0.99716309 -0.058638266 -0.0471945608 -0.957554223 0.213037678 0.194177387 -0.957554231 0.213037656 0.194177373 -0.957554221 0.213037666 0.194177413 -0.956832358 0.215540684 0.194971927 -0.797642496 0.442115043 0.41024473 -0.797642487 0.442115053 0.410244736 -0.79764249 0.442115068 0.410244714 -0.7987863 0.44054213 0.409710969 -0.532990892 0.605225149 0.591289462 -0.532990892 0.605225149 0.591289462 -0.532990893 0.605225167 0.591289443 -0.53155858 0.606164015 0.59161699 -0.212995507 0.663378493 0.717329693 -0.212995507 0.663378493 0.717329693 -0.212995504 0.663378512 0.717329676 -0.207831956 0.66463836 0.717678012 0.130956702 0.61736528 0.775699976 0.130956702 0.61736528 0.775699976 0.130956702 0.61736528 0.775699976 0.116578477 0.618545791 0.777052484 0.116578477 0.618545791 0.777052484 0.116578477 0.618545791 0.777052484 0.456454209 0.457309219 0.763228559 0.456454221 0.457309235 0.763228542 0.456454196 0.457309203 0.763228576 0.430069361 0.470650697 0.770407857 0.430069343 0.470650685 0.770407874 0.430069349 0.47065068 0.770407874 0.613325301 0.29109163 0.734232754 0.613325278 0.291091628 0.734232775 0.613325287 0.291091617 0.734232772 0.654808916 0.245449238 0.71482862 0.654808916 0.245449238 0.71482862 0.654808922 0.245449262 0.714828605 0.543518146 0.415920631 0.72910771 0.543518147 0.41592063 0.72910771 0.543518123 0.4159206 0.729107745 0.782474106 -0.0169269889 0.622453011 0.782474122 -0.0169269792 0.622452991 0.782474122 -0.0169269792 0.622452991</float_array>
        <technique_common><accessor source="#vfx_kurp_0243-mesh-normals-array" count="700" stride="3"><param name="X" type="float"/><param name="Y" type="float"/><param name="Z" type="float"/></accessor></technique_common>
      </source>
      <source id="vfx_kurp_0243-mesh-uv0">
        <float_array id="vfx_kurp_0243-mesh-uv0-array" count="1400">1 1 0 1 1 0.888888896 -0.069657065 0.870609105 1 0.888888896 0 1 1 0.888888896 -0.069657065 0.870609105 1 0.777777791 0 0.777777791 1 0.777777791 -0.069657065 0.870609105 1 0.777777791 0 0.777777791 1 0.666666627 0 0.666666627 1 0.666666627 0 0.777777791 1 0.666666627 0 0.666666627 1 0.555555582 0 0.555555582 1 0.555555582 0 0.666666627 1 0.555555582 0 0.555555582 1 0.444444418 0 0.444444418 1 0.444444418 0 0.444444418 1 0.333333313 0 0.333333313 1 0.333333313 0 0.333333313 1 0.222222209 0 0.222222209 1 0.222222209 0 0.222222209 1 0.111111104 0 0.111111104 1 0.111111104 0 0.111111104 1 0 0 0 1 1 0 1 1 0.888888896 -0.069657065 0.870609105 1 0.888888896 0 1 1 0.888888896 -0.069657065 0.870609105 1 0.777777791 0 0.777777791 1 0.777777791 -0.069657065 0.870609105 1 0.777777791 0 0.777777791 1 0.666666627 0 0.666666627 1 0.666666627 0 0.777777791 1 0.666666627 0 0.666666627 1 0.555555582 0 0.555555582 1 0.555555582 0 0.666666627 1 0.555555582 0 0.555555582 1 0.444444418 0 0.444444418 1 0.444444418 0 0.444444418 1 0.333333313 0 0.333333313 1 0.333333313 0 0.333333313 1 0.222222209 0 0.222222209 1 0.222222209 0 0.222222209 1 0.111111104 0 0.111111104 1 0.111111104 0 0.111111104 1 0 0 0 1 1 0 1 1 0.888888896 -0.069657065 0.870609105 1 0.888888896 0 1 1 0.888888896 -0.069657065 0.870609105 1 0.777777791 0 0.777777791 1 0.777777791 -0.069657065 0.870609105 1 0.777777791 0 0.777777791 1 0.666666627 0 0.666666627 1 0.666666627 0 0.777777791 1 0.666666627 0 0.666666627 1 0.555555582 0 0.555555582 1 0.555555582 0 0.555555582 1 0.444444418 0 0.444444418 1 0.444444418 0 0.444444418 1 0.333333313 0 0.333333313 1 0.333333313 0 0.333333313 1 0.222222209 0 0.222222209 1 0.222222209 0 0.222222209 1 0.111111104 0 0.111111104 1 0.111111104 0 0.111111104 1 0 0 0 1 1 0 1 1 0.888888896 -0.069657065 0.870609105 1 0.888888896 0 1 1 0.888888896 -0.069657065 0.870609105 1 0.777777791 0 0.777777791 1 0.777777791 -0.069657065 0.870609105 1 0.777777791 0 0.777777791 1 0.666666627 0 0.666666627 1 0.666666627 0 0.777777791 1 0.666666627 0 0.666666627 1 0.555555582 0 0.555555582 1 0.555555582 0 0.666666627 1 0.555555582 0 0.555555582 1 0.444444418 0 0.444444418 1 0.444444418 0 0.444444418 1 0.333333313 0 0.333333313 1 0.333333313 0 0.333333313 1 0.222222209 0 0.222222209 1 0.222222209 0 0.222222209 1 0.111111104 0 0.111111104 1 0.111111104 0 0.111111104 1 0 0 0 1 1 0 1 1 0.888888896 -0.069657065 0.870609105 1 0.888888896 0 1 1 0.888888896 -0.069657065 0.870609105 1 0.777777791 0 0.777777791 1 0.777777791 -0.069657065 0.870609105 1 0.777777791 0 0.777777791 1 0.666666627 0 0.666666627 1 0.666666627 0 0.777777791 1 0.666666627 0 0.666666627 1 0.555555582 0 0.555555582 1 0.555555582 0 0.666666627 1 0.555555582 0 0.555555582 1 0.444444418 0 0.444444418 1 0.444444418 0 0.444444418 1 0.333333313 0 0.333333313 1 0.333333313 0 0.333333313 1 0.222222209 0 0.222222209 1 0.222222209 0 0.222222209 1 0.111111104 0 0.111111104 1 0.111111104 0 0.111111104 1 0 0 0 1 1 0 1 1 0.888888896 -0.069657065 0.870609105 1 0.888888896 0 1 1 0.888888896 -0.069657065 0.870609105 1 0.777777791 0 0.777777791 1 0.777777791 -0.069657065 0.870609105 1 0.777777791 0 0.777777791 1 0.666666627 0 0.666666627 1 0.666666627 0 0.777777791 1 0.666666627 0 0.666666627 1 0.555555582 0 0.555555582 1 0.555555582 0 0.666666627 1 0.555555582 0 0.555555582 1 0.444444418 0 0.444444418 1 0.444444418 0 0.444444418 1 0.333333313 0 0.333333313 1 0.333333313 0 0.333333313 1 0.222222209 0 0.222222209 1 0.222222209 0 0.222222209 1 0.111111104 0 0.111111104 1 0.111111104 0 0.111111104 1 0 0 0 1 1 0 1 1 0.888888896 -0.069657065 0.870609105 1 0.888888896 0 1 1 0.888888896 -0.069657065 0.870609105 1 0.777777791 0 0.777777791 1 0.777777791 -0.069657065 0.870609105 1 0.777777791 0 0.777777791 1 0.666666627 0 0.666666627 1 0.666666627 0 0.777777791 1 0.666666627 0 0.666666627 1 0.555555582 0 0.555555582 1 0.555555582 0 0.666666627 1 0.555555582 0 0.555555582 1 0.444444418 0 0.444444418 1 0.444444418 0 0.444444418 1 0.333333313 0 0.333333313 1 0.333333313 0 0.333333313 1 0.222222209 0 0.222222209 1 0.222222209 0 0.222222209 1 0.111111104 0 0.111111104 1 0.111111104 0 0.111111104 1 0 0 0 1 1 0 1 1 0.888888896 -0.069657065 0.870609105 1 0.888888896 0 1 1 0.888888896 -0.069657065 0.870609105 1 0.777777791 0 0.777777791 1 0.777777791 -0.069657065 0.870609105 1 0.777777791 0 0.777777791 1 0.666666627 0 0.666666627 1 0.666666627 0 0.777777791 1 0.666666627 0 0.666666627 1 0.555555582 0 0.555555582 1 0.555555582 0 0.666666627 1 0.555555582 0 0.555555582 1 0.444444418 0 0.444444418 1 0.444444418 0 0.444444418 1 0.333333313 0 0.333333313 1 0.333333313 0 0.333333313 1 0.222222209 0 0.222222209 1 0.222222209 0 0.222222209 1 0.111111104 0 0.111111104 1 0.111111104 0 0.111111104 1 0 0 0 0 0 0 0.111111104 1 0 1 0.111111104 0 0.222222209 1 0.111111104 0 0.111111104 1 0.222222209 0 0.333333313 1 0.222222209 0 0.222222209 1 0.333333313 0 0.444444418 1 0.333333313 0 0.333333313 1 0.444444418 0 0.555555582 1 0.444444418 0 0.444444418 1 0.555555582 0 0.666666627 1 0.555555582 0 0.555555582 1 0.555555582 0 0.666666627 1 0.666666627 0 0.777777791 1 0.666666627 0 0.666666627 1 0.666666627 0 0.777777791 1 0.777777791 -0.069657065 0.870609105 1 0.777777791 0 0.777777791 1 0.777777791 -0.069657065 0.870609105 1 0.888888896 0 1 1 0.888888896 -0.069657065 0.870609105 1 0.888888896 0 1 1 1 0 0 0 0.111111104 1 0 1 0.111111104 0 0.222222209 1 0.111111104 0 0.111111104 1 0.222222209 0 0.333333313 1 0.222222209 0 0.222222209 1 0.333333313 0 0.444444418 1 0.333333313 0 0.333333313 1 0.444444418 0 0.555555582 1 0.444444418 0 0.444444418 1 0.555555582 0 0.666666627 1 0.555555582 0 0.555555582 1 0.555555582 0 0.666666627 1 0.666666627 0 0.777777791 1 0.666666627 0 0.666666627 1 0.666666627 0 0.777777791 1 0.777777791 -0.069657065 0.870609105 1 0.777777791 0 0.777777791 1 0.777777791 -0.069657065 0.870609105 1 0.888888896 0 1 1 0.888888896 -0.069657065 0.870609105 1 0.888888896 0 1 1 1 0 0 0 0.111111104 1 0 1 0.111111104 0 0.222222209 1 0.111111104 0 0.111111104 1 0.222222209 0 0.333333313 1 0.222222209 0 0.222222209 1 0.333333313 0 0.444444418 1 0.333333313 0 0.333333313 1 0.444444418 0 0.555555582 1 0.444444418 0 0.444444418 1 0.555555582 0 0.666666627 1 0.555555582 0 0.555555582 1 0.555555582 0 0.666666627 1 0.666666627 0 0.777777791 1 0.666666627 0 0.666666627 1 0.666666627 0 0.777777791 1 0.777777791 -0.069657065 0.870609105 1 0.777777791 0 0.777777791 1 0.777777791 -0.069657065 0.870609105 1 0.888888896 0 1 1 0.888888896 -0.069657065 0.870609105 1 0.888888896 0 1 1 1 0 0 0 0.111111104 1 0 1 0.111111104 0 0.222222209 1 0.111111104 0 0.111111104 1 0.222222209 0 0.333333313 1 0.222222209 0 0.222222209 1 0.333333313 0 0.444444418 1 0.333333313 0 0.333333313 1 0.444444418 0 0.555555582 1 0.444444418 0 0.444444418 1 0.555555582 0 0.666666627 1 0.555555582 0 0.555555582 1 0.555555582 0 0.666666627 1 0.666666627 0 0.777777791 1 0.666666627 0 0.666666627 1 0.666666627 0 0.777777791 1 0.777777791 -0.069657065 0.870609105 1 0.777777791 0 0.777777791 1 0.777777791 -0.069657065 0.870609105 1 0.888888896 0 1 1 0.888888896 -0.069657065 0.870609105 1 0.888888896 0 1 1 1 0 0 0 0.111111104 1 0 1 0.111111104 0 0.222222209 1 0.111111104 0 0.111111104 1 0.222222209 0 0.333333313 1 0.222222209 0 0.222222209 1 0.333333313 0 0.444444418 1 0.333333313 0 0.333333313 1 0.444444418 0 0.555555582 1 0.444444418 0 0.444444418 1 0.555555582 0 0.666666627 1 0.555555582 0 0.555555582 1 0.555555582 0 0.666666627 1 0.666666627 0 0.777777791 1 0.666666627 0 0.666666627 1 0.666666627 0 0.777777791 1 0.777777791 -0.069657065 0.870609105 1 0.777777791 0 0.777777791 1 0.777777791 -0.069657065 0.870609105 1 0.888888896 0 1 1 0.888888896 -0.069657065 0.870609105 1 0.888888896 0 1 1 1 0 0 0 0.111111104 1 0 1 0.111111104 0 0.222222209 1 0.111111104 0 0.111111104 1 0.222222209 0 0.333333313 1 0.222222209 0 0.222222209 1 0.333333313 0 0.444444418 1 0.333333313 0 0.333333313 1 0.444444418 0 0.555555582 1 0.444444418 0 0.444444418 1 0.555555582 0 0.666666627 1 0.555555582 0 0.555555582 1 0.666666627 0 0.777777791 1 0.666666627 0 0.666666627 1 0.666666627 0 0.777777791 1 0.777777791 -0.069657065 0.870609105 1 0.777777791 0 0.777777791 1 0.777777791 -0.069657065 0.870609105 1 0.888888896 0 1 1 0.888888896 -0.069657065 0.870609105 1 0.888888896 0 1 1 1 0 0 0 0.111111104 1 0 1 0.111111104 0 0.222222209 1 0.111111104 0 0.111111104 1 0.222222209 0 0.333333313 1 0.222222209 0 0.222222209 1 0.333333313 0 0.444444418 1 0.333333313 0 0.333333313 1 0.444444418 0 0.555555582 1 0.444444418 0 0.444444418 1 0.555555582 0 0.666666627 1 0.555555582 0 0.555555582 1 0.555555582 0 0.666666627 1 0.666666627 0 0.777777791 1 0.666666627 0 0.666666627 1 0.666666627 0 0.777777791 1 0.777777791 -0.069657065 0.870609105 1 0.777777791 0 0.777777791 1 0.777777791 -0.069657065 0.870609105 1 0.888888896 0 1 1 0.888888896 -0.069657065 0.870609105 1 0.888888896 0 1 1 1 0 0 0 0.111111104 1 0 1 0.111111104 0 0.222222209 1 0.111111104 0 0.111111104 1 0.222222209 0 0.333333313 1 0.222222209 0 0.222222209 1 0.333333313 0 0.444444418 1 0.333333313 0 0.333333313 1 0.444444418 0 0.555555582 1 0.444444418 0 0.444444418 1 0.555555582 0 0.666666627 1 0.555555582 0 0.555555582 1 0.555555582 0 0.666666627 1 0.666666627 0 0.777777791 1 0.666666627 0 0.666666627 1 0.666666627 0 0.777777791 1 0.777777791 -0.069657065 0.870609105 1 0.777777791 0 0.777777791 1 0.777777791 -0.069657065 0.870609105 1 0.888888896 0 1 1 0.888888896 -0.069657065 0.870609105 1 0.888888896 0 1 1 1</float_array>
        <technique_common><accessor source="#vfx_kurp_0243-mesh-uv0-array" count="700" stride="2"><param name="S" type="float"/><param name="T" type="float"/></accessor></technique_common>
      </source>
      <vertices id="vfx_kurp_0243-mesh-vertices"><input semantic="POSITION" source="#vfx_kurp_0243-mesh-positions"/></vertices>
      <triangles material="PreviewMaterial" count="288">
        <input semantic="VERTEX" source="#vfx_kurp_0243-mesh-vertices" offset="0"/>
        <input semantic="NORMAL" source="#vfx_kurp_0243-mesh-normals" offset="1"/>
        <input semantic="TEXCOORD" source="#vfx_kurp_0243-mesh-uv0" offset="2" set="0"/>
        <p>0 0 0 1 1 1 2 2 2 3 3 3 4 4 4 5 5 5 6 6 6 7 7 7 8 8 8 9 9 9 10 10 10 11 11 11 12 12 12 13 13 13 14 14 14 15 15 15 16 16 16 17 17 17 18 18 18 19 19 19 20 20 20 21 21 21 22 22 22 23 23 23 24 24 24 25 25 25 26 26 26 27 27 27 26 26 26 25 25 25 28 28 28 29 29 29 30 30 30 31 31 31 30 30 30 29 29 29 32 32 32 33 33 33 34 34 34 35 35 35 34 34 34 33 33 33 36 36 36 37 37 37 38 38 38 39 39 39 38 38 38 37 37 37 40 40 40 41 41 41 42 42 42 43 43 43 42 42 42 41 41 41 44 44 44 45 45 45 46 46 46 47 47 47 48 48 48 49 49 49 50 50 50 51 51 51 52 52 52 53 53 53 54 54 54 55 55 55 56 56 56 57 57 57 58 58 58 59 59 59 60 60 60 61 61 61 62 62 62 63 63 63 64 64 64 65 65 65 66 66 66 67 67 67 68 68 68 69 69 69 70 70 70 71 71 71 70 70 70 69 69 69 72 72 72 73 73 73 74 74 74 75 75 75 74 74 74 73 73 73 76 76 76 77 77 77 78 78 78 79 79 79 78 78 78 77 77 77 80 80 80 81 81 81 82 82 82 83 83 83 82 82 82 81 81 81 84 84 84 85 85 85 86 86 86 87 87 87 86 86 86 85 85 85 88 88 88 89 89 89 90 90 90 91 91 91 92 92 92 93 93 93 94 94 94 95 95 95 96 96 96 97 97 97 98 98 98 99 99 99 100 100 100 101 101 101 102 102 102 103 103 103 104 104 104 105 105 105 106 106 106 107 107 107 108 108 108 109 109 109 108 108 108 107 107 107 110 110 110 111 111 111 112 112 112 113 113 113 112 112 112 111 111 111 114 114 114 115 115 115 116 116 116 117 117 117 116 116 116 115 115 115 118 118 118 119 119 119 120 120 120 121 121 121 120 120 120 119 119 119 122 122 122 123 123 123 124 124 124 125 125 125 124 124 124 123 123 123 126 126 126 127 127 127 128 128 128 129 129 129 128 128 128 127 127 127 130 130 130 131 131 131 132 132 132 133 133 133 134 134 134 135 135 135 136 136 136 137 137 137 138 138 138 139 139 139 140 140 140 141 141 141 142 142 142 143 143 143 144 144 144 145 145 145 146 146 146 147 147 147 148 148 148 149 149 149 150 150 150 151 151 151 152 152 152 153 153 153 154 154 154 155 155 155 156 156 156 157 157 157 156 156 156 155 155 155 158 158 158 159 159 159 160 160 160 161 161 161 160 160 160 159 159 159 162 162 162 163 163 163 164 164 164 165 165 165 164 164 164 163 163 163 166 166 166 167 167 167 168 168 168 169 169 169 168 168 168 167 167 167 170 170 170 171 171 171 172 172 172 173 173 173 172 172 172 171 171 171 174 174 174 175 175 175 176 176 176 177 177 177 178 178 178 179 179 179 180 180 180 181 181 181 182 182 182 183 183 183 184 184 184 185 185 185 186 186 186 187 187 187 188 188 188 189 189 189 190 190 190 191 191 191 192 192 192 193 193 193 194 194 194 195 195 195 196 196 196 197 197 197 198 198 198 199 199 199 200 200 200 201 201 201 200 200 200 199 199 199 202 202 202 203 203 203 204 204 204 205 205 205 204 204 204 203 203 203 206 206 206 207 207 207 208 208 208 209 209 209 208 208 208 207 207 207 210 210 210 211 211 211 212 212 212 213 213 213 212 212 212 211 211 211 214 214 214 215 215 215 216 216 216 217 217 217 216 216 216 215 215 215 218 218 218 219 219 219 220 220 220 221 221 221 222 222 222 223 223 223 224 224 224 225 225 225 226 226 226 227 227 227 228 228 228 229 229 229 230 230 230 231 231 231 232 232 232 233 233 233 234 234 234 235 235 235 236 236 236 237 237 237 238 238 238 239 239 239 240 240 240 241 241 241 242 242 242 243 243 243 244 244 244 245 245 245 244 244 244 243 243 243 246 246 246 247 247 247 248 248 248 249 249 249 248 248 248 247 247 247 250 250 250 251 251 251 252 252 252 253 253 253 252 252 252 251 251 251 254 254 254 255 255 255 256 256 256 257 257 257 256 256 256 255 255 255 258 258 258 259 259 259 260 260 260 261 261 261 260 260 260 259 259 259 262 262 262 263 263 263 264 264 264 265 265 265 266 266 266 267 267 267 268 268 268 269 269 269 270 270 270 271 271 271 272 272 272 273 273 273 274 274 274 275 275 275 276 276 276 277 277 277 278 278 278 279 279 279 280 280 280 281 281 281 282 282 282 283 283 283 284 284 284 285 285 285 286 286 286 287 287 287 288 288 288 289 289 289 288 288 288 287 287 287 290 290 290 291 291 291 292 292 292 293 293 293 292 292 292 291 291 291 294 294 294 295 295 295 296 296 296 297 297 297 296 296 296 295 295 295 298 298 298 299 299 299 300 300 300 301 301 301 300 300 300 299 299 299 302 302 302 303 303 303 304 304 304 305 305 305 304 304 304 303 303 303 306 306 306 307 307 307 308 308 308 309 309 309 310 310 310 311 311 311 312 312 312 313 313 313 314 314 314 315 315 315 316 316 316 317 317 317 318 318 318 319 319 319 320 320 320 321 321 321 322 322 322 323 323 323 324 324 324 325 325 325 326 326 326 327 327 327 328 328 328 329 329 329 330 330 330 331 331 331 332 332 332 333 333 333 332 332 332 331 331 331 334 334 334 335 335 335 336 336 336 337 337 337 336 336 336 335 335 335 338 338 338 339 339 339 340 340 340 341 341 341 340 340 340 339 339 339 342 342 342 343 343 343 344 344 344 345 345 345 344 344 344 343 343 343 346 346 346 347 347 347 348 348 348 349 349 349 348 348 348 347 347 347 350 350 350 351 351 351 352 352 352 352 352 352 351 351 351 353 353 353 354 354 354 355 355 355 356 356 356 355 355 355 354 354 354 357 357 357 358 358 358 359 359 359 360 360 360 359 359 359 358 358 358 361 361 361 362 362 362 363 363 363 364 364 364 363 363 363 362 362 362 365 365 365 366 366 366 367 367 367 368 368 368 367 367 367 366 366 366 369 369 369 370 370 370 371 371 371 372 372 372 373 373 373 374 374 374 375 375 375 376 376 376 377 377 377 378 378 378 379 379 379 380 380 380 381 381 381 382 382 382 383 383 383 384 384 384 385 385 385 386 386 386 387 387 387 388 388 388 389 389 389 390 390 390 391 391 391 392 392 392 393 393 393 394 394 394 395 395 395 396 396 396 396 396 396 395 395 395 397 397 397 398 398 398 399 399 399 400 400 400 399 399 399 398 398 398 401 401 401 402 402 402 403 403 403 404 404 404 403 403 403 402 402 402 405 405 405 406 406 406 407 407 407 408 408 408 407 407 407 406 406 406 409 409 409 410 410 410 411 411 411 412 412 412 411 411 411 410 410 410 413 413 413 414 414 414 415 415 415 416 416 416 417 417 417 418 418 418 419 419 419 420 420 420 421 421 421 422 422 422 423 423 423 424 424 424 425 425 425 426 426 426 427 427 427 428 428 428 429 429 429 430 430 430 431 431 431 432 432 432 433 433 433 434 434 434 435 435 435 436 436 436 437 437 437 438 438 438 439 439 439 440 440 440 440 440 440 439 439 439 441 441 441 442 442 442 443 443 443 444 444 444 443 443 443 442 442 442 445 445 445 446 446 446 447 447 447 448 448 448 447 447 447 446 446 446 449 449 449 450 450 450 451 451 451 452 452 452 451 451 451 450 450 450 453 453 453 454 454 454 455 455 455 456 456 456 455 455 455 454 454 454 457 457 457 458 458 458 459 459 459 460 460 460 461 461 461 462 462 462 463 463 463 464 464 464 465 465 465 466 466 466 467 467 467 468 468 468 469 469 469 470 470 470 471 471 471 472 472 472 473 473 473 474 474 474 475 475 475 476 476 476 477 477 477 478 478 478 479 479 479 480 480 480 481 481 481 482 482 482 483 483 483 484 484 484 484 484 484 483 483 483 485 485 485 486 486 486 487 487 487 488 488 488 487 487 487 486 486 486 489 489 489 490 490 490 491 491 491 492 492 492 491 491 491 490 490 490 493 493 493 494 494 494 495 495 495 496 496 496 495 495 495 494 494 494 497 497 497 498 498 498 499 499 499 500 500 500 499 499 499 498 498 498 501 501 501 502 502 502 503 503 503 504 504 504 505 505 505 506 506 506 507 507 507 508 508 508 509 509 509 510 510 510 511 511 511 512 512 512 513 513 513 514 514 514 515 515 515 516 516 516 517 517 517 518 518 518 519 519 519 520 520 520 521 521 521 522 522 522 523 523 523 524 524 524 525 525 525 526 526 526 527 527 527 528 528 528 528 528 528 527 527 527 529 529 529 530 530 530 531 531 531 532 532 532 531 531 531 530 530 530 533 533 533 534 534 534 535 535 535 536 536 536 535 535 535 534 534 534 537 537 537 538 538 538 539 539 539 540 540 540 539 539 539 538 538 538 541 541 541 542 542 542 543 543 543 544 544 544 543 543 543 542 542 542 545 545 545 546 546 546 547 547 547 548 548 548 549 549 549 550 550 550 551 551 551 552 552 552 553 553 553 554 554 554 555 555 555 556 556 556 557 557 557 558 558 558 559 559 559 560 560 560 561 561 561 562 562 562 563 563 563 564 564 564 565 565 565 566 566 566 567 567 567 568 568 568 569 569 569 570 570 570 571 571 571 572 572 572 572 572 572 571 571 571 573 573 573 574 574 574 575 575 575 576 576 576 575 575 575 574 574 574 577 577 577 578 578 578 579 579 579 580 580 580 579 579 579 578 578 578 581 581 581 582 582 582 583 583 583 584 584 584 583 583 583 582 582 582 585 585 585 586 586 586 587 587 587 588 588 588 587 587 587 586 586 586 589 589 589 590 590 590 591 591 591 592 592 592 591 591 591 590 590 590 593 593 593 594 594 594 595 595 595 596 596 596 597 597 597 598 598 598 599 599 599 600 600 600 601 601 601 602 602 602 603 603 603 604 604 604 605 605 605 606 606 606 607 607 607 608 608 608 609 609 609 610 610 610 611 611 611 612 612 612 613 613 613 614 614 614 614 614 614 613 613 613 615 615 615 616 616 616 617 617 617 618 618 618 617 617 617 616 616 616 619 619 619 620 620 620 621 621 621 622 622 622 621 621 621 620 620 620 623 623 623 624 624 624 625 625 625 626 626 626 625 625 625 624 624 624 627 627 627 628 628 628 629 629 629 630 630 630 629 629 629 628 628 628 631 631 631 632 632 632 633 633 633 634 634 634 635 635 635 636 636 636 637 637 637 638 638 638 639 639 639 640 640 640 641 641 641 642 642 642 643 643 643 644 644 644 645 645 645 646 646 646 647 647 647 648 648 648 649 649 649 650 650 650 651 651 651 652 652 652 653 653 653 654 654 654 655 655 655 656 656 656 657 657 657 658 658 658 658 658 658 657 657 657 659 659 659 660 660 660 661 661 661 662 662 662 661 661 661 660 660 660 663 663 663 664 664 664 665 665 665 666 666 666 665 665 665 664 664 664 667 667 667 668 668 668 669 669 669 670 670 670 669 669 669 668 668 668 671 671 671 672 672 672 673 673 673 674 674 674 673 673 673 672 672 672 675 675 675 676 676 676 677 677 677 678 678 678 679 679 679 680 680 680 681 681 681 682 682 682 683 683 683 684 684 684 685 685 685 686 686 686 687 687 687 688 688 688 689 689 689 690 690 690 691 691 691 692 692 692 693 693 693 694 694 694 695 695 695 696 696 696 697 697 697 698 698 698 699 699 699</p>
      </triangles>
    </mesh></geometry>
  </library_geometries>
  <library_visual_scenes>
    <visual_scene id="Scene" name="Scene">
      <node id="vfx_kurp_0243" name="vfx_kurp_0243" type="NODE">
        <instance_geometry url="#vfx_kurp_0243-mesh"><bind_material><technique_common><instance_material symbol="PreviewMaterial" target="#PreviewMaterial"><bind_vertex_input semantic="UVSET0" input_semantic="TEXCOORD" input_set="0"/></instance_material></technique_common></bind_material></instance_geometry>
      </node>
    </visual_scene>
  </library_visual_scenes>
  <scene><instance_visual_scene url="#Scene"/></scene>
</COLLADA>
