<?xml version="1.0" encoding="utf-8"?>
<COLLADA xmlns="http://www.collada.org/2005/11/COLLADASchema" version="1.4.1">
  <asset>
    <contributor><authoring_tool>Morrobroom Kurpulio VFX preview converter</authoring_tool></contributor>
    <unit name="unit" meter="1"/>
    <up_axis>Z_UP</up_axis>
  </asset>
  <library_images>
    <image id="VFXTexture" name="darkmap_newgen-1.dds">
      <init_from>../../../Textures/Kurp/darkmap_newgen-1.dds</init_from>
    </image>
  </library_images>
  <library_effects>
    <effect id="PreviewEffect">
      <profile_COMMON>
        <newparam sid="VFXTexture-surface">
          <surface type="2D"><init_from>VFXTexture</init_from></surface>
        </newparam>
        <newparam sid="VFXTexture-sampler">
          <sampler2D><source>VFXTexture-surface</source></sampler2D>
        </newparam>
        <technique sid="common"><phong>
          <emission><color>0.08 0.08 0.08 1</color></emission>
          <ambient><color>0.2 0.2 0.2 1</color></ambient>
          <diffuse><texture texture="VFXTexture-sampler" texcoord="UVSET0"/></diffuse>
          <specular><color>0.15 0.15 0.15 1</color></specular>
          <shininess><float>8</float></shininess>
          <transparent opaque="A_ONE"><texture texture="VFXTexture-sampler" texcoord="UVSET0"/></transparent>
          <transparency><float>1</float></transparency>
        </phong></technique>
      </profile_COMMON>
      <extra><technique profile="GOOGLEEARTH"><double_sided>1</double_sided></technique></extra>
    </effect>
  </library_effects>
  <library_materials><material id="PreviewMaterial" name="PreviewMaterial"><instance_effect url="#PreviewEffect"/></material></library_materials>
  <library_geometries>
    <geometry id="vfx_kurp_0579-mesh" name="vfx_kurp_0579"><mesh>
      <source id="vfx_kurp_0579-mesh-positions">
        <float_array id="vfx_kurp_0579-mesh-positions-array" count="312">5.15209877 -12.9982227 0.264401238 4.96468072 -13.0314269 0.642169023 4.47593549 -11.5074854 0.209781268 4.28583017 -11.5411661 0.592965463 3.50241827 -8.87405435 -0.297598572 3.06265534 -8.95196681 0.588806197 1.96360609 -7.27395577 0.410123164 1.60902029 -7.33677682 1.12484089 1.44449075 -6.13191422 0.370347765 1.08990511 -6.19473527 1.08506561 1.3071707 -3.89686782 -0.595795223 0.695236938 -4.00528329 0.637644548 -0.0411870107 -1.6019651 -0.108124312 -0.40585487 -1.66657269 0.626915696 -0.710304139 0.0260785394 -0.296698947 -1.00470022 -0.0260792046 0.29669832 5.21711658 -12.9037697 0.55392983 4.89966356 -13.12588 0.352640411 4.5418851 -11.4116777 0.503461153 4.21988056 -11.6369725 0.299285598 3.93252422 -8.44107626 0.644771903 2.56686235 -9.39658235 -0.221163055 2.08120293 -7.09904222 0.954465096 1.49142361 -7.51169036 0.580499321 1.56208759 -5.95700068 0.914689494 0.972308271 -6.36964881 0.540723922 1.55974627 -3.52994295 0.528945702 0.32652656 -4.39278351 -0.253010527 0.0853206606 -1.4181831 0.455225048 -0.53236241 -1.85035436 0.063566336 -0.608174636 0.174445415 0.158092578 -1.10682976 -0.174446083 -0.158093205 -6.00960172 -12.9982227 0.264404375 -5.33343811 -11.5074841 0.209784141 -5.82218367 -13.0314269 0.642171937 -5.1433328 -11.5411648 0.592968094 -4.35992122 -8.87405435 -0.297596347 -3.92015796 -8.95196616 0.588808342 -2.82110871 -7.27395512 0.410124864 -2.46652275 -7.33677682 1.12484259 -2.30199337 -6.13191357 0.370349141 -1.94740741 -6.19473527 1.08506682 -2.16467349 -3.89686782 -0.595794008 -1.55273916 -4.00528296 0.637645479 -0.816315642 -1.60196461 -0.108123725 -0.451647509 -1.66657221 0.626916182 -0.147198433 0.0260788454 -0.296698664 0.147197877 -0.0260788151 0.296698481 -6.07461921 -12.9037697 0.553933068 -5.39938772 -11.4116777 0.503464026 -5.75716618 -13.12588 0.352643243 -5.07738318 -11.6369725 0.299288188 -4.79002684 -8.44107562 0.644774331 -3.4243653 -9.39658235 -0.221161072 -2.93870523 -7.09904158 0.954466634 -2.34892607 -7.51168971 0.580500859 -2.41958989 -5.95700003 0.91469087 -1.82981089 -6.36964817 0.540725136 -2.41724857 -3.52994263 0.528947038 -1.18402936 -4.39278351 -0.253009677 -0.94282302 -1.41818278 0.455225655 -0.325140111 -1.8503542 0.0635667711 -0.249327764 0.17444586 0.158092881 0.249327197 -0.17444582 -0.158093053 -0.987672608 -13.8207981 -2.43202705 -0.880068822 -12.444112 -2.10618977 -1.61270168 -13.7569099 -2.41690554 -1.51405926 -12.3793069 -2.0908515 -0.0105674973 -10.1153323 -1.55500941 -1.47715344 -9.96542126 -1.51952784 -1.41170956 -8.39013355 -0.65733906 -2.59423389 -8.26925793 -0.6287298 -1.33269524 -7.33494625 -0.407595034 -2.51521949 -7.21407062 -0.378985774 0.540228438 -5.54802016 -0.474007874 -1.50053845 -5.33941678 -0.424634782 -0.239526725 -3.28512208 0.0615799579 -1.45567461 -3.16080968 0.0910027115 0.0911654244 -1.81400801 0.409766495 -0.890629922 -1.71365077 0.43351942 -1.30018714 -13.6964627 -2.72650545 -1.19706412 -12.3179933 -2.40489057 -1.30018698 -13.8812453 -2.12242714 -1.19706412 -12.5054256 -1.79215086 -0.853392002 -9.63171969 -2.83397131 -0.853391517 -10.4266421 -0.235265999 -2.00297172 -8.15804674 -1.20417719 -0.853391517 -10.4266421 -0.235265999 -0.853392002 -9.63171969 -2.83397131 -2.00297156 -8.50134475 -0.081891746 -1.92395749 -7.10285943 -0.954433124 -2.00297156 -8.50134475 -0.081891746 -2.00297172 -8.15804674 -1.20417719 -1.92395733 -7.44615744 0.167852336 -0.673806673 -5.06500851 -1.61797729 -1.92395733 -7.44615744 0.167852336 -1.92395749 -7.10285943 -0.954433124 -0.673806309 -5.78283892 0.72870484 -0.847600791 -3.043196 -0.511400352 -0.673806309 -5.78283892 0.72870484 -0.673806673 -5.06500851 -1.61797729 -0.847600549 -3.40273575 0.663982991 -0.399732284 -1.61870107 -0.0528001043 -0.399732041 -1.90895739 0.896086035</float_array>
        <technique_common><accessor source="#vfx_kurp_0579-mesh-positions-array" count="104" stride="3"><param name="X" type="float"/><param name="Y" type="float"/><param name="Z" type="float"/></accessor></technique_common>
      </source>
      <source id="vfx_kurp_0579-mesh-normals">
        <float_array id="vfx_kurp_0579-mesh-normals-array" count="312">-0.812945308 -0.384749264 -0.437136055 -0.812945256 -0.384749268 -0.437136148 -0.812945067 -0.384749233 -0.43713653 -0.812945065 -0.384749203 -0.437136559 -0.785847067 -0.445401996 -0.429023832 -0.773312993 -0.470482324 -0.42500988 -0.773080719 -0.470932283 -0.424934096 -0.786447095 -0.444159769 -0.429212146 -0.840493572 -0.310182248 -0.444249398 -0.837662516 -0.318667351 -0.44359061 -0.837517919 -0.319094539 -0.443556548 -0.838823934 -0.315213717 -0.443863402 -0.81294518 -0.384749201 -0.437136348 -0.812945191 -0.384749206 -0.437136324 -0.812945199 -0.38474915 -0.437136358 -0.812945188 -0.384749145 -0.437136382 0.440436891 0.16949473 -0.881638748 0.440436962 0.169494734 -0.881638711 0.452291532 0.150269036 -0.87911978 0.450571181 0.153087676 -0.879516784 0.332848218 0.32612395 -0.884791068 0.347032487 0.307085245 -0.886152981 0.326415337 0.33461637 -0.884016353 0.314691838 0.349871154 -0.88236003 0.537330319 -0.00367677275 -0.843363865 0.518841199 0.0326128262 -0.854248332 0.487505292 0.0902628312 -0.86844183 0.517524058 0.0351287868 -0.85494726 0.45270952 0.14958295 -0.879021633 0.442642314 0.165953015 -0.881207909 0.504741796 0.0591050135 -0.861244632 0.504741796 0.0591050135 -0.861244632 0.812945232 -0.384749197 -0.437136255 0.812944952 -0.384749235 -0.437136741 0.8129452 -0.38474918 -0.437136329 0.812944932 -0.384749256 -0.43713676 0.785847013 -0.445402089 -0.429023835 0.773312906 -0.470482426 -0.425009925 0.773080521 -0.470932241 -0.424934503 0.786446767 -0.444159875 -0.429212639 0.840493246 -0.310182387 -0.444249919 0.837662117 -0.318667597 -0.443591186 0.837517743 -0.319094541 -0.443556878 0.838823796 -0.31521368 -0.44386369 0.812944995 -0.384749257 -0.437136643 0.812945015 -0.384749237 -0.437136624 0.812945005 -0.384749262 -0.437136619 0.812945016 -0.384749267 -0.437136595 -0.440437667 0.169494865 -0.881638334 -0.452292123 0.150269049 -0.879119473 -0.440437714 0.169494886 -0.881638307 -0.450571726 0.153087694 -0.879516502 -0.332848457 0.326123861 -0.88479101 -0.34703278 0.307085122 -0.886152909 -0.326415536 0.334616241 -0.884016328 -0.314692072 0.349870971 -0.882360019 -0.537330639 -0.00367680596 -0.843363661 -0.518841611 0.0326127774 -0.854248084 -0.48750564 0.0902628443 -0.868441633 -0.517524426 0.0351287577 -0.854947039 -0.45270983 0.149582925 -0.879021478 -0.442642531 0.165952977 -0.881207807 -0.504742097 0.059104984 -0.861244458 -0.504742097 0.059104984 -0.861244458 4.74406187e-07 -0.230319199 0.973115135 1.48799441e-07 -0.230318988 0.973115185 3.74435985e-07 -0.230319143 0.973115149 1.19740006e-07 -0.230318988 0.973115185 -0.0108877067 -0.329931022 0.943942254 -0.0167238399 -0.382280982 0.92389478 -0.0167547984 -0.382555868 0.923780431 -0.0103543633 -0.325109124 0.94561982 0.0149443739 -0.0895063523 0.995874128 0.0110298609 -0.126852005 0.991860328 0.0109590094 -0.127525253 0.991774778 0.0138212263 -0.100255763 0.994865697 1.75893678e-07 -0.230319072 0.973115165 1.70311086e-07 -0.230319072 0.973115165 1.57320403e-07 -0.230319086 0.973115162 1.47087266e-07 -0.230319072 0.973115165 0.99734464 -0.0696409214 -0.0213028534 0.993819369 -0.106153907 -0.0324716833 0.997344642 -0.0696409141 -0.0213027863 0.994068124 -0.104002235 -0.0318135091 0.990251678 -0.13319734 -0.0407441265 0.990251677 -0.13319734 -0.0407441489 0.853874838 0.497713582 0.152246352 0.853874838 0.497713582 0.152246352 0.853874857 0.497713563 0.15224631 0.8538748 0.497713624 0.15224643 0.997344645 -0.0696408878 -0.0213027274 0.997344644 -0.0696408952 -0.0213027292 0.997344644 -0.0696408952 -0.0213027311 0.997344644 -0.0696408952 -0.0213027274 0.814424811 -0.554889082 -0.169736072 0.814424807 -0.554889079 -0.169736101 0.814424795 -0.55488907 -0.169736188 0.814424864 -0.554889018 -0.169736026 0.99550451 -0.0905714642 -0.0277052283 0.997048624 0.0734148031 0.0224567989 0.997048623 0.0734148105 0.0224568212 0.996697273 -0.0776549002 -0.0237541931 0.958007996 -0.274199845 -0.0838756491 0.958007994 -0.274199844 -0.0838756787</float_array>
        <technique_common><accessor source="#vfx_kurp_0579-mesh-normals-array" count="104" stride="3"><param name="X" type="float"/><param name="Y" type="float"/><param name="Z" type="float"/></accessor></technique_common>
      </source>
      <source id="vfx_kurp_0579-mesh-uv0">
        <float_array id="vfx_kurp_0579-mesh-uv0-array" count="208">1 1 0 1 1 0.857142866 0 0.857142866 1 0.714285731 0 0.714285731 1 0.571428537 0 0.571428537 1 0.428571403 0 0.428571403 1 0.285714269 0 0.285714269 1 0.142857075 0 0.142857075 1 0 0 0 1 1 0 1 1 0.857142866 0 0.857142866 1 0.714285731 0 0.714285731 1 0.571428537 0 0.571428537 1 0.428571403 0 0.428571403 1 0.285714269 0 0.285714269 1 0.142857075 0 0.142857075 1 0 0 0 1 1 1 0.857142866 0 1 0 0.857142866 1 0.714285731 0 0.714285731 1 0.571428537 0 0.571428537 1 0.428571403 0 0.428571403 1 0.285714269 0 0.285714269 1 0.142857075 0 0.142857075 1 0 0 0 1 1 1 0.857142866 0 1 0 0.857142866 1 0.714285731 0 0.714285731 1 0.571428537 0 0.571428537 1 0.428571403 0 0.428571403 1 0.285714269 0 0.285714269 1 0.142857075 0 0.142857075 1 0 0 0 1 1 1 0.857142866 0 1 0 0.857142866 1 0.714285731 0 0.714285731 1 0.571428537 0 0.571428537 1 0.428571403 0 0.428571403 1 0.285714269 0 0.285714269 1 0.142857075 0 0.142857075 1 0 0 0 1 1 1 0.857142866 0 1 0 0.857142866 1 0.714285731 0 0.714285731 1 0.571428537 0 0.714285731 1 0.714285731 0 0.571428537 1 0.428571403 0 0.571428537 1 0.571428537 0 0.428571403 1 0.285714269 0 0.428571403 1 0.428571403 0 0.285714269 1 0.142857075 0 0.285714269 1 0.285714269 0 0.142857075 1 0 0 0</float_array>
        <technique_common><accessor source="#vfx_kurp_0579-mesh-uv0-array" count="104" stride="2"><param name="S" type="float"/><param name="T" type="float"/></accessor></technique_common>
      </source>
      <vertices id="vfx_kurp_0579-mesh-vertices"><input semantic="POSITION" source="#vfx_kurp_0579-mesh-positions"/></vertices>
      <triangles material="PreviewMaterial" count="84">
        <input semantic="VERTEX" source="#vfx_kurp_0579-mesh-vertices" offset="0"/>
        <input semantic="NORMAL" source="#vfx_kurp_0579-mesh-normals" offset="1"/>
        <input semantic="TEXCOORD" source="#vfx_kurp_0579-mesh-uv0" offset="2" set="0"/>
        <p>0 0 0 1 1 1 2 2 2 3 3 3 2 2 2 1 1 1 2 2 2 3 3 3 4 4 4 5 5 5 4 4 4 3 3 3 4 4 4 5 5 5 6 6 6 7 7 7 6 6 6 5 5 5 6 6 6 7 7 7 8 8 8 9 9 9 8 8 8 7 7 7 8 8 8 9 9 9 10 10 10 11 11 11 10 10 10 9 9 9 10 10 10 11 11 11 12 12 12 13 13 13 12 12 12 11 11 11 12 12 12 13 13 13 14 14 14 15 15 15 14 14 14 13 13 13 16 16 16 17 17 17 18 18 18 19 19 19 18 18 18 17 17 17 18 18 18 19 19 19 20 20 20 21 21 21 20 20 20 19 19 19 20 20 20 21 21 21 22 22 22 23 23 23 22 22 22 21 21 21 22 22 22 23 23 23 24 24 24 25 25 25 24 24 24 23 23 23 24 24 24 25 25 25 26 26 26 27 27 27 26 26 26 25 25 25 26 26 26 27 27 27 28 28 28 29 29 29 28 28 28 27 27 27 28 28 28 29 29 29 30 30 30 31 31 31 30 30 30 29 29 29 32 32 32 33 33 33 34 34 34 34 34 34 33 33 33 35 35 35 36 36 36 35 35 35 33 33 33 35 35 35 36 36 36 37 37 37 38 38 38 37 37 37 36 36 36 37 37 37 38 38 38 39 39 39 40 40 40 39 39 39 38 38 38 39 39 39 40 40 40 41 41 41 42 42 42 41 41 41 40 40 40 41 41 41 42 42 42 43 43 43 44 44 44 43 43 43 42 42 42 43 43 43 44 44 44 45 45 45 46 46 46 45 45 45 44 44 44 45 45 45 46 46 46 47 47 47 48 48 48 49 49 49 50 50 50 50 50 50 49 49 49 51 51 51 52 52 52 51 51 51 49 49 49 51 51 51 52 52 52 53 53 53 54 54 54 53 53 53 52 52 52 53 53 53 54 54 54 55 55 55 56 56 56 55 55 55 54 54 54 55 55 55 56 56 56 57 57 57 58 58 58 57 57 57 56 56 56 57 57 57 58 58 58 59 59 59 60 60 60 59 59 59 58 58 58 59 59 59 60 60 60 61 61 61 62 62 62 61 61 61 60 60 60 61 61 61 62 62 62 63 63 63 64 64 64 65 65 65 66 66 66 66 66 66 65 65 65 67 67 67 68 68 68 67 67 67 65 65 65 67 67 67 68 68 68 69 69 69 70 70 70 69 69 69 68 68 68 69 69 69 70 70 70 71 71 71 72 72 72 71 71 71 70 70 70 71 71 71 72 72 72 73 73 73 74 74 74 73 73 73 72 72 72 73 73 73 74 74 74 75 75 75 76 76 76 75 75 75 74 74 74 75 75 75 76 76 76 77 77 77 78 78 78 77 77 77 76 76 76 77 77 77 78 78 78 79 79 79 80 80 80 81 81 81 82 82 82 82 82 82 81 81 81 83 83 83 84 84 84 83 83 83 81 81 81 83 83 83 84 84 84 85 85 85 86 86 86 87 87 87 88 88 88 87 87 87 86 86 86 89 89 89 90 90 90 91 91 91 92 92 92 91 91 91 90 90 90 93 93 93 94 94 94 95 95 95 96 96 96 95 95 95 94 94 94 97 97 97 98 98 98 99 99 99 100 100 100 99 99 99 98 98 98 101 101 101 102 102 102 101 101 101 98 98 98 101 101 101 102 102 102 103 103 103</p>
      </triangles>
    </mesh></geometry>
  </library_geometries>
  <library_visual_scenes>
    <visual_scene id="Scene" name="Scene">
      <node id="vfx_kurp_0579" name="vfx_kurp_0579" type="NODE">
        <instance_geometry url="#vfx_kurp_0579-mesh"><bind_material><technique_common><instance_material symbol="PreviewMaterial" target="#PreviewMaterial"><bind_vertex_input semantic="UVSET0" input_semantic="TEXCOORD" input_set="0"/></instance_material></technique_common></bind_material></instance_geometry>
      </node>
    </visual_scene>
  </library_visual_scenes>
  <scene><instance_visual_scene url="#Scene"/></scene>
</COLLADA>
