<?xml version="1.0" encoding="utf-8"?>
<COLLADA xmlns="http://www.collada.org/2005/11/COLLADASchema" version="1.4.1">
  <asset>
    <contributor><authoring_tool>Morrobroom Kurpulio VFX preview converter</authoring_tool></contributor>
    <unit name="unit" meter="1"/>
    <up_axis>Z_UP</up_axis>
  </asset>
  <library_images>
    <image id="VFXTexture" name="darkmap_newgen-1.dds">
      <init_from>../../../Textures/Kurp/darkmap_newgen-1.dds</init_from>
    </image>
  </library_images>
  <library_effects>
    <effect id="PreviewEffect">
      <profile_COMMON>
        <newparam sid="VFXTexture-surface">
          <surface type="2D"><init_from>VFXTexture</init_from></surface>
        </newparam>
        <newparam sid="VFXTexture-sampler">
          <sampler2D><source>VFXTexture-surface</source></sampler2D>
        </newparam>
        <technique sid="common"><phong>
          <emission><color>0.08 0.08 0.08 1</color></emission>
          <ambient><color>0.2 0.2 0.2 1</color></ambient>
          <diffuse><texture texture="VFXTexture-sampler" texcoord="UVSET0"/></diffuse>
          <specular><color>0.15 0.15 0.15 1</color></specular>
          <shininess><float>8</float></shininess>
          <transparent opaque="A_ONE"><texture texture="VFXTexture-sampler" texcoord="UVSET0"/></transparent>
          <transparency><float>1</float></transparency>
        </phong></technique>
      </profile_COMMON>
      <extra><technique profile="GOOGLEEARTH"><double_sided>1</double_sided></technique></extra>
    </effect>
  </library_effects>
  <library_materials><material id="PreviewMaterial" name="PreviewMaterial"><instance_effect url="#PreviewEffect"/></material></library_materials>
  <library_geometries>
    <geometry id="vfx_kurp_0913-mesh" name="vfx_kurp_0913"><mesh>
      <source id="vfx_kurp_0913-mesh-positions">
        <float_array id="vfx_kurp_0913-mesh-positions-array" count="321">7.73074098e-07 -6.33599528 0.910000188 -1.90941091e-07 2.64662472 0.909999602 -2.25615253e-08 -6.33600227 -0.909999507 -4.65753306e-07 2.64662464 -0.909999795 7.73074098e-07 -6.33599528 0.910000188 -7.72568975 -1.87556704 0.910059739 -2.25615253e-08 -6.33600227 -0.909999507 -7.72569098 -1.87557427 -0.909939955 7.73074098e-07 -6.33599528 0.910000188 -8.97250639 -6.33599432 0.909895744 -2.25615253e-08 -6.33600227 -0.909999507 -8.97251429 -6.33600132 -0.910104129 7.73074098e-07 -6.33599528 0.910000188 -7.85964141 -10.8737689 0.909950194 -2.25615253e-08 -6.33600227 -0.909999507 -7.85964264 -10.8737754 -0.910049739 7.73074098e-07 -6.33599528 0.910000188 -4.51270328 -14.1522399 0.909908991 -2.25615253e-08 -6.33600227 -0.909999507 -4.51270403 -14.1522483 -0.910090645 7.73074098e-07 -6.33599528 0.910000188 4.42219783e-06 -15.302971 0.909893129 -2.25615253e-08 -6.33600227 -0.909999507 4.19777794e-06 -15.3029794 -0.910106387 7.73074098e-07 -6.33599528 0.910000188 4.42970242 -14.008463 0.909906699 -2.25615253e-08 -6.33600227 -0.909999507 4.42970262 -14.0084705 -0.910092936 7.73074098e-07 -6.33599528 0.910000188 7.7364818 -10.8026563 0.909946117 -2.25615253e-08 -6.33600227 -0.909999507 7.73648153 -10.8026637 -0.910053697 7.73074098e-07 -6.33599528 0.910000188 8.93440737 -6.3359948 0.910000627 -2.25615253e-08 -6.33600227 -0.909999507 8.9344071 -6.33600179 -0.909999068 7.73074098e-07 -6.33599528 0.910000188 7.70601096 -1.88692387 0.910055978 -2.25615253e-08 -6.33600227 -0.909999507 7.70601068 -1.88693122 -0.909943657 7.73074098e-07 -6.33599528 0.910000188 4.44936194 1.37051968 0.910096689 -2.25615253e-08 -6.33600227 -0.909999507 4.44936214 1.37051257 -0.909902946 -4.4602798 1.38945071 0.91009905 -4.46028056 1.38944372 -0.909900586 -5.24836349 0.934447944 9.60608769e-05 -0.788082957 -6.79099941 -4.22439968e-06 -4.46027946 1.38944781 9.98557333e-05 3.75256114e-07 -6.33599901 -4.27915895e-07 0.788083613 -5.88099957 3.36531732e-06 -3.67219639 1.84444726 0.00010365059 3.6612792 1.82551575 0.000101625029 -0.78808248 -5.88099957 3.65286513e-06 4.44936275 1.37051558 9.7542418e-05 0.788083374 -6.79099941 -4.51235475e-06 5.23744535 0.915515363 9.34598141e-05 7.25101089 -1.09884524 6.37937626e-05 -0.455000043 -5.54791594 6.548954e-06 7.70601082 -1.88692808 5.67621679e-05 0.45500046 -7.12408209 -7.38779408e-06 8.1610117 -2.67501116 4.97305766e-05 8.93440723 -5.42600012 9.26354211e-06 2.79833268e-07 -5.42599964 7.49483576e-06 8.93440628 -6.33599901 1.38608009e-06 5.8800999e-07 -7.24599934 -8.22967436e-06 8.93440723 -7.24599791 -6.49138312e-06 8.19148064 -10.0145779 -4.64127332e-05 0.45500046 -5.54791641 6.30937781e-06 7.73648167 -10.8026609 -5.31517512e-05 -0.454999149 -7.12408257 -7.16866446e-06 7.28148174 -11.590744 -5.98907764e-05 5.2177844 -13.5534678 -8.86618439e-05 0.788083613 -5.88099957 3.36531732e-06 4.42970181 -14.0084677 -9.24567005e-05 -0.788082957 -6.79099941 -4.22439968e-06 3.64161873 -14.4634676 -9.62515643e-05 0.91000396 -15.3029757 -0.000106162579 0.910000205 -6.33599901 -6.43495735e-07 3.65910514e-06 -15.3029757 -0.000105996455 -0.909999728 -6.33599901 -3.39957773e-07 -0.909996569 -15.3029766 -0.000105830316 -3.72462153 -14.6072426 -9.42256255e-05 0.788083374 -6.79099941 -4.51235475e-06 -4.51270437 -14.1522436 -9.01430217e-05 -0.78808248 -5.88099957 3.65286513e-06 -5.30078745 -13.6972437 -8.60604105e-05 -7.40464163 -11.6618547 -5.60501452e-05 0.45500046 -7.12408209 -7.38779408e-06 -7.85964251 -10.8737717 -4.91449918e-05 -0.455000043 -5.54791594 6.548954e-06 -8.31464291 -10.0856895 -4.22398314e-05 -8.97251034 -7.24599648 -0.000111392466 5.8800999e-07 -7.24599934 -8.22967436e-06 -8.97251034 -6.3359971 -0.000103545412 2.79833268e-07 -5.42599964 7.49483576e-06 -8.97251129 -5.42599726 -9.5698372e-05 -8.18068981 -2.66365314 5.38119519e-05 -0.454999149 -7.12408257 -7.16866446e-06 -7.72568989 -1.87557018 6.05509734e-05 0.45500046 -5.54791641 6.30937781e-06 -7.27069044 -1.0874871 6.72899914e-05 -0.90999943 2.64662457 6.91316706e-07 -0.909999728 -6.33599901 -3.39957773e-07 3.22535383e-07 2.6466248 5.53910597e-07 0.910000205 -6.33599901 -6.43495735e-07 0.909999967 2.6466248 4.16504483e-07</float_array>
        <technique_common><accessor source="#vfx_kurp_0913-mesh-positions-array" count="107" stride="3"><param name="X" type="float"/><param name="Y" type="float"/><param name="Z" type="float"/></accessor></technique_common>
      </source>
      <source id="vfx_kurp_0913-mesh-normals">
        <float_array id="vfx_kurp_0913-mesh-normals-array" count="321">-0.965925684 -0.258819577 1.41679476e-06 -1 -5.67177377e-08 1.87414772e-07 -0.96592614 -0.258817873 1.39654824e-06 -1 -4.9338766e-08 1.50995775e-07 -0.499999892 -0.866025466 3.5463315e-06 -0.499999843 -0.866025494 3.74892403e-06 -0.499999914 -0.866025454 3.57610262e-06 -0.499999821 -0.866025507 3.77869502e-06 -1.06334258e-07 -1 3.84255432e-06 -1.06334243e-07 -1 3.84255432e-06 -1.06334243e-07 -1 3.84255387e-06 -1.06334251e-07 -1 3.84255432e-06 0.500000583 -0.866025067 3.10916687e-06 0.500000538 -0.866025093 2.80692505e-06 0.500000583 -0.866025067 3.06559593e-06 0.500000538 -0.866025093 2.76335434e-06 0.866025734 -0.499999427 1.54268103e-06 0.866025747 -0.499999405 1.90417348e-06 0.866025734 -0.499999427 1.5951159e-06 0.86602576 -0.499999382 1.95660861e-06 1 4.06956698e-07 -4.37164054e-07 1 4.6253473e-07 -1.63320017e-07 1 4.15076976e-07 -3.97153875e-07 1 4.70655008e-07 -1.23309844e-07 0.8660254 0.500000007 -2.29987113e-06 0.866025333 0.500000122 -2.00048158e-06 0.8660254 0.500000007 -2.25553531e-06 0.866025333 0.500000122 -1.95614587e-06 0.500000122 0.866025333 -3.5463308e-06 0.500000122 0.866025333 -3.61942076e-06 0.500000122 0.866025333 -3.55705466e-06 0.500000122 0.866025333 -3.63014438e-06 -5.33706743e-08 1 -3.8425543e-06 -5.33706672e-08 1 -3.8425543e-06 -5.33706743e-08 1 -3.8425543e-06 -5.33706743e-08 1 -3.8425543e-06 -0.500000352 0.8660252 -3.10916762e-06 -0.500000308 0.866025226 -3.38218917e-06 -0.500000308 0.866025226 -3.14940264e-06 -0.500000308 0.866025226 -3.42242431e-06 -0.866025267 0.500000237 -1.54268434e-06 -0.866025226 0.500000308 -1.9849828e-06 -0.866025267 0.500000237 -1.60786123e-06 -0.866025226 0.500000308 -2.05015969e-06 -0.866025801 -0.499999312 2.28162038e-06 -0.86602576 -0.499999382 2.27893854e-06 2.00953059e-06 -1.18209604e-05 1 1.79446306e-06 -1.14517819e-05 1 2.00952343e-06 -1.18209503e-05 1 1.79590484e-06 -1.14509488e-05 1 1.79734639e-06 -1.14501166e-05 1 2.00952786e-06 -1.18209613e-05 1 -1.61952391e-06 -1.17778667e-05 1 -1.35373944e-06 -1.13137661e-05 1 -1.61952198e-06 -1.17778539e-05 1 -1.35049231e-06 -1.13156415e-05 1 -1.61953392e-06 -1.1777863e-05 1 -1.70792566e-06 -9.90847671e-06 1 -1.27467092e-06 -9.58825454e-06 1 -1.70408111e-06 -9.90104887e-06 1 -1.28262445e-06 -9.57266762e-06 1 -1.69562202e-06 -9.9013681e-06 1 -1.97966187e-07 -8.6565618e-06 1 -5.84792758e-06 -8.7020429e-06 1 -1.96700711e-07 -8.65548223e-06 1 -5.84770703e-06 -8.5776495e-06 1 -1.94560073e-07 -8.65656362e-06 1 1.40829707e-06 -9.36423054e-06 1 1.81361258e-06 -9.5962008e-06 1 1.40830537e-06 -9.36424054e-06 1 1.8118418e-06 -9.59926761e-06 1 1.40829241e-06 -9.36423872e-06 1 1.58228147e-06 -1.10809363e-05 1 1.79734639e-06 -1.14501166e-05 1 1.58228374e-06 -1.10809491e-05 1 1.79446306e-06 -1.14517819e-05 1 1.58227397e-06 -1.10809409e-05 1 1.82554245e-07 -1.17675203e-05 1 2.32390626e-07 -5.94127174e-06 1 1.81551759e-07 -1.1766377e-05 1 1.01169743e-07 -5.94106437e-06 1 1.82582475e-07 -1.17643152e-05 1 -1.08470556e-06 -1.08515445e-05 1 -1.35049231e-06 -1.13156415e-05 1 -1.08471352e-06 -1.08515545e-05 1 -1.35373944e-06 -1.13137661e-05 1 -1.08470795e-06 -1.08515427e-05 1 -8.4951921e-07 -9.25243363e-06 1 -1.28262445e-06 -9.57266762e-06 1 -8.53285769e-07 -9.25971959e-06 1 -1.27467092e-06 -9.58825454e-06 1 -8.61574676e-07 -9.25941218e-06 1 -1.14976532e-05 -8.62314242e-06 1 -5.84770703e-06 -8.5776495e-06 1 -1.14989147e-05 -8.6242138e-06 1 -5.84792758e-06 -8.7020429e-06 1 -1.15010411e-05 -8.62313423e-06 1 2.21715925e-06 -9.83123424e-06 1 1.8118418e-06 -9.59926761e-06 1 2.21714993e-06 -9.83122696e-06 1 1.81361258e-06 -9.5962008e-06 1 2.2171622e-06 -9.83122969e-06 1 1.50995795e-07 -1.14807719e-07 1 1.01169743e-07 -5.94106437e-06 1 1.5201026e-07 -1.15950078e-07 1 2.32390626e-07 -5.94127174e-06 1 1.50995788e-07 -1.1800563e-07 1</float_array>
        <technique_common><accessor source="#vfx_kurp_0913-mesh-normals-array" count="107" stride="3"><param name="X" type="float"/><param name="Y" type="float"/><param name="Z" type="float"/></accessor></technique_common>
      </source>
      <source id="vfx_kurp_0913-mesh-uv0">
        <float_array id="vfx_kurp_0913-mesh-uv0-array" count="214">1 1 1 0 0 1 0 0 1 1 1 0 0 1 0 0 1 1 1 0 0 1 0 0 1 1 1 0 0 1 0 0 1 1 1 0 0 1 0 0 1 1 1 0 0 1 0 0 1 1 1 0 0 1 0 0 1 1 1 0 0 1 0 0 1 1 1 0 0 1 0 0 1 1 1 0 0 1 0 0 1 1 1 0 0 1 0 0 1 0 0 0 0 0 0 1 0.5 0 0.5 1 1 1 1 0 0 0 0 1 0.5 0 1 1 1 0 0 0 0 1 0.5 0 1 1 1 0 0 0 0 1 0.5 0 1 1 1 0 0 0 0 1 0.5 0 1 1 1 0 0 0 0 1 0.5 0 1 1 1 0 0 0 0 1 0.5 0 1 1 1 0 0 0 0 1 0.5 0 1 1 1 0 0 0 0 1 0.5 0 1 1 1 0 0 0 0 1 0.5 0 1 1 1 0 0 0 0 1 0.5 0 1 1 1 0 0 0 0 1 0.5 0 1 1 1 0</float_array>
        <technique_common><accessor source="#vfx_kurp_0913-mesh-uv0-array" count="107" stride="2"><param name="S" type="float"/><param name="T" type="float"/></accessor></technique_common>
      </source>
      <vertices id="vfx_kurp_0913-mesh-vertices"><input semantic="POSITION" source="#vfx_kurp_0913-mesh-positions"/></vertices>
      <triangles material="PreviewMaterial" count="72">
        <input semantic="VERTEX" source="#vfx_kurp_0913-mesh-vertices" offset="0"/>
        <input semantic="NORMAL" source="#vfx_kurp_0913-mesh-normals" offset="1"/>
        <input semantic="TEXCOORD" source="#vfx_kurp_0913-mesh-uv0" offset="2" set="0"/>
        <p>0 0 0 1 1 1 2 2 2 3 3 3 2 2 2 1 1 1 4 4 4 5 5 5 6 6 6 7 7 7 6 6 6 5 5 5 8 8 8 9 9 9 10 10 10 11 11 11 10 10 10 9 9 9 12 12 12 13 13 13 14 14 14 15 15 15 14 14 14 13 13 13 16 16 16 17 17 17 18 18 18 19 19 19 18 18 18 17 17 17 20 20 20 21 21 21 22 22 22 23 23 23 22 22 22 21 21 21 24 24 24 25 25 25 26 26 26 27 27 27 26 26 26 25 25 25 28 28 28 29 29 29 30 30 30 31 31 31 30 30 30 29 29 29 32 32 32 33 33 33 34 34 34 35 35 35 34 34 34 33 33 33 36 36 36 37 37 37 38 38 38 39 39 39 38 38 38 37 37 37 40 40 40 41 41 41 42 42 42 43 43 43 42 42 42 41 41 41 0 0 0 44 44 44 2 2 2 45 45 45 2 2 2 44 44 44 46 46 46 47 47 47 48 48 48 49 49 49 48 48 48 47 47 47 50 50 50 48 48 48 49 49 49 48 48 48 50 50 50 51 51 51 52 52 52 53 53 53 54 54 54 49 49 49 54 54 54 53 53 53 55 55 55 54 54 54 49 49 49 54 54 54 55 55 55 56 56 56 57 57 57 58 58 58 59 59 59 49 49 49 59 59 59 58 58 58 60 60 60 59 59 59 49 49 49 59 59 59 60 60 60 61 61 61 62 62 62 63 63 63 64 64 64 49 49 49 64 64 64 63 63 63 65 65 65 64 64 64 49 49 49 64 64 64 65 65 65 66 66 66 67 67 67 68 68 68 69 69 69 49 49 49 69 69 69 68 68 68 70 70 70 69 69 69 49 49 49 69 69 69 70 70 70 71 71 71 72 72 72 73 73 73 74 74 74 49 49 49 74 74 74 73 73 73 75 75 75 74 74 74 49 49 49 74 74 74 75 75 75 76 76 76 77 77 77 78 78 78 79 79 79 49 49 49 79 79 79 78 78 78 80 80 80 79 79 79 49 49 49 79 79 79 80 80 80 81 81 81 82 82 82 83 83 83 84 84 84 49 49 49 84 84 84 83 83 83 85 85 85 84 84 84 49 49 49 84 84 84 85 85 85 86 86 86 87 87 87 88 88 88 89 89 89 49 49 49 89 89 89 88 88 88 90 90 90 89 89 89 49 49 49 89 89 89 90 90 90 91 91 91 92 92 92 93 93 93 94 94 94 49 49 49 94 94 94 93 93 93 95 95 95 94 94 94 49 49 49 94 94 94 95 95 95 96 96 96 97 97 97 98 98 98 99 99 99 49 49 49 99 99 99 98 98 98 100 100 100 99 99 99 49 49 49 99 99 99 100 100 100 101 101 101 102 102 102 103 103 103 104 104 104 49 49 49 104 104 104 103 103 103 105 105 105 104 104 104 49 49 49 104 104 104 105 105 105 106 106 106</p>
      </triangles>
    </mesh></geometry>
  </library_geometries>
  <library_visual_scenes>
    <visual_scene id="Scene" name="Scene">
      <node id="vfx_kurp_0913" name="vfx_kurp_0913" type="NODE">
        <instance_geometry url="#vfx_kurp_0913-mesh"><bind_material><technique_common><instance_material symbol="PreviewMaterial" target="#PreviewMaterial"><bind_vertex_input semantic="UVSET0" input_semantic="TEXCOORD" input_set="0"/></instance_material></technique_common></bind_material></instance_geometry>
      </node>
    </visual_scene>
  </library_visual_scenes>
  <scene><instance_visual_scene url="#Scene"/></scene>
</COLLADA>
