<?xml version="1.0" encoding="utf-8"?>
<COLLADA xmlns="http://www.collada.org/2005/11/COLLADASchema" version="1.4.1">
  <asset>
    <contributor><authoring_tool>Morrobroom Kurpulio VFX preview converter</authoring_tool></contributor>
    <unit name="unit" meter="1"/>
    <up_axis>Z_UP</up_axis>
  </asset>
  <library_images>
    <image id="VFXTexture" name="darkmap_newgen-1.dds">
      <init_from>../../../Textures/Kurp/darkmap_newgen-1.dds</init_from>
    </image>
  </library_images>
  <library_effects>
    <effect id="PreviewEffect">
      <profile_COMMON>
        <newparam sid="VFXTexture-surface">
          <surface type="2D"><init_from>VFXTexture</init_from></surface>
        </newparam>
        <newparam sid="VFXTexture-sampler">
          <sampler2D><source>VFXTexture-surface</source></sampler2D>
        </newparam>
        <technique sid="common"><phong>
          <emission><color>0.08 0.08 0.08 1</color></emission>
          <ambient><color>0.2 0.2 0.2 1</color></ambient>
          <diffuse><texture texture="VFXTexture-sampler" texcoord="UVSET0"/></diffuse>
          <specular><color>0.15 0.15 0.15 1</color></specular>
          <shininess><float>8</float></shininess>
          <transparent opaque="A_ONE"><texture texture="VFXTexture-sampler" texcoord="UVSET0"/></transparent>
          <transparency><float>1</float></transparency>
        </phong></technique>
      </profile_COMMON>
      <extra><technique profile="GOOGLEEARTH"><double_sided>1</double_sided></technique></extra>
    </effect>
  </library_effects>
  <library_materials><material id="PreviewMaterial" name="PreviewMaterial"><instance_effect url="#PreviewEffect"/></material></library_materials>
  <library_geometries>
    <geometry id="vfx_kurp_0361-mesh" name="vfx_kurp_0361"><mesh>
      <source id="vfx_kurp_0361-mesh-positions">
        <float_array id="vfx_kurp_0361-mesh-positions-array" count="225">5.30400574 5.30400574 1.10277032e-07 6.67678416 5.12327611 1.67439396e-07 5.30400574 6.60853684 6.27594643e-08 7.01442182 6.38335586 1.21540964e-07 7.95600951 4.59340364 2.37319302e-07 8.60827506 5.72315991 1.96167882e-07 9.05450523 3.75049829 3.1860143e-07 9.97694731 4.67294037 2.85001445e-07 9.89741087 2.65200227 4.09193461e-07 11.0271668 3.30426723 3.85434724e-07 10.427283 1.37277737 5.06368529e-07 11.6873622 1.71041459 4.94070065e-07 4.26886529 3.86319667 1.12179288e-07 2.65200257 4.59340364 3.50021989e-08 3.30426782 3.46364737 7.61536079e-08 3.93122792 5.12327611 6.62808519e-08 5.30400574 3.99947554 1.57794577e-07 6.33914709 3.86319667 2.13337827e-07 7.30374455 3.46364737 2.78470704e-07 8.13206255 2.82805592 3.52201432e-07 8.7676537 1.99973717 4.32952234e-07 9.16720271 1.03514023 5.18666958e-07 9.30348217 0 0 10.6080115 0 0 11.9125426 -5.93409766e-10 0 3.59359056 6.38335586 2.0382418e-08 1.99973717 5.72315991 -6.14921336e-09 0.631064698 4.67294067 -1.84742122e-08 1.55350715 3.75049829 1.51257795e-08 -0.419154577 3.30426782 -1.91995242e-08 0.710601956 2.65200287 4.5592527e-09 -1.07935011 1.71041489 -1.17226506e-08 0.180729572 1.37277752 5.75796841e-10 -1.30453035 -2.4160741e-07 0 0 -1.93913916e-07 0 -1.07934989 -1.71041518 1.17226506e-08 0.180729665 -1.37277782 -5.75800727e-10 -0.419154353 -3.30426842 1.91995286e-08 0.710602105 -2.65200317 -4.55924826e-09 0.631065071 -4.67294067 1.84742022e-08 1.55350745 -3.75049859 -1.51257751e-08 2.47594938 2.82805622 4.87257612e-08 1.84035853 1.99973762 2.83180301e-08 1.44080922 1.03514031 1.28742439e-08 1.30453035 -1.46220422e-07 0 1.44080922 -1.0351406 -1.28742483e-08 1.84035867 -1.99973777 -2.83180324e-08 2.47594967 -2.82805622 -4.87257701e-08 2.65200287 -4.59340394 -3.50021834e-08 3.30426842 -3.46364737 -7.61536079e-08 3.93122792 -5.12327611 -6.62808519e-08 4.26886529 -3.86319667 -1.12179288e-07 1.99973762 -5.72316051 6.14922724e-09 3.59359056 -6.38335586 -2.0382418e-08 5.30400574 -6.60853684 -6.27594643e-08 5.30400574 -5.30400574 -1.10277032e-07 7.01442182 -6.38335586 -1.21540964e-07 6.67678416 -5.12327611 -1.67439396e-07 8.60827506 -5.72315991 -1.96167882e-07 7.95600951 -4.59340364 -2.37319302e-07 9.97694731 -4.67294037 -2.85001445e-07 9.05450523 -3.75049829 -3.1860143e-07 11.0271668 -3.30426723 -3.85434724e-07 9.89741087 -2.65200227 -4.09193461e-07 11.6873622 -1.71041459 -4.94070065e-07 10.427283 -1.37277737 -5.06368529e-07 11.9125426 -5.93409766e-10 0 10.6080115 0 0 5.30400574 -3.99947554 -1.57794577e-07 6.33914709 -3.86319667 -2.13337827e-07 7.30374455 -3.46364737 -2.78470704e-07 8.13206255 -2.82805592 -3.52201432e-07 8.7676537 -1.99973717 -4.32952234e-07 9.16720271 -1.03514023 -5.18666958e-07 9.30348217 0 0</float_array>
        <technique_common><accessor source="#vfx_kurp_0361-mesh-positions-array" count="75" stride="3"><param name="X" type="float"/><param name="Y" type="float"/><param name="Z" type="float"/></accessor></technique_common>
      </source>
      <source id="vfx_kurp_0361-mesh-normals">
        <float_array id="vfx_kurp_0361-mesh-normals-array" count="225">-3.65675454e-08 3.6611798e-08 1 -3.5273203e-08 4.60698182e-08 1 -3.1212803e-08 3.82690253e-08 1 -2.96719875e-08 4.62846721e-08 1 -3.15750448e-08 5.48705721e-08 1 -2.6109074e-08 5.36284048e-08 1 -2.57250896e-08 6.24142729e-08 1 -2.07668922e-08 5.97997314e-08 1 -1.81220301e-08 6.81868499e-08 1 -1.40094683e-08 6.43781135e-08 1 3.67554733e-08 -1.57509987e-07 1 2.33485302e-08 -1.29084441e-07 1 -4.30077733e-08 2.17585789e-08 1 -3.17618216e-08 1.83030018e-08 1 -3.77463714e-08 1.11270895e-08 1 -3.5369883e-08 2.71410627e-08 1 -4.53382647e-08 3.33895578e-08 1 -4.45790498e-08 4.52273952e-08 1 -4.07818597e-08 5.64653817e-08 1 -3.42054065e-08 6.63376483e-08 1 -2.52979255e-08 7.41714103e-08 1 6.12122975e-08 -2.03750844e-07 1 3.33901582e-08 -4.62296242e-07 1 -2.05454054e-09 -3.65818266e-07 1 -2.02840553e-08 -3.06915979e-07 1 -3.062652e-08 3.01277261e-08 1 -2.79530887e-08 2.2415577e-08 1 -2.3374696e-08 1.56581486e-08 1 -2.59892374e-08 1.06999334e-08 1 -1.7203357e-08 1.03159481e-08 1 -1.84455278e-08 4.84998619e-09 1 -9.85963933e-09 6.75303369e-09 1 -9.64478986e-09 1.15182464e-09 1 -1.84400284e-09 5.21222132e-09 1 0 0 1 6.29729913e-09 5.79850878e-09 1 9.28396737e-09 1.05514419e-09 1 1.40094487e-08 8.47194404e-09 1 1.81220212e-08 4.66321337e-09 1 2.07668727e-08 1.30503315e-08 1 2.57250896e-08 1.04357962e-08 1 -2.99126057e-08 2.21961649e-09 1 -2.00403445e-08 -4.35681269e-09 1 -8.80237216e-09 -8.15403034e-09 1 3.03547099e-09 -8.91325325e-09 1 1.46664503e-08 -6.58275079e-09 1 2.52979397e-08 -1.32133771e-09 1 3.42054101e-08 6.51242793e-09 1 3.15750484e-08 1.79794988e-08 1 4.07818455e-08 1.63846821e-08 1 3.5273203e-08 2.67802296e-08 1 4.4579064e-08 2.76226544e-08 1 2.61090847e-08 1.92216643e-08 1 2.96719982e-08 2.6565381e-08 1 3.12127995e-08 3.45810136e-08 1 3.65675454e-08 3.62382515e-08 1 3.06265164e-08 4.27223235e-08 1 3.5369883e-08 4.57089975e-08 1 2.79530834e-08 5.04344975e-08 1 3.17618216e-08 5.45470584e-08 1 2.33747013e-08 5.71919223e-08 1 2.59892392e-08 6.21501286e-08 1 1.72033729e-08 6.25340988e-08 1 1.84455313e-08 6.80000625e-08 1 -3.60621399e-08 -1.05285373e-07 1 -3.13115969e-08 -1.2997684e-07 1 -2.02840553e-08 -3.06915979e-07 1 -2.05454054e-09 -3.65818266e-07 1 4.53382647e-08 3.94604918e-08 1 4.30077769e-08 5.10914688e-08 1 3.77463785e-08 6.17229716e-08 1 2.99126022e-08 7.06304562e-08 1 2.00403392e-08 7.72068844e-08 1 -2.09472244e-08 -1.70760856e-07 1 3.33901582e-08 -4.62296242e-07 1</float_array>
        <technique_common><accessor source="#vfx_kurp_0361-mesh-normals-array" count="75" stride="3"><param name="X" type="float"/><param name="Y" type="float"/><param name="Z" type="float"/></accessor></technique_common>
      </source>
      <source id="vfx_kurp_0361-mesh-uv0">
        <float_array id="vfx_kurp_0361-mesh-uv0-array" count="150">0.5 0.25 0.5 0.208333313 0.25 0.25 0.25 0.208333313 0.5 0.166666627 0.25 0.166666627 0.5 0.125 0.25 0.125 0.5 0.0833333135 0.25 0.0833333135 0.5 0.0416666269 0.25 0.0416666269 0.75 0.291666627 0.5 0.333333313 0.75 0.333333313 0.5 0.291666627 0.75 0.25 0.75 0.208333313 0.75 0.166666627 0.75 0.125 0.75 0.0833333135 0.75 0.0416666269 0.75 0 0.5 0 0.25 0 0.25 0.291666627 0.25 0.333333313 0.25 0.375 0.5 0.375 0.25 0.416666627 0.5 0.416666627 0.25 0.458333313 0.5 0.458333313 0.25 0.5 0.5 0.5 0.25 0.541666627 0.5 0.541666627 0.25 0.583333313 0.5 0.583333313 0.25 0.625 0.5 0.625 0.75 0.375 0.75 0.416666627 0.75 0.458333313 0.75 0.5 0.75 0.541666627 0.75 0.583333313 0.75 0.625 0.5 0.666666627 0.75 0.666666627 0.5 0.708333313 0.75 0.708333313 0.25 0.666666627 0.25 0.708333313 0.25 0.75 0.5 0.75 0.25 0.791666627 0.5 0.791666627 0.25 0.833333313 0.5 0.833333313 0.25 0.875 0.5 0.875 0.25 0.916666687 0.5 0.916666687 0.25 0.958333313 0.5 0.958333313 0.25 1 0.5 1 0.75 0.75 0.75 0.791666627 0.75 0.833333313 0.75 0.875 0.75 0.916666687 0.75 0.958333313 0.75 1</float_array>
        <technique_common><accessor source="#vfx_kurp_0361-mesh-uv0-array" count="75" stride="2"><param name="S" type="float"/><param name="T" type="float"/></accessor></technique_common>
      </source>
      <vertices id="vfx_kurp_0361-mesh-vertices"><input semantic="POSITION" source="#vfx_kurp_0361-mesh-positions"/></vertices>
      <triangles material="PreviewMaterial" count="96">
        <input semantic="VERTEX" source="#vfx_kurp_0361-mesh-vertices" offset="0"/>
        <input semantic="NORMAL" source="#vfx_kurp_0361-mesh-normals" offset="1"/>
        <input semantic="TEXCOORD" source="#vfx_kurp_0361-mesh-uv0" offset="2" set="0"/>
        <p>0 0 0 1 1 1 2 2 2 2 2 2 1 1 1 3 3 3 4 4 4 3 3 3 1 1 1 3 3 3 4 4 4 5 5 5 6 6 6 5 5 5 4 4 4 5 5 5 6 6 6 7 7 7 8 8 8 7 7 7 6 6 6 7 7 7 8 8 8 9 9 9 10 10 10 9 9 9 8 8 8 9 9 9 10 10 10 11 11 11 12 12 12 13 13 13 14 14 14 13 13 13 12 12 12 15 15 15 16 16 16 15 15 15 12 12 12 15 15 15 16 16 16 0 0 0 17 17 17 0 0 0 16 16 16 0 0 0 17 17 17 1 1 1 18 18 18 1 1 1 17 17 17 1 1 1 18 18 18 4 4 4 19 19 19 4 4 4 18 18 18 4 4 4 19 19 19 6 6 6 20 20 20 6 6 6 19 19 19 6 6 6 20 20 20 8 8 8 21 21 21 8 8 8 20 20 20 8 8 8 21 21 21 10 10 10 22 22 22 10 10 10 21 21 21 23 23 23 10 10 10 22 22 22 10 10 10 23 23 23 11 11 11 24 24 24 11 11 11 23 23 23 25 25 25 0 0 0 2 2 2 0 0 0 25 25 25 15 15 15 26 26 26 15 15 15 25 25 25 15 15 15 26 26 26 13 13 13 27 27 27 13 13 13 26 26 26 13 13 13 27 27 27 28 28 28 29 29 29 28 28 28 27 27 27 28 28 28 29 29 29 30 30 30 31 31 31 30 30 30 29 29 29 30 30 30 31 31 31 32 32 32 33 33 33 32 32 32 31 31 31 32 32 32 33 33 33 34 34 34 35 35 35 34 34 34 33 33 33 34 34 34 35 35 35 36 36 36 37 37 37 36 36 36 35 35 35 36 36 36 37 37 37 38 38 38 39 39 39 38 38 38 37 37 37 40 40 40 38 38 38 39 39 39 13 13 13 28 28 28 14 14 14 14 14 14 28 28 28 41 41 41 30 30 30 41 41 41 28 28 28 41 41 41 30 30 30 42 42 42 32 32 32 42 42 42 30 30 30 42 42 42 32 32 32 43 43 43 34 34 34 43 43 43 32 32 32 43 43 43 34 34 34 44 44 44 36 36 36 44 44 44 34 34 34 44 44 44 36 36 36 45 45 45 38 38 38 45 45 45 36 36 36 45 45 45 38 38 38 46 46 46 40 40 40 46 46 46 38 38 38 46 46 46 40 40 40 47 47 47 48 48 48 47 47 47 40 40 40 47 47 47 48 48 48 49 49 49 50 50 50 49 49 49 48 48 48 49 49 49 50 50 50 51 51 51 52 52 52 40 40 40 39 39 39 40 40 40 52 52 52 48 48 48 53 53 53 48 48 48 52 52 52 48 48 48 53 53 53 50 50 50 54 54 54 50 50 50 53 53 53 50 50 50 54 54 54 55 55 55 56 56 56 55 55 55 54 54 54 55 55 55 56 56 56 57 57 57 58 58 58 57 57 57 56 56 56 57 57 57 58 58 58 59 59 59 60 60 60 59 59 59 58 58 58 59 59 59 60 60 60 61 61 61 62 62 62 61 61 61 60 60 60 61 61 61 62 62 62 63 63 63 64 64 64 63 63 63 62 62 62 63 63 63 64 64 64 65 65 65 66 66 66 65 65 65 64 64 64 67 67 67 65 65 65 66 66 66 50 50 50 55 55 55 51 51 51 51 51 51 55 55 55 68 68 68 57 57 57 68 68 68 55 55 55 68 68 68 57 57 57 69 69 69 59 59 59 69 69 69 57 57 57 69 69 69 59 59 59 70 70 70 61 61 61 70 70 70 59 59 59 70 70 70 61 61 61 71 71 71 63 63 63 71 71 71 61 61 61 71 71 71 63 63 63 72 72 72 65 65 65 72 72 72 63 63 63 72 72 72 65 65 65 73 73 73 67 67 67 73 73 73 65 65 65 73 73 73 67 67 67 74 74 74</p>
      </triangles>
    </mesh></geometry>
  </library_geometries>
  <library_visual_scenes>
    <visual_scene id="Scene" name="Scene">
      <node id="vfx_kurp_0361" name="vfx_kurp_0361" type="NODE">
        <instance_geometry url="#vfx_kurp_0361-mesh"><bind_material><technique_common><instance_material symbol="PreviewMaterial" target="#PreviewMaterial"><bind_vertex_input semantic="UVSET0" input_semantic="TEXCOORD" input_set="0"/></instance_material></technique_common></bind_material></instance_geometry>
      </node>
    </visual_scene>
  </library_visual_scenes>
  <scene><instance_visual_scene url="#Scene"/></scene>
</COLLADA>
