<?xml version="1.0" encoding="utf-8"?>
<COLLADA xmlns="http://www.collada.org/2005/11/COLLADASchema" version="1.4.1">
  <asset>
    <contributor><authoring_tool>Morrobroom Kurpulio VFX preview converter</authoring_tool></contributor>
    <unit name="unit" meter="1"/>
    <up_axis>Z_UP</up_axis>
  </asset>
  <library_images>
    <image id="VFXTexture" name="darkmap_newgen-1.dds">
      <init_from>../../../Textures/Kurp/darkmap_newgen-1.dds</init_from>
    </image>
  </library_images>
  <library_effects>
    <effect id="PreviewEffect">
      <profile_COMMON>
        <newparam sid="VFXTexture-surface">
          <surface type="2D"><init_from>VFXTexture</init_from></surface>
        </newparam>
        <newparam sid="VFXTexture-sampler">
          <sampler2D><source>VFXTexture-surface</source></sampler2D>
        </newparam>
        <technique sid="common"><phong>
          <emission><color>0.08 0.08 0.08 1</color></emission>
          <ambient><color>0.2 0.2 0.2 1</color></ambient>
          <diffuse><texture texture="VFXTexture-sampler" texcoord="UVSET0"/></diffuse>
          <specular><color>0.15 0.15 0.15 1</color></specular>
          <shininess><float>8</float></shininess>
          <transparent opaque="A_ONE"><texture texture="VFXTexture-sampler" texcoord="UVSET0"/></transparent>
          <transparency><float>1</float></transparency>
        </phong></technique>
      </profile_COMMON>
      <extra><technique profile="GOOGLEEARTH"><double_sided>1</double_sided></technique></extra>
    </effect>
  </library_effects>
  <library_materials><material id="PreviewMaterial" name="PreviewMaterial"><instance_effect url="#PreviewEffect"/></material></library_materials>
  <library_geometries>
    <geometry id="vfx_kurp_0845-mesh" name="vfx_kurp_0845"><mesh>
      <source id="vfx_kurp_0845-mesh-positions">
        <float_array id="vfx_kurp_0845-mesh-positions-array" count="252">-1.74865956 -0.693855677 -1.27196633 -1.27270997 -1.40977136 -1.15777471 -1.370917 -0.508100457 -0.987939573 -0.912651261 -1.08289725 -0.848655365 -0.976613323 -0.242552993 -0.673091723 -0.56607068 -0.703035332 -0.534381305 -0.574530688 0.07725377 -0.339464754 -0.227938481 -0.289952601 -0.216874645 -0.157888532 0.437877403 0.0137363819 0.117011303 0.149816575 0.111739727 0.391940462 -0.138418145 0.209946561 0.118675252 -0.657289331 -0.0941330841 -0.155515588 -1.16360444 -0.395573696 -0.454381566 -1.6577348 -0.70932904 -0.796760603 -2.12567593 -1.04359355 -1.20986701 -2.54796571 -1.41040271 -1.65127711 -1.66389008 -1.45981739 -1.72737622 -2.88921585 -1.82175025 -2.05338358 -1.82548329 -1.75286115 -2.37164391 -3.08914929 -2.27616553 -2.48406239 -1.87478038 -2.03498492 -3.12420918 -3.08224121 -2.74529586 -2.94834197 -1.79200548 -2.30426346 -3.93227084 -2.84192957 -3.18929546 -3.45124484 -1.55738625 -2.55876876 -2.09268113 -0.779741332 -1.50928761 -2.37936342 -0.761610735 -1.68406362 -2.59640505 -0.660201291 -1.79391597 -2.77232219 -0.501499785 -1.86334934 -2.9699725 -0.272530076 -1.92836218 -3.99779303 -1.15115451 -2.79657339 -3.23849955 0.0795012815 -2.00616238 -4.59301112 -0.553545393 -3.01575251 -3.59402012 0.608975116 -2.092888 -5.24192546 0.2552074 -3.21438213 -4.03511461 1.35417185 -2.17783444 -5.87948832 1.18527027 -3.37513152 -4.50319361 2.25577317 -2.23955736 -4.75673906 -2.3814707 -3.58710776 -5.59155301 -1.71570626 -3.93874677 -6.44818753 -0.843381903 -4.25106994 -7.25578321 0.114768227 -4.51070557 -0.823239586 -1.22554847 -1.87619139 -1.27270997 -1.40977136 -1.15777471 -0.524866572 -0.923931269 -1.46850529 -0.912651261 -1.08289725 -0.848655365 -0.238333095 -0.568656471 -1.05828703 -0.56607068 -0.703035332 -0.534381305 0.0413917119 -0.179490034 -0.647457971 -0.227938481 -0.289952601 -0.216874645 0.329575024 0.237035025 -0.228141717 0.117011303 0.149816575 0.111739727 -0.0955817396 0.0627719811 0.451417686 -0.497290266 -0.400284746 0.213557125 -0.893820785 -0.837327469 -0.0105728118 -1.30044053 -1.24182311 -0.228848162 -1.72218055 -1.59400601 -0.439347977 -2.16407313 -1.8741093 -0.640152224 -1.65127711 -1.66389008 -1.45981739 -2.63115549 -2.06236459 -0.829341877 -2.05338358 -1.82548329 -1.75286115 -3.1284629 -2.13899671 -1.00499719 -2.48406239 -1.87478038 -2.03498492 -3.66102438 -2.08422371 -1.16519171 -2.94834197 -1.79200548 -2.30426346 -4.23385965 -1.87827008 -1.30799415 -3.45124484 -1.55738625 -2.55876876 -1.13848495 -1.45374172 -2.27942539 -1.47563911 -1.58874208 -2.67628881 -1.83973793 -1.61077469 -3.06486119 -2.23581036 -1.50005755 -3.44321622 -2.66887596 -1.23681511 -3.80942285 -3.99779303 -1.15115451 -2.79657339 -3.14394964 -0.801281056 -4.1615502 -4.59301112 -0.553545393 -3.01575251 -3.6660532 -0.173692343 -4.49767184 -5.24192546 0.2552074 -3.21438213 -4.24021177 0.665714239 -4.81586368 -5.88013182 1.18487386 -3.37497772 -4.80169779 1.62690182 -5.09871891 -4.85198355 -1.50136913 -1.43147353 -5.52041793 -0.933758337 -1.53370334 -6.24418805 -0.155674711 -1.61276049 -6.95856571 0.742845448 -1.65123679</float_array>
        <technique_common><accessor source="#vfx_kurp_0845-mesh-positions-array" count="84" stride="3"><param name="X" type="float"/><param name="Y" type="float"/><param name="Z" type="float"/></accessor></technique_common>
      </source>
      <source id="vfx_kurp_0845-mesh-normals">
        <float_array id="vfx_kurp_0845-mesh-normals-array" count="252">-0.518359004 -0.21246457 0.828349413 -0.518312116 -0.212469199 0.828377565 -0.518326228 -0.212494777 0.828362174 -0.518306997 -0.212473123 0.828379761 -0.518290369 -0.212528155 0.828376048 -0.518303291 -0.212476987 0.828381089 -0.518245821 -0.212571284 0.828392853 -0.518300472 -0.212481595 0.828381671 -0.518185785 -0.212610098 0.828420448 -0.51829849 -0.212486922 0.828381545 -0.518496113 -0.212346305 0.828293926 -0.518427243 -0.212382198 0.828327831 -0.51838072 -0.212423176 0.828346439 -0.518349048 -0.212450815 0.828359171 -0.518328885 -0.21247078 0.828366667 -0.518318328 -0.212485365 0.828369532 -0.518318507 -0.212463663 0.828374986 -0.518316885 -0.212495271 0.828367893 -0.518325122 -0.212454994 0.82837307 -0.518323915 -0.212499785 0.828362336 -0.518329517 -0.212442815 0.828373444 -0.518336511 -0.212498206 0.82835486 -0.518329003 -0.212429444 0.828377194 -0.518350062 -0.21249221 0.828347918 -0.518323404 -0.212419006 0.828383374 -0.51839327 -0.212430518 0.828336703 -0.518429325 -0.212383357 0.828326231 -0.518440612 -0.212324166 0.828334341 -0.518397796 -0.212286952 0.828370675 -0.518334774 -0.212283931 0.828410885 -0.518315535 -0.212413546 0.828389698 -0.518283898 -0.212297117 0.828439337 -0.518308176 -0.212411952 0.828394711 -0.51824954 -0.212312474 0.828456896 -0.518344771 -0.212319836 0.828395428 -0.51828738 -0.212312158 0.828433304 -0.518385916 -0.212216365 0.828396195 -0.518315656 -0.212379357 0.828398388 -0.518361443 -0.212485278 0.828342575 -0.518370249 -0.212479751 0.828338482 -0.518378366 -0.212474503 0.828334749 -0.518397574 -0.212380317 0.828346882 -0.538608074 0.833492291 -0.123255603 -0.544107922 0.829231264 -0.127757895 -0.605882099 0.774843487 -0.180345371 -0.608934666 0.771813303 -0.183037698 -0.644916753 0.733277951 -0.215373692 -0.646440398 0.731502982 -0.216836804 -0.664110724 0.710336806 -0.233192129 -0.664595734 0.709687711 -0.233785933 -0.669670066 0.703364494 -0.238370283 -0.669579205 0.70340341 -0.238510651 -0.669477276 0.703420043 -0.238747609 -0.663973581 0.710390005 -0.233420491 -0.644844952 0.733305095 -0.215496231 -0.605857236 0.774851987 -0.180392372 -0.538618354 0.83348707 -0.123245989 -0.431015651 0.901525083 -0.0384451975 -0.440227807 0.89673465 -0.0454581679 -0.272901043 0.959093318 0.0752663822 -0.286661566 0.955772585 0.0657564557 -0.0710110628 0.975986763 0.205930248 -0.0876653736 0.976750819 0.19563389 0.141591833 0.933943441 0.328178917 0.126325435 0.939013741 0.319836017 0.325732792 0.846560421 0.420991215 0.314883887 0.853204989 0.415799693 -0.430978061 0.901540782 -0.0384984344 -0.272841639 0.959117159 0.0751778883 -0.070934194 0.976017146 0.205812706 0.141682876 0.933979236 0.328037725 0.325835416 0.84660118 0.420829803 0.457105469 0.749869341 0.478278749 0.463791669 0.744101097 0.480843889 0.555687188 0.652656574 0.515025382 0.559545165 0.64841566 0.516203778 0.621025103 0.5725023 0.535321341 0.623262336 0.569532126 0.535889184 0.646230753 0.537217973 0.542017217 0.646307518 0.537066479 0.542075816 0.463679092 0.744055675 0.481022714 0.559423567 0.648366693 0.51639704 0.623185744 0.569452869 0.536062458 0.646230451 0.537100184 0.542134297</float_array>
        <technique_common><accessor source="#vfx_kurp_0845-mesh-normals-array" count="84" stride="3"><param name="X" type="float"/><param name="Y" type="float"/><param name="Z" type="float"/></accessor></technique_common>
      </source>
      <source id="vfx_kurp_0845-mesh-uv0">
        <float_array id="vfx_kurp_0845-mesh-uv0-array" count="168">1 0.692307711 0.5 0.692307711 1 0.769230843 0.5 0.769230783 1 0.846153915 0.5 0.846153855 1 0.923076987 0.5 0.923076928 1 1 0.5 1 0 1 5.80753134e-09 0.923076928 1.16150627e-08 0.846153855 1.74225931e-08 0.769230723 2.32301236e-08 0.692307651 2.90376541e-08 0.615384579 0.5 0.615384638 3.48451863e-08 0.538461447 0.50000006 0.538461566 4.06527185e-08 0.461538434 0.50000006 0.461538434 4.64602472e-08 0.384615362 0.50000006 0.384615362 5.22677794e-08 0.307692289 0.50000006 0.307692289 1 0.615384698 1 0.538461566 1 0.461538494 1 0.384615421 1 0.307692349 0.50000006 0.230769217 1 0.230769277 0.50000006 0.153846145 1.00000012 0.153846204 0.50000006 0.0769230127 1.00000012 0.0769230723 0.50000006 0 1.00000012 5.96046448e-08 5.80753081e-08 0.230769217 6.38828368e-08 0.153846145 6.96903726e-08 0.0769230127 7.54979013e-08 0 1 0.692307711 0.5 0.692307711 1 0.769230843 0.49999997 0.769230783 1 0.846153915 0.49999997 0.846153855 1 0.923076987 0.49999997 0.923076987 1 1.00000012 0.49999997 1 -5.35088276e-08 1 -4.82989293e-08 0.923076928 -4.3089031e-08 0.846153855 -3.78791327e-08 0.769230723 -3.2298292e-08 0.692307711 -2.67174496e-08 0.615384579 0.5 0.615384579 -2.16465494e-08 0.538461506 0.5 0.538461506 -1.58337627e-08 0.461538434 0.50000006 0.461538494 -1.07168114e-08 0.384615362 0.5 0.384615421 -5.13596943e-09 0.307692289 0.5 0.307692289 1 0.615384698 1 0.538461566 1 0.461538494 1 0.384615362 1.00000012 0.307692289 0.50000006 0.230769217 1 0.230769217 0.5 0.153846145 1 0.153846145 0.5 0.0769230127 1.00000012 0.0769230127 0.50000006 0 1 5.96046448e-08 -3.82223586e-09 0.230769157 2.68638445e-09 0.153846085 7.71123254e-09 0.0769229531 1.71873964e-08 0</float_array>
        <technique_common><accessor source="#vfx_kurp_0845-mesh-uv0-array" count="84" stride="2"><param name="S" type="float"/><param name="T" type="float"/></accessor></technique_common>
      </source>
      <vertices id="vfx_kurp_0845-mesh-vertices"><input semantic="POSITION" source="#vfx_kurp_0845-mesh-positions"/></vertices>
      <triangles material="PreviewMaterial" count="104">
        <input semantic="VERTEX" source="#vfx_kurp_0845-mesh-vertices" offset="0"/>
        <input semantic="NORMAL" source="#vfx_kurp_0845-mesh-normals" offset="1"/>
        <input semantic="TEXCOORD" source="#vfx_kurp_0845-mesh-uv0" offset="2" set="0"/>
        <p>0 0 0 1 1 1 2 2 2 3 3 3 2 2 2 1 1 1 2 2 2 3 3 3 4 4 4 5 5 5 4 4 4 3 3 3 4 4 4 5 5 5 6 6 6 7 7 7 6 6 6 5 5 5 6 6 6 7 7 7 8 8 8 9 9 9 8 8 8 7 7 7 10 10 10 9 9 9 11 11 11 7 7 7 11 11 11 9 9 9 11 11 11 7 7 7 12 12 12 5 5 5 12 12 12 7 7 7 12 12 12 5 5 5 13 13 13 3 3 3 13 13 13 5 5 5 13 13 13 3 3 3 14 14 14 1 1 1 14 14 14 3 3 3 14 14 14 1 1 1 15 15 15 16 16 16 15 15 15 1 1 1 15 15 15 16 16 16 17 17 17 18 18 18 17 17 17 16 16 16 17 17 17 18 18 18 19 19 19 20 20 20 19 19 19 18 18 18 19 19 19 20 20 20 21 21 21 22 22 22 21 21 21 20 20 20 21 21 21 22 22 22 23 23 23 24 24 24 23 23 23 22 22 22 1 1 1 0 0 0 16 16 16 25 25 25 16 16 16 0 0 0 16 16 16 25 25 25 18 18 18 26 26 26 18 18 18 25 25 25 18 18 18 26 26 26 20 20 20 27 27 27 20 20 20 26 26 26 20 20 20 27 27 27 22 22 22 28 28 28 22 22 22 27 27 27 22 22 22 28 28 28 24 24 24 29 29 29 24 24 24 28 28 28 24 24 24 29 29 29 30 30 30 31 31 31 30 30 30 29 29 29 30 30 30 31 31 31 32 32 32 33 33 33 32 32 32 31 31 31 32 32 32 33 33 33 34 34 34 35 35 35 34 34 34 33 33 33 34 34 34 35 35 35 36 36 36 37 37 37 36 36 36 35 35 35 23 23 23 24 24 24 38 38 38 30 30 30 38 38 38 24 24 24 38 38 38 30 30 30 39 39 39 32 32 32 39 39 39 30 30 30 39 39 39 32 32 32 40 40 40 34 34 34 40 40 40 32 32 32 40 40 40 34 34 34 41 41 41 36 36 36 41 41 41 34 34 34 42 42 42 43 43 43 44 44 44 45 45 45 44 44 44 43 43 43 44 44 44 45 45 45 46 46 46 47 47 47 46 46 46 45 45 45 46 46 46 47 47 47 48 48 48 49 49 49 48 48 48 47 47 47 48 48 48 49 49 49 50 50 50 51 51 51 50 50 50 49 49 49 52 52 52 51 51 51 53 53 53 49 49 49 53 53 53 51 51 51 53 53 53 49 49 49 54 54 54 47 47 47 54 54 54 49 49 49 54 54 54 47 47 47 55 55 55 45 45 45 55 55 55 47 47 47 55 55 55 45 45 45 56 56 56 43 43 43 56 56 56 45 45 45 56 56 56 43 43 43 57 57 57 58 58 58 57 57 57 43 43 43 57 57 57 58 58 58 59 59 59 60 60 60 59 59 59 58 58 58 59 59 59 60 60 60 61 61 61 62 62 62 61 61 61 60 60 60 61 61 61 62 62 62 63 63 63 64 64 64 63 63 63 62 62 62 63 63 63 64 64 64 65 65 65 66 66 66 65 65 65 64 64 64 43 43 43 42 42 42 58 58 58 67 67 67 58 58 58 42 42 42 58 58 58 67 67 67 60 60 60 68 68 68 60 60 60 67 67 67 60 60 60 68 68 68 62 62 62 69 69 69 62 62 62 68 68 68 62 62 62 69 69 69 64 64 64 70 70 70 64 64 64 69 69 69 64 64 64 70 70 70 66 66 66 71 71 71 66 66 66 70 70 70 66 66 66 71 71 71 72 72 72 73 73 73 72 72 72 71 71 71 72 72 72 73 73 73 74 74 74 75 75 75 74 74 74 73 73 73 74 74 74 75 75 75 76 76 76 77 77 77 76 76 76 75 75 75 76 76 76 77 77 77 78 78 78 79 79 79 78 78 78 77 77 77 65 65 65 66 66 66 80 80 80 72 72 72 80 80 80 66 66 66 80 80 80 72 72 72 81 81 81 74 74 74 81 81 81 72 72 72 81 81 81 74 74 74 82 82 82 76 76 76 82 82 82 74 74 74 82 82 82 76 76 76 83 83 83 78 78 78 83 83 83 76 76 76</p>
      </triangles>
    </mesh></geometry>
  </library_geometries>
  <library_visual_scenes>
    <visual_scene id="Scene" name="Scene">
      <node id="vfx_kurp_0845" name="vfx_kurp_0845" type="NODE">
        <instance_geometry url="#vfx_kurp_0845-mesh"><bind_material><technique_common><instance_material symbol="PreviewMaterial" target="#PreviewMaterial"><bind_vertex_input semantic="UVSET0" input_semantic="TEXCOORD" input_set="0"/></instance_material></technique_common></bind_material></instance_geometry>
      </node>
    </visual_scene>
  </library_visual_scenes>
  <scene><instance_visual_scene url="#Scene"/></scene>
</COLLADA>
