<?xml version="1.0" encoding="utf-8"?>
<COLLADA xmlns="http://www.collada.org/2005/11/COLLADASchema" version="1.4.1">
  <asset>
    <contributor><authoring_tool>Morrobroom Kurpulio VFX preview converter</authoring_tool></contributor>
    <unit name="unit" meter="1"/>
    <up_axis>Z_UP</up_axis>
  </asset>
  <library_images>
    <image id="VFXTexture" name="darkmap_newgen-1.dds">
      <init_from>../../../Textures/Kurp/darkmap_newgen-1.dds</init_from>
    </image>
  </library_images>
  <library_effects>
    <effect id="PreviewEffect">
      <profile_COMMON>
        <newparam sid="VFXTexture-surface">
          <surface type="2D"><init_from>VFXTexture</init_from></surface>
        </newparam>
        <newparam sid="VFXTexture-sampler">
          <sampler2D><source>VFXTexture-surface</source></sampler2D>
        </newparam>
        <technique sid="common"><phong>
          <emission><color>0.08 0.08 0.08 1</color></emission>
          <ambient><color>0.2 0.2 0.2 1</color></ambient>
          <diffuse><texture texture="VFXTexture-sampler" texcoord="UVSET0"/></diffuse>
          <specular><color>0.15 0.15 0.15 1</color></specular>
          <shininess><float>8</float></shininess>
          <transparent opaque="A_ONE"><texture texture="VFXTexture-sampler" texcoord="UVSET0"/></transparent>
          <transparency><float>1</float></transparency>
        </phong></technique>
      </profile_COMMON>
      <extra><technique profile="GOOGLEEARTH"><double_sided>1</double_sided></technique></extra>
    </effect>
  </library_effects>
  <library_materials><material id="PreviewMaterial" name="PreviewMaterial"><instance_effect url="#PreviewEffect"/></material></library_materials>
  <library_geometries>
    <geometry id="vfx_kurp_0485-mesh" name="vfx_kurp_0485"><mesh>
      <source id="vfx_kurp_0485-mesh-positions">
        <float_array id="vfx_kurp_0485-mesh-positions-array" count="1080">1.19640098 -0.306294163 1.67680803 0.981364189 0.0661603247 1.21710728 0.676572544 0.594074925 2.58480317 0.400482742 1.07227633 2.12788753 0.558875326 0.797932456 4.55950123 0.0401603809 1.69637298 4.03838914 1.01633164 0.00559539765 8.94605124 -0.11845884 1.9711095 7.65591975 0.788515049 0.40018473 0.637440244 0.18771415 1.44080227 1.65191399 -0.357343597 2.38486969 3.1594679 -0.919584363 3.35869923 6.0494188 0.711064076 0.534333691 0.0784353904 0.133396498 1.53488306 0.805257056 -0.57678388 2.76495134 2.18557009 -1.25470192 3.93913951 4.0371533 0.704290427 0.546065956 -0.313995472 0.0959816735 1.59968743 -0.063632001 -0.644954215 2.88302551 0.81492941 -1.39104353 4.17528978 1.99463383 0.619109668 -0.383415203 0.6335395 0.584319017 0.0142428954 0.360915313 0.535006978 0.577880825 1.17202339 0.490338585 1.08844164 0.901050854 0.515964831 0.795533206 2.3431123 0.432042224 1.75477018 2.03406826 0.589976403 -0.050420582 4.9445427 0.406379437 2.04809781 4.17943419 0.553118068 0.370870343 0.0171454712 0.45591487 1.48190529 0.618776174 0.36773035 2.48985685 1.51282666 0.276765722 3.52958421 3.22670353 0.540587348 0.514097052 -0.314370731 0.447126872 1.58235247 0.116668733 0.332227231 2.89565823 0.935259364 0.222547314 4.14930222 2.0333354 0.539491424 0.526623202 -0.547100707 0.441073537 1.65154212 -0.398623362 0.321197943 3.02172224 0.122404938 0.20048883 4.40143286 0.82202517 -0.176838607 -0.306294891 1.67680767 0.0381980999 0.0661596792 1.21710707 0.342989702 0.594074282 2.58480275 0.619079405 1.07227576 2.12788718 0.46068695 0.797931895 4.55950085 0.979401783 1.69637249 4.03838854 0.00323091814 0.00559460663 8.94604894 1.13802098 1.97110899 7.65591858 0.23104715 0.400184094 0.637440077 0.831847949 1.44080176 1.65191375 1.37690559 2.38486941 3.15946746 1.93914628 3.35869896 6.04941787 0.30849807 0.534333055 0.0784353595 0.886165494 1.53488253 0.805256907 1.59634577 2.76495103 2.18556985 2.27426352 3.93913917 4.03715296 0.315271713 0.546065358 -0.313995425 0.923580324 1.59968694 -0.0636319849 1.66451585 2.88302511 0.814929393 2.41060497 4.17528957 1.99463357 -0.863457764 0.882964838 1.67680766 -0.433384278 0.882964804 1.21710703 0.17619892 0.882964753 2.58480263 0.728378402 0.882964767 2.1278873 0.41159339 0.882964791 4.55950086 1.44902309 0.882964704 4.03838848 -0.503318802 0.882964828 8.94604972 1.76626144 0.882964727 7.655919 -0.0476861229 0.882964791 0.637440114 1.15391544 0.882964716 1.65191376 2.24403078 0.882964648 3.15946748 3.36851224 0.882964639 6.04941805 0.107215745 0.882964789 0.0784353644 1.26255065 0.882964775 0.805256906 2.68291121 0.88296467 2.18556978 4.03874689 0.882964588 4.03715284 0.120763004 0.88296478 -0.313995428 1.33738036 0.882964747 -0.063631984 2.81925144 0.882964644 0.814929412 4.31142999 0.882964622 1.99463351 -0.536057189 0.155247938 0.633539373 -0.209070482 0.384206533 0.360915238 0.254398367 0.708730876 1.1720233 0.674222893 1.00269518 0.901050768 0.433369813 0.834048001 2.34311233 1.22213227 1.38634543 2.03406836 -0.262242003 0.346975302 4.94454231 1.46332997 1.55523376 4.1794342 0.0841775657 0.589541011 0.0171454163 0.997760613 1.22923872 0.618776137 1.8265801 1.80958434 1.5128266 2.68152835 2.40822546 3.22670351 0.201950165 0.672006287 -0.314370756 1.08035639 1.2870729 0.116668703 2.16026294 2.04323161 0.935259343 3.19111077 2.76503886 2.0333354 0.212250202 0.679218442 -0.547100733 1.13724976 1.3269101 -0.398623397 2.26392297 2.11581511 0.122404906 3.39843285 2.91020737 0.822025142 1.66318869 0.347657159 0.633539431 1.30141121 0.516356607 0.360915268 0.78863036 0.755470259 1.17202334 0.324137471 0.972066745 0.901050883 0.59061677 0.847805543 2.34311232 -0.282068202 1.25474509 2.03406834 1.36024009 0.488924486 4.94454247 -0.548928828 1.37918424 4.17943434 0.976962242 0.667649588 0.0171454411 -0.0338239417 1.13898682 0.618776186 -0.950827989 1.56659275 1.5128267 -1.89674077 2.00767908 3.22670358 0.846658956 0.728411066 -0.314370756 -0.125207727 1.18159979 0.116668732 -1.32001386 1.73874688 0.935259439 -2.4605415 2.27058354 2.03333557 0.835262993 0.733725015 -0.547100729 -0.18815442 1.21095225 -0.398623375 -1.43470319 1.79222737 0.122404938 -2.68992227 2.37754548 0.822025232 1.59922642 2.76994165 -0.344020025 1.19485103 2.06954276 1.09371756 1.12781632 1.95343538 -0.737451085 0.877942749 1.52064147 1.36764756 0.510988823 0.885057666 -0.950019863 0.510988854 0.885057598 1.5246436 -0.104631498 -0.181226999 -0.737451091 0.145242281 0.251566946 1.36764759 -0.576041527 -0.997733206 -0.344019974 -0.171666031 -0.297334368 1.09371759 1.5868248 2.74846104 4.41291661 1.12255023 1.94431379 5.17004658 0.510988972 0.885057601 5.58713265 -0.0993649504 -0.172105533 5.17004658 -0.563639587 -0.976252788 4.41291712 -1.46088344 -2.53032506 7.28472916 -0.571175019 -0.989304953 9.68168481 0.510989122 0.885057578 11.3328132 1.59436054 2.76151292 9.68168524 2.48406878 4.30253308 7.28472916 2.16464347 2.04629899 -0.564906852 1.54974643 1.61574333 0.28773959 1.44781307 1.54436894 -0.798230028 1.06785285 1.27831784 0.450193059 0.50925224 0.888960126 -0.924293282 0.509252372 0.88896012 0.543299219 -0.426258548 0.232129726 -0.798229927 -0.0462982412 0.498180761 0.450193114 -1.14308901 -0.269800396 -0.564906643 -0.528191923 0.160755146 0.287739682 2.14578537 2.03309422 2.25618173 1.43980514 1.53876155 2.70519568 0.509252602 0.888960132 2.95254737 -0.418250327 0.237736958 2.70519566 -1.12423061 -0.256595753 2.25618197 -2.48858784 -1.21192913 3.95930247 -1.13568911 -0.264619268 5.38081068 0.509252952 0.888960192 6.360007 2.15724411 2.04111755 5.38081067 3.51014272 2.98842754 3.95930204 0.331759495 2.90098582 -0.5649068 0.39718337 2.15319171 0.28773959 0.408028703 2.02922747 -0.798229997 0.448455824 1.56714677 0.450193041 0.50925224 0.888960126 -0.924293282 0.509252372 0.88896012 0.543299219 0.607425752 -0.24988572 -0.798229924 0.566999023 0.212195086 0.45019311 0.683694921 -1.12164417 -0.56490663 0.618271402 -0.373849885 0.28773968 0.333766515 2.87805209 2.25618184 0.408881252 2.01948874 2.70519562 0.509252602 0.888960132 2.95254737 0.606574268 -0.240146708 2.70519581 0.681688949 -1.09870998 2.25618194 0.826853855 -2.75794458 3.95930242 0.68290858 -1.112645 5.38081054 0.509252952 0.888960192 6.360007 0.332547765 2.89198733 5.38081034 0.188602165 4.53728679 3.95930214 1.19458769 2.06908617 1.67680763 0.674759557 1.16871708 2.5848027 0.979550923 1.69663168 1.21710702 0.398669781 0.690515673 2.1278872 0.786701773 1.36260732 0.637440082 0.185901185 0.321989784 1.65191378 0.709250748 1.22845838 0.0784353253 0.131583468 0.227909007 0.805256938 0.702477055 1.21672613 -0.313995477 0.0941685007 0.163104659 -0.0636319732 0.557062664 0.964859425 4.55950072 0.0383477612 0.0664189694 4.03838869 -0.359156164 -0.622077785 3.1594676 -0.578596522 -1.00215934 2.18556989 -0.646766885 -1.12023344 0.814929422 -1.39285584 -2.41249788 1.99463377 -1.25651401 -2.17634756 4.0371531 -0.921396353 -1.59590735 6.04941813 -0.120270829 -0.208317674 7.6559189 1.01451942 1.7571964 8.94604949 2.68867398 0.882964827 -0.344020063 1.87992292 0.882964718 1.09371751 1.74585366 0.882964764 -0.737451129 1.2461062 0.882964702 1.36764755 0.510988823 0.885057666 -0.950019863 0.510988854 0.885057598 1.5246436 -0.719042401 0.882964916 -0.737451139 -0.21929493 0.88296482 1.36764753 -1.66186266 0.882964948 -0.344020051 -0.853111593 0.882964836 1.09371756 2.66387037 0.882964542 4.41291664 1.73532101 0.882964527 5.17004674 0.510988972 0.885057601 5.58713265 -0.708509732 0.882964668 5.17004685 -1.63705906 0.882964716 4.41291704 -3.43154715 0.882964736 7.28472899 -1.65213031 0.882964498 9.68168498 0.510989122 0.885057578 11.3328132 2.67894153 0.882964292 9.68168505 4.4583583 0.882964278 7.28472883 -3.29549198 0.882964883 1.99463367 -1.80331359 0.882964867 0.814929352 -3.02280905 0.882964718 4.03715284 -1.66697329 0.882964787 2.18556981 -2.35257421 0.882964636 6.04941805 -1.22809281 0.882964733 3.15946744 -0.750323621 0.882964551 7.65591859 -0.43308513 0.88296468 4.03838883 1.51925683 0.882964455 8.94604975 0.604344637 0.882964639 4.55950078 0.839739085 0.882964703 2.58480264 0.287559614 0.882964738 2.12788714 -0.137977508 0.88296475 1.65191372 -0.246612697 0.882964803 0.805256927 -0.321442334 0.882964808 -0.0636319744 1.87939582 0.882964701 1.67680767 1.44932233 0.882964678 1.2171071 1.06362418 0.882964769 0.637440139 0.908722307 0.882964833 0.078435362 0.895174991 0.882964759 -0.313995423 2.41241788 -2.41249784 1.99463338 1.66632838 -1.1202336 0.814929273 2.27607634 -2.17634735 4.03715249 1.59815818 -1.00215936 2.18556964 1.94095896 -1.59590712 6.04941719 1.37871795 -0.622077788 3.15946715 1.13983347 -0.208317426 7.65591818 0.981214058 0.066418975 4.03838806 0.00504295468 1.75719661 8.94604811 0.462499037 0.964859461 4.55950032 0.3448017 1.16871698 2.58480249 0.620891473 0.690515564 2.12788707 0.833660068 0.321989671 1.65191364 0.887977649 0.227908829 0.805256827 0.925392411 0.163104444 -0.0636319669 -0.175026814 2.06908599 1.67680748 0.0400098951 1.69663142 1.21710691 0.232859034 1.3626071 0.637440069 0.310309945 1.22845809 0.0784353622 0.317083567 1.21672586 -0.313995392 -2.38514447 -1.13949688 0.822025193 -1.25063463 -0.345104596 0.12240494 -2.17782228 -0.994328507 2.03333542 -1.14697446 -0.272521007 0.935259339 -1.66823987 -0.637515175 3.22670355 -0.813291683 -0.0388738916 1.51282661 -0.450041429 0.215476432 4.1794344 -0.208843781 0.384364985 2.0340682 1.2755306 1.42373485 4.94454227 0.579918688 0.936662374 2.3431123 0.758890077 1.06197955 1.17202324 0.339065564 0.768015296 0.901050801 0.015527825 0.541471762 0.618776132 -0.0670680186 0.483637607 0.116668712 -0.123961361 0.443800495 -0.398623388 1.54934571 1.61546255 0.63353939 1.22235892 1.38650399 0.360915227 0.929110875 1.18116951 0.0171454156 0.811338243 1.09870424 -0.314370757 0.801038181 1.09149207 -0.547100719 0.815847194 -2.63214406 0.822025205 0.695137665 -1.25243347 0.122404934 0.793788647 -2.3800136 2.03333534 0.684108606 -1.12636935 0.935259315 0.739570345 -1.76029547 3.22670332 0.648605586 -0.720568057 1.51282648 0.609956911 -0.278808969 4.17943394 0.584293706 0.0145186224 2.0340681 0.426360004 1.81970951 4.94454235 0.500371195 0.973755597 2.34311212 0.481328887 1.19140798 1.1720232 0.525997246 0.680847176 0.901050765 0.560420891 0.287383485 0.618776091 0.569208848 0.186936316 0.116668693 0.575262086 0.117746655 -0.398623369 0.397226072 2.15270399 0.633539323 0.432016724 1.75504595 0.360915206 0.463217615 1.39841845 0.0171453841 0.475748331 1.2551918 -0.314370771 0.476844189 1.24266559 -0.547100714 -1.32486195 1.74100655 -0.564906787 -0.644541215 1.423768 0.287739602 -0.531762294 1.37117829 -0.798229979 -0.111375074 1.17514867 0.450193057 0.504972087 0.887741303 -0.924293307 0.504972087 0.887741374 0.543299194 1.5417065 0.404304363 -0.798229957 1.12131926 0.600334078 0.450193098 2.33480626 0.0344761278 -0.564906705 1.65448537 0.351714801 0.287739664 -1.30399734 1.73127735 2.25618176 -0.52290216 1.36704688 2.70519563 0.504972095 0.887741508 2.95254728 1.53284637 0.408436099 2.70519559 2.31394151 0.0442056411 2.25618181 3.82346352 -0.659695632 3.95930232 2.32661922 0.0382940494 5.38081091 0.504972097 0.88774168 6.36000739 -1.31667507 1.73718923 5.38081076 -2.81351921 2.43517869 3.95930205 -0.57966612 2.76994156 -0.344020063 -0.175290444 2.06954269 1.09371755 -0.108255833 1.95343523 -0.737451125 0.141618044 1.52064123 1.36764752 0.510988823 0.885057666 -0.950019863 0.510988854 0.885057598 1.5246436 1.12419264 -0.181227382 -0.737451125 0.874318891 0.251566667 1.36764756 1.59560297 -0.997733659 -0.344020015 1.19122734 -0.297334683 1.09371752 -0.56726417 2.74846106 4.41291677 -0.102989319 1.94431373 5.17004659 0.510988972 0.885057601 5.58713265 1.11892644 -0.172105611 5.17004694 1.58320135 -0.976253048 4.41291687 2.48044574 -2.53032505 7.28472923 1.59073704 -0.989304893 9.68168524 0.510989122 0.885057578 11.3328132 -0.57479961 2.76151324 9.68168467 -1.46450835 4.30253344 7.28472895 -0.644097576 1.42356095 0.633539465 0.230460793 1.01574799 1.17202326 -0.28232017 1.25486144 0.360915306 0.694953613 0.799151471 0.901050808 0.0421287094 1.10356853 0.0171454769 1.05291502 0.632231477 0.61877608 0.172432001 1.04280703 -0.314370679 1.14429879 0.589618446 0.1166687 0.183827909 1.03749302 -0.547100639 1.20724534 0.560265961 -0.398623378 0.428474504 0.923412808 2.34311222 1.30115945 0.516473293 2.03406814 1.96991906 0.204625673 1.51282643 2.339105 0.0324715694 0.935259238 2.45379406 -0.0210088775 0.122404837 3.70901342 -0.60632695 0.822025018 3.47963284 -0.499364988 2.03333514 2.91583208 -0.236460406 3.22670312 1.56802028 0.392034307 4.17943391 -0.341148538 1.28229397 4.94454223</float_array>
        <technique_common><accessor source="#vfx_kurp_0485-mesh-positions-array" count="360" stride="3"><param name="X" type="float"/><param name="Y" type="float"/><param name="Z" type="float"/></accessor></technique_common>
      </source>
      <source id="vfx_kurp_0485-mesh-normals">
        <float_array id="vfx_kurp_0485-mesh-normals-array" count="1080">0.866025331 0.500000126 -5.07985911e-08 0.866025331 0.500000126 -3.59541331e-08 0.866025318 0.500000149 -2.11096707e-08 0.866025331 0.500000127 -2.85319042e-08 0.866025344 0.500000104 -4.33763663e-08 0.866025305 0.500000171 -2.85318953e-08 0.866025317 0.50000015 -1.36874416e-08 0.86602533 0.500000127 -6.26521729e-09 0.866025344 0.500000104 -2.85319086e-08 0.866025305 0.500000171 -3.59541245e-08 0.866025318 0.500000149 -2.11096707e-08 0.866025318 0.500000149 -2.85318998e-08 0.866025318 0.500000149 -3.59541288e-08 0.866025305 0.500000171 -2.85318953e-08 0.866025277 0.500000219 -4.85712353e-08 0.86602529 0.500000197 -4.11490106e-08 0.866025318 0.500000149 -2.85318998e-08 0.866025305 0.500000172 -1.3687437e-08 0.866025266 0.500000239 -9.31046057e-08 0.866025278 0.500000218 -7.08379222e-08 0.996194678 0.0871559732 -9.79967378e-10 0.996194678 0.0871559722 -1.58244255e-08 0.996194678 0.0871559724 -1.2113311e-08 0.996194675 0.0871560062 -1.58244166e-08 0.996194671 0.087156056 -2.46373129e-09 0.996194682 0.0871559237 -1.06295378e-08 0.996194678 0.0871559708 -3.43799982e-08 0.996194678 0.0871559703 -4.18022273e-08 0.996194678 0.087155974 1.01533762e-08 0.996194675 0.0871560081 1.01533864e-08 0.996194678 0.0871559729 -4.69108191e-09 0.996194678 0.0871559732 -9.79967378e-10 0.996194671 0.0871560531 -4.32859918e-08 0.996194675 0.087156007 -4.69107246e-09 0.996194671 0.0871560523 -5.44193356e-08 0.996194682 0.0871559258 1.90593795e-08 0.996194671 0.0871560496 -9.15304817e-08 0.996194671 0.0871560536 -3.58637626e-08 0.996194678 0.087155969 -6.03578e-08 0.996194696 0.0871557642 7.76936246e-08 0.866025421 -0.49999997 -8.88450745e-09 0.866025421 -0.49999997 -8.88452393e-09 0.866025421 -0.49999997 -8.88453746e-09 0.866025421 -0.49999997 -8.884523e-09 0.866025421 -0.49999997 -8.88451302e-09 0.866025421 -0.49999997 -8.8845247e-09 0.866025421 -0.49999997 -8.88451039e-09 0.866025421 -0.49999997 -8.88452315e-09 0.866025421 -0.49999997 -8.88453824e-09 0.866025421 -0.49999997 -8.88453901e-09 0.866025421 -0.49999997 -8.88452284e-09 0.866025421 -0.49999997 -8.88452269e-09 0.866025421 -0.49999997 -8.88446265e-09 0.866025421 -0.49999997 -8.88453855e-09 0.866025421 -0.49999997 -8.88452346e-09 0.866025421 -0.49999997 -8.88452362e-09 0.866025421 -0.49999997 -8.88445005e-09 0.866025421 -0.49999997 -8.88453994e-09 0.866025421 -0.49999997 -8.88452377e-09 0.866025421 -0.49999997 -8.88453793e-09 -1.02681472e-07 -1 0 -1.02681472e-07 -1 0 4.43614278e-09 -1 -5.36356811e-09 -7.65472219e-08 -1 7.2535582e-09 -7.71965849e-08 -1 -7.59089919e-09 -1.28166359e-07 -1 7.25356809e-09 -1.0235679e-07 -1 7.25356314e-09 -7.65472219e-08 -1 7.2535582e-09 -7.68719034e-08 -1 0 -2.23474692e-08 -1 -2.76302502e-08 -7.71965849e-08 -1 -7.59089919e-09 -5.04129731e-08 -1 1.46757818e-08 -5.10623361e-08 -1 0 -2.20227876e-08 -1 -2.02080213e-08 -7.75212663e-08 -1 -1.50131279e-08 -7.68719034e-08 -1 0 -7.55731776e-08 -1 2.95202443e-08 -1.01707427e-07 -1 2.20980208e-08 -7.68719034e-08 -1 0 -2.20227876e-08 -1 -2.02080213e-08 0.573576388 -0.819152078 -6.18097543e-08 0.57357639 -0.819152077 -3.21208379e-08 0.57357639 -0.819152077 -3.58319525e-08 0.573576369 -0.819152091 -7.25670647e-09 0.573576391 -0.819152076 -1.72763797e-08 0.573576368 -0.819152092 -2.5812279e-08 0.573576368 -0.819152092 -3.3234508e-08 0.573576389 -0.819152077 -4.32541816e-08 0.573576391 -0.819152076 -1.35652652e-08 0.573576348 -0.819152106 -9.48147918e-10 0.573576368 -0.819152092 -2.5812279e-08 0.573576368 -0.819152092 -3.69456225e-08 0.573576392 -0.819152075 -2.4319215e-09 0.57357639 -0.819152077 -2.84097234e-08 0.573576369 -0.819152091 -7.25670647e-09 0.573576347 -0.819152107 -1.57926058e-08 0.57357637 -0.819152091 3.87663707e-09 0.573576368 -0.819152092 -3.69456225e-08 0.573576348 -0.819152106 1.01851955e-08 0.573576346 -0.819152107 -2.32148347e-08 0.422618022 0.906307899 -1.84477204e-07 0.422618083 0.906307871 -1.25099385e-07 0.422618103 0.906307861 -8.79882439e-08 0.422618124 0.906307851 -5.82993323e-08 0.422618124 0.906307851 -3.60326458e-08 0.422618117 0.906307855 -5.08771022e-08 0.422618117 0.906307854 -2.1188187e-08 0.422618117 0.906307854 -1.37659582e-08 0.422618192 0.90630782 5.30340875e-08 0.422618158 0.906307836 -1.37659655e-08 0.42261813 0.906307848 -3.6032647e-08 0.422618151 0.906307839 -3.60326507e-08 0.422618103 0.906307861 -9.54104728e-08 0.422618117 0.906307855 -4.34548734e-08 0.422618144 0.906307842 -1.3765963e-08 0.422618137 0.906307845 -2.86104194e-08 0.422618048 0.906307886 -2.21588354e-07 0.42261811 0.906307858 -7.31437875e-08 0.422618164 0.906307833 -2.11881955e-08 0.422618131 0.906307848 -2.86104182e-08 0.866025401 -0.500000005 -3.98328297e-08 0.866025401 -0.500000005 -3.98328298e-08 0.866025511 -0.499999814 1.26952376e-08 0.866025582 -0.499999691 -4.84199618e-08 0.866025412 -0.499999986 8.7376805e-09 0.866025397 -0.500000011 -2.69060463e-08 0.866025273 -0.500000227 -1.76413534e-08 0.866025207 -0.500000341 1.7033272e-08 0.866025401 -0.500000005 -3.98328295e-08 0.866025401 -0.500000005 -3.98328439e-08 0.866025401 -0.500000005 -3.98328319e-08 0.866025498 -0.499999836 -5.56267871e-08 0.866025387 -0.500000029 -5.51282485e-08 0.866025314 -0.500000155 -5.23115442e-08 0.866025401 -0.500000005 -3.98328191e-08 0.866025401 -0.500000005 -3.98328034e-08 0.866025349 -0.500000095 -6.15874655e-08 0.866025397 -0.500000011 -4.31307806e-08 0.866025473 -0.49999988 -3.80923393e-08 0.866025401 -0.500000005 -3.98328291e-08 0.573576386 -0.81915208 -9.89208997e-08 0.573576344 -0.819152109 -6.03259792e-08 0.573132651 -0.819462583 -0.000201295217 0.57265473 -0.819796656 4.99934145e-05 0.573479417 -0.819219955 -0.000155700684 0.573572573 -0.819154749 -1.58322226e-05 0.574133231 -0.818761884 -9.82965692e-05 0.574585271 -0.818444683 -0.000257427494 0.573576412 -0.819152062 -4.21405116e-08 0.573576475 -0.819152017 -7.33132095e-08 0.573576369 -0.819152091 -7.25670647e-09 0.573019824 -0.819541497 0.000123363613 0.573661782 -0.81909227 0.000111272201 0.574058247 -0.818814461 8.26852154e-05 0.573576389 -0.819152077 -4.69652961e-08 0.573576389 -0.819152077 -4.69652961e-08 0.573879717 -0.818939592 0.000121168341 0.573608481 -0.819129602 7.47560655e-05 0.573174433 -0.819433381 5.09821551e-05 0.573576389 -0.819152077 -4.32541816e-08 0.996194672 0.0871560451 -1.5461943e-07 0.996194672 0.0871560438 -1.73175004e-07 0.996147291 0.0876956956 0.000201113608 0.996096004 0.0882765458 -5.01840438e-05 0.996061736 0.0886618399 0.000311211987 0.996019611 0.0891342172 -0.00016339982 0.996253713 0.0864784959 9.8138218e-05 0.996301292 0.0859282759 0.000257271448 0.996194679 0.0871559621 -1.56846779e-07 0.996194675 0.0871560092 -1.80597234e-07 0.996194683 0.0871559168 -1.07118519e-07 0.996135224 0.0878328011 -0.000123548684 0.996095464 0.0882825488 -0.000136684787 0.996245782 0.0865698304 -8.28852087e-05 0.996194679 0.0871559621 -1.56846779e-07 0.996194672 0.0871560451 -1.5461943e-07 0.996226871 0.0867871351 -0.000121365911 0.996264337 0.0863559376 -0.000149749549 0.996151794 0.0876447362 -5.11741223e-05 0.996194679 0.0871559631 -1.4200232e-07 0.8660254 -0.500000007 -1.62300727e-07 0.8660254 -0.500000007 -1.62300725e-07 0.8660254 -0.500000007 -1.62300726e-07 0.8660254 -0.500000007 -1.62300726e-07 0.8660254 -0.500000007 -1.62300725e-07 0.8660254 -0.500000007 -1.62300724e-07 0.8660254 -0.500000007 -1.62300723e-07 0.8660254 -0.500000007 -1.62300724e-07 0.8660254 -0.500000007 -1.62300723e-07 0.8660254 -0.500000007 -1.62300724e-07 0.8660254 -0.500000007 -1.62300727e-07 0.8660254 -0.500000007 -1.62300725e-07 0.8660254 -0.500000007 -1.62300724e-07 0.8660254 -0.500000007 -1.62300724e-07 0.8660254 -0.500000007 -1.62300724e-07 0.8660254 -0.500000007 -1.6230072e-07 0.8660254 -0.500000007 -1.62300723e-07 0.8660254 -0.500000007 -1.62300725e-07 0.8660254 -0.500000007 -1.62300726e-07 0.8660254 -0.500000007 -1.62300726e-07 5.50812307e-08 -1 -2.76302635e-08 -2.26721507e-08 -1 -3.50524791e-08 -0.00084195286 -0.999999626 -0.000199908215 -0.00146429376 -0.999998927 5.11643285e-05 -0.00189567391 -0.999998158 -0.00030178989 -0.00269445109 -0.999996356 0.000165333647 0.000999636096 -0.999999498 -6.51387838e-05 0.00158873014 -0.999998714 -0.000219940815 -7.84953108e-08 -1 -3.72798139e-08 1.51400909e-09 -1 -7.21636274e-08 -5.3659788e-08 -1 -5.95465037e-08 -0.000883003354 -0.999999606 8.80425875e-05 -0.00154316911 -0.999998798 0.000150023433 0.000802696034 -0.999999675 7.07825364e-05 -5.26857435e-08 -1 -3.72798181e-08 -1.0462956e-07 -1 -4.47020383e-08 0.000588078395 -0.99999982 0.000122955122 0.00102195887 -0.999999468 0.000137378881 -0.000742290308 -0.999999724 3.27515172e-05 -5.3010425e-08 -1 -4.47020467e-08 -1.05928286e-07 -1 -7.43909533e-08 -1.04954242e-07 -1 -5.21242671e-08 -2.33215137e-08 -1 -4.9896937e-08 -2.33215137e-08 -1 -4.9896937e-08 -5.26857435e-08 -1 -3.72798181e-08 -1.04304879e-07 -1 -3.72798096e-08 -5.26857435e-08 -1 -3.72798181e-08 3.13741668e-09 -1 -3.50524835e-08 -5.2361062e-08 -1 -2.98575896e-08 -1.03980197e-07 -1 -2.98575808e-08 -7.78459478e-08 -1 -2.24353565e-08 -2.26721507e-08 -1 -3.50524791e-08 -7.88199922e-08 -1 -4.47020425e-08 3.46209823e-09 -1 -2.76302546e-08 -7.71965849e-08 -1 -7.59089919e-09 5.73486888e-09 -1 2.43253474e-08 -5.26857435e-08 -1 -3.72798181e-08 -1.06577649e-07 -1 -8.92354107e-08 5.99514539e-08 -1 8.37031665e-08 6.09254986e-08 -1 1.05969853e-07 0.866025264 0.500000242 -3.37267731e-08 0.866025264 0.500000242 -1.8882315e-08 0.866025277 0.500000219 -4.11490064e-08 0.866025305 0.500000171 -2.85318953e-08 0.866025277 0.500000219 -4.85712353e-08 0.866025305 0.500000171 -4.33763538e-08 0.86602529 0.500000196 -4.85712394e-08 0.866025278 0.500000219 -5.59934643e-08 0.866025277 0.500000219 -4.11490064e-08 0.86602529 0.500000197 -4.11490106e-08 0.866025319 0.500000147 -7.30652744e-08 0.866025265 0.500000241 -5.59934603e-08 0.866025305 0.500000171 -3.59541245e-08 0.866025278 0.500000218 -6.34156932e-08 0.866025291 0.500000195 -7.82601548e-08 0.866025333 0.500000123 -1.32443111e-07 0.866025278 0.500000218 -6.34156932e-08 0.866025291 0.500000196 -7.0837926e-08 0.866025277 0.50000022 -1.88823196e-08 0.866025277 0.50000022 -1.88823196e-08 0.573576319 -0.819152127 -1.05973022e-07 0.573576344 -0.819152109 -5.29037503e-08 0.573576343 -0.81915211 -7.88815515e-08 0.573576366 -0.819152093 -5.5501195e-08 0.573576365 -0.819152094 -7.0345653e-08 0.573576365 -0.819152094 -7.40567675e-08 0.573576366 -0.819152094 -6.2923424e-08 0.573576388 -0.819152078 -6.18097543e-08 0.573576366 -0.819152093 -5.92123095e-08 0.573576388 -0.819152078 -6.55208688e-08 0.573576366 -0.819152094 -6.2923424e-08 0.573576366 -0.819152093 -5.5501195e-08 0.573576343 -0.81915211 -7.88815515e-08 0.573576343 -0.81915211 -7.5170437e-08 0.573576345 -0.819152109 -4.91926359e-08 0.573576342 -0.819152111 -9.37260092e-08 0.573576388 -0.819152078 -6.92319834e-08 0.573576368 -0.819152092 -3.3234508e-08 0.573576366 -0.819152093 -5.5501195e-08 0.573576344 -0.819152109 -5.29037503e-08 0.996194667 0.0871560994 -7.81697941e-08 0.996194679 0.0871559618 -1.60557893e-07 0.996194671 0.087156048 -1.13797169e-07 0.996194683 0.0871559136 -1.51651896e-07 0.996194679 0.087155965 -1.16024518e-07 0.996194679 0.0871559653 -1.12313404e-07 0.996194672 0.0871560462 -1.39774972e-07 0.996194671 0.087156047 -1.28641628e-07 0.996194679 0.0871559634 -1.38291206e-07 0.996194679 0.0871559642 -1.27157862e-07 0.996194679 0.0871559645 -1.23446748e-07 0.996194679 0.0871559637 -1.34580091e-07 0.996194679 0.087155965 -1.16024518e-07 0.996194679 0.0871559631 -1.4200232e-07 0.996194679 0.087155961 -1.71691237e-07 0.996194671 0.0871560494 -9.52415963e-08 0.996194679 0.087155965 -1.16024518e-07 0.996194671 0.0871560478 -1.17508284e-07 0.996194679 0.0871559631 -1.4200232e-07 0.996194679 0.0871559597 -1.9024681e-07 0.422618063 0.90630788 -5.08770923e-08 0.42261807 0.906307877 -4.34548647e-08 0.422618076 0.906307873 -5.82993236e-08 0.42261809 0.906307867 -3.60326396e-08 0.422618083 0.90630787 -5.0877096e-08 0.422618097 0.906307864 -3.60326409e-08 0.422618036 0.906307892 -4.34548585e-08 0.422618056 0.906307883 -4.34548622e-08 0.422618016 0.906307902 -5.08770836e-08 0.422618002 0.906307908 -6.57215386e-08 0.42261807 0.906307876 -3.60326359e-08 0.422618063 0.90630788 -4.34548635e-08 0.422618063 0.90630788 -5.08770923e-08 0.422618036 0.906307892 -4.34548585e-08 0.422618043 0.906307889 -4.34548598e-08 0.42261807 0.906307876 -2.86104072e-08 0.422618077 0.906307873 -5.08770947e-08 0.422618063 0.90630788 -4.34548635e-08 0.42261807 0.906307877 -4.34548647e-08 0.42261807 0.906307877 -5.08770935e-08 0.866025305 0.500000171 -3.59541245e-08 0.866025318 0.500000149 -2.85318998e-08 0.865604055 0.500729049 0.000199822598 0.865292347 0.501267545 -5.12245358e-05 0.865076017 0.501640701 0.000301707545 0.864675175 0.502331379 -0.000165353432 0.866524659 0.499134261 6.50771464e-05 0.866818436 0.498623857 0.000219836716 0.866025277 0.500000219 -4.85712353e-08 0.866025264 0.500000241 -4.11490021e-08 0.86602529 0.500000197 -4.11490106e-08 0.865583594 0.50076445 -8.80955364e-05 0.865252917 0.501335583 -0.000150028699 0.86642625 0.499305065 -7.08344727e-05 0.866025251 0.500000264 -4.11489979e-08 0.866025277 0.500000219 -4.11490064e-08 0.866319066 0.499491002 -0.000122992156 0.866535635 0.499115191 -0.000137398966 0.865654105 0.500642556 -3.27770427e-05 0.866025331 0.500000126 -4.33763621e-08 0.422618042 0.906307889 -1.17677148e-07 0.422618103 0.906307861 -1.17677159e-07 0.422618036 0.906307892 -8.05660025e-08 0.422618023 0.906307898 -4.34548561e-08 0.422618056 0.906307883 -1.1767715e-07 0.422618063 0.90630788 -8.05660075e-08 0.422618036 0.906307893 -1.39943833e-07 0.422618043 0.906307889 -1.0283269e-07 0.422618002 0.906307908 -5.82993098e-08 0.422618029 0.906307895 -8.798823e-08 0.422618083 0.90630787 -7.31437824e-08 0.422618063 0.90630788 -7.31437787e-08 0.42261803 0.906307895 -4.34548573e-08 0.42261805 0.906307886 -5.82993186e-08 0.42261807 0.906307877 -9.54104665e-08 0.422618076 0.906307873 -5.82993236e-08 0.42261809 0.906307867 -6.57215549e-08 0.422618049 0.906307886 -7.31437762e-08 0.422618056 0.906307883 -8.05660062e-08 0.42261807 0.906307877 -8.05660088e-08</float_array>
        <technique_common><accessor source="#vfx_kurp_0485-mesh-normals-array" count="360" stride="3"><param name="X" type="float"/><param name="Y" type="float"/><param name="Z" type="float"/></accessor></technique_common>
      </source>
      <source id="vfx_kurp_0485-mesh-uv0">
        <float_array id="vfx_kurp_0485-mesh-uv0-array" count="720">1 1 0.75 1 1 0.666666627 0.75 0.666666627 1 0.333333313 0.75 0.333333313 1 0 0.75 0 0.5 1 0.5 0.666666627 0.5 0.333333313 0.5 0 0.25 1 0.25 0.666666627 0.25 0.333333313 0.25 0 0 1 0 0.666666627 0 0.333333313 0 0 1 1 0.75 1 1 0.666666627 0.75 0.666666627 1 0.333333313 0.75 0.333333313 1 0 0.75 0 0.5 1 0.5 0.666666627 0.5 0.333333313 0.5 0 0.25 1 0.25 0.666666627 0.25 0.333333313 0.25 0 0 1 0 0.666666627 0 0.333333313 0 0 1 1 0.75 1 1 0.666666627 0.75 0.666666627 1 0.333333313 0.75 0.333333313 1 0 0.75 0 0.5 1 0.5 0.666666627 0.5 0.333333313 0.5 0 0.25 1 0.25 0.666666627 0.25 0.333333313 0.25 0 0 1 0 0.666666627 0 0.333333313 0 0 1 1 0.75 1 1 0.666666627 0.75 0.666666627 1 0.333333313 0.75 0.333333313 1 0 0.75 0 0.5 1 0.5 0.666666627 0.5 0.333333313 0.5 0 0.25 1 0.25 0.666666627 0.25 0.333333313 0.25 0 0 1 0 0.666666627 0 0.333333313 0 0 1 1 0.75 1 1 0.666666627 0.75 0.666666627 1 0.333333313 0.75 0.333333313 1 0 0.75 0 0.5 1 0.5 0.666666627 0.5 0.333333313 0.5 0 0.25 1 0.25 0.666666627 0.25 0.333333313 0.25 0 0 1 0 0.666666627 0 0.333333313 0 0 1 1 0.75 1 1 0.666666627 0.75 0.666666627 1 0.333333313 0.75 0.333333313 1 0 0.75 0 0.5 1 0.5 0.666666627 0.5 0.333333313 0.5 0 0.25 1 0.25 0.666666627 0.25 0.333333313 0.25 0 0 1 0 0.666666627 0 0.333333313 0 0 1 1 1 0.666666627 0.75 1 0.75 0.666666627 0.5 1 0.5 0.666666627 0.25 1 0.25 0.666666627 0 1 0 0.666666627 1 0.333333313 0.75 0.333333313 0.5 0.333333313 0.25 0.333333313 0 0.333333313 0 0 0.25 0 0.5 0 0.75 0 1 0 1 1 1 0.666666627 0.75 1 0.75 0.666666627 0.5 1 0.5 0.666666627 0.25 1 0.25 0.666666627 0 1 0 0.666666627 1 0.333333313 0.75 0.333333313 0.5 0.333333313 0.25 0.333333313 0 0.333333313 0 0 0.25 0 0.5 0 0.75 0 1 0 1 1 1 0.666666627 0.75 1 0.75 0.666666627 0.5 1 0.5 0.666666627 0.25 1 0.25 0.666666627 0 1 0 0.666666627 1 0.333333313 0.75 0.333333313 0.5 0.333333313 0.25 0.333333313 0 0.333333313 0 0 0.25 0 0.5 0 0.75 0 1 0 1 1 1 0.666666627 0.75 1 0.75 0.666666627 0.5 1 0.5 0.666666627 0.25 1 0.25 0.666666627 0 1 0 0.666666627 1 0.333333313 0.75 0.333333313 0.5 0.333333313 0.25 0.333333313 0 0.333333313 0 0 0.25 0 0.5 0 0.75 0 1 0 1 1 1 0.666666627 0.75 1 0.75 0.666666627 0.5 1 0.5 0.666666627 0.25 1 0.25 0.666666627 0 1 0 0.666666627 1 0.333333313 0.75 0.333333313 0.5 0.333333313 0.25 0.333333313 0 0.333333313 0 0 0.25 0 0.5 0 0.75 0 1 0 0 0 0 0.333333313 0.25 0 0.25 0.333333313 0.5 0 0.5 0.333333313 0.75 0 0.75 0.333333313 1 0 1 0.333333313 1 0.666666627 0.75 0.666666627 0.5 0.666666627 0.25 0.666666627 0 0.666666627 1 1 0.75 1 0.5 1 0.25 1 0 1 0 0 0 0.333333313 0.25 0 0.25 0.333333313 0.5 0 0.5 0.333333313 0.75 0 0.75 0.333333313 1 0 1 0.333333313 1 0.666666627 0.75 0.666666627 0.5 0.666666627 0.25 0.666666627 0 0.666666627 1 1 0.75 1 0.5 1 0.25 1 0 1 0 0 0 0.333333313 0.25 0 0.25 0.333333313 0.5 0 0.5 0.333333313 0.75 0 0.75 0.333333313 1 0 1 0.333333313 1 0.666666627 0.75 0.666666627 0.5 0.666666627 0.25 0.666666627 0 0.666666627 1 1 0.75 1 0.5 1 0.25 1 0 1 0 0 0 0.333333313 0.25 0 0.25 0.333333313 0.5 0 0.5 0.333333313 0.75 0 0.75 0.333333313 1 0 1 0.333333313 1 0.666666627 0.75 0.666666627 0.5 0.666666627 0.25 0.666666627 0 0.666666627 1 1 0.75 1 0.5 1 0.25 1 0 1 1 1 1 0.666666627 0.75 1 0.75 0.666666627 0.5 1 0.5 0.666666627 0.25 1 0.25 0.666666627 0 1 0 0.666666627 1 0.333333313 0.75 0.333333313 0.5 0.333333313 0.25 0.333333313 0 0.333333313 0 0 0.25 0 0.5 0 0.75 0 1 0 1 1 1 0.666666627 0.75 1 0.75 0.666666627 0.5 1 0.5 0.666666627 0.25 1 0.25 0.666666627 0 1 0 0.666666627 1 0.333333313 0.75 0.333333313 0.5 0.333333313 0.25 0.333333313 0 0.333333313 0 0 0.25 0 0.5 0 0.75 0 1 0 1 1 1 0.666666627 0.75 1 0.75 0.666666627 0.5 1 0.5 0.666666627 0.25 1 0.25 0.666666627 0 1 0 0.666666627 1 0.333333313 0.75 0.333333313 0.5 0.333333313 0.25 0.333333313 0 0.333333313 0 0 0.25 0 0.5 0 0.75 0 1 0</float_array>
        <technique_common><accessor source="#vfx_kurp_0485-mesh-uv0-array" count="360" stride="2"><param name="S" type="float"/><param name="T" type="float"/></accessor></technique_common>
      </source>
      <vertices id="vfx_kurp_0485-mesh-vertices"><input semantic="POSITION" source="#vfx_kurp_0485-mesh-positions"/></vertices>
      <triangles material="PreviewMaterial" count="432">
        <input semantic="VERTEX" source="#vfx_kurp_0485-mesh-vertices" offset="0"/>
        <input semantic="NORMAL" source="#vfx_kurp_0485-mesh-normals" offset="1"/>
        <input semantic="TEXCOORD" source="#vfx_kurp_0485-mesh-uv0" offset="2" set="0"/>
        <p>0 0 0 1 1 1 2 2 2 3 3 3 2 2 2 1 1 1 2 2 2 3 3 3 4 4 4 5 5 5 4 4 4 3 3 3 4 4 4 5 5 5 6 6 6 7 7 7 6 6 6 5 5 5 1 1 1 8 8 8 3 3 3 9 9 9 3 3 3 8 8 8 3 3 3 9 9 9 5 5 5 10 10 10 5 5 5 9 9 9 5 5 5 10 10 10 7 7 7 11 11 11 7 7 7 10 10 10 8 8 8 12 12 12 9 9 9 13 13 13 9 9 9 12 12 12 9 9 9 13 13 13 10 10 10 14 14 14 10 10 10 13 13 13 10 10 10 14 14 14 11 11 11 15 15 15 11 11 11 14 14 14 12 12 12 16 16 16 13 13 13 17 17 17 13 13 13 16 16 16 13 13 13 17 17 17 14 14 14 18 18 18 14 14 14 17 17 17 14 14 14 18 18 18 15 15 15 19 19 19 15 15 15 18 18 18 20 20 20 21 21 21 22 22 22 23 23 23 22 22 22 21 21 21 22 22 22 23 23 23 24 24 24 25 25 25 24 24 24 23 23 23 24 24 24 25 25 25 26 26 26 27 27 27 26 26 26 25 25 25 21 21 21 28 28 28 23 23 23 29 29 29 23 23 23 28 28 28 23 23 23 29 29 29 25 25 25 30 30 30 25 25 25 29 29 29 25 25 25 30 30 30 27 27 27 31 31 31 27 27 27 30 30 30 28 28 28 32 32 32 29 29 29 33 33 33 29 29 29 32 32 32 29 29 29 33 33 33 30 30 30 34 34 34 30 30 30 33 33 33 30 30 30 34 34 34 31 31 31 35 35 35 31 31 31 34 34 34 32 32 32 36 36 36 33 33 33 37 37 37 33 33 33 36 36 36 33 33 33 37 37 37 34 34 34 38 38 38 34 34 34 37 37 37 34 34 34 38 38 38 35 35 35 39 39 39 35 35 35 38 38 38 40 40 40 41 41 41 42 42 42 43 43 43 42 42 42 41 41 41 42 42 42 43 43 43 44 44 44 45 45 45 44 44 44 43 43 43 44 44 44 45 45 45 46 46 46 47 47 47 46 46 46 45 45 45 41 41 41 48 48 48 43 43 43 49 49 49 43 43 43 48 48 48 43 43 43 49 49 49 45 45 45 50 50 50 45 45 45 49 49 49 45 45 45 50 50 50 47 47 47 51 51 51 47 47 47 50 50 50 48 48 48 52 52 52 49 49 49 53 53 53 49 49 49 52 52 52 49 49 49 53 53 53 50 50 50 54 54 54 50 50 50 53 53 53 50 50 50 54 54 54 51 51 51 55 55 55 51 51 51 54 54 54 52 52 52 56 56 56 53 53 53 57 57 57 53 53 53 56 56 56 53 53 53 57 57 57 54 54 54 58 58 58 54 54 54 57 57 57 54 54 54 58 58 58 55 55 55 59 59 59 55 55 55 58 58 58 60 60 60 61 61 61 62 62 62 63 63 63 62 62 62 61 61 61 62 62 62 63 63 63 64 64 64 65 65 65 64 64 64 63 63 63 64 64 64 65 65 65 66 66 66 67 67 67 66 66 66 65 65 65 61 61 61 68 68 68 63 63 63 69 69 69 63 63 63 68 68 68 63 63 63 69 69 69 65 65 65 70 70 70 65 65 65 69 69 69 65 65 65 70 70 70 67 67 67 71 71 71 67 67 67 70 70 70 68 68 68 72 72 72 69 69 69 73 73 73 69 69 69 72 72 72 69 69 69 73 73 73 70 70 70 74 74 74 70 70 70 73 73 73 70 70 70 74 74 74 71 71 71 75 75 75 71 71 71 74 74 74 72 72 72 76 76 76 73 73 73 77 77 77 73 73 73 76 76 76 73 73 73 77 77 77 74 74 74 78 78 78 74 74 74 77 77 77 74 74 74 78 78 78 75 75 75 79 79 79 75 75 75 78 78 78 80 80 80 81 81 81 82 82 82 83 83 83 82 82 82 81 81 81 82 82 82 83 83 83 84 84 84 85 85 85 84 84 84 83 83 83 84 84 84 85 85 85 86 86 86 87 87 87 86 86 86 85 85 85 81 81 81 88 88 88 83 83 83 89 89 89 83 83 83 88 88 88 83 83 83 89 89 89 85 85 85 90 90 90 85 85 85 89 89 89 85 85 85 90 90 90 87 87 87 91 91 91 87 87 87 90 90 90 88 88 88 92 92 92 89 89 89 93 93 93 89 89 89 92 92 92 89 89 89 93 93 93 90 90 90 94 94 94 90 90 90 93 93 93 90 90 90 94 94 94 91 91 91 95 95 95 91 91 91 94 94 94 92 92 92 96 96 96 93 93 93 97 97 97 93 93 93 96 96 96 93 93 93 97 97 97 94 94 94 98 98 98 94 94 94 97 97 97 94 94 94 98 98 98 95 95 95 99 99 99 95 95 95 98 98 98 100 100 100 101 101 101 102 102 102 103 103 103 102 102 102 101 101 101 102 102 102 103 103 103 104 104 104 105 105 105 104 104 104 103 103 103 104 104 104 105 105 105 106 106 106 107 107 107 106 106 106 105 105 105 101 101 101 108 108 108 103 103 103 109 109 109 103 103 103 108 108 108 103 103 103 109 109 109 105 105 105 110 110 110 105 105 105 109 109 109 105 105 105 110 110 110 107 107 107 111 111 111 107 107 107 110 110 110 108 108 108 112 112 112 109 109 109 113 113 113 109 109 109 112 112 112 109 109 109 113 113 113 110 110 110 114 114 114 110 110 110 113 113 113 110 110 110 114 114 114 111 111 111 115 115 115 111 111 111 114 114 114 112 112 112 116 116 116 113 113 113 117 117 117 113 113 113 116 116 116 113 113 113 117 117 117 114 114 114 118 118 118 114 114 114 117 117 117 114 114 114 118 118 118 115 115 115 119 119 119 115 115 115 118 118 118 120 120 120 121 121 121 122 122 122 123 123 123 122 122 122 121 121 121 122 122 122 123 123 123 124 124 124 125 125 125 124 124 124 123 123 123 124 124 124 125 125 125 126 126 126 127 127 127 126 126 126 125 125 125 126 126 126 127 127 127 128 128 128 129 129 129 128 128 128 127 127 127 121 121 121 130 130 130 123 123 123 131 131 131 123 123 123 130 130 130 123 123 123 131 131 131 125 125 125 132 132 132 125 125 125 131 131 131 125 125 125 132 132 132 127 127 127 133 133 133 127 127 127 132 132 132 127 127 127 133 133 133 129 129 129 134 134 134 129 129 129 133 133 133 135 135 135 134 134 134 136 136 136 133 133 133 136 136 136 134 134 134 136 136 136 133 133 133 137 137 137 132 132 132 137 137 137 133 133 133 137 137 137 132 132 132 138 138 138 131 131 131 138 138 138 132 132 132 138 138 138 131 131 131 139 139 139 130 130 130 139 139 139 131 131 131 140 140 140 141 141 141 142 142 142 143 143 143 142 142 142 141 141 141 142 142 142 143 143 143 144 144 144 145 145 145 144 144 144 143 143 143 144 144 144 145 145 145 146 146 146 147 147 147 146 146 146 145 145 145 146 146 146 147 147 147 148 148 148 149 149 149 148 148 148 147 147 147 141 141 141 150 150 150 143 143 143 151 151 151 143 143 143 150 150 150 143 143 143 151 151 151 145 145 145 152 152 152 145 145 145 151 151 151 145 145 145 152 152 152 147 147 147 153 153 153 147 147 147 152 152 152 147 147 147 153 153 153 149 149 149 154 154 154 149 149 149 153 153 153 155 155 155 154 154 154 156 156 156 153 153 153 156 156 156 154 154 154 156 156 156 153 153 153 157 157 157 152 152 152 157 157 157 153 153 153 157 157 157 152 152 152 158 158 158 151 151 151 158 158 158 152 152 152 158 158 158 151 151 151 159 159 159 150 150 150 159 159 159 151 151 151 160 160 160 161 161 161 162 162 162 163 163 163 162 162 162 161 161 161 162 162 162 163 163 163 164 164 164 165 165 165 164 164 164 163 163 163 164 164 164 165 165 165 166 166 166 167 167 167 166 166 166 165 165 165 166 166 166 167 167 167 168 168 168 169 169 169 168 168 168 167 167 167 161 161 161 170 170 170 163 163 163 171 171 171 163 163 163 170 170 170 163 163 163 171 171 171 165 165 165 172 172 172 165 165 165 171 171 171 165 165 165 172 172 172 167 167 167 173 173 173 167 167 167 172 172 172 167 167 167 173 173 173 169 169 169 174 174 174 169 169 169 173 173 173 175 175 175 174 174 174 176 176 176 173 173 173 176 176 176 174 174 174 176 176 176 173 173 173 177 177 177 172 172 172 177 177 177 173 173 173 177 177 177 172 172 172 178 178 178 171 171 171 178 178 178 172 172 172 178 178 178 171 171 171 179 179 179 170 170 170 179 179 179 171 171 171 180 180 180 181 181 181 182 182 182 183 183 183 182 182 182 181 181 181 182 182 182 183 183 183 184 184 184 185 185 185 184 184 184 183 183 183 184 184 184 185 185 185 186 186 186 187 187 187 186 186 186 185 185 185 186 186 186 187 187 187 188 188 188 189 189 189 188 188 188 187 187 187 181 181 181 190 190 190 183 183 183 191 191 191 183 183 183 190 190 190 183 183 183 191 191 191 185 185 185 192 192 192 185 185 185 191 191 191 185 185 185 192 192 192 187 187 187 193 193 193 187 187 187 192 192 192 187 187 187 193 193 193 189 189 189 194 194 194 189 189 189 193 193 193 195 195 195 194 194 194 196 196 196 193 193 193 196 196 196 194 194 194 196 196 196 193 193 193 197 197 197 192 192 192 197 197 197 193 193 193 197 197 197 192 192 192 198 198 198 191 191 191 198 198 198 192 192 192 198 198 198 191 191 191 199 199 199 190 190 190 199 199 199 191 191 191 200 200 200 201 201 201 202 202 202 203 203 203 202 202 202 201 201 201 202 202 202 203 203 203 204 204 204 205 205 205 204 204 204 203 203 203 204 204 204 205 205 205 206 206 206 207 207 207 206 206 206 205 205 205 206 206 206 207 207 207 208 208 208 209 209 209 208 208 208 207 207 207 201 201 201 210 210 210 203 203 203 211 211 211 203 203 203 210 210 210 203 203 203 211 211 211 205 205 205 212 212 212 205 205 205 211 211 211 205 205 205 212 212 212 207 207 207 213 213 213 207 207 207 212 212 212 207 207 207 213 213 213 209 209 209 214 214 214 209 209 209 213 213 213 215 215 215 214 214 214 216 216 216 213 213 213 216 216 216 214 214 214 216 216 216 213 213 213 217 217 217 212 212 212 217 217 217 213 213 213 217 217 217 212 212 212 218 218 218 211 211 211 218 218 218 212 212 212 218 218 218 211 211 211 219 219 219 210 210 210 219 219 219 211 211 211 220 220 220 221 221 221 222 222 222 223 223 223 222 222 222 221 221 221 222 222 222 223 223 223 224 224 224 225 225 225 224 224 224 223 223 223 224 224 224 225 225 225 226 226 226 227 227 227 226 226 226 225 225 225 226 226 226 227 227 227 228 228 228 229 229 229 228 228 228 227 227 227 230 230 230 229 229 229 231 231 231 227 227 227 231 231 231 229 229 229 231 231 231 227 227 227 232 232 232 225 225 225 232 232 232 227 227 227 232 232 232 225 225 225 233 233 233 223 223 223 233 233 233 225 225 225 233 233 233 223 223 223 234 234 234 221 221 221 234 234 234 223 223 223 235 235 235 230 230 230 236 236 236 231 231 231 236 236 236 230 230 230 236 236 236 231 231 231 237 237 237 232 232 232 237 237 237 231 231 231 237 237 237 232 232 232 238 238 238 233 233 233 238 238 238 232 232 232 238 238 238 233 233 233 239 239 239 234 234 234 239 239 239 233 233 233 240 240 240 241 241 241 242 242 242 243 243 243 242 242 242 241 241 241 242 242 242 243 243 243 244 244 244 245 245 245 244 244 244 243 243 243 244 244 244 245 245 245 246 246 246 247 247 247 246 246 246 245 245 245 246 246 246 247 247 247 248 248 248 249 249 249 248 248 248 247 247 247 250 250 250 249 249 249 251 251 251 247 247 247 251 251 251 249 249 249 251 251 251 247 247 247 252 252 252 245 245 245 252 252 252 247 247 247 252 252 252 245 245 245 253 253 253 243 243 243 253 253 253 245 245 245 253 253 253 243 243 243 254 254 254 241 241 241 254 254 254 243 243 243 255 255 255 250 250 250 256 256 256 251 251 251 256 256 256 250 250 250 256 256 256 251 251 251 257 257 257 252 252 252 257 257 257 251 251 251 257 257 257 252 252 252 258 258 258 253 253 253 258 258 258 252 252 252 258 258 258 253 253 253 259 259 259 254 254 254 259 259 259 253 253 253 260 260 260 261 261 261 262 262 262 263 263 263 262 262 262 261 261 261 262 262 262 263 263 263 264 264 264 265 265 265 264 264 264 263 263 263 264 264 264 265 265 265 266 266 266 267 267 267 266 266 266 265 265 265 266 266 266 267 267 267 268 268 268 269 269 269 268 268 268 267 267 267 270 270 270 269 269 269 271 271 271 267 267 267 271 271 271 269 269 269 271 271 271 267 267 267 272 272 272 265 265 265 272 272 272 267 267 267 272 272 272 265 265 265 273 273 273 263 263 263 273 273 273 265 265 265 273 273 273 263 263 263 274 274 274 261 261 261 274 274 274 263 263 263 275 275 275 270 270 270 276 276 276 271 271 271 276 276 276 270 270 270 276 276 276 271 271 271 277 277 277 272 272 272 277 277 277 271 271 271 277 277 277 272 272 272 278 278 278 273 273 273 278 278 278 272 272 272 278 278 278 273 273 273 279 279 279 274 274 274 279 279 279 273 273 273 280 280 280 281 281 281 282 282 282 283 283 283 282 282 282 281 281 281 282 282 282 283 283 283 284 284 284 285 285 285 284 284 284 283 283 283 284 284 284 285 285 285 286 286 286 287 287 287 286 286 286 285 285 285 286 286 286 287 287 287 288 288 288 289 289 289 288 288 288 287 287 287 290 290 290 289 289 289 291 291 291 287 287 287 291 291 291 289 289 289 291 291 291 287 287 287 292 292 292 285 285 285 292 292 292 287 287 287 292 292 292 285 285 285 293 293 293 283 283 283 293 293 293 285 285 285 293 293 293 283 283 283 294 294 294 281 281 281 294 294 294 283 283 283 295 295 295 290 290 290 296 296 296 291 291 291 296 296 296 290 290 290 296 296 296 291 291 291 297 297 297 292 292 292 297 297 297 291 291 291 297 297 297 292 292 292 298 298 298 293 293 293 298 298 298 292 292 292 298 298 298 293 293 293 299 299 299 294 294 294 299 299 299 293 293 293 300 300 300 301 301 301 302 302 302 303 303 303 302 302 302 301 301 301 302 302 302 303 303 303 304 304 304 305 305 305 304 304 304 303 303 303 304 304 304 305 305 305 306 306 306 307 307 307 306 306 306 305 305 305 306 306 306 307 307 307 308 308 308 309 309 309 308 308 308 307 307 307 301 301 301 310 310 310 303 303 303 311 311 311 303 303 303 310 310 310 303 303 303 311 311 311 305 305 305 312 312 312 305 305 305 311 311 311 305 305 305 312 312 312 307 307 307 313 313 313 307 307 307 312 312 312 307 307 307 313 313 313 309 309 309 314 314 314 309 309 309 313 313 313 315 315 315 314 314 314 316 316 316 313 313 313 316 316 316 314 314 314 316 316 316 313 313 313 317 317 317 312 312 312 317 317 317 313 313 313 317 317 317 312 312 312 318 318 318 311 311 311 318 318 318 312 312 312 318 318 318 311 311 311 319 319 319 310 310 310 319 319 319 311 311 311 320 320 320 321 321 321 322 322 322 323 323 323 322 322 322 321 321 321 322 322 322 323 323 323 324 324 324 325 325 325 324 324 324 323 323 323 324 324 324 325 325 325 326 326 326 327 327 327 326 326 326 325 325 325 326 326 326 327 327 327 328 328 328 329 329 329 328 328 328 327 327 327 321 321 321 330 330 330 323 323 323 331 331 331 323 323 323 330 330 330 323 323 323 331 331 331 325 325 325 332 332 332 325 325 325 331 331 331 325 325 325 332 332 332 327 327 327 333 333 333 327 327 327 332 332 332 327 327 327 333 333 333 329 329 329 334 334 334 329 329 329 333 333 333 335 335 335 334 334 334 336 336 336 333 333 333 336 336 336 334 334 334 336 336 336 333 333 333 337 337 337 332 332 332 337 337 337 333 333 333 337 337 337 332 332 332 338 338 338 331 331 331 338 338 338 332 332 332 338 338 338 331 331 331 339 339 339 330 330 330 339 339 339 331 331 331 340 340 340 341 341 341 342 342 342 343 343 343 342 342 342 341 341 341 342 342 342 343 343 343 344 344 344 345 345 345 344 344 344 343 343 343 344 344 344 345 345 345 346 346 346 347 347 347 346 346 346 345 345 345 346 346 346 347 347 347 348 348 348 349 349 349 348 348 348 347 347 347 341 341 341 350 350 350 343 343 343 351 351 351 343 343 343 350 350 350 343 343 343 351 351 351 345 345 345 352 352 352 345 345 345 351 351 351 345 345 345 352 352 352 347 347 347 353 353 353 347 347 347 352 352 352 347 347 347 353 353 353 349 349 349 354 354 354 349 349 349 353 353 353 355 355 355 354 354 354 356 356 356 353 353 353 356 356 356 354 354 354 356 356 356 353 353 353 357 357 357 352 352 352 357 357 357 353 353 353 357 357 357 352 352 352 358 358 358 351 351 351 358 358 358 352 352 352 358 358 358 351 351 351 359 359 359 350 350 350 359 359 359 351 351 351</p>
      </triangles>
    </mesh></geometry>
  </library_geometries>
  <library_visual_scenes>
    <visual_scene id="Scene" name="Scene">
      <node id="vfx_kurp_0485" name="vfx_kurp_0485" type="NODE">
        <instance_geometry url="#vfx_kurp_0485-mesh"><bind_material><technique_common><instance_material symbol="PreviewMaterial" target="#PreviewMaterial"><bind_vertex_input semantic="UVSET0" input_semantic="TEXCOORD" input_set="0"/></instance_material></technique_common></bind_material></instance_geometry>
      </node>
    </visual_scene>
  </library_visual_scenes>
  <scene><instance_visual_scene url="#Scene"/></scene>
</COLLADA>
