<?xml version="1.0" encoding="utf-8"?>
<COLLADA xmlns="http://www.collada.org/2005/11/COLLADASchema" version="1.4.1">
  <asset>
    <contributor><authoring_tool>Morrobroom Kurpulio VFX preview converter</authoring_tool></contributor>
    <unit name="unit" meter="1"/>
    <up_axis>Z_UP</up_axis>
  </asset>
  <library_images>
    <image id="VFXTexture" name="darkmap_newgen-1.dds">
      <init_from>../../../Textures/Kurp/darkmap_newgen-1.dds</init_from>
    </image>
  </library_images>
  <library_effects>
    <effect id="PreviewEffect">
      <profile_COMMON>
        <newparam sid="VFXTexture-surface">
          <surface type="2D"><init_from>VFXTexture</init_from></surface>
        </newparam>
        <newparam sid="VFXTexture-sampler">
          <sampler2D><source>VFXTexture-surface</source></sampler2D>
        </newparam>
        <technique sid="common"><phong>
          <emission><color>0.08 0.08 0.08 1</color></emission>
          <ambient><color>0.2 0.2 0.2 1</color></ambient>
          <diffuse><texture texture="VFXTexture-sampler" texcoord="UVSET0"/></diffuse>
          <specular><color>0.15 0.15 0.15 1</color></specular>
          <shininess><float>8</float></shininess>
          <transparent opaque="A_ONE"><texture texture="VFXTexture-sampler" texcoord="UVSET0"/></transparent>
          <transparency><float>1</float></transparency>
        </phong></technique>
      </profile_COMMON>
      <extra><technique profile="GOOGLEEARTH"><double_sided>1</double_sided></technique></extra>
    </effect>
  </library_effects>
  <library_materials><material id="PreviewMaterial" name="PreviewMaterial"><instance_effect url="#PreviewEffect"/></material></library_materials>
  <library_geometries>
    <geometry id="vfx_kurp_0999-mesh" name="vfx_kurp_0999"><mesh>
      <source id="vfx_kurp_0999-mesh-positions">
        <float_array id="vfx_kurp_0999-mesh-positions-array" count="660">-3.1239425 -2.9510242 0.374782507 -1.64714873 -2.66976622 0.198609401 -2.94571828 -2.14127764 -0.440708246 -1.63277569 -1.88462768 -0.659195517 -0.77947693 -2.73295224 0.676754888 -0.213131809 -2.01066618 -0.0374120477 -4.33722974 -0.0866824739 -1.43681555 -3.58186155 -1.65531538 -1.32223821 -4.88264908 -0.231027589 -2.45375225 -3.96365143 -2.16760563 -2.29397535 -2.94571828 -2.14127764 -0.440708246 -2.70376491 -2.94215853 -1.24849948 -1.63277569 -1.88462768 -0.659195517 -2.70376491 -2.94215853 -1.24849948 -2.94571828 -2.14127764 -0.440708246 -1.23119605 -2.661535 -1.42576382 -0.213131809 -2.01066618 -0.0374120477 -1.23119605 -2.661535 -1.42576382 -1.63277569 -1.88462768 -0.659195517 -0.349292338 -2.72634166 -0.943914739 -3.58186155 -1.65531538 -1.32223821 -4.40033706 -2.16883334 -0.675032475 -4.33722974 -0.0866824739 -1.43681555 -4.40033706 -2.16883334 -0.675032475 -3.58186155 -1.65531538 -1.32223821 -5.32366513 -0.222516938 -0.836005657 -4.40537662 1.28077218 -1.02140438 -5.37137773 1.51596284 -0.418076048 -3.72460223 2.33848122 -1.3083213 -4.46747163 2.94437037 -0.649897921 -2.94262286 2.61971728 -1.00298518 -4.46747163 2.94437037 -0.649897921 -3.72460223 2.33848122 -1.3083213 -2.99730061 3.42691884 -0.167572808 -1.73607723 2.59025798 -0.0325981862 -2.08130045 3.39997869 0.727435847 -0.349471335 2.72127549 -0.437279185 -2.08130045 3.39997869 0.727435847 -1.73607723 2.59025798 -0.0325981862 -0.551155737 3.54366426 0.359890008 0.533140461 2.30177431 -0.298133204 -0.551155737 3.54366426 0.359890008 -0.349471335 2.72127549 -0.437279185 1.03918688 2.65912843 0.68608923 0.441711228 1.04947467 0.62025612 1.03918688 2.65912843 0.68608923 0.533140461 2.30177431 -0.298133204 0.990347152 0.821097463 1.61991639 -4.93088816 1.49788611 -2.03588755 -4.40537662 1.28077218 -1.02140438 -4.03273588 2.91673556 -2.26913037 -4.40537662 1.28077218 -1.02140438 -4.93088816 1.49788611 -2.03588755 -3.72460223 2.33848122 -1.3083213 -2.58030894 3.39409329 -1.79136849 -2.94262286 2.61971728 -1.00298518 -1.65681721 3.3670886 -0.894416654 -1.73607723 2.59025798 -0.0325981862 -0.130373473 3.5104472 -1.26291994 -1.73607723 2.59025798 -0.0325981862 -1.65681721 3.3670886 -0.894416654 -0.349471335 2.72127549 -0.437279185 1.44172162 2.63790185 -0.941543509 0.533140461 2.30177431 -0.298133204 1.39178387 0.814972836 -0.00811409242 0.441711228 1.04947467 0.62025612 0.295781879 -0.582909561 -0.792669524 0.441711228 1.04947467 0.62025612 1.39178387 0.814972836 -0.00811409242 -0.112360944 0.192240798 -0.0277907225 -0.112360944 0.192240798 -0.0277907225 -0.11999727 -0.591093538 0.831748292 -0.148829084 -2.85588049 -0.711887648 0.0665786142 -2.21476794 -1.89513162 -1.74430726 -2.24943322 -0.412848681 -1.51441876 -1.67346798 -1.43666121 -0.325445783 -2.09803501 -2.76004422 -1.51441876 -1.67346798 -1.43666121 0.0665786142 -2.21476794 -1.89513162 -1.93988284 -1.47911983 -2.87532886 -1.84073476 -0.648138602 1.8215277 -2.04912644 -2.05826353 0.651320996 -3.30447756 -1.14874145 2.60230046 -3.48658674 -2.86902185 1.17964935 -1.74430726 -2.24943322 -0.412848681 -3.19633302 -3.18156587 -0.572540755 -1.51441876 -1.67346798 -1.43666121 -3.19633302 -3.18156587 -0.572540755 -1.74430726 -2.24943322 -0.412848681 -2.98024967 -2.54349431 -1.74834278 -1.93988284 -1.47911983 -2.87532886 -3.37383507 -2.42313845 -2.6400369 -2.04912644 -2.05826353 0.651320996 -0.148829084 -2.85588049 -0.711887648 -1.74430726 -2.24943322 -0.412848681 -0.438369334 -2.53739392 1.07399012 -1.84073476 -0.648138602 1.8215277 -0.438369334 -2.53739392 1.07399012 -2.04912644 -2.05826353 0.651320996 -0.257547409 -0.801926853 2.50900093 -1.31522903 0.649683923 2.09371371 -0.257547409 -0.801926853 2.50900093 -1.84073476 -0.648138602 1.8215277 0.227418575 0.862126291 2.85388454 -1.70899577 1.79049555 1.84622512 -0.221563851 2.41981559 2.47412306 -2.49824317 2.22343198 1.15065098 -1.08194489 3.22171043 1.13356744 -2.60731653 2.52527312 -0.216809902 -1.1701987 3.45294998 0.0604276269 -1.99056323 3.06206255 -1.2517304 -0.565195483 4.03815888 -1.11639638 -1.96082228 2.96873007 -2.41412551 -0.537859646 3.67018899 -3.11118139 -2.91381789 1.42280719 -2.83723433 -0.537859646 3.67018899 -3.11118139 -1.96082228 2.96873007 -2.41412551 -1.43228692 1.56492329 -3.72471504 -2.81761989 0.498217537 2.94379103 -1.31522903 0.649683923 2.09371371 -3.26402507 2.03644828 2.57020346 -1.31522903 0.649683923 2.09371371 -2.81761989 0.498217537 2.94379103 -1.70899577 1.79049555 1.84622512 -4.12108515 2.82112121 1.25975374 -1.70899577 1.79049555 1.84622512 -3.26402507 2.03644828 2.57020346 -2.49824317 2.22343198 1.15065098 -4.2103112 3.05565626 0.17287582 -2.60731653 2.52527312 -0.216809902 -3.60475937 3.63860512 -0.99732471 -1.99056323 3.06206255 -1.2517304 -3.577312 3.28345482 -2.95325694 -1.99056323 3.06206255 -1.2517304 -3.60475937 3.63860512 -0.99732471 -1.96082228 2.96873007 -2.41412551 -4.47447263 1.20429713 -3.55790245 -1.96082228 2.96873007 -2.41412551 -3.577312 3.28345482 -2.95325694 -2.91381789 1.42280719 -2.83723433 -3.6430393 -0.199544118 -2.74544802 -2.17656131 0.667194507 -2.4277071 -2.91381789 1.42280719 -2.83723433 -2.17656131 0.667194507 -2.4277071 -1.43228692 1.56492329 -3.72471504 -0.596242449 0.129344349 -2.89253287 -3.80751839 0.11678571 0.92688822 -3.03984599 -0.984319223 0.924021361 -3.76714561 0.478186292 -0.118683318 -3.04708452 -0.499426654 -0.0711667492 -3.13579568 -1.58496072 0.455432612 -3.04708452 -0.499426654 -0.0711667492 -3.03984599 -0.984319223 0.924021361 -3.0789063 -1.55786551 -0.649837158 -2.44019303 2.30059893 -0.224991084 -3.72663526 1.47341695 -0.409033621 -3.17077809 2.95838378 -0.715637705 -4.66436932 1.90040314 -0.791723534 -3.76714561 0.478186292 -0.118683318 -4.77457474 0.337908165 -0.53597284 -3.04708452 -0.499426654 -0.0711667492 -4.00912523 -0.757432185 -0.536488109 -3.0789063 -1.55786551 -0.649837158 -4.1020815 -1.37944244 -1.01021528 -3.72663526 1.47341695 -0.409033621 -3.80751839 0.11678571 0.92688822 -3.76714561 0.478186292 -0.118683318 -3.69390013 1.70705596 0.672831334 -2.44019303 2.30059893 -0.224991084 -3.69390013 1.70705596 0.672831334 -3.72663526 1.47341695 -0.409033621 -2.19016658 2.77633709 0.743631946 -1.15055432 2.60046893 -0.497036506 -0.651578118 3.16629506 0.314718707 -0.662001419 2.45775884 -1.26712988 0.12450076 2.95208428 -0.661979538 -0.754678033 2.06689005 -2.01262172 0.12450076 2.95208428 -0.661979538 -0.754678033 2.06689005 -2.01262172 0.318279015 1.91628828 -1.7760544 -0.428768591 0.90007363 -2.25796596 0.318279015 1.91628828 -1.7760544 -0.754678033 2.06689005 -2.01262172 0.568453939 1.13601535 -1.8340677 -0.210983107 -0.0345372048 -2.78337074 0.822076342 0.0906738221 -2.39997197 -0.160307612 -0.903505417 -2.54711044 0.822076342 0.0906738221 -2.39997197 -0.210983107 -0.0345372048 -2.78337074 0.7010731 -1.47549305 -2.14752304 -0.832792118 -1.3501556 -1.69725964 0.7010731 -1.47549305 -2.14752304 -0.160307612 -0.903505417 -2.54711044 -0.350098563 -2.12400013 -1.06844292 -1.64381015 3.34413769 -1.13722873 -1.15055432 2.60046893 -0.497036506 -0.881152218 3.13326374 -2.10428314 -1.15055432 2.60046893 -0.497036506 -1.64381015 3.34413769 -1.13722873 -0.662001419 2.45775884 -1.26712988 -0.79656302 2.43965566 -3.04399973 -0.662001419 2.45775884 -1.26712988 -0.881152218 3.13326374 -2.10428314 -0.754678033 2.06689005 -2.01262172 -0.447034524 1.32925549 -3.26791108 -0.428768591 0.90007363 -2.25796596 -0.195084593 0.289082667 -3.8319247 -0.210983107 -0.0345372048 -2.78337074 -0.308074762 -1.24454139 -3.58023203 -0.160307612 -0.903505417 -2.54711044 -1.34157093 -1.88362693 -2.51185075 -0.160307612 -0.903505417 -2.54711044 -0.308074762 -1.24454139 -3.58023203 -0.832792118 -1.3501556 -1.69725964 -2.58001861 -1.27506255 -2.03396317 -0.832792118 -1.3501556 -1.69725964 -1.34157093 -1.88362693 -2.51185075 -1.62034215 -1.01243262 -1.56635809 -1.62034215 -1.01243262 -1.56635809 -1.61062292 -1.5021748 -0.573565617</float_array>
        <technique_common><accessor source="#vfx_kurp_0999-mesh-positions-array" count="220" stride="3"><param name="X" type="float"/><param name="Y" type="float"/><param name="Z" type="float"/></accessor></technique_common>
      </source>
      <source id="vfx_kurp_0999-mesh-normals">
        <float_array id="vfx_kurp_0999-mesh-normals-array" count="660">-0.0938954902 0.738871685 0.667272261 -0.178957794 0.722564868 0.667738062 -0.203053396 0.721297998 0.662192205 -0.135853708 0.743143508 0.65519577 -0.239969748 0.742844296 0.624977497 -0.200807262 0.763880387 0.613321448 0.845234762 0.247898293 -0.473418032 0.826970735 0.295823673 -0.478129437 0.836108367 0.251780104 -0.487370062 0.791957337 0.391405152 -0.468620938 0.752689504 0.506494543 -0.420620717 0.695083145 0.603720008 -0.390360825 -0.225321899 0.638342086 -0.736036292 -0.230649627 0.641352671 -0.731756449 -0.24668353 0.650239708 -0.71856493 -0.210017384 0.629536517 -0.748048442 0.348743985 0.724001116 -0.595147055 0.345483781 0.726543974 -0.593948491 0.322370105 0.744050275 -0.585206547 0.382905624 0.696220704 -0.607173792 -0.103610659 0.776852326 0.621100068 -0.0154559334 0.792701595 0.609413895 0.514323139 0.0602366411 0.855478379 0.472598868 0.290129813 0.832150829 0.475291318 0.289559446 0.830814956 0.507840487 0.0200608632 0.861217511 0.506805319 -0.14989668 0.848928356 0.507394623 -0.173142978 0.844139921 0.53348395 -0.171702242 0.828198777 0.544886001 -0.213194583 0.810954571 -0.181426227 -0.717405236 0.672617463 0.0045266877 -0.726301503 0.687361357 0.000171179527 -0.735757024 0.677245578 -0.324588065 -0.707838805 0.627380916 -0.503678516 -0.671610773 0.543366287 -0.51397061 -0.69328976 0.505156928 0.251830353 -0.625167118 0.738747283 0.258109225 -0.617076028 0.743368552 0.276806695 -0.592258675 0.756708475 0.235085721 -0.646167601 0.726086865 -0.470647542 -0.697342157 0.540559717 -0.461485623 -0.695041612 0.551314953 -0.41891986 -0.682873329 0.598489906 -0.495617945 -0.702988206 0.510069048 -0.845132623 0.232373012 0.481407969 -0.863214605 0.303923907 0.403101481 -0.885740061 0.314820556 0.341104914 -0.828005888 0.296103441 0.476160688 0.879197898 0.159675972 -0.448903821 0.889185615 0.172990544 -0.423583774 0.548892943 -0.635803272 -0.54265158 0.680870413 -0.535867952 -0.499260472 0.704851515 -0.524661136 -0.477404476 0.54238451 -0.640458441 -0.543720543 0.451713982 -0.724763381 -0.520261972 0.45897378 -0.720208302 -0.520233669 0.454973197 -0.703427352 -0.546067167 0.446583419 -0.684637631 -0.576050834 -0.177200213 -0.693779694 -0.698047148 -0.111482842 -0.720531876 -0.684401484 -0.0930130921 -0.735292967 -0.67133659 -0.181052322 -0.690008637 -0.70079108 -0.326490186 -0.55933864 -0.761934672 -0.358359128 -0.566373799 -0.742158646 -0.517242996 -0.441703178 -0.733047055 -0.565979258 -0.460275613 -0.68396918 -0.239199168 0.647590635 -0.723470889 -0.265288569 0.644451731 -0.717149874 -0.308966424 0.638072256 -0.70526842 -0.145900566 0.654873643 -0.741521096 -0.833852808 0.355281485 0.422450661 -0.817836886 0.428920465 0.383627505 0.388349599 0.778765985 0.492654168 0.395834316 0.7692446 0.501575458 0.399276977 0.764767296 0.505676655 0.407562258 0.753731328 0.515540581 0.335232584 0.942134793 -0.00107062296 0.344278766 0.938832391 0.00811624046 0.31947472 0.947443528 -0.0169311931 0.356592833 0.934030097 0.0207202703 -0.521899055 0.451534414 -0.723697485 -0.554443026 0.695638775 -0.456814652 -0.539757155 0.475004721 -0.69500556 -0.548350401 0.701466923 -0.455253769 -0.527125867 0.808320793 -0.262213303 -0.507268061 0.829952988 -0.232071437 -0.534351951 0.79199411 0.295319017 -0.534275346 0.781066535 0.323241278 -0.536591113 0.781221181 0.319003832 -0.518010904 0.796564331 0.3116889 -0.516379751 0.807281954 0.28574079 -0.482856511 0.813956994 0.322991644 0.325489438 0.940596507 -0.0966169608 0.322438489 0.941164956 -0.101202506 0.3429309 0.936745088 -0.0700502554 0.311374067 0.942972294 -0.117683659 0.368973671 0.565684024 -0.737468654 0.367692219 0.565148313 -0.738518664 0.362367323 0.562908821 -0.74284829 0.373685333 0.567643057 -0.733580692 0.431049612 0.00525526742 -0.902312925 0.419416657 0.0462266874 -0.906616105 0.400564545 0.0298684955 -0.915781589 0.433949651 -0.0143997668 -0.90082204 0.473868997 -0.253605045 -0.843286816 0.448343665 -0.286766881 -0.846612494 0.537557775 -0.7057772 -0.461421915 0.509564994 -0.731792049 -0.452574761 0.557892334 -0.812437393 -0.169415543 0.561610728 -0.812159844 -0.158081551 0.561277139 -0.827279526 -0.0240116626 0.546894496 -0.836752992 0.0274014646 0.527153359 -0.840428244 0.125657083 0.499559824 -0.850659456 0.163763465 0.521520291 -0.464080576 0.715992881 0.529633702 -0.474206575 0.703289603 0.568847679 -0.524135496 0.633793578 0.493933962 -0.430077445 0.755686862 -0.509901055 0.339340516 -0.790473863 -0.486251906 0.363538766 -0.794605971 -0.439893879 -0.33138319 -0.834672724 -0.440051906 -0.331673421 -0.834474123 -0.439349564 -0.330383649 -0.835355377 -0.440758287 -0.332972057 -0.833583674 -0.338156051 -0.916169079 -0.2151388 -0.320258087 -0.906358323 -0.275589091 -0.298828446 -0.892154317 -0.338765752 -0.349850514 -0.920441317 -0.174334159 -0.369930701 -0.865956919 -0.336555925 -0.36604916 -0.830556843 -0.419741996 -0.368862893 -0.732023992 -0.572783591 -0.352687395 -0.728069856 -0.5878145 -0.272908804 -0.953150241 0.130481429 -0.266742011 -0.955705924 0.124398097 -0.308435258 -0.93669298 0.165752685 -0.213922618 -0.974138347 0.0727433521 -0.411398693 0.0970426291 0.906274706 -0.366666375 -0.078576271 0.927028338 -0.335919694 -0.126482849 0.933359549 -0.399238337 0.115453494 0.909548922 -0.388702078 0.225260705 0.893402658 -0.316234194 0.19467279 0.928492563 0.329034512 0.677543613 0.657777274 0.367392864 0.652688934 0.662585571 0.37716407 0.646052272 0.66359907 0.408340104 0.624011937 0.66623379 0.799850616 0.557061062 0.223432238 0.783644346 0.568401299 0.250642178 0.78631986 0.56661466 0.246269985 0.767350735 0.578624111 0.276345775 0.996416291 -0.0843674563 -0.00605868313 0.996826269 -0.079505505 0.00403283809 0.991965176 -0.110739168 -0.0611712896 0.997110014 -0.0572693141 0.0499183929 0.108609516 -0.527512548 -0.8425761 0.262572776 -0.286342215 -0.921446511 0.162393354 -0.447023206 -0.879658259 0.292743969 -0.25300076 -0.922112566 0.355809542 0.0243123925 -0.934242194 0.387611079 0.00492331313 -0.921809857 0.32604167 0.343059192 -0.88091272 0.346456543 0.384646562 -0.855578685 0.31936132 0.486318973 -0.813327858 0.362455572 0.529807159 -0.766766152 0.998189875 -0.0601379197 -0.000634957375 0.998416484 -0.0561494902 0.00342904035 0.999092706 -0.0327113177 0.0272714979 0.997190662 -0.073528708 -0.0142938336 0.442481979 -0.85152618 0.28127009 0.530530765 -0.82479952 0.195557812 0.516465969 -0.840102943 0.16580093 0.405817576 -0.852607083 0.329200937 0.3312399 -0.862527908 0.382525472 0.310929395 -0.865452935 0.392828371 0.246283872 -0.875167295 0.416445026 0.246848372 -0.882588068 0.400130208 0.217854906 -0.875253939 0.431821469 -0.243166097 -0.73111507 0.637448825 -0.243166123 -0.731115071 0.637448813 -0.243166097 -0.73111507 0.637448825 -0.259496117 -0.387568114 0.884563577 -0.294357505 -0.224176698 0.929030929 -0.242870832 -0.264104761 0.933414396 -0.300115509 -0.344329933 0.889588432 -0.237383879 -0.511620461 0.825768368 -0.245261868 -0.506878869 0.826389998 -0.335334545 0.194943135 0.921709237 -0.339071091 0.19896525 0.919480084 -0.362864013 0.224716485 0.904340759 -0.316483603 0.17473879 0.932364995 0.328969687 0.723804711 0.606535807 0.244627755 0.7390967 0.627609217 0.236769119 0.770245586 0.592167309 0.366179014 0.734097897 0.571850687 -0.025951948 -0.646632425 -0.762360153 -0.00705533555 -0.655079846 -0.755526716 -0.657262012 -0.675555927 -0.334112014 -0.657899952 -0.674976767 -0.334026969 -0.623659096 -0.704766165 -0.338162659 -0.701187558 -0.633321874 -0.327474292 -0.976380213 -0.215941589 -0.00713512427 -0.99257432 -0.094867654 0.0761337409 -0.972231802 -0.221375767 0.0758820942 -0.997994478 -0.0624675649 0.010238437 -0.969209623 -0.235188263 -0.0729327578 -0.971907391 -0.221641739 -0.0791894088 -0.996575497 -0.0746579804 -0.0355452441 -0.997883144 -0.0650089919 0.00174985051 -0.996755971 0.0310923296 0.0742347742 -0.988939457 -0.0176317408 0.147268026 -0.63553581 0.761348277 -0.128230399 -0.634885672 0.76022102 -0.137783107 -0.633187956 0.757395305 -0.159453331 -0.636990092 0.764026485 -0.102504402 0.15725138 0.743274024 -0.650242823 0.156773237 0.746081596 -0.647135538 0.150292836 0.781429256 -0.60562396 0.167951626 0.671420869 -0.721793785 0.484521246 0.753069929 0.44511217 0.524081435 0.765816267 0.372644729</float_array>
        <technique_common><accessor source="#vfx_kurp_0999-mesh-normals-array" count="220" stride="3"><param name="X" type="float"/><param name="Y" type="float"/><param name="Z" type="float"/></accessor></technique_common>
      </source>
      <source id="vfx_kurp_0999-mesh-uv0">
        <float_array id="vfx_kurp_0999-mesh-uv0-array" count="440">1 0.166666627 1 0.0833333135 0.5 0.166666627 0.5 0.0833333135 1 0 0.5 0 0.5 0.333333313 0.5 0.25 0 0.333333313 0 0.25 0.5 0.166666627 0 0.166666627 0.5 0.0833333135 0 0.166666627 0.5 0.166666627 0 0.0833333135 0.5 0 0 0.0833333135 0.5 0.0833333135 0 0 0.5 0.25 1 0.25 0.5 0.333333313 1 0.25 0.5 0.25 1 0.333333313 0.5 0.416666627 1 0.416666627 0.5 0.5 1 0.5 0.5 0.583333313 1 0.5 0.5 0.5 1 0.583333313 0.5 0.666666627 1 0.666666627 0.5 0.75 1 0.666666627 0.5 0.666666627 1 0.75 0.5 0.833333313 1 0.75 0.5 0.75 1 0.833333313 0.5 0.916666687 1 0.833333313 0.5 0.833333313 1 0.916666687 0 0.416666627 0.5 0.416666627 0 0.5 0.5 0.416666627 0 0.416666627 0.5 0.5 0 0.583333313 0.5 0.583333313 0 0.666666627 0.5 0.666666627 0 0.75 0.5 0.666666627 0 0.666666627 0.5 0.75 0 0.833333313 0.5 0.833333313 0 0.916666687 0.5 0.916666687 0 1 0.5 0.916666687 0 0.916666687 0.5 1 0.5 1 1 1 1 0.166666627 1 0.0833333135 0.5 0.166666627 0.5 0.0833333135 1 0 0.5 0.0833333135 1 0.0833333135 0.5 0 0.5 0.333333313 0.5 0.25 0 0.333333313 0 0.25 0.5 0.166666627 0 0.166666627 0.5 0.0833333135 0 0.166666627 0.5 0.166666627 0 0.0833333135 0.5 0 0 0 0.5 0.25 1 0.166666627 0.5 0.166666627 1 0.25 0.5 0.333333313 1 0.25 0.5 0.25 1 0.333333313 0.5 0.416666627 1 0.333333313 0.5 0.333333313 1 0.416666627 0.5 0.5 1 0.5 0.5 0.583333313 1 0.583333313 0.5 0.666666627 1 0.666666627 0.5 0.75 1 0.75 0.5 0.833333313 1 0.833333313 0.5 0.916666687 1 0.833333313 0.5 0.833333313 1 0.916666687 0 0.416666627 0.5 0.416666627 0 0.5 0.5 0.416666627 0 0.416666627 0.5 0.5 0 0.583333313 0.5 0.5 0 0.5 0.5 0.583333313 0 0.666666627 0.5 0.666666627 0 0.75 0.5 0.75 0 0.833333313 0.5 0.75 0 0.75 0.5 0.833333313 0 0.916666687 0.5 0.833333313 0 0.833333313 0.5 0.916666687 0 1 0.5 1 0.5 0.916666687 0.5 1 1 0.916666687 1 1 1 0.166666627 1 0.0833333135 0.5 0.166666627 0.5 0.0833333135 1 0 0.5 0.0833333135 1 0.0833333135 0.5 0 0.5 0.333333313 0.5 0.25 0 0.333333313 0 0.25 0.5 0.166666627 0 0.166666627 0.5 0.0833333135 0 0.0833333135 0.5 0 0 0 0.5 0.25 1 0.166666627 0.5 0.166666627 1 0.25 0.5 0.333333313 1 0.25 0.5 0.25 1 0.333333313 0.5 0.416666627 1 0.416666627 0.5 0.5 1 0.5 0.5 0.583333313 1 0.5 0.5 0.583333313 1 0.583333313 0.5 0.666666627 1 0.583333313 0.5 0.583333313 1 0.666666627 0.5 0.75 1 0.75 0.5 0.833333313 1 0.75 0.5 0.75 1 0.833333313 0.5 0.916666687 1 0.833333313 0.5 0.833333313 1 0.916666687 0 0.416666627 0.5 0.416666627 0 0.5 0.5 0.416666627 0 0.416666627 0.5 0.5 0 0.583333313 0.5 0.5 0 0.5 0.5 0.583333313 0 0.666666627 0.5 0.666666627 0 0.75 0.5 0.75 0 0.833333313 0.5 0.833333313 0 0.916666687 0.5 0.833333313 0 0.833333313 0.5 0.916666687 0 1 0.5 0.916666687 0 0.916666687 0.5 1 0.5 1 1 1</float_array>
        <technique_common><accessor source="#vfx_kurp_0999-mesh-uv0-array" count="220" stride="2"><param name="S" type="float"/><param name="T" type="float"/></accessor></technique_common>
      </source>
      <source id="vfx_kurp_0999-mesh-colors">
        <float_array id="vfx_kurp_0999-mesh-colors-array" count="880">0.0392156877 0.0392156877 0.0392156877 0 0.0392156877 0.0392156877 0.0392156877 0 0.0392156877 0.0392156877 0.0392156877 1 0.0392156877 0.0392156877 0.0392156877 1 0.0392156877 0.0392156877 0.0392156877 0 0.0392156877 0.0392156877 0.0392156877 0 0.0392156877 0.0392156877 0.0392156877 1 0.0392156877 0.0392156877 0.0392156877 1 0.0392156877 0.0392156877 0.0392156877 0 0.0392156877 0.0392156877 0.0392156877 0 0.0392156877 0.0392156877 0.0392156877 1 0.0392156877 0.0392156877 0.0392156877 0 0.0392156877 0.0392156877 0.0392156877 1 0.0392156877 0.0392156877 0.0392156877 0 0.0392156877 0.0392156877 0.0392156877 1 0.0392156877 0.0392156877 0.0392156877 0 0.0392156877 0.0392156877 0.0392156877 0 0.0392156877 0.0392156877 0.0392156877 0 0.0392156877 0.0392156877 0.0392156877 1 0.0392156877 0.0392156877 0.0392156877 0 0.0392156877 0.0392156877 0.0392156877 1 0.0392156877 0.0392156877 0.0392156877 0 0.0392156877 0.0392156877 0.0392156877 1 0.0392156877 0.0392156877 0.0392156877 0 0.0392156877 0.0392156877 0.0392156877 1 0.0392156877 0.0392156877 0.0392156877 0 0.0392156877 0.0392156877 0.0392156877 1 0.0392156877 0.0392156877 0.0392156877 0 0.0392156877 0.0392156877 0.0392156877 1 0.0392156877 0.0392156877 0.0392156877 0 0.0392156877 0.0392156877 0.0392156877 1 0.0392156877 0.0392156877 0.0392156877 0 0.0392156877 0.0392156877 0.0392156877 1 0.0392156877 0.0392156877 0.0392156877 0 0.0392156877 0.0392156877 0.0392156877 1 0.0392156877 0.0392156877 0.0392156877 0 0.0392156877 0.0392156877 0.0392156877 1 0.0392156877 0.0392156877 0.0392156877 0 0.0392156877 0.0392156877 0.0392156877 1 0.0392156877 0.0392156877 0.0392156877 0 0.0392156877 0.0392156877 0.0392156877 1 0.0392156877 0.0392156877 0.0392156877 0 0.0392156877 0.0392156877 0.0392156877 1 0.0392156877 0.0392156877 0.0392156877 0 0.0392156877 0.0392156877 0.0392156877 1 0.0392156877 0.0392156877 0.0392156877 0 0.0392156877 0.0392156877 0.0392156877 1 0.0392156877 0.0392156877 0.0392156877 0 0.0392156877 0.0392156877 0.0392156877 0 0.0392156877 0.0392156877 0.0392156877 1 0.0392156877 0.0392156877 0.0392156877 0 0.0392156877 0.0392156877 0.0392156877 1 0.0392156877 0.0392156877 0.0392156877 0 0.0392156877 0.0392156877 0.0392156877 1 0.0392156877 0.0392156877 0.0392156877 0 0.0392156877 0.0392156877 0.0392156877 1 0.0392156877 0.0392156877 0.0392156877 0 0.0392156877 0.0392156877 0.0392156877 1 0.0392156877 0.0392156877 0.0392156877 0 0.0392156877 0.0392156877 0.0392156877 1 0.0392156877 0.0392156877 0.0392156877 0 0.0392156877 0.0392156877 0.0392156877 1 0.0392156877 0.0392156877 0.0392156877 0 0.0392156877 0.0392156877 0.0392156877 1 0.0392156877 0.0392156877 0.0392156877 0 0.0392156877 0.0392156877 0.0392156877 1 0.0392156877 0.0392156877 0.0392156877 0 0.0392156877 0.0392156877 0.0392156877 1 0.0392156877 0.0392156877 0.0392156877 0 0.0392156877 0.0392156877 0.0392156877 0 0.0392156877 0.0392156877 0.0392156877 0 0.0392156877 0.0392156877 0.0392156877 0 0.0392156877 0.0392156877 0.0392156877 0 0.0392156877 0.0392156877 0.0392156877 0 0.0392156877 0.0392156877 0.0392156877 1 0.0392156877 0.0392156877 0.0392156877 1 0.0392156877 0.0392156877 0.0392156877 0 0.0392156877 0.0392156877 0.0392156877 1 0.0392156877 0.0392156877 0.0392156877 0 0.0392156877 0.0392156877 0.0392156877 0 0.0392156877 0.0392156877 0.0392156877 1 0.0392156877 0.0392156877 0.0392156877 1 0.0392156877 0.0392156877 0.0392156877 0 0.0392156877 0.0392156877 0.0392156877 0 0.0392156877 0.0392156877 0.0392156877 1 0.0392156877 0.0392156877 0.0392156877 0 0.0392156877 0.0392156877 0.0392156877 1 0.0392156877 0.0392156877 0.0392156877 0 0.0392156877 0.0392156877 0.0392156877 1 0.0392156877 0.0392156877 0.0392156877 0 0.0392156877 0.0392156877 0.0392156877 0 0.0392156877 0.0392156877 0.0392156877 0 0.0392156877 0.0392156877 0.0392156877 1 0.0392156877 0.0392156877 0.0392156877 0 0.0392156877 0.0392156877 0.0392156877 1 0.0392156877 0.0392156877 0.0392156877 0 0.0392156877 0.0392156877 0.0392156877 1 0.0392156877 0.0392156877 0.0392156877 0 0.0392156877 0.0392156877 0.0392156877 1 0.0392156877 0.0392156877 0.0392156877 0 0.0392156877 0.0392156877 0.0392156877 1 0.0392156877 0.0392156877 0.0392156877 0 0.0392156877 0.0392156877 0.0392156877 1 0.0392156877 0.0392156877 0.0392156877 0 0.0392156877 0.0392156877 0.0392156877 1 0.0392156877 0.0392156877 0.0392156877 0 0.0392156877 0.0392156877 0.0392156877 1 0.0392156877 0.0392156877 0.0392156877 0 0.0392156877 0.0392156877 0.0392156877 1 0.0392156877 0.0392156877 0.0392156877 0 0.0392156877 0.0392156877 0.0392156877 1 0.0392156877 0.0392156877 0.0392156877 0 0.0392156877 0.0392156877 0.0392156877 1 0.0392156877 0.0392156877 0.0392156877 0 0.0392156877 0.0392156877 0.0392156877 1 0.0392156877 0.0392156877 0.0392156877 0 0.0392156877 0.0392156877 0.0392156877 1 0.0392156877 0.0392156877 0.0392156877 0 0.0392156877 0.0392156877 0.0392156877 0 0.0392156877 0.0392156877 0.0392156877 1 0.0392156877 0.0392156877 0.0392156877 0 0.0392156877 0.0392156877 0.0392156877 1 0.0392156877 0.0392156877 0.0392156877 0 0.0392156877 0.0392156877 0.0392156877 1 0.0392156877 0.0392156877 0.0392156877 0 0.0392156877 0.0392156877 0.0392156877 1 0.0392156877 0.0392156877 0.0392156877 0 0.0392156877 0.0392156877 0.0392156877 1 0.0392156877 0.0392156877 0.0392156877 0 0.0392156877 0.0392156877 0.0392156877 1 0.0392156877 0.0392156877 0.0392156877 0 0.0392156877 0.0392156877 0.0392156877 1 0.0392156877 0.0392156877 0.0392156877 0 0.0392156877 0.0392156877 0.0392156877 1 0.0392156877 0.0392156877 0.0392156877 0 0.0392156877 0.0392156877 0.0392156877 1 0.0392156877 0.0392156877 0.0392156877 0 0.0392156877 0.0392156877 0.0392156877 1 0.0392156877 0.0392156877 0.0392156877 0 0.0392156877 0.0392156877 0.0392156877 1 0.0392156877 0.0392156877 0.0392156877 0 0.0392156877 0.0392156877 0.0392156877 0 0.0392156877 0.0392156877 0.0392156877 1 0.0392156877 0.0392156877 0.0392156877 0 0.0392156877 0.0392156877 0.0392156877 0 0.0392156877 0.0392156877 0.0392156877 0 0.0392156877 0.0392156877 0.0392156877 0 0.0392156877 0.0392156877 0.0392156877 0 0.0392156877 0.0392156877 0.0392156877 1 0.0392156877 0.0392156877 0.0392156877 1 0.0392156877 0.0392156877 0.0392156877 0 0.0392156877 0.0392156877 0.0392156877 1 0.0392156877 0.0392156877 0.0392156877 0 0.0392156877 0.0392156877 0.0392156877 0 0.0392156877 0.0392156877 0.0392156877 1 0.0392156877 0.0392156877 0.0392156877 1 0.0392156877 0.0392156877 0.0392156877 0 0.0392156877 0.0392156877 0.0392156877 0 0.0392156877 0.0392156877 0.0392156877 1 0.0392156877 0.0392156877 0.0392156877 0 0.0392156877 0.0392156877 0.0392156877 1 0.0392156877 0.0392156877 0.0392156877 0 0.0392156877 0.0392156877 0.0392156877 0 0.0392156877 0.0392156877 0.0392156877 0 0.0392156877 0.0392156877 0.0392156877 1 0.0392156877 0.0392156877 0.0392156877 0 0.0392156877 0.0392156877 0.0392156877 1 0.0392156877 0.0392156877 0.0392156877 0 0.0392156877 0.0392156877 0.0392156877 1 0.0392156877 0.0392156877 0.0392156877 0 0.0392156877 0.0392156877 0.0392156877 1 0.0392156877 0.0392156877 0.0392156877 0 0.0392156877 0.0392156877 0.0392156877 1 0.0392156877 0.0392156877 0.0392156877 0 0.0392156877 0.0392156877 0.0392156877 1 0.0392156877 0.0392156877 0.0392156877 0 0.0392156877 0.0392156877 0.0392156877 1 0.0392156877 0.0392156877 0.0392156877 0 0.0392156877 0.0392156877 0.0392156877 1 0.0392156877 0.0392156877 0.0392156877 0 0.0392156877 0.0392156877 0.0392156877 1 0.0392156877 0.0392156877 0.0392156877 0 0.0392156877 0.0392156877 0.0392156877 1 0.0392156877 0.0392156877 0.0392156877 0 0.0392156877 0.0392156877 0.0392156877 1 0.0392156877 0.0392156877 0.0392156877 0 0.0392156877 0.0392156877 0.0392156877 1 0.0392156877 0.0392156877 0.0392156877 0 0.0392156877 0.0392156877 0.0392156877 1 0.0392156877 0.0392156877 0.0392156877 0 0.0392156877 0.0392156877 0.0392156877 1 0.0392156877 0.0392156877 0.0392156877 0 0.0392156877 0.0392156877 0.0392156877 1 0.0392156877 0.0392156877 0.0392156877 0 0.0392156877 0.0392156877 0.0392156877 0 0.0392156877 0.0392156877 0.0392156877 1 0.0392156877 0.0392156877 0.0392156877 0 0.0392156877 0.0392156877 0.0392156877 1 0.0392156877 0.0392156877 0.0392156877 0 0.0392156877 0.0392156877 0.0392156877 1 0.0392156877 0.0392156877 0.0392156877 0 0.0392156877 0.0392156877 0.0392156877 1 0.0392156877 0.0392156877 0.0392156877 0 0.0392156877 0.0392156877 0.0392156877 1 0.0392156877 0.0392156877 0.0392156877 0 0.0392156877 0.0392156877 0.0392156877 1 0.0392156877 0.0392156877 0.0392156877 0 0.0392156877 0.0392156877 0.0392156877 1 0.0392156877 0.0392156877 0.0392156877 0 0.0392156877 0.0392156877 0.0392156877 1 0.0392156877 0.0392156877 0.0392156877 0 0.0392156877 0.0392156877 0.0392156877 1 0.0392156877 0.0392156877 0.0392156877 0 0.0392156877 0.0392156877 0.0392156877 1 0.0392156877 0.0392156877 0.0392156877 0 0.0392156877 0.0392156877 0.0392156877 1 0.0392156877 0.0392156877 0.0392156877 0 0.0392156877 0.0392156877 0.0392156877 0 0.0392156877 0.0392156877 0.0392156877 0 0.0392156877 0.0392156877 0.0392156877 0</float_array>
        <technique_common><accessor source="#vfx_kurp_0999-mesh-colors-array" count="220" stride="4"><param name="R" type="float"/><param name="G" type="float"/><param name="B" type="float"/><param name="A" type="float"/></accessor></technique_common>
      </source>
      <vertices id="vfx_kurp_0999-mesh-vertices"><input semantic="POSITION" source="#vfx_kurp_0999-mesh-positions"/></vertices>
      <triangles material="PreviewMaterial" count="144">
        <input semantic="VERTEX" source="#vfx_kurp_0999-mesh-vertices" offset="0"/>
        <input semantic="NORMAL" source="#vfx_kurp_0999-mesh-normals" offset="1"/>
        <input semantic="TEXCOORD" source="#vfx_kurp_0999-mesh-uv0" offset="2" set="0"/>
        <input semantic="COLOR" source="#vfx_kurp_0999-mesh-colors" offset="3" set="0"/>
        <p>0 0 0 0 1 1 1 1 2 2 2 2 2 2 2 2 1 1 1 1 3 3 3 3 4 4 4 4 3 3 3 3 1 1 1 1 3 3 3 3 4 4 4 4 5 5 5 5 6 6 6 6 7 7 7 7 8 8 8 8 8 8 8 8 7 7 7 7 9 9 9 9 10 10 10 10 9 9 9 9 7 7 7 7 9 9 9 9 10 10 10 10 11 11 11 11 12 12 12 12 13 13 13 13 14 14 14 14 13 13 13 13 12 12 12 12 15 15 15 15 16 16 16 16 17 17 17 17 18 18 18 18 17 17 17 17 16 16 16 16 19 19 19 19 20 20 20 20 0 0 0 0 2 2 2 2 0 0 0 0 20 20 20 20 21 21 21 21 22 22 22 22 23 23 23 23 24 24 24 24 23 23 23 23 22 22 22 22 25 25 25 25 26 26 26 26 25 25 25 25 22 22 22 22 25 25 25 25 26 26 26 26 27 27 27 27 28 28 28 28 27 27 27 27 26 26 26 26 27 27 27 27 28 28 28 28 29 29 29 29 30 30 30 30 31 31 31 31 32 32 32 32 31 31 31 31 30 30 30 30 33 33 33 33 34 34 34 34 33 33 33 33 30 30 30 30 33 33 33 33 34 34 34 34 35 35 35 35 36 36 36 36 37 37 37 37 38 38 38 38 37 37 37 37 36 36 36 36 39 39 39 39 40 40 40 40 41 41 41 41 42 42 42 42 41 41 41 41 40 40 40 40 43 43 43 43 44 44 44 44 45 45 45 45 46 46 46 46 47 47 47 47 45 45 45 45 44 44 44 44 48 48 48 48 6 6 6 6 8 8 8 8 6 6 6 6 48 48 48 48 49 49 49 49 50 50 50 50 51 51 51 51 52 52 52 52 51 51 51 51 50 50 50 50 53 53 53 53 54 54 54 54 53 53 53 53 50 50 50 50 53 53 53 53 54 54 54 54 55 55 55 55 56 56 56 56 55 55 55 55 54 54 54 54 55 55 55 55 56 56 56 56 57 57 57 57 58 58 58 58 59 59 59 59 60 60 60 60 59 59 59 59 58 58 58 58 61 61 61 61 62 62 62 62 61 61 61 61 58 58 58 58 61 61 61 61 62 62 62 62 63 63 63 63 64 64 64 64 63 63 63 63 62 62 62 62 63 63 63 63 64 64 64 64 65 65 65 65 66 66 66 66 67 67 67 67 68 68 68 68 69 69 69 69 67 67 67 67 66 66 66 66 44 44 44 44 70 70 70 70 47 47 47 47 71 71 71 71 47 47 47 47 70 70 70 70 72 72 72 72 73 73 73 73 74 74 74 74 74 74 74 74 73 73 73 73 75 75 75 75 76 76 76 76 77 77 77 77 78 78 78 78 77 77 77 77 76 76 76 76 79 79 79 79 80 80 80 80 81 81 81 81 82 82 82 82 82 82 82 82 81 81 81 81 83 83 83 83 84 84 84 84 83 83 83 83 81 81 81 81 83 83 83 83 84 84 84 84 85 85 85 85 86 86 86 86 87 87 87 87 88 88 88 88 87 87 87 87 86 86 86 86 89 89 89 89 90 90 90 90 89 89 89 89 86 86 86 86 89 89 89 89 90 90 90 90 91 91 91 91 92 92 92 92 93 93 93 93 94 94 94 94 93 93 93 93 92 92 92 92 95 95 95 95 96 96 96 96 97 97 97 97 98 98 98 98 97 97 97 97 96 96 96 96 99 99 99 99 100 100 100 100 101 101 101 101 102 102 102 102 101 101 101 101 100 100 100 100 103 103 103 103 104 104 104 104 103 103 103 103 100 100 100 100 103 103 103 103 104 104 104 104 105 105 105 105 106 106 106 106 105 105 105 105 104 104 104 104 105 105 105 105 106 106 106 106 107 107 107 107 108 108 108 108 107 107 107 107 106 106 106 106 107 107 107 107 108 108 108 108 109 109 109 109 110 110 110 110 109 109 109 109 108 108 108 108 109 109 109 109 110 110 110 110 111 111 111 111 112 112 112 112 111 111 111 111 110 110 110 110 111 111 111 111 112 112 112 112 113 113 113 113 114 114 114 114 115 115 115 115 116 116 116 116 117 117 117 117 115 115 115 115 114 114 114 114 118 118 118 118 80 80 80 80 82 82 82 82 80 80 80 80 118 118 118 118 119 119 119 119 120 120 120 120 121 121 121 121 122 122 122 122 121 121 121 121 120 120 120 120 123 123 123 123 124 124 124 124 125 125 125 125 126 126 126 126 125 125 125 125 124 124 124 124 127 127 127 127 128 128 128 128 127 127 127 127 124 124 124 124 127 127 127 127 128 128 128 128 129 129 129 129 130 130 130 130 129 129 129 129 128 128 128 128 129 129 129 129 130 130 130 130 131 131 131 131 132 132 132 132 133 133 133 133 134 134 134 134 133 133 133 133 132 132 132 132 135 135 135 135 136 136 136 136 137 137 137 137 138 138 138 138 137 137 137 137 136 136 136 136 139 139 139 139 140 140 140 140 139 139 139 139 136 136 136 136 141 141 141 141 139 139 139 139 140 140 140 140 142 142 142 142 143 143 143 143 144 144 144 144 145 145 145 145 144 144 144 144 143 143 143 143 146 146 146 146 147 147 147 147 148 148 148 148 148 148 148 148 147 147 147 147 149 149 149 149 150 150 150 150 151 151 151 151 152 152 152 152 151 151 151 151 150 150 150 150 153 153 153 153 154 154 154 154 155 155 155 155 156 156 156 156 156 156 156 156 155 155 155 155 157 157 157 157 158 158 158 158 157 157 157 157 155 155 155 155 157 157 157 157 158 158 158 158 159 159 159 159 160 160 160 160 159 159 159 159 158 158 158 158 159 159 159 159 160 160 160 160 161 161 161 161 162 162 162 162 161 161 161 161 160 160 160 160 161 161 161 161 162 162 162 162 163 163 163 163 164 164 164 164 165 165 165 165 166 166 166 166 165 165 165 165 164 164 164 164 167 167 167 167 168 168 168 168 169 169 169 169 170 170 170 170 169 169 169 169 168 168 168 168 171 171 171 171 172 172 172 172 171 171 171 171 168 168 168 168 171 171 171 171 172 172 172 172 173 173 173 173 174 174 174 174 173 173 173 173 172 172 172 172 173 173 173 173 174 174 174 174 175 175 175 175 176 176 176 176 175 175 175 175 174 174 174 174 177 177 177 177 178 178 178 178 179 179 179 179 180 180 180 180 181 181 181 181 182 182 182 182 181 181 181 181 180 180 180 180 183 183 183 183 184 184 184 184 183 183 183 183 180 180 180 180 183 183 183 183 184 184 184 184 185 185 185 185 186 186 186 186 187 187 187 187 188 188 188 188 187 187 187 187 186 186 186 186 189 189 189 189 190 190 190 190 191 191 191 191 192 192 192 192 193 193 193 193 191 191 191 191 190 190 190 190 194 194 194 194 154 154 154 154 156 156 156 156 154 154 154 154 194 194 194 194 195 195 195 195 196 196 196 196 197 197 197 197 198 198 198 198 197 197 197 197 196 196 196 196 199 199 199 199 200 200 200 200 201 201 201 201 202 202 202 202 201 201 201 201 200 200 200 200 203 203 203 203 204 204 204 204 203 203 203 203 200 200 200 200 203 203 203 203 204 204 204 204 205 205 205 205 206 206 206 206 205 205 205 205 204 204 204 204 205 205 205 205 206 206 206 206 207 207 207 207 208 208 208 208 207 207 207 207 206 206 206 206 207 207 207 207 208 208 208 208 209 209 209 209 210 210 210 210 211 211 211 211 212 212 212 212 211 211 211 211 210 210 210 210 213 213 213 213 214 214 214 214 215 215 215 215 216 216 216 216 217 217 217 217 215 215 215 215 214 214 214 214 190 190 190 190 218 218 218 218 193 193 193 193 219 219 219 219 193 193 193 193 218 218 218 218</p>
      </triangles>
    </mesh></geometry>
  </library_geometries>
  <library_visual_scenes>
    <visual_scene id="Scene" name="Scene">
      <node id="vfx_kurp_0999" name="vfx_kurp_0999" type="NODE">
        <instance_geometry url="#vfx_kurp_0999-mesh"><bind_material><technique_common><instance_material symbol="PreviewMaterial" target="#PreviewMaterial"><bind_vertex_input semantic="UVSET0" input_semantic="TEXCOORD" input_set="0"/></instance_material></technique_common></bind_material></instance_geometry>
      </node>
    </visual_scene>
  </library_visual_scenes>
  <scene><instance_visual_scene url="#Scene"/></scene>
</COLLADA>
