<?xml version="1.0" encoding="utf-8"?>
<COLLADA xmlns="http://www.collada.org/2005/11/COLLADASchema" version="1.4.1">
  <asset>
    <contributor><authoring_tool>Morrobroom Kurpulio VFX preview converter</authoring_tool></contributor>
    <unit name="unit" meter="1"/>
    <up_axis>Z_UP</up_axis>
  </asset>
  <library_images>
    <image id="VFXTexture" name="darkmap_newgen-1.dds">
      <init_from>../../../Textures/Kurp/darkmap_newgen-1.dds</init_from>
    </image>
  </library_images>
  <library_effects>
    <effect id="PreviewEffect">
      <profile_COMMON>
        <newparam sid="VFXTexture-surface">
          <surface type="2D"><init_from>VFXTexture</init_from></surface>
        </newparam>
        <newparam sid="VFXTexture-sampler">
          <sampler2D><source>VFXTexture-surface</source></sampler2D>
        </newparam>
        <technique sid="common"><phong>
          <emission><color>0.08 0.08 0.08 1</color></emission>
          <ambient><color>0.2 0.2 0.2 1</color></ambient>
          <diffuse><texture texture="VFXTexture-sampler" texcoord="UVSET0"/></diffuse>
          <specular><color>0.15 0.15 0.15 1</color></specular>
          <shininess><float>8</float></shininess>
          <transparent opaque="A_ONE"><texture texture="VFXTexture-sampler" texcoord="UVSET0"/></transparent>
          <transparency><float>1</float></transparency>
        </phong></technique>
      </profile_COMMON>
      <extra><technique profile="GOOGLEEARTH"><double_sided>1</double_sided></technique></extra>
    </effect>
  </library_effects>
  <library_materials><material id="PreviewMaterial" name="PreviewMaterial"><instance_effect url="#PreviewEffect"/></material></library_materials>
  <library_geometries>
    <geometry id="vfx_kurp_0020-mesh" name="vfx_kurp_0020"><mesh>
      <source id="vfx_kurp_0020-mesh-positions">
        <float_array id="vfx_kurp_0020-mesh-positions-array" count="366">-0.604365165 -2.24446252 23.2529334 -0.604364065 -2.2444618 18.3288287 -0.251848739 -2.1395929 23.1440029 -0.251847925 -2.13959266 18.3285522 -2.28066497 -0.996646802 23.9575077 -2.28066381 -0.996646623 18.3273197 -2.44745738 -1.66325616 24.2924515 -2.44745689 -1.66325639 18.3280063 -0.965515703 -2.92630557 24.3808401 -0.965514895 -2.92630605 18.3282603 -1.09761616 -1.75243609 23.6933783 -1.09761529 -1.75243561 18.3268564 -3.02818502 0.128286289 18.3279605 -1.86344954 -0.794630132 18.3267094 -3.0281867 0.12828608 24.2699981 -1.86345089 -0.794630311 23.6616437 -1.70495053 1.73778276 18.3269784 -2.1255578 0.25031912 18.3267418 -1.70495189 1.73778324 23.7113683 -2.12555938 0.250319001 23.6678406 1.00917122 -2.53848501 23.5289194 1.00917243 -2.53848429 18.3295175 1.28047407 -1.68464321 23.1200659 1.28047485 -1.68464333 18.3284323 0.555954749 -1.08502612 22.642088 0.555955988 -1.08502612 18.3271981 0.298679814 -2.6504011 23.4839802 0.298680952 -2.65040086 18.3294259 -2.36660752 -0.73954521 18.3289066 -2.36660857 -0.739545747 23.3335167 -2.63368545 -0.486691977 18.3292137 -2.63368677 -0.486692514 23.4512821 -2.63368545 -0.486691977 18.3292137 -2.63368677 -0.486692514 23.4512821 -3.34145434 -1.11112991 18.3307261 -3.34145528 -1.11113026 24.0771975 -2.61418607 3.06419433 18.3290935 -1.94495428 2.79405013 18.3282792 -2.61418808 3.06419433 24.8163314 -1.94495598 2.79405013 24.3441846 -1.90327186 1.30857161 18.3268544 -1.94495598 2.79405013 24.3441846 -1.94495428 2.79405013 18.3282792 -1.90327332 1.30857197 23.6678426 1.78858661 -0.313978385 23.5449927 1.78858806 -0.313978236 18.3263991 1.66894365 -0.980822431 23.6141723 1.66894499 -0.98082249 18.3266108 3.22489081 0.239235348 18.328219 1.66894365 -0.980822431 23.6141723 1.66894499 -0.98082249 18.3266108 3.22488957 0.239235155 24.4920946 1.9224524 0.348132277 23.6247352 1.92245362 0.348132456 18.3264869 2.0958397 -0.306797115 23.7244056 2.09584153 -0.306796996 18.3267597 2.99038797 1.456522 18.3282571 2.0958397 -0.306797115 23.7244056 2.09584153 -0.306796996 18.3267597 2.99038672 1.45652212 24.5154767 -1.57246804 -2.99449641 18.3306501 -1.5724692 -2.99449641 23.9981935 -1.23532929 -2.31693178 18.3293245 -1.23533025 -2.31693154 23.4553049 -2.17081711 -2.36255631 23.8706738 -1.23532929 -2.31693178 18.3293245 -1.23533025 -2.31693154 23.4553049 -2.17081644 -2.36255608 18.3303067 1.47627675 -2.02376908 23.9753459 1.47627767 -2.02376931 18.3274272 1.65932679 -1.60143046 23.8436492 1.65932781 -1.60143058 18.3271296 1.09164635 -0.970692885 18.3260996 1.65932679 -1.60143046 23.8436492 1.65932781 -1.60143058 18.3271296 1.09164529 -0.970692825 23.3575727 0.0779847814 2.73200703 18.3289337 0.0779840215 2.73200751 23.2674961 0.933023792 2.99951224 18.3296548 0.933022639 2.99951295 23.5794107 0.933023792 2.99951224 18.3296548 0.933022639 2.99951295 23.5794107 1.43222154 2.48170406 18.3291991 1.43222035 2.48170406 23.4304087 1.43222154 2.48170406 18.3291991 1.43222035 2.48170406 23.4304087 0.00237401915 1.79458928 18.3274956 0.00237317555 1.79458976 22.7266521 1.82792353 1.5000151 23.7889293 1.82792466 1.50001474 18.3268989 2.46773672 1.96914254 24.3296017 2.46773746 1.96914171 18.3279804 2.46773672 1.96914254 24.3296017 2.46773746 1.96914171 18.3279804 1.26394317 2.08183866 23.75655 1.26394417 2.08183795 18.3269388 1.26394317 2.08183866 23.75655 1.26394417 2.08183795 18.3269388 1.77053222 2.73560126 24.3194469 1.77053308 2.73560055 18.3280681 1.09094088 -1.14645548 23.4186842 1.09094195 -1.14645536 18.3262407 0.588449818 -1.96665094 23.6842271 0.588451227 -1.96665058 18.3268548 1.36998256 -2.03179759 18.3273566 0.588449818 -1.96665094 23.6842271 0.588451227 -1.96665058 18.3268548 1.3699807 -2.03179806 23.9387705 2.05897875 -1.7432088 18.3276523 2.05897733 -1.74320903 24.1075309 -0.50120062 -1.41584184 18.3261947 -0.501201681 -1.41584196 23.3778266 -1.52486355 -1.28369255 18.326719 -1.52486454 -1.28369255 23.6482599 -1.52486355 -1.28369255 18.326719 -1.52486454 -1.28369255 23.6482599 -0.729751068 -2.45024803 18.3275374 -0.729752233 -2.4502478 24.0103186 -0.729751068 -2.45024803 18.3275374 -0.729752233 -2.4502478 24.0103186 -0.871880695 -3.20296315 18.3285826 -0.871881948 -3.20296291 24.5552195</float_array>
        <technique_common><accessor source="#vfx_kurp_0020-mesh-positions-array" count="122" stride="3"><param name="X" type="float"/><param name="Y" type="float"/><param name="Z" type="float"/></accessor></technique_common>
      </source>
      <source id="vfx_kurp_0020-mesh-normals">
        <float_array id="vfx_kurp_0020-mesh-normals-array" count="366">0.285138713 -0.958486262 -7.55133555e-08 0.28513781 -0.95848653 -2.93631658e-09 0.285138686 -0.95848627 -7.23850047e-08 0.285137756 -0.958486547 7.63732595e-10 -0.970094535 0.242727407 -1.91419559e-07 -0.970094342 0.242728178 -9.75908379e-08 -0.970094514 0.242727491 -1.81028484e-07 -0.970094324 0.242728248 -9.01953298e-08 0.993727533 0.111828397 1.23730541e-07 0.993727554 0.111828213 1.65203274e-07 0.993727535 0.111828383 1.28700027e-07 0.993727556 0.111828191 1.71835158e-07 -0.621047951 -0.78377257 -2.03455545e-07 -0.621047922 -0.783772593 -2.00257034e-07 -0.621047886 -0.783772622 -1.87208497e-07 -0.621047886 -0.783772622 -1.82961043e-07 -0.962269253 0.272099034 -2.66088204e-07 -0.962269253 0.272099034 -2.68486613e-07 -0.962269238 0.272099089 -2.77121308e-07 -0.962269245 0.272099062 -2.79563247e-07 0.953046373 -0.302824389 1.79165834e-07 0.953046399 -0.302824308 1.64729005e-07 0.953046373 -0.302824389 1.77652607e-07 0.953046399 -0.302824308 1.62804825e-07 -0.986761581 0.162177625 -2.83441434e-07 -0.986761553 0.162177799 -2.24220611e-07 -0.986761574 0.162177668 -2.6328789e-07 -0.986761544 0.162177852 -2.10314538e-07 -0.687503922 -0.726180664 -2.22600126e-07 -0.687503677 -0.726180896 -2.50916102e-07 -0.687503892 -0.726180692 -2.23975528e-07 -0.687503648 -0.726180924 -2.52065479e-07 0.6615835 -0.749871504 9.08403548e-08 0.661583592 -0.749871423 6.36303812e-08 0.661583529 -0.749871478 8.73947807e-08 0.661583626 -0.749871393 6.11178987e-08 -0.374317124 -0.927300755 -1.16011532e-07 -0.374317124 -0.927300755 -1.15268837e-07 -0.374317072 -0.927300776 -1.06663919e-07 -0.374317047 -0.927300786 -1.05488095e-07 -0.999606552 -0.0280488963 -2.80289475e-07 -0.999606552 -0.0280489223 -2.74474542e-07 -0.999606552 -0.0280488907 -2.81703917e-07 -0.999606551 -0.0280489298 -2.72533084e-07 -0.984283274 0.176596822 -2.67738381e-07 -0.984283253 0.176596937 -2.52463255e-07 -0.984283271 0.176596836 -2.66296348e-07 -0.984283253 0.176596937 -2.51114375e-07 0.617048492 -0.786925129 1.50155883e-07 0.617048426 -0.786925181 1.11434257e-07 0.617048529 -0.7869251 1.65046667e-07 0.617048426 -0.786925181 9.96662861e-08 -0.966696591 -0.255925186 -2.31383564e-07 -0.966696391 -0.255925942 -3.25791808e-07 -0.966696572 -0.255925257 -2.40371738e-07 -0.966696376 -0.255925997 -3.33946261e-07 0.891804929 -0.452420124 2.69515461e-07 0.891804845 -0.45242029 2.07182749e-07 0.891804953 -0.452420076 2.92868692e-07 0.891804821 -0.452420338 1.88375086e-07 -0.895294201 0.445475357 -1.83524603e-07 -0.895294201 0.445475357 -1.86860058e-07 -0.895294201 0.445475357 -1.83852632e-07 -0.895294213 0.445475333 -1.87402677e-07 0.0487131958 -0.998812808 4.20730812e-08 0.048712784 -0.998812828 -2.72574398e-08 0.0487132775 -0.998812804 5.55258463e-08 0.0487127283 -0.99881283 -3.71418549e-08 0.917526618 -0.397674371 1.66271304e-07 0.917526554 -0.397674518 1.77288577e-07 0.917526596 -0.397674421 1.66794977e-07 0.917526554 -0.397674518 1.77904903e-07 0.743283877 0.668976142 1.2519978e-07 0.743283794 0.668976234 1.44660707e-07 0.743283877 0.668976142 1.22702078e-07 0.743283794 0.668976234 1.48392205e-07 -0.298585642 0.954382845 -1.38092324e-07 -0.29858593 0.954382755 -1.90208226e-07 -0.298585696 0.954382828 -1.44663025e-07 -0.298585958 0.954382746 -1.95626615e-07 0.719925785 0.694051053 6.35989084e-08 0.719926224 0.694050598 1.57384543e-07 0.719925815 0.694051022 7.2630819e-08 0.719926282 0.694050537 1.67762392e-07 0.433134688 -0.901329208 1.00932142e-07 0.433134568 -0.901329266 1.59895325e-07 0.433134688 -0.901329208 1.16259629e-07 0.433134472 -0.901329312 1.8075788e-07 0.591307089 -0.806446481 1.74949101e-07 0.591307022 -0.80644653 1.84134928e-07 0.591307089 -0.806446481 1.76303601e-07 0.591307022 -0.80644653 1.84974335e-07 0.0932099676 0.995646474 -1.26951598e-07 0.0932100267 0.995646469 -1.15742733e-07 0.0932099824 0.995646473 -1.25533921e-07 0.0932100341 0.995646468 -1.13926585e-07 0.790459996 -0.61251367 2.26825053e-07 0.790460207 -0.612513397 1.8972921e-07 0.790460076 -0.612513566 2.21096729e-07 0.790460207 -0.612513397 1.8617704e-07 -0.85269823 0.522403799 -1.66614915e-07 -0.852698299 0.522403686 -1.86850224e-07 -0.85269823 0.522403799 -1.69729096e-07 -0.852698299 0.522403686 -1.89431441e-07 0.156023116 -0.987753404 -2.08041484e-08 -0.083070189 -0.996543699 -1.10486434e-07 -0.0830700411 -0.996543711 -8.83753869e-08 0.1983851 -0.980124151 -1.35846315e-08 0.38633378 -0.922359046 5.07728772e-08 0.386333805 -0.922359036 5.67670222e-08 -0.128032089 -0.991770026 -5.03056928e-08 -0.128032206 -0.991770011 -2.66594502e-08 -0.128032103 -0.991770024 -4.68961896e-08 -0.12803222 -0.991770009 -2.37271898e-08 0.826315119 0.563208065 1.53134337e-07 0.8263151 0.563208093 1.46726067e-07 0.826315119 0.563208065 1.51901091e-07 0.8263151 0.563208093 1.45662367e-07 0.98263598 -0.185543881 2.09102199e-07 0.982635985 -0.185543852 2.05083516e-07 0.98263598 -0.185543881 2.08737307e-07 0.982635985 -0.185543852 2.04821458e-07</float_array>
        <technique_common><accessor source="#vfx_kurp_0020-mesh-normals-array" count="122" stride="3"><param name="X" type="float"/><param name="Y" type="float"/><param name="Z" type="float"/></accessor></technique_common>
      </source>
      <source id="vfx_kurp_0020-mesh-uv0">
        <float_array id="vfx_kurp_0020-mesh-uv0-array" count="244">7.27083445 -0.25 7.27083445 1.25 6.75 -0.25 6.75 1.25 8.83333397 -0.25 8.83333397 1.25 8.57291698 -0.25 8.57291698 1.25 7.79166698 -0.25 7.79166698 1.25 7.27083445 -0.25 7.27083445 1.25 -5.75 1.25 -3.66666651 1.25 -5.75 -0.25 -3.66666651 -0.25 -5.75 1.25 -3.66666651 1.25 -5.75 -0.25 -3.66666651 -0.25 -7.18229151 -0.25 -7.18229151 1.25 -7.3125 -0.25 -7.3125 1.25 -6.79166651 -0.25 -6.79166651 1.25 -7.05208302 -0.25 -7.05208302 1.25 6.75 1.25 6.75 -0.25 7.27083445 1.25 7.27083445 -0.25 7.27083445 1.25 7.27083445 -0.25 7.79166698 1.25 7.79166698 -0.25 -6.79166651 1.25 -5.75 1.25 -6.79166651 -0.25 -5.75 -0.25 -3.66666651 1.25 -5.75 -0.25 -5.75 1.25 -3.66666651 -0.25 4.66666698 -0.25 4.66666698 1.25 6.75 -0.25 6.75 1.25 7.79166698 1.25 6.75 -0.25 6.75 1.25 7.79166698 -0.25 4.66666698 -0.25 4.66666698 1.25 6.75 -0.25 6.75 1.25 7.79166698 1.25 6.75 -0.25 6.75 1.25 7.79166698 -0.25 8.57291698 1.25 8.57291698 -0.25 8.83333397 1.25 8.83333397 -0.25 10.916667 -0.25 8.83333397 1.25 8.83333397 -0.25 10.916667 1.25 7.27083445 -0.25 7.27083445 1.25 6.75 -0.25 6.75 1.25 4.66666698 1.25 6.75 -0.25 6.75 1.25 4.66666698 -0.25 -7.3125 1.25 -7.3125 -0.25 -7.18229151 1.25 -7.18229151 -0.25 -7.18229151 1.25 -7.18229151 -0.25 -7.05208302 1.25 -7.05208302 -0.25 -7.05208302 1.25 -7.05208302 -0.25 -6.79166651 1.25 -6.79166651 -0.25 -7.05208302 -0.25 -7.05208302 1.25 -7.18229151 -0.25 -7.18229151 1.25 -7.18229151 -0.25 -7.18229151 1.25 -7.3125 -0.25 -7.3125 1.25 -7.3125 -0.25 -7.3125 1.25 -7.57291651 -0.25 -7.57291651 1.25 4.66666698 -0.25 4.66666698 1.25 6.75 -0.25 6.75 1.25 7.27083445 1.25 6.75 -0.25 6.75 1.25 7.27083445 -0.25 7.79166698 1.25 7.79166698 -0.25 6.75 1.25 6.75 -0.25 7.27083445 1.25 7.27083445 -0.25 7.27083445 1.25 7.27083445 -0.25 7.79166698 1.25 7.79166698 -0.25 7.79166698 1.25 7.79166698 -0.25 8.3125 1.25 8.3125 -0.25</float_array>
        <technique_common><accessor source="#vfx_kurp_0020-mesh-uv0-array" count="122" stride="2"><param name="S" type="float"/><param name="T" type="float"/></accessor></technique_common>
      </source>
      <vertices id="vfx_kurp_0020-mesh-vertices"><input semantic="POSITION" source="#vfx_kurp_0020-mesh-positions"/></vertices>
      <triangles material="PreviewMaterial" count="62">
        <input semantic="VERTEX" source="#vfx_kurp_0020-mesh-vertices" offset="0"/>
        <input semantic="NORMAL" source="#vfx_kurp_0020-mesh-normals" offset="1"/>
        <input semantic="TEXCOORD" source="#vfx_kurp_0020-mesh-uv0" offset="2" set="0"/>
        <p>0 0 0 1 1 1 2 2 2 3 3 3 2 2 2 1 1 1 4 4 4 5 5 5 6 6 6 7 7 7 6 6 6 5 5 5 8 8 8 9 9 9 10 10 10 11 11 11 10 10 10 9 9 9 12 12 12 13 13 13 14 14 14 15 15 15 14 14 14 13 13 13 16 16 16 17 17 17 18 18 18 19 19 19 18 18 18 17 17 17 20 20 20 21 21 21 22 22 22 23 23 23 22 22 22 21 21 21 24 24 24 25 25 25 26 26 26 27 27 27 26 26 26 25 25 25 28 28 28 29 29 29 30 30 30 31 31 31 30 30 30 29 29 29 32 32 32 33 33 33 34 34 34 35 35 35 34 34 34 33 33 33 36 36 36 37 37 37 38 38 38 38 38 38 37 37 37 39 39 39 40 40 40 41 41 41 42 42 42 41 41 41 40 40 40 43 43 43 44 44 44 45 45 45 46 46 46 47 47 47 46 46 46 45 45 45 48 48 48 49 49 49 50 50 50 49 49 49 48 48 48 51 51 51 52 52 52 53 53 53 54 54 54 55 55 55 54 54 54 53 53 53 56 56 56 57 57 57 58 58 58 57 57 57 56 56 56 59 59 59 60 60 60 61 61 61 62 62 62 63 63 63 62 62 62 61 61 61 64 64 64 65 65 65 66 66 66 65 65 65 64 64 64 67 67 67 68 68 68 69 69 69 70 70 70 71 71 71 70 70 70 69 69 69 72 72 72 73 73 73 74 74 74 73 73 73 72 72 72 75 75 75 76 76 76 77 77 77 78 78 78 79 79 79 78 78 78 77 77 77 80 80 80 81 81 81 82 82 82 83 83 83 82 82 82 81 81 81 84 84 84 85 85 85 86 86 86 87 87 87 86 86 86 85 85 85 88 88 88 89 89 89 90 90 90 91 91 91 90 90 90 89 89 89 92 92 92 93 93 93 94 94 94 95 95 95 94 94 94 93 93 93 96 96 96 97 97 97 98 98 98 99 99 99 98 98 98 97 97 97 100 100 100 101 101 101 102 102 102 103 103 103 102 102 102 101 101 101 104 104 104 105 105 105 106 106 106 105 105 105 104 104 104 107 107 107 108 108 108 107 107 107 104 104 104 107 107 107 108 108 108 109 109 109 110 110 110 111 111 111 112 112 112 113 113 113 112 112 112 111 111 111 114 114 114 115 115 115 116 116 116 117 117 117 116 116 116 115 115 115 118 118 118 119 119 119 120 120 120 121 121 121 120 120 120 119 119 119</p>
      </triangles>
    </mesh></geometry>
  </library_geometries>
  <library_visual_scenes>
    <visual_scene id="Scene" name="Scene">
      <node id="vfx_kurp_0020" name="vfx_kurp_0020" type="NODE">
        <instance_geometry url="#vfx_kurp_0020-mesh"><bind_material><technique_common><instance_material symbol="PreviewMaterial" target="#PreviewMaterial"><bind_vertex_input semantic="UVSET0" input_semantic="TEXCOORD" input_set="0"/></instance_material></technique_common></bind_material></instance_geometry>
      </node>
    </visual_scene>
  </library_visual_scenes>
  <scene><instance_visual_scene url="#Scene"/></scene>
</COLLADA>
