<?xml version="1.0" encoding="utf-8"?>
<COLLADA xmlns="http://www.collada.org/2005/11/COLLADASchema" version="1.4.1">
  <asset>
    <contributor><authoring_tool>Morrobroom Kurpulio VFX preview converter</authoring_tool></contributor>
    <unit name="unit" meter="1"/>
    <up_axis>Z_UP</up_axis>
  </asset>
  <library_images>
    <image id="VFXTexture" name="darkmap_newgen-1.dds">
      <init_from>../../../Textures/Kurp/darkmap_newgen-1.dds</init_from>
    </image>
  </library_images>
  <library_effects>
    <effect id="PreviewEffect">
      <profile_COMMON>
        <newparam sid="VFXTexture-surface">
          <surface type="2D"><init_from>VFXTexture</init_from></surface>
        </newparam>
        <newparam sid="VFXTexture-sampler">
          <sampler2D><source>VFXTexture-surface</source></sampler2D>
        </newparam>
        <technique sid="common"><phong>
          <emission><color>0.08 0.08 0.08 1</color></emission>
          <ambient><color>0.2 0.2 0.2 1</color></ambient>
          <diffuse><texture texture="VFXTexture-sampler" texcoord="UVSET0"/></diffuse>
          <specular><color>0.15 0.15 0.15 1</color></specular>
          <shininess><float>8</float></shininess>
          <transparent opaque="A_ONE"><texture texture="VFXTexture-sampler" texcoord="UVSET0"/></transparent>
          <transparency><float>1</float></transparency>
        </phong></technique>
      </profile_COMMON>
      <extra><technique profile="GOOGLEEARTH"><double_sided>1</double_sided></technique></extra>
    </effect>
  </library_effects>
  <library_materials><material id="PreviewMaterial" name="PreviewMaterial"><instance_effect url="#PreviewEffect"/></material></library_materials>
  <library_geometries>
    <geometry id="vfx_kurp_0522-mesh" name="vfx_kurp_0522"><mesh>
      <source id="vfx_kurp_0522-mesh-positions">
        <float_array id="vfx_kurp_0522-mesh-positions-array" count="162">0.24847686 -0.0130381835 -0.0172838663 0.0992764151 0.682970237 -0.056325525 -0.0415131025 -0.814700446 -2.19959569 0.611852868 -0.932652435 -2.62212152 -0.0415131025 -0.814700446 -2.19959569 0.0992764151 0.682970237 -0.056325525 -0.0415131025 -0.814700446 -2.19959569 0.611852868 -0.932652435 -2.62212152 0.190683646 0.559996551 -4.35257558 -0.223951613 0.0244314669 -4.52897925 0.190683646 0.559996551 -4.35257558 0.611852868 -0.932652435 -2.62212152 0.190683646 0.559996551 -4.35257558 -0.223951613 0.0244314669 -4.52897925 0.461855675 -0.215770311 -6.58274159 0.226685156 0.412042179 -6.31546047 0.461855675 -0.215770311 -6.58274159 -0.223951613 0.0244314669 -4.52897925 0.0197896647 -0.674428129 -0.126996642 0.24847686 -0.0130381835 -0.0172838663 -0.491896002 -0.320269117 -1.86517497 -0.0415131025 -0.814700446 -2.19959569 -0.491896002 -0.320269117 -1.86517497 0.24847686 -0.0130381835 -0.0172838663 -0.491896002 -0.320269117 -1.86517497 -0.0415131025 -0.814700446 -2.19959569 0.80665369 0.733415875 -4.10487236 0.190683646 0.559996551 -4.35257558 0.80665369 0.733415875 -4.10487236 -0.0415131025 -0.814700446 -2.19959569 0.80665369 0.733415875 -4.10487236 0.190683646 0.559996551 -4.35257558 0.295489846 -0.909647759 -6.61413341 0.461855675 -0.215770311 -6.58274159 0.295489846 -0.909647759 -6.61413341 0.190683646 0.559996551 -4.35257558 0.442610424 0.556438521 -8.55928292 0.442610424 0.556438521 -8.55928292 1.08061244 0.490530686 -8.31400586 0.442610424 0.556438521 -8.55928292 0.226685156 0.412042179 -6.31546047 0.0422008573 -0.411304173 -10.4415384 0.442610424 0.556438521 -8.55928292 1.08061244 0.490530686 -8.31400586 0.311116293 0.250264665 -10.5882702 0.442610424 0.556438521 -8.55928292 0.0422008573 -0.411304173 -10.4415384 0.881602162 0.643509551 -10.9319603 0.442610424 0.556438521 -8.55928292 0.311116293 0.250264665 -10.5882702 -0.0347491725 1.01372068 -8.77050489 0.442610424 0.556438521 -8.55928292 0.881602162 0.643509551 -10.9319603 0.295489846 -0.909647759 -6.61413341</float_array>
        <technique_common><accessor source="#vfx_kurp_0522-mesh-positions-array" count="54" stride="3"><param name="X" type="float"/><param name="Y" type="float"/><param name="Z" type="float"/></accessor></technique_common>
      </source>
      <source id="vfx_kurp_0522-mesh-normals">
        <float_array id="vfx_kurp_0522-mesh-normals-array" count="162">-0.960430199 -0.194712318 0.199150559 -0.960430189 -0.194712365 0.199150565 -0.960430197 -0.194712318 0.199150573 -0.210276885 0.807806739 -0.550664965 -0.21027686 0.807806789 -0.550664902 -0.210276893 0.807806765 -0.550664923 0.461929712 0.724094855 0.512159723 0.461929714 0.724094872 0.512159697 0.461929712 0.724094855 0.512159723 0.746261614 -0.40333777 -0.529539655 0.746261616 -0.403337767 -0.529539655 0.746261614 -0.40333777 -0.529539655 0.700036881 -0.64376537 0.309054226 0.700036881 -0.64376537 0.309054226 0.700036906 -0.643765354 0.309054202 -0.941025841 -0.260670541 -0.215687821 -0.943995464 -0.277827119 -0.178001841 -0.931270601 -0.227790967 -0.284334913 -0.910204705 0.261435511 0.321214678 -0.910204705 0.261435511 0.321214678 -0.910204705 0.261435511 0.321214678 0.562520193 0.749083562 -0.349921205 0.562520193 0.749083562 -0.349921205 0.562520193 0.749083562 -0.349921205 0.758101549 0.298337653 0.579893686 0.75810155 0.29833761 0.579893706 0.75810155 0.29833761 0.579893706 0.407126181 -0.78911171 -0.459946717 0.407126181 -0.78911171 -0.459946717 0.407126177 -0.789111699 -0.45994674 0.0166319616 -0.83803772 0.545358743 0.0166319876 -0.838037703 0.545358767 0.0166319876 -0.838037703 0.545358767 -0.970632109 0.235040959 -0.0512743274 -0.970652423 0.23503054 -0.0509364268 -0.951100535 0.237000031 -0.198087752 -0.968717601 0.227808946 0.0984342066 -0.945264376 -0.306947995 -0.110716705 0.075351964 0.994607721 0.0712570167 0.0753519918 0.994607719 0.0712570181 0.0753519916 0.994607718 0.0712570255 0.272353337 0.830933185 -0.485153276 0.27235333 0.830933188 -0.485153276 0.272353333 0.8309332 -0.485153254 0.926146552 -0.377151026 -0.00310945908 0.92614655 -0.377151029 -0.00310945912 0.92614655 -0.377151029 -0.00310945912 0.598467763 -0.796992617 0.0814806983 0.598467742 -0.796992633 0.0814806969 0.598467763 -0.796992617 0.0814806983 0.590221651 0.751862346 0.293839097 0.526214834 0.741551673 0.416171917 0.649371516 0.746025082 0.147523599 0.426803996 0.706376137 0.564686729</float_array>
        <technique_common><accessor source="#vfx_kurp_0522-mesh-normals-array" count="54" stride="3"><param name="X" type="float"/><param name="Y" type="float"/><param name="Z" type="float"/></accessor></technique_common>
      </source>
      <source id="vfx_kurp_0522-mesh-uv0">
        <float_array id="vfx_kurp_0522-mesh-uv0-array" count="108">0.5 1 1 1 0.5 0.800000012 1 0.800000012 0.5 0.800000012 1 1 0.5 0.800000012 1 0.800000012 0.5 0.600000024 1 0.600000024 0.5 0.600000024 1 0.800000012 0.5 0.600000024 1 0.600000024 0.5 0.399999976 1 0.399999976 0.5 0.399999976 1 0.600000024 0 1 0.5 1 0 0.800000012 0.5 0.800000012 0 0.800000012 0.5 1 0 0.800000012 0.5 0.800000012 0 0.600000024 0.5 0.600000024 0 0.600000024 0.5 0.800000012 0 0.600000024 0.5 0.600000024 0 0.399999976 0.5 0.399999976 0 0.399999976 0.5 0.600000024 0.5 0.199999988 0.5 0.199999988 1 0.199999988 0.5 0.199999988 1 0.399999976 1 0 0.5 0.199999988 1 0.199999988 0.5 0 0.5 0.199999988 1 0 0 0 0.5 0.199999988 0.5 0 0 0.199999988 0.5 0.199999988 0 0 0 0.399999976</float_array>
        <technique_common><accessor source="#vfx_kurp_0522-mesh-uv0-array" count="54" stride="2"><param name="S" type="float"/><param name="T" type="float"/></accessor></technique_common>
      </source>
      <vertices id="vfx_kurp_0522-mesh-vertices"><input semantic="POSITION" source="#vfx_kurp_0522-mesh-positions"/></vertices>
      <triangles material="PreviewMaterial" count="20">
        <input semantic="VERTEX" source="#vfx_kurp_0522-mesh-vertices" offset="0"/>
        <input semantic="NORMAL" source="#vfx_kurp_0522-mesh-normals" offset="1"/>
        <input semantic="TEXCOORD" source="#vfx_kurp_0522-mesh-uv0" offset="2" set="0"/>
        <p>0 0 0 1 1 1 2 2 2 3 3 3 4 4 4 5 5 5 6 6 6 7 7 7 8 8 8 9 9 9 10 10 10 11 11 11 12 12 12 13 13 13 14 14 14 15 15 15 16 16 16 17 17 17 18 18 18 19 19 19 20 20 20 21 21 21 22 22 22 23 23 23 24 24 24 25 25 25 26 26 26 27 27 27 28 28 28 29 29 29 30 30 30 31 31 31 32 32 32 33 33 33 34 34 34 35 35 35 34 34 34 33 33 33 36 36 36 15 15 15 37 37 37 16 16 16 38 38 38 39 39 39 40 40 40 41 41 41 42 42 42 43 43 43 44 44 44 45 45 45 46 46 46 47 47 47 48 48 48 49 49 49 50 50 50 51 51 51 52 52 52 51 51 51 50 50 50 53 53 53</p>
      </triangles>
    </mesh></geometry>
  </library_geometries>
  <library_visual_scenes>
    <visual_scene id="Scene" name="Scene">
      <node id="vfx_kurp_0522" name="vfx_kurp_0522" type="NODE">
        <instance_geometry url="#vfx_kurp_0522-mesh"><bind_material><technique_common><instance_material symbol="PreviewMaterial" target="#PreviewMaterial"><bind_vertex_input semantic="UVSET0" input_semantic="TEXCOORD" input_set="0"/></instance_material></technique_common></bind_material></instance_geometry>
      </node>
    </visual_scene>
  </library_visual_scenes>
  <scene><instance_visual_scene url="#Scene"/></scene>
</COLLADA>
