<?xml version="1.0" encoding="utf-8"?>
<COLLADA xmlns="http://www.collada.org/2005/11/COLLADASchema" version="1.4.1">
  <asset>
    <contributor><authoring_tool>Morrobroom Kurpulio VFX preview converter</authoring_tool></contributor>
    <unit name="unit" meter="1"/>
    <up_axis>Z_UP</up_axis>
  </asset>
  <library_images>
    <image id="VFXTexture" name="darkmap_newgen-1.dds">
      <init_from>../../../Textures/Kurp/darkmap_newgen-1.dds</init_from>
    </image>
  </library_images>
  <library_effects>
    <effect id="PreviewEffect">
      <profile_COMMON>
        <newparam sid="VFXTexture-surface">
          <surface type="2D"><init_from>VFXTexture</init_from></surface>
        </newparam>
        <newparam sid="VFXTexture-sampler">
          <sampler2D><source>VFXTexture-surface</source></sampler2D>
        </newparam>
        <technique sid="common"><phong>
          <emission><color>0.08 0.08 0.08 1</color></emission>
          <ambient><color>0.2 0.2 0.2 1</color></ambient>
          <diffuse><texture texture="VFXTexture-sampler" texcoord="UVSET0"/></diffuse>
          <specular><color>0.15 0.15 0.15 1</color></specular>
          <shininess><float>8</float></shininess>
          <transparent opaque="A_ONE"><texture texture="VFXTexture-sampler" texcoord="UVSET0"/></transparent>
          <transparency><float>1</float></transparency>
        </phong></technique>
      </profile_COMMON>
      <extra><technique profile="GOOGLEEARTH"><double_sided>1</double_sided></technique></extra>
    </effect>
  </library_effects>
  <library_materials><material id="PreviewMaterial" name="PreviewMaterial"><instance_effect url="#PreviewEffect"/></material></library_materials>
  <library_geometries>
    <geometry id="vfx_kurp_0825-mesh" name="vfx_kurp_0825"><mesh>
      <source id="vfx_kurp_0825-mesh-positions">
        <float_array id="vfx_kurp_0825-mesh-positions-array" count="858">0.292721179 0.087398597 4.96811693 0.438065717 0.130794909 5.23247456 0.801666346 -0.804265397 4.80178063 0.968597222 -0.754423937 5.03504899 1.1435704 -0.702181242 5.26584421 0.589548343 0.176023844 5.49052149 0.571379239 1.21422172 5.26584446 0.39640606 1.16197903 5.03504924 0.229475201 1.11213751 4.80178088 0.160428408 0.0478992272 4.69694448 0.0760408573 1.06632578 4.5643636 0.0482587387 0.0144081291 4.41868105 -0.0584446605 1.02617172 4.32111957 -0.0366514625 -0.0109439517 4.13363656 -0.168527032 0.993303837 4.07037388 -0.0874503077 -0.0261112077 3.84299778 -0.248753439 0.969350219 3.81044824 -0.0982227458 -0.0293275486 3.54874325 -0.293670294 0.955939173 3.53966682 -0.0611288057 -0.0182521477 3.23534648 -0.294427549 0.955713172 3.2402591 0.648232002 -0.850077121 4.56436335 0.513746485 -0.890231188 4.32111932 0.403664113 -0.923099069 4.07037363 0.323437706 -0.947052687 3.81044799 0.278520851 -0.960463733 3.53966657 0.277763613 -0.960689791 3.24025885 0.324697271 -0.946676389 2.95131861 0.0245596673 0.00733227007 2.94773288 0.406048386 -0.922386899 2.67304319 0.143095699 0.0427244152 2.68170275 0.508271836 -0.891865441 2.40297077 0.281228288 0.0839674891 2.4290417 -0.247494032 0.969726408 2.95131902 -0.166142917 0.994015897 2.67304359 -0.0639194836 1.02453741 2.40297118 0.427312955 0.127584797 2.18178604 0.0456310272 1.05724655 2.1386403 0.570112893 0.170221365 1.93168621 0.148963024 1.08809906 1.87758849 0.697559807 0.208274083 1.66907416 0.232531092 1.11305047 1.61735489 0.794562189 0.237236622 1.38260933 0.28279 1.12805659 1.35547702 0.840238153 0.250874471 1.06285798 0.286194218 1.1290731 1.08949347 0.811136591 0.242185513 0.715237422 0.230265942 1.11237418 0.820793402 0.617822347 -0.859156301 2.1386399 0.721154274 -0.828303879 1.87758817 0.804722341 -0.803352464 1.61735456 0.854981215 -0.788346236 1.3554767 0.85838545 -0.787329784 1.08949315 0.802457118 -0.804028589 0.820793095 0.69217462 -0.836956223 0.569569764 0.714344028 0.213285602 0.386629071 0.54324911 -0.88142172 0.333484816 0.577455238 0.172413928 0.0867834986 0.371295049 -0.93276298 0.106421147 0.425621924 0.127080301 -0.187867017 0.119983409 1.07944666 0.569570071 -0.0289420655 1.03498105 0.333485122 -0.20089616 0.983639907 0.106421453 -0.333539149 -0.907124522 6.28792902 -0.186522817 -0.869781773 6.55228678 0.0149666908 -1.33448003 6.12159345 0.183817543 -1.29159122 6.35486144 0.360803096 -1.24663623 6.58565682 -0.0332980457 -0.830862085 6.81033369 0.1146171 -0.277414068 6.58565658 -0.0623684446 -0.322369079 6.3548612 -0.231219249 -0.365257847 6.12159254 -0.4673536 -0.941113966 6.01675659 -0.386418108 -0.404678995 5.88417562 -0.580813286 -0.969933231 5.7384935 -0.522450448 -0.439231776 5.64093146 -0.666699733 -0.991748777 5.45344875 -0.633798983 -0.467514759 5.39018592 -0.718082773 -1.00480034 5.16281006 -0.714948139 -0.488127023 5.13026013 -0.728979235 -1.00756821 4.86855568 -0.760381527 -0.499667342 4.85947885 -0.691458591 -0.998037926 4.55515905 -0.76114744 -0.499861995 4.56007119 -0.140232462 -1.37390127 5.88417616 -0.276264794 -1.40845408 5.640932 -0.387612979 -1.43673695 5.39018616 -0.468762154 -1.45734925 5.13026071 -0.514195559 -1.46888952 4.85947942 -0.514961498 -1.46908408 4.56007177 -0.467487982 -1.45702582 4.27113165 -0.604784431 -0.976022517 4.2675456 -0.385201022 -1.43612475 3.99285621 -0.484884903 -0.945567611 4.00151542 -0.281801806 -1.40986099 3.722784 -0.345163515 -0.910077938 3.74885447 -0.713673812 -0.487803577 4.27113126 -0.631387035 -0.466902531 3.99285597 -0.527987627 -0.440638773 3.72278361 -0.197398484 -0.872545241 3.50159889 -0.417177071 -0.412492596 3.4584527 -0.052955935 -0.835856384 3.25149927 -0.312656509 -0.385944071 3.19740114 0.0759568228 -0.803112127 2.98888729 -0.228127286 -0.36447342 2.93716763 0.174075015 -0.778189889 2.70242257 -0.177290181 -0.351560697 2.67528992 0.220276475 -0.766454574 2.38267136 -0.173846691 -0.350686108 2.40930637 0.190840345 -0.773931609 2.03505096 -0.230418155 -0.365055591 2.1406064 -0.170991104 -1.38171477 3.45845328 -0.0664706964 -1.35516626 3.19740153 0.0180588484 -1.33369551 2.93716805 0.0688958175 -1.32078292 2.67529032 0.0723392902 -1.31990828 2.40930678 0.0157678098 -1.3342777 2.14060681 -0.0957831263 -1.36261216 1.88938355 0.092934622 -0.798800105 1.70644266 -0.246421481 -1.40087481 1.65329856 -0.0455286038 -0.833970353 1.40659706 -0.42035327 -1.44505425 1.42623497 -0.199108234 -0.872980192 1.13194663 -0.341969116 -0.393389962 1.88938315 -0.492607428 -0.431652758 1.65329815 -0.66653926 -0.475832048 1.42623456 -4.29195225 -3.17279128 3.60630854 -4.51320293 -3.28814342 3.92144542 -4.35849871 -2.64361142 3.75248801 -4.53709052 -2.7367229 4.10661719 -4.72974064 -3.40103848 4.22969983 -4.71158092 -2.827696 4.45243745 -4.03837398 -2.47670966 2.97073513 -4.17385465 -2.54734454 3.36725616 -4.35710082 -2.07900759 2.92663178 -4.53170413 -2.17003966 3.26983568 -4.7542569 -2.28607075 3.60630865 -4.97550759 -2.40142295 3.92144551 -5.19204529 -2.51431801 4.22969993 -4.06939949 -3.05676013 3.26983556 -3.89479618 -2.96572806 2.92663166 -4.00034483 -2.45688238 2.57561769 -3.80621082 -2.91954264 2.57135316 -4.09358777 -2.50549556 2.2084446 -3.84073125 -2.93754005 2.20074956 -4.29445703 -2.61022128 1.90743441 -3.99342627 -3.01714943 1.85490881 -4.55575207 -2.74645077 1.64186747 -4.21284143 -3.13154414 1.53509936 -4.84199829 -2.89568894 1.36985713 -4.44641094 -3.25331841 1.22214928 -5.11602618 -3.03855693 1.04201188 -4.64156827 -3.35506623 0.896886101 -5.3158885 -3.14275743 0.586986879 -4.74574835 -3.40938165 0.54013936 -4.26851544 -2.03282222 2.57135328 -4.30303593 -2.05081953 2.20075039 -4.45573095 -2.13042891 1.85490964 -4.67514616 -2.2448237 1.5351001 -4.90871516 -2.36659787 1.2221499 -5.10387301 -2.46834572 0.896886844 -5.20805323 -2.52266125 0.540139919 -5.1679041 -2.50172874 0.171454792 -5.32017491 -3.1449919 0.0106775799 -4.70559943 -3.3884492 0.171454721 0.0798681229 -3.00997684 2.87913767 0.0643567822 -2.9916504 3.17619454 -0.449893839 -3.15800772 2.82197335 -0.509244264 -3.08788629 3.20158603 0.107368615 -3.042468 3.46207845 -0.491467187 -3.1088894 3.58716912 -0.168226881 -3.49079161 2.26548648 -0.324949055 -3.30562751 2.51085274 -0.494575548 -3.87915106 2.33161164 -0.608937399 -3.74403463 2.5948523 -0.683427014 -3.65602647 2.87913825 -0.698938332 -3.63770027 3.1761947 -0.65592654 -3.68851763 3.46207826 0.154357775 -3.09798499 2.59485177 0.268719869 -3.2331016 2.33161095 0.00111066549 -3.69086071 2.05229403 0.40334507 -3.3921588 2.07960029 0.169989727 -3.89038792 1.84489805 0.538625035 -3.5519894 1.82900296 0.326168048 -4.07490972 1.61768451 0.6549506 -3.68942598 1.57000406 0.453890401 -4.22581118 1.33697555 0.732713037 -3.78130071 1.29278655 0.522262072 -4.30659073 0.969102148 0.751511864 -3.80351124 0.99279681 0.496883059 -4.27660602 0.574067321 0.697443542 -3.73963052 0.707419371 0.409380795 -4.17322371 0.210855752 0.590610562 -3.61340944 0.439123905 -0.35995026 -4.03820824 2.0796009 -0.224670227 -4.19803907 1.82900357 -0.108344505 -4.33547559 1.5700045 -0.0305820771 -4.42735033 1.29278697 -0.0117833093 -4.44956088 0.992796976 -0.065851564 -4.38568013 0.707419341 -0.172684518 -4.2594593 0.439123824 -0.306977069 -4.10079514 0.179717989 0.303056245 -4.04760325 -0.116683977 0.456318155 -3.45474548 0.179718072 -4.68937535 -0.554050698 3.01446465 -4.62750118 -0.601350751 3.38355679 -4.21246944 -0.289260722 2.92349487 -4.08693181 -0.385228465 3.38300205 -4.68128745 -0.560233376 3.74284343 -4.11007261 -0.367538493 3.86631757 -4.68171962 0.0694602771 2.29064871 -4.43177057 -0.121614573 2.57495958 -4.44330256 0.516563923 2.36103738 -4.23890056 0.360307773 2.67722448 -4.08205111 0.240403413 3.01446488 -4.02017729 0.193103571 3.38355671 -4.07396359 0.234220624 3.7428432 -4.84622442 -0.434146162 2.677224 -5.05062645 -0.27788996 2.36103688 -4.92509329 0.255508674 2.02165037 -5.25548404 -0.121285512 2.0467331 -5.12874637 0.411192086 1.72533208 -5.41370177 -0.00033534132 1.71513978 -5.24957229 0.503558203 1.34771862 -5.47799536 0.0488143097 1.34807337 -5.22095545 0.481681929 0.916510889 -5.40643547 -0.00588968208 0.988310767 -5.07933947 0.373422827 0.509092433 -5.23452733 -0.137306078 0.654966026 -4.91270636 0.246039448 0.139894057 -5.02746093 -0.295598814 0.33941767 -4.75737361 0.127294416 -0.209410007 -4.82663629 -0.449120117 0.038161884 -4.64816015 0.673168372 2.04673361 -4.80637764 0.794118739 1.71513988 -4.8706713 0.843268368 1.34807338 -4.79911174 0.788564403 0.988310417 -4.62720328 0.657148103 0.654965705 -4.42013703 0.498855323 0.339417167 -4.21931237 0.345333963 0.0381613808 -4.01848767 0.191812489 -0.263094405 -4.60290832 0.00921262859 -0.559630224 -4.62581161 -0.602641534 -0.263093902 -3.18325684 -0.452428667 7.16372254 -3.40883628 -0.229056515 7.56445249 -2.69984289 -0.227456521 7.31044401 -2.89093357 -0.0382357463 7.74962442 -3.63441572 -0.00568402139 7.9651833 -3.08281851 0.151771899 8.18792059 -2.31297511 -0.610538735 6.37009475 -2.50400066 -0.421382377 6.86006113 -2.02700106 -0.19005887 6.31428726 -2.24893694 0.0297056608 6.75343838 -2.47963447 0.2581459 7.16372217 -2.70521375 0.481518067 7.5644523 -2.93079353 0.704890399 7.96518341 -2.95255931 -0.68086892 6.75343876 -2.73062323 -0.900633355 6.31428714 -2.21328537 -0.709253007 5.86898604 -2.59424713 -1.03567513 5.86014932 -2.27524763 -0.647896999 5.38907142 -2.60966614 -1.02040672 5.38137656 -2.48329711 -0.441882573 4.99419273 -2.78107927 -0.850670295 4.93773209 -2.75931508 -0.168565396 4.63500362 -3.02149355 -0.612608036 4.52836002 -3.03331727 0.102756261 4.22752591 -3.238363 -0.397860111 4.11113967 -3.20776555 0.275498215 3.65305743 -3.33910077 -0.298107741 3.64425679 -3.12997898 0.198472789 2.98809744 -3.2444709 -0.391811599 3.17992779 -1.8906249 -0.325100304 5.86014961 -1.90604367 -0.309832172 5.38137704 -2.07745715 -0.140095845 4.93773287 -2.31787106 0.0979664434 4.5283605 -2.53474063 0.312714489 4.11114005 -2.63547854 0.412466816 3.64425699 -2.54084879 0.318762982 3.17992786 -3.20776555 0.275498215 3.65305743 -2.63547854 0.412466816 3.64425699 -3.12997898 0.198472789 2.98809744 -2.31662217 0.0967303574 2.75374448 -2.91976037 -0.00968896156 2.45756304 -2.91976037 -0.00968896156 2.45756304 -3.02024426 -0.613844158 2.75374445</float_array>
        <technique_common><accessor source="#vfx_kurp_0825-mesh-positions-array" count="286" stride="3"><param name="X" type="float"/><param name="Y" type="float"/><param name="Z" type="float"/></accessor></technique_common>
      </source>
      <source id="vfx_kurp_0825-mesh-normals">
        <float_array id="vfx_kurp_0825-mesh-normals-array" count="858">0.841479345 0.237321237 -0.485377319 0.822593237 0.231913143 -0.519188464 0.671504315 0.501169065 -0.545812718 0.634213288 0.522940676 -0.569479196 0.610725734 0.534701079 -0.584045233 0.815293487 0.230298751 -0.531280543 0.814970689 -0.0826139669 -0.573583218 0.816245395 -0.0629426055 -0.574266213 0.83485233 -0.0233154475 -0.549979979 0.868388012 0.245083266 -0.431087523 0.86204468 0.020351373 -0.506423529 0.900256216 0.254282352 -0.353382556 0.895534417 0.0673055069 -0.439872796 0.931791637 0.263325837 -0.249847653 0.930741548 0.116079677 -0.346764586 0.955278242 0.269895367 -0.120830343 0.960219854 0.164319888 -0.225780438 0.961958251 0.271505385 0.0303504547 0.975078021 0.209004642 -0.0744305934 0.943443796 0.265414601 0.198667798 0.964269482 0.24736261 0.094847798 0.718229556 0.480750434 -0.503016227 0.772123926 0.461046913 -0.437333268 0.82862313 0.440751408 -0.345140413 0.880274514 0.417711007 -0.225020656 0.918097745 0.389324242 -0.0743179992 0.931129952 0.352238673 0.0944718498 0.920266284 0.307571148 0.241888313 0.90266463 0.252507676 0.348477315 0.903043468 0.260263152 0.341724432 0.861423115 0.239711732 0.447759426 0.893871231 0.214812273 0.393509733 0.834920934 0.231622337 0.499257576 0.929203128 0.279150451 0.242191188 0.887465924 0.309406547 0.341572572 0.853582034 0.342290167 0.392727836 0.830368434 0.230398617 0.507350708 0.834980022 0.379803176 0.398193309 0.84987059 0.236706656 0.47083961 0.833198866 0.422148166 0.357170233 0.89002603 0.249564849 0.381537746 0.843460931 0.467627233 0.26438311 0.936742019 0.264644568 0.229079993 0.851443628 0.511749321 0.114701264 0.961812364 0.273135949 0.0177124089 0.832863438 0.547181182 -0.0832541103 0.941705903 0.267400642 -0.204173673 0.770794477 0.568893997 -0.286767318 0.900093024 0.173666679 0.399590332 0.923165739 0.137502314 0.358968148 0.958195699 0.10506858 0.266123272 0.990663108 0.0722201347 0.115632425 0.99595192 0.0318331099 -0.0840620325 0.956826795 -0.0208481465 -0.289910053 0.89152551 -0.0800093808 -0.445848365 0.892089138 0.252147362 -0.374964902 0.834482267 -0.135608747 -0.534087645 0.846366553 0.237773743 -0.476578751 0.817742725 -0.16235423 -0.552211862 0.827925387 0.23270044 -0.510284292 0.683587746 0.581881936 -0.440591881 0.605445543 0.596301894 -0.527124032 0.562836481 0.605128655 -0.563058085 0.848096034 0.196389152 -0.492102041 0.828853076 0.192455468 -0.525322254 0.561267206 0.671338155 -0.484029137 0.509885111 0.703866344 -0.494559747 0.474103194 0.721832374 -0.504166823 0.821283969 0.19214785 -0.537188837 0.786259345 -0.371911278 -0.493435146 0.792160296 -0.341843127 -0.505594048 0.821106201 -0.285653424 -0.494152536 0.875654139 0.20233306 -0.43851016 0.857841772 -0.221931815 -0.463523207 0.908490387 0.20953019 -0.36158307 0.900004997 -0.151073948 -0.408861428 0.941309425 0.216650282 -0.25884208 0.942622394 -0.0743612222 -0.325474164 0.966329583 0.221746539 -0.130520532 0.977435207 0.00579002499 -0.211156084 0.974614087 0.22296961 0.0202961807 0.994317861 0.0855157414 -0.0633959696 0.9576664 0.217551539 0.188537514 0.981034248 0.162808437 0.10519134 0.623208321 0.636197058 -0.454823803 0.69366756 0.597621561 -0.402086789 0.767954192 0.554262189 -0.320998109 0.83795958 0.504106746 -0.209045765 0.893402014 0.444812723 -0.0630434994 0.921855659 0.373328646 0.103960888 0.922487704 0.292527078 0.251881607 0.918169102 0.206000386 0.33842184 0.91293251 0.206862691 0.351798321 0.877620546 0.194865903 0.437960567 0.907626792 0.121604681 0.401778431 0.851344046 0.188115352 0.489720257 0.938502181 0.235254488 0.252723135 0.884990779 0.305883261 0.351036681 0.835888887 0.37704338 0.398908585 0.846665952 0.187562937 0.497972801 0.799249482 0.449169837 0.399307804 0.865721746 0.193762748 0.461499573 0.776901868 0.521204866 0.35322652 0.905047885 0.205840821 0.372179906 0.764307016 0.590745492 0.258562468 0.950429152 0.219936314 0.219800919 0.748114955 0.653620517 0.114473725 0.97357469 0.228200022 0.00877909147 0.706857306 0.704204516 -0.0666989418 0.951202253 0.22368166 -0.212557733 0.627507597 0.739598607 -0.243368272 0.913816645 0.0403858864 0.404113993 0.932627345 -0.0348910251 0.359150179 0.958830944 -0.10426976 0.26414208 0.978315031 -0.170418854 0.117716244 0.968813022 -0.238339939 -0.0677893968 0.91710139 -0.310727693 -0.249746553 0.842754062 -0.382303634 -0.378958471 0.899612884 0.210719322 -0.382484021 0.777322581 -0.446012891 -0.443668915 0.852655033 0.198622704 -0.48324778 0.756072011 -0.478119953 -0.446941187 0.833707903 0.195449745 -0.51645961 0.529296195 0.764320058 -0.368321038 0.443054534 0.78652261 -0.430214904 0.392018231 0.799120968 -0.455771199 -0.844613583 0.0096040378 -0.535290255 -0.846581267 0.107913329 -0.521205211 -0.77536143 -0.370839424 -0.511168049 -0.770248799 -0.370274104 -0.519243562 -0.859739098 0.159423309 -0.485214275 -0.76876103 -0.373617506 -0.519053405 -0.869114215 -0.414989643 -0.269117219 -0.806842517 -0.385612375 -0.447558096 -0.690725407 -0.635916791 -0.344250269 -0.542529113 -0.684129247 -0.487472394 -0.431298133 -0.736204515 -0.52152165 -0.352866578 -0.787348106 -0.505537474 -0.295269954 -0.81132022 -0.504554411 -0.86007756 -0.116674895 -0.496642286 -0.897425357 -0.271463727 -0.347757347 -0.902276539 -0.428290299 0.0496433955 -0.905030476 -0.422642523 -0.0478866919 -0.825688079 -0.384553519 0.412744216 -0.795256457 -0.518906874 0.31353281 -0.694025017 -0.315704046 0.64703959 -0.610611922 -0.571878728 0.547820957 -0.623270984 -0.282681909 0.729125654 -0.466667387 -0.635947113 0.614648533 -0.645538452 -0.300542819 0.702106916 -0.400272492 -0.72507885 0.560395033 -0.754733239 -0.365360286 0.544875765 -0.398368825 -0.829238297 0.392002712 -0.876817078 -0.435557386 0.203670262 -0.391713312 -0.914525742 0.101011627 -0.823160341 -0.56574327 -0.0483901356 -0.847366503 -0.428268218 0.313936845 -0.793092072 -0.248012289 0.556322631 -0.770835997 -0.0893057662 0.630742694 -0.814323031 0.0223153227 0.579982782 -0.908089703 0.0906003532 0.408857759 -0.982801999 0.15111984 0.106127394 -0.979742234 0.194021442 -0.0496068052 -0.89346103 -0.448935987 -0.0135597287 -0.346173279 -0.933774664 -0.0907134952 0.269344723 -0.932084925 0.242221205 0.193206356 -0.980515531 -0.0355048957 0.582944973 -0.729395926 0.357989861 0.627596844 -0.776696762 0.0535195472 0.133727759 -0.98025894 -0.14563412 0.628101205 -0.77236629 -0.0945472928 0.42167935 -0.556436112 0.715936715 0.495335411 -0.63487698 0.592936802 0.677515135 -0.415970712 0.606581906 0.79661392 -0.385938007 0.465250597 0.902238085 -0.362857679 0.233025198 0.953822066 -0.29822081 -0.0358861397 0.955208165 -0.231141517 -0.184799784 0.312889056 -0.820182492 0.478958368 0.364529164 -0.696241335 0.6183579 0.391102954 -0.525671956 0.755451835 0.448897147 -0.594093841 0.667490719 0.407935825 -0.546957103 0.731044657 0.567805261 -0.524930992 0.634069901 0.472621518 -0.619695765 0.626582843 0.7105061 -0.488352955 0.506648273 0.565962451 -0.721323018 0.399223757 0.846533591 -0.459701517 0.268431359 0.622413628 -0.780785771 0.0545422338 0.92398743 -0.379300451 -0.0487688182 0.601998222 -0.754749858 -0.260673728 0.922491214 -0.231543844 -0.30886471 0.561178127 -0.707008121 -0.430370336 0.902088462 -0.0850836868 -0.423080575 0.572433721 -0.483896352 0.66193954 0.49175279 -0.594245797 0.63643627 0.436349582 -0.737660039 0.515224911 0.385905321 -0.879906373 0.277203639 0.292292537 -0.955007854 -0.0502500929 0.142545134 -0.936355983 -0.320808913 -0.00525973273 -0.896638016 -0.442733107 -0.0710346117 -0.893337752 -0.44373612 0.548779634 -0.686278477 -0.47734973 0.888106612 0.000210129666 -0.459637468 -0.427715072 0.830326914 0.357235263 -0.395031697 0.917918007 0.0371010923 -0.692681523 0.559799191 0.454771561 -0.777368217 0.619857425 0.107123423 -0.342435173 0.932851146 -0.111923601 -0.780853755 0.619246736 -0.0824675238 -0.52653631 0.446687699 0.723346124 -0.57793904 0.479634919 0.66025511 -0.728626886 0.248778713 0.638131658 -0.812655854 0.173586713 0.556289598 -0.927672838 0.141456388 0.345562146 -0.99533769 0.0897966032 0.0352058514 -0.988105079 0.0282759683 -0.151158272 -0.429818687 0.699764989 0.570600435 -0.481329514 0.588812091 0.649324434 -0.559598158 0.475871571 0.67852498 -0.604448329 0.518518482 0.604798149 -0.668848621 0.558937419 0.49013313 -0.778404333 0.482482837 0.401617986 -0.7676811 0.630637084 0.113853402 -0.909640851 0.414780234 0.022602657 -0.742144262 0.608461522 -0.281063108 -0.904756442 0.255551986 -0.340747654 -0.676840559 0.558711432 -0.479299899 -0.86234696 0.082589205 -0.499536529 -0.658146657 0.544231281 -0.520245414 -0.859150688 -0.0411091516 -0.510068753 -0.661862262 0.544311195 -0.515425717 -0.868432794 -0.13314683 -0.477594393 -0.70168098 0.384295846 0.599967087 -0.719845547 0.564830173 0.403471516 -0.695911764 0.717772012 0.02258663 -0.543096098 0.763989471 -0.34837726 -0.363802613 0.776077448 -0.515122756 -0.241792175 0.812463512 -0.530508799 -0.152677387 0.852791879 -0.499435307 -0.11027838 0.882463813 -0.457270487 -0.665704843 0.540712285 -0.51426383 -0.859120549 -0.196800561 -0.47242081 -0.238725845 0.802570169 -0.546709333 -0.151257163 0.839665365 -0.52161609 -0.576222766 0.60797383 -0.546200646 -0.577794769 0.606403725 -0.546285391 -0.102743643 0.868190389 -0.485478312 -0.579602452 0.604091844 -0.546931478 -0.628092302 0.663140056 -0.407118319 -0.58390768 0.617357112 -0.527183096 -0.781112724 0.436732382 -0.446237312 -0.791624332 0.287498133 -0.539143525 -0.825249557 0.183168877 -0.534239956 -0.855760853 0.0983999237 -0.507927964 -0.862712405 0.0339361196 -0.504554899 -0.344018667 0.761900373 -0.548779536 -0.495123685 0.743096378 -0.450178086 -0.685142928 0.724024765 -0.0797954144 -0.667934503 0.730440444 -0.142549142 -0.635806387 0.679342197 0.366393801 -0.736254386 0.606591348 0.299960691 -0.520116997 0.563701333 0.641653424 -0.714946564 0.399926625 0.573506849 -0.494051388 0.532174334 0.687534511 -0.754240208 0.264954741 0.600766754 -0.587787759 0.616134322 0.524293857 -0.876436604 0.232458393 0.421689429 -0.823346523 0.534733031 0.19016069 -0.979778583 0.197004496 0.0349736698 -0.950334473 0.111000827 -0.290763144 -0.94658865 0.0546044074 -0.317786542 -0.779903229 0.609466927 -0.142481641 -0.665529117 0.683448618 0.299948297 -0.460752915 0.670791798 0.581158426 -0.324307793 0.71945867 0.614169095 -0.28999848 0.852363881 0.435174329 -0.264403361 0.914781207 0.305395162 -0.111878411 0.937995864 -0.328095994 -0.187977159 0.966162427 -0.176620364 -0.229564343 0.943928575 -0.237274226 -0.0754508253 0.955653362 -0.284664408 -0.00721712764 0.907868893 -0.419192064 0.012672579 0.932530585 -0.360868556 -0.912131348 0.000216639459 -0.409897983 -0.896734018 -0.0654351558 -0.43770577</float_array>
        <technique_common><accessor source="#vfx_kurp_0825-mesh-normals-array" count="286" stride="3"><param name="X" type="float"/><param name="Y" type="float"/><param name="Z" type="float"/></accessor></technique_common>
      </source>
      <source id="vfx_kurp_0825-mesh-uv0">
        <float_array id="vfx_kurp_0825-mesh-uv0-array" count="572">0.500000119 1.9000001 0.500000119 1.95000005 1.00000012 1.89999998 1.00000012 1.94999993 1.00000012 2 0.500000119 2 1.1920929e-07 2 1.13248824e-07 1.95000005 1.07288365e-07 1.9000001 0.500000119 1.85000002 1.01327899e-07 1.85000014 0.500000119 1.79999995 9.53674331e-08 1.80000007 0.500000119 1.75 8.94069672e-08 1.75 0.50000006 1.70000005 8.34465013e-08 1.70000005 0.50000006 1.6500001 7.74860425e-08 1.6500001 0.50000006 1.60000002 7.15255766e-08 1.60000014 1.00000012 1.85000002 1.00000012 1.79999995 1.00000012 1.75 1.00000012 1.69999993 1.00000012 1.64999998 1.00000012 1.60000002 1.00000012 1.54999995 0.50000006 1.54999995 1 1.5 0.50000006 1.5 1 1.45000005 0.50000006 1.45000005 6.55651107e-08 1.55000007 5.96046448e-08 1.5 5.3644186e-08 1.45000005 0.50000006 1.39999998 4.7683713e-08 1.4000001 0.50000006 1.35000002 4.17232542e-08 1.35000014 0.50000006 1.29999995 3.57627883e-08 1.30000007 0.5 1.25 2.98023224e-08 1.25 0.5 1.20000005 2.38418565e-08 1.20000005 0.5 1.14999998 1.78813906e-08 1.1500001 1 1.39999998 1 1.35000002 1 1.29999995 1 1.25 1 1.19999993 1 1.14999998 1 1.10000002 0.5 1.10000002 1 1.04999995 0.5 1.05000007 1 1 0.5 1 1.19209318e-08 1.10000014 5.9604659e-09 1.05000007 0 1 0.500000119 1.9000001 0.500000119 1.95000005 1.00000012 1.89999998 1.00000012 1.94999993 1.00000012 2 0.500000119 2 1.1920929e-07 2 1.13248824e-07 1.95000005 1.07288365e-07 1.9000001 0.500000119 1.85000002 1.01327899e-07 1.85000014 0.500000119 1.79999995 9.53674331e-08 1.80000007 0.500000119 1.75 8.94069672e-08 1.75 0.50000006 1.70000005 8.34465013e-08 1.70000005 0.50000006 1.6500001 7.74860425e-08 1.6500001 0.50000006 1.60000002 7.15255766e-08 1.60000014 1.00000012 1.85000002 1.00000012 1.79999995 1.00000012 1.75 1.00000012 1.69999993 1.00000012 1.64999998 1.00000012 1.60000002 1.00000012 1.54999995 0.50000006 1.54999995 1 1.5 0.50000006 1.5 1 1.45000005 0.50000006 1.45000005 6.55651107e-08 1.55000007 5.96046448e-08 1.5 5.3644186e-08 1.45000005 0.50000006 1.39999998 4.7683713e-08 1.4000001 0.50000006 1.35000002 4.17232542e-08 1.35000014 0.50000006 1.29999995 3.57627883e-08 1.30000007 0.5 1.25 2.98023224e-08 1.25 0.5 1.20000005 2.38418565e-08 1.20000005 0.5 1.14999998 1.78813906e-08 1.1500001 1 1.39999998 1 1.35000002 1 1.29999995 1 1.25 1 1.19999993 1 1.14999998 1 1.10000002 0.5 1.10000002 1 1.04999995 0.5 1.05000007 1 1 0.5 1 1.19209318e-08 1.10000014 5.9604659e-09 1.05000007 0 1 9.93410794e-08 1.83333349 1.09275184e-07 1.91666675 0.500000119 1.83333337 0.500000119 1.91666675 1.1920929e-07 2 0.500000119 2 0.50000006 1.66666675 0.500000119 1.75 1.00000012 1.66666663 1.00000012 1.75 1.00000012 1.83333337 1.00000012 1.91666663 1.00000012 2 8.94069672e-08 1.75 7.94728621e-08 1.66666675 0.50000006 1.58333337 6.9538757e-08 1.58333349 0.50000006 1.5 5.96046448e-08 1.5 0.50000006 1.41666675 4.96705397e-08 1.41666675 0.50000006 1.33333337 3.97364346e-08 1.33333349 0.5 1.25 2.98023224e-08 1.25 0.5 1.16666675 1.98682173e-08 1.16666675 0.5 1.08333337 9.93410509e-09 1.08333337 1.00000012 1.58333337 1 1.5 1 1.41666663 1 1.33333337 1 1.25 1 1.16666663 1 1.08333325 1 1 0.5 1 0 1 9.93410794e-08 1.83333349 1.09275184e-07 1.91666675 0.500000119 1.83333337 0.500000119 1.91666675 1.1920929e-07 2 0.500000119 2 0.50000006 1.66666675 0.500000119 1.75 1.00000012 1.66666663 1.00000012 1.75 1.00000012 1.83333337 1.00000012 1.91666663 1.00000012 2 8.94069672e-08 1.75 7.94728621e-08 1.66666675 0.50000006 1.58333337 6.9538757e-08 1.58333349 0.50000006 1.5 5.96046448e-08 1.5 0.50000006 1.41666675 4.96705397e-08 1.41666675 0.50000006 1.33333337 3.97364346e-08 1.33333349 0.5 1.25 2.98023224e-08 1.25 0.5 1.16666675 1.98682173e-08 1.16666675 0.5 1.08333337 9.93410509e-09 1.08333337 1.00000012 1.58333337 1 1.5 1 1.41666663 1 1.33333337 1 1.25 1 1.16666663 1 1.08333325 1 1 0.5 1 0 1 9.93410794e-08 1.83333349 1.09275184e-07 1.91666675 0.500000119 1.83333337 0.500000119 1.91666675 1.1920929e-07 2 0.500000119 2 0.50000006 1.66666675 0.500000119 1.75 1.00000012 1.66666663 1.00000012 1.75 1.00000012 1.83333337 1.00000012 1.91666663 1.00000012 2 8.94069672e-08 1.75 7.94728621e-08 1.66666675 0.50000006 1.58333337 6.9538757e-08 1.58333349 0.50000006 1.5 5.96046448e-08 1.5 0.50000006 1.41666675 4.96705397e-08 1.41666675 0.50000006 1.33333337 3.97364346e-08 1.33333349 0.5 1.25 2.98023224e-08 1.25 0.5 1.16666675 1.98682173e-08 1.16666675 0.5 1.08333337 9.93410509e-09 1.08333337 1.00000012 1.58333337 1 1.5 1 1.41666663 1 1.33333337 1 1.25 1 1.16666663 1 1.08333325 1 1 0.5 1 0 1 9.93410794e-08 1.83333349 1.09275184e-07 1.91666675 0.500000119 1.83333337 0.500000119 1.91666675 1.1920929e-07 2 0.500000119 2 0.50000006 1.66666675 0.500000119 1.75 1.00000012 1.66666663 1.00000012 1.75 1.00000012 1.83333337 1.00000012 1.91666663 1.00000012 2 8.94069672e-08 1.75 7.94728621e-08 1.66666675 0.50000006 1.58333337 6.9538757e-08 1.58333349 0.50000006 1.5 5.96046448e-08 1.5 0.50000006 1.41666675 4.96705397e-08 1.41666675 0.50000006 1.33333337 3.97364346e-08 1.33333349 0.5 1.25 2.98023224e-08 1.25 0.5 1.16666675 1.98682173e-08 1.16666675 0.5 1.08333337 9.93410509e-09 1.08333337 1.00000012 1.58333337 1 1.5 1 1.41666663 1 1.33333337 1 1.25 1 1.16666663 1 1.08333325 0.5 1.16666675 1 1.16666663 0.5 1.08333337 1 1 0.5 1 0.5 1 0 1</float_array>
        <technique_common><accessor source="#vfx_kurp_0825-mesh-uv0-array" count="286" stride="2"><param name="S" type="float"/><param name="T" type="float"/></accessor></technique_common>
      </source>
      <vertices id="vfx_kurp_0825-mesh-vertices"><input semantic="POSITION" source="#vfx_kurp_0825-mesh-positions"/></vertices>
      <triangles material="PreviewMaterial" count="352">
        <input semantic="VERTEX" source="#vfx_kurp_0825-mesh-vertices" offset="0"/>
        <input semantic="NORMAL" source="#vfx_kurp_0825-mesh-normals" offset="1"/>
        <input semantic="TEXCOORD" source="#vfx_kurp_0825-mesh-uv0" offset="2" set="0"/>
        <p>0 0 0 1 1 1 2 2 2 3 3 3 2 2 2 1 1 1 4 4 4 3 3 3 5 5 5 1 1 1 5 5 5 3 3 3 5 5 5 1 1 1 6 6 6 6 6 6 1 1 1 7 7 7 0 0 0 7 7 7 1 1 1 7 7 7 0 0 0 8 8 8 9 9 9 8 8 8 0 0 0 8 8 8 9 9 9 10 10 10 11 11 11 10 10 10 9 9 9 10 10 10 11 11 11 12 12 12 13 13 13 12 12 12 11 11 11 12 12 12 13 13 13 14 14 14 15 15 15 14 14 14 13 13 13 14 14 14 15 15 15 16 16 16 17 17 17 16 16 16 15 15 15 16 16 16 17 17 17 18 18 18 19 19 19 18 18 18 17 17 17 18 18 18 19 19 19 20 20 20 21 21 21 0 0 0 2 2 2 0 0 0 21 21 21 9 9 9 22 22 22 9 9 9 21 21 21 9 9 9 22 22 22 11 11 11 23 23 23 11 11 11 22 22 22 11 11 11 23 23 23 13 13 13 24 24 24 13 13 13 23 23 23 13 13 13 24 24 24 15 15 15 25 25 25 15 15 15 24 24 24 15 15 15 25 25 25 17 17 17 26 26 26 17 17 17 25 25 25 17 17 17 26 26 26 19 19 19 27 27 27 19 19 19 26 26 26 19 19 19 27 27 27 28 28 28 29 29 29 28 28 28 27 27 27 28 28 28 29 29 29 30 30 30 31 31 31 30 30 30 29 29 29 32 32 32 30 30 30 31 31 31 19 19 19 28 28 28 20 20 20 20 20 20 28 28 28 33 33 33 30 30 30 33 33 33 28 28 28 33 33 33 30 30 30 34 34 34 32 32 32 34 34 34 30 30 30 34 34 34 32 32 32 35 35 35 36 36 36 35 35 35 32 32 32 35 35 35 36 36 36 37 37 37 38 38 38 37 37 37 36 36 36 37 37 37 38 38 38 39 39 39 40 40 40 39 39 39 38 38 38 39 39 39 40 40 40 41 41 41 42 42 42 41 41 41 40 40 40 41 41 41 42 42 42 43 43 43 44 44 44 43 43 43 42 42 42 43 43 43 44 44 44 45 45 45 46 46 46 45 45 45 44 44 44 45 45 45 46 46 46 47 47 47 48 48 48 32 32 32 31 31 31 32 32 32 48 48 48 36 36 36 49 49 49 36 36 36 48 48 48 36 36 36 49 49 49 38 38 38 50 50 50 38 38 38 49 49 49 38 38 38 50 50 50 40 40 40 51 51 51 40 40 40 50 50 50 40 40 40 51 51 51 42 42 42 52 52 52 42 42 42 51 51 51 42 42 42 52 52 52 44 44 44 53 53 53 44 44 44 52 52 52 44 44 44 53 53 53 46 46 46 54 54 54 46 46 46 53 53 53 46 46 46 54 54 54 55 55 55 56 56 56 55 55 55 54 54 54 55 55 55 56 56 56 57 57 57 58 58 58 57 57 57 56 56 56 59 59 59 57 57 57 58 58 58 46 46 46 55 55 55 47 47 47 47 47 47 55 55 55 60 60 60 57 57 57 60 60 60 55 55 55 60 60 60 57 57 57 61 61 61 59 59 59 61 61 61 57 57 57 61 61 61 59 59 59 62 62 62 63 63 63 64 64 64 65 65 65 66 66 66 65 65 65 64 64 64 67 67 67 66 66 66 68 68 68 64 64 64 68 68 68 66 66 66 68 68 68 64 64 64 69 69 69 69 69 69 64 64 64 70 70 70 63 63 63 70 70 70 64 64 64 70 70 70 63 63 63 71 71 71 72 72 72 71 71 71 63 63 63 71 71 71 72 72 72 73 73 73 74 74 74 73 73 73 72 72 72 73 73 73 74 74 74 75 75 75 76 76 76 75 75 75 74 74 74 75 75 75 76 76 76 77 77 77 78 78 78 77 77 77 76 76 76 77 77 77 78 78 78 79 79 79 80 80 80 79 79 79 78 78 78 79 79 79 80 80 80 81 81 81 82 82 82 81 81 81 80 80 80 81 81 81 82 82 82 83 83 83 84 84 84 63 63 63 65 65 65 63 63 63 84 84 84 72 72 72 85 85 85 72 72 72 84 84 84 72 72 72 85 85 85 74 74 74 86 86 86 74 74 74 85 85 85 74 74 74 86 86 86 76 76 76 87 87 87 76 76 76 86 86 86 76 76 76 87 87 87 78 78 78 88 88 88 78 78 78 87 87 87 78 78 78 88 88 88 80 80 80 89 89 89 80 80 80 88 88 88 80 80 80 89 89 89 82 82 82 90 90 90 82 82 82 89 89 89 82 82 82 90 90 90 91 91 91 92 92 92 91 91 91 90 90 90 91 91 91 92 92 92 93 93 93 94 94 94 93 93 93 92 92 92 95 95 95 93 93 93 94 94 94 82 82 82 91 91 91 83 83 83 83 83 83 91 91 91 96 96 96 93 93 93 96 96 96 91 91 91 96 96 96 93 93 93 97 97 97 95 95 95 97 97 97 93 93 93 97 97 97 95 95 95 98 98 98 99 99 99 98 98 98 95 95 95 98 98 98 99 99 99 100 100 100 101 101 101 100 100 100 99 99 99 100 100 100 101 101 101 102 102 102 103 103 103 102 102 102 101 101 101 102 102 102 103 103 103 104 104 104 105 105 105 104 104 104 103 103 103 104 104 104 105 105 105 106 106 106 107 107 107 106 106 106 105 105 105 106 106 106 107 107 107 108 108 108 109 109 109 108 108 108 107 107 107 108 108 108 109 109 109 110 110 110 111 111 111 95 95 95 94 94 94 95 95 95 111 111 111 99 99 99 112 112 112 99 99 99 111 111 111 99 99 99 112 112 112 101 101 101 113 113 113 101 101 101 112 112 112 101 101 101 113 113 113 103 103 103 114 114 114 103 103 103 113 113 113 103 103 103 114 114 114 105 105 105 115 115 115 105 105 105 114 114 114 105 105 105 115 115 115 107 107 107 116 116 116 107 107 107 115 115 115 107 107 107 116 116 116 109 109 109 117 117 117 109 109 109 116 116 116 109 109 109 117 117 117 118 118 118 119 119 119 118 118 118 117 117 117 118 118 118 119 119 119 120 120 120 121 121 121 120 120 120 119 119 119 122 122 122 120 120 120 121 121 121 109 109 109 118 118 118 110 110 110 110 110 110 118 118 118 123 123 123 120 120 120 123 123 123 118 118 118 123 123 123 120 120 120 124 124 124 122 122 122 124 124 124 120 120 120 124 124 124 122 122 122 125 125 125 126 126 126 127 127 127 128 128 128 128 128 128 127 127 127 129 129 129 130 130 130 129 129 129 127 127 127 129 129 129 130 130 130 131 131 131 132 132 132 133 133 133 134 134 134 134 134 134 133 133 133 135 135 135 128 128 128 135 135 135 133 133 133 135 135 135 128 128 128 136 136 136 129 129 129 136 136 136 128 128 128 136 136 136 129 129 129 137 137 137 131 131 131 137 137 137 129 129 129 137 137 137 131 131 131 138 138 138 133 133 133 126 126 126 128 128 128 126 126 126 133 133 133 139 139 139 132 132 132 139 139 139 133 133 133 139 139 139 132 132 132 140 140 140 141 141 141 140 140 140 132 132 132 140 140 140 141 141 141 142 142 142 143 143 143 142 142 142 141 141 141 142 142 142 143 143 143 144 144 144 145 145 145 144 144 144 143 143 143 144 144 144 145 145 145 146 146 146 147 147 147 146 146 146 145 145 145 146 146 146 147 147 147 148 148 148 149 149 149 148 148 148 147 147 147 148 148 148 149 149 149 150 150 150 151 151 151 150 150 150 149 149 149 150 150 150 151 151 151 152 152 152 153 153 153 152 152 152 151 151 151 154 154 154 152 152 152 153 153 153 155 155 155 132 132 132 134 134 134 132 132 132 155 155 155 141 141 141 156 156 156 141 141 141 155 155 155 141 141 141 156 156 156 143 143 143 157 157 157 143 143 143 156 156 156 143 143 143 157 157 157 145 145 145 158 158 158 145 145 145 157 157 157 145 145 145 158 158 158 147 147 147 159 159 159 147 147 147 158 158 158 147 147 147 159 159 159 149 149 149 160 160 160 149 149 149 159 159 159 149 149 149 160 160 160 151 151 151 161 161 161 151 151 151 160 160 160 151 151 151 161 161 161 153 153 153 162 162 162 153 153 153 161 161 161 163 163 163 153 153 153 162 162 162 153 153 153 163 163 163 154 154 154 164 164 164 154 154 154 163 163 163 165 165 165 166 166 166 167 167 167 167 167 167 166 166 166 168 168 168 169 169 169 168 168 168 166 166 166 168 168 168 169 169 169 170 170 170 171 171 171 172 172 172 173 173 173 173 173 173 172 172 172 174 174 174 167 167 167 174 174 174 172 172 172 174 174 174 167 167 167 175 175 175 168 168 168 175 175 175 167 167 167 175 175 175 168 168 168 176 176 176 170 170 170 176 176 176 168 168 168 176 176 176 170 170 170 177 177 177 172 172 172 165 165 165 167 167 167 165 165 165 172 172 172 178 178 178 171 171 171 178 178 178 172 172 172 178 178 178 171 171 171 179 179 179 180 180 180 179 179 179 171 171 171 179 179 179 180 180 180 181 181 181 182 182 182 181 181 181 180 180 180 181 181 181 182 182 182 183 183 183 184 184 184 183 183 183 182 182 182 183 183 183 184 184 184 185 185 185 186 186 186 185 185 185 184 184 184 185 185 185 186 186 186 187 187 187 188 188 188 187 187 187 186 186 186 187 187 187 188 188 188 189 189 189 190 190 190 189 189 189 188 188 188 189 189 189 190 190 190 191 191 191 192 192 192 191 191 191 190 190 190 193 193 193 191 191 191 192 192 192 194 194 194 171 171 171 173 173 173 171 171 171 194 194 194 180 180 180 195 195 195 180 180 180 194 194 194 180 180 180 195 195 195 182 182 182 196 196 196 182 182 182 195 195 195 182 182 182 196 196 196 184 184 184 197 197 197 184 184 184 196 196 196 184 184 184 197 197 197 186 186 186 198 198 198 186 186 186 197 197 197 186 186 186 198 198 198 188 188 188 199 199 199 188 188 188 198 198 198 188 188 188 199 199 199 190 190 190 200 200 200 190 190 190 199 199 199 190 190 190 200 200 200 192 192 192 201 201 201 192 192 192 200 200 200 202 202 202 192 192 192 201 201 201 192 192 192 202 202 202 193 193 193 203 203 203 193 193 193 202 202 202 204 204 204 205 205 205 206 206 206 206 206 206 205 205 205 207 207 207 208 208 208 207 207 207 205 205 205 207 207 207 208 208 208 209 209 209 210 210 210 211 211 211 212 212 212 212 212 212 211 211 211 213 213 213 206 206 206 213 213 213 211 211 211 213 213 213 206 206 206 214 214 214 207 207 207 214 214 214 206 206 206 214 214 214 207 207 207 215 215 215 209 209 209 215 215 215 207 207 207 215 215 215 209 209 209 216 216 216 211 211 211 204 204 204 206 206 206 204 204 204 211 211 211 217 217 217 210 210 210 217 217 217 211 211 211 217 217 217 210 210 210 218 218 218 219 219 219 218 218 218 210 210 210 218 218 218 219 219 219 220 220 220 221 221 221 220 220 220 219 219 219 220 220 220 221 221 221 222 222 222 223 223 223 222 222 222 221 221 221 222 222 222 223 223 223 224 224 224 225 225 225 224 224 224 223 223 223 224 224 224 225 225 225 226 226 226 227 227 227 226 226 226 225 225 225 226 226 226 227 227 227 228 228 228 229 229 229 228 228 228 227 227 227 228 228 228 229 229 229 230 230 230 231 231 231 230 230 230 229 229 229 232 232 232 230 230 230 231 231 231 233 233 233 210 210 210 212 212 212 210 210 210 233 233 233 219 219 219 234 234 234 219 219 219 233 233 233 219 219 219 234 234 234 221 221 221 235 235 235 221 221 221 234 234 234 221 221 221 235 235 235 223 223 223 236 236 236 223 223 223 235 235 235 223 223 223 236 236 236 225 225 225 237 237 237 225 225 225 236 236 236 225 225 225 237 237 237 227 227 227 238 238 238 227 227 227 237 237 237 227 227 227 238 238 238 229 229 229 239 239 239 229 229 229 238 238 238 229 229 229 239 239 239 231 231 231 240 240 240 231 231 231 239 239 239 241 241 241 231 231 231 240 240 240 231 231 231 241 241 241 232 232 232 242 242 242 232 232 232 241 241 241 243 243 243 244 244 244 245 245 245 245 245 245 244 244 244 246 246 246 247 247 247 246 246 246 244 244 244 246 246 246 247 247 247 248 248 248 249 249 249 250 250 250 251 251 251 251 251 251 250 250 250 252 252 252 245 245 245 252 252 252 250 250 250 252 252 252 245 245 245 253 253 253 246 246 246 253 253 253 245 245 245 253 253 253 246 246 246 254 254 254 248 248 248 254 254 254 246 246 246 254 254 254 248 248 248 255 255 255 250 250 250 243 243 243 245 245 245 243 243 243 250 250 250 256 256 256 249 249 249 256 256 256 250 250 250 256 256 256 249 249 249 257 257 257 258 258 258 257 257 257 249 249 249 257 257 257 258 258 258 259 259 259 260 260 260 259 259 259 258 258 258 259 259 259 260 260 260 261 261 261 262 262 262 261 261 261 260 260 260 261 261 261 262 262 262 263 263 263 264 264 264 263 263 263 262 262 262 263 263 263 264 264 264 265 265 265 266 266 266 265 265 265 264 264 264 265 265 265 266 266 266 267 267 267 268 268 268 267 267 267 266 266 266 267 267 267 268 268 268 269 269 269 270 270 270 269 269 269 268 268 268 271 271 271 269 269 269 270 270 270 272 272 272 249 249 249 251 251 251 249 249 249 272 272 272 258 258 258 273 273 273 258 258 258 272 272 272 258 258 258 273 273 273 260 260 260 274 274 274 260 260 260 273 273 273 260 260 260 274 274 274 262 262 262 275 275 275 262 262 262 274 274 274 262 262 262 275 275 275 264 264 264 276 276 276 264 264 264 275 275 275 264 264 264 276 276 276 266 266 266 277 277 277 266 266 266 276 276 276 266 266 266 277 277 277 268 268 268 278 278 278 279 279 279 280 280 280 279 279 279 278 278 278 281 281 281 282 282 282 281 281 281 278 278 278 283 283 283 281 281 281 282 282 282 270 270 270 284 284 284 271 271 271 285 285 285 271 271 271 284 284 284</p>
      </triangles>
    </mesh></geometry>
  </library_geometries>
  <library_visual_scenes>
    <visual_scene id="Scene" name="Scene">
      <node id="vfx_kurp_0825" name="vfx_kurp_0825" type="NODE">
        <instance_geometry url="#vfx_kurp_0825-mesh"><bind_material><technique_common><instance_material symbol="PreviewMaterial" target="#PreviewMaterial"><bind_vertex_input semantic="UVSET0" input_semantic="TEXCOORD" input_set="0"/></instance_material></technique_common></bind_material></instance_geometry>
      </node>
    </visual_scene>
  </library_visual_scenes>
  <scene><instance_visual_scene url="#Scene"/></scene>
</COLLADA>
