<?xml version="1.0" encoding="utf-8"?>
<COLLADA xmlns="http://www.collada.org/2005/11/COLLADASchema" version="1.4.1">
  <asset>
    <contributor><authoring_tool>Morrobroom Kurpulio VFX preview converter</authoring_tool></contributor>
    <unit name="unit" meter="1"/>
    <up_axis>Z_UP</up_axis>
  </asset>
  <library_images>
    <image id="VFXTexture" name="darkmap_newgen-1.dds">
      <init_from>../../../Textures/Kurp/darkmap_newgen-1.dds</init_from>
    </image>
  </library_images>
  <library_effects>
    <effect id="PreviewEffect">
      <profile_COMMON>
        <newparam sid="VFXTexture-surface">
          <surface type="2D"><init_from>VFXTexture</init_from></surface>
        </newparam>
        <newparam sid="VFXTexture-sampler">
          <sampler2D><source>VFXTexture-surface</source></sampler2D>
        </newparam>
        <technique sid="common"><phong>
          <emission><color>0.08 0.08 0.08 1</color></emission>
          <ambient><color>0.2 0.2 0.2 1</color></ambient>
          <diffuse><texture texture="VFXTexture-sampler" texcoord="UVSET0"/></diffuse>
          <specular><color>0.15 0.15 0.15 1</color></specular>
          <shininess><float>8</float></shininess>
          <transparent opaque="A_ONE"><texture texture="VFXTexture-sampler" texcoord="UVSET0"/></transparent>
          <transparency><float>1</float></transparency>
        </phong></technique>
      </profile_COMMON>
      <extra><technique profile="GOOGLEEARTH"><double_sided>1</double_sided></technique></extra>
    </effect>
  </library_effects>
  <library_materials><material id="PreviewMaterial" name="PreviewMaterial"><instance_effect url="#PreviewEffect"/></material></library_materials>
  <library_geometries>
    <geometry id="vfx_kurp_0877-mesh" name="vfx_kurp_0877"><mesh>
      <source id="vfx_kurp_0877-mesh-positions">
        <float_array id="vfx_kurp_0877-mesh-positions-array" count="252">0.974738407 -1.38822818 -0.901446527 1.53739763 -0.844908138 -0.876932211 -0.938611675 -0.763112908 -1.07468158 -0.0109367065 0.0184733827 -1.28300218 -2.14158882 0.326631196 -0.640367708 -0.827684922 1.13134977 -0.99314785 -2.67056636 1.8727741 -0.115579784 -0.912860256 2.4937256 -0.377252407 -2.54875928 3.90420446 0.00524076416 -0.26645617 4.10560074 -0.0130782297 -1.6693417 6.45009157 0.0829053099 1.11151983 5.96697322 0.0544115794 -0.0949168814 9.49995795 0.194555956 3.22107825 8.07784351 0.145698986 2.10005285 -0.301588134 -0.706787008 0.916743265 0.800058383 -1.07914322 0.486213563 1.93606786 -0.736507968 0.844841618 3.11467725 -0.148089504 2.0158466 4.30699738 -0.0286659544 3.89238867 5.48385131 0.02925553 6.53707395 6.65572928 0.104903133 -1.38823102 -0.974737429 -0.901446706 -0.844909555 -1.53739629 -0.876932986 -0.763113415 0.938615296 -1.07468074 0.0184699793 0.0109369541 -1.28300218 0.32662995 2.1415892 -0.640367827 1.1313467 0.827685763 -0.99314797 1.87277392 2.67056761 -0.115580023 2.49372403 0.912861552 -0.377252765 3.90420175 2.54876102 0.00524003912 4.10559925 0.266458261 -0.0130778664 6.45008931 1.66934259 0.0829048256 5.96696789 -1.11151754 0.0544118215 9.49995727 0.0949184571 0.19455621 8.07784197 -3.22107712 0.145699597 -0.301589918 -2.10005199 -0.70678814 0.800056049 -0.916741163 -1.07914358 1.9360659 -0.486212869 -0.73650773 3.11467493 -0.844841261 -0.148089624 4.30699679 -2.01584487 -0.028665349 5.48384958 -3.89238696 0.0292564967 6.65572739 -6.5370716 0.104904705 -0.974738657 1.38822933 -0.901446646 -1.53739909 0.844909394 -0.876932032 0.938611643 0.763113354 -1.07468158 0.010932993 -0.0184726114 -1.28300218 2.14158698 -0.32663164 -0.640367589 0.827682576 -1.13134791 -0.993147791 2.67056273 -1.87277533 -0.115579665 0.91285868 -2.49372629 -0.377252407 2.54875598 -3.90420518 0.00524112691 0.266451585 -4.1055995 -0.0130771419 1.66933614 -6.4500914 0.0829061518 -1.11152476 -5.96697119 0.0544131478 0.094909862 -9.49995741 0.194557894 -3.22108408 -8.0778409 0.145700684 -2.1000536 0.30158961 -0.706787008 -0.916743129 -0.800055636 -1.0791431 -0.486217295 -1.93606717 -0.73650761 -0.844845157 -3.11467526 -0.148088655 -2.01585006 -4.30699516 -0.0286647455 -3.89239352 -5.48384933 0.0292574634 -6.53707813 -6.65572432 0.104905547 1.38823147 0.974737569 -0.901446944 0.844909762 1.53739913 -0.876933224 0.763113132 -0.938612209 -1.0746811 -0.0184749024 -0.0109360531 -1.28300218 -0.326630652 -2.14158775 -0.64036747 -1.13135005 -0.827686447 -0.993147731 -1.87277605 -2.67056539 -0.115579539 -2.493726 -0.912859998 -0.377252288 -3.90420516 -2.54875882 0.00524161026 -4.10560009 -0.266456026 -0.0130776252 -6.4500912 -1.66934024 0.082906271 -5.96697062 1.11152212 0.0544127864 -9.49995864 -0.0949153058 0.194557655 -8.07784138 3.22108156 0.145699954 0.301588686 2.1000525 -0.706788259 -0.800057108 0.916742162 -1.07914382 -1.9360668 0.486215003 -0.73650773 -3.11467597 0.844842285 -0.148089028 -4.30699656 2.01584699 -0.028665349 -5.48385166 3.89238989 0.0292563756 -6.65572796 6.53707423 0.104904221</float_array>
        <technique_common><accessor source="#vfx_kurp_0877-mesh-positions-array" count="84" stride="3"><param name="X" type="float"/><param name="Y" type="float"/><param name="Z" type="float"/></accessor></technique_common>
      </source>
      <source id="vfx_kurp_0877-mesh-normals">
        <float_array id="vfx_kurp_0877-mesh-normals-array" count="252">-0.0783717606 0.0362103419 0.996266369 -0.190753915 0.0449933121 0.980606213 0.152180124 0.048990135 0.987137871 0.00354198045 0.0313707196 0.999501542 0.324241766 -0.127135563 0.937392034 0.188507859 -0.242931666 0.951550836 0.255790527 -0.191459694 0.947583448 0.103153912 -0.296101839 0.949569888 0.0671698097 -0.101338329 0.992581865 0.000155278754 -0.114009914 0.9934796 0.00571957005 -0.037337886 0.99928633 0.00294084675 -0.0424593131 0.999093869 0.0003886571 -0.0395037356 0.999219347 -0.0028484024 -0.0436884506 0.999041143 -0.262610319 0.00504884855 0.964888765 -0.125381314 -0.122854889 0.98447255 0.0333785402 -0.385691374 0.922023881 0.00227373718 -0.231884267 0.972740724 0.00743751501 -0.061832987 0.998058798 -0.00280063135 -0.0466901259 0.998905495 -0.00780755803 -0.0468595447 0.998870975 0.0362105314 0.0783710355 0.996266419 0.0449936686 0.19075331 0.980606315 0.048989955 -0.152180636 0.987137801 0.031371511 -0.00354210862 0.999501517 -0.127135437 -0.324241574 0.937392118 -0.242931298 -0.188507741 0.951550953 -0.191459368 -0.255790228 0.947583595 -0.296101664 -0.103153624 0.949569973 -0.101338334 -0.0671695528 0.992581882 -0.114010034 -0.00015506792 0.993479586 -0.0373378388 -0.00571922413 0.999286333 -0.0424592709 -0.00294065694 0.999093871 -0.0395037568 -0.000388442002 0.999219346 -0.0436883939 0.0028485873 0.999041145 0.00504881812 0.262609911 0.964888877 -0.12285534 0.125380913 0.984472545 -0.385691329 -0.0333783996 0.922023905 -0.231884533 -0.00227360112 0.972740661 -0.0618330798 -0.00743738427 0.998058794 -0.0466900658 0.00280085609 0.998905498 -0.0468594708 0.00780782486 0.998870977 0.0783717914 -0.0362100061 0.996266379 0.190754048 -0.0449935334 0.980606177 -0.152180081 -0.0489893813 0.987137915 -0.00354156103 -0.0313706063 0.999501547 -0.324241574 0.127135979 0.937392044 -0.188507727 0.242931366 0.951550938 -0.25579056 0.191459741 0.94758343 -0.103153649 0.296101774 0.949569936 -0.0671696275 0.101338623 0.992581848 -0.000154960964 0.114010252 0.993479561 -0.00571924661 0.0373380102 0.999286327 -0.0029406894 0.0424594509 0.999093863 -0.000388501331 0.0395038744 0.999219342 0.00284850872 0.0436884575 0.999041143 0.262610658 -0.00504866479 0.964888674 0.1253815 0.122855465 0.984472455 -0.0333780612 0.385691359 0.922023904 -0.00227332003 0.231884777 0.972740604 -0.00743740905 0.0618332678 0.998058782 0.00280081824 0.0466901651 0.998905493 0.00780780223 0.046859525 0.998870974 -0.0362109339 -0.0783710586 0.996266403 -0.044993035 -0.190753333 0.980606339 -0.0489901143 0.152180328 0.987137841 -0.0313702107 0.00354231174 0.999501557 0.127135025 0.324242117 0.937391986 0.24293156 0.188508098 0.951550815 0.19145976 0.255790729 0.947583381 0.296102085 0.103153685 0.949569836 0.101338564 0.0671699026 0.992581835 0.114010183 0.000155223286 0.993479569 0.0373380479 0.005719488 0.999286324 0.0424595267 0.00294087267 0.999093859 0.0395038314 0.000388668528 0.999219343 0.0436885151 -0.00284830882 0.999041141 -0.00504818412 -0.262609994 0.964888857 0.122855223 -0.125381111 0.984472535 0.385691569 0.0333781299 0.922023814 0.231884467 0.00227352147 0.972740677 0.0618332998 0.00743758317 0.998058779 0.0466902591 -0.00280057536 0.998905489 0.046859647 -0.00780763274 0.99887097</float_array>
        <technique_common><accessor source="#vfx_kurp_0877-mesh-normals-array" count="84" stride="3"><param name="X" type="float"/><param name="Y" type="float"/><param name="Z" type="float"/></accessor></technique_common>
      </source>
      <source id="vfx_kurp_0877-mesh-uv0">
        <float_array id="vfx_kurp_0877-mesh-uv0-array" count="168">1 1 0.5 1 1 0.833333313 0.5 0.833333313 1 0.666666627 0.5 0.666666627 1 0.5 0.5 0.5 1 0.333333313 0.5 0.333333313 1 0.166666627 0.5 0.166666627 1 0 0.5 0 0 1 0 0.833333313 0 0.666666627 0 0.5 0 0.333333313 0 0.166666627 0 0 1 1 0.5 1 1 0.833333313 0.5 0.833333313 1 0.666666627 0.5 0.666666627 1 0.5 0.5 0.5 1 0.333333313 0.5 0.333333313 1 0.166666627 0.5 0.166666627 1 0 0.5 0 0 1 0 0.833333313 0 0.666666627 0 0.5 0 0.333333313 0 0.166666627 0 0 1 1 0.5 1 1 0.833333313 0.5 0.833333313 1 0.666666627 0.5 0.666666627 1 0.5 0.5 0.5 1 0.333333313 0.5 0.333333313 1 0.166666627 0.5 0.166666627 1 0 0.5 0 0 1 0 0.833333313 0 0.666666627 0 0.5 0 0.333333313 0 0.166666627 0 0 1 1 0.5 1 1 0.833333313 0.5 0.833333313 1 0.666666627 0.5 0.666666627 1 0.5 0.5 0.5 1 0.333333313 0.5 0.333333313 1 0.166666627 0.5 0.166666627 1 0 0.5 0 0 1 0 0.833333313 0 0.666666627 0 0.5 0 0.333333313 0 0.166666627 0 0</float_array>
        <technique_common><accessor source="#vfx_kurp_0877-mesh-uv0-array" count="84" stride="2"><param name="S" type="float"/><param name="T" type="float"/></accessor></technique_common>
      </source>
      <vertices id="vfx_kurp_0877-mesh-vertices"><input semantic="POSITION" source="#vfx_kurp_0877-mesh-positions"/></vertices>
      <triangles material="PreviewMaterial" count="96">
        <input semantic="VERTEX" source="#vfx_kurp_0877-mesh-vertices" offset="0"/>
        <input semantic="NORMAL" source="#vfx_kurp_0877-mesh-normals" offset="1"/>
        <input semantic="TEXCOORD" source="#vfx_kurp_0877-mesh-uv0" offset="2" set="0"/>
        <p>0 0 0 1 1 1 2 2 2 3 3 3 2 2 2 1 1 1 2 2 2 3 3 3 4 4 4 5 5 5 4 4 4 3 3 3 4 4 4 5 5 5 6 6 6 7 7 7 6 6 6 5 5 5 6 6 6 7 7 7 8 8 8 9 9 9 8 8 8 7 7 7 8 8 8 9 9 9 10 10 10 11 11 11 10 10 10 9 9 9 10 10 10 11 11 11 12 12 12 13 13 13 12 12 12 11 11 11 1 1 1 14 14 14 3 3 3 15 15 15 3 3 3 14 14 14 3 3 3 15 15 15 5 5 5 16 16 16 5 5 5 15 15 15 5 5 5 16 16 16 7 7 7 17 17 17 7 7 7 16 16 16 7 7 7 17 17 17 9 9 9 18 18 18 9 9 9 17 17 17 9 9 9 18 18 18 11 11 11 19 19 19 11 11 11 18 18 18 11 11 11 19 19 19 13 13 13 20 20 20 13 13 13 19 19 19 21 21 21 22 22 22 23 23 23 24 24 24 23 23 23 22 22 22 23 23 23 24 24 24 25 25 25 26 26 26 25 25 25 24 24 24 25 25 25 26 26 26 27 27 27 28 28 28 27 27 27 26 26 26 27 27 27 28 28 28 29 29 29 30 30 30 29 29 29 28 28 28 29 29 29 30 30 30 31 31 31 32 32 32 31 31 31 30 30 30 31 31 31 32 32 32 33 33 33 34 34 34 33 33 33 32 32 32 22 22 22 35 35 35 24 24 24 36 36 36 24 24 24 35 35 35 24 24 24 36 36 36 26 26 26 37 37 37 26 26 26 36 36 36 26 26 26 37 37 37 28 28 28 38 38 38 28 28 28 37 37 37 28 28 28 38 38 38 30 30 30 39 39 39 30 30 30 38 38 38 30 30 30 39 39 39 32 32 32 40 40 40 32 32 32 39 39 39 32 32 32 40 40 40 34 34 34 41 41 41 34 34 34 40 40 40 42 42 42 43 43 43 44 44 44 45 45 45 44 44 44 43 43 43 44 44 44 45 45 45 46 46 46 47 47 47 46 46 46 45 45 45 46 46 46 47 47 47 48 48 48 49 49 49 48 48 48 47 47 47 48 48 48 49 49 49 50 50 50 51 51 51 50 50 50 49 49 49 50 50 50 51 51 51 52 52 52 53 53 53 52 52 52 51 51 51 52 52 52 53 53 53 54 54 54 55 55 55 54 54 54 53 53 53 43 43 43 56 56 56 45 45 45 57 57 57 45 45 45 56 56 56 45 45 45 57 57 57 47 47 47 58 58 58 47 47 47 57 57 57 47 47 47 58 58 58 49 49 49 59 59 59 49 49 49 58 58 58 49 49 49 59 59 59 51 51 51 60 60 60 51 51 51 59 59 59 51 51 51 60 60 60 53 53 53 61 61 61 53 53 53 60 60 60 53 53 53 61 61 61 55 55 55 62 62 62 55 55 55 61 61 61 63 63 63 64 64 64 65 65 65 66 66 66 65 65 65 64 64 64 65 65 65 66 66 66 67 67 67 68 68 68 67 67 67 66 66 66 67 67 67 68 68 68 69 69 69 70 70 70 69 69 69 68 68 68 69 69 69 70 70 70 71 71 71 72 72 72 71 71 71 70 70 70 71 71 71 72 72 72 73 73 73 74 74 74 73 73 73 72 72 72 73 73 73 74 74 74 75 75 75 76 76 76 75 75 75 74 74 74 64 64 64 77 77 77 66 66 66 78 78 78 66 66 66 77 77 77 66 66 66 78 78 78 68 68 68 79 79 79 68 68 68 78 78 78 68 68 68 79 79 79 70 70 70 80 80 80 70 70 70 79 79 79 70 70 70 80 80 80 72 72 72 81 81 81 72 72 72 80 80 80 72 72 72 81 81 81 74 74 74 82 82 82 74 74 74 81 81 81 74 74 74 82 82 82 76 76 76 83 83 83 76 76 76 82 82 82</p>
      </triangles>
    </mesh></geometry>
  </library_geometries>
  <library_visual_scenes>
    <visual_scene id="Scene" name="Scene">
      <node id="vfx_kurp_0877" name="vfx_kurp_0877" type="NODE">
        <instance_geometry url="#vfx_kurp_0877-mesh"><bind_material><technique_common><instance_material symbol="PreviewMaterial" target="#PreviewMaterial"><bind_vertex_input semantic="UVSET0" input_semantic="TEXCOORD" input_set="0"/></instance_material></technique_common></bind_material></instance_geometry>
      </node>
    </visual_scene>
  </library_visual_scenes>
  <scene><instance_visual_scene url="#Scene"/></scene>
</COLLADA>
