<?xml version="1.0" encoding="utf-8"?>
<COLLADA xmlns="http://www.collada.org/2005/11/COLLADASchema" version="1.4.1">
  <asset>
    <contributor><authoring_tool>Morrobroom Kurpulio VFX preview converter</authoring_tool></contributor>
    <unit name="unit" meter="1"/>
    <up_axis>Z_UP</up_axis>
  </asset>
  <library_images>
    <image id="VFXTexture" name="darkmap_newgen-1.dds">
      <init_from>../../../Textures/Kurp/darkmap_newgen-1.dds</init_from>
    </image>
  </library_images>
  <library_effects>
    <effect id="PreviewEffect">
      <profile_COMMON>
        <newparam sid="VFXTexture-surface">
          <surface type="2D"><init_from>VFXTexture</init_from></surface>
        </newparam>
        <newparam sid="VFXTexture-sampler">
          <sampler2D><source>VFXTexture-surface</source></sampler2D>
        </newparam>
        <technique sid="common"><phong>
          <emission><color>0.08 0.08 0.08 1</color></emission>
          <ambient><color>0.2 0.2 0.2 1</color></ambient>
          <diffuse><texture texture="VFXTexture-sampler" texcoord="UVSET0"/></diffuse>
          <specular><color>0.15 0.15 0.15 1</color></specular>
          <shininess><float>8</float></shininess>
          <transparent opaque="A_ONE"><texture texture="VFXTexture-sampler" texcoord="UVSET0"/></transparent>
          <transparency><float>1</float></transparency>
        </phong></technique>
      </profile_COMMON>
      <extra><technique profile="GOOGLEEARTH"><double_sided>1</double_sided></technique></extra>
    </effect>
  </library_effects>
  <library_materials><material id="PreviewMaterial" name="PreviewMaterial"><instance_effect url="#PreviewEffect"/></material></library_materials>
  <library_geometries>
    <geometry id="vfx_kurp_0051-mesh" name="vfx_kurp_0051"><mesh>
      <source id="vfx_kurp_0051-mesh-positions">
        <float_array id="vfx_kurp_0051-mesh-positions-array" count="576">-1.32770007 0.0645050665 0.663841912 -0.928786523 1.46785173 0.256303239 -1.3774637 -0.900085206 2.69124636 -0.916987968 0.401285122 2.26666221 -0.737207156 2.20393287 0.252902044 -0.534063728 1.48564421 2.79102381 0.458798867 1.26750009 0.8420852 -0.534063728 1.48564421 2.79102381 -0.737207156 2.20393287 0.252902044 0.745404361 0.9531778 2.4706896 0.878770229 1.60693603 0.471835797 0.745404361 0.9531778 2.4706896 0.458798867 1.26750009 0.8420852 1.8369636 1.83187473 1.96942735 1.33235524 1.1663592 0.0618379249 1.8369636 1.83187473 1.96942735 0.878770229 1.60693603 0.471835797 3.09720801 1.26450787 0.329056146 1.05821683 1.19403677 -0.796210907 2.37268185 1.08568992 -1.55035848 0.0993798513 1.4514937 -1.40448711 1.01098358 1.17438423 -2.86288207 -0.551762473 1.43086542 -1.25381954 -0.38417983 1.21210048 -2.72005893 1.13353595 0.924886036 0.451610622 1.37970919 1.17821674 -1.02142139 2.36967492 -0.18860544 1.96004673 2.53644361 -0.0109467547 0.536494542 1.68912541 1.23610998 -1.71383717 3.40991129 -0.238154986 -0.348294558 1.42684351 -0.31594259 -1.29334252 3.40991129 -0.238154986 -0.348294558 1.68912541 1.23610998 -1.71383717 2.56383224 -1.35142059 -0.608993204 1.17883506 -0.414298982 -1.89125172 2.56383224 -1.35142059 -0.608993204 1.42684351 -0.31594259 -1.29334252 2.30304387 -1.80547925 -2.00208113 0.507898924 -0.757282706 -1.8788989 2.30304387 -1.80547925 -2.00208113 1.17883506 -0.414298982 -1.89125172 0.340842754 -2.34772363 -2.67785683 -0.127972745 -0.147891726 -2.06988497 -1.13816294 -0.978639791 -2.84297708 -0.27252522 1.00724144 -2.04928675 -1.85402984 0.771174926 -2.74054809 0.00516249201 1.4919937 -1.68183893 -1.36952004 1.91134046 -2.08208354 -1.51167819 -0.239576579 0.0276641673 -1.01948104 -0.827107427 -1.27891575 -2.8325695 1.53463639 0.415859546 -2.27744953 1.01055504 -0.810132161 -0.913138394 -0.996835815 -2.01268226 -2.39393908 1.1951276 -2.05503567 -0.353260492 0.488425521 -1.64524574 -2.39393908 1.1951276 -2.05503567 -0.913138394 -0.996835815 -2.01268226 -1.19406414 1.93175868 -1.85292721 0.1875083 0.346137366 -1.98583443 -1.19406414 1.93175868 -1.85292721 -0.353260492 0.488425521 -1.64524574 -0.0920657254 1.88971231 -2.85227971 0.821720175 0.493581331 -1.6063855 -0.0920657254 1.88971231 -2.85227971 0.1875083 0.346137366 -1.98583443 1.96482157 1.69368526 -2.27632201 1.1797329 -0.28732674 -1.33403439 2.66878474 0.000979265115 -1.42291931 0.847002749 -1.38589951 -1.13888946 2.5067398 -1.77105452 -0.776045033 0.260220348 -1.65815829 -0.969555084 1.36363694 -2.51313243 -0.442970521 0.0341073355 -1.64689158 -0.412596649 -1.21243886 -0.941863536 -0.906215077 0.329504575 -3.01521606 1.34345325 -0.822454483 -2.26173303 0.906270279 -1.92878124 -0.713668588 -1.02158564 -2.05154891 -2.16753341 1.18532967 -1.36067913 -0.224304779 0.424878081 -2.05154891 -2.16753341 1.18532967 -1.92878124 -0.713668588 -1.02158564 -1.59574522 -1.01907537 1.8899295 -1.61568281 0.366075183 0.301986824 -1.59574522 -1.01907537 1.8899295 -1.36067913 -0.224304779 0.424878081 -2.39658986 0.235170151 1.90964352 -1.12522412 0.927445894 0.412706592 -2.39658986 0.235170151 1.90964352 -1.61568281 0.366075183 0.301986824 -1.50077598 2.16617643 1.64569157 -0.857024974 1.23505306 -0.390793836 -0.67294232 2.71771394 -0.114879944 -0.804643322 0.874882193 -1.49677122 -0.19924978 2.45029019 -1.92841515 -0.757254901 0.268144061 -1.77378373 -0.119916363 1.26789312 -2.6793786 1.16596461 0.0436686769 1.32751208 -0.320944976 -0.0783566567 1.5898305 2.56978856 1.75732533 1.69621308 1.1381532 1.64829196 1.85243928 -1.03518641 0.0318028675 1.82700859 0.187216539 2.32048735 2.34365516 -0.600576841 1.11066699 0.686114124 0.187216539 2.32048735 2.34365516 -1.03518641 0.0318028675 1.82700859 -0.0103404173 2.66003305 0.976595001 -1.17764476 1.00461841 0.395556225 -0.0103404173 2.66003305 0.976595001 -0.600576841 1.11066699 0.686114124 -1.38032344 2.78514012 0.408820819 -1.11413128 0.860930138 -0.341509173 -1.38032344 2.78514012 0.408820819 -1.17764476 1.00461841 0.395556225 -1.90280518 1.96673013 -1.50381003 -1.25296993 -0.0196222207 -0.473861069 -1.94764151 -0.0292470869 -1.82502216 -1.21740232 -1.01515913 0.128877456 -1.78400898 -1.84011142 -1.297004 -0.871148701 -1.20605593 0.668117221 -1.16161924 -2.40355631 -0.172965343 -0.291687932 -1.36575388 0.654760682 0.0545458294 -0.286688166 1.65991767 0.701534424 -3.33675593 0.240101002 1.06396514 -2.25526617 1.12604658 0.35002543 0.109085541 2.23835059 1.89741582 -2.02841039 2.04871493 1.43553016 -0.12731761 1.04660122 1.89741582 -2.02841039 2.04871493 0.35002543 0.109085541 2.23835059 2.57848998 -1.36183672 0.992783915 1.60341295 0.503030034 1.1027679 2.57848998 -1.36183672 0.992783915 1.43553016 -0.12731761 1.04660122 3.29346269 -0.0787469131 1.23230038 1.6138655 0.864919378 0.441804515 3.29346269 -0.0787469131 1.23230038 1.60341295 0.503030034 1.1027679 3.15285606 1.57717034 -0.123836129 0.88884928 1.39828822 0.396693468 1.42055765 2.58682759 -0.386222886 -0.16442913 1.49249276 0.883912665 -0.403624302 2.9528595 -0.0352395863 -0.57804043 1.04472824 1.15876789 -1.38218531 2.16475226 0.588945807 1.33182429 -0.607868138 1.04639655 1.25714647 -1.51565957 -0.163950547 0.505533628 -0.877542638 3.11709673 0.371076048 -1.68261899 1.92560681 1.15333927 -2.10536405 -0.632994377 -0.0777672765 -2.817725 1.59774214 -0.261298395 -1.47214905 -0.130686505 -0.0777672765 -2.817725 1.59774214 1.15333927 -2.10536405 -0.632994377 -1.18062124 -2.03126098 1.16373692 -0.471956991 -1.5049442 -0.749738289 -1.18062124 -2.03126098 1.16373692 -0.261298395 -1.47214905 -0.130686505 -1.90569641 -2.35724449 -0.0943862098 -0.773213503 -0.858342227 -0.992835161 -1.90569641 -2.35724449 -0.0943862098 -0.471956991 -1.5049442 -0.749738289 -2.48690899 -0.846329332 -1.50160528 -0.18906128 -0.464575146 -1.55486657 -1.11652883 0.200321698 -2.55786847 0.949857934 -0.486845679 -1.79573927 0.64672814 0.638019858 -3.09092927 1.48782368 -0.63609744 -1.42773202 1.87645628 0.344704365 -2.48262226 -1.6235949 -0.263210679 -0.217440227 -0.714113124 -1.28977427 -0.860566054 -2.84892505 1.37470608 -1.14430382 -1.90762195 0.445109447 -1.72367692 -0.347225626 -1.73785713 -1.35366388 -1.52124504 0.0834879743 -2.87144145 0.142504192 -0.187637853 -1.46071307 -1.52124504 0.0834879743 -2.87144145 -0.347225626 -1.73785713 -1.35366388 -0.437890639 0.949960911 -2.55720897 0.759763329 -0.405437065 -1.47594932 -0.437890639 0.949960911 -2.55720897 0.142504192 -0.187637853 -1.46071307 0.956863592 0.603489761 -2.94384928 1.20854533 -0.0529642646 -0.983705863 0.956863592 0.603489761 -2.94384928 0.759763329 -0.405437065 -1.47594932 2.61153554 0.864839908 -1.60418698 1.37188317 -0.611371766 -0.295470791 2.79808208 -0.243256116 0.0770140907 0.90481982 -1.55609716 0.19950307 2.26145658 -1.59283323 1.29170947 0.278706463 -1.78883593 0.229953054 1.02393812 -2.23635978 1.44245198</float_array>
        <technique_common><accessor source="#vfx_kurp_0051-mesh-positions-array" count="192" stride="3"><param name="X" type="float"/><param name="Y" type="float"/><param name="Z" type="float"/></accessor></technique_common>
      </source>
      <source id="vfx_kurp_0051-mesh-normals">
        <float_array id="vfx_kurp_0051-mesh-normals-array" count="576">0.944953886 -0.303859149 -0.121374508 0.950686456 -0.275082721 -0.143264645 0.91885607 -0.353791906 -0.174742126 0.922738054 -0.33743768 -0.18625331 0.956356801 -0.254921526 -0.142816963 0.952787742 -0.26352281 -0.150835169 -0.503267937 -0.848930704 -0.161363081 -0.467782981 -0.872582338 -0.140638355 -0.546759209 -0.816095982 -0.187194325 -0.404257808 -0.908686223 -0.104235181 0.508019174 -0.828112404 -0.236952243 0.529242178 -0.816235402 -0.231651648 0.468635639 -0.848387127 -0.246211131 0.545070262 -0.806920031 -0.227548835 -0.074532013 -0.98288734 0.168456092 -0.126746425 -0.925668591 0.356473004 -0.429491023 -0.811296584 0.396655158 0.00451741139 -0.980735797 0.195286688 -0.0834790392 -0.994473825 -0.0636636609 -0.0877409916 -0.99451689 0.0569005616 -0.011997681 -0.989646131 0.143026538 -0.0873972081 -0.98859552 0.122640229 0.0345360315 -0.981187856 0.189941185 -0.0117702475 -0.989178883 0.146241573 -0.484829519 -0.844820285 -0.226316204 -0.490490278 -0.831745046 -0.260037431 -0.547383715 -0.814628949 -0.191704835 -0.549978757 -0.808128144 -0.210837069 -0.481668268 -0.830751659 -0.279011399 -0.491691629 -0.826844066 -0.273071845 -0.424924178 0.244791575 0.871502454 -0.427973329 0.198588386 0.881703739 -0.419666523 0.302752565 0.855699067 -0.430966343 0.11803726 0.894614563 -0.72921796 -0.579234397 0.364319475 -0.72425208 -0.596058506 0.34666004 -0.737087217 -0.547733809 0.395841015 -0.72019975 -0.608533268 0.333165996 -0.321136372 -0.302098378 0.897556684 -0.122967016 -0.320952519 0.939078588 0.0417684201 -0.0457597305 0.998078878 -0.317288742 -0.380367735 0.868704922 -0.51868021 -0.198567549 0.831589904 -0.416824593 -0.246553097 0.874910755 -0.361242714 -0.346571335 0.86567431 -0.359042742 -0.273217835 0.892435053 -0.329438351 -0.403819368 0.853463702 -0.358381906 -0.348002922 0.866288852 0.805460283 0.591464839 0.0374576665 0.82263129 0.56838203 0.0148198683 0.823721461 0.55724859 0.104675518 0.833336221 0.545158798 0.0913927161 0.825505209 0.564367327 -0.0055381149 0.828572334 0.559855274 0.00547344282 -0.225629012 -0.0889796203 0.970141318 -0.211377197 -0.0441941088 0.976404917 -0.243019986 -0.145643924 0.959025096 -0.185739915 0.0331045801 0.982041125 0.581953686 0.450303428 0.67716817 0.593748517 0.462127437 0.658711568 0.559590575 0.428096168 0.709642206 0.602421809 0.470876954 0.644486507 -0.113933401 0.450377459 0.885539002 -0.280054518 0.530619869 0.800007513 -0.539879295 0.335542891 0.771972354 -0.0724018788 0.515510384 0.853819074 0.0328824832 0.285150173 0.95791864 -0.0497337212 0.367992611 0.928497709 -0.0498896059 0.472103335 0.88013037 -0.0930998188 0.412477974 0.90619774 -0.0463289818 0.529730938 0.846899497 -0.0518619058 0.474336078 0.8788149 0.216824603 0.787389843 0.577065271 0.195692404 0.808132735 0.555541147 0.2833475 0.794118383 0.537671078 0.270981699 0.805834648 0.526497331 0.175857903 0.814388076 0.553033507 0.186851441 0.815564219 0.547669191 0.908986674 -0.385350683 -0.158896435 0.92094256 -0.372378706 -0.114886468 0.890830241 -0.400595428 -0.214347345 0.936666005 -0.348095797 -0.0385501122 0.797406298 0.459670635 0.390955373 0.782141875 0.474391836 0.40398821 0.823887178 0.432182181 0.366644896 0.77027943 0.485326786 0.413675611 0.885628281 -0.261331274 0.383886067 0.779837063 -0.410767278 0.472360453 0.69388814 -0.662080665 0.283140323 0.866370106 -0.215097609 0.450705956 0.968784312 -0.128669078 0.211899091 0.93233415 -0.205214784 0.297724578 0.892697483 -0.197301253 0.405170853 0.906537842 -0.244243104 0.344288319 0.865020588 -0.188240828 0.465085769 0.891244054 -0.199025731 0.407520301 -0.190573062 0.353185202 -0.915937837 -0.22370741 0.337709865 -0.91427952 -0.151091469 0.29265 -0.944207258 -0.169941856 0.284971036 -0.943351088 -0.243308161 0.341406077 -0.907878312 -0.236592518 0.332456975 -0.912960207 0.902774188 -0.410074384 -0.129760411 0.913031663 -0.375140654 -0.160133297 0.886797779 -0.453167352 -0.0907141158 0.925874188 -0.313051909 -0.211554936 0.418181555 0.0238414016 -0.908050535 0.400133906 0.0392233122 -0.915616944 0.450323263 -0.00415630342 -0.892855914 0.386324386 0.0508366988 -0.920960965 0.918875615 0.0848744638 -0.385310173 0.944757638 0.224002385 -0.23928213 0.9916291 0.112404823 0.0635364819 0.889556954 0.147267877 -0.432435658 0.86885023 -0.121628935 -0.47990174 0.903940733 -0.018919737 -0.427239036 0.890072721 0.0934596269 -0.446134341 0.916819334 0.0385506347 -0.397436986 0.875233108 0.157424609 -0.45736692 0.890457885 0.0963785861 -0.444742535 0.591056265 0.44006373 -0.676015092 0.58807475 0.471359349 -0.657258284 0.528463749 0.447833598 -0.721228906 0.527812131 0.465216604 -0.710624983 0.59682073 0.481994937 -0.641471665 0.587462654 0.48289253 -0.649386198 -0.658006568 -0.469992471 -0.588331907 -0.622991475 -0.477823657 -0.619327195 -0.700397749 -0.458507159 -0.547004733 -0.55945744 -0.488783022 -0.669401621 0.0780598104 0.0993192871 -0.991989085 0.100014396 0.110611646 -0.98881858 0.0380287012 0.0786353761 -0.996177843 0.116572144 0.119103795 -0.986014818 -0.1558465 -0.5641216 -0.810850596 -0.070403621 -0.711217654 -0.699437473 -0.255506965 -0.846311324 -0.467411311 -0.0783674985 -0.54453284 -0.835070369 -0.305726382 -0.395125766 -0.866260358 -0.235965501 -0.489786313 -0.839303074 -0.124548152 -0.516245781 -0.847335855 -0.194662809 -0.537669077 -0.820376959 -0.0586162227 -0.525686419 -0.848656543 -0.122330287 -0.518410774 -0.846336558 -0.850198154 0.445004426 -0.281307945 -0.844281053 0.433216386 -0.315456916 -0.810526479 0.511590501 -0.285170101 -0.808093785 0.504483293 -0.304106957 -0.847720471 0.416835147 -0.328052531 -0.842188747 0.427808095 -0.328174266 0.442463352 0.729802526 0.521166437 0.399642314 0.743411171 0.536307609 0.495481289 0.71012629 0.500218896 0.323852256 0.76291359 0.559537818 -0.455013694 0.887274976 0.0755357925 -0.475394843 0.877348983 0.0652572327 -0.417244427 0.903909523 0.0940992183 -0.490608637 0.86948352 0.0574593242 -0.090834228 0.72498182 0.682752154 -0.109653011 0.570661682 0.813831347 0.163872609 0.413136317 0.895803634 -0.173520094 0.719545918 0.672416872 0.00548002002 0.856197288 0.51661995 -0.0369489957 0.791935455 0.609485854 -0.139127708 0.7524357 0.643804316 -0.06196173 0.752268063 0.65593712 -0.199071316 0.726756887 0.657415423 -0.140527063 0.75037503 0.64590205 0.772625159 0.6285477 0.0893205015 0.795321992 0.59992915 0.086878904 0.760874974 0.627300993 0.166020294 0.773882795 0.611779506 0.163802489 0.805485083 0.588117853 0.0728777835 0.803715253 0.588909689 0.0850127686 -0.587797919 0.300758416 0.751024621 -0.573596799 0.345246803 0.7428266 -0.603948261 0.24320621 0.759010696 -0.546139097 0.419983215 0.724807689 0.30985242 0.745022484 0.59070549 0.328727515 0.749190533 0.575023275 0.275051186 0.736263855 0.618273711 0.342862897 0.752033623 0.562930248 -0.410312383 0.764232008 0.497587365 -0.523895077 0.785167389 0.330221319 -0.76732417 0.571909454 0.290057227 -0.354813818 0.813984119 0.459931526 -0.316073181 0.659099711 0.682411397 -0.374248117 0.713792978 0.591977982 -0.347631834 0.787840352 0.508389308 -0.402067969 0.740558046 0.538437674 -0.327059759 0.826497028 0.458186181 -0.348764747 0.789121959 0.505618122</float_array>
        <technique_common><accessor source="#vfx_kurp_0051-mesh-normals-array" count="192" stride="3"><param name="X" type="float"/><param name="Y" type="float"/><param name="Z" type="float"/></accessor></technique_common>
      </source>
      <source id="vfx_kurp_0051-mesh-uv0">
        <float_array id="vfx_kurp_0051-mesh-uv0-array" count="384">0 0 0 0.125 1 0 1 0.125 0 0.25 1 0.25 0 0.375 1 0.25 0 0.25 1 0.375 0 0.5 1 0.375 0 0.375 1 0.5 0 0.625 1 0.5 0 0.5 1 0.625 0 0.75 1 0.75 0 0.875 1 0.875 0 1 1 1 0 0 0 0.125 1 0 1 0.125 0 0.25 1 0.25 0 0.375 1 0.25 0 0.25 1 0.375 0 0.5 1 0.375 0 0.375 1 0.5 0 0.625 1 0.5 0 0.5 1 0.625 0 0.75 1 0.75 0 0.875 1 0.875 0 1 1 1 0 0 0 0.125 1 0 1 0.125 0 0.25 1 0.25 0 0.375 1 0.25 0 0.25 1 0.375 0 0.5 1 0.375 0 0.375 1 0.5 0 0.625 1 0.5 0 0.5 1 0.625 0 0.75 1 0.75 0 0.875 1 0.875 0 1 1 1 0 0 0 0.125 1 0 1 0.125 0 0.25 1 0.25 0 0.375 1 0.25 0 0.25 1 0.375 0 0.5 1 0.375 0 0.375 1 0.5 0 0.625 1 0.5 0 0.5 1 0.625 0 0.75 1 0.75 0 0.875 1 0.875 0 1 1 1 0 0 0 0.125 1 0 1 0.125 0 0.25 1 0.25 0 0.375 1 0.25 0 0.25 1 0.375 0 0.5 1 0.375 0 0.375 1 0.5 0 0.625 1 0.5 0 0.5 1 0.625 0 0.75 1 0.75 0 0.875 1 0.875 0 1 1 1 0 0 0 0.125 1 0 1 0.125 0 0.25 1 0.25 0 0.375 1 0.25 0 0.25 1 0.375 0 0.5 1 0.375 0 0.375 1 0.5 0 0.625 1 0.5 0 0.5 1 0.625 0 0.75 1 0.75 0 0.875 1 0.875 0 1 1 1 0 0 0 0.125 1 0 1 0.125 0 0.25 1 0.25 0 0.375 1 0.25 0 0.25 1 0.375 0 0.5 1 0.375 0 0.375 1 0.5 0 0.625 1 0.5 0 0.5 1 0.625 0 0.75 1 0.75 0 0.875 1 0.875 0 1 1 1 0 0 0 0.125 1 0 1 0.125 0 0.25 1 0.25 0 0.375 1 0.25 0 0.25 1 0.375 0 0.5 1 0.375 0 0.375 1 0.5 0 0.625 1 0.5 0 0.5 1 0.625 0 0.75 1 0.75 0 0.875 1 0.875 0 1 1 1</float_array>
        <technique_common><accessor source="#vfx_kurp_0051-mesh-uv0-array" count="192" stride="2"><param name="S" type="float"/><param name="T" type="float"/></accessor></technique_common>
      </source>
      <vertices id="vfx_kurp_0051-mesh-vertices"><input semantic="POSITION" source="#vfx_kurp_0051-mesh-positions"/></vertices>
      <triangles material="PreviewMaterial" count="128">
        <input semantic="VERTEX" source="#vfx_kurp_0051-mesh-vertices" offset="0"/>
        <input semantic="NORMAL" source="#vfx_kurp_0051-mesh-normals" offset="1"/>
        <input semantic="TEXCOORD" source="#vfx_kurp_0051-mesh-uv0" offset="2" set="0"/>
        <p>0 0 0 1 1 1 2 2 2 2 2 2 1 1 1 3 3 3 4 4 4 3 3 3 1 1 1 3 3 3 4 4 4 5 5 5 6 6 6 7 7 7 8 8 8 7 7 7 6 6 6 9 9 9 10 10 10 11 11 11 12 12 12 11 11 11 10 10 10 13 13 13 14 14 14 15 15 15 16 16 16 15 15 15 14 14 14 17 17 17 18 18 18 17 17 17 14 14 14 17 17 17 18 18 18 19 19 19 20 20 20 19 19 19 18 18 18 19 19 19 20 20 20 21 21 21 22 22 22 21 21 21 20 20 20 21 21 21 22 22 22 23 23 23 24 24 24 25 25 25 26 26 26 26 26 26 25 25 25 27 27 27 28 28 28 27 27 27 25 25 25 27 27 27 28 28 28 29 29 29 30 30 30 31 31 31 32 32 32 31 31 31 30 30 30 33 33 33 34 34 34 35 35 35 36 36 36 35 35 35 34 34 34 37 37 37 38 38 38 39 39 39 40 40 40 39 39 39 38 38 38 41 41 41 42 42 42 41 41 41 38 38 38 41 41 41 42 42 42 43 43 43 44 44 44 43 43 43 42 42 42 43 43 43 44 44 44 45 45 45 46 46 46 45 45 45 44 44 44 45 45 45 46 46 46 47 47 47 48 48 48 49 49 49 50 50 50 50 50 50 49 49 49 51 51 51 52 52 52 51 51 51 49 49 49 51 51 51 52 52 52 53 53 53 54 54 54 55 55 55 56 56 56 55 55 55 54 54 54 57 57 57 58 58 58 59 59 59 60 60 60 59 59 59 58 58 58 61 61 61 62 62 62 63 63 63 64 64 64 63 63 63 62 62 62 65 65 65 66 66 66 65 65 65 62 62 62 65 65 65 66 66 66 67 67 67 68 68 68 67 67 67 66 66 66 67 67 67 68 68 68 69 69 69 70 70 70 69 69 69 68 68 68 69 69 69 70 70 70 71 71 71 72 72 72 73 73 73 74 74 74 74 74 74 73 73 73 75 75 75 76 76 76 75 75 75 73 73 73 75 75 75 76 76 76 77 77 77 78 78 78 79 79 79 80 80 80 79 79 79 78 78 78 81 81 81 82 82 82 83 83 83 84 84 84 83 83 83 82 82 82 85 85 85 86 86 86 87 87 87 88 88 88 87 87 87 86 86 86 89 89 89 90 90 90 89 89 89 86 86 86 89 89 89 90 90 90 91 91 91 92 92 92 91 91 91 90 90 90 91 91 91 92 92 92 93 93 93 94 94 94 93 93 93 92 92 92 93 93 93 94 94 94 95 95 95 96 96 96 97 97 97 98 98 98 98 98 98 97 97 97 99 99 99 100 100 100 99 99 99 97 97 97 99 99 99 100 100 100 101 101 101 102 102 102 103 103 103 104 104 104 103 103 103 102 102 102 105 105 105 106 106 106 107 107 107 108 108 108 107 107 107 106 106 106 109 109 109 110 110 110 111 111 111 112 112 112 111 111 111 110 110 110 113 113 113 114 114 114 113 113 113 110 110 110 113 113 113 114 114 114 115 115 115 116 116 116 115 115 115 114 114 114 115 115 115 116 116 116 117 117 117 118 118 118 117 117 117 116 116 116 117 117 117 118 118 118 119 119 119 120 120 120 121 121 121 122 122 122 122 122 122 121 121 121 123 123 123 124 124 124 123 123 123 121 121 121 123 123 123 124 124 124 125 125 125 126 126 126 127 127 127 128 128 128 127 127 127 126 126 126 129 129 129 130 130 130 131 131 131 132 132 132 131 131 131 130 130 130 133 133 133 134 134 134 135 135 135 136 136 136 135 135 135 134 134 134 137 137 137 138 138 138 137 137 137 134 134 134 137 137 137 138 138 138 139 139 139 140 140 140 139 139 139 138 138 138 139 139 139 140 140 140 141 141 141 142 142 142 141 141 141 140 140 140 141 141 141 142 142 142 143 143 143 144 144 144 145 145 145 146 146 146 146 146 146 145 145 145 147 147 147 148 148 148 147 147 147 145 145 145 147 147 147 148 148 148 149 149 149 150 150 150 151 151 151 152 152 152 151 151 151 150 150 150 153 153 153 154 154 154 155 155 155 156 156 156 155 155 155 154 154 154 157 157 157 158 158 158 159 159 159 160 160 160 159 159 159 158 158 158 161 161 161 162 162 162 161 161 161 158 158 158 161 161 161 162 162 162 163 163 163 164 164 164 163 163 163 162 162 162 163 163 163 164 164 164 165 165 165 166 166 166 165 165 165 164 164 164 165 165 165 166 166 166 167 167 167 168 168 168 169 169 169 170 170 170 170 170 170 169 169 169 171 171 171 172 172 172 171 171 171 169 169 169 171 171 171 172 172 172 173 173 173 174 174 174 175 175 175 176 176 176 175 175 175 174 174 174 177 177 177 178 178 178 179 179 179 180 180 180 179 179 179 178 178 178 181 181 181 182 182 182 183 183 183 184 184 184 183 183 183 182 182 182 185 185 185 186 186 186 185 185 185 182 182 182 185 185 185 186 186 186 187 187 187 188 188 188 187 187 187 186 186 186 187 187 187 188 188 188 189 189 189 190 190 190 189 189 189 188 188 188 189 189 189 190 190 190 191 191 191</p>
      </triangles>
    </mesh></geometry>
  </library_geometries>
  <library_visual_scenes>
    <visual_scene id="Scene" name="Scene">
      <node id="vfx_kurp_0051" name="vfx_kurp_0051" type="NODE">
        <instance_geometry url="#vfx_kurp_0051-mesh"><bind_material><technique_common><instance_material symbol="PreviewMaterial" target="#PreviewMaterial"><bind_vertex_input semantic="UVSET0" input_semantic="TEXCOORD" input_set="0"/></instance_material></technique_common></bind_material></instance_geometry>
      </node>
    </visual_scene>
  </library_visual_scenes>
  <scene><instance_visual_scene url="#Scene"/></scene>
</COLLADA>
