<?xml version="1.0" encoding="utf-8"?>
<COLLADA xmlns="http://www.collada.org/2005/11/COLLADASchema" version="1.4.1">
  <asset>
    <contributor><authoring_tool>Morrobroom Kurpulio VFX preview converter</authoring_tool></contributor>
    <unit name="unit" meter="1"/>
    <up_axis>Z_UP</up_axis>
  </asset>
  <library_images>
    <image id="VFXTexture" name="darkmap_newgen-1.dds">
      <init_from>../../../Textures/Kurp/darkmap_newgen-1.dds</init_from>
    </image>
  </library_images>
  <library_effects>
    <effect id="PreviewEffect">
      <profile_COMMON>
        <newparam sid="VFXTexture-surface">
          <surface type="2D"><init_from>VFXTexture</init_from></surface>
        </newparam>
        <newparam sid="VFXTexture-sampler">
          <sampler2D><source>VFXTexture-surface</source></sampler2D>
        </newparam>
        <technique sid="common"><phong>
          <emission><color>0.08 0.08 0.08 1</color></emission>
          <ambient><color>0.2 0.2 0.2 1</color></ambient>
          <diffuse><texture texture="VFXTexture-sampler" texcoord="UVSET0"/></diffuse>
          <specular><color>0.15 0.15 0.15 1</color></specular>
          <shininess><float>8</float></shininess>
          <transparent opaque="A_ONE"><texture texture="VFXTexture-sampler" texcoord="UVSET0"/></transparent>
          <transparency><float>1</float></transparency>
        </phong></technique>
      </profile_COMMON>
      <extra><technique profile="GOOGLEEARTH"><double_sided>1</double_sided></technique></extra>
    </effect>
  </library_effects>
  <library_materials><material id="PreviewMaterial" name="PreviewMaterial"><instance_effect url="#PreviewEffect"/></material></library_materials>
  <library_geometries>
    <geometry id="vfx_kurp_0117-mesh" name="vfx_kurp_0117"><mesh>
      <source id="vfx_kurp_0117-mesh-positions">
        <float_array id="vfx_kurp_0117-mesh-positions-array" count="918">-4.407794 6.80283642 2.10737205 -4.31446218 6.05529356 1.97494507 -4.84191275 6.45467663 1.1534276 -4.63951683 5.75657606 0.918666303 -3.97531939 5.37336302 1.84709442 -4.50918674 4.97998381 0.986744225 -3.94939756 4.63861799 1.55535078 -4.4024334 4.28188229 0.61915642 -3.34806514 3.93201971 1.91826189 -3.6719892 3.63381481 0.860921979 -3.35046053 3.22749853 1.43204105 -3.79374242 2.87518454 0.486694604 -2.87830281 2.53256035 1.55569565 -3.34094763 2.17146897 0.628517568 -2.59373689 1.87809193 1.21107292 -3.19489527 1.45420778 0.413861901 -2.58599949 1.09695959 1.13219702 -3.13757133 0.695554793 0.288459063 -2.35514379 0.36203602 1.12598646 -2.82486367 -0.0022625823 0.20544672 -2.17441273 -0.322508454 0.791547894 -2.7587564 -0.73876971 -0.0214404427 -1.88157368 -1.01108634 0.633511961 -2.46876931 -1.42864072 -0.176800311 -1.29539442 -1.7080586 0.92596519 -1.7448585 -2.06317496 -0.0135805216 -1.23581791 -2.38946533 0.407157212 -1.88250816 -2.83399057 -0.347331613 -0.991823137 -3.17673993 0.687931776 -1.88250816 -2.83399057 -0.347331613 -0.991823137 -3.17673993 0.687931776 -1.36939275 -3.49926424 -0.319072127 -1.07894015 -3.87834859 0.0690958872 -1.62726724 -4.27828264 -0.777686834 -0.725305736 -4.6014266 0.172597215 -1.33177161 -5.02771711 -0.619634092 -0.638966918 -5.3660965 0.118376061 -1.10937238 -5.73070621 -0.801520407 -0.461082071 -6.08801365 -0.0281685498 -0.923175335 -6.44885492 -0.95586431 -4.065063 7.03208971 1.54614866 -3.99699163 6.3074007 1.26132083 -4.88238955 5.95633459 1.70947993 -4.91327763 5.2259531 1.31643939 -3.89775491 5.58747005 0.99535197 -4.91327763 5.2259531 1.31643939 -3.89775491 5.58747005 0.99535197 -4.49157381 4.52457333 1.40308928 -3.85711789 4.81801987 0.902199209 -4.49157381 4.52457333 1.40308928 -3.89775491 5.58747005 0.99535197 -4.49157381 4.52457333 1.40308928 -3.85711789 4.81801987 0.902199209 -4.12931776 3.77362514 1.66162777 -3.64336801 4.10965443 0.735898376 -4.12931776 3.77362514 1.66162777 -3.85711789 4.81801987 0.902199209 -3.88937545 3.06676674 1.5239687 -3.25054145 3.39397192 0.855865777 -3.29663539 2.36258507 1.86254191 -2.75567865 2.75267482 0.73569721 -3.03850985 1.7076683 1.48350012 -2.79494572 2.0162456 0.36206156 -3.04196811 0.973299444 1.14902174 -2.02268696 1.34793568 0.765811682 -3.04196811 0.973299444 1.14902174 -2.79494572 2.0162456 0.36206156 -3.04196811 0.973299444 1.14902174 -2.02268696 1.34793568 0.765811682 -3.06801105 0.25906381 0.679826438 -2.47832727 0.564811885 0.0536099449 -3.06801105 0.25906381 0.679826438 -2.47832727 0.564811885 0.0536099449 -2.55485892 -0.468326122 1.02700245 -2.00291634 -0.148448139 0.27583608 -2.55485892 -0.468326122 1.02700245 -2.00291634 -0.148448139 0.27583608 -2.59018326 -1.21096838 0.690738022 -1.70616376 -0.862271726 0.252831131 -2.59018326 -1.21096838 0.690738022 -2.00291634 -0.148448139 0.27583608 -2.2683804 -1.92335093 0.695125878 -0.95726651 -1.48315418 0.380673021 -1.7209096 -2.55582118 0.602707028 -0.85202527 -2.20817685 0.14918153 -1.79338336 -3.29106784 0.176883578 -0.976406574 -2.97336578 -0.195026651 -1.74426103 -4.04627514 0.0224023033 -0.754287124 -3.66563106 -0.432350695 -1.43233001 -4.73337364 -0.116712444 -0.664223015 -4.39143515 -0.680908918 -1.43233001 -4.73337364 -0.116712444 -0.664223015 -4.39143515 -0.680908918 -1.03071249 -5.44125414 -0.0245859865 -0.613473475 -5.1745944 -0.689643741 -1.03071249 -5.44125414 -0.0245859865 -0.664223015 -4.39143515 -0.680908918 -0.930992961 -6.22159624 0.0202280283 -0.287601084 -5.88789988 -0.674866915 -0.518028557 -6.92989111 0.130240276 -2.79968643 9.41044807 3.97591114 -2.61244488 8.46175385 3.89262509 -3.89758086 8.55710411 4.44823074 -3.84416604 7.62125158 4.20250654 -2.41247106 7.59503984 3.47897816 -3.38796878 6.7299509 4.0998621 -2.43995857 6.58822441 3.46226883 -3.51464105 5.73265314 3.96276355 -1.57706118 5.9185071 2.77008581 -2.81017041 5.07813787 3.07828331 -1.86521518 4.85851669 2.76196003 -2.95186591 4.00409412 3.24792719 -1.32554317 4.09231424 2.20738959 -2.38843465 3.23561144 2.7221961 -1.41673803 3.15874958 1.83430386 -2.3096664 2.28573823 2.55541015 -1.16023314 2.19394302 1.87443423 -2.11400676 1.32677031 2.52168727 -0.800611198 1.31899583 1.62511313 -1.85482144 0.461460471 2.15045667 -0.880990565 0.353534162 1.39341927 -1.79455149 -0.517497361 2.08948207 -0.72260344 -0.535234571 1.03754652 -1.63266492 -1.40660214 1.73785698 0.0457243919 -1.22582877 0.355064541 -1.03334069 -2.08097935 0.850239515 -0.284312099 -2.27275872 0.258523017 -1.12137079 -3.15113163 1.04744363 0.459197909 -3.07867026 0.0351182856 -1.12137079 -3.15113163 1.04744363 0.459197909 -3.07867026 0.0351182856 -0.708084881 -3.92535591 0.423215002 -0.00846669823 -4.19646215 0.120941877 -0.96622175 -5.0632534 0.76336205 0.501081824 -5.00623941 -0.277064621 -0.385334224 -5.87987614 0.451946378 0.792651534 -5.93960285 -0.339047492 -0.260717362 -6.79721928 0.187317267 0.963301778 -6.86363602 -0.538354158 -0.100266472 -7.72027397 -0.0243694894 -3.55281448 9.42911053 3.42690516 -3.56992483 8.43773556 3.35448027 -2.98385477 8.21841717 4.61693096 -3.148247 7.17005301 4.66133928 -3.56099296 7.46087503 3.24294782 -3.148247 7.17005301 4.66133928 -3.56099296 7.46087503 3.24294782 -2.65938687 6.37889194 4.16909695 -3.32268286 6.50368404 3.23659968 -2.65938687 6.37889194 4.16909695 -3.56099296 7.46087503 3.24294782 -2.65938687 6.37889194 4.16909695 -3.32268286 6.50368404 3.23659968 -1.94241059 5.60691071 3.78303933 -3.17746997 5.58700657 2.9859879 -1.94241059 5.60691071 3.78303933 -3.32268286 6.50368404 3.23659968 -1.75821531 4.70531654 3.50150442 -2.64486074 4.79384804 2.53769994 -0.928074837 4.02728271 2.81719518 -2.43042898 3.98014569 1.91549718 -1.06597996 3.07725024 2.47448874 -2.56911397 2.93339872 1.97413909 -1.15137029 2.05112433 2.49085402 -1.64703763 2.32917714 1.05795979 -1.15137029 2.05112433 2.49085402 -2.56911397 2.93339872 1.97413909 -1.15137029 2.05112433 2.49085402 -1.64703763 2.32917714 1.05795979 -1.41740763 0.987185597 2.51716375 -2.24939775 1.06897545 1.62591994 -1.41740763 0.987185597 2.51716375 -2.24939775 1.06897545 1.62591994 -0.577912271 0.2848818 1.94135022 -1.57790458 0.326069742 1.0819478 -0.577912271 0.2848818 1.94135022 -1.57790458 0.326069742 1.0819478 -0.66654712 -0.752140582 2.00036144 -1.23895347 -0.530963838 0.741324723 -0.66654712 -0.752140582 2.00036144 -1.57790458 0.326069742 1.0819478 -0.290313154 -1.59474838 1.63016307 -0.68623662 -1.20508969 -0.18532066 -0.0373800546 -2.38486958 0.941325665 -0.63106674 -2.17219853 -0.299700469 -0.246703774 -3.45431924 1.03675938 -0.732714891 -3.24033952 -0.121955164 -0.0901260003 -4.42254448 1.00966311 -0.682193995 -4.17027426 -0.39463228 0.0940615833 -5.30075932 0.630952895 -0.650241077 -5.14622974 -0.491165191 0.0940615833 -5.30075932 0.630952895 -0.650241077 -5.14622974 -0.491165191 0.589699984 -6.09730101 0.166594386 -0.298840135 -6.08105612 -0.498304337 0.589699984 -6.09730101 0.166594386 -0.650241077 -5.14622974 -0.491165191 1.01398289 -7.00392723 0.101640493 0.0913874879 -6.91998148 -0.872404218 1.53382981 -7.79269886 -0.375281811 0.270459831 6.99627781 -0.110349767 0.378037483 6.26548624 -0.0287513267 0.00167038466 6.61509991 1.18264282 -0.0924653187 5.88430786 1.2642411 0.245103806 5.53469467 -0.166997597 -0.0924653187 5.88430786 1.2642411 0.245103806 5.53469467 -0.166997597 0.160799325 5.15351629 1.1259948 0.274758965 4.80390263 0.122620381 0.040956594 4.42272472 1.41561294 0.327572674 4.07311106 -0.704240441 -0.145021588 3.69193292 0.588752031 0.208386749 3.34231925 -0.208024144 -0.145021588 3.69193292 0.588752031 0.327572674 4.07311106 -0.704240441 -0.0434554517 2.96114111 1.08496833 0.171990275 2.61152744 -0.697985709 -0.0440398715 2.2303493 0.595006764 -0.103940174 1.88073552 -0.585767329 -0.0637901574 1.4995575 0.707225144 0.13758339 1.14994371 -0.479155838 0.0860232934 0.768765867 0.813836634 0.223163128 0.419151962 -0.636126935 0.0202179439 0.0379740782 0.656865537 0.0598588176 -0.311639786 -0.442367375 0.0689099506 -0.692817628 0.850625038 -0.05446155 -1.04243147 -0.511794806 -0.0401356705 -1.4236095 0.781197667 -0.0507004932 -1.77322328 -1.25951445 -0.291108727 -2.1544013 0.0334780514 -0.261235714 -2.50401497 -0.787188172 -0.136875093 -2.88519311 0.5058043 0.0725005195 -3.23480654 -1.22390842 -0.136875093 -2.88519311 0.5058043 0.0725005195 -3.23480654 -1.22390842 -0.300875753 -3.61598492 0.0690840036 -0.0830704942 -3.96559834 -0.529447258 -0.140631884 -4.34677649 0.763545215 -0.0198353268 -4.69639015 -0.896632016 0.030130446 -5.07756853 0.396360487 0.165891871 -5.42718172 -0.881994545 -0.035785336 -5.8083601 0.410997987 0.176455691 -6.15797377 -0.861351073 -0.0405948423 -6.53915167 0.4316414 -0.592490971 7.02116823 0.112274349 -0.598495722 6.29037666 0.358464777 0.700501502 6.26821232 0.717266679 0.694496751 5.53742027 1.15138102 -0.618355215 5.55958462 0.559698224 0.694496751 5.53742027 1.15138102 -0.618355215 5.55958462 0.559698224 0.674637258 4.8066287 0.740251541 -0.422575563 4.82879305 0.65080142 0.674637258 4.8066287 0.740251541 -0.618355215 5.55958462 0.559698224 0.674637258 4.8066287 0.740251541 -0.422575563 4.82879305 0.65080142 0.870416939 4.07583666 0.220602766 -0.465694785 4.098001 0.658457398 0.870416939 4.07583666 0.220602766 -0.422575563 4.82879305 0.65080142 0.827297688 3.34504485 0.178519353 -0.426482439 3.36720943 0.241512701 0.866510034 2.61425328 -0.618059516 -0.707425117 2.63641763 -0.0404749662 0.866510034 2.61425328 -0.618059516 -0.707425117 2.63641763 -0.0404749662 0.585567355 1.88346148 -0.450484335 -0.687426031 1.90562594 0.382850677 0.605566442 1.15266967 -0.0951596275 -0.767575502 1.17483413 -0.632076383 0.605566442 1.15266967 -0.0951596275 -0.687426031 1.90562594 0.382850677 0.605566442 1.15266967 -0.0951596275 -0.767575502 1.17483413 -0.632076383 0.52541697 0.42187798 0.405882448 -0.641311646 0.444042355 0.472830206 0.52541697 0.42187798 0.405882448 -0.641311646 0.444042355 0.472830206 0.651680827 -0.308913797 -0.328941077 -0.591219068 -0.286749393 -0.112112753 0.651680827 -0.308913797 -0.328941077 -0.591219068 -0.286749393 -0.112112753 0.701773405 -1.03970551 0.0559984967 -0.586519778 -1.01754117 -0.311176777 0.701773405 -1.03970551 0.0559984967 -0.591219068 -0.286749393 -0.112112753 0.706472695 -1.77049732 -0.190636292 -0.894567668 -1.74833286 -1.04774332 0.398424804 -2.50128913 -0.54469496 -0.889020205 -2.47912455 -0.883999467 0.403972238 -3.23208094 -0.0434715822 -0.75751245 -3.20991635 -0.413535476 0.535480022 -3.96287274 0.0975100473 -0.873613358 -3.94070816 -0.346838653 0.419379115 -4.69366407 -0.00634463364 -0.868494213 -4.67149973 -0.153833792 0.419379115 -4.69366407 -0.00634463364 -0.868494213 -4.67149973 -0.153833792 0.42449826 -5.42445612 -0.40497759 -0.605936944 -5.40229177 -0.150499001 0.42449826 -5.42445612 -0.40497759 -0.868494213 -4.67149973 -0.153833792 0.687055528 -6.15524769 -0.494636357 -0.595831335 -6.13308334 -0.410412312 0.697161138 -6.88603926 -0.919936776</float_array>
        <technique_common><accessor source="#vfx_kurp_0117-mesh-positions-array" count="306" stride="3"><param name="X" type="float"/><param name="Y" type="float"/><param name="Z" type="float"/></accessor></technique_common>
      </source>
      <source id="vfx_kurp_0117-mesh-normals">
        <float_array id="vfx_kurp_0117-mesh-normals-array" count="918">0.865566194 0.190139726 -0.463294774 0.843938746 0.342881194 -0.412552882 0.861537434 0.308666102 -0.403086204 0.844751244 0.292285116 -0.448290917 0.807445052 0.310646088 -0.501529159 0.794413219 0.250267837 -0.553419955 0.764993872 0.344308745 -0.54427554 0.74319189 0.467640723 -0.478516425 0.808830634 0.410047211 -0.421490558 0.834156471 0.363778539 -0.414545723 0.853648856 0.279753749 -0.439342089 0.8140431 0.292278526 -0.501903471 0.708236518 0.470321299 -0.526496829 0.703132345 0.404929586 -0.584497165 0.70906223 0.344826346 -0.615081738 0.747679968 0.199501192 -0.633382933 0.773988785 0.159362719 -0.61281717 0.769275025 0.271275108 -0.578468453 0.740059728 0.357145247 -0.56987619 0.728077163 0.358828152 -0.584077052 0.682142785 0.398345197 -0.613190285 0.657512766 0.362745812 -0.660372954 0.657911911 0.36074663 -0.661070182 0.644639058 0.437080223 -0.627217158 0.688459166 0.447518831 -0.570745892 0.684627493 0.419839692 -0.595835405 0.747661346 0.219756974 -0.626665289 0.727125004 0.0959492644 -0.679766848 0.758487334 0.00265613265 -0.651682368 0.719464486 0.536158744 -0.441480073 0.804974339 0.406626414 -0.43205471 0.81843654 0.298637054 -0.490894632 0.821694758 0.214460484 -0.52803828 0.768925183 0.16466458 -0.617769891 0.748164663 0.1857719 -0.636976011 0.754643953 0.230366625 -0.614364486 0.77430996 0.25418655 -0.579511245 0.780078952 0.336813809 -0.527288618 0.794349548 0.307996093 -0.523590682 0.79380544 0.317318745 -0.518827272 -0.517969679 0.270318663 -0.811563449 -0.483894823 0.301765768 -0.821451899 -0.533185727 0.379477685 -0.75611485 -0.475366917 0.361896363 -0.801908547 -0.377407885 0.274695192 -0.88436748 -0.212141421 -0.244441997 -0.946173413 -0.212141436 -0.244441982 -0.946173414 -0.212141436 -0.244441982 -0.946173414 -0.635393696 0.059647856 -0.76988115 -0.635393696 0.0596478597 -0.769881149 -0.635393667 0.0596478533 -0.769881174 -0.405216812 -0.466222255 -0.786407111 -0.405216812 -0.466222255 -0.786407111 -0.405216812 -0.466222255 -0.786407111 -0.78296827 -0.232514154 -0.576973012 -0.844700524 -0.173422562 -0.506365125 -0.854709984 -0.140595555 -0.499703646 -0.571906164 -0.482058985 -0.663733738 -0.575190899 -0.488580374 -0.656082806 -0.748319981 -0.351080923 -0.562813816 -0.894566644 -0.190216688 -0.40443557 -0.956571488 0.0343675661 -0.28946478 -0.976195798 0.124118103 -0.177866412 -0.978097808 0.0900726627 -0.187647524 -0.0869659587 -0.586835643 -0.805022267 -0.0869659546 -0.586835615 -0.805022288 -0.0869659546 -0.586835615 -0.805022288 -0.459640771 0.499258577 -0.734487056 -0.590705992 0.608890892 -0.529450954 -0.586662241 0.60565234 -0.537598975 -0.674303401 0.67158388 -0.307066793 -0.405572654 -0.610722186 -0.680095019 -0.474831479 -0.584622404 -0.657838666 -0.47235058 -0.585637608 -0.658721125 -0.538752875 -0.556232891 -0.632732416 -0.827475193 0.263799013 -0.495676191 -0.827475193 0.263799013 -0.495676191 -0.827475193 0.263799013 -0.495676191 -0.290442256 -0.219726635 -0.931323521 -0.384841059 -0.164831223 -0.908145378 -0.396355387 -0.135509713 -0.908041588 -0.248375098 -0.165325832 -0.954451245 -0.289580995 -0.0855334384 -0.95332412 -0.441929933 0.239827289 -0.864396209 -0.524147916 0.305339657 -0.79500733 -0.496900794 0.283579884 -0.820165868 -0.489632869 0.297267046 -0.819690159 -0.43825009 0.0714591213 -0.896008065 -0.506106841 0.128708896 -0.852812925 -0.502754166 0.0644359681 -0.86202451 -0.633004907 0.179352165 -0.753085379 -0.443651971 -0.358597961 -0.821328455 -0.443651976 -0.358597935 -0.821328464 -0.443651952 -0.35859794 -0.821328475 -0.787094721 -0.132116841 -0.602517254 -0.820204686 -0.114517869 -0.560490794 -0.837298977 -0.0481835522 -0.544618002 -0.634066285 -0.341777355 -0.693648459 -0.603649263 -0.339098128 -0.721540039 -0.54934253 -0.431435956 -0.715601705 -0.396689214 0.00229339423 -0.917950112 -0.407541685 0.171258387 -0.896984024 -0.383633371 0.144360556 -0.912132373 -0.421813849 0.10679415 -0.900371082 -0.482657738 0.112189481 -0.868593707 -0.50987953 0.0311578345 -0.859681368 -0.539271181 0.126609342 -0.832560309 -0.524013948 0.272543675 -0.80692585 -0.44181251 0.232698795 -0.866402318 -0.418757075 0.19219139 -0.887527454 -0.408953557 0.102676863 -0.906760415 -0.474526747 0.0885514493 -0.87577566 -0.57413071 0.260458706 -0.776231403 -0.604649539 0.171552984 -0.777797216 -0.610858143 0.104572483 -0.784803749 -0.572339362 -0.0455239345 -0.818752237 -0.53518974 -0.0798519988 -0.840949226 -0.543920561 0.0432018998 -0.838023877 -0.570613679 0.130647271 -0.810759718 -0.585640551 0.126401246 -0.800654651 -0.631997218 0.159812746 -0.758313525 -0.665710082 0.105264394 -0.7387486 -0.665456785 0.102793554 -0.739324525 -0.663461912 0.191560131 -0.72327243 -0.608539868 0.219910528 -0.762442515 -0.623971706 0.182980301 -0.759722001 -0.571985768 -0.0227585504 -0.81994776 -0.580248898 -0.163626032 -0.797833152 -0.514557064 -0.247105956 -0.821078361 -0.515930123 0.353656058 -0.780220162 -0.450985188 0.225968254 -0.863452783 -0.468478599 0.0998045448 -0.877819375 -0.47070433 0.00695196465 -0.882263625 -0.541612146 -0.0777146888 -0.8370285 -0.569800362 -0.062198954 -0.819425919 -0.564531495 -0.00896444156 -0.825362847 -0.538249492 0.0236308016 -0.842454194 -0.519143718 0.126287211 -0.845305471 -0.503564716 0.0981411935 -0.858365239 -0.502518998 0.109330808 -0.857625461 -0.907914643 -0.0149320439 0.418889048 -0.924308163 0.0102484951 0.381509356 -0.893499017 0.113445908 0.434499174 -0.923282475 0.0801570093 0.375665176 -0.96157208 -0.0398077194 0.271651395 -0.810229783 -0.574098412 0.118062326 -0.810229783 -0.574098412 0.118062326 -0.810229784 -0.574098412 0.118062318 -0.810280683 -0.205374286 0.548877598 -0.810280683 -0.205374286 0.548877598 -0.81028068 -0.2053743 0.548877597 -0.60279429 -0.725701511 0.331656993 -0.60279429 -0.725701511 0.331656993 -0.60279429 -0.725701511 0.331656993 -0.544299845 -0.422649834 0.72464115 -0.506806382 -0.336398369 0.793714954 -0.513660444 -0.301027067 0.803452334 -0.505759601 -0.691635316 0.515604321 -0.495788991 -0.697403132 0.517515361 -0.483522623 -0.532567142 0.694678424 -0.410888323 -0.310155041 0.857306618 -0.394113691 -0.054129571 0.917466287 -0.321630171 0.0787751132 0.943582807 -0.319145509 0.0416580748 0.946789707 -0.533626156 -0.845471289 0.0205286617 -0.533626156 -0.845471289 0.0205286599 -0.533626198 -0.845471262 0.0205286611 -0.903651346 0.234814269 0.358157094 -0.75881698 0.415509832 0.50154598 -0.771481099 0.403181465 0.492200793 -0.585369701 0.54877692 0.596813376 -0.451190331 -0.822755531 0.345688618 -0.449289897 -0.789768293 0.417617806 -0.449539898 -0.792524989 0.412089823 -0.445039951 -0.754944134 0.481662534 -0.646292924 0.0983004121 0.756731449 -0.646292988 0.0983004054 0.756731395 -0.646292987 0.0983004127 0.756731394 -0.815397442 -0.545221508 0.194577798 -0.826816305 -0.481113097 0.291384602 -0.839273105 -0.452018326 0.302159045 -0.852711753 -0.499302784 0.153555843 -0.888413547 -0.415862292 0.194370582 -0.93931025 -0.0706326736 0.335719048 -0.904979131 0.0241256753 0.424771379 -0.91803016 -0.00663599617 0.396455027 -0.921333137 0.00756797989 0.388700367 -0.908861855 -0.243475014 0.338659189 -0.896224192 -0.16791345 0.410593804 -0.882991091 -0.240761806 0.402939804 -0.835705767 -0.0810855562 0.543158359 -0.680707215 -0.63574165 0.363964617 -0.680707208 -0.635741643 0.363964642 -0.680707215 -0.63574165 0.363964617 -0.604727024 -0.332197008 0.723844164 -0.575261121 -0.298770818 0.76145298 -0.586236056 -0.226306601 0.777889843 -0.592894914 -0.570402147 0.568433823 -0.616588692 -0.578335922 0.534177823 -0.569169769 -0.666357588 0.48167763 -0.954084826 -0.168128075 -0.247901383 -0.96047734 0.0403371113 -0.275420036 -0.953588687 0.0154117945 -0.300717629 -0.943500898 0.128461036 -0.305456735 -0.93545193 0.22216648 -0.27490315 -0.942662652 -0.298421411 -0.149438232 -0.980948737 -0.159455149 -0.110966801 -0.986093947 -0.0884678744 -0.140684621 -0.991363722 0.034906686 -0.126410025 -0.963220216 0.212702999 -0.164207946 -0.950442245 0.259455946 -0.171295507 -0.877599946 0.439631041 -0.191161929 -0.964582157 -0.0276978913 -0.262324396 -0.920764808 -0.251941712 -0.297854902 -0.924966276 -0.0984034986 -0.367088735 -0.980230321 -0.0440050806 -0.192904306 -0.967728858 0.229952933 -0.103065543 -0.991985513 0.11132645 -0.059759219 -0.997955683 0.0470012539 -0.0433051662 -0.988138013 -0.147169455 -0.0438681987 -0.975033198 -0.209468464 -0.0737104173 -0.992618279 -0.0612228373 -0.104693444 -0.994417592 0.0538243345 -0.0907556773 -0.996129325 0.0502196621 -0.0721411997 -0.990955364 0.131941603 -0.024472006 -0.997422803 0.0659725211 0.0282024682 -0.997760774 0.0608695113 0.0277189575 -0.984116854 0.176844493 0.0154933473 -0.981687444 0.180126089 -0.0620028537 -0.989991727 0.137601346 -0.0313408599 -0.991106815 -0.11959687 -0.0583426993 -0.960933824 -0.276563859 0.0108911984 -0.915866968 -0.400363951 -0.0299399979 -0.932609359 0.314774953 -0.176512074 -0.962919847 0.114375504 -0.244343225 -0.980821557 -0.0242191946 -0.19339727 -0.976751105 -0.121403204 -0.176687691 -0.974999025 -0.211501825 -0.0681460212 -0.983243708 -0.177337856 -0.0422267245 -0.991651095 -0.110930761 -0.0657455161 -0.989953038 -0.0967423465 -0.103120811 -0.988215201 0.0321386529 -0.149659022 -0.98685407 -0.0127700538 -0.161108567 -0.986287577 0.00182933602 -0.165025663 -0.248097151 0.311101496 0.917422293 -0.2918629 0.325729394 0.899286611 -0.229297151 0.458733866 0.858478921 -0.283392615 0.420824896 0.861739538 -0.393846426 0.253958168 0.88339699 -0.373804817 -0.447033834 0.812668881 -0.373804843 -0.447033829 0.812668872 -0.373804843 -0.447033829 0.812668872 -0.0787698174 0.102515019 0.991607779 -0.0787698174 0.102515026 0.991607778 -0.0787698174 0.102515019 0.991607779 -0.077381013 -0.591452883 0.802618008 -0.0773810167 -0.591452911 0.802617987 -0.0773810167 -0.591452911 0.802617987 0.232013599 -0.177379922 0.956402663 0.310038928 -0.0574117384 0.948988807 0.311275756 -0.00841090936 0.950282411 0.127394406 -0.506082823 0.853024526 0.129019542 -0.530034657 0.838103347 0.130850937 -0.639827592 0.757296959 0.303475254 -0.442319473 0.843952756 0.3443605 0.0820726007 0.935243249 0.462050379 0.349635393 0.815024257 0.444482798 0.269689646 0.85422628 0.499955215 0.429030008 0.752315117 0.509635399 0.387463995 0.768207923 -0.239254335 -0.77889089 0.579729544 -0.239254349 -0.778890887 0.579729542 -0.239254349 -0.778890887 0.579729542 -0.293255984 0.562281608 0.773201346 -0.0989964181 0.742795366 0.662159161 -0.13829207 0.711804607 0.688628713 0.047277401 0.835614661 0.547277795 0.0271615795 -0.706450222 0.707241354 0.0819325011 -0.657162973 0.749282251 0.0699304929 -0.668414942 0.740493884 0.124893231 -0.61477189 0.778753622 0.159923971 0.468603194 0.868812621 0.159923971 0.468603194 0.868812621 0.159923969 0.468603217 0.868812609 -0.328506499 -0.401990682 0.854685306 -0.266542732 -0.295639187 0.917361675 -0.269102813 -0.254734517 0.928813222 -0.375437549 -0.339453421 0.862448852 -0.375400456 -0.195378304 0.906036322 -0.343193022 0.201842709 0.917321138 -0.244036042 0.348404488 0.905019736 -0.27228427 0.309020609 0.911245049 -0.280258626 0.328141719 0.902096511 -0.301169241 0.0192197521 0.953376992 -0.235034014 0.138252077 0.962104659 -0.247865493 0.012422173 0.968714812 -0.105766853 0.253223652 0.961608629 -0.108114115 -0.476646478 0.872421614 -0.108114121 -0.476646501 0.872421601 -0.108114115 -0.476646478 0.872421614 0.190731903 -0.0516324242 0.980283344 0.239591162 -0.00790516925 0.970841688 0.240608839 0.0908551356 0.96636056 0.0983817207 -0.365083219 0.925762 0.0541267555 -0.378442981 0.924040694 0.0480242629 -0.501916524 0.86358177</float_array>
        <technique_common><accessor source="#vfx_kurp_0117-mesh-normals-array" count="306" stride="3"><param name="X" type="float"/><param name="Y" type="float"/><param name="Z" type="float"/></accessor></technique_common>
      </source>
      <source id="vfx_kurp_0117-mesh-uv0">
        <float_array id="vfx_kurp_0117-mesh-uv0-array" count="612">0 0 0 0.0555555224 1 0 1 0.0555555224 0 0.111111104 1 0.111111104 0 0.166666687 1 0.166666687 0 0.222222209 1 0.222222209 0 0.277777791 1 0.277777791 0 0.333333313 1 0.333333313 0 0.388888896 1 0.388888896 0 0.444444418 1 0.444444418 0 0.5 1 0.5 0 0.555555582 1 0.555555582 0 0.611111104 1 0.611111104 0 0.666666627 1 0.666666627 0 0.722222209 1 0.722222209 0 0.777777791 1 0.722222209 0 0.777777791 1 0.777777791 0 0.833333313 1 0.833333313 0 0.888888896 1 0.888888896 0 0.944444418 1 0.944444418 0 1 1 1 0 0 0 0.0555555224 1 0 1 0.0555555224 0 0.111111104 1 0.0555555224 0 0.111111104 1 0.111111104 0 0.166666687 1 0.111111104 0 0.111111104 1 0.111111104 0 0.166666687 1 0.166666687 0 0.222222209 1 0.166666687 0 0.166666687 1 0.222222209 0 0.277777791 1 0.277777791 0 0.333333313 1 0.333333313 0 0.388888896 1 0.388888896 0 0.444444418 1 0.388888896 0 0.388888896 1 0.388888896 0 0.444444418 1 0.444444418 0 0.5 1 0.444444418 0 0.5 1 0.5 0 0.555555582 1 0.5 0 0.555555582 1 0.555555582 0 0.611111104 1 0.555555582 0 0.555555582 1 0.611111104 0 0.666666627 1 0.666666627 0 0.722222209 1 0.722222209 0 0.777777791 1 0.777777791 0 0.833333313 1 0.833333313 0 0.888888896 1 0.833333313 0 0.888888896 1 0.888888896 0 0.944444418 1 0.888888896 0 0.888888896 1 0.944444418 0 1 1 1 0 0 0 0.0555555224 1 0 1 0.0555555224 0 0.111111104 1 0.111111104 0 0.166666687 1 0.166666687 0 0.222222209 1 0.222222209 0 0.277777791 1 0.277777791 0 0.333333313 1 0.333333313 0 0.388888896 1 0.388888896 0 0.444444418 1 0.444444418 0 0.5 1 0.5 0 0.555555582 1 0.555555582 0 0.611111104 1 0.611111104 0 0.666666627 1 0.666666627 0 0.722222209 1 0.722222209 0 0.777777791 1 0.722222209 0 0.777777791 1 0.777777791 0 0.833333313 1 0.833333313 0 0.888888896 1 0.888888896 0 0.944444418 1 0.944444418 0 1 1 1 0 0 0 0.0555555224 1 0 1 0.0555555224 0 0.111111104 1 0.0555555224 0 0.111111104 1 0.111111104 0 0.166666687 1 0.111111104 0 0.111111104 1 0.111111104 0 0.166666687 1 0.166666687 0 0.222222209 1 0.166666687 0 0.166666687 1 0.222222209 0 0.277777791 1 0.277777791 0 0.333333313 1 0.333333313 0 0.388888896 1 0.388888896 0 0.444444418 1 0.388888896 0 0.388888896 1 0.388888896 0 0.444444418 1 0.444444418 0 0.5 1 0.444444418 0 0.5 1 0.5 0 0.555555582 1 0.5 0 0.555555582 1 0.555555582 0 0.611111104 1 0.555555582 0 0.555555582 1 0.611111104 0 0.666666627 1 0.666666627 0 0.722222209 1 0.722222209 0 0.777777791 1 0.777777791 0 0.833333313 1 0.833333313 0 0.888888896 1 0.833333313 0 0.888888896 1 0.888888896 0 0.944444418 1 0.888888896 0 0.888888896 1 0.944444418 0 1 1 1 0 0 0 0.0555555224 1 0 1 0.0555555224 0 0.111111104 1 0.0555555224 0 0.111111104 1 0.111111104 0 0.166666687 1 0.166666687 0 0.222222209 1 0.222222209 0 0.277777791 1 0.222222209 0 0.222222209 1 0.277777791 0 0.333333313 1 0.333333313 0 0.388888896 1 0.388888896 0 0.444444418 1 0.444444418 0 0.5 1 0.5 0 0.555555582 1 0.555555582 0 0.611111104 1 0.611111104 0 0.666666627 1 0.666666627 0 0.722222209 1 0.722222209 0 0.777777791 1 0.722222209 0 0.777777791 1 0.777777791 0 0.833333313 1 0.833333313 0 0.888888896 1 0.888888896 0 0.944444418 1 0.944444418 0 1 1 1 0 0 0 0.0555555224 1 0 1 0.0555555224 0 0.111111104 1 0.0555555224 0 0.111111104 1 0.111111104 0 0.166666687 1 0.111111104 0 0.111111104 1 0.111111104 0 0.166666687 1 0.166666687 0 0.222222209 1 0.166666687 0 0.166666687 1 0.222222209 0 0.277777791 1 0.277777791 0 0.333333313 1 0.277777791 0 0.333333313 1 0.333333313 0 0.388888896 1 0.388888896 0 0.444444418 1 0.388888896 0 0.388888896 1 0.388888896 0 0.444444418 1 0.444444418 0 0.5 1 0.444444418 0 0.5 1 0.5 0 0.555555582 1 0.5 0 0.555555582 1 0.555555582 0 0.611111104 1 0.555555582 0 0.555555582 1 0.611111104 0 0.666666627 1 0.666666627 0 0.722222209 1 0.722222209 0 0.777777791 1 0.777777791 0 0.833333313 1 0.833333313 0 0.888888896 1 0.833333313 0 0.888888896 1 0.888888896 0 0.944444418 1 0.888888896 0 0.888888896 1 0.944444418 0 1 1 1</float_array>
        <technique_common><accessor source="#vfx_kurp_0117-mesh-uv0-array" count="306" stride="2"><param name="S" type="float"/><param name="T" type="float"/></accessor></technique_common>
      </source>
      <vertices id="vfx_kurp_0117-mesh-vertices"><input semantic="POSITION" source="#vfx_kurp_0117-mesh-positions"/></vertices>
      <triangles material="PreviewMaterial" count="216">
        <input semantic="VERTEX" source="#vfx_kurp_0117-mesh-vertices" offset="0"/>
        <input semantic="NORMAL" source="#vfx_kurp_0117-mesh-normals" offset="1"/>
        <input semantic="TEXCOORD" source="#vfx_kurp_0117-mesh-uv0" offset="2" set="0"/>
        <p>0 0 0 1 1 1 2 2 2 2 2 2 1 1 1 3 3 3 4 4 4 3 3 3 1 1 1 3 3 3 4 4 4 5 5 5 6 6 6 5 5 5 4 4 4 5 5 5 6 6 6 7 7 7 8 8 8 7 7 7 6 6 6 7 7 7 8 8 8 9 9 9 10 10 10 9 9 9 8 8 8 9 9 9 10 10 10 11 11 11 12 12 12 11 11 11 10 10 10 11 11 11 12 12 12 13 13 13 14 14 14 13 13 13 12 12 12 13 13 13 14 14 14 15 15 15 16 16 16 15 15 15 14 14 14 15 15 15 16 16 16 17 17 17 18 18 18 17 17 17 16 16 16 17 17 17 18 18 18 19 19 19 18 18 18 20 20 20 19 19 19 19 19 19 20 20 20 21 21 21 22 22 22 21 21 21 20 20 20 21 21 21 22 22 22 23 23 23 24 24 24 23 23 23 22 22 22 23 23 23 24 24 24 25 25 25 26 26 26 25 25 25 24 24 24 25 25 25 26 26 26 27 27 27 28 28 28 27 27 27 26 26 26 29 29 29 30 30 30 31 31 31 32 32 32 31 31 31 30 30 30 31 31 31 32 32 32 33 33 33 34 34 34 33 33 33 32 32 32 33 33 33 34 34 34 35 35 35 36 36 36 35 35 35 34 34 34 35 35 35 36 36 36 37 37 37 38 38 38 37 37 37 36 36 36 37 37 37 38 38 38 39 39 39 40 40 40 41 41 41 42 42 42 42 42 42 41 41 41 43 43 43 44 44 44 43 43 43 41 41 41 45 45 45 46 46 46 47 47 47 48 48 48 49 49 49 50 50 50 51 51 51 52 52 52 53 53 53 54 54 54 55 55 55 56 56 56 55 55 55 54 54 54 57 57 57 58 58 58 57 57 57 54 54 54 57 57 57 58 58 58 59 59 59 60 60 60 59 59 59 58 58 58 59 59 59 60 60 60 61 61 61 62 62 62 61 61 61 60 60 60 61 61 61 62 62 62 63 63 63 64 64 64 65 65 65 66 66 66 67 67 67 68 68 68 69 69 69 70 70 70 69 69 69 68 68 68 71 71 71 72 72 72 73 73 73 72 72 72 74 74 74 73 73 73 75 75 75 76 76 76 77 77 77 78 78 78 79 79 79 80 80 80 79 79 79 78 78 78 81 81 81 82 82 82 81 81 81 78 78 78 81 81 81 82 82 82 83 83 83 84 84 84 83 83 83 82 82 82 83 83 83 84 84 84 85 85 85 86 86 86 85 85 85 84 84 84 85 85 85 86 86 86 87 87 87 88 88 88 87 87 87 86 86 86 87 87 87 88 88 88 89 89 89 90 90 90 89 89 89 88 88 88 91 91 91 92 92 92 93 93 93 94 94 94 95 95 95 96 96 96 95 95 95 94 94 94 97 97 97 98 98 98 97 97 97 94 94 94 97 97 97 98 98 98 99 99 99 100 100 100 101 101 101 102 102 102 102 102 102 101 101 101 103 103 103 104 104 104 103 103 103 101 101 101 103 103 103 104 104 104 105 105 105 106 106 106 105 105 105 104 104 104 105 105 105 106 106 106 107 107 107 108 108 108 107 107 107 106 106 106 107 107 107 108 108 108 109 109 109 110 110 110 109 109 109 108 108 108 109 109 109 110 110 110 111 111 111 112 112 112 111 111 111 110 110 110 111 111 111 112 112 112 113 113 113 114 114 114 113 113 113 112 112 112 113 113 113 114 114 114 115 115 115 116 116 116 115 115 115 114 114 114 115 115 115 116 116 116 117 117 117 118 118 118 117 117 117 116 116 116 117 117 117 118 118 118 119 119 119 118 118 118 120 120 120 119 119 119 119 119 119 120 120 120 121 121 121 122 122 122 121 121 121 120 120 120 121 121 121 122 122 122 123 123 123 124 124 124 123 123 123 122 122 122 123 123 123 124 124 124 125 125 125 126 126 126 125 125 125 124 124 124 125 125 125 126 126 126 127 127 127 128 128 128 127 127 127 126 126 126 129 129 129 130 130 130 131 131 131 132 132 132 131 131 131 130 130 130 131 131 131 132 132 132 133 133 133 134 134 134 133 133 133 132 132 132 133 133 133 134 134 134 135 135 135 136 136 136 135 135 135 134 134 134 135 135 135 136 136 136 137 137 137 138 138 138 137 137 137 136 136 136 137 137 137 138 138 138 139 139 139 140 140 140 141 141 141 142 142 142 142 142 142 141 141 141 143 143 143 144 144 144 143 143 143 141 141 141 145 145 145 146 146 146 147 147 147 148 148 148 149 149 149 150 150 150 151 151 151 152 152 152 153 153 153 154 154 154 155 155 155 156 156 156 155 155 155 154 154 154 157 157 157 158 158 158 157 157 157 154 154 154 157 157 157 158 158 158 159 159 159 160 160 160 159 159 159 158 158 158 159 159 159 160 160 160 161 161 161 162 162 162 161 161 161 160 160 160 161 161 161 162 162 162 163 163 163 164 164 164 165 165 165 166 166 166 167 167 167 168 168 168 169 169 169 170 170 170 169 169 169 168 168 168 171 171 171 172 172 172 173 173 173 172 172 172 174 174 174 173 173 173 175 175 175 176 176 176 177 177 177 178 178 178 179 179 179 180 180 180 179 179 179 178 178 178 181 181 181 182 182 182 181 181 181 178 178 178 181 181 181 182 182 182 183 183 183 184 184 184 183 183 183 182 182 182 183 183 183 184 184 184 185 185 185 186 186 186 185 185 185 184 184 184 185 185 185 186 186 186 187 187 187 188 188 188 187 187 187 186 186 186 187 187 187 188 188 188 189 189 189 190 190 190 189 189 189 188 188 188 191 191 191 192 192 192 193 193 193 194 194 194 195 195 195 196 196 196 195 195 195 194 194 194 197 197 197 198 198 198 197 197 197 194 194 194 197 197 197 198 198 198 199 199 199 200 200 200 201 201 201 202 202 202 202 202 202 201 201 201 203 203 203 204 204 204 203 203 203 201 201 201 205 205 205 206 206 206 207 207 207 208 208 208 207 207 207 206 206 206 207 207 207 208 208 208 209 209 209 210 210 210 209 209 209 208 208 208 209 209 209 210 210 210 211 211 211 212 212 212 213 213 213 214 214 214 213 213 213 212 212 212 215 215 215 216 216 216 215 215 215 212 212 212 215 215 215 216 216 216 217 217 217 218 218 218 217 217 217 216 216 216 217 217 217 218 218 218 219 219 219 220 220 220 219 219 219 218 218 218 219 219 219 220 220 220 221 221 221 222 222 222 221 221 221 220 220 220 221 221 221 222 222 222 223 223 223 222 222 222 224 224 224 223 223 223 223 223 223 224 224 224 225 225 225 226 226 226 225 225 225 224 224 224 225 225 225 226 226 226 227 227 227 228 228 228 227 227 227 226 226 226 227 227 227 228 228 228 229 229 229 230 230 230 229 229 229 228 228 228 229 229 229 230 230 230 231 231 231 232 232 232 231 231 231 230 230 230 233 233 233 234 234 234 235 235 235 236 236 236 235 235 235 234 234 234 235 235 235 236 236 236 237 237 237 238 238 238 237 237 237 236 236 236 237 237 237 238 238 238 239 239 239 240 240 240 239 239 239 238 238 238 239 239 239 240 240 240 241 241 241 242 242 242 241 241 241 240 240 240 241 241 241 242 242 242 243 243 243 244 244 244 245 245 245 246 246 246 246 246 246 245 245 245 247 247 247 248 248 248 247 247 247 245 245 245 249 249 249 250 250 250 251 251 251 252 252 252 253 253 253 254 254 254 255 255 255 256 256 256 257 257 257 258 258 258 259 259 259 260 260 260 259 259 259 258 258 258 261 261 261 262 262 262 261 261 261 258 258 258 261 261 261 262 262 262 263 263 263 264 264 264 263 263 263 262 262 262 265 265 265 266 266 266 267 267 267 268 268 268 267 267 267 266 266 266 267 267 267 268 268 268 269 269 269 270 270 270 271 271 271 272 272 272 273 273 273 274 274 274 275 275 275 276 276 276 275 275 275 274 274 274 277 277 277 278 278 278 279 279 279 278 278 278 280 280 280 279 279 279 281 281 281 282 282 282 283 283 283 284 284 284 285 285 285 286 286 286 285 285 285 284 284 284 287 287 287 288 288 288 287 287 287 284 284 284 287 287 287 288 288 288 289 289 289 290 290 290 289 289 289 288 288 288 289 289 289 290 290 290 291 291 291 292 292 292 291 291 291 290 290 290 291 291 291 292 292 292 293 293 293 294 294 294 293 293 293 292 292 292 293 293 293 294 294 294 295 295 295 296 296 296 295 295 295 294 294 294 297 297 297 298 298 298 299 299 299 300 300 300 301 301 301 302 302 302 301 301 301 300 300 300 303 303 303 304 304 304 303 303 303 300 300 300 303 303 303 304 304 304 305 305 305</p>
      </triangles>
    </mesh></geometry>
  </library_geometries>
  <library_visual_scenes>
    <visual_scene id="Scene" name="Scene">
      <node id="vfx_kurp_0117" name="vfx_kurp_0117" type="NODE">
        <instance_geometry url="#vfx_kurp_0117-mesh"><bind_material><technique_common><instance_material symbol="PreviewMaterial" target="#PreviewMaterial"><bind_vertex_input semantic="UVSET0" input_semantic="TEXCOORD" input_set="0"/></instance_material></technique_common></bind_material></instance_geometry>
      </node>
    </visual_scene>
  </library_visual_scenes>
  <scene><instance_visual_scene url="#Scene"/></scene>
</COLLADA>
