<?xml version="1.0" encoding="utf-8"?>
<COLLADA xmlns="http://www.collada.org/2005/11/COLLADASchema" version="1.4.1">
  <asset>
    <contributor><authoring_tool>Morrobroom Kurpulio VFX preview converter</authoring_tool></contributor>
    <unit name="unit" meter="1"/>
    <up_axis>Z_UP</up_axis>
  </asset>
  <library_images>
    <image id="VFXTexture" name="darkmap_newgen-1.dds">
      <init_from>../../../Textures/Kurp/darkmap_newgen-1.dds</init_from>
    </image>
  </library_images>
  <library_effects>
    <effect id="PreviewEffect">
      <profile_COMMON>
        <newparam sid="VFXTexture-surface">
          <surface type="2D"><init_from>VFXTexture</init_from></surface>
        </newparam>
        <newparam sid="VFXTexture-sampler">
          <sampler2D><source>VFXTexture-surface</source></sampler2D>
        </newparam>
        <technique sid="common"><phong>
          <emission><color>0.08 0.08 0.08 1</color></emission>
          <ambient><color>0.2 0.2 0.2 1</color></ambient>
          <diffuse><texture texture="VFXTexture-sampler" texcoord="UVSET0"/></diffuse>
          <specular><color>0.15 0.15 0.15 1</color></specular>
          <shininess><float>8</float></shininess>
          <transparent opaque="A_ONE"><texture texture="VFXTexture-sampler" texcoord="UVSET0"/></transparent>
          <transparency><float>1</float></transparency>
        </phong></technique>
      </profile_COMMON>
      <extra><technique profile="GOOGLEEARTH"><double_sided>1</double_sided></technique></extra>
    </effect>
  </library_effects>
  <library_materials><material id="PreviewMaterial" name="PreviewMaterial"><instance_effect url="#PreviewEffect"/></material></library_materials>
  <library_geometries>
    <geometry id="vfx_kurp_0320-mesh" name="vfx_kurp_0320"><mesh>
      <source id="vfx_kurp_0320-mesh-positions">
        <float_array id="vfx_kurp_0320-mesh-positions-array" count="564">-0.0128210022 -0.319114273 4.25578934 0.0712777649 -0.188041664 4.53108838 -0.511293178 0.00388019137 4.21263108 -0.465749537 0.0653868871 4.48594167 -0.435919048 0.135556928 4.75857905 0.12833293 -0.048502358 4.80761397 0.12833293 -0.048502358 4.80761397 0.0712777649 -0.188041664 4.53108838 0.537334389 0.330159635 4.59786316 0.522746559 0.135275573 4.31590358 -0.0128210022 -0.319114273 4.25578934 0.476576657 -0.0599872171 4.03668756 -0.120308565 -0.43650206 3.9811607 0.398062983 -0.246015183 3.75829657 -0.255562264 -0.535403219 3.69918754 0.275197412 -0.42374387 3.45324265 -0.407498346 -0.60582884 3.42526767 0.131908922 -0.566797961 3.17591061 -0.580182562 -0.646093212 3.14029065 -0.0493739448 -0.682577347 2.87275804 -0.756046875 -0.647260335 2.86694411 -0.236662248 -0.754679489 2.59608742 -0.93973695 -0.605621634 2.57931442 -0.446326164 -0.780920115 2.29562628 -0.571021825 -0.0493933781 3.9403313 -0.120308565 -0.43650206 3.9811607 -0.637096232 -0.078142362 3.69655704 -0.255562264 -0.535403219 3.69918754 -0.723012268 -0.100742816 3.42655815 -0.407498346 -0.60582884 3.42526767 -0.804511568 -0.0961476776 3.18386801 -0.580182562 -0.646093212 3.14029065 -0.901691958 -0.0719161176 2.91623073 -0.756046875 -0.647260335 2.86694411 -0.982424962 -0.0192624988 2.67430529 -0.93973695 -0.605621634 2.57931442 -1.05441049 0.0569179213 2.43141839 -1.11453542 -0.518308347 2.2894246 -1.1162456 0.168299604 2.16953232 -1.2578126 -0.390141284 2.01865082 -1.13955449 0.297649784 1.92923177 -1.37255716 -0.212802836 1.72970608 -1.11453542 -0.518308347 2.2894246 -0.652898429 -0.756905961 1.99852058 -1.2578126 -0.390141284 2.01865082 -0.834439841 -0.68792863 1.72413286 -1.37255716 -0.212802836 1.72970608 -0.994504503 -0.565069751 1.43365394 -1.43475863 0.000489223066 1.44219476 -1.10873217 -0.403439686 1.15028572 -1.4291957 0.235869184 1.15863906 -1.16441834 -0.216635961 0.876159496 -1.34402404 0.472376714 0.882442479 -1.15262836 -0.0235148091 0.613887078 -1.15282393 0.695956654 0.591938935 -1.07020445 0.149622151 0.369778295 -0.892409415 0.835972931 0.347373791 -0.923670614 0.276173709 0.146599531 -0.540668304 0.867965668 0.107530847 -0.745816201 0.328626395 -0.0397453727 -1.12506659 0.444812601 1.68984434 -1.43475863 0.000489223066 1.44219476 -1.06164166 0.600383018 1.45308151 -1.4291957 0.235869184 1.15863906 -0.940003935 0.748693005 1.22167645 -1.34402404 0.472376714 0.882442479 -0.752068171 0.867605093 0.997641101 -1.15282393 0.695956654 0.591938935 -0.50304811 0.92519072 0.789075738 -0.892409415 0.835972931 0.347373791 -0.200395631 0.884751354 0.5959931 -0.540668304 0.867965668 0.107530847 0.10356765 0.703102819 0.441601591 -0.540668304 0.867965668 0.107530847 -0.200395631 0.884751354 0.5959931 -0.174545394 0.734054834 -0.0840957722 0.319096044 0.374896703 0.353298123 -0.174545394 0.734054834 -0.0840957722 0.10356765 0.703102819 0.441601591 0.115677194 0.42105794 -0.204512447 0.355478874 -0.0222707682 0.355478899 0.115677194 0.42105794 -0.204512447 0.319096044 0.374896703 0.353298123 0.225756745 -0.0222706949 -0.225756696 -0.174545394 0.734054834 -0.0840957722 -0.565291439 0.297276 -0.189947502 0.115677194 0.42105794 -0.204512447 -0.565291439 0.297276 -0.189947502 -0.174545394 0.734054834 -0.0840957722 -0.419460126 0.177739387 -0.299837227 0.225756745 -0.0222706949 -0.225756696 -0.419460126 0.177739387 -0.299837227 0.115677194 0.42105794 -0.204512447 -0.355478924 -0.0222703609 -0.355478899 2.6620202 2.22644254 2.48401671 2.79788882 2.25373852 2.7683347 3.06645201 1.83574232 2.28792797 3.21742401 1.91571972 2.51457084 3.38130876 1.98501752 2.73476273 2.95633899 2.26935529 3.04007455 2.95633899 2.26935529 3.04007455 2.79788882 2.25373852 2.7683347 2.58438004 1.91736278 3.34406532 2.38065851 1.95507187 3.07062548 2.6620202 2.22644254 2.48401671 2.20229305 1.9886772 2.77860278 2.54657926 2.18332983 2.1914948 2.05036558 2.00879585 2.47073019 2.45060954 2.11575839 1.88521432 1.91620674 2.00147609 2.12189036 2.37740615 2.0240916 1.58635839 1.82125981 1.97300929 1.79312942 2.31815209 1.89736858 1.28126302 1.74327087 1.90212237 1.43667108 2.27573316 1.7413797 0.99927727 1.69451762 1.80428285 1.11283033 2.23780014 1.5401802 0.723077192 1.65565509 1.65159339 0.7810172 2.92824215 1.74650705 2.05665356 2.54657926 2.18332983 2.1914948 2.81737282 1.64786299 1.85026678 2.45060954 2.11575839 1.88521432 2.70578813 1.52826996 1.61780577 2.37740615 2.0240916 1.58635839 2.61318184 1.39832514 1.41755554 2.31815209 1.89736858 1.28126302 2.51998505 1.23702883 1.20085583 2.27573316 1.7413797 0.99927727 2.43595144 1.06574911 1.02359976 2.23780014 1.5401802 0.723077192 2.34898689 0.87513041 0.862103387 2.19999217 1.29979794 0.472076968 2.24865792 0.646996396 0.711429141 2.15808643 1.0383059 0.271728806 2.1364282 0.420063214 0.606906867 2.09207974 0.730832987 0.100825843 2.19999217 1.29979794 0.472076968 1.62566709 1.45726427 0.476291993 2.15808643 1.0383059 0.271728806 1.5994815 1.23873092 0.222203015 2.09207974 0.730832987 0.100825843 1.55665765 0.969799565 -0.00348489196 1.99407263 0.402196379 -0.0192484544 1.49098367 0.678646787 -0.177802837 1.85176061 0.0683620441 -0.0835947199 1.39184169 0.380372365 -0.297573449 1.65465427 -0.248734373 -0.0921700353 1.25079858 0.0941935904 -0.364132809 1.36661757 -0.542033043 -0.0480273218 1.06476507 -0.153538466 -0.383616061 1.04088386 -0.72907681 0.030359614 0.835600521 -0.339581164 -0.370657482 0.630222646 -0.803489774 0.12030447 0.593056266 -0.438608124 -0.348889402 1.99965284 0.184857909 0.535184177 1.99407263 0.402196379 -0.0192484544 1.82937524 -0.0476425385 0.500104185 1.85176061 0.0683620441 -0.0835947199 1.61755826 -0.260878339 0.502084897 1.65465427 -0.248734373 -0.0921700353 1.35543217 -0.433204802 0.537373194 1.36661757 -0.542033043 -0.0480273218 1.04631015 -0.534061553 0.593033693 1.04088386 -0.72907681 0.030359614 0.68917411 -0.532848335 0.647505046 0.630222646 -0.803489774 0.12030447 0.330246507 -0.390772089 0.662062013 0.630222646 -0.803489774 0.12030447 0.68917411 -0.532848335 0.647505046 0.209585808 -0.708826962 0.173242432 0.0532920699 -0.106790496 0.594091744 0.209585808 -0.708826962 0.173242432 0.330246507 -0.390772089 0.662062013 -0.141075352 -0.439343606 0.139897567 -0.0441651276 0.246405622 0.436531825 -0.141075352 -0.439343606 0.139897567 0.0532920699 -0.106790496 0.594091744 -0.317018072 -0.0434340655 -0.00642047957 0.209585808 -0.708826962 0.173242432 0.356423059 -0.447653797 -0.341432404 -0.141075352 -0.439343606 0.139897567 0.356423059 -0.447653797 -0.341432404 0.209585808 -0.708826962 0.173242432 0.155578108 -0.367724993 -0.371502559 -0.317018072 -0.0434340655 -0.00642047957 0.155578108 -0.367724993 -0.371502559 -0.141075352 -0.439343606 0.139897567 0.0361387924 -0.207643077 -0.456951572</float_array>
        <technique_common><accessor source="#vfx_kurp_0320-mesh-positions-array" count="188" stride="3"><param name="X" type="float"/><param name="Y" type="float"/><param name="Z" type="float"/></accessor></technique_common>
      </source>
      <source id="vfx_kurp_0320-mesh-normals">
        <float_array id="vfx_kurp_0320-mesh-normals-array" count="564">-0.53948145 -0.69995849 0.467993459 -0.445021398 -0.771057796 0.45544026 -0.501873564 -0.809272188 0.305289126 -0.392605009 -0.869550294 0.299572351 -0.3197378 -0.908570134 0.268827177 -0.385043438 -0.821690849 0.420197214 0.717685621 -0.669949156 0.189988101 0.662978252 -0.716804168 0.215989864 0.676516659 -0.652449078 0.34151927 0.622726433 -0.686832837 0.374796535 0.561689262 -0.802028603 0.20311399 0.526908269 -0.76497768 0.370373898 0.44434895 -0.87689946 0.183306705 0.418699851 -0.838416139 0.348925225 0.31315353 -0.936192676 0.159618733 0.297324126 -0.898845092 0.321987366 0.172450676 -0.976389527 0.130093261 0.166714069 -0.940375906 0.296478623 0.0215773931 -0.995203174 0.0954204255 0.0234953667 -0.965257222 0.260243086 -0.134364499 -0.989573708 0.0518657635 -0.125348928 -0.967121203 0.221278612 -0.292439847 -0.956274982 0.00413445708 -0.283395415 -0.944435971 0.166516471 -0.606422741 -0.735999488 0.300925592 -0.623822986 -0.618665098 0.477596461 -0.700111191 -0.641299647 0.313973061 -0.696796949 -0.528635677 0.484786895 -0.783490425 -0.538079683 0.310826333 -0.75751625 -0.43041744 0.490825792 -0.849451133 -0.421262685 0.317758593 -0.807067337 -0.32656929 0.491929682 -0.904336514 -0.297134698 0.306408942 -0.843299787 -0.217198948 0.491599519 -0.941018067 -0.162680659 0.296681649 -0.869580329 -0.103529736 0.482816368 -0.956102047 -0.0194928957 0.292384855 -0.882415235 0.0161320865 0.470194757 -0.957114422 0.129580531 0.259115553 -0.880888741 0.140726757 0.451919248 -0.931592706 0.285359383 0.225177825 -0.865397697 0.274604263 0.419141176 -0.448684007 -0.89193207 -0.0560343228 -0.43749571 -0.891949539 0.114120655 -0.592389834 -0.79620345 -0.123021747 -0.586749265 -0.808296813 0.0488012553 -0.717964394 -0.667699322 -0.196735214 -0.725142166 -0.687899039 -0.031044341 -0.814093594 -0.507356527 -0.282561453 -0.837328841 -0.534099334 -0.116697533 -0.868693703 -0.321927277 -0.376475868 -0.912724618 -0.34897113 -0.212492169 -0.869654186 -0.121098437 -0.478577856 -0.937388869 -0.135170188 -0.320984622 -0.80064124 0.0808671863 -0.593661607 -0.898497937 0.0865604577 -0.430358856 -0.666934302 0.248577249 -0.702430059 -0.777615079 0.295845124 -0.554788655 -0.463803405 0.357073988 -0.810792556 -0.580961825 0.464792342 -0.668170215 -0.874866776 0.447409119 0.185561864 -0.827355691 0.416621213 0.376708541 -0.78115415 0.610199864 0.132114797 -0.758793879 0.566411844 0.321573431 -0.638958849 0.766773853 0.0615584941 -0.647284511 0.721421424 0.246117638 -0.434099276 0.900726415 -0.0158032734 -0.469751322 0.869896996 0.150375901 -0.156492053 0.981033792 -0.114380664 -0.220079114 0.974424264 0.0454151677 -0.0292892904 0.993126277 -0.113324024 -0.0773034826 0.996815007 0.019596269 0.345749849 0.913091404 -0.216150712 0.327049885 0.929196309 -0.172141196 0.37664396 0.878939757 -0.292582008 0.295106794 0.95019822 -0.10017646 0.717328116 0.633970843 -0.289000595 0.706141963 0.660816802 -0.254331832 0.734876167 0.578026184 -0.354743218 0.682269987 0.70587438 -0.190391763 0.946441551 0.152374867 -0.2846582 0.947876254 0.18513998 -0.259333366 0.938370659 0.084119433 -0.335237866 0.946225653 0.245069894 -0.211181822 -0.361988843 0.418969155 -0.832723798 -0.461299718 0.576191187 -0.67468977 -0.0865751955 0.367315324 -0.926058415 -0.104497372 0.471865828 -0.875455847 -0.0743900107 0.297239519 -0.951900622 -0.123590621 0.585655822 -0.801082153 0.155357418 0.138919947 -0.978041574 0.179646346 0.224808518 -0.957699494 0.138651269 0.0817226037 -0.986963648 0.206155199 0.322916155 -0.923701895 0.5763222 0.726482156 -0.374267818 0.484699159 0.799623965 -0.354497164 0.424825453 0.753799963 -0.501307241 0.328403501 0.82332712 -0.462907759 0.247165905 0.856320385 -0.453458282 0.408167812 0.838339096 -0.361367675 -0.537804001 0.79945748 0.267646399 -0.488675757 0.842295679 0.227451079 -0.407297011 0.846277585 0.343399759 -0.351976329 0.881763204 0.314016426 -0.436294677 0.892308179 0.115901113 -0.297038229 0.930475837 0.214436488 -0.374427587 0.927240314 -0.00542052929 -0.24280438 0.965054518 0.0985688126 -0.301837144 0.944340042 -0.13082899 -0.179849921 0.983422268 -0.0231224538 -0.222394645 0.940431533 -0.257155895 -0.105656599 0.984334864 -0.141143751 -0.13475157 0.913721539 -0.383347055 -0.0258409648 0.963568174 -0.266211605 -0.0445598172 0.860754359 -0.507066422 0.0606021298 0.920505603 -0.386001059 0.0495580731 0.781408486 -0.622048853 0.14830901 0.847178297 -0.510189543 0.513632294 0.669193383 -0.53699356 0.66031773 0.644939731 -0.384750879 0.609244296 0.575878569 -0.54514701 0.735828865 0.556737056 -0.385486358 0.688351113 0.469582421 -0.552869871 0.802895079 0.463088101 -0.375378345 0.763267117 0.359212853 -0.537019026 0.859460251 0.364289827 -0.358637698 0.819556052 0.236095442 -0.522098478 0.906122307 0.262428546 -0.331773452 0.865091121 0.108015579 -0.489846901 0.940715455 0.154744122 -0.30184216 0.899466029 -0.021283401 -0.436472084 0.963863897 0.0425076256 -0.262981918 0.905903421 -0.166450758 -0.389400998 0.973534204 -0.0740255026 -0.216220672 0.893230488 -0.31297889 -0.322774705 0.965173361 -0.202769368 -0.165302649 0.139977473 0.669674053 -0.729344205 0.239934103 0.749711874 -0.616736355 0.222310692 0.529759289 -0.818494381 0.325312617 0.620071355 -0.713921015 0.292673955 0.361504894 -0.885243564 0.399920356 0.453750474 -0.796350561 0.338985947 0.165295614 -0.926156514 0.45720194 0.260421164 -0.850380623 0.35353345 -0.0489699509 -0.934139199 0.486088767 0.0418082686 -0.872908803 0.325428373 -0.270724868 -0.905982572 0.474023026 -0.198436846 -0.857860705 0.236802032 -0.48681132 -0.840796965 0.415176697 -0.434534558 -0.79925467 0.0975224831 -0.658533341 -0.746205873 0.283030686 -0.651928121 -0.703479463 -0.104216711 -0.766028056 -0.634302684 0.0938449617 -0.815498918 -0.571099499 0.854677909 -0.461944547 -0.236923842 0.935224871 -0.338959329 -0.102279095 0.779722427 -0.611230771 -0.135756697 0.875707604 -0.482238281 -0.0241336314 0.656404316 -0.75421375 -0.0171753299 0.771993288 -0.631635614 0.0711534553 0.477696098 -0.869338227 0.126718135 0.604685473 -0.77274923 0.19290958 0.221272281 -0.934394205 0.279188193 0.369504686 -0.866843094 0.334737714 0.128758878 -0.921511531 0.366384566 0.250058506 -0.872437372 0.419909246 -0.232310104 -0.831418466 0.504752762 -0.18736495 -0.828627823 0.527513324 -0.310294245 -0.831169855 0.461382872 -0.113808128 -0.819669322 0.56141777 -0.607571359 -0.554949518 0.568232413 -0.572271698 -0.564434641 0.594910615 -0.672670663 -0.53324008 0.513000191 -0.505540913 -0.578635341 0.640007443 -0.863358239 -0.0925574877 0.496029902 -0.842403763 -0.109203219 0.527665194 -0.901814061 -0.0577996235 0.428241291 -0.799706043 -0.139580637 0.583941341 -0.18335966 -0.811600417 -0.554692706 0.02005576 -0.893871022 -0.447875387 -0.458579876 -0.759807242 -0.460865982 -0.394081889 -0.83082479 -0.392975359 -0.496798035 -0.708474334 -0.501254257 -0.311904552 -0.899196454 -0.306857112 -0.714216713 -0.541278424 -0.44374785 -0.703996345 -0.602321492 -0.376295052 -0.71768003 -0.498602445 -0.486138845 -0.684543139 -0.66733808 -0.293360832</float_array>
        <technique_common><accessor source="#vfx_kurp_0320-mesh-normals-array" count="188" stride="3"><param name="X" type="float"/><param name="Y" type="float"/><param name="Z" type="float"/></accessor></technique_common>
      </source>
      <source id="vfx_kurp_0320-mesh-uv0">
        <float_array id="vfx_kurp_0320-mesh-uv0-array" count="376">0.5 0.0999999642 0.5 0.0500000119 0 0.0999999642 0 0.0500000119 0 0 0.5 0 0.5 0 0.5 0.0500000119 1 0 1 0.0500000119 0.5 0.0999999642 1 0.0999999642 0.5 0.149999976 1 0.149999976 0.5 0.199999988 1 0.199999988 0.5 0.25 1 0.25 0.5 0.300000012 1 0.300000012 0.5 0.349999964 1 0.349999964 0.5 0.399999976 1 0.399999976 0 0.149999976 0.5 0.149999976 0 0.199999988 0.5 0.199999988 0 0.25 0.5 0.25 0 0.300000012 0.5 0.300000012 0 0.349999964 0.5 0.349999964 0 0.399999976 0.5 0.399999976 0 0.449999988 0.5 0.449999988 0 0.5 0.5 0.5 0 0.549999952 0.5 0.549999952 0.5 0.449999988 1 0.449999988 0.5 0.5 1 0.5 0.5 0.549999952 1 0.549999952 0.5 0.600000024 1 0.600000024 0.5 0.649999976 1 0.649999976 0.5 0.699999988 1 0.699999988 0.5 0.75 1 0.75 0.5 0.800000012 1 0.800000012 0.5 0.850000024 1 0.850000024 0 0.600000024 0.5 0.600000024 0 0.649999976 0.5 0.649999976 0 0.699999988 0.5 0.699999988 0 0.75 0.5 0.75 0 0.800000012 0.5 0.800000012 0 0.850000024 0.5 0.850000024 0 0.899999976 0.5 0.850000024 0 0.850000024 0.5 0.899999976 0 0.949999988 0.5 0.899999976 0 0.899999976 0.5 0.949999988 0 1 0.5 0.949999988 0 0.949999988 0.5 1 0.5 0.899999976 1 0.899999976 0.5 0.949999988 1 0.899999976 0.5 0.899999976 1 0.949999988 0.5 1 1 0.949999988 0.5 0.949999988 1 1 0.5 0.0999999642 0.5 0.0500000119 0 0.0999999642 0 0.0500000119 0 0 0.5 0 0.5 0 0.5 0.0500000119 1 0 1 0.0500000119 0.5 0.0999999642 1 0.0999999642 0.5 0.149999976 1 0.149999976 0.5 0.199999988 1 0.199999988 0.5 0.25 1 0.25 0.5 0.300000012 1 0.300000012 0.5 0.349999964 1 0.349999964 0.5 0.399999976 1 0.399999976 0 0.149999976 0.5 0.149999976 0 0.199999988 0.5 0.199999988 0 0.25 0.5 0.25 0 0.300000012 0.5 0.300000012 0 0.349999964 0.5 0.349999964 0 0.399999976 0.5 0.399999976 0 0.449999988 0.5 0.449999988 0 0.5 0.5 0.5 0 0.549999952 0.5 0.549999952 0.5 0.449999988 1 0.449999988 0.5 0.5 1 0.5 0.5 0.549999952 1 0.549999952 0.5 0.600000024 1 0.600000024 0.5 0.649999976 1 0.649999976 0.5 0.699999988 1 0.699999988 0.5 0.75 1 0.75 0.5 0.800000012 1 0.800000012 0.5 0.850000024 1 0.850000024 0 0.600000024 0.5 0.600000024 0 0.649999976 0.5 0.649999976 0 0.699999988 0.5 0.699999988 0 0.75 0.5 0.75 0 0.800000012 0.5 0.800000012 0 0.850000024 0.5 0.850000024 0 0.899999976 0.5 0.850000024 0 0.850000024 0.5 0.899999976 0 0.949999988 0.5 0.899999976 0 0.899999976 0.5 0.949999988 0 1 0.5 0.949999988 0 0.949999988 0.5 1 0.5 0.899999976 1 0.899999976 0.5 0.949999988 1 0.899999976 0.5 0.899999976 1 0.949999988 0.5 1 1 0.949999988 0.5 0.949999988 1 1</float_array>
        <technique_common><accessor source="#vfx_kurp_0320-mesh-uv0-array" count="188" stride="2"><param name="S" type="float"/><param name="T" type="float"/></accessor></technique_common>
      </source>
      <source id="vfx_kurp_0320-mesh-colors">
        <float_array id="vfx_kurp_0320-mesh-colors-array" count="752">0 0 0 1 0 0 0 0.299999982 0 0 0 0 0 0 0 0 0 0 0 0 0 0 0 0 0 0 0 0 0 0 0 0.299999982 0 0 0 0 0 0 0 0 0 0 0 1 0 0 0 0 0 0 0 1 0 0 0 0 0 0 0 1 0 0 0 0 0 0 0 1 0 0 0 0 0 0 0 1 0 0 0 0 0 0 0 1 0 0 0 0 0 0 0 1 0 0 0 0 0 0 0 0 0 0 0 1 0 0 0 0 0 0 0 1 0 0 0 0 0 0 0 1 0 0 0 0 0 0 0 1 0 0 0 0 0 0 0 1 0 0 0 0 0 0 0 1 0 0 0 0 0 0 0 1 0 0 0 0 0 0 0 1 0 0 0 0 0 0 0 1 0 0 0 1 0 0 0 0 0 0 0 1 0 0 0 0 0 0 0 1 0 0 0 0 0 0 0 1 0 0 0 0 0 0 0 1 0 0 0 0 0 0 0 1 0 0 0 0 0 0 0 1 0 0 0 0 0 0 0 1 0 0 0 0 0 0 0 1 0 0 0 0 0 0 0 0 0 0 0 1 0 0 0 0 0 0 0 1 0 0 0 0 0 0 0 1 0 0 0 0 0 0 0 1 0 0 0 0 0 0 0 1 0 0 0 0 0 0 0 1 0 0 0 0 0 0 0 1 0 0 0 0 0 0 0 0.5 0 0 0 0 0 0 0 0.5 0 0 0 0 0 0 0 0.299999982 0 0 0 0 0 0 0 0.299999982 0 0 0 0 0 0 0 0 0 0 0 0.5 0 0 0 0 0 0 0 0.299999982 0 0 0 0 0 0 0 0.5 0 0 0 0 0 0 0 0 0 0 0 0 0 0 0 0.299999982 0 0 0 0 0 0 0 1 0 0 0 0.299999982 0 0 0 0 0 0 0 0 0 0 0 0 0 0 0 0 0 0 0 0 0 0 0 0.299999982 0 0 0 0 0 0 0 0 0 0 0 1 0 0 0 0 0 0 0 1 0 0 0 0 0 0 0 1 0 0 0 0 0 0 0 1 0 0 0 0 0 0 0 1 0 0 0 0 0 0 0 1 0 0 0 0 0 0 0 1 0 0 0 0 0 0 0 0 0 0 0 1 0 0 0 0 0 0 0 1 0 0 0 0 0 0 0 1 0 0 0 0 0 0 0 1 0 0 0 0 0 0 0 1 0 0 0 0 0 0 0 1 0 0 0 0 0 0 0 1 0 0 0 0 0 0 0 1 0 0 0 0 0 0 0 1 0 0 0 1 0 0 0 0 0 0 0 1 0 0 0 0 0 0 0 1 0 0 0 0 0 0 0 1 0 0 0 0 0 0 0 1 0 0 0 0 0 0 0 1 0 0 0 0 0 0 0 1 0 0 0 0 0 0 0 1 0 0 0 0 0 0 0 1 0 0 0 0 0 0 0 0 0 0 0 1 0 0 0 0 0 0 0 1 0 0 0 0 0 0 0 1 0 0 0 0 0 0 0 1 0 0 0 0 0 0 0 1 0 0 0 0 0 0 0 1 0 0 0 0 0 0 0 1 0 0 0 0 0 0 0 0.5 0 0 0 0 0 0 0 0.5 0 0 0 0 0 0 0 0.299999982 0 0 0 0 0 0 0 0.299999982 0 0 0 0 0 0 0 0 0 0 0 0.5 0 0 0 0 0 0 0 0.299999982 0 0 0 0 0 0 0 0.5 0 0 0 0 0 0 0 0 0 0 0 0 0 0 0 0.299999982 0 0 0 0</float_array>
        <technique_common><accessor source="#vfx_kurp_0320-mesh-colors-array" count="188" stride="4"><param name="R" type="float"/><param name="G" type="float"/><param name="B" type="float"/><param name="A" type="float"/></accessor></technique_common>
      </source>
      <vertices id="vfx_kurp_0320-mesh-vertices"><input semantic="POSITION" source="#vfx_kurp_0320-mesh-positions"/></vertices>
      <triangles material="PreviewMaterial" count="160">
        <input semantic="VERTEX" source="#vfx_kurp_0320-mesh-vertices" offset="0"/>
        <input semantic="NORMAL" source="#vfx_kurp_0320-mesh-normals" offset="1"/>
        <input semantic="TEXCOORD" source="#vfx_kurp_0320-mesh-uv0" offset="2" set="0"/>
        <input semantic="COLOR" source="#vfx_kurp_0320-mesh-colors" offset="3" set="0"/>
        <p>0 0 0 0 1 1 1 1 2 2 2 2 3 3 3 3 2 2 2 2 1 1 1 1 4 4 4 4 3 3 3 3 5 5 5 5 1 1 1 1 5 5 5 5 3 3 3 3 6 6 6 6 7 7 7 7 8 8 8 8 8 8 8 8 7 7 7 7 9 9 9 9 10 10 10 10 9 9 9 9 7 7 7 7 9 9 9 9 10 10 10 10 11 11 11 11 12 12 12 12 11 11 11 11 10 10 10 10 11 11 11 11 12 12 12 12 13 13 13 13 14 14 14 14 13 13 13 13 12 12 12 12 13 13 13 13 14 14 14 14 15 15 15 15 16 16 16 16 15 15 15 15 14 14 14 14 15 15 15 15 16 16 16 16 17 17 17 17 18 18 18 18 17 17 17 17 16 16 16 16 17 17 17 17 18 18 18 18 19 19 19 19 20 20 20 20 19 19 19 19 18 18 18 18 19 19 19 19 20 20 20 20 21 21 21 21 22 22 22 22 21 21 21 21 20 20 20 20 21 21 21 21 22 22 22 22 23 23 23 23 24 24 24 24 0 0 0 0 2 2 2 2 0 0 0 0 24 24 24 24 25 25 25 25 26 26 26 26 25 25 25 25 24 24 24 24 25 25 25 25 26 26 26 26 27 27 27 27 28 28 28 28 27 27 27 27 26 26 26 26 27 27 27 27 28 28 28 28 29 29 29 29 30 30 30 30 29 29 29 29 28 28 28 28 29 29 29 29 30 30 30 30 31 31 31 31 32 32 32 32 31 31 31 31 30 30 30 30 31 31 31 31 32 32 32 32 33 33 33 33 34 34 34 34 33 33 33 33 32 32 32 32 33 33 33 33 34 34 34 34 35 35 35 35 36 36 36 36 35 35 35 35 34 34 34 34 35 35 35 35 36 36 36 36 37 37 37 37 38 38 38 38 37 37 37 37 36 36 36 36 37 37 37 37 38 38 38 38 39 39 39 39 40 40 40 40 39 39 39 39 38 38 38 38 41 41 41 41 39 39 39 39 40 40 40 40 22 22 22 22 42 42 42 42 23 23 23 23 23 23 23 23 42 42 42 42 43 43 43 43 44 44 44 44 43 43 43 43 42 42 42 42 43 43 43 43 44 44 44 44 45 45 45 45 46 46 46 46 45 45 45 45 44 44 44 44 45 45 45 45 46 46 46 46 47 47 47 47 48 48 48 48 47 47 47 47 46 46 46 46 47 47 47 47 48 48 48 48 49 49 49 49 50 50 50 50 49 49 49 49 48 48 48 48 49 49 49 49 50 50 50 50 51 51 51 51 52 52 52 52 51 51 51 51 50 50 50 50 51 51 51 51 52 52 52 52 53 53 53 53 54 54 54 54 53 53 53 53 52 52 52 52 53 53 53 53 54 54 54 54 55 55 55 55 56 56 56 56 55 55 55 55 54 54 54 54 55 55 55 55 56 56 56 56 57 57 57 57 58 58 58 58 57 57 57 57 56 56 56 56 57 57 57 57 58 58 58 58 59 59 59 59 60 60 60 60 41 41 41 41 40 40 40 40 41 41 41 41 60 60 60 60 61 61 61 61 62 62 62 62 61 61 61 61 60 60 60 60 61 61 61 61 62 62 62 62 63 63 63 63 64 64 64 64 63 63 63 63 62 62 62 62 63 63 63 63 64 64 64 64 65 65 65 65 66 66 66 66 65 65 65 65 64 64 64 64 65 65 65 65 66 66 66 66 67 67 67 67 68 68 68 68 67 67 67 67 66 66 66 66 67 67 67 67 68 68 68 68 69 69 69 69 70 70 70 70 69 69 69 69 68 68 68 68 69 69 69 69 70 70 70 70 71 71 71 71 72 72 72 72 73 73 73 73 74 74 74 74 73 73 73 73 72 72 72 72 75 75 75 75 76 76 76 76 77 77 77 77 78 78 78 78 77 77 77 77 76 76 76 76 79 79 79 79 80 80 80 80 81 81 81 81 82 82 82 82 83 83 83 83 81 81 81 81 80 80 80 80 58 58 58 58 84 84 84 84 59 59 59 59 59 59 59 59 84 84 84 84 85 85 85 85 86 86 86 86 87 87 87 87 88 88 88 88 87 87 87 87 86 86 86 86 89 89 89 89 90 90 90 90 91 91 91 91 92 92 92 92 91 91 91 91 90 90 90 90 93 93 93 93 94 94 94 94 95 95 95 95 96 96 96 96 97 97 97 97 96 96 96 96 95 95 95 95 98 98 98 98 97 97 97 97 99 99 99 99 95 95 95 95 99 99 99 99 97 97 97 97 100 100 100 100 101 101 101 101 102 102 102 102 102 102 102 102 101 101 101 101 103 103 103 103 104 104 104 104 103 103 103 103 101 101 101 101 103 103 103 103 104 104 104 104 105 105 105 105 106 106 106 106 105 105 105 105 104 104 104 104 105 105 105 105 106 106 106 106 107 107 107 107 108 108 108 108 107 107 107 107 106 106 106 106 107 107 107 107 108 108 108 108 109 109 109 109 110 110 110 110 109 109 109 109 108 108 108 108 109 109 109 109 110 110 110 110 111 111 111 111 112 112 112 112 111 111 111 111 110 110 110 110 111 111 111 111 112 112 112 112 113 113 113 113 114 114 114 114 113 113 113 113 112 112 112 112 113 113 113 113 114 114 114 114 115 115 115 115 116 116 116 116 115 115 115 115 114 114 114 114 115 115 115 115 116 116 116 116 117 117 117 117 118 118 118 118 94 94 94 94 96 96 96 96 94 94 94 94 118 118 118 118 119 119 119 119 120 120 120 120 119 119 119 119 118 118 118 118 119 119 119 119 120 120 120 120 121 121 121 121 122 122 122 122 121 121 121 121 120 120 120 120 121 121 121 121 122 122 122 122 123 123 123 123 124 124 124 124 123 123 123 123 122 122 122 122 123 123 123 123 124 124 124 124 125 125 125 125 126 126 126 126 125 125 125 125 124 124 124 124 125 125 125 125 126 126 126 126 127 127 127 127 128 128 128 128 127 127 127 127 126 126 126 126 127 127 127 127 128 128 128 128 129 129 129 129 130 130 130 130 129 129 129 129 128 128 128 128 129 129 129 129 130 130 130 130 131 131 131 131 132 132 132 132 131 131 131 131 130 130 130 130 131 131 131 131 132 132 132 132 133 133 133 133 134 134 134 134 133 133 133 133 132 132 132 132 135 135 135 135 133 133 133 133 134 134 134 134 116 116 116 116 136 136 136 136 117 117 117 117 117 117 117 117 136 136 136 136 137 137 137 137 138 138 138 138 137 137 137 137 136 136 136 136 137 137 137 137 138 138 138 138 139 139 139 139 140 140 140 140 139 139 139 139 138 138 138 138 139 139 139 139 140 140 140 140 141 141 141 141 142 142 142 142 141 141 141 141 140 140 140 140 141 141 141 141 142 142 142 142 143 143 143 143 144 144 144 144 143 143 143 143 142 142 142 142 143 143 143 143 144 144 144 144 145 145 145 145 146 146 146 146 145 145 145 145 144 144 144 144 145 145 145 145 146 146 146 146 147 147 147 147 148 148 148 148 147 147 147 147 146 146 146 146 147 147 147 147 148 148 148 148 149 149 149 149 150 150 150 150 149 149 149 149 148 148 148 148 149 149 149 149 150 150 150 150 151 151 151 151 152 152 152 152 151 151 151 151 150 150 150 150 151 151 151 151 152 152 152 152 153 153 153 153 154 154 154 154 135 135 135 135 134 134 134 134 135 135 135 135 154 154 154 154 155 155 155 155 156 156 156 156 155 155 155 155 154 154 154 154 155 155 155 155 156 156 156 156 157 157 157 157 158 158 158 158 157 157 157 157 156 156 156 156 157 157 157 157 158 158 158 158 159 159 159 159 160 160 160 160 159 159 159 159 158 158 158 158 159 159 159 159 160 160 160 160 161 161 161 161 162 162 162 162 161 161 161 161 160 160 160 160 161 161 161 161 162 162 162 162 163 163 163 163 164 164 164 164 163 163 163 163 162 162 162 162 163 163 163 163 164 164 164 164 165 165 165 165 166 166 166 166 167 167 167 167 168 168 168 168 167 167 167 167 166 166 166 166 169 169 169 169 170 170 170 170 171 171 171 171 172 172 172 172 171 171 171 171 170 170 170 170 173 173 173 173 174 174 174 174 175 175 175 175 176 176 176 176 177 177 177 177 175 175 175 175 174 174 174 174 152 152 152 152 178 178 178 178 153 153 153 153 153 153 153 153 178 178 178 178 179 179 179 179 180 180 180 180 181 181 181 181 182 182 182 182 181 181 181 181 180 180 180 180 183 183 183 183 184 184 184 184 185 185 185 185 186 186 186 186 185 185 185 185 184 184 184 184 187 187 187 187</p>
      </triangles>
    </mesh></geometry>
  </library_geometries>
  <library_visual_scenes>
    <visual_scene id="Scene" name="Scene">
      <node id="vfx_kurp_0320" name="vfx_kurp_0320" type="NODE">
        <instance_geometry url="#vfx_kurp_0320-mesh"><bind_material><technique_common><instance_material symbol="PreviewMaterial" target="#PreviewMaterial"><bind_vertex_input semantic="UVSET0" input_semantic="TEXCOORD" input_set="0"/></instance_material></technique_common></bind_material></instance_geometry>
      </node>
    </visual_scene>
  </library_visual_scenes>
  <scene><instance_visual_scene url="#Scene"/></scene>
</COLLADA>
