<?xml version="1.0" encoding="utf-8"?>
<COLLADA xmlns="http://www.collada.org/2005/11/COLLADASchema" version="1.4.1">
  <asset>
    <contributor><authoring_tool>Morrobroom Kurpulio VFX preview converter</authoring_tool></contributor>
    <unit name="unit" meter="1"/>
    <up_axis>Z_UP</up_axis>
  </asset>
  <library_images>
    <image id="VFXTexture" name="darkmap_newgen-1.dds">
      <init_from>../../../Textures/Kurp/darkmap_newgen-1.dds</init_from>
    </image>
  </library_images>
  <library_effects>
    <effect id="PreviewEffect">
      <profile_COMMON>
        <newparam sid="VFXTexture-surface">
          <surface type="2D"><init_from>VFXTexture</init_from></surface>
        </newparam>
        <newparam sid="VFXTexture-sampler">
          <sampler2D><source>VFXTexture-surface</source></sampler2D>
        </newparam>
        <technique sid="common"><phong>
          <emission><color>0.08 0.08 0.08 1</color></emission>
          <ambient><color>0.2 0.2 0.2 1</color></ambient>
          <diffuse><texture texture="VFXTexture-sampler" texcoord="UVSET0"/></diffuse>
          <specular><color>0.15 0.15 0.15 1</color></specular>
          <shininess><float>8</float></shininess>
          <transparent opaque="A_ONE"><texture texture="VFXTexture-sampler" texcoord="UVSET0"/></transparent>
          <transparency><float>1</float></transparency>
        </phong></technique>
      </profile_COMMON>
      <extra><technique profile="GOOGLEEARTH"><double_sided>1</double_sided></technique></extra>
    </effect>
  </library_effects>
  <library_materials><material id="PreviewMaterial" name="PreviewMaterial"><instance_effect url="#PreviewEffect"/></material></library_materials>
  <library_geometries>
    <geometry id="vfx_kurp_0444-mesh" name="vfx_kurp_0444"><mesh>
      <source id="vfx_kurp_0444-mesh-positions">
        <float_array id="vfx_kurp_0444-mesh-positions-array" count="378">-2.20482149 0.0268989997 -3.4713023 -2.20921607 0.0269522553 -2.57406269 -1.98938431 1.18070601 -3.47130211 -1.99334921 1.18305899 -2.57451472 -2.35883482 0.0287774113 -1.55524124 -2.12834866 1.2631813 -1.55631303 -3.01520743 0.0367850948 0.78134183 -2.72058556 1.61467564 0.378324218 -2.20921556 0.0269526281 -4.36906548 -1.99334888 1.18305895 -4.36756111 -2.35883444 0.0287779133 -5.38723804 -2.12834839 1.26318164 -5.38641278 -3.0152066 0.0367862219 -7.69698894 -2.7205849 1.6146768 -7.29397071 -2.7205849 1.6146768 -7.29397071 -2.12834839 1.26318164 -5.38641278 -1.53945977 2.66642455 -7.69698842 -1.20433895 2.08597768 -5.38723763 -1.99334888 1.18305895 -4.36756111 -1.12794905 1.95366591 -4.3690651 -1.98938431 1.18070601 -3.47130211 -1.12570574 1.94978009 -3.47130192 -1.12794895 1.95366517 -2.57406248 -1.99334921 1.18305899 -2.57451472 -1.20433931 2.08597709 -1.55524101 -2.12834866 1.2631813 -1.55631303 -1.53946087 2.66642388 0.781342356 -2.72058556 1.61467564 0.378324218 -0.03805682 3.1634346 -7.29397025 -0.0297721478 2.47479544 -5.38641313 -0.0278840179 2.31782085 -4.36756112 -0.0278285449 2.31321017 -3.47130177 -0.0278838283 2.31782016 -2.57451455 -0.0297724812 2.47479487 -1.55631302 -0.0380576667 3.16343374 0.378324685 -1.07911558 -1.92288043 -3.4713025 -1.08126676 -1.92671286 -2.57406306 -1.96155481 -1.13250405 -3.47130246 -1.96546442 -1.13476135 -2.57451506 -1.15449588 -2.05719984 -1.55524163 -2.09857574 -1.21161332 -1.55631322 -1.47574693 -2.62963887 0.781341561 -2.68252794 -1.54875851 0.378323743 -1.08126678 -1.92671228 -4.36906568 -1.96546442 -1.13476116 -4.36756146 -1.15449559 -2.05719918 -5.38723825 -2.09857556 -1.21161282 -5.38641315 -1.47574619 -2.62963759 -7.69698921 -2.68252726 -1.54875737 -7.29397119 -2.68252726 -1.54875737 -7.29397119 -2.09857556 -1.21161282 -5.38641315 -1.96546442 -1.13476116 -4.36756146 -1.96155481 -1.13250405 -3.47130246 -1.96546442 -1.13476135 -2.57451506 -2.09857574 -1.21161332 -1.55631322 -2.68252794 -1.54875851 0.378323743 0.0380571363 -3.16343413 0.378323735 0.0297723411 -2.47479422 -1.55631358 0.0278841457 -2.31781987 -2.57451525 0.0278290958 -2.31320956 -3.47130246 0.0278843912 -2.31781976 -4.36756146 0.0297726745 -2.47479364 -5.38641316 0.0380576254 -3.16343266 -7.2939712 1.53946134 -2.66642291 -7.69698896 0.0297726745 -2.47479364 -5.38641316 0.0380576254 -3.16343266 -7.2939712 1.20433976 -2.08597634 -5.3872384 0.0278843912 -2.31781976 -4.36756146 1.12794922 -1.95366411 -4.36906585 0.0278290958 -2.31320956 -3.47130246 1.1257059 -1.94977888 -3.47130231 0.0297723411 -2.47479422 -1.55631358 1.53946028 -2.66642397 0.781341818 0.0380571363 -3.16343413 0.378323735 1.20433939 -2.08597694 -1.55524161 0.0278841457 -2.31781987 -2.57451525 1.12794932 -1.95366485 -2.57406323 2.72058532 -1.61467544 0.378324203 2.12834862 -1.26318101 -1.55631358 1.99334925 -1.18305804 -2.57451526 1.9893845 -1.18070478 -3.47130212 1.9933495 -1.18305792 -4.36756148 2.12834927 -1.26318045 -5.38641351 2.72058617 -1.61467459 -7.29397073 3.01520803 -0.0367840491 -7.69698843 2.12834927 -1.26318045 -5.38641351 2.72058617 -1.61467459 -7.29397073 2.35883556 -0.0287765938 -5.38723799 1.9933495 -1.18305792 -4.36756148 2.20921636 -0.0269513842 -4.36906582 1.9893845 -1.18070478 -3.47130212 2.20482221 -0.0268977831 -3.47130193 2.20921634 -0.0269518879 -2.57406303 1.99334925 -1.18305804 -2.57451526 2.35883527 -0.0287772507 -1.55524156 2.12834862 -1.26318101 -1.55631358 3.01520751 -0.0367849974 0.781342344 2.72058532 -1.61467544 0.378324203 2.682528 1.54875817 0.378324678 2.09857628 1.21161368 -1.5563132 1.96546513 1.13476203 -2.57451491 1.96155568 1.13250499 -3.47130177 1.96546529 1.1347623 -4.36756149 2.09857661 1.21161426 -5.38641314 2.68252868 1.54875931 -7.29397025 1.47574762 2.62963976 -7.69698816 2.09857661 1.21161426 -5.38641314 2.68252868 1.54875931 -7.29397025 1.15449602 2.05720062 -5.38723778 1.96546529 1.1347623 -4.36756149 1.0812675 1.92671368 -4.36906562 1.96155568 1.13250499 -3.47130177 1.07911634 1.92288157 -3.47130173 1.0812674 1.92671365 -2.57406265 1.96546513 1.13476203 -2.57451491 1.15449568 2.05720004 -1.55524117 2.09857628 1.21161368 -1.5563132 1.47574679 2.62963864 0.781342613 2.682528 1.54875817 0.378324678 -0.0380576667 3.16343374 0.378324685 -0.0297724812 2.47479487 -1.55631302 -0.0278838283 2.31782016 -2.57451455 -0.0278285449 2.31321017 -3.47130177 -0.0278840179 2.31782085 -4.36756112 -0.0297721478 2.47479544 -5.38641313 -0.03805682 3.1634346 -7.29397025</float_array>
        <technique_common><accessor source="#vfx_kurp_0444-mesh-positions-array" count="126" stride="3"><param name="X" type="float"/><param name="Y" type="float"/><param name="Z" type="float"/></accessor></technique_common>
      </source>
      <source id="vfx_kurp_0444-mesh-normals">
        <float_array id="vfx_kurp_0444-mesh-normals-array" count="378">-0.999938086 -0.0111276264 -1.71553491e-06 -0.997047805 -0.0112902022 -0.0759487016 -0.983011469 0.18354414 3.71893425e-08 -0.980223462 0.182976923 -0.0753751311 -0.977651943 -0.0110758156 -0.209938095 -0.962299201 0.164031189 -0.216965473 -0.955477966 -0.0105993231 -0.294872025 -0.946450114 0.0981632192 -0.307564894 -0.99704122 -0.0112905766 0.0760350486 -0.980230776 0.182955378 0.0753322979 -0.977323339 -0.0110763938 0.211462539 -0.961954497 0.163657663 0.218768632 -0.954440317 -0.0105872511 0.298214002 -0.94532853 0.0969829249 0.311365191 -0.568354607 0.759512621 0.316407363 -0.636551722 0.738751108 0.221469424 -0.476305245 0.824984996 0.304192488 -0.488214602 0.845612397 0.215838311 -0.663027341 0.744696659 0.0762996153 -0.498489323 0.86340882 0.0776762818 -0.665018486 0.746826896 3.0223534e-07 -0.499999805 0.866025516 -1.07302538e-06 -0.498492563 0.863414976 -0.0775870078 -0.663042255 0.744678926 -0.0763430803 -0.488385509 0.845908636 -0.214285263 -0.637056542 0.738857117 -0.21965683 -0.47684476 0.825919454 -0.300792504 -0.56999806 0.759878904 -0.312548016 -0.373579737 0.87196596 0.316407245 -0.321501396 0.920645498 0.221469457 -0.313412692 0.946546766 0.0763000903 -0.31426151 0.949336454 6.40888472e-07 -0.313389364 0.946551017 -0.0763431681 -0.321340726 0.921135654 -0.219657108 -0.373075259 0.873572359 -0.312547892 -0.509605652 -0.860408089 -1.701513e-06 -0.508301319 -0.857823698 -0.0759491391 -0.66718003 -0.744896508 1.12231385e-07 -0.665289317 -0.742852918 -0.0745631749 -0.498417809 -0.84113352 -0.209938299 -0.640181772 -0.737537051 -0.21495673 -0.486918295 -0.822168507 -0.29487204 -0.5764293 -0.757677787 -0.306028811 -0.508298544 -0.857817708 0.0760353225 -0.665275005 -0.742869982 0.0745208542 -0.498254049 -0.840848687 0.211462499 -0.639691487 -0.737439956 0.216742044 -0.486388937 -0.821276014 0.298213868 -0.574851054 -0.757332537 0.30982849 -0.94329472 -0.119169377 0.30982855 -0.958487492 -0.185268904 0.216742154 -0.975981799 -0.204709983 0.0745208028 -0.978689277 -0.205346776 1.08805656e-07 -0.975974166 -0.204731027 -0.0745629516 -0.95881677 -0.185644815 -0.21495675 -0.944382876 -0.120363591 -0.30602874 -0.388213319 -0.868731347 -0.307565059 -0.339094044 -0.915391266 -0.216965573 -0.331648864 -0.940386924 -0.075375485 -0.332551801 -0.943084991 5.98306216e-08 -0.33167136 -0.940382435 0.075332502 -0.339245186 -0.914906068 0.218768348 -0.388674442 -0.867170062 0.311365158 0.47630515 -0.824985046 0.304192501 0.321501117 -0.920645665 0.221469166 0.373579312 -0.871966167 0.316407176 0.488214418 -0.845612457 0.215838492 0.313413052 -0.946546672 0.0762997787 0.498489358 -0.863408783 0.0776764703 0.314261937 -0.949336313 5.36312373e-08 0.500000068 -0.866025365 -1.84797733e-06 0.321340474 -0.921135777 -0.219656962 0.476844848 -0.825919388 -0.300792546 0.37307556 -0.873572107 -0.312548236 0.488385489 -0.845908654 -0.214285237 0.313389246 -0.946551055 -0.07634318 0.498492826 -0.863414797 -0.077587308 0.569998192 -0.759878838 -0.312547939 0.637056639 -0.738856989 -0.21965698 0.6630426 -0.744678604 -0.076343222 0.665018476 -0.746826906 1.15299013e-07 0.663026869 -0.744697038 0.076300009 0.636551676 -0.738751143 0.221469439 0.568354883 -0.759512456 0.316407262 0.954440237 0.0105871054 0.298214263 0.961954415 -0.163657892 0.218768824 0.945328424 -0.0969830488 0.311365475 0.977323289 0.0110762485 0.211462774 0.980230728 -0.182955479 0.0753326804 0.997041202 0.0112904464 0.0760353077 0.983011408 -0.18354447 3.00319925e-07 0.999938089 0.0111273861 -1.41711599e-06 0.997047817 0.0112897965 -0.0759486085 0.980223396 -0.182977267 -0.0753751545 0.977651964 0.0110755575 -0.209938012 0.962299163 -0.164031497 -0.21696541 0.955478027 0.0105992793 -0.294871827 0.946450138 -0.0981633741 -0.307564771 0.944382956 0.120363821 -0.306028401 0.958816825 0.185644826 -0.214956495 0.975974238 0.204730734 -0.0745628176 0.978689301 0.205346665 3.46235081e-07 0.975981785 0.204709989 0.0745209687 0.958487439 0.185268893 0.216742395 0.943294634 0.119169228 0.309828871 0.486388851 0.821275916 0.298214278 0.639691292 0.737439997 0.216742477 0.574850963 0.75733244 0.309828897 0.498253968 0.840848651 0.211462834 0.665274981 0.742869989 0.0745210014 0.508298403 0.857817782 0.0760354318 0.667180086 0.744896458 3.69159901e-07 0.509605423 0.860408225 -1.39340304e-06 0.508301163 0.857823849 -0.0759484837 0.665289238 0.742853036 -0.0745627025 0.498417713 0.84113367 -0.209937925 0.640181498 0.737537375 -0.214956436 0.486918316 0.822168646 -0.294871617 0.576429512 0.757677832 -0.306028301 0.388213079 0.868731632 -0.307564558 0.33909426 0.915391197 -0.216965526 0.331648596 0.940387045 -0.0753751636 0.332551282 0.943085174 4.50972345e-07 0.331671187 0.940382464 0.075332897 0.339245217 0.914905925 0.218768899 0.388674237 0.867170071 0.31136539</float_array>
        <technique_common><accessor source="#vfx_kurp_0444-mesh-normals-array" count="126" stride="3"><param name="X" type="float"/><param name="Y" type="float"/><param name="Z" type="float"/></accessor></technique_common>
      </source>
      <source id="vfx_kurp_0444-mesh-uv0">
        <float_array id="vfx_kurp_0444-mesh-uv0-array" count="252">0.833333373 0.5 0.833333373 0.666666687 0.916666687 0.5 0.916666687 0.666666687 0.833333373 0.833333373 0.916666687 0.833333373 0.833333373 1 0.916666687 1 0.833333373 0.333333373 0.916666687 0.333333373 0.833333373 0.166666746 0.916666687 0.166666746 0.833333373 0 0.916666687 0 0.916666687 0 0.916666687 0.166666746 1 0 1 0.166666746 0.916666687 0.333333373 1 0.333333373 0.916666687 0.5 1 0.5 1 0.666666687 0.916666687 0.666666687 1 0.833333373 0.916666687 0.833333373 1 1 0.916666687 1 1.08333337 0 1.08333337 0.166666746 1.08333337 0.333333373 1.08333337 0.5 1.08333337 0.666666687 1.08333337 0.833333373 1.08333337 1 0.666666687 0.5 0.666666687 0.666666687 0.75 0.5 0.75 0.666666687 0.666666687 0.833333373 0.75 0.833333373 0.666666687 1 0.75 1 0.666666687 0.333333373 0.75 0.333333373 0.666666687 0.166666746 0.75 0.166666746 0.666666687 0 0.75 0 0.75 0 0.75 0.166666746 0.75 0.333333373 0.75 0.5 0.75 0.666666687 0.75 0.833333373 0.75 1 0.583333373 1 0.583333373 0.833333373 0.583333373 0.666666687 0.583333373 0.5 0.583333373 0.333333373 0.583333373 0.166666746 0.583333373 0 0.5 0 0.583333373 0.166666746 0.583333373 0 0.5 0.166666746 0.583333373 0.333333373 0.5 0.333333373 0.583333373 0.5 0.5 0.5 0.583333373 0.833333373 0.5 1 0.583333373 1 0.5 0.833333373 0.583333373 0.666666687 0.5 0.666666687 0.416666687 1 0.416666687 0.833333373 0.416666687 0.666666687 0.416666687 0.5 0.416666687 0.333333373 0.416666687 0.166666746 0.416666687 0 0.333333373 0 0.416666687 0.166666746 0.416666687 0 0.333333373 0.166666746 0.416666687 0.333333373 0.333333373 0.333333373 0.416666687 0.5 0.333333373 0.5 0.333333373 0.666666687 0.416666687 0.666666687 0.333333373 0.833333373 0.416666687 0.833333373 0.333333373 1 0.416666687 1 0.25000003 1 0.25000003 0.833333373 0.25000003 0.666666687 0.25000003 0.5 0.25000003 0.333333373 0.25000003 0.166666746 0.25000003 0 0.166666687 0 0.25000003 0.166666746 0.25000003 0 0.166666687 0.166666746 0.25000003 0.333333373 0.166666687 0.333333373 0.25000003 0.5 0.166666687 0.5 0.166666687 0.666666687 0.25000003 0.666666687 0.166666687 0.833333373 0.25000003 0.833333373 0.166666687 1 0.25000003 1 0.0833333582 1 0.0833333582 0.833333373 0.0833333582 0.666666687 0.0833333582 0.5 0.0833333582 0.333333373 0.0833333582 0.166666746 0.0833333582 0</float_array>
        <technique_common><accessor source="#vfx_kurp_0444-mesh-uv0-array" count="126" stride="2"><param name="S" type="float"/><param name="T" type="float"/></accessor></technique_common>
      </source>
      <vertices id="vfx_kurp_0444-mesh-vertices"><input semantic="POSITION" source="#vfx_kurp_0444-mesh-positions"/></vertices>
      <triangles material="PreviewMaterial" count="144">
        <input semantic="VERTEX" source="#vfx_kurp_0444-mesh-vertices" offset="0"/>
        <input semantic="NORMAL" source="#vfx_kurp_0444-mesh-normals" offset="1"/>
        <input semantic="TEXCOORD" source="#vfx_kurp_0444-mesh-uv0" offset="2" set="0"/>
        <p>0 0 0 1 1 1 2 2 2 2 2 2 1 1 1 3 3 3 4 4 4 3 3 3 1 1 1 3 3 3 4 4 4 5 5 5 6 6 6 5 5 5 4 4 4 5 5 5 6 6 6 7 7 7 0 0 0 2 2 2 8 8 8 9 9 9 8 8 8 2 2 2 8 8 8 9 9 9 10 10 10 11 11 11 10 10 10 9 9 9 10 10 10 11 11 11 12 12 12 12 12 12 11 11 11 13 13 13 14 14 14 15 15 15 16 16 16 16 16 16 15 15 15 17 17 17 18 18 18 17 17 17 15 15 15 17 17 17 18 18 18 19 19 19 20 20 20 19 19 19 18 18 18 19 19 19 20 20 20 21 21 21 21 21 21 20 20 20 22 22 22 23 23 23 22 22 22 20 20 20 22 22 22 23 23 23 24 24 24 25 25 25 24 24 24 23 23 23 24 24 24 25 25 25 26 26 26 27 27 27 26 26 26 25 25 25 28 28 28 16 16 16 29 29 29 17 17 17 29 29 29 16 16 16 29 29 29 17 17 17 30 30 30 19 19 19 30 30 30 17 17 17 30 30 30 19 19 19 31 31 31 21 21 21 31 31 31 19 19 19 22 22 22 31 31 31 21 21 21 31 31 31 22 22 22 32 32 32 24 24 24 32 32 32 22 22 22 32 32 32 24 24 24 33 33 33 26 26 26 33 33 33 24 24 24 33 33 33 26 26 26 34 34 34 35 35 35 36 36 36 37 37 37 37 37 37 36 36 36 38 38 38 39 39 39 38 38 38 36 36 36 38 38 38 39 39 39 40 40 40 41 41 41 40 40 40 39 39 39 40 40 40 41 41 41 42 42 42 35 35 35 37 37 37 43 43 43 44 44 44 43 43 43 37 37 37 43 43 43 44 44 44 45 45 45 46 46 46 45 45 45 44 44 44 45 45 45 46 46 46 47 47 47 47 47 47 46 46 46 48 48 48 49 49 49 50 50 50 12 12 12 12 12 12 50 50 50 10 10 10 51 51 51 10 10 10 50 50 50 10 10 10 51 51 51 8 8 8 52 52 52 8 8 8 51 51 51 8 8 8 52 52 52 0 0 0 0 0 0 52 52 52 1 1 1 53 53 53 1 1 1 52 52 52 1 1 1 53 53 53 4 4 4 54 54 54 4 4 4 53 53 53 4 4 4 54 54 54 6 6 6 55 55 55 6 6 6 54 54 54 56 56 56 41 41 41 57 57 57 39 39 39 57 57 57 41 41 41 57 57 57 39 39 39 58 58 58 36 36 36 58 58 58 39 39 39 58 58 58 36 36 36 59 59 59 35 35 35 59 59 59 36 36 36 43 43 43 59 59 59 35 35 35 59 59 59 43 43 43 60 60 60 45 45 45 60 60 60 43 43 43 60 60 60 45 45 45 61 61 61 47 47 47 61 61 61 45 45 45 62 62 62 61 61 61 47 47 47 63 63 63 64 64 64 65 65 65 66 66 66 64 64 64 63 63 63 64 64 64 66 66 66 67 67 67 68 68 68 67 67 67 66 66 66 67 67 67 68 68 68 69 69 69 70 70 70 69 69 69 68 68 68 71 71 71 72 72 72 73 73 73 72 72 72 71 71 71 74 74 74 75 75 75 74 74 74 71 71 71 74 74 74 75 75 75 76 76 76 69 69 69 76 76 76 75 75 75 70 70 70 76 76 76 69 69 69 77 77 77 72 72 72 78 78 78 74 74 74 78 78 78 72 72 72 78 78 78 74 74 74 79 79 79 76 76 76 79 79 79 74 74 74 79 79 79 76 76 76 80 80 80 70 70 70 80 80 80 76 76 76 68 68 68 80 80 80 70 70 70 80 80 80 68 68 68 81 81 81 66 66 66 81 81 81 68 68 68 81 81 81 66 66 66 82 82 82 63 63 63 82 82 82 66 66 66 83 83 83 82 82 82 63 63 63 84 84 84 85 85 85 86 86 86 87 87 87 85 85 85 84 84 84 85 85 85 87 87 87 88 88 88 89 89 89 88 88 88 87 87 87 88 88 88 89 89 89 90 90 90 91 91 91 90 90 90 89 89 89 91 91 91 92 92 92 90 90 90 90 90 90 92 92 92 93 93 93 94 94 94 93 93 93 92 92 92 93 93 93 94 94 94 95 95 95 96 96 96 95 95 95 94 94 94 95 95 95 96 96 96 97 97 97 98 98 98 96 96 96 99 99 99 94 94 94 99 99 99 96 96 96 99 99 99 94 94 94 100 100 100 92 92 92 100 100 100 94 94 94 100 100 100 92 92 92 101 101 101 91 91 91 101 101 101 92 92 92 89 89 89 101 101 101 91 91 91 101 101 101 89 89 89 102 102 102 87 87 87 102 102 102 89 89 89 102 102 102 87 87 87 103 103 103 84 84 84 103 103 103 87 87 87 104 104 104 103 103 103 84 84 84 105 105 105 106 106 106 107 107 107 108 108 108 106 106 106 105 105 105 106 106 106 108 108 108 109 109 109 110 110 110 109 109 109 108 108 108 109 109 109 110 110 110 111 111 111 112 112 112 111 111 111 110 110 110 112 112 112 113 113 113 111 111 111 111 111 111 113 113 113 114 114 114 115 115 115 114 114 114 113 113 113 114 114 114 115 115 115 116 116 116 117 117 117 116 116 116 115 115 115 116 116 116 117 117 117 118 118 118 119 119 119 117 117 117 120 120 120 115 115 115 120 120 120 117 117 117 120 120 120 115 115 115 121 121 121 113 113 113 121 121 121 115 115 115 121 121 121 113 113 113 122 122 122 112 112 112 122 122 122 113 113 113 110 110 110 122 122 122 112 112 112 122 122 122 110 110 110 123 123 123 108 108 108 123 123 123 110 110 110 123 123 123 108 108 108 124 124 124 105 105 105 124 124 124 108 108 108 124 124 124 105 105 105 125 125 125</p>
      </triangles>
    </mesh></geometry>
  </library_geometries>
  <library_visual_scenes>
    <visual_scene id="Scene" name="Scene">
      <node id="vfx_kurp_0444" name="vfx_kurp_0444" type="NODE">
        <instance_geometry url="#vfx_kurp_0444-mesh"><bind_material><technique_common><instance_material symbol="PreviewMaterial" target="#PreviewMaterial"><bind_vertex_input semantic="UVSET0" input_semantic="TEXCOORD" input_set="0"/></instance_material></technique_common></bind_material></instance_geometry>
      </node>
    </visual_scene>
  </library_visual_scenes>
  <scene><instance_visual_scene url="#Scene"/></scene>
</COLLADA>
