<?xml version="1.0" encoding="utf-8"?>
<COLLADA xmlns="http://www.collada.org/2005/11/COLLADASchema" version="1.4.1">
  <asset>
    <contributor><authoring_tool>Morrobroom Kurpulio VFX preview converter</authoring_tool></contributor>
    <unit name="unit" meter="1"/>
    <up_axis>Z_UP</up_axis>
  </asset>
  <library_images>
    <image id="VFXTexture" name="darkmap_newgen-1.dds">
      <init_from>../../../Textures/Kurp/darkmap_newgen-1.dds</init_from>
    </image>
  </library_images>
  <library_effects>
    <effect id="PreviewEffect">
      <profile_COMMON>
        <newparam sid="VFXTexture-surface">
          <surface type="2D"><init_from>VFXTexture</init_from></surface>
        </newparam>
        <newparam sid="VFXTexture-sampler">
          <sampler2D><source>VFXTexture-surface</source></sampler2D>
        </newparam>
        <technique sid="common"><phong>
          <emission><color>0.08 0.08 0.08 1</color></emission>
          <ambient><color>0.2 0.2 0.2 1</color></ambient>
          <diffuse><texture texture="VFXTexture-sampler" texcoord="UVSET0"/></diffuse>
          <specular><color>0.15 0.15 0.15 1</color></specular>
          <shininess><float>8</float></shininess>
          <transparent opaque="A_ONE"><texture texture="VFXTexture-sampler" texcoord="UVSET0"/></transparent>
          <transparency><float>1</float></transparency>
        </phong></technique>
      </profile_COMMON>
      <extra><technique profile="GOOGLEEARTH"><double_sided>1</double_sided></technique></extra>
    </effect>
  </library_effects>
  <library_materials><material id="PreviewMaterial" name="PreviewMaterial"><instance_effect url="#PreviewEffect"/></material></library_materials>
  <library_geometries>
    <geometry id="vfx_kurp_0147-mesh" name="vfx_kurp_0147"><mesh>
      <source id="vfx_kurp_0147-mesh-positions">
        <float_array id="vfx_kurp_0147-mesh-positions-array" count="72">0.881317258 -6.48445797 5.64175366e-07 0.881317139 6.48445797 -5.58126033e-07 -0.881317139 -6.48445797 5.58126033e-07 -0.881317258 6.48445797 -5.64175366e-07 -2.64258908e-08 -6.48445797 -0.881316662 -9.92682061e-08 6.48445797 -0.881317735 9.92682061e-08 -6.48445797 0.881317735 2.64258908e-08 6.48445797 0.881316662 0.317371875 -5.81486797 0.946152151 -3.34097719 9.37690258 4.28438663 -0.938425899 -5.82100677 -0.402134091 -4.59677505 9.37076378 2.93610048 0.329775989 -5.5324111 -0.325671703 -3.32857299 9.65935993 3.01256275 -0.950830042 -6.10346365 0.869689703 -4.60917902 9.08830643 4.20792437 -1.36427915 -6.13527536 0.513865352 -5.26882458 5.39246178 1.50852954 -0.420219243 -5.73623991 -0.40488869 -4.32476425 5.79149675 0.589775562 -0.442347765 -5.82732487 0.563877702 -4.34689331 5.7004118 1.55854189 -1.34215069 -6.04419041 -0.454901069 -5.24669552 5.48354673 0.539763153</float_array>
        <technique_common><accessor source="#vfx_kurp_0147-mesh-positions-array" count="24" stride="3"><param name="X" type="float"/><param name="Y" type="float"/><param name="Z" type="float"/></accessor></technique_common>
      </source>
      <source id="vfx_kurp_0147-mesh-normals">
        <float_array id="vfx_kurp_0147-mesh-normals-array" count="72">-3.43198403e-09 8.65377885e-08 1 -3.43198425e-09 8.65377956e-08 1 -3.43198425e-09 8.65377885e-08 1 -3.43198403e-09 8.65377885e-08 1 1 5.61667912e-09 -7.13103603e-08 1 5.61667912e-09 -7.13103674e-08 1 5.61667912e-09 -7.13103674e-08 1 5.61667912e-09 -7.13103603e-08 -0.695023647 -0.30992737 0.648758164 -0.695023583 -0.309927398 0.64875822 -0.69502364 -0.309927397 0.648758158 -0.695023609 -0.30992741 0.648758185 0.681559552 0.00333158411 0.731755067 0.681559614 0.00333159925 0.731755009 0.681559552 0.00333158527 0.731755067 0.681559614 0.00333160041 0.731755009 -0.653718285 -0.157556308 -0.740154317 -0.653718167 -0.157556234 -0.740154438 -0.653718287 -0.157556294 -0.740154319 -0.653718167 -0.157556234 -0.740154438 -0.685871435 -0.289904212 0.667484773 -0.685871665 -0.289904238 0.667484526 -0.685871435 -0.289904212 0.667484773 -0.685871724 -0.289904238 0.667484465</float_array>
        <technique_common><accessor source="#vfx_kurp_0147-mesh-normals-array" count="24" stride="3"><param name="X" type="float"/><param name="Y" type="float"/><param name="Z" type="float"/></accessor></technique_common>
      </source>
      <source id="vfx_kurp_0147-mesh-uv0">
        <float_array id="vfx_kurp_0147-mesh-uv0-array" count="48">1 1 1 0 0 1 0 0 1 1 1 0 0 1 0 0 1 1 1 0 0 1 0 0 1 1 1 0 0 1 0 0 1 1 1 0 0 1 0 0 1 1 1 0 0 1 0 0</float_array>
        <technique_common><accessor source="#vfx_kurp_0147-mesh-uv0-array" count="24" stride="2"><param name="S" type="float"/><param name="T" type="float"/></accessor></technique_common>
      </source>
      <vertices id="vfx_kurp_0147-mesh-vertices"><input semantic="POSITION" source="#vfx_kurp_0147-mesh-positions"/></vertices>
      <triangles material="PreviewMaterial" count="12">
        <input semantic="VERTEX" source="#vfx_kurp_0147-mesh-vertices" offset="0"/>
        <input semantic="NORMAL" source="#vfx_kurp_0147-mesh-normals" offset="1"/>
        <input semantic="TEXCOORD" source="#vfx_kurp_0147-mesh-uv0" offset="2" set="0"/>
        <p>0 0 0 1 1 1 2 2 2 3 3 3 2 2 2 1 1 1 4 4 4 5 5 5 6 6 6 7 7 7 6 6 6 5 5 5 8 8 8 9 9 9 10 10 10 11 11 11 10 10 10 9 9 9 12 12 12 13 13 13 14 14 14 15 15 15 14 14 14 13 13 13 16 16 16 17 17 17 18 18 18 19 19 19 18 18 18 17 17 17 20 20 20 21 21 21 22 22 22 23 23 23 22 22 22 21 21 21</p>
      </triangles>
    </mesh></geometry>
  </library_geometries>
  <library_visual_scenes>
    <visual_scene id="Scene" name="Scene">
      <node id="vfx_kurp_0147" name="vfx_kurp_0147" type="NODE">
        <instance_geometry url="#vfx_kurp_0147-mesh"><bind_material><technique_common><instance_material symbol="PreviewMaterial" target="#PreviewMaterial"><bind_vertex_input semantic="UVSET0" input_semantic="TEXCOORD" input_set="0"/></instance_material></technique_common></bind_material></instance_geometry>
      </node>
    </visual_scene>
  </library_visual_scenes>
  <scene><instance_visual_scene url="#Scene"/></scene>
</COLLADA>
