<?xml version="1.0" encoding="utf-8"?>
<COLLADA xmlns="http://www.collada.org/2005/11/COLLADASchema" version="1.4.1">
  <asset>
    <contributor><authoring_tool>Morrobroom Kurpulio VFX preview converter</authoring_tool></contributor>
    <unit name="unit" meter="1"/>
    <up_axis>Z_UP</up_axis>
  </asset>
  <library_images>
    <image id="VFXTexture" name="darkmap_newgen-1.dds">
      <init_from>../../../Textures/Kurp/darkmap_newgen-1.dds</init_from>
    </image>
  </library_images>
  <library_effects>
    <effect id="PreviewEffect">
      <profile_COMMON>
        <newparam sid="VFXTexture-surface">
          <surface type="2D"><init_from>VFXTexture</init_from></surface>
        </newparam>
        <newparam sid="VFXTexture-sampler">
          <sampler2D><source>VFXTexture-surface</source></sampler2D>
        </newparam>
        <technique sid="common"><phong>
          <emission><color>0.08 0.08 0.08 1</color></emission>
          <ambient><color>0.2 0.2 0.2 1</color></ambient>
          <diffuse><texture texture="VFXTexture-sampler" texcoord="UVSET0"/></diffuse>
          <specular><color>0.15 0.15 0.15 1</color></specular>
          <shininess><float>8</float></shininess>
          <transparent opaque="A_ONE"><texture texture="VFXTexture-sampler" texcoord="UVSET0"/></transparent>
          <transparency><float>1</float></transparency>
        </phong></technique>
      </profile_COMMON>
      <extra><technique profile="GOOGLEEARTH"><double_sided>1</double_sided></technique></extra>
    </effect>
  </library_effects>
  <library_materials><material id="PreviewMaterial" name="PreviewMaterial"><instance_effect url="#PreviewEffect"/></material></library_materials>
  <library_geometries>
    <geometry id="vfx_kurp_0088-mesh" name="vfx_kurp_0088"><mesh>
      <source id="vfx_kurp_0088-mesh-positions">
        <float_array id="vfx_kurp_0088-mesh-positions-array" count="195">-1.02111804e-05 5.38980103 -0.344720125 -1.53831285e-05 4.60334778 2.62416768 2.69489142 4.66770553 -0.344709867 2.3016586 3.9866163 2.62417656 4.66769726 2.69490133 -0.344702156 3.9866021 2.30167459 2.62418319 5.38979465 1.88390515e-07 -0.344698804 4.60333438 1.09042289e-06 2.62418592 -2.01124879e-05 3.1268127 5.59305573 1.56338605 2.70789961 5.59306143 2.70787911 1.56340742 5.59306561 3.12679299 1.83645366e-06 5.59306762 -2.57519689e-05 2.30372119 8.56194496 1.15183399 1.99508139 8.56194917 1.99505389 1.15186225 8.5619532 2.30369445 2.89076806e-06 8.56195433 -3.72551894e-05 2.03238964 12.295083 1.01615581 1.76010173 12.2950868 1.76006125 1.01619715 12.2950885 2.03234951 4.41175259e-06 12.2950905 -1.01622989 1.76010126 12.2950793 -1.15188506 1.99508087 8.56194171 -1.76013471 1.01619582 12.2950766 -1.99510455 1.15186084 8.56193958 -2.03242238 2.88636588e-06 12.2950756 -2.30374387 1.14775961e-06 8.56193846 -1.76013352 -1.01619 12.2950766 -1.99510331 -1.15185832 8.56193958 -1.01622821 -1.76009446 12.2950793 -1.15188281 -1.99507745 8.56194266 -3.53727601e-05 -2.03238225 12.295083 -2.36240086e-05 -2.30371714 8.56194687 1.01615738 -1.76009375 12.2950868 1.15183576 -1.99507681 8.56195108 1.7600622 -1.01618867 12.2950885 1.99505501 -1.15185691 8.56195415 2.03234951 4.41175259e-06 12.2950905 2.30369445 2.89076806e-06 8.56195433 3.12679299 1.83645366e-06 5.59306762 2.70788037 -1.56340397 5.59306657 1.5633883 -2.70789739 5.59306286 -1.72863495e-05 -3.12681127 5.59305716 -1.56342284 -2.70789817 5.59305145 -2.70791591 -1.56340634 5.59304631 -3.12682978 -5.32982928e-07 5.59304478 -2.70791765 1.5634054 5.59304584 -1.56342558 2.70789834 5.59305002 4.60333438 1.09042289e-06 2.62418592 3.98660362 -2.30167272 2.62418438 2.30166262 -3.98661573 2.62417823 -1.11669175e-05 -4.60334778 2.62417006 -2.30168468 -3.98661749 2.62416142 -3.9866277 -2.30167602 2.62415455 -4.60336022 -2.3160974e-06 2.62415182 -3.98663041 2.301672 2.6241536 -2.3016887 3.98661454 2.62415928 5.38979465 1.88390515e-07 -0.344698804 4.66769964 -2.69490113 -0.344700755 2.69489567 -4.6677065 -0.344707483 -5.29318428e-06 -5.38980436 -0.344717324 -2.69490607 -4.66770887 -0.344727552 -4.66771191 -2.69490514 -0.344735293 -5.38981026 -3.83712443e-06 -0.344738615 -4.66771476 2.69489779 -0.344736694 -2.69491128 4.66770316 -0.344729937</float_array>
        <technique_common><accessor source="#vfx_kurp_0088-mesh-positions-array" count="65" stride="3"><param name="X" type="float"/><param name="Y" type="float"/><param name="Z" type="float"/></accessor></technique_common>
      </source>
      <source id="vfx_kurp_0088-mesh-normals">
        <float_array id="vfx_kurp_0088-mesh-normals-array" count="195">-1.70628571e-06 0.966659184 0.25606644 -1.65634228e-06 0.937825764 0.347106376 0.483328225 0.837151868 0.256067526 0.468911457 0.812181312 0.347107422 0.837150457 0.483330222 0.256068369 0.81217983 0.468913402 0.347108262 0.966658571 4.47480268e-07 0.256068755 0.937824886 4.1869828e-07 0.347108748 -1.67419797e-06 0.931697692 0.363234649 0.465847438 0.806874199 0.363235724 0.80687268 0.465849387 0.363236599 0.931696754 4.90097961e-07 0.363237057 -7.28235663e-07 0.984840161 0.173464284 0.4924193 0.852896785 0.173465577 0.852895831 0.492420602 0.173466574 0.984839648 5.41191557e-07 0.173467196 -4.40349998e-07 0.997369091 0.0724906609 0.498683972 0.863747167 0.0724922541 0.863746487 0.498684955 0.0724936019 0.997368831 5.26372848e-07 0.0724942364 -0.498685039 0.863746808 0.0724891926 -0.492420834 0.852896432 0.173462963 -0.863747344 0.49868425 0.0724882301 -0.852897188 0.492419819 0.173462126 -0.997369283 -4.80109229e-07 0.0724880279 -0.984840571 -5.43619793e-07 0.173461957 -0.863746834 -0.498685072 0.0724886641 -0.852896646 -0.492420616 0.173462526 -0.498684364 -0.863747136 0.0724899355 -0.492420201 -0.852896652 0.173463676 1.61755979e-07 -0.997369025 0.0724915768 -3.07997992e-07 -0.984840015 0.173465114 0.49868457 -0.863746751 0.0724930958 0.492419864 -0.852896311 0.173466306 0.863746994 -0.498684012 0.0724940394 0.852896277 -0.492419669 0.173467028 0.997368831 5.26372848e-07 0.0724942364 0.984839648 5.41191557e-07 0.173467196 0.931696754 4.90097961e-07 0.363237057 0.806873074 -0.465848475 0.363236893 0.465848014 -0.806873613 0.363236288 -1.04096188e-06 -0.931697429 0.363235325 -0.465849729 -0.806873537 0.363234256 -0.806874459 -0.465848802 0.363233397 -0.931698395 -4.58287246e-07 0.363232845 -0.806874972 0.465848218 0.363233006 -0.46585045 0.806873419 0.363233594 0.937824886 4.1869828e-07 0.347108748 0.812180129 -0.468912591 0.347108657 0.4689121 -0.812180673 0.347108049 -9.0670672e-07 -0.937825493 0.347107109 -0.468913559 -0.812180679 0.347106063 -0.812181458 -0.468912858 0.347105186 -0.937826341 -4.26600143e-07 0.347104816 -0.812181921 0.468912277 0.347104889 -0.468914288 0.812180513 0.347105466 0.966658571 4.47480268e-07 0.256068755 0.837150795 -0.483329417 0.256068783 0.483328859 -0.837151313 0.256068144 -8.89110619e-07 -0.966658947 0.256067335 -0.48333015 -0.837151144 0.256066259 -0.837151712 -0.483329616 0.256065408 -0.966659534 -4.03444695e-07 0.256065119 -0.837152276 0.483328838 0.256065032 -0.483330983 0.837150863 0.256065605</float_array>
        <technique_common><accessor source="#vfx_kurp_0088-mesh-normals-array" count="65" stride="3"><param name="X" type="float"/><param name="Y" type="float"/><param name="Z" type="float"/></accessor></technique_common>
      </source>
      <source id="vfx_kurp_0088-mesh-uv0">
        <float_array id="vfx_kurp_0088-mesh-uv0-array" count="130">5.96046448e-08 2 5.96046448e-08 1.75 -0.166666627 2 -0.166666627 1.75 -0.333333313 2 -0.333333313 1.75 -0.49999994 2 -0.49999994 1.75 5.96046448e-08 1.5 -0.166666627 1.5 -0.333333313 1.5 -0.49999994 1.5 5.96046448e-08 1.25 -0.166666627 1.25 -0.333333313 1.25 -0.49999994 1.25 5.96046448e-08 1 -0.166666627 1 -0.333333313 1 -0.49999994 1 0.166666687 1 0.166666687 1.25 0.333333373 1 0.333333373 1.25 0.5 1 0.5 1.25 0.666666746 1 0.666666746 1.25 0.833333373 1 0.833333373 1.25 1 1 1 1.25 1.16666663 1 1.16666663 1.25 1.33333325 1 1.33333325 1.25 1.5 1 1.5 1.25 1.5 1.5 1.33333325 1.5 1.16666663 1.5 1 1.5 0.833333373 1.5 0.666666746 1.5 0.5 1.5 0.333333373 1.5 0.166666687 1.5 1.5 1.75 1.33333325 1.75 1.16666663 1.75 1 1.75 0.833333373 1.75 0.666666746 1.75 0.5 1.75 0.333333373 1.75 0.166666687 1.75 1.5 2 1.33333325 2 1.16666663 2 1 2 0.833333373 2 0.666666746 2 0.5 2 0.333333373 2 0.166666687 2</float_array>
        <technique_common><accessor source="#vfx_kurp_0088-mesh-uv0-array" count="65" stride="2"><param name="S" type="float"/><param name="T" type="float"/></accessor></technique_common>
      </source>
      <vertices id="vfx_kurp_0088-mesh-vertices"><input semantic="POSITION" source="#vfx_kurp_0088-mesh-positions"/></vertices>
      <triangles material="PreviewMaterial" count="96">
        <input semantic="VERTEX" source="#vfx_kurp_0088-mesh-vertices" offset="0"/>
        <input semantic="NORMAL" source="#vfx_kurp_0088-mesh-normals" offset="1"/>
        <input semantic="TEXCOORD" source="#vfx_kurp_0088-mesh-uv0" offset="2" set="0"/>
        <p>0 0 0 1 1 1 2 2 2 3 3 3 2 2 2 1 1 1 2 2 2 3 3 3 4 4 4 5 5 5 4 4 4 3 3 3 4 4 4 5 5 5 6 6 6 7 7 7 6 6 6 5 5 5 1 1 1 8 8 8 3 3 3 9 9 9 3 3 3 8 8 8 3 3 3 9 9 9 5 5 5 10 10 10 5 5 5 9 9 9 5 5 5 10 10 10 7 7 7 11 11 11 7 7 7 10 10 10 8 8 8 12 12 12 9 9 9 13 13 13 9 9 9 12 12 12 9 9 9 13 13 13 10 10 10 14 14 14 10 10 10 13 13 13 10 10 10 14 14 14 11 11 11 15 15 15 11 11 11 14 14 14 12 12 12 16 16 16 13 13 13 17 17 17 13 13 13 16 16 16 13 13 13 17 17 17 14 14 14 18 18 18 14 14 14 17 17 17 14 14 14 18 18 18 15 15 15 19 19 19 15 15 15 18 18 18 16 16 16 12 12 12 20 20 20 21 21 21 20 20 20 12 12 12 20 20 20 21 21 21 22 22 22 23 23 23 22 22 22 21 21 21 22 22 22 23 23 23 24 24 24 25 25 25 24 24 24 23 23 23 24 24 24 25 25 25 26 26 26 27 27 27 26 26 26 25 25 25 26 26 26 27 27 27 28 28 28 29 29 29 28 28 28 27 27 27 28 28 28 29 29 29 30 30 30 31 31 31 30 30 30 29 29 29 30 30 30 31 31 31 32 32 32 33 33 33 32 32 32 31 31 31 32 32 32 33 33 33 34 34 34 35 35 35 34 34 34 33 33 33 34 34 34 35 35 35 36 36 36 37 37 37 36 36 36 35 35 35 38 38 38 37 37 37 39 39 39 35 35 35 39 39 39 37 37 37 39 39 39 35 35 35 40 40 40 33 33 33 40 40 40 35 35 35 40 40 40 33 33 33 41 41 41 31 31 31 41 41 41 33 33 33 41 41 41 31 31 31 42 42 42 29 29 29 42 42 42 31 31 31 42 42 42 29 29 29 43 43 43 27 27 27 43 43 43 29 29 29 43 43 43 27 27 27 44 44 44 25 25 25 44 44 44 27 27 27 44 44 44 25 25 25 45 45 45 23 23 23 45 45 45 25 25 25 45 45 45 23 23 23 46 46 46 21 21 21 46 46 46 23 23 23 46 46 46 21 21 21 8 8 8 12 12 12 8 8 8 21 21 21 47 47 47 38 38 38 48 48 48 39 39 39 48 48 48 38 38 38 48 48 48 39 39 39 49 49 49 40 40 40 49 49 49 39 39 39 49 49 49 40 40 40 50 50 50 41 41 41 50 50 50 40 40 40 50 50 50 41 41 41 51 51 51 42 42 42 51 51 51 41 41 41 51 51 51 42 42 42 52 52 52 43 43 43 52 52 52 42 42 42 52 52 52 43 43 43 53 53 53 44 44 44 53 53 53 43 43 43 53 53 53 44 44 44 54 54 54 45 45 45 54 54 54 44 44 44 54 54 54 45 45 45 55 55 55 46 46 46 55 55 55 45 45 45 55 55 55 46 46 46 1 1 1 8 8 8 1 1 1 46 46 46 56 56 56 47 47 47 57 57 57 48 48 48 57 57 57 47 47 47 57 57 57 48 48 48 58 58 58 49 49 49 58 58 58 48 48 48 58 58 58 49 49 49 59 59 59 50 50 50 59 59 59 49 49 49 59 59 59 50 50 50 60 60 60 51 51 51 60 60 60 50 50 50 60 60 60 51 51 51 61 61 61 52 52 52 61 61 61 51 51 51 61 61 61 52 52 52 62 62 62 53 53 53 62 62 62 52 52 52 62 62 62 53 53 53 63 63 63 54 54 54 63 63 63 53 53 53 63 63 63 54 54 54 64 64 64 55 55 55 64 64 64 54 54 54 64 64 64 55 55 55 0 0 0 1 1 1 0 0 0 55 55 55</p>
      </triangles>
    </mesh></geometry>
  </library_geometries>
  <library_visual_scenes>
    <visual_scene id="Scene" name="Scene">
      <node id="vfx_kurp_0088" name="vfx_kurp_0088" type="NODE">
        <instance_geometry url="#vfx_kurp_0088-mesh"><bind_material><technique_common><instance_material symbol="PreviewMaterial" target="#PreviewMaterial"><bind_vertex_input semantic="UVSET0" input_semantic="TEXCOORD" input_set="0"/></instance_material></technique_common></bind_material></instance_geometry>
      </node>
    </visual_scene>
  </library_visual_scenes>
  <scene><instance_visual_scene url="#Scene"/></scene>
</COLLADA>
