<?xml version="1.0" encoding="utf-8"?>
<COLLADA xmlns="http://www.collada.org/2005/11/COLLADASchema" version="1.4.1">
  <asset>
    <contributor><authoring_tool>Morrobroom Kurpulio VFX preview converter</authoring_tool></contributor>
    <unit name="unit" meter="1"/>
    <up_axis>Z_UP</up_axis>
  </asset>
  <library_images>
    <image id="VFXTexture" name="darkmap_newgen-1.dds">
      <init_from>../../../Textures/Kurp/darkmap_newgen-1.dds</init_from>
    </image>
  </library_images>
  <library_effects>
    <effect id="PreviewEffect">
      <profile_COMMON>
        <newparam sid="VFXTexture-surface">
          <surface type="2D"><init_from>VFXTexture</init_from></surface>
        </newparam>
        <newparam sid="VFXTexture-sampler">
          <sampler2D><source>VFXTexture-surface</source></sampler2D>
        </newparam>
        <technique sid="common"><phong>
          <emission><color>0.08 0.08 0.08 1</color></emission>
          <ambient><color>0.2 0.2 0.2 1</color></ambient>
          <diffuse><texture texture="VFXTexture-sampler" texcoord="UVSET0"/></diffuse>
          <specular><color>0.15 0.15 0.15 1</color></specular>
          <shininess><float>8</float></shininess>
          <transparent opaque="A_ONE"><texture texture="VFXTexture-sampler" texcoord="UVSET0"/></transparent>
          <transparency><float>1</float></transparency>
        </phong></technique>
      </profile_COMMON>
      <extra><technique profile="GOOGLEEARTH"><double_sided>1</double_sided></technique></extra>
    </effect>
  </library_effects>
  <library_materials><material id="PreviewMaterial" name="PreviewMaterial"><instance_effect url="#PreviewEffect"/></material></library_materials>
  <library_geometries>
    <geometry id="vfx_kurp_1157-mesh" name="vfx_kurp_1157"><mesh>
      <source id="vfx_kurp_1157-mesh-positions">
        <float_array id="vfx_kurp_1157-mesh-positions-array" count="534">-0.244302894 -3.85586184 3.32684092 -0.107408725 -3.24364723 1.89772678 1.12531205 -3.81760864 4.04103875 1.09901272 -3.09295996 2.19435488 0.750909032 -3.68914858 0.783387614 1.09901272 -3.09295996 2.19435488 -0.519752492 -3.86937641 0.510313659 -0.107408725 -3.24364723 1.89772678 -1.58543195 -3.34970536 0.469937714 -1.34804608 -2.98476389 1.86769403 -1.34804608 -2.98476389 1.86769403 -0.244302894 -3.85586184 3.32684092 -1.45275629 -3.02401998 3.31942682 -1.36961928 -2.75821492 4.89587564 -0.29091883 -3.39181472 5.48860756 0.993494205 -3.43064437 6.17587005 1.12531205 -3.81760864 4.04103875 0.993494205 -3.43064437 6.17587005 2.2105985 -2.79026184 5.72463574 1.82194646 -3.05896143 3.50592545 1.82194646 -3.05896143 3.50592545 2.35316261 -2.93734758 2.04755103 2.17521765 -3.41979193 0.484589458 2.17521765 -3.41979193 0.484589458 0.750909032 -3.68914858 0.783387614 2.16587742 -2.77745732 -0.881247408 0.869061292 -3.36306773 -0.819697629 -0.519752492 -3.86937641 0.510313659 -0.373523596 -3.63097205 -1.11802929 -0.373523596 -3.63097205 -1.11802929 -1.39932663 -3.22283336 -1.1480618 1.21512828 -5.3515243 -0.735163049 -0.748319703 -5.66211558 -1.04193073 2.76553013 -6.34419079 -0.776483788 0.437393678 -6.65617861 -1.19363861 -2.31305214 -4.89908451 -1.08728867 -1.53841307 -6.2471431 -1.23563294 -1.45117884 -2.97072744 -0.351439336 -0.288603147 -3.65359307 -0.0877776094 1.09568117 -3.69544235 -0.161753526 2.40742201 -2.91719673 -0.317073207 3.2086943 -5.00199233 -1.07082897 4.53643541 -4.96462739 -1.04419332 4.69330695 0.365241196 -0.82856972 4.72344739 -1.24440393 -1.25676601 6.05650424 1.69887553 -1.08973664 6.45158046 -0.042311542 -1.02556795 4.45928308 -3.29140893 -1.25005893 5.95064122 -3.21841236 -1.36197857 3.46652741 -2.05104396 -0.559545662 3.95594318 -0.839991899 -0.779865397 3.81781045 0.362794948 -0.663088699 3.59510138 1.65878059 -0.466515901 4.22201625 1.7587549 -0.676296671 2.63299031 2.44646323 -0.162830462 3.53278841 3.46114035 -1.15171295 1.80637912 3.42705083 -0.110434287 2.16883255 4.64528218 -1.51485792 0.59314831 3.96916378 -0.269675477 0.146521808 4.94289041 -1.31222908 0.59314831 3.96916378 -0.269675477 0.146521808 4.94289041 -1.31222908 -0.838838271 3.38893465 -0.516228407 -1.57125583 5.19199288 -1.19752209 -0.838838271 3.38893465 -0.516228407 -2.1772746 2.94239599 -0.592149103 -3.15854886 4.52039876 -1.14595108 5.26285036 3.35217984 -1.17769747 4.022889 5.09943683 -0.931680028 1.89011983 5.79697947 -1.32015101 -0.568552212 6.02434265 -1.35953812 -2.86892884 5.8117222 -1.18910461 -4.62494088 4.72865119 -1.30195824 -5.7214959 2.95645178 -1.17904263 -4.23280685 3.03714307 -1.14460426 -6.52554126 0.781285457 -1.16259473 -5.06722829 1.55152051 -1.20905106 -6.32148708 -1.66542525 -1.27594106 -5.08643746 -0.328876356 -1.06062394 -2.81175554 1.86219106 -0.472720356 -3.52801529 0.767211401 -0.272964282 -3.60689766 -0.394662106 -0.110594147 -3.21840552 -1.32174451 -0.0995793209 -5.02555041 -2.63523469 -0.949062291 -2.66615563 -2.54318249 -0.383705951 -3.66840395 -3.74408466 -1.1346951 -1.45117884 -2.97072744 -0.351439336 -2.31305214 -4.89908451 -1.08728867 -1.53841307 -6.2471431 -1.23563294 -3.66993214 -5.54902458 -1.20623903 -5.38691357 -3.97975231 -1.12644141 2.86535284 1.18469381 0.413920408 3.52776063 1.64738644 2.08100283 3.18633097 0.235624819 0.278372271 3.91706152 0.434528839 1.5169889 3.20685803 -0.860642966 -0.655514738 3.6175017 -0.931176634 0.59337225 3.02694568 -2.25477965 -0.6495442 3.29220632 -2.21812158 0.307493221 2.39594645 2.34412271 0.412589525 2.67547722 2.36288958 -0.9640677 3.17761825 1.3035632 -1.14000922 3.44819302 0.33726842 -1.07710331 3.49564279 -0.638511022 -1.33676056 3.09236829 -1.72282161 -1.57734718 2.16587742 -2.77745732 -0.881247408 2.39894142 -1.99814326 2.88517768 3.07509411 -0.981841941 2.67462118 3.45832869 0.332647356 3.00769621 3.08108792 1.4645841 3.38000349 2.55075574 2.88540178 3.8801632 2.72174979 2.62744043 2.54227051 1.55684046 3.65150124 3.6003268 1.80338442 3.5276592 2.36152492 3.19329324 -1.90488377 4.42803738 2.39894142 -1.99814326 2.88517768 3.64740011 -0.781204471 3.93274188 3.07509411 -0.981841941 2.67462118 3.64740011 -0.781204471 3.93274188 3.07509411 -0.981841941 2.67462118 3.5192331 0.334805813 4.19526504 3.5192331 0.334805813 4.19526504 3.31259139 1.53729076 4.63717528 3.31259139 1.53729076 4.63717528 3.08108792 1.4645841 3.38000349 2.41989279 2.26814505 5.31988208 2.41989279 2.26814505 5.31988208 1.65291887 3.1779871 5.43767324 0.527218011 3.68098904 5.07968729 0.573603892 4.00349202 3.59940031 -0.801456178 3.14262118 4.52541753 -0.795344542 3.58052845 3.35839871 -2.04332995 2.72829863 4.35474274 -2.25615139 2.96635367 3.13526159 0.537134897 3.49697321 2.24966584 -0.72975393 3.23198303 1.90096915 -1.90208834 2.81270713 1.82026077 -2.66784099 1.72021176 3.29386358 -3.12686579 2.10472616 1.92674196 -3.17561496 0.652925606 3.27012543 -3.22826178 0.819393775 2.34592614 -3.10147924 -0.290844822 3.95963598 -3.65188573 -0.338763117 2.83718974 -2.82974022 -1.02932096 3.6780832 -3.06699728 -1.39704052 2.34781037 -2.30692361 -2.08337557 3.25947313 -2.33799342 -2.27641734 2.0041815 -3.43281005 -1.80788388 1.05281645 -2.50850942 -2.56307903 0.427738075 -2.63203516 1.72602644 4.62322732 -3.2966199 0.710045542 5.07229393 -3.36981184 -0.368003521 5.43731371 -3.00934761 -1.22820047 5.46207634 -2.49693983 -2.36151582 4.8233387 -2.49693983 -2.36151582 4.8233387 -2.30692361 -2.08337557 3.25947313 -1.36961928 -2.75821492 4.89587564 -1.36961928 -2.75821492 4.89587564 -1.45275629 -3.02401998 3.31942682 -1.34804608 -2.98476389 1.86769403 -1.58543195 -3.34970536 0.469937714 -1.39932663 -3.22283336 -1.1480618 -2.48156851 -2.64412665 -1.12704044 -3.25766411 -1.63538384 -0.607067132 -3.47427733 -0.237111786 0.953508141 -3.54136685 -0.299506512 -0.613309883 -3.461195 1.04355442 0.361549088 -3.41884979 1.03829558 -0.889150805 -2.89290197 2.05535475 0.418917422 -2.7789164 2.13399185 -1.10759085 -2.16126621 3.06554332 0.417718415 -2.01965173 2.98475667 -1.19549494 -1.08022195 3.52294024 0.371811725 -0.970514378 3.40152521 -1.11478668 0.0896903561 3.35328633 0.2697037 0.289249793 3.2975283 -0.857291171 1.46700853 3.15059692 0.0893306977 1.59250693 2.94140402 -0.829122911</float_array>
        <technique_common><accessor source="#vfx_kurp_1157-mesh-positions-array" count="178" stride="3"><param name="X" type="float"/><param name="Y" type="float"/><param name="Z" type="float"/></accessor></technique_common>
      </source>
      <source id="vfx_kurp_1157-mesh-normals">
        <float_array id="vfx_kurp_1157-mesh-normals-array" count="534">0.115397518 -0.917018684 -0.38178547 0.00903799037 -0.920580013 -0.390449425 0.536500345 -0.828828651 -0.158777981 0.307521173 -0.884287193 -0.351378554 0.113325851 -0.931039355 0.346876016 0.113015812 -0.961060319 0.252171546 -0.323880605 -0.916439311 0.235032641 -0.108857456 -0.911361744 0.39695066 -0.522403715 -0.846251705 0.104653767 -0.481064992 -0.865939418 0.136840773 -0.177719703 -0.898297229 -0.401842999 -0.419755183 -0.899604942 0.120484582 -0.638909249 -0.765889592 0.0721672014 -0.612992076 -0.773157725 0.162689417 -0.309327609 -0.930930976 0.194123537 -0.108464904 -0.975248617 0.192679785 -0.0633953986 -0.982666444 0.174205867 0.510206283 -0.840183469 0.183796865 0.609982051 -0.789767874 0.0647194093 0.673025788 -0.714023879 -0.192889056 0.614531119 -0.77261771 0.159415738 0.640813771 -0.722471746 0.259600245 0.549972136 -0.832514876 0.0667055452 0.0814467825 -0.901702832 -0.42461562 0.207634213 -0.948820407 -0.237966108 0.257953075 -0.92281211 -0.286143358 0.309600879 -0.938722997 -0.151480794 0.202336297 -0.966694909 -0.15671942 0.236664983 -0.964163593 -0.11990935 -0.389764943 -0.910796199 -0.136138064 -0.454628848 -0.88737251 -0.0766983666 0.00302562373 -0.222545603 0.974917586 -0.171726058 -0.373512201 0.911591354 0.0290935209 0.0656634105 0.997417607 -0.123861117 -0.283236627 0.951018106 -0.228938564 -0.258134984 0.938591212 -0.0525128297 -0.126490847 0.990576836 -0.271242948 -0.268073827 0.924426139 -0.127616522 -0.361320053 0.923667604 0.14306256 -0.343091164 0.928343448 0.309524181 -0.229195768 0.922856479 0.128660491 0.0296115117 0.991246506 -0.0253727625 0.203976551 0.978646918 0.280816578 -0.152440859 0.947577878 0.186114413 -0.051776211 0.981162907 0.0870070067 0.032440688 0.995679357 -0.107547738 -0.00957498979 0.994153813 0.215214349 -0.0616636176 0.97461807 0.0661802357 -0.0454295532 0.996772959 0.457955581 -0.11757204 0.88116599 0.515648685 -0.0386428246 0.855928248 0.231764886 -0.147551884 0.96151624 0.297984491 -0.00393005644 0.954562621 0.322872705 0.0860338771 0.942523946 0.448145686 0.346389604 0.824123587 -0.0612798891 0.235791201 0.969869726 0.352765582 0.598382079 0.719371484 -0.0713317603 0.205408282 0.976073367 0.200024783 0.732418196 0.650810012 0.128507763 0.33220913 0.934410428 -0.364973433 0.597266601 0.714189751 -0.364973418 0.59726657 0.714189785 -0.364973433 0.597266601 0.714189751 0.0287037221 0.223890664 0.974191494 -0.0520967825 0.334395794 0.940991699 -0.159502855 0.251249641 0.954689718 -0.107121086 0.216495171 0.970389053 0.280002957 0.0848420092 0.95624274 -0.136193973 -0.0177606983 0.990522973 -0.131350665 -0.165543497 0.977416162 0.062463798 0.059616467 0.996265101 -0.00458127165 -0.028343129 0.999587755 -0.0763986672 0.107960439 0.991215308 -0.0343120371 0.0339060554 0.998835854 -0.159854119 0.113070824 0.980643488 0.0437572713 -0.0371641693 0.998350703 -0.180128254 0.0335390475 0.98307118 -0.144399933 0.00120121976 0.989518679 -0.379877515 0.040412475 0.924153616 -0.213573172 0.258978856 0.941974762 -0.39035252 0.200449894 0.898579295 -0.525647482 -0.0724616225 0.847610782 -0.376641772 -0.177835706 0.909128944 -0.358064614 -0.0784379735 0.930396269 -0.189083635 -0.378964045 0.905888311 -0.0755123623 -0.204007617 0.97605265 -0.271242948 -0.268073827 0.924426139 -0.228938564 -0.258134984 0.938591212 -0.0525128297 -0.126490847 0.990576836 0.0086341081 -0.050650108 0.998679137 -0.114448273 -0.0856643533 0.989728858 0.914980222 0.392165035 -0.094961983 0.884633372 0.45994914 -0.0766197488 0.915688731 0.333114212 -0.224831204 0.990188119 0.108842405 -0.0876402838 0.996227721 -0.0689889953 0.052638821 0.982004078 -0.176366288 -0.0675494199 0.781364689 -0.559509275 -0.276439133 0.89288271 -0.449915216 -0.0183511302 0.80479418 0.590526133 -0.0598766546 0.765827464 0.61961903 0.171989978 0.919278369 0.334207276 0.207924932 0.969505642 0.0804558455 0.231485782 0.951930442 -0.128023463 0.278277606 0.866087571 -0.45934167 -0.197224616 0.576339124 -0.73798855 -0.351007285 0.86663241 -0.383493931 0.319187516 0.902612105 -0.366757679 0.225344609 0.993073912 -0.0392635007 0.110736548 0.949446885 0.273628866 0.153876105 0.783518858 0.604358641 0.144391251 0.730438003 0.671876903 -0.122644815 0.469657928 0.878832599 0.0841111964 0.439531953 0.887475392 -0.138560782 0.743389993 -0.622448534 -0.244804292 0.757915997 -0.563232164 -0.329139591 0.786491473 -0.51992449 -0.333331197 0.777415526 -0.571601185 -0.262482734 0.878801849 0.20256034 -0.432060898 0.878801849 0.20256034 -0.432060898 0.878801849 0.20256034 -0.432060898 0.996668122 0.0634680984 -0.0512294273 0.951516339 0.281827255 -0.123247937 0.555351019 0.818053815 -0.14957674 0.555351018 0.818053813 -0.149576754 0.555351017 0.818053814 -0.149576754 0.829315857 0.482306815 0.282161915 0.555330968 0.792860885 0.250956438 0.0237962793 0.975914692 0.216850756 -0.0298609141 0.999554003 0.000346587303 -0.363394712 0.885426973 0.289764315 -0.317288108 0.94811449 0.0201784462 -0.620191523 0.735470317 0.272847735 -0.724002939 0.687514864 -0.0560629564 -0.0755938568 0.973252946 -0.216943016 -0.219902823 0.974620821 -0.0419166342 -0.476884559 0.873833808 0.0948451016 -0.883327847 0.454322991 0.115423283 -0.849689224 0.511552822 0.127835569 -0.989025904 0.1418699 0.0412394584 -0.96078656 0.252522294 0.114549887 -0.973434208 -0.227391324 0.0268146921 -0.969699634 -0.0773230729 0.231740722 -0.893370563 -0.438597312 0.0975778438 -0.833616043 -0.509457581 0.213394625 -0.808529773 -0.581435933 0.090619329 -0.635189274 -0.752977103 0.171930415 -0.884509187 -0.445364444 0.138902884 -0.593010338 -0.799664062 0.0942131988 -0.861585085 0.503216673 0.0666642475 -0.97229093 0.227703483 -0.0529289226 -0.958380842 -0.240373161 -0.154035404 -0.923469598 -0.352457771 -0.151583054 -0.921239157 -0.358970559 -0.149861779 -0.313374735 -0.927664118 -0.203065409 -0.313374736 -0.92766412 -0.203065395 -0.313374734 -0.927664115 -0.203065423 -0.612992076 -0.773157725 0.162689417 -0.638909249 -0.765889592 0.0721672014 -0.481064992 -0.865939418 0.136840773 -0.522403715 -0.846251705 0.104653767 -0.454628848 -0.88737251 -0.0766983666 -0.594082007 -0.804368293 -0.00763014689 -0.925832057 -0.36614343 -0.0936695836 -0.996341302 -0.0849345959 -0.00949337127 -0.997101962 -0.071103533 0.027054852 -0.954268975 0.2969304 0.0346851791 -0.945921762 0.322398987 -0.0359292735 -0.864510939 0.500834334 -0.0422588057 -0.816654933 0.5742952 -0.0570941619 -0.577653436 0.815565633 0.0341936484 -0.570227146 0.815583949 -0.098304752 -0.138511803 0.9883824 0.0625676636 -0.139469848 0.986913684 -0.080929239 0.0973105839 0.994994626 -0.0227231934 0.141564188 0.988121529 -0.059794858 0.41078132 0.901773351 -0.134400635 0.451983602 0.889602864 -0.0657081974</float_array>
        <technique_common><accessor source="#vfx_kurp_1157-mesh-normals-array" count="178" stride="3"><param name="X" type="float"/><param name="Y" type="float"/><param name="Z" type="float"/></accessor></technique_common>
      </source>
      <source id="vfx_kurp_1157-mesh-uv0">
        <float_array id="vfx_kurp_1157-mesh-uv0-array" count="356">0.0578244254 0.280291915 0.0578244254 0.56058377 0.11337997 0.305800855 0.11337997 0.61160171 0.11337997 0.805800855 0.11337997 0.61160171 0.0578244254 0.780291915 0.0578244254 0.56058377 0.00226885639 0.75 0.00226885639 0.5 0.00226885639 0.5 0.0578244254 0.280291915 0.00226885639 0.25 0.00226885639 0 0.0578244254 0 0.11337997 0 0.11337997 0.305800855 0.11337997 0 0.168935522 0 0.167341202 0.15115279 0.167341202 0.15115279 0.165746897 0.302305579 0.167341202 0.65115279 0.167341202 0.65115279 0.11337997 0.805800855 0.168935522 1 0.11337997 1 0.0578244254 0.780291915 0.0578244254 1 0.0578244254 1 0.00226885639 1 0.11337997 0.805800855 0.0578244254 0.780291915 0.11337997 1 0.0578244254 1 0.00226885639 0.75 0.00226885639 1 0.00226885639 0 0.0578244254 0 0.11337997 0 0.168935522 0 0.167341202 0.65115279 0.168935522 1 0.338790834 0.789857745 0.288018197 0.824932575 0.335602224 1 0.280046642 1 0.226085395 0.84884721 0.224491075 1 0.224491075 0 0.280046642 0 0.335602224 0 0.391157746 0 0.381591886 0.71492517 0.446713328 0 0.443524718 0.697387815 0.502268851 0 0.486325741 0.630426764 0.557824433 0 0.551447153 0.773914635 0.557824433 0 0.551447153 0.773914635 0.613380015 0 0.6085971 0.81377238 0.613380015 0 0.668935537 0 0.672124147 0.885516346 0.391157746 1 0.446713328 1 0.502268851 1 0.557824433 1 0.613380015 1 0.668935537 1 0.72449106 1 0.72130245 0.722896695 0.780046582 1 0.780046582 0.726085365 0.835602164 1 0.829224944 0.67347312 0.72449106 0 0.780046582 0 0.835602164 0 0.891157746 0 0.891157746 0.716519475 0.946713269 0 0.943524659 0.713330865 1.00226879 0 1.00226879 0.75 1.00226879 1 0.946713269 1 0.891157746 1 0.381591886 0.71492517 0.372026026 0.429850399 0.338790834 0.789857745 0.341979474 0.57971549 0.288018197 0.824932575 0.295989752 0.64986515 0.226085395 0.84884721 0.2276797 0.697694421 0.443524718 0.697387815 0.446713328 1 0.391157746 1 0.335602224 1 0.280046642 1 0.224491075 1 0.168935522 1 0.226085395 0.34884721 0.288018197 0.324932575 0.338790834 0.289857745 0.381591886 0.21492517 0.443524718 0.197387815 0.440336078 0.394775569 0.486325741 0.130426764 0.470382661 0.260853529 0.224491075 0 0.226085395 0.34884721 0.280046642 0 0.288018197 0.324932575 0.280046642 0 0.288018197 0.324932575 0.335602224 0 0.335602224 0 0.391157746 0 0.391157746 0 0.381591886 0.21492517 0.446713328 0 0.446713328 0 0.502268851 0 0.557824433 0 0.551447153 0.273914635 0.613380015 0 0.6085971 0.31377238 0.668935537 0 0.672124147 0.385516346 0.545069933 0.54782927 0.603814185 0.627544761 0.675312757 0.771032691 0.72130245 0.222896695 0.71811384 0.44579345 0.780046582 0.226085365 0.780046582 0.45217073 0.829224944 0.17347312 0.822847664 0.346946239 0.891157746 0.216519475 0.891157746 0.43303901 0.943524659 0.213330865 0.940336049 0.426661789 0.891157746 0.716519475 0.943524659 0.713330865 0.72449106 0 0.780046582 0 0.835602164 0 0.891157746 0 0.946713269 0 0.946713269 0 0.943524659 0.213330865 1.00226879 0 1.00226879 0 1.00226879 0.25 1.00226879 0.5 1.00226879 0.75 1.00226879 1 0.946713269 1 0.891157746 1 0.829224944 0.67347312 0.835602164 1 0.780046582 0.726085365 0.780046582 1 0.72130245 0.722896695 0.72449106 1 0.672124147 0.885516346 0.668935537 1 0.6085971 0.81377238 0.613380015 1 0.551447153 0.773914635 0.557824433 1 0.486325741 0.630426764 0.502268851 1</float_array>
        <technique_common><accessor source="#vfx_kurp_1157-mesh-uv0-array" count="178" stride="2"><param name="S" type="float"/><param name="T" type="float"/></accessor></technique_common>
      </source>
      <vertices id="vfx_kurp_1157-mesh-vertices"><input semantic="POSITION" source="#vfx_kurp_1157-mesh-positions"/></vertices>
      <triangles material="PreviewMaterial" count="216">
        <input semantic="VERTEX" source="#vfx_kurp_1157-mesh-vertices" offset="0"/>
        <input semantic="NORMAL" source="#vfx_kurp_1157-mesh-normals" offset="1"/>
        <input semantic="TEXCOORD" source="#vfx_kurp_1157-mesh-uv0" offset="2" set="0"/>
        <p>0 0 0 1 1 1 2 2 2 3 3 3 2 2 2 1 1 1 4 4 4 5 5 5 6 6 6 7 7 7 6 6 6 5 5 5 6 6 6 7 7 7 8 8 8 8 8 8 7 7 7 9 9 9 0 0 0 10 10 10 1 1 1 9 9 9 11 11 11 12 12 12 13 13 13 12 12 12 14 14 14 11 11 11 14 14 14 12 12 12 14 14 14 11 11 11 15 15 15 16 16 16 15 15 15 11 11 11 17 17 17 2 2 2 18 18 18 18 18 18 2 2 2 19 19 19 3 3 3 19 19 19 2 2 2 20 20 20 5 5 5 21 21 21 4 4 4 21 21 21 5 5 5 21 21 21 4 4 4 22 22 22 23 23 23 24 24 24 25 25 25 25 25 25 24 24 24 26 26 26 27 27 27 26 26 26 24 24 24 26 26 26 27 27 27 28 28 28 8 8 8 29 29 29 6 6 6 29 29 29 8 8 8 30 30 30 31 31 31 32 32 32 33 33 33 33 33 33 32 32 32 34 34 34 35 35 35 34 34 34 32 32 32 34 34 34 35 35 35 36 36 36 37 37 37 35 35 35 38 38 38 32 32 32 38 38 38 35 35 35 38 38 38 32 32 32 39 39 39 31 31 31 39 39 39 32 32 32 39 39 39 31 31 31 40 40 40 40 40 40 31 31 31 41 41 41 33 33 33 41 41 41 31 31 31 41 41 41 33 33 33 42 42 42 43 43 43 44 44 44 45 45 45 45 45 45 44 44 44 46 46 46 47 47 47 46 46 46 44 44 44 46 46 46 47 47 47 48 48 48 41 41 41 48 48 48 47 47 47 48 48 48 41 41 41 42 42 42 40 40 40 41 41 41 49 49 49 47 47 47 49 49 49 41 41 41 49 49 49 47 47 47 50 50 50 44 44 44 50 50 50 47 47 47 50 50 50 44 44 44 51 51 51 43 43 43 51 51 51 44 44 44 51 51 51 43 43 43 52 52 52 53 53 53 52 52 52 43 43 43 52 52 52 53 53 53 54 54 54 55 55 55 54 54 54 53 53 53 54 54 54 55 55 55 56 56 56 57 57 57 56 56 56 55 55 55 56 56 56 57 57 57 58 58 58 59 59 59 58 58 58 57 57 57 60 60 60 61 61 61 62 62 62 63 63 63 64 64 64 59 59 59 64 64 64 63 63 63 65 65 65 66 66 66 65 65 65 63 63 63 67 67 67 43 43 43 45 45 45 43 43 43 67 67 67 53 53 53 68 68 68 53 53 53 67 67 67 53 53 53 68 68 68 55 55 55 69 69 69 55 55 55 68 68 68 55 55 55 69 69 69 57 57 57 70 70 70 57 57 57 69 69 69 57 57 57 70 70 70 59 59 59 71 71 71 59 59 59 70 70 70 59 59 59 71 71 71 63 63 63 72 72 72 63 63 63 71 71 71 63 63 63 72 72 72 66 66 66 73 73 73 66 66 66 72 72 72 66 66 66 73 73 73 74 74 74 75 75 75 74 74 74 73 73 73 74 74 74 75 75 75 76 76 76 77 77 77 76 76 76 75 75 75 78 78 78 76 76 76 77 77 77 65 65 65 66 66 66 79 79 79 74 74 74 79 79 79 66 66 66 79 79 79 74 74 74 80 80 80 76 76 76 80 80 80 74 74 74 80 80 80 76 76 76 81 81 81 78 78 78 81 81 81 76 76 76 81 81 81 78 78 78 82 82 82 83 83 83 82 82 82 78 78 78 82 82 82 83 83 83 84 84 84 85 85 85 84 84 84 83 83 83 84 84 84 85 85 85 86 86 86 86 86 86 85 85 85 87 87 87 87 87 87 85 85 85 88 88 88 88 88 88 85 85 85 89 89 89 83 83 83 89 89 89 85 85 85 89 89 89 83 83 83 90 90 90 78 78 78 90 90 90 83 83 83 90 90 90 78 78 78 77 77 77 91 91 91 92 92 92 93 93 93 94 94 94 93 93 93 92 92 92 93 93 93 94 94 94 95 95 95 96 96 96 95 95 95 94 94 94 95 95 95 96 96 96 97 97 97 98 98 98 97 97 97 96 96 96 97 97 97 98 98 98 22 22 22 21 21 21 22 22 22 98 98 98 99 99 99 91 91 91 100 100 100 100 100 100 91 91 91 101 101 101 93 93 93 101 101 101 91 91 91 101 101 101 93 93 93 102 102 102 95 95 95 102 102 102 93 93 93 102 102 102 95 95 95 103 103 103 97 97 97 103 103 103 95 95 95 103 103 103 97 97 97 104 104 104 22 22 22 104 104 104 97 97 97 104 104 104 22 22 22 105 105 105 20 20 20 21 21 21 106 106 106 98 98 98 106 106 106 21 21 21 106 106 106 98 98 98 107 107 107 96 96 96 107 107 107 98 98 98 107 107 107 96 96 96 108 108 108 94 94 94 108 108 108 96 96 96 108 108 108 94 94 94 109 109 109 92 92 92 109 109 109 94 94 94 109 109 109 92 92 92 110 110 110 111 111 111 110 110 110 92 92 92 110 110 110 111 111 111 112 112 112 113 113 113 112 112 112 111 111 111 18 18 18 19 19 19 114 114 114 115 115 115 114 114 114 19 19 19 114 114 114 115 115 115 116 116 116 117 117 117 116 116 116 115 115 115 118 118 118 119 119 119 120 120 120 108 108 108 121 121 121 107 107 107 121 121 121 108 108 108 122 122 122 109 109 109 122 122 122 108 108 108 123 123 123 124 124 124 125 125 125 110 110 110 126 126 126 109 109 109 126 126 126 110 110 110 127 127 127 112 112 112 127 127 127 110 110 110 127 127 127 112 112 112 128 128 128 129 129 129 128 128 128 112 112 112 128 128 128 129 129 129 130 130 130 131 131 131 130 130 130 129 129 129 130 130 130 131 131 131 132 132 132 133 133 133 132 132 132 131 131 131 112 112 112 113 113 113 129 129 129 134 134 134 129 129 129 113 113 113 129 129 129 134 134 134 131 131 131 135 135 135 131 131 131 134 134 134 131 131 131 135 135 135 133 133 133 136 136 136 133 133 133 135 135 135 133 133 133 136 136 136 137 137 137 138 138 138 137 137 137 136 136 136 137 137 137 138 138 138 139 139 139 140 140 140 139 139 139 138 138 138 139 139 139 140 140 140 141 141 141 142 142 142 141 141 141 140 140 140 141 141 141 142 142 142 143 143 143 144 144 144 143 143 143 142 142 142 143 143 143 144 144 144 145 145 145 145 145 145 144 144 144 146 146 146 147 147 147 146 146 146 144 144 144 148 148 148 146 146 146 147 147 147 132 132 132 133 133 133 149 149 149 137 137 137 149 149 149 133 133 133 149 149 149 137 137 137 150 150 150 139 139 139 150 150 150 137 137 137 150 150 150 139 139 139 151 151 151 141 141 141 151 151 151 139 139 139 151 151 151 141 141 141 152 152 152 143 143 143 152 152 152 141 141 141 152 152 152 143 143 143 153 153 153 145 145 145 153 153 153 143 143 143 154 154 154 155 155 155 156 156 156 157 157 157 145 145 145 158 158 158 146 146 146 158 158 158 145 145 145 158 158 158 146 146 146 159 159 159 148 148 148 159 159 159 146 146 146 159 159 159 148 148 148 160 160 160 160 160 160 148 148 148 161 161 161 162 162 162 161 161 161 148 148 148 148 148 148 147 147 147 162 162 162 162 162 162 147 147 147 163 163 163 164 164 164 163 163 163 147 147 147 163 163 163 164 164 164 165 165 165 166 166 166 165 165 165 164 164 164 165 165 165 166 166 166 167 167 167 168 168 168 167 167 167 166 166 166 167 167 167 168 168 168 169 169 169 170 170 170 169 169 169 168 168 168 169 169 169 170 170 170 171 171 171 172 172 172 171 171 171 170 170 170 171 171 171 172 172 172 173 173 173 174 174 174 173 173 173 172 172 172 173 173 173 174 174 174 175 175 175 176 176 176 175 175 175 174 174 174 175 175 175 176 176 176 177 177 177 99 99 99 177 177 177 176 176 176 177 177 177 99 99 99 100 100 100 147 147 147 144 144 144 164 164 164 142 142 142 164 164 164 144 144 144 164 164 164 142 142 142 166 166 166 140 140 140 166 166 166 142 142 142 166 166 166 140 140 140 168 168 168 138 138 138 168 168 168 140 140 140 168 168 168 138 138 138 170 170 170 136 136 136 170 170 170 138 138 138 170 170 170 136 136 136 172 172 172 135 135 135 172 172 172 136 136 136 172 172 172 135 135 135 174 174 174 134 134 134 174 174 174 135 135 135 174 174 174 134 134 134 176 176 176 113 113 113 176 176 176 134 134 134 176 176 176 113 113 113 99 99 99 111 111 111 99 99 99 113 113 113 99 99 99 111 111 111 91 91 91 92 92 92 91 91 91 111 111 111</p>
      </triangles>
    </mesh></geometry>
  </library_geometries>
  <library_visual_scenes>
    <visual_scene id="Scene" name="Scene">
      <node id="vfx_kurp_1157" name="vfx_kurp_1157" type="NODE">
        <instance_geometry url="#vfx_kurp_1157-mesh"><bind_material><technique_common><instance_material symbol="PreviewMaterial" target="#PreviewMaterial"><bind_vertex_input semantic="UVSET0" input_semantic="TEXCOORD" input_set="0"/></instance_material></technique_common></bind_material></instance_geometry>
      </node>
    </visual_scene>
  </library_visual_scenes>
  <scene><instance_visual_scene url="#Scene"/></scene>
</COLLADA>
