<?xml version="1.0" encoding="utf-8"?>
<COLLADA xmlns="http://www.collada.org/2005/11/COLLADASchema" version="1.4.1">
  <asset>
    <contributor><authoring_tool>Morrobroom Kurpulio VFX preview converter</authoring_tool></contributor>
    <unit name="unit" meter="1"/>
    <up_axis>Z_UP</up_axis>
  </asset>
  <library_images>
    <image id="VFXTexture" name="darkmap_newgen-1.dds">
      <init_from>../../../Textures/Kurp/darkmap_newgen-1.dds</init_from>
    </image>
  </library_images>
  <library_effects>
    <effect id="PreviewEffect">
      <profile_COMMON>
        <newparam sid="VFXTexture-surface">
          <surface type="2D"><init_from>VFXTexture</init_from></surface>
        </newparam>
        <newparam sid="VFXTexture-sampler">
          <sampler2D><source>VFXTexture-surface</source></sampler2D>
        </newparam>
        <technique sid="common"><phong>
          <emission><color>0.08 0.08 0.08 1</color></emission>
          <ambient><color>0.2 0.2 0.2 1</color></ambient>
          <diffuse><texture texture="VFXTexture-sampler" texcoord="UVSET0"/></diffuse>
          <specular><color>0.15 0.15 0.15 1</color></specular>
          <shininess><float>8</float></shininess>
          <transparent opaque="A_ONE"><texture texture="VFXTexture-sampler" texcoord="UVSET0"/></transparent>
          <transparency><float>1</float></transparency>
        </phong></technique>
      </profile_COMMON>
      <extra><technique profile="GOOGLEEARTH"><double_sided>1</double_sided></technique></extra>
    </effect>
  </library_effects>
  <library_materials><material id="PreviewMaterial" name="PreviewMaterial"><instance_effect url="#PreviewEffect"/></material></library_materials>
  <library_geometries>
    <geometry id="vfx_kurp_0528-mesh" name="vfx_kurp_0528"><mesh>
      <source id="vfx_kurp_0528-mesh-positions">
        <float_array id="vfx_kurp_0528-mesh-positions-array" count="162">-0.219991651 0.144232386 0.00488833177 -0.460339355 -0.587668054 -0.0786159793 0.526891237 0.847209228 -2.52710899 0.00184735688 1.32276601 -2.94867084 0.526891237 0.847209228 -2.52710899 -0.460339355 -0.587668054 -0.0786159793 0.526891237 0.847209228 -2.52710899 0.00184735688 1.32276601 -2.94867084 -0.385985111 -0.223562152 -5.0472005 0.28795133 0.0697733384 -5.27451159 -0.385985111 -0.223562152 -5.0472005 0.00184735688 1.32276601 -2.94867084 -0.385985111 -0.223562152 -5.0472005 0.28795133 0.0697733384 -5.27451159 -0.1657806 0.753483661 -7.58025563 -0.296934859 0.0261088787 -7.31472957 -0.1657806 0.753483661 -7.58025563 0.28795133 0.0697733384 -5.27451159 0.350615049 0.651018258 -0.122510618 -0.219991651 0.144232386 0.00488833177 0.663687562 0.128622983 -2.20043165 0.526891237 0.847209228 -2.52710899 0.663687562 0.128622983 -2.20043165 -0.219991651 0.144232386 0.00488833177 0.663687562 0.128622983 -2.20043165 0.526891237 0.847209228 -2.52710899 -1.04917495 -0.0731553195 -4.70512789 -0.385985111 -0.223562152 -5.0472005 -1.04917495 -0.0731553195 -4.70512789 0.526891237 0.847209228 -2.52710899 -1.04917495 -0.0731553195 -4.70512789 -0.385985111 -0.223562152 -5.0472005 0.363750039 1.32008902 -7.60959723 -0.1657806 0.753483661 -7.58025563 0.363750039 1.32008902 -7.60959723 -0.385985111 -0.223562152 -5.0472005 -0.525269727 0.108728798 -9.90017084 -0.525269727 0.108728798 -9.90017084 -1.07868485 0.496091933 -9.55065061 -0.525269727 0.108728798 -9.90017084 -0.296934859 0.0261088787 -7.31472957 0.406443417 0.895729709 -12.0895039 -0.525269727 0.108728798 -9.90017084 -1.07868485 0.496091933 -9.55065061 -0.195633416 0.421956035 -12.2555088 -0.525269727 0.108728798 -9.90017084 0.406443417 0.895729709 -12.0895039 -0.923931302 0.369041241 -12.6111055 -0.525269727 0.108728798 -9.90017084 -0.195633416 0.421956035 -12.2555088 -0.332026284 -0.563720615 -10.2076007 -0.525269727 0.108728798 -9.90017084 -0.923931302 0.369041241 -12.6111055 0.363750039 1.32008902 -7.60959723</float_array>
        <technique_common><accessor source="#vfx_kurp_0528-mesh-positions-array" count="54" stride="3"><param name="X" type="float"/><param name="Y" type="float"/><param name="Z" type="float"/></accessor></technique_common>
      </source>
      <source id="vfx_kurp_0528-mesh-normals">
        <float_array id="vfx_kurp_0528-mesh-normals-array" count="162">0.927607533 -0.325522715 0.183246354 0.927607542 -0.325522688 0.183246356 0.927607533 -0.325522715 0.183246354 -0.257961947 -0.784592114 -0.563800362 -0.257961975 -0.784592108 -0.563800358 -0.257961978 -0.784592059 -0.563800425 -0.769653117 -0.437729314 0.464787184 -0.769653127 -0.43772929 0.46478719 -0.769653128 -0.43772932 0.464787161 -0.480281102 0.746161247 -0.46105689 -0.480281072 0.746161248 -0.46105692 -0.480281079 0.746161258 -0.461056897 -0.283778174 0.902670068 0.323506871 -0.283778174 0.902670068 0.323506871 -0.283778174 0.902670068 0.323506871 0.95045173 -0.24242029 -0.194612211 0.960317751 -0.230487818 -0.15705153 0.928996938 -0.262677428 -0.260701472 0.672106178 -0.687820188 0.274183649 0.672106124 -0.687820253 0.274183621 0.672106178 -0.687820188 0.274183649 -0.878289937 -0.326142489 -0.349625319 -0.878289937 -0.326142489 -0.349625319 -0.878289937 -0.326142489 -0.349625319 -0.825218568 0.0959431165 0.556605097 -0.825218568 0.0959431165 0.556605097 -0.825218569 0.0959431091 0.556605097 0.00591430364 0.919577119 -0.392865044 0.00591430371 0.91957713 -0.392865019 0.00591430411 0.919577119 -0.392865044 0.445293477 0.703394116 0.55403108 0.445293501 0.703394107 0.554031072 0.445293501 0.703394107 0.554031072 0.727326514 -0.683138259 -0.0657134769 0.727876546 -0.683252132 -0.0579849825 0.71092926 -0.67468703 -0.198436382 0.730469098 -0.678765019 0.0754516158 0.973441053 -0.209348153 -0.0926599567 -0.563335001 -0.825898319 0.0233590204 -0.563335001 -0.825898319 0.0233590204 -0.563335001 -0.825898319 0.0233590204 -0.685977757 -0.541114477 -0.486445927 -0.685977767 -0.541114485 -0.486445904 -0.685977767 -0.541114485 -0.486445904 -0.621236758 0.783433219 0.0172418671 -0.621236795 0.78343319 0.0172418665 -0.621236758 0.783433219 0.017241869 -0.126909287 0.985423884 0.113286373 -0.126909287 0.985423884 0.113286373 -0.126909287 0.985423883 0.113286381 -0.898513011 -0.367763502 0.239633838 -0.828158004 -0.411815505 0.380213507 -0.941351502 -0.319769049 0.107726997 -0.728704115 -0.446717553 0.519070073</float_array>
        <technique_common><accessor source="#vfx_kurp_0528-mesh-normals-array" count="54" stride="3"><param name="X" type="float"/><param name="Y" type="float"/><param name="Z" type="float"/></accessor></technique_common>
      </source>
      <source id="vfx_kurp_0528-mesh-uv0">
        <float_array id="vfx_kurp_0528-mesh-uv0-array" count="108">0.5 1 1 1 0.5 0.800000012 1 0.800000012 0.5 0.800000012 1 1 0.5 0.800000012 1 0.800000012 0.5 0.600000024 1 0.600000024 0.5 0.600000024 1 0.800000012 0.5 0.600000024 1 0.600000024 0.5 0.399999976 1 0.399999976 0.5 0.399999976 1 0.600000024 0 1 0.5 1 0 0.800000012 0.5 0.800000012 0 0.800000012 0.5 1 0 0.800000012 0.5 0.800000012 0 0.600000024 0.5 0.600000024 0 0.600000024 0.5 0.800000012 0 0.600000024 0.5 0.600000024 0 0.399999976 0.5 0.399999976 0 0.399999976 0.5 0.600000024 0.5 0.199999988 0.5 0.199999988 1 0.199999988 0.5 0.199999988 1 0.399999976 1 0 0.5 0.199999988 1 0.199999988 0.5 0 0.5 0.199999988 1 0 0 0 0.5 0.199999988 0.5 0 0 0.199999988 0.5 0.199999988 0 0 0 0.399999976</float_array>
        <technique_common><accessor source="#vfx_kurp_0528-mesh-uv0-array" count="54" stride="2"><param name="S" type="float"/><param name="T" type="float"/></accessor></technique_common>
      </source>
      <vertices id="vfx_kurp_0528-mesh-vertices"><input semantic="POSITION" source="#vfx_kurp_0528-mesh-positions"/></vertices>
      <triangles material="PreviewMaterial" count="20">
        <input semantic="VERTEX" source="#vfx_kurp_0528-mesh-vertices" offset="0"/>
        <input semantic="NORMAL" source="#vfx_kurp_0528-mesh-normals" offset="1"/>
        <input semantic="TEXCOORD" source="#vfx_kurp_0528-mesh-uv0" offset="2" set="0"/>
        <p>0 0 0 1 1 1 2 2 2 3 3 3 4 4 4 5 5 5 6 6 6 7 7 7 8 8 8 9 9 9 10 10 10 11 11 11 12 12 12 13 13 13 14 14 14 15 15 15 16 16 16 17 17 17 18 18 18 19 19 19 20 20 20 21 21 21 22 22 22 23 23 23 24 24 24 25 25 25 26 26 26 27 27 27 28 28 28 29 29 29 30 30 30 31 31 31 32 32 32 33 33 33 34 34 34 35 35 35 34 34 34 33 33 33 36 36 36 15 15 15 37 37 37 16 16 16 38 38 38 39 39 39 40 40 40 41 41 41 42 42 42 43 43 43 44 44 44 45 45 45 46 46 46 47 47 47 48 48 48 49 49 49 50 50 50 51 51 51 52 52 52 51 51 51 50 50 50 53 53 53</p>
      </triangles>
    </mesh></geometry>
  </library_geometries>
  <library_visual_scenes>
    <visual_scene id="Scene" name="Scene">
      <node id="vfx_kurp_0528" name="vfx_kurp_0528" type="NODE">
        <instance_geometry url="#vfx_kurp_0528-mesh"><bind_material><technique_common><instance_material symbol="PreviewMaterial" target="#PreviewMaterial"><bind_vertex_input semantic="UVSET0" input_semantic="TEXCOORD" input_set="0"/></instance_material></technique_common></bind_material></instance_geometry>
      </node>
    </visual_scene>
  </library_visual_scenes>
  <scene><instance_visual_scene url="#Scene"/></scene>
</COLLADA>
