<?xml version="1.0" encoding="utf-8"?>
<COLLADA xmlns="http://www.collada.org/2005/11/COLLADASchema" version="1.4.1">
  <asset>
    <contributor><authoring_tool>Morrobroom Kurpulio VFX preview converter</authoring_tool></contributor>
    <unit name="unit" meter="1"/>
    <up_axis>Z_UP</up_axis>
  </asset>
  <library_images>
    <image id="VFXTexture" name="darkmap_newgen-1.dds">
      <init_from>../../../Textures/Kurp/darkmap_newgen-1.dds</init_from>
    </image>
  </library_images>
  <library_effects>
    <effect id="PreviewEffect">
      <profile_COMMON>
        <newparam sid="VFXTexture-surface">
          <surface type="2D"><init_from>VFXTexture</init_from></surface>
        </newparam>
        <newparam sid="VFXTexture-sampler">
          <sampler2D><source>VFXTexture-surface</source></sampler2D>
        </newparam>
        <technique sid="common"><phong>
          <emission><color>0.08 0.08 0.08 1</color></emission>
          <ambient><color>0.2 0.2 0.2 1</color></ambient>
          <diffuse><texture texture="VFXTexture-sampler" texcoord="UVSET0"/></diffuse>
          <specular><color>0.15 0.15 0.15 1</color></specular>
          <shininess><float>8</float></shininess>
          <transparent opaque="A_ONE"><texture texture="VFXTexture-sampler" texcoord="UVSET0"/></transparent>
          <transparency><float>1</float></transparency>
        </phong></technique>
      </profile_COMMON>
      <extra><technique profile="GOOGLEEARTH"><double_sided>1</double_sided></technique></extra>
    </effect>
  </library_effects>
  <library_materials><material id="PreviewMaterial" name="PreviewMaterial"><instance_effect url="#PreviewEffect"/></material></library_materials>
  <library_geometries>
    <geometry id="vfx_kurp_1020-mesh" name="vfx_kurp_1020"><mesh>
      <source id="vfx_kurp_1020-mesh-positions">
        <float_array id="vfx_kurp_1020-mesh-positions-array" count="288">-0.143861713 -4.99462154 -1.65037036 0.768858445 5.07456109 1.16118601 -0.768858614 -5.07456137 -1.16118627 0.143861928 4.99462184 1.65037054 -0.210963419 -5.13958864 -1.10940987 0.70175668 4.92959437 1.70214648 -0.701756805 -4.92959434 -1.70214655 0.210963202 5.13958863 1.10940998 -0.491049743 -5.41728725 -1.51263637 7.7311554 -4.36563676 -7.94813896 -0.42167078 -4.65189528 -1.29892026 7.80053453 -3.6002455 -7.73442304 -0.210963419 -5.13958864 -1.10940987 8.01124162 -4.08793839 -7.54491291 -0.701756805 -4.92959434 -1.70214655 7.52044868 -3.87794336 -8.1376497 -0.768858614 -5.07456137 -1.16118627 -1.68156699 -15.1437448 -3.97274499 -0.143861713 -4.99462154 -1.65037036 -1.05656987 -15.0638057 -4.461929 -0.210963419 -5.13958864 -1.10940987 -1.12367175 -15.2087724 -3.92096881 -0.701756805 -4.92959434 -1.70214655 -1.61446506 -14.998778 -4.51370566 -0.42167078 -4.65189528 -1.29892026 -8.64386774 -5.70354422 5.13659285 -0.491049743 -5.41728725 -1.51263637 -8.71324674 -6.46893625 4.92287697 -0.210963419 -5.13958864 -1.10940987 -8.43316063 -6.19123783 5.32610289 -0.701756805 -4.92959434 -1.70214655 -8.92395413 -5.98124323 4.73336647 -0.0792075346 -4.94905679 -1.30821562 0.712971702 1.20838859 -9.76898803 -0.833510737 -5.12012763 -1.5033403 -0.0413312778 1.03731728 -9.96411242 -0.582566376 -4.72315264 -1.1909401 0.209612838 1.43429253 -9.65171275 -0.330151846 -5.34603177 -1.62061587 0.462027123 0.811413268 -10.0813883 -0.4864671 -5.26861664 -1.08421272 9.43683436 -3.01806722 1.48277274 -0.426250883 -4.80056842 -1.72734367 9.49705064 -2.55001884 0.839642552 -0.582566376 -4.72315264 -1.1909401 9.34073526 -2.47260391 1.3760458 -0.330151846 -5.34603177 -1.62061587 9.59314972 -3.09548232 0.946369439 -0.833510737 -5.12012763 -1.5033403 -1.62569292 -11.2775738 6.95743338 -0.0792075346 -4.94905679 -1.30821562 -0.871390502 -11.1065026 7.15255821 -0.582566376 -4.72315264 -1.1909401 -1.37474887 -10.8805982 7.26983419 -0.330151846 -5.34603177 -1.62061587 -1.12233405 -11.5034777 6.84015812 -0.426250883 -4.80056842 -1.72734367 -10.3495552 -7.05110747 -4.29432398 -0.4864671 -5.26861664 -1.08421272 -10.4097719 -7.51915523 -3.65119316 -0.582566376 -4.72315264 -1.1909401 -10.5058706 -6.97369271 -3.75792078 -0.330151846 -5.34603177 -1.62061587 -10.2534563 -7.59657223 -4.18759641 -0.540638823 -5.18056893 -1.76725514 6.37298316 -12.9282997 -0.250394506 -0.372079228 -4.88861514 -1.04430076 6.54154231 -12.6363458 0.472559668 -0.744335341 -5.26055469 -1.24738364 6.16928662 -13.0082855 0.269477153 -0.168383004 -4.80862973 -1.56417223 6.74523907 -12.5563596 -0.0473110484 -0.719122826 -4.74012709 -1.46342892 -2.93662471 -8.58095514 -10.9743193 -0.193595339 -5.32905728 -1.34812723 -2.41109716 -9.16988498 -10.8590175 -0.744335341 -5.26055469 -1.24738364 -2.96183702 -9.10138302 -10.7582744 -0.168383004 -4.80862973 -1.56417223 -2.38588457 -8.64945706 -11.0750626 -0.372079228 -4.88861514 -1.04430076 -7.28570504 2.85911218 -2.56116137 -0.540638823 -5.18056893 -1.76725514 -7.45426479 2.56715788 -3.2841152 -0.744335341 -5.26055469 -1.24738364 -7.65796119 2.48717251 -2.76424447 -0.168383004 -4.80862973 -1.56417223 -7.08200881 2.93909769 -3.08103288 -0.193595339 -5.32905728 -1.34812723 2.02390411 -1.48823138 8.16276461 -0.719122826 -4.74012709 -1.46342892 1.49837704 -0.8993013 8.0474635 -0.744335341 -5.26055469 -1.24738364 1.47316475 -1.41972901 8.26350842 -0.168383004 -4.80862973 -1.56417223 2.04911715 -0.967803566 7.94672007</float_array>
        <technique_common><accessor source="#vfx_kurp_1020-mesh-positions-array" count="96" stride="3"><param name="X" type="float"/><param name="Y" type="float"/><param name="Z" type="float"/></accessor></technique_common>
      </source>
      <source id="vfx_kurp_1020-mesh-normals">
        <float_array id="vfx_kurp_1020-mesh-normals-array" count="288">0.615266633 -0.263251973 0.743064848 0.615266998 -0.26325222 0.743064459 0.615266652 -0.263251972 0.743064833 0.615267018 -0.263252219 0.743064443 -0.783506297 -0.100213102 0.613249719 -0.783506161 -0.100213177 0.61324988 -0.78350629 -0.100213105 0.613249727 -0.783506154 -0.10021318 0.613249888 0.615266695 -0.263252613 0.74306457 0.615266203 -0.263252857 0.743064892 0.615266694 -0.263252622 0.743064568 0.615266201 -0.263252866 0.74306489 0.0869742344 0.95950792 0.267917963 0.0869747086 0.959507689 0.267918636 0.0869742585 0.959507908 0.267917997 0.0869747327 0.959507677 0.267918671 0.615266652 -0.263251972 0.743064833 0.615266287 -0.263251725 0.743065223 0.615266633 -0.263251973 0.743064848 0.615266268 -0.263251726 0.743065238 0.783506386 0.100214083 -0.613249445 0.783506512 0.100214045 -0.61324929 0.783506392 0.100214081 -0.613249437 0.783506518 0.100214043 -0.613249282 0.615266694 -0.263252622 0.743064568 0.615267186 -0.263252379 0.743064247 0.615266695 -0.263252613 0.74306457 0.615267187 -0.26325237 0.743064249 -0.0869745548 -0.959507961 -0.267917712 -0.0869748427 -0.959507852 -0.267918009 -0.0869745694 -0.959507955 -0.267917727 -0.0869748574 -0.959507846 -0.267918024 -0.316430567 0.780851775 0.538648495 -0.316430832 0.780851727 0.53864841 -0.316430522 0.780851804 0.538648479 -0.31643088 0.780851699 0.538648422 -0.945607205 -0.214457842 -0.244611627 -0.945607289 -0.214457703 -0.244611424 -0.945607205 -0.214457842 -0.244611627 -0.945607289 -0.214457703 -0.244611424 -0.316431192 0.78085125 0.53864889 -0.316431805 0.780850761 0.538649239 -0.316431143 0.780851274 0.538648884 -0.316431829 0.780850726 0.538649274 0.0754880289 0.586752734 -0.806239906 0.0754876017 0.58675353 -0.806239367 0.0754880289 0.586752734 -0.806239906 0.0754876035 0.586753552 -0.806239351 -0.316430522 0.780851804 0.538648479 -0.316431245 0.780851693 0.538648216 -0.316430567 0.780851775 0.538648495 -0.316431322 0.780851655 0.538648226 0.945607186 0.214457719 0.244611809 0.945607124 0.214457854 0.244611927 0.945607186 0.214457719 0.244611809 0.945607132 0.214457828 0.244611922 -0.316431143 0.780851274 0.538648884 -0.316430568 0.780851708 0.538648593 -0.316431192 0.78085125 0.53864889 -0.316430561 0.780851727 0.538648569 -0.0754881127 -0.586752728 0.806239903 -0.075488223 -0.586752413 0.806240122 -0.0754881109 -0.586752706 0.806239919 -0.0754882212 -0.58675239 0.806240139 -0.722023502 -0.566541019 0.397131384 -0.722023712 -0.566540929 0.39713113 -0.722023505 -0.566541034 0.397131356 -0.722023709 -0.566540947 0.39713111 0.21130939 0.365998301 0.906307666 0.211308745 0.365997773 0.90630803 0.211309341 0.365998244 0.9063077 0.211308694 0.365997759 0.906308047 -0.722023314 -0.566541169 0.397131513 -0.722023109 -0.566541309 0.397131684 -0.722023303 -0.56654119 0.397131502 -0.722023096 -0.566541331 0.397131677 0.658809703 -0.738293106 0.144544332 0.658810247 -0.738292693 0.144543966 0.658809736 -0.738293085 0.144544293 0.65881028 -0.738292671 0.144543927 -0.722023505 -0.566541034 0.397131356 -0.722023145 -0.566541017 0.397132036 -0.722023502 -0.566541019 0.397131384 -0.722023136 -0.566541004 0.397132071 -0.211309255 -0.365998387 -0.906307663 -0.211309056 -0.365998244 -0.906307767 -0.211309255 -0.365998387 -0.906307663 -0.211309058 -0.365998201 -0.906307784 -0.722023303 -0.56654119 0.397131502 -0.72202334 -0.56654126 0.397131334 -0.722023314 -0.566541169 0.397131513 -0.72202334 -0.56654126 0.397131334 -0.658809698 0.738293131 -0.144544233 -0.65880995 0.738292932 -0.144544099 -0.658809744 0.73829309 -0.144544235 -0.658809988 0.738292886 -0.144544158</float_array>
        <technique_common><accessor source="#vfx_kurp_1020-mesh-normals-array" count="96" stride="3"><param name="X" type="float"/><param name="Y" type="float"/><param name="Z" type="float"/></accessor></technique_common>
      </source>
      <source id="vfx_kurp_1020-mesh-uv0">
        <float_array id="vfx_kurp_1020-mesh-uv0-array" count="192">1 1 1 0 0 1 0 0 1 1 1 0 0 1 0 0 1 1 1 0 0 1 0 0 1 1 1 0 0 1 0 0 1 1 1 0 0 1 0 0 1 1 1 0 0 1 0 0 1 1 1 0 0 1 0 0 1 1 1 0 0 1 0 0 1 1 1 0 0 1 0 0 1 1 1 0 0 1 0 0 1 1 1 0 0 1 0 0 1 1 1 0 0 1 0 0 1 1 1 0 0 1 0 0 1 1 1 0 0 1 0 0 1 1 1 0 0 1 0 0 1 1 1 0 0 1 0 0 1 1 1 0 0 1 0 0 1 1 1 0 0 1 0 0 1 1 1 0 0 1 0 0 1 1 1 0 0 1 0 0 1 1 1 0 0 1 0 0 1 1 1 0 0 1 0 0 1 1 1 0 0 1 0 0 1 1 1 0 0 1 0 0</float_array>
        <technique_common><accessor source="#vfx_kurp_1020-mesh-uv0-array" count="96" stride="2"><param name="S" type="float"/><param name="T" type="float"/></accessor></technique_common>
      </source>
      <vertices id="vfx_kurp_1020-mesh-vertices"><input semantic="POSITION" source="#vfx_kurp_1020-mesh-positions"/></vertices>
      <triangles material="PreviewMaterial" count="48">
        <input semantic="VERTEX" source="#vfx_kurp_1020-mesh-vertices" offset="0"/>
        <input semantic="NORMAL" source="#vfx_kurp_1020-mesh-normals" offset="1"/>
        <input semantic="TEXCOORD" source="#vfx_kurp_1020-mesh-uv0" offset="2" set="0"/>
        <p>0 0 0 1 1 1 2 2 2 3 3 3 2 2 2 1 1 1 4 4 4 5 5 5 6 6 6 7 7 7 6 6 6 5 5 5 8 8 8 9 9 9 10 10 10 11 11 11 10 10 10 9 9 9 12 12 12 13 13 13 14 14 14 15 15 15 14 14 14 13 13 13 16 16 16 17 17 17 18 18 18 19 19 19 18 18 18 17 17 17 20 20 20 21 21 21 22 22 22 23 23 23 22 22 22 21 21 21 24 24 24 25 25 25 26 26 26 27 27 27 26 26 26 25 25 25 28 28 28 29 29 29 30 30 30 31 31 31 30 30 30 29 29 29 32 32 32 33 33 33 34 34 34 35 35 35 34 34 34 33 33 33 36 36 36 37 37 37 38 38 38 39 39 39 38 38 38 37 37 37 40 40 40 41 41 41 42 42 42 43 43 43 42 42 42 41 41 41 44 44 44 45 45 45 46 46 46 47 47 47 46 46 46 45 45 45 48 48 48 49 49 49 50 50 50 51 51 51 50 50 50 49 49 49 52 52 52 53 53 53 54 54 54 55 55 55 54 54 54 53 53 53 56 56 56 57 57 57 58 58 58 59 59 59 58 58 58 57 57 57 60 60 60 61 61 61 62 62 62 63 63 63 62 62 62 61 61 61 64 64 64 65 65 65 66 66 66 67 67 67 66 66 66 65 65 65 68 68 68 69 69 69 70 70 70 71 71 71 70 70 70 69 69 69 72 72 72 73 73 73 74 74 74 75 75 75 74 74 74 73 73 73 76 76 76 77 77 77 78 78 78 79 79 79 78 78 78 77 77 77 80 80 80 81 81 81 82 82 82 83 83 83 82 82 82 81 81 81 84 84 84 85 85 85 86 86 86 87 87 87 86 86 86 85 85 85 88 88 88 89 89 89 90 90 90 91 91 91 90 90 90 89 89 89 92 92 92 93 93 93 94 94 94 95 95 95 94 94 94 93 93 93</p>
      </triangles>
    </mesh></geometry>
  </library_geometries>
  <library_visual_scenes>
    <visual_scene id="Scene" name="Scene">
      <node id="vfx_kurp_1020" name="vfx_kurp_1020" type="NODE">
        <instance_geometry url="#vfx_kurp_1020-mesh"><bind_material><technique_common><instance_material symbol="PreviewMaterial" target="#PreviewMaterial"><bind_vertex_input semantic="UVSET0" input_semantic="TEXCOORD" input_set="0"/></instance_material></technique_common></bind_material></instance_geometry>
      </node>
    </visual_scene>
  </library_visual_scenes>
  <scene><instance_visual_scene url="#Scene"/></scene>
</COLLADA>
