<?xml version="1.0" encoding="utf-8"?>
<COLLADA xmlns="http://www.collada.org/2005/11/COLLADASchema" version="1.4.1">
  <asset>
    <contributor><authoring_tool>Morrobroom Kurpulio VFX preview converter</authoring_tool></contributor>
    <unit name="unit" meter="1"/>
    <up_axis>Z_UP</up_axis>
  </asset>
  <library_images>
    <image id="VFXTexture" name="darkmap_newgen-1.dds">
      <init_from>../../../Textures/Kurp/darkmap_newgen-1.dds</init_from>
    </image>
  </library_images>
  <library_effects>
    <effect id="PreviewEffect">
      <profile_COMMON>
        <newparam sid="VFXTexture-surface">
          <surface type="2D"><init_from>VFXTexture</init_from></surface>
        </newparam>
        <newparam sid="VFXTexture-sampler">
          <sampler2D><source>VFXTexture-surface</source></sampler2D>
        </newparam>
        <technique sid="common"><phong>
          <emission><color>0.08 0.08 0.08 1</color></emission>
          <ambient><color>0.2 0.2 0.2 1</color></ambient>
          <diffuse><texture texture="VFXTexture-sampler" texcoord="UVSET0"/></diffuse>
          <specular><color>0.15 0.15 0.15 1</color></specular>
          <shininess><float>8</float></shininess>
          <transparent opaque="A_ONE"><texture texture="VFXTexture-sampler" texcoord="UVSET0"/></transparent>
          <transparency><float>1</float></transparency>
        </phong></technique>
      </profile_COMMON>
      <extra><technique profile="GOOGLEEARTH"><double_sided>1</double_sided></technique></extra>
    </effect>
  </library_effects>
  <library_materials><material id="PreviewMaterial" name="PreviewMaterial"><instance_effect url="#PreviewEffect"/></material></library_materials>
  <library_geometries>
    <geometry id="vfx_kurp_0676-mesh" name="vfx_kurp_0676"><mesh>
      <source id="vfx_kurp_0676-mesh-positions">
        <float_array id="vfx_kurp_0676-mesh-positions-array" count="189">-1.29618809 -3.08944513 -1.70347252 -1.07979135 -3.41076628 0.0234158005 -1.67807059 -3.30006569 -1.70436443 -1.51276141 -3.65360418 0.0573178054 -2.08790213 -3.44855605 -1.70466172 -1.9789459 -3.82427505 0.0854014607 -1.67004266 -4.96178765 2.04626454 -1.03129055 -4.72619497 1.94154213 -0.441596823 -4.38756152 1.82877118 0.0816390146 -3.95629076 1.70795039 -0.691381907 -3.10213842 -0.0163045553 0.523229451 -3.4458045 1.57908072 -0.357666139 -2.73590351 -0.061843256 0.870729256 -2.87207829 1.44216167 -0.0872709252 -2.32182043 -0.113200314 1.11486847 -2.25308132 1.29719255 0.112928627 -1.87094649 -0.170375808 1.24987119 -1.6081454 1.1441749 0.238003504 -1.3953233 -0.233369777 1.27365293 -0.957281301 0.983107405 0.285111414 -0.907629298 -0.30218208 1.18788079 -0.320470569 0.813991083 0.253572651 -0.420819586 -0.376812851 -0.951631224 -2.82175333 -1.70198588 -0.65288488 -2.50345919 -1.69990462 -0.407332974 -2.14228578 -1.69722887 -0.221072241 -1.74702786 -1.69395837 -0.0987582399 -1.32733641 -1.69009326 -0.043486477 -0.893487336 -1.68563353 -0.0567109089 -0.456128618 -1.68057906 0.144884262 0.0522507764 -0.457261897 -0.138202321 -0.0260202202 -1.67492997 -0.0373303756 0.499190122 -0.543529574 -0.286048939 0.386231612 -1.66868638 0.997902304 0.283044763 0.63682498 0.712537775 0.83544525 0.451609661 0.343743933 1.32097265 0.25834477 -0.287436103 0.908430418 -0.635615645 -0.0938342936 1.72648598 0.0570310348 -0.597957418 1.26955217 -0.733519722 -0.58341962 2.04193099 -0.152332304 -0.959807938 1.57358293 -0.837242461 -1.10673031 2.26069069 -0.369744965 -1.36256416 1.81324578 -0.946783565 -1.6446759 2.37981311 -0.595207172 -1.79477995 1.98315935 -1.06214315 -2.17807725 2.40009753 -0.828718657 -2.24432803 2.07997762 -1.18332117 -2.68840369 2.32604643 -1.07027915 -2.69876485 2.1024712 -1.31031731 -0.49669722 0.770434989 -1.66184806 -0.765034184 1.11706655 -1.65441511 -1.08451034 1.41751055 -1.64638755 -1.44729422 1.66427234 -1.63776525 -1.84446466 1.85116899 -1.62854845 -2.26622663 1.97348806 -1.61873691 -2.70215107 2.02810704 -1.60833075 -3.14570199 2.05154211 -1.44313205 -3.14143498 2.01357909 -1.59732998 -3.57316766 1.93017185 -1.58176528 -3.57316741 1.93017093 -1.5857346 -3.1584821 2.16566807 -1.31988932 -3.57316138 1.93014935 -1.57754873</float_array>
        <technique_common><accessor source="#vfx_kurp_0676-mesh-positions-array" count="63" stride="3"><param name="X" type="float"/><param name="Y" type="float"/><param name="Z" type="float"/></accessor></technique_common>
      </source>
      <source id="vfx_kurp_0676-mesh-normals">
        <float_array id="vfx_kurp_0676-mesh-normals-array" count="189">0.53620001 -0.814984196 -0.219750562 0.486438824 -0.78054174 -0.392596311 0.402636475 -0.889215523 -0.217208708 0.361836582 -0.849460098 -0.38404665 0.331386334 -0.918653799 -0.215077417 0.292780721 -0.876278245 -0.382643289 0.220964312 -0.828098777 -0.515196263 0.280465742 -0.804478417 -0.523596643 0.397688274 -0.743727195 -0.537321037 0.502685617 -0.666667717 -0.55032838 0.598449559 -0.693751726 -0.40070771 0.593352209 -0.575627968 -0.562659398 0.695382491 -0.591310115 -0.408406095 0.667998609 -0.4731786 -0.574351695 0.77512823 -0.475770126 -0.415715063 0.725377502 -0.362060188 -0.58543992 0.835998377 -0.34995524 -0.422655941 0.764693463 -0.245115039 -0.595955137 0.876757383 -0.216893439 -0.429247862 0.785605396 -0.125215459 -0.605925119 0.896645643 -0.0797455498 -0.435508022 0.788218582 -0.00519277656 -0.615373466 0.895391176 0.0582680659 -0.441451554 0.65654449 -0.720840507 -0.222122255 0.760720953 -0.609077689 -0.224339028 0.846170739 -0.482422634 -0.226414404 0.9107879 -0.343972622 -0.228359883 0.952973665 -0.197119118 -0.230185243 0.971676827 -0.0454657456 -0.231898708 0.966421149 0.107259729 -0.233506987 0.873209913 0.193940798 -0.447092178 0.937318833 0.257296218 -0.235015025 0.830796125 0.324153546 -0.452440357 0.885069327 0.400942777 -0.236425837 0.773065361 0.112227849 -0.624319516 0.741077288 0.224493667 -0.632777249 0.693547623 0.32928218 -0.640753417 0.769300337 0.44594466 -0.457504483 0.632084786 0.424555534 -0.648244878 0.690298471 0.556576005 -0.462289056 0.55855696 0.508610271 -0.655232566 0.595750626 0.653595026 -0.46679196 0.475023802 0.5801245 -0.661670577 0.48795008 0.734890139 -0.471000215 0.383647294 0.638209803 -0.667460111 0.369464452 0.798743621 -0.474873295 0.286548779 0.682493651 -0.672378029 0.243057405 0.843898764 -0.478286497 0.185464074 0.713348369 -0.675823336 0.11149884 0.869724423 -0.480777949 0.810943864 0.534649335 -0.237739642 0.716755171 0.655105748 -0.23895289 0.60481337 0.759324868 -0.240055269 0.477868283 0.844718395 -0.24102435 0.339037094 0.909164908 -0.241811951 0.191715461 0.9510702 -0.242302822 0.0394461489 0.969432865 -0.242165071 -0.0237451748 0.877062436 -0.479789173 -0.114426718 0.964052567 -0.239810703 -0.225104539 0.974027756 -0.0244515234 -0.189692807 0.981843461 -0.000239660491 0.0800742954 0.733338084 -0.675132107 -0.245011656 0.965104134 -0.0924299711</float_array>
        <technique_common><accessor source="#vfx_kurp_0676-mesh-normals-array" count="63" stride="3"><param name="X" type="float"/><param name="Y" type="float"/><param name="Z" type="float"/></accessor></technique_common>
      </source>
      <source id="vfx_kurp_0676-mesh-uv0">
        <float_array id="vfx_kurp_0676-mesh-uv0-array" count="126">0.100000001 1 0.100000001 0.5 0.0500000007 1 0.0500000007 0.5 0 1 0 0.5 0 0 0.0500000007 0 0.100000001 0 0.150000006 0 0.150000006 0.5 0.200000003 0 0.200000003 0.5 0.25 0 0.25 0.5 0.300000012 0 0.300000012 0.5 0.349999994 0 0.349999994 0.5 0.400000006 0 0.400000006 0.5 0.450000018 0 0.450000018 0.5 0.150000006 1 0.200000003 1 0.25 1 0.300000012 1 0.349999994 1 0.400000006 1 0.450000018 1 0.5 0.5 0.5 1 0.550000012 0.5 0.550000012 1 0.5 0 0.550000012 0 0.600000024 0 0.600000024 0.5 0.650000036 0 0.650000036 0.5 0.699999988 0 0.699999988 0.5 0.75 0 0.75 0.5 0.800000012 0 0.800000012 0.5 0.850000024 0 0.850000024 0.5 0.900000036 0 0.900000036 0.5 0.600000024 1 0.650000036 1 0.699999988 1 0.75 1 0.800000012 1 0.850000024 1 0.900000036 1 0.949999988 0.5 0.949999988 1 1 0.5 1 1 0.949999988 0 1 0</float_array>
        <technique_common><accessor source="#vfx_kurp_0676-mesh-uv0-array" count="63" stride="2"><param name="S" type="float"/><param name="T" type="float"/></accessor></technique_common>
      </source>
      <vertices id="vfx_kurp_0676-mesh-vertices"><input semantic="POSITION" source="#vfx_kurp_0676-mesh-positions"/></vertices>
      <triangles material="PreviewMaterial" count="80">
        <input semantic="VERTEX" source="#vfx_kurp_0676-mesh-vertices" offset="0"/>
        <input semantic="NORMAL" source="#vfx_kurp_0676-mesh-normals" offset="1"/>
        <input semantic="TEXCOORD" source="#vfx_kurp_0676-mesh-uv0" offset="2" set="0"/>
        <p>0 0 0 1 1 1 2 2 2 3 3 3 2 2 2 1 1 1 2 2 2 3 3 3 4 4 4 5 5 5 4 4 4 3 3 3 6 6 6 5 5 5 7 7 7 3 3 3 7 7 7 5 5 5 7 7 7 3 3 3 8 8 8 1 1 1 8 8 8 3 3 3 8 8 8 1 1 1 9 9 9 10 10 10 9 9 9 1 1 1 9 9 9 10 10 10 11 11 11 12 12 12 11 11 11 10 10 10 11 11 11 12 12 12 13 13 13 14 14 14 13 13 13 12 12 12 13 13 13 14 14 14 15 15 15 16 16 16 15 15 15 14 14 14 15 15 15 16 16 16 17 17 17 18 18 18 17 17 17 16 16 16 17 17 17 18 18 18 19 19 19 20 20 20 19 19 19 18 18 18 19 19 19 20 20 20 21 21 21 22 22 22 21 21 21 20 20 20 1 1 1 0 0 0 10 10 10 23 23 23 10 10 10 0 0 0 10 10 10 23 23 23 12 12 12 24 24 24 12 12 12 23 23 23 12 12 12 24 24 24 14 14 14 25 25 25 14 14 14 24 24 24 14 14 14 25 25 25 16 16 16 26 26 26 16 16 16 25 25 25 16 16 16 26 26 26 18 18 18 27 27 27 18 18 18 26 26 26 18 18 18 27 27 27 20 20 20 28 28 28 20 20 20 27 27 27 20 20 20 28 28 28 22 22 22 29 29 29 22 22 22 28 28 28 22 22 22 29 29 29 30 30 30 31 31 31 30 30 30 29 29 29 30 30 30 31 31 31 32 32 32 33 33 33 32 32 32 31 31 31 21 21 21 22 22 22 34 34 34 30 30 30 34 34 34 22 22 22 34 34 34 30 30 30 35 35 35 32 32 32 35 35 35 30 30 30 35 35 35 32 32 32 36 36 36 37 37 37 36 36 36 32 32 32 36 36 36 37 37 37 38 38 38 39 39 39 38 38 38 37 37 37 38 38 38 39 39 39 40 40 40 41 41 41 40 40 40 39 39 39 40 40 40 41 41 41 42 42 42 43 43 43 42 42 42 41 41 41 42 42 42 43 43 43 44 44 44 45 45 45 44 44 44 43 43 43 44 44 44 45 45 45 46 46 46 47 47 47 46 46 46 45 45 45 46 46 46 47 47 47 48 48 48 49 49 49 48 48 48 47 47 47 32 32 32 33 33 33 37 37 37 50 50 50 37 37 37 33 33 33 37 37 37 50 50 50 39 39 39 51 51 51 39 39 39 50 50 50 39 39 39 51 51 51 41 41 41 52 52 52 41 41 41 51 51 51 41 41 41 52 52 52 43 43 43 53 53 53 43 43 43 52 52 52 43 43 43 53 53 53 45 45 45 54 54 54 45 45 45 53 53 53 45 45 45 54 54 54 47 47 47 55 55 55 47 47 47 54 54 54 47 47 47 55 55 55 49 49 49 56 56 56 49 49 49 55 55 55 49 49 49 56 56 56 57 57 57 58 58 58 57 57 57 56 56 56 57 57 57 58 58 58 59 59 59 60 60 60 59 59 59 58 58 58 48 48 48 49 49 49 61 61 61 57 57 57 61 61 61 49 49 49 61 61 61 57 57 57 62 62 62 59 59 59 62 62 62 57 57 57</p>
      </triangles>
    </mesh></geometry>
  </library_geometries>
  <library_visual_scenes>
    <visual_scene id="Scene" name="Scene">
      <node id="vfx_kurp_0676" name="vfx_kurp_0676" type="NODE">
        <instance_geometry url="#vfx_kurp_0676-mesh"><bind_material><technique_common><instance_material symbol="PreviewMaterial" target="#PreviewMaterial"><bind_vertex_input semantic="UVSET0" input_semantic="TEXCOORD" input_set="0"/></instance_material></technique_common></bind_material></instance_geometry>
      </node>
    </visual_scene>
  </library_visual_scenes>
  <scene><instance_visual_scene url="#Scene"/></scene>
</COLLADA>
