<?xml version="1.0" encoding="utf-8"?>
<COLLADA xmlns="http://www.collada.org/2005/11/COLLADASchema" version="1.4.1">
  <asset>
    <contributor><authoring_tool>Morrobroom Kurpulio VFX preview converter</authoring_tool></contributor>
    <unit name="unit" meter="1"/>
    <up_axis>Z_UP</up_axis>
  </asset>
  <library_images>
    <image id="VFXTexture" name="darkmap_newgen-1.dds">
      <init_from>../../../Textures/Kurp/darkmap_newgen-1.dds</init_from>
    </image>
  </library_images>
  <library_effects>
    <effect id="PreviewEffect">
      <profile_COMMON>
        <newparam sid="VFXTexture-surface">
          <surface type="2D"><init_from>VFXTexture</init_from></surface>
        </newparam>
        <newparam sid="VFXTexture-sampler">
          <sampler2D><source>VFXTexture-surface</source></sampler2D>
        </newparam>
        <technique sid="common"><phong>
          <emission><color>0.08 0.08 0.08 1</color></emission>
          <ambient><color>0.2 0.2 0.2 1</color></ambient>
          <diffuse><texture texture="VFXTexture-sampler" texcoord="UVSET0"/></diffuse>
          <specular><color>0.15 0.15 0.15 1</color></specular>
          <shininess><float>8</float></shininess>
          <transparent opaque="A_ONE"><texture texture="VFXTexture-sampler" texcoord="UVSET0"/></transparent>
          <transparency><float>1</float></transparency>
        </phong></technique>
      </profile_COMMON>
      <extra><technique profile="GOOGLEEARTH"><double_sided>1</double_sided></technique></extra>
    </effect>
  </library_effects>
  <library_materials><material id="PreviewMaterial" name="PreviewMaterial"><instance_effect url="#PreviewEffect"/></material></library_materials>
  <library_geometries>
    <geometry id="vfx_kurp_0229-mesh" name="vfx_kurp_0229"><mesh>
      <source id="vfx_kurp_0229-mesh-positions">
        <float_array id="vfx_kurp_0229-mesh-positions-array" count="432">-1.06504068 -0.251976036 -1.47517362 1.56040512 0.37004066 -0.895768599 -1.56040512 -0.37004066 0.895768599 1.06504068 0.251976036 1.47517362 -1.03001458 -0.433645787 -0.289699798 1.22382898 1.04960616 0.289708574 -2.36313196 1.59206217 -0.289697571 -0.109288447 3.07531438 0.289710807 -6.65798326 -2.46212171 -0.289700385 -8.26860272 -4.62678259 0.289705282 -4.71242998 -3.90971251 -0.289701324 -6.32304947 -6.07437311 0.289704278 -5.07059391 -3.8025899 -0.28970096 -4.91298199 -6.49610132 0.289704868 -2.64972014 -3.66093155 -0.289702099 -2.49210821 -6.35444297 0.28970373 -2.99294969 -3.80909115 -0.289700145 -1.14085142 -5.77113035 0.289705824 -1.22951169 -2.14446613 -0.289702113 0.622586294 -4.10650493 0.289703823 -1.39719797 -2.47859041 -0.28970029 1.28276652 -2.79109338 0.289705187 -1.11632638 -0.0698958458 -0.289701217 1.56363821 -0.382398981 0.289704274 -5.98246871 -3.27230477 -0.289700343 -6.7555984 -5.85728675 0.289705333 -3.65914334 -3.96717714 -0.289701423 -4.43227251 -6.5521589 0.289704445 -4.03234403 -3.9890178 -0.289701029 -2.96299855 -6.46618411 0.289704269 -1.80591821 -3.02791269 -0.289703096 -0.736572505 -5.50507954 0.289702204 -2.0777738 -3.28452452 -0.289700231 0.333684686 -4.49478181 0.289705409 -0.990019345 -1.11715617 -0.289702274 1.42143937 -2.32741371 0.289703368 -1.03308246 -1.49082697 -0.290027169 1.5923636 -0.868808802 0.289378328 -1.59236621 0.868811554 -0.289377141 1.03307971 1.4908297 0.290028326 -7.01565554 -1.46975799 -0.289699519 -9.26949874 -2.95301041 0.289709434 -5.68253657 -3.49546733 -0.289697835 -7.93637976 -4.97871976 0.289711118 -7.01293119 -0.41444759 -0.29002596 -9.63798365 -1.03812074 0.289380773 -6.45215923 -2.77373325 -0.28937542 -9.07721174 -3.39740634 0.290031525 -4.01332288 2.08561476 -0.28970206 -5.08266725 4.5627846 0.289701644 -6.23974946 1.12451011 -0.28970022 -7.30909382 3.60167995 0.289703449 -5.96790091 1.38113283 -0.289702279 -8.37936031 2.59139405 0.289701343 -7.05565667 -0.786234887 -0.289700533 -9.46711604 0.424026227 0.289703087 -1.38768534 0.558714566 -0.289702866 0.222938837 2.7233799 0.289701213 -3.33323841 2.00630601 -0.289699231 -1.72261444 4.17097125 0.289704805 -2.97507152 1.89918678 -0.289700637 -3.13268286 4.59270308 0.28970394 -5.39594482 1.75752821 -0.289698807 -5.5535562 4.45104478 0.289705758 -5.05272637 1.90569068 -0.289700814 -6.90482584 3.86772895 0.289703747 -6.81616381 0.241064768 -0.289700755 -8.66826278 2.2031034 0.289704 -6.6484709 0.575194695 -0.289699697 -9.32843177 0.887698751 0.289709022 -6.92934284 -1.83350011 -0.289698665 -9.60930368 -1.5209962 0.289709983 -2.06319604 1.3688987 -0.289700262 -1.29006556 3.9538779 0.28970529 -4.3865234 2.06377117 -0.289697572 -3.61339267 4.64875011 0.289708011 -3.15191607 1.96023599 -1.47518056 -2.37878699 4.5452167 -0.895774797 -3.29780722 1.4724343 0.895781772 -2.52467842 4.05741511 1.47518741 -7.04177018 -0.599667302 -1.47518086 -9.72173099 -0.287163085 -0.895772514 -6.53604359 -0.658637611 0.895782253 -9.21600438 -0.346133388 1.47519049 -6.10919334 1.25850053 -1.47518174 -7.96129276 3.22053852 -0.895777162 -5.75969332 0.888254897 0.8957803 -7.61179381 2.85029243 1.47518468 -4.20038277 2.08249755 -1.47518195 -4.35799387 4.77601417 -0.895777326 -4.17063858 1.57421798 0.895780628 -4.32824988 4.26773413 1.47518512 -2.2084975 1.48675175 -1.47518242 -0.597874596 3.65141754 -0.895778416 -2.51242635 1.07826714 0.895780608 -0.901803404 3.24293265 1.47518468 -6.73930505 0.411638511 -1.47518235 -9.15076495 1.62189878 -0.895778444 -6.28425074 0.183258588 0.89578009 -8.69571116 1.39351877 1.47518374 -5.22743588 1.8387883 -1.47518301 -6.29678013 4.31595728 -0.895779265 -5.02564375 1.37133544 0.895779695 -6.09498834 3.84850465 1.4751835 -6.98018979 -1.6532794 -1.47517234 -9.6052423 -2.2769553 -0.895766135 -6.48489882 -1.53490108 0.895770566 -9.10995134 -2.15857698 1.47517679 -6.56175373 -2.62256256 -1.47517971 -8.81559585 -4.10581814 -0.895770715 -6.13643937 -2.34266061 0.895782647 -8.39028155 -3.82591606 1.47519181 -1.3063696 -2.3150318 -1.47518321 1.10509 -3.52528891 -0.895778022 -1.76142336 -2.08664824 0.895779006 0.650035956 -3.29690511 1.47518429 -2.81823506 -3.74219185 -1.47518339 -1.74889026 -6.21935769 -0.895778094 -3.0200241 -3.27473611 0.895778986 -1.95067896 -5.75190218 1.4751843 -4.89375258 -3.86364099 -1.47518169 -5.66688229 -6.44862225 -0.89577646 -4.7478581 -3.37584142 0.895779456 -5.52098726 -5.96082289 1.47518505 -1.00390396 -1.30372855 -1.4751825 1.67606023 -1.61623158 -0.895776645 -1.50962703 -1.24475683 0.895779964 1.17033721 -1.55725984 1.4751859 -1.9364813 -3.16190213 -1.47518133 -0.084383182 -5.12394162 -0.895775841 -2.28598038 -2.79165392 0.895779583 -0.433882119 -4.75369368 1.47518494 -3.84528377 -3.98590071 -1.47518317 -3.68767157 -6.67941325 -0.895777837 -3.87502505 -3.47762046 0.895778991 -3.71741287 -6.171133 1.47518445 -5.83717157 -3.39015895 -1.47518184 -7.44779132 -5.55482045 -0.895777092 -5.53323808 -2.98167615 0.895780567 -7.14385781 -5.14633764 1.4751852 -1.48391642 0.71915995 -1.47517942 0.769925335 2.20241455 -0.895770425 -1.90923064 0.439257821 0.895782061 0.344610988 1.9225124 1.47519096</float_array>
        <technique_common><accessor source="#vfx_kurp_0229-mesh-positions-array" count="144" stride="3"><param name="X" type="float"/><param name="Y" type="float"/><param name="Z" type="float"/></accessor></technique_common>
      </source>
      <source id="vfx_kurp_0229-mesh-normals">
        <float_array id="vfx_kurp_0229-mesh-normals-array" count="432">0.230594452 -0.973049908 -0.000276037428 0.230594452 -0.973049908 -0.000276037428 0.230594452 -0.973049908 -0.000276037424 0.230594452 -0.973049908 -0.000276037428 -0.175386052 -0.115422548 0.977710268 -0.17538605 -0.115422548 0.977710268 -0.17538605 -0.115422548 0.977710268 -0.175386049 -0.11542254 0.977710269 0.12533266 0.168445658 0.977710481 0.12533266 0.168445658 0.977710481 0.12533266 0.168445658 0.977710481 0.125332633 0.168445655 0.977710485 -0.0122643108 0.209599286 0.977710451 -0.0122643062 0.209599258 0.977710457 -0.0122643062 0.209599258 0.977710457 -0.0122643108 0.209599286 0.977710451 -0.144122579 0.152678921 0.977710504 -0.144122596 0.152678933 0.977710499 -0.144122587 0.15267892 0.977710503 -0.144122616 0.152678916 0.977710499 -0.208544279 0.0243181745 0.977710545 -0.208544278 0.0243181822 0.977710545 -0.208544278 0.0243181821 0.977710545 -0.208544275 0.0243181826 0.977710546 0.0601624375 0.201153257 0.977710514 0.0601623966 0.201153324 0.977710502 0.0601623992 0.20115331 0.977710505 0.0601623583 0.201153378 0.977710494 -0.0832116186 0.192764028 0.977710517 -0.0832115749 0.192764034 0.97771052 -0.0832115749 0.192764034 0.97771052 -0.0832115562 0.192764007 0.977710527 -0.187650234 0.0941784439 0.977710494 -0.187650216 0.0941784466 0.977710497 -0.187650219 0.0941784461 0.977710497 -0.187650197 0.0941784493 0.977710501 -0.204236668 -0.0486777109 0.977710521 -0.204236668 -0.0486777109 0.977710521 -0.204236668 -0.0486777109 0.977710521 -0.204236668 -0.0486777109 0.977710521 0.175386336 0.115422514 0.977710221 0.175386336 0.115422514 0.977710221 0.175386361 0.115422525 0.977710215 0.175386336 0.115422514 0.977710221 0.204206371 0.0488068167 0.977710414 0.204206412 0.0488068739 0.977710402 0.204206414 0.0488068666 0.977710402 0.204206432 0.0488069182 0.977710396 0.0832127137 -0.192762734 0.977710679 0.0832127158 -0.192762749 0.977710676 0.0832127158 -0.192762749 0.977710676 0.0832126855 -0.19276274 0.977710681 0.187650129 -0.0941767866 0.977710674 0.187650102 -0.0941767848 0.977710679 0.187650103 -0.0941767921 0.977710678 0.187650102 -0.0941767848 0.977710679 -0.125330588 -0.168445909 0.977710703 -0.125330584 -0.168445908 0.977710704 -0.12533059 -0.168445894 0.977710706 -0.125330588 -0.168445909 0.977710703 0.012265514 -0.209598427 0.97771062 0.0122654951 -0.209598401 0.977710626 0.0122654807 -0.209598404 0.977710625 0.0122654928 -0.209598387 0.977710629 0.144122881 -0.152677947 0.977710611 0.144122986 -0.152677949 0.977710596 0.144122984 -0.152677935 0.977710598 0.144123041 -0.152677937 0.977710589 0.208545766 -0.0243175763 0.977710243 0.208545769 -0.024317591 0.977710242 0.208545769 -0.024317591 0.977710242 0.208545743 -0.0243176031 0.977710247 -0.0601609756 -0.201153844 0.977710483 -0.0601609658 -0.201153857 0.977710481 -0.0601609633 -0.201153871 0.977710478 -0.0601609536 -0.201153884 0.977710476 0.958067294 -0.286543295 -1.14290746e-06 0.9580673 -0.286543275 -1.08414357e-06 0.958067308 -0.286543249 -1.08365536e-06 0.958067306 -0.286543255 -1.02537968e-06 0.115822877 0.993269883 -5.35827575e-07 0.115822907 0.99326988 -5.36872947e-07 0.115822877 0.993269883 -5.35827575e-07 0.115822907 0.99326988 -5.36872947e-07 0.727186396 0.686440052 -6.92558388e-08 0.727186285 0.68644017 1.97028422e-07 0.727186321 0.686440132 1.66914126e-07 0.727186199 0.686440261 4.46653002e-07 0.998292371 0.0584152628 -8.86842091e-07 0.998292368 0.058415305 -8.27834074e-07 0.998292369 0.0584152976 -8.27956131e-07 0.998292367 0.0584153311 -7.7128293e-07 0.802285136 -0.596941003 -1.51748544e-06 0.802285092 -0.596941062 -1.58921574e-06 0.80228514 -0.596940997 -1.5611922e-06 0.802285095 -0.596941058 -1.61835358e-06 0.448556217 0.89375462 -7.41823597e-07 0.448556164 0.893754646 -6.81457188e-07 0.44855621 0.893754623 -6.98116836e-07 0.448556124 0.893754666 -6.22205016e-07 0.918108467 0.396329209 -7.57367135e-07 0.918108449 0.396329251 -6.98359105e-07 0.918108456 0.396329237 -7.27741062e-07 0.918108443 0.396329266 -6.54408229e-07 -0.231209388 0.972903974 -0.000276191748 -0.231209388 0.972903974 -0.000276191748 -0.231209388 0.972903974 -0.00027619172 -0.231209388 0.972903974 -0.000276191748 -0.549736836 0.835337902 -7.4271348e-07 -0.549736873 0.835337878 -7.86351362e-07 -0.549736831 0.835337905 -7.71851326e-07 -0.549736825 0.83533791 -8.08273633e-07 -0.448555649 -0.893754905 8.48268403e-07 -0.448555651 -0.893754904 8.62837323e-07 -0.448555608 -0.893754925 8.75315523e-07 -0.448555613 -0.893754923 9.04453365e-07 -0.91810835 -0.396329482 9.52512378e-07 -0.918108345 -0.396329493 1.01054394e-06 -0.918108345 -0.396329493 1.01054394e-06 -0.91810834 -0.396329505 1.05400657e-06 -0.958067153 0.286543766 3.17223379e-07 -0.958067174 0.286543698 4.76505064e-07 -0.958067173 0.286543701 4.47367222e-07 -0.958067185 0.28654366 5.92568207e-07 -0.115822482 -0.993269929 3.18410612e-07 -0.115822483 -0.993269929 3.25695073e-07 -0.115822482 -0.993269929 3.18410612e-07 -0.115822483 -0.993269929 3.25695073e-07 -0.727187025 -0.686439386 7.35526846e-07 -0.727187024 -0.686439387 7.20957926e-07 -0.727187024 -0.686439387 7.20957926e-07 -0.727187023 -0.686439389 7.06389006e-07 -0.998292358 -0.0584154853 3.77327556e-07 -0.998292358 -0.0584154853 3.77327556e-07 -0.998292358 -0.0584154853 3.77327556e-07 -0.998292358 -0.0584154853 3.77327556e-07 -0.802284873 0.596941356 3.83901026e-07 -0.802284898 0.596941322 3.82924586e-07 -0.802284873 0.596941356 3.83901026e-07 -0.802284873 0.596941356 3.83901026e-07 0.549736692 -0.835337997 -8.64926424e-07 0.549736691 -0.835337998 -8.57641963e-07 0.549736691 -0.835337998 -8.57641963e-07 0.549736711 -0.835337985 -8.36833946e-07</float_array>
        <technique_common><accessor source="#vfx_kurp_0229-mesh-normals-array" count="144" stride="3"><param name="X" type="float"/><param name="Y" type="float"/><param name="Z" type="float"/></accessor></technique_common>
      </source>
      <source id="vfx_kurp_0229-mesh-uv0">
        <float_array id="vfx_kurp_0229-mesh-uv0-array" count="288">1 1 1 0 0 1 0 0 1 1 1 0 0 1 0 0 1 1 1 0 0 1 0 0 1 1 1 0 0 1 0 0 1 1 1 0 0 1 0 0 1 1 1 0 0 1 0 0 1 1 1 0 0 1 0 0 1 1 1 0 0 1 0 0 1 1 1 0 0 1 0 0 1 1 1 0 0 1 0 0 1 1 1 0 0 1 0 0 1 1 1 0 0 1 0 0 1 1 1 0 0 1 0 0 1 1 1 0 0 1 0 0 1 1 1 0 0 1 0 0 1 1 1 0 0 1 0 0 1 1 1 0 0 1 0 0 1 1 1 0 0 1 0 0 1 1 1 0 0 1 0 0 1 1 1 0 0 1 0 0 1 1 1 0 0 1 0 0 1 1 1 0 0 1 0 0 1 1 1 0 0 1 0 0 1 1 1 0 0 1 0 0 1 1 1 0 0 1 0 0 1 1 1 0 0 1 0 0 1 1 1 0 0 1 0 0 1 1 1 0 0 1 0 0 1 1 1 0 0 1 0 0 1 1 1 0 0 1 0 0 1 1 1 0 0 1 0 0 1 1 1 0 0 1 0 0 1 1 1 0 0 1 0 0 1 1 1 0 0 1 0 0 1 1 1 0 0 1 0 0 1 1 1 0 0 1 0 0</float_array>
        <technique_common><accessor source="#vfx_kurp_0229-mesh-uv0-array" count="144" stride="2"><param name="S" type="float"/><param name="T" type="float"/></accessor></technique_common>
      </source>
      <vertices id="vfx_kurp_0229-mesh-vertices"><input semantic="POSITION" source="#vfx_kurp_0229-mesh-positions"/></vertices>
      <triangles material="PreviewMaterial" count="72">
        <input semantic="VERTEX" source="#vfx_kurp_0229-mesh-vertices" offset="0"/>
        <input semantic="NORMAL" source="#vfx_kurp_0229-mesh-normals" offset="1"/>
        <input semantic="TEXCOORD" source="#vfx_kurp_0229-mesh-uv0" offset="2" set="0"/>
        <p>0 0 0 1 1 1 2 2 2 3 3 3 2 2 2 1 1 1 4 4 4 5 5 5 6 6 6 7 7 7 6 6 6 5 5 5 8 8 8 9 9 9 10 10 10 11 11 11 10 10 10 9 9 9 12 12 12 13 13 13 14 14 14 15 15 15 14 14 14 13 13 13 16 16 16 17 17 17 18 18 18 19 19 19 18 18 18 17 17 17 20 20 20 21 21 21 22 22 22 23 23 23 22 22 22 21 21 21 24 24 24 25 25 25 26 26 26 27 27 27 26 26 26 25 25 25 28 28 28 29 29 29 30 30 30 31 31 31 30 30 30 29 29 29 32 32 32 33 33 33 34 34 34 35 35 35 34 34 34 33 33 33 36 36 36 37 37 37 38 38 38 39 39 39 38 38 38 37 37 37 40 40 40 41 41 41 42 42 42 43 43 43 42 42 42 41 41 41 44 44 44 45 45 45 46 46 46 47 47 47 46 46 46 45 45 45 48 48 48 49 49 49 50 50 50 51 51 51 50 50 50 49 49 49 52 52 52 53 53 53 54 54 54 55 55 55 54 54 54 53 53 53 56 56 56 57 57 57 58 58 58 59 59 59 58 58 58 57 57 57 60 60 60 61 61 61 62 62 62 63 63 63 62 62 62 61 61 61 64 64 64 65 65 65 66 66 66 67 67 67 66 66 66 65 65 65 68 68 68 69 69 69 70 70 70 71 71 71 70 70 70 69 69 69 72 72 72 73 73 73 74 74 74 75 75 75 74 74 74 73 73 73 76 76 76 77 77 77 78 78 78 79 79 79 78 78 78 77 77 77 80 80 80 81 81 81 82 82 82 83 83 83 82 82 82 81 81 81 84 84 84 85 85 85 86 86 86 87 87 87 86 86 86 85 85 85 88 88 88 89 89 89 90 90 90 91 91 91 90 90 90 89 89 89 92 92 92 93 93 93 94 94 94 95 95 95 94 94 94 93 93 93 96 96 96 97 97 97 98 98 98 99 99 99 98 98 98 97 97 97 100 100 100 101 101 101 102 102 102 103 103 103 102 102 102 101 101 101 104 104 104 105 105 105 106 106 106 107 107 107 106 106 106 105 105 105 108 108 108 109 109 109 110 110 110 111 111 111 110 110 110 109 109 109 112 112 112 113 113 113 114 114 114 115 115 115 114 114 114 113 113 113 116 116 116 117 117 117 118 118 118 119 119 119 118 118 118 117 117 117 120 120 120 121 121 121 122 122 122 123 123 123 122 122 122 121 121 121 124 124 124 125 125 125 126 126 126 127 127 127 126 126 126 125 125 125 128 128 128 129 129 129 130 130 130 131 131 131 130 130 130 129 129 129 132 132 132 133 133 133 134 134 134 135 135 135 134 134 134 133 133 133 136 136 136 137 137 137 138 138 138 139 139 139 138 138 138 137 137 137 140 140 140 141 141 141 142 142 142 143 143 143 142 142 142 141 141 141</p>
      </triangles>
    </mesh></geometry>
  </library_geometries>
  <library_visual_scenes>
    <visual_scene id="Scene" name="Scene">
      <node id="vfx_kurp_0229" name="vfx_kurp_0229" type="NODE">
        <instance_geometry url="#vfx_kurp_0229-mesh"><bind_material><technique_common><instance_material symbol="PreviewMaterial" target="#PreviewMaterial"><bind_vertex_input semantic="UVSET0" input_semantic="TEXCOORD" input_set="0"/></instance_material></technique_common></bind_material></instance_geometry>
      </node>
    </visual_scene>
  </library_visual_scenes>
  <scene><instance_visual_scene url="#Scene"/></scene>
</COLLADA>
