<?xml version="1.0" encoding="utf-8"?>
<COLLADA xmlns="http://www.collada.org/2005/11/COLLADASchema" version="1.4.1">
  <asset>
    <contributor><authoring_tool>Morrobroom Kurpulio VFX preview converter</authoring_tool></contributor>
    <unit name="unit" meter="1"/>
    <up_axis>Z_UP</up_axis>
  </asset>
  <library_images>
    <image id="VFXTexture" name="darkmap_newgen-1.dds">
      <init_from>../../../Textures/Kurp/darkmap_newgen-1.dds</init_from>
    </image>
  </library_images>
  <library_effects>
    <effect id="PreviewEffect">
      <profile_COMMON>
        <newparam sid="VFXTexture-surface">
          <surface type="2D"><init_from>VFXTexture</init_from></surface>
        </newparam>
        <newparam sid="VFXTexture-sampler">
          <sampler2D><source>VFXTexture-surface</source></sampler2D>
        </newparam>
        <technique sid="common"><phong>
          <emission><color>0.08 0.08 0.08 1</color></emission>
          <ambient><color>0.2 0.2 0.2 1</color></ambient>
          <diffuse><texture texture="VFXTexture-sampler" texcoord="UVSET0"/></diffuse>
          <specular><color>0.15 0.15 0.15 1</color></specular>
          <shininess><float>8</float></shininess>
          <transparent opaque="A_ONE"><texture texture="VFXTexture-sampler" texcoord="UVSET0"/></transparent>
          <transparency><float>1</float></transparency>
        </phong></technique>
      </profile_COMMON>
      <extra><technique profile="GOOGLEEARTH"><double_sided>1</double_sided></technique></extra>
    </effect>
  </library_effects>
  <library_materials><material id="PreviewMaterial" name="PreviewMaterial"><instance_effect url="#PreviewEffect"/></material></library_materials>
  <library_geometries>
    <geometry id="vfx_kurp_0541-mesh" name="vfx_kurp_0541"><mesh>
      <source id="vfx_kurp_0541-mesh-positions">
        <float_array id="vfx_kurp_0541-mesh-positions-array" count="510">1.23945291 0.513397828 5.81622624 1.34157401 -4.43949375e-08 5.81622666 1.61567822e-07 -3.76136125e-07 5.05438806e-08 1.23945302 -0.513397776 5.81622666 0.948636428 -0.948635489 5.81622666 0.513398819 -1.23945218 5.81622624 9.81943344e-07 -1.34157339 5.81622583 -0.513396941 -1.23945239 5.81622583 -0.94863455 -0.948635593 5.81622541 -1.23945124 -0.513397932 5.81622541 -1.34157266 -4.74166231e-08 5.81622499 -1.23945156 0.51339788 5.81622499 -0.948634967 0.948635593 5.81622499 -0.513397358 1.23945197 5.81622541 4.96233106e-07 1.34157349 5.81622583 0.513398401 1.23945229 5.81622583 0.948636115 0.948635593 5.81622624 5.07259858 -1.0978297 4.37289381 4.83599102 -1.54612893 4.5034709 1.61567822e-07 -3.76136125e-07 5.05438806e-08 4.48841506 -1.85878357 4.73893648 4.0827862 -1.98819491 5.04344279 3.68085778 -1.91466123 5.37063152 3.34381965 -1.64937729 5.67069095 3.12298307 -1.23273005 5.8979404 3.05196863 -0.728150375 6.01778251 3.14158705 -0.212455969 6.01197296 3.37819502 0.235843442 5.88139588 3.72577077 0.548498295 5.64593029 4.13140005 0.677909531 5.34142399 4.53332806 0.604375586 5.01423609 4.87036639 0.339091774 4.71417582 5.09120297 -0.0775554208 4.48692638 5.1622172 -0.582135111 4.36708426 3.36860701 -3.57578027 -0.333024275 3.0436947 -3.81231648 -0.668417595 1.61567822e-07 -3.76136125e-07 5.05438806e-08 2.62453124 -4.08341372 -0.825942583 2.17493024 -4.34780061 -0.78161747 1.76333892 -4.56522506 -0.542190574 1.45241913 -4.70258719 -0.144112214 1.28950517 -4.73897529 0.352013752 1.29939963 -4.66884851 0.870656714 1.48059547 -4.50288385 1.33285782 1.80550778 -4.26634765 1.66825132 2.22467145 -3.99524999 1.82577652 2.67427266 -3.73086393 1.7814514 3.08586356 -3.51343948 1.5420243 3.39678335 -3.37607673 1.14394599 3.55969721 -3.33968905 0.647819921 3.54980296 -3.40981561 0.129177051 1.59738083 1.9426302 -5.41321135 1.25846672 1.59677605 -5.61202806 1.61567822e-07 -3.76136125e-07 5.05438806e-08 1.0761261 1.12941973 -5.7614795 1.0781188 0.611711942 -5.83881396 1.26414108 0.122468721 -5.83225673 1.60587308 -0.263826784 -5.74280667 2.05128923 -0.488364764 -5.58408183 2.53257883 -0.516960889 -5.38024664 2.97646999 -0.345262382 -5.16233277 3.31538442 0.00059162236 -4.96351606 3.49772504 0.467948012 -4.8140642 3.49573234 0.985656008 -4.73673016 3.30971006 1.47489889 -4.7432878 2.96797806 1.86119455 -4.83273745 2.5225617 2.0857324 -4.99146229 2.0412721 2.11432868 -5.19529748 5.12721014 4.27119297 -0.653532825 4.98342139 4.48166633 -0.196333179 1.61567822e-07 -3.76136125e-07 5.05438806e-08 4.70382595 4.77644277 0.133726358 4.3309899 5.11064476 0.286397185 3.92167395 5.43339372 0.238436803 3.53819305 5.695553 -0.00285351143 3.23892802 5.85721225 -0.400739443 3.06944025 5.89375973 -0.894646645 3.0555318 5.79963207 -1.40938202 3.19932055 5.58915871 -1.86658165 3.47891599 5.29438227 -2.19664156 3.85175204 4.96017987 -2.34931237 4.2610684 4.63743174 -2.3013519 4.64454931 4.37527162 -2.06006154 4.94381392 4.21361196 -1.66217548 5.11330169 4.1770649 -1.16826835 -0.0633695219 5.75972754 -1.01685916 -0.667559296 5.76811516 -0.703968257 1.61567822e-07 -3.76136125e-07 5.05438806e-08 -1.33444466 5.66083091 -0.621684007 -1.96249861 5.45420903 -0.782533765 -2.45610574 5.1797055 -1.16202927 -2.74011821 4.87911075 -1.70239596 -2.77129862 4.59818769 -2.3213678 -2.54489866 4.3797043 -2.9247123 -2.09538716 4.2569232 -3.42057541 -1.49119735 4.24853557 -3.73346704 -0.82431183 4.35581982 -3.81575114 -0.196257791 4.56244171 -3.65490133 0.297348782 4.83694524 -3.27540582 0.581361771 5.13753998 -2.73503923 0.612541869 5.41846305 -2.11606708 0.386142198 5.63694644 -1.51272258 -2.33351865 5.4413662 0.0877183964 -1.67869893 5.67226684 0.262118764 1.61567822e-07 -3.76136125e-07 5.05438806e-08 -1.10269015 5.77852511 0.673752278 -0.693184257 5.74396491 1.25995217 -0.512524508 5.57384795 1.93147424 -0.588214971 5.29407185 2.58608535 -0.908732519 4.94723147 3.12412754 -1.4252816 4.58612925 3.46368784 -2.05922166 4.2657389 3.55307198 -2.71404138 4.03483909 3.37867212 -3.29005027 3.9285804 2.96703824 -3.69955647 3.96314019 2.38083845 -3.88021606 4.13325799 1.7093167 -3.80452549 4.41303366 1.05470507 -3.48400769 4.75987405 0.516663089 -2.96745861 5.12097669 0.177102711 -1.76324567 1.14353596 5.606942 -1.52834669 0.697321273 5.74737453 1.61567822e-07 -3.76136125e-07 5.05438806e-08 -1.46535762 0.180651208 5.80296618 -1.58386803 -0.3278163 5.7652542 -1.86583564 -0.750671647 5.6399793 -2.26833317 -1.02353874 5.44621319 -2.73008481 -1.10487613 5.21345586 -3.18079251 -0.982300729 4.97714245 -3.55184031 -0.674473882 4.77324843 -3.78673929 -0.228259277 4.6328159 -3.84972888 0.28841101 4.57722425 -3.73121816 0.796878584 4.61493665 -3.44925055 1.21973367 4.74021196 -3.04675281 1.49260081 4.93397725 -2.58500138 1.57393831 5.16673458 -2.13429368 1.4513628 5.4030484 -2.97085384 3.89405483 1.687417 -2.44055694 4.03334248 2.1477465 1.61567822e-07 -3.76136125e-07 5.05438806e-08 -2.00879535 3.93182105 2.70970258 -1.74130049 3.60494524 3.28773254 -1.67879614 3.10247985 3.79383683 -1.83079812 2.50092006 4.15096533 -2.17416567 1.89184842 4.30474806 -2.65662435 1.36799036 4.23177409 -3.20472372 1.00909822 3.94315225 -3.73502082 0.869810201 3.48282254 -4.16678262 0.971331894 2.92086646 -4.43427747 1.29820749 2.34283629 -4.49678183 1.8006731 1.83673263 -4.34477985 2.40223268 1.47960402 -4.00141209 3.01130453 1.32582077 -3.51895362 3.53516227 1.39879516 6.33258027 -1.72882941 -1.36677381 6.40188718 -1.80179879 -0.853083089 1.61567822e-07 -3.76136125e-07 5.05438806e-08 6.48385501 -1.67136106 -0.35280991 6.56600434 -1.35737336 0.0578838727 6.63582861 -0.907638118 0.316473939 6.68269718 -0.39062304 0.383592021 6.69947618 0.114960896 0.249020167 6.68361008 0.532142937 -0.0667546857 6.63751465 0.797411337 -0.515658133 6.56820774 0.870381027 -1.02934901 6.48623991 0.739943139 -1.52962227 6.40409058 0.425955463 -1.94031623 6.33426714 -0.0237798542 -2.19890589 6.28739774 -0.540794931 -2.2660242 6.27061832 -1.04637878 -2.13145232 6.28648484 -1.46356101 -1.81567761</float_array>
        <technique_common><accessor source="#vfx_kurp_0541-mesh-positions-array" count="170" stride="3"><param name="X" type="float"/><param name="Y" type="float"/><param name="Z" type="float"/></accessor></technique_common>
      </source>
      <source id="vfx_kurp_0541-mesh-normals">
        <float_array id="vfx_kurp_0541-mesh-normals-array" count="510">0.900241535 0.372892193 -0.224758963 0.974414402 -6.25560542e-08 -0.224758922 -5.12852421e-06 -5.85422504e-06 -1 0.900241574 -0.37289212 -0.224758928 0.689015217 -0.689014859 -0.224758881 0.372892717 -0.900241338 -0.224758884 3.48283726e-07 -0.974414425 -0.224758823 -0.372892135 -0.900241599 -0.2247588 -0.689015057 -0.689015057 -0.224758768 -0.900241363 -0.372892732 -0.224758756 -0.974414425 -4.16972149e-07 -0.224758823 -0.90024154 0.372892225 -0.22475889 -0.689014857 0.689015215 -0.224758895 -0.372892199 0.90024155 -0.224758892 -1.43749358e-07 0.974414389 -0.224758978 0.372892533 0.900241385 -0.224759 0.689015089 0.689014969 -0.224758937 0.583441688 -0.303992755 -0.753116327 0.410560935 -0.631559847 -0.657701968 -0.617350517 0.0984775124 -0.780500172 0.156596374 -0.86001436 -0.485646863 -0.139787971 -0.954575291 -0.263145087 -0.433470345 -0.900846315 -0.0240702595 -0.67973984 -0.70700664 0.195180329 -0.841103605 -0.40256625 0.36122727 -0.892994595 -0.0338751902 0.448790735 -0.827513685 0.342935826 0.444540347 -0.654630373 0.670501004 0.349123871 -0.400665053 0.898951906 0.177067745 -0.104281585 0.993509499 -0.0454337684 0.189397429 0.939779185 -0.284506059 0.435663947 0.745941474 -0.503754149 0.59702702 0.441504491 -0.66980036 0.648919644 0.0728168192 -0.757364514 0.537594193 0.564760619 -0.626129322 0.3045697 0.395118188 -0.866671169 -0.511776387 0.852613746 -0.105521224 0.00394849848 0.200688778 -0.979647092 -0.31850204 0.0110727996 -0.947857502 -0.613692225 -0.144862578 -0.776142182 -0.836681976 -0.243377779 -0.490642973 -0.953522876 -0.269474421 -0.134824561 -0.946426833 -0.21917977 0.237142316 -0.816474709 -0.100150731 0.568628948 -0.583450374 0.069491617 0.809170301 -0.282829399 0.263920958 0.922146007 0.0396214759 0.453537105 0.890356239 0.334811109 0.609472193 0.718641195 0.557800601 0.707987321 0.433142521 0.674641718 0.734084118 0.0773243744 0.667546154 0.683789553 -0.294642121 -0.589205855 0.80000966 0.113229877 -0.835366889 0.548808028 -0.0311754582 -0.393204836 -0.137320548 0.909138616 -0.967804974 0.209356578 -0.139725999 -0.966357701 -0.166666059 -0.195895939 -0.831245599 -0.522013961 -0.191133931 -0.583038087 -0.802588934 -0.126164942 -0.2595224 -0.965675801 -0.0108798134 0.0900487846 -0.986445926 0.137170154 0.412456447 -0.861737477 0.295445766 0.658617547 -0.610535672 0.439851248 0.791055604 -0.271083767 0.548401881 0.789608036 0.104939524 0.604571621 0.654495714 0.460287063 0.599809287 0.406288394 0.740861432 0.534840238 0.0827728304 0.903948088 0.419555137 -0.266797937 0.924718164 0.271505392 0.631885818 -0.711488476 0.307415779 0.526878663 -0.557771513 0.641318808 -0.622775853 -0.766485453 0.157004103 0.322688082 -0.342485914 0.882369424 0.0504004495 -0.0984073627 0.993869099 -0.248531031 0.13730538 0.958842823 -0.528596092 0.328766697 0.782622917 -0.747157341 0.446828131 0.492037122 -0.87094002 0.473515714 0.131325363 -0.881099621 0.404766699 -0.244596356 -0.776089805 0.251047945 -0.578497661 -0.571898051 0.0357622136 -0.819544803 -0.29961083 -0.208315123 -0.931041439 -0.000682184245 -0.444025192 -0.896014042 0.279379839 -0.635484504 -0.719796048 0.497940089 -0.753546052 -0.429213252 0.621723717 -0.780235059 -0.0685045353 0.613741822 0.143805401 0.776299545 0.283048606 0.148402098 0.947554908 0.19333088 -0.897048993 0.397399388 -0.0819613197 0.089687475 0.992591809 -0.425718217 -0.0233999099 0.904553173 -0.695887618 -0.173643707 0.69684165 -0.851337808 -0.338170207 0.401079603 -0.868402363 -0.491931648 0.062294379 -0.744483306 -0.611518514 -0.267936026 -0.498447931 -0.678724595 -0.539335317 -0.167752891 -0.683319207 -0.710586961 0.197255776 -0.624602798 -0.755619947 0.541008254 -0.511515398 -0.667579259 0.81117321 -0.361273323 -0.459869122 0.9666217 -0.196749002 -0.164110691 0.983688003 -0.0429891313 0.174670682 0.859773365 0.0765976483 0.504898564 0.0498161981 0.0374528799 -0.998055924 0.389136548 0.157108975 -0.9076836 0.39013221 -0.862115601 -0.323347412 0.687619133 0.212176899 -0.694378061 0.899822038 0.194272783 -0.390612833 0.993438731 0.106121929 -0.0426335935 0.954216301 -0.0388556272 0.296583026 0.788125445 -0.218588245 0.575393311 0.520452974 -0.405712156 0.751349684 0.191950469 -0.571739492 0.797664698 -0.147370289 -0.691393949 0.707288064 -0.445849749 -0.746459429 0.493980083 -0.658048687 -0.728553471 0.19021505 -0.751662301 -0.640402365 -0.157761199 -0.712439594 -0.495426623 -0.496973125 -0.546351552 -0.315696567 -0.775780677 -0.278683244 -0.128574267 -0.95173752 0.751687061 0.651340733 0.103546181 0.922326985 0.327192069 0.205568195 0.455398863 -0.0401831758 -0.889380227 0.968084279 -0.0481400156 0.245958061 0.881992194 -0.417514609 0.218566515 0.677157204 -0.724696974 0.127563384 0.384763368 -0.922920902 -0.0131969548 0.0493254408 -0.982007757 -0.18228485 -0.278087319 -0.892962339 -0.353957207 -0.547629602 -0.66934205 -0.502078719 -0.718266502 -0.345191456 -0.604099405 -0.764020427 0.0301402708 -0.644487666 -0.677926177 0.399512228 -0.617094869 -0.473091982 0.706690359 -0.526091924 -0.180701359 0.90491181 -0.385333148 0.154733119 0.963999437 -0.21624696 0.48214404 0.874957226 -0.0445755136 0.285340376 0.555985227 -0.780680022 0.55562609 0.626979823 -0.546054896 0.637361889 -0.506039862 -0.581113999 0.775689561 0.575236453 -0.259631908 0.912028243 0.408632631 0.0349836681 0.943885838 0.152532156 0.292939357 0.86641198 -0.154076516 0.474963901 0.691401053 -0.464514456 0.553345194 0.445497404 -0.731519598 0.516150308 0.166137796 -0.914443116 0.369042031 -0.104147768 -0.985436668 0.134416579 -0.324210732 -0.933692392 -0.152006313 -0.460548708 -0.767088071 -0.446621516 -0.492405679 -0.510988053 -0.704576367 -0.414931888 -0.204380853 -0.886600245 -0.239921551 0.106056256 -0.96498172 0.00598115724 0.373061221 -0.92778745 -0.308863397 -0.908297825 -0.282131996 -0.258241746 -0.961591075 0.0930258269 -0.987141474 0.0708934281 0.143268389 -0.19837406 -0.866331209 0.458386266 -0.13837466 -0.637020067 0.758325714 -0.0873780995 -0.308568269 0.94718039 -0.0531481219 0.0690204816 0.996198499 -0.0408961 0.438260863 0.897916992 -0.0524872243 0.742938042 0.667299151 -0.0861568289 0.936668084 0.339455301 -0.136778877 0.989957991 -0.0357031451 -0.196646541 0.894695398 -0.401061444 -0.256645591 0.665383221 -0.70099801 -0.307641565 0.336933284 -0.889849779 -0.341871109 -0.0406512055 -0.938867203 -0.354123263 -0.409888862 -0.840587792 -0.342532455 -0.714565811 -0.60997313</float_array>
        <technique_common><accessor source="#vfx_kurp_0541-mesh-normals-array" count="170" stride="3"><param name="X" type="float"/><param name="Y" type="float"/><param name="Z" type="float"/></accessor></technique_common>
      </source>
      <source id="vfx_kurp_0541-mesh-uv0">
        <float_array id="vfx_kurp_0541-mesh-uv0-array" count="340">0.961939812 0.308658361 1 0.5 0.5 0.500000179 0.961939812 0.691341639 0.853553414 0.853553295 0.691341758 0.961939692 0.50000006 1 0.308658361 0.961939812 0.146446705 0.853553414 0.0380603075 0.691341758 0 0.5 0.0380602181 0.308658361 0.146446615 0.146446705 0.308658242 0.0380603671 0.49999997 0 0.691341698 0.0380602479 0.853553295 0.146446645 0.961939812 0.308658361 1 0.5 0.5 0.500000179 0.961939812 0.691341639 0.853553414 0.853553295 0.691341758 0.961939692 0.50000006 1 0.308658361 0.961939812 0.146446705 0.853553414 0.0380603075 0.691341758 0 0.5 0.0380602181 0.308658361 0.146446615 0.146446705 0.308658242 0.0380603671 0.49999997 0 0.691341698 0.0380602479 0.853553295 0.146446645 0.961939812 0.308658361 1 0.5 0.5 0.500000179 0.961939812 0.691341639 0.853553414 0.853553295 0.691341758 0.961939692 0.50000006 1 0.308658361 0.961939812 0.146446705 0.853553414 0.0380603075 0.691341758 0 0.5 0.0380602181 0.308658361 0.146446615 0.146446705 0.308658242 0.0380603671 0.49999997 0 0.691341698 0.0380602479 0.853553295 0.146446645 0.961939812 0.308658361 1 0.5 0.5 0.500000179 0.961939812 0.691341639 0.853553414 0.853553295 0.691341758 0.961939692 0.50000006 1 0.308658361 0.961939812 0.146446705 0.853553414 0.0380603075 0.691341758 0 0.5 0.0380602181 0.308658361 0.146446615 0.146446705 0.308658242 0.0380603671 0.49999997 0 0.691341698 0.0380602479 0.853553295 0.146446645 0.961939812 0.308658361 1 0.5 0.5 0.500000179 0.961939812 0.691341639 0.853553414 0.853553295 0.691341758 0.961939692 0.50000006 1 0.308658361 0.961939812 0.146446705 0.853553414 0.0380603075 0.691341758 0 0.5 0.0380602181 0.308658361 0.146446615 0.146446705 0.308658242 0.0380603671 0.49999997 0 0.691341698 0.0380602479 0.853553295 0.146446645 0.961939812 0.308658361 1 0.5 0.5 0.500000179 0.961939812 0.691341639 0.853553414 0.853553295 0.691341758 0.961939692 0.50000006 1 0.308658361 0.961939812 0.146446705 0.853553414 0.0380603075 0.691341758 0 0.5 0.0380602181 0.308658361 0.146446615 0.146446705 0.308658242 0.0380603671 0.49999997 0 0.691341698 0.0380602479 0.853553295 0.146446645 0.961939812 0.308658361 1 0.5 0.5 0.500000179 0.961939812 0.691341639 0.853553414 0.853553295 0.691341758 0.961939692 0.50000006 1 0.308658361 0.961939812 0.146446705 0.853553414 0.0380603075 0.691341758 0 0.5 0.0380602181 0.308658361 0.146446615 0.146446705 0.308658242 0.0380603671 0.49999997 0 0.691341698 0.0380602479 0.853553295 0.146446645 0.961939812 0.308658361 1 0.5 0.5 0.500000179 0.961939812 0.691341639 0.853553414 0.853553295 0.691341758 0.961939692 0.50000006 1 0.308658361 0.961939812 0.146446705 0.853553414 0.0380603075 0.691341758 0 0.5 0.0380602181 0.308658361 0.146446615 0.146446705 0.308658242 0.0380603671 0.49999997 0 0.691341698 0.0380602479 0.853553295 0.146446645 0.961939812 0.308658361 1 0.5 0.5 0.500000179 0.961939812 0.691341639 0.853553414 0.853553295 0.691341758 0.961939692 0.50000006 1 0.308658361 0.961939812 0.146446705 0.853553414 0.0380603075 0.691341758 0 0.5 0.0380602181 0.308658361 0.146446615 0.146446705 0.308658242 0.0380603671 0.49999997 0 0.691341698 0.0380602479 0.853553295 0.146446645 0.961939812 0.308658361 1 0.5 0.5 0.500000179 0.961939812 0.691341639 0.853553414 0.853553295 0.691341758 0.961939692 0.50000006 1 0.308658361 0.961939812 0.146446705 0.853553414 0.0380603075 0.691341758 0 0.5 0.0380602181 0.308658361 0.146446615 0.146446705 0.308658242 0.0380603671 0.49999997 0 0.691341698 0.0380602479 0.853553295 0.146446645</float_array>
        <technique_common><accessor source="#vfx_kurp_0541-mesh-uv0-array" count="170" stride="2"><param name="S" type="float"/><param name="T" type="float"/></accessor></technique_common>
      </source>
      <vertices id="vfx_kurp_0541-mesh-vertices"><input semantic="POSITION" source="#vfx_kurp_0541-mesh-positions"/></vertices>
      <triangles material="PreviewMaterial" count="160">
        <input semantic="VERTEX" source="#vfx_kurp_0541-mesh-vertices" offset="0"/>
        <input semantic="NORMAL" source="#vfx_kurp_0541-mesh-normals" offset="1"/>
        <input semantic="TEXCOORD" source="#vfx_kurp_0541-mesh-uv0" offset="2" set="0"/>
        <p>0 0 0 1 1 1 2 2 2 3 3 3 2 2 2 1 1 1 4 4 4 2 2 2 3 3 3 5 5 5 2 2 2 4 4 4 6 6 6 2 2 2 5 5 5 7 7 7 2 2 2 6 6 6 8 8 8 2 2 2 7 7 7 9 9 9 2 2 2 8 8 8 10 10 10 2 2 2 9 9 9 11 11 11 2 2 2 10 10 10 12 12 12 2 2 2 11 11 11 13 13 13 2 2 2 12 12 12 14 14 14 2 2 2 13 13 13 15 15 15 2 2 2 14 14 14 16 16 16 2 2 2 15 15 15 2 2 2 16 16 16 0 0 0 17 17 17 18 18 18 19 19 19 20 20 20 19 19 19 18 18 18 21 21 21 19 19 19 20 20 20 22 22 22 19 19 19 21 21 21 23 23 23 19 19 19 22 22 22 24 24 24 19 19 19 23 23 23 25 25 25 19 19 19 24 24 24 26 26 26 19 19 19 25 25 25 27 27 27 19 19 19 26 26 26 28 28 28 19 19 19 27 27 27 29 29 29 19 19 19 28 28 28 30 30 30 19 19 19 29 29 29 31 31 31 19 19 19 30 30 30 32 32 32 19 19 19 31 31 31 33 33 33 19 19 19 32 32 32 19 19 19 33 33 33 17 17 17 34 34 34 35 35 35 36 36 36 37 37 37 36 36 36 35 35 35 38 38 38 36 36 36 37 37 37 39 39 39 36 36 36 38 38 38 40 40 40 36 36 36 39 39 39 41 41 41 36 36 36 40 40 40 42 42 42 36 36 36 41 41 41 43 43 43 36 36 36 42 42 42 44 44 44 36 36 36 43 43 43 45 45 45 36 36 36 44 44 44 46 46 46 36 36 36 45 45 45 47 47 47 36 36 36 46 46 46 48 48 48 36 36 36 47 47 47 49 49 49 36 36 36 48 48 48 50 50 50 36 36 36 49 49 49 36 36 36 50 50 50 34 34 34 51 51 51 52 52 52 53 53 53 54 54 54 53 53 53 52 52 52 55 55 55 53 53 53 54 54 54 56 56 56 53 53 53 55 55 55 57 57 57 53 53 53 56 56 56 58 58 58 53 53 53 57 57 57 59 59 59 53 53 53 58 58 58 60 60 60 53 53 53 59 59 59 61 61 61 53 53 53 60 60 60 62 62 62 53 53 53 61 61 61 63 63 63 53 53 53 62 62 62 64 64 64 53 53 53 63 63 63 65 65 65 53 53 53 64 64 64 66 66 66 53 53 53 65 65 65 67 67 67 53 53 53 66 66 66 53 53 53 67 67 67 51 51 51 68 68 68 69 69 69 70 70 70 71 71 71 70 70 70 69 69 69 72 72 72 70 70 70 71 71 71 73 73 73 70 70 70 72 72 72 74 74 74 70 70 70 73 73 73 75 75 75 70 70 70 74 74 74 76 76 76 70 70 70 75 75 75 77 77 77 70 70 70 76 76 76 78 78 78 70 70 70 77 77 77 79 79 79 70 70 70 78 78 78 80 80 80 70 70 70 79 79 79 81 81 81 70 70 70 80 80 80 82 82 82 70 70 70 81 81 81 83 83 83 70 70 70 82 82 82 84 84 84 70 70 70 83 83 83 70 70 70 84 84 84 68 68 68 85 85 85 86 86 86 87 87 87 88 88 88 87 87 87 86 86 86 89 89 89 87 87 87 88 88 88 90 90 90 87 87 87 89 89 89 91 91 91 87 87 87 90 90 90 92 92 92 87 87 87 91 91 91 93 93 93 87 87 87 92 92 92 94 94 94 87 87 87 93 93 93 95 95 95 87 87 87 94 94 94 96 96 96 87 87 87 95 95 95 97 97 97 87 87 87 96 96 96 98 98 98 87 87 87 97 97 97 99 99 99 87 87 87 98 98 98 100 100 100 87 87 87 99 99 99 101 101 101 87 87 87 100 100 100 87 87 87 101 101 101 85 85 85 102 102 102 103 103 103 104 104 104 105 105 105 104 104 104 103 103 103 106 106 106 104 104 104 105 105 105 107 107 107 104 104 104 106 106 106 108 108 108 104 104 104 107 107 107 109 109 109 104 104 104 108 108 108 110 110 110 104 104 104 109 109 109 111 111 111 104 104 104 110 110 110 112 112 112 104 104 104 111 111 111 113 113 113 104 104 104 112 112 112 114 114 114 104 104 104 113 113 113 115 115 115 104 104 104 114 114 114 116 116 116 104 104 104 115 115 115 117 117 117 104 104 104 116 116 116 118 118 118 104 104 104 117 117 117 104 104 104 118 118 118 102 102 102 119 119 119 120 120 120 121 121 121 122 122 122 121 121 121 120 120 120 123 123 123 121 121 121 122 122 122 124 124 124 121 121 121 123 123 123 125 125 125 121 121 121 124 124 124 126 126 126 121 121 121 125 125 125 127 127 127 121 121 121 126 126 126 128 128 128 121 121 121 127 127 127 129 129 129 121 121 121 128 128 128 130 130 130 121 121 121 129 129 129 131 131 131 121 121 121 130 130 130 132 132 132 121 121 121 131 131 131 133 133 133 121 121 121 132 132 132 134 134 134 121 121 121 133 133 133 135 135 135 121 121 121 134 134 134 121 121 121 135 135 135 119 119 119 136 136 136 137 137 137 138 138 138 139 139 139 138 138 138 137 137 137 140 140 140 138 138 138 139 139 139 141 141 141 138 138 138 140 140 140 142 142 142 138 138 138 141 141 141 143 143 143 138 138 138 142 142 142 144 144 144 138 138 138 143 143 143 145 145 145 138 138 138 144 144 144 146 146 146 138 138 138 145 145 145 147 147 147 138 138 138 146 146 146 148 148 148 138 138 138 147 147 147 149 149 149 138 138 138 148 148 148 150 150 150 138 138 138 149 149 149 151 151 151 138 138 138 150 150 150 152 152 152 138 138 138 151 151 151 138 138 138 152 152 152 136 136 136 153 153 153 154 154 154 155 155 155 156 156 156 155 155 155 154 154 154 157 157 157 155 155 155 156 156 156 158 158 158 155 155 155 157 157 157 159 159 159 155 155 155 158 158 158 160 160 160 155 155 155 159 159 159 161 161 161 155 155 155 160 160 160 162 162 162 155 155 155 161 161 161 163 163 163 155 155 155 162 162 162 164 164 164 155 155 155 163 163 163 165 165 165 155 155 155 164 164 164 166 166 166 155 155 155 165 165 165 167 167 167 155 155 155 166 166 166 168 168 168 155 155 155 167 167 167 169 169 169 155 155 155 168 168 168 155 155 155 169 169 169 153 153 153</p>
      </triangles>
    </mesh></geometry>
  </library_geometries>
  <library_visual_scenes>
    <visual_scene id="Scene" name="Scene">
      <node id="vfx_kurp_0541" name="vfx_kurp_0541" type="NODE">
        <instance_geometry url="#vfx_kurp_0541-mesh"><bind_material><technique_common><instance_material symbol="PreviewMaterial" target="#PreviewMaterial"><bind_vertex_input semantic="UVSET0" input_semantic="TEXCOORD" input_set="0"/></instance_material></technique_common></bind_material></instance_geometry>
      </node>
    </visual_scene>
  </library_visual_scenes>
  <scene><instance_visual_scene url="#Scene"/></scene>
</COLLADA>
