<?xml version="1.0" encoding="utf-8"?>
<COLLADA xmlns="http://www.collada.org/2005/11/COLLADASchema" version="1.4.1">
  <asset>
    <contributor><authoring_tool>Morrobroom Kurpulio VFX preview converter</authoring_tool></contributor>
    <unit name="unit" meter="1"/>
    <up_axis>Z_UP</up_axis>
  </asset>
  <library_images>
    <image id="VFXTexture" name="darkmap_newgen-1.dds">
      <init_from>../../../Textures/Kurp/darkmap_newgen-1.dds</init_from>
    </image>
  </library_images>
  <library_effects>
    <effect id="PreviewEffect">
      <profile_COMMON>
        <newparam sid="VFXTexture-surface">
          <surface type="2D"><init_from>VFXTexture</init_from></surface>
        </newparam>
        <newparam sid="VFXTexture-sampler">
          <sampler2D><source>VFXTexture-surface</source></sampler2D>
        </newparam>
        <technique sid="common"><phong>
          <emission><color>0.08 0.08 0.08 1</color></emission>
          <ambient><color>0.2 0.2 0.2 1</color></ambient>
          <diffuse><texture texture="VFXTexture-sampler" texcoord="UVSET0"/></diffuse>
          <specular><color>0.15 0.15 0.15 1</color></specular>
          <shininess><float>8</float></shininess>
          <transparent opaque="A_ONE"><texture texture="VFXTexture-sampler" texcoord="UVSET0"/></transparent>
          <transparency><float>1</float></transparency>
        </phong></technique>
      </profile_COMMON>
      <extra><technique profile="GOOGLEEARTH"><double_sided>1</double_sided></technique></extra>
    </effect>
  </library_effects>
  <library_materials><material id="PreviewMaterial" name="PreviewMaterial"><instance_effect url="#PreviewEffect"/></material></library_materials>
  <library_geometries>
    <geometry id="vfx_kurp_0009-mesh" name="vfx_kurp_0009"><mesh>
      <source id="vfx_kurp_0009-mesh-positions">
        <float_array id="vfx_kurp_0009-mesh-positions-array" count="96">1.63293904 0.0994644128 -2.86041207e-07 1.35240743 4.70503914 1.03088844e-07 -1.63293904 -0.0994644798 2.86041292e-07 -1.91347057 4.50611007 6.75171364e-07 0.646919176 -1.0929248 1.9609113e-08 4.11711287 1.71092623 1.9609113e-08 -1.38047299 1.41628227 2.50944758e-08 2.08972049 4.2201333 2.50944545e-08 -0.00584964571 2.45304841 1.60926088e-07 -5.21537054 1.35178846 6.26421539e-07 0.808460802 -1.39905471 -1.83277692e-07 -4.40106046 -2.50031447 2.8221779e-07 1.01119342 1.62444037 -2.53807002e-07 -3.09733593 3.54414833 3.76567641e-07 -0.271908358 -1.12163374 2.76158787e-07 -4.38043749 0.798074126 9.06533387e-07 -0.14784126 -1.44898269 -3.15796477e-07 5.27360201 -0.521841511 -3.15796434e-07 -0.767527431 2.17462224 3.26972433e-07 4.65391552 3.10176337 3.26972476e-07 -0.880039394 -0.389663503 1.51640287e-08 3.09375787 -2.18601573 3.96410968e-07 0.0298088612 1.62305546 -3.75156626e-08 4.00360608 -0.173296776 3.43731315e-07 -1.40230724 1.31934831 -2.37820174e-07 -2.71364272 -2.92488581 1.50529083e-07 1.60733879 0.389461979 2.37820281e-07 0.296003379 -3.85477209 6.26169538e-07 -2.04023677 -0.239633314 1.81719727e-07 0.448734462 -4.47455513 6.11156352e-07 1.5438484 1.86682427 -1.81719621e-07 4.03281963 -2.36809766 2.4771694e-07</float_array>
        <technique_common><accessor source="#vfx_kurp_0009-mesh-positions-array" count="32" stride="3"><param name="X" type="float"/><param name="Y" type="float"/><param name="Z" type="float"/></accessor></technique_common>
      </source>
      <source id="vfx_kurp_0009-mesh-normals">
        <float_array id="vfx_kurp_0009-mesh-normals-array" count="96">1.79649518e-07 -7.35484065e-08 1 1.79649533e-07 -7.35484065e-08 1 1.79649533e-07 -7.35484065e-08 1 1.79649533e-07 -7.35484136e-08 1 1.06866349e-09 -1.32263422e-09 1 1.06866327e-09 -1.32262912e-09 1 1.06866327e-09 -1.32263078e-09 1 1.06866305e-09 -1.3226259e-09 1 1.0361358e-07 -6.74515093e-08 1 1.03613573e-07 -6.74515164e-08 1 1.03613573e-07 -6.74515093e-08 1 1.03613573e-07 -6.74515164e-08 1 1.99951529e-07 9.95630955e-08 1 1.99951515e-07 9.95630884e-08 1 1.99951529e-07 9.95630884e-08 1 1.99951515e-07 9.95630813e-08 1 2.94730977e-08 -1.72343505e-07 1 2.94730977e-08 -1.72343519e-07 1 2.94731013e-08 -1.72343519e-07 1 2.94731013e-08 -1.72343519e-07 1 -6.98373768e-08 5.7743339e-08 1 -6.98373839e-08 5.77433248e-08 1 -6.98373768e-08 5.77433283e-08 1 -6.9837391e-08 5.77433248e-08 1 -1.1845956e-07 1.28100723e-07 1 -1.1845956e-07 1.28100723e-07 1 -1.18459553e-07 1.28100723e-07 1 -1.1845956e-07 1.28100723e-07 1 3.10729078e-08 1.19665998e-07 1 3.10729256e-08 1.19666012e-07 1 3.10729256e-08 1.19666012e-07 1 3.10729362e-08 1.19666012e-07 1</float_array>
        <technique_common><accessor source="#vfx_kurp_0009-mesh-normals-array" count="32" stride="3"><param name="X" type="float"/><param name="Y" type="float"/><param name="Z" type="float"/></accessor></technique_common>
      </source>
      <source id="vfx_kurp_0009-mesh-uv0">
        <float_array id="vfx_kurp_0009-mesh-uv0-array" count="64">1 1 1 0 0 1 0 0 1 1 1 0 0 1 0 0 1 1 1 0 0 1 0 0 0 1 0 0 1 1 1 0 0 1 0 0 1 1 1 0 1 1 1 0 0 1 0 0 0 1 0 0 1 1 1 0 1 1 1 0 0 1 0 0</float_array>
        <technique_common><accessor source="#vfx_kurp_0009-mesh-uv0-array" count="32" stride="2"><param name="S" type="float"/><param name="T" type="float"/></accessor></technique_common>
      </source>
      <vertices id="vfx_kurp_0009-mesh-vertices"><input semantic="POSITION" source="#vfx_kurp_0009-mesh-positions"/></vertices>
      <triangles material="PreviewMaterial" count="16">
        <input semantic="VERTEX" source="#vfx_kurp_0009-mesh-vertices" offset="0"/>
        <input semantic="NORMAL" source="#vfx_kurp_0009-mesh-normals" offset="1"/>
        <input semantic="TEXCOORD" source="#vfx_kurp_0009-mesh-uv0" offset="2" set="0"/>
        <p>0 0 0 1 1 1 2 2 2 3 3 3 2 2 2 1 1 1 4 4 4 5 5 5 6 6 6 7 7 7 6 6 6 5 5 5 8 8 8 9 9 9 10 10 10 11 11 11 10 10 10 9 9 9 12 12 12 13 13 13 14 14 14 15 15 15 14 14 14 13 13 13 16 16 16 17 17 17 18 18 18 19 19 19 18 18 18 17 17 17 20 20 20 21 21 21 22 22 22 23 23 23 22 22 22 21 21 21 24 24 24 25 25 25 26 26 26 27 27 27 26 26 26 25 25 25 28 28 28 29 29 29 30 30 30 31 31 31 30 30 30 29 29 29</p>
      </triangles>
    </mesh></geometry>
  </library_geometries>
  <library_visual_scenes>
    <visual_scene id="Scene" name="Scene">
      <node id="vfx_kurp_0009" name="vfx_kurp_0009" type="NODE">
        <instance_geometry url="#vfx_kurp_0009-mesh"><bind_material><technique_common><instance_material symbol="PreviewMaterial" target="#PreviewMaterial"><bind_vertex_input semantic="UVSET0" input_semantic="TEXCOORD" input_set="0"/></instance_material></technique_common></bind_material></instance_geometry>
      </node>
    </visual_scene>
  </library_visual_scenes>
  <scene><instance_visual_scene url="#Scene"/></scene>
</COLLADA>
