<?xml version="1.0" encoding="utf-8"?>
<COLLADA xmlns="http://www.collada.org/2005/11/COLLADASchema" version="1.4.1">
  <asset>
    <contributor><authoring_tool>Morrobroom Kurpulio VFX preview converter</authoring_tool></contributor>
    <unit name="unit" meter="1"/>
    <up_axis>Z_UP</up_axis>
  </asset>
  <library_images>
    <image id="VFXTexture" name="darkmap_newgen-1.dds">
      <init_from>../../../Textures/Kurp/darkmap_newgen-1.dds</init_from>
    </image>
  </library_images>
  <library_effects>
    <effect id="PreviewEffect">
      <profile_COMMON>
        <newparam sid="VFXTexture-surface">
          <surface type="2D"><init_from>VFXTexture</init_from></surface>
        </newparam>
        <newparam sid="VFXTexture-sampler">
          <sampler2D><source>VFXTexture-surface</source></sampler2D>
        </newparam>
        <technique sid="common"><phong>
          <emission><color>0.08 0.08 0.08 1</color></emission>
          <ambient><color>0.2 0.2 0.2 1</color></ambient>
          <diffuse><texture texture="VFXTexture-sampler" texcoord="UVSET0"/></diffuse>
          <specular><color>0.15 0.15 0.15 1</color></specular>
          <shininess><float>8</float></shininess>
          <transparent opaque="A_ONE"><texture texture="VFXTexture-sampler" texcoord="UVSET0"/></transparent>
          <transparency><float>1</float></transparency>
        </phong></technique>
      </profile_COMMON>
      <extra><technique profile="GOOGLEEARTH"><double_sided>1</double_sided></technique></extra>
    </effect>
  </library_effects>
  <library_materials><material id="PreviewMaterial" name="PreviewMaterial"><instance_effect url="#PreviewEffect"/></material></library_materials>
  <library_geometries>
    <geometry id="vfx_kurp_0635-mesh" name="vfx_kurp_0635"><mesh>
      <source id="vfx_kurp_0635-mesh-positions">
        <float_array id="vfx_kurp_0635-mesh-positions-array" count="891">0.913032586 -5.30998922 -5.10693376 2.02043757 -5.85108321 -4.56114583 1.4270839 -5.01381846 -4.90304778 2.22415551 -5.36044186 -4.68967889 2.85266632 -5.81105307 -4.31113864 3.04324158 -5.41609857 -4.58748549 4.09907215 -5.52616432 -4.12016814 3.94589399 -5.33626627 -4.52193026 4.88892206 -5.0158078 -4.15129029 4.72001176 -5.01435699 -4.57124201 5.39813609 -4.36768911 -4.62028327 5.29636845 -4.57473775 -4.97412407 5.9745513 -3.86941734 -5.31215336 5.90622152 -4.1343647 -5.50956339 6.62687211 -4.06908667 -6.34502678 6.58936174 -4.30175147 -6.3400837 0.281217964 -3.68742751 -5.38424713 0.860689593 -4.41085196 -5.17959871 0.636476724 -3.63826882 -4.80000427 1.30566091 -4.29939752 -4.71433694 1.94015838 -4.71823737 -4.69954544 1.94015838 -4.71823737 -4.69954544 2.22415551 -5.36044186 -4.68967889 2.42742488 -4.87096085 -4.81790402 3.04324158 -5.41609857 -4.58748549 3.23331145 -5.02228237 -4.86303268 3.94589399 -5.33626627 -4.52193026 3.23331145 -5.02228237 -4.86303268 3.94589399 -5.33626627 -4.52193026 3.79329241 -5.14701004 -4.92228763 4.72001176 -5.01435699 -4.57124201 3.79329241 -5.14701004 -4.92228763 3.94589399 -5.33626627 -4.52193026 4.55186889 -5.01286839 -4.98938605 5.29636845 -4.57473775 -4.97412407 4.55186889 -5.01286839 -4.98938605 5.29636845 -4.57473775 -4.97412407 5.19521351 -4.78062618 -5.32608964 5.90622152 -4.1343647 -5.50956339 5.83846188 -4.39742556 -5.70567159 6.58936174 -4.30175147 -6.3400837 5.83846188 -4.39742556 -5.70567159 6.58936174 -4.30175147 -6.3400837 6.55233369 -4.53219683 -6.33532503 0.265543145 -3.18588875 -4.5861961 0.0331394321 -3.01130793 -5.20626412 -0.102855786 -2.55536566 -3.75802972 -0.223014309 -2.35799266 -4.43701131 -0.309629575 -1.74215755 -2.81902251 -0.268361619 -1.52411672 -3.54221368 0.0700981402 -1.14836206 -2.18894205 0.274282428 -0.920426624 -2.92006343 0.257305182 -0.434116253 -1.86989582 0.664273858 -0.293380563 -2.60646116 0.311273047 0.500796168 -1.66691815 0.863628373 0.337690676 -2.38005674 0.282443603 1.34223553 -1.89816423 0.863628373 0.337690676 -2.38005674 0.311273047 0.500796168 -1.66691815 0.924953544 1.0764161 -2.44950951 0.472464836 2.1791038 -2.4977024 1.10898492 1.8136112 -2.86274241 0.685344914 2.45702089 -3.24693756 1.33571363 2.12876712 -3.4541081 1.56746301 0.810592725 -3.00085276 1.41598378 0.174582716 -3.0931953 0.924953544 1.0764161 -2.44950951 0.863628373 0.337690676 -2.38005674 1.07124273 -0.152645513 -3.34302633 0.863628373 0.337690676 -2.38005674 1.41598378 0.174582716 -3.0931953 0.863628373 0.337690676 -2.38005674 1.07124273 -0.152645513 -3.34302633 0.664273858 -0.293380563 -2.60646116 0.244065014 -0.691141795 -3.69192117 0.664273858 -0.293380563 -2.60646116 1.07124273 -0.152645513 -3.34302633 0.244065014 -0.691141795 -3.69192117 -0.227093839 -1.30607497 -4.26540274 -0.343172813 -2.16062037 -5.11599474 -0.199263852 -2.83672792 -5.82633277 -0.0744760403 -3.73666534 -5.96920688 0.415023914 -4.52250296 -5.64557562 1.09395777 2.03599848 -4.5999743 1.33571363 2.12876712 -3.4541081 0.685344914 2.45702089 -3.24693756 1.74490931 1.79990161 -4.64559788 1.14983649 2.50164054 -5.22971294 1.74490931 1.79990161 -4.64559788 1.09395777 2.03599848 -4.5999743 1.67919081 2.19007552 -5.28852315 0.918819267 2.45614018 -5.69389841 1.67919081 2.19007552 -5.28852315 1.14983649 2.50164054 -5.22971294 1.67919081 2.19007552 -5.28852315 0.918819267 2.45614018 -5.69389841 1.43316234 2.66274415 -5.91637658 0.591058558 2.14856965 -6.15468596 1.43316234 2.66274415 -5.91637658 0.918819267 2.45614018 -5.69389841 0.965528046 2.27740607 -6.65419367 0.813570864 1.35125425 -6.57697868 0.965528046 2.27740607 -6.65419367 0.591058558 2.14856965 -6.15468596 0.965528046 2.27740607 -6.65419367 0.813570864 1.35125425 -6.57697868 0.858429626 1.48510335 -7.087539 0.965975682 0.544698804 -7.06531171 0.861286841 0.732134284 -7.51695679 1.2884699 -0.169215472 -7.57582587 0.861286841 0.732134284 -7.51695679 1.2884699 -0.169215472 -7.57582587 1.02474973 -0.173747919 -7.85726063 1.58024001 -0.8841872 -8.11600639 1.27889734 -0.921964503 -8.24542285 1.02474973 -0.173747919 -7.85726063 1.27889734 -0.921964503 -8.24542285 0.761028931 -0.178280106 -8.13869529 0.977555164 -0.959740315 -8.37483861 0.774152347 0.853986581 -7.93920532 1.02474973 -0.173747919 -7.85726063 0.774152347 0.853986581 -7.93920532 0.861286841 0.732134284 -7.51695679 0.903286462 1.61895351 -7.59810033 0.858429626 1.48510335 -7.087539 1.33999783 2.40624372 -7.15370049 0.858429626 1.48510335 -7.087539 1.33999783 2.40624372 -7.15370049 0.965528046 2.27740607 -6.65419367 1.99394371 2.47790815 -6.33084547 0.965528046 2.27740607 -6.65419367 1.33999783 2.40624372 -7.15370049 0.965528046 2.27740607 -6.65419367 1.99394371 2.47790815 -6.33084547 1.43316234 2.66274415 -5.91637658 2.26110006 2.18813689 -5.45150672 1.43316234 2.66274415 -5.91637658 1.99394371 2.47790815 -6.33084547 1.67919081 2.19007552 -5.28852315 2.39585973 1.56380482 -4.691219 1.74490931 1.79990161 -4.64559788 1.98608131 1.8005117 -3.66127589 1.74490931 1.79990161 -4.64559788 2.39585973 1.56380482 -4.691219 1.33571363 2.12876712 -3.4541081 1.74550498 1.44811947 -3.2277831 1.33571363 2.12876712 -3.4541081 1.98608131 1.8005117 -3.66127589 1.10898492 1.8136112 -2.86274241 1.80261153 -5.16372627 -5.57011447 2.40788125 -5.57959559 -5.34633133 1.4270839 -5.01381846 -4.90304778 2.22415551 -5.36044186 -4.68967889 3.17014228 -5.73114222 -5.14453322 3.04324158 -5.41609857 -4.58748549 4.19963084 -5.68733768 -4.92404392 3.94589399 -5.33626627 -4.52193026 5.0700487 -5.2894092 -4.84163187 4.72001176 -5.01435699 -4.57124201 5.56315456 -4.83698521 -4.95446376 4.72001176 -5.01435699 -4.57124201 5.56315456 -4.83698521 -4.95446376 5.29636845 -4.57473775 -4.97412407 6.11544492 -4.2792981 -5.35332834 5.29636845 -4.57473775 -4.97412407 6.11544492 -4.2792981 -5.35332834 5.90622152 -4.1343647 -5.50956339 6.53064496 -4.75164691 -6.00747122 5.90622152 -4.1343647 -5.50956339 6.11544492 -4.2792981 -5.35332834 5.90622152 -4.1343647 -5.50956339 6.53064496 -4.75164691 -6.00747122 6.58936174 -4.30175147 -6.3400837 0.281217964 -3.68742751 -5.38424713 0.860689593 -4.41085196 -5.17959871 -0.365178015 -3.62248966 -4.86422039 0.315473084 -4.20502114 -4.60615653 1.4270839 -5.01381846 -4.90304778 1.05248499 -4.86431004 -4.23758852 2.22415551 -5.36044186 -4.68967889 2.04102849 -5.14194923 -4.03496969 3.04324158 -5.41609857 -4.58748549 2.91686694 -5.10220504 -4.03244701 3.94589399 -5.33626627 -4.52193026 3.69334997 -4.98671297 -4.12161067 4.72001176 -5.01435699 -4.57124201 4.37195259 -4.74074074 -4.30235731 5.29636845 -4.57473775 -4.97412407 4.37195259 -4.74074074 -4.30235731 5.29636845 -4.57473775 -4.97412407 5.03151602 -4.31425118 -4.99373797 5.90622152 -4.1343647 -5.50956339 5.69900922 -3.99071636 -5.66455181 6.58936174 -4.30175147 -6.3400837 6.42370254 -4.31030922 -6.52496984 -0.683079019 -3.14244857 -4.87817145 0.281217964 -3.68742751 -5.38424713 -0.683079019 -3.14244857 -4.87817145 0.0331394321 -3.01130793 -5.20626412 -0.983821841 -2.46254111 -4.20478561 -0.223014309 -2.35799266 -4.43701131 -1.04914492 -1.58626748 -3.45493659 -0.268361619 -1.52411672 -3.54221368 -0.486688107 -0.936029032 -2.98548168 0.274282428 -0.920426624 -2.92006343 -0.0160519181 -0.264206288 -2.86725546 0.274282428 -0.920426624 -2.92006343 -0.486688107 -0.936029032 -2.98548168 0.664273858 -0.293380563 -2.60646116 0.298816572 0.272991976 -2.82195332 0.863628373 0.337690676 -2.38005674 0.497789364 0.884800286 -3.014607 0.924953544 1.0764161 -2.44950951 0.736506621 1.46617218 -3.38703068 1.10898492 1.8136112 -2.86274241 1.05806634 1.68349367 -3.94327782 1.10898492 1.8136112 -2.86274241 0.736506621 1.46617218 -3.38703068 1.33571363 2.12876712 -3.4541081 1.35211687 1.268028 -1.88441006 1.4284401 0.402385618 -1.93815915 0.924953544 1.0764161 -2.44950951 0.863628373 0.337690676 -2.38005674 1.34459966 -0.322555727 -2.34566674 0.664273858 -0.293380563 -2.60646116 1.0352526 -0.904823082 -2.85464484 0.274282428 -0.920426624 -2.92006343 0.512422063 -1.46196552 -3.62949059 -0.268361619 -1.52411672 -3.54221368 0.537793245 -2.2534438 -4.66923844 -0.223014309 -2.35799266 -4.43701131 0.749358395 -2.88016763 -5.53435889 0.0331394321 -3.01130793 -5.20626412 0.928613822 -3.75249455 -5.90508084 0.281217964 -3.68742751 -5.38424713 1.40697121 -4.61712194 -5.75415798 0.860689593 -4.41085196 -5.17959871 1.55824787 1.38231577 -4.96712644 1.33571363 2.12876712 -3.4541081 1.05806634 1.68349367 -3.94327782 1.74490931 1.79990161 -4.64559788 1.40834307 1.65716905 -5.35988682 1.74490931 1.79990161 -4.64559788 1.55824787 1.38231577 -4.96712644 1.67919081 2.19007552 -5.28852315 1.26182918 2.13845778 -5.89725054 1.43316234 2.66274415 -5.91637658 1.35516751 1.90908522 -6.63731014 1.43316234 2.66274415 -5.91637658 1.26182918 2.13845778 -5.89725054 1.43316234 2.66274415 -5.91637658 1.35516751 1.90908522 -6.63731014 0.965528046 2.27740607 -6.65419367 1.40145763 1.45942878 -7.1730479 0.965528046 2.27740607 -6.65419367 1.40145763 1.45942878 -7.1730479 0.858429626 1.48510335 -7.087539 1.34189161 0.740950426 -7.70944216 0.861286841 0.732134284 -7.51695679 1.33769398 -0.0601897007 -8.16108159 0.861286841 0.732134284 -7.51695679 1.33769398 -0.0601897007 -8.16108159 1.02474973 -0.173747919 -7.85726063 1.44513347 -0.834175084 -8.56875762 1.27889734 -0.921964503 -8.24542285 1.02474973 -0.173747919 -7.85726063 1.27889734 -0.921964503 -8.24542285 0.711806209 -0.287307916 -7.55343978 1.11266183 -1.00975194 -7.92208681 0.344376896 0.447703451 -7.21978499 0.861286841 0.732134284 -7.51695679 0.315400403 1.51077648 -7.00203255 0.861286841 0.732134284 -7.51695679 0.315400403 1.51077648 -7.00203255 0.858429626 1.48510335 -7.087539 0.575889641 2.64572625 -6.67107655 0.858429626 1.48510335 -7.087539 0.575889641 2.64572625 -6.67107655 0.965528046 2.27740607 -6.65419367 1.60449562 3.18702979 -5.93550339 0.965528046 2.27740607 -6.65419367 1.60449562 3.18702979 -5.93550339 1.43316234 2.66274415 -5.91637658 1.95003879 2.72298282 -5.21715795 1.67919081 2.19007552 -5.28852315 1.91133689 2.33368835 -4.25132502 1.74490931 1.79990161 -4.64559788 1.613358 2.57403692 -2.9649319 1.74490931 1.79990161 -4.64559788 1.91133689 2.33368835 -4.25132502 1.33571363 2.12876712 -3.4541081 1.48146382 2.16105183 -2.33845543 1.33571363 2.12876712 -3.4541081 1.613358 2.57403692 -2.9649319 1.10898492 1.8136112 -2.86274241 1.35211687 1.268028 -1.88441006 0.924953544 1.0764161 -2.44950951</float_array>
        <technique_common><accessor source="#vfx_kurp_0635-mesh-positions-array" count="297" stride="3"><param name="X" type="float"/><param name="Y" type="float"/><param name="Z" type="float"/></accessor></technique_common>
      </source>
      <source id="vfx_kurp_0635-mesh-normals">
        <float_array id="vfx_kurp_0635-mesh-normals-array" count="891">-0.48459125 0.0533306622 0.873113487 -0.250728255 0.287952111 0.924239646 -0.374431973 -0.0498765143 0.925912 -0.199899604 0.290044191 0.935903048 -0.185476584 0.562785779 0.805525048 -0.163916671 0.655174959 0.737480236 -0.329823824 0.773858837 0.540702085 -0.255921397 0.855903695 0.449369673 -0.537737515 0.795854275 0.278306196 -0.529301102 0.834728016 0.151886414 -0.720105833 0.684834462 -0.111576645 -0.719665915 0.660506938 -0.214036342 -0.714021202 0.555785334 -0.425765646 -0.705908808 0.513327138 -0.488045084 -0.751491621 0.182688073 -0.633944328 -0.756934018 0.10834178 -0.644447788 -0.765881518 -0.418916496 0.48778527 -0.654848265 -0.254931039 0.711466033 -0.650018354 -0.572778724 0.499400313 -0.524808182 -0.368304537 0.767416536 -0.264513905 -0.191579171 0.945161264 0.273820054 0.135717789 0.952157161 0.0482939291 0.234299911 0.970964082 0.114977459 0.273307475 0.955030475 -0.00715394442 0.510947048 0.859582419 0.0140538097 0.568670009 0.822445689 -0.110774151 0.605099353 0.788405899 0.238573427 0.909953409 0.339216028 0.238573427 0.909953409 0.339216028 0.238573427 0.909953409 0.339216028 -0.370841537 0.901948337 0.221282064 -0.269276295 0.886722747 0.375783245 -0.305290439 0.8106833 0.499590168 -0.305103837 0.943940462 0.126047823 -0.499628908 0.841898523 0.203906429 -0.471728917 0.813444751 -0.340263818 -0.601596524 0.75271004 -0.267412074 -0.582652027 0.749825113 -0.313494681 -0.624146606 0.598794526 -0.501882586 -0.606609808 0.569655318 -0.554542478 -0.567130292 0.581163177 -0.583620248 -0.649397495 0.0887495835 -0.755252544 -0.649397495 0.0887495835 -0.755252544 -0.649397522 0.0887495846 -0.755252521 -0.781556192 -0.585617197 0.214993991 -0.871527267 -0.433534577 0.229102583 -0.921257919 -0.381956393 0.0734381403 -0.951278211 -0.29800833 0.0791252162 -0.956678489 0.28497564 0.0596251057 -0.949671401 0.310794717 0.039126384 -0.892670153 0.44399049 -0.0775399455 -0.83702597 0.546882963 0.017508587 -0.881593454 0.31264413 -0.353619328 -0.821530226 0.468509383 -0.324941605 -0.79933725 0.276091531 -0.533697881 -0.663811466 0.429387499 -0.612356688 -0.721232569 -0.209896913 -0.660126403 -0.733504146 -0.102012817 -0.671985902 -0.796964547 -0.185301061 -0.574900885 -0.659283497 -0.159310707 -0.734823359 -0.651122425 -0.455150163 -0.607353207 -0.595667986 -0.508183 -0.622036726 -0.570718313 -0.664136028 -0.482911941 -0.509380237 -0.662984654 -0.548619287 -0.610093982 0.0414009957 -0.791246669 -0.680579314 0.142412582 -0.718700531 -0.709469224 -0.0558601075 -0.702519087 -0.789692529 0.00788125382 -0.613452195 -0.39267869 0.782552739 -0.483130062 -0.392678735 0.782552716 -0.483130062 -0.39267869 0.782552739 -0.483130062 -0.832281725 0.400445125 -0.383341665 -0.832281724 0.400445116 -0.383341676 -0.832281725 0.400445125 -0.383341665 -0.506774079 0.854128993 -0.116806231 -0.506774079 0.854128993 -0.116806231 -0.506774079 0.854128993 -0.116806231 -0.859200264 0.480300657 0.176312747 -0.952258905 0.301245046 0.049541899 -0.973667425 -0.213402661 0.0801938327 -0.926978275 -0.296234453 0.230122632 -0.83791265 -0.299560059 0.456252302 -0.722655685 -0.207419551 0.65935263 -0.348874653 -0.925326093 0.148519686 -0.385710834 -0.909504749 0.15501053 -0.404273649 -0.90084811 0.158226101 -0.328378034 -0.93337412 0.144846881 -0.410454476 -0.763317221 -0.498872673 -0.392587375 -0.761818483 -0.515274444 -0.312918201 -0.750199731 -0.582479667 -0.495595311 -0.764062483 -0.413030034 -0.456671943 -0.834229269 0.309050582 -0.456671943 -0.834229269 0.309050582 -0.456671967 -0.83422926 0.309050571 0.0512482888 -0.788110214 -0.613397019 0.0512482888 -0.788110214 -0.613397019 0.0512482815 -0.788110214 -0.613397021 0.475380646 -0.861425377 0.178772374 0.470117036 -0.860639599 0.19567691 0.452065596 -0.856241381 0.249974788 0.486223406 -0.862198868 0.142126391 0.807564664 -0.0838284567 0.583791146 0.807564677 -0.0838284358 0.583791132 0.807564682 -0.0838284464 0.583791123 0.986391568 -0.158070393 0.0452263779 0.996403553 -0.018647595 0.0826572794 0.999359682 -0.000562305483 0.0357758367 0.963373289 0.261292578 -0.0603166257 0.959497072 0.256804728 -0.115830479 0.9024382 0.429713622 -0.0308463766 0.677084637 0.362715415 -0.640307677 0.625700533 0.50510081 -0.59445102 0.592477351 0.507540825 -0.625598034 0.358609461 0.554024363 -0.751303041 0.282719393 0.515634378 -0.808820705 0.685652996 0.331933991 -0.647842415 0.4162135 0.406552844 -0.813314889 0.6517435 0.324307735 -0.685605501 0.330782582 0.355781965 -0.874072123 0.723250553 0.122159221 -0.679695345 0.965140606 0.224623171 -0.134343002 0.980813061 0.0671518916 -0.183020115 0.989042167 0.0720560858 -0.12885462 0.970580315 -0.239280161 -0.026811493 0.967104947 -0.253707359 0.0184552894 0.884018637 -0.465345113 -0.0443280423 0.785499441 -0.375312625 0.492068147 0.785499425 -0.375312645 0.492068158 0.785499425 -0.375312642 0.49206816 0.217182122 -0.972162418 -0.0879326931 0.217182122 -0.972162418 -0.0879326931 0.217182109 -0.972162421 -0.0879326973 0.0343611317 -0.894640486 0.445463482 0.0343611317 -0.894640486 0.445463482 0.0343611174 -0.894640488 0.445463479 -0.23075162 -0.834237619 -0.500800644 -0.333497708 -0.889031655 -0.313690922 -0.417947396 -0.8929386 -0.167274117 -0.196362317 -0.80799887 -0.555499475 -0.26239515 -0.806125574 -0.530386976 -0.330508017 -0.821453964 -0.464734156 -0.39724231 -0.912477444 0.0978951534 -0.361554341 -0.928078017 0.0891608227 -0.334677153 -0.938707298 0.0825821494 -0.421584569 -0.900822504 0.103852141 -0.567817094 -0.368346571 -0.736141665 -0.574508342 -0.548038483 -0.60794242 -0.48733563 -0.525338477 -0.697512343 -0.645500902 -0.349593347 -0.679053074 -0.598154058 -0.776613412 -0.197695046 -0.365270967 -0.918527587 0.151275221 -0.597850188 -0.793697655 -0.112335144 -0.327530676 -0.909986358 0.254260662 -0.122317001 -0.896134086 0.426593777 -0.0814200041 -0.860340016 0.503175755 0.122932591 -0.731737432 0.670408762 0.111785053 -0.696277409 0.709014719 0.370940171 -0.396748165 0.839639377 0.31174131 -0.434134507 0.845189083 0.445035159 -0.27229129 0.853112631 0.313784509 0.384306087 0.868244271 0.296193388 0.367414256 0.881632714 0.301480407 0.372497849 0.877698648 0.28396652 0.355636112 0.890441448 0.0320011353 0.753755174 0.656375704 0.0320011496 0.753755171 0.656375707 0.0320011653 0.753755174 0.656375703 0.634476833 0.759134453 -0.145444254 0.634476869 0.759134426 -0.145444234 0.634476869 0.759134426 -0.145444234 0.762812292 0.317076557 0.563542246 0.76281226 0.317076589 0.563542272 0.762812276 0.317076573 0.563542259 -0.5498516 -0.567831241 -0.612560936 -0.595532956 -0.717866581 -0.360566319 -0.592832814 -0.519864101 -0.615053308 -0.584994417 -0.76947978 -0.25628578 -0.495030521 -0.861927398 -0.109662864 -0.514688134 -0.855133978 -0.0619839007 -0.213730852 -0.952102036 0.218679755 -0.192713606 -0.935459138 0.296272959 0.0107690164 -0.888692422 0.458377364 0.0612720354 -0.842933762 0.534516989 0.228275495 -0.687893593 0.688979465 0.237326568 -0.631910356 0.737811224 0.518330065 -0.206673526 0.829831307 0.425781692 -0.297960829 0.854358997 0.591917131 -0.0382102972 0.805092593 0.444864655 0.507865757 0.737677309 0.408351718 0.473938749 0.780148022 0.400139367 0.522517054 0.752903988 0.34421844 0.839562344 0.42029601 0.290478914 0.883986671 0.36631894 0.223332843 0.963261838 -0.149161229 0.179932991 0.961921521 -0.205745246 -0.595408391 -0.414306705 -0.6883595 -0.42724326 0.0803041043 -0.900563406 -0.439723886 0.433195626 -0.786755651 -0.422506143 0.290435746 -0.858566035 -0.327058755 0.611164096 -0.720771128 -0.274496604 0.667370915 -0.692291612 -0.174030462 0.671912716 -0.719893534 -0.0946755885 0.695343367 -0.7124143 -0.0240139126 0.682567769 -0.730427665 0.047331252 0.695922188 -0.716555693 0.274876109 0.0779842526 -0.958311839 0.210329034 0.170523584 -0.962643966 0.0827041495 0.116241028 -0.989771715 0.45511371 0.0722767331 -0.887495118 0.536475564 -0.183837482 -0.823649045 0.689555569 -0.130267828 -0.71242081 0.743685193 -0.407901394 -0.529668562 0.823763495 -0.319895984 -0.468060106 0.807215548 -0.46966938 -0.357510466 0.850923397 -0.401972936 -0.338152526 0.740029826 -0.671003995 0.0459292531 0.745475198 -0.665015854 0.0449515625 0.631654253 -0.772663439 0.0632780783 0.834711252 -0.55003047 0.0268999829 0.775361293 0.107008092 -0.622385839 0.655089517 0.140313157 -0.742408205 0.715582019 0.00460025654 -0.698513573 0.54220259 0.125887388 -0.830763936 0.413129619 0.373574385 -0.830521581 0.265393297 0.384986077 -0.883941241 0.142362667 0.588544693 -0.79583165 0.00330049175 0.689620293 -0.724163627 -0.0963593456 0.784598895 -0.612469959 -0.165538375 0.761205583 -0.627027197 -0.265308423 0.736969332 -0.621681305 -0.314719823 0.692937207 -0.648682866 -0.420943441 0.444178 -0.790893497 -0.477329512 0.446343532 -0.756924031 -0.59453063 -0.241207974 -0.767041096 -0.651487812 -0.216924157 -0.726985241 -0.656953067 -0.598494044 -0.458494871 -0.662980007 -0.654904625 -0.362708481 0.605055001 -0.675110901 0.422058902 0.525203574 -0.729972336 0.437380377 0.450647357 -0.772498849 0.447395225 0.679221644 -0.613630477 0.40263581 0.855388159 -0.297286386 -0.424183807 0.892882698 -0.257769501 -0.369209117 0.907749307 -0.0903294143 -0.409672788 0.825914911 -0.34737353 -0.444067777 0.798166677 -0.301260837 -0.521700933 0.802392456 -0.281415211 -0.526281128 0.931668996 -0.296820456 0.209500592 0.931668996 -0.296820456 0.209500592 0.931669002 -0.296820446 0.209500583 0.546207636 0.548814676 -0.632818829 0.593135954 0.603014447 -0.533444764 0.568988171 0.574971484 -0.587928783 0.615318686 0.629164537 -0.474905148 -0.11314269 0.488506587 -0.865193647 -0.103196431 0.558515096 -0.823050049 -0.14470637 0.523777851 -0.839474138 -0.298016171 0.489806721 -0.819314188 -0.336505251 0.464930422 -0.818904096 -0.336717246 0.463747156 -0.819487689 -0.714485411 0.129372338 -0.687585192 -0.718915436 0.200643544 -0.665509402 -0.740942124 0.145646497 -0.655585133 -0.843326334 0.0405062415 -0.535873062 -0.881623221 -0.0563730866 -0.468575043 -0.684254459 0.0977956212 -0.722656109 -0.816964006 -0.113511891 -0.565406812 -0.719858822 -0.001448497 -0.694118995 -0.843071888 -0.216601219 -0.492253699 -0.582045727 0.146011887 -0.799939561 -0.561840392 0.176706435 -0.808152343 -0.554306082 0.152490549 -0.818224541 -0.112682788 0.49192153 -0.863316743 -0.126319237 0.380009286 -0.916316754 -0.122360029 0.414838319 -0.901630297 -0.13398538 0.305639227 -0.942673104 0.408823262 0.394770291 -0.822812226 0.400819682 0.385932653 -0.830902864 0.403795163 0.389216803 -0.827924964 0.396565969 0.381240284 -0.835099562 0.868923913 -0.298365758 -0.394903923 0.81809519 -0.28555927 -0.499175485 0.82866406 -0.296429489 -0.474810946 0.847185643 -0.369633447 -0.381638049 0.884118196 -0.338375692 -0.322237344 0.944732435 -0.278554859 -0.172880931 0.968043844 -0.157937706 -0.194799378 0.646328524 -0.672589227 0.360393078 0.749645585 -0.576885994 0.324397976 0.837144865 -0.468962618 0.281536033 0.526266897 -0.755926636 0.389381656 0.857641871 -0.448114566 -0.252277143 0.824050311 -0.559082474 -0.0914760741 0.89111043 -0.441795001 -0.103630972 0.80404009 -0.539643949 -0.249607575 0.818032029 -0.391330149 -0.421526172 0.781272929 -0.442056808 -0.440679463</float_array>
        <technique_common><accessor source="#vfx_kurp_0635-mesh-normals-array" count="297" stride="3"><param name="X" type="float"/><param name="Y" type="float"/><param name="Z" type="float"/></accessor></technique_common>
      </source>
      <source id="vfx_kurp_0635-mesh-uv0">
        <float_array id="vfx_kurp_0635-mesh-uv0-array" count="594">0 0.730769217 0 0.769230723 0.5 0.730769217 0.5 0.769230723 0 0.807692289 0.5 0.807692289 0 0.846153855 0.5 0.846153855 0 0.884615362 0.5 0.884615362 0 0.923076928 0.5 0.923076928 0 0.961538434 0.5 0.961538434 0 1 0.5 1 0.5 0.653846145 0.5 0.692307711 1 0.653846145 1 0.692307711 1 0.730769217 1 0.730769217 0.5 0.769230723 1 0.769230723 0.5 0.807692289 1 0.807692289 0.5 0.846153855 1 0.807692289 0.5 0.846153855 1 0.846153855 0.5 0.884615362 1 0.846153855 0.5 0.846153855 1 0.884615362 0.5 0.923076928 1 0.884615362 0.5 0.923076928 1 0.923076928 0.5 0.961538434 1 0.961538434 0.5 1 1 0.961538434 0.5 1 1 1 1 0.615384579 0.5 0.615384579 1 0.576923072 0.5 0.576923072 1 0.538461506 0.5 0.538461506 1 0.5 0.5 0.5 1 0.461538434 0.5 0.461538434 1 0.423076928 0.5 0.423076928 1 0.384615362 0.5 0.423076928 1 0.423076928 0.5 0.384615362 1 0.346153796 0.5 0.346153796 1 0.307692289 0.5 0.307692289 0 0.384615362 0 0.423076928 0.5 0.384615362 0.5 0.423076928 0 0.461538434 0.5 0.423076928 0 0.423076928 0.5 0.423076928 0 0.461538434 0.5 0.461538434 0 0.5 0.5 0.461538434 0 0.461538434 0 0.5 0 0.538461506 0 0.576923072 0 0.615384579 0 0.653846145 0 0.692307711 1 0.269230723 0.5 0.307692289 1 0.307692289 0.5 0.269230723 1 0.230769217 0.5 0.269230723 1 0.269230723 0.5 0.230769217 1 0.192307651 0.5 0.230769217 1 0.230769217 0.5 0.230769217 1 0.192307651 0.5 0.192307651 1 0.153846145 0.5 0.192307651 1 0.192307651 0.5 0.153846145 1 0.115384579 0.5 0.153846145 1 0.153846145 0.5 0.153846145 1 0.115384579 0.5 0.115384579 1 0.0769230127 0.5 0.0769230127 1 0.0384615064 0.5 0.0769230127 1 0.0384615064 0.5 0.0384615064 1 0 0.5 0 0.5 0.0384615064 0.5 0 0 0.0384615064 0 0 0 0.0769230127 0.5 0.0384615064 0 0.0769230127 0.5 0.0769230127 0 0.115384579 0.5 0.115384579 0 0.153846145 0.5 0.115384579 0 0.153846145 0.5 0.153846145 0 0.192307651 0.5 0.153846145 0 0.153846145 0.5 0.153846145 0 0.192307651 0.5 0.192307651 0 0.230769217 0.5 0.192307651 0 0.192307651 0.5 0.230769217 0 0.269230723 0.5 0.269230723 0 0.307692289 0.5 0.269230723 0 0.269230723 0.5 0.307692289 0 0.346153796 0.5 0.307692289 0 0.307692289 0.5 0.346153796 0 0.730769217 0 0.769230723 0.5 0.730769217 0.5 0.769230723 0 0.807692289 0.5 0.807692289 0 0.846153855 0.5 0.846153855 0 0.884615362 0.5 0.884615362 0 0.923076928 0.5 0.884615362 0 0.923076928 0.5 0.923076928 0 0.961538434 0.5 0.923076928 0 0.961538434 0.5 0.961538434 0 1 0.5 0.961538434 0 0.961538434 0.5 0.961538434 0 1 0.5 1 0.5 0.653846145 0.5 0.692307711 1 0.653846145 1 0.692307711 0.5 0.730769217 1 0.730769217 0.5 0.769230723 1 0.769230723 0.5 0.807692289 1 0.807692289 0.5 0.846153855 1 0.846153855 0.5 0.884615362 1 0.884615362 0.5 0.923076928 1 0.884615362 0.5 0.923076928 1 0.923076928 0.5 0.961538434 1 0.961538434 0.5 1 1 1 1 0.615384579 0.5 0.653846145 1 0.615384579 0.5 0.615384579 1 0.576923072 0.5 0.576923072 1 0.538461506 0.5 0.538461506 1 0.5 0.5 0.5 1 0.461538434 0.5 0.5 1 0.5 0.5 0.461538434 1 0.423076928 0.5 0.423076928 1 0.384615362 0.5 0.384615362 1 0.346153796 0.5 0.346153796 1 0.307692289 0.5 0.346153796 1 0.346153796 0.5 0.307692289 0 0.384615362 0 0.423076928 0.5 0.384615362 0.5 0.423076928 0 0.461538434 0.5 0.461538434 0 0.5 0.5 0.5 0 0.538461506 0.5 0.538461506 0 0.576923072 0.5 0.576923072 0 0.615384579 0.5 0.615384579 0 0.653846145 0.5 0.653846145 0 0.692307711 0.5 0.692307711 1 0.269230723 0.5 0.307692289 1 0.307692289 0.5 0.269230723 1 0.230769217 0.5 0.269230723 1 0.269230723 0.5 0.230769217 1 0.192307651 0.5 0.192307651 1 0.153846145 0.5 0.192307651 1 0.192307651 0.5 0.192307651 1 0.153846145 0.5 0.153846145 1 0.115384579 0.5 0.153846145 1 0.115384579 0.5 0.115384579 1 0.0769230127 0.5 0.0769230127 1 0.0384615064 0.5 0.0769230127 1 0.0384615064 0.5 0.0384615064 1 0 0.5 0 0.5 0.0384615064 0.5 0 0 0.0384615064 0 0 0 0.0769230127 0.5 0.0769230127 0 0.115384579 0.5 0.0769230127 0 0.115384579 0.5 0.115384579 0 0.153846145 0.5 0.115384579 0 0.153846145 0.5 0.153846145 0 0.192307651 0.5 0.153846145 0 0.192307651 0.5 0.192307651 0 0.230769217 0.5 0.230769217 0 0.269230723 0.5 0.269230723 0 0.307692289 0.5 0.269230723 0 0.269230723 0.5 0.307692289 0 0.346153796 0.5 0.307692289 0 0.307692289 0.5 0.346153796 0 0.384615362 0.5 0.384615362</float_array>
        <technique_common><accessor source="#vfx_kurp_0635-mesh-uv0-array" count="297" stride="2"><param name="S" type="float"/><param name="T" type="float"/></accessor></technique_common>
      </source>
      <vertices id="vfx_kurp_0635-mesh-vertices"><input semantic="POSITION" source="#vfx_kurp_0635-mesh-positions"/></vertices>
      <triangles material="PreviewMaterial" count="208">
        <input semantic="VERTEX" source="#vfx_kurp_0635-mesh-vertices" offset="0"/>
        <input semantic="NORMAL" source="#vfx_kurp_0635-mesh-normals" offset="1"/>
        <input semantic="TEXCOORD" source="#vfx_kurp_0635-mesh-uv0" offset="2" set="0"/>
        <p>0 0 0 1 1 1 2 2 2 2 2 2 1 1 1 3 3 3 4 4 4 3 3 3 1 1 1 3 3 3 4 4 4 5 5 5 6 6 6 5 5 5 4 4 4 5 5 5 6 6 6 7 7 7 8 8 8 7 7 7 6 6 6 7 7 7 8 8 8 9 9 9 10 10 10 9 9 9 8 8 8 9 9 9 10 10 10 11 11 11 12 12 12 11 11 11 10 10 10 11 11 11 12 12 12 13 13 13 14 14 14 13 13 13 12 12 12 13 13 13 14 14 14 15 15 15 16 16 16 17 17 17 18 18 18 18 18 18 17 17 17 19 19 19 2 2 2 19 19 19 17 17 17 19 19 19 2 2 2 20 20 20 3 3 3 20 20 20 2 2 2 21 21 21 22 22 22 23 23 23 24 24 24 23 23 23 22 22 22 23 23 23 24 24 24 25 25 25 26 26 26 25 25 25 24 24 24 27 27 27 28 28 28 29 29 29 30 30 30 31 31 31 32 32 32 31 31 31 30 30 30 33 33 33 34 34 34 33 33 33 30 30 30 35 35 35 36 36 36 37 37 37 38 38 38 37 37 37 36 36 36 37 37 37 38 38 38 39 39 39 40 40 40 39 39 39 38 38 38 41 41 41 42 42 42 43 43 43 44 44 44 16 16 16 18 18 18 16 16 16 44 44 44 45 45 45 46 46 46 45 45 45 44 44 44 45 45 45 46 46 46 47 47 47 48 48 48 47 47 47 46 46 46 47 47 47 48 48 48 49 49 49 50 50 50 49 49 49 48 48 48 49 49 49 50 50 50 51 51 51 52 52 52 51 51 51 50 50 50 51 51 51 52 52 52 53 53 53 54 54 54 53 53 53 52 52 52 53 53 53 54 54 54 55 55 55 56 56 56 57 57 57 58 58 58 57 57 57 56 56 56 59 59 59 60 60 60 59 59 59 56 56 56 59 59 59 60 60 60 61 61 61 62 62 62 61 61 61 60 60 60 63 63 63 61 61 61 62 62 62 64 64 64 65 65 65 66 66 66 66 66 66 65 65 65 67 67 67 68 68 68 69 69 69 70 70 70 71 71 71 72 72 72 73 73 73 74 74 74 75 75 75 76 76 76 53 53 53 77 77 77 51 51 51 78 78 78 51 51 51 77 77 77 51 51 51 78 78 78 49 49 49 79 79 79 49 49 49 78 78 78 49 49 49 79 79 79 47 47 47 80 80 80 47 47 47 79 79 79 47 47 47 80 80 80 45 45 45 81 81 81 45 45 45 80 80 80 45 45 45 81 81 81 16 16 16 82 82 82 16 16 16 81 81 81 16 16 16 82 82 82 17 17 17 0 0 0 17 17 17 82 82 82 17 17 17 0 0 0 2 2 2 83 83 83 84 84 84 85 85 85 84 84 84 83 83 83 86 86 86 87 87 87 88 88 88 89 89 89 88 88 88 87 87 87 90 90 90 91 91 91 92 92 92 93 93 93 94 94 94 95 95 95 96 96 96 97 97 97 98 98 98 99 99 99 98 98 98 97 97 97 100 100 100 101 101 101 102 102 102 103 103 103 104 104 104 105 105 105 106 106 106 107 107 107 106 106 106 105 105 105 106 106 106 107 107 107 108 108 108 109 109 109 108 108 108 107 107 107 110 110 110 111 111 111 112 112 112 113 113 113 112 112 112 111 111 111 114 114 114 112 112 112 113 113 113 115 115 115 116 116 116 117 117 117 118 118 118 117 117 117 116 116 116 117 117 117 119 119 119 115 115 115 120 120 120 121 121 121 122 122 122 123 123 123 122 122 122 121 121 121 122 122 122 123 123 123 124 124 124 125 125 125 124 124 124 123 123 123 126 126 126 127 127 127 128 128 128 129 129 129 130 130 130 131 131 131 132 132 132 133 133 133 134 134 134 135 135 135 136 136 136 137 137 137 136 136 136 135 135 135 138 138 138 139 139 139 138 138 138 135 135 135 138 138 138 139 139 139 140 140 140 141 141 141 142 142 142 143 143 143 142 142 142 141 141 141 144 144 144 145 145 145 146 146 146 147 147 147 146 146 146 145 145 145 148 148 148 64 64 64 148 148 148 145 145 145 148 148 148 64 64 64 66 66 66 149 149 149 150 150 150 151 151 151 151 151 151 150 150 150 152 152 152 153 153 153 152 152 152 150 150 150 152 152 152 153 153 153 154 154 154 155 155 155 154 154 154 153 153 153 154 154 154 155 155 155 156 156 156 157 157 157 156 156 156 155 155 155 156 156 156 157 157 157 158 158 158 159 159 159 158 158 158 157 157 157 160 160 160 161 161 161 162 162 162 163 163 163 162 162 162 161 161 161 164 164 164 165 165 165 166 166 166 167 167 167 168 168 168 169 169 169 170 170 170 171 171 171 172 172 172 173 173 173 174 174 174 175 175 175 175 175 175 174 174 174 176 176 176 177 177 177 176 176 176 174 174 174 176 176 176 177 177 177 178 178 178 179 179 179 178 178 178 177 177 177 178 178 178 179 179 179 180 180 180 181 181 181 180 180 180 179 179 179 180 180 180 181 181 181 182 182 182 183 183 183 182 182 182 181 181 181 182 182 182 183 183 183 184 184 184 185 185 185 184 184 184 183 183 183 184 184 184 185 185 185 186 186 186 187 187 187 186 186 186 185 185 185 188 188 188 189 189 189 190 190 190 191 191 191 190 190 190 189 189 189 190 190 190 191 191 191 192 192 192 193 193 193 192 192 192 191 191 191 192 192 192 193 193 193 194 194 194 195 195 195 173 173 173 175 175 175 196 196 196 197 197 197 198 198 198 199 199 199 198 198 198 197 197 197 198 198 198 199 199 199 200 200 200 201 201 201 200 200 200 199 199 199 200 200 200 201 201 201 202 202 202 203 203 203 202 202 202 201 201 201 202 202 202 203 203 203 204 204 204 205 205 205 206 206 206 207 207 207 206 206 206 205 205 205 208 208 208 209 209 209 208 208 208 205 205 205 208 208 208 209 209 209 210 210 210 211 211 211 210 210 210 209 209 209 210 210 210 211 211 211 212 212 212 213 213 213 212 212 212 211 211 211 212 212 212 213 213 213 214 214 214 215 215 215 216 216 216 217 217 217 218 218 218 216 216 216 215 215 215 219 219 219 220 220 220 221 221 221 221 221 221 220 220 220 222 222 222 223 223 223 222 222 222 220 220 220 222 222 222 223 223 223 224 224 224 225 225 225 224 224 224 223 223 223 224 224 224 225 225 225 226 226 226 227 227 227 226 226 226 225 225 225 226 226 226 227 227 227 228 228 228 229 229 229 228 228 228 227 227 227 228 228 228 229 229 229 230 230 230 231 231 231 230 230 230 229 229 229 230 230 230 231 231 231 232 232 232 233 233 233 232 232 232 231 231 231 232 232 232 233 233 233 234 234 234 235 235 235 234 234 234 233 233 233 234 234 234 235 235 235 236 236 236 149 149 149 236 236 236 235 235 235 236 236 236 149 149 149 151 151 151 237 237 237 238 238 238 239 239 239 238 238 238 237 237 237 240 240 240 241 241 241 242 242 242 243 243 243 242 242 242 241 241 241 244 244 244 245 245 245 244 244 244 241 241 241 244 244 244 245 245 245 246 246 246 247 247 247 248 248 248 249 249 249 250 250 250 251 251 251 252 252 252 253 253 253 252 252 252 251 251 251 254 254 254 255 255 255 256 256 256 257 257 257 256 256 256 255 255 255 256 256 256 257 257 257 258 258 258 259 259 259 258 258 258 257 257 257 260 260 260 261 261 261 262 262 262 263 263 263 262 262 262 261 261 261 264 264 264 262 262 262 263 263 263 265 265 265 266 266 266 267 267 267 268 268 268 267 267 267 266 266 266 267 267 267 269 269 269 265 265 265 265 265 265 269 269 269 270 270 270 271 271 271 270 270 270 269 269 269 272 272 272 273 273 273 274 274 274 275 275 275 274 274 274 273 273 273 276 276 276 277 277 277 278 278 278 279 279 279 278 278 278 277 277 277 280 280 280 281 281 281 282 282 282 283 283 283 282 282 282 281 281 281 282 282 282 283 283 283 284 284 284 285 285 285 284 284 284 283 283 283 284 284 284 285 285 285 286 286 286 287 287 287 288 288 288 289 289 289 288 288 288 287 287 287 290 290 290 291 291 291 292 292 292 293 293 293 292 292 292 291 291 291 294 294 294 295 295 295 294 294 294 291 291 291 294 294 294 295 295 295 296 296 296</p>
      </triangles>
    </mesh></geometry>
  </library_geometries>
  <library_visual_scenes>
    <visual_scene id="Scene" name="Scene">
      <node id="vfx_kurp_0635" name="vfx_kurp_0635" type="NODE">
        <instance_geometry url="#vfx_kurp_0635-mesh"><bind_material><technique_common><instance_material symbol="PreviewMaterial" target="#PreviewMaterial"><bind_vertex_input semantic="UVSET0" input_semantic="TEXCOORD" input_set="0"/></instance_material></technique_common></bind_material></instance_geometry>
      </node>
    </visual_scene>
  </library_visual_scenes>
  <scene><instance_visual_scene url="#Scene"/></scene>
</COLLADA>
