<?xml version="1.0" encoding="utf-8"?>
<COLLADA xmlns="http://www.collada.org/2005/11/COLLADASchema" version="1.4.1">
  <asset>
    <contributor><authoring_tool>Morrobroom Kurpulio VFX preview converter</authoring_tool></contributor>
    <unit name="unit" meter="1"/>
    <up_axis>Z_UP</up_axis>
  </asset>
  <library_images>
    <image id="VFXTexture" name="darkmap_newgen-1.dds">
      <init_from>../../../Textures/Kurp/darkmap_newgen-1.dds</init_from>
    </image>
  </library_images>
  <library_effects>
    <effect id="PreviewEffect">
      <profile_COMMON>
        <newparam sid="VFXTexture-surface">
          <surface type="2D"><init_from>VFXTexture</init_from></surface>
        </newparam>
        <newparam sid="VFXTexture-sampler">
          <sampler2D><source>VFXTexture-surface</source></sampler2D>
        </newparam>
        <technique sid="common"><phong>
          <emission><color>0.08 0.08 0.08 1</color></emission>
          <ambient><color>0.2 0.2 0.2 1</color></ambient>
          <diffuse><texture texture="VFXTexture-sampler" texcoord="UVSET0"/></diffuse>
          <specular><color>0.15 0.15 0.15 1</color></specular>
          <shininess><float>8</float></shininess>
          <transparent opaque="A_ONE"><texture texture="VFXTexture-sampler" texcoord="UVSET0"/></transparent>
          <transparency><float>1</float></transparency>
        </phong></technique>
      </profile_COMMON>
      <extra><technique profile="GOOGLEEARTH"><double_sided>1</double_sided></technique></extra>
    </effect>
  </library_effects>
  <library_materials><material id="PreviewMaterial" name="PreviewMaterial"><instance_effect url="#PreviewEffect"/></material></library_materials>
  <library_geometries>
    <geometry id="vfx_kurp_0168-mesh" name="vfx_kurp_0168"><mesh>
      <source id="vfx_kurp_0168-mesh-positions">
        <float_array id="vfx_kurp_0168-mesh-positions-array" count="324">-0.410624251 2.93109655 2.32617438 -0.628714129 3.93197823 1.37597832 -2.70384961 1.56106871 2.35044962 -3.28855598 1.89864886 1.41976172 -0.799773216 5.2713064 0.648497656 -3.9822557 2.29915667 0.70721671 -0.98238945 6.82763529 0.0159329209 -4.77647996 2.75770247 0.0876389332 -0.491898984 2.33517963 4.09197021 -0.410624251 2.93109655 2.32617438 -2.51081192 1.44961846 4.07999325 -2.70384961 1.56106871 2.35044962 -2.51081192 1.44961846 4.07999325 -2.26827389 -0.741591856 4.09197021 -2.74371636 -1.10993698 2.32617438 -3.71955049 -1.42150632 1.37597832 -4.96497202 -1.94302851 0.648497656 -6.40410018 -2.56304258 0.0159329209 -2.74371618 1.10993725 2.32617438 -3.71955049 1.42150667 1.37597832 -2.70384997 -1.56106836 2.35044962 -3.28855634 -1.8986485 1.41976172 -4.96497202 1.94302922 0.648497656 -3.98225605 -2.29915631 0.70721671 -6.40410018 2.5630433 0.0159329209 -4.77648067 -2.75770193 0.0876389332 -2.26827443 0.741592705 4.09197021 -2.74371618 1.10993725 2.32617438 -2.51081246 -1.44961783 4.07999325 -2.70384997 -1.56106836 2.35044962 -2.51081246 -1.44961783 4.07999325 -0.49189961 -2.33517873 4.09197021 -0.410624564 -2.93109655 2.32617438 -0.628714576 -3.93197823 1.37597832 -0.799774021 -5.27130604 0.648497656 -0.982390255 -6.82763529 0.0159329209 2.33309197 1.82115912 2.32617438 3.09083605 2.51047146 1.37597832 3.42540375e-07 3.12213671 2.35044962 3.57356598e-07 3.79729736 1.41976172 4.1651988 3.32827699 0.648497656 4.07858792e-07 4.59831297 0.70721671 5.42171109 4.26459146 0.0159329209 4.82175622e-07 5.51540422 0.0876389332 1.77637535 1.59358674 4.09197021 2.33309197 1.82115912 2.32617438 4.57219116e-07 2.8992362 4.07999325 3.42540375e-07 3.12213671 2.35044962 4.57219116e-07 2.8992362 4.07999325 -1.77637428 1.59358692 4.09197021 -2.33309162 1.82115966 2.32617438 -3.09083569 2.510472 1.37597832 -4.16519809 3.32827771 0.648497656 -5.42171001 4.26459253 0.0159329209 2.743716 -1.10993761 2.32617438 3.71954978 -1.4215073 1.37597832 2.70385015 1.56106782 2.35044962 3.28855634 1.89864796 1.41976172 4.96497166 -1.94302994 0.648497656 3.98225641 2.29915577 0.70721671 6.40410018 -2.56304437 0.0159329209 4.77648103 2.75770122 0.0876389332 2.26827407 -0.741593108 4.09197021 2.743716 -1.10993761 2.32617438 2.51081264 1.44961739 4.07999325 2.70385015 1.56106782 2.35044962 2.51081264 1.44961739 4.07999325 0.491899967 2.33517873 4.09197021 0.410625011 2.93109655 2.32617438 0.628715202 3.93197823 1.37597832 0.799774826 5.27130604 0.648497656 0.982391328 6.82763457 0.0159329209 0.410624385 -2.93109655 2.32617438 0.628714308 -3.93197823 1.37597832 2.70384961 -1.56106836 2.35044962 3.28855598 -1.89864868 1.41976172 0.799773484 -5.2713064 0.648497656 3.9822557 -2.29915649 0.70721671 0.982389897 -6.82763529 0.0159329209 4.77647996 -2.75770211 0.0876389332 0.491899073 -2.33517927 4.09197021 0.410624385 -2.93109655 2.32617438 2.51081192 -1.44961819 4.07999325 2.70384961 -1.56106836 2.35044962 2.51081192 -1.44961819 4.07999325 2.26827389 0.741591901 4.09197021 2.74371618 1.10993698 2.32617438 3.71955013 1.42150649 1.37597832 4.96497202 1.94302869 0.648497656 6.40410018 2.56304276 0.0159329209 -2.3330918 -1.82115948 2.32617438 -3.09083605 -2.51047182 1.37597832 -6.95944848e-08 -3.12213671 2.35044962 -2.5386325e-08 -3.79729736 1.41976172 -4.16519845 -3.32827735 0.648497656 -5.86151661e-09 -4.59831297 0.70721671 -5.42171037 -4.26459217 0.0159329209 0 -5.51540422 0.0876389332 -1.77637517 -1.59358692 4.09197021 -2.3330918 -1.82115948 2.32617438 -2.03759846e-07 -2.8992362 4.07999325 -6.95944848e-08 -3.12213671 2.35044962 -2.03759846e-07 -2.8992362 4.07999325 1.77637446 -1.59358692 4.09197021 2.3330918 -1.82115948 2.32617438 3.09083605 -2.51047182 1.37597832 4.16519809 -3.32827735 0.648497656 5.42171037 -4.26459217 0.0159329209</float_array>
        <technique_common><accessor source="#vfx_kurp_0168-mesh-positions-array" count="108" stride="3"><param name="X" type="float"/><param name="Y" type="float"/><param name="Z" type="float"/></accessor></technique_common>
      </source>
      <source id="vfx_kurp_0168-mesh-normals">
        <float_array id="vfx_kurp_0168-mesh-normals-array" count="324">-0.352525975 0.602760308 0.715825013 -0.345237512 0.503798051 0.791832421 -0.832306508 0.24216056 0.498622241 -0.632037887 0.328810816 0.701720426 -0.310442807 0.368114086 0.876423005 -0.52380174 0.278412042 0.805058055 -0.318481538 0.345713469 0.882639058 -0.482112619 0.262234898 0.83594275 -0.387151124 0.878861492 0.278776766 -0.442319768 0.872551298 0.20738239 -0.464870388 0.867659439 0.176245911 -0.508781539 0.85360644 0.111791727 -0.988670943 -0.10886801 0.103332102 -0.978820528 -0.0322582954 0.202162748 -0.860001996 0.0456045017 0.508248755 -0.618037777 0.0991503698 0.779870829 -0.482786122 0.120040343 0.867472118 -0.443481268 0.123697944 0.887706699 -0.698268594 -0.00391631202 0.715825142 -0.608920632 -0.0470854862 0.791832445 -0.62587039 -0.599718376 0.498622226 -0.600777449 -0.382955493 0.701720419 -0.47401763 -0.0847943443 0.87642296 -0.503012771 -0.314419594 0.805058054 -0.458637444 -0.102956347 0.882639046 -0.468158332 -0.28640428 0.8359428 -0.954691951 0.104148016 0.278776736 -0.976811477 0.0532155191 0.207382368 -0.983850319 0.0312401547 0.176245857 -0.993635636 -0.0138145413 0.111791683 -0.400052942 -0.910648183 0.103332141 -0.461473702 -0.863812623 0.202162742 -0.469495626 -0.721981349 0.508248748 -0.394885565 -0.485661233 0.779870859 -0.345350956 -0.358084803 0.867472185 -0.328866098 -0.322216991 0.887706765 0.345742738 0.606676588 0.715825032 0.26368311 0.55088347 0.791832444 -0.206436044 0.841878856 0.498622253 -0.0312604155 0.711766293 0.701720407 0.163574766 0.452908444 0.876422978 -0.0207889196 0.592831684 0.80505802 0.140155924 0.448669872 0.882639033 -0.0139542352 0.548639236 0.835942742 0.567540826 0.774713458 0.278776736 0.534491714 0.819335813 0.207382335 0.518979961 0.836419276 0.176245837 0.484854077 0.867420979 0.111791634 -0.588617921 0.801780164 0.103332043 -0.517346729 0.831554336 0.202162679 -0.390506317 0.767585853 0.508248733 -0.223152129 0.584811564 0.779870862 -0.137435052 0.478125197 0.867472134 -0.11461504 0.445914993 0.887706715 0.698268775 0.00391622309 0.715824965 0.608920636 0.0470853636 0.791832449 0.625870548 0.599718235 0.498622197 0.600777504 0.382955311 0.701720472 0.474017541 0.0847942325 0.87642302 0.503012835 0.314419477 0.80505806 0.45863733 0.102956258 0.882639116 0.468158425 0.286404282 0.835942747 0.954691891 -0.104148247 0.278776856 0.976811459 -0.0532156969 0.207382409 0.983850306 -0.0312403256 0.176245899 0.993635641 0.0138144072 0.111791661 0.400053115 0.91064811 0.10333211 0.461473893 0.863812527 0.202162718 0.469495799 0.721981281 0.508248683 0.394885689 0.485661119 0.779870868 0.345351075 0.358084833 0.867472125 0.328866218 0.322217022 0.887706709 0.352526092 -0.602760244 0.715825008 0.345237559 -0.503797957 0.791832461 0.832306493 -0.242160511 0.498622291 0.632037929 -0.328810777 0.701720407 0.31044281 -0.36811406 0.876423015 0.523801808 -0.278412046 0.805058009 0.318481511 -0.345713473 0.882639067 0.482112668 -0.262234863 0.835942732 0.387151128 -0.878861442 0.278776918 0.44231981 -0.872551261 0.207382455 0.464870456 -0.867659395 0.176245944 0.508781681 -0.85360636 0.111791695 0.988670943 0.10886801 0.103332102 0.978820541 0.0322583385 0.202162679 0.86000204 -0.0456044375 0.508248686 0.618037715 -0.0991503172 0.779870885 0.4827861 -0.120040337 0.867472132 0.443481268 -0.123697944 0.887706699 -0.345742644 -0.606676581 0.715825084 -0.263683054 -0.550883479 0.791832457 0.20643613 -0.841878841 0.498622244 0.0312604676 -0.711766292 0.701720406 -0.163574737 -0.452908447 0.876422983 0.0207889904 -0.592831683 0.805058019 -0.140155854 -0.448669829 0.882639066 0.0139542941 -0.548639304 0.835942696 -0.567540776 -0.774713472 0.2787768 -0.534491667 -0.819335831 0.207382384 -0.518979846 -0.836419341 0.176245868 -0.484854005 -0.867421017 0.111791646 0.588617988 -0.801780114 0.103332051 0.517346801 -0.831554297 0.202162654 0.390506385 -0.767585811 0.508248744 0.223152186 -0.584811556 0.779870852 0.137435091 -0.478125146 0.867472155 0.114615061 -0.445914896 0.887706761</float_array>
        <technique_common><accessor source="#vfx_kurp_0168-mesh-normals-array" count="108" stride="3"><param name="X" type="float"/><param name="Y" type="float"/><param name="Z" type="float"/></accessor></technique_common>
      </source>
      <source id="vfx_kurp_0168-mesh-uv0">
        <float_array id="vfx_kurp_0168-mesh-uv0-array" count="216">0 0.25 0 0.5 0.5 0.25 0.5 0.5 0 0.75 0.5 0.75 0 1 0.5 1 0 0 0 0.25 0.5 0 0.5 0.25 0.5 0 1 0 1 0.25 1 0.5 1 0.75 1 1 0 0.25 0 0.5 0.5 0.25 0.5 0.5 0 0.75 0.5 0.75 0 1 0.5 1 0 0 0 0.25 0.5 0 0.5 0.25 0.5 0 1 0 1 0.25 1 0.5 1 0.75 1 1 0 0.25 0 0.5 0.5 0.25 0.5 0.5 0 0.75 0.5 0.75 0 1 0.5 1 0 0 0 0.25 0.5 0 0.5 0.25 0.5 0 1 0 1 0.25 1 0.5 1 0.75 1 1 0 0.25 0 0.5 0.5 0.25 0.5 0.5 0 0.75 0.5 0.75 0 1 0.5 1 0 0 0 0.25 0.5 0 0.5 0.25 0.5 0 1 0 1 0.25 1 0.5 1 0.75 1 1 0 0.25 0 0.5 0.5 0.25 0.5 0.5 0 0.75 0.5 0.75 0 1 0.5 1 0 0 0 0.25 0.5 0 0.5 0.25 0.5 0 1 0 1 0.25 1 0.5 1 0.75 1 1 0 0.25 0 0.5 0.5 0.25 0.5 0.5 0 0.75 0.5 0.75 0 1 0.5 1 0 0 0 0.25 0.5 0 0.5 0.25 0.5 0 1 0 1 0.25 1 0.5 1 0.75 1 1</float_array>
        <technique_common><accessor source="#vfx_kurp_0168-mesh-uv0-array" count="108" stride="2"><param name="S" type="float"/><param name="T" type="float"/></accessor></technique_common>
      </source>
      <source id="vfx_kurp_0168-mesh-colors">
        <float_array id="vfx_kurp_0168-mesh-colors-array" count="432">0.392156899 0.0274509825 0 0.5 0.392156899 0.0274509825 0 0.5 0.392156899 0.0274509825 0 0.5 0.392156899 0.0274509825 0 0.5 0.392156899 0.0274509825 0 0.5 0.392156899 0.0274509825 0 0.5 0.392156899 0.0274509825 0 0.5 0.392156899 0.0274509825 0 0.5 0.392156899 0.0274509825 0 0 0.392156899 0.0274509825 0 0.5 0.392156899 0.0274509825 0 0 0.392156899 0.0274509825 0 0.5 0.392156899 0.0274509825 0 0 0.392156899 0.0274509825 0 0 0.392156899 0.0274509825 0 0.5 0.392156899 0.0274509825 0 0.5 0.392156899 0.0274509825 0 0.5 0.392156899 0.0274509825 0 0.5 0.392156899 0.0274509825 0 0.5 0.392156899 0.0274509825 0 0.5 0.392156899 0.0274509825 0 0.5 0.392156899 0.0274509825 0 0.5 0.392156899 0.0274509825 0 0.5 0.392156899 0.0274509825 0 0.5 0.392156899 0.0274509825 0 0.5 0.392156899 0.0274509825 0 0.5 0.392156899 0.0274509825 0 0 0.392156899 0.0274509825 0 0.5 0.392156899 0.0274509825 0 0 0.392156899 0.0274509825 0 0.5 0.392156899 0.0274509825 0 0 0.392156899 0.0274509825 0 0 0.392156899 0.0274509825 0 0.5 0.392156899 0.0274509825 0 0.5 0.392156899 0.0274509825 0 0.5 0.392156899 0.0274509825 0 0.5 0.392156899 0.0274509825 0 0.5 0.392156899 0.0274509825 0 0.5 0.392156899 0.0274509825 0 0.5 0.392156899 0.0274509825 0 0.5 0.392156899 0.0274509825 0 0.5 0.392156899 0.0274509825 0 0.5 0.392156899 0.0274509825 0 0.5 0.392156899 0.0274509825 0 0.5 0.392156899 0.0274509825 0 0 0.392156899 0.0274509825 0 0.5 0.392156899 0.0274509825 0 0 0.392156899 0.0274509825 0 0.5 0.392156899 0.0274509825 0 0 0.392156899 0.0274509825 0 0 0.392156899 0.0274509825 0 0.5 0.392156899 0.0274509825 0 0.5 0.392156899 0.0274509825 0 0.5 0.392156899 0.0274509825 0 0.5 0.392156899 0.0274509825 0 0.5 0.392156899 0.0274509825 0 0.5 0.392156899 0.0274509825 0 0.5 0.392156899 0.0274509825 0 0.5 0.392156899 0.0274509825 0 0.5 0.392156899 0.0274509825 0 0.5 0.392156899 0.0274509825 0 0.5 0.392156899 0.0274509825 0 0.5 0.392156899 0.0274509825 0 0 0.392156899 0.0274509825 0 0.5 0.392156899 0.0274509825 0 0 0.392156899 0.0274509825 0 0.5 0.392156899 0.0274509825 0 0 0.392156899 0.0274509825 0 0 0.392156899 0.0274509825 0 0.5 0.392156899 0.0274509825 0 0.5 0.392156899 0.0274509825 0 0.5 0.392156899 0.0274509825 0 0.5 0.392156899 0.0274509825 0 0.5 0.392156899 0.0274509825 0 0.5 0.392156899 0.0274509825 0 0.5 0.392156899 0.0274509825 0 0.5 0.392156899 0.0274509825 0 0.5 0.392156899 0.0274509825 0 0.5 0.392156899 0.0274509825 0 0.5 0.392156899 0.0274509825 0 0.5 0.392156899 0.0274509825 0 0 0.392156899 0.0274509825 0 0.5 0.392156899 0.0274509825 0 0 0.392156899 0.0274509825 0 0.5 0.392156899 0.0274509825 0 0 0.392156899 0.0274509825 0 0 0.392156899 0.0274509825 0 0.5 0.392156899 0.0274509825 0 0.5 0.392156899 0.0274509825 0 0.5 0.392156899 0.0274509825 0 0.5 0.392156899 0.0274509825 0 0.5 0.392156899 0.0274509825 0 0.5 0.392156899 0.0274509825 0 0.5 0.392156899 0.0274509825 0 0.5 0.392156899 0.0274509825 0 0.5 0.392156899 0.0274509825 0 0.5 0.392156899 0.0274509825 0 0.5 0.392156899 0.0274509825 0 0.5 0.392156899 0.0274509825 0 0 0.392156899 0.0274509825 0 0.5 0.392156899 0.0274509825 0 0 0.392156899 0.0274509825 0 0.5 0.392156899 0.0274509825 0 0 0.392156899 0.0274509825 0 0 0.392156899 0.0274509825 0 0.5 0.392156899 0.0274509825 0 0.5 0.392156899 0.0274509825 0 0.5 0.392156899 0.0274509825 0 0.5</float_array>
        <technique_common><accessor source="#vfx_kurp_0168-mesh-colors-array" count="108" stride="4"><param name="R" type="float"/><param name="G" type="float"/><param name="B" type="float"/><param name="A" type="float"/></accessor></technique_common>
      </source>
      <vertices id="vfx_kurp_0168-mesh-vertices"><input semantic="POSITION" source="#vfx_kurp_0168-mesh-positions"/></vertices>
      <triangles material="PreviewMaterial" count="96">
        <input semantic="VERTEX" source="#vfx_kurp_0168-mesh-vertices" offset="0"/>
        <input semantic="NORMAL" source="#vfx_kurp_0168-mesh-normals" offset="1"/>
        <input semantic="TEXCOORD" source="#vfx_kurp_0168-mesh-uv0" offset="2" set="0"/>
        <input semantic="COLOR" source="#vfx_kurp_0168-mesh-colors" offset="3" set="0"/>
        <p>0 0 0 0 1 1 1 1 2 2 2 2 2 2 2 2 1 1 1 1 3 3 3 3 4 4 4 4 3 3 3 3 1 1 1 1 3 3 3 3 4 4 4 4 5 5 5 5 6 6 6 6 5 5 5 5 4 4 4 4 5 5 5 5 6 6 6 6 7 7 7 7 8 8 8 8 9 9 9 9 10 10 10 10 11 11 11 11 10 10 10 10 9 9 9 9 12 12 12 12 2 2 2 2 13 13 13 13 13 13 13 13 2 2 2 2 14 14 14 14 3 3 3 3 14 14 14 14 2 2 2 2 14 14 14 14 3 3 3 3 15 15 15 15 5 5 5 5 15 15 15 15 3 3 3 3 15 15 15 15 5 5 5 5 16 16 16 16 7 7 7 7 16 16 16 16 5 5 5 5 16 16 16 16 7 7 7 7 17 17 17 17 18 18 18 18 19 19 19 19 20 20 20 20 20 20 20 20 19 19 19 19 21 21 21 21 22 22 22 22 21 21 21 21 19 19 19 19 21 21 21 21 22 22 22 22 23 23 23 23 24 24 24 24 23 23 23 23 22 22 22 22 23 23 23 23 24 24 24 24 25 25 25 25 26 26 26 26 27 27 27 27 28 28 28 28 29 29 29 29 28 28 28 28 27 27 27 27 30 30 30 30 20 20 20 20 31 31 31 31 31 31 31 31 20 20 20 20 32 32 32 32 21 21 21 21 32 32 32 32 20 20 20 20 32 32 32 32 21 21 21 21 33 33 33 33 23 23 23 23 33 33 33 33 21 21 21 21 33 33 33 33 23 23 23 23 34 34 34 34 25 25 25 25 34 34 34 34 23 23 23 23 34 34 34 34 25 25 25 25 35 35 35 35 36 36 36 36 37 37 37 37 38 38 38 38 38 38 38 38 37 37 37 37 39 39 39 39 40 40 40 40 39 39 39 39 37 37 37 37 39 39 39 39 40 40 40 40 41 41 41 41 42 42 42 42 41 41 41 41 40 40 40 40 41 41 41 41 42 42 42 42 43 43 43 43 44 44 44 44 45 45 45 45 46 46 46 46 47 47 47 47 46 46 46 46 45 45 45 45 48 48 48 48 38 38 38 38 49 49 49 49 49 49 49 49 38 38 38 38 50 50 50 50 39 39 39 39 50 50 50 50 38 38 38 38 50 50 50 50 39 39 39 39 51 51 51 51 41 41 41 41 51 51 51 51 39 39 39 39 51 51 51 51 41 41 41 41 52 52 52 52 43 43 43 43 52 52 52 52 41 41 41 41 52 52 52 52 43 43 43 43 53 53 53 53 54 54 54 54 55 55 55 55 56 56 56 56 56 56 56 56 55 55 55 55 57 57 57 57 58 58 58 58 57 57 57 57 55 55 55 55 57 57 57 57 58 58 58 58 59 59 59 59 60 60 60 60 59 59 59 59 58 58 58 58 59 59 59 59 60 60 60 60 61 61 61 61 62 62 62 62 63 63 63 63 64 64 64 64 65 65 65 65 64 64 64 64 63 63 63 63 66 66 66 66 56 56 56 56 67 67 67 67 67 67 67 67 56 56 56 56 68 68 68 68 57 57 57 57 68 68 68 68 56 56 56 56 68 68 68 68 57 57 57 57 69 69 69 69 59 59 59 59 69 69 69 69 57 57 57 57 69 69 69 69 59 59 59 59 70 70 70 70 61 61 61 61 70 70 70 70 59 59 59 59 70 70 70 70 61 61 61 61 71 71 71 71 72 72 72 72 73 73 73 73 74 74 74 74 74 74 74 74 73 73 73 73 75 75 75 75 76 76 76 76 75 75 75 75 73 73 73 73 75 75 75 75 76 76 76 76 77 77 77 77 78 78 78 78 77 77 77 77 76 76 76 76 77 77 77 77 78 78 78 78 79 79 79 79 80 80 80 80 81 81 81 81 82 82 82 82 83 83 83 83 82 82 82 82 81 81 81 81 84 84 84 84 74 74 74 74 85 85 85 85 85 85 85 85 74 74 74 74 86 86 86 86 75 75 75 75 86 86 86 86 74 74 74 74 86 86 86 86 75 75 75 75 87 87 87 87 77 77 77 77 87 87 87 87 75 75 75 75 87 87 87 87 77 77 77 77 88 88 88 88 79 79 79 79 88 88 88 88 77 77 77 77 88 88 88 88 79 79 79 79 89 89 89 89 90 90 90 90 91 91 91 91 92 92 92 92 92 92 92 92 91 91 91 91 93 93 93 93 94 94 94 94 93 93 93 93 91 91 91 91 93 93 93 93 94 94 94 94 95 95 95 95 96 96 96 96 95 95 95 95 94 94 94 94 95 95 95 95 96 96 96 96 97 97 97 97 98 98 98 98 99 99 99 99 100 100 100 100 101 101 101 101 100 100 100 100 99 99 99 99 102 102 102 102 92 92 92 92 103 103 103 103 103 103 103 103 92 92 92 92 104 104 104 104 93 93 93 93 104 104 104 104 92 92 92 92 104 104 104 104 93 93 93 93 105 105 105 105 95 95 95 95 105 105 105 105 93 93 93 93 105 105 105 105 95 95 95 95 106 106 106 106 97 97 97 97 106 106 106 106 95 95 95 95 106 106 106 106 97 97 97 97 107 107 107 107</p>
      </triangles>
    </mesh></geometry>
  </library_geometries>
  <library_visual_scenes>
    <visual_scene id="Scene" name="Scene">
      <node id="vfx_kurp_0168" name="vfx_kurp_0168" type="NODE">
        <instance_geometry url="#vfx_kurp_0168-mesh"><bind_material><technique_common><instance_material symbol="PreviewMaterial" target="#PreviewMaterial"><bind_vertex_input semantic="UVSET0" input_semantic="TEXCOORD" input_set="0"/></instance_material></technique_common></bind_material></instance_geometry>
      </node>
    </visual_scene>
  </library_visual_scenes>
  <scene><instance_visual_scene url="#Scene"/></scene>
</COLLADA>
