<?xml version="1.0" encoding="utf-8"?>
<COLLADA xmlns="http://www.collada.org/2005/11/COLLADASchema" version="1.4.1">
  <asset>
    <contributor><authoring_tool>Morrobroom Kurpulio VFX preview converter</authoring_tool></contributor>
    <unit name="unit" meter="1"/>
    <up_axis>Z_UP</up_axis>
  </asset>
  <library_images>
    <image id="VFXTexture" name="darkmap_newgen-1.dds">
      <init_from>../../../Textures/Kurp/darkmap_newgen-1.dds</init_from>
    </image>
  </library_images>
  <library_effects>
    <effect id="PreviewEffect">
      <profile_COMMON>
        <newparam sid="VFXTexture-surface">
          <surface type="2D"><init_from>VFXTexture</init_from></surface>
        </newparam>
        <newparam sid="VFXTexture-sampler">
          <sampler2D><source>VFXTexture-surface</source></sampler2D>
        </newparam>
        <technique sid="common"><phong>
          <emission><color>0.08 0.08 0.08 1</color></emission>
          <ambient><color>0.2 0.2 0.2 1</color></ambient>
          <diffuse><texture texture="VFXTexture-sampler" texcoord="UVSET0"/></diffuse>
          <specular><color>0.15 0.15 0.15 1</color></specular>
          <shininess><float>8</float></shininess>
          <transparent opaque="A_ONE"><texture texture="VFXTexture-sampler" texcoord="UVSET0"/></transparent>
          <transparency><float>1</float></transparency>
        </phong></technique>
      </profile_COMMON>
      <extra><technique profile="GOOGLEEARTH"><double_sided>1</double_sided></technique></extra>
    </effect>
  </library_effects>
  <library_materials><material id="PreviewMaterial" name="PreviewMaterial"><instance_effect url="#PreviewEffect"/></material></library_materials>
  <library_geometries>
    <geometry id="vfx_kurp_0184-mesh" name="vfx_kurp_0184"><mesh>
      <source id="vfx_kurp_0184-mesh-positions">
        <float_array id="vfx_kurp_0184-mesh-positions-array" count="576">0.583967924 -1.80967307 0.749735653 0.944879949 -1.64898467 1.00142097 0.192192689 -0.595988035 1.1600678 0.310974121 -0.543103158 1.34188092 1.26449633 -1.41676986 1.25310612 0.416164547 -0.466677904 1.52369428 1.52884805 -1.12317753 1.5047915 0.503166497 -0.370052189 1.70550835 1.72638178 -0.781039059 1.75647664 0.56817776 -0.257449329 1.88732135 1.84846449 -0.405307651 2.00816202 0.608356893 -0.133790582 2.06913495 0.129770041 -1.24362171 -4.55039167 -0.197533801 -1.89181209 0.246365339 -0.129769951 -1.24362183 -4.55039167 0.197533995 -1.89181209 0.498050451 0.383638352 -1.18966031 -4.55039167 0.583967924 -1.80967307 0.749735653 0.620739698 -1.08409595 -4.55039167 0.944879949 -1.64898467 1.00142097 0.83071208 -0.931542277 -4.55039167 1.26449633 -1.41676986 1.25310612 1.00437796 -0.738666594 -4.55039167 1.52884805 -1.12317753 1.5047915 1.134148 -0.513898492 -4.55039167 1.72638178 -0.781039059 1.75647664 1.21435034 -0.267061472 -4.5503912 1.84846449 -0.405307651 2.00816202 1.2414794 -0.00894324947 -4.5503912 1.88976026 -0.0124043543 2.25984693 1.88976026 -0.0124043543 2.25984693 0.621948004 -0.00448035169 2.25094819 -0.583967984 -1.80967307 -0.00532044703 -0.383638233 -1.18966031 -4.55039167 -0.944880068 -1.64898455 -0.257005364 -0.620739639 -1.08409584 -4.55039215 -1.26449633 -1.41676974 -0.508691072 -0.830711842 -0.931542158 -4.55039215 -1.52884805 -1.12317741 -0.760376394 -1.00437784 -0.738666415 -4.55039215 -1.72638166 -0.781039178 -1.01206124 -1.13414776 -0.513898253 -4.55039215 -1.84846425 -0.40530771 -1.2637471 -1.21434987 -0.267061353 -4.55039167 -1.88976014 -0.0124045443 -1.515432 -1.24147928 -0.00894333515 -4.55039215 -1.88976014 -0.0124045443 -1.515432 -1.84846425 -0.40530771 -1.2637471 -0.621948004 -0.00448057335 -0.476253033 -0.608356714 -0.133790836 -0.294439405 -1.72638166 -0.781039178 -1.01206124 -0.568177521 -0.257449538 -0.112626165 -1.52884805 -1.12317741 -0.760376394 -0.503166378 -0.370052367 0.0691874623 -1.26449633 -1.41676974 -0.508691072 -0.416164309 -0.466677964 0.251000494 -0.944880068 -1.64898455 -0.257005364 -0.310973853 -0.543103158 0.432814121 -0.583967984 -1.80967307 -0.00532044703 -0.192192331 -0.595988035 0.614627779 -0.197533801 -1.89181209 0.246365339 -0.0650110841 -0.623021305 0.796441197 0.197533995 -1.89181209 0.498050451 0.0650114864 -0.623021305 0.978254378 -1.85920644 0.399105966 0.749735773 -1.90050256 0.00620280206 1.00142109 -0.612236917 0.131550357 1.1600678 -0.625827968 0.00224026735 1.34188092 -1.85920691 -0.386700481 1.25310624 -0.612236917 -0.127069995 1.52369428 -1.73712432 -0.762432039 1.50479162 -0.572057724 -0.250728756 1.70550835 -1.53959072 -1.10457051 1.75647676 -0.507046521 -0.363331556 1.88732135 -1.27523923 -1.39816296 2.00816226 -0.420044512 -0.459957182 2.06913495 -1.14189279 0.509426892 -4.55039167 -1.53959012 1.11697567 0.246365443 -1.01212275 0.734195113 -4.55039167 -1.73712397 0.774837017 0.498050541 -1.22209501 0.262589931 -4.55039167 -1.85920644 0.399105966 0.749735773 -1.24922442 0.0044718571 -4.55039167 -1.90050256 0.00620280206 1.00142109 -1.22209513 -0.253646284 -4.55039167 -1.85920691 -0.386700481 1.25310624 -1.14189291 -0.500483394 -4.55039167 -1.73712432 -0.762432039 1.50479162 -1.01212323 -0.725251436 -4.55039167 -1.53959072 -1.10457051 1.75647676 -0.838457167 -0.91812712 -4.5503912 -1.27523923 -1.39816296 2.00816226 -0.628485024 -1.07068086 -4.5503912 -0.955623031 -1.63037789 2.25984716 -0.955623031 -1.63037789 2.25984716 -0.314854085 -0.536382496 2.25094819 -1.27523839 1.41056788 -0.00532034226 -0.838456511 0.927070737 -4.55039167 -0.955622017 1.64278257 -0.257005274 -0.628484428 1.07962441 -4.55039215 -0.594709992 1.80347085 -0.508691013 -0.391382843 1.18518865 -4.55039215 -0.208275691 1.88560987 -0.760376334 -0.137514606 1.23914993 -4.55039215 0.186791539 1.88560987 -1.01206124 0.122025274 1.23914981 -4.55039215 0.573225737 1.80347061 -1.26374698 0.375893414 1.18518841 -4.55039167 0.934137702 1.64278221 -1.51543188 0.61299479 1.07962382 -4.55039215 0.934137702 1.64278221 -1.51543188 0.573225737 1.80347061 -1.26374698 0.307093978 0.540862799 -0.476253033 0.188312456 0.593747795 -0.294439405 0.186791539 1.88560987 -1.01206124 0.0611312948 0.620780826 -0.112626165 -0.208275691 1.88560987 -0.760376334 -0.0688912421 0.620780826 0.0691874623 -0.594709992 1.80347085 -0.508691013 -0.19607237 0.593747973 0.251000494 -0.955622017 1.64278257 -0.257005274 -0.314853996 0.540862918 0.432814121 -1.27523839 1.41056788 -0.00532034226 -0.420044422 0.464437664 0.614627779 -1.53959012 1.11697567 0.246365443 -0.507046402 0.367811918 0.796441197 -1.73712397 0.774837017 0.498050541 -0.572057724 0.255209118 0.978254378 1.27523935 1.41056693 0.749735773 0.955623329 1.64278185 1.00142109 0.420044571 0.464437425 1.1600678 0.314854413 0.540862739 1.34188092 0.594711304 1.80347049 1.25310624 0.196072936 0.593747854 1.52369428 0.208277047 1.88560987 1.50479162 0.0688916817 0.620781064 1.70550835 -0.186790392 1.8856101 1.75647676 -0.0611307696 0.620780826 1.88732135 -0.573224723 1.80347109 2.00816226 -0.188312069 0.593747795 2.06913495 1.01212323 0.734194398 -4.55039167 1.73712444 0.774835944 0.246365443 1.14189315 0.509426236 -4.55039167 1.53959072 1.11697483 0.498050541 0.838457346 0.927070081 -4.55039167 1.27523935 1.41056693 0.749735773 0.628485262 1.07962394 -4.55039167 0.955623329 1.64278185 1.00142109 0.391383797 1.18518865 -4.55039167 0.594711304 1.80347049 1.25310624 0.1375155 1.23914993 -4.55039167 0.208277047 1.88560987 1.50479162 -0.122024208 1.23915005 -4.55039167 -0.186790392 1.8856101 1.75647676 -0.37589249 1.18518877 -4.5503912 -0.573224723 1.80347109 2.00816226 -0.612994075 1.07962453 -4.5503912 -0.934136868 1.64278293 2.25984716 -0.934136868 1.64278293 2.25984716 -0.30709359 0.540862918 2.25094819 1.85920691 0.399104565 -0.00532034226 1.22209525 0.262589127 -4.55039167 1.90050256 0.00620133244 -0.257005274 1.24922454 0.00447098073 -4.55039215 1.85920644 -0.386701822 -0.508691013 1.22209501 -0.253647089 -4.55039215 1.73712373 -0.762433171 -0.760376334 1.14189255 -0.50048399 -4.55039215 1.53959 -1.10457146 -1.01206124 1.01212239 -0.725252092 -4.55039215 1.27523816 -1.39816356 -1.26374698 0.838456571 -0.918127656 -4.55039167 0.955621958 -1.63037825 -1.51543188 0.628484249 -1.07068121 -4.55039215 0.955621958 -1.63037825 -1.51543188 1.27523816 -1.39816356 -1.26374698 0.314854115 -0.536382616 -0.476253033 0.420044541 -0.459957331 -0.294439405 1.53959 -1.10457146 -1.01206124 0.50704658 -0.363331825 -0.112626165 1.73712373 -0.762433171 -0.760376334 0.572057724 -0.250729024 0.0691874623 1.85920644 -0.386701822 -0.508691013 0.612237155 -0.127070352 0.251000494 1.90050256 0.00620133244 -0.257005274 0.625828207 0.00223994884 0.432814121 1.85920691 0.399104565 -0.00532034226 0.612237155 0.131550163 0.614627779 1.73712444 0.774835944 0.246365443 0.572057962 0.255208969 0.796441197 1.53959072 1.11697483 0.498050541 0.507046819 0.367811859 0.978254378</float_array>
        <technique_common><accessor source="#vfx_kurp_0184-mesh-positions-array" count="192" stride="3"><param name="X" type="float"/><param name="Y" type="float"/><param name="Z" type="float"/></accessor></technique_common>
      </source>
      <source id="vfx_kurp_0184-mesh-normals">
        <float_array id="vfx_kurp_0184-mesh-normals-array" count="576">-0.445030694 -0.383675013 0.809160778 -0.380905799 -0.433285466 0.816807491 -0.644565167 -0.476996006 0.597503604 -0.553838966 -0.574796734 0.602387843 -0.314480244 -0.473124234 0.822955427 -0.44949022 -0.655795337 0.606540204 -0.246796803 -0.504307868 0.827505234 -0.334416278 -0.718450622 0.609913482 -0.178328531 -0.527887647 0.830381579 -0.21157907 -0.761653127 0.612469436 -0.109075067 -0.544656266 0.831536038 -0.0839649729 -0.784682505 0.614185029 0.105748655 -0.985704672 -0.131162198 0.0153590013 -0.991290098 -0.130797715 -0.101182328 -0.985237905 -0.138088406 0.217503815 -0.96808022 -0.124550305 0.308446344 -0.943011093 -0.124863653 0.41107878 -0.903820334 -0.118840404 0.497978394 -0.858970591 -0.119109371 0.587742214 -0.801033086 -0.113600553 0.66599238 -0.737222195 -0.113831386 0.739838187 -0.66393328 -0.108775259 0.805080788 -0.583069158 -0.108973766 0.860734689 -0.498250388 -0.104318483 0.909107554 -0.403243417 -0.104490204 0.945119325 -0.310983987 -0.100191921 0.973476933 -0.205606771 -0.100341997 0.989237973 -0.110101529 -0.0963632995 0.989992517 -0.101761395 -0.0977723616 0.994539225 -0.0438710127 -0.0946945795 -0.0680241413 -0.569224517 0.819363268 -0.00916218771 -0.814553452 0.580016145 -0.186699096 -0.972723862 -0.137665304 -0.303226554 -0.941706994 -0.145744961 -0.380080935 -0.913476638 -0.145254655 -0.4914778 -0.857119343 -0.154259536 -0.556643349 -0.816411052 -0.153691823 -0.657639632 -0.735310982 -0.163792165 -0.709054234 -0.68602425 -0.163134367 -0.794390507 -0.581788426 -0.174544977 -0.831117205 -0.528246577 -0.173780738 -0.895713789 -0.40349897 -0.186776307 -0.918054863 -0.350174898 -0.185883862 -0.957173592 -0.208542706 -0.200819956 -0.956020735 -0.219688674 -0.194322516 -0.972789738 -0.102245134 -0.207908774 -0.584303305 0.393306633 0.709858817 -0.602628778 0.363495863 0.710428965 -0.554364024 0.631689427 0.541893898 -0.619303044 0.569836792 0.540138659 -0.64149685 0.250605737 0.725036934 -0.70569677 0.448582774 0.548420973 -0.659211626 0.137432216 0.739291836 -0.768412407 0.315945534 0.556525644 -0.657371514 0.0278523748 0.75305175 -0.806429674 0.176467267 0.56438505 -0.638252484 -0.0749588966 0.766168996 -0.819571708 0.0346187454 0.571929854 -0.604578158 -0.168634763 0.77849057 -0.808430123 -0.105347066 0.579087845 -0.559271994 -0.251657457 0.789862875 -0.774265895 -0.239516187 0.585785217 -0.505215055 -0.323329661 0.800134788 -0.718895154 -0.36440123 0.591947212 -0.109756731 0.577245534 0.80916071 -0.184783074 0.546516962 0.81680746 -0.0908077368 0.796707936 0.597503489 -0.220868801 0.767037052 0.60238786 -0.252497226 0.50891012 0.82295543 -0.343189982 0.717167729 0.606540258 -0.313344811 0.465886361 0.827505243 -0.454988149 0.648838575 0.609913345 -0.367999707 0.418381099 0.830381522 -0.553821193 0.564059721 0.612469361 -0.4171485 0.366790294 0.831535934 -0.63757224 0.465057381 0.614185046 -0.906519457 0.401271664 -0.131162209 -0.866161823 0.482343912 -0.130797729 -0.802649645 0.580245753 -0.138088425 -0.947133969 0.295676294 -0.124550284 -0.970894666 0.204383516 -0.124863628 -0.988270704 0.0959060792 -0.118840397 -0.992879552 -0.00177663527 -0.11910936 -0.987586149 -0.108482742 -0.113600583 -0.971449346 -0.208155179 -0.113831405 -0.944902177 -0.308752029 -0.108775272 -0.90749326 -0.405685466 -0.108973782 -0.861864933 -0.496292745 -0.104318493 -0.803772736 -0.585688642 -0.104490212 -0.741879839 -0.663005189 -0.100191938 -0.664799463 -0.74025209 -0.100342 -0.589969974 -0.801654254 -0.096363303 -0.583125118 -0.806477313 -0.0977723976 -0.535263419 -0.839360476 -0.0946945772 -0.458950571 0.343523198 0.819363281 -0.700842628 0.415211772 0.580016203 -0.749053821 0.648048328 -0.137665314 -0.663929032 0.733455285 -0.145744932 -0.601053408 0.785898137 -0.145254669 -0.496548106 0.854192002 -0.15425953 -0.428710818 0.890272914 -0.153691813 -0.307977736 0.937188269 -0.163792134 -0.239587078 0.957071163 -0.163134363 -0.106648114 0.978856595 -0.17454497 -0.0419161917 0.983891908 -0.17378074 0.0984166626 0.977460374 -0.186776278 0.155767424 0.970146226 -0.185883862 0.297984119 0.933207798 -0.200819996 0.287754776 0.937782473 -0.194322468 0.397849201 0.89358264 -0.207908824 0.632765361 0.309368048 0.709858725 0.616111216 0.340143738 0.71042889 0.824241327 0.1642483 0.541893652 0.803144769 0.251413648 0.540138554 0.537779397 0.430249666 0.725036927 0.741332281 0.386859977 0.548421195 0.448625717 0.502177779 0.739291853 0.657823527 0.507491726 0.556525251 0.352806805 0.555374202 0.753051694 0.556040154 0.610154792 0.564385043 0.254210086 0.590222301 0.766168955 0.43976665 0.692460425 0.571929938 0.15624726 0.607897406 0.77849055 0.312981902 0.752794382 0.57908803 0.0616944513 0.610172457 0.789862879 0.179705964 0.790291913 0.585785335 -0.0274038882 0.599193968 0.800134748 0.043867211 0.804782079 0.591947188 0.554787713 -0.19357065 0.809160675 0.565689137 -0.113231687 0.816807435 0.735373179 -0.319712094 0.597503527 0.774708037 -0.192240686 0.602387729 0.566977689 -0.0357860295 0.822955443 0.792680423 -0.0613726437 0.606540308 0.560141858 0.0384213475 0.827505226 0.789404758 0.0696119748 0.609913355 0.546328433 0.109506475 0.830381584 0.765400586 0.197593361 0.612469433 0.526223956 0.177866071 0.831535933 0.721537591 0.31962505 0.614185096 0.800771243 0.584432965 -0.131162212 0.85080314 0.508945944 -0.130797715 0.903832336 0.404992232 -0.138088378 0.729630338 0.672403741 -0.124550303 0.662448874 0.738627483 -0.124863653 0.5771923 0.807914605 -0.118840395 0.494901735 0.860746901 -0.119109382 0.399844322 0.909516043 -0.113600553 0.305457326 0.945377298 -0.113831394 0.205064444 0.97268521 -0.108775257 0.10241238 0.988754986 -0.108973764 0.00113070091 0.994543296 -0.10431852 -0.105334772 0.988931938 -0.104490226 -0.203239542 0.973989353 -0.100191957 -0.308677021 0.945859384 -0.100342029 -0.399267853 0.911756159 -0.0963633136 -0.406866822 0.908240027 -0.0977724053 -0.459275578 0.883232066 -0.0946945706 0.526975157 0.225701273 0.81936324 0.710005233 0.399341588 0.580016263 0.935753221 0.324675498 -0.137665286 0.96715542 0.208251809 -0.145744908 0.981134482 0.127578274 -0.145254643 0.988026031 0.00292707609 -0.154259504 0.985354342 -0.0738624467 -0.153691765 0.96561763 -0.201878021 -0.163792114 0.948641429 -0.271047297 -0.163134308 0.90103854 -0.397068774 -0.174544948 0.873033363 -0.45564569 -0.173780758 0.797297217 -0.573961481 -0.186776245 0.762287471 -0.61997179 -0.185883813 0.659189864 -0.724665505 -0.20081989 0.66826601 -0.718094242 -0.194322411 0.574940742 -0.791338803 -0.207908735 -0.0484622113 -0.702674854 0.709858763 -0.0134825997 -0.703639756 0.710428964 -0.269877797 -0.795938032 0.541893554 -0.183842106 -0.821250612 0.54013842 0.103717322 -0.680855465 0.725036932 -0.0356357954 -0.835442601 0.548421143 0.210585875 -0.639610166 0.73929184 0.110589044 -0.823437585 0.556525478 0.30456466 -0.583226869 0.75305165 0.250389398 -0.78662235 0.564385 0.384042355 -0.515263621 0.766168957 0.379804908 -0.727079448 0.57192981 0.448330901 -0.439262799 0.778490589 0.495448083 -0.647447646 0.579087854 0.497577612 -0.358515206 0.789862878 0.594559908 -0.550776064 0.585785151 0.532619166 -0.275864445 0.800134759 0.675028091 -0.440381023 0.591947321</float_array>
        <technique_common><accessor source="#vfx_kurp_0184-mesh-normals-array" count="192" stride="3"><param name="X" type="float"/><param name="Y" type="float"/><param name="Z" type="float"/></accessor></technique_common>
      </source>
      <source id="vfx_kurp_0184-mesh-uv0">
        <float_array id="vfx_kurp_0184-mesh-uv0-array" count="384">0.5 -0.0999997854 0.5 -0.166666508 0 -0.0999997854 0 -0.166666508 0.5 -0.233333111 0 -0.233333111 0.5 -0.299999833 0 -0.299999833 0.5 -0.366666555 0 -0.366666555 0.5 -0.433333158 0 -0.433333158 1 -0.0333331823 0.5 0.03333354 1 0.03333354 0.5 -0.0333331823 1 -0.0999997854 0.5 -0.0999997854 1 -0.166666508 0.5 -0.166666508 1 -0.233333111 0.5 -0.233333111 1 -0.299999833 0.5 -0.299999833 1 -0.366666555 0.5 -0.366666555 1 -0.433333158 0.5 -0.433333158 1 -0.499999762 0.5 -0.499999762 0.5 -0.499999762 0 -0.499999762 0.5 0.100000143 1 0.100000143 0.5 0.166666865 1 0.166666865 0.5 0.233333588 1 0.233333588 0.5 0.300000191 1 0.300000191 0.5 0.366666913 1 0.366666913 0.5 0.433333516 1 0.433333516 0.5 0.500000238 1 0.500000238 0.5 0.500000238 0.5 0.433333516 0 0.500000238 0 0.433333516 0.5 0.366666913 0 0.366666913 0.5 0.300000191 0 0.300000191 0.5 0.233333588 0 0.233333588 0.5 0.166666865 0 0.166666865 0.5 0.100000143 0 0.100000143 0.5 0.03333354 0 0.03333354 0.5 -0.0333331823 0 -0.0333331823 0.5 -0.0999997854 0.5 -0.166666508 0 -0.0999997854 0 -0.166666508 0.5 -0.233333111 0 -0.233333111 0.5 -0.299999833 0 -0.299999833 0.5 -0.366666555 0 -0.366666555 0.5 -0.433333158 0 -0.433333158 1 -0.0333331823 0.5 0.03333354 1 0.03333354 0.5 -0.0333331823 1 -0.0999997854 0.5 -0.0999997854 1 -0.166666508 0.5 -0.166666508 1 -0.233333111 0.5 -0.233333111 1 -0.299999833 0.5 -0.299999833 1 -0.366666555 0.5 -0.366666555 1 -0.433333158 0.5 -0.433333158 1 -0.499999762 0.5 -0.499999762 0.5 -0.499999762 0 -0.499999762 0.5 0.100000143 1 0.100000143 0.5 0.166666865 1 0.166666865 0.5 0.233333588 1 0.233333588 0.5 0.300000191 1 0.300000191 0.5 0.366666913 1 0.366666913 0.5 0.433333516 1 0.433333516 0.5 0.500000238 1 0.500000238 0.5 0.500000238 0.5 0.433333516 0 0.500000238 0 0.433333516 0.5 0.366666913 0 0.366666913 0.5 0.300000191 0 0.300000191 0.5 0.233333588 0 0.233333588 0.5 0.166666865 0 0.166666865 0.5 0.100000143 0 0.100000143 0.5 0.03333354 0 0.03333354 0.5 -0.0333331823 0 -0.0333331823 0.5 -0.0999997854 0.5 -0.166666508 0 -0.0999997854 0 -0.166666508 0.5 -0.233333111 0 -0.233333111 0.5 -0.299999833 0 -0.299999833 0.5 -0.366666555 0 -0.366666555 0.5 -0.433333158 0 -0.433333158 1 -0.0333331823 0.5 0.03333354 1 0.03333354 0.5 -0.0333331823 1 -0.0999997854 0.5 -0.0999997854 1 -0.166666508 0.5 -0.166666508 1 -0.233333111 0.5 -0.233333111 1 -0.299999833 0.5 -0.299999833 1 -0.366666555 0.5 -0.366666555 1 -0.433333158 0.5 -0.433333158 1 -0.499999762 0.5 -0.499999762 0.5 -0.499999762 0 -0.499999762 0.5 0.100000143 1 0.100000143 0.5 0.166666865 1 0.166666865 0.5 0.233333588 1 0.233333588 0.5 0.300000191 1 0.300000191 0.5 0.366666913 1 0.366666913 0.5 0.433333516 1 0.433333516 0.5 0.500000238 1 0.500000238 0.5 0.500000238 0.5 0.433333516 0 0.500000238 0 0.433333516 0.5 0.366666913 0 0.366666913 0.5 0.300000191 0 0.300000191 0.5 0.233333588 0 0.233333588 0.5 0.166666865 0 0.166666865 0.5 0.100000143 0 0.100000143 0.5 0.03333354 0 0.03333354 0.5 -0.0333331823 0 -0.0333331823</float_array>
        <technique_common><accessor source="#vfx_kurp_0184-mesh-uv0-array" count="192" stride="2"><param name="S" type="float"/><param name="T" type="float"/></accessor></technique_common>
      </source>
      <vertices id="vfx_kurp_0184-mesh-vertices"><input semantic="POSITION" source="#vfx_kurp_0184-mesh-positions"/></vertices>
      <triangles material="PreviewMaterial" count="180">
        <input semantic="VERTEX" source="#vfx_kurp_0184-mesh-vertices" offset="0"/>
        <input semantic="NORMAL" source="#vfx_kurp_0184-mesh-normals" offset="1"/>
        <input semantic="TEXCOORD" source="#vfx_kurp_0184-mesh-uv0" offset="2" set="0"/>
        <p>0 0 0 1 1 1 2 2 2 2 2 2 1 1 1 3 3 3 4 4 4 3 3 3 1 1 1 3 3 3 4 4 4 5 5 5 6 6 6 5 5 5 4 4 4 5 5 5 6 6 6 7 7 7 8 8 8 7 7 7 6 6 6 7 7 7 8 8 8 9 9 9 10 10 10 9 9 9 8 8 8 9 9 9 10 10 10 11 11 11 12 12 12 13 13 13 14 14 14 13 13 13 12 12 12 15 15 15 16 16 16 15 15 15 12 12 12 15 15 15 16 16 16 17 17 17 18 18 18 17 17 17 16 16 16 17 17 17 18 18 18 19 19 19 20 20 20 19 19 19 18 18 18 19 19 19 20 20 20 21 21 21 22 22 22 21 21 21 20 20 20 21 21 21 22 22 22 23 23 23 24 24 24 23 23 23 22 22 22 23 23 23 24 24 24 25 25 25 26 26 26 25 25 25 24 24 24 25 25 25 26 26 26 27 27 27 28 28 28 27 27 27 26 26 26 29 29 29 27 27 27 28 28 28 10 10 10 30 30 30 11 11 11 31 31 31 11 11 11 30 30 30 13 13 13 32 32 32 14 14 14 14 14 14 32 32 32 33 33 33 34 34 34 33 33 33 32 32 32 33 33 33 34 34 34 35 35 35 36 36 36 35 35 35 34 34 34 35 35 35 36 36 36 37 37 37 38 38 38 37 37 37 36 36 36 37 37 37 38 38 38 39 39 39 40 40 40 39 39 39 38 38 38 39 39 39 40 40 40 41 41 41 42 42 42 41 41 41 40 40 40 41 41 41 42 42 42 43 43 43 44 44 44 43 43 43 42 42 42 43 43 43 44 44 44 45 45 45 46 46 46 47 47 47 48 48 48 48 48 48 47 47 47 49 49 49 50 50 50 49 49 49 47 47 47 49 49 49 50 50 50 51 51 51 52 52 52 51 51 51 50 50 50 51 51 51 52 52 52 53 53 53 54 54 54 53 53 53 52 52 52 53 53 53 54 54 54 55 55 55 56 56 56 55 55 55 54 54 54 55 55 55 56 56 56 57 57 57 58 58 58 57 57 57 56 56 56 57 57 57 58 58 58 59 59 59 60 60 60 59 59 59 58 58 58 59 59 59 60 60 60 61 61 61 62 62 62 61 61 61 60 60 60 61 61 61 62 62 62 63 63 63 0 0 0 63 63 63 62 62 62 63 63 63 0 0 0 2 2 2 64 64 64 65 65 65 66 66 66 66 66 66 65 65 65 67 67 67 68 68 68 67 67 67 65 65 65 67 67 67 68 68 68 69 69 69 70 70 70 69 69 69 68 68 68 69 69 69 70 70 70 71 71 71 72 72 72 71 71 71 70 70 70 71 71 71 72 72 72 73 73 73 74 74 74 73 73 73 72 72 72 73 73 73 74 74 74 75 75 75 76 76 76 77 77 77 78 78 78 77 77 77 76 76 76 79 79 79 80 80 80 79 79 79 76 76 76 79 79 79 80 80 80 81 81 81 82 82 82 81 81 81 80 80 80 81 81 81 82 82 82 83 83 83 84 84 84 83 83 83 82 82 82 83 83 83 84 84 84 85 85 85 86 86 86 85 85 85 84 84 84 85 85 85 86 86 86 87 87 87 88 88 88 87 87 87 86 86 86 87 87 87 88 88 88 89 89 89 90 90 90 89 89 89 88 88 88 89 89 89 90 90 90 91 91 91 92 92 92 91 91 91 90 90 90 93 93 93 91 91 91 92 92 92 74 74 74 94 94 94 75 75 75 95 95 95 75 75 75 94 94 94 77 77 77 96 96 96 78 78 78 78 78 78 96 96 96 97 97 97 98 98 98 97 97 97 96 96 96 97 97 97 98 98 98 99 99 99 100 100 100 99 99 99 98 98 98 99 99 99 100 100 100 101 101 101 102 102 102 101 101 101 100 100 100 101 101 101 102 102 102 103 103 103 104 104 104 103 103 103 102 102 102 103 103 103 104 104 104 105 105 105 106 106 106 105 105 105 104 104 104 105 105 105 106 106 106 107 107 107 108 108 108 107 107 107 106 106 106 107 107 107 108 108 108 109 109 109 110 110 110 111 111 111 112 112 112 112 112 112 111 111 111 113 113 113 114 114 114 113 113 113 111 111 111 113 113 113 114 114 114 115 115 115 116 116 116 115 115 115 114 114 114 115 115 115 116 116 116 117 117 117 118 118 118 117 117 117 116 116 116 117 117 117 118 118 118 119 119 119 120 120 120 119 119 119 118 118 118 119 119 119 120 120 120 121 121 121 122 122 122 121 121 121 120 120 120 121 121 121 122 122 122 123 123 123 124 124 124 123 123 123 122 122 122 123 123 123 124 124 124 125 125 125 126 126 126 125 125 125 124 124 124 125 125 125 126 126 126 127 127 127 64 64 64 127 127 127 126 126 126 127 127 127 64 64 64 66 66 66 128 128 128 129 129 129 130 130 130 130 130 130 129 129 129 131 131 131 132 132 132 131 131 131 129 129 129 131 131 131 132 132 132 133 133 133 134 134 134 133 133 133 132 132 132 133 133 133 134 134 134 135 135 135 136 136 136 135 135 135 134 134 134 135 135 135 136 136 136 137 137 137 138 138 138 137 137 137 136 136 136 137 137 137 138 138 138 139 139 139 140 140 140 141 141 141 142 142 142 141 141 141 140 140 140 143 143 143 144 144 144 143 143 143 140 140 140 143 143 143 144 144 144 145 145 145 146 146 146 145 145 145 144 144 144 145 145 145 146 146 146 147 147 147 148 148 148 147 147 147 146 146 146 147 147 147 148 148 148 149 149 149 150 150 150 149 149 149 148 148 148 149 149 149 150 150 150 151 151 151 152 152 152 151 151 151 150 150 150 151 151 151 152 152 152 153 153 153 154 154 154 153 153 153 152 152 152 153 153 153 154 154 154 155 155 155 156 156 156 155 155 155 154 154 154 157 157 157 155 155 155 156 156 156 138 138 138 158 158 158 139 139 139 159 159 159 139 139 139 158 158 158 141 141 141 160 160 160 142 142 142 142 142 142 160 160 160 161 161 161 162 162 162 161 161 161 160 160 160 161 161 161 162 162 162 163 163 163 164 164 164 163 163 163 162 162 162 163 163 163 164 164 164 165 165 165 166 166 166 165 165 165 164 164 164 165 165 165 166 166 166 167 167 167 168 168 168 167 167 167 166 166 166 167 167 167 168 168 168 169 169 169 170 170 170 169 169 169 168 168 168 169 169 169 170 170 170 171 171 171 172 172 172 171 171 171 170 170 170 171 171 171 172 172 172 173 173 173 174 174 174 175 175 175 176 176 176 176 176 176 175 175 175 177 177 177 178 178 178 177 177 177 175 175 175 177 177 177 178 178 178 179 179 179 180 180 180 179 179 179 178 178 178 179 179 179 180 180 180 181 181 181 182 182 182 181 181 181 180 180 180 181 181 181 182 182 182 183 183 183 184 184 184 183 183 183 182 182 182 183 183 183 184 184 184 185 185 185 186 186 186 185 185 185 184 184 184 185 185 185 186 186 186 187 187 187 188 188 188 187 187 187 186 186 186 187 187 187 188 188 188 189 189 189 190 190 190 189 189 189 188 188 188 189 189 189 190 190 190 191 191 191 128 128 128 191 191 191 190 190 190 191 191 191 128 128 128 130 130 130</p>
      </triangles>
    </mesh></geometry>
  </library_geometries>
  <library_visual_scenes>
    <visual_scene id="Scene" name="Scene">
      <node id="vfx_kurp_0184" name="vfx_kurp_0184" type="NODE">
        <instance_geometry url="#vfx_kurp_0184-mesh"><bind_material><technique_common><instance_material symbol="PreviewMaterial" target="#PreviewMaterial"><bind_vertex_input semantic="UVSET0" input_semantic="TEXCOORD" input_set="0"/></instance_material></technique_common></bind_material></instance_geometry>
      </node>
    </visual_scene>
  </library_visual_scenes>
  <scene><instance_visual_scene url="#Scene"/></scene>
</COLLADA>
