<?xml version="1.0" encoding="utf-8"?>
<COLLADA xmlns="http://www.collada.org/2005/11/COLLADASchema" version="1.4.1">
  <asset>
    <contributor><authoring_tool>Morrobroom Kurpulio VFX preview converter</authoring_tool></contributor>
    <unit name="unit" meter="1"/>
    <up_axis>Z_UP</up_axis>
  </asset>
  <library_images>
    <image id="VFXTexture" name="darkmap_newgen-1.dds">
      <init_from>../../../Textures/Kurp/darkmap_newgen-1.dds</init_from>
    </image>
  </library_images>
  <library_effects>
    <effect id="PreviewEffect">
      <profile_COMMON>
        <newparam sid="VFXTexture-surface">
          <surface type="2D"><init_from>VFXTexture</init_from></surface>
        </newparam>
        <newparam sid="VFXTexture-sampler">
          <sampler2D><source>VFXTexture-surface</source></sampler2D>
        </newparam>
        <technique sid="common"><phong>
          <emission><color>0.08 0.08 0.08 1</color></emission>
          <ambient><color>0.2 0.2 0.2 1</color></ambient>
          <diffuse><texture texture="VFXTexture-sampler" texcoord="UVSET0"/></diffuse>
          <specular><color>0.15 0.15 0.15 1</color></specular>
          <shininess><float>8</float></shininess>
          <transparent opaque="A_ONE"><texture texture="VFXTexture-sampler" texcoord="UVSET0"/></transparent>
          <transparency><float>1</float></transparency>
        </phong></technique>
      </profile_COMMON>
      <extra><technique profile="GOOGLEEARTH"><double_sided>1</double_sided></technique></extra>
    </effect>
  </library_effects>
  <library_materials><material id="PreviewMaterial" name="PreviewMaterial"><instance_effect url="#PreviewEffect"/></material></library_materials>
  <library_geometries>
    <geometry id="vfx_kurp_0640-mesh" name="vfx_kurp_0640"><mesh>
      <source id="vfx_kurp_0640-mesh-positions">
        <float_array id="vfx_kurp_0640-mesh-positions-array" count="315">6.35357272e-08 -0.262727223 0.186096646 -0.0811870764 -0.249868457 0.186096646 3.51228046e-07 -1.69713879 0.186076239 -0.524444262 -1.61407514 0.186076239 4.50460884e-07 -2.29065424 0.186044488 -0.707850187 -2.1785423 0.186044488 4.75186649e-07 -2.62686199 0.186004501 -0.811744074 -2.49829436 0.186004501 4.85117404e-07 -2.76204729 0.185960121 -0.853518566 -2.62686265 0.185960121 -0.154427113 -0.212550894 0.186096646 -0.997552754 -1.37301472 0.186076239 -1.34641196 -1.85317918 0.186044488 -1.54402993 -2.12517684 0.186004467 -1.62348982 -2.23454303 0.185960121 -0.212550781 -0.154427277 0.186096646 -1.3730137 -0.997553615 0.186076239 -1.8531777 -1.3464135 0.186044488 -2.12517584 -1.544032 0.186004467 -2.23454201 -1.62349103 0.18596011 -0.249868433 -0.0811872748 0.186096646 -1.61407445 -0.52444533 0.186076239 -2.17854155 -0.707851918 0.186044488 -2.49829393 -0.811745902 0.186004467 -2.6268624 -0.853520343 0.18596011 -0.262727223 -8.96916873e-08 0.186096646 -1.69713914 -5.49374815e-07 0.186076239 -2.29065424 -7.46034135e-07 0.186044488 -2.62686199 -8.59529009e-07 0.186004467 -2.76204729 -9.07719736e-07 0.18596011 -0.249868457 0.0811870932 0.186096646 -1.61407532 0.524444307 0.186076239 -2.17854212 0.707850455 0.186044488 -2.49829418 0.811744253 0.186004467 -2.62686265 0.853518656 0.18596011 -0.21255085 0.154427146 0.186096646 -1.37301427 0.997552933 0.186076239 -1.85317918 1.34641223 0.186044488 -2.12517702 1.54403011 0.186004467 -2.23454321 1.62348982 0.185960121 -0.154427277 0.212550803 0.186096646 -0.997553705 1.37301379 0.186076239 -1.34641315 1.8531777 0.186044488 -1.54403164 2.12517584 0.186004501 -1.62349085 2.23454218 0.185960121 -0.081187258 0.249868478 0.186096646 -0.52444533 1.61407445 0.186076239 -0.707851694 2.17854209 0.186044488 -0.811745633 2.49829411 0.186004501 -0.853520343 2.62686204 0.185960121 -6.17423865e-08 0.262727246 0.186096646 -4.58030831e-07 1.69713897 0.186076239 -6.41808196e-07 2.29065424 0.186044488 -7.77398739e-07 2.62686199 0.186004501 -8.31929311e-07 2.76204729 0.185960121 0.0811871267 0.249868502 0.186096646 0.524444351 1.61407514 0.186076239 0.70785041 2.17854248 0.18604451 0.811744253 2.49829436 0.186004501 0.853518656 2.62686265 0.185960121 0.154427146 0.212550894 0.186096646 0.997553022 1.37301436 0.186076239 1.34641259 1.85317918 0.18604451 1.54403011 2.12517666 0.186004501 1.62348982 2.23454303 0.185960144 0.212550781 0.154427244 0.186096646 1.37301406 0.997553705 0.186076239 1.85317806 1.34641315 0.18604451 2.12517566 1.54403129 0.186004501 2.23454218 1.62349067 0.185960144 0.249868478 0.081187258 0.186096646 1.61407463 0.524445196 0.186076239 2.17854209 0.707851694 0.18604451 2.49829393 0.811745633 0.186004523 2.62686186 0.853519896 0.185960144 0.262727223 5.85547729e-08 0.186096646 1.69713897 4.08252762e-07 0.186076239 2.29065406 5.46490303e-07 0.18604451 2.62686199 6.22704092e-07 0.186004523 2.76204729 6.50792754e-07 0.185960144 0.249868502 -0.0811871267 0.186096646 1.61407514 -0.524444396 0.186076239 2.1785423 -0.707850768 0.18604451 2.49829418 -0.811744611 0.186004501 2.62686212 -0.853518834 0.185960144 0.212550894 -0.154427146 0.186096646 1.37301454 -0.997553201 0.186076239 1.85317864 -1.3464125 0.18604451 2.12517666 -1.54403029 0.186004501 2.23454267 -1.62349017 0.185960144 0.154427244 -0.212550848 0.186096646 0.997553615 -1.37301397 0.186076239 1.34641315 -1.85317788 0.18604451 1.54403111 -2.1251762 0.186004501 1.62349067 -2.23454218 0.185960121 0.081187258 -0.249868433 0.186096646 0.524445152 -1.61407499 0.186076239 0.707851784 -2.17854209 0.186044488 0.811745544 -2.49829411 0.186004501 0.853519807 -2.62686204 0.185960121 6.35357272e-08 -0.262727223 0.186096646 3.51228046e-07 -1.69713879 0.186076239 4.50460884e-07 -2.29065424 0.186044488 4.75186649e-07 -2.62686199 0.186004501 4.85117404e-07 -2.76204729 0.185960121</float_array>
        <technique_common><accessor source="#vfx_kurp_0640-mesh-positions-array" count="105" stride="3"><param name="X" type="float"/><param name="Y" type="float"/><param name="Z" type="float"/></accessor></technique_common>
      </source>
      <source id="vfx_kurp_0640-mesh-normals">
        <float_array id="vfx_kurp_0640-mesh-normals-array" count="315">0 -1.42268364e-05 1 -4.39632481e-06 -1.35305288e-05 1 0 -3.5824818e-05 0.999999999 -1.10704562e-05 -3.40714303e-05 0.999999999 0 -8.94880574e-05 0.999999996 -2.76533117e-05 -8.51082843e-05 0.999999996 0 -0.000234078406 0.999999973 -7.2350297e-05 -0.000222623208 0.999999973 0 -0.000328285621 0.999999946 -0.000101457383 -0.000312201376 0.999999946 -8.36231455e-06 -1.15097568e-05 1 -2.10573027e-05 -2.89828981e-05 0.999999999 -5.26360307e-05 -7.24308342e-05 0.999999996 -0.000137545791 -0.000189300162 0.999999973 -0.000192820565 -0.000265392418 0.999999946 -1.15097524e-05 -8.36232713e-06 1 -2.89828936e-05 -2.10573042e-05 0.999999999 -7.24416086e-05 -5.26319707e-05 0.999999996 -0.000189337941 -0.00013755765 0.999999973 -0.000265461278 -0.000192860779 0.999999946 -1.35305293e-05 -4.39633572e-06 1 -3.40713979e-05 -1.10705047e-05 0.999999999 -8.51603718e-05 -2.7670294e-05 0.999999996 -0.000222578439 -7.23202127e-05 0.999999973 -0.000312061705 -0.000101395174 0.999999946 -1.42268373e-05 0 1 -3.58248398e-05 0 0.999999999 -8.95429181e-05 0 0.999999996 -0.000234032305 0 0.999999973 -0.000328120283 0 0.999999946 -1.35305242e-05 4.39632709e-06 1 -3.40714412e-05 1.10704808e-05 0.999999999 -8.51604602e-05 2.76702665e-05 0.999999996 -0.000222578504 7.23200291e-05 0.999999973 -0.000312058243 0.000101392271 0.999999946 -1.15097577e-05 8.36231728e-06 1 -2.89828817e-05 2.10572882e-05 0.999999999 -7.24417627e-05 5.26319852e-05 0.999999996 -0.000189308413 0.000137517487 0.999999973 -0.000265414304 0.000192806711 0.999999946 -8.36233076e-06 1.15097497e-05 1 -2.10573078e-05 2.89829063e-05 0.999999999 -5.2611387e-05 7.23967668e-05 0.999999996 -0.000137592341 0.000189363756 0.999999973 -0.000192962963 0.000265590761 0.999999946 -4.39633345e-06 1.35305293e-05 1 -1.10705011e-05 3.4071387e-05 0.999999999 -2.76533483e-05 8.51082614e-05 0.999999996 -7.23345172e-05 0.000222622851 0.999999973 -0.000101446586 0.000312219884 0.999999946 0 1.42268382e-05 1 0 3.58248289e-05 0.999999999 -1.30451196e-08 8.94847031e-05 0.999999996 -4.5194749e-09 0.000234082713 0.999999973 0 0.000328285651 0.999999946 4.39632709e-06 1.3530527e-05 1 1.10601234e-05 3.40577552e-05 0.999999999 2.76498847e-05 8.51248444e-05 0.999999996 7.23436468e-05 0.000222650987 0.999999973 0.00010144086 0.000312212086 0.999999946 8.36232274e-06 1.1509754e-05 1 2.10451046e-05 2.89661234e-05 0.999999999 5.2611347e-05 7.24133064e-05 0.999999996 0.000137549109 0.00018933254 0.999999973 0.000192854806 0.000265464101 0.999999946 1.15097488e-05 8.36232804e-06 1 2.89661461e-05 2.10451242e-05 0.999999999 7.24132178e-05 5.26113143e-05 0.999999996 0.000189316011 0.000137558494 0.999999973 0.00026545764 0.000192879609 0.999999946 1.35305256e-05 4.39633299e-06 1 3.40517019e-05 1.106409e-05 0.999999999 8.50942988e-05 2.76555966e-05 0.999999996 0.000222616957 7.23391811e-05 0.999999973 0.000312220263 0.000101446578 0.999999946 1.42268382e-05 0 1 3.58041179e-05 0 0.999999999 8.94710898e-05 0 0.999999996 0.000234082146 -9.79099227e-09 0.999999973 0.000328276483 -1.05783036e-08 0.999999946 1.35305261e-05 -4.39632572e-06 1 3.40517307e-05 -1.10640516e-05 0.999999999 8.51208717e-05 -2.76642293e-05 0.999999996 0.000222567139 -7.23229976e-05 0.999999973 0.000312063074 -0.000101395501 0.999999946 1.15097549e-05 -8.36231728e-06 1 2.89661416e-05 -2.10451355e-05 0.999999999 7.24132409e-05 -5.2611296e-05 0.999999996 0.000189325148 -0.000137552514 0.999999973 0.00026546218 -0.000192873097 0.999999946 8.36232167e-06 -1.15097533e-05 1 2.10451351e-05 -2.89661389e-05 0.999999999 5.26027432e-05 -7.24234842e-05 0.999999996 0.00013759189 -0.000189398811 0.999999973 0.000192952544 -0.000265598561 0.999999946 4.39633208e-06 -1.35305275e-05 1 1.10637553e-05 -3.40688586e-05 0.999999999 2.76469109e-05 -8.51155737e-05 0.999999996 7.23346118e-05 -0.000222623026 0.999999973 0.000101446557 -0.000312220263 0.999999946 0 -1.42268364e-05 1 0 -3.5824818e-05 0.999999999 0 -8.94880574e-05 0.999999996 0 -0.000234078406 0.999999973 0 -0.000328285621 0.999999946</float_array>
        <technique_common><accessor source="#vfx_kurp_0640-mesh-normals-array" count="105" stride="3"><param name="X" type="float"/><param name="Y" type="float"/><param name="Z" type="float"/></accessor></technique_common>
      </source>
      <source id="vfx_kurp_0640-mesh-uv0">
        <float_array id="vfx_kurp_0640-mesh-uv0-array" count="210">1 0.100000024 0.949999988 0.100000024 1 0.199999988 0.949999988 0.199999988 1 0.300000012 0.949999988 0.300000012 1 0.399999976 0.949999988 0.399999976 1 0.5 0.949999988 0.5 0.899999976 0.100000024 0.899999976 0.199999988 0.899999976 0.300000012 0.899999976 0.399999976 0.899999976 0.5 0.849999964 0.100000024 0.849999964 0.199999988 0.849999964 0.300000012 0.849999964 0.399999976 0.849999964 0.5 0.800000012 0.100000024 0.800000012 0.199999988 0.800000012 0.300000012 0.800000012 0.399999976 0.800000012 0.5 0.75 0.100000024 0.75 0.199999988 0.75 0.300000012 0.75 0.399999976 0.75 0.5 0.699999988 0.100000024 0.699999988 0.199999988 0.699999988 0.300000012 0.699999988 0.399999976 0.699999988 0.5 0.649999976 0.100000024 0.649999976 0.199999988 0.649999976 0.300000012 0.649999976 0.399999976 0.649999976 0.5 0.599999964 0.100000024 0.599999964 0.199999988 0.599999964 0.300000012 0.599999964 0.399999976 0.599999964 0.5 0.550000012 0.100000024 0.550000012 0.199999988 0.550000012 0.300000012 0.550000012 0.399999976 0.550000012 0.5 0.5 0.100000024 0.5 0.199999988 0.5 0.300000012 0.5 0.399999976 0.5 0.5 0.449999988 0.100000024 0.449999988 0.199999988 0.449999988 0.300000012 0.449999988 0.399999976 0.449999988 0.5 0.400000006 0.100000024 0.400000006 0.199999988 0.400000006 0.300000012 0.400000006 0.399999976 0.400000006 0.5 0.349999994 0.100000024 0.349999994 0.199999988 0.349999994 0.300000012 0.349999994 0.399999976 0.349999994 0.5 0.299999982 0.100000024 0.299999982 0.199999988 0.299999982 0.300000012 0.299999982 0.399999976 0.299999982 0.5 0.25 0.100000024 0.25 0.199999988 0.25 0.300000012 0.25 0.399999976 0.25 0.5 0.200000003 0.100000024 0.200000003 0.199999988 0.200000003 0.300000012 0.200000003 0.399999976 0.200000003 0.5 0.149999991 0.100000024 0.149999991 0.199999988 0.149999991 0.300000012 0.149999991 0.399999976 0.149999991 0.5 0.100000001 0.100000024 0.100000001 0.199999988 0.100000001 0.300000012 0.100000001 0.399999976 0.100000001 0.5 0.0500000007 0.100000024 0.0500000007 0.199999988 0.0500000007 0.300000012 0.0500000007 0.399999976 0.0500000007 0.5 0 0.100000024 0 0.199999988 0 0.300000012 0 0.399999976 0 0.5</float_array>
        <technique_common><accessor source="#vfx_kurp_0640-mesh-uv0-array" count="105" stride="2"><param name="S" type="float"/><param name="T" type="float"/></accessor></technique_common>
      </source>
      <source id="vfx_kurp_0640-mesh-colors">
        <float_array id="vfx_kurp_0640-mesh-colors-array" count="420">0.0392156877 0.0392156877 0.0392156877 0 0.0392156877 0.0392156877 0.0392156877 0 0.0392156877 0.0392156877 0.0392156877 0.599999964 0.0392156877 0.0392156877 0.0392156877 0.599999964 0.0392156877 0.0392156877 0.0392156877 1 0.0392156877 0.0392156877 0.0392156877 1 0.0392156877 0.0392156877 0.0392156877 0.550000012 0.0392156877 0.0392156877 0.0392156877 0.550000012 0.0392156877 0.0392156877 0.0392156877 0 0.0392156877 0.0392156877 0.0392156877 0 0.0392156877 0.0392156877 0.0392156877 0 0.0392156877 0.0392156877 0.0392156877 0.599999964 0.0392156877 0.0392156877 0.0392156877 1 0.0392156877 0.0392156877 0.0392156877 0.550000012 0.0392156877 0.0392156877 0.0392156877 0 0.0392156877 0.0392156877 0.0392156877 0 0.0392156877 0.0392156877 0.0392156877 0.599999964 0.0392156877 0.0392156877 0.0392156877 1 0.0392156877 0.0392156877 0.0392156877 0.550000012 0.0392156877 0.0392156877 0.0392156877 0 0.0392156877 0.0392156877 0.0392156877 0 0.0392156877 0.0392156877 0.0392156877 0.599999964 0.0392156877 0.0392156877 0.0392156877 1 0.0392156877 0.0392156877 0.0392156877 0.550000012 0.0392156877 0.0392156877 0.0392156877 0 0.0392156877 0.0392156877 0.0392156877 0 0.0392156877 0.0392156877 0.0392156877 0.599999964 0.0392156877 0.0392156877 0.0392156877 1 0.0392156877 0.0392156877 0.0392156877 0.550000012 0.0392156877 0.0392156877 0.0392156877 0 0.0392156877 0.0392156877 0.0392156877 0 0.0392156877 0.0392156877 0.0392156877 0.599999964 0.0392156877 0.0392156877 0.0392156877 1 0.0392156877 0.0392156877 0.0392156877 0.550000012 0.0392156877 0.0392156877 0.0392156877 0 0.0392156877 0.0392156877 0.0392156877 0 0.0392156877 0.0392156877 0.0392156877 0.599999964 0.0392156877 0.0392156877 0.0392156877 1 0.0392156877 0.0392156877 0.0392156877 0.550000012 0.0392156877 0.0392156877 0.0392156877 0 0.0392156877 0.0392156877 0.0392156877 0 0.0392156877 0.0392156877 0.0392156877 0.599999964 0.0392156877 0.0392156877 0.0392156877 1 0.0392156877 0.0392156877 0.0392156877 0.550000012 0.0392156877 0.0392156877 0.0392156877 0 0.0392156877 0.0392156877 0.0392156877 0 0.0392156877 0.0392156877 0.0392156877 0.599999964 0.0392156877 0.0392156877 0.0392156877 1 0.0392156877 0.0392156877 0.0392156877 0.550000012 0.0392156877 0.0392156877 0.0392156877 0 0.0392156877 0.0392156877 0.0392156877 0 0.0392156877 0.0392156877 0.0392156877 0.599999964 0.0392156877 0.0392156877 0.0392156877 1 0.0392156877 0.0392156877 0.0392156877 0.550000012 0.0392156877 0.0392156877 0.0392156877 0 0.0392156877 0.0392156877 0.0392156877 0 0.0392156877 0.0392156877 0.0392156877 0.599999964 0.0392156877 0.0392156877 0.0392156877 1 0.0392156877 0.0392156877 0.0392156877 0.550000012 0.0392156877 0.0392156877 0.0392156877 0 0.0392156877 0.0392156877 0.0392156877 0 0.0392156877 0.0392156877 0.0392156877 0.599999964 0.0392156877 0.0392156877 0.0392156877 1 0.0392156877 0.0392156877 0.0392156877 0.550000012 0.0392156877 0.0392156877 0.0392156877 0 0.0392156877 0.0392156877 0.0392156877 0 0.0392156877 0.0392156877 0.0392156877 0.599999964 0.0392156877 0.0392156877 0.0392156877 1 0.0392156877 0.0392156877 0.0392156877 0.550000012 0.0392156877 0.0392156877 0.0392156877 0 0.0392156877 0.0392156877 0.0392156877 0 0.0392156877 0.0392156877 0.0392156877 0.599999964 0.0392156877 0.0392156877 0.0392156877 1 0.0392156877 0.0392156877 0.0392156877 0.550000012 0.0392156877 0.0392156877 0.0392156877 0 0.0392156877 0.0392156877 0.0392156877 0 0.0392156877 0.0392156877 0.0392156877 0.599999964 0.0392156877 0.0392156877 0.0392156877 1 0.0392156877 0.0392156877 0.0392156877 0.550000012 0.0392156877 0.0392156877 0.0392156877 0 0.0392156877 0.0392156877 0.0392156877 0 0.0392156877 0.0392156877 0.0392156877 0.599999964 0.0392156877 0.0392156877 0.0392156877 1 0.0392156877 0.0392156877 0.0392156877 0.550000012 0.0392156877 0.0392156877 0.0392156877 0 0.0392156877 0.0392156877 0.0392156877 0 0.0392156877 0.0392156877 0.0392156877 0.599999964 0.0392156877 0.0392156877 0.0392156877 1 0.0392156877 0.0392156877 0.0392156877 0.550000012 0.0392156877 0.0392156877 0.0392156877 0 0.0392156877 0.0392156877 0.0392156877 0 0.0392156877 0.0392156877 0.0392156877 0.599999964 0.0392156877 0.0392156877 0.0392156877 1 0.0392156877 0.0392156877 0.0392156877 0.550000012 0.0392156877 0.0392156877 0.0392156877 0 0.0392156877 0.0392156877 0.0392156877 0 0.0392156877 0.0392156877 0.0392156877 0.599999964 0.0392156877 0.0392156877 0.0392156877 1 0.0392156877 0.0392156877 0.0392156877 0.550000012 0.0392156877 0.0392156877 0.0392156877 0 0.0392156877 0.0392156877 0.0392156877 0 0.0392156877 0.0392156877 0.0392156877 0.599999964 0.0392156877 0.0392156877 0.0392156877 1 0.0392156877 0.0392156877 0.0392156877 0.550000012 0.0392156877 0.0392156877 0.0392156877 0</float_array>
        <technique_common><accessor source="#vfx_kurp_0640-mesh-colors-array" count="105" stride="4"><param name="R" type="float"/><param name="G" type="float"/><param name="B" type="float"/><param name="A" type="float"/></accessor></technique_common>
      </source>
      <vertices id="vfx_kurp_0640-mesh-vertices"><input semantic="POSITION" source="#vfx_kurp_0640-mesh-positions"/></vertices>
      <triangles material="PreviewMaterial" count="160">
        <input semantic="VERTEX" source="#vfx_kurp_0640-mesh-vertices" offset="0"/>
        <input semantic="NORMAL" source="#vfx_kurp_0640-mesh-normals" offset="1"/>
        <input semantic="TEXCOORD" source="#vfx_kurp_0640-mesh-uv0" offset="2" set="0"/>
        <input semantic="COLOR" source="#vfx_kurp_0640-mesh-colors" offset="3" set="0"/>
        <p>0 0 0 0 1 1 1 1 2 2 2 2 3 3 3 3 2 2 2 2 1 1 1 1 2 2 2 2 3 3 3 3 4 4 4 4 5 5 5 5 4 4 4 4 3 3 3 3 4 4 4 4 5 5 5 5 6 6 6 6 7 7 7 7 6 6 6 6 5 5 5 5 6 6 6 6 7 7 7 7 8 8 8 8 9 9 9 9 8 8 8 8 7 7 7 7 1 1 1 1 10 10 10 10 3 3 3 3 11 11 11 11 3 3 3 3 10 10 10 10 3 3 3 3 11 11 11 11 5 5 5 5 12 12 12 12 5 5 5 5 11 11 11 11 5 5 5 5 12 12 12 12 7 7 7 7 13 13 13 13 7 7 7 7 12 12 12 12 7 7 7 7 13 13 13 13 9 9 9 9 14 14 14 14 9 9 9 9 13 13 13 13 10 10 10 10 15 15 15 15 11 11 11 11 16 16 16 16 11 11 11 11 15 15 15 15 11 11 11 11 16 16 16 16 12 12 12 12 17 17 17 17 12 12 12 12 16 16 16 16 12 12 12 12 17 17 17 17 13 13 13 13 18 18 18 18 13 13 13 13 17 17 17 17 13 13 13 13 18 18 18 18 14 14 14 14 19 19 19 19 14 14 14 14 18 18 18 18 15 15 15 15 20 20 20 20 16 16 16 16 21 21 21 21 16 16 16 16 20 20 20 20 16 16 16 16 21 21 21 21 17 17 17 17 22 22 22 22 17 17 17 17 21 21 21 21 17 17 17 17 22 22 22 22 18 18 18 18 23 23 23 23 18 18 18 18 22 22 22 22 18 18 18 18 23 23 23 23 19 19 19 19 24 24 24 24 19 19 19 19 23 23 23 23 20 20 20 20 25 25 25 25 21 21 21 21 26 26 26 26 21 21 21 21 25 25 25 25 21 21 21 21 26 26 26 26 22 22 22 22 27 27 27 27 22 22 22 22 26 26 26 26 22 22 22 22 27 27 27 27 23 23 23 23 28 28 28 28 23 23 23 23 27 27 27 27 23 23 23 23 28 28 28 28 24 24 24 24 29 29 29 29 24 24 24 24 28 28 28 28 25 25 25 25 30 30 30 30 26 26 26 26 31 31 31 31 26 26 26 26 30 30 30 30 26 26 26 26 31 31 31 31 27 27 27 27 32 32 32 32 27 27 27 27 31 31 31 31 27 27 27 27 32 32 32 32 28 28 28 28 33 33 33 33 28 28 28 28 32 32 32 32 28 28 28 28 33 33 33 33 29 29 29 29 34 34 34 34 29 29 29 29 33 33 33 33 30 30 30 30 35 35 35 35 31 31 31 31 36 36 36 36 31 31 31 31 35 35 35 35 31 31 31 31 36 36 36 36 32 32 32 32 37 37 37 37 32 32 32 32 36 36 36 36 32 32 32 32 37 37 37 37 33 33 33 33 38 38 38 38 33 33 33 33 37 37 37 37 33 33 33 33 38 38 38 38 34 34 34 34 39 39 39 39 34 34 34 34 38 38 38 38 35 35 35 35 40 40 40 40 36 36 36 36 41 41 41 41 36 36 36 36 40 40 40 40 36 36 36 36 41 41 41 41 37 37 37 37 42 42 42 42 37 37 37 37 41 41 41 41 37 37 37 37 42 42 42 42 38 38 38 38 43 43 43 43 38 38 38 38 42 42 42 42 38 38 38 38 43 43 43 43 39 39 39 39 44 44 44 44 39 39 39 39 43 43 43 43 40 40 40 40 45 45 45 45 41 41 41 41 46 46 46 46 41 41 41 41 45 45 45 45 41 41 41 41 46 46 46 46 42 42 42 42 47 47 47 47 42 42 42 42 46 46 46 46 42 42 42 42 47 47 47 47 43 43 43 43 48 48 48 48 43 43 43 43 47 47 47 47 43 43 43 43 48 48 48 48 44 44 44 44 49 49 49 49 44 44 44 44 48 48 48 48 45 45 45 45 50 50 50 50 46 46 46 46 51 51 51 51 46 46 46 46 50 50 50 50 46 46 46 46 51 51 51 51 47 47 47 47 52 52 52 52 47 47 47 47 51 51 51 51 47 47 47 47 52 52 52 52 48 48 48 48 53 53 53 53 48 48 48 48 52 52 52 52 48 48 48 48 53 53 53 53 49 49 49 49 54 54 54 54 49 49 49 49 53 53 53 53 50 50 50 50 55 55 55 55 51 51 51 51 56 56 56 56 51 51 51 51 55 55 55 55 51 51 51 51 56 56 56 56 52 52 52 52 57 57 57 57 52 52 52 52 56 56 56 56 52 52 52 52 57 57 57 57 53 53 53 53 58 58 58 58 53 53 53 53 57 57 57 57 53 53 53 53 58 58 58 58 54 54 54 54 59 59 59 59 54 54 54 54 58 58 58 58 55 55 55 55 60 60 60 60 56 56 56 56 61 61 61 61 56 56 56 56 60 60 60 60 56 56 56 56 61 61 61 61 57 57 57 57 62 62 62 62 57 57 57 57 61 61 61 61 57 57 57 57 62 62 62 62 58 58 58 58 63 63 63 63 58 58 58 58 62 62 62 62 58 58 58 58 63 63 63 63 59 59 59 59 64 64 64 64 59 59 59 59 63 63 63 63 60 60 60 60 65 65 65 65 61 61 61 61 66 66 66 66 61 61 61 61 65 65 65 65 61 61 61 61 66 66 66 66 62 62 62 62 67 67 67 67 62 62 62 62 66 66 66 66 62 62 62 62 67 67 67 67 63 63 63 63 68 68 68 68 63 63 63 63 67 67 67 67 63 63 63 63 68 68 68 68 64 64 64 64 69 69 69 69 64 64 64 64 68 68 68 68 65 65 65 65 70 70 70 70 66 66 66 66 71 71 71 71 66 66 66 66 70 70 70 70 66 66 66 66 71 71 71 71 67 67 67 67 72 72 72 72 67 67 67 67 71 71 71 71 67 67 67 67 72 72 72 72 68 68 68 68 73 73 73 73 68 68 68 68 72 72 72 72 68 68 68 68 73 73 73 73 69 69 69 69 74 74 74 74 69 69 69 69 73 73 73 73 70 70 70 70 75 75 75 75 71 71 71 71 76 76 76 76 71 71 71 71 75 75 75 75 71 71 71 71 76 76 76 76 72 72 72 72 77 77 77 77 72 72 72 72 76 76 76 76 72 72 72 72 77 77 77 77 73 73 73 73 78 78 78 78 73 73 73 73 77 77 77 77 73 73 73 73 78 78 78 78 74 74 74 74 79 79 79 79 74 74 74 74 78 78 78 78 75 75 75 75 80 80 80 80 76 76 76 76 81 81 81 81 76 76 76 76 80 80 80 80 76 76 76 76 81 81 81 81 77 77 77 77 82 82 82 82 77 77 77 77 81 81 81 81 77 77 77 77 82 82 82 82 78 78 78 78 83 83 83 83 78 78 78 78 82 82 82 82 78 78 78 78 83 83 83 83 79 79 79 79 84 84 84 84 79 79 79 79 83 83 83 83 80 80 80 80 85 85 85 85 81 81 81 81 86 86 86 86 81 81 81 81 85 85 85 85 81 81 81 81 86 86 86 86 82 82 82 82 87 87 87 87 82 82 82 82 86 86 86 86 82 82 82 82 87 87 87 87 83 83 83 83 88 88 88 88 83 83 83 83 87 87 87 87 83 83 83 83 88 88 88 88 84 84 84 84 89 89 89 89 84 84 84 84 88 88 88 88 85 85 85 85 90 90 90 90 86 86 86 86 91 91 91 91 86 86 86 86 90 90 90 90 86 86 86 86 91 91 91 91 87 87 87 87 92 92 92 92 87 87 87 87 91 91 91 91 87 87 87 87 92 92 92 92 88 88 88 88 93 93 93 93 88 88 88 88 92 92 92 92 88 88 88 88 93 93 93 93 89 89 89 89 94 94 94 94 89 89 89 89 93 93 93 93 90 90 90 90 95 95 95 95 91 91 91 91 96 96 96 96 91 91 91 91 95 95 95 95 91 91 91 91 96 96 96 96 92 92 92 92 97 97 97 97 92 92 92 92 96 96 96 96 92 92 92 92 97 97 97 97 93 93 93 93 98 98 98 98 93 93 93 93 97 97 97 97 93 93 93 93 98 98 98 98 94 94 94 94 99 99 99 99 94 94 94 94 98 98 98 98 95 95 95 95 100 100 100 100 96 96 96 96 101 101 101 101 96 96 96 96 100 100 100 100 96 96 96 96 101 101 101 101 97 97 97 97 102 102 102 102 97 97 97 97 101 101 101 101 97 97 97 97 102 102 102 102 98 98 98 98 103 103 103 103 98 98 98 98 102 102 102 102 98 98 98 98 103 103 103 103 99 99 99 99 104 104 104 104 99 99 99 99 103 103 103 103</p>
      </triangles>
    </mesh></geometry>
  </library_geometries>
  <library_visual_scenes>
    <visual_scene id="Scene" name="Scene">
      <node id="vfx_kurp_0640" name="vfx_kurp_0640" type="NODE">
        <instance_geometry url="#vfx_kurp_0640-mesh"><bind_material><technique_common><instance_material symbol="PreviewMaterial" target="#PreviewMaterial"><bind_vertex_input semantic="UVSET0" input_semantic="TEXCOORD" input_set="0"/></instance_material></technique_common></bind_material></instance_geometry>
      </node>
    </visual_scene>
  </library_visual_scenes>
  <scene><instance_visual_scene url="#Scene"/></scene>
</COLLADA>
