<?xml version="1.0" encoding="utf-8"?>
<COLLADA xmlns="http://www.collada.org/2005/11/COLLADASchema" version="1.4.1">
  <asset>
    <contributor><authoring_tool>Morrobroom Kurpulio VFX preview converter</authoring_tool></contributor>
    <unit name="unit" meter="1"/>
    <up_axis>Z_UP</up_axis>
  </asset>
  <library_images>
    <image id="VFXTexture" name="darkmap_newgen-1.dds">
      <init_from>../../../Textures/Kurp/darkmap_newgen-1.dds</init_from>
    </image>
  </library_images>
  <library_effects>
    <effect id="PreviewEffect">
      <profile_COMMON>
        <newparam sid="VFXTexture-surface">
          <surface type="2D"><init_from>VFXTexture</init_from></surface>
        </newparam>
        <newparam sid="VFXTexture-sampler">
          <sampler2D><source>VFXTexture-surface</source></sampler2D>
        </newparam>
        <technique sid="common"><phong>
          <emission><color>0.08 0.08 0.08 1</color></emission>
          <ambient><color>0.2 0.2 0.2 1</color></ambient>
          <diffuse><texture texture="VFXTexture-sampler" texcoord="UVSET0"/></diffuse>
          <specular><color>0.15 0.15 0.15 1</color></specular>
          <shininess><float>8</float></shininess>
          <transparent opaque="A_ONE"><texture texture="VFXTexture-sampler" texcoord="UVSET0"/></transparent>
          <transparency><float>1</float></transparency>
        </phong></technique>
      </profile_COMMON>
      <extra><technique profile="GOOGLEEARTH"><double_sided>1</double_sided></technique></extra>
    </effect>
  </library_effects>
  <library_materials><material id="PreviewMaterial" name="PreviewMaterial"><instance_effect url="#PreviewEffect"/></material></library_materials>
  <library_geometries>
    <geometry id="vfx_kurp_0301-mesh" name="vfx_kurp_0301"><mesh>
      <source id="vfx_kurp_0301-mesh-positions">
        <float_array id="vfx_kurp_0301-mesh-positions-array" count="204">0.626576704 -0.874446583 -0.000188128067 1.15776258 -1.22937369 -0.000188673206 1.20060197 0.511372647 -0.000187688042 2.21842278 -0.168713712 -0.000188183123 1.51268964 -1.76055961 -0.000189288873 2.89850884 -1.18653473 -0.000188813365 1.63732338 -2.3871361 -0.000189972672 3.13732308 -2.38713585 -0.000189574148 1.51268951 -3.0137124 -0.000190711815 2.8985088 -3.58773727 -0.000190440952 1.1577624 -3.54489799 -0.000191485064 2.21842284 -4.60555785 -0.000191373128 0.62657687 -3.89982471 -0.000192266007 1.20060226 -5.28564415 -0.000192320065 8.43181991e-07 -4.02446036 -0.000188228898 1.15751482e-06 -5.52446062 -0.000188430726 1.22500571e-07 0.750187271 -0.000187312194 1.07375273e-08 -0.749812656 -0.000187645153 -1.2006018 0.511372808 -0.000187021493 -0.626576749 -0.874446455 -0.000187206682 -2.21842317 -0.168713469 -0.000186768879 -1.15776306 -1.22937363 -0.000186788088 -2.89850979 -1.18653468 -0.000186501519 -1.51269039 -1.76055989 -0.0001863618 -3.13732453 -2.38713689 -0.000186168772 -1.63732449 -2.38713686 -0.000185901379 -2.89850962 -3.58773957 -0.000185730004 -1.51269063 -3.01371424 -0.000185385641 -2.2184231 -4.60556127 -0.000185160709 -1.15776324 -3.54490083 -0.000184801771 -1.20060151 -5.28564767 -0.000184456239 -0.626576695 -3.8998285 -0.000184147346 1.15751482e-06 -5.52446062 -0.000188430726 8.43181991e-07 -4.02446036 -0.000188228898 0.913517448 -0.181709955 0.750000126 1.68796036 -0.69917596 0.750000183 0.913517781 -0.181709636 -0.749999801 1.68796069 -0.699175683 -0.749999744 2.20542663 -1.47361875 0.750000182 2.20542696 -1.47361831 -0.749999745 2.3871366 -2.38713614 0.750000019 2.38713693 -2.38713581 -0.749999908 2.20542693 -3.30065381 0.749999832 2.20542749 -3.30065348 -0.750000095 1.68796103 -4.07509632 0.749999601 1.68796136 -4.07509644 -0.750000326 0.913518347 -4.59256293 0.749999314 0.913518736 -4.5925626 -0.750000613 8.33788271e-07 -4.77427335 0.749999071 1.16674699e-06 -4.77427346 -0.750000856 1.66264975e-07 1.6647855e-07 -0.749999963 -1.66693672e-07 -1.6647855e-07 0.749999963 -0.913517444 -0.181709939 -0.750000207 -0.913517721 -0.181710258 0.74999972 -1.68796024 -0.699176243 -0.750000493 -1.68796057 -0.69917652 0.749999434 -2.20542637 -1.47361926 -0.750000724 -2.2054267 -1.47361948 0.749999203 -2.38713625 -2.38713682 -0.750000967 -2.38713636 -2.38713715 0.74999896 -2.20542584 -3.30065465 -0.750001074 -2.20542617 -3.30065499 0.749998853 -1.68795956 -4.07509744 -0.750001075 -1.6879599 -4.07509778 0.749998852 -0.913516657 -4.59256335 -0.750001018 -0.913516934 -4.59256368 0.749998909 1.16674699e-06 -4.77427346 -0.750000856 8.33788271e-07 -4.77427335 0.749999071</float_array>
        <technique_common><accessor source="#vfx_kurp_0301-mesh-positions-array" count="68" stride="3"><param name="X" type="float"/><param name="Y" type="float"/><param name="Z" type="float"/></accessor></technique_common>
      </source>
      <source id="vfx_kurp_0301-mesh-normals">
        <float_array id="vfx_kurp_0301-mesh-normals-array" count="204">5.75395185e-07 -4.42956743e-07 1 4.13392966e-07 -7.27938266e-07 1 2.39810407e-07 -4.92607052e-07 1 8.43597965e-08 -6.45389398e-07 1 1.54673703e-07 -9.29239272e-07 1 -1.17719922e-07 -7.27058872e-07 1 -1.61379997e-07 -1.01622698e-06 1 -3.35672668e-07 -7.25185804e-07 1 -4.86669211e-07 -9.75625995e-07 1 -5.36320828e-07 -6.40040904e-07 1 -7.71652979e-07 -8.13626505e-07 1 -6.89104822e-07 -4.84597002e-07 1 2.56447175e-06 9.10337285e-07 1 1.6396838e-06 1.0989488e-07 1 5.64373483e-06 5.95576572e-07 1 3.60649055e-06 -6.24464041e-07 1 3.24953004e-07 -2.91960989e-07 1 6.1599037e-07 -1.17669582e-07 1 3.26829483e-07 -7.40075393e-08 1 5.29011361e-07 1.98389071e-07 1 2.45155489e-07 1.28068911e-07 1 3.27705693e-07 4.57101541e-07 1 9.23681129e-08 2.83514832e-07 1 4.27174625e-08 6.19094722e-07 1 -1.08273502e-07 3.68666183e-07 1 -2.82562735e-07 6.59701446e-07 1 -3.26223328e-07 3.70541923e-07 1 -5.98619e-07 5.72721413e-07 1 -5.28305463e-07 2.88872676e-07 1 -8.57348836e-07 3.71424102e-07 1 1.16237986e-06 -6.28612339e-07 1 1.95593222e-06 -2.4278431e-07 1 3.60649055e-06 -6.24464041e-07 1 5.64373483e-06 5.95576572e-07 1 0.382683284 0.923879594 2.84425657e-07 0.707106694 0.707106869 2.95228209e-07 0.382683284 0.923879594 2.73763169e-07 0.707106634 0.707106928 3.08030363e-07 0.923879507 0.382683493 2.98077459e-07 0.923879476 0.382683569 3.13744427e-07 1 1.74851579e-07 2.26761203e-07 1 2.56593811e-07 2.70121531e-07 0.923879613 -0.382683237 2.0965043e-07 0.923879675 -0.382683089 2.71529198e-07 0.707106988 -0.707106575 1.97004575e-07 0.707106898 -0.707106664 1.35915276e-07 0.38268384 -0.923879364 -3.10554813e-08 0.38268384 -0.923879364 -1.1970794e-08 5.01748699e-07 -1 -1.78528517e-08 5.09377995e-07 -1 -1.78528358e-08 -1.61117826e-07 1 2.18962403e-07 -1.61112432e-07 1 2.21356762e-07 -0.38268359 0.923879467 1.26396981e-07 -0.38268359 0.923879467 1.11310294e-07 -0.707106898 0.707106664 -1.18697347e-08 -0.707106869 0.707106694 -3.31603528e-08 -0.923879573 0.382683335 -1.41824226e-07 -0.923879594 0.382683284 -9.57050562e-08 -1 -2.92216448e-07 -1.25898658e-07 -1 -3.02846538e-07 -1.21109929e-07 -0.923879446 -0.382683641 -2.41872003e-07 -0.923879476 -0.382683569 -2.90021009e-07 -0.707106664 -0.707106898 -3.13916468e-07 -0.707106634 -0.707106928 -3.07097911e-07 -0.38268336 -0.923879562 -2.82583484e-07 -0.382683212 -0.923879624 -1.81861234e-07 5.09377995e-07 -1 -1.78528358e-08 5.01748699e-07 -1 -1.78528517e-08</float_array>
        <technique_common><accessor source="#vfx_kurp_0301-mesh-normals-array" count="68" stride="3"><param name="X" type="float"/><param name="Y" type="float"/><param name="Z" type="float"/></accessor></technique_common>
      </source>
      <source id="vfx_kurp_0301-mesh-uv0">
        <float_array id="vfx_kurp_0301-mesh-uv0-array" count="136">-0.25 0.5625 -0.25 0.625 1.25 0.5625 1.25 0.625 -0.25 0.6875 1.25 0.6875 -0.25 0.75 1.25 0.75 -0.25 0.8125 1.25 0.8125 -0.25 0.875 1.25 0.875 -0.25 0.9375 1.25 0.9375 -0.25 1 1.25 1 1.25 0.5 -0.25 0.5 1.25 0.4375 -0.25 0.4375 1.25 0.375 -0.25 0.375 1.25 0.3125 -0.25 0.3125 1.25 0.25 -0.25 0.25 1.25 0.1875 -0.25 0.1875 1.25 0.125 -0.25 0.125 1.25 0.0625 -0.25 0.0625 1.25 0 -0.25 0 -0.25 0.5625 -0.25 0.625 1.25 0.5625 1.25 0.625 -0.25 0.6875 1.25 0.6875 -0.25 0.75 1.25 0.75 -0.25 0.8125 1.25 0.8125 -0.25 0.875 1.25 0.875 -0.25 0.9375 1.25 0.9375 -0.25 1 1.25 1 1.25 0.5 -0.25 0.5 1.25 0.4375 -0.25 0.4375 1.25 0.375 -0.25 0.375 1.25 0.3125 -0.25 0.3125 1.25 0.25 -0.25 0.25 1.25 0.1875 -0.25 0.1875 1.25 0.125 -0.25 0.125 1.25 0.0625 -0.25 0.0625 1.25 0 -0.25 0</float_array>
        <technique_common><accessor source="#vfx_kurp_0301-mesh-uv0-array" count="68" stride="2"><param name="S" type="float"/><param name="T" type="float"/></accessor></technique_common>
      </source>
      <vertices id="vfx_kurp_0301-mesh-vertices"><input semantic="POSITION" source="#vfx_kurp_0301-mesh-positions"/></vertices>
      <triangles material="PreviewMaterial" count="64">
        <input semantic="VERTEX" source="#vfx_kurp_0301-mesh-vertices" offset="0"/>
        <input semantic="NORMAL" source="#vfx_kurp_0301-mesh-normals" offset="1"/>
        <input semantic="TEXCOORD" source="#vfx_kurp_0301-mesh-uv0" offset="2" set="0"/>
        <p>0 0 0 1 1 1 2 2 2 2 2 2 1 1 1 3 3 3 4 4 4 3 3 3 1 1 1 3 3 3 4 4 4 5 5 5 6 6 6 5 5 5 4 4 4 5 5 5 6 6 6 7 7 7 8 8 8 7 7 7 6 6 6 7 7 7 8 8 8 9 9 9 10 10 10 9 9 9 8 8 8 9 9 9 10 10 10 11 11 11 12 12 12 11 11 11 10 10 10 11 11 11 12 12 12 13 13 13 14 14 14 13 13 13 12 12 12 13 13 13 14 14 14 15 15 15 16 16 16 0 0 0 2 2 2 0 0 0 16 16 16 17 17 17 18 18 18 17 17 17 16 16 16 17 17 17 18 18 18 19 19 19 20 20 20 19 19 19 18 18 18 19 19 19 20 20 20 21 21 21 22 22 22 21 21 21 20 20 20 21 21 21 22 22 22 23 23 23 24 24 24 23 23 23 22 22 22 23 23 23 24 24 24 25 25 25 26 26 26 25 25 25 24 24 24 25 25 25 26 26 26 27 27 27 28 28 28 27 27 27 26 26 26 27 27 27 28 28 28 29 29 29 30 30 30 29 29 29 28 28 28 29 29 29 30 30 30 31 31 31 32 32 32 31 31 31 30 30 30 33 33 33 31 31 31 32 32 32 34 34 34 35 35 35 36 36 36 36 36 36 35 35 35 37 37 37 38 38 38 37 37 37 35 35 35 37 37 37 38 38 38 39 39 39 40 40 40 39 39 39 38 38 38 39 39 39 40 40 40 41 41 41 42 42 42 41 41 41 40 40 40 41 41 41 42 42 42 43 43 43 44 44 44 43 43 43 42 42 42 43 43 43 44 44 44 45 45 45 46 46 46 45 45 45 44 44 44 45 45 45 46 46 46 47 47 47 48 48 48 47 47 47 46 46 46 47 47 47 48 48 48 49 49 49 50 50 50 34 34 34 36 36 36 34 34 34 50 50 50 51 51 51 52 52 52 51 51 51 50 50 50 51 51 51 52 52 52 53 53 53 54 54 54 53 53 53 52 52 52 53 53 53 54 54 54 55 55 55 56 56 56 55 55 55 54 54 54 55 55 55 56 56 56 57 57 57 58 58 58 57 57 57 56 56 56 57 57 57 58 58 58 59 59 59 60 60 60 59 59 59 58 58 58 59 59 59 60 60 60 61 61 61 62 62 62 61 61 61 60 60 60 61 61 61 62 62 62 63 63 63 64 64 64 63 63 63 62 62 62 63 63 63 64 64 64 65 65 65 66 66 66 65 65 65 64 64 64 67 67 67 65 65 65 66 66 66</p>
      </triangles>
    </mesh></geometry>
  </library_geometries>
  <library_visual_scenes>
    <visual_scene id="Scene" name="Scene">
      <node id="vfx_kurp_0301" name="vfx_kurp_0301" type="NODE">
        <instance_geometry url="#vfx_kurp_0301-mesh"><bind_material><technique_common><instance_material symbol="PreviewMaterial" target="#PreviewMaterial"><bind_vertex_input semantic="UVSET0" input_semantic="TEXCOORD" input_set="0"/></instance_material></technique_common></bind_material></instance_geometry>
      </node>
    </visual_scene>
  </library_visual_scenes>
  <scene><instance_visual_scene url="#Scene"/></scene>
</COLLADA>
