<?xml version="1.0" encoding="utf-8"?>
<COLLADA xmlns="http://www.collada.org/2005/11/COLLADASchema" version="1.4.1">
  <asset>
    <contributor><authoring_tool>Morrobroom Kurpulio VFX preview converter</authoring_tool></contributor>
    <unit name="unit" meter="1"/>
    <up_axis>Z_UP</up_axis>
  </asset>
  <library_images>
    <image id="VFXTexture" name="darkmap_newgen-1.dds">
      <init_from>../../../Textures/Kurp/darkmap_newgen-1.dds</init_from>
    </image>
  </library_images>
  <library_effects>
    <effect id="PreviewEffect">
      <profile_COMMON>
        <newparam sid="VFXTexture-surface">
          <surface type="2D"><init_from>VFXTexture</init_from></surface>
        </newparam>
        <newparam sid="VFXTexture-sampler">
          <sampler2D><source>VFXTexture-surface</source></sampler2D>
        </newparam>
        <technique sid="common"><phong>
          <emission><color>0.08 0.08 0.08 1</color></emission>
          <ambient><color>0.2 0.2 0.2 1</color></ambient>
          <diffuse><texture texture="VFXTexture-sampler" texcoord="UVSET0"/></diffuse>
          <specular><color>0.15 0.15 0.15 1</color></specular>
          <shininess><float>8</float></shininess>
          <transparent opaque="A_ONE"><texture texture="VFXTexture-sampler" texcoord="UVSET0"/></transparent>
          <transparency><float>1</float></transparency>
        </phong></technique>
      </profile_COMMON>
      <extra><technique profile="GOOGLEEARTH"><double_sided>1</double_sided></technique></extra>
    </effect>
  </library_effects>
  <library_materials><material id="PreviewMaterial" name="PreviewMaterial"><instance_effect url="#PreviewEffect"/></material></library_materials>
  <library_geometries>
    <geometry id="vfx_kurp_0576-mesh" name="vfx_kurp_0576"><mesh>
      <source id="vfx_kurp_0576-mesh-positions">
        <float_array id="vfx_kurp_0576-mesh-positions-array" count="195">-15.9525971 12.6687456 -4.78645543 -15.3689978 12.9708042 -5.36173215 -17.6840268 13.9575114 -4.42022117 -16.7708274 14.367154 -5.11942973 -18.6019152 15.4599339 -3.87441685 -17.3774843 15.841634 -4.67652469 -18.7062643 17.1760138 -3.25615536 -17.1889714 17.3942435 -4.15171326 -17.9970784 19.105746 -2.55297027 -16.2052884 19.0249801 -3.51972234 -16.4743579 21.249136 -1.66580903 -14.4264443 20.7338448 -2.58154039 -14.1380994 23.6061729 -0.313781643 -11.8524235 22.5208384 -0.882392807 -14.7853973 13.2728642 -4.95180901 -15.857623 14.7767938 -4.78603127 -16.1530499 16.2233352 -4.39911833 -15.6716773 17.6124746 -3.90308281 -14.4135022 18.9442155 -3.23471519 -12.3785215 20.2185586 -2.12225573 -9.56674776 21.4355037 -0.0942486606 -15.5852963 13.6093134 -4.78714574 -15.6155073 12.9528726 -4.88749381 -13.6034769 14.464391 -4.45716462 -13.7053157 13.468714 -5.15140528 -13.6034769 14.464391 -4.45716462 -15.6155073 12.9528726 -4.88749381 -11.8433963 14.5080934 -3.94869823 -12.125051 13.2568543 -4.73733027 -10.305053 13.7404225 -3.37316315 -10.8747089 12.3172926 -4.22397933 -8.98844834 12.1613825 -2.66162302 -9.95429112 10.6500299 -3.54711032 -7.89358417 9.77097131 -1.59418108 -9.36379578 8.25507145 -2.49756484 -7.02045929 6.56919475 0.147006417 -9.10322771 5.13240549 -0.796495442 -15.6457173 12.2964301 -4.94657878 -13.8071586 12.4730381 -4.81134566 -12.4067061 12.0056146 -4.44215444 -11.4443636 10.8941611 -3.93925748 -10.920131 9.13867922 -3.23738246 -10.8340096 6.73916157 -2.14098706 -11.1859919 3.69562281 -0.42575524 -14.9543925 12.8209373 -4.79530112 -15.5077838 13.1753189 -5.35984339 -15.2047822 10.677091 -4.45389936 -16.0161432 11.2631247 -5.13612217 -16.0469735 9.13096401 -3.9268215 -16.9897502 10.0005055 -4.69782135 -17.4809689 8.18255653 -3.3018616 -18.4286083 9.387454 -4.14866016 -19.5067589 7.831862 -2.51323378 -20.3327057 9.42398107 -3.45995494 -22.1243501 8.07888136 -1.47118395 -22.7020524 10.1100752 -2.5195245 -25.3337294 8.9236215 -0.165902809 -25.5366441 11.4457471 -1.12858106 -16.0611739 13.5297019 -4.93904894 -16.8275061 11.8491593 -4.7853441 -17.9325341 10.8700443 -4.39428399 -19.3762476 10.5923544 -3.8764841 -21.1586572 11.0160976 -3.1997224 -23.2797613 12.1412699 -2.18381096 -25.7395522 13.9678657 -0.464212915</float_array>
        <technique_common><accessor source="#vfx_kurp_0576-mesh-positions-array" count="65" stride="3"><param name="X" type="float"/><param name="Y" type="float"/><param name="Z" type="float"/></accessor></technique_common>
      </source>
      <source id="vfx_kurp_0576-mesh-normals">
        <float_array id="vfx_kurp_0576-mesh-normals-array" count="195">0.494902943 0.454414823 0.740660682 0.0138561787 -0.12895854 0.991553176 0.55534544 0.178705465 0.812191972 0.215580914 -0.0427932525 0.97554785 0.581568839 -0.132392216 0.802651846 0.27580624 -0.235380737 0.931947867 0.527426576 -0.369036335 0.765266876 0.227288909 -0.387173671 0.893552629 0.410503514 -0.526169221 0.744736743 0.111721906 -0.468960634 0.8761245 0.231076983 -0.608160915 0.759436455 -0.0641970199 -0.505241617 0.860586806 0.00494590171 -0.619964644 0.784614159 -0.296377205 -0.460601678 0.836663999 -0.298651319 -0.409838512 0.861881537 -0.190129274 -0.293684001 0.936803377 -0.120600056 -0.293947447 0.948182749 -0.127521773 -0.304352029 0.94398519 -0.197151582 -0.331324864 0.922689053 -0.331494203 -0.369907209 0.867917191 -0.44751621 -0.342595588 0.826049335 -0.100959066 -0.14579752 0.984149557 -0.100959066 -0.14579752 0.984149557 -0.100959066 -0.14579752 0.984149557 -0.0440916044 -0.190427804 0.98071055 -0.0673092061 -0.566011558 0.821644927 0.186465274 -0.198184279 0.962264877 -0.38816245 -0.438436824 0.810618939 -0.326378148 -0.114853381 0.938235581 -0.572237988 -0.263042076 0.776757718 -0.438108755 0.015319011 0.898791437 -0.660693479 -0.0579288991 0.748417243 -0.465805561 0.16738478 0.868911684 -0.660873348 0.152906205 0.734755816 -0.447636142 0.320663094 0.834743712 -0.60905122 0.303130777 0.732917692 -0.360239122 0.441276787 0.821889635 0.0789699083 0.0433007664 0.995936141 -0.143379054 0.317404198 0.937388405 -0.178908636 0.263638124 0.947885351 -0.195952232 0.281603879 0.939309309 -0.21639437 0.350511744 0.911216217 -0.224207359 0.448840328 0.865027988 -0.193531878 0.49857524 0.844966356 -0.637292844 0.19323125 0.746002356 0.110291391 0.065067261 0.99176714 -0.428311337 0.381866622 0.818979415 -0.0622485881 0.197043031 0.978416658 -0.165914968 0.56113451 0.810925573 0.0811049122 0.346034034 0.934709816 0.0802760053 0.634032986 0.769128036 0.243984563 0.383773121 0.890611994 0.282335045 0.616011145 0.735402741 0.367553125 0.342833638 0.864505522 0.416454053 0.53136539 0.737710542 0.453888644 0.245585931 0.856546934 0.501893667 0.403938685 0.764811275 0.500491216 0.0402007193 0.86480775 0.510920059 -0.0643820578 0.857213884 0.359777985 -0.0297260825 0.932564294 0.329679588 0.0332232445 0.943508127 0.343705387 0.0468167762 0.937909802 0.386487078 0.0219569941 0.922033421 0.436970674 -0.0700722821 0.896742162 0.463389122 -0.190679712 0.865396885</float_array>
        <technique_common><accessor source="#vfx_kurp_0576-mesh-normals-array" count="65" stride="3"><param name="X" type="float"/><param name="Y" type="float"/><param name="Z" type="float"/></accessor></technique_common>
      </source>
      <source id="vfx_kurp_0576-mesh-uv0">
        <float_array id="vfx_kurp_0576-mesh-uv0-array" count="130">1 1 0.5 1 1 0.833333313 0.5 0.833333313 1 0.666666627 0.5 0.666666627 1 0.5 0.5 0.5 1 0.333333313 0.5 0.333333313 1 0.166666627 0.5 0.166666627 1 0 0.5 0 0 1 0 0.833333313 0 0.666666627 0 0.5 0 0.333333313 0 0.166666627 0 0 1 1 0.5 1 1 0.833333313 0.5 0.833333313 1 0.833333313 0.5 1 1 0.666666627 0.5 0.666666627 1 0.5 0.5 0.5 1 0.333333313 0.5 0.333333313 1 0.166666627 0.5 0.166666627 1 0 0.5 0 0 1 0 0.833333313 0 0.666666627 0 0.5 0 0.333333313 0 0.166666627 0 0 1 1 0.5 1 1 0.833333313 0.5 0.833333313 1 0.666666627 0.5 0.666666627 1 0.5 0.5 0.5 1 0.333333313 0.5 0.333333313 1 0.166666627 0.5 0.166666627 1 0 0.5 0 0 1 0 0.833333313 0 0.666666627 0 0.5 0 0.333333313 0 0.166666627 0 0</float_array>
        <technique_common><accessor source="#vfx_kurp_0576-mesh-uv0-array" count="65" stride="2"><param name="S" type="float"/><param name="T" type="float"/></accessor></technique_common>
      </source>
      <vertices id="vfx_kurp_0576-mesh-vertices"><input semantic="POSITION" source="#vfx_kurp_0576-mesh-positions"/></vertices>
      <triangles material="PreviewMaterial" count="72">
        <input semantic="VERTEX" source="#vfx_kurp_0576-mesh-vertices" offset="0"/>
        <input semantic="NORMAL" source="#vfx_kurp_0576-mesh-normals" offset="1"/>
        <input semantic="TEXCOORD" source="#vfx_kurp_0576-mesh-uv0" offset="2" set="0"/>
        <p>0 0 0 1 1 1 2 2 2 3 3 3 2 2 2 1 1 1 2 2 2 3 3 3 4 4 4 5 5 5 4 4 4 3 3 3 4 4 4 5 5 5 6 6 6 7 7 7 6 6 6 5 5 5 6 6 6 7 7 7 8 8 8 9 9 9 8 8 8 7 7 7 8 8 8 9 9 9 10 10 10 11 11 11 10 10 10 9 9 9 10 10 10 11 11 11 12 12 12 13 13 13 12 12 12 11 11 11 1 1 1 14 14 14 3 3 3 15 15 15 3 3 3 14 14 14 3 3 3 15 15 15 5 5 5 16 16 16 5 5 5 15 15 15 5 5 5 16 16 16 7 7 7 17 17 17 7 7 7 16 16 16 7 7 7 17 17 17 9 9 9 18 18 18 9 9 9 17 17 17 9 9 9 18 18 18 11 11 11 19 19 19 11 11 11 18 18 18 11 11 11 19 19 19 13 13 13 20 20 20 13 13 13 19 19 19 21 21 21 22 22 22 23 23 23 24 24 24 25 25 25 26 26 26 25 25 25 24 24 24 27 27 27 28 28 28 27 27 27 24 24 24 27 27 27 28 28 28 29 29 29 30 30 30 29 29 29 28 28 28 29 29 29 30 30 30 31 31 31 32 32 32 31 31 31 30 30 30 31 31 31 32 32 32 33 33 33 34 34 34 33 33 33 32 32 32 33 33 33 34 34 34 35 35 35 36 36 36 35 35 35 34 34 34 26 26 26 37 37 37 24 24 24 38 38 38 24 24 24 37 37 37 24 24 24 38 38 38 28 28 28 39 39 39 28 28 28 38 38 38 28 28 28 39 39 39 30 30 30 40 40 40 30 30 30 39 39 39 30 30 30 40 40 40 32 32 32 41 41 41 32 32 32 40 40 40 32 32 32 41 41 41 34 34 34 42 42 42 34 34 34 41 41 41 34 34 34 42 42 42 36 36 36 43 43 43 36 36 36 42 42 42 44 44 44 45 45 45 46 46 46 47 47 47 46 46 46 45 45 45 46 46 46 47 47 47 48 48 48 49 49 49 48 48 48 47 47 47 48 48 48 49 49 49 50 50 50 51 51 51 50 50 50 49 49 49 50 50 50 51 51 51 52 52 52 53 53 53 52 52 52 51 51 51 52 52 52 53 53 53 54 54 54 55 55 55 54 54 54 53 53 53 54 54 54 55 55 55 56 56 56 57 57 57 56 56 56 55 55 55 45 45 45 58 58 58 47 47 47 59 59 59 47 47 47 58 58 58 47 47 47 59 59 59 49 49 49 60 60 60 49 49 49 59 59 59 49 49 49 60 60 60 51 51 51 61 61 61 51 51 51 60 60 60 51 51 51 61 61 61 53 53 53 62 62 62 53 53 53 61 61 61 53 53 53 62 62 62 55 55 55 63 63 63 55 55 55 62 62 62 55 55 55 63 63 63 57 57 57 64 64 64 57 57 57 63 63 63</p>
      </triangles>
    </mesh></geometry>
  </library_geometries>
  <library_visual_scenes>
    <visual_scene id="Scene" name="Scene">
      <node id="vfx_kurp_0576" name="vfx_kurp_0576" type="NODE">
        <instance_geometry url="#vfx_kurp_0576-mesh"><bind_material><technique_common><instance_material symbol="PreviewMaterial" target="#PreviewMaterial"><bind_vertex_input semantic="UVSET0" input_semantic="TEXCOORD" input_set="0"/></instance_material></technique_common></bind_material></instance_geometry>
      </node>
    </visual_scene>
  </library_visual_scenes>
  <scene><instance_visual_scene url="#Scene"/></scene>
</COLLADA>
