<?xml version="1.0" encoding="utf-8"?>
<COLLADA xmlns="http://www.collada.org/2005/11/COLLADASchema" version="1.4.1">
  <asset>
    <contributor><authoring_tool>Morrobroom Kurpulio VFX preview converter</authoring_tool></contributor>
    <unit name="unit" meter="1"/>
    <up_axis>Z_UP</up_axis>
  </asset>
  <library_images>
    <image id="VFXTexture" name="darkmap_newgen-1.dds">
      <init_from>../../../Textures/Kurp/darkmap_newgen-1.dds</init_from>
    </image>
  </library_images>
  <library_effects>
    <effect id="PreviewEffect">
      <profile_COMMON>
        <newparam sid="VFXTexture-surface">
          <surface type="2D"><init_from>VFXTexture</init_from></surface>
        </newparam>
        <newparam sid="VFXTexture-sampler">
          <sampler2D><source>VFXTexture-surface</source></sampler2D>
        </newparam>
        <technique sid="common"><phong>
          <emission><color>0.08 0.08 0.08 1</color></emission>
          <ambient><color>0.2 0.2 0.2 1</color></ambient>
          <diffuse><texture texture="VFXTexture-sampler" texcoord="UVSET0"/></diffuse>
          <specular><color>0.15 0.15 0.15 1</color></specular>
          <shininess><float>8</float></shininess>
          <transparent opaque="A_ONE"><texture texture="VFXTexture-sampler" texcoord="UVSET0"/></transparent>
          <transparency><float>1</float></transparency>
        </phong></technique>
      </profile_COMMON>
      <extra><technique profile="GOOGLEEARTH"><double_sided>1</double_sided></technique></extra>
    </effect>
  </library_effects>
  <library_materials><material id="PreviewMaterial" name="PreviewMaterial"><instance_effect url="#PreviewEffect"/></material></library_materials>
  <library_geometries>
    <geometry id="vfx_kurp_0085-mesh" name="vfx_kurp_0085"><mesh>
      <source id="vfx_kurp_0085-mesh-positions">
        <float_array id="vfx_kurp_0085-mesh-positions-array" count="486">1.62170112 4.31485925e-05 -11.5395269 1.62170112 0 0 -1.9910874e-07 4.29494837e-05 -11.5395269 0 0 0 -1.62170112 4.31485925e-05 -11.5395269 -1.62170112 0 0 -1.62170112 -4.31485925e-05 11.5395269 1.9910874e-07 -4.29494837e-05 11.5395269 1.62170112 -4.31485925e-05 11.5395269 -4.69104293e-07 1.62174391 -11.5395209 -7.08868129e-08 1.62170112 5.97407398e-06 -1.9910874e-07 4.29494837e-05 -11.5395269 0 0 0 -3.27330696e-07 -1.62165845 -11.539533 7.08868129e-08 -1.62170112 -5.97407394e-06 4.69104293e-07 -1.62174391 11.5395209 1.9910874e-07 -4.29494837e-05 11.5395269 3.27330696e-07 1.62165845 11.539533 -0.765164495 1.34568117 -13.861654 -0.765164673 1.34563449 -0.964272355 -0.565471113 0.74215356 -13.8616563 -0.56547147 0.742106884 -0.964274493 -0.365777999 0.13862594 -13.8616585 -0.365778238 0.138579234 -0.96427663 -0.365778446 0.138532543 11.933105 -0.565471768 0.742060208 11.9331073 -0.765164912 1.34558793 11.9331086 -1.1689986 0.542460238 -13.861657 -1.16899908 0.542413622 -0.964275358 -0.565471113 0.74215356 -13.8616563 -0.56547147 0.742106884 -0.964274493 0.038056612 0.941846704 -13.8616555 0.0380561799 0.941800147 -0.964273627 0.038055744 0.94175353 11.933108 -0.565471768 0.742060208 11.9331073 -1.16899955 0.542367005 11.9331065 -1.56363738 -1.61035177 -13.4609721 -1.56363726 -1.61039349 -1.92144495 -1.09784675 -0.0569830491 -13.4609663 -1.09784663 -0.057025095 -1.92143938 -0.632055938 1.49638512 -13.4609605 -0.632055879 1.49634329 -1.92143369 -0.632055759 1.49630157 9.61809336 -1.09784639 -0.0570671484 9.61808756 -1.56363726 -1.61043533 9.61808175 0.455521524 -0.522773418 -13.4609681 0.455521911 -0.522815732 -1.92144113 -1.09784675 -0.0569830491 -13.4609663 -1.09784663 -0.057025095 -1.92143938 -2.65121555 0.408807841 -13.4609646 -2.65121508 0.408765557 -1.92143764 -2.6512146 0.408723243 9.6180893 -1.09784639 -0.0570671484 9.61808756 0.455522299 -0.522858046 9.61808581 1.12737858 -0.425382203 -12.4000336 1.12737584 -0.425426544 -0.860506635 0.122099966 0.847146922 -12.4000289 0.122097582 0.847102522 -0.860501937 -0.883178115 2.11967599 -12.4000241 -0.883180678 2.11963141 -0.860497298 -0.88318336 2.11958731 10.6790298 0.122095212 0.847058181 10.679026 1.12737322 -0.425470855 10.6790212 1.39462864 1.85242533 -12.4000251 1.3946265 1.85238087 -0.86049782 0.122099966 0.847146922 -12.4000289 0.122097582 0.847102522 -0.860501937 -1.15042937 -0.158131457 -12.4000336 -1.15043139 -0.158175857 -0.860506053 -1.15043342 -0.158220227 10.6790212 0.122095212 0.847058181 10.679026 1.39462447 1.85233653 10.6790297 0.140986517 -0.278694681 -13.7190572 0.140986621 -0.278741417 -0.821676283 0.323576361 0.330225685 -13.7190549 0.32357654 0.33017886 -0.821674066 0.506166339 0.939145842 -13.7190526 0.506166458 0.939099106 -0.821671908 0.506166518 0.93905243 12.07571 0.323576689 0.330132034 12.0757077 0.140986726 -0.278788123 12.0757054 0.932496607 0.147635886 -13.7190556 0.932496786 0.147588971 -0.821674868 0.323576361 0.330225685 -13.7190549 0.32357654 0.33017886 -0.821674066 -0.285343975 0.512815633 -13.7190542 -0.285343736 0.512768718 -0.821673324 -0.285343498 0.512721804 12.0757084 0.323576689 0.330132034 12.0757077 0.932497025 0.147542056 12.075707 1.6701827 -0.183698132 -13.740937 1.6701827 -0.183746358 -0.843555065 1.03447604 -0.183698206 -13.740937 1.03447604 -0.183746358 -0.843555065 0.398769319 -0.183698132 -13.740937 0.398769319 -0.183746358 -0.843555065 0.398769319 -0.183794584 12.0538266 1.03447604 -0.183794509 12.0538266 1.6701827 -0.183794584 12.0538266 1.0344758 0.452008367 -13.7409346 1.03447604 0.45196032 -0.843552807 1.03447604 -0.183698206 -13.740937 1.03447604 -0.183746358 -0.843555065 1.03447592 -0.819405018 -13.7409393 1.03447604 -0.819453065 -0.843557382 1.03447628 -0.819501113 12.0538242 1.03447604 -0.183794509 12.0538266 1.03447616 0.451912303 12.053829 0.378941625 0.782739934 -13.2934007 0.378941417 0.782698156 -1.75387376 0.888363481 -0.756871823 -13.2934065 0.888363004 -0.756913541 -1.7538794 1.39778483 -2.2964834 -13.2934122 1.39778459 -2.29652536 -1.75388492 1.39778447 -2.29656708 9.78564262 0.888362527 -0.7569552 9.78564742 0.378941238 0.782656378 9.78565318 -0.651247919 -1.26629377 -13.2934084 -0.651248634 -1.26633513 -1.7538813 0.888363481 -0.756871823 -13.2934065 0.888363004 -0.756913541 -1.7538794 2.42797565 -0.247450296 -13.2934046 2.4279747 -0.247491835 -1.75387749 2.42797375 -0.247533389 9.78564933 0.888362527 -0.7569552 9.78564742 -0.651249349 -1.26637673 9.78564552 -0.877751946 0.0933503934 -13.8616587 -0.877752185 0.0933036874 -0.964276919 -0.678058624 -0.510177279 -13.861661 -0.678058982 -0.510223955 -0.964279056 -0.478365541 -1.11370494 -13.8616632 -0.478365749 -1.1137515 -0.964281253 -0.478365988 -1.1137983 11.9331004 -0.67805934 -0.510270632 11.9331026 -0.877752483 0.0932569889 11.9331049 -1.28158617 -0.709870601 -13.8616617 -1.28158665 -0.709917158 -0.964279922 -0.678058624 -0.510177279 -13.861661 -0.678058982 -0.510223955 -0.964279056 -0.0745309219 -0.310484076 -13.8616602 -0.074531354 -0.310530693 -0.96427825 -0.0745317861 -0.310577339 11.9331034 -0.67805934 -0.510270632 11.9331026 -1.281587 -0.709963835 11.9331019 0.62119025 -0.997514675 -13.7859077 0.62118727 -0.997564272 -0.888526593 0.227121145 -0.498683433 -13.7859058 0.227118298 -0.498733 -0.888524847 -0.166947722 0.000147797645 -13.7859039 -0.166950703 9.8241954e-05 -0.888523042 -0.166953653 4.86862667e-05 12.0088587 0.227115437 -0.498782596 12.0088568 0.621184289 -0.997613809 12.008855 0.725952327 -0.104614431 -13.7859043 0.725949585 -0.104663998 -0.888523255 0.227121145 -0.498683433 -13.7859058 0.227118298 -0.498733 -0.888524847 -0.271710187 -0.892752478 -13.7859073 -0.271712929 -0.892802016 -0.888526381 -0.271715671 -0.892851612 12.0088544 0.227115437 -0.498782596 12.0088568 0.725946844 -0.10471358 12.0088583</float_array>
        <technique_common><accessor source="#vfx_kurp_0085-mesh-positions-array" count="162" stride="3"><param name="X" type="float"/><param name="Y" type="float"/><param name="Z" type="float"/></accessor></technique_common>
      </source>
      <source id="vfx_kurp_0085-mesh-normals">
        <float_array id="vfx_kurp_0085-mesh-normals-array" count="486">1.22777692e-07 -1 -3.73919942e-06 5.456541e-09 -1 -3.73133901e-06 -5.45655743e-09 -1 -3.72980534e-06 -5.45654188e-09 -1 -3.72980534e-06 -1.11864651e-07 -1 -3.72347859e-06 5.456541e-09 -1 -3.73133901e-06 1.22777692e-07 -1 -3.73919942e-06 -5.45655743e-09 -1 -3.72980534e-06 -1.11864651e-07 -1 -3.72347859e-06 1 1.66489231e-07 -3.45083776e-08 1 4.91680334e-08 -2.66483982e-08 1 1.55576155e-07 -3.29747545e-08 1 3.82549474e-08 -2.51147751e-08 1 -6.8153171e-08 -1.8788417e-08 1 4.91680298e-08 -2.66483964e-08 1 1.66489231e-07 -3.45083776e-08 1 1.55576155e-07 -3.29747545e-08 1 -6.8153171e-08 -1.8788417e-08 0.949380586 0.314128164 1.15000546e-06 0.949380669 0.314127913 1.15712152e-06 0.949380654 0.314127958 1.15679234e-06 0.949380678 0.314127886 1.15725845e-06 0.949380704 0.314127806 1.16291435e-06 0.949380654 0.314127958 1.15685144e-06 0.949380627 0.314128038 1.1525617e-06 0.949380669 0.314127913 1.1557679e-06 0.949380704 0.314127806 1.15855061e-06 -0.314128137 0.949380595 3.41984656e-06 -0.314128011 0.949380636 3.42337792e-06 -0.314128137 0.949380595 3.42007516e-06 -0.314128011 0.949380636 3.42362926e-06 -0.314127779 0.949380713 3.42680596e-06 -0.314127985 0.949380645 3.42244734e-06 -0.314128137 0.949380595 3.42084463e-06 -0.314128137 0.949380595 3.42108744e-06 -0.314127859 0.949380687 3.4283155e-06 -0.957863615 0.287223424 1.04827489e-06 -0.957863593 0.287223495 1.04852834e-06 -0.957863585 0.287223523 1.05271774e-06 -0.957863585 0.287223523 1.05343274e-06 -0.957863561 0.287223605 1.05553395e-06 -0.957863577 0.28722355 1.05559467e-06 -0.957863615 0.287223424 1.04827489e-06 -0.957863577 0.28722355 1.05820619e-06 -0.957863552 0.287223632 1.06427893e-06 -0.28722337 -0.957863631 -3.50273326e-06 -0.287223452 -0.957863607 -3.49563188e-06 -0.287223397 -0.957863623 -3.50134768e-06 -0.287223452 -0.957863607 -3.49414195e-06 -0.287223577 -0.957863569 -3.48811275e-06 -0.287223479 -0.957863598 -3.49211338e-06 -0.287223397 -0.957863623 -3.50050785e-06 -0.287223397 -0.957863623 -3.49911134e-06 -0.287223577 -0.957863569 -3.48639048e-06 -0.784687702 -0.619891289 -2.56837842e-06 -0.784687806 -0.619891158 -2.55390442e-06 -0.784687754 -0.619891223 -2.55688131e-06 -0.784687754 -0.619891223 -2.55367041e-06 -0.784687835 -0.619891121 -2.54919561e-06 -0.784687754 -0.619891223 -2.55641277e-06 -0.784687702 -0.619891289 -2.55151772e-06 -0.784687783 -0.619891187 -2.54690524e-06 -0.784687835 -0.619891121 -2.54443465e-06 0.619891392 -0.784687621 -2.90800365e-06 0.619891289 -0.784687702 -2.89947174e-06 0.619891355 -0.78468765 -2.9065051e-06 0.619891223 -0.784687754 -2.89790438e-06 0.619891158 -0.784687806 -2.8928513e-06 0.619891289 -0.784687702 -2.90003094e-06 0.619891392 -0.784687621 -2.90832777e-06 0.619891392 -0.784687621 -2.90651119e-06 0.619891158 -0.784687806 -2.8895275e-06 -0.957863623 0.287223397 1.04854759e-06 -0.957863577 0.28722355 1.05186058e-06 -0.957863585 0.287223523 1.05242825e-06 -0.957863577 0.28722355 1.05196493e-06 -0.957863552 0.287223632 1.0558717e-06 -0.957863577 0.28722355 1.05160093e-06 -0.957863631 0.28722337 1.04390006e-06 -0.957863593 0.287223495 1.04903591e-06 -0.957863561 0.287223605 1.05367213e-06 -0.28722337 -0.957863631 -3.48027309e-06 -0.287223523 -0.957863585 -3.47639328e-06 -0.28722337 -0.957863631 -3.4800649e-06 -0.287223523 -0.957863585 -3.4762163e-06 -0.28722355 -0.957863577 -3.47379937e-06 -0.287223452 -0.957863607 -3.47669399e-06 -0.28722337 -0.957863631 -3.4789457e-06 -0.28722337 -0.957863631 -3.47879993e-06 -0.287223605 -0.957863561 -3.47444221e-06 1.17201544e-07 -1 -3.73919943e-06 1.8373415e-09 -1 -3.73640158e-06 -1.83732252e-09 -1 -3.73622046e-06 -1.83734139e-09 -1 -3.73622046e-06 -1.13526852e-07 -1 -3.73360374e-06 1.83734128e-09 -1 -3.73640158e-06 1.17201537e-07 -1 -3.73919943e-06 -1.83733873e-09 -1 -3.73622046e-06 -1.13526873e-07 -1 -3.73360374e-06 1 3.75045074e-07 -1.84844132e-08 1 5.87950904e-09 -4.91122764e-09 1 3.63286101e-07 -1.79048621e-08 1 -2.93972949e-09 -4.47656612e-09 1 -1.81642945e-07 0 1 5.87950992e-09 -4.91122853e-09 1 3.75045074e-07 -1.84844132e-08 1 3.63286101e-07 -1.79048621e-08 1 -1.81642945e-07 0 0.949380627 0.314128038 1.15443196e-06 0.949380669 0.314127913 1.16251922e-06 0.949380678 0.314127886 1.16556228e-06 0.949380687 0.314127859 1.16622924e-06 0.949380704 0.314127806 1.17370904e-06 0.949380678 0.314127886 1.16626667e-06 0.949380618 0.314128065 1.14545381e-06 0.949380663 0.314127931 1.16058895e-06 0.949380713 0.314127779 1.17136208e-06 -0.314128164 0.949380586 3.3833388e-06 -0.314127958 0.949380654 3.40950708e-06 -0.314128164 0.949380586 3.3865309e-06 -0.314127913 0.949380669 3.41160959e-06 -0.314127833 0.949380695 3.41679082e-06 -0.314128011 0.949380636 3.40199591e-06 -0.314128137 0.949380595 3.39278597e-06 -0.314128137 0.949380595 3.3947025e-06 -0.314127859 0.949380687 3.41333561e-06 0.949380627 0.314128038 1.15511839e-06 0.949380678 0.314127886 1.16111927e-06 0.949380687 0.314127859 1.15926851e-06 0.949380663 0.314127931 1.15887719e-06 0.949380737 0.314127707 1.16273142e-06 0.949380636 0.314128011 1.15613929e-06 0.949380618 0.314128065 1.15729608e-06 0.949380654 0.314127958 1.16032353e-06 0.949380687 0.314127859 1.16304642e-06 -0.31412811 0.949380604 3.41545908e-06 -0.314127886 0.949380678 3.42695478e-06 -0.31412811 0.949380604 3.41582523e-06 -0.314127886 0.949380678 3.42713787e-06 -0.314127859 0.949380687 3.42694343e-06 -0.314127985 0.949380645 3.4239738e-06 -0.314128038 0.949380627 3.42312925e-06 -0.314128065 0.949380618 3.42325489e-06 -0.314127886 0.949380678 3.42713787e-06 -0.78468765 -0.619891355 -2.56510764e-06 -0.784687806 -0.619891158 -2.55902897e-06 -0.784687754 -0.619891223 -2.56016089e-06 -0.784687783 -0.619891187 -2.55959181e-06 -0.784687835 -0.619891121 -2.55575382e-06 -0.784687783 -0.619891187 -2.56054735e-06 -0.784687702 -0.619891289 -2.56131869e-06 -0.784687783 -0.619891187 -2.55953196e-06 -0.784687835 -0.619891121 -2.55799156e-06 0.619891289 -0.784687702 -2.88391701e-06 0.619891223 -0.784687754 -2.88194243e-06 0.619891289 -0.784687702 -2.88375983e-06 0.619891223 -0.784687754 -2.88178823e-06 0.619891187 -0.784687783 -2.87900428e-06 0.619891289 -0.784687702 -2.88114205e-06 0.619891355 -0.78468765 -2.88573e-06 0.619891355 -0.78468765 -2.88555035e-06 0.619891121 -0.784687835 -2.88015238e-06</float_array>
        <technique_common><accessor source="#vfx_kurp_0085-mesh-normals-array" count="162" stride="3"><param name="X" type="float"/><param name="Y" type="float"/><param name="Z" type="float"/></accessor></technique_common>
      </source>
      <source id="vfx_kurp_0085-mesh-uv0">
        <float_array id="vfx_kurp_0085-mesh-uv0-array" count="324">1 1 1 0.5 0.5 1 0.5 0.5 0 1 0 0.5 0 0 0.5 0 1 0 1 1 1 0.5 0.5 1 0.5 0.5 0 1 0 0.5 0 0 0.5 0 1 0 1 1 1 0.5 0.5 1 0.5 0.5 0 1 0 0.5 0 0 0.5 0 1 0 1 1 1 0.5 0.5 1 0.5 0.5 0 1 0 0.5 0 0 0.5 0 1 0 1 1 1 0.5 0.5 1 0.5 0.5 0 1 0 0.5 0 0 0.5 0 1 0 1 1 1 0.5 0.5 1 0.5 0.5 0 1 0 0.5 0 0 0.5 0 1 0 1 1 1 0.5 0.5 1 0.5 0.5 0 1 0 0.5 0 0 0.5 0 1 0 1 1 1 0.5 0.5 1 0.5 0.5 0 1 0 0.5 0 0 0.5 0 1 0 1 1 1 0.5 0.5 1 0.5 0.5 0 1 0 0.5 0 0 0.5 0 1 0 1 1 1 0.5 0.5 1 0.5 0.5 0 1 0 0.5 0 0 0.5 0 1 0 1 1 1 0.5 0.5 1 0.5 0.5 0 1 0 0.5 0 0 0.5 0 1 0 1 1 1 0.5 0.5 1 0.5 0.5 0 1 0 0.5 0 0 0.5 0 1 0 1 1 1 0.5 0.5 1 0.5 0.5 0 1 0 0.5 0 0 0.5 0 1 0 1 1 1 0.5 0.5 1 0.5 0.5 0 1 0 0.5 0 0 0.5 0 1 0 1 1 1 0.5 0.5 1 0.5 0.5 0 1 0 0.5 0 0 0.5 0 1 0 1 1 1 0.5 0.5 1 0.5 0.5 0 1 0 0.5 0 0 0.5 0 1 0 1 1 1 0.5 0.5 1 0.5 0.5 0 1 0 0.5 0 0 0.5 0 1 0 1 1 1 0.5 0.5 1 0.5 0.5 0 1 0 0.5 0 0 0.5 0 1 0</float_array>
        <technique_common><accessor source="#vfx_kurp_0085-mesh-uv0-array" count="162" stride="2"><param name="S" type="float"/><param name="T" type="float"/></accessor></technique_common>
      </source>
      <source id="vfx_kurp_0085-mesh-colors">
        <float_array id="vfx_kurp_0085-mesh-colors-array" count="648">0 0 0 0 0 0 0 0 0 0 0 0 0 0 0 1 0 0 0 0 0 0 0 0 0 0 0 0 0 0 0 0 0 0 0 0 0 0 0 0 0 0 0 0 0 0 0 0 0 0 0 1 0 0 0 0 0 0 0 0 0 0 0 0 0 0 0 0 0 0 0 0 0 0 0 0 0 0 0 0 0 0 0 0 0 0 0 1 0 0 0 0 0 0 0 0 0 0 0 0 0 0 0 0 0 0 0 0 0 0 0 0 0 0 0 0 0 0 0 0 0 0 0 1 0 0 0 0 0 0 0 0 0 0 0 0 0 0 0 0 0 0 0 0 0 0 0 0 0 0 0 0 0 0 0 0 0 0 0 1 0 0 0 0 0 0 0 0 0 0 0 0 0 0 0 0 0 0 0 0 0 0 0 0 0 0 0 0 0 0 0 0 0 0 0 1 0 0 0 0 0 0 0 0 0 0 0 0 0 0 0 0 0 0 0 0 0 0 0 0 0 0 0 0 0 0 0 0 0 0 0 1 0 0 0 0 0 0 0 0 0 0 0 0 0 0 0 0 0 0 0 0 0 0 0 0 0 0 0 0 0 0 0 0 0 0 0 1 0 0 0 0 0 0 0 0 0 0 0 0 0 0 0 0 0 0 0 0 0 0 0 0 0 0 0 0 0 0 0 0 0 0 0 1 0 0 0 0 0 0 0 0 0 0 0 0 0 0 0 0 0 0 0 0 0 0 0 0 0 0 0 0 0 0 0 0 0 0 0 1 0 0 0 0 0 0 0 0 0 0 0 0 0 0 0 0 0 0 0 0 0 0 0 0 0 0 0 0 0 0 0 0 0 0 0 1 0 0 0 0 0 0 0 0 0 0 0 0 0 0 0 0 0 0 0 0 0 0 0 0 0 0 0 0 0 0 0 0 0 0 0 1 0 0 0 0 0 0 0 0 0 0 0 0 0 0 0 0 0 0 0 0 0 0 0 0 0 0 0 0 0 0 0 0 0 0 0 1 0 0 0 0 0 0 0 0 0 0 0 0 0 0 0 0 0 0 0 0 0 0 0 0 0 0 0 0 0 0 0 0 0 0 0 1 0 0 0 0 0 0 0 0 0 0 0 0 0 0 0 0 0 0 0 0 0 0 0 0 0 0 0 0 0 0 0 0 0 0 0 1 0 0 0 0 0 0 0 0 0 0 0 0 0 0 0 0 0 0 0 0 0 0 0 0 0 0 0 0 0 0 0 0 0 0 0 1 0 0 0 0 0 0 0 0 0 0 0 0 0 0 0 0 0 0 0 0 0 0 0 0 0 0 0 0 0 0 0 0 0 0 0 1 0 0 0 0 0 0 0 0 0 0 0 0 0 0 0 0 0 0 0 0 0 0 0 0 0 0 0 0 0 0 0 0 0 0 0 1 0 0 0 0 0 0 0 0 0 0 0 0 0 0 0 0 0 0 0 0</float_array>
        <technique_common><accessor source="#vfx_kurp_0085-mesh-colors-array" count="162" stride="4"><param name="R" type="float"/><param name="G" type="float"/><param name="B" type="float"/><param name="A" type="float"/></accessor></technique_common>
      </source>
      <vertices id="vfx_kurp_0085-mesh-vertices"><input semantic="POSITION" source="#vfx_kurp_0085-mesh-positions"/></vertices>
      <triangles material="PreviewMaterial" count="144">
        <input semantic="VERTEX" source="#vfx_kurp_0085-mesh-vertices" offset="0"/>
        <input semantic="NORMAL" source="#vfx_kurp_0085-mesh-normals" offset="1"/>
        <input semantic="TEXCOORD" source="#vfx_kurp_0085-mesh-uv0" offset="2" set="0"/>
        <input semantic="COLOR" source="#vfx_kurp_0085-mesh-colors" offset="3" set="0"/>
        <p>0 0 0 0 1 1 1 1 2 2 2 2 3 3 3 3 2 2 2 2 1 1 1 1 2 2 2 2 3 3 3 3 4 4 4 4 5 5 5 5 4 4 4 4 3 3 3 3 6 6 6 6 5 5 5 5 7 7 7 7 3 3 3 3 7 7 7 7 5 5 5 5 7 7 7 7 3 3 3 3 8 8 8 8 1 1 1 1 8 8 8 8 3 3 3 3 9 9 9 9 10 10 10 10 11 11 11 11 12 12 12 12 11 11 11 11 10 10 10 10 11 11 11 11 12 12 12 12 13 13 13 13 14 14 14 14 13 13 13 13 12 12 12 12 15 15 15 15 14 14 14 14 16 16 16 16 12 12 12 12 16 16 16 16 14 14 14 14 16 16 16 16 12 12 12 12 17 17 17 17 10 10 10 10 17 17 17 17 12 12 12 12 18 18 18 18 19 19 19 19 20 20 20 20 21 21 21 21 20 20 20 20 19 19 19 19 20 20 20 20 21 21 21 21 22 22 22 22 23 23 23 23 22 22 22 22 21 21 21 21 24 24 24 24 23 23 23 23 25 25 25 25 21 21 21 21 25 25 25 25 23 23 23 23 25 25 25 25 21 21 21 21 26 26 26 26 19 19 19 19 26 26 26 26 21 21 21 21 27 27 27 27 28 28 28 28 29 29 29 29 30 30 30 30 29 29 29 29 28 28 28 28 29 29 29 29 30 30 30 30 31 31 31 31 32 32 32 32 31 31 31 31 30 30 30 30 33 33 33 33 32 32 32 32 34 34 34 34 30 30 30 30 34 34 34 34 32 32 32 32 34 34 34 34 30 30 30 30 35 35 35 35 28 28 28 28 35 35 35 35 30 30 30 30 36 36 36 36 37 37 37 37 38 38 38 38 39 39 39 39 38 38 38 38 37 37 37 37 38 38 38 38 39 39 39 39 40 40 40 40 41 41 41 41 40 40 40 40 39 39 39 39 42 42 42 42 41 41 41 41 43 43 43 43 39 39 39 39 43 43 43 43 41 41 41 41 43 43 43 43 39 39 39 39 44 44 44 44 37 37 37 37 44 44 44 44 39 39 39 39 45 45 45 45 46 46 46 46 47 47 47 47 48 48 48 48 47 47 47 47 46 46 46 46 47 47 47 47 48 48 48 48 49 49 49 49 50 50 50 50 49 49 49 49 48 48 48 48 51 51 51 51 50 50 50 50 52 52 52 52 48 48 48 48 52 52 52 52 50 50 50 50 52 52 52 52 48 48 48 48 53 53 53 53 46 46 46 46 53 53 53 53 48 48 48 48 54 54 54 54 55 55 55 55 56 56 56 56 57 57 57 57 56 56 56 56 55 55 55 55 56 56 56 56 57 57 57 57 58 58 58 58 59 59 59 59 58 58 58 58 57 57 57 57 60 60 60 60 59 59 59 59 61 61 61 61 57 57 57 57 61 61 61 61 59 59 59 59 61 61 61 61 57 57 57 57 62 62 62 62 55 55 55 55 62 62 62 62 57 57 57 57 63 63 63 63 64 64 64 64 65 65 65 65 66 66 66 66 65 65 65 65 64 64 64 64 65 65 65 65 66 66 66 66 67 67 67 67 68 68 68 68 67 67 67 67 66 66 66 66 69 69 69 69 68 68 68 68 70 70 70 70 66 66 66 66 70 70 70 70 68 68 68 68 70 70 70 70 66 66 66 66 71 71 71 71 64 64 64 64 71 71 71 71 66 66 66 66 72 72 72 72 73 73 73 73 74 74 74 74 75 75 75 75 74 74 74 74 73 73 73 73 74 74 74 74 75 75 75 75 76 76 76 76 77 77 77 77 76 76 76 76 75 75 75 75 78 78 78 78 77 77 77 77 79 79 79 79 75 75 75 75 79 79 79 79 77 77 77 77 79 79 79 79 75 75 75 75 80 80 80 80 73 73 73 73 80 80 80 80 75 75 75 75 81 81 81 81 82 82 82 82 83 83 83 83 84 84 84 84 83 83 83 83 82 82 82 82 83 83 83 83 84 84 84 84 85 85 85 85 86 86 86 86 85 85 85 85 84 84 84 84 87 87 87 87 86 86 86 86 88 88 88 88 84 84 84 84 88 88 88 88 86 86 86 86 88 88 88 88 84 84 84 84 89 89 89 89 82 82 82 82 89 89 89 89 84 84 84 84 90 90 90 90 91 91 91 91 92 92 92 92 93 93 93 93 92 92 92 92 91 91 91 91 92 92 92 92 93 93 93 93 94 94 94 94 95 95 95 95 94 94 94 94 93 93 93 93 96 96 96 96 95 95 95 95 97 97 97 97 93 93 93 93 97 97 97 97 95 95 95 95 97 97 97 97 93 93 93 93 98 98 98 98 91 91 91 91 98 98 98 98 93 93 93 93 99 99 99 99 100 100 100 100 101 101 101 101 102 102 102 102 101 101 101 101 100 100 100 100 101 101 101 101 102 102 102 102 103 103 103 103 104 104 104 104 103 103 103 103 102 102 102 102 105 105 105 105 104 104 104 104 106 106 106 106 102 102 102 102 106 106 106 106 104 104 104 104 106 106 106 106 102 102 102 102 107 107 107 107 100 100 100 100 107 107 107 107 102 102 102 102 108 108 108 108 109 109 109 109 110 110 110 110 111 111 111 111 110 110 110 110 109 109 109 109 110 110 110 110 111 111 111 111 112 112 112 112 113 113 113 113 112 112 112 112 111 111 111 111 114 114 114 114 113 113 113 113 115 115 115 115 111 111 111 111 115 115 115 115 113 113 113 113 115 115 115 115 111 111 111 111 116 116 116 116 109 109 109 109 116 116 116 116 111 111 111 111 117 117 117 117 118 118 118 118 119 119 119 119 120 120 120 120 119 119 119 119 118 118 118 118 119 119 119 119 120 120 120 120 121 121 121 121 122 122 122 122 121 121 121 121 120 120 120 120 123 123 123 123 122 122 122 122 124 124 124 124 120 120 120 120 124 124 124 124 122 122 122 122 124 124 124 124 120 120 120 120 125 125 125 125 118 118 118 118 125 125 125 125 120 120 120 120 126 126 126 126 127 127 127 127 128 128 128 128 129 129 129 129 128 128 128 128 127 127 127 127 128 128 128 128 129 129 129 129 130 130 130 130 131 131 131 131 130 130 130 130 129 129 129 129 132 132 132 132 131 131 131 131 133 133 133 133 129 129 129 129 133 133 133 133 131 131 131 131 133 133 133 133 129 129 129 129 134 134 134 134 127 127 127 127 134 134 134 134 129 129 129 129 135 135 135 135 136 136 136 136 137 137 137 137 138 138 138 138 137 137 137 137 136 136 136 136 137 137 137 137 138 138 138 138 139 139 139 139 140 140 140 140 139 139 139 139 138 138 138 138 141 141 141 141 140 140 140 140 142 142 142 142 138 138 138 138 142 142 142 142 140 140 140 140 142 142 142 142 138 138 138 138 143 143 143 143 136 136 136 136 143 143 143 143 138 138 138 138 144 144 144 144 145 145 145 145 146 146 146 146 147 147 147 147 146 146 146 146 145 145 145 145 146 146 146 146 147 147 147 147 148 148 148 148 149 149 149 149 148 148 148 148 147 147 147 147 150 150 150 150 149 149 149 149 151 151 151 151 147 147 147 147 151 151 151 151 149 149 149 149 151 151 151 151 147 147 147 147 152 152 152 152 145 145 145 145 152 152 152 152 147 147 147 147 153 153 153 153 154 154 154 154 155 155 155 155 156 156 156 156 155 155 155 155 154 154 154 154 155 155 155 155 156 156 156 156 157 157 157 157 158 158 158 158 157 157 157 157 156 156 156 156 159 159 159 159 158 158 158 158 160 160 160 160 156 156 156 156 160 160 160 160 158 158 158 158 160 160 160 160 156 156 156 156 161 161 161 161 154 154 154 154 161 161 161 161 156 156 156 156</p>
      </triangles>
    </mesh></geometry>
  </library_geometries>
  <library_visual_scenes>
    <visual_scene id="Scene" name="Scene">
      <node id="vfx_kurp_0085" name="vfx_kurp_0085" type="NODE">
        <instance_geometry url="#vfx_kurp_0085-mesh"><bind_material><technique_common><instance_material symbol="PreviewMaterial" target="#PreviewMaterial"><bind_vertex_input semantic="UVSET0" input_semantic="TEXCOORD" input_set="0"/></instance_material></technique_common></bind_material></instance_geometry>
      </node>
    </visual_scene>
  </library_visual_scenes>
  <scene><instance_visual_scene url="#Scene"/></scene>
</COLLADA>
