<?xml version="1.0" encoding="utf-8"?>
<COLLADA xmlns="http://www.collada.org/2005/11/COLLADASchema" version="1.4.1">
  <asset>
    <contributor><authoring_tool>Morrobroom Kurpulio VFX preview converter</authoring_tool></contributor>
    <unit name="unit" meter="1"/>
    <up_axis>Z_UP</up_axis>
  </asset>
  <library_images>
    <image id="VFXTexture" name="darkmap_newgen-1.dds">
      <init_from>../../../Textures/Kurp/darkmap_newgen-1.dds</init_from>
    </image>
  </library_images>
  <library_effects>
    <effect id="PreviewEffect">
      <profile_COMMON>
        <newparam sid="VFXTexture-surface">
          <surface type="2D"><init_from>VFXTexture</init_from></surface>
        </newparam>
        <newparam sid="VFXTexture-sampler">
          <sampler2D><source>VFXTexture-surface</source></sampler2D>
        </newparam>
        <technique sid="common"><phong>
          <emission><color>0.08 0.08 0.08 1</color></emission>
          <ambient><color>0.2 0.2 0.2 1</color></ambient>
          <diffuse><texture texture="VFXTexture-sampler" texcoord="UVSET0"/></diffuse>
          <specular><color>0.15 0.15 0.15 1</color></specular>
          <shininess><float>8</float></shininess>
          <transparent opaque="A_ONE"><texture texture="VFXTexture-sampler" texcoord="UVSET0"/></transparent>
          <transparency><float>1</float></transparency>
        </phong></technique>
      </profile_COMMON>
      <extra><technique profile="GOOGLEEARTH"><double_sided>1</double_sided></technique></extra>
    </effect>
  </library_effects>
  <library_materials><material id="PreviewMaterial" name="PreviewMaterial"><instance_effect url="#PreviewEffect"/></material></library_materials>
  <library_geometries>
    <geometry id="vfx_kurp_1160-mesh" name="vfx_kurp_1160"><mesh>
      <source id="vfx_kurp_1160-mesh-positions">
        <float_array id="vfx_kurp_1160-mesh-positions-array" count="144">2.63662934 1.43508315e-07 -3.28308749 2.63662934 -1.43508315e-07 3.28308749 -2.63662934 1.43508315e-07 -3.28308749 -2.63662934 -1.43508315e-07 3.28308749 1.86437762 1.864378 -3.28308717 1.86437786 1.86437771 3.28308781 -1.86437786 -1.86437771 -3.28308734 -1.86437762 -1.864378 3.28308765 5.55542456e-08 2.63662925 -3.2830869 3.42570843e-07 2.6366292 3.28308737 -3.4256567e-07 -2.6366292 -3.28308713 -5.554908e-08 -2.63662925 3.28308738 -1.8643775 1.86437752 -3.28308765 -1.86437726 1.86437771 3.28308805 1.86437726 -1.86437771 -3.28308781 1.8643775 -1.86437752 3.28308813 2.30749369 4.94840353 -3.91705301 2.30749393 4.94840331 1.10057519 -2.30752254 -4.94853193 -3.91705296 -2.3075223 -4.94853215 1.10057523 -1.86745489 5.13068836 -3.91705252 -1.86745465 5.13068862 1.10057472 1.86742592 -5.13081724 -3.91705249 1.86742628 -5.13081698 1.10057475 -4.94848013 2.30744355 -3.91705312 -4.94848013 2.30744381 1.10057567 4.94845152 -2.30757291 -3.91705332 4.948452 -2.30757241 1.1005757 5.13073778 1.86737709 -3.91705314 5.13073778 1.86737688 1.10057374 -5.13076639 -1.8675049 -3.91705283 -5.13076639 -1.86750512 1.1005737 0.610636055 0.610636227 -2.56753299 0.610636353 0.610635935 5.47296384 -0.610636175 -0.610636003 -2.5675328 -0.610635877 -0.610636235 5.47296378 1.81952782e-08 0.863570445 -2.5675325 3.69656448e-07 0.863570511 5.47296289 -1.12200219e-07 -0.86357028 -2.56753258 2.3926097e-07 -0.863570333 5.4729633 -0.610636115 0.610636108 -2.5675337 -0.610635817 0.610636353 5.47296384 0.610636055 -0.610636062 -2.56753376 0.610636294 -0.610635758 5.47296378 0.863570333 1.12230114e-07 -2.56753349 0.863570333 -2.39231176e-07 5.47296381 -0.863570333 1.12230114e-07 -2.56753349 -0.863570333 -2.39231176e-07 5.47296381</float_array>
        <technique_common><accessor source="#vfx_kurp_1160-mesh-positions-array" count="48" stride="3"><param name="X" type="float"/><param name="Y" type="float"/><param name="Z" type="float"/></accessor></technique_common>
      </source>
      <source id="vfx_kurp_1160-mesh-normals">
        <float_array id="vfx_kurp_1160-mesh-normals-array" count="144">0 -1 -4.3711389e-08 0 -1 -4.3711389e-08 0 -1 -4.3711389e-08 0 -1 -4.3711389e-08 0.707106811 -0.707106751 -5.65837467e-08 0.707106811 -0.707106751 -5.65837467e-08 0.707106811 -0.707106751 -5.65837467e-08 0.707106811 -0.707106751 -5.65837467e-08 1 -7.54978922e-08 -4.3711388e-08 1 -7.54978922e-08 -4.3711388e-08 1 -7.54978994e-08 -4.37113916e-08 1 -7.54978994e-08 -4.3711388e-08 0.707106841 0.707106722 -4.6116754e-08 0.707106841 0.707106722 -4.6116754e-08 0.707106841 0.707106722 -4.6116754e-08 0.707106811 0.707106751 -4.61167566e-08 0.906307812 -0.422618208 -6.15375183e-08 0.906307823 -0.422618184 -6.15375213e-08 0.906307812 -0.422618208 -6.15375254e-08 0.906307812 -0.422618208 -6.15375183e-08 0.939692672 0.342020003 -6.22034384e-08 0.939692681 0.342019977 -6.83250787e-08 0.939692681 0.342019977 -7.84071117e-08 0.939692672 0.342020003 -8.45287479e-08 0.422618353 0.906307744 -4.65126018e-08 0.422618329 0.906307756 -6.93335368e-08 0.422618329 0.906307756 -1.06918377e-07 0.422618329 0.906307756 -1.2973929e-07 0.342020154 -0.939692617 -4.10752688e-08 0.342020128 -0.939692626 -4.10752693e-08 0.342020128 -0.939692626 -4.10752693e-08 0.342020128 -0.939692626 -4.10752693e-08 0.707106781 -0.707106781 -5.18759078e-08 0.707106781 -0.707106781 -4.73401688e-08 0.707106781 -0.707106781 -5.11698219e-08 0.707106781 -0.707106781 -4.66340829e-08 1 -7.54978994e-08 -4.37113845e-08 1 -7.54978922e-08 -4.37113809e-08 1 -7.54979065e-08 -4.37113809e-08 1 -7.54978922e-08 -4.37113809e-08 0.707106781 0.707106781 -4.77186985e-08 0.707106781 0.707106781 -4.77186985e-08 0.707106781 0.707106781 -4.77186985e-08 0.707106781 0.707106781 -4.77186985e-08 0 -1 -4.37113871e-08 0 -1 -4.37113871e-08 0 -1 -4.37113871e-08 0 -1 -4.37113871e-08</float_array>
        <technique_common><accessor source="#vfx_kurp_1160-mesh-normals-array" count="48" stride="3"><param name="X" type="float"/><param name="Y" type="float"/><param name="Z" type="float"/></accessor></technique_common>
      </source>
      <source id="vfx_kurp_1160-mesh-uv0">
        <float_array id="vfx_kurp_1160-mesh-uv0-array" count="96">1 1 1 0 0 1 0 0 1 1 1 0 0 1 0 0 1 1 1 0 0 1 0 0 1 1 1 0 0 1 0 0 1 1 1 0 0 1 0 0 1 1 1 0 0 1 0 0 1 1 1 0 0 1 0 0 1 1 1 0 0 1 0 0 1 1 1 0 0 1 0 0 1 1 1 0 0 1 0 0 1 1 1 0 0 1 0 0 1 1 1 0 0 1 0 0</float_array>
        <technique_common><accessor source="#vfx_kurp_1160-mesh-uv0-array" count="48" stride="2"><param name="S" type="float"/><param name="T" type="float"/></accessor></technique_common>
      </source>
      <vertices id="vfx_kurp_1160-mesh-vertices"><input semantic="POSITION" source="#vfx_kurp_1160-mesh-positions"/></vertices>
      <triangles material="PreviewMaterial" count="24">
        <input semantic="VERTEX" source="#vfx_kurp_1160-mesh-vertices" offset="0"/>
        <input semantic="NORMAL" source="#vfx_kurp_1160-mesh-normals" offset="1"/>
        <input semantic="TEXCOORD" source="#vfx_kurp_1160-mesh-uv0" offset="2" set="0"/>
        <p>0 0 0 1 1 1 2 2 2 3 3 3 2 2 2 1 1 1 4 4 4 5 5 5 6 6 6 7 7 7 6 6 6 5 5 5 8 8 8 9 9 9 10 10 10 11 11 11 10 10 10 9 9 9 12 12 12 13 13 13 14 14 14 15 15 15 14 14 14 13 13 13 16 16 16 17 17 17 18 18 18 19 19 19 18 18 18 17 17 17 20 20 20 21 21 21 22 22 22 23 23 23 22 22 22 21 21 21 24 24 24 25 25 25 26 26 26 27 27 27 26 26 26 25 25 25 28 28 28 29 29 29 30 30 30 31 31 31 30 30 30 29 29 29 32 32 32 33 33 33 34 34 34 35 35 35 34 34 34 33 33 33 36 36 36 37 37 37 38 38 38 39 39 39 38 38 38 37 37 37 40 40 40 41 41 41 42 42 42 43 43 43 42 42 42 41 41 41 44 44 44 45 45 45 46 46 46 47 47 47 46 46 46 45 45 45</p>
      </triangles>
    </mesh></geometry>
  </library_geometries>
  <library_visual_scenes>
    <visual_scene id="Scene" name="Scene">
      <node id="vfx_kurp_1160" name="vfx_kurp_1160" type="NODE">
        <instance_geometry url="#vfx_kurp_1160-mesh"><bind_material><technique_common><instance_material symbol="PreviewMaterial" target="#PreviewMaterial"><bind_vertex_input semantic="UVSET0" input_semantic="TEXCOORD" input_set="0"/></instance_material></technique_common></bind_material></instance_geometry>
      </node>
    </visual_scene>
  </library_visual_scenes>
  <scene><instance_visual_scene url="#Scene"/></scene>
</COLLADA>
