<?xml version="1.0" encoding="utf-8"?>
<COLLADA xmlns="http://www.collada.org/2005/11/COLLADASchema" version="1.4.1">
  <asset>
    <contributor><authoring_tool>Morrobroom Kurpulio VFX preview converter</authoring_tool></contributor>
    <unit name="unit" meter="1"/>
    <up_axis>Z_UP</up_axis>
  </asset>
  <library_images>
    <image id="VFXTexture" name="darkmap_newgen-1.dds">
      <init_from>../../../Textures/Kurp/darkmap_newgen-1.dds</init_from>
    </image>
  </library_images>
  <library_effects>
    <effect id="PreviewEffect">
      <profile_COMMON>
        <newparam sid="VFXTexture-surface">
          <surface type="2D"><init_from>VFXTexture</init_from></surface>
        </newparam>
        <newparam sid="VFXTexture-sampler">
          <sampler2D><source>VFXTexture-surface</source></sampler2D>
        </newparam>
        <technique sid="common"><phong>
          <emission><color>0.08 0.08 0.08 1</color></emission>
          <ambient><color>0.2 0.2 0.2 1</color></ambient>
          <diffuse><texture texture="VFXTexture-sampler" texcoord="UVSET0"/></diffuse>
          <specular><color>0.15 0.15 0.15 1</color></specular>
          <shininess><float>8</float></shininess>
          <transparent opaque="A_ONE"><texture texture="VFXTexture-sampler" texcoord="UVSET0"/></transparent>
          <transparency><float>1</float></transparency>
        </phong></technique>
      </profile_COMMON>
      <extra><technique profile="GOOGLEEARTH"><double_sided>1</double_sided></technique></extra>
    </effect>
  </library_effects>
  <library_materials><material id="PreviewMaterial" name="PreviewMaterial"><instance_effect url="#PreviewEffect"/></material></library_materials>
  <library_geometries>
    <geometry id="vfx_kurp_0068-mesh" name="vfx_kurp_0068"><mesh>
      <source id="vfx_kurp_0068-mesh-positions">
        <float_array id="vfx_kurp_0068-mesh-positions-array" count="924">-0.0871508494 4.26682329 0.665789783 -0.628769517 3.59820914 1.14736068 0.372003168 4.12265444 -0.153877139 0.144060299 3.21109557 -0.138087347 -0.556399345 2.68599796 1.44703162 0.144060299 3.21109557 -0.138087347 -0.556399345 2.68599796 1.44703162 0.26225099 3.11492419 0.529636323 -0.407145619 2.15580392 1.6550492 0.26225099 3.11492419 0.529636323 -0.556399345 2.68599796 1.44703162 0.566416681 2.09988117 0.990946174 -0.952567339 1.87209558 2.47360516 0.0664100274 1.91400635 1.87604988 -1.0949508 1.15349102 2.73682547 0.0664100274 1.91400635 1.87604988 -0.952567339 1.87209558 2.47360516 -0.28579852 1.08839333 2.05206013 -0.435947895 0.492917717 2.96499324 -0.28579852 1.08839333 2.05206013 -1.0949508 1.15349102 2.73682547 -0.0492279604 0.509470642 2.66461515 0.415390074 4.39123392 0.43729651 0.307014018 3.81993484 0.76798141 -0.322708696 3.93425608 0.196516588 -0.322708696 3.93425608 0.196516588 0.307014018 3.81993484 0.76798141 -0.491594344 3.12653518 0.0189785715 0.198784053 3.18967128 1.41151202 -0.491594344 3.12653518 0.0189785715 0.307014018 3.81993484 0.76798141 -0.581569135 2.5556252 0.834620357 0.435382277 2.54948783 1.56871557 -0.581569135 2.5556252 0.834620357 0.198784053 3.18967128 1.41151202 -0.484859318 1.97772193 1.10243893 -0.0871154293 2.11501479 2.45481253 -0.484859318 1.97772193 1.10243893 0.435382277 2.54948783 1.56871557 -0.686556935 1.41357732 1.83051395 -0.350371003 1.50056243 2.67120361 -0.768187463 0.733568072 2.04594469 -0.15076597 0.684553027 2.97609711 -0.358944029 0.274737239 2.75437808 -1.37577271 4.46481895 -0.227550834 -1.27891576 3.44764662 -0.0937002078 -0.92582804 3.9311471 0.19950752 -0.741540313 2.91021776 0.480869055 -2.12211561 2.86834502 0.331673354 -0.741540313 2.91021776 0.480869055 -1.27891576 3.44764662 -0.0937002078 -1.65527165 2.28530121 0.620911777 -2.34590077 1.86823857 0.173806503 -1.65527165 2.28530121 0.620911777 -2.12211561 2.86834502 0.331673354 -1.97707403 1.41417551 0.181351244 -2.38356757 0.695142388 0.74851054 -1.97707403 1.41417551 0.181351244 -2.34590077 1.86823857 0.173806503 -1.99612105 0.160589471 0.685187995 -2.40712905 0.204711422 0.789631844 -2.04557514 -0.261963308 0.799535871 -3.60010624 -0.557932675 0.833918512 -3.30292821 -0.956117928 0.882652283 -1.30388868 4.21093798 0.30053699 -1.25931942 3.10383439 0.458653688 -0.878798485 4.2611599 -0.379149914 -0.934654832 3.23835397 -0.295406789 -2.03927946 2.58461928 0.755492985 -0.934654832 3.23835397 -0.295406789 -1.25931942 3.10383439 0.458653688 -1.62837315 2.6365428 0.0432121232 -2.29180789 1.55736303 0.409519583 -1.98197865 1.66737986 -0.141676456 -2.28068209 0.386480212 1.0005753 -1.98197865 1.66737986 -0.141676456 -2.29180789 1.55736303 0.409519583 -1.98197865 1.66737986 -0.141676456 -2.28068209 0.386480212 1.0005753 -2.20115829 0.599036574 0.379832864 -2.31314158 -0.105467312 1.0258739 -2.27462626 0.141504943 0.442221403 -3.47049594 -0.809455872 1.0263319 -2.27462626 0.141504943 0.442221403 -2.31314158 -0.105467312 1.0258739 -3.43337536 -0.619794905 0.538975477 0.104026526 3.38890386 0.35087654 0.330150813 2.86748147 -0.561138272 0.283786446 3.53481269 -0.698454618 0.558605671 3.12186027 -1.53633082 1.25598764 2.37874007 -0.503610015 0.558605671 3.12186027 -1.53633082 0.330150813 2.86748147 -0.561138272 1.2958703 2.38421893 -1.26015103 1.45287597 1.55717254 -0.862154722 1.2958703 2.38421893 -1.26015103 1.25598764 2.37874007 -0.503610015 1.27361166 1.41225207 -1.56995833 2.03239036 1.22104955 -1.55923331 1.27361166 1.41225207 -1.56995833 1.45287597 1.55717254 -0.862154722 1.8018111 0.972949862 -2.24302864 2.29568958 0.594749391 -2.21168613 2.20349765 0.513065457 -2.86294293 3.09313321 -0.166319683 -1.83798063 3.01602626 -0.262217492 -2.40721607 0.576665044 3.64141202 -0.139294207 0.771366835 2.98180509 -0.96568048 -0.400140405 3.34481096 -0.185910016 -0.0574540384 2.72833204 -0.853153229 1.55265152 2.47008705 -0.845085979 -0.0574540384 2.72833204 -0.853153229 0.771366835 2.98180509 -0.96568048 0.793111145 2.2790668 -0.873884141 1.64966702 1.51785827 -1.24490547 0.882413864 1.33188665 -1.22481573 2.21142054 1.24053514 -1.93784988 0.882413864 1.33188665 -1.22481573 1.64966702 1.51785827 -1.24490547 0.882413864 1.33188665 -1.22481573 2.21142054 1.24053514 -1.93784988 1.58362293 0.997610331 -1.66372907 2.48210979 0.585939884 -2.5830853 1.91480911 0.376621753 -2.21746826 3.20168948 -0.152108863 -2.16359854 1.91480911 0.376621753 -2.21746826 2.48210979 0.585939884 -2.5830853 2.70842886 -0.336400777 -1.87178493 -0.231765121 3.58700562 -0.960534871 -0.904712558 3.57335639 -1.15401256 -1.26054692 4.20179272 -1.70597434 -1.81824195 4.14602852 -1.96421051 -0.978633404 2.95866466 -1.45215261 -1.81824195 4.14602852 -1.96421051 -0.904712558 3.57335639 -1.15401256 -1.80697668 3.37285018 -1.90342307 -1.41592038 2.65219164 -1.34622526 -1.80697668 3.37285018 -1.90342307 -0.978633404 2.95866466 -1.45215261 -2.31040573 3.11133242 -1.51821828 -1.89994967 2.44524217 -1.67438424 -2.31040573 3.11133242 -1.51821828 -1.41592038 2.65219164 -1.34622526 -2.82215023 2.86310792 -1.74963164 -2.46475291 2.27720952 -1.76214004 -3.25275397 2.66889262 -2.00976634 -2.43631577 1.51729238 -1.72816467 -3.12553382 1.83144069 -1.99263012 -0.555196822 3.83543968 -1.91918051 -1.19741309 3.56917906 -1.92245483 -0.936004877 4.05932188 -0.695300698 -1.41068518 3.72718763 -0.812858403 -1.22853971 3.0424304 -2.02375817 -1.41068518 3.72718763 -0.812858403 -1.19741309 3.56917906 -1.92245483 -1.41068518 3.72718763 -0.812858403 -1.22853971 3.0424304 -2.02375817 -1.58359766 3.42292738 -1.13379121 -1.84047389 2.71837783 -1.80125165 -2.15747786 3.06824374 -0.884373665 -2.18822765 2.53985667 -2.14015126 -2.15747786 3.06824374 -0.884373665 -1.84047389 2.71837783 -1.80125165 -2.15747786 3.06824374 -0.884373665 -2.18822765 2.53985667 -2.14015126 -2.26235151 2.66033506 -1.17741644 -2.82435322 2.33290958 -2.1868825 -2.26235151 2.66033506 -1.17741644 -2.18822765 2.53985667 -2.14015126 -2.75482488 2.36922812 -1.25728679 -2.80614996 1.68177617 -2.09330416 -2.75482488 2.36922812 -1.25728679 -2.82435322 2.33290958 -2.1868825 -2.72910166 1.72447217 -1.28464937 -1.36189628 4.04374504 -0.590375841 -0.964046717 4.12782955 -1.3135339 -0.0750518143 4.58510303 -1.7472558 0.461895168 4.62265396 -2.28984046 -0.449124098 3.40365887 -1.73486412 0.461895168 4.62265396 -2.28984046 -0.964046717 4.12782955 -1.3135339 0.461895168 4.62265396 -2.28984046 -0.449124098 3.40365887 -1.73486412 0.321829617 3.73525643 -2.79148269 -0.545612395 3.1363709 -2.41374826 -0.340171278 3.57934022 -3.56885028 -0.103742674 2.95483875 -3.09905791 -0.340171278 3.57934022 -3.56885028 -0.545612395 3.1363709 -2.41374826 -0.0736382529 3.33987713 -4.37586212 0.104271054 2.84049535 -3.83667064 0.479683489 3.18952537 -4.86253929 0.0445495285 1.97248757 -4.27257299 0.479683489 3.18952537 -4.86253929 0.104271054 2.84049535 -3.83667064 0.477680475 2.22038865 -5.20419502 -0.1217371 4.20537567 -0.991504729 0.0883183256 3.90830827 -1.98611081 -1.38333201 4.60541344 -1.18056238 -1.07959783 4.24147367 -1.96479023 0.220958516 3.38210297 -2.2071557 -1.07959783 4.24147367 -1.96479023 0.0883183256 3.90830827 -1.98611081 -1.07959783 4.24147367 -1.96479023 0.220958516 3.38210297 -2.2071557 -0.74514401 4.00917959 -2.19509649 -0.0619736016 3.05049086 -3.26298022 -1.05779707 3.64306164 -3.21451283 0.363428265 2.96012235 -3.64116883 -1.05779707 3.64306164 -3.21451283 -0.0619736016 3.05049086 -3.26298022 -1.05779707 3.64306164 -3.21451283 0.363428265 2.96012235 -3.64116883 -0.677166104 3.25970554 -3.43147326 0.561452627 2.76160359 -4.5623045 -0.677166104 3.25970554 -3.43147326 0.363428265 2.96012235 -3.64116883 -0.45858717 2.96604681 -4.19784737 0.400485337 2.0796361 -4.85792303 -0.45858717 2.96604681 -4.19784737 0.561452627 2.76160359 -4.5623045 -0.495396554 2.28170967 -4.49358273 1.92073715 5.09248304 0.0140472269 1.86086786 4.30437422 0.637550533 0.393064111 4.24595308 0.3580046 0.407526553 3.55521894 1.10646582 2.51684833 4.22725821 0.841525197 0.407526553 3.55521894 1.10646582 2.51684833 4.22725821 0.841525197 1.37828863 3.60833168 0.935770214 2.87714434 3.78656673 1.20027983 1.37828863 3.60833168 0.935770214 2.51684833 4.22725821 0.841525197 1.37828863 3.60833168 0.935770214 2.87714434 3.78656673 1.20027983 1.86090934 3.02964687 0.97792536 3.12112474 3.11244249 1.31902111 2.13608456 2.37515497 0.964524209 3.25527167 2.49213719 1.76711881 2.13608456 2.37515497 0.964524209 3.12112474 3.11244249 1.31902111 2.2940371 1.8634187 1.66688657 4.20302439 2.56344676 1.71962619 2.2940371 1.8634187 1.66688657 3.25527167 2.49213719 1.76711881 3.32705998 2.05919218 1.67205894 1.39246726 4.52109766 -0.511644006 1.39208031 4.07187557 0.0869127661 0.914091885 4.72897196 1.04431641 1.12061405 4.32502127 1.47714746 2.20547152 3.88179994 0.239514112 1.12061405 4.32502127 1.47714746 1.39208031 4.07187557 0.0869127661 1.12061405 4.32502127 1.47714746 2.20547152 3.88179994 0.239514112 1.77779031 3.76759434 1.46212029 2.43306398 3.410074 0.439018875 2.05025959 3.34664679 1.68048382 2.83474636 2.72477245 0.607941031 2.05025959 3.34664679 1.68048382 2.83474636 2.72477245 0.607941031 2.73736501 2.9736104 1.80575907 2.87544727 2.16140532 1.08909345 2.73736501 2.9736104 1.80575907 2.83474636 2.72477245 0.607941031 2.95215797 2.50878382 2.21061993 3.82250738 2.1236136 1.14533627 2.95215797 2.50878382 2.21061993 2.87544727 2.16140532 1.08909345 3.911026 2.41401553 2.12531614 -0.145280197 3.25852418 -0.214220852 -0.00307254121 2.24944949 -0.201719671 -0.370113671 2.95742536 0.2813133 -0.656361043 1.73638368 1.10225737 -0.650295854 1.05646634 -0.819909573 -0.656361043 1.73638368 1.10225737 -0.00307254121 2.24944949 -0.201719671 -0.856987178 0.367742002 0.505166173 0.0326660834 0.410058528 -0.660663128 -0.856987178 0.367742002 0.505166173 -0.650295854 1.05646634 -0.819909573 -0.122289956 -0.225319847 0.239924312 -0.0686748922 -1.32702911 -0.0809554011 -0.122289956 -0.225319847 0.239924312 0.0326660834 0.410058528 -0.660663128 -0.0773910359 -1.69499767 0.689403653 0.0116810761 -2.37575483 -0.088351123 -0.397707075 -3.00709987 0.54080981 -0.0130358431 -3.64259171 -0.118165731 -0.184642479 -3.98445749 0.18187134 -0.752176642 2.99149394 0.0190317165 -0.845095813 1.69477165 0.228553042 0.302548677 3.4745791 0.0190317128 0.663248122 2.07872581 0.228553012 -1.30300558 0.741300642 -0.187295273 0.663248122 2.07872581 0.228553012 -0.845095813 1.69477165 0.228553042 0.0768762082 1.34510839 -0.187295318 -0.478186458 -0.0321307667 -0.342476666 0.0768762082 1.34510839 -0.187295318 -1.30300558 0.741300642 -0.187295273 0.463193655 0.225154892 -0.0838074237 -0.558905959 -1.47432542 -0.0367061086 0.163703516 -1.54672801 0.600479007 -0.601807892 -2.74259019 -0.0672155246 0.363250941 -2.5174911 0.469325721 -0.230554134 -3.83413219 -0.0813879296 0.108409949 -3.73119593 0.135683045</float_array>
        <technique_common><accessor source="#vfx_kurp_0068-mesh-positions-array" count="308" stride="3"><param name="X" type="float"/><param name="Y" type="float"/><param name="Z" type="float"/></accessor></technique_common>
      </source>
      <source id="vfx_kurp_0068-mesh-normals">
        <float_array id="vfx_kurp_0068-mesh-normals-array" count="924">0.811329248 -0.292792083 0.505981864 0.866795165 0.0361887693 0.497349491 0.814074207 -0.224337381 0.535682671 0.843160107 -0.0814690082 0.531454453 0.86404438 0.217668 0.45392505 -0.284527962 0.940486446 0.185820031 -0.284527961 0.940486443 0.185820045 -0.284527962 0.940486446 0.185820031 0.462034771 0.647088481 0.606465471 0.528012561 0.465175618 0.710502906 0.561577867 0.434387275 0.704228653 0.462891328 0.598451837 0.653901381 0.271275819 0.870058359 0.411591888 0.117317521 0.95648975 0.267140331 0.560457699 0.0774025906 0.824558068 0.584674558 0.0249453866 0.810884325 0.487653587 0.213459002 0.846539564 0.637014632 -0.109069497 0.763096457 0.454040207 0.710252118 0.537949273 0.467524198 0.703246888 0.535597739 0.502532423 0.683987499 0.528793216 0.393095913 0.739227598 0.546825532 0.53165149 -0.497579687 -0.685391238 0.531651554 -0.497579691 -0.685391184 0.531651482 -0.497579709 -0.685391228 0.673994296 0.0213822683 -0.738427036 0.673994296 0.0213822683 -0.738427036 0.673994296 0.0213822702 -0.738427036 0.761541317 -0.543611832 -0.352903669 0.753457011 -0.557691098 -0.348257334 0.781502187 -0.506361961 -0.364488542 0.730898877 -0.594379322 -0.335410276 0.583407407 -0.0738112486 -0.808818705 0.575463594 -0.175984532 -0.798668327 0.585278221 0.0172432682 -0.810649168 0.562793836 -0.268169932 -0.781887451 0.752497681 -0.630558259 -0.1901145 0.706248797 -0.694541432 -0.137203629 0.554690462 -0.828293117 -0.0790506352 0.874209685 -0.40255811 -0.271485532 0.877993507 -0.257349218 -0.403607212 0.875629784 -0.120903745 -0.467605353 0.830354555 -0.0578424249 -0.554225195 0.824298026 -0.119301856 -0.553443612 -0.666102753 0.0346151471 0.745056316 -0.683196115 0.0574590814 0.727970825 -0.677781512 0.0501196824 0.73355316 -0.693856609 0.072210343 0.716483546 -0.107494198 0.515826404 0.849922419 -0.105629377 0.563619733 0.819252849 -0.0992218499 0.678729309 0.727654829 -0.110915663 0.368974424 0.922797697 -0.44670117 -0.196099565 0.872927847 -0.495062566 -0.10484598 0.862508189 -0.538004754 -0.0126587376 0.842846748 -0.385175908 -0.298360522 0.873281466 0.472925629 0.265391884 0.840183609 0.472473987 0.365488088 0.80198927 0.452130912 0.380660592 0.806644377 0.336910985 0.205528732 0.918830196 0.160452221 0.0869104883 0.983209872 0.103819276 0.115941356 0.987815347 0.00322007126 0.0986889807 0.995113117 -0.00102932843 0.120726226 0.992685307 0.839033731 0.10988173 0.532868092 0.889198479 0.0377162619 0.455964415 0.8761469 0.0583234011 0.478502863 0.91950066 -0.0180642979 0.392673169 0.780740663 -0.491814246 0.385438405 0.644860569 -0.73101956 0.223081262 0.578401222 -0.809003909 0.104712466 0.76012336 -0.517620257 0.392787152 0.830464421 -0.368826627 0.417487442 0.836542479 -0.380437191 0.394289519 0.816573763 0.2662896 0.512149528 0.816573814 0.266289567 0.512149463 0.816573789 0.266289559 0.512149507 0.983349542 -0.168394339 0.0683156313 0.991682557 -0.0824890532 0.0987991047 0.986550395 -0.151396156 0.0616240355 0.993038212 -0.0982198392 0.0650228692 0.987306086 -0.158815895 -0.00205036282 0.506216701 -0.813111835 -0.287391362 0.498220471 -0.812481876 -0.302736788 0.493818584 -0.812038068 -0.311026336 0.511215996 -0.813385325 -0.277601367 0.97760947 0.105398217 0.182128909 0.969590171 0.112126997 0.217537206 0.968976013 0.11259479 0.220017953 0.959325332 0.119298833 0.255856787 0.57650418 0.796195699 0.183617371 0.546077854 0.809928128 0.214045333 0.426551099 0.845758072 0.320542422 0.6987551 0.714126483 0.0420080507 0.983247599 0.121101278 -0.136230099 0.985681729 0.151465091 -0.0740935591 0.976092813 0.210797488 0.0529833882 0.964688223 0.0596796561 -0.256544287 0.320111714 0.870596446 -0.373617878 0.23635855 0.920530248 -0.311060603 0.239777823 0.937375684 -0.25265277 0.490943553 0.788704756 -0.370025994 0.653605165 0.7168417 -0.242772044 0.67964643 0.708649812 -0.189462855 0.730135024 0.653127671 -0.200816065 0.733819861 0.646610634 -0.208334108 -0.195261852 0.743571704 -0.639510696 -0.240953202 0.689531668 -0.682998999 -0.236500397 0.695098222 -0.6789006 -0.289449282 0.624368266 -0.725522834 -0.0446545697 0.205216315 -0.977697414 -0.017582601 -0.140547783 -0.989917761 -0.0415315322 -0.288820052 -0.956482153 -0.0231124249 0.200344378 -0.979452881 -0.0874089381 0.355261686 -0.930671162 -0.106098012 0.336650284 -0.935633367 -0.215409678 0.833792556 -0.508319431 -0.215409678 0.833792556 -0.508319431 -0.215409678 0.833792556 -0.508319431 -0.453872919 0.1907769 -0.870404244 -0.497105569 0.442372531 -0.746453345 -0.488335963 0.275851784 -0.827909283 -0.554395425 0.40886887 -0.724894448 -0.594629059 0.334719872 -0.731012237 -0.225018498 -0.623923472 -0.748389055 -0.229144412 -0.633051463 -0.739417801 -0.233395024 -0.642431136 -0.729937668 -0.220025286 -0.612846614 -0.758951844 0.239272765 -0.560730591 -0.792672535 0.266699941 -0.54633856 -0.793968084 0.382893472 -0.477680861 -0.790704486 0.410647072 -0.459296384 -0.787664785 0.655208518 0.143446577 -0.741704036 0.581059042 0.0608789887 -0.811581258 0.722384322 0.229506504 -0.652294148 0.452838952 -0.0633222527 -0.889340866 0.0508118301 -0.593478789 -0.803244101 -0.0901576969 -0.639338745 -0.763621346 0.178645909 -0.539329767 -0.822927118 -0.203605834 -0.665614556 -0.717984629 0.289551767 0.336573872 -0.896034487 0.27750668 0.378073127 -0.88320482 0.376428489 0.424968605 -0.823227355 0.308165638 0.263322144 -0.914163764 0.239822134 0.0623231083 -0.968814313 0.36946997 0.126604661 -0.920577645 0.326847291 0.000621174533 -0.945076961 0.372919498 0.0376808716 -0.927098269 -0.366837315 0.888207356 -0.276619011 -0.40962646 0.873885286 -0.261783633 -0.470373419 0.849461967 -0.239088295 -0.522737734 0.824191081 -0.217840132 -0.974832301 0.0962759857 -0.201079385 -0.974832298 0.0962759928 -0.201079399 -0.974832301 0.0962759857 -0.201079385 -0.422098129 0.760442314 -0.493518649 -0.520467347 0.690198907 -0.502731747 -0.49659688 0.718334328 -0.487224109 -0.563645359 0.667045887 -0.487189588 -0.602834586 0.653473322 -0.457780602 -0.0971736602 0.918216459 -0.383973715 -0.0971736654 0.918216438 -0.383973765 -0.0971736665 0.918216448 -0.38397374 -0.93979599 0.322607464 -0.112729418 -0.93979599 0.322607464 -0.112729418 -0.93979599 0.322607464 -0.112729418 -0.372425261 0.923471755 -0.092191883 -0.426525301 0.902779771 -0.0553611189 -0.296887104 0.944438351 -0.141046973 -0.509392022 0.860522923 0.00447962851 -0.996127424 -0.0272758509 0.0835833846 -0.995636717 -0.0321832826 0.0875886096 -0.997019674 -0.0170600679 0.0752377827 -0.994315805 -0.0437879526 0.0970499592 0.520703981 -0.832399026 0.189681906 0.528176374 -0.820909451 0.217111471 0.576326612 -0.647332851 0.498806391 0.577783288 -0.621764304 0.52874911 0.578409126 -0.0619604652 0.813390302 0.578409126 -0.0619604615 0.813390302 0.578409126 -0.0619604615 0.813390302 0.798525576 -0.386783334 0.461254331 0.711605098 -0.623676859 0.32348935 0.708935086 -0.684762005 0.168855087 0.58221347 -0.811468733 0.0504576087 0.479201471 -0.844629416 -0.238677817 0.811484257 0.517534422 0.271387958 0.850590096 0.481311522 0.211744439 0.761448638 0.548342657 0.345711298 0.713009243 0.613451425 0.339551421 0.802738023 0.545675822 0.240519363 0.577014153 0.685301787 0.444315348 0.928777565 -0.173235057 0.327661183 0.92698534 -0.169132772 0.334801859 0.939839076 -0.202741074 0.274951938 0.911632656 -0.138326034 0.387029468 0.323785925 0.923132522 -0.207337942 0.298964672 0.920762397 -0.250632667 0.288807155 0.919167404 -0.267809094 0.253997412 0.911155749 -0.324469592 0.0993994922 0.406565607 -0.908198298 0.0993994922 0.406565607 -0.908198298 0.0993995008 0.406565582 -0.908198308 0.543085321 0.83778522 -0.0563405624 0.506408987 0.786974367 -0.352450399 0.524899426 0.829709773 -0.189900727 0.475255898 0.783843503 -0.399651341 0.448684526 0.788436375 -0.420773429 0.489750866 0.793482786 0.361288192 0.489750866 0.793482786 0.361288192 0.489750866 0.793482786 0.361288192 -0.0480247432 0.455431784 -0.888974417 -0.0480247463 0.455431807 -0.888974405 -0.0480247506 0.455431783 -0.888974417 0.175218329 0.957343403 -0.229765416 0.156073627 0.955593507 -0.249964143 0.244638171 0.95734988 -0.153731493 0.0663340251 0.937912718 -0.340469574 -0.241632401 0.417953103 -0.875744818 -0.249898182 0.410751673 -0.876831775 -0.225495019 0.431794571 -0.87333009 -0.268505938 0.394257943 -0.878900015 0.170611382 -0.619290353 -0.766401471 0.150720554 -0.677320966 -0.720083067 0.161127984 -0.694920893 -0.700801488 0.152930291 -0.720227009 -0.676672285 0.135353922 -0.700910983 -0.700287876 -0.179978284 0.183939758 -0.966319814 -0.179978283 0.183939772 -0.966319811 -0.179978284 0.183939758 -0.966319814 0.207938808 -0.50964666 -0.834878275 0.207938793 -0.509646661 -0.834878278 0.207938793 -0.509646661 -0.834878278 0.165725113 0.0665386099 -0.983924692 0.237876174 -0.0342179682 -0.970692565 0.213893796 0.0651581273 -0.974681416 0.262014125 -0.0125977297 -0.964981811 0.251516885 0.125398386 -0.959695004 0.538613249 -0.499929537 -0.678208099 0.519688065 -0.562987919 -0.642626578 0.561061923 -0.401561263 -0.723849481 0.486326199 -0.65053542 -0.583344235 -0.0495279667 0.208650103 -0.976735438 -0.0476982713 0.203745309 -0.977861301 -0.0676530086 0.257118556 -0.964008879 -0.0190290041 0.126611618 -0.99176983 -0.917243289 -0.318299229 -0.23947933 -0.910024585 -0.358385474 -0.208362922 -0.872984297 -0.475262467 -0.109654025 -0.854123896 -0.514917735 -0.0730212112 -0.248156353 -0.960434553 0.126427427 -0.248156367 -0.960434549 0.126427426 -0.248156367 -0.960434549 0.126427426 -0.623614666 -0.72749525 -0.286103843 -0.748478242 -0.582881755 -0.316273901 -0.693917412 -0.662391144 -0.282341279 -0.788932418 -0.539508564 -0.294136277 -0.761258526 -0.591841149 -0.264970774 -0.79883181 -0.535689109 -0.273687627 -0.491919034 -0.859542717 0.138571216 -0.491919034 -0.859542717 0.138571216 -0.491919034 -0.859542717 0.138571216 -0.984994294 -0.172492564 0.00570571191 -0.965385256 -0.244433194 0.0910149513 -0.991290475 -0.119282651 -0.0558107845 -0.941454936 -0.298439827 0.156831993 -0.0613917158 -0.953633203 0.294643466 -0.0625417767 -0.953826745 0.293773836 -0.0557650671 -0.952657535 0.298887734 -0.0686448744 -0.954820403 0.289146813 -0.871334966 -0.128662496 -0.473520157 -0.868955193 -0.123537294 -0.479223757 -0.869569401 -0.124849391 -0.477767397 -0.867670182 -0.120815591 -0.482236507 -0.919571471 0.36951003 -0.133606316 -0.921645562 0.36489775 -0.1319814 -0.816229118 0.543843695 -0.194946307 -0.983020758 0.171993728 -0.0639401882 -0.59003436 -0.653604441 -0.473983849 -0.608248654 -0.626857105 -0.486912461 -0.556333183 -0.698629318 -0.449900507 -0.643847893 -0.568639884 -0.511965402 -0.997182466 -0.0444279601 -0.0604424165 -0.990601611 -0.00844631354 -0.136517795 -0.985656874 0.00118436876 -0.16875759 -0.991510851 0.0314439008 -0.126164628 -0.941471493 0.110582923 -0.318438134 -0.880543932 0.0968515633 -0.463963531 -0.860367012 0.00765866424 -0.509617455 -0.865645175 -0.00485119506 -0.500634494 -0.0752571317 0.164309774 0.983533763 -0.0513637116 0.149363671 0.987447347 -0.0519035169 0.149702387 0.987367824 -0.0354782048 0.139374362 0.989604004 0.166152837 -0.507214493 0.845651638 0.195373294 -0.541481486 0.817696201 0.112551829 -0.442153952 0.889849408 0.276341414 -0.631522966 0.724440589 -0.193696782 0.0590507427 0.979282679 -0.0997464685 -0.0716225376 0.992431788 0.0592050544 -0.13530123 0.989034043 -0.344733511 0.130731048 0.929552688 -0.594984787 0.182596525 0.782720648 -0.595030368 0.118786298 0.794876517 -0.500557074 -0.136802184 0.854826168 -0.447527519 -0.188016575 0.874281926 -0.47811514 -0.146584391 0.865978596 -0.507038133 -0.127855558 0.852387992</float_array>
        <technique_common><accessor source="#vfx_kurp_0068-mesh-normals-array" count="308" stride="3"><param name="X" type="float"/><param name="Y" type="float"/><param name="Z" type="float"/></accessor></technique_common>
      </source>
      <source id="vfx_kurp_0068-mesh-uv0">
        <float_array id="vfx_kurp_0068-mesh-uv0-array" count="616">0 0 0 0.166666627 1 0 1 0.166666627 0 0.333333313 1 0.166666627 0 0.333333313 1 0.333333313 0 0.5 1 0.333333313 0 0.333333313 1 0.5 0 0.666666627 1 0.666666627 0 0.833333313 1 0.666666627 0 0.666666627 1 0.833333313 0 1 1 0.833333313 0 0.833333313 1 1 0 0 0 0.166666627 1 0 1 0 0 0.166666627 1 0.166666627 0 0.333333313 1 0.166666627 0 0.166666627 1 0.333333313 0 0.5 1 0.333333313 0 0.333333313 1 0.5 0 0.666666627 1 0.5 0 0.5 1 0.666666627 0 0.833333313 1 0.833333313 0 1 1 1 0 0 0 0.166666627 1 0 1 0.166666627 0 0.333333313 1 0.166666627 0 0.166666627 1 0.333333313 0 0.5 1 0.333333313 0 0.333333313 1 0.5 0 0.666666627 1 0.5 0 0.5 1 0.666666627 0 0.833333313 1 0.833333313 0 1 1 1 0 0 0 0.166666627 1 0 1 0.166666627 0 0.333333313 1 0.166666627 0 0.166666627 1 0.333333313 0 0.5 1 0.5 0 0.666666627 1 0.5 0 0.5 1 0.5 0 0.666666627 1 0.666666627 0 0.833333313 1 0.833333313 0 1 1 0.833333313 0 0.833333313 1 1 0 0 0 0.166666627 1 0 1 0.166666627 0 0.333333313 1 0.166666627 0 0.166666627 1 0.333333313 0 0.5 1 0.333333313 0 0.333333313 1 0.5 0 0.666666627 1 0.5 0 0.5 1 0.666666627 0 0.833333313 1 0.833333313 0 1 1 1 0 0 0 0.166666627 1 0 1 0.166666627 0 0.333333313 1 0.166666627 0 0.166666627 1 0.333333313 0 0.5 1 0.5 0 0.666666627 1 0.5 0 0.5 1 0.5 0 0.666666627 1 0.666666627 0 0.833333313 1 0.833333313 0 1 1 0.833333313 0 0.833333313 1 1 0 0 0 0.166666627 1 0 1 0.166666627 0 0.333333313 1 0.166666627 0 0.166666627 1 0.333333313 0 0.5 1 0.333333313 0 0.333333313 1 0.5 0 0.666666627 1 0.5 0 0.5 1 0.666666627 0 0.833333313 1 0.833333313 0 1 1 1 0 0 0 0.166666627 1 0 1 0.166666627 0 0.333333313 1 0.166666627 0 0.166666627 1 0.166666627 0 0.333333313 1 0.333333313 0 0.5 1 0.5 0 0.666666627 1 0.5 0 0.5 1 0.5 0 0.666666627 1 0.666666627 0 0.833333313 1 0.666666627 0 0.666666627 1 0.833333313 0 1 1 0.833333313 0 0.833333313 1 1 0 0 0 0.166666627 1 0 1 0.166666627 0 0.333333313 1 0.166666627 0 0.166666627 1 0.166666627 0 0.333333313 1 0.333333313 0 0.5 1 0.5 0 0.666666627 1 0.5 0 0.5 1 0.666666627 0 0.833333313 1 0.833333313 0 1 1 0.833333313 0 0.833333313 1 1 0 0 0 0.166666627 1 0 1 0.166666627 0 0.333333313 1 0.166666627 0 0.166666627 1 0.166666627 0 0.333333313 1 0.333333313 0 0.5 1 0.5 0 0.666666627 1 0.5 0 0.5 1 0.5 0 0.666666627 1 0.666666627 0 0.833333313 1 0.666666627 0 0.666666627 1 0.833333313 0 1 1 0.833333313 0 0.833333313 1 1 0 0 0 0.166666627 1 0 1 0.166666627 0 0.333333313 1 0.166666627 0 0.333333313 1 0.333333313 0 0.5 1 0.333333313 0 0.333333313 1 0.333333313 0 0.5 1 0.5 0 0.666666627 1 0.666666627 0 0.833333313 1 0.666666627 0 0.666666627 1 0.833333313 0 1 1 0.833333313 0 0.833333313 1 1 0 0 0 0.166666627 1 0 1 0.166666627 0 0.333333313 1 0.166666627 0 0.166666627 1 0.166666627 0 0.333333313 1 0.333333313 0 0.5 1 0.5 0 0.666666627 1 0.5 0 0.666666627 1 0.666666627 0 0.833333313 1 0.666666627 0 0.666666627 1 0.833333313 0 1 1 0.833333313 0 0.833333313 1 1 0 0 0 0.166666627 1 0 1 0.166666627 0 0.333333313 1 0.166666627 0 0.166666627 1 0.333333313 0 0.5 1 0.333333313 0 0.333333313 1 0.5 0 0.666666627 1 0.5 0 0.5 1 0.666666627 0 0.833333313 1 0.833333313 0 1 1 1 0 0 0 0.166666627 1 0 1 0.166666627 0 0.333333313 1 0.166666627 0 0.166666627 1 0.333333313 0 0.5 1 0.333333313 0 0.333333313 1 0.5 0 0.666666627 1 0.666666627 0 0.833333313 1 0.833333313 0 1 1 1</float_array>
        <technique_common><accessor source="#vfx_kurp_0068-mesh-uv0-array" count="308" stride="2"><param name="S" type="float"/><param name="T" type="float"/></accessor></technique_common>
      </source>
      <vertices id="vfx_kurp_0068-mesh-vertices"><input semantic="POSITION" source="#vfx_kurp_0068-mesh-positions"/></vertices>
      <triangles material="PreviewMaterial" count="168">
        <input semantic="VERTEX" source="#vfx_kurp_0068-mesh-vertices" offset="0"/>
        <input semantic="NORMAL" source="#vfx_kurp_0068-mesh-normals" offset="1"/>
        <input semantic="TEXCOORD" source="#vfx_kurp_0068-mesh-uv0" offset="2" set="0"/>
        <p>0 0 0 1 1 1 2 2 2 2 2 2 1 1 1 3 3 3 4 4 4 3 3 3 1 1 1 5 5 5 6 6 6 7 7 7 8 8 8 9 9 9 10 10 10 9 9 9 8 8 8 11 11 11 12 12 12 11 11 11 8 8 8 11 11 11 12 12 12 13 13 13 14 14 14 15 15 15 16 16 16 15 15 15 14 14 14 17 17 17 18 18 18 19 19 19 20 20 20 19 19 19 18 18 18 21 21 21 22 22 22 23 23 23 24 24 24 25 25 25 26 26 26 27 27 27 28 28 28 29 29 29 30 30 30 29 29 29 28 28 28 31 31 31 32 32 32 33 33 33 34 34 34 33 33 33 32 32 32 35 35 35 36 36 36 37 37 37 38 38 38 37 37 37 36 36 36 39 39 39 40 40 40 39 39 39 36 36 36 39 39 39 40 40 40 41 41 41 42 42 42 41 41 41 40 40 40 41 41 41 42 42 42 43 43 43 44 44 44 45 45 45 46 46 46 46 46 46 45 45 45 47 47 47 48 48 48 49 49 49 50 50 50 49 49 49 48 48 48 51 51 51 52 52 52 53 53 53 54 54 54 53 53 53 52 52 52 55 55 55 56 56 56 57 57 57 58 58 58 57 57 57 56 56 56 59 59 59 60 60 60 59 59 59 56 56 56 59 59 59 60 60 60 61 61 61 62 62 62 61 61 61 60 60 60 61 61 61 62 62 62 63 63 63 64 64 64 65 65 65 66 66 66 66 66 66 65 65 65 67 67 67 68 68 68 69 69 69 70 70 70 69 69 69 68 68 68 71 71 71 72 72 72 71 71 71 68 68 68 71 71 71 72 72 72 73 73 73 74 74 74 75 75 75 76 76 76 77 77 77 78 78 78 79 79 79 80 80 80 79 79 79 78 78 78 79 79 79 80 80 80 81 81 81 82 82 82 83 83 83 84 84 84 83 83 83 82 82 82 85 85 85 86 86 86 87 87 87 88 88 88 88 88 88 87 87 87 89 89 89 90 90 90 91 91 91 92 92 92 91 91 91 90 90 90 93 93 93 94 94 94 95 95 95 96 96 96 95 95 95 94 94 94 97 97 97 98 98 98 99 99 99 100 100 100 99 99 99 98 98 98 101 101 101 102 102 102 101 101 101 98 98 98 101 101 101 102 102 102 103 103 103 104 104 104 103 103 103 102 102 102 103 103 103 104 104 104 105 105 105 106 106 106 107 107 107 108 108 108 108 108 108 107 107 107 109 109 109 110 110 110 111 111 111 112 112 112 111 111 111 110 110 110 113 113 113 114 114 114 113 113 113 110 110 110 113 113 113 114 114 114 115 115 115 116 116 116 117 117 117 118 118 118 119 119 119 120 120 120 121 121 121 122 122 122 121 121 121 120 120 120 121 121 121 122 122 122 123 123 123 124 124 124 125 125 125 126 126 126 125 125 125 124 124 124 127 127 127 128 128 128 129 129 129 130 130 130 130 130 130 129 129 129 131 131 131 132 132 132 133 133 133 134 134 134 133 133 133 132 132 132 135 135 135 136 136 136 137 137 137 138 138 138 137 137 137 136 136 136 139 139 139 140 140 140 141 141 141 142 142 142 141 141 141 140 140 140 143 143 143 144 144 144 143 143 143 140 140 140 143 143 143 144 144 144 145 145 145 146 146 146 145 145 145 144 144 144 145 145 145 146 146 146 147 147 147 148 148 148 149 149 149 150 150 150 150 150 150 149 149 149 151 151 151 152 152 152 153 153 153 154 154 154 155 155 155 156 156 156 157 157 157 158 158 158 157 157 157 156 156 156 157 157 157 158 158 158 159 159 159 160 160 160 161 161 161 162 162 162 163 163 163 164 164 164 165 165 165 166 166 166 167 167 167 168 168 168 167 167 167 166 166 166 169 169 169 170 170 170 171 171 171 172 172 172 171 171 171 170 170 170 173 173 173 174 174 174 175 175 175 176 176 176 176 176 176 175 175 175 177 177 177 178 178 178 179 179 179 180 180 180 181 181 181 182 182 182 183 183 183 184 184 184 183 183 183 182 182 182 183 183 183 184 184 184 185 185 185 186 186 186 187 187 187 188 188 188 187 187 187 186 186 186 189 189 189 190 190 190 189 189 189 186 186 186 189 189 189 190 190 190 191 191 191 192 192 192 193 193 193 194 194 194 193 193 193 192 192 192 195 195 195 196 196 196 197 197 197 198 198 198 198 198 198 197 197 197 199 199 199 200 200 200 201 201 201 202 202 202 203 203 203 204 204 204 205 205 205 206 206 206 205 205 205 204 204 204 205 205 205 206 206 206 207 207 207 208 208 208 209 209 209 210 210 210 211 211 211 212 212 212 213 213 213 214 214 214 215 215 215 216 216 216 215 215 215 214 214 214 217 217 217 218 218 218 219 219 219 220 220 220 219 219 219 218 218 218 221 221 221 222 222 222 223 223 223 224 224 224 224 224 224 223 223 223 225 225 225 226 226 226 225 225 225 223 223 223 227 227 227 228 228 228 229 229 229 230 230 230 231 231 231 232 232 232 233 233 233 234 234 234 235 235 235 236 236 236 235 235 235 234 234 234 235 235 235 236 236 236 237 237 237 238 238 238 239 239 239 240 240 240 239 239 239 238 238 238 241 241 241 242 242 242 243 243 243 244 244 244 243 243 243 242 242 242 245 245 245 246 246 246 247 247 247 248 248 248 248 248 248 247 247 247 249 249 249 250 250 250 251 251 251 252 252 252 253 253 253 254 254 254 255 255 255 256 256 256 255 255 255 254 254 254 255 255 255 256 256 256 257 257 257 258 258 258 257 257 257 256 256 256 259 259 259 260 260 260 261 261 261 262 262 262 263 263 263 264 264 264 263 263 263 262 262 262 265 265 265 266 266 266 267 267 267 268 268 268 267 267 267 266 266 266 269 269 269 270 270 270 271 271 271 272 272 272 272 272 272 271 271 271 273 273 273 274 274 274 275 275 275 276 276 276 275 275 275 274 274 274 277 277 277 278 278 278 279 279 279 280 280 280 279 279 279 278 278 278 281 281 281 282 282 282 283 283 283 284 284 284 283 283 283 282 282 282 285 285 285 286 286 286 285 285 285 282 282 282 285 285 285 286 286 286 287 287 287 288 288 288 287 287 287 286 286 286 287 287 287 288 288 288 289 289 289 290 290 290 291 291 291 292 292 292 292 292 292 291 291 291 293 293 293 294 294 294 295 295 295 296 296 296 295 295 295 294 294 294 297 297 297 298 298 298 299 299 299 300 300 300 299 299 299 298 298 298 301 301 301 302 302 302 301 301 301 298 298 298 301 301 301 302 302 302 303 303 303 304 304 304 303 303 303 302 302 302 303 303 303 304 304 304 305 305 305 306 306 306 305 305 305 304 304 304 305 305 305 306 306 306 307 307 307</p>
      </triangles>
    </mesh></geometry>
  </library_geometries>
  <library_visual_scenes>
    <visual_scene id="Scene" name="Scene">
      <node id="vfx_kurp_0068" name="vfx_kurp_0068" type="NODE">
        <instance_geometry url="#vfx_kurp_0068-mesh"><bind_material><technique_common><instance_material symbol="PreviewMaterial" target="#PreviewMaterial"><bind_vertex_input semantic="UVSET0" input_semantic="TEXCOORD" input_set="0"/></instance_material></technique_common></bind_material></instance_geometry>
      </node>
    </visual_scene>
  </library_visual_scenes>
  <scene><instance_visual_scene url="#Scene"/></scene>
</COLLADA>
