<?xml version="1.0" encoding="utf-8"?>
<COLLADA xmlns="http://www.collada.org/2005/11/COLLADASchema" version="1.4.1">
  <asset>
    <contributor><authoring_tool>Morrobroom Kurpulio VFX preview converter</authoring_tool></contributor>
    <unit name="unit" meter="1"/>
    <up_axis>Z_UP</up_axis>
  </asset>
  <library_images>
    <image id="VFXTexture" name="darkmap_newgen-1.dds">
      <init_from>../../../Textures/Kurp/darkmap_newgen-1.dds</init_from>
    </image>
  </library_images>
  <library_effects>
    <effect id="PreviewEffect">
      <profile_COMMON>
        <newparam sid="VFXTexture-surface">
          <surface type="2D"><init_from>VFXTexture</init_from></surface>
        </newparam>
        <newparam sid="VFXTexture-sampler">
          <sampler2D><source>VFXTexture-surface</source></sampler2D>
        </newparam>
        <technique sid="common"><phong>
          <emission><color>0.08 0.08 0.08 1</color></emission>
          <ambient><color>0.2 0.2 0.2 1</color></ambient>
          <diffuse><texture texture="VFXTexture-sampler" texcoord="UVSET0"/></diffuse>
          <specular><color>0.15 0.15 0.15 1</color></specular>
          <shininess><float>8</float></shininess>
          <transparent opaque="A_ONE"><texture texture="VFXTexture-sampler" texcoord="UVSET0"/></transparent>
          <transparency><float>1</float></transparency>
        </phong></technique>
      </profile_COMMON>
      <extra><technique profile="GOOGLEEARTH"><double_sided>1</double_sided></technique></extra>
    </effect>
  </library_effects>
  <library_materials><material id="PreviewMaterial" name="PreviewMaterial"><instance_effect url="#PreviewEffect"/></material></library_materials>
  <library_geometries>
    <geometry id="vfx_kurp_0567-mesh" name="vfx_kurp_0567"><mesh>
      <source id="vfx_kurp_0567-mesh-positions">
        <float_array id="vfx_kurp_0567-mesh-positions-array" count="663">-2.31496257 1.40978013 -3.92419163 0.501646538 2.61088456 -4.312638 -0.657089653 1.30285912 -2.24699156 -0.657089653 1.30285912 -2.24699156 0.501646538 2.61088456 -4.312638 -0.26642062 -0.0472089669 -4.34154609 1.82879913 2.06950677 -2.83199865 -0.26642062 -0.0472089669 -4.34154609 0.501646538 2.61088456 -4.312638 -0.26642062 -0.0472089669 -4.34154609 1.82879913 2.06950677 -2.83199865 1.76445599 0.565319759 -4.61248236 1.82879913 2.06950677 -2.83199865 0.501646538 2.61088456 -4.312638 0.591215137 -0.404665761 -2.76155179 0.591215137 -0.404665761 -2.76155179 0.501646538 2.61088456 -4.312638 -0.462141135 1.47229397 -2.5099597 -2.31496257 1.40978013 -3.92419163 -0.462141135 1.47229397 -2.5099597 0.501646538 2.61088456 -4.312638 -0.462141135 1.47229397 -2.5099597 -2.31496257 1.40978013 -3.92419163 -1.23168449 3.77306975 -3.2121564 -3.85663323 1.1482024 -2.60844376 -1.23168449 3.77306975 -3.2121564 -2.31496257 1.40978013 -3.92419163 -1.23168449 3.77306975 -3.2121564 -3.85663323 1.1482024 -2.60844376 -3.59571613 3.63964046 -1.7109342 -3.97467758 0.223762504 -2.12598214 -3.59571613 3.63964046 -1.7109342 -3.85663323 1.1482024 -2.60844376 -3.59571613 3.63964046 -1.7109342 -3.97467758 0.223762504 -2.12598214 -4.069026 0.270339415 -0.00197821075 -2.6070705 -2.55826073 -1.12744669 -4.069026 0.270339415 -0.00197821075 -3.97467758 0.223762504 -2.12598214 -4.069026 0.270339415 -0.00197821075 -2.6070705 -2.55826073 -1.12744669 -2.92869756 -0.519113362 0.290028024 -1.8242022 -3.17655528 0.451381533 -2.92869756 -0.519113362 0.290028024 -2.6070705 -2.55826073 -1.12744669 -2.92869756 -0.519113362 0.290028024 -1.8242022 -3.17655528 0.451381533 -2.49813997 -0.509674344 0.691051887 -1.52170631 -2.14229449 2.22432675 -2.49813997 -0.509674344 0.691051887 -1.8242022 -3.17655528 0.451381533 -2.49813997 -0.509674344 0.691051887 -1.52170631 -2.14229449 2.22432675 -0.0211576993 -1.44758208 0.500943009 0.960158737 -3.40903579 1.68378287 -0.0211576993 -1.44758208 0.500943009 -1.52170631 -2.14229449 2.22432675 -0.0211576993 -1.44758208 0.500943009 0.960158737 -3.40903579 1.68378287 0.194949393 -2.93410969 -0.315249147 2.35320558 -3.91862306 1.16920895 0.194949393 -2.93410969 -0.315249147 0.960158737 -3.40903579 1.68378287 0.194949393 -2.93410969 -0.315249147 2.35320558 -3.91862306 1.16920895 1.14676148 -3.5141699 -0.70171756 -1.74440321 1.56887953 -1.30275721 -2.31496257 1.40978013 -3.92419163 -0.657089653 1.30285912 -2.24699156 -2.31496257 1.40978013 -3.92419163 -1.74440321 1.56887953 -1.30275721 -3.85663323 1.1482024 -2.60844376 -1.78384233 1.20597299 -1.09947425 -3.85663323 1.1482024 -2.60844376 -1.74440321 1.56887953 -1.30275721 -3.85663323 1.1482024 -2.60844376 -1.78384233 1.20597299 -1.09947425 -3.97467758 0.223762504 -2.12598214 -0.695107489 -0.560432996 -1.07728381 -3.97467758 0.223762504 -2.12598214 -1.78384233 1.20597299 -1.09947425 -3.97467758 0.223762504 -2.12598214 -0.695107489 -0.560432996 -1.07728381 -2.6070705 -2.55826073 -1.12744669 0.161037836 -1.27373117 0.187593769 -2.6070705 -2.55826073 -1.12744669 -0.695107489 -0.560432996 -1.07728381 -2.6070705 -2.55826073 -1.12744669 0.161037836 -1.27373117 0.187593769 -1.8242022 -3.17655528 0.451381533 -2.20399902 -3.23994817 0.355656432 -1.8242022 -3.17655528 0.451381533 0.161037836 -1.27373117 0.187593769 -1.8242022 -3.17655528 0.451381533 -2.20399902 -3.23994817 0.355656432 -1.52170631 -2.14229449 2.22432675 -0.820973369 -5.16139671 0.79560001 -1.52170631 -2.14229449 2.22432675 -2.20399902 -3.23994817 0.355656432 -1.52170631 -2.14229449 2.22432675 -0.820973369 -5.16139671 0.79560001 0.960158737 -3.40903579 1.68378287 2.74597849 -5.80563437 -0.358866986 0.960158737 -3.40903579 1.68378287 -0.820973369 -5.16139671 0.79560001 0.960158737 -3.40903579 1.68378287 2.74597849 -5.80563437 -0.358866986 2.35320558 -3.91862306 1.16920895 1.76767213 -2.48979681 -1.09858015 2.35320558 -3.91862306 1.16920895 2.74597849 -5.80563437 -0.358866986 3.32839787 -1.95950139 0.586845901 2.35320558 -3.91862306 1.16920895 1.76767213 -2.48979681 -1.09858015 2.35320558 -3.91862306 1.16920895 3.32839787 -1.95950139 0.586845901 1.14676148 -3.5141699 -0.70171756 0.865574482 -3.16257467 0.910255196 1.14676148 -3.5141699 -0.70171756 3.32839787 -1.95950139 0.586845901 0.960158737 -3.40903579 1.68378287 0.194949393 -2.93410969 -0.315249147 2.35320558 -3.91862306 1.16920895 1.14676148 -3.5141699 -0.70171756 2.35320558 -3.91862306 1.16920895 1.14676148 -3.5141699 -0.70171756 3.32839787 -1.95950139 0.586845901 0.865574482 -3.16257467 0.910255196 3.32839787 -1.95950139 0.586845901 1.14676148 -3.5141699 -0.70171756 3.32839787 -1.95950139 0.586845901 1.76767213 -2.48979681 -1.09858015 2.35320558 -3.91862306 1.16920895 2.74597849 -5.80563437 -0.358866986 1.76767213 -2.48979681 -1.09858015 2.35320558 -3.91862306 1.16920895 2.74597849 -5.80563437 -0.358866986 0.960158737 -3.40903579 1.68378287 -0.820973369 -5.16139671 0.79560001 2.74597849 -5.80563437 -0.358866986 0.960158737 -3.40903579 1.68378287 -0.820973369 -5.16139671 0.79560001 -1.52170631 -2.14229449 2.22432675 -2.20399902 -3.23994817 0.355656432 -1.52170631 -2.14229449 2.22432675 -0.820973369 -5.16139671 0.79560001 -1.52170631 -2.14229449 2.22432675 -2.20399902 -3.23994817 0.355656432 -1.8242022 -3.17655528 0.451381533 0.161037836 -1.27373117 0.187593769 -1.8242022 -3.17655528 0.451381533 -2.20399902 -3.23994817 0.355656432 0.161037836 -1.27373117 0.187593769 -2.6070705 -2.55826073 -1.12744669 -0.695107489 -0.560432996 -1.07728381 -2.6070705 -2.55826073 -1.12744669 0.161037836 -1.27373117 0.187593769 -0.695107489 -0.560432996 -1.07728381 -3.97467758 0.223762504 -2.12598214 -1.78384233 1.20597299 -1.09947425 -3.97467758 0.223762504 -2.12598214 -0.695107489 -0.560432996 -1.07728381 -1.78384233 1.20597299 -1.09947425 -3.85663323 1.1482024 -2.60844376 -1.74440321 1.56887953 -1.30275721 -3.85663323 1.1482024 -2.60844376 -1.78384233 1.20597299 -1.09947425 -1.74440321 1.56887953 -1.30275721 -2.31496257 1.40978013 -3.92419163 -0.657089653 1.30285912 -2.24699156 -2.31496257 1.40978013 -3.92419163 -1.74440321 1.56887953 -1.30275721 -0.657089653 1.30285912 -2.24699156 0.501646538 2.61088456 -4.312638 -0.26642062 -0.0472089669 -4.34154609 -0.657089653 1.30285912 -2.24699156 0.194949393 -2.93410969 -0.315249147 -0.0211576993 -1.44758208 0.500943009 -1.52170631 -2.14229449 2.22432675 -0.0211576993 -1.44758208 0.500943009 0.960158737 -3.40903579 1.68378287 -0.0211576993 -1.44758208 0.500943009 -2.49813997 -0.509674344 0.691051887 -1.8242022 -3.17655528 0.451381533 -2.49813997 -0.509674344 0.691051887 -1.52170631 -2.14229449 2.22432675 -2.49813997 -0.509674344 0.691051887 -2.92869756 -0.519113362 0.290028024 -2.6070705 -2.55826073 -1.12744669 -2.92869756 -0.519113362 0.290028024 -1.8242022 -3.17655528 0.451381533 -2.92869756 -0.519113362 0.290028024 -4.069026 0.270339415 -0.00197821075 -3.97467758 0.223762504 -2.12598214 -4.069026 0.270339415 -0.00197821075 -2.6070705 -2.55826073 -1.12744669 -4.069026 0.270339415 -0.00197821075 -3.59571613 3.63964046 -1.7109342 -3.85663323 1.1482024 -2.60844376 -3.59571613 3.63964046 -1.7109342 -3.97467758 0.223762504 -2.12598214 -3.59571613 3.63964046 -1.7109342 -1.23168449 3.77306975 -3.2121564 -2.31496257 1.40978013 -3.92419163 -1.23168449 3.77306975 -3.2121564 -3.85663323 1.1482024 -2.60844376 -1.23168449 3.77306975 -3.2121564 -2.31496257 1.40978013 -3.92419163 -0.462141135 1.47229397 -2.5099597 -0.462141135 1.47229397 -2.5099597 -0.462141135 1.47229397 -2.5099597 0.591215137 -0.404665761 -2.76155179 0.591215137 -0.404665761 -2.76155179 0.501646538 2.61088456 -4.312638 1.82879913 2.06950677 -2.83199865 -0.26642062 -0.0472089669 -4.34154609 1.82879913 2.06950677 -2.83199865 0.501646538 2.61088456 -4.312638 1.76445599 0.565319759 -4.61248236 1.82879913 2.06950677 -2.83199865 -0.26642062 -0.0472089669 -4.34154609</float_array>
        <technique_common><accessor source="#vfx_kurp_0567-mesh-positions-array" count="221" stride="3"><param name="X" type="float"/><param name="Y" type="float"/><param name="Z" type="float"/></accessor></technique_common>
      </source>
      <source id="vfx_kurp_0567-mesh-normals">
        <float_array id="vfx_kurp_0567-mesh-normals-array" count="663">0.319368468 -0.87023345 -0.375096686 0.319281287 -0.870130345 -0.375409966 0.320210631 -0.871226556 -0.372061069 -0.902847327 0.264567524 -0.338925847 -0.90284733 0.26456753 -0.338925834 -0.90284733 0.26456753 -0.338925834 0.694480177 -0.193135079 -0.693106143 0.694480177 -0.193135079 -0.693106143 0.694480166 -0.193135059 -0.693106159 -0.302431623 0.733476578 -0.608725901 -0.30243165 0.733476568 -0.6087259 -0.302431653 0.733476585 -0.608725878 -0.636078365 0.337918753 0.693696786 -0.636078355 0.337918735 0.693696803 -0.636078349 0.337918774 0.693696789 0.73017711 0.329549476 0.598530309 0.7301771 0.329549501 0.598530307 0.730177071 0.329549509 0.598530339 -0.318366791 0.869045265 0.378685772 -0.318366782 0.869045252 0.378685809 0.59398556 0.48184361 0.64421106 0.607106587 -0.0391636793 -0.793654709 0.607106595 -0.0391636904 -0.793654703 0.607106587 -0.0391636793 -0.793654709 -0.61715867 0.472463288 -0.629200776 -0.617158665 0.472463293 -0.629200778 -0.617158665 0.472463293 -0.629200778 -0.518136254 0.337387815 -0.785941654 -0.518136249 0.337387819 -0.785941656 -0.518136254 0.337387815 -0.785941654 -0.993220684 0.113331158 -0.0258596564 -0.993220684 0.113331158 -0.0258596564 -0.993220684 0.113331159 -0.0258596546 -0.992185568 0.115737696 -0.0466109793 -0.992185568 0.115737696 -0.0466109793 -0.992185568 0.115737696 -0.0466109793 -0.89275252 -0.449560926 -0.0297978347 -0.892752523 -0.449560922 -0.0297978208 -0.892752519 -0.449560931 -0.0297978028 -0.538004921 -0.536696709 0.650005652 -0.538004915 -0.536696692 0.650005671 -0.538004921 -0.536696709 0.650005652 -0.886529647 -0.350096364 0.302485904 -0.886529642 -0.350096382 0.302485896 -0.886529642 -0.350096382 0.302485896 -0.660397203 -0.231095612 0.714472079 -0.660397203 -0.231095612 0.714472079 -0.660397204 -0.231095611 0.714472078 -0.915674273 -0.259016159 0.307329228 -0.915674273 -0.259016159 0.307329228 -0.915674276 -0.259016165 0.307329215 0.326308552 0.743436057 0.58380267 0.326308552 0.743436057 0.58380267 0.326308552 0.743436057 0.58380267 0.454430965 0.615609254 0.643830524 0.454430987 0.615609264 0.6438305 0.454430965 0.615609254 0.643830524 0.915226918 0.287860595 -0.281950292 0.915226912 0.287860607 -0.281950297 0.915226918 0.287860595 -0.281950292 0.368129593 0.926397254 0.079175313 0.368129593 0.926397254 0.079175313 0.368129593 0.926397254 0.079175313 0.480024626 0.868768266 -0.121729446 0.480024626 0.868768266 -0.121729446 0.480024626 0.868768266 -0.121729446 -0.1586673 -0.982829636 0.094183838 -0.1586673 -0.982829636 0.094183838 -0.158667258 -0.982829641 0.094183851 0.183564209 -0.982810394 0.0196954508 0.183564209 -0.982810394 0.0196954508 0.183564184 -0.982810398 0.0196954848 0.531746806 -0.457137879 -0.712930778 0.531746806 -0.457137879 -0.712930778 0.531746825 -0.457137858 -0.712930777 0.773572587 -0.590546214 -0.22987088 0.535557792 -0.443468012 -0.718689066 0.535557792 -0.443468012 -0.718689066 0.341306654 0.198825482 -0.918682859 0.341306644 0.198825493 -0.918682861 0.341306644 0.198825493 -0.918682861 0.89776294 -0.190500688 -0.397153864 0.250216916 -0.215764198 -0.94384178 0.250216916 -0.215764198 -0.94384178 0.550640243 -0.510389306 -0.660528636 0.550640307 -0.510389317 -0.660528575 0.550640243 -0.510389306 -0.660528636 0.648107644 -0.370850737 -0.665151271 0.550704769 -0.647568923 -0.526667587 0.550704769 -0.647568923 -0.526667587 -0.287046757 0.418904179 0.861465872 -0.287046757 0.418904179 0.861465872 -0.287046764 0.418904188 0.861465865 0.0464651076 0.838964196 -0.542199291 -0.0179695596 0.864961768 -0.501515936 -0.0179695598 0.864961776 -0.501515924 -0.746018281 -0.418340105 0.518119949 -0.746018274 -0.418340089 0.518119971 -0.746018282 -0.418340104 0.518119948 -0.307488554 -0.948809278 0.0721924021 -0.0242740573 -0.432221899 0.901440514 -0.0242740573 -0.432221899 0.901440514 0.158177317 -0.569583576 0.806569579 0.158177317 -0.569583576 0.806569579 0.158177317 -0.569583576 0.806569579 -0.590587873 -0.527921194 0.610332021 0.0619208927 -0.620298116 0.781918187 0.0619209175 -0.620298108 0.781918191 0.960737466 0.265425347 -0.0808263999 0.960737466 0.265425347 -0.0808263999 0.960737466 0.265425347 -0.0808263999 0.708032634 -0.500520802 -0.49816535 0.708032634 -0.500520802 -0.49816535 0.708032634 -0.500520802 -0.49816535 -0.929362602 0.122995737 0.348076433 -0.675817692 0.497942454 0.543436988 -0.675817675 0.497942476 0.543436988 0.451109842 -0.852342353 0.264598607 0.451109842 -0.852342353 0.264598607 0.451109829 -0.85234236 0.26459861 -0.497889354 -0.496130139 -0.71130941 -0.438529044 -0.897725995 0.0421937769 -0.406374223 -0.913582407 -0.0150723801 -0.480024626 -0.868768266 0.121729446 0.675817675 -0.497942476 -0.543436988 0.675817675 -0.497942476 -0.543436988 0.675817692 -0.497942454 -0.543436988 -0.451109842 0.852342353 -0.264598607 -0.451109829 0.85234236 -0.26459861 -0.451109842 0.852342353 -0.264598607 -0.708032634 0.500520802 0.49816535 -0.708032634 0.500520802 0.49816535 -0.708032634 0.500520802 0.49816535 -0.960737466 -0.265425347 0.0808263999 -0.960737466 -0.265425347 0.0808263999 -0.0619209175 0.620298108 -0.781918191 -0.0619208927 0.620298116 -0.781918187 -0.061920868 0.620298124 -0.781918182 -0.158177317 0.569583576 -0.806569579 -0.158177317 0.569583576 -0.806569579 0.0242740573 0.432221899 -0.901440514 0.0242740573 0.432221899 -0.901440514 0.0242740573 0.432221899 -0.901440514 0.746018282 0.418340104 -0.518119948 0.746018274 0.418340089 -0.518119971 0.746018281 0.418340105 -0.518119949 0.0179695598 -0.864961776 0.501515924 0.0179695596 -0.864961768 0.501515936 -0.386147951 -0.340084418 0.857456908 0.287046764 -0.418904188 -0.861465865 0.287046757 -0.418904179 -0.861465872 0.287046757 -0.418904179 -0.861465872 -0.550704769 0.647568923 0.526667587 -0.405971763 0.430861301 0.805943837 -0.550640243 0.510389306 0.660528636 -0.550640307 0.510389317 0.660528575 -0.550640243 0.510389306 0.660528636 -0.250216916 0.215764198 0.94384178 -0.43470629 0.36335092 0.824018538 -0.341306644 -0.198825493 0.918682861 -0.341306644 -0.198825493 0.918682861 -0.341306654 -0.198825482 0.918682859 -0.535557792 0.443468012 0.718689066 -0.424773752 0.798246447 0.427047854 -0.531746825 0.457137858 0.712930777 -0.531746806 0.457137879 0.712930778 -0.531746806 0.457137879 0.712930778 -0.183564209 0.982810394 -0.0196954508 -0.255073702 0.951448412 0.172288496 0.158667258 0.982829641 -0.094183851 0.1586673 0.982829636 -0.094183838 0.1586673 0.982829636 -0.094183838 -0.320210631 0.871226556 0.372061069 -0.83389068 0.54072657 -0.110639552 0.90284733 -0.26456753 0.338925834 0.902847327 -0.264567524 0.338925847 -0.915226918 -0.287860595 0.281950292 -0.915226918 -0.287860595 0.281950292 -0.454430965 -0.615609254 -0.643830524 -0.454430987 -0.615609264 -0.6438305 -0.454430965 -0.615609254 -0.643830524 -0.326308552 -0.743436057 -0.58380267 -0.326308552 -0.743436057 -0.58380267 0.915674276 0.259016165 -0.307329215 0.915674273 0.259016159 -0.307329228 0.915674273 0.259016159 -0.307329228 0.660397204 0.231095611 -0.714472078 0.660397203 0.231095612 -0.714472079 0.886529642 0.350096382 -0.302485896 0.886529642 0.350096382 -0.302485896 0.886529647 0.350096364 -0.302485904 0.538004921 0.536696709 -0.650005652 0.538004921 0.536696709 -0.650005652 0.892752519 0.449560931 0.0297978028 0.892752523 0.449560922 0.0297978208 0.89275252 0.449560926 0.0297978347 0.992185568 -0.115737696 0.0466109793 0.992185568 -0.115737696 0.0466109793 0.993220684 -0.113331159 0.0258596546 0.993220684 -0.113331158 0.0258596564 0.993220684 -0.113331158 0.0258596564 0.518136254 -0.337387815 0.785941654 0.518136254 -0.337387815 0.785941654 0.617158665 -0.472463293 0.629200778 0.617158665 -0.472463293 0.629200778 0.61715867 -0.472463288 0.629200776 -0.607106587 0.0391636793 0.793654709 -0.607106595 0.0391636904 0.793654703 -0.607106587 0.0391636793 0.793654709 0.318366782 -0.869045252 -0.378685809 -0.730177071 -0.329549509 -0.598530339 -0.73017711 -0.329549476 -0.598530309 0.636078349 -0.337918774 -0.693696789 0.636078355 -0.337918735 -0.693696803 0.636078365 -0.337918753 -0.693696786 -0.694480177 0.193135079 0.693106143 -0.694480177 0.193135079 0.693106143 -0.694480166 0.193135059 0.693106159 0.302431653 -0.733476585 0.608725878 0.30243165 -0.733476568 0.6087259 0.302431623 -0.733476578 0.608725901</float_array>
        <technique_common><accessor source="#vfx_kurp_0567-mesh-normals-array" count="221" stride="3"><param name="X" type="float"/><param name="Y" type="float"/><param name="Z" type="float"/></accessor></technique_common>
      </source>
      <source id="vfx_kurp_0567-mesh-uv0">
        <float_array id="vfx_kurp_0567-mesh-uv0-array" count="442">0.5 0.199999988 0.5 0.0999999642 0 0.199999988 0 0.199999988 0.5 0.0999999642 0 0.0999999642 0.5 0 0 0.0999999642 0.5 0.0999999642 0 0.0999999642 0.5 0 0 0 0.5 0 0.5 0.0999999642 1 0 1 0 0.5 0.0999999642 1 0.0999999642 0.5 0.199999988 1 0.0999999642 0.5 0.0999999642 1 0.0999999642 0.5 0.199999988 1 0.199999988 0.5 0.300000012 1 0.199999988 0.5 0.199999988 1 0.199999988 0.5 0.300000012 1 0.300000012 0.5 0.399999976 1 0.300000012 0.5 0.300000012 1 0.300000012 0.5 0.399999976 1 0.399999976 0.5 0.5 1 0.399999976 0.5 0.399999976 1 0.399999976 0.5 0.5 1 0.5 0.5 0.600000024 1 0.5 0.5 0.5 1 0.5 0.5 0.600000024 1 0.600000024 0.5 0.699999988 1 0.600000024 0.5 0.600000024 1 0.600000024 0.5 0.699999988 1 0.699999988 0.5 0.800000012 1 0.699999988 0.5 0.699999988 1 0.699999988 0.5 0.800000012 1 0.800000012 0.5 0.899999976 1 0.800000012 0.5 0.800000012 1 0.800000012 0.5 0.899999976 1 0.899999976 0 0.300000012 0.5 0.199999988 0 0.199999988 0.5 0.199999988 0 0.300000012 0.5 0.300000012 0 0.399999976 0.5 0.300000012 0 0.300000012 0.5 0.300000012 0 0.399999976 0.5 0.399999976 0 0.5 0.5 0.399999976 0 0.399999976 0.5 0.399999976 0 0.5 0.5 0.5 0 0.600000024 0.5 0.5 0 0.5 0.5 0.5 0 0.600000024 0.5 0.600000024 0 0.699999988 0.5 0.600000024 0 0.600000024 0.5 0.600000024 0 0.699999988 0.5 0.699999988 0 0.800000012 0.5 0.699999988 0 0.699999988 0.5 0.699999988 0 0.800000012 0.5 0.800000012 0 0.899999976 0.5 0.800000012 0 0.800000012 0.5 0.800000012 0 0.899999976 0.5 0.899999976 0 1 0.5 0.899999976 0 0.899999976 0.5 1 0.5 0.899999976 0 1 0.5 0.899999976 0.5 1 1 0.899999976 1 1 1 0.899999976 0.5 1 0.5 0.800000012 1 0.800000012 0.5 0.899999976 1 0.899999976 0.5 0.899999976 1 0.899999976 0.5 1 1 1 0.5 1 1 0.899999976 0.5 1 0 1 0.5 0.899999976 0 0.899999976 0 1 0.5 0.899999976 0 0.899999976 0.5 0.800000012 0 0.800000012 0 0.899999976 0.5 0.800000012 0 0.800000012 0.5 0.699999988 0 0.699999988 0.5 0.699999988 0 0.800000012 0.5 0.699999988 0 0.699999988 0.5 0.600000024 0 0.600000024 0.5 0.600000024 0 0.699999988 0 0.600000024 0.5 0.5 0 0.5 0.5 0.5 0 0.600000024 0 0.5 0.5 0.399999976 0 0.399999976 0.5 0.399999976 0 0.5 0 0.399999976 0.5 0.300000012 0 0.300000012 0.5 0.300000012 0 0.399999976 0 0.300000012 0.5 0.199999988 0 0.199999988 0.5 0.199999988 0 0.300000012 0 0.199999988 0.5 0.0999999642 0 0.0999999642 0 0.199999988 1 0.800000012 1 0.699999988 0.5 0.699999988 1 0.699999988 0.5 0.800000012 1 0.699999988 1 0.600000024 0.5 0.600000024 1 0.600000024 0.5 0.699999988 1 0.600000024 1 0.5 0.5 0.5 1 0.5 0.5 0.600000024 1 0.5 1 0.399999976 0.5 0.399999976 1 0.399999976 0.5 0.5 1 0.399999976 1 0.300000012 0.5 0.300000012 1 0.300000012 0.5 0.399999976 1 0.300000012 1 0.199999988 0.5 0.199999988 1 0.199999988 0.5 0.300000012 1 0.199999988 0.5 0.199999988 1 0.0999999642 1 0.0999999642 1 0.0999999642 1 0 1 0 0.5 0.0999999642 0.5 0 0 0.0999999642 0.5 0 0.5 0.0999999642 0 0 0.5 0 0 0.0999999642</float_array>
        <technique_common><accessor source="#vfx_kurp_0567-mesh-uv0-array" count="221" stride="2"><param name="S" type="float"/><param name="T" type="float"/></accessor></technique_common>
      </source>
      <vertices id="vfx_kurp_0567-mesh-vertices"><input semantic="POSITION" source="#vfx_kurp_0567-mesh-positions"/></vertices>
      <triangles material="PreviewMaterial" count="80">
        <input semantic="VERTEX" source="#vfx_kurp_0567-mesh-vertices" offset="0"/>
        <input semantic="NORMAL" source="#vfx_kurp_0567-mesh-normals" offset="1"/>
        <input semantic="TEXCOORD" source="#vfx_kurp_0567-mesh-uv0" offset="2" set="0"/>
        <p>0 0 0 1 1 1 2 2 2 3 3 3 4 4 4 5 5 5 6 6 6 7 7 7 8 8 8 9 9 9 10 10 10 11 11 11 12 12 12 13 13 13 14 14 14 15 15 15 16 16 16 17 17 17 18 18 18 19 19 19 20 20 20 21 21 21 22 22 22 23 23 23 24 24 24 25 25 25 26 26 26 27 27 27 28 28 28 29 29 29 30 30 30 31 31 31 32 32 32 33 33 33 34 34 34 35 35 35 36 36 36 37 37 37 38 38 38 39 39 39 40 40 40 41 41 41 42 42 42 43 43 43 44 44 44 45 45 45 46 46 46 47 47 47 48 48 48 49 49 49 50 50 50 51 51 51 52 52 52 53 53 53 54 54 54 55 55 55 56 56 56 57 57 57 58 58 58 59 59 59 60 60 60 61 61 61 62 62 62 63 63 63 64 64 64 65 65 65 66 66 66 67 67 67 68 68 68 69 69 69 70 70 70 71 71 71 72 72 72 73 73 73 74 74 74 75 75 75 76 76 76 77 77 77 78 78 78 79 79 79 80 80 80 81 81 81 82 82 82 83 83 83 84 84 84 85 85 85 86 86 86 87 87 87 88 88 88 89 89 89 90 90 90 91 91 91 92 92 92 93 93 93 94 94 94 95 95 95 96 96 96 97 97 97 98 98 98 99 99 99 100 100 100 101 101 101 102 102 102 103 103 103 104 104 104 105 105 105 106 106 106 107 107 107 108 108 108 109 109 109 110 110 110 111 111 111 112 112 112 113 113 113 114 114 114 115 115 115 116 116 116 117 117 117 118 118 118 119 119 119 120 120 120 121 121 121 122 122 122 123 123 123 122 122 122 121 121 121 124 124 124 125 125 125 126 126 126 127 127 127 128 128 128 129 129 129 130 130 130 131 131 131 132 132 132 133 133 133 114 114 114 134 134 134 135 135 135 136 136 136 137 137 137 138 138 138 120 120 120 139 139 139 140 140 140 141 141 141 142 142 142 143 143 143 144 144 144 145 145 145 146 146 146 147 147 147 148 148 148 149 149 149 150 150 150 151 151 151 148 148 148 152 152 152 153 153 153 154 154 154 155 155 155 156 156 156 153 153 153 157 157 157 158 158 158 159 159 159 160 160 160 161 161 161 158 158 158 162 162 162 163 163 163 164 164 164 165 165 165 166 166 166 163 163 163 167 167 167 168 168 168 169 169 169 170 170 170 171 171 171 168 168 168 172 172 172 173 173 173 174 174 174 20 20 20 175 175 175 176 176 176 105 105 105 177 177 177 178 178 178 179 179 179 180 180 180 181 181 181 99 99 99 182 182 182 183 183 183 184 184 184 185 185 185 186 186 186 93 93 93 187 187 187 188 188 188 189 189 189 190 190 190 191 191 191 87 87 87 192 192 192 193 193 193 194 194 194 195 195 195 196 196 196 81 81 81 197 197 197 198 198 198 199 199 199 200 200 200 201 201 201 75 75 75 202 202 202 203 203 203 204 204 204 205 205 205 206 206 206 207 207 207 208 208 208 1 1 1 209 209 209 0 0 0 210 210 210 173 173 173 211 211 211 212 212 212 213 213 213 214 214 214 215 215 215 216 216 216 217 217 217 218 218 218 219 219 219 220 220 220</p>
      </triangles>
    </mesh></geometry>
  </library_geometries>
  <library_visual_scenes>
    <visual_scene id="Scene" name="Scene">
      <node id="vfx_kurp_0567" name="vfx_kurp_0567" type="NODE">
        <instance_geometry url="#vfx_kurp_0567-mesh"><bind_material><technique_common><instance_material symbol="PreviewMaterial" target="#PreviewMaterial"><bind_vertex_input semantic="UVSET0" input_semantic="TEXCOORD" input_set="0"/></instance_material></technique_common></bind_material></instance_geometry>
      </node>
    </visual_scene>
  </library_visual_scenes>
  <scene><instance_visual_scene url="#Scene"/></scene>
</COLLADA>
