<?xml version="1.0" encoding="utf-8"?>
<COLLADA xmlns="http://www.collada.org/2005/11/COLLADASchema" version="1.4.1">
  <asset>
    <contributor><authoring_tool>Morrobroom Kurpulio VFX preview converter</authoring_tool></contributor>
    <unit name="unit" meter="1"/>
    <up_axis>Z_UP</up_axis>
  </asset>
  <library_images>
    <image id="VFXTexture" name="darkmap_newgen-1.dds">
      <init_from>../../../Textures/Kurp/darkmap_newgen-1.dds</init_from>
    </image>
  </library_images>
  <library_effects>
    <effect id="PreviewEffect">
      <profile_COMMON>
        <newparam sid="VFXTexture-surface">
          <surface type="2D"><init_from>VFXTexture</init_from></surface>
        </newparam>
        <newparam sid="VFXTexture-sampler">
          <sampler2D><source>VFXTexture-surface</source></sampler2D>
        </newparam>
        <technique sid="common"><phong>
          <emission><color>0.08 0.08 0.08 1</color></emission>
          <ambient><color>0.2 0.2 0.2 1</color></ambient>
          <diffuse><texture texture="VFXTexture-sampler" texcoord="UVSET0"/></diffuse>
          <specular><color>0.15 0.15 0.15 1</color></specular>
          <shininess><float>8</float></shininess>
          <transparent opaque="A_ONE"><texture texture="VFXTexture-sampler" texcoord="UVSET0"/></transparent>
          <transparency><float>1</float></transparency>
        </phong></technique>
      </profile_COMMON>
      <extra><technique profile="GOOGLEEARTH"><double_sided>1</double_sided></technique></extra>
    </effect>
  </library_effects>
  <library_materials><material id="PreviewMaterial" name="PreviewMaterial"><instance_effect url="#PreviewEffect"/></material></library_materials>
  <library_geometries>
    <geometry id="vfx_kurp_0061-mesh" name="vfx_kurp_0061"><mesh>
      <source id="vfx_kurp_0061-mesh-positions">
        <float_array id="vfx_kurp_0061-mesh-positions-array" count="468">-0.24381642 3.77172875 -1.10692453 0.0081951255 2.59929395 -0.22281906 -0.851500452 3.30905724 0.24964647 -1.15554285 2.00519729 1.92337704 -0.70292902 1.20860159 -1.15686798 -1.15554285 2.00519729 1.92337704 0.0081951255 2.59929395 -0.22281906 -1.08968818 0.632409513 0.552022457 -0.0223521907 -0.113465212 -0.928438663 -1.08968818 0.632409513 0.552022457 -0.70292902 1.20860159 -1.15686798 0.236633882 -0.610944033 0.806076705 -0.626922131 -1.43949616 -0.177365646 0.236633882 -0.610944033 0.806076705 -0.0223521907 -0.113465212 -0.928438663 -0.111144923 -2.00735474 1.50448799 -0.37635234 -2.77862024 0.633214116 -0.34374404 -3.2522912 2.18411875 -0.318562388 -4.22940922 -0.735104382 -0.255273551 -4.56697369 0.252888054 -1.44107473 3.42839551 -0.707901061 -1.0767355 1.98462749 0.407883883 0.611414671 3.98138309 0.0202992205 0.724083602 2.55456424 0.727566183 -1.46393108 0.777010977 -0.565535605 0.724083602 2.55456424 0.727566183 -1.0767355 1.98462749 0.407883883 0.0734602809 1.27775276 0.0492894724 -0.426367074 -0.650273681 -0.212262377 1.13407755 -0.104376398 0.30208376 -1.09543097 -1.86502862 0.546488941 1.13407755 -0.104376398 0.30208376 -0.426367074 -0.650273681 -0.212262377 1.13407755 -0.104376398 0.30208376 -1.09543097 -1.86502862 0.546488941 0.417636752 -1.3666842 0.404514909 -0.796983063 -3.25393724 1.32422137 0.598277271 -2.71401334 0.954623997 -0.575339496 -4.46228552 0.0257527418 0.598277271 -2.71401334 0.954623997 -0.796983063 -3.25393724 1.32422137 0.366105258 -4.10700464 -0.781775236 -0.793950796 5.13182116 -1.74102497 -1.12792742 4.02975225 -1.1318742 -0.20293346 4.83348894 -1.41419899 0.0882244557 3.4612298 -0.099550426 -2.31379962 3.68012333 -0.518914461 0.0882244557 3.4612298 -0.099550426 -2.31379962 3.68012333 -0.518914461 -1.55024016 3.35217857 -0.235387772 -2.49318933 4.15839529 0.971942902 -1.55024016 3.35217857 -0.235387772 -2.31379962 3.68012333 -0.518914461 -1.69211328 3.79691625 1.66935325 -3.05821419 2.81277943 1.19685066 -1.69211328 3.79691625 1.66935325 -2.49318933 4.15839529 0.971942902 -1.36056626 1.93605089 2.59820795 -3.96242023 2.19421315 1.06943333 -2.73617649 1.6851753 1.9055686 -3.44828582 0.866854668 2.8156569 -2.73617649 1.6851753 1.9055686 -3.96242023 2.19421315 1.06943333 -2.68972278 0.422450066 3.23017859 -5.41613722 0.837222874 2.98136425 -5.09791708 0.702496767 3.18041754 -0.559777439 5.27016211 -1.41243899 -0.841320455 4.44643545 -0.290129066 -0.490013778 4.70090055 -1.82575619 -0.529148817 3.02232099 -1.6619271 -1.95355201 3.95855546 -0.13392812 -0.529148817 3.02232099 -1.6619271 -0.841320455 4.44643545 -0.290129066 -2.05754781 3.10794997 -0.777744114 -2.49040604 4.63259315 1.41592085 -2.05754781 3.10794997 -0.777744114 -2.49040604 4.63259315 1.41592085 -1.6253078 3.11782002 1.05159056 -2.94907045 3.36282229 2.21865916 -1.6253078 3.11782002 1.05159056 -2.49040604 4.63259315 1.41592085 -1.76007175 1.55750966 1.16126156 -3.53376818 2.63169885 2.01546741 -1.76007175 1.55750966 1.16126156 -2.94907045 3.36282229 2.21865916 -1.76007175 1.55750966 1.16126156 -3.53376818 2.63169885 2.01546741 -3.48057342 1.25482011 0.464920461 -3.07445431 1.03890622 3.41308451 -3.48057342 1.25482011 0.464920461 -3.53376818 2.63169885 2.01546741 -3.19772696 0.244529784 2.3907361 -5.217556 0.880470753 3.24228382 -3.19772696 0.244529784 2.3907361 -3.07445431 1.03890622 3.41308451 -5.33363914 0.639719844 2.85660386 0.155885175 3.82773495 0.134096324 -0.800075352 2.79301476 0.510362089 -0.218257725 3.55973125 -0.339658111 -0.893859029 2.57300496 -0.609591842 -2.1904161 1.45522928 -0.64340353 -1.31768644 1.91575456 0.356881082 -2.1904161 1.45522928 -0.64340353 -0.800075352 2.79301476 0.510362089 -1.4692322 0.64565438 0.251467288 -0.345413208 0.941435754 0.850668669 -1.34846556 1.11137402 1.57545686 -1.4692322 0.64565438 0.251467288 -0.345413208 0.941435754 0.850668669 -2.56180549 0.952634871 1.19752586 -1.86838675 0.931519747 3.13422918 -2.73307419 0.563763738 2.29672337 -2.66216516 -0.344258487 2.81687546 -2.73307419 0.563763738 2.29672337 -1.86838675 0.931519747 3.13422918 -3.56250238 -0.793949604 2.07399583 -3.73182559 -1.16764569 3.26101708 -3.56250238 -0.793949604 2.07399583 -2.66216516 -0.344258487 2.81687546 -4.11898327 -1.7009567 2.78631353 -3.88424039 -3.03843141 3.60042095 -4.11898327 -1.7009567 2.78631353 -3.73182559 -1.16764569 3.26101708 -4.07633877 -3.16335297 3.35758328 0.134793773 3.58260608 -0.174447119 -0.881412804 2.47351861 0.0624494962 -0.196377352 3.88067198 0.0843429193 -1.51357722 3.07430553 0.7416659 -2.1050272 2.07295394 0.301023424 -1.39188051 1.46209526 -0.257873982 -2.1050272 2.07295394 0.301023424 -1.39188051 1.46209526 -0.257873982 -1.0105145 1.35709214 0.640384793 -0.740323842 0.391076714 0.567725956 -1.0105145 1.35709214 0.640384793 -1.39188051 1.46209526 -0.257873982 -1.98611975 0.656213105 1.40726781 -1.0105145 1.35709214 0.640384793 -0.740323842 0.391076714 0.567725956 -1.0105145 1.35709214 0.640384793 -1.98611975 0.656213105 1.40726781 -1.72457075 2.25992322 2.18614173 -2.01686358 0.596344531 2.57934713 -1.72457075 2.25992322 2.18614173 -1.98611975 0.656213105 1.40726781 -2.11482501 1.90306199 3.40424466 -2.71421814 -1.19123399 2.0664916 -2.11482501 1.90306199 3.40424466 -2.01686358 0.596344531 2.57934713 -3.35916328 0.150889933 3.0398798 -3.7206645 -1.97543919 2.68780088 -4.34733582 -0.893514514 3.33513069 -3.91101646 -3.13840127 3.44397569 -4.34733582 -0.893514514 3.33513069 -3.7206645 -1.97543919 2.68780088 -4.04759026 -2.98804808 3.63106227</float_array>
        <technique_common><accessor source="#vfx_kurp_0061-mesh-positions-array" count="156" stride="3"><param name="X" type="float"/><param name="Y" type="float"/><param name="Z" type="float"/></accessor></technique_common>
      </source>
      <source id="vfx_kurp_0061-mesh-normals">
        <float_array id="vfx_kurp_0061-mesh-normals-array" count="468">-0.699086721 -0.520201262 -0.490579661 -0.697751114 -0.510904915 -0.502115077 -0.697322566 -0.508108093 -0.505536749 -0.69596088 -0.499696315 -0.515695692 -0.880058686 0.412126919 -0.235898519 -0.898526249 0.374515771 -0.228885382 -0.776337209 0.573148491 -0.262300105 -0.975594769 0.129985319 -0.176970797 -0.755052927 -0.611640038 -0.23620233 -0.744610953 -0.630488266 -0.219178181 -0.809449254 -0.47607836 -0.343716889 -0.668259553 -0.735571793 -0.111190407 -0.873110653 0.364264459 0.324020356 -0.822976057 0.456619116 0.337948801 -0.808907437 0.522013835 0.270500119 -0.946531893 0.211198837 0.243869692 -0.992390307 0.0318938299 0.118929651 -0.995944173 0.0746765041 0.0501858876 -0.996551668 -0.0808906237 0.0184791884 -0.993908516 -0.106805078 0.0271760335 -0.405842524 0.492553366 0.769859096 -0.358923992 0.460985082 0.811582603 -0.344401621 0.451000801 0.823398932 -0.28318345 0.407901489 0.867999717 -0.245788561 -0.255695166 0.93499089 -0.0791584857 -0.520873075 0.849955984 0.0661784247 -0.638971077 0.766378744 -0.286863625 -0.218374684 0.932749569 -0.328608637 -0.0428030833 0.943495766 -0.29594812 -0.0526613449 0.953751274 -0.433048252 0.636907166 0.63782323 -0.433048252 0.636907166 0.63782323 -0.433048277 0.636907158 0.637823222 0.082206295 0.0341663924 0.996029509 -0.048443076 0.406950241 0.912164881 0.0554358744 0.183281246 0.98149623 0.00339717195 0.436305297 0.89979228 0.0932235325 0.387043646 0.917336682 0.550991008 -0.648762475 0.524896332 0.502770365 -0.643919052 0.576706351 0.417140789 -0.628716301 0.656284523 0.621095228 -0.649771916 0.438220463 -0.197561322 0.519401487 0.831379348 -0.154350817 0.749351082 0.643932281 -0.252242954 0.565995936 0.784870749 -0.182617161 0.754343286 0.630568934 -0.0055187489 0.873174251 0.487376929 -0.104549323 0.499885307 0.859758175 -0.104549325 0.499885285 0.859758187 -0.104549325 0.499885285 0.859758187 0.500575472 0.84778617 -0.175165083 0.475953873 0.856393985 -0.200143082 0.453299135 0.863176286 -0.222365901 0.517078879 0.841245774 -0.157908142 -0.46231342 0.39466322 0.794044863 -0.511180756 0.328202753 0.794340725 -0.520830454 0.348916234 0.779097619 -0.478842117 0.335289692 0.811351372 -0.433660637 0.402736078 0.806065818 -0.471486638 0.252242571 0.845029015 0.0244141444 0.73333001 0.679434358 -0.064300777 0.766556876 0.63894911 -0.100398154 0.777626938 0.620658164 0.0502136471 0.733965232 0.677328301 0.0793324912 0.841783203 0.533954487 0.0939197164 0.887723442 0.450695215 0.975462878 -0.0379190864 0.216873964 0.975200004 -0.0129980595 0.220943438 0.975299293 -0.0178152489 0.220167904 0.974850998 -0.000977384727 0.222855505 0.616856156 -0.524841665 0.586540459 0.371652004 -0.596113319 0.711704784 0.364309642 -0.603421753 0.709338194 0.45966336 -0.571021078 0.680179773 0.77078163 -0.441726085 0.459101018 0.829661193 0.521652521 -0.198849068 0.829661193 0.521652521 -0.198849068 0.829661193 0.521652521 -0.198849068 0.669087599 0.127228128 0.732212256 0.667172863 0.0739683599 0.741221325 0.668155249 0.209907128 0.713797983 0.660859641 -0.00432753468 0.75049704 0.189225852 -0.400494635 0.896547614 0.189225852 -0.400494635 0.896547614 0.189225852 -0.400494635 0.896547614 -0.134492682 -0.743233749 0.655374177 -0.134492682 -0.743233749 0.655374177 -0.134492682 -0.743233749 0.655374177 0.986664153 0.0997668705 -0.128609565 0.984230119 0.123619983 -0.126527356 0.977028028 0.174887764 -0.121780554 0.990643665 0.0200113279 -0.134998796 -0.0238701721 -0.827317658 0.561226966 0.00238998043 -0.798498317 0.601992297 0.00957556913 -0.790168231 0.612815205 -0.0386325155 -0.842396133 0.537472124 0.697076143 -0.700170638 -0.15442127 0.74192911 -0.670098957 0.0225518214 0.748552142 -0.658082364 -0.0812237186 0.720739191 -0.689134603 0.0750234505 0.648655591 -0.755248961 0.0940475013 0.730864281 -0.208685337 -0.649836774 0.775465647 -0.125532922 -0.618784709 0.777717572 -0.369963041 -0.508215237 0.618844941 -0.00864847491 -0.785465558 0.466782298 0.017689552 -0.884195321 0.0905235472 -0.981425153 0.169145373 0.048329278 -0.943610472 0.327511156 0.074962846 -0.942807483 0.324799355 0.195512149 -0.978203609 0.0699478324 0.334370827 -0.933447019 -0.129895391 0.543434262 -0.814424276 -0.203450978 0.705838564 -0.309800358 -0.637036624 0.713827955 -0.305300647 -0.630270708 0.726483816 -0.297980068 -0.619216557 0.692783407 -0.316960152 -0.647755674 0.725474788 -0.679339362 -0.110382805 0.662694646 -0.736206963 -0.137241083 0.552989599 -0.814081962 -0.177406489 0.830924048 -0.553585598 -0.055751347 0.822529504 -0.183332222 -0.538362807 0.842576357 -0.164314473 -0.512899441 0.845735565 -0.161188263 -0.508674452 0.81519698 -0.18996462 -0.547144704 -0.457483414 0.236052366 -0.857314532 -0.425075919 0.394770742 -0.814534545 -0.494584516 0.253708907 -0.831274893 -0.448832644 0.419662458 -0.788944028 -0.316173939 0.477610496 -0.81970864 -0.305070185 0.424030653 -0.85271929 -0.573223347 -0.80570399 0.149184702 -0.573223347 -0.80570399 0.149184702 -0.573223347 -0.80570399 0.149184702 -0.895746228 -0.276707946 0.347953169 -0.895746228 -0.276707946 0.347953169 -0.895746244 -0.276707922 0.347953146 -0.570434207 -0.0982140963 -0.815450064 -0.570434206 -0.0982141037 -0.815450063 -0.570434206 -0.0982141037 -0.815450063 -0.725936233 0.392636567 -0.5646708 -0.725936233 0.392636567 -0.5646708 -0.725936233 0.392636567 -0.5646708 -0.98229368 0.144368069 -0.119402626 -0.975931296 0.130105258 -0.17501636 -0.985452551 0.169076923 -0.0172123167 -0.955633961 0.102648559 -0.276092387 -0.562255794 0.302607325 -0.76960849 -0.430180425 0.427155668 -0.795287896 -0.540069871 0.419941867 -0.729365041 -0.446189068 0.351364905 -0.82307838 -0.573185022 0.227781816 -0.787130469 -0.487584466 0.222678525 -0.844201198 -0.853359992 -0.189409583 -0.485696134 -0.846270163 -0.188639749 -0.498238754 -0.843988309 -0.188387783 -0.502188986 -0.859416312 -0.190050708 -0.474641267</float_array>
        <technique_common><accessor source="#vfx_kurp_0061-mesh-normals-array" count="156" stride="3"><param name="X" type="float"/><param name="Y" type="float"/><param name="Z" type="float"/></accessor></technique_common>
      </source>
      <source id="vfx_kurp_0061-mesh-uv0">
        <float_array id="vfx_kurp_0061-mesh-uv0-array" count="312">0 0 0 0.166666627 1 0 1 0.166666627 0 0.333333313 1 0.166666627 0 0.166666627 1 0.333333313 0 0.5 1 0.333333313 0 0.333333313 1 0.5 0 0.666666627 1 0.5 0 0.5 1 0.666666627 0 0.833333313 1 0.833333313 0 1 1 1 0 0 0 0.166666627 1 0 1 0.166666627 0 0.333333313 1 0.166666627 0 0.166666627 1 0.333333313 0 0.5 1 0.5 0 0.666666627 1 0.5 0 0.5 1 0.5 0 0.666666627 1 0.666666627 0 0.833333313 1 0.833333313 0 1 1 0.833333313 0 0.833333313 1 1 0 0 0 0.166666627 1 0 1 0.166666627 0 0.333333313 1 0.166666627 0 0.333333313 1 0.333333313 0 0.5 1 0.333333313 0 0.333333313 1 0.5 0 0.666666627 1 0.5 0 0.5 1 0.666666627 0 0.75 1 0.75 0 0.833333313 1 0.75 0 0.75 1 0.833333313 0 1 1 1 0 0 0 0.166666627 1 0 1 0.166666627 0 0.333333313 1 0.166666627 0 0.166666627 1 0.333333313 0 0.5 1 0.333333313 0 0.5 1 0.5 0 0.666666627 1 0.5 0 0.5 1 0.666666627 0 0.75 1 0.666666627 0 0.666666627 1 0.666666627 0 0.75 1 0.75 0 0.833333313 1 0.75 0 0.75 1 0.833333313 0 1 1 0.833333313 0 0.833333313 1 1 0 0 0 0.166666627 1 0 1 0.166666627 1 0.25 0 0.25 1 0.25 0 0.166666627 1 0.333333313 0 0.333333313 0 0.416666627 1 0.333333313 0 0.333333313 1 0.416666627 0 0.5 1 0.5 0 0.666666627 1 0.5 0 0.5 1 0.666666627 0 0.833333313 1 0.666666627 0 0.666666627 1 0.833333313 0 1 1 0.833333313 0 0.833333313 1 1 0 0 0 0.166666627 1 0 1 0.166666627 1 0.25 0 0.25 1 0.25 0 0.25 1 0.333333313 0 0.333333313 1 0.333333313 0 0.25 0 0.416666627 1 0.333333313 0 0.333333313 1 0.333333313 0 0.416666627 1 0.416666627 0 0.5 1 0.416666627 0 0.416666627 1 0.5 0 0.666666627 1 0.5 0 0.5 1 0.666666627 0 0.833333313 1 0.833333313 0 1 1 0.833333313 0 0.833333313 1 1</float_array>
        <technique_common><accessor source="#vfx_kurp_0061-mesh-uv0-array" count="156" stride="2"><param name="S" type="float"/><param name="T" type="float"/></accessor></technique_common>
      </source>
      <vertices id="vfx_kurp_0061-mesh-vertices"><input semantic="POSITION" source="#vfx_kurp_0061-mesh-positions"/></vertices>
      <triangles material="PreviewMaterial" count="84">
        <input semantic="VERTEX" source="#vfx_kurp_0061-mesh-vertices" offset="0"/>
        <input semantic="NORMAL" source="#vfx_kurp_0061-mesh-normals" offset="1"/>
        <input semantic="TEXCOORD" source="#vfx_kurp_0061-mesh-uv0" offset="2" set="0"/>
        <p>0 0 0 1 1 1 2 2 2 2 2 2 1 1 1 3 3 3 4 4 4 5 5 5 6 6 6 5 5 5 4 4 4 7 7 7 8 8 8 9 9 9 10 10 10 9 9 9 8 8 8 11 11 11 12 12 12 13 13 13 14 14 14 13 13 13 12 12 12 15 15 15 16 16 16 15 15 15 12 12 12 15 15 15 16 16 16 17 17 17 18 18 18 17 17 17 16 16 16 17 17 17 18 18 18 19 19 19 20 20 20 21 21 21 22 22 22 22 22 22 21 21 21 23 23 23 24 24 24 25 25 25 26 26 26 25 25 25 24 24 24 27 27 27 28 28 28 27 27 27 24 24 24 27 27 27 28 28 28 29 29 29 30 30 30 31 31 31 32 32 32 33 33 33 34 34 34 35 35 35 36 36 36 35 35 35 34 34 34 35 35 35 36 36 36 37 37 37 38 38 38 39 39 39 40 40 40 39 39 39 38 38 38 41 41 41 42 42 42 43 43 43 44 44 44 44 44 44 43 43 43 45 45 45 46 46 46 45 45 45 43 43 43 47 47 47 48 48 48 49 49 49 50 50 50 51 51 51 52 52 52 51 51 51 50 50 50 53 53 53 54 54 54 55 55 55 56 56 56 55 55 55 54 54 54 57 57 57 58 58 58 57 57 57 54 54 54 57 57 57 58 58 58 59 59 59 60 60 60 61 61 61 62 62 62 61 61 61 60 60 60 63 63 63 64 64 64 63 63 63 60 60 60 63 63 63 64 64 64 65 65 65 66 66 66 67 67 67 68 68 68 68 68 68 67 67 67 69 69 69 70 70 70 71 71 71 72 72 72 71 71 71 70 70 70 73 73 73 74 74 74 73 73 73 70 70 70 75 75 75 76 76 76 77 77 77 78 78 78 79 79 79 80 80 80 79 79 79 78 78 78 81 81 81 82 82 82 83 83 83 84 84 84 85 85 85 86 86 86 87 87 87 88 88 88 89 89 89 90 90 90 89 89 89 88 88 88 91 91 91 92 92 92 93 93 93 94 94 94 93 93 93 92 92 92 95 95 95 96 96 96 97 97 97 98 98 98 98 98 98 97 97 97 99 99 99 99 99 99 97 97 97 100 100 100 101 101 101 102 102 102 103 103 103 102 102 102 101 101 101 104 104 104 105 105 105 104 104 104 101 101 101 106 106 106 107 107 107 108 108 108 107 107 107 106 106 106 109 109 109 110 110 110 109 109 109 106 106 106 109 109 109 110 110 110 111 111 111 112 112 112 113 113 113 114 114 114 113 113 113 112 112 112 115 115 115 116 116 116 117 117 117 118 118 118 117 117 117 116 116 116 119 119 119 120 120 120 121 121 121 122 122 122 121 121 121 120 120 120 123 123 123 124 124 124 125 125 125 126 126 126 126 126 126 125 125 125 127 127 127 127 127 127 125 125 125 128 128 128 129 129 129 128 128 128 125 125 125 130 130 130 131 131 131 132 132 132 133 133 133 134 134 134 135 135 135 136 136 136 137 137 137 138 138 138 139 139 139 140 140 140 141 141 141 142 142 142 143 143 143 144 144 144 143 143 143 142 142 142 145 145 145 146 146 146 147 147 147 148 148 148 147 147 147 146 146 146 149 149 149 150 150 150 149 149 149 146 146 146 149 149 149 150 150 150 151 151 151 152 152 152 153 153 153 154 154 154 153 153 153 152 152 152 155 155 155</p>
      </triangles>
    </mesh></geometry>
  </library_geometries>
  <library_visual_scenes>
    <visual_scene id="Scene" name="Scene">
      <node id="vfx_kurp_0061" name="vfx_kurp_0061" type="NODE">
        <instance_geometry url="#vfx_kurp_0061-mesh"><bind_material><technique_common><instance_material symbol="PreviewMaterial" target="#PreviewMaterial"><bind_vertex_input semantic="UVSET0" input_semantic="TEXCOORD" input_set="0"/></instance_material></technique_common></bind_material></instance_geometry>
      </node>
    </visual_scene>
  </library_visual_scenes>
  <scene><instance_visual_scene url="#Scene"/></scene>
</COLLADA>
