<?xml version="1.0" encoding="utf-8"?>
<COLLADA xmlns="http://www.collada.org/2005/11/COLLADASchema" version="1.4.1">
  <asset>
    <contributor><authoring_tool>Morrobroom Kurpulio VFX preview converter</authoring_tool></contributor>
    <unit name="unit" meter="1"/>
    <up_axis>Z_UP</up_axis>
  </asset>
  <library_images>
    <image id="VFXTexture" name="darkmap_newgen-1.dds">
      <init_from>../../../Textures/Kurp/darkmap_newgen-1.dds</init_from>
    </image>
  </library_images>
  <library_effects>
    <effect id="PreviewEffect">
      <profile_COMMON>
        <newparam sid="VFXTexture-surface">
          <surface type="2D"><init_from>VFXTexture</init_from></surface>
        </newparam>
        <newparam sid="VFXTexture-sampler">
          <sampler2D><source>VFXTexture-surface</source></sampler2D>
        </newparam>
        <technique sid="common"><phong>
          <emission><color>0.08 0.08 0.08 1</color></emission>
          <ambient><color>0.2 0.2 0.2 1</color></ambient>
          <diffuse><texture texture="VFXTexture-sampler" texcoord="UVSET0"/></diffuse>
          <specular><color>0.15 0.15 0.15 1</color></specular>
          <shininess><float>8</float></shininess>
          <transparent opaque="A_ONE"><texture texture="VFXTexture-sampler" texcoord="UVSET0"/></transparent>
          <transparency><float>1</float></transparency>
        </phong></technique>
      </profile_COMMON>
      <extra><technique profile="GOOGLEEARTH"><double_sided>1</double_sided></technique></extra>
    </effect>
  </library_effects>
  <library_materials><material id="PreviewMaterial" name="PreviewMaterial"><instance_effect url="#PreviewEffect"/></material></library_materials>
  <library_geometries>
    <geometry id="vfx_kurp_0113-mesh" name="vfx_kurp_0113"><mesh>
      <source id="vfx_kurp_0113-mesh-positions">
        <float_array id="vfx_kurp_0113-mesh-positions-array" count="720">-0.677509898 -1.60422951 0.181537509 0.677509873 -1.60422939 -0.181538701 -0.677509951 -0.226449552 0.181538014 0.677509936 -0.226449427 -0.181538226 -0.677510004 1.17364543 0.181538527 0.677509998 1.17364556 -0.181537744 -0.677510057 2.71035975 0.181539086 0.677510061 2.71035987 -0.181537216 -0.67751011 4.26922887 0.181539652 0.677510123 4.269229 -0.181536681 0.181537159 -1.60422947 0.67750984 -0.181538864 -1.60422931 -0.677509673 0.181537862 -0.226449448 0.67750968 -0.18153813 -0.226449397 -0.677509718 0.181538562 1.17364548 0.677509467 -0.181537399 1.17364563 -0.677509816 0.181539341 2.71035979 0.677509285 -0.181536604 2.71035983 -0.677509941 0.181540133 4.26922868 0.677509107 -0.181535797 4.26922919 -0.67751006 0.296220241 -1.95521779 1.44271382 1.44197124 -2.2039819 0.672471368 1.09055581 -1.66201402 2.52960821 2.23630679 -1.91077801 1.75936589 1.89775685 -1.36406143 3.63410662 3.04350763 -1.61282543 2.86386436 2.78372322 -1.03703505 4.84638002 3.929474 -1.28579905 4.07613775 3.68246251 -0.705294067 6.07613094 4.82821364 -0.954057945 5.30588907 1.31740004 -0.817665693 -0.358150085 1.71893837 -1.52332718 0.78583927 2.3171006 0.104967983 -0.139922776 2.71863894 -0.600693509 1.00406664 3.33299286 1.0425449 0.0818389996 3.73453121 0.336883378 1.22582844 4.44801386 2.07160933 0.325240112 4.84955226 1.36594772 1.46922973 5.57911067 3.11550996 0.572150257 5.98064907 2.40984823 1.71613987 0.885261523 -1.40563915 0.863968343 0.852932306 -2.75356221 1.25121584 1.67959607 -1.11243466 1.95086326 1.64726691 -2.46035785 2.33811074 2.48679604 -0.814481238 3.0553622 2.45446683 -2.16240442 3.4426097 3.37276139 -0.487454024 4.26763637 3.34043217 -1.83537733 4.65488387 4.27149988 -0.155712059 5.49738799 4.23917066 -1.50363551 5.88463549 1.07924666 -0.787263392 0.604301077 1.95709082 -1.55372829 -0.17661056 2.07894774 0.135369747 0.822527813 2.95679184 -0.631095094 0.041616192 3.09484035 1.07294625 1.04428903 3.97268444 0.306481405 0.263377412 4.20986233 2.10200997 1.2876892 5.08770626 1.3355453 0.506777875 5.34095872 3.14590964 1.53459872 6.2188034 2.37944521 0.753687435 -1.14732065 -1.36138785 -0.914018002 0.200887655 -1.10054746 -1.20072227 -1.59280226 -0.152917323 -1.90941356 -0.244593925 0.107923084 -2.19611796 -2.04439115 1.07211988 -2.91845522 -0.696182584 1.33296039 -3.20515943 -2.53336904 2.39858399 -4.01103979 -1.18516049 2.65942426 -4.29774449 -3.02841033 3.74149565 -5.11717275 -1.68020152 4.00233617 -5.40387703 -0.446545507 -0.779516735 -0.521218879 -0.499890283 -1.68241727 -1.5935191 -0.892026106 0.428953272 -1.51661551 -0.945370849 -0.473947198 -2.58891555 -1.34361377 1.65399004 -2.52565799 -1.39695851 0.751089628 -3.59795803 -1.83259053 2.98045344 -3.61824386 -1.88593524 2.07755315 -4.69054391 -2.32763032 4.32336463 -4.72437722 -2.38097515 3.42046457 -5.79667724 0.118340655 -2.00471583 -1.49894453 0.977389646 -2.99665843 -1.00297277 0.807231158 -2.00471587 -2.69213645 1.66628021 -2.99665847 -2.19616469 1.5072792 -2.00471589 -3.90465402 2.36632827 -2.99665849 -3.40868215 2.27563691 -2.00471564 -5.23548703 3.13468598 -2.99665848 -4.73951516 3.05507176 -2.00471562 -6.58550654 3.91412136 -2.99665845 -6.08953457 0.977390085 -2.00471531 -1.00297263 0.118342111 -2.99665848 -1.49894382 1.66627977 -2.00471559 -2.19616506 0.807231856 -2.99665851 -2.69213602 2.36632705 -2.00471585 -3.40868268 1.50727908 -2.99665878 -3.90465387 3.1346836 -2.00471607 -4.73951637 2.27563598 -2.996659 -5.23548715 3.91411741 -2.00471629 -6.08953609 3.05507012 -2.99665921 -6.58550747 1.49102401 -2.82416977 -0.307849011 0.870358103 -3.60667968 -1.29291478 2.71936769 -3.31777311 -0.689693351 2.09870178 -4.10028301 -1.67475913 3.96760589 -3.81937085 -1.07772214 3.34694048 -4.60188028 -2.06278788 5.33764602 -4.36991401 -1.50361439 4.71697994 -5.15242344 -2.48867989 6.72743714 -4.92839365 -1.93564641 6.10677198 -5.71090355 -2.92071219 1.24871102 -2.69030644 -1.26038117 1.1126704 -3.74054444 -0.340383812 2.47705507 -3.18390906 -1.64222507 2.34101435 -4.23414682 -0.722227607 3.72529363 -3.68550609 -2.03025341 3.58925317 -4.73574409 -1.11025592 5.09533395 -4.2360483 -2.45614497 4.95929301 -5.2862863 -1.53614741 6.48512611 -4.79452793 -2.88817681 6.34908521 -5.84476593 -1.96817911 2.89157864 -7.78928549 4.54457314 2.46495398 -6.63197607 3.59131598 1.54337064 -8.05012791 4.83127818 1.11674625 -6.89281801 3.87802145 2.0443927 -5.49111468 2.65160722 0.696185024 -5.75195662 2.93831218 1.66122084 -4.45167944 1.79544151 0.313013181 -4.71252139 2.08214646 1.284156 -3.4288112 0.952921593 -0.0640515162 -3.68965315 1.23962663 2.19080193 -8.37115827 4.15177425 1.76417751 -7.21384838 3.19851802 2.24414738 -7.46825846 5.22407361 1.81752303 -6.31094856 4.27081785 1.34361612 -6.07298603 2.25880928 1.39696173 -5.17008622 3.33110934 0.960444206 -5.03355032 1.40264408 1.01378976 -4.13065051 2.47494415 0.583379342 -4.01068137 0.560124664 0.636724927 -3.10778131 1.63242485 0.67751833 -9.7787475 -0.181537343 0.677515502 -8.21987909 -0.18153746 -0.677501702 -9.77875048 0.181538817 -0.677504414 -8.21988112 0.181538669 0.677512679 -6.68316453 -0.181537566 -0.677507064 -6.68316657 0.181538516 0.677510117 -5.28306955 -0.181537669 -0.677509512 -5.28307158 0.181538383 0.677507617 -3.90528935 -0.181537776 -0.677511954 -3.90529186 0.18153826 -0.181529335 -9.77874921 -0.677511556 -0.181532325 -8.21987985 -0.677510721 0.181547071 -9.77874877 0.677507669 0.181544081 -8.21988036 0.677508505 -0.181535275 -6.68316529 -0.677509904 0.181541162 -6.68316581 0.677509437 -0.181537977 -5.28307031 -0.677509205 0.18153849 -5.28307082 0.677510251 -0.181540624 -3.90529059 -0.677508468 0.181535874 -3.90529062 0.677511103 -3.33757401 -4.32497937 -6.08102028 -2.43883541 -3.99323803 -4.85126868 -4.48332515 -4.07621466 -5.3107789 -3.58458679 -3.74447356 -4.08102773 -1.5528699 -3.66621165 -3.63899505 -2.69862145 -3.41744694 -2.86875406 -0.74566977 -3.36825895 -2.53449664 -1.89142131 -3.11949423 -1.7642554 0.0486650409 -3.07505506 -1.44760192 -1.09708665 -2.82629034 -0.677360769 -4.86982755 -8.17618396 -1.73127168 -3.73873127 -7.13228357 -1.48436164 -5.74767183 -7.40971906 -0.950360749 -4.61657558 -6.36581915 -0.703450826 -2.62370982 -6.10321902 -1.24096071 -3.5015541 -5.33675507 -0.46004978 -1.6078177 -5.16564234 -1.01919899 -2.48566209 -4.39917792 -0.238288029 -0.608117102 -4.24300878 -0.800971753 -1.48596166 -3.4765446 -0.020060689 -3.92661612 -4.87455968 -5.50227705 -3.02787682 -4.54281834 -4.27252515 -3.89428701 -3.52663626 -5.88952403 -2.99554783 -3.19489468 -4.6597721 -2.14191055 -4.21579149 -3.06025123 -2.10958167 -2.86786782 -3.44749814 -1.33470989 -3.9178383 -1.95575247 -1.30238089 -2.56991488 -2.34299941 -0.540374505 -3.62463393 -0.868857655 -0.50804555 -2.27671075 -1.25610447 -5.10798048 -8.14578404 -0.768821349 -3.976884 -7.10188318 -0.521911488 -5.50951964 -7.44012136 -1.91281014 -4.3784229 -6.39622049 -1.66590023 -2.86186235 -6.07281863 -0.278510734 -3.26340145 -5.36715594 -1.42249929 -1.8459704 -5.13524147 -0.0567492129 -2.24750939 -4.42957879 -1.2007378 -0.84626987 -4.21260744 0.161477785 -1.24780879 -3.50694523 -0.982510569 -6.33272176 -0.101881643 1.55122797 -4.94293002 -0.660361189 1.11919643 -5.71205627 0.68062853 2.53629313 -4.32226499 0.122149155 2.10426171 -3.57289017 -1.21090363 0.693304933 -2.95222511 -0.428393194 1.67837033 -2.3246516 -1.7125009 0.305276653 -1.70398663 -0.929990404 1.29034214 -1.09630777 -2.20610352 -0.0765671544 -0.475642726 -1.42359302 0.908498405 -3.82213371 -3.36498033 6.08046204 -3.04269892 -3.36498007 4.73044229 -2.96308655 -2.3730374 6.57643295 -2.18365216 -2.37303714 5.22641356 -2.27434196 -3.36498005 3.39960924 -1.41529485 -2.37303688 3.8955809 -1.57429435 -3.36497984 2.1870919 -0.715247271 -2.37303667 2.68306345 -0.885404301 -3.36497963 0.993899927 -0.0263571136 -2.37303647 1.48987163 -6.0904112 -0.235744976 2.50376031 -4.70061907 -0.79422482 2.07172836 -5.95436973 0.81449377 1.58376288 -4.56457758 0.256013836 1.15173102 -3.3305786 -1.34476744 1.64583645 -3.19453731 -0.294528907 0.725839263 -2.0823396 -1.84636495 1.25780787 -1.94629842 -0.796126475 0.33781076 -0.853995357 -2.33996781 0.875963797 -0.717954164 -1.28972945 -0.0440332713 -2.96308674 -3.36498005 6.57643559 -2.1836519 -3.36498002 5.22641509 -3.82213484 -2.37303649 6.0804637 -3.04269971 -2.37303647 4.73044337 -1.41529438 -3.36498 3.89558139 -2.27434248 -2.37303669 3.3996095 -0.715246811 -3.36498003 2.68306345 -1.57429473 -2.37303672 2.18709176 -0.0263566374 -3.36498007 1.48987088 -0.88540447 -2.37303675 0.993899176</float_array>
        <technique_common><accessor source="#vfx_kurp_0113-mesh-positions-array" count="240" stride="3"><param name="X" type="float"/><param name="Y" type="float"/><param name="Z" type="float"/></accessor></technique_common>
      </source>
      <source id="vfx_kurp_0113-mesh-normals">
        <float_array id="vfx_kurp_0113-mesh-normals-array" count="720">0.258818883 -3.44618326e-07 0.96592587 0.258818883 -3.44618329e-07 0.96592587 0.258818883 -3.44437757e-07 0.96592587 0.258818883 -3.44437757e-07 0.96592587 0.258818883 -3.43266007e-07 0.96592587 0.258818883 -3.4326601e-07 0.96592587 0.258818883 -3.42130474e-07 0.96592587 0.258818883 -3.4213048e-07 0.96592587 0.258818883 -3.41986119e-07 0.96592587 0.258818883 -3.41986117e-07 0.96592587 0.965925891 -5.22791264e-07 -0.258818805 0.965925891 -5.22791321e-07 -0.258818805 0.965925891 -5.22610729e-07 -0.258818805 0.965925891 -5.22610786e-07 -0.258818805 0.965925891 -5.21438959e-07 -0.258818805 0.965925891 -5.21438959e-07 -0.258818805 0.965925891 -5.20303455e-07 -0.258818805 0.965925891 -5.20303398e-07 -0.258818805 0.965925891 -5.20158959e-07 -0.258818805 0.965925891 -5.20158959e-07 -0.258818805 -0.0230457736 -0.960867265 0.276048893 -0.0230457298 -0.960867261 0.276048911 -0.0230457449 -0.960867268 0.276048886 -0.0230457377 -0.960867268 0.276048884 -0.0230457606 -0.960867283 0.276048832 -0.023045775 -0.960867281 0.276048836 -0.0230457822 -0.960867281 0.276048838 -0.023045775 -0.960867281 0.276048836 -0.0230458123 -0.960867294 0.276048788 -0.0230457973 -0.960867288 0.276048813 -0.625772115 0.546374666 0.556672242 -0.625772174 0.546374653 0.556672188 -0.625772109 0.546374713 0.556672201 -0.625772109 0.546374713 0.556672201 -0.625772174 0.546374653 0.556672188 -0.625772174 0.546374653 0.556672188 -0.625772239 0.546374593 0.556672174 -0.625772253 0.546374599 0.556672151 -0.625772109 0.546374713 0.556672201 -0.625772094 0.546374707 0.556672224 -0.81674926 0.177331712 0.54906658 -0.816749227 0.177331724 0.549066626 -0.816749263 0.177331698 0.549066582 -0.816749263 0.177331698 0.549066582 -0.816749278 0.1773317 0.549066558 -0.816749308 0.177331677 0.549066521 -0.816749232 0.177331695 0.549066629 -0.816749232 0.177331695 0.549066629 -0.816749229 0.177331709 0.549066627 -0.816749216 0.177331693 0.549066652 0.286236902 -0.503031561 0.815492296 0.28623693 -0.50303156 0.815492287 0.28623693 -0.50303156 0.815492287 0.286236944 -0.503031559 0.815492282 0.286236951 -0.503031559 0.81549228 0.28623693 -0.50303156 0.815492287 0.286236941 -0.503031445 0.815492354 0.286236876 -0.503031492 0.815492348 0.286236877 -0.503031447 0.815492375 0.286236805 -0.503031494 0.815492371 0.0380271545 0.643632196 0.764389647 0.038027169 0.643632198 0.764389644 0.0380271675 0.643632233 0.764389615 0.0380271545 0.643632196 0.764389647 0.0380270828 0.643632123 0.764389711 0.038027111 0.643632191 0.764389653 0.0380273117 0.643632313 0.76438954 0.0380273117 0.643632313 0.76438954 0.038027211 0.643632237 0.764389609 0.0380270828 0.643632123 0.764389711 0.96107057 0.185939649 -0.204376627 0.961070569 0.185939664 -0.204376619 0.961070568 0.185939664 -0.204376622 0.961070571 0.185939649 -0.204376623 0.961070571 0.185939649 -0.204376623 0.961070572 0.185939664 -0.204376608 0.961070579 0.185939649 -0.204376587 0.961070579 0.185939649 -0.204376587 0.961070574 0.185939649 -0.204376608 0.96107057 0.18593965 -0.20437663 0.612371805 0.707107302 0.353553441 0.612371805 0.707107302 0.353553441 0.612371781 0.707107343 0.353553402 0.612371781 0.707107343 0.353553402 0.61237174 0.707107353 0.353553452 0.61237176 0.707107343 0.353553439 0.612371784 0.707107302 0.353553477 0.61237174 0.707107353 0.353553452 0.61237172 0.707107364 0.353553465 0.61237157 0.707107476 0.3535535 0.612372474 -0.70710672 0.353553448 0.612372476 -0.707106741 0.353553401 0.612372434 -0.707106741 0.353553474 0.612372434 -0.707106741 0.353553474 0.612372451 -0.707106771 0.353553386 0.612372476 -0.707106741 0.353553401 0.612372539 -0.707106669 0.353553437 0.612372562 -0.707106618 0.353553499 0.612372604 -0.707106618 0.353553426 0.612372604 -0.707106618 0.353553426 -0.0969769628 -0.748662378 0.655820183 -0.0969769584 -0.748662404 0.655820154 -0.0969769628 -0.748662378 0.655820183 -0.096976889 -0.748662475 0.655820083 -0.0969769316 -0.748662523 0.655820022 -0.0969769225 -0.748662556 0.655819986 -0.096976917 -0.748662469 0.655820085 -0.096976917 -0.748662469 0.655820085 -0.0969768329 -0.748662487 0.655820078 -0.0969768329 -0.748662487 0.655820078 0.442441315 0.557812655 0.70220419 0.442441268 0.557812729 0.702204161 0.442441293 0.557812725 0.702204149 0.442441268 0.557812729 0.702204161 0.44244128 0.557812727 0.702204155 0.442441268 0.557812729 0.702204161 0.442441319 0.557812721 0.702204136 0.442441315 0.557812655 0.70220419 0.442441346 0.557812678 0.702204153 0.442441306 0.557812723 0.702204142 0.0380263783 0.643632896 0.764389096 0.0380267556 0.643632776 0.764389178 0.0380266115 0.643632791 0.764389173 0.0380268135 0.643632782 0.76438917 0.038026655 0.643632795 0.764389167 0.0380265818 0.643632853 0.764389122 0.038026597 0.643632789 0.764389175 0.0380266115 0.643632791 0.764389173 0.0380266115 0.643632791 0.764389173 0.038026626 0.643632792 0.764389171 0.961070013 0.185940781 -0.204378221 0.961070004 0.185940824 -0.204378223 0.961070011 0.185940795 -0.204378217 0.961070002 0.185940824 -0.20437823 0.961070004 0.18594081 -0.204378234 0.961070004 0.18594081 -0.204378234 0.961070005 0.185940824 -0.204378219 0.961070005 0.185940824 -0.204378219 0.961070005 0.185940824 -0.204378215 0.961070013 0.185940781 -0.204378217 0.258818803 5.4205952e-07 0.965925891 0.258818803 5.42203618e-07 0.965925891 0.258818803 5.42059292e-07 0.965925891 0.258818803 5.42203561e-07 0.965925891 0.258818803 5.43339065e-07 0.965925891 0.258818803 5.43339065e-07 0.965925891 0.258818803 5.44510722e-07 0.965925891 0.258818803 5.44510779e-07 0.965925891 0.258818803 5.44691541e-07 0.965925891 0.258818803 5.44691711e-07 0.965925891 0.965925809 1.9915019e-06 -0.25881911 0.965925809 1.99164674e-06 -0.25881911 0.965925809 1.99150236e-06 -0.25881911 0.965925809 1.99164697e-06 -0.25881911 0.965925809 1.99278247e-06 -0.25881911 0.965925809 1.99278247e-06 -0.25881911 0.965925809 1.99395458e-06 -0.25881911 0.965925809 1.99395435e-06 -0.25881911 0.965925809 1.99413489e-06 -0.25881911 0.965925809 1.99413466e-06 -0.25881911 -0.023046289 -0.960867159 0.276049219 -0.0230462675 -0.960867182 0.276049142 -0.0230462904 -0.960867175 0.276049163 -0.023046276 -0.960867176 0.276049159 -0.0230463026 -0.960867149 0.276049251 -0.0230463098 -0.960867149 0.276049253 -0.0230463098 -0.960867149 0.276049253 -0.0230463105 -0.960867157 0.276049225 -0.0230462954 -0.96086715 0.27604925 -0.0230462954 -0.96086715 0.27604925 0.286236679 -0.50303127 0.815492554 0.286236705 -0.503031339 0.815492502 0.286236676 -0.50303134 0.815492511 0.286236695 -0.503031428 0.815492451 0.286236747 -0.503031566 0.815492347 0.286236747 -0.503031566 0.815492347 0.286236743 -0.503031452 0.815492419 0.28623675 -0.503031452 0.815492416 0.286236714 -0.503031497 0.815492401 0.286236704 -0.503031568 0.815492361 -0.816749001 0.177331516 0.54906703 -0.816748981 0.17733144 0.549067084 -0.816749025 0.17733146 0.549067012 -0.816749 0.177331413 0.549067063 -0.816748974 0.177331381 0.549067113 -0.816748974 0.177331381 0.549067113 -0.816748937 0.177331447 0.549067146 -0.816748935 0.177331461 0.549067145 -0.816748965 0.177331439 0.549067108 -0.81674897 0.17733141 0.549067111 -0.625771951 0.546374058 0.556673023 -0.625771851 0.54637419 0.556673006 -0.625771951 0.546374058 0.556673023 -0.625771816 0.546374226 0.55667301 -0.625771807 0.546374172 0.556673073 -0.625771792 0.546374166 0.556673096 -0.625771857 0.546374106 0.556673082 -0.625771821 0.546374178 0.556673051 -0.625771816 0.546374226 0.55667301 -0.62577178 0.546374298 0.556672979 -0.0969766939 -0.748662172 0.655820458 -0.0969766659 -0.748662178 0.655820455 -0.0969766939 -0.748662172 0.655820458 -0.0969766848 -0.748662205 0.655820422 -0.0969766939 -0.748662172 0.655820458 -0.0969766939 -0.748662172 0.655820458 -0.0969766525 -0.748662237 0.65582039 -0.0969766805 -0.748662231 0.655820392 -0.0969766805 -0.748662231 0.655820392 -0.0969766805 -0.748662231 0.655820392 0.612372647 -0.707106495 0.353553597 0.612372686 -0.707106474 0.353553571 0.612372647 -0.707106495 0.353553597 0.61237267 -0.707106444 0.353553659 0.612372647 -0.707106495 0.353553597 0.612372605 -0.707106495 0.35355367 0.612372647 -0.707106495 0.353553597 0.612372647 -0.707106495 0.353553597 0.612372647 -0.707106495 0.353553597 0.612372582 -0.707106546 0.353553608 0.442441456 0.557812187 0.702204473 0.442441405 0.557812195 0.702204499 0.442441444 0.557812189 0.702204479 0.442441402 0.55781213 0.702204553 0.442441405 0.557812195 0.702204499 0.442441418 0.557812193 0.702204492 0.442441405 0.557812195 0.702204499 0.442441418 0.557812193 0.702204492 0.442441396 0.557812262 0.702204451 0.442441403 0.557812234 0.702204469 0.612372421 0.70710675 0.35355348 0.612372506 0.707106627 0.353553578 0.612372444 0.707106699 0.353553542 0.612372506 0.707106627 0.353553578 0.612372464 0.70710676 0.353553383 0.612372441 0.707106811 0.353553321 0.612372423 0.707106771 0.353553433 0.612372422 0.70710676 0.353553456 0.612372486 0.707106699 0.353553469 0.612372484 0.707106688 0.353553492</float_array>
        <technique_common><accessor source="#vfx_kurp_0113-mesh-normals-array" count="240" stride="3"><param name="X" type="float"/><param name="Y" type="float"/><param name="Z" type="float"/></accessor></technique_common>
      </source>
      <source id="vfx_kurp_0113-mesh-uv0">
        <float_array id="vfx_kurp_0113-mesh-uv0-array" count="480">2 0.141498208 -1 0.141498208 2 -0.436087966 -1 -0.436087966 2 -1.01367426 -1 -1.01367426 2 -1.59126043 -1 -1.59126043 2 -2.16884661 -1 -2.16884661 2 0.141498208 -1 0.141498208 2 -0.436087966 -1 -0.436087966 2 -1.01367426 -1 -1.01367426 2 -1.59126043 -1 -1.59126043 2 -2.16884661 -1 -2.16884661 2 0.141498208 -1 0.141498208 2 -0.436087966 -1 -0.436087966 2 -1.01367426 -1 -1.01367426 2 -1.59126043 -1 -1.59126043 2 -2.16884661 -1 -2.16884661 2 0.141498208 -1 0.141498208 2 -0.436087966 -1 -0.436087966 2 -1.01367426 -1 -1.01367426 2 -1.59126043 -1 -1.59126043 2 -2.16884661 -1 -2.16884661 2 0.141498208 -1 0.141498208 2 -0.436087966 -1 -0.436087966 2 -1.01367426 -1 -1.01367426 2 -1.59126043 -1 -1.59126043 2 -2.16884661 -1 -2.16884661 2 0.141498208 -1 0.141498208 2 -0.436087966 -1 -0.436087966 2 -1.01367426 -1 -1.01367426 2 -1.59126043 -1 -1.59126043 2 -2.16884661 -1 -2.16884661 2 0.141498208 -1 0.141498208 2 -0.436087966 -1 -0.436087966 2 -1.01367426 -1 -1.01367426 2 -1.59126043 -1 -1.59126043 2 -2.16884661 -1 -2.16884661 2 0.141498208 -1 0.141498208 2 -0.436087966 -1 -0.436087966 2 -1.01367426 -1 -1.01367426 2 -1.59126043 -1 -1.59126043 2 -2.16884661 -1 -2.16884661 2 0.141498208 -1 0.141498208 2 -0.436087966 -1 -0.436087966 2 -1.01367426 -1 -1.01367426 2 -1.59126043 -1 -1.59126043 2 -2.16884661 -1 -2.16884661 2 0.141498208 -1 0.141498208 2 -0.436087966 -1 -0.436087966 2 -1.01367426 -1 -1.01367426 2 -1.59126043 -1 -1.59126043 2 -2.16884661 -1 -2.16884661 2 0.141498208 -1 0.141498208 2 -0.436087966 -1 -0.436087966 2 -1.01367426 -1 -1.01367426 2 -1.59126043 -1 -1.59126043 2 -2.16884661 -1 -2.16884661 2 0.141498208 -1 0.141498208 2 -0.436087966 -1 -0.436087966 2 -1.01367426 -1 -1.01367426 2 -1.59126043 -1 -1.59126043 2 -2.16884661 -1 -2.16884661 -1 -2.16884661 -1 -1.59126043 2 -2.16884661 2 -1.59126043 -1 -1.01367426 2 -1.01367426 -1 -0.436087966 2 -0.436087966 -1 0.141498208 2 0.141498208 -1 -2.16884661 -1 -1.59126043 2 -2.16884661 2 -1.59126043 -1 -1.01367426 2 -1.01367426 -1 -0.436087966 2 -0.436087966 -1 0.141498208 2 0.141498208 -1 -2.16884661 -1 -1.59126043 2 -2.16884661 2 -1.59126043 -1 -1.01367426 2 -1.01367426 -1 -0.436087966 2 -0.436087966 -1 0.141498208 2 0.141498208 -1 -2.16884661 -1 -1.59126043 2 -2.16884661 2 -1.59126043 -1 -1.01367426 2 -1.01367426 -1 -0.436087966 2 -0.436087966 -1 0.141498208 2 0.141498208 -1 -2.16884661 -1 -1.59126043 2 -2.16884661 2 -1.59126043 -1 -1.01367426 2 -1.01367426 -1 -0.436087966 2 -0.436087966 -1 0.141498208 2 0.141498208 -1 -2.16884661 -1 -1.59126043 2 -2.16884661 2 -1.59126043 -1 -1.01367426 2 -1.01367426 -1 -0.436087966 2 -0.436087966 -1 0.141498208 2 0.141498208 -1 -2.16884661 -1 -1.59126043 2 -2.16884661 2 -1.59126043 -1 -1.01367426 2 -1.01367426 -1 -0.436087966 2 -0.436087966 -1 0.141498208 2 0.141498208 -1 -2.16884661 -1 -1.59126043 2 -2.16884661 2 -1.59126043 -1 -1.01367426 2 -1.01367426 -1 -0.436087966 2 -0.436087966 -1 0.141498208 2 0.141498208 -1 -2.16884661 -1 -1.59126043 2 -2.16884661 2 -1.59126043 -1 -1.01367426 2 -1.01367426 -1 -0.436087966 2 -0.436087966 -1 0.141498208 2 0.141498208 -1 -2.16884661 -1 -1.59126043 2 -2.16884661 2 -1.59126043 -1 -1.01367426 2 -1.01367426 -1 -0.436087966 2 -0.436087966 -1 0.141498208 2 0.141498208 -1 -2.16884661 -1 -1.59126043 2 -2.16884661 2 -1.59126043 -1 -1.01367426 2 -1.01367426 -1 -0.436087966 2 -0.436087966 -1 0.141498208 2 0.141498208 -1 -2.16884661 -1 -1.59126043 2 -2.16884661 2 -1.59126043 -1 -1.01367426 2 -1.01367426 -1 -0.436087966 2 -0.436087966 -1 0.141498208 2 0.141498208</float_array>
        <technique_common><accessor source="#vfx_kurp_0113-mesh-uv0-array" count="240" stride="2"><param name="S" type="float"/><param name="T" type="float"/></accessor></technique_common>
      </source>
      <source id="vfx_kurp_0113-mesh-colors">
        <float_array id="vfx_kurp_0113-mesh-colors-array" count="960">0 0 0 0 0 0 0 0 0 0 0 0.5 0 0 0 0.5 0 0 0 1 0 0 0 1 0 0 0 0.5 0 0 0 0.5 0 0 0 0 0 0 0 0 0 0 0 0 0 0 0 0 0 0 0 0.5 0 0 0 0.5 0 0 0 1 0 0 0 1 0 0 0 0.5 0 0 0 0.5 0 0 0 0 0 0 0 0 0 0 0 0 0 0 0 0 0 0 0 0.5 0 0 0 0.5 0 0 0 1 0 0 0 1 0 0 0 0.5 0 0 0 0.5 0 0 0 0 0 0 0 0 0 0 0 0 0 0 0 0 0 0 0 0.5 0 0 0 0.5 0 0 0 1 0 0 0 1 0 0 0 0.5 0 0 0 0.5 0 0 0 0 0 0 0 0 0 0 0 0 0 0 0 0 0 0 0 0.5 0 0 0 0.5 0 0 0 1 0 0 0 1 0 0 0 0.5 0 0 0 0.5 0 0 0 0 0 0 0 0 0 0 0 0 0 0 0 0 0 0 0 0.5 0 0 0 0.5 0 0 0 1 0 0 0 1 0 0 0 0.5 0 0 0 0.5 0 0 0 0 0 0 0 0 0 0 0 0 0 0 0 0 0 0 0 0.5 0 0 0 0.5 0 0 0 1 0 0 0 1 0 0 0 0.5 0 0 0 0.5 0 0 0 0 0 0 0 0 0 0 0 0 0 0 0 0 0 0 0 0.5 0 0 0 0.5 0 0 0 1 0 0 0 1 0 0 0 0.5 0 0 0 0.5 0 0 0 0 0 0 0 0 0 0 0 0 0 0 0 0 0 0 0 0.5 0 0 0 0.5 0 0 0 1 0 0 0 1 0 0 0 0.5 0 0 0 0.5 0 0 0 0 0 0 0 0 0 0 0 0 0 0 0 0 0 0 0 0.5 0 0 0 0.5 0 0 0 1 0 0 0 1 0 0 0 0.5 0 0 0 0.5 0 0 0 0 0 0 0 0 0 0 0 0 0 0 0 0 0 0 0 0.5 0 0 0 0.5 0 0 0 1 0 0 0 1 0 0 0 0.5 0 0 0 0.5 0 0 0 0 0 0 0 0 0 0 0 0 0 0 0 0 0 0 0 0.5 0 0 0 0.5 0 0 0 1 0 0 0 1 0 0 0 0.5 0 0 0 0.5 0 0 0 0 0 0 0 0 0 0 0 0 0 0 0 0.5 0 0 0 0 0 0 0 0.5 0 0 0 1 0 0 0 1 0 0 0 0.5 0 0 0 0.5 0 0 0 0 0 0 0 0 0 0 0 0 0 0 0 0.5 0 0 0 0 0 0 0 0.5 0 0 0 1 0 0 0 1 0 0 0 0.5 0 0 0 0.5 0 0 0 0 0 0 0 0 0 0 0 0 0 0 0 0.5 0 0 0 0 0 0 0 0.5 0 0 0 1 0 0 0 1 0 0 0 0.5 0 0 0 0.5 0 0 0 0 0 0 0 0 0 0 0 0 0 0 0 0.5 0 0 0 0 0 0 0 0.5 0 0 0 1 0 0 0 1 0 0 0 0.5 0 0 0 0.5 0 0 0 0 0 0 0 0 0 0 0 0 0 0 0 0.5 0 0 0 0 0 0 0 0.5 0 0 0 1 0 0 0 1 0 0 0 0.5 0 0 0 0.5 0 0 0 0 0 0 0 0 0 0 0 0 0 0 0 0.5 0 0 0 0 0 0 0 0.5 0 0 0 1 0 0 0 1 0 0 0 0.5 0 0 0 0.5 0 0 0 0 0 0 0 0 0 0 0 0 0 0 0 0.5 0 0 0 0 0 0 0 0.5 0 0 0 1 0 0 0 1 0 0 0 0.5 0 0 0 0.5 0 0 0 0 0 0 0 0 0 0 0 0 0 0 0 0.5 0 0 0 0 0 0 0 0.5 0 0 0 1 0 0 0 1 0 0 0 0.5 0 0 0 0.5 0 0 0 0 0 0 0 0 0 0 0 0 0 0 0 0.5 0 0 0 0 0 0 0 0.5 0 0 0 1 0 0 0 1 0 0 0 0.5 0 0 0 0.5 0 0 0 0 0 0 0 0 0 0 0 0 0 0 0 0.5 0 0 0 0 0 0 0 0.5 0 0 0 1 0 0 0 1 0 0 0 0.5 0 0 0 0.5 0 0 0 0 0 0 0 0 0 0 0 0 0 0 0 0.5 0 0 0 0 0 0 0 0.5 0 0 0 1 0 0 0 1 0 0 0 0.5 0 0 0 0.5 0 0 0 0 0 0 0 0 0 0 0 0 0 0 0 0.5 0 0 0 0 0 0 0 0.5 0 0 0 1 0 0 0 1 0 0 0 0.5 0 0 0 0.5 0 0 0 0 0 0 0 0</float_array>
        <technique_common><accessor source="#vfx_kurp_0113-mesh-colors-array" count="240" stride="4"><param name="R" type="float"/><param name="G" type="float"/><param name="B" type="float"/><param name="A" type="float"/></accessor></technique_common>
      </source>
      <vertices id="vfx_kurp_0113-mesh-vertices"><input semantic="POSITION" source="#vfx_kurp_0113-mesh-positions"/></vertices>
      <triangles material="PreviewMaterial" count="192">
        <input semantic="VERTEX" source="#vfx_kurp_0113-mesh-vertices" offset="0"/>
        <input semantic="NORMAL" source="#vfx_kurp_0113-mesh-normals" offset="1"/>
        <input semantic="TEXCOORD" source="#vfx_kurp_0113-mesh-uv0" offset="2" set="0"/>
        <input semantic="COLOR" source="#vfx_kurp_0113-mesh-colors" offset="3" set="0"/>
        <p>0 0 0 0 1 1 1 1 2 2 2 2 3 3 3 3 2 2 2 2 1 1 1 1 2 2 2 2 3 3 3 3 4 4 4 4 5 5 5 5 4 4 4 4 3 3 3 3 4 4 4 4 5 5 5 5 6 6 6 6 7 7 7 7 6 6 6 6 5 5 5 5 6 6 6 6 7 7 7 7 8 8 8 8 9 9 9 9 8 8 8 8 7 7 7 7 10 10 10 10 11 11 11 11 12 12 12 12 13 13 13 13 12 12 12 12 11 11 11 11 12 12 12 12 13 13 13 13 14 14 14 14 15 15 15 15 14 14 14 14 13 13 13 13 14 14 14 14 15 15 15 15 16 16 16 16 17 17 17 17 16 16 16 16 15 15 15 15 16 16 16 16 17 17 17 17 18 18 18 18 19 19 19 19 18 18 18 18 17 17 17 17 20 20 20 20 21 21 21 21 22 22 22 22 23 23 23 23 22 22 22 22 21 21 21 21 22 22 22 22 23 23 23 23 24 24 24 24 25 25 25 25 24 24 24 24 23 23 23 23 24 24 24 24 25 25 25 25 26 26 26 26 27 27 27 27 26 26 26 26 25 25 25 25 26 26 26 26 27 27 27 27 28 28 28 28 29 29 29 29 28 28 28 28 27 27 27 27 30 30 30 30 31 31 31 31 32 32 32 32 33 33 33 33 32 32 32 32 31 31 31 31 32 32 32 32 33 33 33 33 34 34 34 34 35 35 35 35 34 34 34 34 33 33 33 33 34 34 34 34 35 35 35 35 36 36 36 36 37 37 37 37 36 36 36 36 35 35 35 35 36 36 36 36 37 37 37 37 38 38 38 38 39 39 39 39 38 38 38 38 37 37 37 37 40 40 40 40 41 41 41 41 42 42 42 42 43 43 43 43 42 42 42 42 41 41 41 41 42 42 42 42 43 43 43 43 44 44 44 44 45 45 45 45 44 44 44 44 43 43 43 43 44 44 44 44 45 45 45 45 46 46 46 46 47 47 47 47 46 46 46 46 45 45 45 45 46 46 46 46 47 47 47 47 48 48 48 48 49 49 49 49 48 48 48 48 47 47 47 47 50 50 50 50 51 51 51 51 52 52 52 52 53 53 53 53 52 52 52 52 51 51 51 51 52 52 52 52 53 53 53 53 54 54 54 54 55 55 55 55 54 54 54 54 53 53 53 53 54 54 54 54 55 55 55 55 56 56 56 56 57 57 57 57 56 56 56 56 55 55 55 55 56 56 56 56 57 57 57 57 58 58 58 58 59 59 59 59 58 58 58 58 57 57 57 57 60 60 60 60 61 61 61 61 62 62 62 62 63 63 63 63 62 62 62 62 61 61 61 61 62 62 62 62 63 63 63 63 64 64 64 64 65 65 65 65 64 64 64 64 63 63 63 63 64 64 64 64 65 65 65 65 66 66 66 66 67 67 67 67 66 66 66 66 65 65 65 65 66 66 66 66 67 67 67 67 68 68 68 68 69 69 69 69 68 68 68 68 67 67 67 67 70 70 70 70 71 71 71 71 72 72 72 72 73 73 73 73 72 72 72 72 71 71 71 71 72 72 72 72 73 73 73 73 74 74 74 74 75 75 75 75 74 74 74 74 73 73 73 73 74 74 74 74 75 75 75 75 76 76 76 76 77 77 77 77 76 76 76 76 75 75 75 75 76 76 76 76 77 77 77 77 78 78 78 78 79 79 79 79 78 78 78 78 77 77 77 77 80 80 80 80 81 81 81 81 82 82 82 82 83 83 83 83 82 82 82 82 81 81 81 81 82 82 82 82 83 83 83 83 84 84 84 84 85 85 85 85 84 84 84 84 83 83 83 83 84 84 84 84 85 85 85 85 86 86 86 86 87 87 87 87 86 86 86 86 85 85 85 85 86 86 86 86 87 87 87 87 88 88 88 88 89 89 89 89 88 88 88 88 87 87 87 87 90 90 90 90 91 91 91 91 92 92 92 92 93 93 93 93 92 92 92 92 91 91 91 91 92 92 92 92 93 93 93 93 94 94 94 94 95 95 95 95 94 94 94 94 93 93 93 93 94 94 94 94 95 95 95 95 96 96 96 96 97 97 97 97 96 96 96 96 95 95 95 95 96 96 96 96 97 97 97 97 98 98 98 98 99 99 99 99 98 98 98 98 97 97 97 97 100 100 100 100 101 101 101 101 102 102 102 102 103 103 103 103 102 102 102 102 101 101 101 101 102 102 102 102 103 103 103 103 104 104 104 104 105 105 105 105 104 104 104 104 103 103 103 103 104 104 104 104 105 105 105 105 106 106 106 106 107 107 107 107 106 106 106 106 105 105 105 105 106 106 106 106 107 107 107 107 108 108 108 108 109 109 109 109 108 108 108 108 107 107 107 107 110 110 110 110 111 111 111 111 112 112 112 112 113 113 113 113 112 112 112 112 111 111 111 111 112 112 112 112 113 113 113 113 114 114 114 114 115 115 115 115 114 114 114 114 113 113 113 113 114 114 114 114 115 115 115 115 116 116 116 116 117 117 117 117 116 116 116 116 115 115 115 115 116 116 116 116 117 117 117 117 118 118 118 118 119 119 119 119 118 118 118 118 117 117 117 117 120 120 120 120 121 121 121 121 122 122 122 122 122 122 122 122 121 121 121 121 123 123 123 123 124 124 124 124 123 123 123 123 121 121 121 121 123 123 123 123 124 124 124 124 125 125 125 125 126 126 126 126 125 125 125 125 124 124 124 124 125 125 125 125 126 126 126 126 127 127 127 127 128 128 128 128 127 127 127 127 126 126 126 126 127 127 127 127 128 128 128 128 129 129 129 129 130 130 130 130 131 131 131 131 132 132 132 132 132 132 132 132 131 131 131 131 133 133 133 133 134 134 134 134 133 133 133 133 131 131 131 131 133 133 133 133 134 134 134 134 135 135 135 135 136 136 136 136 135 135 135 135 134 134 134 134 135 135 135 135 136 136 136 136 137 137 137 137 138 138 138 138 137 137 137 137 136 136 136 136 137 137 137 137 138 138 138 138 139 139 139 139 140 140 140 140 141 141 141 141 142 142 142 142 142 142 142 142 141 141 141 141 143 143 143 143 144 144 144 144 143 143 143 143 141 141 141 141 143 143 143 143 144 144 144 144 145 145 145 145 146 146 146 146 145 145 145 145 144 144 144 144 145 145 145 145 146 146 146 146 147 147 147 147 148 148 148 148 147 147 147 147 146 146 146 146 147 147 147 147 148 148 148 148 149 149 149 149 150 150 150 150 151 151 151 151 152 152 152 152 152 152 152 152 151 151 151 151 153 153 153 153 154 154 154 154 153 153 153 153 151 151 151 151 153 153 153 153 154 154 154 154 155 155 155 155 156 156 156 156 155 155 155 155 154 154 154 154 155 155 155 155 156 156 156 156 157 157 157 157 158 158 158 158 157 157 157 157 156 156 156 156 157 157 157 157 158 158 158 158 159 159 159 159 160 160 160 160 161 161 161 161 162 162 162 162 162 162 162 162 161 161 161 161 163 163 163 163 164 164 164 164 163 163 163 163 161 161 161 161 163 163 163 163 164 164 164 164 165 165 165 165 166 166 166 166 165 165 165 165 164 164 164 164 165 165 165 165 166 166 166 166 167 167 167 167 168 168 168 168 167 167 167 167 166 166 166 166 167 167 167 167 168 168 168 168 169 169 169 169 170 170 170 170 171 171 171 171 172 172 172 172 172 172 172 172 171 171 171 171 173 173 173 173 174 174 174 174 173 173 173 173 171 171 171 171 173 173 173 173 174 174 174 174 175 175 175 175 176 176 176 176 175 175 175 175 174 174 174 174 175 175 175 175 176 176 176 176 177 177 177 177 178 178 178 178 177 177 177 177 176 176 176 176 177 177 177 177 178 178 178 178 179 179 179 179 180 180 180 180 181 181 181 181 182 182 182 182 182 182 182 182 181 181 181 181 183 183 183 183 184 184 184 184 183 183 183 183 181 181 181 181 183 183 183 183 184 184 184 184 185 185 185 185 186 186 186 186 185 185 185 185 184 184 184 184 185 185 185 185 186 186 186 186 187 187 187 187 188 188 188 188 187 187 187 187 186 186 186 186 187 187 187 187 188 188 188 188 189 189 189 189 190 190 190 190 191 191 191 191 192 192 192 192 192 192 192 192 191 191 191 191 193 193 193 193 194 194 194 194 193 193 193 193 191 191 191 191 193 193 193 193 194 194 194 194 195 195 195 195 196 196 196 196 195 195 195 195 194 194 194 194 195 195 195 195 196 196 196 196 197 197 197 197 198 198 198 198 197 197 197 197 196 196 196 196 197 197 197 197 198 198 198 198 199 199 199 199 200 200 200 200 201 201 201 201 202 202 202 202 202 202 202 202 201 201 201 201 203 203 203 203 204 204 204 204 203 203 203 203 201 201 201 201 203 203 203 203 204 204 204 204 205 205 205 205 206 206 206 206 205 205 205 205 204 204 204 204 205 205 205 205 206 206 206 206 207 207 207 207 208 208 208 208 207 207 207 207 206 206 206 206 207 207 207 207 208 208 208 208 209 209 209 209 210 210 210 210 211 211 211 211 212 212 212 212 212 212 212 212 211 211 211 211 213 213 213 213 214 214 214 214 213 213 213 213 211 211 211 211 213 213 213 213 214 214 214 214 215 215 215 215 216 216 216 216 215 215 215 215 214 214 214 214 215 215 215 215 216 216 216 216 217 217 217 217 218 218 218 218 217 217 217 217 216 216 216 216 217 217 217 217 218 218 218 218 219 219 219 219 220 220 220 220 221 221 221 221 222 222 222 222 222 222 222 222 221 221 221 221 223 223 223 223 224 224 224 224 223 223 223 223 221 221 221 221 223 223 223 223 224 224 224 224 225 225 225 225 226 226 226 226 225 225 225 225 224 224 224 224 225 225 225 225 226 226 226 226 227 227 227 227 228 228 228 228 227 227 227 227 226 226 226 226 227 227 227 227 228 228 228 228 229 229 229 229 230 230 230 230 231 231 231 231 232 232 232 232 232 232 232 232 231 231 231 231 233 233 233 233 234 234 234 234 233 233 233 233 231 231 231 231 233 233 233 233 234 234 234 234 235 235 235 235 236 236 236 236 235 235 235 235 234 234 234 234 235 235 235 235 236 236 236 236 237 237 237 237 238 238 238 238 237 237 237 237 236 236 236 236 237 237 237 237 238 238 238 238 239 239 239 239</p>
      </triangles>
    </mesh></geometry>
  </library_geometries>
  <library_visual_scenes>
    <visual_scene id="Scene" name="Scene">
      <node id="vfx_kurp_0113" name="vfx_kurp_0113" type="NODE">
        <instance_geometry url="#vfx_kurp_0113-mesh"><bind_material><technique_common><instance_material symbol="PreviewMaterial" target="#PreviewMaterial"><bind_vertex_input semantic="UVSET0" input_semantic="TEXCOORD" input_set="0"/></instance_material></technique_common></bind_material></instance_geometry>
      </node>
    </visual_scene>
  </library_visual_scenes>
  <scene><instance_visual_scene url="#Scene"/></scene>
</COLLADA>
