<?xml version="1.0" encoding="utf-8"?>
<COLLADA xmlns="http://www.collada.org/2005/11/COLLADASchema" version="1.4.1">
  <asset>
    <contributor><authoring_tool>Morrobroom Kurpulio VFX preview converter</authoring_tool></contributor>
    <unit name="unit" meter="1"/>
    <up_axis>Z_UP</up_axis>
  </asset>
  <library_images>
    <image id="VFXTexture" name="darkmap_newgen-1.dds">
      <init_from>../../../Textures/Kurp/darkmap_newgen-1.dds</init_from>
    </image>
  </library_images>
  <library_effects>
    <effect id="PreviewEffect">
      <profile_COMMON>
        <newparam sid="VFXTexture-surface">
          <surface type="2D"><init_from>VFXTexture</init_from></surface>
        </newparam>
        <newparam sid="VFXTexture-sampler">
          <sampler2D><source>VFXTexture-surface</source></sampler2D>
        </newparam>
        <technique sid="common"><phong>
          <emission><color>0.08 0.08 0.08 1</color></emission>
          <ambient><color>0.2 0.2 0.2 1</color></ambient>
          <diffuse><texture texture="VFXTexture-sampler" texcoord="UVSET0"/></diffuse>
          <specular><color>0.15 0.15 0.15 1</color></specular>
          <shininess><float>8</float></shininess>
          <transparent opaque="A_ONE"><texture texture="VFXTexture-sampler" texcoord="UVSET0"/></transparent>
          <transparency><float>1</float></transparency>
        </phong></technique>
      </profile_COMMON>
      <extra><technique profile="GOOGLEEARTH"><double_sided>1</double_sided></technique></extra>
    </effect>
  </library_effects>
  <library_materials><material id="PreviewMaterial" name="PreviewMaterial"><instance_effect url="#PreviewEffect"/></material></library_materials>
  <library_geometries>
    <geometry id="vfx_kurp_0204-mesh" name="vfx_kurp_0204"><mesh>
      <source id="vfx_kurp_0204-mesh-positions">
        <float_array id="vfx_kurp_0204-mesh-positions-array" count="240">0.571916211 -2.13440682 -18.0132466 0.571915312 -2.13440724 -12.0088311 -0.571910819 2.13440937 -18.0132465 -0.571911718 2.13440895 -12.008831 0.571911718 -2.13440895 12.0088291 -0.571915312 2.13440724 12.0088292 0.571910819 -2.13440937 18.0132446 -0.571916211 2.13440682 18.0132447 -2.13440617 -0.571913974 -18.0132469 -2.13440676 -0.571913693 -12.0088314 2.13440975 0.571913127 -18.0132462 2.13440916 0.571913408 -12.0088307 -2.13440916 -0.571913408 12.0088288 2.13440676 0.571913693 12.0088295 -2.13440975 -0.571913127 18.0132443 2.13440617 0.571913974 18.013245 3.88378867 -2.79662782 -16.8610836 3.88378818 -2.79662806 -13.6008707 3.26272572 -0.478791899 -16.8610835 3.26272523 -0.47879213 -13.6008706 3.88378623 -2.79662898 -0.560020779 3.26272328 -0.478793055 -0.560020708 3.88378574 -2.79662921 2.70019164 3.26272279 -0.478793286 2.70019171 2.4143389 -1.94824241 -16.8610838 2.4143384 -1.94824215 -13.6008709 4.73217471 -1.32717949 -16.8610834 4.7321741 -1.32717926 -13.6008705 2.4143373 -1.94824211 -0.560020939 4.73217288 -1.32717925 -0.560020548 2.41433692 -1.94824182 2.70019148 4.73217273 -1.3271789 2.70019187 -2.51123063 2.28915875 -17.037308 -2.51123118 2.28915849 -13.3573677 -2.89709787 3.72923332 -17.0373079 -2.89709842 3.72923306 -13.3573677 -2.51123338 2.28915745 1.36238625 -2.89710063 3.72923201 1.3623863 -2.51123394 2.28915719 5.04232481 -2.89710118 3.72923175 5.04232485 -3.42420179 2.81626198 -17.0373081 -3.42420211 2.81626178 -13.3573678 -1.98412734 3.20212919 -17.0373078 -1.98412777 3.20212896 -13.3573676 -3.4242038 2.81626161 1.36238615 -1.98412959 3.20212876 1.3623864 -3.42420435 2.81626135 5.04232471 -1.98413002 3.20212853 5.04232495 2.81367644 3.07422725 -16.6336778 2.81367604 3.07422705 -13.9150947 2.42780926 4.51430158 -16.6336778 2.42780886 4.51430139 -13.9150946 2.81367441 3.07422628 -3.04076035 2.42780723 4.51430061 -3.04076031 2.813674 3.07422609 -0.322177188 2.42780682 4.51430042 -0.322177144 1.90070535 3.60133024 -16.6336798 1.90070511 3.60133034 -13.9150948 3.34077985 3.98719771 -16.6336796 3.34077944 3.98719752 -13.9150945 1.90070405 3.60133021 -3.04076045 3.34077815 3.98719733 -3.04076021 1.90070358 3.60133025 -0.322177287 3.34077768 3.98719737 -0.322177044 -2.17314651 -3.08075705 -16.5091787 -2.17314687 -3.08075722 -14.0871301 -2.41288634 -2.18603679 -16.5091787 -2.4128867 -2.18603696 -14.0871301 -2.17314832 -3.08075791 -4.39893252 -2.41288815 -2.18603765 -4.3989325 -2.17314868 -3.08075808 -1.976883 -2.41288852 -2.18603782 -1.97688297 -2.74037661 -2.7532671 -16.5091788 -2.740377 -2.75326716 -14.0871302 -1.84565661 -2.51352721 -16.5091786 -1.84565697 -2.51352738 -14.08713 -2.74037834 -2.75326732 -4.39893259 -1.84565808 -2.51352749 -4.39893243 -2.74037848 -2.75326743 -1.97688306 -1.84565848 -2.51352754 -1.97688291</float_array>
        <technique_common><accessor source="#vfx_kurp_0204-mesh-positions-array" count="80" stride="3"><param name="X" type="float"/><param name="Y" type="float"/><param name="Z" type="float"/></accessor></technique_common>
      </source>
      <source id="vfx_kurp_0204-mesh-normals">
        <float_array id="vfx_kurp_0204-mesh-normals-array" count="240">-0.96592576 -0.258819294 -1.62920683e-07 -0.96592576 -0.258819294 -1.62920684e-07 -0.96592576 -0.258819294 -1.62920684e-07 -0.96592576 -0.258819294 -1.62920684e-07 -0.96592576 -0.258819294 -1.62920684e-07 -0.96592576 -0.258819294 -1.62920684e-07 -0.96592576 -0.258819294 -1.62920684e-07 -0.96592576 -0.258819294 -1.62920683e-07 -0.258819324 0.965925751 -7.0884607e-08 -0.258819324 0.965925751 -5.41034492e-08 -0.258819324 0.965925751 -7.0884607e-08 -0.258819324 0.965925751 -5.41034563e-08 -0.258819324 0.965925751 -5.41034563e-08 -0.258819324 0.965925751 -5.41034563e-08 -0.258819324 0.965925751 -7.0884607e-08 -0.258819324 0.965925751 -7.0884607e-08 -0.965925755 -0.258819312 -1.62920685e-07 -0.965925755 -0.258819312 -1.62920685e-07 -0.965925755 -0.258819312 -1.62920685e-07 -0.965925755 -0.258819312 -1.62920685e-07 -0.965925755 -0.258819312 -1.62920685e-07 -0.965925755 -0.258819312 -1.62920685e-07 -0.965925755 -0.258819312 -1.62920685e-07 -0.965925755 -0.258819312 -1.62920685e-07 -0.258819312 0.965925755 -1.16457189e-07 -0.258819312 0.965925755 -7.07511082e-08 -0.258819312 0.965925755 -1.16457189e-07 -0.258819312 0.965925755 -7.0751094e-08 -0.258819312 0.965925755 -7.07511011e-08 -0.258819312 0.965925755 -7.07511153e-08 -0.258819312 0.965925755 -1.16457217e-07 -0.258819312 0.965925755 -1.16457217e-07 -0.965925755 -0.258819312 -1.62920685e-07 -0.965925755 -0.258819312 -1.62920685e-07 -0.965925755 -0.258819312 -1.62920685e-07 -0.965925755 -0.258819312 -1.62920685e-07 -0.965925755 -0.258819312 -1.62920685e-07 -0.965925755 -0.258819312 -1.62920685e-07 -0.965925755 -0.258819312 -1.62920685e-07 -0.965925755 -0.258819312 -1.62920685e-07 -0.258819312 0.965925755 2.98023207e-08 -0.258819312 0.965925755 5.50654456e-09 -0.258819312 0.965925755 2.98023207e-08 -0.258819312 0.965925755 5.50654634e-09 -0.258819312 0.965925755 5.50654634e-09 -0.258819312 0.965925755 5.50654279e-09 -0.258819312 0.965925755 2.98023207e-08 -0.258819312 0.965925755 2.98023207e-08 -0.965925755 -0.258819312 -1.62920685e-07 -0.965925755 -0.258819312 -1.62920685e-07 -0.965925755 -0.258819312 -1.62920685e-07 -0.965925755 -0.258819312 -1.62920685e-07 -0.965925755 -0.258819312 -1.62920685e-07 -0.965925755 -0.258819312 -1.62920685e-07 -0.965925755 -0.258819312 -1.62920685e-07 -0.965925755 -0.258819312 -1.62920685e-07 -0.258819467 0.965925713 -5.78971959e-08 -0.258819337 0.965925748 -6.12545987e-09 -0.258819417 0.965925727 -2.98914298e-08 -0.258819312 0.965925755 7.8774285e-09 -0.258819312 0.965925755 -3.59723505e-08 -0.258819312 0.965925755 -3.59723505e-08 -0.258819312 0.965925755 -5.7897248e-08 -0.258819312 0.965925755 -5.7897248e-08 -0.965925755 -0.258819312 -1.62920685e-07 -0.965925755 -0.258819312 -1.62920685e-07 -0.965925755 -0.258819312 -1.62920685e-07 -0.965925755 -0.258819312 -1.62920685e-07 -0.965925755 -0.258819312 -1.62920685e-07 -0.965925755 -0.258819312 -1.62920685e-07 -0.965925755 -0.258819312 -1.62920685e-07 -0.965925755 -0.258819312 -1.62920685e-07 -0.258819437 0.965925721 -1.9416072e-08 -0.258819327 0.965925751 -5.29518425e-10 -0.258819408 0.965925729 -7.97075484e-09 -0.258819312 0.965925755 5.19313837e-09 -0.258819312 0.965925755 5.19314015e-09 -0.258819327 0.965925751 -5.2951132e-10 -0.258819408 0.965925729 -7.97074418e-09 -0.258819437 0.965925721 -1.94160542e-08</float_array>
        <technique_common><accessor source="#vfx_kurp_0204-mesh-normals-array" count="80" stride="3"><param name="X" type="float"/><param name="Y" type="float"/><param name="Z" type="float"/></accessor></technique_common>
      </source>
      <source id="vfx_kurp_0204-mesh-uv0">
        <float_array id="vfx_kurp_0204-mesh-uv0-array" count="160">1 1 1 0.833333313 0 1 0 0.833333313 1 0.166666627 0 0.166666627 1 0 0 0 1 1 1 0.833333313 0 1 0 0.833333313 1 0.166666627 0 0.166666627 1 0 0 0 1 1 1 0.833333313 0 1 0 0.833333313 1 0.166666627 0 0.166666627 1 0 0 0 1 1 1 0.833333313 0 1 0 0.833333313 1 0.166666627 0 0.166666627 1 0 0 0 1 1 1 0.833333313 0 1 0 0.833333313 1 0.166666627 0 0.166666627 1 0 0 0 1 1 1 0.833333313 0 1 0 0.833333313 1 0.166666627 0 0.166666627 1 0 0 0 1 1 1 0.833333313 0 1 0 0.833333313 1 0.166666627 0 0.166666627 1 0 0 0 1 1 1 0.833333313 0 1 0 0.833333313 1 0.166666627 0 0.166666627 1 0 0 0 1 1 1 0.833333313 0 1 0 0.833333313 1 0.166666627 0 0.166666627 1 0 0 0 1 1 1 0.833333313 0 1 0 0.833333313 1 0.166666627 0 0.166666627 1 0 0 0</float_array>
        <technique_common><accessor source="#vfx_kurp_0204-mesh-uv0-array" count="80" stride="2"><param name="S" type="float"/><param name="T" type="float"/></accessor></technique_common>
      </source>
      <source id="vfx_kurp_0204-mesh-colors">
        <float_array id="vfx_kurp_0204-mesh-colors-array" count="320">0 0 0 0 0 0 0 1 0 0 0 0 0 0 0 1 0 0 0 1 0 0 0 1 0 0 0 0 0 0 0 0 0 0 0 0 0 0 0 1 0 0 0 0 0 0 0 1 0 0 0 1 0 0 0 1 0 0 0 0 0 0 0 0 0 0 0 0 0 0 0 1 0 0 0 0 0 0 0 1 0 0 0 1 0 0 0 1 0 0 0 0 0 0 0 0 0 0 0 0 0 0 0 1 0 0 0 0 0 0 0 1 0 0 0 1 0 0 0 1 0 0 0 0 0 0 0 0 0 0 0 0 0 0 0 1 0 0 0 0 0 0 0 1 0 0 0 1 0 0 0 1 0 0 0 0 0 0 0 0 0 0 0 0 0 0 0 1 0 0 0 0 0 0 0 1 0 0 0 1 0 0 0 1 0 0 0 0 0 0 0 0 0 0 0 0 0 0 0 1 0 0 0 0 0 0 0 1 0 0 0 1 0 0 0 1 0 0 0 0 0 0 0 0 0 0 0 0 0 0 0 1 0 0 0 0 0 0 0 1 0 0 0 1 0 0 0 1 0 0 0 0 0 0 0 0 0 0 0 0 0 0 0 1 0 0 0 0 0 0 0 1 0 0 0 1 0 0 0 1 0 0 0 0 0 0 0 0 0 0 0 0 0 0 0 1 0 0 0 0 0 0 0 1 0 0 0 1 0 0 0 1 0 0 0 0 0 0 0 0</float_array>
        <technique_common><accessor source="#vfx_kurp_0204-mesh-colors-array" count="80" stride="4"><param name="R" type="float"/><param name="G" type="float"/><param name="B" type="float"/><param name="A" type="float"/></accessor></technique_common>
      </source>
      <vertices id="vfx_kurp_0204-mesh-vertices"><input semantic="POSITION" source="#vfx_kurp_0204-mesh-positions"/></vertices>
      <triangles material="PreviewMaterial" count="60">
        <input semantic="VERTEX" source="#vfx_kurp_0204-mesh-vertices" offset="0"/>
        <input semantic="NORMAL" source="#vfx_kurp_0204-mesh-normals" offset="1"/>
        <input semantic="TEXCOORD" source="#vfx_kurp_0204-mesh-uv0" offset="2" set="0"/>
        <input semantic="COLOR" source="#vfx_kurp_0204-mesh-colors" offset="3" set="0"/>
        <p>0 0 0 0 1 1 1 1 2 2 2 2 2 2 2 2 1 1 1 1 3 3 3 3 4 4 4 4 3 3 3 3 1 1 1 1 3 3 3 3 4 4 4 4 5 5 5 5 6 6 6 6 5 5 5 5 4 4 4 4 5 5 5 5 6 6 6 6 7 7 7 7 8 8 8 8 9 9 9 9 10 10 10 10 10 10 10 10 9 9 9 9 11 11 11 11 12 12 12 12 11 11 11 11 9 9 9 9 11 11 11 11 12 12 12 12 13 13 13 13 14 14 14 14 13 13 13 13 12 12 12 12 13 13 13 13 14 14 14 14 15 15 15 15 16 16 16 16 17 17 17 17 18 18 18 18 18 18 18 18 17 17 17 17 19 19 19 19 20 20 20 20 19 19 19 19 17 17 17 17 19 19 19 19 20 20 20 20 21 21 21 21 22 22 22 22 21 21 21 21 20 20 20 20 21 21 21 21 22 22 22 22 23 23 23 23 24 24 24 24 25 25 25 25 26 26 26 26 26 26 26 26 25 25 25 25 27 27 27 27 28 28 28 28 27 27 27 27 25 25 25 25 27 27 27 27 28 28 28 28 29 29 29 29 30 30 30 30 29 29 29 29 28 28 28 28 29 29 29 29 30 30 30 30 31 31 31 31 32 32 32 32 33 33 33 33 34 34 34 34 34 34 34 34 33 33 33 33 35 35 35 35 36 36 36 36 35 35 35 35 33 33 33 33 35 35 35 35 36 36 36 36 37 37 37 37 38 38 38 38 37 37 37 37 36 36 36 36 37 37 37 37 38 38 38 38 39 39 39 39 40 40 40 40 41 41 41 41 42 42 42 42 42 42 42 42 41 41 41 41 43 43 43 43 44 44 44 44 43 43 43 43 41 41 41 41 43 43 43 43 44 44 44 44 45 45 45 45 46 46 46 46 45 45 45 45 44 44 44 44 45 45 45 45 46 46 46 46 47 47 47 47 48 48 48 48 49 49 49 49 50 50 50 50 50 50 50 50 49 49 49 49 51 51 51 51 52 52 52 52 51 51 51 51 49 49 49 49 51 51 51 51 52 52 52 52 53 53 53 53 54 54 54 54 53 53 53 53 52 52 52 52 53 53 53 53 54 54 54 54 55 55 55 55 56 56 56 56 57 57 57 57 58 58 58 58 58 58 58 58 57 57 57 57 59 59 59 59 60 60 60 60 59 59 59 59 57 57 57 57 59 59 59 59 60 60 60 60 61 61 61 61 62 62 62 62 61 61 61 61 60 60 60 60 61 61 61 61 62 62 62 62 63 63 63 63 64 64 64 64 65 65 65 65 66 66 66 66 66 66 66 66 65 65 65 65 67 67 67 67 68 68 68 68 67 67 67 67 65 65 65 65 67 67 67 67 68 68 68 68 69 69 69 69 70 70 70 70 69 69 69 69 68 68 68 68 69 69 69 69 70 70 70 70 71 71 71 71 72 72 72 72 73 73 73 73 74 74 74 74 74 74 74 74 73 73 73 73 75 75 75 75 76 76 76 76 75 75 75 75 73 73 73 73 75 75 75 75 76 76 76 76 77 77 77 77 78 78 78 78 77 77 77 77 76 76 76 76 77 77 77 77 78 78 78 78 79 79 79 79</p>
      </triangles>
    </mesh></geometry>
  </library_geometries>
  <library_visual_scenes>
    <visual_scene id="Scene" name="Scene">
      <node id="vfx_kurp_0204" name="vfx_kurp_0204" type="NODE">
        <instance_geometry url="#vfx_kurp_0204-mesh"><bind_material><technique_common><instance_material symbol="PreviewMaterial" target="#PreviewMaterial"><bind_vertex_input semantic="UVSET0" input_semantic="TEXCOORD" input_set="0"/></instance_material></technique_common></bind_material></instance_geometry>
      </node>
    </visual_scene>
  </library_visual_scenes>
  <scene><instance_visual_scene url="#Scene"/></scene>
</COLLADA>
