<?xml version="1.0" encoding="utf-8"?>
<COLLADA xmlns="http://www.collada.org/2005/11/COLLADASchema" version="1.4.1">
  <asset>
    <contributor><authoring_tool>Morrobroom Kurpulio VFX preview converter</authoring_tool></contributor>
    <unit name="unit" meter="1"/>
    <up_axis>Z_UP</up_axis>
  </asset>
  <library_images>
    <image id="VFXTexture" name="darkmap_newgen-1.dds">
      <init_from>../../../Textures/Kurp/darkmap_newgen-1.dds</init_from>
    </image>
  </library_images>
  <library_effects>
    <effect id="PreviewEffect">
      <profile_COMMON>
        <newparam sid="VFXTexture-surface">
          <surface type="2D"><init_from>VFXTexture</init_from></surface>
        </newparam>
        <newparam sid="VFXTexture-sampler">
          <sampler2D><source>VFXTexture-surface</source></sampler2D>
        </newparam>
        <technique sid="common"><phong>
          <emission><color>0.08 0.08 0.08 1</color></emission>
          <ambient><color>0.2 0.2 0.2 1</color></ambient>
          <diffuse><texture texture="VFXTexture-sampler" texcoord="UVSET0"/></diffuse>
          <specular><color>0.15 0.15 0.15 1</color></specular>
          <shininess><float>8</float></shininess>
          <transparent opaque="A_ONE"><texture texture="VFXTexture-sampler" texcoord="UVSET0"/></transparent>
          <transparency><float>1</float></transparency>
        </phong></technique>
      </profile_COMMON>
      <extra><technique profile="GOOGLEEARTH"><double_sided>1</double_sided></technique></extra>
    </effect>
  </library_effects>
  <library_materials><material id="PreviewMaterial" name="PreviewMaterial"><instance_effect url="#PreviewEffect"/></material></library_materials>
  <library_geometries>
    <geometry id="vfx_kurp_0330-mesh" name="vfx_kurp_0330"><mesh>
      <source id="vfx_kurp_0330-mesh-positions">
        <float_array id="vfx_kurp_0330-mesh-positions-array" count="72">-4.93567969e-07 -7.17593281 3.69660025 1.29505817e-07 1.88287066 3.69660153 -4.93568092e-07 -7.17593284 -3.69660193 1.29505796e-07 1.88287107 -3.69660095 -4.73226923e-06 16.2219653 3.69660411 -4.73226912e-06 16.2219658 -3.69659838 3.69660068 -7.17593456 8.22851548e-07 3.69660123 1.88286995 -2.15905652e-07 -3.6966018 -7.17593109 8.22851702e-07 -3.69660096 1.88287193 -2.15905327e-07 3.69659638 16.2219641 1.41025971e-06 -3.6966061 16.2219682 1.41025987e-06 2.61389095 -7.17593434 2.61389172 2.6138921 1.88287047 2.6138918 -2.61389267 -7.17593131 -2.6138919 -2.61389123 1.88287186 -2.61389182 2.61388725 16.2219643 2.61389408 -2.61389607 16.2219668 -2.61388954 2.61389244 -7.17593394 -2.61389071 2.6138921 1.88287072 -2.61389212 -2.61389148 -7.17593171 2.61389291 -2.61389212 1.88287132 2.61389151 2.61388606 16.2219647 -2.61389073 -2.61389756 16.2219664 2.61389289</float_array>
        <technique_common><accessor source="#vfx_kurp_0330-mesh-positions-array" count="24" stride="3"><param name="X" type="float"/><param name="Y" type="float"/><param name="Z" type="float"/></accessor></technique_common>
      </source>
      <source id="vfx_kurp_0330-mesh-normals">
        <float_array id="vfx_kurp_0330-mesh-normals-array" count="72">-1 6.878102e-08 0 -1 -1.35138151e-07 0 -1 6.878102e-08 0 -1 -1.35138094e-07 0 -1 -3.3905738e-07 0 -1 -3.39057266e-07 0 0 1.14668246e-07 1 0 6.30237196e-10 1 0 1.14668232e-07 1 0 6.30194563e-10 1 0 -1.13407797e-07 1 0 -1.1340779e-07 1 -0.707106781 8.23949308e-08 0.707106781 -0.707106781 -1.27834887e-07 0.707106781 -0.707106781 9.25321447e-08 0.707106781 -0.707106811 -1.22766273e-07 0.707106751 -0.707106781 -3.51190333e-07 0.707106781 -0.707106811 -3.51190295e-07 0.707106751 0.707106751 1.36515781e-07 0.707106811 0.707106751 1.89682623e-07 0.707106811 0.707106751 1.46653037e-07 0.707106811 0.707106781 1.90297284e-07 0.707106781 0.707106781 2.09238591e-07 0.707106781 0.707106781 2.00330772e-07 0.707106781</float_array>
        <technique_common><accessor source="#vfx_kurp_0330-mesh-normals-array" count="24" stride="3"><param name="X" type="float"/><param name="Y" type="float"/><param name="Z" type="float"/></accessor></technique_common>
      </source>
      <source id="vfx_kurp_0330-mesh-uv0">
        <float_array id="vfx_kurp_0330-mesh-uv0-array" count="48">0 0 0 0.631193459 1 0 1 0.631193459 0 1 1 1 0 0 0 0.631193519 1 0 1 0.631193399 0 1 1 1 0 0 0 0.631193519 1 0 1 0.631193399 0 1 1 1 0 0 0 0.631193519 1 0 1 0.631193399 0 1 1 1</float_array>
        <technique_common><accessor source="#vfx_kurp_0330-mesh-uv0-array" count="24" stride="2"><param name="S" type="float"/><param name="T" type="float"/></accessor></technique_common>
      </source>
      <vertices id="vfx_kurp_0330-mesh-vertices"><input semantic="POSITION" source="#vfx_kurp_0330-mesh-positions"/></vertices>
      <triangles material="PreviewMaterial" count="16">
        <input semantic="VERTEX" source="#vfx_kurp_0330-mesh-vertices" offset="0"/>
        <input semantic="NORMAL" source="#vfx_kurp_0330-mesh-normals" offset="1"/>
        <input semantic="TEXCOORD" source="#vfx_kurp_0330-mesh-uv0" offset="2" set="0"/>
        <p>0 0 0 1 1 1 2 2 2 2 2 2 1 1 1 3 3 3 4 4 4 3 3 3 1 1 1 3 3 3 4 4 4 5 5 5 6 6 6 7 7 7 8 8 8 8 8 8 7 7 7 9 9 9 10 10 10 9 9 9 7 7 7 9 9 9 10 10 10 11 11 11 12 12 12 13 13 13 14 14 14 14 14 14 13 13 13 15 15 15 16 16 16 15 15 15 13 13 13 15 15 15 16 16 16 17 17 17 18 18 18 19 19 19 20 20 20 20 20 20 19 19 19 21 21 21 22 22 22 21 21 21 19 19 19 21 21 21 22 22 22 23 23 23</p>
      </triangles>
    </mesh></geometry>
  </library_geometries>
  <library_visual_scenes>
    <visual_scene id="Scene" name="Scene">
      <node id="vfx_kurp_0330" name="vfx_kurp_0330" type="NODE">
        <instance_geometry url="#vfx_kurp_0330-mesh"><bind_material><technique_common><instance_material symbol="PreviewMaterial" target="#PreviewMaterial"><bind_vertex_input semantic="UVSET0" input_semantic="TEXCOORD" input_set="0"/></instance_material></technique_common></bind_material></instance_geometry>
      </node>
    </visual_scene>
  </library_visual_scenes>
  <scene><instance_visual_scene url="#Scene"/></scene>
</COLLADA>
