<?xml version="1.0" encoding="utf-8"?>
<COLLADA xmlns="http://www.collada.org/2005/11/COLLADASchema" version="1.4.1">
  <asset>
    <contributor><authoring_tool>Morrobroom Kurpulio VFX preview converter</authoring_tool></contributor>
    <unit name="unit" meter="1"/>
    <up_axis>Z_UP</up_axis>
  </asset>
  <library_images>
    <image id="VFXTexture" name="darkmap_newgen-1.dds">
      <init_from>../../../Textures/Kurp/darkmap_newgen-1.dds</init_from>
    </image>
  </library_images>
  <library_effects>
    <effect id="PreviewEffect">
      <profile_COMMON>
        <newparam sid="VFXTexture-surface">
          <surface type="2D"><init_from>VFXTexture</init_from></surface>
        </newparam>
        <newparam sid="VFXTexture-sampler">
          <sampler2D><source>VFXTexture-surface</source></sampler2D>
        </newparam>
        <technique sid="common"><phong>
          <emission><color>0.08 0.08 0.08 1</color></emission>
          <ambient><color>0.2 0.2 0.2 1</color></ambient>
          <diffuse><texture texture="VFXTexture-sampler" texcoord="UVSET0"/></diffuse>
          <specular><color>0.15 0.15 0.15 1</color></specular>
          <shininess><float>8</float></shininess>
          <transparent opaque="A_ONE"><texture texture="VFXTexture-sampler" texcoord="UVSET0"/></transparent>
          <transparency><float>1</float></transparency>
        </phong></technique>
      </profile_COMMON>
      <extra><technique profile="GOOGLEEARTH"><double_sided>1</double_sided></technique></extra>
    </effect>
  </library_effects>
  <library_materials><material id="PreviewMaterial" name="PreviewMaterial"><instance_effect url="#PreviewEffect"/></material></library_materials>
  <library_geometries>
    <geometry id="vfx_kurp_0208-mesh" name="vfx_kurp_0208"><mesh>
      <source id="vfx_kurp_0208-mesh-positions">
        <float_array id="vfx_kurp_0208-mesh-positions-array" count="324">3.67865668 -3.2833286 0.103756754 5.0041427 -3.13230949 -0.29759666 3.28784084 -2.00002251 0.266477791 4.4725092 -1.38660566 -0.297596914 2.46539834 -0.940212767 0.382707183 3.35372522 0.0550735805 -0.297597179 1.31929779 -0.243029733 0.452444831 1.79466415 1.00346391 -0.297597423 -3.21280856e-07 4.80291636e-08 0.475690663 1.78074435e-07 1.3340611 -0.297597417 -1.31929862 -0.243028668 0.452444831 -1.79466474 1.00346515 -0.297597363 -2.46539971 -0.940211071 0.382707183 -3.35372636 0.0550756017 -0.297597238 -3.28784347 -2.00002104 0.266477791 -4.472511 -1.38660318 -0.297596914 -3.67865934 -3.28332676 0.103756754 -5.00414521 -3.13230662 -0.29759666 5.0041427 -3.13230949 -0.29759666 3.67865668 -3.28332921 -0.698950292 4.4725092 -1.38660566 -0.297596914 3.28784108 -2.00002317 -0.861671718 3.35372522 0.0550735805 -0.297597179 2.46539834 -0.940212989 -0.977901425 1.79466415 1.00346391 -0.297597423 1.31929779 -0.243029902 -1.04763921 1.78074435e-07 1.3340611 -0.297597417 0 -1.87943437e-07 -1.0708853 -1.79466474 1.00346515 -0.297597363 -1.31929826 -0.243028778 -1.04763921 -3.35372636 0.0550756017 -0.297597238 -2.46539971 -0.940210995 -0.977901365 -4.472511 -1.38660318 -0.297596914 -3.28784347 -2.00002098 -0.861671837 -5.00414521 -3.13230662 -0.29759666 -3.67865934 -3.28332689 -0.698950292 -2.13412331 -1.47671293 0.412391546 -2.82708647 -0.540225757 0.0619027265 -2.9340078 -2.33261007 0.554491006 -3.91518316 -1.70451799 0.0619028454 -3.3764052 -3.41734881 0.655990621 -4.51698503 -3.18010805 0.0619030113 -3.40323905 -4.58852499 0.716890069 -4.55348767 -4.77328035 0.0619031964 -3.01098594 -5.69238793 0.737190101 -4.01989855 -6.27488373 0.0619034299 -2.25113992 -6.58402085 0.716890275 -2.98626708 -7.4877882 0.0619035567 -1.22345466 -7.14637115 0.655990632 -1.58828855 -8.25276298 0.0619036143 -0.0628441465 -7.3056134 0.554491578 -0.00948892564 -8.46938323 0.0619036458 1.07832668 -7.04084203 0.412392154 1.54286594 -8.10920979 0.0619036505 -2.82708647 -0.540225757 0.0619027265 -2.1341226 -1.47671269 -0.288586018 -3.91518316 -1.70451799 0.0619028454 -2.93400756 -2.33260976 -0.43068514 -4.51698503 -3.18010805 0.0619030113 -3.3764052 -3.41734877 -0.532184342 -4.55348767 -4.77328035 0.0619031964 -3.40323905 -4.5885252 -0.593083886 -4.01989855 -6.27488373 0.0619034299 -3.01098618 -5.69238815 -0.613383677 -2.98626708 -7.4877882 0.0619035567 -2.25114016 -6.58402059 -0.59308368 -1.58828855 -8.25276298 0.0619036143 -1.22345478 -7.14637134 -0.532183854 -0.00948892564 -8.46938323 0.0619036458 -0.0628443551 -7.30561356 -0.430684509 1.54286594 -8.10920979 0.0619036505 1.07832668 -7.04084214 -0.28858544 -1.23601104 -7.5141173 1.84966067 -1.76796734 -8.73753154 1.44830739 0.0707723699 -7.81731385 2.01238211 0.00967292414 -9.14997555 1.44830734 1.39981597 -7.6349624 2.12861138 1.81759601 -8.90192 1.4483073 2.57664442 -6.991002 2.19834918 3.41845654 -8.02592798 1.44830703 3.44676305 -5.96997151 2.22159483 4.60209387 -6.63700204 1.44830693 3.89594331 -4.70591075 2.19834881 5.21312145 -4.9174789 1.44830677 3.86521608 -3.36476714 2.12861092 5.17132278 -3.09309706 1.44830659 3.35861558 -2.12260517 2.01238118 4.48218469 -1.40336179 1.44830655 2.44264787 -1.14249566 1.84965987 3.23617813 -0.0701016295 1.44830645 -1.76796734 -8.73753154 1.44830739 -1.23601163 -7.51411743 1.04695359 0.00967292414 -9.14997555 1.44830734 0.0707717738 -7.81731404 0.884232364 1.81759601 -8.90192 1.4483073 1.39981585 -7.63496262 0.7680028 3.41845654 -8.02592798 1.44830703 2.57664442 -6.99100224 0.698265082 4.60209387 -6.63700204 1.44830693 3.44676305 -5.96997176 0.675018866 5.21312145 -4.9174789 1.44830677 3.89594331 -4.70591147 0.698264769 5.17132278 -3.09309706 1.44830659 3.86521608 -3.3647676 0.768002283 4.48218469 -1.40336179 1.44830655 3.35861558 -2.12260535 0.884231556 3.23617813 -0.0701016295 1.44830645 2.44264787 -1.14249567 1.04695291</float_array>
        <technique_common><accessor source="#vfx_kurp_0208-mesh-positions-array" count="108" stride="3"><param name="X" type="float"/><param name="Y" type="float"/><param name="Z" type="float"/></accessor></technique_common>
      </source>
      <source id="vfx_kurp_0208-mesh-normals">
        <float_array id="vfx_kurp_0208-mesh-normals-array" count="324">0.292986911 -0.0319405482 0.955582792 0.33866343 0.0451458509 0.939823884 0.347952063 0.114501157 0.930493873 0.368553805 0.173178792 0.913333016 0.316958163 0.301393363 0.899277245 0.315689492 0.340192734 0.885781603 0.184875029 0.442830052 0.877338457 0.17846639 0.459764894 0.869922979 -0.00481095072 0.498067225 0.867125074 -0.00291679082 0.498419335 0.866931173 -0.198572092 0.452356514 0.869449659 -0.179602888 0.445878199 0.876889636 -0.342786096 0.31711567 0.884271081 -0.30291608 0.316089983 0.899071171 -0.393102296 0.128840279 0.9104234 -0.333704381 0.146947952 0.931153954 -0.341970775 0.0553727813 0.938077739 -0.279841739 0.0852227716 0.956256075 0.279841941 0.0852224171 -0.956256047 0.341970947 0.0553724215 -0.938077697 0.333704608 0.146947553 -0.931153935 0.393102431 0.12883987 -0.9104234 0.302916348 0.316089635 -0.899071203 0.342786398 0.317115232 -0.884271121 0.179603181 0.445877896 -0.876889731 0.198572451 0.452356166 -0.869449757 0.00291718798 0.49841912 -0.866931295 0.00481142342 0.498067031 -0.867125183 -0.178466103 0.459764698 -0.869923142 -0.184874696 0.442829911 -0.877338599 -0.315689375 0.340192566 -0.88578171 -0.316957994 0.301393432 -0.899277282 -0.368553964 0.17317883 -0.913332945 -0.347952154 0.114501235 -0.930493829 -0.338663672 0.0451456909 -0.939823805 -0.292987119 -0.0319408445 -0.955582718 -0.118831794 0.269704728 0.955582736 -0.208429098 0.270718553 0.939823801 -0.273137063 0.244084951 0.930493784 -0.33425437 0.23258783 0.913332862 -0.419493617 0.12379719 0.899277132 -0.452460328 0.10329892 0.885781567 -0.475939458 -0.0613082458 0.87733855 -0.487401048 -0.075325704 0.869923133 -0.428933117 -0.253199858 0.867125258 -0.430185141 -0.251735491 0.866931362 -0.29246588 -0.398146501 0.869449868 -0.296340089 -0.378479506 0.876889854 -0.103237093 -0.455418955 0.88427127 -0.122283826 -0.420377746 0.899071308 0.0849723173 -0.404856494 0.910423486 0.0395916871 -0.362470285 0.93115401 0.123031429 -0.323841558 0.938077775 0.0661159667 -0.284961161 0.956256145 -0.213725834 0.199738737 -0.956256087 -0.218939487 0.268469163 -0.938077721 -0.294112814 0.215522707 -0.931153916 -0.308130038 0.276016616 -0.910423367 -0.425200033 0.104288219 -0.899071131 -0.446023254 0.138303842 -0.884271058 -0.47594326 -0.06739812 -0.876889677 -0.491038318 -0.0542093186 -0.869449665 -0.433102349 -0.24668336 -0.866931182 -0.433744528 -0.244866878 -0.867125075 -0.308934815 -0.38443875 -0.869923058 -0.291064559 -0.381521372 -0.877338512 -0.136770922 -0.443491389 -0.885781634 -0.102535493 -0.425190448 -0.899277241 0.0342996152 -0.405766463 -0.91333297 0.0748150279 -0.358586022 -0.930493835 0.130234401 -0.315864265 -0.939823796 0.174154927 -0.237764119 -0.955582694 -0.174155053 -0.237763632 0.955582792 -0.130234484 -0.315863996 0.939823875 -0.0748151396 -0.35858583 0.9304939 -0.0342997683 -0.405766233 0.913333066 0.102535008 -0.425190232 0.899277398 0.136770616 -0.443491224 0.885781764 0.291064553 -0.381521364 0.877338518 0.308934958 -0.384438736 0.869923014 0.433744313 -0.244867062 0.867125131 0.433102162 -0.246683484 0.86693124 0.491038264 -0.0542095816 0.869449679 0.475943314 -0.0673982656 0.876889637 0.446023234 0.138303853 0.884271067 0.425199912 0.1042882 0.899071191 0.308129973 0.27601659 0.910423397 0.294112718 0.215522668 0.931153955 0.218939468 0.268469151 0.938077728 0.213725799 0.199738857 0.95625607 -0.0661161709 -0.284961646 -0.956255987 -0.123031468 -0.323841882 -0.938077658 -0.0395918766 -0.362470553 -0.931153898 -0.0849724621 -0.404856696 -0.910423383 0.122283586 -0.420378026 -0.899071209 0.103236769 -0.455419336 -0.884271111 0.296340083 -0.378479952 -0.876889663 0.292465799 -0.398147095 -0.869449623 0.430185158 -0.251736028 -0.866931198 0.428933145 -0.253200491 -0.867125059 0.487401144 -0.0753262792 -0.869923029 0.475939542 -0.0613089139 -0.877338458 0.452460266 0.103298592 -0.885781637 0.419493497 0.123796862 -0.899277234 0.33425435 0.232587598 -0.913332929 0.273137181 0.244084689 -0.930493818 0.208429258 0.270718443 -0.939823797 0.118832122 0.269704608 -0.955582729</float_array>
        <technique_common><accessor source="#vfx_kurp_0208-mesh-normals-array" count="108" stride="3"><param name="X" type="float"/><param name="Y" type="float"/><param name="Z" type="float"/></accessor></technique_common>
      </source>
      <source id="vfx_kurp_0208-mesh-uv0">
        <float_array id="vfx_kurp_0208-mesh-uv0-array" count="216">1.20000005 -0.141176462 0.5 -0.141176462 1.20000005 -0.0161764622 0.5 -0.0161764622 1.20000005 0.108823538 0.5 0.108823538 1.20000005 0.233823538 0.5 0.233823538 1.20000005 0.358823538 0.5 0.358823538 1.20000005 0.483823538 0.5 0.483823538 1.20000005 0.608823538 0.5 0.608823538 1.20000005 0.733823538 0.5 0.733823538 1.20000005 0.858823538 0.5 0.858823538 0.5 -0.141176462 -0.200000048 -0.141176462 0.5 -0.0161764622 -0.200000048 -0.0161764622 0.5 0.108823538 -0.200000048 0.108823597 0.5 0.233823538 -0.200000048 0.233823597 0.5 0.358823538 -0.200000048 0.358823597 0.5 0.483823538 -0.200000048 0.483823597 0.5 0.608823538 -0.200000048 0.608823597 0.5 0.733823538 -0.200000048 0.733823597 0.5 0.858823538 -0.200000048 0.858823597 1.20000005 -0.141176462 0.5 -0.141176462 1.20000005 -0.0161764622 0.5 -0.0161764622 1.20000005 0.108823538 0.5 0.108823538 1.20000005 0.233823538 0.5 0.233823538 1.20000005 0.358823538 0.5 0.358823538 1.20000005 0.483823538 0.5 0.483823538 1.20000005 0.608823538 0.5 0.608823538 1.20000005 0.733823538 0.5 0.733823538 1.20000005 0.858823538 0.5 0.858823538 0.5 -0.141176462 -0.200000048 -0.141176462 0.5 -0.0161764622 -0.200000048 -0.0161764622 0.5 0.108823538 -0.200000048 0.108823597 0.5 0.233823538 -0.200000048 0.233823597 0.5 0.358823538 -0.200000048 0.358823597 0.5 0.483823538 -0.200000048 0.483823597 0.5 0.608823538 -0.200000048 0.608823597 0.5 0.733823538 -0.200000048 0.733823597 0.5 0.858823538 -0.200000048 0.858823597 1.20000005 -0.141176462 0.5 -0.141176462 1.20000005 -0.0161764622 0.5 -0.0161764622 1.20000005 0.108823538 0.5 0.108823538 1.20000005 0.233823538 0.5 0.233823538 1.20000005 0.358823538 0.5 0.358823538 1.20000005 0.483823538 0.5 0.483823538 1.20000005 0.608823538 0.5 0.608823538 1.20000005 0.733823538 0.5 0.733823538 1.20000005 0.858823538 0.5 0.858823538 0.5 -0.141176462 -0.200000048 -0.141176462 0.5 -0.0161764622 -0.200000048 -0.0161764622 0.5 0.108823538 -0.200000048 0.108823597 0.5 0.233823538 -0.200000048 0.233823597 0.5 0.358823538 -0.200000048 0.358823597 0.5 0.483823538 -0.200000048 0.483823597 0.5 0.608823538 -0.200000048 0.608823597 0.5 0.733823538 -0.200000048 0.733823597 0.5 0.858823538 -0.200000048 0.858823597</float_array>
        <technique_common><accessor source="#vfx_kurp_0208-mesh-uv0-array" count="108" stride="2"><param name="S" type="float"/><param name="T" type="float"/></accessor></technique_common>
      </source>
      <vertices id="vfx_kurp_0208-mesh-vertices"><input semantic="POSITION" source="#vfx_kurp_0208-mesh-positions"/></vertices>
      <triangles material="PreviewMaterial" count="96">
        <input semantic="VERTEX" source="#vfx_kurp_0208-mesh-vertices" offset="0"/>
        <input semantic="NORMAL" source="#vfx_kurp_0208-mesh-normals" offset="1"/>
        <input semantic="TEXCOORD" source="#vfx_kurp_0208-mesh-uv0" offset="2" set="0"/>
        <p>0 0 0 1 1 1 2 2 2 3 3 3 2 2 2 1 1 1 2 2 2 3 3 3 4 4 4 5 5 5 4 4 4 3 3 3 4 4 4 5 5 5 6 6 6 7 7 7 6 6 6 5 5 5 6 6 6 7 7 7 8 8 8 9 9 9 8 8 8 7 7 7 8 8 8 9 9 9 10 10 10 11 11 11 10 10 10 9 9 9 10 10 10 11 11 11 12 12 12 13 13 13 12 12 12 11 11 11 12 12 12 13 13 13 14 14 14 15 15 15 14 14 14 13 13 13 14 14 14 15 15 15 16 16 16 17 17 17 16 16 16 15 15 15 18 18 18 19 19 19 20 20 20 21 21 21 20 20 20 19 19 19 20 20 20 21 21 21 22 22 22 23 23 23 22 22 22 21 21 21 22 22 22 23 23 23 24 24 24 25 25 25 24 24 24 23 23 23 24 24 24 25 25 25 26 26 26 27 27 27 26 26 26 25 25 25 26 26 26 27 27 27 28 28 28 29 29 29 28 28 28 27 27 27 28 28 28 29 29 29 30 30 30 31 31 31 30 30 30 29 29 29 30 30 30 31 31 31 32 32 32 33 33 33 32 32 32 31 31 31 32 32 32 33 33 33 34 34 34 35 35 35 34 34 34 33 33 33 36 36 36 37 37 37 38 38 38 39 39 39 38 38 38 37 37 37 38 38 38 39 39 39 40 40 40 41 41 41 40 40 40 39 39 39 40 40 40 41 41 41 42 42 42 43 43 43 42 42 42 41 41 41 42 42 42 43 43 43 44 44 44 45 45 45 44 44 44 43 43 43 44 44 44 45 45 45 46 46 46 47 47 47 46 46 46 45 45 45 46 46 46 47 47 47 48 48 48 49 49 49 48 48 48 47 47 47 48 48 48 49 49 49 50 50 50 51 51 51 50 50 50 49 49 49 50 50 50 51 51 51 52 52 52 53 53 53 52 52 52 51 51 51 54 54 54 55 55 55 56 56 56 57 57 57 56 56 56 55 55 55 56 56 56 57 57 57 58 58 58 59 59 59 58 58 58 57 57 57 58 58 58 59 59 59 60 60 60 61 61 61 60 60 60 59 59 59 60 60 60 61 61 61 62 62 62 63 63 63 62 62 62 61 61 61 62 62 62 63 63 63 64 64 64 65 65 65 64 64 64 63 63 63 64 64 64 65 65 65 66 66 66 67 67 67 66 66 66 65 65 65 66 66 66 67 67 67 68 68 68 69 69 69 68 68 68 67 67 67 68 68 68 69 69 69 70 70 70 71 71 71 70 70 70 69 69 69 72 72 72 73 73 73 74 74 74 75 75 75 74 74 74 73 73 73 74 74 74 75 75 75 76 76 76 77 77 77 76 76 76 75 75 75 76 76 76 77 77 77 78 78 78 79 79 79 78 78 78 77 77 77 78 78 78 79 79 79 80 80 80 81 81 81 80 80 80 79 79 79 80 80 80 81 81 81 82 82 82 83 83 83 82 82 82 81 81 81 82 82 82 83 83 83 84 84 84 85 85 85 84 84 84 83 83 83 84 84 84 85 85 85 86 86 86 87 87 87 86 86 86 85 85 85 86 86 86 87 87 87 88 88 88 89 89 89 88 88 88 87 87 87 90 90 90 91 91 91 92 92 92 93 93 93 92 92 92 91 91 91 92 92 92 93 93 93 94 94 94 95 95 95 94 94 94 93 93 93 94 94 94 95 95 95 96 96 96 97 97 97 96 96 96 95 95 95 96 96 96 97 97 97 98 98 98 99 99 99 98 98 98 97 97 97 98 98 98 99 99 99 100 100 100 101 101 101 100 100 100 99 99 99 100 100 100 101 101 101 102 102 102 103 103 103 102 102 102 101 101 101 102 102 102 103 103 103 104 104 104 105 105 105 104 104 104 103 103 103 104 104 104 105 105 105 106 106 106 107 107 107 106 106 106 105 105 105</p>
      </triangles>
    </mesh></geometry>
  </library_geometries>
  <library_visual_scenes>
    <visual_scene id="Scene" name="Scene">
      <node id="vfx_kurp_0208" name="vfx_kurp_0208" type="NODE">
        <instance_geometry url="#vfx_kurp_0208-mesh"><bind_material><technique_common><instance_material symbol="PreviewMaterial" target="#PreviewMaterial"><bind_vertex_input semantic="UVSET0" input_semantic="TEXCOORD" input_set="0"/></instance_material></technique_common></bind_material></instance_geometry>
      </node>
    </visual_scene>
  </library_visual_scenes>
  <scene><instance_visual_scene url="#Scene"/></scene>
</COLLADA>
