<?xml version="1.0" encoding="utf-8"?>
<COLLADA xmlns="http://www.collada.org/2005/11/COLLADASchema" version="1.4.1">
  <asset>
    <contributor><authoring_tool>Morrobroom Kurpulio VFX preview converter</authoring_tool></contributor>
    <unit name="unit" meter="1"/>
    <up_axis>Z_UP</up_axis>
  </asset>
  <library_images>
    <image id="VFXTexture" name="darkmap_newgen-1.dds">
      <init_from>../../../Textures/Kurp/darkmap_newgen-1.dds</init_from>
    </image>
  </library_images>
  <library_effects>
    <effect id="PreviewEffect">
      <profile_COMMON>
        <newparam sid="VFXTexture-surface">
          <surface type="2D"><init_from>VFXTexture</init_from></surface>
        </newparam>
        <newparam sid="VFXTexture-sampler">
          <sampler2D><source>VFXTexture-surface</source></sampler2D>
        </newparam>
        <technique sid="common"><phong>
          <emission><color>0.08 0.08 0.08 1</color></emission>
          <ambient><color>0.2 0.2 0.2 1</color></ambient>
          <diffuse><texture texture="VFXTexture-sampler" texcoord="UVSET0"/></diffuse>
          <specular><color>0.15 0.15 0.15 1</color></specular>
          <shininess><float>8</float></shininess>
          <transparent opaque="A_ONE"><texture texture="VFXTexture-sampler" texcoord="UVSET0"/></transparent>
          <transparency><float>1</float></transparency>
        </phong></technique>
      </profile_COMMON>
      <extra><technique profile="GOOGLEEARTH"><double_sided>1</double_sided></technique></extra>
    </effect>
  </library_effects>
  <library_materials><material id="PreviewMaterial" name="PreviewMaterial"><instance_effect url="#PreviewEffect"/></material></library_materials>
  <library_geometries>
    <geometry id="vfx_kurp_1086-mesh" name="vfx_kurp_1086"><mesh>
      <source id="vfx_kurp_1086-mesh-positions">
        <float_array id="vfx_kurp_1086-mesh-positions-array" count="171">-2.28204918 -2.48060252e-07 15.6893606 -1.5072571 -1.49492003e-07 15.7443857 -1.61365325 1.61365228 15.6893606 -1.06579201 1.06579156 15.7443857 -1.06579201 1.06579156 15.7443857 -1.5072571 -1.49492003e-07 15.7443857 -0.795340692 0.795340384 16.056242 -1.12478149 -1.06174846e-07 16.056242 -0.795340692 0.795340384 16.056242 -1.12478149 -1.06174846e-07 16.056242 -0.454535385 0.454535315 15.7730856 -0.642810225 -5.40871481e-08 15.7730856 -0.454535385 0.454535315 15.7730856 -0.642810225 -5.40871481e-08 15.7730856 -3.01820507e-08 2.10910868e-09 15.7706623 -4.75772053e-07 2.28204966 15.6893606 -3.2156535e-07 1.50725722 15.7443857 -3.2156535e-07 1.50725722 15.7443857 -2.4010071e-07 1.12478137 16.056242 -2.4010071e-07 1.12478137 16.056242 -1.59023316e-07 0.642809927 15.7730856 -1.59023316e-07 0.642809927 15.7730856 1.61365228 1.61365278 15.6893606 1.06579156 1.06579213 15.7443857 1.06579156 1.06579213 15.7443857 0.795340563 0.79534093 16.056242 0.795340563 0.79534093 16.056242 0.454535464 0.454535623 15.7730856 0.454535464 0.454535623 15.7730856 2.28204942 3.50449016e-07 15.6893606 1.50725722 2.45813792e-07 15.7443857 1.50725722 2.45813792e-07 15.7443857 1.12478149 1.88819709e-07 16.056242 1.12478149 1.88819709e-07 16.056242 0.642810047 1.1450158e-07 15.7730856 0.642810047 1.1450158e-07 15.7730856 1.61365313 -1.61365252 15.6893606 1.06579201 -1.06579168 15.7443857 1.06579201 -1.06579168 15.7443857 0.795340632 -0.795340563 16.056242 0.795340632 -0.795340563 16.056242 0.454535564 -0.454535315 15.7730856 0.454535564 -0.454535315 15.7730856 3.2224037e-07 -2.28204942 15.6893606 2.05509089e-07 -1.5072571 15.7443857 2.05509089e-07 -1.5072571 15.7443857 1.53225338e-07 -1.12478125 16.056242 1.53225338e-07 -1.12478125 16.056242 6.57616478e-08 -0.642810106 15.7730856 6.57616478e-08 -0.642810106 15.7730856 -1.61365228 -1.61365266 15.6893606 -1.06579168 -1.06579189 15.7443857 -1.06579168 -1.06579189 15.7443857 -0.795340563 -0.795340692 16.056242 -0.795340563 -0.795340692 16.056242 -0.454535345 -0.454535445 15.7730856 -0.454535345 -0.454535445 15.7730856</float_array>
        <technique_common><accessor source="#vfx_kurp_1086-mesh-positions-array" count="57" stride="3"><param name="X" type="float"/><param name="Y" type="float"/><param name="Z" type="float"/></accessor></technique_common>
      </source>
      <source id="vfx_kurp_1086-mesh-normals">
        <float_array id="vfx_kurp_1086-mesh-normals-array" count="171">-0.0708407518 -1.62329894e-08 0.997487638 -0.0708407518 -1.89153246e-08 0.997487638 -0.0500919754 0.0500919375 0.99748764 -0.0500919568 0.050091945 0.99748764 -0.446840514 0.446840326 0.775027275 -0.631927952 -3.39853497e-08 0.775027137 -0.446840553 0.446840365 0.775027231 -0.631927981 3.24686733e-09 0.775027114 0.358182624 -0.358182563 0.862212537 0.506546747 8.4383669e-09 0.862212499 0.358182571 -0.358182719 0.862212494 0.506546747 -5.01967197e-08 0.862212499 0.00266565507 -0.00266565577 0.999992894 0.00376980514 0 0.999992894 0 0 1 -9.20342961e-09 0.0708407221 0.99748764 -8.10630046e-09 0.0708407295 0.99748764 -2.10066698e-07 0.631927851 0.775027219 -2.83643124e-07 0.631927786 0.775027272 2.21972998e-07 -0.506546633 0.862212566 3.35366377e-07 -0.506546677 0.86221254 1.53810257e-09 -0.00376980631 0.999992894 0.0500919709 0.0500919828 0.997487638 0.0500919634 0.0500920014 0.997487637 0.446840484 0.446840642 0.775027111 0.446840514 0.446840612 0.775027111 -0.358182507 -0.358182658 0.862212546 -0.358182541 -0.358182602 0.862212556 -0.00266565344 -0.00266565484 0.999992894 0.0708407443 1.5836882e-08 0.997487638 0.0708407443 2.00947524e-08 0.997487638 0.631927887 8.86475269e-08 0.77502719 0.631927916 5.71393123e-08 0.775027167 -0.506546633 -7.37592494e-08 0.862212566 -0.506546677 -1.04670609e-07 0.86221254 -0.00376980561 0 0.999992894 0.0500919642 -0.050091945 0.99748764 0.0500919568 -0.0500919524 0.99748764 0.446840485 -0.446840356 0.775027275 0.446840383 -0.446840493 0.775027255 -0.358182657 0.358182656 0.862212485 -0.358182684 0.358182503 0.862212537 -0.0026656553 0.00266565414 0.999992894 1.88178947e-09 -0.0708407369 0.997487639 -1.52115414e-09 -0.0708407295 0.99748764 9.17555661e-08 -0.631927786 0.775027272 1.10603671e-07 -0.631927786 0.775027272 -4.84721702e-08 0.506546862 0.862212431 1.19352051e-08 0.506546836 0.862212447 0 0.00376980561 0.999992894 -0.0500919783 -0.0500919865 0.997487637 -0.0500919709 -0.050091979 0.997487638 -0.446840445 -0.446840604 0.775027155 -0.446840451 -0.44684058 0.775027166 0.358182503 0.358182684 0.862212537 0.35818247 0.35818274 0.862212528 0.00266565461 0.00266565577 0.999992894</float_array>
        <technique_common><accessor source="#vfx_kurp_1086-mesh-normals-array" count="57" stride="3"><param name="X" type="float"/><param name="Y" type="float"/><param name="Z" type="float"/></accessor></technique_common>
      </source>
      <source id="vfx_kurp_1086-mesh-uv0">
        <float_array id="vfx_kurp_1086-mesh-uv0-array" count="114">0.905042529 -1.3069067 0.837582052 -1.0577116 0.123261973 -1.30690598 0.186098248 -1.05771089 0.186098248 -1.05771089 0.837582052 -1.0577116 0.248934537 -0.808515906 0.770121574 -0.808516502 0.248934537 -0.808515906 0.770121574 -0.808516502 0.374607116 -0.310125828 0.63520062 -0.310126185 0.374607116 -0.310125828 0.63520062 -0.310126185 0.500279665 0.188264132 0.904975951 -1.3069067 0.837538242 -1.05771017 0.837538242 -1.05771017 0.770100594 -0.80851388 0.770100594 -0.80851388 0.635225356 -0.310121179 0.635225356 -0.310121179 0.123566814 -1.30690598 0.186371714 -1.05771351 0.186371714 -1.05771351 0.249176621 -0.808520794 0.249176621 -0.808520794 0.374786407 -0.310135841 0.374786407 -0.310135841 0.904929757 -1.3069067 0.837507129 -1.05771279 0.837507129 -1.05771279 0.7700845 -0.808518887 0.7700845 -0.808518887 0.635239303 -0.310131073 0.635239303 -0.310131073 0.123752967 -1.30690622 0.186519802 -1.05771112 0.186519802 -1.05771112 0.249286652 -0.808516026 0.249286652 -0.808516026 0.374820352 -0.310125947 0.374820352 -0.310125947 0.905432642 -1.3069067 0.837955356 -1.05770779 0.837955356 -1.05770779 0.77047801 -0.808508873 0.77047801 -0.808508873 0.635523438 -0.310111284 0.635523438 -0.310111284 0.123460434 -1.30690598 0.186233521 -1.05771208 0.186233521 -1.05771208 0.249006599 -0.80851841 0.249006599 -0.80851841 0.374552786 -0.310130835 0.374552786 -0.310130835</float_array>
        <technique_common><accessor source="#vfx_kurp_1086-mesh-uv0-array" count="57" stride="2"><param name="S" type="float"/><param name="T" type="float"/></accessor></technique_common>
      </source>
      <source id="vfx_kurp_1086-mesh-colors">
        <float_array id="vfx_kurp_1086-mesh-colors-array" count="228">0.0980392247 0.0980392247 0.0980392247 0 0.0980392247 0.0980392247 0.0980392247 1 0.0980392247 0.0980392247 0.0980392247 0 0.0980392247 0.0980392247 0.0980392247 1 0.0980392247 0.0980392247 0.0980392247 1 0.0980392247 0.0980392247 0.0980392247 1 0.0980392247 0.0980392247 0.0980392247 1 0.0980392247 0.0980392247 0.0980392247 1 0.0980392247 0.0980392247 0.0980392247 1 0.0980392247 0.0980392247 0.0980392247 1 0.0980392247 0.0980392247 0.0980392247 1 0.0980392247 0.0980392247 0.0980392247 1 0.0980392247 0.0980392247 0.0980392247 1 0.0980392247 0.0980392247 0.0980392247 1 0.0980392247 0.0980392247 0.0980392247 1 0.0980392247 0.0980392247 0.0980392247 0 0.0980392247 0.0980392247 0.0980392247 1 0.0980392247 0.0980392247 0.0980392247 1 0.0980392247 0.0980392247 0.0980392247 1 0.0980392247 0.0980392247 0.0980392247 1 0.0980392247 0.0980392247 0.0980392247 1 0.0980392247 0.0980392247 0.0980392247 1 0.0980392247 0.0980392247 0.0980392247 0 0.0980392247 0.0980392247 0.0980392247 1 0.0980392247 0.0980392247 0.0980392247 1 0.0980392247 0.0980392247 0.0980392247 1 0.0980392247 0.0980392247 0.0980392247 1 0.0980392247 0.0980392247 0.0980392247 1 0.0980392247 0.0980392247 0.0980392247 1 0.0980392247 0.0980392247 0.0980392247 0 0.0980392247 0.0980392247 0.0980392247 1 0.0980392247 0.0980392247 0.0980392247 1 0.0980392247 0.0980392247 0.0980392247 1 0.0980392247 0.0980392247 0.0980392247 1 0.0980392247 0.0980392247 0.0980392247 1 0.0980392247 0.0980392247 0.0980392247 1 0.0980392247 0.0980392247 0.0980392247 0 0.0980392247 0.0980392247 0.0980392247 1 0.0980392247 0.0980392247 0.0980392247 1 0.0980392247 0.0980392247 0.0980392247 1 0.0980392247 0.0980392247 0.0980392247 1 0.0980392247 0.0980392247 0.0980392247 1 0.0980392247 0.0980392247 0.0980392247 1 0.0980392247 0.0980392247 0.0980392247 0 0.0980392247 0.0980392247 0.0980392247 1 0.0980392247 0.0980392247 0.0980392247 1 0.0980392247 0.0980392247 0.0980392247 1 0.0980392247 0.0980392247 0.0980392247 1 0.0980392247 0.0980392247 0.0980392247 1 0.0980392247 0.0980392247 0.0980392247 1 0.0980392247 0.0980392247 0.0980392247 0 0.0980392247 0.0980392247 0.0980392247 1 0.0980392247 0.0980392247 0.0980392247 1 0.0980392247 0.0980392247 0.0980392247 1 0.0980392247 0.0980392247 0.0980392247 1 0.0980392247 0.0980392247 0.0980392247 1 0.0980392247 0.0980392247 0.0980392247 1</float_array>
        <technique_common><accessor source="#vfx_kurp_1086-mesh-colors-array" count="57" stride="4"><param name="R" type="float"/><param name="G" type="float"/><param name="B" type="float"/><param name="A" type="float"/></accessor></technique_common>
      </source>
      <vertices id="vfx_kurp_1086-mesh-vertices"><input semantic="POSITION" source="#vfx_kurp_1086-mesh-positions"/></vertices>
      <triangles material="PreviewMaterial" count="56">
        <input semantic="VERTEX" source="#vfx_kurp_1086-mesh-vertices" offset="0"/>
        <input semantic="NORMAL" source="#vfx_kurp_1086-mesh-normals" offset="1"/>
        <input semantic="TEXCOORD" source="#vfx_kurp_1086-mesh-uv0" offset="2" set="0"/>
        <input semantic="COLOR" source="#vfx_kurp_1086-mesh-colors" offset="3" set="0"/>
        <p>0 0 0 0 1 1 1 1 2 2 2 2 2 2 2 2 1 1 1 1 3 3 3 3 4 4 4 4 5 5 5 5 6 6 6 6 7 7 7 7 6 6 6 6 5 5 5 5 8 8 8 8 9 9 9 9 10 10 10 10 11 11 11 11 10 10 10 10 9 9 9 9 12 12 12 12 13 13 13 13 14 14 14 14 2 2 2 2 3 3 3 3 15 15 15 15 15 15 15 15 3 3 3 3 16 16 16 16 17 17 17 17 4 4 4 4 18 18 18 18 6 6 6 6 18 18 18 18 4 4 4 4 19 19 19 19 8 8 8 8 20 20 20 20 10 10 10 10 20 20 20 20 8 8 8 8 21 21 21 21 12 12 12 12 14 14 14 14 15 15 15 15 16 16 16 16 22 22 22 22 22 22 22 22 16 16 16 16 23 23 23 23 24 24 24 24 17 17 17 17 25 25 25 25 18 18 18 18 25 25 25 25 17 17 17 17 26 26 26 26 19 19 19 19 27 27 27 27 20 20 20 20 27 27 27 27 19 19 19 19 28 28 28 28 21 21 21 21 14 14 14 14 22 22 22 22 23 23 23 23 29 29 29 29 29 29 29 29 23 23 23 23 30 30 30 30 31 31 31 31 24 24 24 24 32 32 32 32 25 25 25 25 32 32 32 32 24 24 24 24 33 33 33 33 26 26 26 26 34 34 34 34 27 27 27 27 34 34 34 34 26 26 26 26 35 35 35 35 28 28 28 28 14 14 14 14 29 29 29 29 30 30 30 30 36 36 36 36 36 36 36 36 30 30 30 30 37 37 37 37 38 38 38 38 31 31 31 31 39 39 39 39 32 32 32 32 39 39 39 39 31 31 31 31 40 40 40 40 33 33 33 33 41 41 41 41 34 34 34 34 41 41 41 41 33 33 33 33 42 42 42 42 35 35 35 35 14 14 14 14 36 36 36 36 37 37 37 37 43 43 43 43 43 43 43 43 37 37 37 37 44 44 44 44 45 45 45 45 38 38 38 38 46 46 46 46 39 39 39 39 46 46 46 46 38 38 38 38 47 47 47 47 40 40 40 40 48 48 48 48 41 41 41 41 48 48 48 48 40 40 40 40 49 49 49 49 42 42 42 42 14 14 14 14 43 43 43 43 44 44 44 44 50 50 50 50 50 50 50 50 44 44 44 44 51 51 51 51 52 52 52 52 45 45 45 45 53 53 53 53 46 46 46 46 53 53 53 53 45 45 45 45 54 54 54 54 47 47 47 47 55 55 55 55 48 48 48 48 55 55 55 55 47 47 47 47 56 56 56 56 49 49 49 49 14 14 14 14 50 50 50 50 51 51 51 51 0 0 0 0 0 0 0 0 51 51 51 51 1 1 1 1 5 5 5 5 52 52 52 52 7 7 7 7 53 53 53 53 7 7 7 7 52 52 52 52 9 9 9 9 54 54 54 54 11 11 11 11 55 55 55 55 11 11 11 11 54 54 54 54 13 13 13 13 56 56 56 56 14 14 14 14</p>
      </triangles>
    </mesh></geometry>
  </library_geometries>
  <library_visual_scenes>
    <visual_scene id="Scene" name="Scene">
      <node id="vfx_kurp_1086" name="vfx_kurp_1086" type="NODE">
        <instance_geometry url="#vfx_kurp_1086-mesh"><bind_material><technique_common><instance_material symbol="PreviewMaterial" target="#PreviewMaterial"><bind_vertex_input semantic="UVSET0" input_semantic="TEXCOORD" input_set="0"/></instance_material></technique_common></bind_material></instance_geometry>
      </node>
    </visual_scene>
  </library_visual_scenes>
  <scene><instance_visual_scene url="#Scene"/></scene>
</COLLADA>
