<?xml version="1.0" encoding="utf-8"?>
<COLLADA xmlns="http://www.collada.org/2005/11/COLLADASchema" version="1.4.1">
  <asset>
    <contributor><authoring_tool>Morrobroom Kurpulio VFX preview converter</authoring_tool></contributor>
    <unit name="unit" meter="1"/>
    <up_axis>Z_UP</up_axis>
  </asset>
  <library_images>
    <image id="VFXTexture" name="darkmap_newgen-1.dds">
      <init_from>../../../Textures/Kurp/darkmap_newgen-1.dds</init_from>
    </image>
  </library_images>
  <library_effects>
    <effect id="PreviewEffect">
      <profile_COMMON>
        <newparam sid="VFXTexture-surface">
          <surface type="2D"><init_from>VFXTexture</init_from></surface>
        </newparam>
        <newparam sid="VFXTexture-sampler">
          <sampler2D><source>VFXTexture-surface</source></sampler2D>
        </newparam>
        <technique sid="common"><phong>
          <emission><color>0.08 0.08 0.08 1</color></emission>
          <ambient><color>0.2 0.2 0.2 1</color></ambient>
          <diffuse><texture texture="VFXTexture-sampler" texcoord="UVSET0"/></diffuse>
          <specular><color>0.15 0.15 0.15 1</color></specular>
          <shininess><float>8</float></shininess>
          <transparent opaque="A_ONE"><texture texture="VFXTexture-sampler" texcoord="UVSET0"/></transparent>
          <transparency><float>1</float></transparency>
        </phong></technique>
      </profile_COMMON>
      <extra><technique profile="GOOGLEEARTH"><double_sided>1</double_sided></technique></extra>
    </effect>
  </library_effects>
  <library_materials><material id="PreviewMaterial" name="PreviewMaterial"><instance_effect url="#PreviewEffect"/></material></library_materials>
  <library_geometries>
    <geometry id="vfx_kurp_0120-mesh" name="vfx_kurp_0120"><mesh>
      <source id="vfx_kurp_0120-mesh-positions">
        <float_array id="vfx_kurp_0120-mesh-positions-array" count="960">0.53202085 2.33259724 -0.655974838 1.07535795 1.16740966 -0.268079625 -0.092414296 1.93494153 -0.838209814 0.450922701 0.769753873 -0.450314637 -0.738214892 1.58310359 -0.924975721 -0.194877862 0.417916068 -0.537080592 -1.42285044 1.31454775 -0.838209784 -0.879513449 0.149360106 -0.450314594 -2.12885134 1.09180976 -0.65597475 -1.58551435 -0.073377887 -0.268079554 1.56175129 0.124338685 0.374264464 0.937315715 -0.27331724 0.192029468 0.291515361 -0.625155072 0.105263556 -0.39312038 -0.893710982 0.192029512 -1.09912133 -1.11644901 0.374264532 -0.65517474 -2.06849364 1.20627835 0.0115590467 -1.76154722 0.974841977 0.958908914 -2.05638269 1.44384577 1.34199519 -1.14115344 0.974841946 2.00569755 -0.82770609 1.20627829 0.429276579 3.88351727 -0.655974977 1.63738537 3.44380204 -0.268080132 0.268919469 3.16079159 -0.838209998 1.47702809 2.72107617 -0.450315097 0.0610564717 2.45535642 -0.924975935 1.26916525 2.01564094 -0.537080991 -0.233156267 1.78135009 -0.838210002 0.974952611 1.34163454 -0.450315014 -0.574874634 1.12463426 -0.655974957 0.633234169 0.684918751 -0.268079971 2.71887919 3.05017085 0.374263613 2.55852222 2.32744486 0.192028706 2.35065933 1.62200976 0.105262809 2.05644637 0.948003185 0.192028792 1.71472798 0.291287289 0.374263826 2.70184241 -0.0679927342 1.20627741 2.95625022 0.620501322 0.97484104 3.8346076 1.08189667 1.44384468 3.45832582 1.99994298 0.974840942 3.70599363 2.69089051 1.20627718 -0.740040844 4.90753709 -0.655975033 0.425147369 5.45087354 -0.268079748 -0.342386128 4.28310252 -0.838210045 0.822802329 4.82643872 -0.45031486 0.00945104031 3.63730238 -0.924975856 1.17463922 4.18063889 -0.537080946 0.278005836 2.95266771 -0.838210043 1.44319419 3.49600387 -0.450314858 0.500742991 2.2466674 -0.655974841 1.66593124 2.79000349 -0.268079682 1.46821875 5.93726614 0.374264346 1.86587415 5.31283094 0.192029247 2.21771099 4.66703121 0.105263371 2.48626598 3.98239613 0.192029354 2.70900297 3.2763959 0.374264313 3.66104797 3.72034173 1.20627832 3.35410215 4.38707488 0.974841993 3.64893927 5.33442373 1.44384554 2.73371058 5.71750969 0.974841674 2.42026417 6.38121163 1.20627821 -2.2909643 4.80479432 -0.655974829 -1.85124945 6.01290336 -0.268079693 -1.56823789 4.6444377 -0.838210175 -1.12852271 5.85254624 -0.450315132 -0.862801503 4.43657463 -0.924975973 -0.42308656 5.64468353 -0.537081153 -0.188793942 4.14236179 -0.838210018 0.250921001 5.3504707 -0.450315198 0.467922951 3.8006434 -0.655975019 0.907638103 5.00875214 -0.26808014 -1.45761883 7.09439738 0.37426369 -0.734891633 6.93404026 0.192028895 -0.0294554703 6.72617697 0.105262887 0.644552105 6.43196467 0.192028724 1.30126899 6.09024601 0.374263781 1.66054877 7.07736052 1.20627704 0.972053311 7.33176852 0.974840815 0.510656931 8.21012588 1.44384437 -0.407390117 7.83384401 0.974840565 -1.09833871 8.08151172 1.20627738 -3.31498031 3.63547786 -0.655975443 -3.85831702 4.80066551 -0.268080046 -2.69054681 4.033133 -0.838210396 -3.23388331 5.19832035 -0.45031467 -2.04474765 4.38496966 -0.924975881 -2.58808442 5.5501574 -0.537080272 -1.36011366 4.65352416 -0.838209455 -1.9034503 5.81871196 -0.450313846 -0.654114507 4.87626128 -0.655974335 -1.19745113 6.04144903 -0.268078831 -4.34471026 5.84373662 0.374264509 -3.72027618 6.2413915 0.192029674 -3.07447743 6.59322849 0.105264072 -2.38984318 6.861783 0.192030287 -1.68384405 7.08452029 0.374265723 -2.12779034 8.03656438 1.2062799 -2.79452256 7.72961922 0.974843174 -3.74187072 8.02445567 1.44384654 -4.12495539 7.10922722 0.974842573 -4.78865627 6.79578096 1.20627889 -3.21223939 2.08455516 -0.655974908 -4.4203483 2.52427011 -0.268079829 -3.05188236 2.80728127 -0.838209862 -4.25999153 3.2469965 -0.450315112 -2.8440197 3.51271686 -0.924975827 -4.05212836 3.95243157 -0.537080848 -2.5498071 4.18672363 -0.838210038 -3.75791598 4.62643883 -0.450315071 -2.20808877 4.84343976 -0.655975042 -3.4161975 5.28315456 -0.268079852 -5.50184202 2.91790062 0.37426393 -5.34148531 3.6406277 0.192028846 -5.13362233 4.34606262 0.105263005 -4.83940952 5.02006949 0.192028794 -4.49769144 5.67678609 0.374263777 -5.48480567 6.0360658 1.2062775 -5.73921344 5.34757104 0.974840914 -6.61757065 4.88617539 1.44384476 -6.24128905 3.96812886 0.974841188 -6.48895637 3.27718087 1.20627764 -2.04292225 1.06053593 -0.655975401 -3.20810941 0.517199534 -0.268080117 -2.44057738 1.68497052 -0.838210038 -3.60576454 1.14163413 -0.450314754 -2.79241464 2.33077058 -0.924975649 -3.95760177 1.7874341 -0.537080524 -3.0609697 3.01540526 -0.838209349 -4.22615697 2.47206908 -0.450314124 -3.28370696 3.72140553 -0.655974026 -4.44889409 3.17806906 -0.2680789 -4.25117985 0.0308066918 0.374263878 -4.64883516 0.655241672 0.192029285 -5.0006723 1.30104146 0.105263627 -5.2692275 1.98567644 0.192030026 -5.49196482 2.69167685 0.374265132 -6.44400856 2.24773067 1.20627892 -6.13706281 1.58099764 0.974842276 -6.43189883 0.633648733 1.44384563 -5.51667062 0.250562628 0.974841484 -5.20322382 -0.413139005 1.20627765 -0.492001338 1.16327863 -0.655974975 -0.931716622 -0.0448302428 -0.268079933 -1.21472698 1.32363573 -0.838209946 -1.65444243 0.115526968 -0.450314959 -1.92016216 1.53149846 -0.924975763 -2.35987772 0.323389804 -0.537080888 -2.59416852 1.82571127 -0.838209842 -3.03388393 0.617602568 -0.450314912 -3.25088438 2.16742944 -0.655974754 -3.69059985 0.959320863 -0.268079827 -1.32534771 -1.12632417 0.37426394 -2.04807396 -0.965966847 0.192028914 -2.75350888 -0.758103985 0.105263008 -3.42751534 -0.463891233 0.192028915 -4.08423131 -0.122172817 0.374263997 -4.44351141 -1.10928712 1.20627764 -3.75501705 -1.36369504 0.974841229 -3.29362199 -2.24205232 1.4438449 -2.37557543 -1.8657706 0.974841236 -1.68462817 -2.11343825 1.20627754 -1.30573818 0.96225087 -0.683992499 -1.99366807 0.25176092 -0.393694753 -1.90672021 1.39673098 -0.860924834 -2.59465021 0.686241126 -0.570627084 -2.46910744 1.87107179 -0.945165839 -3.15703708 1.16058171 -0.654868001 -2.96134163 2.41786565 -0.860924021 -3.64927156 1.70737592 -0.570626379 -3.4149812 3.00452043 -0.683991139 -4.10291106 2.29403026 -0.393693275 -2.57873258 -0.352490774 0.143648394 -3.17971475 0.0819897909 -0.0332839319 -3.74210184 0.556330278 -0.117524849 -4.23433634 1.10312453 -0.0332831219 -4.68797592 1.68977904 0.143649818 -5.19636362 1.16471858 0.865144208 -4.69521424 0.627132097 0.647327914 -4.4972179 -0.223549266 1.04966514 -3.64059308 -0.394002847 0.647327104 -3.08712092 -0.877550986 0.865142653 0.630305803 3.06978178 -0.683991972 1.3407961 2.38185185 -0.393694383 0.195824816 2.46879928 -0.860924784 0.906315299 1.78086895 -0.570627018 -0.2785164 1.90641116 -0.945166087 0.431973886 1.21848097 -0.654868438 -0.825311064 1.41417603 -0.860924658 -0.11482076 0.726245733 -0.570626951 -1.41196635 0.960535712 -0.683991954 -0.701475973 0.272605463 -0.393694224 1.94504809 1.79678696 0.143648829 1.51056702 1.19580379 -0.0332838491 1.03622589 0.633415902 -0.117525208 0.489431071 0.141180687 -0.0332837956 -0.0972241969 -0.312459711 0.14364894 0.427836532 -0.820848224 0.865143118 0.965423786 -0.319698027 0.647327257 1.81610603 -0.121700942 1.04966488 1.98655989 0.734925155 0.647327225 2.47010852 1.28839801 0.865143068 -0.0224927615 4.47428333 -0.683992065 0.966339453 4.49023517 -0.393694614 0.0952417589 3.7421016 -0.860924618 1.08407376 3.75805333 -0.570627167 0.157499577 3.00902495 -0.945166001 1.1463317 3.02497671 -0.654868603 0.118919699 2.27432175 -0.860924647 1.10775186 2.29027341 -0.57062718 0.0248634678 1.53872345 -0.683991952 1.01369573 1.55467518 -0.393694469 1.80731336 4.50380211 0.143648254 1.92504757 3.77161993 -0.0332842931 1.98730544 3.03854345 -0.11752568 1.94872565 2.30384004 -0.0332842534 1.85466958 1.56824169 0.143648414 2.58542799 1.58003009 0.865142378 2.61119343 2.31452675 0.647326523 3.07271192 3.05605291 1.04966381 2.58751531 3.78230671 0.647326375 2.53807245 4.5155902 0.865142489 -1.47722459 5.00582229 -0.683991934 -0.789294025 5.71631254 -0.393694409 -0.876243062 4.57134212 -0.860924724 -0.188312363 5.28183249 -0.570627093 -0.313856085 4.09700129 -0.945166052 0.374074599 4.80749113 -0.654868304 0.178377958 3.55020719 -0.860924629 0.86630875 4.26069708 -0.570626881 0.632016998 2.96355243 -0.683991908 1.31994781 3.67404256 -0.393694272 -0.204228693 6.3205645 0.143648631 0.39675335 5.88608364 -0.0332837123 0.959140326 5.41174281 -0.117525041 1.4513742 4.8649488 -0.0332838343 1.90501336 4.27829407 0.143648833 2.41340261 4.80335466 0.865143198 1.91225338 5.34094136 0.647327322 1.71425783 6.19162278 1.04966499 0.857632472 6.36207634 0.647327227 0.304160526 6.84562462 0.865143219 -2.8817303 4.35302431 -0.683991644 -2.89768301 5.34185694 -0.393694592 -2.14954779 4.47075914 -0.860924576 -2.16550023 5.45959162 -0.570626985 -1.4164701 4.53301781 -0.945166006 -1.43242237 5.52184978 -0.654868402 -0.681765663 4.49443833 -0.860924611 -0.697718002 5.48327073 -0.570627231 0.0538337111 4.40038251 -0.683991819 0.0378813718 5.38921491 -0.393694438 -2.91125028 6.18283053 0.143648384 -2.17906717 6.30056524 -0.0332842196 -1.44598972 6.3628238 -0.117525649 -0.711285077 6.32424389 -0.0332841366 0.0243144663 6.23018855 0.143648327 0.0125256024 6.96094683 0.865142747 -0.721972284 6.98671191 0.647326574 -1.46349994 7.44823009 1.04966429 -2.18975448 6.96303322 0.647326491 -2.92303891 6.91358926 0.86514237 -3.41326632 2.89829419 -0.683992758 -4.12375668 3.5862243 -0.393694701 -2.97878675 3.49927574 -0.860925095 -3.68927693 4.18720575 -0.57062682 -2.50444656 4.06166239 -0.945165957 -3.2149366 4.74959223 -0.654868104 -1.95765313 4.55389615 -0.860924452 -2.66814345 5.24182656 -0.570626401 -1.37099902 5.00753487 -0.683991257 -2.08148931 5.69546511 -0.393693522 -4.72800833 4.17128851 0.143648809 -4.29352851 4.7722704 -0.0332836386 -3.81918877 5.33465731 -0.117524724 -3.27239515 5.82689115 -0.0332832196 -2.68574097 6.28052984 0.14364987 -3.21080179 6.78891828 0.865144261 -3.7483879 6.28776973 0.647328197 -4.5990687 6.08977357 1.04966556 -4.76952148 5.23314875 0.647327567 -5.25306899 4.67967748 0.865142976 -2.76046986 1.49378924 -0.683991708 -3.74930229 1.47783679 -0.393694243 -2.87820456 2.22597105 -0.860924552 -3.86703699 2.21001889 -0.570627094 -2.94046289 2.95904795 -0.945165858 -3.92929529 2.94309571 -0.654868557 -2.90188348 3.69375161 -0.860924561 -3.89071589 3.67779966 -0.570627267 -2.80782773 4.42935026 -0.683991884 -3.79666004 4.41339796 -0.393694261 -4.59027575 1.46426951 0.143648725 -4.70801057 2.19645185 -0.0332841318 -4.77026902 2.92952843 -0.117525378 -4.73168946 3.66423234 -0.0332842986 -4.63763381 4.39983106 0.14364859 -5.36839219 4.38804211 0.865142589 -5.39415714 3.65354493 0.647326909 -5.85567515 2.91201836 1.04966425 -5.37047853 2.18576448 0.647326859 -5.32103448 1.45248075 0.865142823 0.0987646198 1.61504736 -0.68399201 0.114716729 0.626214991 -0.393694365 -0.633416773 1.49731295 -0.860924652 -0.617464826 0.508480559 -0.570627039 -1.36649339 1.43505491 -0.945166037 -1.35054141 0.44622247 -0.654868403 -2.10119648 1.47363461 -0.860924585 -2.08524476 0.484802169 -0.570627 -2.83679481 1.56769074 -0.683992007 -2.82084295 0.57885828 -0.393694326 0.128283766 -0.214758806 0.143648695 -0.603898181 -0.332493233 -0.0332839559 -1.33697452 -0.394751356 -0.11752531 -2.07167788 -0.356171638 -0.033283898 -2.80727618 -0.262115558 0.143648815 -2.79548753 -0.992874415 0.865142895 -2.06099098 -1.0186395 0.647327073 -1.31946485 -1.48015772 1.04966459 -0.593211184 -0.994961146 0.647327019 0.140072104 -0.945517614 0.865142853</float_array>
        <technique_common><accessor source="#vfx_kurp_0120-mesh-positions-array" count="320" stride="3"><param name="X" type="float"/><param name="Y" type="float"/><param name="Z" type="float"/></accessor></technique_common>
      </source>
      <source id="vfx_kurp_0120-mesh-normals">
        <float_array id="vfx_kurp_0120-mesh-normals-array" count="960">0.358545357 -0.140059175 -0.92294564 0.402521541 -0.225494534 -0.887202696 0.30095057 -0.171932054 -0.938012859 0.343380806 -0.26222227 -0.901847605 0.122074351 -0.261788858 -0.957373724 0.165281239 -0.354446126 -0.920353223 -0.0617392571 -0.341057409 -0.93801285 -0.0198463917 -0.431598247 -0.901847589 -0.123176455 -0.364690197 -0.922945622 -0.0859963533 -0.453294645 -0.887202678 0.470665184 -0.372555357 -0.799797969 0.411533285 -0.413751297 -0.812065403 0.237199548 -0.514471084 -0.824048468 0.05519098 -0.585434708 -0.808838772 -0.0111995693 -0.602597479 -0.797966696 0.0345655026 -0.64846488 -0.760459417 0.124464927 -0.62843463 -0.767840086 0.270130315 -0.583497513 -0.765872225 0.414585008 -0.50244613 -0.758727327 0.483447701 -0.446175854 -0.753130419 0.352566744 0.154493531 -0.922945524 0.444074577 0.125177187 -0.887202593 0.334378601 0.0912300889 -0.938012805 0.428226114 0.0573878578 -0.901847564 0.271432134 -0.0987932278 -0.957373749 0.367502603 -0.133759954 -0.920353254 0.197507345 -0.284820726 -0.938012794 0.291152088 -0.319220135 -0.90184753 0.170775467 -0.344974379 -0.922945512 0.259718567 -0.38133697 -0.887202559 0.596247035 0.0693744544 -0.799797886 0.583564435 -0.00156833691 -0.812065324 0.531511247 -0.19606102 -0.824048464 0.452990309 -0.374939707 -0.808838671 0.418180937 -0.434020792 -0.797966575 0.482974945 -0.434093111 -0.760459317 0.532380051 -0.35636107 -0.767840002 0.603605979 -0.221584471 -0.765872146 0.648439115 -0.0621274335 -0.758727155 0.657343348 0.026355141 -0.75313022 0.140059275 0.358545533 -0.922945557 0.225494653 0.402521676 -0.887202605 0.171932164 0.300950611 -0.938012826 0.262222321 0.343380879 -0.901847563 0.261788807 0.122074135 -0.957373765 0.354446193 0.16528097 -0.920353246 0.341057375 -0.0617397977 -0.938012827 0.431598338 -0.019847108 -0.90184753 0.364690204 -0.123177157 -0.922945525 0.453294627 -0.0859971143 -0.887202613 0.372555483 0.470665209 -0.799797895 0.413751514 0.411533231 -0.81206532 0.514471317 0.237199056 -0.824048464 0.585434962 0.0551902479 -0.808838637 0.602597594 -0.0112002308 -0.7979666 0.648465006 0.0345651154 -0.760459328 0.628435135 0.124463889 -0.767839841 0.583497898 0.270129666 -0.765872161 0.502446342 0.414584807 -0.758727297 0.446176008 0.483447715 -0.753130319 -0.154493918 0.352566946 -0.922945382 -0.125177655 0.444074529 -0.887202552 -0.0912301738 0.33437869 -0.938012765 -0.0573880711 0.428226142 -0.901847537 0.0987931952 0.271432171 -0.957373741 0.133759826 0.367502758 -0.92035321 0.284820399 0.197507514 -0.938012858 0.31921976 0.29115233 -0.901847585 0.344973925 0.170775706 -0.922945637 0.381336537 0.259718877 -0.887202654 -0.0693741984 0.596247012 -0.799797925 0.00156846707 0.583564404 -0.812065346 0.196060713 0.531511347 -0.824048473 0.374939217 0.452990637 -0.808838715 0.434020488 0.418181209 -0.797966599 0.434092425 0.482975204 -0.760459544 0.356360757 0.532380211 -0.767840037 0.221584312 0.603605861 -0.765872285 0.0621272304 0.648438839 -0.758727407 -0.0263554687 0.657343155 -0.753130378 -0.358546012 0.140059046 -0.922945405 -0.402521817 0.225494801 -0.887202503 -0.300950754 0.171932393 -0.938012738 -0.343380888 0.262222552 -0.901847492 -0.122073767 0.261789483 -0.957373627 -0.165280714 0.354446576 -0.920353144 0.0617400563 0.341057974 -0.938012592 0.0198472017 0.43159872 -0.901847345 0.123177096 0.364690636 -0.922945363 0.0859969984 0.453294989 -0.88720244 -0.470665467 0.372555598 -0.79979769 -0.411533474 0.413751508 -0.8120652 -0.237199092 0.514471506 -0.824048336 -0.0551900435 0.585435183 -0.808838492 0.0112004812 0.602598024 -0.797966271 -0.034564451 0.648465573 -0.760458874 -0.124463972 0.628435238 -0.767839743 -0.270130024 0.58349785 -0.765872071 -0.414585301 0.502446325 -0.758727038 -0.483448006 0.446176144 -0.753130051 -0.352566791 -0.154493382 -0.922945531 -0.444074587 -0.125177656 -0.887202523 -0.334378507 -0.0912302668 -0.938012821 -0.42822619 -0.0573879364 -0.901847523 -0.271432212 0.0987930949 -0.95737374 -0.367502664 0.133759833 -0.920353247 -0.197507532 0.284820432 -0.938012844 -0.291152359 0.319219993 -0.901847493 -0.170775604 0.344974353 -0.922945496 -0.259718721 0.381337144 -0.88720244 -0.596247186 -0.0693747805 -0.799797745 -0.583564578 0.00156822304 -0.812065222 -0.531511372 0.196060851 -0.824048423 -0.452990566 0.374939319 -0.808838707 -0.418181207 0.434020346 -0.797966677 -0.482975246 0.434092949 -0.760459219 -0.532380272 0.356360661 -0.767840039 -0.603605998 0.221584299 -0.765872181 -0.648439097 0.0621271983 -0.75872719 -0.65734338 -0.0263556164 -0.753130176 -0.140059564 -0.358545259 -0.922945619 -0.225494948 -0.402521375 -0.887202666 -0.171932485 -0.300950398 -0.938012835 -0.262222635 -0.343380634 -0.901847565 -0.261789219 -0.122073926 -0.957373679 -0.354446567 -0.165280821 -0.920353129 -0.341057772 0.0617399354 -0.938012674 -0.431598692 0.0198471136 -0.90184736 -0.364690509 0.123177214 -0.922945397 -0.453295025 0.0859970096 -0.887202421 -0.372555891 -0.470664994 -0.799797832 -0.413751742 -0.411533095 -0.812065273 -0.514471611 -0.23719906 -0.824048279 -0.585435235 -0.0551903149 -0.808838435 -0.602597861 0.0112000482 -0.797966401 -0.648465401 -0.0345649804 -0.760458997 -0.628435242 -0.124464205 -0.767839702 -0.583498124 -0.270129717 -0.765871971 -0.502446615 -0.414584779 -0.758727131 -0.446176225 -0.483447643 -0.753130236 0.154493426 -0.352566825 -0.922945511 0.125177246 -0.444074606 -0.887202571 0.091230055 -0.334378611 -0.938012805 0.057387893 -0.428226148 -0.901847546 -0.0987932691 -0.271432127 -0.957373747 -0.133760076 -0.367502634 -0.920353223 -0.284820787 -0.197507358 -0.938012773 -0.319220187 -0.291152103 -0.901847506 -0.344974413 -0.170775499 -0.922945493 -0.381336964 -0.259718634 -0.887202542 0.0693742559 -0.596247147 -0.79979782 -0.00156845313 -0.583564502 -0.812065276 -0.196060979 -0.531511304 -0.824048437 -0.374939688 -0.452990378 -0.808838642 -0.434020905 -0.418181001 -0.797966481 -0.434093093 -0.482975001 -0.760459292 -0.356361174 -0.532380059 -0.767839948 -0.221584505 -0.603605948 -0.765872161 -0.0621273508 -0.648439074 -0.758727197 0.0263551476 -0.657343318 -0.753130247 -0.000535677427 -0.377789548 -0.925891338 -0.0826458723 -0.47179306 -0.877827414 -0.0497914747 -0.336074244 -0.940518427 -0.13923668 -0.430772183 -0.891654907 -0.195921906 -0.202346095 -0.959515849 -0.288921029 -0.298395201 -0.909661994 -0.334293848 -0.0606055167 -0.940518259 -0.426057368 -0.153058706 -0.891654727 -0.377576224 -0.0127210369 -0.925891122 -0.468882374 -0.0978206821 -0.877827109 -0.226779725 -0.619670703 -0.751384839 -0.287725336 -0.579916474 -0.762175186 -0.445013103 -0.455389378 -0.771092635 -0.573420158 -0.310970509 -0.757948986 -0.611982586 -0.254224683 -0.748897272 -0.646805961 -0.323049009 -0.690855546 -0.600458036 -0.399278554 -0.692839652 -0.508566424 -0.521454296 -0.68516101 -0.378538191 -0.626291201 -0.681519016 -0.300243265 -0.667222546 -0.681665649 0.37778947 -0.00053536458 -0.92589137 0.471792983 -0.0826456483 -0.877827476 0.336074232 -0.0497911355 -0.940518449 0.430772233 -0.139236264 -0.891654948 0.202346289 -0.195921288 -0.959515934 0.29839534 -0.28892049 -0.90966212 0.0606058243 -0.334293305 -0.940518432 0.153058988 -0.426056828 -0.891654936 0.0127213713 -0.377575658 -0.925891349 0.0978210243 -0.468881694 -0.877827434 0.619670692 -0.226779333 -0.751384967 0.579916463 -0.287724972 -0.762175332 0.455389567 -0.445012574 -0.771092829 0.310970714 -0.573419515 -0.757949388 0.254224901 -0.611981923 -0.74889774 0.323049143 -0.646805172 -0.690856223 0.399278809 -0.600457233 -0.692840201 0.521454542 -0.508565722 -0.685161344 0.62629129 -0.378537707 -0.681519203 0.667222535 -0.300242907 -0.681665817 0.267516191 0.26675919 -0.925891258 0.392047298 0.275168902 -0.877827427 0.272848099 0.202432918 -0.940518383 0.403056851 0.206147178 -0.891654931 0.281617653 0.00454302802 -0.95951595 0.415294984 0.00669948864 -0.909662131 0.279235651 -0.193526848 -0.940518373 0.409496539 -0.193039241 -0.891654886 0.2759814 -0.257991643 -0.925891235 0.400719058 -0.262380231 -0.877827347 0.598530598 0.27781611 -0.751384943 0.613515249 0.206610576 -0.762175249 0.636680419 0.00733726865 -0.771092866 0.625358185 -0.185580015 -0.757949338 0.612500559 -0.252973228 -0.748897597 0.685790496 -0.228931016 -0.69085598 0.70692007 -0.142255508 -0.692840086 0.728334282 0.00911332622 -0.685161383 0.710521533 0.17518805 -0.68151911 0.684101557 0.259493592 -0.681665707 0.000535118886 0.377789615 -0.925891311 0.0826453379 0.47179305 -0.877827469 0.0497910017 0.336074186 -0.940518473 0.139236431 0.430772191 -0.891654942 0.195921502 0.202346088 -0.959515933 0.288920831 0.29839509 -0.909662093 0.334293596 0.0606054412 -0.940518353 0.426057006 0.153058562 -0.891654925 0.37757591 0.0127208584 -0.925891253 0.468881873 0.0978204691 -0.877827401 0.226779861 0.619670576 -0.751384902 0.287725364 0.579916366 -0.762175258 0.445012811 0.455389192 -0.771092914 0.573419767 0.310970146 -0.75794943 0.611982296 0.254224206 -0.748897672 0.646805445 0.323048464 -0.690856285 0.600457541 0.399278218 -0.692840274 0.508565977 0.521454151 -0.685161452 0.378537881 0.626291061 -0.681519317 0.30024317 0.667222461 -0.681665773 -0.266759425 0.267515456 -0.925891403 -0.275168725 0.392047184 -0.877827533 -0.202432967 0.27284777 -0.940518468 -0.20614701 0.403056824 -0.891654982 -0.00454317878 0.281617727 -0.959515928 -0.00669985729 0.415294907 -0.909662164 0.193526425 0.279235716 -0.940518441 0.193038719 0.409496746 -0.891654904 0.257991282 0.27598143 -0.925891327 0.262379686 0.400719302 -0.877827398 -0.277816161 0.598530522 -0.751384985 -0.206610813 0.613515066 -0.762175332 -0.00733751812 0.636680473 -0.771092819 0.185579528 0.62535836 -0.757949313 0.252972289 0.612500809 -0.74889771 0.228930619 0.685790908 -0.690855703 0.142254675 0.706920132 -0.692840194 -0.00911350371 0.728334366 -0.685161292 -0.1751883 0.710521374 -0.681519213 -0.259493948 0.684101314 -0.681665815 -0.377789849 0.000535498263 -0.925891216 -0.471793342 0.0826460214 -0.877827248 -0.33607446 0.0497915305 -0.940518347 -0.430772465 0.139236515 -0.891654797 -0.20234631 0.195921791 -0.959515827 -0.29839536 0.288920714 -0.909662042 -0.0606053135 0.334294089 -0.940518186 -0.153058573 0.42605746 -0.891654705 -0.0127205973 0.377576591 -0.925890979 -0.0978202634 0.468882456 -0.877827112 -0.619670872 0.226779142 -0.751384875 -0.579916734 0.287724752 -0.762175209 -0.455389594 0.445012802 -0.771092681 -0.310970221 0.573420246 -0.757949037 -0.254224074 0.61198289 -0.748897231 -0.323048381 0.646805908 -0.69085589 -0.399278423 0.60045778 -0.69283995 -0.521454553 0.508565998 -0.685161131 -0.6262914 0.37853778 -0.681519061 -0.667222634 0.300242748 -0.68166579 -0.267515978 -0.266759542 -0.925891218 -0.392047286 -0.275169362 -0.877827288 -0.272847868 -0.20243313 -0.940518404 -0.403056797 -0.206147515 -0.891654878 -0.281617508 -0.00454325496 -0.959515991 -0.415294975 -0.00669985471 -0.909662132 -0.279235505 0.193526437 -0.940518501 -0.409496658 0.193038964 -0.891654891 -0.275981447 0.257991591 -0.925891235 -0.400719309 0.262380352 -0.877827196 -0.598530517 -0.277816835 -0.751384739 -0.613515207 -0.206611088 -0.762175143 -0.636680582 -0.00733771713 -0.771092727 -0.625358442 0.185579645 -0.757949216 -0.612500819 0.252972854 -0.748897511 -0.685790756 0.228930234 -0.690855982 -0.706920384 0.142255142 -0.692839841 -0.728334452 -0.00911361352 -0.685161198 -0.710521478 -0.175188577 -0.681519033 -0.684101347 -0.259494412 -0.681665606 0.266759377 -0.267516186 -0.925891206 0.275169208 -0.392047338 -0.877827313 0.202433064 -0.272848096 -0.940518352 0.206147337 -0.403056903 -0.891654871 0.00454301119 -0.281617724 -0.959515929 0.00669956682 -0.415295051 -0.9096621 -0.193526771 -0.279235722 -0.940518368 -0.193039184 -0.409496633 -0.891654855 -0.257991547 -0.275981482 -0.925891237 -0.26238028 -0.400719204 -0.877827265 0.277816457 -0.598530584 -0.751384826 0.206610809 -0.613515237 -0.762175195 0.00733735337 -0.636680507 -0.771092793 -0.185580041 -0.625358299 -0.757949237 -0.252973262 -0.612500636 -0.748897523 -0.228930793 -0.685790414 -0.690856135 -0.142255277 -0.70692009 -0.692840113 0.00911343011 -0.728334383 -0.685161274 0.175188219 -0.710521519 -0.681519082 0.259493974 -0.684101487 -0.681665631</float_array>
        <technique_common><accessor source="#vfx_kurp_0120-mesh-normals-array" count="320" stride="3"><param name="X" type="float"/><param name="Y" type="float"/><param name="Z" type="float"/></accessor></technique_common>
      </source>
      <source id="vfx_kurp_0120-mesh-uv0">
        <float_array id="vfx_kurp_0120-mesh-uv0-array" count="640">1 1 1 0.666666627 0.75 1 0.75 0.666666627 0.5 1 0.5 0.666666627 0.25 1 0.25 0.666666627 0 1 0 0.666666627 1 0.333333313 0.75 0.333333313 0.5 0.333333313 0.25 0.333333313 0 0.333333313 0 0 0.25 0 0.5 0 0.75 0 1 0 1 1 1 0.666666627 0.75 1 0.75 0.666666627 0.5 1 0.5 0.666666627 0.25 1 0.25 0.666666627 0 1 0 0.666666627 1 0.333333313 0.75 0.333333313 0.5 0.333333313 0.25 0.333333313 0 0.333333313 0 0 0.25 0 0.5 0 0.75 0 1 0 1 1 1 0.666666627 0.75 1 0.75 0.666666627 0.5 1 0.5 0.666666627 0.25 1 0.25 0.666666627 0 1 0 0.666666627 1 0.333333313 0.75 0.333333313 0.5 0.333333313 0.25 0.333333313 0 0.333333313 0 0 0.25 0 0.5 0 0.75 0 1 0 1 1 1 0.666666627 0.75 1 0.75 0.666666627 0.5 1 0.5 0.666666627 0.25 1 0.25 0.666666627 0 1 0 0.666666627 1 0.333333313 0.75 0.333333313 0.5 0.333333313 0.25 0.333333313 0 0.333333313 0 0 0.25 0 0.5 0 0.75 0 1 0 1 1 1 0.666666627 0.75 1 0.75 0.666666627 0.5 1 0.5 0.666666627 0.25 1 0.25 0.666666627 0 1 0 0.666666627 1 0.333333313 0.75 0.333333313 0.5 0.333333313 0.25 0.333333313 0 0.333333313 0 0 0.25 0 0.5 0 0.75 0 1 0 1 1 1 0.666666627 0.75 1 0.75 0.666666627 0.5 1 0.5 0.666666627 0.25 1 0.25 0.666666627 0 1 0 0.666666627 1 0.333333313 0.75 0.333333313 0.5 0.333333313 0.25 0.333333313 0 0.333333313 0 0 0.25 0 0.5 0 0.75 0 1 0 1 1 1 0.666666627 0.75 1 0.75 0.666666627 0.5 1 0.5 0.666666627 0.25 1 0.25 0.666666627 0 1 0 0.666666627 1 0.333333313 0.75 0.333333313 0.5 0.333333313 0.25 0.333333313 0 0.333333313 0 0 0.25 0 0.5 0 0.75 0 1 0 1 1 1 0.666666627 0.75 1 0.75 0.666666627 0.5 1 0.5 0.666666627 0.25 1 0.25 0.666666627 0 1 0 0.666666627 1 0.333333313 0.75 0.333333313 0.5 0.333333313 0.25 0.333333313 0 0.333333313 0 0 0.25 0 0.5 0 0.75 0 1 0 1 1 1 0.666666627 0.75 1 0.75 0.666666627 0.5 1 0.5 0.666666627 0.25 1 0.25 0.666666627 0 1 0 0.666666627 1 0.333333313 0.75 0.333333313 0.5 0.333333313 0.25 0.333333313 0 0.333333313 0 0 0.25 0 0.5 0 0.75 0 1 0 1 1 1 0.666666627 0.75 1 0.75 0.666666627 0.5 1 0.5 0.666666627 0.25 1 0.25 0.666666627 0 1 0 0.666666627 1 0.333333313 0.75 0.333333313 0.5 0.333333313 0.25 0.333333313 0 0.333333313 0 0 0.25 0 0.5 0 0.75 0 1 0 1 1 1 0.666666627 0.75 1 0.75 0.666666627 0.5 1 0.5 0.666666627 0.25 1 0.25 0.666666627 0 1 0 0.666666627 1 0.333333313 0.75 0.333333313 0.5 0.333333313 0.25 0.333333313 0 0.333333313 0 0 0.25 0 0.5 0 0.75 0 1 0 1 1 1 0.666666627 0.75 1 0.75 0.666666627 0.5 1 0.5 0.666666627 0.25 1 0.25 0.666666627 0 1 0 0.666666627 1 0.333333313 0.75 0.333333313 0.5 0.333333313 0.25 0.333333313 0 0.333333313 0 0 0.25 0 0.5 0 0.75 0 1 0 1 1 1 0.666666627 0.75 1 0.75 0.666666627 0.5 1 0.5 0.666666627 0.25 1 0.25 0.666666627 0 1 0 0.666666627 1 0.333333313 0.75 0.333333313 0.5 0.333333313 0.25 0.333333313 0 0.333333313 0 0 0.25 0 0.5 0 0.75 0 1 0 1 1 1 0.666666627 0.75 1 0.75 0.666666627 0.5 1 0.5 0.666666627 0.25 1 0.25 0.666666627 0 1 0 0.666666627 1 0.333333313 0.75 0.333333313 0.5 0.333333313 0.25 0.333333313 0 0.333333313 0 0 0.25 0 0.5 0 0.75 0 1 0 1 1 1 0.666666627 0.75 1 0.75 0.666666627 0.5 1 0.5 0.666666627 0.25 1 0.25 0.666666627 0 1 0 0.666666627 1 0.333333313 0.75 0.333333313 0.5 0.333333313 0.25 0.333333313 0 0.333333313 0 0 0.25 0 0.5 0 0.75 0 1 0 1 1 1 0.666666627 0.75 1 0.75 0.666666627 0.5 1 0.5 0.666666627 0.25 1 0.25 0.666666627 0 1 0 0.666666627 1 0.333333313 0.75 0.333333313 0.5 0.333333313 0.25 0.333333313 0 0.333333313 0 0 0.25 0 0.5 0 0.75 0 1 0</float_array>
        <technique_common><accessor source="#vfx_kurp_0120-mesh-uv0-array" count="320" stride="2"><param name="S" type="float"/><param name="T" type="float"/></accessor></technique_common>
      </source>
      <source id="vfx_kurp_0120-mesh-colors">
        <float_array id="vfx_kurp_0120-mesh-colors-array" count="1280">0 0 0 0 0 0 0 0 0 0 0 0 0 0 0 1 0 0 0 0 0 0 0 1 0 0 0 0 0 0 0 1 0 0 0 0 0 0 0 0 0 0 0 0 0 0 0 1 0 0 0 1 0 0 0 1 0 0 0 0 0 0 0 0 0 0 0 0 0 0 0 0 0 0 0 0 0 0 0 0 0 0 0 0 0 0 0 0 0 0 0 0 0 0 0 1 0 0 0 0 0 0 0 1 0 0 0 0 0 0 0 1 0 0 0 0 0 0 0 0 0 0 0 0 0 0 0 1 0 0 0 1 0 0 0 1 0 0 0 0 0 0 0 0 0 0 0 0 0 0 0 0 0 0 0 0 0 0 0 0 0 0 0 0 0 0 0 0 0 0 0 0 0 0 0 1 0 0 0 0 0 0 0 1 0 0 0 0 0 0 0 1 0 0 0 0 0 0 0 0 0 0 0 0 0 0 0 1 0 0 0 1 0 0 0 1 0 0 0 0 0 0 0 0 0 0 0 0 0 0 0 0 0 0 0 0 0 0 0 0 0 0 0 0 0 0 0 0 0 0 0 0 0 0 0 1 0 0 0 0 0 0 0 1 0 0 0 0 0 0 0 1 0 0 0 0 0 0 0 0 0 0 0 0 0 0 0 1 0 0 0 1 0 0 0 1 0 0 0 0 0 0 0 0 0 0 0 0 0 0 0 0 0 0 0 0 0 0 0 0 0 0 0 0 0 0 0 0 0 0 0 0 0 0 0 1 0 0 0 0 0 0 0 1 0 0 0 0 0 0 0 1 0 0 0 0 0 0 0 0 0 0 0 0 0 0 0 1 0 0 0 1 0 0 0 1 0 0 0 0 0 0 0 0 0 0 0 0 0 0 0 0 0 0 0 0 0 0 0 0 0 0 0 0 0 0 0 0 0 0 0 0 0 0 0 1 0 0 0 0 0 0 0 1 0 0 0 0 0 0 0 1 0 0 0 0 0 0 0 0 0 0 0 0 0 0 0 1 0 0 0 1 0 0 0 1 0 0 0 0 0 0 0 0 0 0 0 0 0 0 0 0 0 0 0 0 0 0 0 0 0 0 0 0 0 0 0 0 0 0 0 0 0 0 0 1 0 0 0 0 0 0 0 1 0 0 0 0 0 0 0 1 0 0 0 0 0 0 0 0 0 0 0 0 0 0 0 1 0 0 0 1 0 0 0 1 0 0 0 0 0 0 0 0 0 0 0 0 0 0 0 0 0 0 0 0 0 0 0 0 0 0 0 0 0 0 0 0 0 0 0 0 0 0 0 1 0 0 0 0 0 0 0 1 0 0 0 0 0 0 0 1 0 0 0 0 0 0 0 0 0 0 0 0 0 0 0 1 0 0 0 1 0 0 0 1 0 0 0 0 0 0 0 0 0 0 0 0 0 0 0 0 0 0 0 0 0 0 0 0 0 0 0 0 0 0 0 0 0 0 0 0 0 0 0 1 0 0 0 0 0 0 0 1 0 0 0 0 0 0 0 1 0 0 0 0 0 0 0 0 0 0 0 0 0 0 0 1 0 0 0 1 0 0 0 1 0 0 0 0 0 0 0 0 0 0 0 0 0 0 0 0 0 0 0 0 0 0 0 0 0 0 0 0 0 0 0 0 0 0 0 0 0 0 0 1 0 0 0 0 0 0 0 1 0 0 0 0 0 0 0 1 0 0 0 0 0 0 0 0 0 0 0 0 0 0 0 1 0 0 0 1 0 0 0 1 0 0 0 0 0 0 0 0 0 0 0 0 0 0 0 0 0 0 0 0 0 0 0 0 0 0 0 0 0 0 0 0 0 0 0 0 0 0 0 1 0 0 0 0 0 0 0 1 0 0 0 0 0 0 0 1 0 0 0 0 0 0 0 0 0 0 0 0 0 0 0 1 0 0 0 1 0 0 0 1 0 0 0 0 0 0 0 0 0 0 0 0 0 0 0 0 0 0 0 0 0 0 0 0 0 0 0 0 0 0 0 0 0 0 0 0 0 0 0 1 0 0 0 0 0 0 0 1 0 0 0 0 0 0 0 1 0 0 0 0 0 0 0 0 0 0 0 0 0 0 0 1 0 0 0 1 0 0 0 1 0 0 0 0 0 0 0 0 0 0 0 0 0 0 0 0 0 0 0 0 0 0 0 0 0 0 0 0 0 0 0 0 0 0 0 0 0 0 0 1 0 0 0 0 0 0 0 1 0 0 0 0 0 0 0 1 0 0 0 0 0 0 0 0 0 0 0 0 0 0 0 1 0 0 0 1 0 0 0 1 0 0 0 0 0 0 0 0 0 0 0 0 0 0 0 0 0 0 0 0 0 0 0 0 0 0 0 0 0 0 0 0 0 0 0 0 0 0 0 1 0 0 0 0 0 0 0 1 0 0 0 0 0 0 0 1 0 0 0 0 0 0 0 0 0 0 0 0 0 0 0 1 0 0 0 1 0 0 0 1 0 0 0 0 0 0 0 0 0 0 0 0 0 0 0 0 0 0 0 0 0 0 0 0 0 0 0 0 0 0 0 0 0 0 0 0 0 0 0 1 0 0 0 0 0 0 0 1 0 0 0 0 0 0 0 1 0 0 0 0 0 0 0 0 0 0 0 0 0 0 0 1 0 0 0 1 0 0 0 1 0 0 0 0 0 0 0 0 0 0 0 0 0 0 0 0 0 0 0 0 0 0 0 0 0 0 0 0 0 0 0 0 0 0 0 0 0 0 0 1 0 0 0 0 0 0 0 1 0 0 0 0 0 0 0 1 0 0 0 0 0 0 0 0 0 0 0 0 0 0 0 1 0 0 0 1 0 0 0 1 0 0 0 0 0 0 0 0 0 0 0 0 0 0 0 0 0 0 0 0 0 0 0 0</float_array>
        <technique_common><accessor source="#vfx_kurp_0120-mesh-colors-array" count="320" stride="4"><param name="R" type="float"/><param name="G" type="float"/><param name="B" type="float"/><param name="A" type="float"/></accessor></technique_common>
      </source>
      <vertices id="vfx_kurp_0120-mesh-vertices"><input semantic="POSITION" source="#vfx_kurp_0120-mesh-positions"/></vertices>
      <triangles material="PreviewMaterial" count="384">
        <input semantic="VERTEX" source="#vfx_kurp_0120-mesh-vertices" offset="0"/>
        <input semantic="NORMAL" source="#vfx_kurp_0120-mesh-normals" offset="1"/>
        <input semantic="TEXCOORD" source="#vfx_kurp_0120-mesh-uv0" offset="2" set="0"/>
        <input semantic="COLOR" source="#vfx_kurp_0120-mesh-colors" offset="3" set="0"/>
        <p>0 0 0 0 1 1 1 1 2 2 2 2 3 3 3 3 2 2 2 2 1 1 1 1 2 2 2 2 3 3 3 3 4 4 4 4 5 5 5 5 4 4 4 4 3 3 3 3 4 4 4 4 5 5 5 5 6 6 6 6 7 7 7 7 6 6 6 6 5 5 5 5 6 6 6 6 7 7 7 7 8 8 8 8 9 9 9 9 8 8 8 8 7 7 7 7 1 1 1 1 10 10 10 10 3 3 3 3 11 11 11 11 3 3 3 3 10 10 10 10 3 3 3 3 11 11 11 11 5 5 5 5 12 12 12 12 5 5 5 5 11 11 11 11 5 5 5 5 12 12 12 12 7 7 7 7 13 13 13 13 7 7 7 7 12 12 12 12 7 7 7 7 13 13 13 13 9 9 9 9 14 14 14 14 9 9 9 9 13 13 13 13 15 15 15 15 14 14 14 14 16 16 16 16 13 13 13 13 16 16 16 16 14 14 14 14 16 16 16 16 13 13 13 13 17 17 17 17 12 12 12 12 17 17 17 17 13 13 13 13 17 17 17 17 12 12 12 12 18 18 18 18 11 11 11 11 18 18 18 18 12 12 12 12 18 18 18 18 11 11 11 11 19 19 19 19 10 10 10 10 19 19 19 19 11 11 11 11 20 20 20 20 21 21 21 21 22 22 22 22 23 23 23 23 22 22 22 22 21 21 21 21 22 22 22 22 23 23 23 23 24 24 24 24 25 25 25 25 24 24 24 24 23 23 23 23 24 24 24 24 25 25 25 25 26 26 26 26 27 27 27 27 26 26 26 26 25 25 25 25 26 26 26 26 27 27 27 27 28 28 28 28 29 29 29 29 28 28 28 28 27 27 27 27 21 21 21 21 30 30 30 30 23 23 23 23 31 31 31 31 23 23 23 23 30 30 30 30 23 23 23 23 31 31 31 31 25 25 25 25 32 32 32 32 25 25 25 25 31 31 31 31 25 25 25 25 32 32 32 32 27 27 27 27 33 33 33 33 27 27 27 27 32 32 32 32 27 27 27 27 33 33 33 33 29 29 29 29 34 34 34 34 29 29 29 29 33 33 33 33 35 35 35 35 34 34 34 34 36 36 36 36 33 33 33 33 36 36 36 36 34 34 34 34 36 36 36 36 33 33 33 33 37 37 37 37 32 32 32 32 37 37 37 37 33 33 33 33 37 37 37 37 32 32 32 32 38 38 38 38 31 31 31 31 38 38 38 38 32 32 32 32 38 38 38 38 31 31 31 31 39 39 39 39 30 30 30 30 39 39 39 39 31 31 31 31 40 40 40 40 41 41 41 41 42 42 42 42 43 43 43 43 42 42 42 42 41 41 41 41 42 42 42 42 43 43 43 43 44 44 44 44 45 45 45 45 44 44 44 44 43 43 43 43 44 44 44 44 45 45 45 45 46 46 46 46 47 47 47 47 46 46 46 46 45 45 45 45 46 46 46 46 47 47 47 47 48 48 48 48 49 49 49 49 48 48 48 48 47 47 47 47 41 41 41 41 50 50 50 50 43 43 43 43 51 51 51 51 43 43 43 43 50 50 50 50 43 43 43 43 51 51 51 51 45 45 45 45 52 52 52 52 45 45 45 45 51 51 51 51 45 45 45 45 52 52 52 52 47 47 47 47 53 53 53 53 47 47 47 47 52 52 52 52 47 47 47 47 53 53 53 53 49 49 49 49 54 54 54 54 49 49 49 49 53 53 53 53 55 55 55 55 54 54 54 54 56 56 56 56 53 53 53 53 56 56 56 56 54 54 54 54 56 56 56 56 53 53 53 53 57 57 57 57 52 52 52 52 57 57 57 57 53 53 53 53 57 57 57 57 52 52 52 52 58 58 58 58 51 51 51 51 58 58 58 58 52 52 52 52 58 58 58 58 51 51 51 51 59 59 59 59 50 50 50 50 59 59 59 59 51 51 51 51 60 60 60 60 61 61 61 61 62 62 62 62 63 63 63 63 62 62 62 62 61 61 61 61 62 62 62 62 63 63 63 63 64 64 64 64 65 65 65 65 64 64 64 64 63 63 63 63 64 64 64 64 65 65 65 65 66 66 66 66 67 67 67 67 66 66 66 66 65 65 65 65 66 66 66 66 67 67 67 67 68 68 68 68 69 69 69 69 68 68 68 68 67 67 67 67 61 61 61 61 70 70 70 70 63 63 63 63 71 71 71 71 63 63 63 63 70 70 70 70 63 63 63 63 71 71 71 71 65 65 65 65 72 72 72 72 65 65 65 65 71 71 71 71 65 65 65 65 72 72 72 72 67 67 67 67 73 73 73 73 67 67 67 67 72 72 72 72 67 67 67 67 73 73 73 73 69 69 69 69 74 74 74 74 69 69 69 69 73 73 73 73 75 75 75 75 74 74 74 74 76 76 76 76 73 73 73 73 76 76 76 76 74 74 74 74 76 76 76 76 73 73 73 73 77 77 77 77 72 72 72 72 77 77 77 77 73 73 73 73 77 77 77 77 72 72 72 72 78 78 78 78 71 71 71 71 78 78 78 78 72 72 72 72 78 78 78 78 71 71 71 71 79 79 79 79 70 70 70 70 79 79 79 79 71 71 71 71 80 80 80 80 81 81 81 81 82 82 82 82 83 83 83 83 82 82 82 82 81 81 81 81 82 82 82 82 83 83 83 83 84 84 84 84 85 85 85 85 84 84 84 84 83 83 83 83 84 84 84 84 85 85 85 85 86 86 86 86 87 87 87 87 86 86 86 86 85 85 85 85 86 86 86 86 87 87 87 87 88 88 88 88 89 89 89 89 88 88 88 88 87 87 87 87 81 81 81 81 90 90 90 90 83 83 83 83 91 91 91 91 83 83 83 83 90 90 90 90 83 83 83 83 91 91 91 91 85 85 85 85 92 92 92 92 85 85 85 85 91 91 91 91 85 85 85 85 92 92 92 92 87 87 87 87 93 93 93 93 87 87 87 87 92 92 92 92 87 87 87 87 93 93 93 93 89 89 89 89 94 94 94 94 89 89 89 89 93 93 93 93 95 95 95 95 94 94 94 94 96 96 96 96 93 93 93 93 96 96 96 96 94 94 94 94 96 96 96 96 93 93 93 93 97 97 97 97 92 92 92 92 97 97 97 97 93 93 93 93 97 97 97 97 92 92 92 92 98 98 98 98 91 91 91 91 98 98 98 98 92 92 92 92 98 98 98 98 91 91 91 91 99 99 99 99 90 90 90 90 99 99 99 99 91 91 91 91 100 100 100 100 101 101 101 101 102 102 102 102 103 103 103 103 102 102 102 102 101 101 101 101 102 102 102 102 103 103 103 103 104 104 104 104 105 105 105 105 104 104 104 104 103 103 103 103 104 104 104 104 105 105 105 105 106 106 106 106 107 107 107 107 106 106 106 106 105 105 105 105 106 106 106 106 107 107 107 107 108 108 108 108 109 109 109 109 108 108 108 108 107 107 107 107 101 101 101 101 110 110 110 110 103 103 103 103 111 111 111 111 103 103 103 103 110 110 110 110 103 103 103 103 111 111 111 111 105 105 105 105 112 112 112 112 105 105 105 105 111 111 111 111 105 105 105 105 112 112 112 112 107 107 107 107 113 113 113 113 107 107 107 107 112 112 112 112 107 107 107 107 113 113 113 113 109 109 109 109 114 114 114 114 109 109 109 109 113 113 113 113 115 115 115 115 114 114 114 114 116 116 116 116 113 113 113 113 116 116 116 116 114 114 114 114 116 116 116 116 113 113 113 113 117 117 117 117 112 112 112 112 117 117 117 117 113 113 113 113 117 117 117 117 112 112 112 112 118 118 118 118 111 111 111 111 118 118 118 118 112 112 112 112 118 118 118 118 111 111 111 111 119 119 119 119 110 110 110 110 119 119 119 119 111 111 111 111 120 120 120 120 121 121 121 121 122 122 122 122 123 123 123 123 122 122 122 122 121 121 121 121 122 122 122 122 123 123 123 123 124 124 124 124 125 125 125 125 124 124 124 124 123 123 123 123 124 124 124 124 125 125 125 125 126 126 126 126 127 127 127 127 126 126 126 126 125 125 125 125 126 126 126 126 127 127 127 127 128 128 128 128 129 129 129 129 128 128 128 128 127 127 127 127 121 121 121 121 130 130 130 130 123 123 123 123 131 131 131 131 123 123 123 123 130 130 130 130 123 123 123 123 131 131 131 131 125 125 125 125 132 132 132 132 125 125 125 125 131 131 131 131 125 125 125 125 132 132 132 132 127 127 127 127 133 133 133 133 127 127 127 127 132 132 132 132 127 127 127 127 133 133 133 133 129 129 129 129 134 134 134 134 129 129 129 129 133 133 133 133 135 135 135 135 134 134 134 134 136 136 136 136 133 133 133 133 136 136 136 136 134 134 134 134 136 136 136 136 133 133 133 133 137 137 137 137 132 132 132 132 137 137 137 137 133 133 133 133 137 137 137 137 132 132 132 132 138 138 138 138 131 131 131 131 138 138 138 138 132 132 132 132 138 138 138 138 131 131 131 131 139 139 139 139 130 130 130 130 139 139 139 139 131 131 131 131 140 140 140 140 141 141 141 141 142 142 142 142 143 143 143 143 142 142 142 142 141 141 141 141 142 142 142 142 143 143 143 143 144 144 144 144 145 145 145 145 144 144 144 144 143 143 143 143 144 144 144 144 145 145 145 145 146 146 146 146 147 147 147 147 146 146 146 146 145 145 145 145 146 146 146 146 147 147 147 147 148 148 148 148 149 149 149 149 148 148 148 148 147 147 147 147 141 141 141 141 150 150 150 150 143 143 143 143 151 151 151 151 143 143 143 143 150 150 150 150 143 143 143 143 151 151 151 151 145 145 145 145 152 152 152 152 145 145 145 145 151 151 151 151 145 145 145 145 152 152 152 152 147 147 147 147 153 153 153 153 147 147 147 147 152 152 152 152 147 147 147 147 153 153 153 153 149 149 149 149 154 154 154 154 149 149 149 149 153 153 153 153 155 155 155 155 154 154 154 154 156 156 156 156 153 153 153 153 156 156 156 156 154 154 154 154 156 156 156 156 153 153 153 153 157 157 157 157 152 152 152 152 157 157 157 157 153 153 153 153 157 157 157 157 152 152 152 152 158 158 158 158 151 151 151 151 158 158 158 158 152 152 152 152 158 158 158 158 151 151 151 151 159 159 159 159 150 150 150 150 159 159 159 159 151 151 151 151 160 160 160 160 161 161 161 161 162 162 162 162 163 163 163 163 162 162 162 162 161 161 161 161 162 162 162 162 163 163 163 163 164 164 164 164 165 165 165 165 164 164 164 164 163 163 163 163 164 164 164 164 165 165 165 165 166 166 166 166 167 167 167 167 166 166 166 166 165 165 165 165 166 166 166 166 167 167 167 167 168 168 168 168 169 169 169 169 168 168 168 168 167 167 167 167 161 161 161 161 170 170 170 170 163 163 163 163 171 171 171 171 163 163 163 163 170 170 170 170 163 163 163 163 171 171 171 171 165 165 165 165 172 172 172 172 165 165 165 165 171 171 171 171 165 165 165 165 172 172 172 172 167 167 167 167 173 173 173 173 167 167 167 167 172 172 172 172 167 167 167 167 173 173 173 173 169 169 169 169 174 174 174 174 169 169 169 169 173 173 173 173 175 175 175 175 174 174 174 174 176 176 176 176 173 173 173 173 176 176 176 176 174 174 174 174 176 176 176 176 173 173 173 173 177 177 177 177 172 172 172 172 177 177 177 177 173 173 173 173 177 177 177 177 172 172 172 172 178 178 178 178 171 171 171 171 178 178 178 178 172 172 172 172 178 178 178 178 171 171 171 171 179 179 179 179 170 170 170 170 179 179 179 179 171 171 171 171 180 180 180 180 181 181 181 181 182 182 182 182 183 183 183 183 182 182 182 182 181 181 181 181 182 182 182 182 183 183 183 183 184 184 184 184 185 185 185 185 184 184 184 184 183 183 183 183 184 184 184 184 185 185 185 185 186 186 186 186 187 187 187 187 186 186 186 186 185 185 185 185 186 186 186 186 187 187 187 187 188 188 188 188 189 189 189 189 188 188 188 188 187 187 187 187 181 181 181 181 190 190 190 190 183 183 183 183 191 191 191 191 183 183 183 183 190 190 190 190 183 183 183 183 191 191 191 191 185 185 185 185 192 192 192 192 185 185 185 185 191 191 191 191 185 185 185 185 192 192 192 192 187 187 187 187 193 193 193 193 187 187 187 187 192 192 192 192 187 187 187 187 193 193 193 193 189 189 189 189 194 194 194 194 189 189 189 189 193 193 193 193 195 195 195 195 194 194 194 194 196 196 196 196 193 193 193 193 196 196 196 196 194 194 194 194 196 196 196 196 193 193 193 193 197 197 197 197 192 192 192 192 197 197 197 197 193 193 193 193 197 197 197 197 192 192 192 192 198 198 198 198 191 191 191 191 198 198 198 198 192 192 192 192 198 198 198 198 191 191 191 191 199 199 199 199 190 190 190 190 199 199 199 199 191 191 191 191 200 200 200 200 201 201 201 201 202 202 202 202 203 203 203 203 202 202 202 202 201 201 201 201 202 202 202 202 203 203 203 203 204 204 204 204 205 205 205 205 204 204 204 204 203 203 203 203 204 204 204 204 205 205 205 205 206 206 206 206 207 207 207 207 206 206 206 206 205 205 205 205 206 206 206 206 207 207 207 207 208 208 208 208 209 209 209 209 208 208 208 208 207 207 207 207 201 201 201 201 210 210 210 210 203 203 203 203 211 211 211 211 203 203 203 203 210 210 210 210 203 203 203 203 211 211 211 211 205 205 205 205 212 212 212 212 205 205 205 205 211 211 211 211 205 205 205 205 212 212 212 212 207 207 207 207 213 213 213 213 207 207 207 207 212 212 212 212 207 207 207 207 213 213 213 213 209 209 209 209 214 214 214 214 209 209 209 209 213 213 213 213 215 215 215 215 214 214 214 214 216 216 216 216 213 213 213 213 216 216 216 216 214 214 214 214 216 216 216 216 213 213 213 213 217 217 217 217 212 212 212 212 217 217 217 217 213 213 213 213 217 217 217 217 212 212 212 212 218 218 218 218 211 211 211 211 218 218 218 218 212 212 212 212 218 218 218 218 211 211 211 211 219 219 219 219 210 210 210 210 219 219 219 219 211 211 211 211 220 220 220 220 221 221 221 221 222 222 222 222 223 223 223 223 222 222 222 222 221 221 221 221 222 222 222 222 223 223 223 223 224 224 224 224 225 225 225 225 224 224 224 224 223 223 223 223 224 224 224 224 225 225 225 225 226 226 226 226 227 227 227 227 226 226 226 226 225 225 225 225 226 226 226 226 227 227 227 227 228 228 228 228 229 229 229 229 228 228 228 228 227 227 227 227 221 221 221 221 230 230 230 230 223 223 223 223 231 231 231 231 223 223 223 223 230 230 230 230 223 223 223 223 231 231 231 231 225 225 225 225 232 232 232 232 225 225 225 225 231 231 231 231 225 225 225 225 232 232 232 232 227 227 227 227 233 233 233 233 227 227 227 227 232 232 232 232 227 227 227 227 233 233 233 233 229 229 229 229 234 234 234 234 229 229 229 229 233 233 233 233 235 235 235 235 234 234 234 234 236 236 236 236 233 233 233 233 236 236 236 236 234 234 234 234 236 236 236 236 233 233 233 233 237 237 237 237 232 232 232 232 237 237 237 237 233 233 233 233 237 237 237 237 232 232 232 232 238 238 238 238 231 231 231 231 238 238 238 238 232 232 232 232 238 238 238 238 231 231 231 231 239 239 239 239 230 230 230 230 239 239 239 239 231 231 231 231 240 240 240 240 241 241 241 241 242 242 242 242 243 243 243 243 242 242 242 242 241 241 241 241 242 242 242 242 243 243 243 243 244 244 244 244 245 245 245 245 244 244 244 244 243 243 243 243 244 244 244 244 245 245 245 245 246 246 246 246 247 247 247 247 246 246 246 246 245 245 245 245 246 246 246 246 247 247 247 247 248 248 248 248 249 249 249 249 248 248 248 248 247 247 247 247 241 241 241 241 250 250 250 250 243 243 243 243 251 251 251 251 243 243 243 243 250 250 250 250 243 243 243 243 251 251 251 251 245 245 245 245 252 252 252 252 245 245 245 245 251 251 251 251 245 245 245 245 252 252 252 252 247 247 247 247 253 253 253 253 247 247 247 247 252 252 252 252 247 247 247 247 253 253 253 253 249 249 249 249 254 254 254 254 249 249 249 249 253 253 253 253 255 255 255 255 254 254 254 254 256 256 256 256 253 253 253 253 256 256 256 256 254 254 254 254 256 256 256 256 253 253 253 253 257 257 257 257 252 252 252 252 257 257 257 257 253 253 253 253 257 257 257 257 252 252 252 252 258 258 258 258 251 251 251 251 258 258 258 258 252 252 252 252 258 258 258 258 251 251 251 251 259 259 259 259 250 250 250 250 259 259 259 259 251 251 251 251 260 260 260 260 261 261 261 261 262 262 262 262 263 263 263 263 262 262 262 262 261 261 261 261 262 262 262 262 263 263 263 263 264 264 264 264 265 265 265 265 264 264 264 264 263 263 263 263 264 264 264 264 265 265 265 265 266 266 266 266 267 267 267 267 266 266 266 266 265 265 265 265 266 266 266 266 267 267 267 267 268 268 268 268 269 269 269 269 268 268 268 268 267 267 267 267 261 261 261 261 270 270 270 270 263 263 263 263 271 271 271 271 263 263 263 263 270 270 270 270 263 263 263 263 271 271 271 271 265 265 265 265 272 272 272 272 265 265 265 265 271 271 271 271 265 265 265 265 272 272 272 272 267 267 267 267 273 273 273 273 267 267 267 267 272 272 272 272 267 267 267 267 273 273 273 273 269 269 269 269 274 274 274 274 269 269 269 269 273 273 273 273 275 275 275 275 274 274 274 274 276 276 276 276 273 273 273 273 276 276 276 276 274 274 274 274 276 276 276 276 273 273 273 273 277 277 277 277 272 272 272 272 277 277 277 277 273 273 273 273 277 277 277 277 272 272 272 272 278 278 278 278 271 271 271 271 278 278 278 278 272 272 272 272 278 278 278 278 271 271 271 271 279 279 279 279 270 270 270 270 279 279 279 279 271 271 271 271 280 280 280 280 281 281 281 281 282 282 282 282 283 283 283 283 282 282 282 282 281 281 281 281 282 282 282 282 283 283 283 283 284 284 284 284 285 285 285 285 284 284 284 284 283 283 283 283 284 284 284 284 285 285 285 285 286 286 286 286 287 287 287 287 286 286 286 286 285 285 285 285 286 286 286 286 287 287 287 287 288 288 288 288 289 289 289 289 288 288 288 288 287 287 287 287 281 281 281 281 290 290 290 290 283 283 283 283 291 291 291 291 283 283 283 283 290 290 290 290 283 283 283 283 291 291 291 291 285 285 285 285 292 292 292 292 285 285 285 285 291 291 291 291 285 285 285 285 292 292 292 292 287 287 287 287 293 293 293 293 287 287 287 287 292 292 292 292 287 287 287 287 293 293 293 293 289 289 289 289 294 294 294 294 289 289 289 289 293 293 293 293 295 295 295 295 294 294 294 294 296 296 296 296 293 293 293 293 296 296 296 296 294 294 294 294 296 296 296 296 293 293 293 293 297 297 297 297 292 292 292 292 297 297 297 297 293 293 293 293 297 297 297 297 292 292 292 292 298 298 298 298 291 291 291 291 298 298 298 298 292 292 292 292 298 298 298 298 291 291 291 291 299 299 299 299 290 290 290 290 299 299 299 299 291 291 291 291 300 300 300 300 301 301 301 301 302 302 302 302 303 303 303 303 302 302 302 302 301 301 301 301 302 302 302 302 303 303 303 303 304 304 304 304 305 305 305 305 304 304 304 304 303 303 303 303 304 304 304 304 305 305 305 305 306 306 306 306 307 307 307 307 306 306 306 306 305 305 305 305 306 306 306 306 307 307 307 307 308 308 308 308 309 309 309 309 308 308 308 308 307 307 307 307 301 301 301 301 310 310 310 310 303 303 303 303 311 311 311 311 303 303 303 303 310 310 310 310 303 303 303 303 311 311 311 311 305 305 305 305 312 312 312 312 305 305 305 305 311 311 311 311 305 305 305 305 312 312 312 312 307 307 307 307 313 313 313 313 307 307 307 307 312 312 312 312 307 307 307 307 313 313 313 313 309 309 309 309 314 314 314 314 309 309 309 309 313 313 313 313 315 315 315 315 314 314 314 314 316 316 316 316 313 313 313 313 316 316 316 316 314 314 314 314 316 316 316 316 313 313 313 313 317 317 317 317 312 312 312 312 317 317 317 317 313 313 313 313 317 317 317 317 312 312 312 312 318 318 318 318 311 311 311 311 318 318 318 318 312 312 312 312 318 318 318 318 311 311 311 311 319 319 319 319 310 310 310 310 319 319 319 319 311 311 311 311</p>
      </triangles>
    </mesh></geometry>
  </library_geometries>
  <library_visual_scenes>
    <visual_scene id="Scene" name="Scene">
      <node id="vfx_kurp_0120" name="vfx_kurp_0120" type="NODE">
        <instance_geometry url="#vfx_kurp_0120-mesh"><bind_material><technique_common><instance_material symbol="PreviewMaterial" target="#PreviewMaterial"><bind_vertex_input semantic="UVSET0" input_semantic="TEXCOORD" input_set="0"/></instance_material></technique_common></bind_material></instance_geometry>
      </node>
    </visual_scene>
  </library_visual_scenes>
  <scene><instance_visual_scene url="#Scene"/></scene>
</COLLADA>
