<?xml version="1.0" encoding="utf-8"?>
<COLLADA xmlns="http://www.collada.org/2005/11/COLLADASchema" version="1.4.1">
  <asset>
    <contributor><authoring_tool>Morrobroom Kurpulio VFX preview converter</authoring_tool></contributor>
    <unit name="unit" meter="1"/>
    <up_axis>Z_UP</up_axis>
  </asset>
  <library_images>
    <image id="VFXTexture" name="darkmap_newgen-1.dds">
      <init_from>../../../Textures/Kurp/darkmap_newgen-1.dds</init_from>
    </image>
  </library_images>
  <library_effects>
    <effect id="PreviewEffect">
      <profile_COMMON>
        <newparam sid="VFXTexture-surface">
          <surface type="2D"><init_from>VFXTexture</init_from></surface>
        </newparam>
        <newparam sid="VFXTexture-sampler">
          <sampler2D><source>VFXTexture-surface</source></sampler2D>
        </newparam>
        <technique sid="common"><phong>
          <emission><color>0.08 0.08 0.08 1</color></emission>
          <ambient><color>0.2 0.2 0.2 1</color></ambient>
          <diffuse><texture texture="VFXTexture-sampler" texcoord="UVSET0"/></diffuse>
          <specular><color>0.15 0.15 0.15 1</color></specular>
          <shininess><float>8</float></shininess>
          <transparent opaque="A_ONE"><texture texture="VFXTexture-sampler" texcoord="UVSET0"/></transparent>
          <transparency><float>1</float></transparency>
        </phong></technique>
      </profile_COMMON>
      <extra><technique profile="GOOGLEEARTH"><double_sided>1</double_sided></technique></extra>
    </effect>
  </library_effects>
  <library_materials><material id="PreviewMaterial" name="PreviewMaterial"><instance_effect url="#PreviewEffect"/></material></library_materials>
  <library_geometries>
    <geometry id="vfx_kurp_0321-mesh" name="vfx_kurp_0321"><mesh>
      <source id="vfx_kurp_0321-mesh-positions">
        <float_array id="vfx_kurp_0321-mesh-positions-array" count="999">-0.548496582 -0.273726266 0.426141322 -0.870870873 -0.854851604 0.95764637 0.111185899 -0.278239325 0.504964553 0.271196645 -0.858059227 1.03860863 0.111185899 -0.278239325 0.504964553 -0.870870873 -0.854851604 0.95764637 0.111185899 -0.278239325 0.504964553 0.271196645 -0.858059227 1.03860863 0.559602976 -0.303579587 0.1444929 1.01273827 -0.896090195 0.357004181 0.559602976 -0.303579587 0.1444929 0.271196645 -0.858059227 1.03860863 0.559602976 -0.303579587 0.1444929 1.01273827 -0.896090195 0.357004181 0.594120622 -0.348322466 -0.255431123 0.970090106 -0.980589837 -0.492034443 0.594120622 -0.348322466 -0.255431123 1.01273827 -0.896090195 0.357004181 0.594120622 -0.348322466 -0.255431123 0.970090106 -0.980589837 -0.492034443 0.358377099 -0.411128551 -0.462029278 0.380087905 -1.09223843 -0.835141242 0.358377099 -0.411128551 -0.462029278 0.970090106 -0.980589837 -0.492034443 0.358377099 -0.411128551 -0.462029278 0.380087905 -1.09223843 -0.835141242 0.250936598 -0.551716983 -0.57585489 0.00979801407 -0.884094238 -0.440205187 0.250936598 -0.551716983 -0.57585489 0.380087905 -1.09223843 -0.835141242 -0.535046346 -0.65017201 -0.370279811 0.00979801407 -0.884094238 -0.440205187 0.306998957 -0.531940199 -1.52872875 0.380087905 -1.09223843 -0.835141242 0.306998957 -0.531940199 -1.52872875 0.00979801407 -0.884094238 -0.440205187 0.306998957 -0.531940199 -1.52872875 0.380087905 -1.09223843 -0.835141242 1.58698663 -0.577288456 -0.905188397 0.970090106 -0.980589837 -0.492034443 1.58698663 -0.577288456 -0.905188397 0.380087905 -1.09223843 -0.835141242 1.58698663 -0.577288456 -0.905188397 0.970090106 -0.980589837 -0.492034443 1.73692912 -0.422840528 0.681701601 1.01273827 -0.896090195 0.357004181 1.73692912 -0.422840528 0.681701601 0.970090106 -0.980589837 -0.492034443 1.73692912 -0.422840528 0.681701601 1.01273827 -0.896090195 0.357004181 0.557389334 -0.364567265 1.81957752 0.271196645 -0.858059227 1.03860863 0.557389334 -0.364567265 1.81957752 1.01273827 -0.896090195 0.357004181 0.557389334 -0.364567265 1.81957752 0.271196645 -0.858059227 1.03860863 -1.23384528 -0.362179317 1.7244482 -0.870870873 -0.854851604 0.95764637 -1.23384528 -0.362179317 1.7244482 0.271196645 -0.858059227 1.03860863 -1.23384528 -0.362179317 1.7244482 -0.870870873 -0.854851604 0.95764637 -2.50606239 -0.358090326 0.40339347 -1.74213201 -0.849993452 0.000435187758 -2.50606239 -0.358090326 0.40339347 -0.870870873 -0.854851604 0.95764637 -2.50606239 -0.358090326 0.40339347 -1.74213201 -0.849993452 0.000435187758 -2.56776989 -0.294908639 -1.67657897 -1.7388159 -0.805453509 -1.39896408 -2.56776989 -0.294908639 -1.67657897 -1.74213201 -0.849993452 0.000435187758 -2.56776989 -0.294908639 -1.67657897 -1.7388159 -0.805453509 -1.39896408 -1.23615436 -0.156267397 -3.28496605 -0.735399574 -0.703027397 -2.55017161 -1.23615436 -0.156267397 -3.28496605 -1.7388159 -0.805453509 -1.39896408 -1.23615436 -0.156267397 -3.28496605 -0.735399574 -0.703027397 -2.55017161 1.0956721 0.0581064168 -3.6653313 0.89674972 -0.554361083 -2.78430969 1.0956721 0.0581064168 -3.6653313 -0.735399574 -0.703027397 -2.55017161 -0.870870873 -0.854851604 0.95764637 -0.548496582 -0.273726266 0.426141322 -1.74213201 -0.849993452 0.000435187758 -1.09974273 -0.267773885 -0.250628944 -1.74213201 -0.849993452 0.000435187758 -0.548496582 -0.273726266 0.426141322 -1.74213201 -0.849993452 0.000435187758 -1.09974273 -0.267773885 -0.250628944 -1.7388159 -0.805453509 -1.39896408 -1.03814296 -0.238277186 -1.09179989 -1.7388159 -0.805453509 -1.39896408 -1.09974273 -0.267773885 -0.250628944 -1.7388159 -0.805453509 -1.39896408 -1.03814296 -0.238277186 -1.09179989 -0.735399574 -0.703027397 -2.55017161 -0.310613979 -0.166621972 -1.85118482 -0.735399574 -0.703027397 -2.55017161 -1.03814296 -0.238277186 -1.09179989 -0.735399574 -0.703027397 -2.55017161 -0.310613979 -0.166621972 -1.85118482 0.89674972 -0.554361083 -2.78430969 0.708222464 -0.0757786073 -1.95446253 0.89674972 -0.554361083 -2.78430969 -0.310613979 -0.166621972 -1.85118482 0.89674972 -0.554361083 -2.78430969 0.708222464 -0.0757786073 -1.95446253 2.43189961 -0.394856185 -1.86169311 1.77339628 0.0331824552 -1.28716424 2.43189961 -0.394856185 -1.86169311 0.708222464 -0.0757786073 -1.95446253 2.43189961 -0.394856185 -1.86169311 1.77339628 0.0331824552 -1.28716424 3.10637623 -0.270607751 -0.0733858766 2.21147522 0.116309868 -0.00236862848 3.10637623 -0.270607751 -0.0733858766 1.77339628 0.0331824552 -1.28716424 3.10637623 -0.270607751 -0.0733858766 2.21147522 0.116309868 -0.00236862848 2.49849975 -0.101349643 1.850878 1.80407032 0.261852723 1.2435279 2.49849975 -0.101349643 1.850878 2.21147522 0.116309868 -0.00236862848 2.49849975 -0.101349643 1.850878 1.80407032 0.261852723 1.2435279 0.722597018 -0.116918273 3.1228745 0.517468192 0.0415558973 2.14973241 0.722597018 -0.116918273 3.1228745 1.80407032 0.261852723 1.2435279 0.722597018 -0.116918273 3.1228745 0.517468192 0.0415558973 2.14973241 -1.54683515 0.133825662 2.98302561 -1.14938989 0.0727988966 2.03562558 -1.54683515 0.133825662 2.98302561 0.517468192 0.0415558973 2.14973241 1.0956721 0.0581064168 -3.6653313 0.89674972 -0.554361083 -2.78430969 3.15156907 0.273426082 -2.45687038 2.43189961 -0.394856185 -1.86169311 3.15156907 0.273426082 -2.45687038 2.43189961 -0.394856185 -1.86169311 4.08173442 0.442095771 -0.119714625 3.10637623 -0.270607751 -0.0733858766 4.08173442 0.442095771 -0.119714625 2.43189961 -0.394856185 -1.86169311 4.08173442 0.442095771 -0.119714625 3.10637623 -0.270607751 -0.0733858766 3.25919956 0.636415556 2.52857208 2.49849975 -0.101349643 1.850878 3.25919956 0.636415556 2.52857208 3.10637623 -0.270607751 -0.0733858766 3.25919956 0.636415556 2.52857208 2.49849975 -0.101349643 1.850878 0.968250781 0.8134152 4.02500093 0.722597018 -0.116918273 3.1228745 0.968250781 0.8134152 4.02500093 2.49849975 -0.101349643 1.850878 0.968250781 0.8134152 4.02500093 0.722597018 -0.116918273 3.1228745 -1.86119437 1.23660974 3.70187044 -1.54683515 0.133825662 2.98302561 -1.86119437 1.23660974 3.70187044 0.722597018 -0.116918273 3.1228745 -1.86119437 1.23660974 3.70187044 -1.54683515 0.133825662 2.98302561 -4.13982809 0.927582756 1.66009411 -4.13982809 0.927582756 1.66009411 -1.54683515 0.133825662 2.98302561 -3.33353937 -0.0327236741 1.34147242 -1.14938989 0.0727988966 2.03562558 -3.33353937 -0.0327236741 1.34147242 -1.54683515 0.133825662 2.98302561 -3.33353937 -0.0327236741 1.34147242 -1.14938989 0.0727988966 2.03562558 -2.45471701 0.0456097769 0.785736442 -1.74213201 -0.849993452 0.000435187758 -0.870870873 -0.854851604 0.95764637 -2.50606239 -0.358090326 0.40339347 -1.23384528 -0.362179317 1.7244482 0.271196645 -0.858059227 1.03860863 -1.23384528 -0.362179317 1.7244482 -0.870870873 -0.854851604 0.95764637 -1.23384528 -0.362179317 1.7244482 0.271196645 -0.858059227 1.03860863 0.557389334 -0.364567265 1.81957752 1.01273827 -0.896090195 0.357004181 0.557389334 -0.364567265 1.81957752 0.271196645 -0.858059227 1.03860863 0.557389334 -0.364567265 1.81957752 1.01273827 -0.896090195 0.357004181 1.73692912 -0.422840528 0.681701601 0.970090106 -0.980589837 -0.492034443 1.73692912 -0.422840528 0.681701601 1.73692912 -0.422840528 0.681701601 0.970090106 -0.980589837 -0.492034443 1.58698663 -0.577288456 -0.905188397 0.380087905 -1.09223843 -0.835141242 1.58698663 -0.577288456 -0.905188397 1.58698663 -0.577288456 -0.905188397 0.380087905 -1.09223843 -0.835141242 0.306998957 -0.531940199 -1.52872875 -1.03814296 -0.238277186 -1.09179989 -0.735399574 -0.703027397 -2.55017161 -0.310613979 -0.166621972 -1.85118482 -0.735399574 -0.703027397 -2.55017161 -1.03814296 -0.238277186 -1.09179989 -1.7388159 -0.805453509 -1.39896408 -1.09974273 -0.267773885 -0.250628944 -1.7388159 -0.805453509 -1.39896408 -1.03814296 -0.238277186 -1.09179989 -1.7388159 -0.805453509 -1.39896408 -1.09974273 -0.267773885 -0.250628944 -0.548496582 -0.273726266 0.426141322 -1.74213201 -0.849993452 0.000435187758 -1.09974273 -0.267773885 -0.250628944 -1.74213201 -0.849993452 0.000435187758 -0.548496582 -0.273726266 0.426141322 -0.870870873 -0.854851604 0.95764637 0.111185899 -0.278239325 0.504964553 -0.870870873 -0.854851604 0.95764637 -0.548496582 -0.273726266 0.426141322 -0.870870873 -0.854851604 0.95764637 0.111185899 -0.278239325 0.504964553 0.271196645 -0.858059227 1.03860863 0.559602976 -0.303579587 0.1444929 0.111185899 -0.278239325 0.504964553 0.271196645 -0.858059227 1.03860863 0.559602976 -0.303579587 0.1444929 1.01273827 -0.896090195 0.357004181 0.594120622 -0.348322466 -0.255431123 0.559602976 -0.303579587 0.1444929 1.01273827 -0.896090195 0.357004181 0.594120622 -0.348322466 -0.255431123 0.970090106 -0.980589837 -0.492034443 0.358377099 -0.411128551 -0.462029278 0.594120622 -0.348322466 -0.255431123 0.970090106 -0.980589837 -0.492034443 0.358377099 -0.411128551 -0.462029278 0.380087905 -1.09223843 -0.835141242 0.250936598 -0.551716983 -0.57585489 0.358377099 -0.411128551 -0.462029278 0.00979801407 -0.884094238 -0.440205187 0.250936598 -0.551716983 -0.57585489 0.380087905 -1.09223843 -0.835141242 0.00979801407 -0.884094238 -0.440205187 0.306998957 -0.531940199 -1.52872875 -0.535046346 -0.65017201 -0.370279811 0.306998957 -0.531940199 -1.52872875 0.00979801407 -0.884094238 -0.440205187 -0.735399574 -0.703027397 -2.55017161 0.89674972 -0.554361083 -2.78430969 -0.310613979 -0.166621972 -1.85118482 -0.310613979 -0.166621972 -1.85118482 0.89674972 -0.554361083 -2.78430969 0.708222464 -0.0757786073 -1.95446253 2.43189961 -0.394856185 -1.86169311 0.708222464 -0.0757786073 -1.95446253 0.89674972 -0.554361083 -2.78430969 0.708222464 -0.0757786073 -1.95446253 1.77339628 0.0331824552 -1.28716424 3.10637623 -0.270607751 -0.0733858766 1.77339628 0.0331824552 -1.28716424 1.77339628 0.0331824552 -1.28716424 2.21147522 0.116309868 -0.00236862848 2.49849975 -0.101349643 1.850878 2.21147522 0.116309868 -0.00236862848 2.21147522 0.116309868 -0.00236862848 1.80407032 0.261852723 1.2435279 0.722597018 -0.116918273 3.1228745 1.80407032 0.261852723 1.2435279 1.80407032 0.261852723 1.2435279 0.517468192 0.0415558973 2.14973241 -1.54683515 0.133825662 2.98302561 0.517468192 0.0415558973 2.14973241 0.517468192 0.0415558973 2.14973241 -1.54683515 0.133825662 2.98302561 -1.14938989 0.0727988966 2.03562558 -3.33353937 -0.0327236741 1.34147242 -1.14938989 0.0727988966 2.03562558 -1.14938989 0.0727988966 2.03562558 -3.33353937 -0.0327236741 1.34147242 -2.45471701 0.0456097769 0.785736442 -3.33353937 -0.0327236741 1.34147242 -1.54683515 0.133825662 2.98302561 -4.13982809 0.927582756 1.66009411 -4.13982809 0.927582756 1.66009411 -1.86119437 1.23660974 3.70187044 0.722597018 -0.116918273 3.1228745 -1.86119437 1.23660974 3.70187044 -1.54683515 0.133825662 2.98302561 -1.86119437 1.23660974 3.70187044 0.722597018 -0.116918273 3.1228745 0.968250781 0.8134152 4.02500093 2.49849975 -0.101349643 1.850878 0.968250781 0.8134152 4.02500093 0.722597018 -0.116918273 3.1228745 0.968250781 0.8134152 4.02500093 2.49849975 -0.101349643 1.850878 3.25919956 0.636415556 2.52857208 3.10637623 -0.270607751 -0.0733858766 3.25919956 0.636415556 2.52857208 2.49849975 -0.101349643 1.850878 3.25919956 0.636415556 2.52857208 3.10637623 -0.270607751 -0.0733858766 4.08173442 0.442095771 -0.119714625 2.43189961 -0.394856185 -1.86169311 4.08173442 0.442095771 -0.119714625 3.10637623 -0.270607751 -0.0733858766 4.08173442 0.442095771 -0.119714625 2.43189961 -0.394856185 -1.86169311 3.15156907 0.273426082 -2.45687038 3.15156907 0.273426082 -2.45687038 2.43189961 -0.394856185 -1.86169311 0.89674972 -0.554361083 -2.78430969 1.0956721 0.0581064168 -3.6653313 -0.735399574 -0.703027397 -2.55017161 1.0956721 0.0581064168 -3.6653313 0.89674972 -0.554361083 -2.78430969 1.0956721 0.0581064168 -3.6653313 -1.23615436 -0.156267397 -3.28496605 -1.7388159 -0.805453509 -1.39896408 -1.23615436 -0.156267397 -3.28496605 -0.735399574 -0.703027397 -2.55017161 -1.23615436 -0.156267397 -3.28496605 -2.56776989 -0.294908639 -1.67657897 -1.74213201 -0.849993452 0.000435187758 -2.56776989 -0.294908639 -1.67657897 -1.7388159 -0.805453509 -1.39896408 -2.56776989 -0.294908639 -1.67657897 -2.50606239 -0.358090326 0.40339347</float_array>
        <technique_common><accessor source="#vfx_kurp_0321-mesh-positions-array" count="333" stride="3"><param name="X" type="float"/><param name="Y" type="float"/><param name="Z" type="float"/></accessor></technique_common>
      </source>
      <source id="vfx_kurp_0321-mesh-normals">
        <float_array id="vfx_kurp_0321-mesh-normals-array" count="999">-0.0804162177 0.696638825 0.71290082 -0.080416207 0.696638856 0.712900791 -0.080416207 0.696638856 0.712900791 -0.050707717 0.668717391 0.741785534 -0.050707717 0.668717391 0.741785534 -0.050707717 0.668717391 0.741785534 0.493634108 0.658768897 0.567757789 0.493634108 0.658768897 0.567757789 0.493634108 0.658768897 0.567757789 0.547810797 0.620293443 0.561372761 0.547810797 0.620293443 0.561372761 0.547810797 0.620293443 0.561372761 0.794233511 0.607612379 0.000571967634 0.794233511 0.607612379 0.000571967634 0.794233511 0.607612379 0.000571967634 0.839508608 0.534904787 -0.0954052748 0.839508625 0.53490476 -0.09540527 0.839508608 0.534904787 -0.0954052748 0.468624624 0.540223363 -0.698963289 0.468624624 0.540223363 -0.698963289 0.468624624 0.540223363 -0.698963289 0.382456992 0.453258072 -0.80516071 0.382457018 0.453258067 -0.805160701 0.382457018 0.453258067 -0.805160701 0.276021956 0.468525021 -0.839223561 0.276021953 0.468525044 -0.839223549 0.276021929 0.468525024 -0.839223568 -0.66524017 0.187701628 -0.72265041 -0.66524017 0.187701628 -0.72265041 -0.66524017 0.187701628 -0.72265041 0.405685308 0.831397121 0.379734459 0.405685308 0.831397121 0.379734459 0.405685308 0.831397121 0.379734459 0.727979361 0.568796157 0.382775366 0.727979361 0.568796157 0.382775366 0.727979361 0.568796157 0.382775366 -0.276711672 0.733053802 0.621339499 -0.276711672 0.733053802 0.621339499 -0.276711672 0.733053802 0.621339499 -0.355052473 0.876401429 0.32535869 -0.355052495 0.876401411 0.325358714 -0.426461784 0.703078625 0.569043753 -0.559914405 0.82808762 -0.0276902986 -0.559914405 0.82808762 -0.0276902986 -0.559914405 0.82808762 -0.0276903005 -0.527828085 0.847380797 -0.0578212464 -0.527828085 0.847380797 -0.0578212464 -0.798471988 0.457949609 0.3908 -0.359624274 0.835443632 -0.415577092 -0.359624269 0.835443622 -0.415577117 -0.359624269 0.835443622 -0.415577117 -0.335516097 0.847026292 -0.41228074 -0.335516093 0.847026282 -0.412280765 -0.855665733 0.354278053 -0.377257491 0.0298913236 0.840006838 -0.541751808 0.0298913199 0.840006838 -0.541751808 0.0298913236 0.840006838 -0.541751808 0.0397260227 0.849096418 -0.526741982 0.0397260264 0.849096418 -0.526741982 -0.366075776 0.192178931 -0.910525005 0.381679231 0.849199222 -0.364940608 0.381679205 0.849199231 -0.364940612 0.381679205 0.849199231 -0.364940612 0.376687847 0.862283153 -0.338487857 0.376687847 0.862283153 -0.338487857 0.376687847 0.862283153 -0.338487857 0.544826569 0.838497105 0.00930674656 0.544826569 0.838497105 0.00930674656 0.544826569 0.838497105 0.00930674563 0.517272707 0.855347627 0.0284496823 0.517272707 0.855347627 0.0284496823 0.517272707 0.855347627 0.0284496804 0.384459677 0.83652342 0.390409175 0.384459677 0.83652342 0.390409175 0.384459652 0.83652343 0.390409179 0.358237896 0.849275597 0.387809966 0.358237896 0.849275597 0.387809966 0.358237918 0.849275578 0.387809987 0.0214369731 0.809023759 0.587384895 0.0214369731 0.809023759 0.587384895 0.0214369742 0.80902373 0.587384934 0.00732440004 0.820289509 0.571901631 0.00732439921 0.820289528 0.571901603 0.00732439921 0.820289528 0.571901603 -0.514085997 0.716481253 0.471561451 -0.514085997 0.716481253 0.471561451 -0.514085953 0.716481275 0.471561466 -0.511879616 0.747406591 0.423512274 -0.511879622 0.747406601 0.42351225 -0.511879616 0.747406591 0.423512274 -0.986109876 -0.165864099 0.00874144418 -0.666626144 0.745063531 0.0221341286 -0.666626144 0.745063531 0.0221341304 -0.624204153 0.781046384 -0.0183227135 -0.624204153 0.781046384 -0.0183227135 -0.624204153 0.781046384 -0.0183227135 -0.757044658 -0.0729772583 -0.649274754 -0.489030042 0.79659219 -0.355373747 -0.489030065 0.796592179 -0.355373741 -0.450835201 0.819137101 -0.354629429 -0.450835177 0.819137112 -0.354629434 -0.450835224 0.81913709 -0.354629424 -0.140314101 -0.12063077 -0.982730976 -0.152973797 0.826699892 -0.541448341 -0.152973797 0.826699892 -0.541448341 -0.127879676 0.846302966 -0.517124819 -0.12787968 0.846302992 -0.517124776 -0.127879683 0.846302949 -0.517124845 0.185542255 0.868877648 -0.45893976 0.18554227 0.868877646 -0.458939759 0.185542255 0.868877648 -0.45893976 0.186270001 0.878107262 -0.440716601 0.186270028 0.878107246 -0.440716622 0.18627003 0.878107258 -0.440716598 0.396222246 0.893459228 -0.211514867 0.396222296 0.893459207 -0.211514862 0.396222271 0.893459218 -0.211514864 0.377267364 0.906962523 -0.187318759 0.377267339 0.906962533 -0.187318761 0.377267339 0.906962533 -0.187318761 0.399490441 0.915599394 0.0456632966 0.399490441 0.915599394 0.0456632966 0.399490466 0.915599383 0.0456632961 0.436910778 0.898706733 0.0378837622 0.436910754 0.898706745 0.0378837627 0.436910778 0.898706734 0.0378837585 0.213708717 0.926503195 0.309710209 0.213708731 0.926503192 0.309710208 0.213708731 0.926503192 0.309710208 -0.0484373669 0.984169875 0.170480143 -0.0484373631 0.984169875 0.170480143 -0.0484373669 0.984169875 0.170480143 0.100264198 0.985161654 0.139296829 0.100264206 0.985161655 0.139296814 0.100264198 0.985161656 0.139296814 0.0224672929 0.998240355 -0.0548763575 0.0224672911 0.998240355 -0.0548763538 0.0224672929 0.998240355 -0.0548763538 -0.363223826 0.80144478 0.475136525 -0.363223821 0.801444768 0.475136548 -0.363223852 0.801444771 0.47513652 -0.363778741 0.806633057 0.465841324 -0.587288199 0.789846895 0.176732718 -0.587288238 0.789846867 0.176732712 -0.587288199 0.789846895 0.176732718 -0.577155051 0.800390836 0.162069603 -0.57715505 0.800390834 0.162069618 -0.628391569 -0.456068579 0.630178933 -0.580440887 0.778918277 -0.237433556 -0.580440887 0.778918277 -0.237433556 -0.580440887 0.778918277 -0.237433556 -0.55369646 0.795886169 -0.244919244 -0.55369646 0.795886169 -0.244919244 -0.810669049 -0.581504632 0.0683231788 -0.289689542 0.792149904 -0.537195029 -0.289689515 0.792149911 -0.537195033 -0.289689515 0.792149911 -0.537195033 -0.428295837 0.684800603 -0.589585286 -0.428295852 0.684800627 -0.589585247 -0.757173532 -0.476161923 -0.447166708 0.18192749 0.659343313 -0.729498995 0.18192749 0.659343313 -0.729498995 0.181927498 0.659343345 -0.729498964 0.112789549 0.564954938 -0.817376557 0.112789549 0.564954938 -0.817376557 0.127185355 -0.672639166 -0.728958461 0.505348269 0.567683224 -0.649891441 0.505348269 0.567683224 -0.649891441 0.505348269 0.567683224 -0.649891441 0.49881772 0.61981822 -0.605810413 0.498817742 0.619818211 -0.605810404 0.49881772 0.61981822 -0.605810413 -0.0244900142 0.996920962 -0.0744904965 -0.0244900123 0.996920962 -0.0744905039 -0.62314928 0.366187933 0.69107986 -0.0617914381 0.997169248 0.0428405065 -0.0617914418 0.997169248 0.0428405065 -0.0617914418 0.997169248 0.0428405065 0.0659460185 -0.971899843 0.225968623 -0.380220523 -0.853196778 0.357054075 -0.378786962 -0.85698154 0.349432508 -0.381679231 -0.849199222 0.364940608 -0.0397260264 -0.849096418 0.526741982 -0.0397260264 -0.849096418 0.526741982 -0.0397260227 -0.849096418 0.526741982 -0.0298913236 -0.840006838 0.541751808 -0.0298913199 -0.840006838 0.541751808 -0.0298913236 -0.840006838 0.541751808 0.491295765 -0.859640497 0.140166643 0.335516093 -0.847026282 0.412280765 0.335516097 -0.847026292 0.41228074 0.359624269 -0.835443622 0.415577117 0.359624269 -0.835443622 0.415577117 0.359624274 -0.835443632 0.415577092 0.399516497 -0.88360513 -0.244189563 0.527828085 -0.847380797 0.0578212464 0.559914405 -0.82808762 0.0276903005 0.559914405 -0.82808762 0.0276902986 0.559914405 -0.82808762 0.0276902986 0.685675547 -0.650926457 0.325797164 0.355052495 -0.876401411 -0.325358714 0.276711672 -0.733053802 -0.621339499 0.276711672 -0.733053802 -0.621339499 0.276711672 -0.733053802 -0.621339499 0.450835224 -0.81913709 0.354629424 0.450835177 -0.819137112 0.354629434 0.450835201 -0.819137101 0.354629429 0.489030065 -0.796592179 0.355373741 0.489030042 -0.79659219 0.355373747 0.48903007 -0.796592187 0.355373715 0.624204153 -0.781046384 0.0183227135 0.624204153 -0.781046384 0.0183227135 0.624204153 -0.781046384 0.0183227135 0.666626144 -0.745063531 -0.0221341304 0.666626144 -0.745063531 -0.0221341286 0.511879616 -0.747406591 -0.423512274 0.511879622 -0.747406601 -0.42351225 0.511879616 -0.747406591 -0.423512274 0.514085953 -0.716481275 -0.471561466 0.514085997 -0.716481253 -0.471561451 0.514085997 -0.716481253 -0.471561451 0.080416207 -0.696638856 -0.712900791 0.080416207 -0.696638856 -0.712900791 0.0804162177 -0.696638825 -0.71290082 0.050707717 -0.668717391 -0.741785534 0.050707717 -0.668717391 -0.741785534 0.050707717 -0.668717391 -0.741785534 -0.493634108 -0.658768897 -0.567757789 -0.493634108 -0.658768897 -0.567757789 -0.547810797 -0.620293443 -0.561372761 -0.547810797 -0.620293443 -0.561372761 -0.547810797 -0.620293443 -0.561372761 -0.794233511 -0.607612379 -0.000571967634 -0.794233511 -0.607612379 -0.000571967634 -0.839508608 -0.534904787 0.0954052748 -0.839508625 -0.53490476 0.09540527 -0.839508608 -0.534904787 0.0954052748 -0.468624624 -0.540223363 0.698963289 -0.468624624 -0.540223363 0.698963289 -0.382457018 -0.453258067 0.805160701 -0.382457018 -0.453258067 0.805160701 -0.382456992 -0.453258072 0.80516071 -0.276021929 -0.468525024 0.839223568 -0.276021956 -0.468525021 0.839223561 0.66524017 -0.187701628 0.72265041 0.66524017 -0.187701628 0.72265041 -0.727979361 -0.568796157 -0.382775366 -0.727979361 -0.568796157 -0.382775366 -0.727979361 -0.568796157 -0.382775366 -0.405685308 -0.831397121 -0.379734459 -0.405685308 -0.831397121 -0.379734459 -0.405685308 -0.831397121 -0.379734459 0.152973812 -0.82669989 0.54144834 0.28351686 -0.950878759 0.124289083 0.152973797 -0.826699892 0.541448341 0.127879683 -0.846302949 0.517124845 0.12787968 -0.846302992 0.517124776 0.127879676 -0.846302966 0.517124819 -0.334175107 -0.896058373 0.292243717 -0.18554227 -0.868877646 0.458939759 -0.185542255 -0.868877648 0.45893976 -0.18627003 -0.878107258 0.440716598 -0.186270001 -0.878107262 0.440716601 -0.4013418 -0.915317366 0.0334496613 -0.396222296 -0.893459207 0.211514862 -0.377267339 -0.906962533 0.187318761 -0.377267364 -0.906962523 0.187318759 -0.266436064 -0.933194616 -0.241163084 -0.399490441 -0.915599394 -0.0456632966 -0.436910778 -0.898706734 -0.0378837585 -0.436910778 -0.898706733 -0.0378837622 -0.130488786 -0.974103297 -0.184649517 -0.213708731 -0.926503192 -0.309710208 0.0484373669 -0.984169875 -0.170480143 0.0484373669 -0.984169875 -0.170480143 -0.00908862969 -0.99981169 0.0171458699 -0.100264206 -0.985161655 -0.139296814 -0.0224672929 -0.998240355 0.0548763538 -0.0224672911 -0.998240355 0.0548763538 -0.0224672929 -0.998240355 0.0548763575 0.0244900123 -0.996920962 0.0744905039 0.0244900142 -0.996920962 0.0744904965 0.0617914418 -0.997169248 -0.0428405065 0.0617914381 -0.997169248 -0.0428405065 0.0617914418 -0.997169248 -0.0428405065 -0.49881772 -0.61981822 0.605810413 -0.498817742 -0.619818211 0.605810404 -0.49881772 -0.61981822 0.605810413 -0.505348269 -0.567683224 0.649891441 -0.505348269 -0.567683224 0.649891441 -0.112789557 -0.564954938 0.817376556 -0.112789549 -0.564954938 0.817376557 -0.112789549 -0.564954938 0.817376557 -0.181927498 -0.659343345 0.729498964 -0.18192749 -0.659343313 0.729498995 -0.18192749 -0.659343313 0.729498995 0.428295852 -0.684800627 0.589585247 0.428295852 -0.684800627 0.589585247 0.428295837 -0.684800603 0.589585286 0.289689515 -0.792149911 0.537195033 0.289689515 -0.792149911 0.537195033 0.289689542 -0.792149904 0.537195029 0.55369646 -0.795886169 0.244919244 0.55369646 -0.795886169 0.244919244 0.55369646 -0.795886169 0.244919244 0.580440887 -0.778918277 0.237433556 0.580440887 -0.778918277 0.237433556 0.580440887 -0.778918277 0.237433556 0.57715505 -0.800390834 -0.162069618 0.57715505 -0.800390834 -0.162069618 0.577155051 -0.800390836 -0.162069603 0.587288199 -0.789846895 -0.176732718 0.587288238 -0.789846867 -0.176732712 0.587288199 -0.789846895 -0.176732718 0.36377871 -0.806633054 -0.465841352 0.363778741 -0.806633057 -0.465841324 0.363223821 -0.801444768 -0.475136548 0.363223826 -0.80144478 -0.475136525 -0.00732439921 -0.820289528 -0.571901603 -0.00732439921 -0.820289528 -0.571901603 -0.00732440004 -0.820289509 -0.571901631 -0.0214369742 -0.80902373 -0.587384934 -0.0214369731 -0.809023759 -0.587384895 -0.358237918 -0.849275578 -0.387809987 -0.358237896 -0.849275597 -0.387809966 -0.358237896 -0.849275597 -0.387809966 -0.384459652 -0.83652343 -0.390409179 -0.384459677 -0.83652342 -0.390409175 -0.517272707 -0.855347627 -0.0284496804 -0.517272707 -0.855347627 -0.0284496823 -0.517272707 -0.855347627 -0.0284496823 -0.544826569 -0.838497105 -0.00930674563 -0.544826569 -0.838497105 -0.00930674656</float_array>
        <technique_common><accessor source="#vfx_kurp_0321-mesh-normals-array" count="333" stride="3"><param name="X" type="float"/><param name="Y" type="float"/><param name="Z" type="float"/></accessor></technique_common>
      </source>
      <source id="vfx_kurp_0321-mesh-uv0">
        <float_array id="vfx_kurp_0321-mesh-uv0-array" count="666">1 0.333333313 0.5 0.333333313 1 0.266666651 0.5 0.266666651 1 0.266666651 0.5 0.333333313 1 0.266666651 0.5 0.266666651 1 0.199999928 0.5 0.199999928 1 0.199999928 0.5 0.266666651 1 0.199999928 0.5 0.199999928 1 0.133333266 0.5 0.133333266 1 0.133333266 0.5 0.199999928 1 0.133333266 0.5 0.133333266 1 0.0666666031 0.5 0.0666666031 1 0.0666666031 0.5 0.133333266 1 0.0666666031 0.5 0.0666666031 1 0 0.5 0 1 0 0.5 0.0666666031 0 0 0.5 0 0 0.0666666031 0.5 0.0666666031 0 0.0666666031 0.5 0 0 0.0666666031 0.5 0.0666666031 0 0.133333266 0.5 0.133333266 0 0.133333266 0.5 0.0666666031 0 0.133333266 0.5 0.133333266 0 0.199999928 0.5 0.199999928 0 0.199999928 0.5 0.133333266 0 0.199999928 0.5 0.199999928 0 0.266666651 0.5 0.266666651 0 0.266666651 0.5 0.199999928 0 0.266666651 0.5 0.266666651 0 0.333333313 0.5 0.333333313 0 0.333333313 0.5 0.266666651 0 0.333333313 0.5 0.333333313 0 0.399999976 0.5 0.399999976 0 0.399999976 0.5 0.333333313 0 0.399999976 0.5 0.399999976 0 0.466666639 0.5 0.466666639 0 0.466666639 0.5 0.399999976 0 0.466666639 0.5 0.466666639 0 0.533333302 0.5 0.533333302 0 0.533333302 0.5 0.466666639 0 0.533333302 0.5 0.533333302 0 0.599999964 0.5 0.599999964 0 0.599999964 0.5 0.533333302 0.5 0.333333313 1 0.333333313 0.5 0.399999976 1 0.399999976 0.5 0.399999976 1 0.333333313 0.5 0.399999976 1 0.399999976 0.5 0.466666639 1 0.466666639 0.5 0.466666639 1 0.399999976 0.5 0.466666639 1 0.466666639 0.5 0.533333302 1 0.533333302 0.5 0.533333302 1 0.466666639 0.5 0.533333302 1 0.533333302 0.5 0.599999964 1 0.599999964 0.5 0.599999964 1 0.533333302 0.5 0.599999964 1 0.599999964 0.5 0.666666627 1 0.666666627 0.5 0.666666627 1 0.599999964 0.5 0.666666627 1 0.666666627 0.5 0.733333349 1 0.733333349 0.5 0.733333349 1 0.666666627 0.5 0.733333349 1 0.733333349 0.5 0.799999952 1 0.799999952 0.5 0.799999952 1 0.733333349 0.5 0.799999952 1 0.799999952 0.5 0.866666675 1 0.866666675 0.5 0.866666675 1 0.799999952 0.5 0.866666675 1 0.866666675 0.5 0.933333337 1 0.933333337 0.5 0.933333337 1 0.866666675 0 0.599999964 0.5 0.599999964 0 0.666666627 0.5 0.666666627 0 0.666666627 0.5 0.666666627 0 0.733333349 0.5 0.733333349 0 0.733333349 0.5 0.666666627 0 0.733333349 0.5 0.733333349 0 0.799999952 0.5 0.799999952 0 0.799999952 0.5 0.733333349 0 0.799999952 0.5 0.799999952 0 0.866666675 0.5 0.866666675 0 0.866666675 0.5 0.799999952 0 0.866666675 0.5 0.866666675 0 0.933333337 0.5 0.933333337 0 0.933333337 0.5 0.866666675 0 0.933333337 0.5 0.933333337 0 1 0 1 0.5 0.933333337 0.5 1 1 0.933333337 0.5 1 0.5 0.933333337 0.5 1 1 0.933333337 1 1 0.5 0.399999976 0.5 0.333333313 0 0.399999976 0 0.333333313 0.5 0.266666651 0 0.333333313 0.5 0.333333313 0 0.333333313 0.5 0.266666651 0 0.266666651 0.5 0.199999928 0 0.266666651 0.5 0.266666651 0 0.266666651 0.5 0.199999928 0 0.199999928 0.5 0.133333266 0 0.199999928 0 0.199999928 0.5 0.133333266 0 0.133333266 0.5 0.0666666031 0 0.133333266 0 0.133333266 0.5 0.0666666031 0 0.0666666031 1 0.466666639 0.5 0.533333302 1 0.533333302 0.5 0.533333302 1 0.466666639 0.5 0.466666639 1 0.399999976 0.5 0.466666639 1 0.466666639 0.5 0.466666639 1 0.399999976 1 0.333333313 0.5 0.399999976 1 0.399999976 0.5 0.399999976 1 0.333333313 0.5 0.333333313 1 0.266666651 0.5 0.333333313 1 0.333333313 0.5 0.333333313 1 0.266666651 0.5 0.266666651 1 0.199999928 1 0.266666651 0.5 0.266666651 1 0.199999928 0.5 0.199999928 1 0.133333266 1 0.199999928 0.5 0.199999928 1 0.133333266 0.5 0.133333266 1 0.0666666031 1 0.133333266 0.5 0.133333266 1 0.0666666031 0.5 0.0666666031 1 0 1 0.0666666031 0.5 0 1 0 0.5 0.0666666031 0.5 0 0 0.0666666031 0 0 0 0.0666666031 0.5 0 0.5 0.533333302 0.5 0.599999964 1 0.533333302 1 0.533333302 0.5 0.599999964 1 0.599999964 0.5 0.666666627 1 0.599999964 0.5 0.599999964 1 0.599999964 1 0.666666627 0.5 0.733333349 1 0.666666627 1 0.666666627 1 0.733333349 0.5 0.799999952 1 0.733333349 1 0.733333349 1 0.799999952 0.5 0.866666675 1 0.799999952 1 0.799999952 1 0.866666675 0.5 0.933333337 1 0.866666675 1 0.866666675 0.5 0.933333337 1 0.933333337 0.5 1 1 0.933333337 1 0.933333337 0.5 1 1 1 0.5 1 0.5 0.933333337 0 1 0 1 0 0.933333337 0.5 0.866666675 0 0.933333337 0.5 0.933333337 0 0.933333337 0.5 0.866666675 0 0.866666675 0.5 0.799999952 0 0.866666675 0.5 0.866666675 0 0.866666675 0.5 0.799999952 0 0.799999952 0.5 0.733333349 0 0.799999952 0.5 0.799999952 0 0.799999952 0.5 0.733333349 0 0.733333349 0.5 0.666666627 0 0.733333349 0.5 0.733333349 0 0.733333349 0.5 0.666666627 0 0.666666627 0 0.666666627 0.5 0.666666627 0.5 0.599999964 0 0.599999964 0.5 0.533333302 0 0.599999964 0.5 0.599999964 0 0.599999964 0 0.533333302 0.5 0.466666639 0 0.533333302 0.5 0.533333302 0 0.533333302 0 0.466666639 0.5 0.399999976 0 0.466666639 0.5 0.466666639 0 0.466666639 0 0.399999976</float_array>
        <technique_common><accessor source="#vfx_kurp_0321-mesh-uv0-array" count="333" stride="2"><param name="S" type="float"/><param name="T" type="float"/></accessor></technique_common>
      </source>
      <source id="vfx_kurp_0321-mesh-colors">
        <float_array id="vfx_kurp_0321-mesh-colors-array" count="1332">0.13333334 0.13333334 0.13333334 0 0.13333334 0.13333334 0.13333334 1 0.13333334 0.13333334 0.13333334 0 0.13333334 0.13333334 0.13333334 1 0.13333334 0.13333334 0.13333334 0 0.13333334 0.13333334 0.13333334 1 0.13333334 0.13333334 0.13333334 0 0.13333334 0.13333334 0.13333334 1 0.13333334 0.13333334 0.13333334 0 0.13333334 0.13333334 0.13333334 1 0.13333334 0.13333334 0.13333334 0 0.13333334 0.13333334 0.13333334 1 0.13333334 0.13333334 0.13333334 0 0.13333334 0.13333334 0.13333334 1 0.13333334 0.13333334 0.13333334 0 0.13333334 0.13333334 0.13333334 1 0.13333334 0.13333334 0.13333334 0 0.13333334 0.13333334 0.13333334 1 0.13333334 0.13333334 0.13333334 0 0.13333334 0.13333334 0.13333334 1 0.13333334 0.13333334 0.13333334 0 0.13333334 0.13333334 0.13333334 1 0.13333334 0.13333334 0.13333334 0 0.13333334 0.13333334 0.13333334 1 0.13333334 0.13333334 0.13333334 0 0.13333334 0.13333334 0.13333334 1 0.13333334 0.13333334 0.13333334 0 0.13333334 0.13333334 0.13333334 0 0.13333334 0.13333334 0.13333334 0 0.13333334 0.13333334 0.13333334 1 0.13333334 0.13333334 0.13333334 0 0.13333334 0.13333334 0.13333334 0 0.13333334 0.13333334 0.13333334 0 0.13333334 0.13333334 0.13333334 1 0.13333334 0.13333334 0.13333334 0 0.13333334 0.13333334 0.13333334 0 0.13333334 0.13333334 0.13333334 0 0.13333334 0.13333334 0.13333334 1 0.13333334 0.13333334 0.13333334 0 0.13333334 0.13333334 0.13333334 1 0.13333334 0.13333334 0.13333334 0 0.13333334 0.13333334 0.13333334 1 0.13333334 0.13333334 0.13333334 0 0.13333334 0.13333334 0.13333334 1 0.13333334 0.13333334 0.13333334 0 0.13333334 0.13333334 0.13333334 1 0.13333334 0.13333334 0.13333334 0 0.13333334 0.13333334 0.13333334 1 0.13333334 0.13333334 0.13333334 0 0.13333334 0.13333334 0.13333334 1 0.13333334 0.13333334 0.13333334 0 0.13333334 0.13333334 0.13333334 1 0.13333334 0.13333334 0.13333334 0 0.13333334 0.13333334 0.13333334 1 0.13333334 0.13333334 0.13333334 0 0.13333334 0.13333334 0.13333334 1 0.13333334 0.13333334 0.13333334 0 0.13333334 0.13333334 0.13333334 1 0.13333334 0.13333334 0.13333334 0 0.13333334 0.13333334 0.13333334 1 0.13333334 0.13333334 0.13333334 0 0.13333334 0.13333334 0.13333334 1 0.13333334 0.13333334 0.13333334 0 0.13333334 0.13333334 0.13333334 1 0.13333334 0.13333334 0.13333334 0 0.13333334 0.13333334 0.13333334 1 0.13333334 0.13333334 0.13333334 0 0.13333334 0.13333334 0.13333334 1 0.13333334 0.13333334 0.13333334 0 0.13333334 0.13333334 0.13333334 1 0.13333334 0.13333334 0.13333334 0 0.13333334 0.13333334 0.13333334 1 0.13333334 0.13333334 0.13333334 0 0.13333334 0.13333334 0.13333334 1 0.13333334 0.13333334 0.13333334 0 0.13333334 0.13333334 0.13333334 1 0.13333334 0.13333334 0.13333334 0 0.13333334 0.13333334 0.13333334 1 0.13333334 0.13333334 0.13333334 0 0.13333334 0.13333334 0.13333334 1 0.13333334 0.13333334 0.13333334 0 0.13333334 0.13333334 0.13333334 1 0.13333334 0.13333334 0.13333334 0 0.13333334 0.13333334 0.13333334 1 0.13333334 0.13333334 0.13333334 1 0.13333334 0.13333334 0.13333334 0 0.13333334 0.13333334 0.13333334 1 0.13333334 0.13333334 0.13333334 0 0.13333334 0.13333334 0.13333334 1 0.13333334 0.13333334 0.13333334 0 0.13333334 0.13333334 0.13333334 1 0.13333334 0.13333334 0.13333334 0 0.13333334 0.13333334 0.13333334 1 0.13333334 0.13333334 0.13333334 0 0.13333334 0.13333334 0.13333334 1 0.13333334 0.13333334 0.13333334 0 0.13333334 0.13333334 0.13333334 1 0.13333334 0.13333334 0.13333334 0 0.13333334 0.13333334 0.13333334 1 0.13333334 0.13333334 0.13333334 0 0.13333334 0.13333334 0.13333334 1 0.13333334 0.13333334 0.13333334 0 0.13333334 0.13333334 0.13333334 1 0.13333334 0.13333334 0.13333334 0 0.13333334 0.13333334 0.13333334 1 0.13333334 0.13333334 0.13333334 0 0.13333334 0.13333334 0.13333334 1 0.13333334 0.13333334 0.13333334 0 0.13333334 0.13333334 0.13333334 1 0.13333334 0.13333334 0.13333334 0 0.13333334 0.13333334 0.13333334 1 0.13333334 0.13333334 0.13333334 0 0.13333334 0.13333334 0.13333334 1 0.13333334 0.13333334 0.13333334 0 0.13333334 0.13333334 0.13333334 1 0.13333334 0.13333334 0.13333334 0 0.13333334 0.13333334 0.13333334 1 0.13333334 0.13333334 0.13333334 0 0.13333334 0.13333334 0.13333334 1 0.13333334 0.13333334 0.13333334 0 0.13333334 0.13333334 0.13333334 1 0.13333334 0.13333334 0.13333334 0 0.13333334 0.13333334 0.13333334 1 0.13333334 0.13333334 0.13333334 0 0.13333334 0.13333334 0.13333334 1 0.13333334 0.13333334 0.13333334 0 0.13333334 0.13333334 0.13333334 1 0.13333334 0.13333334 0.13333334 0 0.13333334 0.13333334 0.13333334 1 0.13333334 0.13333334 0.13333334 0 0.13333334 0.13333334 0.13333334 1 0.13333334 0.13333334 0.13333334 0 0.13333334 0.13333334 0.13333334 1 0.13333334 0.13333334 0.13333334 0 0.13333334 0.13333334 0.13333334 1 0.13333334 0.13333334 0.13333334 0 0.13333334 0.13333334 0.13333334 1 0.13333334 0.13333334 0.13333334 0 0.13333334 0.13333334 0.13333334 0 0.13333334 0.13333334 0.13333334 1 0.13333334 0.13333334 0.13333334 0 0.13333334 0.13333334 0.13333334 1 0.13333334 0.13333334 0.13333334 0 0.13333334 0.13333334 0.13333334 1 0.13333334 0.13333334 0.13333334 0 0.13333334 0.13333334 0.13333334 1 0.13333334 0.13333334 0.13333334 0 0.13333334 0.13333334 0.13333334 1 0.13333334 0.13333334 0.13333334 0 0.13333334 0.13333334 0.13333334 1 0.13333334 0.13333334 0.13333334 0 0.13333334 0.13333334 0.13333334 1 0.13333334 0.13333334 0.13333334 0 0.13333334 0.13333334 0.13333334 1 0.13333334 0.13333334 0.13333334 0 0.13333334 0.13333334 0.13333334 1 0.13333334 0.13333334 0.13333334 0 0.13333334 0.13333334 0.13333334 1 0.13333334 0.13333334 0.13333334 0 0.13333334 0.13333334 0.13333334 1 0.13333334 0.13333334 0.13333334 0 0.13333334 0.13333334 0.13333334 1 0.13333334 0.13333334 0.13333334 0 0.13333334 0.13333334 0.13333334 1 0.13333334 0.13333334 0.13333334 0 0.13333334 0.13333334 0.13333334 1 0.13333334 0.13333334 0.13333334 0 0.13333334 0.13333334 0.13333334 1 0.13333334 0.13333334 0.13333334 0 0.13333334 0.13333334 0.13333334 0 0.13333334 0.13333334 0.13333334 1 0.13333334 0.13333334 0.13333334 0 0.13333334 0.13333334 0.13333334 0 0.13333334 0.13333334 0.13333334 0 0.13333334 0.13333334 0.13333334 1 0.13333334 0.13333334 0.13333334 0 0.13333334 0.13333334 0.13333334 0 0.13333334 0.13333334 0.13333334 0 0.13333334 0.13333334 0.13333334 1 0.13333334 0.13333334 0.13333334 1 0.13333334 0.13333334 0.13333334 0 0.13333334 0.13333334 0.13333334 0 0.13333334 0.13333334 0.13333334 1 0.13333334 0.13333334 0.13333334 0 0.13333334 0.13333334 0.13333334 1 0.13333334 0.13333334 0.13333334 0 0.13333334 0.13333334 0.13333334 1 0.13333334 0.13333334 0.13333334 0 0.13333334 0.13333334 0.13333334 1 0.13333334 0.13333334 0.13333334 0 0.13333334 0.13333334 0.13333334 1 0.13333334 0.13333334 0.13333334 0 0.13333334 0.13333334 0.13333334 1 0.13333334 0.13333334 0.13333334 0 0.13333334 0.13333334 0.13333334 1 0.13333334 0.13333334 0.13333334 0 0.13333334 0.13333334 0.13333334 0 0.13333334 0.13333334 0.13333334 1 0.13333334 0.13333334 0.13333334 0 0.13333334 0.13333334 0.13333334 1 0.13333334 0.13333334 0.13333334 0 0.13333334 0.13333334 0.13333334 0 0.13333334 0.13333334 0.13333334 1 0.13333334 0.13333334 0.13333334 0 0.13333334 0.13333334 0.13333334 0 0.13333334 0.13333334 0.13333334 1 0.13333334 0.13333334 0.13333334 0 0.13333334 0.13333334 0.13333334 1 0.13333334 0.13333334 0.13333334 0 0.13333334 0.13333334 0.13333334 1 0.13333334 0.13333334 0.13333334 0 0.13333334 0.13333334 0.13333334 1 0.13333334 0.13333334 0.13333334 0 0.13333334 0.13333334 0.13333334 1 0.13333334 0.13333334 0.13333334 0 0.13333334 0.13333334 0.13333334 0 0.13333334 0.13333334 0.13333334 1 0.13333334 0.13333334 0.13333334 0 0.13333334 0.13333334 0.13333334 1 0.13333334 0.13333334 0.13333334 0 0.13333334 0.13333334 0.13333334 1 0.13333334 0.13333334 0.13333334 0 0.13333334 0.13333334 0.13333334 1 0.13333334 0.13333334 0.13333334 0 0.13333334 0.13333334 0.13333334 1 0.13333334 0.13333334 0.13333334 0 0.13333334 0.13333334 0.13333334 1 0.13333334 0.13333334 0.13333334 0 0.13333334 0.13333334 0.13333334 0 0.13333334 0.13333334 0.13333334 1 0.13333334 0.13333334 0.13333334 0 0.13333334 0.13333334 0.13333334 1 0.13333334 0.13333334 0.13333334 0 0.13333334 0.13333334 0.13333334 0 0.13333334 0.13333334 0.13333334 1 0.13333334 0.13333334 0.13333334 0 0.13333334 0.13333334 0.13333334 1 0.13333334 0.13333334 0.13333334 0 0.13333334 0.13333334 0.13333334 0 0.13333334 0.13333334 0.13333334 1 0.13333334 0.13333334 0.13333334 0 0.13333334 0.13333334 0.13333334 1 0.13333334 0.13333334 0.13333334 0 0.13333334 0.13333334 0.13333334 0 0.13333334 0.13333334 0.13333334 0 0.13333334 0.13333334 0.13333334 0 0.13333334 0.13333334 0.13333334 1 0.13333334 0.13333334 0.13333334 0 0.13333334 0.13333334 0.13333334 0 0.13333334 0.13333334 0.13333334 0 0.13333334 0.13333334 0.13333334 0 0.13333334 0.13333334 0.13333334 0 0.13333334 0.13333334 0.13333334 1 0.13333334 0.13333334 0.13333334 1 0.13333334 0.13333334 0.13333334 0 0.13333334 0.13333334 0.13333334 0 0.13333334 0.13333334 0.13333334 1 0.13333334 0.13333334 0.13333334 0 0.13333334 0.13333334 0.13333334 1 0.13333334 0.13333334 0.13333334 0 0.13333334 0.13333334 0.13333334 1 0.13333334 0.13333334 0.13333334 0 0.13333334 0.13333334 0.13333334 0 0.13333334 0.13333334 0.13333334 1 0.13333334 0.13333334 0.13333334 0 0.13333334 0.13333334 0.13333334 0 0.13333334 0.13333334 0.13333334 0 0.13333334 0.13333334 0.13333334 1 0.13333334 0.13333334 0.13333334 0 0.13333334 0.13333334 0.13333334 0 0.13333334 0.13333334 0.13333334 0 0.13333334 0.13333334 0.13333334 1 0.13333334 0.13333334 0.13333334 0 0.13333334 0.13333334 0.13333334 0 0.13333334 0.13333334 0.13333334 0 0.13333334 0.13333334 0.13333334 1 0.13333334 0.13333334 0.13333334 0 0.13333334 0.13333334 0.13333334 0 0.13333334 0.13333334 0.13333334 1 0.13333334 0.13333334 0.13333334 0 0.13333334 0.13333334 0.13333334 0 0.13333334 0.13333334 0.13333334 0 0.13333334 0.13333334 0.13333334 0 0.13333334 0.13333334 0.13333334 0 0.13333334 0.13333334 0.13333334 0 0.13333334 0.13333334 0.13333334 0 0.13333334 0.13333334 0.13333334 1 0.13333334 0.13333334 0.13333334 0 0.13333334 0.13333334 0.13333334 0 0.13333334 0.13333334 0.13333334 0 0.13333334 0.13333334 0.13333334 1 0.13333334 0.13333334 0.13333334 0 0.13333334 0.13333334 0.13333334 1 0.13333334 0.13333334 0.13333334 0 0.13333334 0.13333334 0.13333334 1 0.13333334 0.13333334 0.13333334 0 0.13333334 0.13333334 0.13333334 1 0.13333334 0.13333334 0.13333334 0 0.13333334 0.13333334 0.13333334 1 0.13333334 0.13333334 0.13333334 0 0.13333334 0.13333334 0.13333334 1 0.13333334 0.13333334 0.13333334 0 0.13333334 0.13333334 0.13333334 1 0.13333334 0.13333334 0.13333334 0 0.13333334 0.13333334 0.13333334 1 0.13333334 0.13333334 0.13333334 0 0.13333334 0.13333334 0.13333334 1 0.13333334 0.13333334 0.13333334 0 0.13333334 0.13333334 0.13333334 1 0.13333334 0.13333334 0.13333334 0 0.13333334 0.13333334 0.13333334 1 0.13333334 0.13333334 0.13333334 0 0.13333334 0.13333334 0.13333334 1 0.13333334 0.13333334 0.13333334 0 0.13333334 0.13333334 0.13333334 0 0.13333334 0.13333334 0.13333334 1 0.13333334 0.13333334 0.13333334 1 0.13333334 0.13333334 0.13333334 0 0.13333334 0.13333334 0.13333334 1 0.13333334 0.13333334 0.13333334 0 0.13333334 0.13333334 0.13333334 1 0.13333334 0.13333334 0.13333334 0 0.13333334 0.13333334 0.13333334 0 0.13333334 0.13333334 0.13333334 1 0.13333334 0.13333334 0.13333334 0 0.13333334 0.13333334 0.13333334 1 0.13333334 0.13333334 0.13333334 0 0.13333334 0.13333334 0.13333334 0 0.13333334 0.13333334 0.13333334 1 0.13333334 0.13333334 0.13333334 0 0.13333334 0.13333334 0.13333334 1 0.13333334 0.13333334 0.13333334 0 0.13333334 0.13333334 0.13333334 0</float_array>
        <technique_common><accessor source="#vfx_kurp_0321-mesh-colors-array" count="333" stride="4"><param name="R" type="float"/><param name="G" type="float"/><param name="B" type="float"/><param name="A" type="float"/></accessor></technique_common>
      </source>
      <vertices id="vfx_kurp_0321-mesh-vertices"><input semantic="POSITION" source="#vfx_kurp_0321-mesh-positions"/></vertices>
      <triangles material="PreviewMaterial" count="120">
        <input semantic="VERTEX" source="#vfx_kurp_0321-mesh-vertices" offset="0"/>
        <input semantic="NORMAL" source="#vfx_kurp_0321-mesh-normals" offset="1"/>
        <input semantic="TEXCOORD" source="#vfx_kurp_0321-mesh-uv0" offset="2" set="0"/>
        <input semantic="COLOR" source="#vfx_kurp_0321-mesh-colors" offset="3" set="0"/>
        <p>0 0 0 0 1 1 1 1 2 2 2 2 3 3 3 3 4 4 4 4 5 5 5 5 6 6 6 6 7 7 7 7 8 8 8 8 9 9 9 9 10 10 10 10 11 11 11 11 12 12 12 12 13 13 13 13 14 14 14 14 15 15 15 15 16 16 16 16 17 17 17 17 18 18 18 18 19 19 19 19 20 20 20 20 21 21 21 21 22 22 22 22 23 23 23 23 24 24 24 24 25 25 25 25 26 26 26 26 27 27 27 27 28 28 28 28 29 29 29 29 30 30 30 30 31 31 31 31 32 32 32 32 33 33 33 33 34 34 34 34 35 35 35 35 36 36 36 36 37 37 37 37 38 38 38 38 39 39 39 39 40 40 40 40 41 41 41 41 42 42 42 42 43 43 43 43 44 44 44 44 45 45 45 45 46 46 46 46 47 47 47 47 48 48 48 48 49 49 49 49 50 50 50 50 51 51 51 51 52 52 52 52 53 53 53 53 54 54 54 54 55 55 55 55 56 56 56 56 57 57 57 57 58 58 58 58 59 59 59 59 60 60 60 60 61 61 61 61 62 62 62 62 63 63 63 63 64 64 64 64 65 65 65 65 66 66 66 66 67 67 67 67 68 68 68 68 69 69 69 69 70 70 70 70 71 71 71 71 72 72 72 72 73 73 73 73 74 74 74 74 75 75 75 75 76 76 76 76 77 77 77 77 78 78 78 78 79 79 79 79 80 80 80 80 81 81 81 81 82 82 82 82 83 83 83 83 84 84 84 84 85 85 85 85 86 86 86 86 87 87 87 87 88 88 88 88 89 89 89 89 90 90 90 90 91 91 91 91 92 92 92 92 93 93 93 93 94 94 94 94 95 95 95 95 96 96 96 96 97 97 97 97 98 98 98 98 99 99 99 99 100 100 100 100 101 101 101 101 102 102 102 102 103 103 103 103 104 104 104 104 105 105 105 105 106 106 106 106 107 107 107 107 108 108 108 108 109 109 109 109 110 110 110 110 111 111 111 111 112 112 112 112 113 113 113 113 114 114 114 114 115 115 115 115 116 116 116 116 117 117 117 117 118 118 118 118 119 119 119 119 120 120 120 120 121 121 121 121 122 122 122 122 123 123 123 123 124 124 124 124 125 125 125 125 126 126 126 126 127 127 127 127 128 128 128 128 129 129 129 129 130 130 130 130 131 131 131 131 132 132 132 132 133 133 133 133 134 134 134 134 135 135 135 135 136 136 136 136 137 137 137 137 138 138 138 138 139 139 139 139 140 140 140 140 141 141 141 141 140 140 140 140 139 139 139 139 142 142 142 142 143 143 143 143 144 144 144 144 145 145 145 145 146 146 146 146 147 147 147 147 148 148 148 148 149 149 149 149 150 150 150 150 151 151 151 151 152 152 152 152 153 153 153 153 154 154 154 154 155 155 155 155 156 156 156 156 157 157 157 157 158 158 158 158 159 159 159 159 160 160 160 160 161 161 161 161 162 162 162 162 163 163 163 163 164 164 164 164 165 165 165 165 166 166 166 166 167 167 167 167 168 168 168 168 169 169 169 169 170 170 170 170 171 171 171 171 172 172 172 172 173 173 173 173 174 174 174 174 175 175 175 175 176 176 176 176 177 177 177 177 178 178 178 178 179 179 179 179 180 180 180 180 180 180 180 180 179 179 179 179 181 181 181 181 182 182 182 182 183 183 183 183 184 184 184 184 185 185 185 185 186 186 186 186 187 187 187 187 188 188 188 188 189 189 189 189 190 190 190 190 191 191 191 191 192 192 192 192 193 193 193 193 194 194 194 194 195 195 195 195 188 188 188 188 196 196 196 196 197 197 197 197 198 198 198 198 199 199 199 199 200 200 200 200 194 194 194 194 201 201 201 201 202 202 202 202 203 203 203 203 204 204 204 204 205 205 205 205 206 206 206 206 207 207 207 207 208 208 208 208 209 209 209 209 210 210 210 210 211 211 211 211 212 212 212 212 213 213 213 213 214 214 214 214 178 178 178 178 215 215 215 215 216 216 216 216 217 217 217 217 218 218 218 218 219 219 219 219 220 220 220 220 221 221 221 221 222 222 222 222 223 223 223 223 224 224 224 224 225 225 225 225 226 226 226 226 227 227 227 227 59 59 59 59 228 228 228 228 229 229 229 229 230 230 230 230 231 231 231 231 232 232 232 232 53 53 53 53 233 233 233 233 234 234 234 234 235 235 235 235 236 236 236 236 237 237 237 237 47 47 47 47 238 238 238 238 239 239 239 239 240 240 240 240 241 241 241 241 242 242 242 242 41 41 41 41 243 243 243 243 244 244 244 244 199 199 199 199 245 245 245 245 246 246 246 246 247 247 247 247 248 248 248 248 249 249 249 249 250 250 250 250 251 251 251 251 252 252 252 252 253 253 253 253 254 254 254 254 255 255 255 255 256 256 256 256 257 257 257 257 258 258 258 258 259 259 259 259 260 260 260 260 261 261 261 261 147 147 147 147 262 262 262 262 263 263 263 263 264 264 264 264 258 258 258 258 265 265 265 265 153 153 153 153 266 266 266 266 267 267 267 267 268 268 268 268 263 263 263 263 269 269 269 269 159 159 159 159 270 270 270 270 271 271 271 271 272 272 272 272 267 267 267 267 273 273 273 273 165 165 165 165 274 274 274 274 275 275 275 275 276 276 276 276 271 271 271 271 277 277 277 277 278 278 278 278 279 279 279 279 280 280 280 280 281 281 281 281 275 275 275 275 282 282 282 282 283 283 283 283 284 284 284 284 285 285 285 285 286 286 286 286 287 287 287 287 288 288 288 288 174 174 174 174 289 289 289 289 290 290 290 290 291 291 291 291 292 292 292 292 293 293 293 293 294 294 294 294 295 295 295 295 296 296 296 296 297 297 297 297 298 298 298 298 299 299 299 299 300 300 300 300 301 301 301 301 302 302 302 302 303 303 303 303 304 304 304 304 305 305 305 305 306 306 306 306 307 307 307 307 308 308 308 308 309 309 309 309 310 310 310 310 311 311 311 311 312 312 312 312 313 313 313 313 253 253 253 253 314 314 314 314 315 315 315 315 314 314 314 314 316 316 316 316 317 317 317 317 318 318 318 318 319 319 319 319 320 320 320 320 321 321 321 321 102 102 102 102 322 322 322 322 323 323 323 323 324 324 324 324 325 325 325 325 326 326 326 326 96 96 96 96 327 327 327 327 328 328 328 328 329 329 329 329 330 330 330 330 331 331 331 331 90 90 90 90 332 332 332 332</p>
      </triangles>
    </mesh></geometry>
  </library_geometries>
  <library_visual_scenes>
    <visual_scene id="Scene" name="Scene">
      <node id="vfx_kurp_0321" name="vfx_kurp_0321" type="NODE">
        <instance_geometry url="#vfx_kurp_0321-mesh"><bind_material><technique_common><instance_material symbol="PreviewMaterial" target="#PreviewMaterial"><bind_vertex_input semantic="UVSET0" input_semantic="TEXCOORD" input_set="0"/></instance_material></technique_common></bind_material></instance_geometry>
      </node>
    </visual_scene>
  </library_visual_scenes>
  <scene><instance_visual_scene url="#Scene"/></scene>
</COLLADA>
