<?xml version="1.0" encoding="utf-8"?>
<COLLADA xmlns="http://www.collada.org/2005/11/COLLADASchema" version="1.4.1">
  <asset>
    <contributor><authoring_tool>Morrobroom Kurpulio VFX preview converter</authoring_tool></contributor>
    <unit name="unit" meter="1"/>
    <up_axis>Z_UP</up_axis>
  </asset>
  <library_images>
    <image id="VFXTexture" name="darkmap_newgen-1.dds">
      <init_from>../../../Textures/Kurp/darkmap_newgen-1.dds</init_from>
    </image>
  </library_images>
  <library_effects>
    <effect id="PreviewEffect">
      <profile_COMMON>
        <newparam sid="VFXTexture-surface">
          <surface type="2D"><init_from>VFXTexture</init_from></surface>
        </newparam>
        <newparam sid="VFXTexture-sampler">
          <sampler2D><source>VFXTexture-surface</source></sampler2D>
        </newparam>
        <technique sid="common"><phong>
          <emission><color>0.08 0.08 0.08 1</color></emission>
          <ambient><color>0.2 0.2 0.2 1</color></ambient>
          <diffuse><texture texture="VFXTexture-sampler" texcoord="UVSET0"/></diffuse>
          <specular><color>0.15 0.15 0.15 1</color></specular>
          <shininess><float>8</float></shininess>
          <transparent opaque="A_ONE"><texture texture="VFXTexture-sampler" texcoord="UVSET0"/></transparent>
          <transparency><float>1</float></transparency>
        </phong></technique>
      </profile_COMMON>
      <extra><technique profile="GOOGLEEARTH"><double_sided>1</double_sided></technique></extra>
    </effect>
  </library_effects>
  <library_materials><material id="PreviewMaterial" name="PreviewMaterial"><instance_effect url="#PreviewEffect"/></material></library_materials>
  <library_geometries>
    <geometry id="vfx_kurp_0040-mesh" name="vfx_kurp_0040"><mesh>
      <source id="vfx_kurp_0040-mesh-positions">
        <float_array id="vfx_kurp_0040-mesh-positions-array" count="612">3.97831675 0.475714917 1.58499061 2.47945214 -0.540895823 0.925474096 4.23891123 0.420597818 0.625791966 2.58480624 -0.564459619 0.53277122 4.24152859 0.17071717 -0.335792579 2.57575882 -0.675383263 0.137894753 4.00807024 -0.263783549 -1.19404617 2.46366766 -0.868716939 -0.212245894 3.58507173 -0.851933515 -1.86075009 2.26969394 -1.13092184 -0.479807602 3.03615769 -1.5473772 -2.27383726 2.02109178 -1.44266966 -0.638682109 2.43325206 -2.29509262 -2.40186011 1.74747536 -1.78180131 -0.675216573 1.84783644 -3.03835492 -2.24421058 1.47761401 -2.12596458 -0.587245158 2.26118173 -0.598903068 1.26463031 3.46748125 0.349938795 2.4306474 2.0581737 -0.677378606 1.41813258 2.62178557 0.0313144969 3.11964689 1.68683313 -0.827751691 1.5302546 1.74301003 -0.32493303 3.39011288 1.41638352 -0.928434745 1.48902364 0.710884262 -0.712454475 3.26966367 1.14194144 -1.00899825 1.34401702 -0.193042292 -0.959405434 2.73341058 0.903764112 -1.02807863 1.07204272 -0.829929384 -0.966584444 1.9120313 0.764771329 -0.927345974 0.695867044 -1.12168085 -0.6892197 1.01153948 0.780294216 -0.656676162 0.304028321 -1.0809159 -0.157502545 0.261866328 0.96482925 -0.17864326 5.79603673e-05 -0.837602191 0.484574098 -0.162540547 -2.64231402 -2.39274837 -1.8816694 -2.71697998 -0.603107716 -1.16986414 -2.75227253 -2.65097216 -1.26196565 -2.83296594 -0.877403917 -0.511632498 -2.63906164 -2.91490639 -0.671280711 -2.70622377 -1.1774426 0.160443139 -2.33596282 -3.17243342 -0.176865642 -2.34386694 -1.49027261 0.764052991 -1.89375387 -3.41253487 0.173606699 -1.77965007 -1.80162434 1.2257485 -1.3716982 -3.62660184 0.354908656 -1.06873775 -2.0975619 1.48862233 -0.828832399 -3.80918317 0.363525204 -0.280503393 -2.36595543 1.51742475 -0.316800444 -3.95815052 0.213977138 0.509524873 -2.59759773 1.30077898 -2.38011967 -0.364541101 -1.73258038 -2.30119036 -2.15171778 -2.45009307 -1.88579736 -0.175863806 -2.10632467 -1.72383086 -1.93207654 -2.88384557 -1.29364527 -0.0248126699 -2.26878817 -1.00287917 -1.74831444 -3.0812242 -0.760629077 0.0802522749 -2.19744552 -0.173516787 -1.58442569 -2.97152655 -0.34175847 0.160494072 -1.95865277 0.593010616 -1.43523403 -2.50171165 -0.0855389508 0.230242673 -1.61690518 1.11551561 -1.27483103 -1.70220209 -0.0122141933 0.304260392 -1.25159709 1.23345492 -1.06358393 -0.710889226 -0.107007387 0.396029147 -0.946315598 0.876430125 -0.757766818 0.243919812 -0.410631521 0.567672379 -0.682812679 0.23214928 -0.388837871 0.862171402 -3.59393549 -1.41901869 -1.82006842 -1.76535852 -1.57683739 -1.23146499 -3.75542694 -1.79678116 -0.913302057 -1.82981145 -1.73159472 -0.860296195 -3.59454852 -2.19561677 -0.0176791841 -1.75073669 -1.89673202 -0.493158377 -3.13815843 -2.59780484 0.763246983 -1.54167119 -2.06490098 -0.176059654 -2.44461313 -2.98534242 1.34475502 -1.22879085 -2.22881671 0.0546002927 -1.59423478 -3.34207569 1.66908129 -0.846201172 -2.38208806 0.174449677 -0.678159106 -3.65536377 1.70932044 -0.431176636 -2.51977486 0.171629489 0.212789787 -3.91711982 1.46911786 -0.0200654324 -2.63862858 0.0456384234 -1.56032848 -1.43882464 -1.55542323 -3.12098153 -1.07743422 -2.62725036 -1.35172887 -1.36301958 -1.70264209 -2.25789931 -0.74492081 -3.28752813 -0.961698325 -1.26377572 -1.80801793 -1.33482605 -0.509351384 -3.54199444 -0.678987224 -1.20891276 -1.76280118 -0.255158699 -0.295260543 -3.40617094 -0.400959777 -1.15624612 -1.6119276 0.652211908 -0.118493826 -2.8484367 -0.183230104 -1.09823307 -1.32857138 1.21320677 0.053644634 -1.99053598 -0.110941158 -1.01642044 -0.929754077 1.33218195 0.257096853 -1.03273228 -0.26025788 -0.881796005 -0.49775698 1.02968058 0.520058417 -0.204638811 -0.666619112 -0.650758299 -0.128353822 0.488136867 0.829592877 0.307712543 3.70982435 -0.850660642 1.42322662 2.74794458 0.785479806 1.08723785 3.88760583 -0.888594052 0.767667604 2.93611124 0.744732438 0.390895237 3.88385329 -1.05799573 0.133100159 2.93343373 0.553329831 -0.330998325 3.72574113 -1.34315821 -0.411251166 2.74599633 0.210657792 -0.995041182 3.45401875 -1.71616164 -0.815062604 2.40074645 -0.266693686 -1.52549525 3.11591273 -2.14232539 -1.05023483 1.94133633 -0.847721341 -1.86228482 2.75828939 -2.58569718 -1.11057139 1.42243774 -1.49119659 -1.96650547 2.42205109 -3.01376237 -1.00841132 0.90339906 -2.15055697 -1.82304448 2.38559594 0.694262906 1.67666247 3.34306661 -0.943227129 2.01861474 1.90180154 0.511138551 2.06659449 2.77815747 -1.15720244 2.47118476 1.3380355 0.282693254 2.23932447 2.09180742 -1.43537764 2.68104286 0.828458857 0.0916510639 2.17553468 1.29880891 -1.73254038 2.58315243 0.413518357 -0.0268852679 1.94599848 0.535380767 -1.94151846 2.13142889 0.13172494 -0.0466055299 1.61811388 -0.0578902535 -1.94805748 1.36595983 -0.00105462624 0.0410396623 1.27316029 -0.355854868 -1.65760533 0.434246009 0.00273490353 0.223721214 0.995280509 -0.303356578 -1.03789996 -0.429386129 0.142221862 0.577799469 0.780211133 -0.0149947683 -0.271868634 -0.942693993 3.49712078 -0.944088189 2.31148503 1.60085919 -0.89159647 1.97017643 3.39487074 -1.83046078 1.87001265 1.55739799 -1.25402763 1.78955236 2.9817757 -2.63105958 1.451102 1.37514249 -1.57957366 1.61891811 2.30723134 -3.2763269 1.12168939 1.07745684 -1.83817942 1.48835358 1.44722007 -3.71743371 0.934211492 0.697942717 -2.00951464 1.42067978 0.493172666 -3.93010727 0.92184358 0.275289224 -2.08370923 1.43017063 -0.459813001 -3.91501468 1.09664028 -0.151495778 -2.06067031 1.52255441 -1.3237823 -3.6950779 1.45046029 -0.546835118 -1.9483401 1.69605146 1.49714733 -0.529697236 2.12608212 3.27445707 -0.0550995739 2.70139317 1.34250702 -0.322044136 2.18853332 2.64857539 0.849642092 2.98627488 1.01151248 -0.0704990944 2.20418562 1.86634407 1.44863227 3.0267173 0.744579495 0.023655389 2.13445928 0.854987777 1.8344948 2.78540172 0.461442448 0.0489942788 1.9860436 -0.0804730942 1.88000609 2.24830082 0.211828309 -0.0219672688 1.7336157 -0.743054428 1.63394521 1.48621125 0.0844966597 -0.190090276 1.3779537 -0.995063107 1.21928512 0.627442084 0.174425899 -0.40527922 0.962445396 -0.806029137 0.805593313 -0.172257813 0.543441285 -0.586555102 0.531245547 -0.317728544 0.552698381 -0.763182351 2.38387954 -1.33425907 2.99411842 2.71410063 -0.501425654 1.28754331 2.3135976 -1.93994416 2.69244143 2.63867133 -1.14454436 0.967123609 2.03415652 -2.46653103 2.41674982 2.32276185 -1.74410238 0.653270334 1.59291852 -2.873028 2.21009879 1.79176952 -2.24147836 0.399944272 1.04999439 -3.13655246 2.10139462 1.09516845 -2.59039572 0.253496732 0.468788016 -3.25243696 2.10408549 0.299673871 -2.76137954 0.247928695 -0.0923610837 -3.23177202 2.2172142 -0.51894772 -2.74391318 0.401980597 -0.586365445 -3.09714106 2.4283229 -1.28425199 -2.54627696 0.718188802 2.55213399 0.120723481 1.55908691 2.21947017 -0.705520299 3.26838829 2.19243086 0.634866956 1.72004787 1.79865166 -0.107269013 3.45476045 1.69046552 1.01858691 1.74544609 1.18739103 0.359546262 3.48545683 1.190215 1.20595265 1.62347015 0.409352187 0.652197402 3.29639091 0.761647312 1.2376158 1.39057413 -0.380677985 0.691384577 2.84377028 0.466646716 1.15001025 1.08626394 -0.997872828 0.461967716 2.13356287 0.343010554 0.997420782 0.761093902 -1.25357686 0.0317740602 1.24430187 0.395560404 0.846040772 0.469672034 -1.0271637 -0.445726732 0.320515595 0.673454725 0.717677767 0.15761348 -0.447741976 -0.751534533 -0.389550231</float_array>
        <technique_common><accessor source="#vfx_kurp_0040-mesh-positions-array" count="204" stride="3"><param name="X" type="float"/><param name="Y" type="float"/><param name="Z" type="float"/></accessor></technique_common>
      </source>
      <source id="vfx_kurp_0040-mesh-normals">
        <float_array id="vfx_kurp_0040-mesh-normals-array" count="612">0.496947427 -0.849069773 0.179231068 0.49692112 -0.84900677 0.179602074 0.492692496 -0.84647039 0.201846435 0.493184303 -0.845624302 0.204178313 0.493683328 -0.83280504 0.250424712 0.496711213 -0.828947173 0.257146952 0.512031602 -0.799006417 0.315297295 0.519977507 -0.79018998 0.324381237 0.554320103 -0.740031283 0.380897524 0.567347269 -0.726408312 0.387876321 0.620529372 -0.655962525 0.429716726 0.635932799 -0.640220803 0.430937117 0.704496875 -0.55185225 0.446254689 0.717855554 -0.538201914 0.44161307 0.749120617 -0.492850559 0.442624703 0.758963799 -0.483686091 0.435914805 0.489003669 -0.851889965 0.187507067 0.49046947 -0.851533959 0.185282529 0.452487668 -0.866329308 0.211490995 0.452642195 -0.866423072 0.210775005 0.363855471 -0.901818039 0.233095306 0.37251935 -0.898809326 0.231021925 0.247799925 -0.944644991 0.215037295 0.238250337 -0.947881858 0.211557935 0.101241661 -0.986995018 0.124863768 0.0674136488 -0.992099734 0.105799422 -0.0615310943 -0.995205685 -0.0760234779 -0.0932747855 -0.989443358 -0.110912829 -0.171574323 -0.903752924 -0.392164384 -0.183904405 -0.889389504 -0.418527754 -0.160188929 -0.668672348 -0.726096962 -0.159533926 -0.665288527 -0.72934224 -0.114686673 -0.505181608 -0.855358702 -0.113885601 -0.517436105 -0.848109631 0.944240486 -0.0867730596 0.317616657 0.944140451 -0.0871776217 0.317803196 0.999098085 0.0410696668 0.010784239 0.999100462 0.04039792 0.0128947748 0.943323875 0.171911725 -0.283877483 0.945549426 0.170481439 -0.277258654 0.793786129 0.29864781 -0.529823619 0.80133506 0.296417555 -0.519614044 0.578470347 0.415108395 -0.702180232 0.592488744 0.412531443 -0.691935616 0.330134675 0.516812412 -0.789883553 0.348389817 0.514582158 -0.78347287 0.0803072469 0.601292015 -0.794983433 0.0976168305 0.599967885 -0.794046278 -0.0374129228 0.633520978 -0.772820447 -0.0262618879 0.633593881 -0.773219961 0.771340774 -0.207625767 0.601601987 0.771931426 -0.206824892 0.60112007 0.494795395 -0.313650473 0.810432538 0.494033142 -0.313405612 0.810992094 0.147567897 -0.401318482 0.903973004 0.153207809 -0.400260523 0.90350367 -0.199096932 -0.469822792 0.860015672 -0.209545803 -0.469368081 0.85777862 -0.491272289 -0.529131553 0.691860779 -0.521924435 -0.527802309 0.670089253 -0.688594804 -0.585935546 0.427219771 -0.714323121 -0.585684378 0.383035622 -0.750421588 -0.649291353 0.123645374 -0.754592832 -0.650852137 0.0835533011 -0.681003923 -0.721194659 -0.126932741 -0.680868004 -0.720240742 -0.132936209 -0.620706916 -0.753718859 -0.215941673 -0.626854655 -0.75178305 -0.204635009 0.0404693116 -0.926558264 -0.373967937 0.0404466708 -0.926418128 -0.374317403 0.0419855193 -0.917604277 -0.395271561 0.0410470564 -0.916708695 -0.397442207 0.0323494879 -0.897207264 -0.440423246 0.027521806 -0.894330381 -0.446559873 -0.00325640147 -0.866402237 -0.499336118 -0.0149729786 -0.861639355 -0.50730014 -0.0726585262 -0.827725928 -0.556408597 -0.0911922039 -0.822185327 -0.561867662 -0.175302637 -0.784747509 -0.594508479 -0.196819704 -0.77990641 -0.59414476 -0.302835703 -0.741395123 -0.598852075 -0.321335111 -0.738341325 -0.592955171 -0.372261901 -0.717839908 -0.588325542 -0.385313987 -0.716981122 -0.580922716 0.0484316877 -0.922931631 -0.381905193 0.0470714871 -0.923875309 -0.37978769 0.0862316495 -0.910288692 -0.404893319 0.0861732942 -0.910592253 -0.404222603 0.179250869 -0.887305873 -0.42492048 0.170407611 -0.889921586 -0.423084881 0.300372546 -0.863526568 -0.40509036 0.310238711 -0.861734728 -0.401453859 0.448837606 -0.837405464 -0.311924496 0.480514409 -0.827202245 -0.291277101 0.595430282 -0.796817815 -0.10268471 0.619889825 -0.782014658 -0.0647277322 0.646809337 -0.726140522 0.233147214 0.650070725 -0.71303444 0.26265936 0.518703589 -0.606808337 0.602270894 0.516403849 -0.60504178 0.606012796 0.395201524 -0.523389169 0.754903658 0.400996245 -0.532397935 0.745489403 -0.772320601 -0.526772008 -0.355010058 -0.772035041 -0.527014513 -0.355271162 -0.860686679 -0.508224297 -0.0304385331 -0.860508935 -0.508388628 -0.0326400817 -0.858960416 -0.424772175 0.285929369 -0.860626689 -0.425941099 0.279098338 -0.780608429 -0.284714431 0.556406483 -0.786616666 -0.288777728 0.545748701 -0.647916233 -0.103774624 0.754609424 -0.659165073 -0.111636748 0.743665679 -0.486890219 0.0985762458 0.867882849 -0.501547442 0.0879891838 0.860643984 -0.322458839 0.302781353 0.896852133 -0.336339477 0.292447292 0.895181735 -0.243015336 0.397303585 0.884925651 -0.252369594 0.391220146 0.885017731 -0.586780762 -0.479534003 -0.652484082 -0.587665398 -0.479288087 -0.651868322 -0.315849706 -0.377518642 -0.870470355 -0.315390487 -0.376800646 -0.870947825 0.0143939977 -0.243137228 -0.969885097 0.0091365167 -0.245427067 -0.969372002 0.345696348 -0.118579437 -0.930823803 0.354404781 -0.112929875 -0.928247862 0.637063501 -0.0389202795 -0.769828103 0.663922597 -0.0251388741 -0.747378633 0.855868355 -0.0265273907 -0.516512978 0.881110144 -0.0204169925 -0.472470169 0.96795204 -0.100386603 -0.230198562 0.975742821 -0.106743194 -0.191133035 0.970034044 -0.242966125 -0.00118969836 0.969923845 -0.243359717 0.00487685991 0.944651842 -0.318727484 0.0777540282 0.947790391 -0.311723862 0.0672429095 -0.171659667 -0.427265368 0.887680835 -0.171540197 -0.426952384 0.887854505 -0.167061299 -0.407048685 0.897998825 -0.16555102 -0.405319885 0.899059871 -0.144712515 -0.366922317 0.918926712 -0.138287236 -0.362419921 0.921698671 -0.0925978801 -0.318250167 0.943473616 -0.0788184035 -0.313251727 0.946393689 -0.00677455884 -0.274881681 0.961454194 0.0132178095 -0.272870556 0.961959952 0.108164586 -0.249922683 0.962205319 0.129743025 -0.25291932 0.958748437 0.240537751 -0.252998609 0.937087666 0.257777791 -0.259859679 0.930603867 0.310124476 -0.262740487 0.913668565 0.321382208 -0.270542253 0.907480229 -0.176957483 -0.41736273 0.891344154 -0.1762696 -0.419764067 0.890352265 -0.205926161 -0.382826829 0.900576502 -0.20606544 -0.383482149 0.900265781 -0.285992645 -0.326514526 0.900886492 -0.278462895 -0.332137969 0.90118965 -0.400381556 -0.286262443 0.870487463 -0.41011789 -0.28434858 0.866573252 -0.554426094 -0.282037822 0.782985551 -0.586418742 -0.278257219 0.760714124 -0.725677996 -0.340212976 0.598035599 -0.75306202 -0.34599121 0.559631734 -0.823426497 -0.483260628 0.297368407 -0.829295903 -0.491195305 0.266449766 -0.745138564 -0.664162463 -0.0604710057 -0.743264574 -0.665884619 -0.0644627519 -0.637790183 -0.734836839 -0.230734702 -0.643520427 -0.733812693 -0.217716312 -0.982970224 0.0147533888 -0.183171713 -0.982999479 0.0143144844 -0.183049502 -0.948570158 0.314757878 -0.0337954715 -0.949124081 0.312955971 -0.0349576649 -0.810023007 0.577053504 0.104268791 -0.813732489 0.572540283 0.100185134 -0.592016481 0.778632328 0.20796198 -0.6016807 0.772854616 0.201683112 -0.327433639 0.907685308 0.262477797 -0.343368678 0.903523107 0.256405823 -0.0507094079 0.963629572 0.262386364 -0.0698867652 0.963345479 0.259000632 0.207849561 0.955156985 0.210887872 0.190822738 0.958665779 0.211060671 0.323315505 0.930355175 0.172934476 0.312742386 0.933912717 0.173202881 -0.898560779 -0.300401876 -0.319917551 -0.898856794 -0.299348129 -0.320073681 -0.697381536 -0.588216391 -0.409463637 -0.696705383 -0.588610117 -0.410048461 -0.402508499 -0.811490552 -0.423638989 -0.407579567 -0.808783985 -0.423966228 -0.077658808 -0.934997255 -0.346048034 -0.0671371442 -0.936323621 -0.344660239 0.220848032 -0.958513863 -0.180214651 0.254620266 -0.952928478 -0.164608126 0.447632809 -0.892382459 0.0572574471 0.480742597 -0.872172091 0.0905670949 0.550822524 -0.767179426 0.328679594 0.562132374 -0.744540419 0.360092708 0.516468025 -0.642892454 0.565641293 0.51769626 -0.63841884 0.56957174 0.468637826 -0.593405062 0.654407381 0.472783305 -0.600842945 0.644564739</float_array>
        <technique_common><accessor source="#vfx_kurp_0040-mesh-normals-array" count="204" stride="3"><param name="X" type="float"/><param name="Y" type="float"/><param name="Z" type="float"/></accessor></technique_common>
      </source>
      <source id="vfx_kurp_0040-mesh-uv0">
        <float_array id="vfx_kurp_0040-mesh-uv0-array" count="408">0.400000006 1.4375 0.600000024 1.4375 0.400000006 1.375 0.600000024 1.375 0.400000006 1.3125 0.600000024 1.3125 0.400000006 1.25 0.600000024 1.25 0.400000006 1.1875 0.600000024 1.1875 0.400000006 1.125 0.600000024 1.125 0.400000006 1.0625 0.600000024 1.0625 0.400000006 1 0.600000024 1 0.600000024 1.5 0.400000006 1.5 0.600000024 1.5625 0.400000006 1.5625 0.600000024 1.625 0.400000006 1.625 0.600000024 1.6875 0.400000006 1.6875 0.600000024 1.75 0.400000006 1.75 0.600000024 1.8125 0.400000006 1.8125 0.600000024 1.875 0.400000006 1.875 0.600000024 1.9375 0.400000006 1.9375 0.600000024 2 0.400000006 2 0.400000006 1.4375 0.600000024 1.4375 0.400000006 1.375 0.600000024 1.375 0.400000006 1.3125 0.600000024 1.3125 0.400000006 1.25 0.600000024 1.25 0.400000006 1.1875 0.600000024 1.1875 0.400000006 1.125 0.600000024 1.125 0.400000006 1.0625 0.600000024 1.0625 0.400000006 1 0.600000024 1 0.600000024 1.5 0.400000006 1.5 0.600000024 1.5625 0.400000006 1.5625 0.600000024 1.625 0.400000006 1.625 0.600000024 1.6875 0.400000006 1.6875 0.600000024 1.75 0.400000006 1.75 0.600000024 1.8125 0.400000006 1.8125 0.600000024 1.875 0.400000006 1.875 0.600000024 1.9375 0.400000006 1.9375 0.600000024 2 0.400000006 2 0.400000006 1.4375 0.600000024 1.4375 0.400000006 1.375 0.600000024 1.375 0.400000006 1.3125 0.600000024 1.3125 0.400000006 1.25 0.600000024 1.25 0.400000006 1.1875 0.600000024 1.1875 0.400000006 1.125 0.600000024 1.125 0.400000006 1.0625 0.600000024 1.0625 0.400000006 1 0.600000024 1 0.600000024 1.5 0.400000006 1.5 0.600000024 1.5625 0.400000006 1.5625 0.600000024 1.625 0.400000006 1.625 0.600000024 1.6875 0.400000006 1.6875 0.600000024 1.75 0.400000006 1.75 0.600000024 1.8125 0.400000006 1.8125 0.600000024 1.875 0.400000006 1.875 0.600000024 1.9375 0.400000006 1.9375 0.600000024 2 0.400000006 2 0.400000006 1.4375 0.600000024 1.4375 0.400000006 1.375 0.600000024 1.375 0.400000006 1.3125 0.600000024 1.3125 0.400000006 1.25 0.600000024 1.25 0.400000006 1.1875 0.600000024 1.1875 0.400000006 1.125 0.600000024 1.125 0.400000006 1.0625 0.600000024 1.0625 0.400000006 1 0.600000024 1 0.600000024 1.5 0.400000006 1.5 0.600000024 1.5625 0.400000006 1.5625 0.600000024 1.625 0.400000006 1.625 0.600000024 1.6875 0.400000006 1.6875 0.600000024 1.75 0.400000006 1.75 0.600000024 1.8125 0.400000006 1.8125 0.600000024 1.875 0.400000006 1.875 0.600000024 1.9375 0.400000006 1.9375 0.600000024 2 0.400000006 2 0.400000006 1.4375 0.600000024 1.4375 0.400000006 1.375 0.600000024 1.375 0.400000006 1.3125 0.600000024 1.3125 0.400000006 1.25 0.600000024 1.25 0.400000006 1.1875 0.600000024 1.1875 0.400000006 1.125 0.600000024 1.125 0.400000006 1.0625 0.600000024 1.0625 0.400000006 1 0.600000024 1 0.600000024 1.5 0.400000006 1.5 0.600000024 1.5625 0.400000006 1.5625 0.600000024 1.625 0.400000006 1.625 0.600000024 1.6875 0.400000006 1.6875 0.600000024 1.75 0.400000006 1.75 0.600000024 1.8125 0.400000006 1.8125 0.600000024 1.875 0.400000006 1.875 0.600000024 1.9375 0.400000006 1.9375 0.600000024 2 0.400000006 2 0.400000006 1.4375 0.600000024 1.4375 0.400000006 1.375 0.600000024 1.375 0.400000006 1.3125 0.600000024 1.3125 0.400000006 1.25 0.600000024 1.25 0.400000006 1.1875 0.600000024 1.1875 0.400000006 1.125 0.600000024 1.125 0.400000006 1.0625 0.600000024 1.0625 0.400000006 1 0.600000024 1 0.600000024 1.5 0.400000006 1.5 0.600000024 1.5625 0.400000006 1.5625 0.600000024 1.625 0.400000006 1.625 0.600000024 1.6875 0.400000006 1.6875 0.600000024 1.75 0.400000006 1.75 0.600000024 1.8125 0.400000006 1.8125 0.600000024 1.875 0.400000006 1.875 0.600000024 1.9375 0.400000006 1.9375 0.600000024 2 0.400000006 2</float_array>
        <technique_common><accessor source="#vfx_kurp_0040-mesh-uv0-array" count="204" stride="2"><param name="S" type="float"/><param name="T" type="float"/></accessor></technique_common>
      </source>
      <vertices id="vfx_kurp_0040-mesh-vertices"><input semantic="POSITION" source="#vfx_kurp_0040-mesh-positions"/></vertices>
      <triangles material="PreviewMaterial" count="192">
        <input semantic="VERTEX" source="#vfx_kurp_0040-mesh-vertices" offset="0"/>
        <input semantic="NORMAL" source="#vfx_kurp_0040-mesh-normals" offset="1"/>
        <input semantic="TEXCOORD" source="#vfx_kurp_0040-mesh-uv0" offset="2" set="0"/>
        <p>0 0 0 1 1 1 2 2 2 3 3 3 2 2 2 1 1 1 2 2 2 3 3 3 4 4 4 5 5 5 4 4 4 3 3 3 4 4 4 5 5 5 6 6 6 7 7 7 6 6 6 5 5 5 6 6 6 7 7 7 8 8 8 9 9 9 8 8 8 7 7 7 8 8 8 9 9 9 10 10 10 11 11 11 10 10 10 9 9 9 10 10 10 11 11 11 12 12 12 13 13 13 12 12 12 11 11 11 12 12 12 13 13 13 14 14 14 15 15 15 14 14 14 13 13 13 1 1 1 0 0 0 16 16 16 17 17 17 16 16 16 0 0 0 16 16 16 17 17 17 18 18 18 19 19 19 18 18 18 17 17 17 18 18 18 19 19 19 20 20 20 21 21 21 20 20 20 19 19 19 20 20 20 21 21 21 22 22 22 23 23 23 22 22 22 21 21 21 22 22 22 23 23 23 24 24 24 25 25 25 24 24 24 23 23 23 24 24 24 25 25 25 26 26 26 27 27 27 26 26 26 25 25 25 26 26 26 27 27 27 28 28 28 29 29 29 28 28 28 27 27 27 28 28 28 29 29 29 30 30 30 31 31 31 30 30 30 29 29 29 30 30 30 31 31 31 32 32 32 33 33 33 32 32 32 31 31 31 34 34 34 35 35 35 36 36 36 37 37 37 36 36 36 35 35 35 36 36 36 37 37 37 38 38 38 39 39 39 38 38 38 37 37 37 38 38 38 39 39 39 40 40 40 41 41 41 40 40 40 39 39 39 40 40 40 41 41 41 42 42 42 43 43 43 42 42 42 41 41 41 42 42 42 43 43 43 44 44 44 45 45 45 44 44 44 43 43 43 44 44 44 45 45 45 46 46 46 47 47 47 46 46 46 45 45 45 46 46 46 47 47 47 48 48 48 49 49 49 48 48 48 47 47 47 35 35 35 34 34 34 50 50 50 51 51 51 50 50 50 34 34 34 50 50 50 51 51 51 52 52 52 53 53 53 52 52 52 51 51 51 52 52 52 53 53 53 54 54 54 55 55 55 54 54 54 53 53 53 54 54 54 55 55 55 56 56 56 57 57 57 56 56 56 55 55 55 56 56 56 57 57 57 58 58 58 59 59 59 58 58 58 57 57 57 58 58 58 59 59 59 60 60 60 61 61 61 60 60 60 59 59 59 60 60 60 61 61 61 62 62 62 63 63 63 62 62 62 61 61 61 62 62 62 63 63 63 64 64 64 65 65 65 64 64 64 63 63 63 64 64 64 65 65 65 66 66 66 67 67 67 66 66 66 65 65 65 68 68 68 69 69 69 70 70 70 71 71 71 70 70 70 69 69 69 70 70 70 71 71 71 72 72 72 73 73 73 72 72 72 71 71 71 72 72 72 73 73 73 74 74 74 75 75 75 74 74 74 73 73 73 74 74 74 75 75 75 76 76 76 77 77 77 76 76 76 75 75 75 76 76 76 77 77 77 78 78 78 79 79 79 78 78 78 77 77 77 78 78 78 79 79 79 80 80 80 81 81 81 80 80 80 79 79 79 80 80 80 81 81 81 82 82 82 83 83 83 82 82 82 81 81 81 69 69 69 68 68 68 84 84 84 85 85 85 84 84 84 68 68 68 84 84 84 85 85 85 86 86 86 87 87 87 86 86 86 85 85 85 86 86 86 87 87 87 88 88 88 89 89 89 88 88 88 87 87 87 88 88 88 89 89 89 90 90 90 91 91 91 90 90 90 89 89 89 90 90 90 91 91 91 92 92 92 93 93 93 92 92 92 91 91 91 92 92 92 93 93 93 94 94 94 95 95 95 94 94 94 93 93 93 94 94 94 95 95 95 96 96 96 97 97 97 96 96 96 95 95 95 96 96 96 97 97 97 98 98 98 99 99 99 98 98 98 97 97 97 98 98 98 99 99 99 100 100 100 101 101 101 100 100 100 99 99 99 102 102 102 103 103 103 104 104 104 105 105 105 104 104 104 103 103 103 104 104 104 105 105 105 106 106 106 107 107 107 106 106 106 105 105 105 106 106 106 107 107 107 108 108 108 109 109 109 108 108 108 107 107 107 108 108 108 109 109 109 110 110 110 111 111 111 110 110 110 109 109 109 110 110 110 111 111 111 112 112 112 113 113 113 112 112 112 111 111 111 112 112 112 113 113 113 114 114 114 115 115 115 114 114 114 113 113 113 114 114 114 115 115 115 116 116 116 117 117 117 116 116 116 115 115 115 103 103 103 102 102 102 118 118 118 119 119 119 118 118 118 102 102 102 118 118 118 119 119 119 120 120 120 121 121 121 120 120 120 119 119 119 120 120 120 121 121 121 122 122 122 123 123 123 122 122 122 121 121 121 122 122 122 123 123 123 124 124 124 125 125 125 124 124 124 123 123 123 124 124 124 125 125 125 126 126 126 127 127 127 126 126 126 125 125 125 126 126 126 127 127 127 128 128 128 129 129 129 128 128 128 127 127 127 128 128 128 129 129 129 130 130 130 131 131 131 130 130 130 129 129 129 130 130 130 131 131 131 132 132 132 133 133 133 132 132 132 131 131 131 132 132 132 133 133 133 134 134 134 135 135 135 134 134 134 133 133 133 136 136 136 137 137 137 138 138 138 139 139 139 138 138 138 137 137 137 138 138 138 139 139 139 140 140 140 141 141 141 140 140 140 139 139 139 140 140 140 141 141 141 142 142 142 143 143 143 142 142 142 141 141 141 142 142 142 143 143 143 144 144 144 145 145 145 144 144 144 143 143 143 144 144 144 145 145 145 146 146 146 147 147 147 146 146 146 145 145 145 146 146 146 147 147 147 148 148 148 149 149 149 148 148 148 147 147 147 148 148 148 149 149 149 150 150 150 151 151 151 150 150 150 149 149 149 137 137 137 136 136 136 152 152 152 153 153 153 152 152 152 136 136 136 152 152 152 153 153 153 154 154 154 155 155 155 154 154 154 153 153 153 154 154 154 155 155 155 156 156 156 157 157 157 156 156 156 155 155 155 156 156 156 157 157 157 158 158 158 159 159 159 158 158 158 157 157 157 158 158 158 159 159 159 160 160 160 161 161 161 160 160 160 159 159 159 160 160 160 161 161 161 162 162 162 163 163 163 162 162 162 161 161 161 162 162 162 163 163 163 164 164 164 165 165 165 164 164 164 163 163 163 164 164 164 165 165 165 166 166 166 167 167 167 166 166 166 165 165 165 166 166 166 167 167 167 168 168 168 169 169 169 168 168 168 167 167 167 170 170 170 171 171 171 172 172 172 173 173 173 172 172 172 171 171 171 172 172 172 173 173 173 174 174 174 175 175 175 174 174 174 173 173 173 174 174 174 175 175 175 176 176 176 177 177 177 176 176 176 175 175 175 176 176 176 177 177 177 178 178 178 179 179 179 178 178 178 177 177 177 178 178 178 179 179 179 180 180 180 181 181 181 180 180 180 179 179 179 180 180 180 181 181 181 182 182 182 183 183 183 182 182 182 181 181 181 182 182 182 183 183 183 184 184 184 185 185 185 184 184 184 183 183 183 171 171 171 170 170 170 186 186 186 187 187 187 186 186 186 170 170 170 186 186 186 187 187 187 188 188 188 189 189 189 188 188 188 187 187 187 188 188 188 189 189 189 190 190 190 191 191 191 190 190 190 189 189 189 190 190 190 191 191 191 192 192 192 193 193 193 192 192 192 191 191 191 192 192 192 193 193 193 194 194 194 195 195 195 194 194 194 193 193 193 194 194 194 195 195 195 196 196 196 197 197 197 196 196 196 195 195 195 196 196 196 197 197 197 198 198 198 199 199 199 198 198 198 197 197 197 198 198 198 199 199 199 200 200 200 201 201 201 200 200 200 199 199 199 200 200 200 201 201 201 202 202 202 203 203 203 202 202 202 201 201 201</p>
      </triangles>
    </mesh></geometry>
  </library_geometries>
  <library_visual_scenes>
    <visual_scene id="Scene" name="Scene">
      <node id="vfx_kurp_0040" name="vfx_kurp_0040" type="NODE">
        <instance_geometry url="#vfx_kurp_0040-mesh"><bind_material><technique_common><instance_material symbol="PreviewMaterial" target="#PreviewMaterial"><bind_vertex_input semantic="UVSET0" input_semantic="TEXCOORD" input_set="0"/></instance_material></technique_common></bind_material></instance_geometry>
      </node>
    </visual_scene>
  </library_visual_scenes>
  <scene><instance_visual_scene url="#Scene"/></scene>
</COLLADA>
