<?xml version="1.0" encoding="utf-8"?>
<COLLADA xmlns="http://www.collada.org/2005/11/COLLADASchema" version="1.4.1">
  <asset>
    <contributor><authoring_tool>Morrobroom Kurpulio VFX preview converter</authoring_tool></contributor>
    <unit name="unit" meter="1"/>
    <up_axis>Z_UP</up_axis>
  </asset>
  <library_images>
    <image id="VFXTexture" name="darkmap_newgen-1.dds">
      <init_from>../../../Textures/Kurp/darkmap_newgen-1.dds</init_from>
    </image>
  </library_images>
  <library_effects>
    <effect id="PreviewEffect">
      <profile_COMMON>
        <newparam sid="VFXTexture-surface">
          <surface type="2D"><init_from>VFXTexture</init_from></surface>
        </newparam>
        <newparam sid="VFXTexture-sampler">
          <sampler2D><source>VFXTexture-surface</source></sampler2D>
        </newparam>
        <technique sid="common"><phong>
          <emission><color>0.08 0.08 0.08 1</color></emission>
          <ambient><color>0.2 0.2 0.2 1</color></ambient>
          <diffuse><texture texture="VFXTexture-sampler" texcoord="UVSET0"/></diffuse>
          <specular><color>0.15 0.15 0.15 1</color></specular>
          <shininess><float>8</float></shininess>
          <transparent opaque="A_ONE"><texture texture="VFXTexture-sampler" texcoord="UVSET0"/></transparent>
          <transparency><float>1</float></transparency>
        </phong></technique>
      </profile_COMMON>
      <extra><technique profile="GOOGLEEARTH"><double_sided>1</double_sided></technique></extra>
    </effect>
  </library_effects>
  <library_materials><material id="PreviewMaterial" name="PreviewMaterial"><instance_effect url="#PreviewEffect"/></material></library_materials>
  <library_geometries>
    <geometry id="vfx_kurp_0837-mesh" name="vfx_kurp_0837"><mesh>
      <source id="vfx_kurp_0837-mesh-positions">
        <float_array id="vfx_kurp_0837-mesh-positions-array" count="558">3.25262477 1.08691745 -2.31119535 2.26200164 0.879736572 -2.52236471 3.10322086 1.52493447 -1.9906935 2.09949957 1.29179195 -2.17493788 1.38329121 0.363159368 -2.34545867 1.23049426 0.75248263 -1.96865315 0.831407527 -0.354874595 -1.84326548 0.707087608 0.0226373161 -1.44460367 0.737593158 -1.12222714 -1.15283089 0.650454264 -0.741466847 -0.747454114 1.1233798 -1.78008229 -0.449888452 1.06901372 -1.38178127 -0.0558038464 1.90163039 -2.19935445 0.0930981341 1.86346117 -1.77481044 0.460803774 3.40504757 0.655958528 -2.63974237 4.10549845 0.950122854 -1.74294536 4.22974453 0.497655919 -2.05397305 2.42232652 0.47428841 -2.87846747 1.52920764 -0.0215336969 -2.72967334 0.945682735 -0.730783663 -2.2464216 0.813765208 -1.50474174 -1.55876413 1.16829213 -2.18303614 -0.840416934 1.93394298 -2.63030197 -0.267653501 2.94696019 -2.7648324 0.0196325612 2.90203403 -2.30765282 0.345008892 2.85610829 -1.85704898 0.679297779 4.59392614 0.52008467 -0.939860582 4.67683999 0.0605957557 -1.25433888 4.57117493 -0.0723068378 -0.0928152208 4.61758826 -0.524476953 -0.424913962 4.04159659 -0.64168143 0.587206333 4.06575735 -1.07218134 0.225284158 3.13611102 -1.00274195 0.925232258 3.16821187 -1.40103636 0.528706524 2.10730606 -1.02259748 0.841118735 2.16483312 -1.39278603 0.420937091 1.25906963 -0.664297351 0.378438837 1.36452808 -1.0200472 -0.0449076714 0.847016009 -0.00569602311 -0.300890656 0.996469175 -0.360553768 -0.71155038 1.01256952 0.774764124 -0.952703546 0.996469175 -0.360553768 -0.71155038 0.847016009 -0.00569602311 -0.300890656 1.19365823 0.397690029 -1.3294316 1.69177623 1.44755806 -1.3321278 1.19365823 0.397690029 -1.3294316 1.01256952 0.774764124 -0.952703546 1.87717218 1.03843661 -1.67146503 0.822041426 1.15291249 -0.581753 0.687078668 0.345555942 0.108918888 0.687078668 0.345555942 0.108918888 1.14506567 -0.314949147 0.804889935 2.04675525 -0.66070978 1.26805287 3.10608168 -0.612149487 1.32950621 4.02549025 -0.215932365 0.955146108 4.53537801 0.378577434 0.242331708 4.52185998 0.981903031 -0.626122045 3.98880438 1.40843978 -1.43760937 1.69177623 1.44755806 -1.3321278 2.65196457 1.81147237 -1.27450195 1.87717218 1.03843661 -1.67146503 2.81575324 1.37160135 -1.58528875 3.54196873 1.76362919 -0.761214659 2.81575324 1.37160135 -1.58528875 2.65196457 1.81147237 -1.27450195 3.6677591 1.30331561 -1.05986171 4.01333806 1.35208441 0.0544131624 3.6677591 1.30331561 -1.05986171 3.54196873 1.76362919 -0.761214659 4.09744565 0.885915489 -0.249748704 3.86227546 0.773988937 0.889402956 4.09744565 0.885915489 -0.249748704 4.01333806 1.35208441 0.0544131624 3.91196524 0.315962161 0.565915169 3.13104267 0.308372807 1.43675006 3.91196524 0.315962161 0.565915169 3.86227546 0.773988937 0.889402956 3.16009966 -0.131173859 1.08624174 2.11376473 0.202790733 1.49678866 3.16009966 -0.131173859 1.08624174 3.13104267 0.308372807 1.43675006 2.13828425 -0.212400588 1.11742513 1.2551971 0.563626877 1.07395594 2.13828425 -0.212400588 1.11742513 2.11376473 0.202790733 1.49678866 1.28887351 0.176777654 0.666382595 0.954971223 1.28025248 0.408850184 1.28887351 0.176777654 0.666382595 1.2551971 0.563626877 1.07395594 1.01795004 0.920457009 -0.0194988051 0.880957495 1.63927237 0.836083196 1.21242425 0.945411382 1.4854313 1.21242425 0.945411382 1.4854313 2.08723828 0.610460536 1.88409078 2.08723828 0.610460536 1.88409078 3.10674624 0.741761821 1.79519853 3.10674624 0.741761821 1.79519853 3.82229033 1.22952658 1.21771357 3.82229033 1.22952658 1.21771357 3.94016296 1.82026369 0.358312292 3.94016296 1.82026369 0.358312292 3.42416464 2.22948977 -0.467960754 3.42416464 2.22948977 -0.467960754 2.49019536 2.25805417 -0.972347841 2.49019536 2.25805417 -0.972347841 1.50172569 1.8616905 -1.00155772 1.50172569 1.8616905 -1.00155772 0.822041426 1.15291249 -0.581753 3.25520787 1.08541872 -2.31733545 2.26273537 0.878283316 -2.52893085 3.06887039 0.851061879 -1.84062029 2.32539121 0.666311399 -2.01120114 1.38221103 0.361164274 -2.35176493 1.67398458 0.245967466 -1.88432543 0.828956755 -0.357867144 -1.84866048 1.27910345 -0.32360463 -1.51236325 0.734528577 -1.12643541 -1.15684658 1.23695514 -0.923572453 -1.00415021 1.12060462 -1.78543381 -0.452347976 1.55729906 -1.43282892 -0.495588813 1.89999103 -2.20549759 0.0920361736 2.16721686 -1.75604022 -0.116483512 3.43939863 1.32983095 -2.78981537 4.10955507 0.947993707 -1.74809141 4.50911238 1.13533341 -2.09760472 2.19643487 1.09976883 -3.04220399 1.08571744 0.484981312 -2.81400107 0.373667127 -0.384541598 -2.17866213 0.227264104 -1.32263593 -1.30206814 0.680006787 -2.13198853 -0.400631927 1.63018695 -2.64907208 0.309633849 2.86949326 -2.77878635 0.660856321 2.90212658 -2.31403244 0.344881563 2.93357491 -1.84309484 0.0380740863 4.59891305 0.516554931 -0.943177299 5.15216702 0.535760751 -1.04536501 4.57579576 -0.0771840185 -0.0948282372 5.11096866 -0.228935163 -0.00843758347 4.04505228 -0.647755755 0.586103814 4.4497122 -0.961665029 0.81979761 3.13726602 -1.00974851 0.92453046 3.2458505 -1.45995097 1.24457511 2.106615 -1.0296417 0.839818964 1.96433697 -1.50082089 1.11303795 1.2565029 -0.670467851 0.375611597 0.843329935 -1.04032749 0.472531669 0.843991125 -0.0107127019 -0.305273771 0.336562493 -0.235735089 -0.398990915 1.01023803 0.771534311 -0.958911174 0.555707056 0.784006473 -1.29079646 1.6915388 1.44575576 -1.33933733 1.47498866 1.65878299 -1.81328534 1.45999245 0.766596269 -0.620387957 1.34698518 0.220737328 -0.203640555 1.66626392 -0.294668695 0.287450669 2.24725148 -0.552675069 0.575951817 3.02844281 -0.553234573 0.613637741 3.64153543 -0.326448636 0.360632643 4.04199798 0.0830355861 -0.174144697 4.04653294 0.506738027 -0.835095955 3.70943667 0.770762604 -1.39397779 2.65448105 1.81016102 -1.28143721 2.76951119 2.11250951 -1.74214909 3.54685146 1.76162851 -0.766617482 3.95840388 2.01057728 -1.05910777 4.01923396 1.3484215 0.0512934128 4.57613474 1.42519461 0.0218101183 3.86733287 0.768300357 0.888480893 4.36009262 0.624625657 1.11966739 3.13360475 0.301093203 1.43708311 3.37532944 -0.0213647568 1.83013765 2.11303626 0.195044292 1.49689207 2.01195545 -0.190103061 1.8948193 1.25105535 0.557314419 1.07185136 0.790434197 0.302278481 1.27106679 0.950085897 1.27631235 0.404063018 0.390222523 1.24352359 0.355280026 1.50868524 1.31620587 0.461304265 1.71086371 0.81991062 0.880747238 2.2135671 0.588163053 1.1066966 2.89151654 0.631952568 1.05130243 3.37416276 0.920863084 0.663961418 3.46147393 1.28098472 0.0867534136 3.13351973 1.52222832 -0.468714792 2.53643752 1.51714599 -0.815487435 1.90390923 1.24134376 -0.859737251</float_array>
        <technique_common><accessor source="#vfx_kurp_0837-mesh-positions-array" count="186" stride="3"><param name="X" type="float"/><param name="Y" type="float"/><param name="Z" type="float"/></accessor></technique_common>
      </source>
      <source id="vfx_kurp_0837-mesh-normals">
        <float_array id="vfx_kurp_0837-mesh-normals-array" count="558">0.279958453 0.634940165 -0.720051561 -0.213213004 0.58755213 -0.780591256 0.258267213 0.634824499 -0.728214186 -0.234778603 0.57989993 -0.78012504 -0.648091147 0.391953862 -0.652954849 -0.664536516 0.378458431 -0.644329445 -0.922738096 0.103158552 -0.371366019 -0.930193182 0.0866638448 -0.356693177 -0.978844119 -0.204560039 -0.00440231732 -0.975291292 -0.220545376 0.0129086372 -0.812007171 -0.456510427 0.363651735 -0.797798641 -0.468489006 0.379519933 -0.468568488 -0.594704281 0.653276657 -0.446508967 -0.599974072 0.663822909 0.301951191 0.634623069 -0.711392324 0.709803581 0.513908061 -0.481744103 0.725818812 0.505955829 -0.466042649 -0.191040461 0.594939279 -0.780737341 -0.630937716 0.40538383 -0.66149947 -0.914632612 0.11973479 -0.38614863 -0.981844792 -0.188416402 -0.0219103745 -0.825692479 -0.444319088 0.347580895 -0.490028754 -0.589104889 0.642516342 -0.26760524 -0.593320314 0.759182745 -0.243998698 -0.594642461 0.766071132 -0.219429948 -0.595618068 0.77271574 0.962201589 0.244172542 -0.120614561 0.967455741 0.231354361 -0.102491702 0.958451856 -0.108047287 0.263999667 0.951821626 -0.122678404 0.281043771 0.692065192 -0.449122562 0.565097066 0.674438781 -0.461444331 0.576369204 0.226335607 -0.685078802 0.692415503 0.203759792 -0.690412085 0.694127582 -0.307518167 -0.740771008 0.597236043 -0.330090159 -0.737417294 0.5892845 -0.747847866 -0.592890855 0.298670393 -0.762232353 -0.581727269 0.28389298 -0.885935679 -0.457779561 0.0745375488 -0.895045466 -0.442377868 0.0565281872 -0.929436083 -0.0855483517 -0.358929029 -0.943590427 -0.0559397488 -0.326355406 -0.948155432 -0.0742111434 -0.309021008 -0.923784046 -0.0669802743 -0.377010185 -0.6548185 0.285320539 -0.699860645 -0.670153693 0.316235163 -0.671482948 -0.686741455 0.301184951 -0.661569194 -0.636870656 0.300344675 -0.710062563 -0.934082714 -0.103009806 -0.341874924 -0.951727918 -0.091536471 -0.292976184 -0.8767422 -0.472181289 0.0914764667 -0.734077553 -0.60317268 0.311950098 -0.285802551 -0.743840039 0.604167939 0.247242942 -0.68004654 0.690222885 0.708651527 -0.437304868 0.553694379 0.964304923 -0.0942471951 0.247454 0.956863127 0.255797272 -0.137770503 0.693795933 0.521192577 -0.49699648 -0.177513245 0.562219099 -0.807712036 -0.140545963 0.536728707 -0.831967023 -0.154934594 0.569737209 -0.80709032 -0.116704548 0.543747031 -0.83109519 0.443196491 0.570748345 -0.691247566 0.431482893 0.605812687 -0.668441097 0.410820494 0.607825643 -0.679539925 0.464568301 0.567822332 -0.679524902 0.879033714 0.362158517 -0.310066021 0.870899406 0.398563948 -0.287543046 0.85982348 0.409024345 -0.305618503 0.890009163 0.350691625 -0.291374458 0.983502268 -0.0189201698 0.179903628 0.978848436 0.0177210412 0.203817821 0.982187102 0.0323322847 0.185102998 0.979435858 -0.0341777597 0.198839837 0.69072233 -0.421341988 0.587684943 0.688578122 -0.385633977 0.614122632 0.705800108 -0.373351517 0.602042235 0.67274638 -0.433593168 0.599507525 0.100172315 -0.666995559 0.738296981 0.0990631987 -0.633237832 0.767591252 0.123282938 -0.629439518 0.76720741 0.0758046765 -0.670152427 0.738342316 -0.550294961 -0.626691992 0.551754115 -0.5519756 -0.595425306 0.583773622 -0.531336629 -0.602629174 0.595415372 -0.570354353 -0.618780849 0.540190868 -0.952673563 -0.286305979 0.102185948 -0.956590147 -0.257682628 0.136143138 -0.949580659 -0.273503988 0.153271462 -0.958983498 -0.270131931 0.085903379 -0.945608837 -0.302581113 0.119451238 -0.941681282 -0.289812164 0.171012495 -0.529539178 -0.634099659 0.563476603 -0.509966114 -0.609680429 0.606814912 0.124333962 -0.663244973 0.738002149 0.147359645 -0.625460953 0.766213894 0.707833658 -0.409103053 0.57585259 0.722275069 -0.361526088 0.589591056 0.986845033 -0.00434754556 0.16161058 0.984961999 0.0458142585 0.166586054 0.868190596 0.372678734 -0.32765172 0.848995279 0.418090244 -0.323121593 0.422968616 0.573028936 -0.701951129 0.391336021 0.60871507 -0.69016091 -0.162648817 0.529737334 -0.832420398 -0.198354569 0.554238677 -0.808377977 -0.671113597 0.271009964 -0.690043577 -0.701660419 0.286449338 -0.652395152 -0.192593263 0.903878813 0.381982887 -0.334444485 0.852718852 0.401269791 -0.215055002 0.902751717 0.372546216 -0.35962574 0.842470316 0.401139743 -0.433945582 0.767029849 0.472606012 -0.454248278 0.748681464 0.482840105 -0.468500567 0.669622959 0.576291863 -0.47754958 0.646876887 0.594555877 -0.433085562 0.584918812 0.685789238 -0.427764706 0.56286382 0.707249374 -0.340239467 0.53264993 0.774933001 -0.321509329 0.516137727 0.793872533 -0.215542328 0.523288539 0.824445638 -0.187922339 0.515527812 0.836012123 -0.179700897 0.903413087 0.389297291 -0.0431323296 0.906197152 0.420649882 -0.0360526426 0.90156412 0.431140747 -0.318516503 0.857834419 0.403320402 -0.419679064 0.777673004 0.468074975 -0.46032009 0.683895107 0.566032594 -0.433674524 0.59975506 0.672473252 -0.349754119 0.544827646 0.762125247 -0.231697896 0.530405526 0.815466776 -0.1563757 0.549729102 0.820575746 -0.136879461 0.547104858 0.825796759 -0.105170925 0.54775484 0.830002236 0.0746100654 0.856177183 0.511267024 0.076217926 0.846148915 0.527468332 0.124105909 0.765303032 0.631592426 0.117878532 0.756195916 0.643639953 0.095323696 0.660573914 0.74468483 0.0844528007 0.655757129 0.750233505 -0.00663443694 0.570513441 0.821261467 -0.0237204532 0.569249615 0.821822497 -0.154092735 0.522079259 0.838861536 -0.166283521 0.526045295 0.834042048 -0.298413941 0.527878655 0.79516869 -0.306941295 0.537774344 0.785229773 -0.400009502 0.588007735 0.703021552 -0.399558426 0.59688777 0.69575718 -0.429741856 0.677054998 0.597426537 -0.421700176 0.686790615 0.592019943 -0.383750971 0.769894683 0.509899371 -0.369338816 0.777173054 0.509500621 -0.440358922 0.657215824 0.611679149 -0.396576482 0.570749756 0.719007517 -0.281027812 0.514414884 0.810185593 -0.128209482 0.518218127 0.845584001 0.0198333633 0.57601225 0.817200419 0.113403137 0.673118955 0.730787658 0.131086049 0.780740908 0.610950148 0.0668021276 0.871066558 0.486600994 -0.0615598359 0.913072778 0.403123416 -0.284210648 0.837369971 0.46694308 -0.268548362 0.838492798 0.474143021 -0.170013633 0.862395293 0.476833015 -0.16005924 0.856939027 0.489935245 -0.0795319329 0.846223797 0.526858574 -0.0795261074 0.837300498 0.540928345 -0.0328435595 0.805142032 0.592171942 -0.0420990039 0.797308524 0.602101978 -0.0259145868 0.758666375 0.650963721 -0.0401313603 0.755393461 0.65404143 -0.0405819753 0.716769138 0.696128656 -0.0543434032 0.720091134 0.691748186 -0.0677044851 0.675574855 0.734176217 -0.0736718423 0.684304901 0.725464859 -0.104118407 0.661229937 0.742922828 -0.103279773 0.670712043 0.7344921 -0.0991659811 0.643972939 0.75859407 -0.0485400433 0.659761357 0.749905871 -0.00783497841 0.713816054 0.700289407 0.00045830218 0.768008206 0.640439837 -0.0200659251 0.821580783 0.569738866 -0.0860619455 0.861798736 0.499896269 -0.193694123 0.868972219 0.45537882 -0.314851176 0.830913067 0.458750709 -0.408400248 0.752962224 0.516001091</float_array>
        <technique_common><accessor source="#vfx_kurp_0837-mesh-normals-array" count="186" stride="3"><param name="X" type="float"/><param name="Y" type="float"/><param name="Z" type="float"/></accessor></technique_common>
      </source>
      <source id="vfx_kurp_0837-mesh-uv0">
        <float_array id="vfx_kurp_0837-mesh-uv0-array" count="372">0.5 0.720000029 0.5 0.75999999 1 0.720000029 1 0.75999999 0.5 0.800000012 1 0.800000012 0.5 0.840000033 1 0.840000033 0.5 0.879999995 1 0.879999995 0.5 0.920000017 1 0.920000017 0.5 0.959999979 1 0.959999979 0 0.720000029 0.5 0.680000007 0 0.680000007 0 0.75999999 0 0.800000012 0 0.840000033 0 0.879999995 0 0.920000017 0 0.959999979 0 1 0.5 1 1 1 0.5 0.639999986 0 0.639999986 0.5 0.600000024 0 0.600000024 0.5 0.560000002 0 0.560000002 0.5 0.519999981 0 0.519999981 0.5 0.480000019 0 0.480000019 0.5 0.439999998 0 0.439999998 0.5 0.400000036 0 0.400000036 0.5 0.360000014 0 0.400000036 0.5 0.400000036 0 0.360000014 0.5 0.319999993 0 0.360000014 0.5 0.360000014 0 0.319999993 1 0.360000014 1 0.400000036 1 0.400000036 1 0.439999998 1 0.480000019 1 0.519999981 1 0.560000002 1 0.600000024 1 0.639999986 1 0.680000007 0.5 0.319999993 0.5 0.280000031 0 0.319999993 0 0.280000031 0.5 0.24000001 0 0.280000031 0.5 0.280000031 0 0.24000001 0.5 0.200000048 0 0.24000001 0.5 0.24000001 0 0.200000048 0.5 0.160000026 0 0.200000048 0.5 0.200000048 0 0.160000026 0.5 0.120000005 0 0.160000026 0.5 0.160000026 0 0.120000005 0.5 0.0800000429 0 0.120000005 0.5 0.120000005 0 0.0800000429 0.5 0.0400000215 0 0.0800000429 0.5 0.0800000429 0 0.0400000215 0.5 0 0 0.0400000215 0.5 0.0400000215 0 0 1 0 1 0.0400000215 1 0.0400000215 1 0.0800000429 1 0.0800000429 1 0.120000005 1 0.120000005 1 0.160000026 1 0.160000026 1 0.200000048 1 0.200000048 1 0.24000001 1 0.24000001 1 0.280000031 1 0.280000031 1 0.319999993 1 0.319999993 1 0.360000014 0.5 0.720000029 0.5 0.75999999 1 0.720000029 1 0.75999999 0.5 0.800000012 1 0.800000012 0.5 0.840000033 1 0.840000033 0.5 0.879999995 1 0.879999995 0.5 0.920000017 1 0.920000017 0.5 0.959999979 1 0.959999979 0 0.720000029 0.5 0.680000007 0 0.680000007 0 0.75999999 0 0.800000012 0 0.840000033 0 0.879999995 0 0.920000017 0 0.959999979 0 1 0.5 1 1 1 0.5 0.639999986 0 0.639999986 0.5 0.600000024 0 0.600000024 0.5 0.560000002 0 0.560000002 0.5 0.519999981 0 0.519999981 0.5 0.480000019 0 0.480000019 0.5 0.439999998 0 0.439999998 0.5 0.400000036 0 0.400000036 0.5 0.360000014 0 0.360000014 0.5 0.319999993 0 0.319999993 1 0.360000014 1 0.400000036 1 0.439999998 1 0.480000019 1 0.519999981 1 0.560000002 1 0.600000024 1 0.639999986 1 0.680000007 0.5 0.280000031 0 0.280000031 0.5 0.24000001 0 0.24000001 0.5 0.200000048 0 0.200000048 0.5 0.160000026 0 0.160000026 0.5 0.120000005 0 0.120000005 0.5 0.0800000429 0 0.0800000429 0.5 0.0400000215 0 0.0400000215 0.5 0 0 0 1 0 1 0.0400000215 1 0.0800000429 1 0.120000005 1 0.160000026 1 0.200000048 1 0.24000001 1 0.280000031 1 0.319999993</float_array>
        <technique_common><accessor source="#vfx_kurp_0837-mesh-uv0-array" count="186" stride="2"><param name="S" type="float"/><param name="T" type="float"/></accessor></technique_common>
      </source>
      <source id="vfx_kurp_0837-mesh-colors">
        <float_array id="vfx_kurp_0837-mesh-colors-array" count="744">1 1 1 1 1 1 1 1 1 1 1 0 1 1 1 0 1 1 1 1 1 1 1 0 1 1 1 1 1 1 1 0 1 1 1 1 1 1 1 0 1 1 1 1 1 1 1 0 1 1 1 0.299999982 1 1 1 0 1 1 1 0 1 1 1 1 1 1 1 0 1 1 1 0 1 1 1 0 1 1 1 0 1 1 1 0 1 1 1 0 1 1 1 0 1 1 1 0 1 1 1 0 1 1 1 0 1 1 1 1 1 1 1 0 1 1 1 1 1 1 1 0 1 1 1 1 1 1 1 0 1 1 1 1 1 1 1 0 1 1 1 1 1 1 1 0 1 1 1 1 1 1 1 0 1 1 1 1 1 1 1 0 1 1 1 1 1 1 1 0 1 1 1 1 1 1 1 0 1 1 1 1 1 1 1 0 1 1 1 1 1 1 1 0 1 1 1 0 1 1 1 0 1 1 1 0 1 1 1 0 1 1 1 0 1 1 1 0 1 1 1 0 1 1 1 0 1 1 1 0 1 1 1 0 1 1 1 1 1 1 1 1 1 1 1 0 1 1 1 0 1 1 1 1 1 1 1 0 1 1 1 1 1 1 1 0 1 1 1 1 1 1 1 0 1 1 1 1 1 1 1 0 1 1 1 1 1 1 1 0 1 1 1 1 1 1 1 0 1 1 1 1 1 1 1 0 1 1 1 1 1 1 1 0 1 1 1 1 1 1 1 0 1 1 1 1 1 1 1 0 1 1 1 0.299999982 1 1 1 0 1 1 1 1 1 1 1 0 1 1 1 0 1 1 1 0 1 1 1 0.299999982 1 1 1 0 1 1 1 0 1 1 1 0 1 1 1 0 1 1 1 0 1 1 1 0 1 1 1 0 1 1 1 0 1 1 1 0 1 1 1 0 1 1 1 0 1 1 1 0 1 1 1 0 1 1 1 0 1 1 1 0 1 1 1 0 1 1 1 0 1 1 1 0 1 1 1 0 1 1 1 1 1 1 1 1 1 1 1 0 1 1 1 0 1 1 1 1 1 1 1 0 1 1 1 1 1 1 1 0 1 1 1 1 1 1 1 0 1 1 1 1 1 1 1 0 1 1 1 0.299999982 1 1 1 0 1 1 1 0 1 1 1 1 1 1 1 0 1 1 1 0 1 1 1 0 1 1 1 0 1 1 1 0 1 1 1 0 1 1 1 0 1 1 1 0 1 1 1 0 1 1 1 0 1 1 1 1 1 1 1 0 1 1 1 1 1 1 1 0 1 1 1 1 1 1 1 0 1 1 1 1 1 1 1 0 1 1 1 1 1 1 1 0 1 1 1 1 1 1 1 0 1 1 1 1 1 1 1 0 1 1 1 1 1 1 1 0 1 1 1 1 1 1 1 0 1 1 1 0 1 1 1 0 1 1 1 0 1 1 1 0 1 1 1 0 1 1 1 0 1 1 1 0 1 1 1 0 1 1 1 0 1 1 1 1 1 1 1 0 1 1 1 1 1 1 1 0 1 1 1 1 1 1 1 0 1 1 1 1 1 1 1 0 1 1 1 1 1 1 1 0 1 1 1 1 1 1 1 0 1 1 1 0.299999982 1 1 1 0 1 1 1 0 1 1 1 0 1 1 1 0 1 1 1 0 1 1 1 0 1 1 1 0 1 1 1 0 1 1 1 0 1 1 1 0 1 1 1 0 1 1 1 0</float_array>
        <technique_common><accessor source="#vfx_kurp_0837-mesh-colors-array" count="186" stride="4"><param name="R" type="float"/><param name="G" type="float"/><param name="B" type="float"/><param name="A" type="float"/></accessor></technique_common>
      </source>
      <vertices id="vfx_kurp_0837-mesh-vertices"><input semantic="POSITION" source="#vfx_kurp_0837-mesh-positions"/></vertices>
      <triangles material="PreviewMaterial" count="200">
        <input semantic="VERTEX" source="#vfx_kurp_0837-mesh-vertices" offset="0"/>
        <input semantic="NORMAL" source="#vfx_kurp_0837-mesh-normals" offset="1"/>
        <input semantic="TEXCOORD" source="#vfx_kurp_0837-mesh-uv0" offset="2" set="0"/>
        <input semantic="COLOR" source="#vfx_kurp_0837-mesh-colors" offset="3" set="0"/>
        <p>0 0 0 0 1 1 1 1 2 2 2 2 2 2 2 2 1 1 1 1 3 3 3 3 4 4 4 4 3 3 3 3 1 1 1 1 3 3 3 3 4 4 4 4 5 5 5 5 6 6 6 6 5 5 5 5 4 4 4 4 5 5 5 5 6 6 6 6 7 7 7 7 8 8 8 8 7 7 7 7 6 6 6 6 7 7 7 7 8 8 8 8 9 9 9 9 10 10 10 10 9 9 9 9 8 8 8 8 9 9 9 9 10 10 10 10 11 11 11 11 12 12 12 12 11 11 11 11 10 10 10 10 11 11 11 11 12 12 12 12 13 13 13 13 14 14 14 14 15 15 15 15 16 16 16 16 15 15 15 15 14 14 14 14 0 0 0 0 17 17 17 17 0 0 0 0 14 14 14 14 0 0 0 0 17 17 17 17 1 1 1 1 18 18 18 18 1 1 1 1 17 17 17 17 1 1 1 1 18 18 18 18 4 4 4 4 19 19 19 19 4 4 4 4 18 18 18 18 4 4 4 4 19 19 19 19 6 6 6 6 20 20 20 20 6 6 6 6 19 19 19 19 6 6 6 6 20 20 20 20 8 8 8 8 21 21 21 21 8 8 8 8 20 20 20 20 8 8 8 8 21 21 21 21 10 10 10 10 22 22 22 22 10 10 10 10 21 21 21 21 10 10 10 10 22 22 22 22 12 12 12 12 23 23 23 23 12 12 12 12 22 22 22 22 24 24 24 24 12 12 12 12 23 23 23 23 12 12 12 12 24 24 24 24 13 13 13 13 25 25 25 25 13 13 13 13 24 24 24 24 15 15 15 15 26 26 26 26 16 16 16 16 16 16 16 16 26 26 26 26 27 27 27 27 28 28 28 28 27 27 27 27 26 26 26 26 27 27 27 27 28 28 28 28 29 29 29 29 30 30 30 30 29 29 29 29 28 28 28 28 29 29 29 29 30 30 30 30 31 31 31 31 32 32 32 32 31 31 31 31 30 30 30 30 31 31 31 31 32 32 32 32 33 33 33 33 34 34 34 34 33 33 33 33 32 32 32 32 33 33 33 33 34 34 34 34 35 35 35 35 36 36 36 36 35 35 35 35 34 34 34 34 35 35 35 35 36 36 36 36 37 37 37 37 38 38 38 38 37 37 37 37 36 36 36 36 37 37 37 37 38 38 38 38 39 39 39 39 40 40 40 40 41 41 41 41 42 42 42 42 41 41 41 41 40 40 40 40 43 43 43 43 44 44 44 44 45 45 45 45 46 46 46 46 45 45 45 45 44 44 44 44 47 47 47 47 40 40 40 40 42 42 42 42 48 48 48 48 48 48 48 48 42 42 42 42 49 49 49 49 36 36 36 36 50 50 50 50 38 38 38 38 50 50 50 50 36 36 36 36 51 51 51 51 34 34 34 34 51 51 51 51 36 36 36 36 51 51 51 51 34 34 34 34 52 52 52 52 32 32 32 32 52 52 52 52 34 34 34 34 52 52 52 52 32 32 32 32 53 53 53 53 30 30 30 30 53 53 53 53 32 32 32 32 53 53 53 53 30 30 30 30 54 54 54 54 28 28 28 28 54 54 54 54 30 30 30 30 54 54 54 54 28 28 28 28 55 55 55 55 26 26 26 26 55 55 55 55 28 28 28 28 55 55 55 55 26 26 26 26 56 56 56 56 15 15 15 15 56 56 56 56 26 26 26 26 56 56 56 56 15 15 15 15 57 57 57 57 0 0 0 0 57 57 57 57 15 15 15 15 57 57 57 57 0 0 0 0 2 2 2 2 58 58 58 58 59 59 59 59 60 60 60 60 60 60 60 60 59 59 59 59 61 61 61 61 62 62 62 62 63 63 63 63 64 64 64 64 63 63 63 63 62 62 62 62 65 65 65 65 66 66 66 66 67 67 67 67 68 68 68 68 67 67 67 67 66 66 66 66 69 69 69 69 70 70 70 70 71 71 71 71 72 72 72 72 71 71 71 71 70 70 70 70 73 73 73 73 74 74 74 74 75 75 75 75 76 76 76 76 75 75 75 75 74 74 74 74 77 77 77 77 78 78 78 78 79 79 79 79 80 80 80 80 79 79 79 79 78 78 78 78 81 81 81 81 82 82 82 82 83 83 83 83 84 84 84 84 83 83 83 83 82 82 82 82 85 85 85 85 86 86 86 86 87 87 87 87 88 88 88 88 87 87 87 87 86 86 86 86 89 89 89 89 86 86 86 86 88 88 88 88 90 90 90 90 90 90 90 90 88 88 88 88 91 91 91 91 84 84 84 84 92 92 92 92 82 82 82 82 92 92 92 92 84 84 84 84 93 93 93 93 80 80 80 80 94 94 94 94 78 78 78 78 94 94 94 94 80 80 80 80 95 95 95 95 76 76 76 76 96 96 96 96 74 74 74 74 96 96 96 96 76 76 76 76 97 97 97 97 72 72 72 72 98 98 98 98 70 70 70 70 98 98 98 98 72 72 72 72 99 99 99 99 68 68 68 68 100 100 100 100 66 66 66 66 100 100 100 100 68 68 68 68 101 101 101 101 64 64 64 64 102 102 102 102 62 62 62 62 102 102 102 102 64 64 64 64 103 103 103 103 58 58 58 58 104 104 104 104 59 59 59 59 104 104 104 104 58 58 58 58 105 105 105 105 46 46 46 46 106 106 106 106 44 44 44 44 106 106 106 106 46 46 46 46 107 107 107 107 108 108 108 108 109 109 109 109 110 110 110 110 110 110 110 110 109 109 109 109 111 111 111 111 112 112 112 112 111 111 111 111 109 109 109 109 111 111 111 111 112 112 112 112 113 113 113 113 114 114 114 114 113 113 113 113 112 112 112 112 113 113 113 113 114 114 114 114 115 115 115 115 116 116 116 116 115 115 115 115 114 114 114 114 115 115 115 115 116 116 116 116 117 117 117 117 118 118 118 118 117 117 117 117 116 116 116 116 117 117 117 117 118 118 118 118 119 119 119 119 120 120 120 120 119 119 119 119 118 118 118 118 119 119 119 119 120 120 120 120 121 121 121 121 122 122 122 122 123 123 123 123 124 124 124 124 123 123 123 123 122 122 122 122 108 108 108 108 125 125 125 125 108 108 108 108 122 122 122 122 108 108 108 108 125 125 125 125 109 109 109 109 126 126 126 126 109 109 109 109 125 125 125 125 109 109 109 109 126 126 126 126 112 112 112 112 127 127 127 127 112 112 112 112 126 126 126 126 112 112 112 112 127 127 127 127 114 114 114 114 128 128 128 128 114 114 114 114 127 127 127 127 114 114 114 114 128 128 128 128 116 116 116 116 129 129 129 129 116 116 116 116 128 128 128 128 116 116 116 116 129 129 129 129 118 118 118 118 130 130 130 130 118 118 118 118 129 129 129 129 118 118 118 118 130 130 130 130 120 120 120 120 131 131 131 131 120 120 120 120 130 130 130 130 132 132 132 132 120 120 120 120 131 131 131 131 120 120 120 120 132 132 132 132 121 121 121 121 133 133 133 133 121 121 121 121 132 132 132 132 123 123 123 123 134 134 134 134 124 124 124 124 124 124 124 124 134 134 134 134 135 135 135 135 136 136 136 136 135 135 135 135 134 134 134 134 135 135 135 135 136 136 136 136 137 137 137 137 138 138 138 138 137 137 137 137 136 136 136 136 137 137 137 137 138 138 138 138 139 139 139 139 140 140 140 140 139 139 139 139 138 138 138 138 139 139 139 139 140 140 140 140 141 141 141 141 142 142 142 142 141 141 141 141 140 140 140 140 141 141 141 141 142 142 142 142 143 143 143 143 144 144 144 144 143 143 143 143 142 142 142 142 143 143 143 143 144 144 144 144 145 145 145 145 146 146 146 146 145 145 145 145 144 144 144 144 145 145 145 145 146 146 146 146 147 147 147 147 148 148 148 148 147 147 147 147 146 146 146 146 147 147 147 147 148 148 148 148 149 149 149 149 150 150 150 150 149 149 149 149 148 148 148 148 149 149 149 149 150 150 150 150 151 151 151 151 148 148 148 148 146 146 146 146 152 152 152 152 152 152 152 152 146 146 146 146 153 153 153 153 144 144 144 144 153 153 153 153 146 146 146 146 153 153 153 153 144 144 144 144 154 154 154 154 142 142 142 142 154 154 154 154 144 144 144 144 154 154 154 154 142 142 142 142 155 155 155 155 140 140 140 140 155 155 155 155 142 142 142 142 155 155 155 155 140 140 140 140 156 156 156 156 138 138 138 138 156 156 156 156 140 140 140 140 156 156 156 156 138 138 138 138 157 157 157 157 136 136 136 136 157 157 157 157 138 138 138 138 157 157 157 157 136 136 136 136 158 158 158 158 134 134 134 134 158 158 158 158 136 136 136 136 158 158 158 158 134 134 134 134 159 159 159 159 123 123 123 123 159 159 159 159 134 134 134 134 159 159 159 159 123 123 123 123 160 160 160 160 108 108 108 108 160 160 160 160 123 123 123 123 160 160 160 160 108 108 108 108 110 110 110 110 150 150 150 150 161 161 161 161 151 151 151 151 151 151 151 151 161 161 161 161 162 162 162 162 163 163 163 163 162 162 162 162 161 161 161 161 162 162 162 162 163 163 163 163 164 164 164 164 165 165 165 165 164 164 164 164 163 163 163 163 164 164 164 164 165 165 165 165 166 166 166 166 167 167 167 167 166 166 166 166 165 165 165 165 166 166 166 166 167 167 167 167 168 168 168 168 169 169 169 169 168 168 168 168 167 167 167 167 168 168 168 168 169 169 169 169 170 170 170 170 171 171 171 171 170 170 170 170 169 169 169 169 170 170 170 170 171 171 171 171 172 172 172 172 173 173 173 173 172 172 172 172 171 171 171 171 172 172 172 172 173 173 173 173 174 174 174 174 175 175 175 175 174 174 174 174 173 173 173 173 174 174 174 174 175 175 175 175 176 176 176 176 175 175 175 175 173 173 173 173 177 177 177 177 177 177 177 177 173 173 173 173 178 178 178 178 171 171 171 171 178 178 178 178 173 173 173 173 178 178 178 178 171 171 171 171 179 179 179 179 169 169 169 169 179 179 179 179 171 171 171 171 179 179 179 179 169 169 169 169 180 180 180 180 167 167 167 167 180 180 180 180 169 169 169 169 180 180 180 180 167 167 167 167 181 181 181 181 165 165 165 165 181 181 181 181 167 167 167 167 181 181 181 181 165 165 165 165 182 182 182 182 163 163 163 163 182 182 182 182 165 165 165 165 182 182 182 182 163 163 163 163 183 183 183 183 161 161 161 161 183 183 183 183 163 163 163 163 183 183 183 183 161 161 161 161 184 184 184 184 150 150 150 150 184 184 184 184 161 161 161 161 184 184 184 184 150 150 150 150 185 185 185 185 148 148 148 148 185 185 185 185 150 150 150 150 185 185 185 185 148 148 148 148 152 152 152 152</p>
      </triangles>
    </mesh></geometry>
  </library_geometries>
  <library_visual_scenes>
    <visual_scene id="Scene" name="Scene">
      <node id="vfx_kurp_0837" name="vfx_kurp_0837" type="NODE">
        <instance_geometry url="#vfx_kurp_0837-mesh"><bind_material><technique_common><instance_material symbol="PreviewMaterial" target="#PreviewMaterial"><bind_vertex_input semantic="UVSET0" input_semantic="TEXCOORD" input_set="0"/></instance_material></technique_common></bind_material></instance_geometry>
      </node>
    </visual_scene>
  </library_visual_scenes>
  <scene><instance_visual_scene url="#Scene"/></scene>
</COLLADA>
