<?xml version="1.0" encoding="utf-8"?>
<COLLADA xmlns="http://www.collada.org/2005/11/COLLADASchema" version="1.4.1">
  <asset>
    <contributor><authoring_tool>Morrobroom Kurpulio VFX preview converter</authoring_tool></contributor>
    <unit name="unit" meter="1"/>
    <up_axis>Z_UP</up_axis>
  </asset>
  <library_images>
    <image id="VFXTexture" name="darkmap_newgen-1.dds">
      <init_from>../../../Textures/Kurp/darkmap_newgen-1.dds</init_from>
    </image>
  </library_images>
  <library_effects>
    <effect id="PreviewEffect">
      <profile_COMMON>
        <newparam sid="VFXTexture-surface">
          <surface type="2D"><init_from>VFXTexture</init_from></surface>
        </newparam>
        <newparam sid="VFXTexture-sampler">
          <sampler2D><source>VFXTexture-surface</source></sampler2D>
        </newparam>
        <technique sid="common"><phong>
          <emission><color>0.08 0.08 0.08 1</color></emission>
          <ambient><color>0.2 0.2 0.2 1</color></ambient>
          <diffuse><texture texture="VFXTexture-sampler" texcoord="UVSET0"/></diffuse>
          <specular><color>0.15 0.15 0.15 1</color></specular>
          <shininess><float>8</float></shininess>
          <transparent opaque="A_ONE"><texture texture="VFXTexture-sampler" texcoord="UVSET0"/></transparent>
          <transparency><float>1</float></transparency>
        </phong></technique>
      </profile_COMMON>
      <extra><technique profile="GOOGLEEARTH"><double_sided>1</double_sided></technique></extra>
    </effect>
  </library_effects>
  <library_materials><material id="PreviewMaterial" name="PreviewMaterial"><instance_effect url="#PreviewEffect"/></material></library_materials>
  <library_geometries>
    <geometry id="vfx_kurp_0445-mesh" name="vfx_kurp_0445"><mesh>
      <source id="vfx_kurp_0445-mesh-positions">
        <float_array id="vfx_kurp_0445-mesh-positions-array" count="378">-0.833841755 -1.78817929 -4.19699141 -0.866345228 -1.85788363 -3.15284892 -1.64659277 -1.18272917 -4.1969913 -1.71077796 -1.22883281 -3.15566655 -0.98734065 -2.11735991 -1.81632775 -1.94970864 -1.4004542 -1.82419865 -1.2298169 -2.63735274 0.487270337 -2.42852874 -1.74438533 3.06282852e-07 -0.866345883 -1.85788387 -5.23985287 -1.71077843 -1.22883312 -5.23959419 -0.987341187 -2.11735995 -6.57380015 -1.94970916 -1.40045452 -6.57363407 -1.22981829 -2.63735304 -8.88124945 -2.42852998 -1.74438562 -8.39397916 -2.42852998 -1.74438562 -8.39397916 -1.94970916 -1.40045452 -6.57363407 -2.83590524 -0.283010001 -8.88124924 -2.2767643 -0.227210785 -6.5738007 -1.71077843 -1.22883312 -5.23959419 -1.99775373 -0.199366767 -5.23985272 -1.64659277 -1.18272917 -4.1969913 -1.92280154 -0.191886618 -4.19699091 -1.99775378 -0.19936667 -3.15284842 -1.71077796 -1.22883281 -3.15566655 -2.27676362 -0.227210333 -1.81632758 -1.94970864 -1.4004542 -1.82419865 -2.83590456 -0.283009737 0.487270681 -2.42852874 -1.74438533 3.06282852e-07 -2.653283 1.23724463 -8.39397917 -2.13014828 0.993302957 -6.57363408 -1.86910495 0.871576835 -5.23959419 -1.79897977 0.838877036 -4.19699095 -1.86910483 0.871577025 -3.1556662 -2.13014816 0.993303596 -1.82419848 -2.65328175 1.23724492 4.57102441e-07 1.08895945 -1.59629304 -4.19699135 1.13140768 -1.65851751 -3.15284887 0.152386589 -2.02160606 -4.1969912 0.158326691 -2.10040949 -3.15566647 1.28942315 -1.89014963 -1.81632774 0.18043944 -2.39375781 -1.82419878 1.60608739 -2.35434318 0.487269906 0.224753207 -2.98163032 -1.50819611e-07 1.13140747 -1.6585177 -5.23985282 0.158326503 -2.10040986 -5.23959446 1.28942218 -1.89014989 -6.57380049 0.180438624 -2.39375806 -6.57363367 1.60608591 -2.35434349 -8.88124988 0.224751954 -2.98163061 -8.39397954 0.224751954 -2.98163061 -8.39397954 0.180438624 -2.39375806 -6.57363367 0.158326503 -2.10040986 -5.23959446 0.152386589 -2.02160606 -4.1969912 0.158326691 -2.10040949 -3.15566647 0.18043944 -2.39375781 -1.82419878 0.224753207 -2.98163032 -1.50819611e-07 2.65328178 -1.23724519 -4.57102457e-07 2.13014746 -0.993303927 -1.82419873 1.86910411 -0.871577627 -3.15566638 1.79897836 -0.838877607 -4.19699146 1.86910344 -0.871577685 -5.23959437 2.13014655 -0.993303827 -6.57363398 2.65328053 -1.23724547 -8.39397993 2.83590297 0.283009255 -8.8812501 2.13014655 -0.993303827 -6.57363398 2.65328053 -1.23724547 -8.39397993 2.27676255 0.22721011 -6.57380067 1.86910344 -0.871577685 -5.23959437 1.99775237 0.199366188 -5.23985297 1.79897836 -0.838877607 -4.19699146 1.92280049 0.191886131 -4.1969915 2.13014746 -0.993303927 -1.82419873 2.83590438 0.283009434 0.487269821 2.65328178 -1.23724519 -4.57102457e-07 2.27676346 0.227210043 -1.81632756 1.86910411 -0.871577627 -3.15566638 1.99775269 0.199366196 -3.15284867 2.42852875 1.74438515 -3.06282863e-07 1.94970812 1.4004538 -1.82419856 1.71077722 1.22883238 -3.15566639 1.64659137 1.18272859 -4.19699111 1.71077654 1.22883241 -5.23959438 1.94970722 1.4004539 -6.57363398 2.4285275 1.74438486 -8.39397994 1.22981565 2.63735245 -8.88124989 1.94970722 1.4004539 -6.57363398 2.4285275 1.74438486 -8.39397994 0.987339403 2.11735962 -6.5738005 1.71077654 1.22883241 -5.23959438 0.866344144 1.85788354 -5.23985246 1.64659137 1.18272859 -4.19699111 0.833840315 1.78817916 -4.196991 0.86634462 1.85788376 -3.15284852 1.71077722 1.22883238 -3.15566639 0.987340208 2.11735969 -1.81632757 1.94970812 1.4004538 -1.82419856 1.22981701 2.63735311 0.487270165 2.42852875 1.74438515 -3.06282863e-07 -0.224752951 2.98163034 1.50819572e-07 -0.180439827 2.39375777 -1.82419843 -0.158327579 2.10040977 -3.15566612 -0.15238765 2.02160614 -4.19699085 -0.158327851 2.10041011 -5.23959411 -0.180440487 2.39375753 -6.57363368 -0.224754188 2.98162987 -8.39397955 -1.60608846 2.35434291 -8.88124946 -0.180440487 2.39375753 -6.57363368 -0.224754188 2.98162987 -8.39397955 -1.2894241 1.89014901 -6.57380016 -0.158327851 2.10041011 -5.23959411 -1.13140894 1.6585174 -5.23985252 -0.15238765 2.02160614 -4.19699085 -1.08896081 1.59629292 -4.19699106 -1.1314085 1.65851707 -3.15284857 -0.158327579 2.10040977 -3.15566612 -1.28942331 1.89014925 -1.81632758 -0.180439827 2.39375777 -1.82419843 -1.60608707 2.35434321 0.487270596 -0.224752951 2.98163034 1.50819572e-07 -2.65328175 1.23724492 4.57102441e-07 -2.13014816 0.993303596 -1.82419848 -1.86910483 0.871577025 -3.1556662 -1.79897977 0.838877036 -4.19699095 -1.86910495 0.871576835 -5.23959419 -2.13014828 0.993302957 -6.57363408 -2.653283 1.23724463 -8.39397917</float_array>
        <technique_common><accessor source="#vfx_kurp_0445-mesh-positions-array" count="126" stride="3"><param name="X" type="float"/><param name="Y" type="float"/><param name="Z" type="float"/></accessor></technique_common>
      </source>
      <source id="vfx_kurp_0445-mesh-normals">
        <float_array id="vfx_kurp_0445-mesh-normals-array" count="378">-0.422617854 -0.906307976 4.56734541e-05 -0.418261026 -0.896964951 -0.143218681 -0.597356888 -0.801975529 4.68516557e-07 -0.590982996 -0.794276843 -0.140937557 -0.411653211 -0.882793891 -0.226310804 -0.56599344 -0.791228313 -0.231536569 -0.406948082 -0.872703426 -0.269781372 -0.495524228 -0.820583569 -0.284777714 -0.418255252 -0.896952256 0.14331502 -0.59140525 -0.793946802 0.141025902 -0.4116778 -0.882846624 0.226060231 -0.5668887 -0.790618653 0.231428925 -0.406927784 -0.872659882 0.26995279 -0.495280217 -0.820546142 0.285309542 -0.94469565 -0.169793106 0.280571612 -0.942375222 -0.244550136 0.22830719 -0.961600792 -0.0732363116 0.264500206 -0.972329684 -0.0741050346 0.221547804 -0.953895655 -0.265879494 0.139252199 -0.987250668 -0.075120084 0.140332079 -0.963287092 -0.268473421 -3.50799991e-08 -0.997117738 -0.0758697214 4.44235633e-05 -0.987264478 -0.0751196342 -0.140235127 -0.95404789 -0.265378723 -0.139164499 -0.972275504 -0.0740897471 -0.221790563 -0.942615722 -0.243531621 -0.228403044 -0.961645843 -0.0732383116 -0.264335815 -0.944813519 -0.170000686 -0.280048533 -0.959857383 0.0257827109 0.279301015 -0.968977552 0.0990100982 0.226449785 -0.983396524 0.118103823 0.137777952 -0.992868095 0.119218059 -4.81045437e-07 -0.983468884 0.117594458 -0.137697123 -0.969057271 0.0979863797 -0.22655391 -0.960004582 0.0259685436 -0.278777399 0.582815647 -0.812604405 4.44816912e-05 0.577056451 -0.804574346 -0.140235426 0.413526421 -0.910492119 -8.66756559e-08 0.409958427 -0.90142512 -0.1391648 0.568210934 -0.792429923 -0.221790784 0.419345914 -0.878624437 -0.228403379 0.562030576 -0.783739819 -0.264336012 0.477086989 -0.833043035 -0.280048757 0.577047328 -0.804564059 0.140331949 0.409476776 -0.90163053 0.139252138 0.568234116 -0.792481295 0.221547707 0.418411228 -0.879094906 0.228307229 0.562003226 -0.783704133 0.264499917 0.477170002 -0.832819624 0.280571317 -0.310214401 -0.906843721 0.285309466 -0.241259554 -0.942461874 0.231429132 -0.228049785 -0.963382055 0.141025922 -0.230374443 -0.973102058 3.75403788e-07 -0.228573931 -0.963270754 -0.140937623 -0.242302041 -0.942167939 -0.231536814 -0.310086403 -0.907054571 -0.284777858 0.636972089 -0.718713787 -0.278777779 0.697960434 -0.679355961 -0.226553992 0.722244246 -0.677792461 -0.1376976 0.729529935 -0.683948882 -5.88287283e-07 0.722588205 -0.677409425 0.137777928 0.698693412 -0.678636951 0.226449561 0.636735689 -0.718720239 0.2793007 0.961600881 0.0732363545 0.264499872 0.968977595 -0.0990101452 0.226449577 0.959857509 -0.0257829861 0.279300554 0.972329723 0.074105142 0.221547595 0.983396532 -0.118103886 0.137777841 0.987250692 0.075120234 0.140331824 0.992868083 -0.11921816 -6.93555325e-07 0.997117737 0.0758697325 4.43324702e-05 0.969057215 -0.0979866223 -0.226554048 0.961645768 0.0732383331 -0.264336079 0.960004463 -0.0259682686 -0.278777833 0.972275463 0.0740897328 -0.221790745 0.983468841 -0.117594273 -0.137697588 0.987264413 0.075119655 -0.140235572 0.944813458 0.170000449 -0.280048882 0.942615633 0.243531792 -0.228403228 0.954047853 0.265378569 -0.139165045 0.963287026 0.268473658 -4.09168959e-07 0.953895588 0.265879904 0.139251874 0.942375236 0.244550264 0.228306994 0.944695714 0.169793373 0.280571235 0.406927875 0.87265991 0.269952562 0.566888859 0.790618571 0.231428816 0.495280363 0.820546155 0.285309252 0.411677925 0.88284663 0.226059978 0.591405531 0.793946629 0.1410257 0.418255637 0.89695211 0.143314811 0.597357158 0.801975328 -1.23778959e-08 0.422618122 0.906307851 4.52350196e-05 0.418261371 0.896964764 -0.143218849 0.590983219 0.794276633 -0.140937803 0.411653335 0.882793791 -0.226310969 0.565993535 0.79122817 -0.231536825 0.406948081 0.872703338 -0.269781658 0.495524259 0.820583432 -0.284778056 0.310086136 0.907054615 -0.284778007 0.242302074 0.942167915 -0.231536876 0.228574075 0.963270718 -0.140937629 0.230374782 0.973101978 1.81035664e-07 0.228050178 0.963381984 0.141025777 0.241259495 0.94246199 0.231428722 0.31021449 0.906843736 0.285309321 -0.562003178 0.783704086 0.264500158 -0.418411333 0.879094888 0.228307106 -0.477169747 0.83281976 0.280571347 -0.568234279 0.792481165 0.221547754 -0.409477139 0.901630377 0.139252059 -0.577047586 0.804563886 0.140331883 -0.413526688 0.910491998 2.46013306e-08 -0.582815797 0.812604298 4.47172878e-05 -0.577056786 0.804574155 -0.140235142 -0.40995893 0.901424902 -0.139164731 -0.568210997 0.792429912 -0.221790662 -0.419346161 0.878624368 -0.22840319 -0.562030616 0.783739853 -0.264335827 -0.477087045 0.833043034 -0.280048667 -0.636972269 0.718713744 -0.278777478 -0.697960273 0.679356146 -0.226553931 -0.722244299 0.677792469 -0.137697284 -0.729530166 0.683948637 -3.62969207e-07 -0.722588392 0.677409236 0.137777875 -0.698693435 0.678636866 0.226449746 -0.636735535 0.71872024 0.279301047</float_array>
        <technique_common><accessor source="#vfx_kurp_0445-mesh-normals-array" count="126" stride="3"><param name="X" type="float"/><param name="Y" type="float"/><param name="Z" type="float"/></accessor></technique_common>
      </source>
      <source id="vfx_kurp_0445-mesh-uv0">
        <float_array id="vfx_kurp_0445-mesh-uv0-array" count="252">0.833333373 0.5 0.833333373 0.666666687 0.916666687 0.5 0.916666687 0.666666687 0.833333373 0.833333373 0.916666687 0.833333373 0.833333373 1 0.916666687 1 0.833333373 0.333333373 0.916666687 0.333333373 0.833333373 0.166666746 0.916666687 0.166666746 0.833333373 0 0.916666687 0 0.916666687 0 0.916666687 0.166666746 1 0 1 0.166666746 0.916666687 0.333333373 1 0.333333373 0.916666687 0.5 1 0.5 1 0.666666687 0.916666687 0.666666687 1 0.833333373 0.916666687 0.833333373 1 1 0.916666687 1 1.08333337 0 1.08333337 0.166666746 1.08333337 0.333333373 1.08333337 0.5 1.08333337 0.666666687 1.08333337 0.833333373 1.08333337 1 0.666666687 0.5 0.666666687 0.666666687 0.75 0.5 0.75 0.666666687 0.666666687 0.833333373 0.75 0.833333373 0.666666687 1 0.75 1 0.666666687 0.333333373 0.75 0.333333373 0.666666687 0.166666746 0.75 0.166666746 0.666666687 0 0.75 0 0.75 0 0.75 0.166666746 0.75 0.333333373 0.75 0.5 0.75 0.666666687 0.75 0.833333373 0.75 1 0.583333373 1 0.583333373 0.833333373 0.583333373 0.666666687 0.583333373 0.5 0.583333373 0.333333373 0.583333373 0.166666746 0.583333373 0 0.5 0 0.583333373 0.166666746 0.583333373 0 0.5 0.166666746 0.583333373 0.333333373 0.5 0.333333373 0.583333373 0.5 0.5 0.5 0.583333373 0.833333373 0.5 1 0.583333373 1 0.5 0.833333373 0.583333373 0.666666687 0.5 0.666666687 0.416666687 1 0.416666687 0.833333373 0.416666687 0.666666687 0.416666687 0.5 0.416666687 0.333333373 0.416666687 0.166666746 0.416666687 0 0.333333373 0 0.416666687 0.166666746 0.416666687 0 0.333333373 0.166666746 0.416666687 0.333333373 0.333333373 0.333333373 0.416666687 0.5 0.333333373 0.5 0.333333373 0.666666687 0.416666687 0.666666687 0.333333373 0.833333373 0.416666687 0.833333373 0.333333373 1 0.416666687 1 0.25000003 1 0.25000003 0.833333373 0.25000003 0.666666687 0.25000003 0.5 0.25000003 0.333333373 0.25000003 0.166666746 0.25000003 0 0.166666687 0 0.25000003 0.166666746 0.25000003 0 0.166666687 0.166666746 0.25000003 0.333333373 0.166666687 0.333333373 0.25000003 0.5 0.166666687 0.5 0.166666687 0.666666687 0.25000003 0.666666687 0.166666687 0.833333373 0.25000003 0.833333373 0.166666687 1 0.25000003 1 0.0833333582 1 0.0833333582 0.833333373 0.0833333582 0.666666687 0.0833333582 0.5 0.0833333582 0.333333373 0.0833333582 0.166666746 0.0833333582 0</float_array>
        <technique_common><accessor source="#vfx_kurp_0445-mesh-uv0-array" count="126" stride="2"><param name="S" type="float"/><param name="T" type="float"/></accessor></technique_common>
      </source>
      <vertices id="vfx_kurp_0445-mesh-vertices"><input semantic="POSITION" source="#vfx_kurp_0445-mesh-positions"/></vertices>
      <triangles material="PreviewMaterial" count="144">
        <input semantic="VERTEX" source="#vfx_kurp_0445-mesh-vertices" offset="0"/>
        <input semantic="NORMAL" source="#vfx_kurp_0445-mesh-normals" offset="1"/>
        <input semantic="TEXCOORD" source="#vfx_kurp_0445-mesh-uv0" offset="2" set="0"/>
        <p>0 0 0 1 1 1 2 2 2 2 2 2 1 1 1 3 3 3 4 4 4 3 3 3 1 1 1 3 3 3 4 4 4 5 5 5 6 6 6 5 5 5 4 4 4 5 5 5 6 6 6 7 7 7 0 0 0 2 2 2 8 8 8 9 9 9 8 8 8 2 2 2 8 8 8 9 9 9 10 10 10 11 11 11 10 10 10 9 9 9 10 10 10 11 11 11 12 12 12 12 12 12 11 11 11 13 13 13 14 14 14 15 15 15 16 16 16 16 16 16 15 15 15 17 17 17 18 18 18 17 17 17 15 15 15 17 17 17 18 18 18 19 19 19 20 20 20 19 19 19 18 18 18 19 19 19 20 20 20 21 21 21 21 21 21 20 20 20 22 22 22 23 23 23 22 22 22 20 20 20 22 22 22 23 23 23 24 24 24 25 25 25 24 24 24 23 23 23 24 24 24 25 25 25 26 26 26 27 27 27 26 26 26 25 25 25 28 28 28 16 16 16 29 29 29 17 17 17 29 29 29 16 16 16 29 29 29 17 17 17 30 30 30 19 19 19 30 30 30 17 17 17 30 30 30 19 19 19 31 31 31 21 21 21 31 31 31 19 19 19 22 22 22 31 31 31 21 21 21 31 31 31 22 22 22 32 32 32 24 24 24 32 32 32 22 22 22 32 32 32 24 24 24 33 33 33 26 26 26 33 33 33 24 24 24 33 33 33 26 26 26 34 34 34 35 35 35 36 36 36 37 37 37 37 37 37 36 36 36 38 38 38 39 39 39 38 38 38 36 36 36 38 38 38 39 39 39 40 40 40 41 41 41 40 40 40 39 39 39 40 40 40 41 41 41 42 42 42 35 35 35 37 37 37 43 43 43 44 44 44 43 43 43 37 37 37 43 43 43 44 44 44 45 45 45 46 46 46 45 45 45 44 44 44 45 45 45 46 46 46 47 47 47 47 47 47 46 46 46 48 48 48 49 49 49 50 50 50 12 12 12 12 12 12 50 50 50 10 10 10 51 51 51 10 10 10 50 50 50 10 10 10 51 51 51 8 8 8 52 52 52 8 8 8 51 51 51 8 8 8 52 52 52 0 0 0 0 0 0 52 52 52 1 1 1 53 53 53 1 1 1 52 52 52 1 1 1 53 53 53 4 4 4 54 54 54 4 4 4 53 53 53 4 4 4 54 54 54 6 6 6 55 55 55 6 6 6 54 54 54 56 56 56 41 41 41 57 57 57 39 39 39 57 57 57 41 41 41 57 57 57 39 39 39 58 58 58 36 36 36 58 58 58 39 39 39 58 58 58 36 36 36 59 59 59 35 35 35 59 59 59 36 36 36 43 43 43 59 59 59 35 35 35 59 59 59 43 43 43 60 60 60 45 45 45 60 60 60 43 43 43 60 60 60 45 45 45 61 61 61 47 47 47 61 61 61 45 45 45 62 62 62 61 61 61 47 47 47 63 63 63 64 64 64 65 65 65 66 66 66 64 64 64 63 63 63 64 64 64 66 66 66 67 67 67 68 68 68 67 67 67 66 66 66 67 67 67 68 68 68 69 69 69 70 70 70 69 69 69 68 68 68 71 71 71 72 72 72 73 73 73 72 72 72 71 71 71 74 74 74 75 75 75 74 74 74 71 71 71 74 74 74 75 75 75 76 76 76 69 69 69 76 76 76 75 75 75 70 70 70 76 76 76 69 69 69 77 77 77 72 72 72 78 78 78 74 74 74 78 78 78 72 72 72 78 78 78 74 74 74 79 79 79 76 76 76 79 79 79 74 74 74 79 79 79 76 76 76 80 80 80 70 70 70 80 80 80 76 76 76 68 68 68 80 80 80 70 70 70 80 80 80 68 68 68 81 81 81 66 66 66 81 81 81 68 68 68 81 81 81 66 66 66 82 82 82 63 63 63 82 82 82 66 66 66 83 83 83 82 82 82 63 63 63 84 84 84 85 85 85 86 86 86 87 87 87 85 85 85 84 84 84 85 85 85 87 87 87 88 88 88 89 89 89 88 88 88 87 87 87 88 88 88 89 89 89 90 90 90 91 91 91 90 90 90 89 89 89 91 91 91 92 92 92 90 90 90 90 90 90 92 92 92 93 93 93 94 94 94 93 93 93 92 92 92 93 93 93 94 94 94 95 95 95 96 96 96 95 95 95 94 94 94 95 95 95 96 96 96 97 97 97 98 98 98 96 96 96 99 99 99 94 94 94 99 99 99 96 96 96 99 99 99 94 94 94 100 100 100 92 92 92 100 100 100 94 94 94 100 100 100 92 92 92 101 101 101 91 91 91 101 101 101 92 92 92 89 89 89 101 101 101 91 91 91 101 101 101 89 89 89 102 102 102 87 87 87 102 102 102 89 89 89 102 102 102 87 87 87 103 103 103 84 84 84 103 103 103 87 87 87 104 104 104 103 103 103 84 84 84 105 105 105 106 106 106 107 107 107 108 108 108 106 106 106 105 105 105 106 106 106 108 108 108 109 109 109 110 110 110 109 109 109 108 108 108 109 109 109 110 110 110 111 111 111 112 112 112 111 111 111 110 110 110 112 112 112 113 113 113 111 111 111 111 111 111 113 113 113 114 114 114 115 115 115 114 114 114 113 113 113 114 114 114 115 115 115 116 116 116 117 117 117 116 116 116 115 115 115 116 116 116 117 117 117 118 118 118 119 119 119 117 117 117 120 120 120 115 115 115 120 120 120 117 117 117 120 120 120 115 115 115 121 121 121 113 113 113 121 121 121 115 115 115 121 121 121 113 113 113 122 122 122 112 112 112 122 122 122 113 113 113 110 110 110 122 122 122 112 112 112 122 122 122 110 110 110 123 123 123 108 108 108 123 123 123 110 110 110 123 123 123 108 108 108 124 124 124 105 105 105 124 124 124 108 108 108 124 124 124 105 105 105 125 125 125</p>
      </triangles>
    </mesh></geometry>
  </library_geometries>
  <library_visual_scenes>
    <visual_scene id="Scene" name="Scene">
      <node id="vfx_kurp_0445" name="vfx_kurp_0445" type="NODE">
        <instance_geometry url="#vfx_kurp_0445-mesh"><bind_material><technique_common><instance_material symbol="PreviewMaterial" target="#PreviewMaterial"><bind_vertex_input semantic="UVSET0" input_semantic="TEXCOORD" input_set="0"/></instance_material></technique_common></bind_material></instance_geometry>
      </node>
    </visual_scene>
  </library_visual_scenes>
  <scene><instance_visual_scene url="#Scene"/></scene>
</COLLADA>
