<?xml version="1.0" encoding="utf-8"?>
<COLLADA xmlns="http://www.collada.org/2005/11/COLLADASchema" version="1.4.1">
  <asset>
    <contributor><authoring_tool>Morrobroom Kurpulio VFX preview converter</authoring_tool></contributor>
    <unit name="unit" meter="1"/>
    <up_axis>Z_UP</up_axis>
  </asset>
  <library_images>
    <image id="VFXTexture" name="darkmap_newgen-1.dds">
      <init_from>../../../Textures/Kurp/darkmap_newgen-1.dds</init_from>
    </image>
  </library_images>
  <library_effects>
    <effect id="PreviewEffect">
      <profile_COMMON>
        <newparam sid="VFXTexture-surface">
          <surface type="2D"><init_from>VFXTexture</init_from></surface>
        </newparam>
        <newparam sid="VFXTexture-sampler">
          <sampler2D><source>VFXTexture-surface</source></sampler2D>
        </newparam>
        <technique sid="common"><phong>
          <emission><color>0.08 0.08 0.08 1</color></emission>
          <ambient><color>0.2 0.2 0.2 1</color></ambient>
          <diffuse><texture texture="VFXTexture-sampler" texcoord="UVSET0"/></diffuse>
          <specular><color>0.15 0.15 0.15 1</color></specular>
          <shininess><float>8</float></shininess>
          <transparent opaque="A_ONE"><texture texture="VFXTexture-sampler" texcoord="UVSET0"/></transparent>
          <transparency><float>1</float></transparency>
        </phong></technique>
      </profile_COMMON>
      <extra><technique profile="GOOGLEEARTH"><double_sided>1</double_sided></technique></extra>
    </effect>
  </library_effects>
  <library_materials><material id="PreviewMaterial" name="PreviewMaterial"><instance_effect url="#PreviewEffect"/></material></library_materials>
  <library_geometries>
    <geometry id="vfx_kurp_0122-mesh" name="vfx_kurp_0122"><mesh>
      <source id="vfx_kurp_0122-mesh-positions">
        <float_array id="vfx_kurp_0122-mesh-positions-array" count="1656">-3.63241267 -1.18030733 4.38466358 0.203313544 -0.259456515 -0.408948988 -3.84461725 -0.0756618194 4.82396901 -0.00889118202 0.845188916 0.030357074 -1.47424364 -1.60696828 2.58612192 0.354303315 0.0236922763 -0.197299138 -1.98518872 -1.06976563 2.59888369 -0.156641856 0.560894877 -0.184536785 -2.53000295 -1.58767086 1.75526315 0.31315966 -0.102304123 -0.203029744 -2.9602983 -0.798241317 1.77815527 -0.117135733 0.687125444 -0.180137526 -3.3254267 -0.198088244 2.66670209 -0.0315300487 -0.382803038 -0.816501349 -3.06706989 1.15503466 3.91899812 0.226826504 0.970319867 0.435795039 -0.648191392 -1.66347384 0.704651356 0.34009324 -0.0462108795 -0.389891133 -1.09092969 -1.37012744 0.954060674 -0.1026452 0.247135565 -0.140481345 -1.40971935 -1.73887682 0.122676998 0.330439478 -0.138551172 -0.453860521 -1.83436382 -1.26082259 0.49919048 -0.0942051038 0.339502797 -0.0773473084 -2.60157645 -1.15106374 7.38001084 0.177268267 -0.260195419 -0.484630778 -2.80035996 -0.0460373741 7.85831666 -0.0215151482 0.844830841 -0.00632541999 -1.43196219 -1.6057688 2.70898104 0.126761265 0.0172371799 -0.858478814 -1.52776265 -1.05678874 3.9280479 0.0309607387 0.56621705 0.360588424 -1.30067664 -1.5527966 5.32737386 0.117889568 -0.107843701 -0.77043584 -1.37850755 -0.753367603 6.37443852 0.0400585039 0.69158484 0.276629068 -1.80581903 -0.154978774 7.08229709 0.295656726 -0.373521119 0.134219974 -2.24028611 1.17848942 6.32142305 -0.138810631 0.95994705 -0.626654774 -0.488103569 -1.65893233 1.16982579 0.201955497 -0.0501296818 -0.79128474 -0.673765674 -1.358293 2.16623318 0.0162931625 0.250509717 0.205123276 -0.402664393 -1.71030772 3.04892313 0.224321187 -0.141561594 -0.762213707 -0.632956803 -1.22673994 3.99017537 -0.00597107084 0.342005879 0.17903848 -2.56875372 2.53507018 3.04031897 -2.91556853 1.74334145 3.63856173 0.264554635 0.83654514 -0.464810729 -0.0822600033 0.0448163096 0.133431964 -0.811308414 2.37893808 1.56481433 -1.30275571 2.04689634 1.68628782 0.338229574 0.606760919 -0.227808014 -0.15321777 0.274719246 -0.106334388 -1.65263647 2.47861594 0.883542359 -2.12223655 1.93787724 1.07306018 0.326636419 0.711105645 -0.262351982 -0.14296373 0.170367301 -0.0728339609 -2.5025804 1.59620297 1.90851831 -2.51362789 0.592277884 3.22136557 0.0968597308 0.941800743 -0.822737575 0.0858121589 -0.0621242188 0.490109906 -0.165370222 2.14970881 0.076509811 -0.56089595 2.01308048 0.331564486 0.33715041 0.649500221 -0.397291124 -0.0583753511 0.512871891 -0.142236292 -1.73868978 2.55861765 5.45227468 -2.07469708 1.76719558 6.08192182 0.243582219 0.835950226 -0.52575253 -0.0924252681 0.0445278939 0.103894003 -0.777261794 2.37990367 1.66374475 -0.934420556 2.05734551 2.7565763 0.155004926 0.601563066 -0.760212421 -0.00215382292 0.279004678 0.332619064 -0.662741214 2.50669777 3.75992811 -0.848525047 1.97401071 4.77414429 0.169398263 0.706644997 -0.719246596 -0.0163854361 0.17395813 0.294969834 -1.27894038 1.63091576 5.46410644 -1.84787321 0.611164302 5.15587986 0.360321589 0.94927454 -0.0571841598 -0.208611399 -0.0704766624 -0.365410723 -0.0364621365 2.15336555 0.451084211 -0.224981323 2.02260965 1.30764735 0.225917146 0.646344781 -0.720506832 0.0373978168 0.515588835 0.136056393 0.053612452 2.31530285 1.93463105 -0.200785495 2.04574192 2.78838909 0.258902371 0.715822041 -0.717908978 0.00450454932 0.446261019 0.135848969 -2.87899268 2.99311638 4.38466322 -0.163649205 0.131704856 -0.408948988 -2.02844399 3.72921395 4.82396865 0.686899468 0.867802352 0.0303570265 -2.16940713 0.910756499 2.58612174 0.157059722 0.142518327 -0.197299115 -1.95964891 1.62184936 2.59888351 0.366818257 0.853611231 -0.184536841 -2.68057483 1.8347193 1.75526279 0.0273718229 0.115151569 -0.203029722 -2.21205658 2.60208106 1.77815491 0.495890111 0.882513106 -0.180137582 -1.87487322 3.21836829 2.66670191 -0.387892216 0.273412071 -0.816501349 -0.573855937 3.67118597 3.91899776 0.9131248 0.726230353 0.435794994 -1.80531639 0.167121235 0.704651311 0.0894167963 0.119872984 -0.389891133 -1.77264011 0.697216988 0.954060584 0.122093026 0.649969026 -0.14048139 -2.25138116 0.78892225 0.122676875 0.00462086988 0.0820632465 -0.453860521 -2.04969656 1.3957023 0.499190256 0.206305414 0.68884331 -0.0773473531 -2.33824933 2.11500853 7.38001084 -0.17731173 0.153891273 -0.484630778 -1.48065993 2.8396731 7.85831666 0.680277362 0.878556043 -0.00632547028 -2.14722776 0.874739438 2.70898086 0.0376984393 0.336347893 -0.858478814 -1.71969742 1.2321952 3.9280479 0.465228662 0.693803698 0.360588379 -2.03570992 0.787529379 5.32737386 -0.0750606302 0.281490549 -0.77043584 -1.38229966 1.25464743 6.37443852 0.578349218 0.748608649 0.276629023 -1.07773554 1.92390472 7.08229709 -0.216260456 -0.00529890892 0.134219997 -0.140151624 2.96689832 6.32142305 0.721323207 1.0376949 -0.626654863 -1.72133946 0.030751884 1.16982579 0.0169541384 0.237544343 -0.79128474 -1.55380923 0.341859855 2.16623318 0.184484281 0.548652515 0.205123253 -1.7231124 -0.068927994 3.04892313 -0.0510453712 0.172459122 -0.762213707 -1.41947669 0.372295104 3.99017537 0.25259015 0.613681957 0.179038446 0.870447904 3.92964935 3.04031861 0.0113832133 3.83413553 3.63856137 0.816136658 0.626669392 -0.464810729 -0.0429280093 0.531155303 0.13343193 1.61395651 2.32959098 1.56481415 1.08067623 2.58917606 1.68628764 0.653975084 0.447972938 -0.227808014 0.120694891 0.707557976 -0.106334433 1.27961594 3.10804152 0.883542091 0.576522365 3.24435747 1.07305992 0.738543749 0.510185301 -0.262351982 0.0354504744 0.64650178 -0.0728340056 0.0904519334 3.40290785 1.90851796 -0.784496516 2.91051275 3.22136521 0.823443264 0.824525177 -0.822737575 -0.0515051465 0.33213032 0.490109906 1.73840725 1.65557724 0.076509716 1.42232063 1.92979842 0.331564352 0.69044888 0.470277205 -0.397291124 0.374362327 0.744498387 -0.142236337 1.30587262 3.2225672 5.45227432 0.452477261 3.11784697 6.08192182 0.80513522 0.644534603 -0.525752574 -0.0482604224 0.539814457 0.10389398 1.63181609 2.30058861 1.66374457 1.27389309 2.27541322 2.75657612 0.557861343 0.604051128 -0.760212421 0.199938163 0.578875557 0.332619019 1.79888302 2.26480812 3.75992775 1.24467051 2.15935814 4.77414393 0.65606162 0.644127086 -0.719246596 0.101849355 0.538677201 0.29496979 0.732333899 2.36056137 5.46410608 -0.435263112 2.34339595 5.1558795 0.961646587 0.600097552 -0.0571841765 -0.205950357 0.582932264 -0.365410767 1.80602807 1.54576796 0.451084122 1.59853059 1.6436525 1.30764726 0.632099524 0.565030172 -0.720506832 0.424601868 0.662914887 0.13605636 1.9913072 1.54873002 1.93463087 1.63066149 1.63426459 2.78838891 0.70876126 0.571202874 -0.717908978 0.348115593 0.656737357 0.135848925 1.11200827 4.42734754 4.38466287 -0.00837490428 0.645084679 -0.408949032 2.17476153 4.05879951 4.82396865 1.05437851 0.276536755 0.0303570433 -0.336575478 2.77164835 2.58612138 0.161344294 0.372749358 -0.197299138 0.384128138 2.94553864 2.59888315 0.882048011 0.546639562 -0.184536863 0.208015971 3.676314 1.75526243 0.0728000309 0.471379012 -0.203029767 1.10682982 3.65424585 1.77815473 0.971613765 0.449311003 -0.180137582 1.80914176 3.67038023 2.66670156 0.00222565827 0.910138339 -0.816501349 2.85180241 2.7700755 3.91899741 1.04488626 0.00983389188 0.435795039 -0.798536986 2.08451843 0.704651088 0.107911393 0.420007154 -0.389891133 -0.323122501 2.3212679 0.954060316 0.583326146 0.656756759 -0.140481435 -0.48307389 2.78172219 0.122676596 0.0327692376 0.474537671 -0.453860521 0.143255297 2.91044837 0.499189988 0.659098417 0.60326381 -0.077347381 0.621916115 3.51999629 7.38001013 0.00400783983 0.668009967 -0.484630778 1.67828876 3.13963473 7.85831594 1.06038049 0.287648454 -0.00632545492 -0.356677473 2.7344318 2.7089805 0.269524992 0.573033974 -0.858478904 0.166653369 2.54290777 3.92804754 0.792855799 0.38150999 0.360588379 -0.376444727 2.5942499 5.3273735 0.165637616 0.643257514 -0.770435929 0.354796439 2.26193923 6.37443781 0.89687866 0.310947172 0.276629046 1.08667222 2.33280766 7.08229709 -0.153329294 0.622145534 0.134219941 2.45872325 2.04233265 6.32142234 1.21872175 0.331671059 -0.626654819 -0.874647886 1.94360769 1.16982552 0.173586465 0.541597277 -0.79128474 -0.521455407 1.95407635 2.166233 0.526779056 0.552066118 0.205123208 -0.961859733 1.89530343 3.04892278 0.0832212511 0.567943946 -0.762213707 -0.427931517 1.85295886 3.99017501 0.617149159 0.52559942 0.179038424 3.79778981 1.64850301 3.04031861 3.2855401 2.3447181 3.63856101 0.910169899 0.0440475158 -0.464810729 0.397919923 0.74026233 0.133431885 2.78385293 0.204576239 1.56481415 2.74202013 0.796203017 1.68628764 0.674333408 0.0951353163 -0.227807991 0.632500559 0.68676205 -0.106334466 3.29084086 0.883348703 0.883542091 3.05734706 1.5604037 1.07305983 0.770495206 0.0530028697 -0.26235196 0.537002116 0.730057776 -0.0728340503 2.95162064 2.06062835 1.90851778 2.08771956 2.57215869 3.22136486 1.08517134 0.136647664 -0.822737575 0.221270643 0.648177937 0.490109906 2.26236534 -0.240208291 0.0765098166 2.34180468 0.170641288 0.331564397 0.711886391 0.0747001693 -0.397291079 0.791325599 0.485549748 -0.142236359 3.40315104 0.917873383 5.45227432 2.88576293 1.6045754 6.0819211 0.920140833 0.0625075847 -0.52575253 0.402752772 0.749209955 0.103893925 2.76766598 0.174608286 1.66374457 2.56690192 0.471991092 2.75657612 0.761444271 0.256411292 -0.760212421 0.560679942 0.55379422 0.332618997 2.8202126 0.0120341149 3.75992811 2.45178401 0.439271361 4.77414429 0.845251143 0.191405363 -0.719246596 0.476822734 0.618642434 0.29496979 2.36986291 0.983569622 5.46410608 1.77119869 1.98615557 5.1558795 0.959912896 -0.0952537358 -0.0571841262 0.36124894 0.907332212 -0.365410835 2.2010783 -0.35367427 0.451084256 2.18210006 -0.125033777 1.30764735 0.76477021 0.172608677 -0.720506832 0.745792016 0.401249394 0.136056349 2.29628295 -0.512649402 1.93463105 2.19003528 -0.157553684 2.78838909 0.808446765 0.109303985 -0.717908978 0.702199012 0.464399636 0.135848913 4.34958923 1.68815482 4.38466251 0.513862163 0.76730302 -0.408949077 4.5617938 0.58350943 4.82396865 0.726067007 -0.337342344 0.0303571131 2.19141984 2.11481524 2.5861212 0.362872459 0.484154284 -0.19729916 2.70236528 1.57761276 2.59888315 0.873817652 -0.0530483499 -0.184536807 3.24717879 2.09551781 1.75526243 0.404016092 0.610150695 -0.203029811 3.6774745 1.30608827 1.77815473 0.834311485 -0.179278839 -0.180137526 4.0426029 0.705935374 2.66670156 0.748705655 0.890649498 -0.816501439 3.7842468 -0.647187263 3.91899776 0.490349382 -0.462473139 0.435795128 1.36536732 2.17132044 0.704650953 0.377082467 0.554057434 -0.389891177 1.80810553 1.87797421 0.954060137 0.81982094 0.260710984 -0.140481412 2.12689519 2.24672323 0.12267644 0.386736229 0.64639771 -0.453860566 2.55153984 1.76866919 0.499189943 0.811380923 0.168343809 -0.0773473587 3.31875372 1.65891176 7.38001013 0.539907396 0.768041879 -0.484630823 3.51753724 0.553885549 7.85831594 0.738690957 -0.336984292 -0.00632538437 2.14913857 2.11361593 2.7089805 0.590414375 0.490609244 -0.858478904 2.24493921 1.56463623 3.92804718 0.686215147 -0.0583703611 0.360588424 2.01785374 2.06064427 5.32737315 0.599286094 0.615690172 -0.770435929 2.09568465 1.26121554 6.37443781 0.677117318 -0.18373818 0.27662909 2.52299631 0.662826821 7.08229709 0.421519071 0.881367713 0.134219874 2.9574632 -0.670641571 6.32142305 0.855986327 -0.452100635 -0.626654774 1.20527959 2.1667791 1.16982543 0.515220165 0.557976097 -0.791284829 1.39094192 1.86613995 2.166233 0.700882673 0.257336944 0.205123231 1.11984077 2.21815503 3.04892313 0.492854476 0.649408042 -0.762213796 1.35013345 1.73458743 3.99017501 0.723146886 0.16584076 0.179038446 3.28592992 -2.02722269 3.04031897 3.63274527 -1.23549396 3.63856137 0.452621073 -0.328698635 -0.46481064 0.799435794 0.463030323 0.133431874 1.52848452 -1.87109131 1.56481451 2.01993191 -1.53904939 1.68628782 0.3789462 -0.0989143252 -0.227807947 0.870393544 0.233127348 -0.106334455 2.36981231 -1.97076917 0.883542269 2.83941257 -1.43003029 1.07306018 0.390539333 -0.20325914 -0.262351915 0.860139459 0.337479293 -0.0728340447 3.21975625 -1.08835602 1.90851814 3.23080444 -0.0844306033 3.22136521 0.620315909 -0.433954284 -0.822737485 0.631363705 0.569970891 0.490109861 0.882546008 -1.64186203 0.0765100233 1.27807179 -1.50523371 0.33156462 0.380025297 -0.141653739 -0.397291034 0.775551081 -0.00502530963 -0.142236315 2.45586669 -2.05076981 5.45227468 2.79187399 -1.25934765 6.08192182 0.473593488 -0.328103743 -0.52575244 0.809601098 0.463318706 0.103893925 1.49443799 -1.87205672 1.66374493 1.65159702 -1.54949856 2.75657648 0.562170714 -0.0937166065 -0.760212421 0.7193297 0.228841983 0.332619019 1.37991777 -1.99885029 3.75992846 1.56570178 -1.46616295 4.77414429 0.547777399 -0.198798515 -0.719246551 0.733561322 0.333888553 0.29496979 1.99611729 -1.12306792 5.46410644 2.56505013 -0.103316657 5.1558795 0.356854208 -0.441427991 -0.0571840536 0.925787151 0.5783232 -0.365410835 0.753638059 -1.64551896 0.451084435 0.942157388 -1.51476288 1.30764744 0.491258517 -0.138498299 -0.720506743 0.679778025 -0.00774221797 0.136056382 0.663563713 -1.80745572 1.93463123 0.917961895 -1.53789461 2.78838927 0.458273292 -0.207975626 -0.717908889 0.712671295 0.0615855921 0.135848947 -0.394831538 -3.91949987 4.38466358 0.725550681 -0.13723813 -0.408949032 -1.4575848 -3.55095184 4.82396901 -0.337202713 0.231309906 0.0303571494 1.05375177 -2.26380122 2.58612174 0.555831492 0.135097213 -0.19729916 0.33304815 -2.43769151 2.59888369 -0.164872214 -0.0387929594 -0.184536729 0.509160161 -3.16846704 1.75526297 0.644375727 0.036467582 -0.203029767 -0.389653623 -3.1463989 1.77815527 -0.254437968 0.0585355908 -0.18013747 -1.09196556 -3.16253257 2.66670209 0.714949965 -0.402291834 -0.816501439 -2.13462585 -2.26222783 3.91899848 -0.327710308 0.498012811 0.435795128 1.51571292 -1.57667148 0.704651222 0.609264314 0.0878393836 -0.389891177 1.04029852 -1.81342113 0.954060495 0.133849673 -0.148910142 -0.140481334 1.20024964 -2.27387559 0.122676853 0.684406444 0.0333088227 -0.453860566 0.573920578 -2.4026016 0.49919039 0.0580773801 -0.0954172164 -0.0773472805 0.0952611566 -3.01214826 7.38001084 0.713167906 -0.16016344 -0.484630778 -0.961111307 -2.63178635 7.85831666 -0.343204603 0.220198184 -0.00632534525 1.07385376 -2.22658467 2.70898086 0.447650671 -0.0651874915 -0.858478814 0.550523221 -2.03506029 3.9280479 -0.0756799467 0.126336694 0.360588446 1.09362155 -2.08640206 5.32737386 0.55153808 -0.135411043 -0.77043584 0.362380654 -1.7540912 6.37443852 -0.179702774 0.196899489 0.276629113 -0.36949499 -1.82495964 7.08229709 0.870505124 -0.114298895 0.134219918 -1.74154598 -1.53448462 6.32142305 -0.501545995 0.176175445 -0.626654729 1.59182382 -1.43576074 1.16982561 0.543589175 -0.0337508172 -0.79128474 1.23863161 -1.44622931 2.16623318 0.190396808 -0.0442194482 0.205123276 1.67903602 -1.38745612 3.04892278 0.633954406 -0.0600975081 -0.762213707 1.14510807 -1.34511137 3.99017537 0.100026682 -0.017752762 0.179038502 -3.08061361 -1.1406557 3.04031932 -2.56836355 -1.83687061 3.63856208 -0.192994125 0.463799 -0.46481064 0.319255918 -0.232415691 0.133431964 -2.06667691 0.303270757 1.56481469 -2.02484393 -0.288356066 1.68628818 0.042842377 0.412711233 -0.227807969 0.0846752375 -0.178915445 -0.106334366 -2.57366467 -0.375501841 0.883542627 -2.34017086 -1.05255693 1.07306045 -0.053319443 0.45484364 -0.262351938 0.180173703 -0.222211137 -0.0728339553 -2.23444426 -1.5527814 1.90851849 -1.370543 -2.06431139 3.22136557 -0.367995635 0.371198773 -0.822737485 0.49590531 -0.140331209 0.490109906 -1.5451895 0.748054951 0.0765100233 -1.62462866 0.337205417 0.331564687 0.00528938742 0.433146358 -0.397291079 -0.0741498023 0.0222968152 -0.142236248 -2.68597412 -0.410025537 5.45227504 -2.16858602 -1.09672746 6.08192182 -0.202965125 0.44533892 -0.52575244 0.314423069 -0.241363272 0.103894014 -2.05048978 0.333238699 1.66374511 -1.84972554 0.0358561222 2.75657648 -0.0442685578 0.25143519 -0.760212332 0.156495966 -0.0459475257 0.332619086 -2.10303605 0.49581331 3.75992846 -1.7346071 0.0685762614 4.77414465 -0.128075503 0.316441119 -0.719246551 0.240353152 -0.110795751 0.294969834 -1.65268582 -0.475721866 5.46410644 -1.05402178 -1.47830781 5.15587986 -0.242737144 0.60310033 -0.0571840871 0.355926812 -0.399485707 -0.365410723 -1.48390228 0.861520886 0.45108439 -1.46492395 0.632880673 1.30764753 -0.0475945361 0.335237771 -0.720506743 -0.0286161415 0.106597289 0.136056427 -1.57910657 1.02049649 1.93463105 -1.47285882 0.665400892 2.78838927 -0.0912710689 0.398542464 -0.717908889 0.0149768698 0.0434469748 0.135849003 3.59616923 -2.48526925 4.38466322 0.880824924 0.376141638 -0.408949077 2.74562055 -3.22136629 4.82396865 0.0302763144 -0.359955736 0.0303571662 2.88658369 -0.402909681 2.58612138 0.560116053 0.365328223 -0.197299182 2.67682511 -1.1140025 2.59888333 0.350357473 -0.34576457 -0.184536751 3.39775085 -1.32687271 1.75526261 0.689803988 0.39269498 -0.203029811 2.9292326 -2.09423411 1.77815491 0.221285596 -0.374666534 -0.18013747 2.59204906 -2.71052134 2.66670191 1.10506788 0.234434322 -0.816501439 1.29103222 -3.16333902 3.91899812 -0.195948936 -0.218383603 0.435795173 2.52249241 0.340725303 0.704650998 0.62775895 0.387973532 -0.389891177 2.48981595 -0.189370394 0.954060316 0.595082715 -0.142122433 -0.140481379 2.968557 -0.28107588 0.122676574 0.712554887 0.425783247 -0.453860611 2.76687241 -0.887855798 0.499190122 0.510870337 -0.180996694 -0.0773473084 3.05542624 -1.60716069 7.38001013 0.89448747 0.353955187 -0.484630823 2.19783711 -2.33182526 7.85831666 0.0368983811 -0.37070936 -0.00632532989 2.86440414 -0.366892532 2.7089805 0.67947717 0.171498545 -0.858478904 2.43687415 -0.724347979 3.92804754 0.251947224 -0.185956981 0.360588446 2.75288683 -0.279681914 5.3273735 0.792236298 0.226355866 -0.770435929 2.09947675 -0.746799722 6.37443852 0.138826612 -0.240761966 0.276629135 1.79491264 -1.41605678 7.08229709 0.933436275 0.513145521 0.134219863 0.857328504 -2.4590503 6.32142305 -0.0041476147 -0.529848397 -0.626654685 2.43851548 0.477094755 1.16982543 0.700221509 0.270302095 -0.791284829 2.27098542 0.165987007 2.166233 0.532691583 -0.0408058343 0.205123253 2.44028878 0.576775029 3.04892313 0.768221051 0.335387327 -0.762213796 2.13665324 0.135552149 3.99017501 0.464585647 -0.105835296 0.17903848 -0.153271861 -3.42180204 3.04031932 0.705792993 -3.32628822 3.63856173 -0.0989609286 -0.11882282 -0.464810595 0.760103792 -0.0233086995 0.133431919 -0.89678058 -1.82174385 1.56481469 -0.363500342 -2.08132893 1.68628818 0.0632006731 0.059873689 -0.227807924 0.596480861 -0.199711405 -0.106334388 -0.562440276 -2.60019439 0.883542627 0.140653376 -2.73651069 1.07306036 -0.0213680207 -0.00233866484 -0.262351915 0.681725308 -0.138655163 -0.0728339944 0.62672393 -2.8950609 1.90851849 1.5016728 -2.40266562 3.22136557 -0.106267601 -0.316678673 -0.822737485 0.768681049 0.175716363 0.490109861 -1.0212315 -1.14773038 0.0765101295 -0.705144972 -1.42195147 0.331564754 0.0267268214 0.0375694083 -0.397291034 0.342813402 -0.236651771 -0.14223627 -0.588696018 -2.71471918 5.45227504 0.264699474 -2.60999912 6.08192182 -0.0879595466 -0.136688009 -0.525752395 0.765436292 -0.0319678662 0.103893958 -0.914640158 -1.79274148 1.66374511 -0.556716934 -1.76756591 2.75657666 0.159314297 -0.0962046236 -0.760212332 0.517237678 -0.0710288733 0.332619064 -1.08170664 -1.75696063 3.75992846 -0.527493909 -1.65151048 4.77414465 0.0611140262 -0.136280593 -0.719246551 0.615326509 -0.0308305314 0.294969812 -0.0151571659 -1.8527137 5.46410644 1.1524398 -1.83554828 5.15587986 -0.244470879 -0.0922508743 -0.0571840368 0.923126042 -0.0750857871 -0.36541079 -1.08885241 -1.0379211 0.451084524 -0.88135466 -1.13580555 1.30764762 0.085076116 -0.0571836904 -0.720506743 0.292573929 -0.155068226 0.136056427 -1.27413109 -1.04088271 1.93463123 -0.913485289 -1.12641728 2.78838944 0.00841437955 -0.063356325 -0.717908889 0.369060203 -0.14889073 0.13584898</float_array>
        <technique_common><accessor source="#vfx_kurp_0122-mesh-positions-array" count="552" stride="3"><param name="X" type="float"/><param name="Y" type="float"/><param name="Z" type="float"/></accessor></technique_common>
      </source>
      <source id="vfx_kurp_0122-mesh-normals">
        <float_array id="vfx_kurp_0122-mesh-normals-array" count="1656">0.786039758 -0.092098339 0.611276856 0.78603972 -0.0920985576 0.611276872 0.786039785 -0.0920983646 0.611276817 0.786039688 -0.0920985912 0.611276908 0.551711485 0.509049939 0.660668296 0.55171173 0.509049587 0.660668363 0.551711502 0.509049894 0.660668316 0.55171173 0.509049587 0.660668363 0.467607408 0.230130627 0.853453693 0.467607436 0.230130582 0.85345369 0.467607432 0.23013061 0.853453685 0.467607414 0.230130571 0.853453705 0.553237806 -0.620259833 0.556062649 0.553237786 -0.62025987 0.556062628 0.553237786 -0.62025987 0.556062628 0.553237786 -0.62025987 0.556062628 0.573903135 0.188629982 0.796902705 0.573903392 0.188629601 0.796902611 0.573903147 0.188629882 0.796902721 0.573903441 0.188629508 0.796902597 0.48906993 -0.228545408 0.841770515 0.489069885 -0.228545192 0.8417706 0.489069914 -0.228545355 0.841770539 0.489069843 -0.228545141 0.841770638 0.941734011 0.0241946297 0.335487215 0.94173402 0.0241946803 0.335487188 0.941734011 0.0241946372 0.335487215 0.94173401 0.0241946875 0.335487215 0.904373459 -0.35798603 0.2322814 0.904373429 -0.357986101 0.232281407 0.90437345 -0.357986056 0.232281397 0.904373419 -0.357986127 0.232281405 0.969861052 -0.153461534 0.18925934 0.969861049 -0.153461519 0.189259369 0.969861049 -0.153461534 0.189259354 0.969861054 -0.153461505 0.189259355 0.86969082 0.425809257 0.249648462 0.869690755 0.425809433 0.249648386 0.86969082 0.425809257 0.249648462 0.869690751 0.425809461 0.249648355 0.964461211 -0.142287106 0.222640858 0.964461214 -0.142287017 0.222640903 0.964461211 -0.142287061 0.222640888 0.964461215 -0.142286987 0.222640918 0.977031669 0.0846265796 0.195569579 0.977031688 0.084626442 0.195569541 0.977031674 0.0846265502 0.195569565 0.977031694 0.0846264127 0.195569527 0.797050254 0.100781279 0.595444394 0.797050253 0.100781294 0.595444393 0.797050297 0.100781366 0.595444322 0.797050297 0.100781374 0.595444321 0.486492511 -0.444981781 0.751875157 0.486492518 -0.444981757 0.751875167 0.486492547 -0.444981726 0.751875166 0.48649257 -0.44498172 0.751875155 0.447576909 -0.0764265431 0.890973565 0.447576886 -0.0764265071 0.89097358 0.447577009 -0.0764264107 0.890973527 0.44757701 -0.0764263885 0.890973528 0.644110735 0.605008718 0.468066034 0.644110726 0.605008709 0.468066057 0.6441107 0.605008741 0.468066052 0.644110677 0.605008779 0.468066035 0.558370462 -0.0739263209 0.826291309 0.558370463 -0.0739262913 0.82629131 0.558370645 -0.0739261948 0.826291196 0.558370646 -0.0739261726 0.826291197 0.931102935 -0.121759482 0.343834193 0.931102921 -0.121759525 0.343834217 0.931102879 -0.121759825 0.343834224 0.931102864 -0.121759876 0.343834248 0.953417591 0.223150669 0.202974571 0.9534176 0.223150641 0.202974558 0.953417604 0.223150612 0.202974574 0.953417601 0.223150596 0.202974603 0.983371901 0.00275775717 0.18158221 0.983371904 0.00275779862 0.181582196 0.983371908 0.00275794671 0.181582167 0.983371908 0.00275798792 0.181582167 0.79131961 -0.532365859 0.300665707 0.79131961 -0.532365859 0.300665707 0.791319497 -0.532366042 0.300665679 0.791319504 -0.532366047 0.300665652 0.976539001 0.00262184065 0.215324652 0.976538992 0.00262179033 0.215324695 0.976538983 0.00262172248 0.215324736 0.976538977 0.00262167217 0.215324764 0.950441897 -0.228193328 0.211158723 0.950441909 -0.228193286 0.211158711 0.950441944 -0.228193176 0.211158675 0.95044195 -0.228193147 0.211158677 0.313260471 -0.726779413 0.611276994 0.313260161 -0.726779565 0.611276971 0.313260403 -0.726779454 0.611276979 0.313260107 -0.726779578 0.611276983 0.716706003 -0.223270811 0.660668336 0.716705735 -0.223271398 0.660668428 0.71670596 -0.223270888 0.660668357 0.716705721 -0.223271483 0.660668415 0.433102672 -0.289894375 0.853453764 0.433102636 -0.289894461 0.853453753 0.433102668 -0.289894402 0.853453757 0.433102608 -0.289894492 0.853453756 -0.260541942 -0.789247858 0.55606269 -0.260541914 -0.789247864 0.556062694 -0.260541942 -0.789247858 0.55606269 -0.260541886 -0.78924787 0.556062698 0.450309844 -0.40269965 0.796902777 0.450309721 -0.402700035 0.796902652 0.45030978 -0.402699736 0.79690277 0.450309668 -0.40270007 0.796902664 0.0466088431 -0.537819566 0.841770592 0.0466089738 -0.537819451 0.841770658 0.0466088743 -0.537819523 0.841770618 0.0466090064 -0.537819381 0.841770702 0.491819857 -0.803468404 0.335487335 0.491820223 -0.803468178 0.33548734 0.491819944 -0.803468339 0.335487363 0.491820273 -0.803468163 0.335487304 0.142161654 -0.962203391 0.232281508 0.142161683 -0.96220339 0.232281493 0.142161668 -0.962203389 0.232281507 0.142161697 -0.962203381 0.23228152 0.352028854 -0.916655081 0.189259473 0.352029003 -0.916655024 0.189259474 0.352028881 -0.916655074 0.189259457 0.352029002 -0.916655021 0.189259488 0.803606991 -0.540269735 0.249648587 0.803607176 -0.540269501 0.2496485 0.803606991 -0.540269735 0.249648587 0.803607176 -0.540269501 0.2496485 0.359006412 -0.9063914 0.222641025 0.359006486 -0.906391362 0.222641061 0.359006437 -0.906391387 0.222641037 0.359006532 -0.906391342 0.22264107 0.561804642 -0.803820893 0.19556972 0.561804471 -0.803821023 0.195569678 0.561804579 -0.803820948 0.195569674 0.561804472 -0.803821026 0.195569664 0.485804233 -0.639875058 0.595444504 0.485804274 -0.639875014 0.595444518 0.48580436 -0.639875009 0.595444454 0.48580436 -0.639875009 0.595444454 -0.142119317 -0.643805617 0.751875274 -0.142119302 -0.643805618 0.751875276 -0.142119201 -0.643805691 0.751875232 -0.142119186 -0.643805693 0.751875234 0.157601341 -0.425826162 0.890973567 0.157601329 -0.425826138 0.89097358 0.157601285 -0.425826141 0.890973587 0.157601269 -0.425826167 0.890973578 0.84600825 -0.25531179 0.468066161 0.846008279 -0.25531178 0.468066114 0.846008292 -0.255311725 0.468066121 0.846008303 -0.255311728 0.468066098 0.215163113 -0.520526056 0.826291389 0.21516317 -0.520526049 0.826291379 0.215163341 -0.520526126 0.826291286 0.215163412 -0.520526117 0.826291273 0.360104883 -0.867238389 0.343834335 0.360104831 -0.867238407 0.343834343 0.360104409 -0.867238573 0.343834367 0.360104353 -0.867238583 0.343834401 0.669962886 -0.71410853 0.202974723 0.669962919 -0.714108502 0.202974715 0.669962886 -0.71410853 0.202974723 0.669962886 -0.71410853 0.202974723 0.494074347 -0.850246076 0.181582348 0.49407437 -0.850246064 0.181582345 0.494074394 -0.850246054 0.181582328 0.494074464 -0.850246012 0.181582332 -0.0653826159 -0.951485771 0.300665831 -0.0653826308 -0.95148577 0.300665831 -0.0653827124 -0.951485765 0.300665829 -0.0653827204 -0.951485773 0.300665802 0.490540199 -0.844396578 0.215324712 0.490540125 -0.844396605 0.215324778 0.49054 -0.844396655 0.215324865 0.490539901 -0.844396698 0.21532492 0.277599905 -0.937203422 0.2111588 0.27759996 -0.937203406 0.211158797 0.277600018 -0.9372034 0.211158751 0.277600046 -0.937203395 0.211158735 -0.472779519 -0.634680995 0.611276992 -0.472779542 -0.634680986 0.611276984 -0.472779542 -0.634680986 0.611276984 -0.472779519 -0.634680995 0.611276992 0.164994598 -0.732320968 0.660668436 0.164994092 -0.732321028 0.660668496 0.164994519 -0.732320948 0.660668478 0.164994034 -0.732320979 0.660668565 -0.0345049236 -0.52002501 0.853453806 -0.0345047711 -0.520025012 0.853453811 -0.0345048976 -0.52002501 0.853453807 -0.0345047457 -0.520025083 0.853453769 -0.813779592 -0.168988123 0.556062757 -0.813779612 -0.168987979 0.556062771 -0.8137796 -0.168988065 0.556062763 -0.813779641 -0.168987913 0.55606275 -0.123593159 -0.591329517 0.796902838 -0.123593554 -0.591329516 0.796902777 -0.12359324 -0.591329511 0.79690283 -0.123593635 -0.59132951 0.796902769 -0.442460979 -0.309274104 0.84177064 -0.442460805 -0.309274167 0.841770708 -0.442460927 -0.309274139 0.841770654 -0.442460757 -0.309274175 0.841770731 -0.449913867 -0.827662779 0.335487461 -0.449913749 -0.827662843 0.335487462 -0.449913862 -0.827662771 0.335487487 -0.44991368 -0.827662884 0.335487454 -0.762211741 -0.604217292 0.232281566 -0.762211796 -0.604217229 0.23228155 -0.762211744 -0.604217294 0.232281552 -0.762211799 -0.604217231 0.232281536 -0.617832118 -0.76319348 0.189259572 -0.617832116 -0.763193478 0.189259586 -0.617832118 -0.76319348 0.189259572 -0.617832051 -0.763193531 0.189259585 -0.0660838203 -0.966078901 0.249648726 -0.0660835509 -0.966078943 0.249648632 -0.0660837832 -0.966078903 0.249648727 -0.0660835138 -0.966078946 0.249648633 -0.605454815 -0.764104322 0.222641085 -0.605454705 -0.764104394 0.222641133 -0.605454747 -0.764104372 0.222641097 -0.605454676 -0.764104417 0.222641137 -0.41522709 -0.888447473 0.195569815 -0.41522714 -0.888447453 0.195569796 -0.41522709 -0.888447473 0.195569815 -0.415227165 -0.888447442 0.195569794 -0.311246149 -0.740656119 0.595444664 -0.311246092 -0.740656186 0.595444611 -0.311245834 -0.740656328 0.595444569 -0.311245766 -0.740656368 0.595444554 -0.628611748 -0.198823826 0.751875227 -0.628611746 -0.19882384 0.751875225 -0.628611737 -0.198823912 0.751875214 -0.628611671 -0.198823925 0.751875265 -0.289975613 -0.349399686 0.890973627 -0.289975613 -0.349399686 0.890973627 -0.28997564 -0.349399683 0.890973619 -0.28997564 -0.349399683 0.890973619 0.201897469 -0.860320495 0.468066297 0.201897557 -0.860320491 0.468066266 0.201897671 -0.860320469 0.468066256 0.201897735 -0.860320484 0.468066202 -0.343207273 -0.446599607 0.826291449 -0.343207238 -0.446599659 0.826291436 -0.343207213 -0.446599875 0.826291329 -0.343207178 -0.446599927 0.826291316 -0.570998194 -0.745478991 0.343834461 -0.57099826 -0.745478939 0.343834465 -0.570998491 -0.74547875 0.34383449 -0.570998556 -0.745478698 0.343834494 -0.283454629 -0.937259145 0.202974798 -0.283454602 -0.937259156 0.202974785 -0.283454655 -0.937259131 0.202974825 -0.283454682 -0.937259123 0.202974823 -0.489297596 -0.853003914 0.18158245 -0.489297527 -0.853003957 0.181582431 -0.489297484 -0.853003987 0.181582408 -0.489297484 -0.853003987 0.181582408 -0.856702143 -0.419119891 0.300665853 -0.856702146 -0.419119863 0.300665884 -0.856702246 -0.419119705 0.300665818 -0.856702254 -0.419119709 0.300665791 -0.48599887 -0.847018482 0.215324849 -0.485998911 -0.847018442 0.215324914 -0.485998996 -0.847018374 0.215324986 -0.485999105 -0.847018298 0.215325042 -0.672842028 -0.709010246 0.211158887 -0.672842028 -0.709010246 0.211158887 -0.672841969 -0.709010306 0.211158873 -0.672841969 -0.709010306 0.211158873 -0.786039652 0.0920987876 0.611276925 -0.786039662 0.0920986472 0.611276933 -0.786039653 0.0920987654 0.611276927 -0.786039635 0.0920986217 0.611276972 -0.551711196 -0.509050006 0.660668485 -0.551711579 -0.509049553 0.660668515 -0.551711254 -0.509049945 0.660668484 -0.551711615 -0.509049472 0.660668547 -0.46760727 -0.230130603 0.853453775 -0.467607333 -0.230130456 0.85345378 -0.467607297 -0.230130572 0.853453769 -0.467607311 -0.23013043 0.8534538 -0.553237808 0.620259776 0.556062711 -0.553237744 0.62025989 0.556062647 -0.553237788 0.620259812 0.55606269 -0.553237682 0.620259947 0.556062645 -0.573902971 -0.188629897 0.796902844 -0.57390327 -0.188629481 0.796902727 -0.57390302 -0.188629805 0.79690283 -0.573903321 -0.188629374 0.796902715 -0.489069754 0.228545544 0.84177058 -0.489069711 0.228545313 0.841770668 -0.489069761 0.228545488 0.841770592 -0.489069671 0.228545249 0.841770709 -0.941733941 -0.0241945401 0.33548742 -0.941733938 -0.0241946797 0.335487419 -0.941733941 -0.024194555 0.33548742 -0.941733937 -0.0241946927 0.335487419 -0.904373394 0.357986117 0.232281518 -0.904373391 0.357986146 0.232281487 -0.904373407 0.357986092 0.232281506 -0.90437337 0.357986191 0.232281497 -0.969860985 0.153461772 0.189259487 -0.969861011 0.153461602 0.189259495 -0.969860995 0.153461728 0.189259474 -0.969861015 0.153461573 0.189259496 -0.86969078 -0.425809177 0.249648736 -0.8696907 -0.425809405 0.249648626 -0.869690776 -0.425809205 0.249648705 -0.869690692 -0.425809431 0.249648609 -0.964461173 0.142287124 0.222641012 -0.964461172 0.142287064 0.222641056 -0.964461172 0.142287109 0.222641027 -0.96446117 0.142287049 0.222641071 -0.9770316 -0.0846267576 0.195569845 -0.977031645 -0.0846264136 0.195569768 -0.977031613 -0.0846266767 0.195569818 -0.977031658 -0.0846263254 0.195569741 -0.79705014 -0.100780751 0.595444636 -0.797050154 -0.100780842 0.595444602 -0.797050127 -0.100781263 0.595444567 -0.797050121 -0.100781344 0.595444562 -0.486492394 0.444981902 0.751875161 -0.486492388 0.444981926 0.751875151 -0.486492424 0.444981872 0.75187516 -0.48649243 0.444981848 0.75187517 -0.447576911 0.0764264838 0.890973569 -0.447576911 0.0764264912 0.890973569 -0.44757691 0.0764264986 0.890973568 -0.44757691 0.076426506 0.890973568 -0.644110744 -0.605008428 0.468066398 -0.644110671 -0.605008535 0.468066358 -0.644110573 -0.605008674 0.468066314 -0.644110487 -0.605008827 0.468066235 -0.558370347 0.0739264482 0.826291375 -0.558370348 0.0739264185 0.826291377 -0.55837042 0.0739263234 0.826291336 -0.558370463 0.0739262913 0.82629131 -0.931102893 0.121759365 0.343834348 -0.931102876 0.12175943 0.343834372 -0.931102817 0.121759877 0.343834372 -0.9311028 0.121759942 0.343834396 -0.953417551 -0.223150643 0.202974784 -0.953417552 -0.223150629 0.202974799 -0.953417552 -0.223150599 0.202974829 -0.953417559 -0.223150571 0.20297483 -0.983371862 -0.00275769902 0.181582423 -0.983371859 -0.00275774185 0.181582437 -0.983371869 -0.00275789392 0.181582379 -0.983371869 -0.00275793629 0.181582379 -0.79131949 0.532366038 0.300665707 -0.79131949 0.532366038 0.300665707 -0.791319472 0.532366085 0.30066567 -0.791319442 0.532366105 0.300665711 -0.976538961 -0.00262183744 0.215324835 -0.976538951 -0.00262177501 0.215324878 -0.976538942 -0.0026216914 0.21532492 -0.976538936 -0.00262162899 0.215324949 -0.950441836 0.228193417 0.211158901 -0.950441855 0.228193362 0.211158875 -0.950441898 0.228193224 0.211158827 -0.950441911 0.228193167 0.21115883 0.472779302 0.634681282 0.611276862 0.472779581 0.634681118 0.611276817 0.472779365 0.634681287 0.611276808 0.472779627 0.6346811 0.6112768 -0.164994481 0.732321095 0.660668324 -0.164993974 0.732321155 0.660668384 -0.164994416 0.73232113 0.660668302 -0.164993881 0.732321137 0.660668427 0.034504927 0.520025123 0.853453737 0.0345048644 0.520025194 0.853453696 0.0345049176 0.52002515 0.853453721 0.0345048532 0.520025194 0.853453697 0.813779772 0.168988034 0.55606252 0.813779776 0.168988005 0.556062523 0.813779772 0.168988034 0.55606252 0.813779778 0.168987991 0.556062524 0.123592959 0.591329637 0.79690278 0.123593713 0.591329705 0.796902612 0.123593113 0.591329626 0.796902765 0.123593867 0.591329694 0.796902597 0.442461217 0.309274253 0.84177046 0.442460973 0.309274308 0.841770568 0.442461165 0.309274288 0.841770475 0.442460921 0.309274343 0.841770583 0.449914097 0.827662765 0.335487187 0.449913817 0.827662921 0.335487177 0.449914074 0.827662776 0.335487191 0.449913769 0.827662943 0.335487186 0.762211847 0.604217281 0.232281249 0.762211841 0.604217277 0.232281277 0.762211822 0.604217308 0.232281259 0.762211789 0.604217342 0.232281279 0.61783219 0.763193495 0.189259278 0.617832086 0.763193574 0.189259297 0.61783219 0.763193495 0.189259278 0.61783206 0.763193601 0.189259274 0.0660840415 0.966078926 0.249648568 0.0660836175 0.966078997 0.249648407 0.06608399 0.966078937 0.249648541 0.0660835656 0.966079 0.249648408 0.605454796 0.764104417 0.22264081 0.605454754 0.76410444 0.222640846 0.605454792 0.764104412 0.222640838 0.60545475 0.764104435 0.222640875 0.415227212 0.88844748 0.195569519 0.415227236 0.888447467 0.195569531 0.415227211 0.888447478 0.195569533 0.415227212 0.88844748 0.195569519 0.311246039 0.740656439 0.595444324 0.311246039 0.740656439 0.595444324 0.311245971 0.740656479 0.595444309 0.311245944 0.740656486 0.595444314 0.628611884 0.198823995 0.751875068 0.628611856 0.198823986 0.751875094 0.628611852 0.198824015 0.75187509 0.628611914 0.198824031 0.751875033 0.289975823 0.349399806 0.890973511 0.28997582 0.349399832 0.890973502 0.289975762 0.349399865 0.890973508 0.289975762 0.349399865 0.890973508 -0.20189749 0.860320579 0.468066132 -0.201897535 0.860320584 0.468066105 -0.201897621 0.860320568 0.468066096 -0.201897664 0.86032056 0.468066092 0.343207419 0.446599841 0.826291262 0.343207383 0.446599893 0.826291249 0.343207394 0.446600056 0.826291156 0.343207363 0.446600085 0.826291153 0.570998367 0.745478983 0.34383419 0.570998433 0.745478931 0.343834193 0.570998558 0.74547882 0.343834227 0.570998598 0.745478795 0.343834215 0.283454654 0.93725919 0.202974556 0.28345468 0.937259176 0.202974583 0.28345475 0.93725915 0.202974605 0.283454722 0.937259158 0.202974607 0.489297528 0.85300402 0.181582134 0.489297506 0.853004032 0.181582137 0.489297507 0.853004034 0.181582122 0.489297484 0.853004047 0.181582125 0.856702217 0.419119928 0.30066559 0.856702254 0.419119858 0.300665582 0.856702273 0.419119837 0.300665559 0.856702276 0.419119809 0.30066559 0.485998808 0.847018597 0.215324535 0.485998894 0.847018532 0.215324594 0.485998981 0.847018468 0.215324652 0.485999045 0.847018416 0.215324713 0.672842156 0.709010195 0.211158652 0.672842127 0.709010225 0.211158643 0.672842075 0.709010292 0.211158585 0.672841983 0.709010381 0.211158579 -0.313260251 0.726779625 0.611276853 -0.313260049 0.726779701 0.611276867 -0.313260224 0.726779632 0.611276859 -0.313260049 0.726779701 0.611276867 -0.716705754 0.223271285 0.660668446 -0.716705556 0.223271622 0.660668547 -0.716705749 0.223271313 0.660668442 -0.716705549 0.223271664 0.660668541 -0.433102517 0.28989464 0.853453753 -0.433102489 0.289894671 0.853453756 -0.433102517 0.28989464 0.853453753 -0.433102489 0.289894671 0.853453756 0.260542058 0.789247908 0.556062564 0.260542066 0.789247935 0.556062523 0.260542066 0.789247935 0.556062523 0.260542094 0.789247929 0.556062518 -0.450309674 0.402699926 0.796902734 -0.450309557 0.402700167 0.796902678 -0.450309663 0.402699976 0.796902715 -0.450309546 0.402700217 0.796902659 -0.0466086277 0.537819753 0.841770485 -0.0466087947 0.537819567 0.841770594 -0.0466086677 0.537819682 0.841770528 -0.0466088319 0.537819566 0.841770593 -0.49181984 0.803468424 0.335487313 -0.491820067 0.803468287 0.335487306 -0.491819857 0.803468404 0.335487335 -0.49182009 0.803468276 0.335487301 -0.142161534 0.962203445 0.232281357 -0.142161534 0.962203445 0.232281357 -0.142161534 0.962203448 0.232281343 -0.142161534 0.962203445 0.232281357 -0.352028719 0.91665516 0.189259345 -0.352028841 0.916655109 0.189259362 -0.352028692 0.916655169 0.189259347 -0.352028887 0.91665509 0.189259371 -0.803606932 0.540269795 0.249648647 -0.803607114 0.540269559 0.249648573 -0.803606979 0.540269727 0.249648643 -0.803607117 0.540269561 0.249648559 -0.35900628 0.906391487 0.222640883 -0.359006374 0.906391438 0.222640931 -0.359006324 0.906391464 0.222640907 -0.359006373 0.906391435 0.222640945 -0.561804604 0.803820925 0.195569698 -0.561804406 0.803821076 0.195569647 -0.561804538 0.803820975 0.195569681 -0.561804339 0.803821124 0.195569644 -0.485803931 0.639875292 0.595444499 -0.485803954 0.639875282 0.595444491 -0.48580419 0.639875161 0.595444429 -0.485804254 0.639875107 0.595444434 0.142119436 0.643805797 0.751875097 0.142119422 0.643805798 0.751875099 0.142119407 0.6438058 0.7518751 0.142119407 0.6438058 0.7518751 -0.157600968 0.425826309 0.890973563 -0.157600985 0.425826283 0.890973572 -0.157601103 0.425826251 0.890973567 -0.157601132 0.425826249 0.890973562 -0.846008129 0.255312028 0.468066249 -0.846008183 0.255311966 0.468066186 -0.846008184 0.255311907 0.468066217 -0.846008244 0.255311818 0.468066157 -0.215163044 0.520526246 0.826291288 -0.215163065 0.520526286 0.826291257 -0.215163129 0.520526236 0.826291272 -0.215163136 0.520526278 0.826291243 -0.360104349 0.867238633 0.343834278 -0.360104323 0.867238643 0.343834282 -0.360104171 0.867238695 0.343834309 -0.360104145 0.867238704 0.343834312 -0.669962825 0.714108588 0.202974722 -0.669962827 0.71410859 0.202974708 -0.669962829 0.714108592 0.202974694 -0.6699628 0.714108621 0.202974685 -0.494074263 0.850246144 0.18158226 -0.494074287 0.850246134 0.181582243 -0.494074332 0.850246109 0.181582237 -0.494074358 0.850246095 0.181582232 0.0653825712 0.95148583 0.300665652 0.0653826083 0.951485828 0.300665652 0.0653828395 0.95148583 0.300665593 0.0653828772 0.951485837 0.300665565 -0.490539941 0.844396716 0.215324761 -0.490539915 0.844396723 0.215324792 -0.490539867 0.844396749 0.215324799 -0.490539818 0.844396769 0.215324834 -0.277599688 0.937203511 0.211158689 -0.277599715 0.937203503 0.211158688 -0.277599815 0.937203479 0.211158666 -0.277599843 0.937203474 0.21115865</float_array>
        <technique_common><accessor source="#vfx_kurp_0122-mesh-normals-array" count="552" stride="3"><param name="X" type="float"/><param name="Y" type="float"/><param name="Z" type="float"/></accessor></technique_common>
      </source>
      <source id="vfx_kurp_0122-mesh-uv0">
        <float_array id="vfx_kurp_0122-mesh-uv0-array" count="1104">0 0 0 1 1 0 1 1 0 0 0 1 1 0 1 1 0 0 0 1 1 0 1 1 0 0 0 1 1 0 1 1 0 0 0 1 1 0 1 1 0 0 0 1 1 0 1 1 0 0 0 1 1 0 1 1 0 0 0 1 1 0 1 1 0 0 0 1 1 0 1 1 0 0 0 1 1 0 1 1 0 0 0 1 1 0 1 1 0 0 0 1 1 0 1 1 0 0 1 0 0 1 1 1 0 0 1 0 0 1 1 1 0 0 1 0 0 1 1 1 0 0 1 0 0 1 1 1 0 0 1 0 0 1 1 1 0 0 1 0 0 1 1 1 0 0 1 0 0 1 1 1 0 0 1 0 0 1 1 1 0 0 1 0 0 1 1 1 0 0 1 0 0 1 1 1 0 0 1 0 0 1 1 1 0 0 0 1 1 0 1 1 0 0 0 1 1 0 1 1 0 0 0 1 1 0 1 1 0 0 0 1 1 0 1 1 0 0 0 1 1 0 1 1 0 0 0 1 1 0 1 1 0 0 0 1 1 0 1 1 0 0 0 1 1 0 1 1 0 0 0 1 1 0 1 1 0 0 0 1 1 0 1 1 0 0 0 1 1 0 1 1 0 0 0 1 1 0 1 1 0 0 1 0 0 1 1 1 0 0 1 0 0 1 1 1 0 0 1 0 0 1 1 1 0 0 1 0 0 1 1 1 0 0 1 0 0 1 1 1 0 0 1 0 0 1 1 1 0 0 1 0 0 1 1 1 0 0 1 0 0 1 1 1 0 0 1 0 0 1 1 1 0 0 1 0 0 1 1 1 0 0 1 0 0 1 1 1 0 0 0 1 1 0 1 1 0 0 0 1 1 0 1 1 0 0 0 1 1 0 1 1 0 0 0 1 1 0 1 1 0 0 0 1 1 0 1 1 0 0 0 1 1 0 1 1 0 0 0 1 1 0 1 1 0 0 0 1 1 0 1 1 0 0 0 1 1 0 1 1 0 0 0 1 1 0 1 1 0 0 0 1 1 0 1 1 0 0 0 1 1 0 1 1 0 0 1 0 0 1 1 1 0 0 1 0 0 1 1 1 0 0 1 0 0 1 1 1 0 0 1 0 0 1 1 1 0 0 1 0 0 1 1 1 0 0 1 0 0 1 1 1 0 0 1 0 0 1 1 1 0 0 1 0 0 1 1 1 0 0 1 0 0 1 1 1 0 0 1 0 0 1 1 1 0 0 1 0 0 1 1 1 0 0 0 1 1 0 1 1 0 0 0 1 1 0 1 1 0 0 0 1 1 0 1 1 0 0 0 1 1 0 1 1 0 0 0 1 1 0 1 1 0 0 0 1 1 0 1 1 0 0 0 1 1 0 1 1 0 0 0 1 1 0 1 1 0 0 0 1 1 0 1 1 0 0 0 1 1 0 1 1 0 0 0 1 1 0 1 1 0 0 0 1 1 0 1 1 0 0 1 0 0 1 1 1 0 0 1 0 0 1 1 1 0 0 1 0 0 1 1 1 0 0 1 0 0 1 1 1 0 0 1 0 0 1 1 1 0 0 1 0 0 1 1 1 0 0 1 0 0 1 1 1 0 0 1 0 0 1 1 1 0 0 1 0 0 1 1 1 0 0 1 0 0 1 1 1 0 0 1 0 0 1 1 1 0 0 0 1 1 0 1 1 0 0 0 1 1 0 1 1 0 0 0 1 1 0 1 1 0 0 0 1 1 0 1 1 0 0 0 1 1 0 1 1 0 0 0 1 1 0 1 1 0 0 0 1 1 0 1 1 0 0 0 1 1 0 1 1 0 0 0 1 1 0 1 1 0 0 0 1 1 0 1 1 0 0 0 1 1 0 1 1 0 0 0 1 1 0 1 1 0 0 1 0 0 1 1 1 0 0 1 0 0 1 1 1 0 0 1 0 0 1 1 1 0 0 1 0 0 1 1 1 0 0 1 0 0 1 1 1 0 0 1 0 0 1 1 1 0 0 1 0 0 1 1 1 0 0 1 0 0 1 1 1 0 0 1 0 0 1 1 1 0 0 1 0 0 1 1 1 0 0 1 0 0 1 1 1 0 0 0 1 1 0 1 1 0 0 0 1 1 0 1 1 0 0 0 1 1 0 1 1 0 0 0 1 1 0 1 1 0 0 0 1 1 0 1 1 0 0 0 1 1 0 1 1 0 0 0 1 1 0 1 1 0 0 0 1 1 0 1 1 0 0 0 1 1 0 1 1 0 0 0 1 1 0 1 1 0 0 0 1 1 0 1 1 0 0 0 1 1 0 1 1 0 0 1 0 0 1 1 1 0 0 1 0 0 1 1 1 0 0 1 0 0 1 1 1 0 0 1 0 0 1 1 1 0 0 1 0 0 1 1 1 0 0 1 0 0 1 1 1 0 0 1 0 0 1 1 1 0 0 1 0 0 1 1 1 0 0 1 0 0 1 1 1 0 0 1 0 0 1 1 1 0 0 1 0 0 1 1 1</float_array>
        <technique_common><accessor source="#vfx_kurp_0122-mesh-uv0-array" count="552" stride="2"><param name="S" type="float"/><param name="T" type="float"/></accessor></technique_common>
      </source>
      <vertices id="vfx_kurp_0122-mesh-vertices"><input semantic="POSITION" source="#vfx_kurp_0122-mesh-positions"/></vertices>
      <triangles material="PreviewMaterial" count="368">
        <input semantic="VERTEX" source="#vfx_kurp_0122-mesh-vertices" offset="0"/>
        <input semantic="NORMAL" source="#vfx_kurp_0122-mesh-normals" offset="1"/>
        <input semantic="TEXCOORD" source="#vfx_kurp_0122-mesh-uv0" offset="2" set="0"/>
        <p>0 0 0 1 1 1 2 2 2 3 3 3 2 2 2 1 1 1 4 4 4 5 5 5 6 6 6 7 7 7 6 6 6 5 5 5 8 8 8 9 9 9 10 10 10 11 11 11 10 10 10 9 9 9 12 12 12 13 13 13 14 14 14 15 15 15 14 14 14 13 13 13 16 16 16 17 17 17 18 18 18 19 19 19 18 18 18 17 17 17 20 20 20 21 21 21 22 22 22 23 23 23 22 22 22 21 21 21 24 24 24 25 25 25 26 26 26 27 27 27 26 26 26 25 25 25 28 28 28 29 29 29 30 30 30 31 31 31 30 30 30 29 29 29 32 32 32 33 33 33 34 34 34 35 35 35 34 34 34 33 33 33 36 36 36 37 37 37 38 38 38 39 39 39 38 38 38 37 37 37 40 40 40 41 41 41 42 42 42 43 43 43 42 42 42 41 41 41 44 44 44 45 45 45 46 46 46 47 47 47 46 46 46 45 45 45 48 48 48 49 49 49 50 50 50 51 51 51 50 50 50 49 49 49 52 52 52 53 53 53 54 54 54 55 55 55 54 54 54 53 53 53 56 56 56 57 57 57 58 58 58 59 59 59 58 58 58 57 57 57 60 60 60 61 61 61 62 62 62 63 63 63 62 62 62 61 61 61 64 64 64 65 65 65 66 66 66 67 67 67 66 66 66 65 65 65 68 68 68 69 69 69 70 70 70 71 71 71 70 70 70 69 69 69 72 72 72 73 73 73 74 74 74 75 75 75 74 74 74 73 73 73 76 76 76 77 77 77 78 78 78 79 79 79 78 78 78 77 77 77 80 80 80 81 81 81 82 82 82 83 83 83 82 82 82 81 81 81 84 84 84 85 85 85 86 86 86 87 87 87 86 86 86 85 85 85 88 88 88 89 89 89 90 90 90 91 91 91 90 90 90 89 89 89 92 92 92 93 93 93 94 94 94 95 95 95 94 94 94 93 93 93 96 96 96 97 97 97 98 98 98 99 99 99 98 98 98 97 97 97 100 100 100 101 101 101 102 102 102 103 103 103 102 102 102 101 101 101 104 104 104 105 105 105 106 106 106 107 107 107 106 106 106 105 105 105 108 108 108 109 109 109 110 110 110 111 111 111 110 110 110 109 109 109 112 112 112 113 113 113 114 114 114 115 115 115 114 114 114 113 113 113 116 116 116 117 117 117 118 118 118 119 119 119 118 118 118 117 117 117 120 120 120 121 121 121 122 122 122 123 123 123 122 122 122 121 121 121 124 124 124 125 125 125 126 126 126 127 127 127 126 126 126 125 125 125 128 128 128 129 129 129 130 130 130 131 131 131 130 130 130 129 129 129 132 132 132 133 133 133 134 134 134 135 135 135 134 134 134 133 133 133 136 136 136 137 137 137 138 138 138 139 139 139 138 138 138 137 137 137 140 140 140 141 141 141 142 142 142 143 143 143 142 142 142 141 141 141 144 144 144 145 145 145 146 146 146 147 147 147 146 146 146 145 145 145 148 148 148 149 149 149 150 150 150 151 151 151 150 150 150 149 149 149 152 152 152 153 153 153 154 154 154 155 155 155 154 154 154 153 153 153 156 156 156 157 157 157 158 158 158 159 159 159 158 158 158 157 157 157 160 160 160 161 161 161 162 162 162 163 163 163 162 162 162 161 161 161 164 164 164 165 165 165 166 166 166 167 167 167 166 166 166 165 165 165 168 168 168 169 169 169 170 170 170 171 171 171 170 170 170 169 169 169 172 172 172 173 173 173 174 174 174 175 175 175 174 174 174 173 173 173 176 176 176 177 177 177 178 178 178 179 179 179 178 178 178 177 177 177 180 180 180 181 181 181 182 182 182 183 183 183 182 182 182 181 181 181 184 184 184 185 185 185 186 186 186 187 187 187 186 186 186 185 185 185 188 188 188 189 189 189 190 190 190 191 191 191 190 190 190 189 189 189 192 192 192 193 193 193 194 194 194 195 195 195 194 194 194 193 193 193 196 196 196 197 197 197 198 198 198 199 199 199 198 198 198 197 197 197 200 200 200 201 201 201 202 202 202 203 203 203 202 202 202 201 201 201 204 204 204 205 205 205 206 206 206 207 207 207 206 206 206 205 205 205 208 208 208 209 209 209 210 210 210 211 211 211 210 210 210 209 209 209 212 212 212 213 213 213 214 214 214 215 215 215 214 214 214 213 213 213 216 216 216 217 217 217 218 218 218 219 219 219 218 218 218 217 217 217 220 220 220 221 221 221 222 222 222 223 223 223 222 222 222 221 221 221 224 224 224 225 225 225 226 226 226 227 227 227 226 226 226 225 225 225 228 228 228 229 229 229 230 230 230 231 231 231 230 230 230 229 229 229 232 232 232 233 233 233 234 234 234 235 235 235 234 234 234 233 233 233 236 236 236 237 237 237 238 238 238 239 239 239 238 238 238 237 237 237 240 240 240 241 241 241 242 242 242 243 243 243 242 242 242 241 241 241 244 244 244 245 245 245 246 246 246 247 247 247 246 246 246 245 245 245 248 248 248 249 249 249 250 250 250 251 251 251 250 250 250 249 249 249 252 252 252 253 253 253 254 254 254 255 255 255 254 254 254 253 253 253 256 256 256 257 257 257 258 258 258 259 259 259 258 258 258 257 257 257 260 260 260 261 261 261 262 262 262 263 263 263 262 262 262 261 261 261 264 264 264 265 265 265 266 266 266 267 267 267 266 266 266 265 265 265 268 268 268 269 269 269 270 270 270 271 271 271 270 270 270 269 269 269 272 272 272 273 273 273 274 274 274 275 275 275 274 274 274 273 273 273 276 276 276 277 277 277 278 278 278 279 279 279 278 278 278 277 277 277 280 280 280 281 281 281 282 282 282 283 283 283 282 282 282 281 281 281 284 284 284 285 285 285 286 286 286 287 287 287 286 286 286 285 285 285 288 288 288 289 289 289 290 290 290 291 291 291 290 290 290 289 289 289 292 292 292 293 293 293 294 294 294 295 295 295 294 294 294 293 293 293 296 296 296 297 297 297 298 298 298 299 299 299 298 298 298 297 297 297 300 300 300 301 301 301 302 302 302 303 303 303 302 302 302 301 301 301 304 304 304 305 305 305 306 306 306 307 307 307 306 306 306 305 305 305 308 308 308 309 309 309 310 310 310 311 311 311 310 310 310 309 309 309 312 312 312 313 313 313 314 314 314 315 315 315 314 314 314 313 313 313 316 316 316 317 317 317 318 318 318 319 319 319 318 318 318 317 317 317 320 320 320 321 321 321 322 322 322 323 323 323 322 322 322 321 321 321 324 324 324 325 325 325 326 326 326 327 327 327 326 326 326 325 325 325 328 328 328 329 329 329 330 330 330 331 331 331 330 330 330 329 329 329 332 332 332 333 333 333 334 334 334 335 335 335 334 334 334 333 333 333 336 336 336 337 337 337 338 338 338 339 339 339 338 338 338 337 337 337 340 340 340 341 341 341 342 342 342 343 343 343 342 342 342 341 341 341 344 344 344 345 345 345 346 346 346 347 347 347 346 346 346 345 345 345 348 348 348 349 349 349 350 350 350 351 351 351 350 350 350 349 349 349 352 352 352 353 353 353 354 354 354 355 355 355 354 354 354 353 353 353 356 356 356 357 357 357 358 358 358 359 359 359 358 358 358 357 357 357 360 360 360 361 361 361 362 362 362 363 363 363 362 362 362 361 361 361 364 364 364 365 365 365 366 366 366 367 367 367 366 366 366 365 365 365 368 368 368 369 369 369 370 370 370 371 371 371 370 370 370 369 369 369 372 372 372 373 373 373 374 374 374 375 375 375 374 374 374 373 373 373 376 376 376 377 377 377 378 378 378 379 379 379 378 378 378 377 377 377 380 380 380 381 381 381 382 382 382 383 383 383 382 382 382 381 381 381 384 384 384 385 385 385 386 386 386 387 387 387 386 386 386 385 385 385 388 388 388 389 389 389 390 390 390 391 391 391 390 390 390 389 389 389 392 392 392 393 393 393 394 394 394 395 395 395 394 394 394 393 393 393 396 396 396 397 397 397 398 398 398 399 399 399 398 398 398 397 397 397 400 400 400 401 401 401 402 402 402 403 403 403 402 402 402 401 401 401 404 404 404 405 405 405 406 406 406 407 407 407 406 406 406 405 405 405 408 408 408 409 409 409 410 410 410 411 411 411 410 410 410 409 409 409 412 412 412 413 413 413 414 414 414 415 415 415 414 414 414 413 413 413 416 416 416 417 417 417 418 418 418 419 419 419 418 418 418 417 417 417 420 420 420 421 421 421 422 422 422 423 423 423 422 422 422 421 421 421 424 424 424 425 425 425 426 426 426 427 427 427 426 426 426 425 425 425 428 428 428 429 429 429 430 430 430 431 431 431 430 430 430 429 429 429 432 432 432 433 433 433 434 434 434 435 435 435 434 434 434 433 433 433 436 436 436 437 437 437 438 438 438 439 439 439 438 438 438 437 437 437 440 440 440 441 441 441 442 442 442 443 443 443 442 442 442 441 441 441 444 444 444 445 445 445 446 446 446 447 447 447 446 446 446 445 445 445 448 448 448 449 449 449 450 450 450 451 451 451 450 450 450 449 449 449 452 452 452 453 453 453 454 454 454 455 455 455 454 454 454 453 453 453 456 456 456 457 457 457 458 458 458 459 459 459 458 458 458 457 457 457 460 460 460 461 461 461 462 462 462 463 463 463 462 462 462 461 461 461 464 464 464 465 465 465 466 466 466 467 467 467 466 466 466 465 465 465 468 468 468 469 469 469 470 470 470 471 471 471 470 470 470 469 469 469 472 472 472 473 473 473 474 474 474 475 475 475 474 474 474 473 473 473 476 476 476 477 477 477 478 478 478 479 479 479 478 478 478 477 477 477 480 480 480 481 481 481 482 482 482 483 483 483 482 482 482 481 481 481 484 484 484 485 485 485 486 486 486 487 487 487 486 486 486 485 485 485 488 488 488 489 489 489 490 490 490 491 491 491 490 490 490 489 489 489 492 492 492 493 493 493 494 494 494 495 495 495 494 494 494 493 493 493 496 496 496 497 497 497 498 498 498 499 499 499 498 498 498 497 497 497 500 500 500 501 501 501 502 502 502 503 503 503 502 502 502 501 501 501 504 504 504 505 505 505 506 506 506 507 507 507 506 506 506 505 505 505 508 508 508 509 509 509 510 510 510 511 511 511 510 510 510 509 509 509 512 512 512 513 513 513 514 514 514 515 515 515 514 514 514 513 513 513 516 516 516 517 517 517 518 518 518 519 519 519 518 518 518 517 517 517 520 520 520 521 521 521 522 522 522 523 523 523 522 522 522 521 521 521 524 524 524 525 525 525 526 526 526 527 527 527 526 526 526 525 525 525 528 528 528 529 529 529 530 530 530 531 531 531 530 530 530 529 529 529 532 532 532 533 533 533 534 534 534 535 535 535 534 534 534 533 533 533 536 536 536 537 537 537 538 538 538 539 539 539 538 538 538 537 537 537 540 540 540 541 541 541 542 542 542 543 543 543 542 542 542 541 541 541 544 544 544 545 545 545 546 546 546 547 547 547 546 546 546 545 545 545 548 548 548 549 549 549 550 550 550 551 551 551 550 550 550 549 549 549 368 368 368 369 369 369 370 370 370 371 371 371 370 370 370 369 369 369 372 372 372 373 373 373 374 374 374 375 375 375 374 374 374 373 373 373 376 376 376 377 377 377 378 378 378 379 379 379 378 378 378 377 377 377 380 380 380 381 381 381 382 382 382 383 383 383 382 382 382 381 381 381 384 384 384 385 385 385 386 386 386 387 387 387 386 386 386 385 385 385 388 388 388 389 389 389 390 390 390 391 391 391 390 390 390 389 389 389 392 392 392 393 393 393 394 394 394 395 395 395 394 394 394 393 393 393 396 396 396 397 397 397 398 398 398 399 399 399 398 398 398 397 397 397 400 400 400 401 401 401 402 402 402 403 403 403 402 402 402 401 401 401 404 404 404 405 405 405 406 406 406 407 407 407 406 406 406 405 405 405 408 408 408 409 409 409 410 410 410 411 411 411 410 410 410 409 409 409 412 412 412 413 413 413 414 414 414 415 415 415 414 414 414 413 413 413 416 416 416 417 417 417 418 418 418 419 419 419 418 418 418 417 417 417 420 420 420 421 421 421 422 422 422 423 423 423 422 422 422 421 421 421 424 424 424 425 425 425 426 426 426 427 427 427 426 426 426 425 425 425 428 428 428 429 429 429 430 430 430 431 431 431 430 430 430 429 429 429 432 432 432 433 433 433 434 434 434 435 435 435 434 434 434 433 433 433 436 436 436 437 437 437 438 438 438 439 439 439 438 438 438 437 437 437 440 440 440 441 441 441 442 442 442 443 443 443 442 442 442 441 441 441 444 444 444 445 445 445 446 446 446 447 447 447 446 446 446 445 445 445 448 448 448 449 449 449 450 450 450 451 451 451 450 450 450 449 449 449 452 452 452 453 453 453 454 454 454 455 455 455 454 454 454 453 453 453 456 456 456 457 457 457 458 458 458 459 459 459 458 458 458 457 457 457 0 0 0 1 1 1 2 2 2 3 3 3 2 2 2 1 1 1 4 4 4 5 5 5 6 6 6 7 7 7 6 6 6 5 5 5 8 8 8 9 9 9 10 10 10 11 11 11 10 10 10 9 9 9 12 12 12 13 13 13 14 14 14 15 15 15 14 14 14 13 13 13 16 16 16 17 17 17 18 18 18 19 19 19 18 18 18 17 17 17 20 20 20 21 21 21 22 22 22 23 23 23 22 22 22 21 21 21 24 24 24 25 25 25 26 26 26 27 27 27 26 26 26 25 25 25 28 28 28 29 29 29 30 30 30 31 31 31 30 30 30 29 29 29 32 32 32 33 33 33 34 34 34 35 35 35 34 34 34 33 33 33 36 36 36 37 37 37 38 38 38 39 39 39 38 38 38 37 37 37 40 40 40 41 41 41 42 42 42 43 43 43 42 42 42 41 41 41 44 44 44 45 45 45 46 46 46 47 47 47 46 46 46 45 45 45 48 48 48 49 49 49 50 50 50 51 51 51 50 50 50 49 49 49 52 52 52 53 53 53 54 54 54 55 55 55 54 54 54 53 53 53 56 56 56 57 57 57 58 58 58 59 59 59 58 58 58 57 57 57 60 60 60 61 61 61 62 62 62 63 63 63 62 62 62 61 61 61 64 64 64 65 65 65 66 66 66 67 67 67 66 66 66 65 65 65 68 68 68 69 69 69 70 70 70 71 71 71 70 70 70 69 69 69 72 72 72 73 73 73 74 74 74 75 75 75 74 74 74 73 73 73 76 76 76 77 77 77 78 78 78 79 79 79 78 78 78 77 77 77 80 80 80 81 81 81 82 82 82 83 83 83 82 82 82 81 81 81 84 84 84 85 85 85 86 86 86 87 87 87 86 86 86 85 85 85 88 88 88 89 89 89 90 90 90 91 91 91 90 90 90 89 89 89</p>
      </triangles>
    </mesh></geometry>
  </library_geometries>
  <library_visual_scenes>
    <visual_scene id="Scene" name="Scene">
      <node id="vfx_kurp_0122" name="vfx_kurp_0122" type="NODE">
        <instance_geometry url="#vfx_kurp_0122-mesh"><bind_material><technique_common><instance_material symbol="PreviewMaterial" target="#PreviewMaterial"><bind_vertex_input semantic="UVSET0" input_semantic="TEXCOORD" input_set="0"/></instance_material></technique_common></bind_material></instance_geometry>
      </node>
    </visual_scene>
  </library_visual_scenes>
  <scene><instance_visual_scene url="#Scene"/></scene>
</COLLADA>
