<?xml version="1.0" encoding="utf-8"?>
<COLLADA xmlns="http://www.collada.org/2005/11/COLLADASchema" version="1.4.1">
  <asset>
    <contributor><authoring_tool>Morrobroom Kurpulio VFX preview converter</authoring_tool></contributor>
    <unit name="unit" meter="1"/>
    <up_axis>Z_UP</up_axis>
  </asset>
  <library_images>
    <image id="VFXTexture" name="darkmap_newgen-1.dds">
      <init_from>../../../Textures/Kurp/darkmap_newgen-1.dds</init_from>
    </image>
  </library_images>
  <library_effects>
    <effect id="PreviewEffect">
      <profile_COMMON>
        <newparam sid="VFXTexture-surface">
          <surface type="2D"><init_from>VFXTexture</init_from></surface>
        </newparam>
        <newparam sid="VFXTexture-sampler">
          <sampler2D><source>VFXTexture-surface</source></sampler2D>
        </newparam>
        <technique sid="common"><phong>
          <emission><color>0.08 0.08 0.08 1</color></emission>
          <ambient><color>0.2 0.2 0.2 1</color></ambient>
          <diffuse><texture texture="VFXTexture-sampler" texcoord="UVSET0"/></diffuse>
          <specular><color>0.15 0.15 0.15 1</color></specular>
          <shininess><float>8</float></shininess>
          <transparent opaque="A_ONE"><texture texture="VFXTexture-sampler" texcoord="UVSET0"/></transparent>
          <transparency><float>1</float></transparency>
        </phong></technique>
      </profile_COMMON>
      <extra><technique profile="GOOGLEEARTH"><double_sided>1</double_sided></technique></extra>
    </effect>
  </library_effects>
  <library_materials><material id="PreviewMaterial" name="PreviewMaterial"><instance_effect url="#PreviewEffect"/></material></library_materials>
  <library_geometries>
    <geometry id="vfx_kurp_0610-mesh" name="vfx_kurp_0610"><mesh>
      <source id="vfx_kurp_0610-mesh-positions">
        <float_array id="vfx_kurp_0610-mesh-positions-array" count="396">-1.01581237 7.26092291 -0.00971706351 -1.01116937 8.10280895 -0.00948670297 1.87021726 6.30510807 -0.00980176195 2.31788296 7.14717793 -0.0096265187 1.43466371 5.99576318 -0.00977081805 -1.39582354 6.82470131 -0.00974585605 1.31709203 5.50812614 -0.00964405923 -0.481562421 5.79368627 -0.00984270684 1.95182455 4.57364166 -0.00997862918 -1.31688765 5.28475964 -0.0100558426 1.99054384 4.07388139 -0.00984031521 -0.760780603 4.53781593 -0.00990478811 1.38806444 3.49580204 -0.00986078382 -1.35395703 3.86218858 -0.0100076166 1.63738185 3.22436035 -0.00957051711 -2.26147431 3.64646065 -0.00973043684 1.22832915 2.34165645 -0.00940894755 -1.61487418 2.73447973 -0.00970741734 1.02867392 1.87330735 -0.00938750384 -0.648539811 2.06397843 -0.00956276245 1.28339848 1.11324397 -0.00943427486 -1.6172719 1.42406791 -0.00972231547 4.91796684 -3.62010241 -0.00986493565 5.67316103 -4.13782275 -0.00976873934 5.17715156 -1.74923033 -0.0100471477 5.79584992 -1.41494304 -0.00990166166 4.95305264 -0.755683959 -0.00973968278 4.58169723 -3.74720478 -0.00937505392 4.42121387 -0.848626703 -0.00924877916 4.07753527 -3.36151636 -0.00915683038 3.77776086 -1.58629686 -0.00938940234 3.40419674 -3.13704371 -0.00920409174 3.16568148 -1.67585403 -0.00998840178 2.69440573 -3.2531805 -0.0098435164 2.75516939 -1.23759484 -0.00989748607 1.81847209 -3.2259078 -0.00980763417 2.44746083 -0.550419107 -0.0103653276 1.52643192 -2.05684465 -0.0100290449 1.94925338 -0.337540135 -0.00978384842 0.999980986 -1.96255678 -0.00972826593 1.33800128 -0.336704336 -0.00965200388 0.518696621 -1.25635171 -0.00939124986 0.938262194 0.517935321 -0.00981934648 -0.3334039 -1.04556423 -0.00938765053 4.06633866 4.32153332 -0.00952880387 4.11581683 5.52872229 -0.00942700147 2.33591437 5.18066669 -0.00950457947 2.14901376 5.70890164 -0.00942254369 1.99690264 4.44372869 -0.00967153581 3.44902575 4.15127814 -0.00969212246 1.56488407 4.06231356 -0.00955824461 3.84887409 3.31117916 -0.00958501571 1.79774916 3.42994165 -0.00960878329 3.95135486 2.25432533 -0.00972227566 1.51086527 3.01400793 -0.00966494624 3.07208741 1.5380736 -0.00951825036 1.26027095 2.81660664 -0.00978460698 2.57244194 0.802882165 -0.00981126563 1.83770263 0.56947504 -0.00978135341 0.247539036 2.91210794 -0.00977255031 1.01904693 0.517125338 -0.00970124756 -0.207476869 2.14185387 -0.00977262575 -0.655186594 1.61326146 -0.00963789714 0.785510212 -0.185804944 -0.00962632871 -0.972420305 1.07899368 -0.00971840462 0.873078883 -1.06091148 -0.00975948013 -6.5604744 -0.340681091 -0.00970315444 -7.40783572 -0.238376766 -0.00958329951 -6.90472341 1.69098777 -0.00972575904 -7.39907098 1.64554131 -0.00967819802 -6.7868278 2.62227076 -0.00958436402 -6.00723338 -0.145757563 -0.00956175942 -6.14893556 2.97320455 -0.00957110175 -5.63586044 0.445144281 -0.00947996113 -5.28280485 0.297244594 -0.00968644931 -5.24163401 2.89906794 -0.00983641064 -4.72430241 2.36038917 -0.0100145247 -4.71619678 -0.591621816 -0.00990603142 -4.24118257 2.15009022 -0.00997327524 -3.91922915 -0.172128953 -0.00986506557 -3.77207673 1.35555375 -0.00967474189 -3.14950526 -0.635617375 -0.00957569713 -3.26053655 2.15539813 -0.00967447436 -2.5014267 0.0996004008 -0.00961058401 -2.70807821 2.53955019 -0.00958980108 -1.72732043 0.199833155 -0.0094845586 -2.02329683 2.54037237 -0.00944434991 -0.846732706 0.054810198 -0.00943711353 1.25109243 -5.41936183 -0.00971173751 1.26870301 -6.28999615 -0.00954771135 -0.135537364 -5.90570641 -0.00974318711 -0.0516345967 -6.40662432 -0.00967807509 -0.800186008 -5.84759116 -0.00954987668 1.05629915 -4.86837065 -0.00951824267 -1.11315939 -5.22070348 -0.00953180669 0.603337035 -4.52916992 -0.0094064225 0.669729263 -4.15940094 -0.00968902465 -1.15681118 -4.29084277 -0.00989494007 -0.834039241 -3.72756314 -0.0101386055 1.23256713 -3.5225476 -0.009989365 -0.737645388 -3.22104549 -0.0100820891 0.854821086 -2.73806405 -0.00993339205 -0.230601646 -2.68987459 -0.00967325619 1.09834644 -1.9225021 -0.00953718647 -0.844662756 -2.22171146 -0.00967308925 0.515164644 -1.31084213 -0.00958511909 -1.17190129 -1.68412954 -0.00955727929 0.363422625 -0.528385341 -0.00941263838 -1.2446107 -0.986106187 -0.00935818325 0.372230977 0.378966853 -0.00934765558 -3.92478955 6.05987692 -0.00952927396 -5.09487748 6.36095095 -0.00942769647 -5.12710798 4.54762387 -0.00950531289 -5.68276298 4.47543561 -0.00942338817 -4.47745872 4.06186438 -0.00967215048 -3.88752401 5.42060173 -0.00969259674 -4.19492519 3.55957782 -0.00955881248 -2.98233855 5.63573956 -0.00958530908 -3.52781832 3.65491426 -0.00960921845 -1.92744613 5.51472616 -0.00972236297 -3.18115032 3.28732145 -0.00966531923 -1.41111311 4.50500965 -0.00951825455 -3.04057682 3.00095809 -0.00978495763 -0.796796054 3.86254084 -0.00981115946 -0.722357646 3.09522128 -0.00978124654 -3.34595132 2.03065252 -0.00977297779 -0.842531383 2.2837438 -0.00970117841 -2.68800616 1.42448473 -0.00977293518 -2.2648403 0.876047015 -0.00963813253 -0.204058193 1.90824133 -0.00962614082 -1.8088122 0.454006433 -0.00971855829 0.669991672 1.8106901 -0.00975912111</float_array>
        <technique_common><accessor source="#vfx_kurp_0610-mesh-positions-array" count="132" stride="3"><param name="X" type="float"/><param name="Y" type="float"/><param name="Z" type="float"/></accessor></technique_common>
      </source>
      <source id="vfx_kurp_0610-mesh-normals">
        <float_array id="vfx_kurp_0610-mesh-normals-array" count="396">3.21279909e-05 0.000159681656 -0.999999987 5.13399331e-05 0.000257545157 -0.999999966 -8.48372161e-07 0.000122422119 -0.999999993 1.53920625e-05 0.00019992729 -0.99999998 -5.54911271e-05 -0.000119387557 -0.999999991 3.16026489e-05 6.74045075e-05 -0.999999997 9.34170867e-05 0.000218314767 -0.999999972 0.000121794148 0.000264477018 -0.999999958 1.80710467e-05 -7.75590522e-05 -0.999999997 3.53244431e-05 3.54853109e-05 -0.999999999 -9.50304718e-06 -0.00015483696 -0.999999988 2.21608261e-05 -7.25461866e-05 -0.999999997 -3.83578517e-05 -0.000596318685 -0.999999821 -3.31747972e-05 -0.000718122741 -0.999999742 -2.27380072e-05 -0.000539649613 -0.999999854 4.13793174e-05 -0.000300869524 -0.999999954 5.66251214e-05 -0.000131259045 -0.99999999 0.000109519205 3.18026248e-05 -0.999999993 0.000105095052 1.13627274e-05 -0.999999994 0.000102282916 1.40734448e-06 -0.999999995 0.000113607921 9.57111614e-05 -0.999999989 0.000108429921 8.51892174e-05 -0.99999999 0.000708020283 2.10114792e-05 0.999999749 -0.000107702405 9.41922908e-05 0.99999999 0.000519654531 -2.08740763e-06 0.999999865 -0.000268050534 6.0894768e-05 0.999999962 0.000988377247 -6.67176702e-06 0.999999512 0.00100225848 -3.92482242e-05 0.999999497 0.000591814054 2.21576375e-05 0.999999825 0.000215093513 3.39083882e-05 0.999999976 -0.000502980012 0.000173197546 0.999999859 -0.000543546977 0.000262612622 0.999999818 -0.000373162086 0.000191184367 0.999999912 -0.000321635888 0.000159275688 0.999999936 -0.000394609208 0.000251018241 0.999999891 -4.20321045e-05 0.000109433283 0.999999993 0.000412767823 -0.000103994086 0.999999909 0.000292461778 -2.21768518e-05 0.999999957 0.000651597098 -0.000263276246 0.999999753 0.000467049593 -0.000204076101 0.99999987 0.000178555518 4.83923969e-05 0.999999983 0.000259488857 5.12540331e-05 0.999999965 6.2886602e-05 0.000226407306 0.999999972 6.03780774e-05 0.0002270005 0.999999972 -5.18900041e-05 -0.00019333322 0.99999998 -2.46902199e-05 -9.66277289e-05 0.999999995 -4.15682474e-05 -0.000158711043 0.999999987 -1.23613989e-05 -0.000159675413 0.999999987 6.51548134e-06 5.58807514e-05 0.999999998 -2.79588757e-05 -0.000244516072 0.99999997 2.52576119e-05 6.94446569e-05 0.999999997 5.00663645e-06 -4.36778609e-05 0.999999999 -1.63205858e-05 -0.000106676059 0.999999994 2.6980766e-05 1.36748667e-05 1 -0.000146154399 -0.00013180039 0.999999981 -0.00010636702 -1.08378462e-05 0.999999994 -0.000118490082 -8.90806904e-05 0.999999989 -0.00011777193 -8.99803044e-05 0.999999989 5.460409e-05 2.78228126e-05 0.999999998 4.96173743e-06 1.8613584e-05 1 8.48238555e-05 7.07796057e-05 0.999999994 3.42878265e-05 6.98166039e-05 0.999999997 2.7609054e-05 4.38501265e-05 0.999999999 -9.62131881e-05 -9.40433666e-05 0.999999991 -0.000120338691 -9.4458627e-05 0.999999988 -0.000174406343 -0.000169606714 0.99999997 6.37556148e-05 1.39855728e-05 -0.999999998 -0.000137728026 -3.79227745e-05 -0.99999999 0.000310092091 3.50721097e-05 -0.999999951 -9.16179556e-05 -4.99467057e-05 -0.999999995 8.96925409e-05 1.11464105e-05 -0.999999996 0.000209143948 3.98383336e-05 -0.999999977 -0.000143184296 -3.22879892e-05 -0.999999989 -0.0002027041 -7.71908217e-05 -0.999999976 -0.000478571457 -7.03075131e-05 -0.999999883 -0.000329375152 -5.2425032e-05 -0.999999944 -0.000248568721 -4.54959749e-05 -0.999999968 -0.000106225648 -3.7170437e-05 -0.999999994 0.000173302961 -2.22791856e-05 -0.999999985 0.000279655773 2.65429577e-05 -0.999999961 0.000409141784 1.82290292e-05 -0.999999916 0.000178846455 1.3978273e-05 -0.999999984 0.000102571873 2.00202247e-06 -0.999999995 6.59350988e-05 -9.07092542e-06 -0.999999998 0.000175641585 3.15187494e-05 -0.999999984 0.000108817919 2.51199088e-05 -0.999999994 0.000188068541 4.0961727e-05 -0.999999981 5.79142105e-05 2.45028695e-05 -0.999999998 -4.36595689e-05 0.000103724785 -0.999999994 9.25726982e-05 -0.000170395983 -0.999999981 -9.94372513e-05 0.000382158403 -0.999999922 0.000108610102 -0.000111793428 -0.999999988 -4.91604653e-05 0.000160103705 -0.999999986 -9.11733825e-05 0.000259236031 -0.999999962 7.63691411e-05 -0.000163204732 -0.999999984 0.000186723614 -0.000282164518 -0.999999943 0.000198618329 -0.000613076013 -0.999999792 0.000144046952 -0.000435114204 -0.999999895 0.000115492295 -0.000297507914 -0.999999949 8.83357337e-05 -0.000160277731 -0.999999983 1.04111762e-05 0.000271876582 -0.999999963 -9.01491641e-05 0.000386266205 -0.999999921 -9.51830901e-05 0.000550531213 -0.999999844 -3.47251691e-05 0.000208154563 -0.999999978 -3.01109456e-06 0.000120487885 -0.999999993 9.61165364e-07 0.000103007696 -0.999999995 -7.85589269e-05 0.000220642099 -0.999999973 -6.34489835e-05 0.000139816895 -0.999999988 -0.000100531189 0.000234209051 -0.999999968 -5.44005704e-05 7.21461617e-05 -0.999999996 0.00017799198 -9.12274681e-05 0.99999998 8.91220038e-05 -4.43873939e-05 0.999999995 0.000146296965 -7.3887123e-05 0.999999987 0.000153353043 -4.55290532e-05 0.999999987 -5.34759965e-05 1.80504958e-05 0.999999998 0.000233050923 -7.85404359e-05 0.99999997 -6.28158521e-05 3.92168112e-05 0.999999997 4.35615329e-05 -4.26456745e-06 0.999999999 0.000100699558 -3.83061195e-05 0.999999994 -7.92096307e-06 2.92279728e-05 1 9.80904423e-05 -0.000170522992 0.999999981 -1.18638126e-05 -0.000106296683 0.999999994 6.21080683e-05 -0.000134529399 0.999999989 6.3137689e-05 -0.000134015338 0.999999989 -1.59731753e-05 5.92006217e-05 0.999999998 -1.73592125e-05 8.73023964e-06 1 -5.16526049e-05 9.77429002e-05 0.999999994 -6.12894944e-05 4.81245405e-05 0.999999997 -3.72962458e-05 3.61586571e-05 0.999999999 7.16231437e-05 -0.000113784342 0.999999991 6.69799694e-05 -0.00013746324 0.999999988 0.000129144431 -0.000206061953 0.99999997</float_array>
        <technique_common><accessor source="#vfx_kurp_0610-mesh-normals-array" count="132" stride="3"><param name="X" type="float"/><param name="Y" type="float"/><param name="Z" type="float"/></accessor></technique_common>
      </source>
      <source id="vfx_kurp_0610-mesh-uv0">
        <float_array id="vfx_kurp_0610-mesh-uv0-array" count="264">1 0.0999999642 1 0 0 0.0999999642 0 0 0 0.199999988 1 0.199999988 0 0.300000012 1 0.300000012 0 0.399999976 1 0.399999976 0 0.5 1 0.5 0 0.600000024 1 0.600000024 0 0.699999988 1 0.699999988 0 0.800000012 1 0.800000012 0 0.899999976 1 0.899999976 0 1 1 1 1 0.0999999642 1 0 0 0.0999999642 0 0 0 0.199999988 1 0.199999988 0 0.300000012 1 0.300000012 0 0.399999976 1 0.399999976 0 0.5 1 0.5 0 0.600000024 1 0.600000024 0 0.699999988 1 0.699999988 0 0.800000012 1 0.800000012 0 0.899999976 1 0.899999976 0 1 1 1 1 0.0999999642 1 0 0 0.0999999642 0 0 0 0.199999988 1 0.199999988 0 0.300000012 1 0.300000012 0 0.399999976 1 0.399999976 0 0.5 1 0.5 0 0.600000024 1 0.600000024 1 0.699999988 0 0.699999988 1 0.800000012 0 0.800000012 0 0.899999976 1 0.899999976 0 1 1 1 1 0.0999999642 1 0 0 0.0999999642 0 0 0 0.199999988 1 0.199999988 0 0.300000012 1 0.300000012 1 0.399999976 0 0.399999976 0 0.5 1 0.5 0 0.600000024 1 0.600000024 0 0.699999988 1 0.699999988 0 0.800000012 1 0.800000012 0 0.899999976 1 0.899999976 0 1 1 1 1 0.0999999642 1 0 0 0.0999999642 0 0 0 0.199999988 1 0.199999988 0 0.300000012 1 0.300000012 1 0.399999976 0 0.399999976 0 0.5 1 0.5 0 0.600000024 1 0.600000024 0 0.699999988 1 0.699999988 0 0.800000012 1 0.800000012 0 0.899999976 1 0.899999976 0 1 1 1 1 0.0999999642 1 0 0 0.0999999642 0 0 0 0.199999988 1 0.199999988 0 0.300000012 1 0.300000012 0 0.399999976 1 0.399999976 0 0.5 1 0.5 0 0.600000024 1 0.600000024 1 0.699999988 0 0.699999988 1 0.800000012 0 0.800000012 0 0.899999976 1 0.899999976 0 1 1 1</float_array>
        <technique_common><accessor source="#vfx_kurp_0610-mesh-uv0-array" count="132" stride="2"><param name="S" type="float"/><param name="T" type="float"/></accessor></technique_common>
      </source>
      <vertices id="vfx_kurp_0610-mesh-vertices"><input semantic="POSITION" source="#vfx_kurp_0610-mesh-positions"/></vertices>
      <triangles material="PreviewMaterial" count="120">
        <input semantic="VERTEX" source="#vfx_kurp_0610-mesh-vertices" offset="0"/>
        <input semantic="NORMAL" source="#vfx_kurp_0610-mesh-normals" offset="1"/>
        <input semantic="TEXCOORD" source="#vfx_kurp_0610-mesh-uv0" offset="2" set="0"/>
        <p>0 0 0 1 1 1 2 2 2 3 3 3 2 2 2 1 1 1 4 4 4 0 0 0 2 2 2 0 0 0 4 4 4 5 5 5 6 6 6 5 5 5 4 4 4 5 5 5 6 6 6 7 7 7 8 8 8 7 7 7 6 6 6 7 7 7 8 8 8 9 9 9 10 10 10 9 9 9 8 8 8 9 9 9 10 10 10 11 11 11 12 12 12 11 11 11 10 10 10 11 11 11 12 12 12 13 13 13 14 14 14 13 13 13 12 12 12 13 13 13 14 14 14 15 15 15 16 16 16 15 15 15 14 14 14 15 15 15 16 16 16 17 17 17 18 18 18 17 17 17 16 16 16 17 17 17 18 18 18 19 19 19 20 20 20 19 19 19 18 18 18 21 21 21 19 19 19 20 20 20 22 22 22 23 23 23 24 24 24 25 25 25 24 24 24 23 23 23 26 26 26 22 22 22 24 24 24 22 22 22 26 26 26 27 27 27 28 28 28 27 27 27 26 26 26 27 27 27 28 28 28 29 29 29 30 30 30 29 29 29 28 28 28 29 29 29 30 30 30 31 31 31 32 32 32 31 31 31 30 30 30 31 31 31 32 32 32 33 33 33 34 34 34 33 33 33 32 32 32 33 33 33 34 34 34 35 35 35 36 36 36 35 35 35 34 34 34 35 35 35 36 36 36 37 37 37 38 38 38 37 37 37 36 36 36 37 37 37 38 38 38 39 39 39 40 40 40 39 39 39 38 38 38 39 39 39 40 40 40 41 41 41 42 42 42 41 41 41 40 40 40 43 43 43 41 41 41 42 42 42 44 44 44 45 45 45 46 46 46 47 47 47 46 46 46 45 45 45 48 48 48 44 44 44 46 46 46 44 44 44 48 48 48 49 49 49 50 50 50 49 49 49 48 48 48 49 49 49 50 50 50 51 51 51 52 52 52 51 51 51 50 50 50 51 51 51 52 52 52 53 53 53 54 54 54 53 53 53 52 52 52 53 53 53 54 54 54 55 55 55 56 56 56 55 55 55 54 54 54 55 55 55 56 56 56 57 57 57 57 57 57 56 56 56 58 58 58 59 59 59 58 58 58 56 56 56 58 58 58 59 59 59 60 60 60 61 61 61 60 60 60 59 59 59 62 62 62 60 60 60 61 61 61 60 60 60 62 62 62 63 63 63 64 64 64 63 63 63 62 62 62 65 65 65 63 63 63 64 64 64 66 66 66 67 67 67 68 68 68 69 69 69 68 68 68 67 67 67 70 70 70 66 66 66 68 68 68 66 66 66 70 70 70 71 71 71 72 72 72 71 71 71 70 70 70 71 71 71 72 72 72 73 73 73 73 73 73 72 72 72 74 74 74 75 75 75 74 74 74 72 72 72 76 76 76 74 74 74 75 75 75 74 74 74 76 76 76 77 77 77 78 78 78 77 77 77 76 76 76 77 77 77 78 78 78 79 79 79 80 80 80 79 79 79 78 78 78 79 79 79 80 80 80 81 81 81 82 82 82 81 81 81 80 80 80 81 81 81 82 82 82 83 83 83 84 84 84 83 83 83 82 82 82 83 83 83 84 84 84 85 85 85 86 86 86 85 85 85 84 84 84 87 87 87 85 85 85 86 86 86 88 88 88 89 89 89 90 90 90 91 91 91 90 90 90 89 89 89 92 92 92 88 88 88 90 90 90 88 88 88 92 92 92 93 93 93 94 94 94 93 93 93 92 92 92 93 93 93 94 94 94 95 95 95 95 95 95 94 94 94 96 96 96 97 97 97 96 96 96 94 94 94 98 98 98 96 96 96 97 97 97 96 96 96 98 98 98 99 99 99 100 100 100 99 99 99 98 98 98 99 99 99 100 100 100 101 101 101 102 102 102 101 101 101 100 100 100 101 101 101 102 102 102 103 103 103 104 104 104 103 103 103 102 102 102 103 103 103 104 104 104 105 105 105 106 106 106 105 105 105 104 104 104 105 105 105 106 106 106 107 107 107 108 108 108 107 107 107 106 106 106 109 109 109 107 107 107 108 108 108 110 110 110 111 111 111 112 112 112 113 113 113 112 112 112 111 111 111 114 114 114 110 110 110 112 112 112 110 110 110 114 114 114 115 115 115 116 116 116 115 115 115 114 114 114 115 115 115 116 116 116 117 117 117 118 118 118 117 117 117 116 116 116 117 117 117 118 118 118 119 119 119 120 120 120 119 119 119 118 118 118 119 119 119 120 120 120 121 121 121 122 122 122 121 121 121 120 120 120 121 121 121 122 122 122 123 123 123 123 123 123 122 122 122 124 124 124 125 125 125 124 124 124 122 122 122 124 124 124 125 125 125 126 126 126 127 127 127 126 126 126 125 125 125 128 128 128 126 126 126 127 127 127 126 126 126 128 128 128 129 129 129 130 130 130 129 129 129 128 128 128 131 131 131 129 129 129 130 130 130</p>
      </triangles>
    </mesh></geometry>
  </library_geometries>
  <library_visual_scenes>
    <visual_scene id="Scene" name="Scene">
      <node id="vfx_kurp_0610" name="vfx_kurp_0610" type="NODE">
        <instance_geometry url="#vfx_kurp_0610-mesh"><bind_material><technique_common><instance_material symbol="PreviewMaterial" target="#PreviewMaterial"><bind_vertex_input semantic="UVSET0" input_semantic="TEXCOORD" input_set="0"/></instance_material></technique_common></bind_material></instance_geometry>
      </node>
    </visual_scene>
  </library_visual_scenes>
  <scene><instance_visual_scene url="#Scene"/></scene>
</COLLADA>
