<?xml version="1.0" encoding="utf-8"?>
<COLLADA xmlns="http://www.collada.org/2005/11/COLLADASchema" version="1.4.1">
  <asset>
    <contributor><authoring_tool>Morrobroom Kurpulio VFX preview converter</authoring_tool></contributor>
    <unit name="unit" meter="1"/>
    <up_axis>Z_UP</up_axis>
  </asset>
  <library_images>
    <image id="VFXTexture" name="darkmap_newgen-1.dds">
      <init_from>../../../Textures/Kurp/darkmap_newgen-1.dds</init_from>
    </image>
  </library_images>
  <library_effects>
    <effect id="PreviewEffect">
      <profile_COMMON>
        <newparam sid="VFXTexture-surface">
          <surface type="2D"><init_from>VFXTexture</init_from></surface>
        </newparam>
        <newparam sid="VFXTexture-sampler">
          <sampler2D><source>VFXTexture-surface</source></sampler2D>
        </newparam>
        <technique sid="common"><phong>
          <emission><color>0.08 0.08 0.08 1</color></emission>
          <ambient><color>0.2 0.2 0.2 1</color></ambient>
          <diffuse><texture texture="VFXTexture-sampler" texcoord="UVSET0"/></diffuse>
          <specular><color>0.15 0.15 0.15 1</color></specular>
          <shininess><float>8</float></shininess>
          <transparent opaque="A_ONE"><texture texture="VFXTexture-sampler" texcoord="UVSET0"/></transparent>
          <transparency><float>1</float></transparency>
        </phong></technique>
      </profile_COMMON>
      <extra><technique profile="GOOGLEEARTH"><double_sided>1</double_sided></technique></extra>
    </effect>
  </library_effects>
  <library_materials><material id="PreviewMaterial" name="PreviewMaterial"><instance_effect url="#PreviewEffect"/></material></library_materials>
  <library_geometries>
    <geometry id="vfx_kurp_0285-mesh" name="vfx_kurp_0285"><mesh>
      <source id="vfx_kurp_0285-mesh-positions">
        <float_array id="vfx_kurp_0285-mesh-positions-array" count="177">-0.10424735 0.0975966454 -1.15243735e-06 -1.02680522 -0.0466282507 -1.90329987e-06 0.0539902356 -0.389641061 -1.03240456e-06 -0.977140903 -0.639062941 -1.86671542e-06 -1.94847715 0.0233263085 -2.65295292e-06 -2.04743117 -0.646137491 -2.73042936e-06 -2.82069451 0.299449146 -3.36420365e-06 -3.10018551 -0.406175852 -3.58009531e-06 -3.59848595 0.762981534 -4.00264168e-06 -4.07865894 0.072310036 -4.37225686e-06 -4.24279082 1.38562542 -4.53840948e-06 -4.92910516 0.767839909 -5.06578759e-06 -0.0919731986 -0.153992023 -1.13897867e-06 0.331198052 -1.24783668 -8.72286313e-07 0.463830739 0.17022796 -7.1232396e-07 1.04508778 -1.02880856 -3.24768429e-07 0.491254181 -2.39774036 -8.07329116e-07 1.33934104 -2.34057087 -1.5739174e-07 0.385068431 -3.54195321 -9.46349537e-07 1.32570899 -3.69672275 -2.2602372e-07 0.0236663232 -4.62027383 -1.28075106e-06 0.999498278 -5.02534568 -5.34081974e-07 -0.568641722 -5.57721019 -1.79176953e-06 0.372733489 -6.25474119 -1.07217593e-06 0.121863697 -0.0345611516 -9.81584873e-07 0.790543556 0.45420675 -5.06756907e-07 -0.200971931 0.285229504 -1.2281459e-06 0.510535508 0.901071757 -7.20189089e-07 1.54559916 0.773762226 3.38320502e-08 1.35144103 1.34177497 -1.13522665e-07 2.34548432 0.910675406 6.08316326e-07 2.27895445 1.5805943 5.59001602e-07 3.14711809 0.861452579 1.18367933e-06 3.24487889 1.60116953 1.26041547e-06 3.90820277 0.632522777 1.72752851e-06 4.19811022 1.39858523 1.95155079e-06 0.620081037 -0.668403491 -6.40145119e-07 0.232834831 0.259872481 -8.95830344e-07 0.992682964 -0.295226857 -3.53736675e-07 1.10098073 -1.33245233 -3.12048916e-07 1.61091024 -1.01573825 7.94388382e-08 1.41396251 -2.08118677 -1.12819412e-07 2.05184823 -1.86596686 3.76455556e-07 1.54595214 -2.87341046 -5.23721835e-08 2.28873575 -2.80261928 5.16916589e-07 1.49371862 -3.66646171 -1.33076921e-07 2.30530983 -3.77699876 4.88482352e-07 0.195190184 0.127539016 -9.11377016e-07 0.323843636 1.64671433 -8.80310821e-07 -0.638937682 0.0653167013 -1.55063164e-06 -0.635077938 1.79745859 -1.61465347e-06 0.791870981 3.08150804 -5.89428932e-07 -0.231651329 3.497823 -1.37261008e-06 1.56774974 4.35798633 -6.30665068e-08 0.556813136 5.07466722 -8.35860256e-07 2.60430282 5.41208732 6.62471038e-07 1.69483191 6.44128346 -3.18064632e-08 3.84151304 6.19281936 1.54107252e-06 3.1275115 7.52074528 9.97302028e-07</float_array>
        <technique_common><accessor source="#vfx_kurp_0285-mesh-positions-array" count="59" stride="3"><param name="X" type="float"/><param name="Y" type="float"/><param name="Z" type="float"/></accessor></technique_common>
      </source>
      <source id="vfx_kurp_0285-mesh-normals">
        <float_array id="vfx_kurp_0285-mesh-normals-array" count="177">-8.1121857e-07 -1.71014705e-08 1 -8.11332882e-07 -7.74953435e-09 1 -8.09929134e-07 -1.30385729e-08 1 -8.09426865e-07 -4.13649559e-09 1 -8.11658424e-07 2.53147903e-09 1 -8.08376171e-07 5.90245008e-09 1 -8.09682945e-07 1.27122917e-08 1 -8.05035199e-07 1.53479931e-08 1 -8.05459024e-07 2.22839276e-08 1 -7.99627514e-07 2.3691058e-08 1 -7.98717963e-07 2.66939395e-08 1 -7.93083132e-07 2.73981442e-08 1 -7.42334805e-07 -4.33721539e-08 1 -7.51448908e-07 -4.54704434e-08 1 -7.46578792e-07 -4.29751879e-08 1 -7.55384463e-07 -4.43754402e-08 1 -7.61426406e-07 -4.79723639e-08 1 -7.65417667e-07 -4.548113e-08 1 -7.71794475e-07 -4.8204754e-08 1 -7.75357194e-07 -4.42230004e-08 1 -7.82044935e-07 -4.61104435e-08 1 -7.84658766e-07 -4.07107876e-08 1 -7.87786348e-07 -4.04598381e-08 1 -7.89671446e-07 -3.51031844e-08 1 -7.32871968e-07 3.11574126e-08 1 -7.28484167e-07 2.28982202e-08 1 -7.32155854e-07 2.69555187e-08 1 -7.28522252e-07 1.88134379e-08 1 -7.23482742e-07 1.39097551e-08 1 -7.24854942e-07 9.40929112e-09 1 -7.20572359e-07 3.95579036e-09 1 -7.23495134e-07 -5.16962473e-10 1 -7.19939408e-07 -6.4872836e-09 1 -7.24477502e-07 -1.04107869e-08 1 -7.23909523e-07 -1.34965887e-08 1 -7.28594955e-07 -1.67051439e-08 1 -7.32997194e-07 -3.35246568e-08 1 -7.2986785e-07 -2.90358884e-08 1 -7.36986351e-07 -3.44045645e-08 1 -7.4063388e-07 -4.04162535e-08 1 -7.45327497e-07 -4.00894038e-08 1 -7.49680282e-07 -4.54869991e-08 1 -7.54694952e-07 -4.36429275e-08 1 -7.59714567e-07 -4.8448058e-08 1 -7.64556773e-07 -4.49065425e-08 1 -7.67436347e-07 -4.61525502e-08 1 -7.71614737e-07 -4.2306965e-08 1 -7.69711903e-07 4.47347261e-08 1 -7.6059996e-07 4.26268514e-08 1 -7.66070968e-07 4.25181099e-08 1 -7.57542352e-07 3.99179783e-08 1 -7.50535321e-07 4.05035223e-08 1 -7.48039326e-07 3.65151038e-08 1 -7.41113865e-07 3.61687e-08 1 -7.39656173e-07 3.10283497e-08 1 -7.32817796e-07 2.97944496e-08 1 -7.32834565e-07 2.37954225e-08 1 -7.30133252e-07 2.21992735e-08 1 -7.30786155e-07 1.65581895e-08 1</float_array>
        <technique_common><accessor source="#vfx_kurp_0285-mesh-normals-array" count="59" stride="3"><param name="X" type="float"/><param name="Y" type="float"/><param name="Z" type="float"/></accessor></technique_common>
      </source>
      <source id="vfx_kurp_0285-mesh-uv0">
        <float_array id="vfx_kurp_0285-mesh-uv0-array" count="118">0 0 0 0.199999988 1 0 1 0.199999988 0 0.399999976 1 0.399999976 0 0.600000024 1 0.600000024 0 0.800000012 1 0.800000012 0 1 1 1 0 0 0 0.199999988 1 0 1 0.199999988 0 0.399999976 1 0.399999976 0 0.600000024 1 0.600000024 0 0.800000012 1 0.800000012 0 1 1 1 0 0 0 0.199999988 1 0 1 0.199999988 0 0.399999976 1 0.399999976 0 0.600000024 1 0.600000024 0 0.800000012 1 0.800000012 0 1 1 1 0 0.199999988 1 0 1 0.199999988 0 0.399999976 1 0.399999976 0 0.600000024 1 0.600000024 0 0.800000012 1 0.800000012 0 1 1 1 0 0 0 0.199999988 1 0 1 0.199999988 0 0.399999976 1 0.399999976 0 0.600000024 1 0.600000024 0 0.800000012 1 0.800000012 0 1 1 1</float_array>
        <technique_common><accessor source="#vfx_kurp_0285-mesh-uv0-array" count="59" stride="2"><param name="S" type="float"/><param name="T" type="float"/></accessor></technique_common>
      </source>
      <vertices id="vfx_kurp_0285-mesh-vertices"><input semantic="POSITION" source="#vfx_kurp_0285-mesh-positions"/></vertices>
      <triangles material="PreviewMaterial" count="50">
        <input semantic="VERTEX" source="#vfx_kurp_0285-mesh-vertices" offset="0"/>
        <input semantic="NORMAL" source="#vfx_kurp_0285-mesh-normals" offset="1"/>
        <input semantic="TEXCOORD" source="#vfx_kurp_0285-mesh-uv0" offset="2" set="0"/>
        <p>0 0 0 1 1 1 2 2 2 2 2 2 1 1 1 3 3 3 4 4 4 3 3 3 1 1 1 3 3 3 4 4 4 5 5 5 6 6 6 5 5 5 4 4 4 5 5 5 6 6 6 7 7 7 8 8 8 7 7 7 6 6 6 7 7 7 8 8 8 9 9 9 10 10 10 9 9 9 8 8 8 9 9 9 10 10 10 11 11 11 12 12 12 13 13 13 14 14 14 14 14 14 13 13 13 15 15 15 16 16 16 15 15 15 13 13 13 15 15 15 16 16 16 17 17 17 18 18 18 17 17 17 16 16 16 17 17 17 18 18 18 19 19 19 20 20 20 19 19 19 18 18 18 19 19 19 20 20 20 21 21 21 22 22 22 21 21 21 20 20 20 21 21 21 22 22 22 23 23 23 24 24 24 25 25 25 26 26 26 26 26 26 25 25 25 27 27 27 28 28 28 27 27 27 25 25 25 27 27 27 28 28 28 29 29 29 30 30 30 29 29 29 28 28 28 29 29 29 30 30 30 31 31 31 32 32 32 31 31 31 30 30 30 31 31 31 32 32 32 33 33 33 34 34 34 33 33 33 32 32 32 33 33 33 34 34 34 35 35 35 12 12 12 36 36 36 37 37 37 37 37 37 36 36 36 38 38 38 39 39 39 38 38 38 36 36 36 38 38 38 39 39 39 40 40 40 41 41 41 40 40 40 39 39 39 40 40 40 41 41 41 42 42 42 43 43 43 42 42 42 41 41 41 42 42 42 43 43 43 44 44 44 45 45 45 44 44 44 43 43 43 44 44 44 45 45 45 46 46 46 47 47 47 48 48 48 49 49 49 49 49 49 48 48 48 50 50 50 51 51 51 50 50 50 48 48 48 50 50 50 51 51 51 52 52 52 53 53 53 52 52 52 51 51 51 52 52 52 53 53 53 54 54 54 55 55 55 54 54 54 53 53 53 54 54 54 55 55 55 56 56 56 57 57 57 56 56 56 55 55 55 56 56 56 57 57 57 58 58 58</p>
      </triangles>
    </mesh></geometry>
  </library_geometries>
  <library_visual_scenes>
    <visual_scene id="Scene" name="Scene">
      <node id="vfx_kurp_0285" name="vfx_kurp_0285" type="NODE">
        <instance_geometry url="#vfx_kurp_0285-mesh"><bind_material><technique_common><instance_material symbol="PreviewMaterial" target="#PreviewMaterial"><bind_vertex_input semantic="UVSET0" input_semantic="TEXCOORD" input_set="0"/></instance_material></technique_common></bind_material></instance_geometry>
      </node>
    </visual_scene>
  </library_visual_scenes>
  <scene><instance_visual_scene url="#Scene"/></scene>
</COLLADA>
