<?xml version="1.0" encoding="utf-8"?>
<COLLADA xmlns="http://www.collada.org/2005/11/COLLADASchema" version="1.4.1">
  <asset>
    <contributor><authoring_tool>Morrobroom Kurpulio VFX preview converter</authoring_tool></contributor>
    <unit name="unit" meter="1"/>
    <up_axis>Z_UP</up_axis>
  </asset>
  <library_images>
    <image id="VFXTexture" name="darkmap_newgen-1.dds">
      <init_from>../../../Textures/Kurp/darkmap_newgen-1.dds</init_from>
    </image>
  </library_images>
  <library_effects>
    <effect id="PreviewEffect">
      <profile_COMMON>
        <newparam sid="VFXTexture-surface">
          <surface type="2D"><init_from>VFXTexture</init_from></surface>
        </newparam>
        <newparam sid="VFXTexture-sampler">
          <sampler2D><source>VFXTexture-surface</source></sampler2D>
        </newparam>
        <technique sid="common"><phong>
          <emission><color>0.08 0.08 0.08 1</color></emission>
          <ambient><color>0.2 0.2 0.2 1</color></ambient>
          <diffuse><texture texture="VFXTexture-sampler" texcoord="UVSET0"/></diffuse>
          <specular><color>0.15 0.15 0.15 1</color></specular>
          <shininess><float>8</float></shininess>
          <transparent opaque="A_ONE"><texture texture="VFXTexture-sampler" texcoord="UVSET0"/></transparent>
          <transparency><float>1</float></transparency>
        </phong></technique>
      </profile_COMMON>
      <extra><technique profile="GOOGLEEARTH"><double_sided>1</double_sided></technique></extra>
    </effect>
  </library_effects>
  <library_materials><material id="PreviewMaterial" name="PreviewMaterial"><instance_effect url="#PreviewEffect"/></material></library_materials>
  <library_geometries>
    <geometry id="vfx_kurp_0368-mesh" name="vfx_kurp_0368"><mesh>
      <source id="vfx_kurp_0368-mesh-positions">
        <float_array id="vfx_kurp_0368-mesh-positions-array" count="378">3.05951249 -0.801851137 -4.4551091 3.54929103 0.101224233 -4.32902457 4.10766723 -1.45394044 -4.37135 4.67445317 -0.409509555 -4.23197217 3.79983325 0.881705184 -3.97239914 4.99142808 0.570542559 -3.80499013 3.74347934 1.40578288 -3.43334772 4.9343952 1.39318621 -3.06216885 3.59759752 1.77107005 -2.98061142 4.25495776 1.6786695 -2.10035676 2.42560529 -3.42722466 -3.67477756 3.34354853 -2.49174157 -4.20226948 3.03848745 -3.22163338 -2.60756742 3.77824523 -2.46833982 -3.03262011 4.10766723 -1.45394044 -4.37135 4.39501109 -1.63410854 -3.16962497 4.67445317 -0.409509555 -4.23197217 4.84620274 -0.81621371 -3.06339687 4.99142808 0.570542559 -3.80499013 5.093655 -0.111774084 -2.76418853 4.9343952 1.39318621 -3.06216885 5.11675834 0.412442194 -2.31806718 4.25495776 1.6786695 -2.10035676 5.11675834 0.412442194 -2.31806718 4.9343952 1.39318621 -3.06216885 4.67975153 0.696252698 -1.65079857 3.34354853 -2.49174157 -4.20226948 2.38059583 -1.72406886 -4.30672468 2.42560529 -3.42722466 -3.67477756 1.55823001 -2.5621281 -3.834506 1.37277747 -4.04893268 -2.88396617 0.74765164 -2.99332207 -3.011716 0.443639898 -4.22272955 -2.01468517 0.150607458 -3.04596631 -2.25229678 -0.323428579 -4.05691927 -1.1291447 -0.353357501 -2.90376295 -1.58664761 -0.922820976 -3.58441664 -0.323309781 -0.732267489 -2.57992407 -1.03596224 -1.3138459 -2.82912667 0.32021186 -0.951125539 -2.13786108 -0.655035846 -1.42265221 -1.82364873 0.686701427 -1.00156123 -1.64269512 -0.472062601 -1.17768017 -0.69495672 0.643829473 -0.872151194 -1.06648994 -0.497699871 2.22370209 -3.92482188 -1.97802718 1.37277747 -4.04893268 -2.88396617 1.38406548 -4.25579525 -1.19324559 0.443639898 -4.22272955 -2.01468517 0.640255326 -4.1602087 -0.341642118 -0.323428579 -4.05691927 -1.1291447 0.0468691701 -3.72672808 0.450275553 -0.922820976 -3.58441664 -0.323309781 -0.344518997 -2.99381804 1.08960375 -1.3138459 -2.82912667 0.32021186 -0.455704551 -1.99823602 1.45683302 -1.42265221 -1.82364873 0.686701427 -0.211539528 -0.86979574 1.4149216 -1.17768017 -0.69495672 0.643829473 0.385596395 0.226365213 0.916605611 -0.58237657 0.397715058 0.147013726 -0.58237657 0.397715058 0.147013726 -0.473942296 -0.345984433 -0.83238532 2.72762297 1.19198275 0.437954285 3.50372766 0.63488961 0.838939107 3.49830653 1.92899877 -0.192745226 4.39555368 1.28888127 0.275892409 4.03806798 -0.0577407505 1.02115478 5.06660668 0.433044819 0.520322772 4.21722803 -0.783227879 0.947026016 5.36666805 -0.630554979 0.478532895 3.89856247 -1.27980273 0.574618937 5.36666805 -0.630554979 0.478532895 4.21722803 -0.783227879 0.947026016 4.99281006 -1.69412829 0.130184026 1.32905792 2.33846476 -1.7237333 2.4500973 2.30712319 -0.864511701 2.08198829 1.71534747 -2.5026882 2.98522137 1.6904811 -1.81066688 3.49830653 1.92899877 -0.192745226 3.83007998 1.38802029 -1.27020916 4.39555368 1.28888127 0.275892409 4.5392922 0.890917193 -0.902066063 5.06660668 0.433044819 0.520322772 5.03921729 0.286847489 -0.723372826 5.36666805 -0.630554979 0.478532895 5.28331891 -0.354853313 -0.737912559 4.99281006 -1.69412829 0.130184026 5.28331891 -0.354853313 -0.737912559 5.36666805 -0.630554979 0.478532895 5.25429496 -1.12394132 -0.945106994 2.4500973 2.30712319 -0.864511701 1.79605787 1.52920234 -0.157579977 1.32905792 2.33846476 -1.7237333 0.791713454 1.55748769 -0.92705728 0.21443947 1.94083479 -2.56683688 -0.0284860577 1.0830469 -1.71022219 -0.62529905 1.21898155 -3.20565447 -0.527577555 0.451054504 -2.23741921 -1.19709229 0.300273057 -3.66652651 -0.883429918 -0.228779044 -2.5834958 -1.51662966 -0.729867711 -3.89748789 -1.07271834 -0.923663475 -2.74526916 -1.56232711 -1.78962439 -3.8563103 -1.08965336 -1.54345247 -2.72592783 -1.28776448 -2.76028995 -3.48653676 -0.951235535 -2.02204588 -2.54619934 -0.68228213 -3.44661688 -2.77743993 -0.638442796 -2.36867183 -2.18196785 1.14634544 1.55220274 -3.30876294 0.21443947 1.94083479 -2.56683688 0.32880221 1.02227531 -3.99523607 -0.62529905 1.21898155 -3.20565447 -0.248353969 0.181595769 -4.47785348 -1.19709229 0.300273057 -3.66652651 -0.576844872 -0.810501007 -4.7236635 -1.51662966 -0.729867711 -3.89748789 -0.630855508 -1.8520387 -4.69334344 -1.56232711 -1.78962439 -3.8563103 -0.361780753 -2.81699006 -4.33003186 -1.28776448 -2.76028995 -3.48653676 0.242958824 -3.50400254 -3.6217109 -0.68228213 -3.44661688 -2.77743993 1.12062897 -3.76824658 -2.63603017 0.192649063 -3.70994317 -1.79484078 0.192649063 -3.70994317 -1.79484078 -0.0569336331 -2.53603702 -1.52944903</float_array>
        <technique_common><accessor source="#vfx_kurp_0368-mesh-positions-array" count="126" stride="3"><param name="X" type="float"/><param name="Y" type="float"/><param name="Z" type="float"/></accessor></technique_common>
      </source>
      <source id="vfx_kurp_0368-mesh-normals">
        <float_array id="vfx_kurp_0368-mesh-normals-array" count="378">0.0550714497 -0.0404068661 -0.997664483 0.178762398 0.207814099 -0.961695017 0.0534174688 -0.0399001477 -0.9977748 0.171664401 0.204358249 -0.963726642 0.257411051 0.536244987 -0.803853759 0.235639043 0.512221036 -0.825895788 0.22373058 0.739265389 -0.635162429 0.246143745 0.816123789 -0.522833835 0.232661384 0.901708565 -0.364404096 0.265221178 0.959258534 -0.0973693534 0.551646391 -0.807536092 -0.208738401 0.696516432 -0.674320593 -0.24526842 0.600279373 -0.7755417 -0.195447554 0.695401479 -0.675385937 -0.245500752 0.811429708 -0.517752181 -0.271135592 0.809213211 -0.520028368 -0.273394359 0.912680553 -0.326388734 -0.245936176 0.908174121 -0.331626632 -0.255428157 0.989344133 -0.0621977971 -0.131642016 0.982838187 -0.0725392019 -0.169608852 0.993442571 0.0915758478 -0.0684523309 0.987041928 0.0765265003 -0.141038741 0.793996017 0.47520999 0.379138221 0.796594412 0.478691059 0.369177752 0.783334023 0.461553522 0.416360606 0.80819034 0.495271833 0.318644295 -0.0953357005 -0.250057717 -0.963525943 -0.095441866 -0.250899754 -0.963296509 -0.251693462 -0.413798924 -0.874883336 -0.306213827 -0.403975228 -0.861996002 -0.50353411 -0.437338278 -0.745109811 -0.601970352 -0.387805047 -0.698025029 -0.698935495 -0.34211894 -0.628047614 -0.757081921 -0.288198657 -0.586317745 -0.805267907 -0.250109068 -0.53757702 -0.824613188 -0.21918392 -0.521508868 -0.876978723 -0.16285471 -0.452091433 -0.88312503 -0.144094676 -0.446460418 -0.926209826 -0.0472243144 -0.374039066 -0.927241782 -0.0361697549 -0.372712257 -0.940146654 0.105945614 -0.32388238 -0.939031497 0.112131329 -0.325032942 -0.908919552 0.259094345 -0.326703794 -0.907584924 0.261196695 -0.328733772 0.370352848 -0.914637226 -0.162103399 0.26375235 -0.949568482 -0.169571209 0.0504968651 -0.997912285 -0.0402633583 -0.025028796 -0.999140267 -0.0330497391 -0.214021102 -0.963984702 0.157887498 -0.244632394 -0.955704839 0.163655896 -0.422180917 -0.818694174 0.389234021 -0.435182793 -0.810836011 0.391357764 -0.578708788 -0.528616389 0.621015984 -0.583183503 -0.524146649 0.620618476 -0.629304158 -0.0875833774 0.772208151 -0.630392242 -0.0867163881 0.771418103 -0.537689591 0.369456079 0.757886607 -0.538042664 0.369109374 0.757804963 -0.451825161 0.561368697 0.693339174 -0.45183771 0.561399886 0.693305742 -0.881105859 0.325456734 -0.34311861 -0.880096205 0.326118679 -0.345075756 -0.0584126753 0.68400923 0.727130891 0.143864545 0.527311476 0.837404084 -0.0600041117 0.683316166 0.72765275 0.136033282 0.52860161 0.837899328 0.343638513 0.221859984 0.912518888 0.313386985 0.24492661 0.917496351 0.403377077 0.0390312605 0.914201014 0.368855496 0.0676374167 0.927022547 0.294203459 -0.549538837 0.781953574 0.270413536 -0.488710407 0.829480957 0.348574189 -0.695168246 0.628678888 0.224127105 -0.373592938 0.900108525 0.223562926 0.878786347 -0.42160903 0.400138984 0.854660392 -0.330823832 0.281392093 0.863485766 -0.418581918 0.398774729 0.855185793 -0.331113236 0.557361403 0.797904278 -0.229558337 0.554167364 0.800281766 -0.22901447 0.7188043 0.680166532 -0.143853632 0.711499733 0.688720944 -0.13939724 0.891375356 0.446610922 -0.0773864318 0.877312563 0.476871211 -0.0540047667 0.953379289 0.300220623 -0.0305860788 0.934657335 0.355168789 0.0164559032 0.975267851 -0.220586225 -0.0139404466 0.981068096 -0.1906113 0.0342450465 0.947934411 -0.290380744 -0.130764579 0.977627649 -0.0883231314 0.190901034 -0.266397958 0.760956247 0.591589146 -0.26618814 0.761249539 0.591306193 -0.459236496 0.769177401 0.44437368 -0.505290698 0.736880289 0.449097707 -0.691088754 0.622571608 0.367152456 -0.762450231 0.52626828 0.376445671 -0.831701312 0.418134123 0.365289999 -0.864346414 0.334565428 0.375461385 -0.892113922 0.261007252 0.368792576 -0.898394735 0.222483205 0.378666243 -0.921804392 0.121520845 0.368115941 -0.920775968 0.102245555 0.376453799 -0.921483562 -0.0259230688 0.387551339 -0.918512353 -0.0357018204 0.393777142 -0.878143801 -0.170815752 0.446861773 -0.874844598 -0.17465644 0.451820825 -0.797535794 -0.267276845 0.540832456 -0.795759303 -0.267049321 0.543554774 0.0230627398 0.866374094 -0.498862746 -0.0897315478 0.86132028 -0.500075619 -0.292829116 0.744671362 -0.599763012 -0.363732797 0.716344346 -0.595440367 -0.510552965 0.508514328 -0.693360547 -0.536085711 0.488810153 -0.688241778 -0.633887907 0.190195127 -0.749674553 -0.643282041 0.178686262 -0.744486021 -0.658649274 -0.212519634 -0.721814754 -0.661277639 -0.217560181 -0.717899332 -0.541300651 -0.632993891 -0.553454911 -0.541661997 -0.6342906 -0.551613737 -0.303745611 -0.913346954 -0.271175121 -0.303579025 -0.91358156 -0.27057071 -0.165710689 -0.979449392 -0.114973287 -0.165715252 -0.979454119 -0.114926428 -0.750807335 -0.294589324 0.591189881 -0.749841229 -0.293478028 0.592966086</float_array>
        <technique_common><accessor source="#vfx_kurp_0368-mesh-normals-array" count="126" stride="3"><param name="X" type="float"/><param name="Y" type="float"/><param name="Z" type="float"/></accessor></technique_common>
      </source>
      <source id="vfx_kurp_0368-mesh-uv0">
        <float_array id="vfx_kurp_0368-mesh-uv0-array" count="252">1 0.285714269 1 0.214285672 0.5 0.285714269 0.5 0.214285672 1 0.142857075 0.5 0.142857075 1 0.0714285374 0.5 0.0714285374 1 0 0.5 0 0.5 0.428571403 0.5 0.357142806 0 0.428571403 0 0.357142806 0.5 0.285714269 0 0.285714269 0.5 0.214285672 0 0.214285672 0.5 0.142857075 0 0.142857075 0.5 0.0714285374 0 0.0714285374 0.5 0 0 0.0714285374 0.5 0.0714285374 0 0 0.5 0.357142806 1 0.357142806 0.5 0.428571403 1 0.428571403 0.5 0.5 1 0.5 0.5 0.571428537 1 0.571428537 0.5 0.642857134 1 0.642857134 0.5 0.714285731 1 0.714285731 0.5 0.785714269 1 0.785714269 0.5 0.857142866 1 0.857142866 0.5 0.928571403 1 0.928571403 0 0.5 0.5 0.5 0 0.571428537 0.5 0.571428537 0 0.642857134 0.5 0.642857134 0 0.714285731 0.5 0.714285731 0 0.785714269 0.5 0.785714269 0 0.857142866 0.5 0.857142866 0 0.928571403 0.5 0.928571403 0 1 0.5 1 0.5 1 1 1 1 0.285714269 1 0.214285672 0.5 0.285714269 0.5 0.214285672 1 0.142857075 0.5 0.142857075 1 0.0714285374 0.5 0.0714285374 1 0 0.5 0.0714285374 1 0.0714285374 0.5 0 0.5 0.428571403 0.5 0.357142806 0 0.428571403 0 0.357142806 0.5 0.285714269 0 0.285714269 0.5 0.214285672 0 0.214285672 0.5 0.142857075 0 0.142857075 0.5 0.0714285374 0 0.0714285374 0.5 0 0 0.0714285374 0.5 0.0714285374 0 0 0.5 0.357142806 1 0.357142806 0.5 0.428571403 1 0.428571403 0.5 0.5 1 0.5 0.5 0.571428537 1 0.571428537 0.5 0.642857134 1 0.642857134 0.5 0.714285731 1 0.714285731 0.5 0.785714269 1 0.785714269 0.5 0.857142866 1 0.857142866 0.5 0.928571403 1 0.928571403 0 0.5 0.5 0.5 0 0.571428537 0.5 0.571428537 0 0.642857134 0.5 0.642857134 0 0.714285731 0.5 0.714285731 0 0.785714269 0.5 0.785714269 0 0.857142866 0.5 0.857142866 0 0.928571403 0.5 0.928571403 0 1 0.5 1 0.5 1 1 1</float_array>
        <technique_common><accessor source="#vfx_kurp_0368-mesh-uv0-array" count="126" stride="2"><param name="S" type="float"/><param name="T" type="float"/></accessor></technique_common>
      </source>
      <source id="vfx_kurp_0368-mesh-colors">
        <float_array id="vfx_kurp_0368-mesh-colors-array" count="504">0.0392156877 0.0392156877 0.0392156877 0 0.0392156877 0.0392156877 0.0392156877 0 0.0392156877 0.0392156877 0.0392156877 1 0.0392156877 0.0392156877 0.0392156877 1 0.0392156877 0.0392156877 0.0392156877 0 0.0392156877 0.0392156877 0.0392156877 1 0.0392156877 0.0392156877 0.0392156877 0 0.0392156877 0.0392156877 0.0392156877 1 0.0392156877 0.0392156877 0.0392156877 0 0.0392156877 0.0392156877 0.0392156877 0 0.0392156877 0.0392156877 0.0392156877 1 0.0392156877 0.0392156877 0.0392156877 1 0.0392156877 0.0392156877 0.0392156877 0 0.0392156877 0.0392156877 0.0392156877 0 0.0392156877 0.0392156877 0.0392156877 1 0.0392156877 0.0392156877 0.0392156877 0 0.0392156877 0.0392156877 0.0392156877 1 0.0392156877 0.0392156877 0.0392156877 0 0.0392156877 0.0392156877 0.0392156877 1 0.0392156877 0.0392156877 0.0392156877 0 0.0392156877 0.0392156877 0.0392156877 1 0.0392156877 0.0392156877 0.0392156877 0 0.0392156877 0.0392156877 0.0392156877 0 0.0392156877 0.0392156877 0.0392156877 0 0.0392156877 0.0392156877 0.0392156877 1 0.0392156877 0.0392156877 0.0392156877 0 0.0392156877 0.0392156877 0.0392156877 1 0.0392156877 0.0392156877 0.0392156877 0 0.0392156877 0.0392156877 0.0392156877 1 0.0392156877 0.0392156877 0.0392156877 0 0.0392156877 0.0392156877 0.0392156877 1 0.0392156877 0.0392156877 0.0392156877 0 0.0392156877 0.0392156877 0.0392156877 1 0.0392156877 0.0392156877 0.0392156877 0 0.0392156877 0.0392156877 0.0392156877 1 0.0392156877 0.0392156877 0.0392156877 0 0.0392156877 0.0392156877 0.0392156877 1 0.0392156877 0.0392156877 0.0392156877 0 0.0392156877 0.0392156877 0.0392156877 1 0.0392156877 0.0392156877 0.0392156877 0 0.0392156877 0.0392156877 0.0392156877 1 0.0392156877 0.0392156877 0.0392156877 0 0.0392156877 0.0392156877 0.0392156877 1 0.0392156877 0.0392156877 0.0392156877 0 0.0392156877 0.0392156877 0.0392156877 0 0.0392156877 0.0392156877 0.0392156877 1 0.0392156877 0.0392156877 0.0392156877 0 0.0392156877 0.0392156877 0.0392156877 1 0.0392156877 0.0392156877 0.0392156877 0 0.0392156877 0.0392156877 0.0392156877 1 0.0392156877 0.0392156877 0.0392156877 0 0.0392156877 0.0392156877 0.0392156877 1 0.0392156877 0.0392156877 0.0392156877 0 0.0392156877 0.0392156877 0.0392156877 1 0.0392156877 0.0392156877 0.0392156877 0 0.0392156877 0.0392156877 0.0392156877 1 0.0392156877 0.0392156877 0.0392156877 0 0.0392156877 0.0392156877 0.0392156877 1 0.0392156877 0.0392156877 0.0392156877 0 0.0392156877 0.0392156877 0.0392156877 0 0.0392156877 0.0392156877 0.0392156877 0 0.0392156877 0.0392156877 0.0392156877 0 0.0392156877 0.0392156877 0.0392156877 0 0.0392156877 0.0392156877 0.0392156877 0 0.0392156877 0.0392156877 0.0392156877 1 0.0392156877 0.0392156877 0.0392156877 1 0.0392156877 0.0392156877 0.0392156877 0 0.0392156877 0.0392156877 0.0392156877 1 0.0392156877 0.0392156877 0.0392156877 0 0.0392156877 0.0392156877 0.0392156877 1 0.0392156877 0.0392156877 0.0392156877 0 0.0392156877 0.0392156877 0.0392156877 1 0.0392156877 0.0392156877 0.0392156877 0 0.0392156877 0.0392156877 0.0392156877 0 0.0392156877 0.0392156877 0.0392156877 1 0.0392156877 0.0392156877 0.0392156877 1 0.0392156877 0.0392156877 0.0392156877 0 0.0392156877 0.0392156877 0.0392156877 0 0.0392156877 0.0392156877 0.0392156877 1 0.0392156877 0.0392156877 0.0392156877 0 0.0392156877 0.0392156877 0.0392156877 1 0.0392156877 0.0392156877 0.0392156877 0 0.0392156877 0.0392156877 0.0392156877 1 0.0392156877 0.0392156877 0.0392156877 0 0.0392156877 0.0392156877 0.0392156877 1 0.0392156877 0.0392156877 0.0392156877 0 0.0392156877 0.0392156877 0.0392156877 0 0.0392156877 0.0392156877 0.0392156877 0 0.0392156877 0.0392156877 0.0392156877 1 0.0392156877 0.0392156877 0.0392156877 0 0.0392156877 0.0392156877 0.0392156877 1 0.0392156877 0.0392156877 0.0392156877 0 0.0392156877 0.0392156877 0.0392156877 1 0.0392156877 0.0392156877 0.0392156877 0 0.0392156877 0.0392156877 0.0392156877 1 0.0392156877 0.0392156877 0.0392156877 0 0.0392156877 0.0392156877 0.0392156877 1 0.0392156877 0.0392156877 0.0392156877 0 0.0392156877 0.0392156877 0.0392156877 1 0.0392156877 0.0392156877 0.0392156877 0 0.0392156877 0.0392156877 0.0392156877 1 0.0392156877 0.0392156877 0.0392156877 0 0.0392156877 0.0392156877 0.0392156877 1 0.0392156877 0.0392156877 0.0392156877 0 0.0392156877 0.0392156877 0.0392156877 1 0.0392156877 0.0392156877 0.0392156877 0 0.0392156877 0.0392156877 0.0392156877 1 0.0392156877 0.0392156877 0.0392156877 0 0.0392156877 0.0392156877 0.0392156877 0 0.0392156877 0.0392156877 0.0392156877 1 0.0392156877 0.0392156877 0.0392156877 0 0.0392156877 0.0392156877 0.0392156877 1 0.0392156877 0.0392156877 0.0392156877 0 0.0392156877 0.0392156877 0.0392156877 1 0.0392156877 0.0392156877 0.0392156877 0 0.0392156877 0.0392156877 0.0392156877 1 0.0392156877 0.0392156877 0.0392156877 0 0.0392156877 0.0392156877 0.0392156877 1 0.0392156877 0.0392156877 0.0392156877 0 0.0392156877 0.0392156877 0.0392156877 1 0.0392156877 0.0392156877 0.0392156877 0 0.0392156877 0.0392156877 0.0392156877 1 0.0392156877 0.0392156877 0.0392156877 0 0.0392156877 0.0392156877 0.0392156877 0 0.0392156877 0.0392156877 0.0392156877 0 0.0392156877 0.0392156877 0.0392156877 0</float_array>
        <technique_common><accessor source="#vfx_kurp_0368-mesh-colors-array" count="126" stride="4"><param name="R" type="float"/><param name="G" type="float"/><param name="B" type="float"/><param name="A" type="float"/></accessor></technique_common>
      </source>
      <vertices id="vfx_kurp_0368-mesh-vertices"><input semantic="POSITION" source="#vfx_kurp_0368-mesh-positions"/></vertices>
      <triangles material="PreviewMaterial" count="112">
        <input semantic="VERTEX" source="#vfx_kurp_0368-mesh-vertices" offset="0"/>
        <input semantic="NORMAL" source="#vfx_kurp_0368-mesh-normals" offset="1"/>
        <input semantic="TEXCOORD" source="#vfx_kurp_0368-mesh-uv0" offset="2" set="0"/>
        <input semantic="COLOR" source="#vfx_kurp_0368-mesh-colors" offset="3" set="0"/>
        <p>0 0 0 0 1 1 1 1 2 2 2 2 2 2 2 2 1 1 1 1 3 3 3 3 4 4 4 4 3 3 3 3 1 1 1 1 3 3 3 3 4 4 4 4 5 5 5 5 6 6 6 6 5 5 5 5 4 4 4 4 5 5 5 5 6 6 6 6 7 7 7 7 8 8 8 8 7 7 7 7 6 6 6 6 7 7 7 7 8 8 8 8 9 9 9 9 10 10 10 10 11 11 11 11 12 12 12 12 12 12 12 12 11 11 11 11 13 13 13 13 14 14 14 14 13 13 13 13 11 11 11 11 13 13 13 13 14 14 14 14 15 15 15 15 16 16 16 16 15 15 15 15 14 14 14 14 15 15 15 15 16 16 16 16 17 17 17 17 18 18 18 18 17 17 17 17 16 16 16 16 17 17 17 17 18 18 18 18 19 19 19 19 20 20 20 20 19 19 19 19 18 18 18 18 19 19 19 19 20 20 20 20 21 21 21 21 22 22 22 22 23 23 23 23 24 24 24 24 23 23 23 23 22 22 22 22 25 25 25 25 26 26 26 26 0 0 0 0 2 2 2 2 0 0 0 0 26 26 26 26 27 27 27 27 28 28 28 28 27 27 27 27 26 26 26 26 27 27 27 27 28 28 28 28 29 29 29 29 30 30 30 30 29 29 29 29 28 28 28 28 29 29 29 29 30 30 30 30 31 31 31 31 32 32 32 32 31 31 31 31 30 30 30 30 31 31 31 31 32 32 32 32 33 33 33 33 34 34 34 34 33 33 33 33 32 32 32 32 33 33 33 33 34 34 34 34 35 35 35 35 36 36 36 36 35 35 35 35 34 34 34 34 35 35 35 35 36 36 36 36 37 37 37 37 38 38 38 38 37 37 37 37 36 36 36 36 37 37 37 37 38 38 38 38 39 39 39 39 40 40 40 40 39 39 39 39 38 38 38 38 39 39 39 39 40 40 40 40 41 41 41 41 42 42 42 42 41 41 41 41 40 40 40 40 43 43 43 43 41 41 41 41 42 42 42 42 44 44 44 44 10 10 10 10 12 12 12 12 10 10 10 10 44 44 44 44 45 45 45 45 46 46 46 46 45 45 45 45 44 44 44 44 45 45 45 45 46 46 46 46 47 47 47 47 48 48 48 48 47 47 47 47 46 46 46 46 47 47 47 47 48 48 48 48 49 49 49 49 50 50 50 50 49 49 49 49 48 48 48 48 49 49 49 49 50 50 50 50 51 51 51 51 52 52 52 52 51 51 51 51 50 50 50 50 51 51 51 51 52 52 52 52 53 53 53 53 54 54 54 54 53 53 53 53 52 52 52 52 53 53 53 53 54 54 54 54 55 55 55 55 56 56 56 56 55 55 55 55 54 54 54 54 55 55 55 55 56 56 56 56 57 57 57 57 58 58 58 58 57 57 57 57 56 56 56 56 59 59 59 59 57 57 57 57 58 58 58 58 42 42 42 42 60 60 60 60 43 43 43 43 61 61 61 61 43 43 43 43 60 60 60 60 62 62 62 62 63 63 63 63 64 64 64 64 64 64 64 64 63 63 63 63 65 65 65 65 66 66 66 66 65 65 65 65 63 63 63 63 65 65 65 65 66 66 66 66 67 67 67 67 68 68 68 68 67 67 67 67 66 66 66 66 67 67 67 67 68 68 68 68 69 69 69 69 70 70 70 70 71 71 71 71 72 72 72 72 71 71 71 71 70 70 70 70 73 73 73 73 74 74 74 74 75 75 75 75 76 76 76 76 76 76 76 76 75 75 75 75 77 77 77 77 78 78 78 78 77 77 77 77 75 75 75 75 77 77 77 77 78 78 78 78 79 79 79 79 80 80 80 80 79 79 79 79 78 78 78 78 79 79 79 79 80 80 80 80 81 81 81 81 82 82 82 82 81 81 81 81 80 80 80 80 81 81 81 81 82 82 82 82 83 83 83 83 84 84 84 84 83 83 83 83 82 82 82 82 83 83 83 83 84 84 84 84 85 85 85 85 86 86 86 86 87 87 87 87 88 88 88 88 87 87 87 87 86 86 86 86 89 89 89 89 90 90 90 90 62 62 62 62 64 64 64 64 62 62 62 62 90 90 90 90 91 91 91 91 92 92 92 92 91 91 91 91 90 90 90 90 91 91 91 91 92 92 92 92 93 93 93 93 94 94 94 94 93 93 93 93 92 92 92 92 93 93 93 93 94 94 94 94 95 95 95 95 96 96 96 96 95 95 95 95 94 94 94 94 95 95 95 95 96 96 96 96 97 97 97 97 98 98 98 98 97 97 97 97 96 96 96 96 97 97 97 97 98 98 98 98 99 99 99 99 100 100 100 100 99 99 99 99 98 98 98 98 99 99 99 99 100 100 100 100 101 101 101 101 102 102 102 102 101 101 101 101 100 100 100 100 101 101 101 101 102 102 102 102 103 103 103 103 104 104 104 104 103 103 103 103 102 102 102 102 103 103 103 103 104 104 104 104 105 105 105 105 106 106 106 106 105 105 105 105 104 104 104 104 107 107 107 107 105 105 105 105 106 106 106 106 108 108 108 108 74 74 74 74 76 76 76 76 74 74 74 74 108 108 108 108 109 109 109 109 110 110 110 110 109 109 109 109 108 108 108 108 109 109 109 109 110 110 110 110 111 111 111 111 112 112 112 112 111 111 111 111 110 110 110 110 111 111 111 111 112 112 112 112 113 113 113 113 114 114 114 114 113 113 113 113 112 112 112 112 113 113 113 113 114 114 114 114 115 115 115 115 116 116 116 116 115 115 115 115 114 114 114 114 115 115 115 115 116 116 116 116 117 117 117 117 118 118 118 118 117 117 117 117 116 116 116 116 117 117 117 117 118 118 118 118 119 119 119 119 120 120 120 120 119 119 119 119 118 118 118 118 119 119 119 119 120 120 120 120 121 121 121 121 122 122 122 122 121 121 121 121 120 120 120 120 123 123 123 123 121 121 121 121 122 122 122 122 106 106 106 106 124 124 124 124 107 107 107 107 125 125 125 125 107 107 107 107 124 124 124 124</p>
      </triangles>
    </mesh></geometry>
  </library_geometries>
  <library_visual_scenes>
    <visual_scene id="Scene" name="Scene">
      <node id="vfx_kurp_0368" name="vfx_kurp_0368" type="NODE">
        <instance_geometry url="#vfx_kurp_0368-mesh"><bind_material><technique_common><instance_material symbol="PreviewMaterial" target="#PreviewMaterial"><bind_vertex_input semantic="UVSET0" input_semantic="TEXCOORD" input_set="0"/></instance_material></technique_common></bind_material></instance_geometry>
      </node>
    </visual_scene>
  </library_visual_scenes>
  <scene><instance_visual_scene url="#Scene"/></scene>
</COLLADA>
