<?xml version="1.0" encoding="utf-8"?>
<COLLADA xmlns="http://www.collada.org/2005/11/COLLADASchema" version="1.4.1">
  <asset>
    <contributor><authoring_tool>Morrobroom Kurpulio VFX preview converter</authoring_tool></contributor>
    <unit name="unit" meter="1"/>
    <up_axis>Z_UP</up_axis>
  </asset>
  <library_images>
    <image id="VFXTexture" name="darkmap_newgen-1.dds">
      <init_from>../../../Textures/Kurp/darkmap_newgen-1.dds</init_from>
    </image>
  </library_images>
  <library_effects>
    <effect id="PreviewEffect">
      <profile_COMMON>
        <newparam sid="VFXTexture-surface">
          <surface type="2D"><init_from>VFXTexture</init_from></surface>
        </newparam>
        <newparam sid="VFXTexture-sampler">
          <sampler2D><source>VFXTexture-surface</source></sampler2D>
        </newparam>
        <technique sid="common"><phong>
          <emission><color>0.08 0.08 0.08 1</color></emission>
          <ambient><color>0.2 0.2 0.2 1</color></ambient>
          <diffuse><texture texture="VFXTexture-sampler" texcoord="UVSET0"/></diffuse>
          <specular><color>0.15 0.15 0.15 1</color></specular>
          <shininess><float>8</float></shininess>
          <transparent opaque="A_ONE"><texture texture="VFXTexture-sampler" texcoord="UVSET0"/></transparent>
          <transparency><float>1</float></transparency>
        </phong></technique>
      </profile_COMMON>
      <extra><technique profile="GOOGLEEARTH"><double_sided>1</double_sided></technique></extra>
    </effect>
  </library_effects>
  <library_materials><material id="PreviewMaterial" name="PreviewMaterial"><instance_effect url="#PreviewEffect"/></material></library_materials>
  <library_geometries>
    <geometry id="vfx_kurp_0462-mesh" name="vfx_kurp_0462"><mesh>
      <source id="vfx_kurp_0462-mesh-positions">
        <float_array id="vfx_kurp_0462-mesh-positions-array" count="1098">-0.536970049 0.551284666 -0.607174671 -0.439811525 -0.0580431475 -0.479617942 -0.0370991228 0.68950568 -0.0843378338 -0.0106965317 0.0224548122 0.0328675491 0.0862392826 2.90161403 -1.26242734 -0.0179653997 1.90294744 -0.54894615 1.21476531 2.72630952 -1.25227494 0.875731834 1.79016632 -0.663680189 0.670513996 0.655537607 -0.285495176 0.622085834 0.0337458951 -0.196740859 -0.706948465 1.65380886 -1.08542618 -0.855126893 2.54830623 -1.80409976 0.262652617 3.62075346 -2.15566436 -0.99576258 3.1717017 -2.68940204 0.498569159 3.99466461 -3.15982188 -1.14461346 3.47000808 -3.6648651 0.634815899 4.03120752 -3.68164296 -1.22651337 3.48439932 -4.16579702 0.780990154 3.95628641 -4.20452502 -1.31460606 3.40221643 -4.66882108 0.93529425 3.76180467 -4.71911674 -1.40885917 3.21556982 -5.17150344 1.09591354 3.44003865 -5.21612357 -1.50906695 2.91303025 -5.67091282 1.26109301 2.98347637 -5.68654544 -1.61560484 2.48108358 -6.16126335 1.67332416 3.40088007 -1.97735645 2.23558877 3.75996678 -2.76225157 2.55119351 3.80843092 -3.15645855 2.88856464 3.76284712 -3.54513362 3.24774344 3.61536807 -3.9258864 3.62895142 3.35457611 -4.29584726 4.03182691 2.96693306 -4.64928682 4.45513432 2.43923143 -4.97729129 1.42916788 2.38457893 -6.12170661 -1.72972463 1.90656227 -6.63361317 1.60261742 9.49179836 -0.19560948 2.36784262 9.88156162 -0.28900999 1.55581975 9.39527489 -1.20001659 2.27273124 9.75505628 -1.36210015 3.33688176 9.96577497 -0.40728713 3.18616766 9.82523137 -1.55236998 3.48759557 10.1063186 0.737795718 2.46295314 10.0080647 0.78408028 1.64941539 9.58832356 0.808797449 1.01764488 8.84295737 -0.124209865 1.03650293 8.90592685 0.813225886 0.589366632 7.98150972 -0.0719359498 0.596169564 8.01897577 0.800789299 0.294222939 6.95392469 -0.0359117828 0.29645245 6.9748205 0.775388242 0.108653716 5.80667044 -0.013261951 0.109270179 5.81730165 0.740450695 0.0091002 4.58622005 -0.00111077184 0.00921499507 4.59064668 0.699077643 -0.0279974982 3.33904194 0.00341722852 -0.0279926275 3.3399173 0.654232741 -0.0261988438 2.11160629 0.00319776448 -0.0261942537 2.11078247 0.608825643 0.998786684 8.7799879 -1.06164612 0.582563701 7.94404366 -0.944661126 0.291993174 6.93302714 -0.847211912 0.108037397 5.79603924 -0.766974625 0.0089854988 4.58179255 -0.701299137 -0.0280023688 3.33816657 -0.647398138 -0.0262034746 2.11242953 -0.602430207 -0.00907126185 0.951433472 -0.563532744 -0.00906324274 0.950383643 0.00110621736 -0.00905522363 0.949333814 0.565745116 3.15417067 4.24728061 2.75980878 3.85476703 3.45466242 3.22736132 3.61129906 5.00685561 3.03034094 4.50462179 4.09553043 3.62438696 4.5927918 2.19275195 3.68412138 5.38083105 2.72757724 4.16654382 3.80475283 1.65792551 3.2016998 3.20491256 2.81379353 2.83033627 2.697042 3.48770561 2.48927633 2.50019854 4.62353263 2.29290602 2.31249313 3.78587531 2.21131356 1.90204776 4.63634139 1.83809751 2.00494143 3.8529775 1.97326283 1.36891456 4.33863239 1.40682582 1.66750905 3.72089855 1.69633859 0.909994398 3.78332856 1.01053366 1.29543593 3.33746292 1.37254169 0.534484758 3.02335569 0.660665279 0.945618076 2.71498885 1.0462676 0.251581343 2.11163684 0.368663056 0.660383746 1.91007545 0.754518781 0.0704804992 1.10109652 0.145970372 0.4640976 0.986760126 0.521230033 2.68790439 5.46118967 2.37449936 1.79915408 5.41970556 1.7029322 1.0703197 4.95636537 1.11731269 0.52455308 4.2291939 0.648525789 0.123351296 3.33172166 0.27506269 -0.157221097 2.31319823 -0.0171927381 -0.323136475 1.21543262 -0.229289578 -0.371178859 0.0817643156 -0.355145402 0.000378830973 0.0446596684 0.00403045227 0.371936623 0.00755502062 0.36320629 -1.33418883 8.09028828 -0.80400488 -1.78251217 8.70036479 -1.44763349 -1.15921254 8.62053029 -0.225811322 -1.71824529 9.43810259 -1.00421514 -2.33241961 9.08235836 -2.3019834 -2.3626191 9.94954526 -1.97913671 -2.30222041 8.21517262 -2.62483038 -1.84677963 7.96262698 -1.891053 -1.50916483 7.56004512 -1.38219849 -0.987862946 7.28707624 -0.365601054 -1.22305593 6.95982319 -0.995502331 -0.726168691 6.33178768 -0.0960316968 -0.980226601 6.15491602 -0.718419922 -0.531738495 5.26548161 0.0410943524 -0.783037473 5.18355006 -0.548137821 -0.387205113 4.12921357 0.0821684079 -0.6267751 4.10080926 -0.466996755 -0.275201773 2.9640452 0.0635814583 -0.499956733 2.96034046 -0.446242072 -0.178361304 1.81103202 0.0217245781 -0.387536596 1.81077923 -0.452032275 -0.0793164971 0.711233204 -0.0070110076 -0.272598031 0.696090314 -0.448216745 -0.752670396 7.61432871 0.264299933 -0.472110817 6.50865991 0.526356438 -0.280439462 5.347412 0.630326435 -0.14763509 4.15761759 0.631333625 -0.0504467679 2.96774877 0.573404988 0.0308140115 1.81128481 0.495481531 0.113964883 0.72637566 0.434194845 0.218786419 -0.290626124 0.42206397 0.0410721642 -0.326779893 0.0109837968 -0.13664219 -0.362933625 -0.40009643 -1.33418883 8.09028828 -0.80400488 -1.78251217 8.70036479 -1.44763349 -2.04815744 7.95240118 -0.461487831 -2.53410552 8.53174814 -1.05816638 -2.33241961 9.08235836 -2.3019834 -3.12649984 8.89223665 -1.86558361 -1.53833925 9.27248008 -2.73838306 -1.03091832 8.8689797 -1.83709966 -0.62022022 8.22817481 -1.14652207 -0.987862946 7.28707624 -0.365601054 -0.314803212 7.39508919 -0.673024262 -0.726168691 6.33178768 -0.0960316968 -0.0961855117 6.41665197 -0.377306735 -0.531738495 5.26548161 0.0410943524 0.0554075939 5.33426792 -0.218879461 -0.387205113 4.12921357 0.0821684079 0.158888104 4.18728182 -0.159064795 -0.275201773 2.9640452 0.0635814583 0.232341227 3.01521593 -0.160539963 -0.178361304 1.81103202 0.0217245781 0.293417144 1.85820469 -0.186602339 -0.0793164971 0.711233204 -0.0070110076 0.359538005 0.756949922 -0.200831425 -1.66092311 7.17906271 -0.0581775976 -1.35615199 6.24692338 0.185243341 -1.11888447 5.19669471 0.301068238 -0.933298402 4.07114591 0.323401683 -0.782744647 2.91287359 0.28770268 -0.650139624 1.76385935 0.230051432 -0.518171072 0.665516051 0.186809488 -0.367777556 -0.372092302 0.19171897 0.0410721642 -0.326779893 0.0109837968 0.449921831 -0.281467465 -0.169751359 -1.26650794 3.36784846 7.15543743 -1.246687 2.6468781 7.73379755 2.21448563 3.44971833 7.20435417 2.56956718 2.83105121 7.77386914 -1.20723234 1.85537271 8.22015783 2.9628959 2.11530075 8.2825389 -5.21470179 1.10620276 7.30345016 -4.89723788 1.90931186 6.88010163 -4.57855315 2.61054425 6.39172421 -1.26011384 3.90004447 6.55196308 -4.25463999 3.11889462 5.89867954 -1.22952445 4.25403595 5.9294143 -3.92903719 3.4552236 5.40912301 -1.17683124 4.44015264 5.29468049 -3.60457413 3.64263814 4.92293589 -1.01429943 4.3533465 4.01957557 -2.96267815 3.63160589 3.92814561 -0.791232394 3.7359781 2.78425151 -2.33251155 3.13821692 2.89003652 -0.525389606 2.68519635 1.63747621 -1.7268789 2.20736341 1.86975469 -0.233878906 1.29434194 0.626478148 -1.16487099 0.92075605 0.943195043 1.90168145 3.87997712 6.6344923 1.62762322 4.14260986 6.07247309 1.38947838 4.26066213 5.51827801 1.01723963 4.1240332 4.40129869 0.781296734 3.52314816 3.25954681 0.668851079 2.5032532 2.15375075 0.66085082 1.14605688 1.15948133 0.729692083 -0.402179257 0.357431144 0.0555262037 -0.279526346 -0.177777118 -0.674112314 -0.57530546 0.191186039 -3.95889455 8.09541132 3.32210018 -4.71591093 8.40587868 4.14041754 -3.67701509 8.94543204 3.04973621 -4.62200255 9.40440208 4.0736165 -5.54609508 8.36790704 5.09288397 -5.59690733 9.44011277 5.19391601 -5.49528283 7.29570073 4.99185193 -4.80982046 7.40735587 4.20721974 -4.24077373 7.24539002 3.59446415 -3.28497668 7.47609991 2.6434997 -3.68760922 6.81263053 3.03850126 -2.68220395 6.60987496 2.08197103 -3.13754918 6.10812124 2.52489609 -2.13862183 5.55866813 1.61486905 -2.60398322 5.17352868 2.06285808 -1.64227493 4.38440731 1.21954752 -2.09546417 4.07589511 1.65239114 -1.18121016 3.1490265 0.873361864 -1.61120456 2.88646238 1.28223192 -0.743471976 1.91445358 0.553665965 -1.14435553 1.67382077 0.934589948 -0.317106147 0.742619633 0.237814498 -0.684339352 0.502834569 0.587963458 -2.88234472 8.13956871 2.2484983 -2.22685859 7.11162868 1.6390461 -1.67326045 5.94380583 1.16687994 -1.18908569 4.69291922 0.786703766 -0.751215389 3.41158946 0.464491521 -0.342588246 2.15508624 0.172741873 0.0501273924 0.982404515 -0.112334398 0.454083467 -0.0935513833 -0.423585433 0.120910563 -0.34015421 -0.104282749 -0.212262342 -0.586757009 0.215020043 1.60261742 9.49179836 -0.19560948 2.36784262 9.88156162 -0.28900999 0.975908996 10.2826123 -0.242407012 2.06238406 10.918008 -0.384121032 3.33688176 9.96577497 -0.40728713 3.40819861 11.1172436 -0.558001378 3.26556549 8.81430577 -0.256572791 2.67330176 8.84511524 -0.193898875 2.22932585 8.70098388 -0.148811768 1.01764488 8.84295737 -0.124209865 1.80287923 8.32705246 -0.105351816 0.589366632 7.98150972 -0.0719359498 1.40718619 7.67455018 -0.0651330228 0.294222939 6.95392469 -0.0359117828 1.08752851 6.78271988 -0.0336822059 0.108653716 5.80667044 -0.013261951 0.857391967 5.71956837 -0.0126456235 0.0091002 4.58622005 -0.00111077184 0.708362643 4.5499502 -0.000996033878 -0.0279974982 3.33904194 0.00341722852 0.622778916 3.33186905 0.00342203043 -0.0261988438 2.11160629 0.00319776448 0.579391989 2.11835366 0.00320221659 0.232411176 9.3588646 -0.143068095 -0.228452817 8.28846925 -0.0787388722 -0.499082672 7.12512834 -0.0381413417 -0.640084517 5.89377252 -0.0138782967 -0.690162276 4.62248932 -0.00122554599 -0.678773998 3.34621483 0.00341238136 -0.631789695 2.10485834 0.00319304033 -0.573637656 0.941782313 0.00109817541 -0.00906324274 0.950383643 0.00110621736 0.555511201 0.958984973 0.00111416882 -3.95889455 8.09541132 3.32210018 -4.71591093 8.40587868 4.14041754 -3.28746552 8.08168579 3.974149 -3.96942441 8.38067352 4.81306334 -5.54609508 8.36790704 5.09288397 -4.72689685 8.34072934 5.79330572 -6.36529244 8.39508359 4.39246165 -5.46239659 8.43108385 3.46777088 -4.63032358 8.10913685 2.67005194 -3.28497668 7.47609991 2.6434997 -3.89248733 7.47332874 2.01959864 -2.68220395 6.60987496 2.08197103 -3.23703492 6.5932636 1.49276413 -2.13862183 5.55866813 1.61486905 -2.64891868 5.53334656 1.06301549 -1.64227493 4.38440731 1.21954752 -2.11368018 4.3548844 0.704941758 -1.18121016 3.1490265 0.873361864 -1.61800246 3.11866934 0.394508527 -0.743471976 1.91445358 0.553665965 -1.14930823 1.88582181 0.108478138 -0.317106147 0.742619633 0.237814498 -0.69547404 0.717911657 -0.175934796 -2.67746575 7.47887108 3.26740077 -2.12737298 6.62648574 2.67117807 -1.6283247 5.58398796 2.16672239 -1.17087004 4.4139311 1.73415343 -0.744417706 3.17938221 1.35221488 -0.3376358 1.9430852 0.998853647 0.061262018 0.767327391 0.651563792 0.47479457 -0.319931463 0.280591775 0.120910563 -0.34015421 -0.104282749 -0.232973391 -0.36037692 -0.489157219 -5.86354219 5.65194495 -0.471707159 -6.47109251 5.63447879 -0.497628425 -5.98840395 5.41054884 1.82310629 -6.53899217 5.40371272 2.026485 -7.10998509 5.48552381 -0.519917167 -7.12726362 5.277995 2.24522516 -6.88547833 5.06503853 -3.25161381 -6.31889321 5.20911313 -2.99260559 -5.78883189 5.23348955 -2.74312618 -5.28650193 5.55092276 -0.442611576 -5.28513459 5.15189505 -2.50325378 -4.7383985 5.34503928 -0.410791446 -4.79953211 4.97384543 -2.27298808 -4.21723735 5.04805826 -0.37668344 -4.32785843 4.70754154 -2.05245984 -3.24638015 4.23515321 -0.303262078 -3.42309458 3.9499136 -1.6419858 -2.35473648 3.2193788 -0.22558631 -2.56877174 2.9731692 -1.27532427 -1.52363049 2.10674575 -0.146873399 -1.75781303 1.88271706 -0.956177466 -0.735093396 1.00318153 -0.0703684137 -0.976263283 0.784745418 -0.687975965 -5.46542721 5.31225843 1.63500648 -4.96182778 5.11842504 1.46218067 -4.47341996 4.83731148 1.30449826 -3.5387944 4.05308294 1.03319403 -2.6591775 3.05375744 0.817613349 -1.82733441 1.9446742 0.654063706 -1.02924599 0.831965067 0.53911944 -0.244718181 -0.181022995 0.469731219 0.0286317789 0.0143863925 0.000682976782 -0.203950055 -0.217368295 -0.473771128 3.15417067 4.24728061 2.75980878 3.85476703 3.45466242 3.22736132 3.66313782 4.21665416 1.98577825 4.38190863 3.44310865 2.38318075 4.5927918 2.19275195 3.68412138 5.1471137 2.19898288 2.77172653 4.03846989 2.18652132 4.5965168 3.32762514 3.46621618 4.07154175 2.6452041 4.27790678 3.53383931 2.50019854 4.62353263 2.29290602 1.99769716 4.66801521 2.9922442 1.90204776 4.63634139 1.83809751 1.40107978 4.67826505 2.46242873 1.36891456 4.33863239 1.40682582 0.878715037 4.36414884 1.96684744 0.909994398 3.78332856 1.01053366 0.441502602 3.79141996 1.51931752 0.534484758 3.02335569 0.660665279 0.0928167039 3.01795698 1.12725935 0.251581343 2.11163684 0.368663056 -0.162190012 2.09623804 0.798997162 0.0704804992 1.10109652 0.145970372 -0.31617276 1.07782842 0.544448615 3.00269993 4.57905005 1.59356784 2.40301588 4.59441801 1.2137663 1.85911364 4.31311507 0.846803693 1.37848652 3.77523774 0.501750173 0.976152668 3.02875295 0.194071041 0.665352662 2.12703578 -0.0616709605 0.457133741 1.12436425 -0.252508051 0.361422731 0.0748349153 -0.366342385 0.000378830973 0.0446596684 0.00403045227 -0.360665004 0.0144844226 0.374403236</float_array>
        <technique_common><accessor source="#vfx_kurp_0462-mesh-positions-array" count="366" stride="3"><param name="X" type="float"/><param name="Y" type="float"/><param name="Z" type="float"/></accessor></technique_common>
      </source>
      <source id="vfx_kurp_0462-mesh-normals">
        <float_array id="vfx_kurp_0462-mesh-normals-array" count="1098">-0.716839497 0.143887193 0.682229881 -0.747819204 0.0529247163 0.661789553 -0.286751743 0.229473603 0.930115747 -0.281193168 0.136674792 0.949868624 -0.263803814 0.669345211 0.694539082 -0.28597915 0.44478297 0.848754402 0.109057867 0.631010121 0.768070705 0.184719366 0.410031222 0.893170282 0.290641781 0.205841255 0.93442856 0.337437443 0.107212072 0.935222724 -0.630540865 0.363379101 0.685838062 -0.535536604 0.598935444 0.59537961 -0.216608329 0.859353835 0.463240561 -0.431098901 0.806824551 0.403965198 -0.146355223 0.971688188 0.18547834 -0.332398679 0.928616512 0.164871139 -0.0808182444 0.995425178 -0.0509620055 -0.256449993 0.965074522 -0.0535216694 -0.0241780778 0.967950142 -0.249975884 -0.183852884 0.949968531 -0.25250328 0.033122681 0.898281216 -0.438170909 -0.112035111 0.889348745 -0.443291038 0.0859734794 0.795751279 -0.59949017 -0.0461896146 0.792806463 -0.607720686 0.130834668 0.675553975 -0.725609479 0.0102089654 0.676361568 -0.73649902 0.0763125573 0.831426327 0.550369564 0.0794700457 0.956880865 0.2793985 0.108315059 0.992640388 0.0541563227 0.145025965 0.977210735 -0.155005317 0.185974199 0.915961103 -0.355568356 0.225050924 0.818241707 -0.528992051 0.258005832 0.700190078 -0.665707777 0.268697418 0.647036927 -0.713543911 0.150522129 0.611270312 -0.776975994 0.0300754442 0.631219214 -0.775021143 -0.611626081 0.78972285 -0.0474484669 -0.284287934 0.954744234 -0.0874289288 -0.603659041 0.795775125 -0.0483498877 -0.273961877 0.95763417 -0.0887788626 -0.0990356665 0.989180636 -0.108229415 -0.0985832493 0.989203196 -0.108436068 -0.0994694411 0.989157526 -0.108042668 -0.275089056 0.957339112 -0.0884750564 -0.604218369 0.79534895 -0.0483757187 -0.827415677 0.56119607 -0.0210302055 -0.823819489 0.566443066 -0.0215337548 -0.932241951 0.361741622 -0.00824278012 -0.930916591 0.365134293 -0.00844085761 -0.975904969 0.218176326 -0.00292954695 -0.975459118 0.22016022 -0.00299783429 -0.992704477 0.120569635 -0.000886000192 -0.992563017 0.121728518 -0.00090824045 -0.998456749 0.0555345438 -0.00018646016 -0.99841871 0.0562142481 -0.000192960496 -0.999900088 0.0141355198 -1.11225416e-05 -0.999894688 0.0145125074 -1.25908447e-05 -0.999967113 -0.00811002602 -3.17474342e-06 -0.999968331 -0.00795844182 -3.35178532e-06 -0.823758068 0.566538693 -0.0213671178 -0.9309152 0.365139911 -0.00835074506 -0.975457094 0.220169639 -0.00296451367 -0.992561865 0.121738 -0.00089638231 -0.998418342 0.0562208114 -0.000188512089 -0.999894632 0.0145163594 -1.06733607e-05 -0.999968344 -0.00795681491 -2.5702236e-06 -0.999891139 -0.0147550075 -1.29835332e-05 -0.999891143 -0.0147547514 -1.31194663e-05 -0.999891146 -0.0147545 -1.32322846e-05 -0.550202235 0.0339917568 0.834339296 -0.530250744 0.0125364711 0.847748185 -0.549840378 0.0335401997 0.834596078 -0.530096648 0.0122188515 0.847849187 -0.523287171 0.00245284053 0.852152874 -0.523346128 0.00250016294 0.852116529 -0.523208546 0.00239271083 0.852201322 -0.529824779 0.0120902831 0.848020948 -0.548999425 0.0332893988 0.835159534 -0.583353204 0.0516770579 0.810572958 -0.581204349 0.0512236576 0.812143855 -0.623867282 0.0525138721 0.779764008 -0.622227125 0.0528459245 0.781051031 -0.657021293 0.0353853819 0.753041098 -0.656475372 0.0357017223 0.753502139 -0.67671239 0.0127315139 0.736137386 -0.676454069 0.0130399103 0.736369373 -0.687178382 -0.00776448996 0.726447234 -0.687051654 -0.00749208732 0.726569951 -0.692802115 -0.0254962718 0.720676883 -0.692742298 -0.0252732545 0.720742236 -0.695768587 -0.0418674382 0.717044762 -0.695744058 -0.0416738552 0.717079839 -0.582676835 0.0514124601 0.811076115 -0.623220439 0.0527343597 0.780266219 -0.656574132 0.0358452686 0.753409269 -0.676493351 0.0131387944 0.736331527 -0.687079559 -0.00747536646 0.726543735 -0.692754399 -0.0252780993 0.720730435 -0.695746347 -0.0416793367 0.717077299 -0.696729598 -0.0499139463 0.715595183 -0.696730278 -0.0499109232 0.715594731 -0.696731194 -0.0499072473 0.715594096 0.887800079 0.172335442 -0.426745257 0.871241859 0.194784267 -0.450551565 0.887590775 0.172733472 -0.42701963 0.870993928 0.194957439 -0.450955846 0.862270426 0.202963996 -0.463999277 0.862481508 0.202679092 -0.463731424 0.861963712 0.203406682 -0.464375151 0.870682166 0.195440349 -0.451348685 0.887449046 0.172935013 -0.427232573 0.899627211 0.14575325 -0.411614955 0.899458123 0.146185132 -0.411831266 0.906025517 0.123297682 -0.404864723 0.905950771 0.12358263 -0.404945099 0.909032977 0.107472417 -0.402627279 0.909002082 0.107646102 -0.402650632 0.910346422 0.0975822256 -0.402177948 0.910334548 0.0976751767 -0.40218226 0.910854482 0.0925368616 -0.40222014 0.910850945 0.0925709311 -0.40222031 0.910917569 0.0918255064 -0.402240301 0.910919188 0.0918092875 -0.402240335 0.910559618 0.0955732936 -0.402177732 0.910566665 0.0954975537 -0.402179768 0.899510808 0.146134884 -0.411734018 0.905974904 0.123563428 -0.404896965 0.909013354 0.107628266 -0.402629952 0.910339178 0.0976631047 -0.402174712 0.910852433 0.092566006 -0.402218074 0.910918437 0.0918115996 -0.402241508 0.910565034 0.0955259593 -0.402176715 0.910241138 0.0986021992 -0.402167474 0.910240288 0.0985914762 -0.402172027 0.910239565 0.0985809029 -0.402176255 0.214231626 0.665810825 0.714703264 0.0786180358 0.850567472 0.51995594 0.211853072 0.670116724 0.711380245 0.0756436662 0.853306891 0.515892804 0.00437640176 0.914138457 0.4053785 0.00387094965 0.91417075 0.405310813 0.00474784094 0.913875501 0.40596678 0.0761017411 0.85308699 0.516189028 0.211939362 0.669897667 0.711560836 0.310899998 0.448305064 0.838071453 0.309643889 0.451710186 0.83670698 0.363282242 0.264448887 0.893360397 0.362722192 0.266720745 0.892912457 0.387938748 0.134785894 0.911776448 0.387713939 0.136116982 0.911674322 0.398710604 0.0537290716 0.915501524 0.398625733 0.054424152 0.915497426 0.402876767 0.0123759928 0.915170555 0.402851961 0.012627294 0.915178042 0.403391964 0.00653947529 0.915003912 0.403403492 0.00642114787 0.914999667 0.400477969 0.0371874378 0.915551468 0.400524556 0.0367071777 0.91555047 0.309681987 0.45182211 0.836632445 0.362758897 0.266768092 0.892883401 0.387730502 0.136142579 0.911663456 0.398632078 0.0544379501 0.915493843 0.402853664 0.0126326521 0.915177218 0.403402328 0.00641862209 0.915000199 0.400529924 0.0366796295 0.915549226 0.397790006 0.0620001764 0.915379205 0.397780415 0.062003448 0.915383152 0.397778428 0.0620202395 0.915382877 -0.163649779 0.683364196 0.711499912 -0.161526722 0.566992155 0.807730781 -0.0341375998 0.711057795 0.702304376 -0.0436126257 0.598749582 0.799748009 -0.159530715 0.514047269 0.842796153 -0.0473424413 0.561224811 0.826308299 -0.291037437 0.526428575 0.798855535 -0.298609677 0.569920128 0.765521593 -0.313512765 0.679114505 0.663711711 -0.160834104 0.808470309 0.566134393 -0.324945961 0.797683966 0.508045681 -0.149946512 0.915838311 0.372499976 -0.329923721 0.894240503 0.302463652 -0.120362628 0.988924296 0.0868422438 -0.327985741 0.944302759 0.0267890344 -0.0659633355 0.955770852 -0.286619813 -0.326664209 0.88157022 -0.340770364 -0.0109558403 0.811309511 -0.584514197 -0.334262579 0.705654024 -0.624756693 0.0295800435 0.652240632 -0.757434604 -0.374541376 0.523312574 -0.765416689 0.0583846429 0.509248026 -0.858637107 -0.442222896 0.359975042 -0.821496731 -0.0182803366 0.833566545 0.552116513 0.00772025033 0.935661931 0.352813192 0.0495716174 0.995570042 0.0798933414 0.131892743 0.954585987 -0.26715145 0.245781575 0.799977315 -0.547382602 0.36269342 0.637676223 -0.679575248 0.483773176 0.495987508 -0.721082454 0.57634728 0.436872086 -0.69062768 0.0722757818 0.439057241 -0.895547291 -0.514635915 0.244301391 -0.821867815 -0.718004422 0.0151037652 -0.695874648 -0.742011609 0.0248600171 -0.66992593 -0.718328727 0.0153420319 -0.695534659 -0.742349971 0.0248381622 -0.66955178 -0.753964959 0.0263008419 -0.656387924 -0.753690309 0.0261628257 -0.656708783 -0.754363543 0.0265331028 -0.655920452 -0.742777128 0.0250997326 -0.669068115 -0.718545859 0.0154301292 -0.695308392 -0.698429542 -0.00222191336 -0.715675372 -0.698729339 -0.00192676625 -0.715383532 -0.68598222 -0.0195242258 -0.727356307 -0.686137673 -0.0193025432 -0.727215584 -0.678917905 -0.0328316959 -0.73347976 -0.678995037 -0.0326849047 -0.733414914 -0.675146042 -0.0415678992 -0.736512004 -0.675181638 -0.0414857573 -0.736484003 -0.673405699 -0.046144552 -0.737831583 -0.673417765 -0.0461138089 -0.737822493 -0.67316997 -0.0467960499 -0.738005638 -0.673164247 -0.04681072 -0.738009928 -0.674441682 -0.0433826177 -0.737052486 -0.674416642 -0.0434519338 -0.737071314 -0.698642488 -0.00193020002 -0.715468342 -0.686096172 -0.0192984654 -0.727254847 -0.678973854 -0.0326921865 -0.733434201 -0.67517196 -0.0414934449 -0.736492443 -0.673414504 -0.0461173376 -0.737825248 -0.67316592 -0.0468091408 -0.738008502 -0.674424351 -0.0434249267 -0.737065852 -0.675495265 -0.0406419484 -0.736243424 -0.675494803 -0.040653617 -0.736243203 -0.675494196 -0.0406650269 -0.736243131 0.0476852058 0.0965168176 0.994188425 0.0873180925 0.116523705 0.989342093 0.0481338462 0.0969726887 0.994122442 0.0882441346 0.116670402 0.989242635 0.10949693 0.122556651 0.986402702 0.109338009 0.122342864 0.986446868 0.110285782 0.122743399 0.986291592 0.0897808214 0.117223187 0.989038992 0.048885969 0.097379203 0.994046001 0.0208146775 0.0683784776 0.997442296 0.0214959399 0.0690443879 0.997381971 0.00814659537 0.0440529817 0.99899598 0.00842171819 0.0445061031 0.998973614 0.00289910466 0.026578463 0.999642526 0.00299585352 0.0268592981 0.999634735 0.000876787328 0.0146927634 0.999891671 0.000908557507 0.01485788 0.999889203 0.000183483624 0.00676736496 0.999977084 0.000193199443 0.00686333682 0.999976428 1.01779962e-05 0.0017200137 0.999998521 1.27379323e-05 0.00177287388 0.999998428 3.07781051e-06 -0.000992193454 0.999999508 3.5557048e-06 -0.000970831612 0.999999529 0.0213689678 0.0691297812 0.997378785 0.00835794769 0.0445623659 0.998971641 0.00296476756 0.0268632913 0.99963472 0.000896009966 0.0148511035 0.999889315 0.000188264591 0.00685730167 0.999976471 1.06853802e-05 0.00176910064 0.999998435 2.47207528e-06 -0.000972417944 0.999999527 1.29105791e-05 -0.00180082929 0.999998378 1.31935347e-05 -0.00180096177 0.999998378 1.33588699e-05 -0.00180129344 0.999998378 0.29586691 0.911595296 -0.285406355 0.0990990766 0.992411309 -0.0727953757 0.292086842 0.91401858 -0.2815232 0.0954682748 0.993079002 -0.06840983 -0.00109128571 0.999221371 0.0394393312 -0.00100180413 0.999201473 0.0399426146 -0.000598228929 0.999243592 0.0388829773 0.0956644586 0.993022047 -0.0689603254 0.29230058 0.913898642 -0.281690686 0.455693372 0.769643796 -0.447204627 0.453601024 0.772113368 -0.445069722 0.5576273 0.627988912 -0.542845945 0.556543952 0.629841095 -0.541810875 0.615575839 0.518990865 -0.593055536 0.615047298 0.520147163 -0.592590711 0.646523666 0.447409906 -0.617925178 0.646280004 0.448035667 -0.617726637 0.660799783 0.409904618 -0.628746254 0.660717621 0.410134861 -0.628682448 0.662733802 0.404558128 -0.630171904 0.662771959 0.404449445 -0.630201537 0.652360436 0.432487695 -0.622398791 0.652529239 0.432053268 -0.622523546 0.453481204 0.772185337 -0.445066965 0.556489211 0.629873434 -0.541829508 0.615023305 0.520166806 -0.592598369 0.646269675 0.44804689 -0.617729302 0.660714382 0.410139468 -0.628682847 0.662773728 0.404447317 -0.630201042 0.652537047 0.432027906 -0.622532963 0.643532683 0.45482906 -0.615626683 0.643537883 0.454833302 -0.615618113 0.643531805 0.454848353 -0.615613346 0.0778044113 0.996534318 -0.0294249402 -0.123294349 0.991613468 -0.0387457691 0.0935987336 0.990422934 0.101497236 -0.109903132 0.990642879 0.0809196362 -0.222000774 0.97410713 -0.0427896671 -0.182603806 0.980513693 0.0724482462 -0.176582288 0.968828243 -0.173754227 -0.0937198596 0.979704768 -0.177186782 0.111405999 0.97708291 -0.181377203 0.268827404 0.963000223 -0.0190367156 0.304775504 0.934016995 -0.18634416 0.430237579 0.902671907 -0.00889118084 0.46525049 0.863699074 -0.193819224 0.578056331 0.815987759 0.00385430918 0.598353741 0.773848888 -0.207679316 0.708228894 0.70576311 0.0176143816 0.715353768 0.653960806 -0.246179306 0.786566556 0.616966069 0.0258054789 0.777404673 0.551785117 -0.301952246 0.817977114 0.574466396 0.0300300059 0.784551276 0.491074183 -0.378583467 0.814918902 0.578774352 0.0304537872 0.747753429 0.465533845 -0.47343748 0.285912901 0.950069309 0.124988482 0.445830359 0.8824065 0.150313203 0.58199638 0.793514548 0.177805721 0.692396481 0.684897442 0.22694186 0.753041807 0.588657561 0.293956311 0.756980128 0.535502498 0.374457154 0.714896143 0.519344986 0.468192578 0.651053117 0.521246363 0.551753629 0.805760428 0.591418255 0.0312182618 0.710787112 0.428566423 -0.557774599 0.484827409 0.826413111 0.286328053 0.647876191 0.650859642 0.3957754 0.489646234 0.822532846 0.289285814 0.64993584 0.648098527 0.396927832 0.702438526 0.566619927 0.43072262 0.702503 0.566578308 0.430672213 0.702372604 0.566733057 0.430681284 0.649694023 0.648335812 0.396936206 0.488906275 0.823031563 0.289118833 0.212648172 0.972912149 0.090679133 0.220341998 0.970623444 0.0966412659 -0.120150612 0.97940875 -0.16224158 -0.112340159 0.981319008 -0.156181603 -0.390825481 0.83830631 -0.380128891 -0.38615766 0.84210634 -0.376482635 -0.551970418 0.653035159 -0.518530365 -0.549820855 0.656247097 -0.516756012 -0.637842104 0.485204239 -0.598108934 -0.636878014 0.487549246 -0.597228706 -0.683974803 0.339921475 -0.645470262 -0.683524473 0.341728679 -0.644992872 -0.708295702 0.2057821 -0.675256192 -0.708103127 0.20734215 -0.674980885 0.22150802 0.970304164 0.0971803787 -0.11164867 0.981495127 -0.155569566 -0.386186248 0.842208578 -0.376224524 -0.549896911 0.656257051 -0.516662433 -0.636903578 0.48756149 -0.597191448 -0.683531982 0.341740212 -0.644978804 -0.708103773 0.207348897 -0.674978134 -0.714720176 0.139510256 -0.685355352 -0.714722158 0.139508814 -0.685353579 -0.714722474 0.139504183 -0.685354192</float_array>
        <technique_common><accessor source="#vfx_kurp_0462-mesh-normals-array" count="366" stride="3"><param name="X" type="float"/><param name="Y" type="float"/><param name="Z" type="float"/></accessor></technique_common>
      </source>
      <source id="vfx_kurp_0462-mesh-uv0">
        <float_array id="vfx_kurp_0462-mesh-uv0-array" count="732">0 0.933333337 0 1 0.5 0.933333337 0.5 1 0.5 0.666666627 0.5 0.799999952 1 0.666666627 1 0.799999952 1 0.933333337 1 1 0 0.799999952 0 0.666666627 0.5 0.533333302 0 0.533333302 0.5 0.399999976 0 0.399999976 0.5 0.333333313 0 0.333333313 0.5 0.266666651 0 0.266666651 0.5 0.199999928 0 0.199999928 0.5 0.133333266 0 0.133333266 0.5 0.0666666031 0 0.0666666031 1 0.533333302 1 0.399999976 1 0.333333313 1 0.266666651 1 0.199999928 1 0.133333266 1 0.0666666031 1 0 0.5 0 0 0 0.5 0.199999988 0.5 0.0999999642 0 0.199999988 0 0.0999999642 0.5 0 0 0 1 0 1 0.0999999642 1 0.199999988 0.5 0.300000012 1 0.300000012 0.5 0.399999976 1 0.399999976 0.5 0.5 1 0.5 0.5 0.600000024 1 0.600000024 0.5 0.699999988 1 0.699999988 0.5 0.800000012 1 0.800000012 0.5 0.899999976 1 0.899999976 0 0.300000012 0 0.399999976 0 0.5 0 0.600000024 0 0.699999988 0 0.800000012 0 0.899999976 0 1 0.5 1 1 1 0.5 0.199999988 0.5 0.0999999642 0 0.199999988 0 0.0999999642 0.5 0 0 0 1 0 1 0.0999999642 1 0.199999988 0.5 0.300000012 1 0.300000012 0.5 0.399999976 1 0.399999976 0.5 0.5 1 0.5 0.5 0.600000024 1 0.600000024 0.5 0.699999988 1 0.699999988 0.5 0.800000012 1 0.800000012 0.5 0.899999976 1 0.899999976 0 0.300000012 0 0.399999976 0 0.5 0 0.600000024 0 0.699999988 0 0.800000012 0 0.899999976 0 1 0.5 1 1 1 0.5 0.199999988 0.5 0.0999999642 0 0.199999988 0 0.0999999642 0.5 0 0 0 1 0 1 0.0999999642 1 0.199999988 0.5 0.300000012 1 0.300000012 0.5 0.399999976 1 0.399999976 0.5 0.5 1 0.5 0.5 0.600000024 1 0.600000024 0.5 0.699999988 1 0.699999988 0.5 0.800000012 1 0.800000012 0.5 0.899999976 1 0.899999976 0 0.300000012 0 0.399999976 0 0.5 0 0.600000024 0 0.699999988 0 0.800000012 0 0.899999976 0 1 0.5 1 1 1 0.5 0.199999988 0.5 0.0999999642 0 0.199999988 0 0.0999999642 0.5 0 0 0 1 0 1 0.0999999642 1 0.199999988 0.5 0.300000012 1 0.300000012 0.5 0.399999976 1 0.399999976 0.5 0.5 1 0.5 0.5 0.600000024 1 0.600000024 0.5 0.699999988 1 0.699999988 0.5 0.800000012 1 0.800000012 0.5 0.899999976 1 0.899999976 0 0.300000012 0 0.399999976 0 0.5 0 0.600000024 0 0.699999988 0 0.800000012 0 0.899999976 0 1 0.5 1 1 1 0.5 0.133333266 0.5 0.0666666031 0 0.133333266 0 0.0666666031 0.5 0 0 0 1 0 1 0.0666666031 1 0.133333266 0.5 0.199999928 1 0.199999928 0.5 0.266666651 1 0.266666651 0.5 0.333333313 1 0.333333313 0.5 0.466666639 1 0.466666639 0.5 0.599999964 1 0.599999964 0.5 0.733333349 1 0.733333349 0.5 0.866666675 1 0.866666675 0 0.199999928 0 0.266666651 0 0.333333313 0 0.466666639 0 0.599999964 0 0.733333349 0 0.866666675 0 1 0.5 1 1 1 0.5 0.199999988 0.5 0.0999999642 0 0.199999988 0 0.0999999642 0.5 0 0 0 1 0 1 0.0999999642 1 0.199999988 0.5 0.300000012 1 0.300000012 0.5 0.399999976 1 0.399999976 0.5 0.5 1 0.5 0.5 0.600000024 1 0.600000024 0.5 0.699999988 1 0.699999988 0.5 0.800000012 1 0.800000012 0.5 0.899999976 1 0.899999976 0 0.300000012 0 0.399999976 0 0.5 0 0.600000024 0 0.699999988 0 0.800000012 0 0.899999976 0 1 0.5 1 1 1 0.5 0.199999988 0.5 0.0999999642 0 0.199999988 0 0.0999999642 0.5 0 0 0 1 0 1 0.0999999642 1 0.199999988 0.5 0.300000012 1 0.300000012 0.5 0.399999976 1 0.399999976 0.5 0.5 1 0.5 0.5 0.600000024 1 0.600000024 0.5 0.699999988 1 0.699999988 0.5 0.800000012 1 0.800000012 0.5 0.899999976 1 0.899999976 0 0.300000012 0 0.399999976 0 0.5 0 0.600000024 0 0.699999988 0 0.800000012 0 0.899999976 0 1 0.5 1 1 1 0.5 0.199999988 0.5 0.0999999642 0 0.199999988 0 0.0999999642 0.5 0 0 0 1 0 1 0.0999999642 1 0.199999988 0.5 0.300000012 1 0.300000012 0.5 0.399999976 1 0.399999976 0.5 0.5 1 0.5 0.5 0.600000024 1 0.600000024 0.5 0.699999988 1 0.699999988 0.5 0.800000012 1 0.800000012 0.5 0.899999976 1 0.899999976 0 0.300000012 0 0.399999976 0 0.5 0 0.600000024 0 0.699999988 0 0.800000012 0 0.899999976 0 1 0.5 1 1 1 0.5 0.133333266 0.5 0.0666666031 0 0.133333266 0 0.0666666031 0.5 0 0 0 1 0 1 0.0666666031 1 0.133333266 0.5 0.199999928 1 0.199999928 0.5 0.266666651 1 0.266666651 0.5 0.333333313 1 0.333333313 0.5 0.466666639 1 0.466666639 0.5 0.599999964 1 0.599999964 0.5 0.733333349 1 0.733333349 0.5 0.866666675 1 0.866666675 0 0.199999928 0 0.266666651 0 0.333333313 0 0.466666639 0 0.599999964 0 0.733333349 0 0.866666675 0 1 0.5 1 1 1 0.5 0.199999988 0.5 0.0999999642 0 0.199999988 0 0.0999999642 0.5 0 0 0 1 0 1 0.0999999642 1 0.199999988 0.5 0.300000012 1 0.300000012 0.5 0.399999976 1 0.399999976 0.5 0.5 1 0.5 0.5 0.600000024 1 0.600000024 0.5 0.699999988 1 0.699999988 0.5 0.800000012 1 0.800000012 0.5 0.899999976 1 0.899999976 0 0.300000012 0 0.399999976 0 0.5 0 0.600000024 0 0.699999988 0 0.800000012 0 0.899999976 0 1 0.5 1 1 1</float_array>
        <technique_common><accessor source="#vfx_kurp_0462-mesh-uv0-array" count="366" stride="2"><param name="S" type="float"/><param name="T" type="float"/></accessor></technique_common>
      </source>
      <source id="vfx_kurp_0462-mesh-colors">
        <float_array id="vfx_kurp_0462-mesh-colors-array" count="1464">0.0392156877 0.0392156877 0.0392156877 0 0.0392156877 0.0392156877 0.0392156877 0 0.0392156877 0.0392156877 0.0392156877 1 0.0392156877 0.0392156877 0.0392156877 0 0.0392156877 0.0392156877 0.0392156877 1 0.0392156877 0.0392156877 0.0392156877 1 0.0392156877 0.0392156877 0.0392156877 0 0.0392156877 0.0392156877 0.0392156877 0 0.0392156877 0.0392156877 0.0392156877 0 0.0392156877 0.0392156877 0.0392156877 0 0.0392156877 0.0392156877 0.0392156877 0 0.0392156877 0.0392156877 0.0392156877 0 0.0392156877 0.0392156877 0.0392156877 1 0.0392156877 0.0392156877 0.0392156877 0 0.0392156877 0.0392156877 0.0392156877 0.849999964 0.0392156877 0.0392156877 0.0392156877 0 0.0392156877 0.0392156877 0.0392156877 0.75 0.0392156877 0.0392156877 0.0392156877 0 0.0392156877 0.0392156877 0.0392156877 0.649999976 0.0392156877 0.0392156877 0.0392156877 0 0.0392156877 0.0392156877 0.0392156877 0.550000012 0.0392156877 0.0392156877 0.0392156877 0 0.0392156877 0.0392156877 0.0392156877 0.449999988 0.0392156877 0.0392156877 0.0392156877 0 0.0392156877 0.0392156877 0.0392156877 0.349999994 0.0392156877 0.0392156877 0.0392156877 0 0.0392156877 0.0392156877 0.0392156877 0 0.0392156877 0.0392156877 0.0392156877 0 0.0392156877 0.0392156877 0.0392156877 0 0.0392156877 0.0392156877 0.0392156877 0 0.0392156877 0.0392156877 0.0392156877 0 0.0392156877 0.0392156877 0.0392156877 0 0.0392156877 0.0392156877 0.0392156877 0 0.0392156877 0.0392156877 0.0392156877 0 0.0392156877 0.0392156877 0.0392156877 0 0.0392156877 0.0392156877 0.0392156877 0 0.0392156877 0.0392156877 0.0392156877 0.649999976 0.0392156877 0.0392156877 0.0392156877 0.449999988 0.0392156877 0.0392156877 0.0392156877 0 0.0392156877 0.0392156877 0.0392156877 0 0.0392156877 0.0392156877 0.0392156877 0 0.0392156877 0.0392156877 0.0392156877 0 0.0392156877 0.0392156877 0.0392156877 0 0.0392156877 0.0392156877 0.0392156877 0 0.0392156877 0.0392156877 0.0392156877 0 0.0392156877 0.0392156877 0.0392156877 0.849999964 0.0392156877 0.0392156877 0.0392156877 0 0.0392156877 0.0392156877 0.0392156877 1 0.0392156877 0.0392156877 0.0392156877 0 0.0392156877 0.0392156877 0.0392156877 1 0.0392156877 0.0392156877 0.0392156877 0 0.0392156877 0.0392156877 0.0392156877 1 0.0392156877 0.0392156877 0.0392156877 0 0.0392156877 0.0392156877 0.0392156877 1 0.0392156877 0.0392156877 0.0392156877 0 0.0392156877 0.0392156877 0.0392156877 1 0.0392156877 0.0392156877 0.0392156877 0 0.0392156877 0.0392156877 0.0392156877 1 0.0392156877 0.0392156877 0.0392156877 0 0.0392156877 0.0392156877 0.0392156877 0 0.0392156877 0.0392156877 0.0392156877 0 0.0392156877 0.0392156877 0.0392156877 0 0.0392156877 0.0392156877 0.0392156877 0 0.0392156877 0.0392156877 0.0392156877 0 0.0392156877 0.0392156877 0.0392156877 0 0.0392156877 0.0392156877 0.0392156877 0 0.0392156877 0.0392156877 0.0392156877 0 0.0392156877 0.0392156877 0.0392156877 0 0.0392156877 0.0392156877 0.0392156877 0 0.0392156877 0.0392156877 0.0392156877 0.649999976 0.0392156877 0.0392156877 0.0392156877 0.449999988 0.0392156877 0.0392156877 0.0392156877 0 0.0392156877 0.0392156877 0.0392156877 0 0.0392156877 0.0392156877 0.0392156877 0 0.0392156877 0.0392156877 0.0392156877 0 0.0392156877 0.0392156877 0.0392156877 0 0.0392156877 0.0392156877 0.0392156877 0 0.0392156877 0.0392156877 0.0392156877 0 0.0392156877 0.0392156877 0.0392156877 0.849999964 0.0392156877 0.0392156877 0.0392156877 0 0.0392156877 0.0392156877 0.0392156877 1 0.0392156877 0.0392156877 0.0392156877 0 0.0392156877 0.0392156877 0.0392156877 1 0.0392156877 0.0392156877 0.0392156877 0 0.0392156877 0.0392156877 0.0392156877 1 0.0392156877 0.0392156877 0.0392156877 0 0.0392156877 0.0392156877 0.0392156877 1 0.0392156877 0.0392156877 0.0392156877 0 0.0392156877 0.0392156877 0.0392156877 1 0.0392156877 0.0392156877 0.0392156877 0 0.0392156877 0.0392156877 0.0392156877 1 0.0392156877 0.0392156877 0.0392156877 0 0.0392156877 0.0392156877 0.0392156877 0 0.0392156877 0.0392156877 0.0392156877 0 0.0392156877 0.0392156877 0.0392156877 0 0.0392156877 0.0392156877 0.0392156877 0 0.0392156877 0.0392156877 0.0392156877 0 0.0392156877 0.0392156877 0.0392156877 0 0.0392156877 0.0392156877 0.0392156877 0 0.0392156877 0.0392156877 0.0392156877 0 0.0392156877 0.0392156877 0.0392156877 0 0.0392156877 0.0392156877 0.0392156877 0 0.0392156877 0.0392156877 0.0392156877 0.649999976 0.0392156877 0.0392156877 0.0392156877 0.449999988 0.0392156877 0.0392156877 0.0392156877 0 0.0392156877 0.0392156877 0.0392156877 0 0.0392156877 0.0392156877 0.0392156877 0 0.0392156877 0.0392156877 0.0392156877 0 0.0392156877 0.0392156877 0.0392156877 0 0.0392156877 0.0392156877 0.0392156877 0 0.0392156877 0.0392156877 0.0392156877 0 0.0392156877 0.0392156877 0.0392156877 0.849999964 0.0392156877 0.0392156877 0.0392156877 0 0.0392156877 0.0392156877 0.0392156877 1 0.0392156877 0.0392156877 0.0392156877 0 0.0392156877 0.0392156877 0.0392156877 1 0.0392156877 0.0392156877 0.0392156877 0 0.0392156877 0.0392156877 0.0392156877 1 0.0392156877 0.0392156877 0.0392156877 0 0.0392156877 0.0392156877 0.0392156877 1 0.0392156877 0.0392156877 0.0392156877 0 0.0392156877 0.0392156877 0.0392156877 1 0.0392156877 0.0392156877 0.0392156877 0 0.0392156877 0.0392156877 0.0392156877 1 0.0392156877 0.0392156877 0.0392156877 0 0.0392156877 0.0392156877 0.0392156877 0 0.0392156877 0.0392156877 0.0392156877 0 0.0392156877 0.0392156877 0.0392156877 0 0.0392156877 0.0392156877 0.0392156877 0 0.0392156877 0.0392156877 0.0392156877 0 0.0392156877 0.0392156877 0.0392156877 0 0.0392156877 0.0392156877 0.0392156877 0 0.0392156877 0.0392156877 0.0392156877 0 0.0392156877 0.0392156877 0.0392156877 0 0.0392156877 0.0392156877 0.0392156877 0 0.0392156877 0.0392156877 0.0392156877 0.649999976 0.0392156877 0.0392156877 0.0392156877 0.449999988 0.0392156877 0.0392156877 0.0392156877 0 0.0392156877 0.0392156877 0.0392156877 0 0.0392156877 0.0392156877 0.0392156877 0 0.0392156877 0.0392156877 0.0392156877 0 0.0392156877 0.0392156877 0.0392156877 0 0.0392156877 0.0392156877 0.0392156877 0 0.0392156877 0.0392156877 0.0392156877 0 0.0392156877 0.0392156877 0.0392156877 0.849999964 0.0392156877 0.0392156877 0.0392156877 0 0.0392156877 0.0392156877 0.0392156877 1 0.0392156877 0.0392156877 0.0392156877 0 0.0392156877 0.0392156877 0.0392156877 1 0.0392156877 0.0392156877 0.0392156877 0 0.0392156877 0.0392156877 0.0392156877 1 0.0392156877 0.0392156877 0.0392156877 0 0.0392156877 0.0392156877 0.0392156877 1 0.0392156877 0.0392156877 0.0392156877 0 0.0392156877 0.0392156877 0.0392156877 1 0.0392156877 0.0392156877 0.0392156877 0 0.0392156877 0.0392156877 0.0392156877 1 0.0392156877 0.0392156877 0.0392156877 0 0.0392156877 0.0392156877 0.0392156877 0 0.0392156877 0.0392156877 0.0392156877 0 0.0392156877 0.0392156877 0.0392156877 0 0.0392156877 0.0392156877 0.0392156877 0 0.0392156877 0.0392156877 0.0392156877 0 0.0392156877 0.0392156877 0.0392156877 0 0.0392156877 0.0392156877 0.0392156877 0 0.0392156877 0.0392156877 0.0392156877 0 0.0392156877 0.0392156877 0.0392156877 0 0.0392156877 0.0392156877 0.0392156877 0 0.0392156877 0.0392156877 0.0392156877 0.449999988 0.0392156877 0.0392156877 0.0392156877 0.349999994 0.0392156877 0.0392156877 0.0392156877 0 0.0392156877 0.0392156877 0.0392156877 0 0.0392156877 0.0392156877 0.0392156877 0 0.0392156877 0.0392156877 0.0392156877 0 0.0392156877 0.0392156877 0.0392156877 0 0.0392156877 0.0392156877 0.0392156877 0 0.0392156877 0.0392156877 0.0392156877 0 0.0392156877 0.0392156877 0.0392156877 0.550000012 0.0392156877 0.0392156877 0.0392156877 0 0.0392156877 0.0392156877 0.0392156877 0.649999976 0.0392156877 0.0392156877 0.0392156877 0 0.0392156877 0.0392156877 0.0392156877 0.75 0.0392156877 0.0392156877 0.0392156877 0 0.0392156877 0.0392156877 0.0392156877 1 0.0392156877 0.0392156877 0.0392156877 0 0.0392156877 0.0392156877 0.0392156877 1 0.0392156877 0.0392156877 0.0392156877 0 0.0392156877 0.0392156877 0.0392156877 1 0.0392156877 0.0392156877 0.0392156877 0 0.0392156877 0.0392156877 0.0392156877 1 0.0392156877 0.0392156877 0.0392156877 0 0.0392156877 0.0392156877 0.0392156877 0 0.0392156877 0.0392156877 0.0392156877 0 0.0392156877 0.0392156877 0.0392156877 0 0.0392156877 0.0392156877 0.0392156877 0 0.0392156877 0.0392156877 0.0392156877 0 0.0392156877 0.0392156877 0.0392156877 0 0.0392156877 0.0392156877 0.0392156877 0 0.0392156877 0.0392156877 0.0392156877 0 0.0392156877 0.0392156877 0.0392156877 0 0.0392156877 0.0392156877 0.0392156877 0 0.0392156877 0.0392156877 0.0392156877 0.649999976 0.0392156877 0.0392156877 0.0392156877 0.449999988 0.0392156877 0.0392156877 0.0392156877 0 0.0392156877 0.0392156877 0.0392156877 0 0.0392156877 0.0392156877 0.0392156877 0 0.0392156877 0.0392156877 0.0392156877 0 0.0392156877 0.0392156877 0.0392156877 0 0.0392156877 0.0392156877 0.0392156877 0 0.0392156877 0.0392156877 0.0392156877 0 0.0392156877 0.0392156877 0.0392156877 0.849999964 0.0392156877 0.0392156877 0.0392156877 0 0.0392156877 0.0392156877 0.0392156877 1 0.0392156877 0.0392156877 0.0392156877 0 0.0392156877 0.0392156877 0.0392156877 1 0.0392156877 0.0392156877 0.0392156877 0 0.0392156877 0.0392156877 0.0392156877 1 0.0392156877 0.0392156877 0.0392156877 0 0.0392156877 0.0392156877 0.0392156877 1 0.0392156877 0.0392156877 0.0392156877 0 0.0392156877 0.0392156877 0.0392156877 1 0.0392156877 0.0392156877 0.0392156877 0 0.0392156877 0.0392156877 0.0392156877 1 0.0392156877 0.0392156877 0.0392156877 0 0.0392156877 0.0392156877 0.0392156877 0 0.0392156877 0.0392156877 0.0392156877 0 0.0392156877 0.0392156877 0.0392156877 0 0.0392156877 0.0392156877 0.0392156877 0 0.0392156877 0.0392156877 0.0392156877 0 0.0392156877 0.0392156877 0.0392156877 0 0.0392156877 0.0392156877 0.0392156877 0 0.0392156877 0.0392156877 0.0392156877 0 0.0392156877 0.0392156877 0.0392156877 0 0.0392156877 0.0392156877 0.0392156877 0 0.0392156877 0.0392156877 0.0392156877 0.649999976 0.0392156877 0.0392156877 0.0392156877 0.449999988 0.0392156877 0.0392156877 0.0392156877 0 0.0392156877 0.0392156877 0.0392156877 0 0.0392156877 0.0392156877 0.0392156877 0 0.0392156877 0.0392156877 0.0392156877 0 0.0392156877 0.0392156877 0.0392156877 0 0.0392156877 0.0392156877 0.0392156877 0 0.0392156877 0.0392156877 0.0392156877 0 0.0392156877 0.0392156877 0.0392156877 0.849999964 0.0392156877 0.0392156877 0.0392156877 0 0.0392156877 0.0392156877 0.0392156877 1 0.0392156877 0.0392156877 0.0392156877 0 0.0392156877 0.0392156877 0.0392156877 1 0.0392156877 0.0392156877 0.0392156877 0 0.0392156877 0.0392156877 0.0392156877 1 0.0392156877 0.0392156877 0.0392156877 0 0.0392156877 0.0392156877 0.0392156877 1 0.0392156877 0.0392156877 0.0392156877 0 0.0392156877 0.0392156877 0.0392156877 1 0.0392156877 0.0392156877 0.0392156877 0 0.0392156877 0.0392156877 0.0392156877 1 0.0392156877 0.0392156877 0.0392156877 0 0.0392156877 0.0392156877 0.0392156877 0 0.0392156877 0.0392156877 0.0392156877 0 0.0392156877 0.0392156877 0.0392156877 0 0.0392156877 0.0392156877 0.0392156877 0 0.0392156877 0.0392156877 0.0392156877 0 0.0392156877 0.0392156877 0.0392156877 0 0.0392156877 0.0392156877 0.0392156877 0 0.0392156877 0.0392156877 0.0392156877 0 0.0392156877 0.0392156877 0.0392156877 0 0.0392156877 0.0392156877 0.0392156877 0 0.0392156877 0.0392156877 0.0392156877 0.649999976 0.0392156877 0.0392156877 0.0392156877 0.449999988 0.0392156877 0.0392156877 0.0392156877 0 0.0392156877 0.0392156877 0.0392156877 0 0.0392156877 0.0392156877 0.0392156877 0 0.0392156877 0.0392156877 0.0392156877 0 0.0392156877 0.0392156877 0.0392156877 0 0.0392156877 0.0392156877 0.0392156877 0 0.0392156877 0.0392156877 0.0392156877 0 0.0392156877 0.0392156877 0.0392156877 0.849999964 0.0392156877 0.0392156877 0.0392156877 0 0.0392156877 0.0392156877 0.0392156877 1 0.0392156877 0.0392156877 0.0392156877 0 0.0392156877 0.0392156877 0.0392156877 1 0.0392156877 0.0392156877 0.0392156877 0 0.0392156877 0.0392156877 0.0392156877 1 0.0392156877 0.0392156877 0.0392156877 0 0.0392156877 0.0392156877 0.0392156877 1 0.0392156877 0.0392156877 0.0392156877 0 0.0392156877 0.0392156877 0.0392156877 1 0.0392156877 0.0392156877 0.0392156877 0 0.0392156877 0.0392156877 0.0392156877 1 0.0392156877 0.0392156877 0.0392156877 0 0.0392156877 0.0392156877 0.0392156877 0 0.0392156877 0.0392156877 0.0392156877 0 0.0392156877 0.0392156877 0.0392156877 0 0.0392156877 0.0392156877 0.0392156877 0 0.0392156877 0.0392156877 0.0392156877 0 0.0392156877 0.0392156877 0.0392156877 0 0.0392156877 0.0392156877 0.0392156877 0 0.0392156877 0.0392156877 0.0392156877 0 0.0392156877 0.0392156877 0.0392156877 0 0.0392156877 0.0392156877 0.0392156877 0 0.0392156877 0.0392156877 0.0392156877 0.449999988 0.0392156877 0.0392156877 0.0392156877 0.349999994 0.0392156877 0.0392156877 0.0392156877 0 0.0392156877 0.0392156877 0.0392156877 0 0.0392156877 0.0392156877 0.0392156877 0 0.0392156877 0.0392156877 0.0392156877 0 0.0392156877 0.0392156877 0.0392156877 0 0.0392156877 0.0392156877 0.0392156877 0 0.0392156877 0.0392156877 0.0392156877 0 0.0392156877 0.0392156877 0.0392156877 0.550000012 0.0392156877 0.0392156877 0.0392156877 0 0.0392156877 0.0392156877 0.0392156877 0.550000012 0.0392156877 0.0392156877 0.0392156877 0 0.0392156877 0.0392156877 0.0392156877 0.649999976 0.0392156877 0.0392156877 0.0392156877 0 0.0392156877 0.0392156877 0.0392156877 1 0.0392156877 0.0392156877 0.0392156877 0 0.0392156877 0.0392156877 0.0392156877 1 0.0392156877 0.0392156877 0.0392156877 0 0.0392156877 0.0392156877 0.0392156877 1 0.0392156877 0.0392156877 0.0392156877 0 0.0392156877 0.0392156877 0.0392156877 1 0.0392156877 0.0392156877 0.0392156877 0 0.0392156877 0.0392156877 0.0392156877 0 0.0392156877 0.0392156877 0.0392156877 0 0.0392156877 0.0392156877 0.0392156877 0 0.0392156877 0.0392156877 0.0392156877 0 0.0392156877 0.0392156877 0.0392156877 0 0.0392156877 0.0392156877 0.0392156877 0 0.0392156877 0.0392156877 0.0392156877 0 0.0392156877 0.0392156877 0.0392156877 0 0.0392156877 0.0392156877 0.0392156877 0 0.0392156877 0.0392156877 0.0392156877 0 0.0392156877 0.0392156877 0.0392156877 0.649999976 0.0392156877 0.0392156877 0.0392156877 0.449999988 0.0392156877 0.0392156877 0.0392156877 0 0.0392156877 0.0392156877 0.0392156877 0 0.0392156877 0.0392156877 0.0392156877 0 0.0392156877 0.0392156877 0.0392156877 0 0.0392156877 0.0392156877 0.0392156877 0 0.0392156877 0.0392156877 0.0392156877 0 0.0392156877 0.0392156877 0.0392156877 0 0.0392156877 0.0392156877 0.0392156877 0.849999964 0.0392156877 0.0392156877 0.0392156877 0 0.0392156877 0.0392156877 0.0392156877 1 0.0392156877 0.0392156877 0.0392156877 0 0.0392156877 0.0392156877 0.0392156877 1 0.0392156877 0.0392156877 0.0392156877 0 0.0392156877 0.0392156877 0.0392156877 1 0.0392156877 0.0392156877 0.0392156877 0 0.0392156877 0.0392156877 0.0392156877 1 0.0392156877 0.0392156877 0.0392156877 0 0.0392156877 0.0392156877 0.0392156877 1 0.0392156877 0.0392156877 0.0392156877 0 0.0392156877 0.0392156877 0.0392156877 1 0.0392156877 0.0392156877 0.0392156877 0 0.0392156877 0.0392156877 0.0392156877 0 0.0392156877 0.0392156877 0.0392156877 0 0.0392156877 0.0392156877 0.0392156877 0 0.0392156877 0.0392156877 0.0392156877 0 0.0392156877 0.0392156877 0.0392156877 0 0.0392156877 0.0392156877 0.0392156877 0 0.0392156877 0.0392156877 0.0392156877 0 0.0392156877 0.0392156877 0.0392156877 0 0.0392156877 0.0392156877 0.0392156877 0 0.0392156877 0.0392156877 0.0392156877 0</float_array>
        <technique_common><accessor source="#vfx_kurp_0462-mesh-colors-array" count="366" stride="4"><param name="R" type="float"/><param name="G" type="float"/><param name="B" type="float"/><param name="A" type="float"/></accessor></technique_common>
      </source>
      <vertices id="vfx_kurp_0462-mesh-vertices"><input semantic="POSITION" source="#vfx_kurp_0462-mesh-positions"/></vertices>
      <triangles material="PreviewMaterial" count="444">
        <input semantic="VERTEX" source="#vfx_kurp_0462-mesh-vertices" offset="0"/>
        <input semantic="NORMAL" source="#vfx_kurp_0462-mesh-normals" offset="1"/>
        <input semantic="TEXCOORD" source="#vfx_kurp_0462-mesh-uv0" offset="2" set="0"/>
        <input semantic="COLOR" source="#vfx_kurp_0462-mesh-colors" offset="3" set="0"/>
        <p>0 0 0 0 1 1 1 1 2 2 2 2 3 3 3 3 2 2 2 2 1 1 1 1 4 4 4 4 5 5 5 5 6 6 6 6 6 6 6 6 5 5 5 5 7 7 7 7 2 2 2 2 7 7 7 7 5 5 5 5 7 7 7 7 2 2 2 2 8 8 8 8 3 3 3 3 8 8 8 8 2 2 2 2 8 8 8 8 3 3 3 3 9 9 9 9 5 5 5 5 0 0 0 0 2 2 2 2 0 0 0 0 5 5 5 5 10 10 10 10 4 4 4 4 10 10 10 10 5 5 5 5 10 10 10 10 4 4 4 4 11 11 11 11 12 12 12 12 11 11 11 11 4 4 4 4 11 11 11 11 12 12 12 12 13 13 13 13 14 14 14 14 13 13 13 13 12 12 12 12 13 13 13 13 14 14 14 14 15 15 15 15 16 16 16 16 15 15 15 15 14 14 14 14 15 15 15 15 16 16 16 16 17 17 17 17 18 18 18 18 17 17 17 17 16 16 16 16 17 17 17 17 18 18 18 18 19 19 19 19 20 20 20 20 19 19 19 19 18 18 18 18 19 19 19 19 20 20 20 20 21 21 21 21 22 22 22 22 21 21 21 21 20 20 20 20 21 21 21 21 22 22 22 22 23 23 23 23 24 24 24 24 23 23 23 23 22 22 22 22 25 25 25 25 23 23 23 23 24 24 24 24 26 26 26 26 4 4 4 4 6 6 6 6 4 4 4 4 26 26 26 26 12 12 12 12 27 27 27 27 12 12 12 12 26 26 26 26 12 12 12 12 27 27 27 27 14 14 14 14 28 28 28 28 14 14 14 14 27 27 27 27 14 14 14 14 28 28 28 28 16 16 16 16 29 29 29 29 16 16 16 16 28 28 28 28 16 16 16 16 29 29 29 29 18 18 18 18 30 30 30 30 18 18 18 18 29 29 29 29 18 18 18 18 30 30 30 30 20 20 20 20 31 31 31 31 20 20 20 20 30 30 30 30 20 20 20 20 31 31 31 31 22 22 22 22 32 32 32 32 22 22 22 22 31 31 31 31 22 22 22 22 32 32 32 32 24 24 24 24 33 33 33 33 24 24 24 24 32 32 32 32 34 34 34 34 24 24 24 24 33 33 33 33 24 24 24 24 34 34 34 34 25 25 25 25 35 35 35 35 25 25 25 25 34 34 34 34 36 36 36 36 37 37 37 37 38 38 38 38 38 38 38 38 37 37 37 37 39 39 39 39 40 40 40 40 39 39 39 39 37 37 37 37 39 39 39 39 40 40 40 40 41 41 41 41 40 40 40 40 37 37 37 37 42 42 42 42 42 42 42 42 37 37 37 37 43 43 43 43 36 36 36 36 43 43 43 43 37 37 37 37 43 43 43 43 36 36 36 36 44 44 44 44 45 45 45 45 44 44 44 44 36 36 36 36 44 44 44 44 45 45 45 45 46 46 46 46 47 47 47 47 46 46 46 46 45 45 45 45 46 46 46 46 47 47 47 47 48 48 48 48 49 49 49 49 48 48 48 48 47 47 47 47 48 48 48 48 49 49 49 49 50 50 50 50 51 51 51 51 50 50 50 50 49 49 49 49 50 50 50 50 51 51 51 51 52 52 52 52 53 53 53 53 52 52 52 52 51 51 51 51 52 52 52 52 53 53 53 53 54 54 54 54 55 55 55 55 54 54 54 54 53 53 53 53 54 54 54 54 55 55 55 55 56 56 56 56 57 57 57 57 56 56 56 56 55 55 55 55 56 56 56 56 57 57 57 57 58 58 58 58 59 59 59 59 36 36 36 36 38 38 38 38 36 36 36 36 59 59 59 59 45 45 45 45 60 60 60 60 45 45 45 45 59 59 59 59 45 45 45 45 60 60 60 60 47 47 47 47 61 61 61 61 47 47 47 47 60 60 60 60 47 47 47 47 61 61 61 61 49 49 49 49 62 62 62 62 49 49 49 49 61 61 61 61 49 49 49 49 62 62 62 62 51 51 51 51 63 63 63 63 51 51 51 51 62 62 62 62 51 51 51 51 63 63 63 63 53 53 53 53 64 64 64 64 53 53 53 53 63 63 63 63 53 53 53 53 64 64 64 64 55 55 55 55 65 65 65 65 55 55 55 55 64 64 64 64 55 55 55 55 65 65 65 65 57 57 57 57 66 66 66 66 57 57 57 57 65 65 65 65 67 67 67 67 57 57 57 57 66 66 66 66 57 57 57 57 67 67 67 67 58 58 58 58 68 68 68 68 58 58 58 58 67 67 67 67 69 69 69 69 70 70 70 70 71 71 71 71 71 71 71 71 70 70 70 70 72 72 72 72 73 73 73 73 72 72 72 72 70 70 70 70 72 72 72 72 73 73 73 73 74 74 74 74 73 73 73 73 70 70 70 70 75 75 75 75 75 75 75 75 70 70 70 70 76 76 76 76 69 69 69 69 76 76 76 76 70 70 70 70 76 76 76 76 69 69 69 69 77 77 77 77 78 78 78 78 77 77 77 77 69 69 69 69 77 77 77 77 78 78 78 78 79 79 79 79 80 80 80 80 79 79 79 79 78 78 78 78 79 79 79 79 80 80 80 80 81 81 81 81 82 82 82 82 81 81 81 81 80 80 80 80 81 81 81 81 82 82 82 82 83 83 83 83 84 84 84 84 83 83 83 83 82 82 82 82 83 83 83 83 84 84 84 84 85 85 85 85 86 86 86 86 85 85 85 85 84 84 84 84 85 85 85 85 86 86 86 86 87 87 87 87 88 88 88 88 87 87 87 87 86 86 86 86 87 87 87 87 88 88 88 88 89 89 89 89 90 90 90 90 89 89 89 89 88 88 88 88 89 89 89 89 90 90 90 90 91 91 91 91 92 92 92 92 69 69 69 69 71 71 71 71 69 69 69 69 92 92 92 92 78 78 78 78 93 93 93 93 78 78 78 78 92 92 92 92 78 78 78 78 93 93 93 93 80 80 80 80 94 94 94 94 80 80 80 80 93 93 93 93 80 80 80 80 94 94 94 94 82 82 82 82 95 95 95 95 82 82 82 82 94 94 94 94 82 82 82 82 95 95 95 95 84 84 84 84 96 96 96 96 84 84 84 84 95 95 95 95 84 84 84 84 96 96 96 96 86 86 86 86 97 97 97 97 86 86 86 86 96 96 96 96 86 86 86 86 97 97 97 97 88 88 88 88 98 98 98 98 88 88 88 88 97 97 97 97 88 88 88 88 98 98 98 98 90 90 90 90 99 99 99 99 90 90 90 90 98 98 98 98 100 100 100 100 90 90 90 90 99 99 99 99 90 90 90 90 100 100 100 100 91 91 91 91 101 101 101 101 91 91 91 91 100 100 100 100 102 102 102 102 103 103 103 103 104 104 104 104 104 104 104 104 103 103 103 103 105 105 105 105 106 106 106 106 105 105 105 105 103 103 103 103 105 105 105 105 106 106 106 106 107 107 107 107 106 106 106 106 103 103 103 103 108 108 108 108 108 108 108 108 103 103 103 103 109 109 109 109 102 102 102 102 109 109 109 109 103 103 103 103 109 109 109 109 102 102 102 102 110 110 110 110 111 111 111 111 110 110 110 110 102 102 102 102 110 110 110 110 111 111 111 111 112 112 112 112 113 113 113 113 112 112 112 112 111 111 111 111 112 112 112 112 113 113 113 113 114 114 114 114 115 115 115 115 114 114 114 114 113 113 113 113 114 114 114 114 115 115 115 115 116 116 116 116 117 117 117 117 116 116 116 116 115 115 115 115 116 116 116 116 117 117 117 117 118 118 118 118 119 119 119 119 118 118 118 118 117 117 117 117 118 118 118 118 119 119 119 119 120 120 120 120 121 121 121 121 120 120 120 120 119 119 119 119 120 120 120 120 121 121 121 121 122 122 122 122 123 123 123 123 122 122 122 122 121 121 121 121 122 122 122 122 123 123 123 123 124 124 124 124 125 125 125 125 102 102 102 102 104 104 104 104 102 102 102 102 125 125 125 125 111 111 111 111 126 126 126 126 111 111 111 111 125 125 125 125 111 111 111 111 126 126 126 126 113 113 113 113 127 127 127 127 113 113 113 113 126 126 126 126 113 113 113 113 127 127 127 127 115 115 115 115 128 128 128 128 115 115 115 115 127 127 127 127 115 115 115 115 128 128 128 128 117 117 117 117 129 129 129 129 117 117 117 117 128 128 128 128 117 117 117 117 129 129 129 129 119 119 119 119 130 130 130 130 119 119 119 119 129 129 129 129 119 119 119 119 130 130 130 130 121 121 121 121 131 131 131 131 121 121 121 121 130 130 130 130 121 121 121 121 131 131 131 131 123 123 123 123 132 132 132 132 123 123 123 123 131 131 131 131 133 133 133 133 123 123 123 123 132 132 132 132 123 123 123 123 133 133 133 133 124 124 124 124 134 134 134 134 124 124 124 124 133 133 133 133 135 135 135 135 136 136 136 136 137 137 137 137 137 137 137 137 136 136 136 136 138 138 138 138 139 139 139 139 138 138 138 138 136 136 136 136 138 138 138 138 139 139 139 139 140 140 140 140 139 139 139 139 136 136 136 136 141 141 141 141 141 141 141 141 136 136 136 136 142 142 142 142 135 135 135 135 142 142 142 142 136 136 136 136 142 142 142 142 135 135 135 135 143 143 143 143 144 144 144 144 143 143 143 143 135 135 135 135 143 143 143 143 144 144 144 144 145 145 145 145 146 146 146 146 145 145 145 145 144 144 144 144 145 145 145 145 146 146 146 146 147 147 147 147 148 148 148 148 147 147 147 147 146 146 146 146 147 147 147 147 148 148 148 148 149 149 149 149 150 150 150 150 149 149 149 149 148 148 148 148 149 149 149 149 150 150 150 150 151 151 151 151 152 152 152 152 151 151 151 151 150 150 150 150 151 151 151 151 152 152 152 152 153 153 153 153 154 154 154 154 153 153 153 153 152 152 152 152 153 153 153 153 154 154 154 154 155 155 155 155 156 156 156 156 155 155 155 155 154 154 154 154 155 155 155 155 156 156 156 156 157 157 157 157 158 158 158 158 135 135 135 135 137 137 137 137 135 135 135 135 158 158 158 158 144 144 144 144 159 159 159 159 144 144 144 144 158 158 158 158 144 144 144 144 159 159 159 159 146 146 146 146 160 160 160 160 146 146 146 146 159 159 159 159 146 146 146 146 160 160 160 160 148 148 148 148 161 161 161 161 148 148 148 148 160 160 160 160 148 148 148 148 161 161 161 161 150 150 150 150 162 162 162 162 150 150 150 150 161 161 161 161 150 150 150 150 162 162 162 162 152 152 152 152 163 163 163 163 152 152 152 152 162 162 162 162 152 152 152 152 163 163 163 163 154 154 154 154 164 164 164 164 154 154 154 154 163 163 163 163 154 154 154 154 164 164 164 164 156 156 156 156 165 165 165 165 156 156 156 156 164 164 164 164 166 166 166 166 156 156 156 156 165 165 165 165 156 156 156 156 166 166 166 166 157 157 157 157 167 167 167 167 157 157 157 157 166 166 166 166 168 168 168 168 169 169 169 169 170 170 170 170 170 170 170 170 169 169 169 169 171 171 171 171 172 172 172 172 171 171 171 171 169 169 169 169 171 171 171 171 172 172 172 172 173 173 173 173 172 172 172 172 169 169 169 169 174 174 174 174 174 174 174 174 169 169 169 169 175 175 175 175 168 168 168 168 175 175 175 175 169 169 169 169 175 175 175 175 168 168 168 168 176 176 176 176 177 177 177 177 176 176 176 176 168 168 168 168 176 176 176 176 177 177 177 177 178 178 178 178 179 179 179 179 178 178 178 178 177 177 177 177 178 178 178 178 179 179 179 179 180 180 180 180 181 181 181 181 180 180 180 180 179 179 179 179 180 180 180 180 181 181 181 181 182 182 182 182 183 183 183 183 182 182 182 182 181 181 181 181 182 182 182 182 183 183 183 183 184 184 184 184 185 185 185 185 184 184 184 184 183 183 183 183 184 184 184 184 185 185 185 185 186 186 186 186 187 187 187 187 186 186 186 186 185 185 185 185 186 186 186 186 187 187 187 187 188 188 188 188 189 189 189 189 188 188 188 188 187 187 187 187 188 188 188 188 189 189 189 189 190 190 190 190 191 191 191 191 168 168 168 168 170 170 170 170 168 168 168 168 191 191 191 191 177 177 177 177 192 192 192 192 177 177 177 177 191 191 191 191 177 177 177 177 192 192 192 192 179 179 179 179 193 193 193 193 179 179 179 179 192 192 192 192 179 179 179 179 193 193 193 193 181 181 181 181 194 194 194 194 181 181 181 181 193 193 193 193 181 181 181 181 194 194 194 194 183 183 183 183 195 195 195 195 183 183 183 183 194 194 194 194 183 183 183 183 195 195 195 195 185 185 185 185 196 196 196 196 185 185 185 185 195 195 195 195 185 185 185 185 196 196 196 196 187 187 187 187 197 197 197 197 187 187 187 187 196 196 196 196 187 187 187 187 197 197 197 197 189 189 189 189 198 198 198 198 189 189 189 189 197 197 197 197 199 199 199 199 189 189 189 189 198 198 198 198 189 189 189 189 199 199 199 199 190 190 190 190 200 200 200 200 190 190 190 190 199 199 199 199 201 201 201 201 202 202 202 202 203 203 203 203 203 203 203 203 202 202 202 202 204 204 204 204 205 205 205 205 204 204 204 204 202 202 202 202 204 204 204 204 205 205 205 205 206 206 206 206 205 205 205 205 202 202 202 202 207 207 207 207 207 207 207 207 202 202 202 202 208 208 208 208 201 201 201 201 208 208 208 208 202 202 202 202 208 208 208 208 201 201 201 201 209 209 209 209 210 210 210 210 209 209 209 209 201 201 201 201 209 209 209 209 210 210 210 210 211 211 211 211 212 212 212 212 211 211 211 211 210 210 210 210 211 211 211 211 212 212 212 212 213 213 213 213 214 214 214 214 213 213 213 213 212 212 212 212 213 213 213 213 214 214 214 214 215 215 215 215 216 216 216 216 215 215 215 215 214 214 214 214 215 215 215 215 216 216 216 216 217 217 217 217 218 218 218 218 217 217 217 217 216 216 216 216 217 217 217 217 218 218 218 218 219 219 219 219 220 220 220 220 219 219 219 219 218 218 218 218 219 219 219 219 220 220 220 220 221 221 221 221 222 222 222 222 221 221 221 221 220 220 220 220 221 221 221 221 222 222 222 222 223 223 223 223 224 224 224 224 201 201 201 201 203 203 203 203 201 201 201 201 224 224 224 224 210 210 210 210 225 225 225 225 210 210 210 210 224 224 224 224 210 210 210 210 225 225 225 225 212 212 212 212 226 226 226 226 212 212 212 212 225 225 225 225 212 212 212 212 226 226 226 226 214 214 214 214 227 227 227 227 214 214 214 214 226 226 226 226 214 214 214 214 227 227 227 227 216 216 216 216 228 228 228 228 216 216 216 216 227 227 227 227 216 216 216 216 228 228 228 228 218 218 218 218 229 229 229 229 218 218 218 218 228 228 228 228 218 218 218 218 229 229 229 229 220 220 220 220 230 230 230 230 220 220 220 220 229 229 229 229 220 220 220 220 230 230 230 230 222 222 222 222 231 231 231 231 222 222 222 222 230 230 230 230 232 232 232 232 222 222 222 222 231 231 231 231 222 222 222 222 232 232 232 232 223 223 223 223 233 233 233 233 223 223 223 223 232 232 232 232 234 234 234 234 235 235 235 235 236 236 236 236 236 236 236 236 235 235 235 235 237 237 237 237 238 238 238 238 237 237 237 237 235 235 235 235 237 237 237 237 238 238 238 238 239 239 239 239 238 238 238 238 235 235 235 235 240 240 240 240 240 240 240 240 235 235 235 235 241 241 241 241 234 234 234 234 241 241 241 241 235 235 235 235 241 241 241 241 234 234 234 234 242 242 242 242 243 243 243 243 242 242 242 242 234 234 234 234 242 242 242 242 243 243 243 243 244 244 244 244 245 245 245 245 244 244 244 244 243 243 243 243 244 244 244 244 245 245 245 245 246 246 246 246 247 247 247 247 246 246 246 246 245 245 245 245 246 246 246 246 247 247 247 247 248 248 248 248 249 249 249 249 248 248 248 248 247 247 247 247 248 248 248 248 249 249 249 249 250 250 250 250 251 251 251 251 250 250 250 250 249 249 249 249 250 250 250 250 251 251 251 251 252 252 252 252 253 253 253 253 252 252 252 252 251 251 251 251 252 252 252 252 253 253 253 253 254 254 254 254 255 255 255 255 254 254 254 254 253 253 253 253 254 254 254 254 255 255 255 255 256 256 256 256 257 257 257 257 234 234 234 234 236 236 236 236 234 234 234 234 257 257 257 257 243 243 243 243 258 258 258 258 243 243 243 243 257 257 257 257 243 243 243 243 258 258 258 258 245 245 245 245 259 259 259 259 245 245 245 245 258 258 258 258 245 245 245 245 259 259 259 259 247 247 247 247 260 260 260 260 247 247 247 247 259 259 259 259 247 247 247 247 260 260 260 260 249 249 249 249 261 261 261 261 249 249 249 249 260 260 260 260 249 249 249 249 261 261 261 261 251 251 251 251 262 262 262 262 251 251 251 251 261 261 261 261 251 251 251 251 262 262 262 262 253 253 253 253 263 263 263 263 253 253 253 253 262 262 262 262 253 253 253 253 263 263 263 263 255 255 255 255 264 264 264 264 255 255 255 255 263 263 263 263 265 265 265 265 255 255 255 255 264 264 264 264 255 255 255 255 265 265 265 265 256 256 256 256 266 266 266 266 256 256 256 256 265 265 265 265 267 267 267 267 268 268 268 268 269 269 269 269 269 269 269 269 268 268 268 268 270 270 270 270 271 271 271 271 270 270 270 270 268 268 268 268 270 270 270 270 271 271 271 271 272 272 272 272 271 271 271 271 268 268 268 268 273 273 273 273 273 273 273 273 268 268 268 268 274 274 274 274 267 267 267 267 274 274 274 274 268 268 268 268 274 274 274 274 267 267 267 267 275 275 275 275 276 276 276 276 275 275 275 275 267 267 267 267 275 275 275 275 276 276 276 276 277 277 277 277 278 278 278 278 277 277 277 277 276 276 276 276 277 277 277 277 278 278 278 278 279 279 279 279 280 280 280 280 279 279 279 279 278 278 278 278 279 279 279 279 280 280 280 280 281 281 281 281 282 282 282 282 281 281 281 281 280 280 280 280 281 281 281 281 282 282 282 282 283 283 283 283 284 284 284 284 283 283 283 283 282 282 282 282 283 283 283 283 284 284 284 284 285 285 285 285 286 286 286 286 285 285 285 285 284 284 284 284 285 285 285 285 286 286 286 286 287 287 287 287 288 288 288 288 287 287 287 287 286 286 286 286 287 287 287 287 288 288 288 288 289 289 289 289 290 290 290 290 267 267 267 267 269 269 269 269 267 267 267 267 290 290 290 290 276 276 276 276 291 291 291 291 276 276 276 276 290 290 290 290 276 276 276 276 291 291 291 291 278 278 278 278 292 292 292 292 278 278 278 278 291 291 291 291 278 278 278 278 292 292 292 292 280 280 280 280 293 293 293 293 280 280 280 280 292 292 292 292 280 280 280 280 293 293 293 293 282 282 282 282 294 294 294 294 282 282 282 282 293 293 293 293 282 282 282 282 294 294 294 294 284 284 284 284 295 295 295 295 284 284 284 284 294 294 294 294 284 284 284 284 295 295 295 295 286 286 286 286 296 296 296 296 286 286 286 286 295 295 295 295 286 286 286 286 296 296 296 296 288 288 288 288 297 297 297 297 288 288 288 288 296 296 296 296 298 298 298 298 288 288 288 288 297 297 297 297 288 288 288 288 298 298 298 298 289 289 289 289 299 299 299 299 289 289 289 289 298 298 298 298 300 300 300 300 301 301 301 301 302 302 302 302 302 302 302 302 301 301 301 301 303 303 303 303 304 304 304 304 303 303 303 303 301 301 301 301 303 303 303 303 304 304 304 304 305 305 305 305 304 304 304 304 301 301 301 301 306 306 306 306 306 306 306 306 301 301 301 301 307 307 307 307 300 300 300 300 307 307 307 307 301 301 301 301 307 307 307 307 300 300 300 300 308 308 308 308 309 309 309 309 308 308 308 308 300 300 300 300 308 308 308 308 309 309 309 309 310 310 310 310 311 311 311 311 310 310 310 310 309 309 309 309 310 310 310 310 311 311 311 311 312 312 312 312 313 313 313 313 312 312 312 312 311 311 311 311 312 312 312 312 313 313 313 313 314 314 314 314 315 315 315 315 314 314 314 314 313 313 313 313 314 314 314 314 315 315 315 315 316 316 316 316 317 317 317 317 316 316 316 316 315 315 315 315 316 316 316 316 317 317 317 317 318 318 318 318 319 319 319 319 318 318 318 318 317 317 317 317 318 318 318 318 319 319 319 319 320 320 320 320 321 321 321 321 320 320 320 320 319 319 319 319 320 320 320 320 321 321 321 321 322 322 322 322 323 323 323 323 300 300 300 300 302 302 302 302 300 300 300 300 323 323 323 323 309 309 309 309 324 324 324 324 309 309 309 309 323 323 323 323 309 309 309 309 324 324 324 324 311 311 311 311 325 325 325 325 311 311 311 311 324 324 324 324 311 311 311 311 325 325 325 325 313 313 313 313 326 326 326 326 313 313 313 313 325 325 325 325 313 313 313 313 326 326 326 326 315 315 315 315 327 327 327 327 315 315 315 315 326 326 326 326 315 315 315 315 327 327 327 327 317 317 317 317 328 328 328 328 317 317 317 317 327 327 327 327 317 317 317 317 328 328 328 328 319 319 319 319 329 329 329 329 319 319 319 319 328 328 328 328 319 319 319 319 329 329 329 329 321 321 321 321 330 330 330 330 321 321 321 321 329 329 329 329 331 331 331 331 321 321 321 321 330 330 330 330 321 321 321 321 331 331 331 331 322 322 322 322 332 332 332 332 322 322 322 322 331 331 331 331 333 333 333 333 334 334 334 334 335 335 335 335 335 335 335 335 334 334 334 334 336 336 336 336 337 337 337 337 336 336 336 336 334 334 334 334 336 336 336 336 337 337 337 337 338 338 338 338 337 337 337 337 334 334 334 334 339 339 339 339 339 339 339 339 334 334 334 334 340 340 340 340 333 333 333 333 340 340 340 340 334 334 334 334 340 340 340 340 333 333 333 333 341 341 341 341 342 342 342 342 341 341 341 341 333 333 333 333 341 341 341 341 342 342 342 342 343 343 343 343 344 344 344 344 343 343 343 343 342 342 342 342 343 343 343 343 344 344 344 344 345 345 345 345 346 346 346 346 345 345 345 345 344 344 344 344 345 345 345 345 346 346 346 346 347 347 347 347 348 348 348 348 347 347 347 347 346 346 346 346 347 347 347 347 348 348 348 348 349 349 349 349 350 350 350 350 349 349 349 349 348 348 348 348 349 349 349 349 350 350 350 350 351 351 351 351 352 352 352 352 351 351 351 351 350 350 350 350 351 351 351 351 352 352 352 352 353 353 353 353 354 354 354 354 353 353 353 353 352 352 352 352 353 353 353 353 354 354 354 354 355 355 355 355 356 356 356 356 333 333 333 333 335 335 335 335 333 333 333 333 356 356 356 356 342 342 342 342 357 357 357 357 342 342 342 342 356 356 356 356 342 342 342 342 357 357 357 357 344 344 344 344 358 358 358 358 344 344 344 344 357 357 357 357 344 344 344 344 358 358 358 358 346 346 346 346 359 359 359 359 346 346 346 346 358 358 358 358 346 346 346 346 359 359 359 359 348 348 348 348 360 360 360 360 348 348 348 348 359 359 359 359 348 348 348 348 360 360 360 360 350 350 350 350 361 361 361 361 350 350 350 350 360 360 360 360 350 350 350 350 361 361 361 361 352 352 352 352 362 362 362 362 352 352 352 352 361 361 361 361 352 352 352 352 362 362 362 362 354 354 354 354 363 363 363 363 354 354 354 354 362 362 362 362 364 364 364 364 354 354 354 354 363 363 363 363 354 354 354 354 364 364 364 364 355 355 355 355 365 365 365 365 355 355 355 355 364 364 364 364</p>
      </triangles>
    </mesh></geometry>
  </library_geometries>
  <library_visual_scenes>
    <visual_scene id="Scene" name="Scene">
      <node id="vfx_kurp_0462" name="vfx_kurp_0462" type="NODE">
        <instance_geometry url="#vfx_kurp_0462-mesh"><bind_material><technique_common><instance_material symbol="PreviewMaterial" target="#PreviewMaterial"><bind_vertex_input semantic="UVSET0" input_semantic="TEXCOORD" input_set="0"/></instance_material></technique_common></bind_material></instance_geometry>
      </node>
    </visual_scene>
  </library_visual_scenes>
  <scene><instance_visual_scene url="#Scene"/></scene>
</COLLADA>
