<?xml version="1.0" encoding="utf-8"?>
<COLLADA xmlns="http://www.collada.org/2005/11/COLLADASchema" version="1.4.1">
  <asset>
    <contributor><authoring_tool>Morrobroom Kurpulio VFX preview converter</authoring_tool></contributor>
    <unit name="unit" meter="1"/>
    <up_axis>Z_UP</up_axis>
  </asset>
  <library_images>
    <image id="VFXTexture" name="darkmap_newgen-1.dds">
      <init_from>../../../Textures/Kurp/darkmap_newgen-1.dds</init_from>
    </image>
  </library_images>
  <library_effects>
    <effect id="PreviewEffect">
      <profile_COMMON>
        <newparam sid="VFXTexture-surface">
          <surface type="2D"><init_from>VFXTexture</init_from></surface>
        </newparam>
        <newparam sid="VFXTexture-sampler">
          <sampler2D><source>VFXTexture-surface</source></sampler2D>
        </newparam>
        <technique sid="common"><phong>
          <emission><color>0.08 0.08 0.08 1</color></emission>
          <ambient><color>0.2 0.2 0.2 1</color></ambient>
          <diffuse><texture texture="VFXTexture-sampler" texcoord="UVSET0"/></diffuse>
          <specular><color>0.15 0.15 0.15 1</color></specular>
          <shininess><float>8</float></shininess>
          <transparent opaque="A_ONE"><texture texture="VFXTexture-sampler" texcoord="UVSET0"/></transparent>
          <transparency><float>1</float></transparency>
        </phong></technique>
      </profile_COMMON>
      <extra><technique profile="GOOGLEEARTH"><double_sided>1</double_sided></technique></extra>
    </effect>
  </library_effects>
  <library_materials><material id="PreviewMaterial" name="PreviewMaterial"><instance_effect url="#PreviewEffect"/></material></library_materials>
  <library_geometries>
    <geometry id="vfx_kurp_0306-mesh" name="vfx_kurp_0306"><mesh>
      <source id="vfx_kurp_0306-mesh-positions">
        <float_array id="vfx_kurp_0306-mesh-positions-array" count="189">6.74583173 -9.45680595 -1.62211889 6.60286273 -9.1194199 -1.6386164 5.95524338 -10.3643 -1.52792348 5.76656066 -9.83906186 -1.57736734 5.08067001 -10.8103474 -1.37981069 4.92083887 -10.1132687 -1.45515517 4.12211475 -10.7949496 -1.21573485 4.06569347 -9.94204092 -1.30246694 3.07957489 -10.3181084 -0.989740777 3.20113136 -9.32537821 -1.08782509 1.95305239 -9.37982236 -0.602485002 2.3271501 -8.26328233 -0.758123479 0.742549936 -7.98009493 -0.00407142058 1.4437465 -6.75575087 -0.315865003 6.45989132 -8.78203205 -1.62860903 5.57787713 -9.31382197 -1.58020252 4.76100329 -9.41618849 -1.46636005 4.00927356 -9.08913127 -1.31376078 3.32268763 -8.33264819 -1.10501028 2.70124433 -7.14674009 -0.810493869 2.14494438 -5.53140879 -0.426376314 6.23861667 -9.21236247 -1.62412241 6.60228889 -9.25724128 -1.63673264 5.84799885 -8.0739459 -1.55875429 6.39721035 -8.17316084 -1.60077669 5.89899577 -7.09351993 -1.42399102 6.58260266 -7.30364067 -1.49141323 6.39160853 -6.27108494 -1.25351054 7.15846069 -6.64867624 -1.34645557 7.32583596 -5.60663942 -1.03749107 8.12478771 -6.20827459 -1.16103592 8.70167631 -5.10018696 -0.756955396 9.48157815 -5.98243266 -0.89227625 10.5191274 -4.75172208 -0.393479268 11.2288409 -5.97114765 -0.435000255 6.96595971 -9.30211874 -1.62304114 6.94641982 -8.27237722 -1.59748681 7.26620835 -7.51375758 -1.49770575 7.92531087 -7.0262713 -1.35859399 8.92373775 -6.80990981 -1.16650957 10.2614877 -6.86467757 -0.846156155 11.938553 -7.19057298 -0.237609867 6.70392318 -8.89532343 -1.62965559 6.48322276 -9.18783336 -1.63735682 7.88513039 -9.12624638 -1.5503665 7.52460234 -9.5522714 -1.5860863 8.70870411 -9.66062333 -1.40014401 8.18493073 -10.1475831 -1.46347909 9.17464877 -10.4984582 -1.2282616 8.46421805 -10.9737731 -1.30905319 9.28296164 -11.6397434 -1.02417819 8.36245366 -12.0308382 -1.0949544 9.03364305 -13.0844836 -0.687517174 7.87964324 -13.3187757 -0.71586517 8.42669539 -14.8326734 -0.00379746645 7.01578614 -14.8375908 -0.0155828576 6.26252048 -9.48034227 -1.61862529 7.16407311 -9.97829375 -1.57525403 7.66115958 -10.6345437 -1.4592498 7.75378608 -11.44909 -1.29801727 7.44194715 -12.421932 -1.05573011 6.72564219 -13.5530723 -0.646961453 5.60487659 -14.8425083 -0.00511128766</float_array>
        <technique_common><accessor source="#vfx_kurp_0306-mesh-positions-array" count="63" stride="3"><param name="X" type="float"/><param name="Y" type="float"/><param name="Z" type="float"/></accessor></technique_common>
      </source>
      <source id="vfx_kurp_0306-mesh-normals">
        <float_array id="vfx_kurp_0306-mesh-normals-array" count="189">0.0422632218 0.066654721 0.996880619 0.0543879576 0.0304144338 0.998056568 0.0644315825 0.112860839 0.991519542 0.0644473967 0.0768395703 0.994958398 0.135570438 0.137033005 0.981245439 0.148977705 0.0974337231 0.984028614 0.215383705 0.121538328 0.968936682 0.23256201 0.0723467336 0.969887036 0.304494928 0.0704209916 0.949907218 0.312422558 0.0203133142 0.949726021 0.386119861 0.00835643644 0.922410767 0.371061082 -0.0310061045 0.928090672 0.427377688 -0.0155199229 0.903939956 0.371056731 -0.0664299476 0.926231053 0.0628768034 0.00713752112 0.997995773 0.0860203999 0.0348779902 0.995682689 0.171561004 0.0446584252 0.984160783 0.249182536 0.0146879912 0.968345148 0.312725552 -0.033800096 0.949241952 0.337277004 -0.0797652149 0.938020113 0.334866274 -0.107285119 0.936138068 0.0287642561 -0.0474620155 0.9984588 -0.00864766662 -0.0403254228 0.999149177 0.0554561495 -0.0954527608 0.993888015 0.0257266218 -0.0757885382 0.996791973 0.0411626016 -0.178973813 0.982992378 0.00608689803 -0.166654254 0.985996607 0.00130835203 -0.245706245 0.969343453 -0.04224718 -0.228736757 0.972571165 -0.0572252031 -0.287039702 0.956207867 -0.109019002 -0.250437989 0.961974881 -0.126836514 -0.278894854 0.951908693 -0.192450203 -0.213859399 0.957719728 -0.210315741 -0.209698232 0.954879019 -0.293778744 -0.12070607 0.948221543 -0.0326037263 -0.0361230658 0.998815359 -0.0190453788 -0.0723653687 0.997196333 -0.0462104505 -0.155008628 0.986831758 -0.101126219 -0.198837092 0.974801159 -0.17588694 -0.194625891 0.96497904 -0.27345368 -0.135367251 0.952312339 -0.349556582 -0.0520177237 0.935470124 -0.0628437862 0.0211458509 0.997799334 -0.0376514594 0.0497715246 0.998050682 -0.116677779 0.0199076337 0.992970283 -0.0840660467 0.0357848316 0.995817426 -0.17644088 0.0640090435 0.982227804 -0.146303516 0.0922395577 0.984930021 -0.201514864 0.124393201 0.971554472 -0.159025256 0.165542238 0.973296838 -0.182789514 0.210354014 0.960384914 -0.124173334 0.257597232 0.958240392 -0.114673153 0.32731961 0.937929603 -0.0583478946 0.370186942 0.927123051 -0.0403096961 0.413313168 0.909696297 -0.008325136 0.43386269 0.900940541 -0.0217870195 0.0689135483 0.997384704 -0.0574664405 0.0748437818 0.995538054 -0.105644473 0.138832281 0.984664838 -0.102334305 0.21668579 0.970862997 -0.0646641819 0.310252658 0.948452335 -0.0190508561 0.415085087 0.909583111 0.00511653212 0.442046558 0.896977515</float_array>
        <technique_common><accessor source="#vfx_kurp_0306-mesh-normals-array" count="63" stride="3"><param name="X" type="float"/><param name="Y" type="float"/><param name="Z" type="float"/></accessor></technique_common>
      </source>
      <source id="vfx_kurp_0306-mesh-uv0">
        <float_array id="vfx_kurp_0306-mesh-uv0-array" count="126">-0.030000031 -0.333333254 0.469999939 -0.333333254 -0.0300000105 -0.166666627 0.469999969 -0.166666627 -0.0299999919 1.1920929e-07 0.469999969 1.1920929e-07 -0.0299999714 0.166666746 0.469999999 0.166666746 -0.0299999509 0.333333373 0.470000029 0.333333373 -0.0299999323 0.50000006 0.470000029 0.50000006 -0.0299999118 0.666666687 0.470000058 0.666666687 0.969999909 -0.333333254 0.969999909 -0.166666627 0.969999969 1.1920929e-07 0.969999969 0.166666746 0.969999969 0.333333373 0.970000029 0.50000006 0.970000029 0.666666687 -0.030000031 -0.333333254 0.469999939 -0.333333254 -0.0300000105 -0.166666627 0.469999969 -0.166666627 -0.0299999919 1.1920929e-07 0.469999969 1.1920929e-07 -0.0299999714 0.166666746 0.469999999 0.166666746 -0.0299999509 0.333333373 0.470000029 0.333333373 -0.0299999323 0.50000006 0.470000029 0.50000006 -0.0299999118 0.666666687 0.470000058 0.666666687 0.969999909 -0.333333254 0.969999909 -0.166666627 0.969999969 1.1920929e-07 0.969999969 0.166666746 0.969999969 0.333333373 0.970000029 0.50000006 0.970000029 0.666666687 -0.030000031 -0.333333254 0.469999939 -0.333333254 -0.0300000105 -0.166666627 0.469999969 -0.166666627 -0.0299999919 1.1920929e-07 0.469999969 1.1920929e-07 -0.0299999714 0.166666746 0.469999999 0.166666746 -0.0299999509 0.333333373 0.470000029 0.333333373 -0.0299999323 0.50000006 0.470000029 0.50000006 -0.0299999118 0.666666687 0.470000058 0.666666687 0.969999909 -0.333333254 0.969999909 -0.166666627 0.969999969 1.1920929e-07 0.969999969 0.166666746 0.969999969 0.333333373 0.970000029 0.50000006 0.970000029 0.666666687</float_array>
        <technique_common><accessor source="#vfx_kurp_0306-mesh-uv0-array" count="63" stride="2"><param name="S" type="float"/><param name="T" type="float"/></accessor></technique_common>
      </source>
      <vertices id="vfx_kurp_0306-mesh-vertices"><input semantic="POSITION" source="#vfx_kurp_0306-mesh-positions"/></vertices>
      <triangles material="PreviewMaterial" count="72">
        <input semantic="VERTEX" source="#vfx_kurp_0306-mesh-vertices" offset="0"/>
        <input semantic="NORMAL" source="#vfx_kurp_0306-mesh-normals" offset="1"/>
        <input semantic="TEXCOORD" source="#vfx_kurp_0306-mesh-uv0" offset="2" set="0"/>
        <p>0 0 0 1 1 1 2 2 2 3 3 3 2 2 2 1 1 1 2 2 2 3 3 3 4 4 4 5 5 5 4 4 4 3 3 3 4 4 4 5 5 5 6 6 6 7 7 7 6 6 6 5 5 5 6 6 6 7 7 7 8 8 8 9 9 9 8 8 8 7 7 7 8 8 8 9 9 9 10 10 10 11 11 11 10 10 10 9 9 9 10 10 10 11 11 11 12 12 12 13 13 13 12 12 12 11 11 11 1 1 1 14 14 14 3 3 3 15 15 15 3 3 3 14 14 14 3 3 3 15 15 15 5 5 5 16 16 16 5 5 5 15 15 15 5 5 5 16 16 16 7 7 7 17 17 17 7 7 7 16 16 16 7 7 7 17 17 17 9 9 9 18 18 18 9 9 9 17 17 17 9 9 9 18 18 18 11 11 11 19 19 19 11 11 11 18 18 18 11 11 11 19 19 19 13 13 13 20 20 20 13 13 13 19 19 19 21 21 21 22 22 22 23 23 23 24 24 24 23 23 23 22 22 22 23 23 23 24 24 24 25 25 25 26 26 26 25 25 25 24 24 24 25 25 25 26 26 26 27 27 27 28 28 28 27 27 27 26 26 26 27 27 27 28 28 28 29 29 29 30 30 30 29 29 29 28 28 28 29 29 29 30 30 30 31 31 31 32 32 32 31 31 31 30 30 30 31 31 31 32 32 32 33 33 33 34 34 34 33 33 33 32 32 32 22 22 22 35 35 35 24 24 24 36 36 36 24 24 24 35 35 35 24 24 24 36 36 36 26 26 26 37 37 37 26 26 26 36 36 36 26 26 26 37 37 37 28 28 28 38 38 38 28 28 28 37 37 37 28 28 28 38 38 38 30 30 30 39 39 39 30 30 30 38 38 38 30 30 30 39 39 39 32 32 32 40 40 40 32 32 32 39 39 39 32 32 32 40 40 40 34 34 34 41 41 41 34 34 34 40 40 40 42 42 42 43 43 43 44 44 44 45 45 45 44 44 44 43 43 43 44 44 44 45 45 45 46 46 46 47 47 47 46 46 46 45 45 45 46 46 46 47 47 47 48 48 48 49 49 49 48 48 48 47 47 47 48 48 48 49 49 49 50 50 50 51 51 51 50 50 50 49 49 49 50 50 50 51 51 51 52 52 52 53 53 53 52 52 52 51 51 51 52 52 52 53 53 53 54 54 54 55 55 55 54 54 54 53 53 53 43 43 43 56 56 56 45 45 45 57 57 57 45 45 45 56 56 56 45 45 45 57 57 57 47 47 47 58 58 58 47 47 47 57 57 57 47 47 47 58 58 58 49 49 49 59 59 59 49 49 49 58 58 58 49 49 49 59 59 59 51 51 51 60 60 60 51 51 51 59 59 59 51 51 51 60 60 60 53 53 53 61 61 61 53 53 53 60 60 60 53 53 53 61 61 61 55 55 55 62 62 62 55 55 55 61 61 61</p>
      </triangles>
    </mesh></geometry>
  </library_geometries>
  <library_visual_scenes>
    <visual_scene id="Scene" name="Scene">
      <node id="vfx_kurp_0306" name="vfx_kurp_0306" type="NODE">
        <instance_geometry url="#vfx_kurp_0306-mesh"><bind_material><technique_common><instance_material symbol="PreviewMaterial" target="#PreviewMaterial"><bind_vertex_input semantic="UVSET0" input_semantic="TEXCOORD" input_set="0"/></instance_material></technique_common></bind_material></instance_geometry>
      </node>
    </visual_scene>
  </library_visual_scenes>
  <scene><instance_visual_scene url="#Scene"/></scene>
</COLLADA>
