<?xml version="1.0" encoding="utf-8"?>
<COLLADA xmlns="http://www.collada.org/2005/11/COLLADASchema" version="1.4.1">
  <asset>
    <contributor><authoring_tool>Morrobroom Kurpulio VFX preview converter</authoring_tool></contributor>
    <unit name="unit" meter="1"/>
    <up_axis>Z_UP</up_axis>
  </asset>
  <library_images>
    <image id="VFXTexture" name="darkmap_newgen-1.dds">
      <init_from>../../../Textures/Kurp/darkmap_newgen-1.dds</init_from>
    </image>
  </library_images>
  <library_effects>
    <effect id="PreviewEffect">
      <profile_COMMON>
        <newparam sid="VFXTexture-surface">
          <surface type="2D"><init_from>VFXTexture</init_from></surface>
        </newparam>
        <newparam sid="VFXTexture-sampler">
          <sampler2D><source>VFXTexture-surface</source></sampler2D>
        </newparam>
        <technique sid="common"><phong>
          <emission><color>0.08 0.08 0.08 1</color></emission>
          <ambient><color>0.2 0.2 0.2 1</color></ambient>
          <diffuse><texture texture="VFXTexture-sampler" texcoord="UVSET0"/></diffuse>
          <specular><color>0.15 0.15 0.15 1</color></specular>
          <shininess><float>8</float></shininess>
          <transparent opaque="A_ONE"><texture texture="VFXTexture-sampler" texcoord="UVSET0"/></transparent>
          <transparency><float>1</float></transparency>
        </phong></technique>
      </profile_COMMON>
      <extra><technique profile="GOOGLEEARTH"><double_sided>1</double_sided></technique></extra>
    </effect>
  </library_effects>
  <library_materials><material id="PreviewMaterial" name="PreviewMaterial"><instance_effect url="#PreviewEffect"/></material></library_materials>
  <library_geometries>
    <geometry id="vfx_kurp_0643-mesh" name="vfx_kurp_0643"><mesh>
      <source id="vfx_kurp_0643-mesh-positions">
        <float_array id="vfx_kurp_0643-mesh-positions-array" count="315">-2.81511081e-08 0.309912756 0.219519362 0.0957682282 0.294744551 0.219519362 -1.1202318e-07 2.00194323 0.219495289 0.618634164 1.90396124 0.219495289 -1.23364433e-07 2.70205325 0.21945785 0.834979713 2.56980604 0.21945785 -9.2647447e-08 3.09864342 0.219410665 0.957532883 2.94698524 0.219410665 -8.02832947e-08 3.2581079 0.219358318 1.00681007 3.09864414 0.219358318 0.182162091 0.250724763 0.219519362 1.17671245 1.61960649 0.219495289 1.58822644 2.18600804 0.21945785 1.82133651 2.50685602 0.219410621 1.9150672 2.6358642 0.219358318 0.250724696 0.182162214 0.219519362 1.6196056 1.1767129 0.219495289 2.18600661 1.58822751 0.21945785 2.50685549 1.82133812 0.219410621 2.63586366 1.91506791 0.219358295 0.294744551 0.0957683735 0.219519362 1.9039607 0.618634835 0.219495289 2.5698055 0.834980965 0.21945785 2.94698489 0.957534134 0.219410621 3.09864414 1.00681123 0.219358295 0.309912756 5.90047371e-08 0.219519362 2.00194359 3.45756916e-07 0.219495289 2.70205325 4.72022421e-07 0.21945785 3.09864342 5.46017375e-07 0.219410621 3.2581079 5.78784636e-07 0.219358295 0.294744551 -0.0957682505 0.219519362 1.9039616 -0.618634209 0.219495289 2.56980586 -0.834980071 0.21945785 2.94698489 -0.957533062 0.219410621 3.09864414 -1.00681025 0.219358295 0.25072474 -0.182162136 0.219519362 1.61960596 -1.17671263 0.219495289 2.18600804 -1.5882268 0.21945785 2.5068562 -1.82133669 0.219410621 2.63586438 -1.9150672 0.219358318 0.182162214 -0.25072474 0.219519362 1.17671299 -1.61960578 0.219495289 1.58822715 -2.18600678 0.21945785 1.82133776 -2.50685549 0.219410665 1.91506773 -2.63586384 0.219358318 0.0957683511 -0.294744596 0.219519362 0.618634835 -1.9039607 0.219495289 0.834980696 -2.56980604 0.21945785 0.957533866 -2.94698524 0.219410665 1.00681123 -3.09864378 0.219358318 2.60357682e-08 -0.309912801 0.219519362 2.38007694e-07 -2.00194341 0.219495289 3.49077609e-07 -2.70205325 0.21945785 4.49136621e-07 -3.09864342 0.219410665 4.89382359e-07 -3.2581079 0.219358318 -0.0957682952 -0.294744596 0.219519362 -0.618634298 -1.90396124 0.219495289 -0.834979981 -2.56980622 0.21945785 -0.957533151 -2.94698524 0.219410665 -1.00681016 -3.09864414 0.219358318 -0.182162136 -0.250724763 0.219519362 -1.17671272 -1.61960614 0.219495289 -1.58822715 -2.18600804 0.21945785 -1.82133669 -2.50685585 0.219410665 -1.9150672 -2.6358642 0.21935834 -0.250724696 -0.182162181 0.219519362 -1.61960614 -1.17671299 0.219495289 -2.18600714 -1.58822715 0.21945785 -2.50685531 -1.82133722 0.219410665 -2.63586384 -1.91506737 0.21935834 -0.294744596 -0.0957683511 0.219519362 -1.90396088 -0.618634701 0.219495289 -2.56980604 -0.834980696 0.21945785 -2.94698489 -0.957533777 0.219410688 -3.09864342 -1.00681069 0.21935834 -0.309912756 -2.22755787e-08 0.219519362 -2.00194341 -1.79289437e-07 0.219495289 -2.70205307 -2.36640638e-07 0.21945785 -3.09864342 -2.66658844e-07 0.219410688 -3.2581079 -2.75713766e-07 0.21935834 -0.294744596 0.0957682952 0.219519362 -1.90396124 0.618634343 0.219495289 -2.56980604 0.834980428 0.21945785 -2.94698489 0.957533598 0.219410665 -3.09864342 1.00681034 0.21935834 -0.250724763 0.182162136 0.219519362 -1.61960632 1.1767129 0.219495289 -2.18600732 1.58822697 0.21945785 -2.50685585 1.82133687 0.219410665 -2.63586384 1.91506755 0.21935834 -0.182162181 0.250724763 0.219519362 -1.1767129 1.61960596 0.219495289 -1.58822715 2.18600696 0.21945785 -1.82133704 2.50685585 0.219410665 -1.91506737 2.63586384 0.219358318 -0.0957683511 0.294744551 0.219519362 -0.618634656 1.90396124 0.219495289 -0.834980786 2.56980604 0.21945785 -0.957533687 2.94698524 0.219410665 -1.00681061 3.09864378 0.219358318 -2.81511081e-08 0.309912756 0.219519362 -1.1202318e-07 2.00194323 0.219495289 -1.23364433e-07 2.70205325 0.21945785 -9.2647447e-08 3.09864342 0.219410665 -8.02832947e-08 3.2581079 0.219358318</float_array>
        <technique_common><accessor source="#vfx_kurp_0643-mesh-positions-array" count="105" stride="3"><param name="X" type="float"/><param name="Y" type="float"/><param name="Z" type="float"/></accessor></technique_common>
      </source>
      <source id="vfx_kurp_0643-mesh-normals">
        <float_array id="vfx_kurp_0643-mesh-normals-array" count="315">0 1.4227182e-05 1 4.39643554e-06 1.35308564e-05 1 0 3.5814086e-05 0.999999999 1.10671444e-05 3.40612205e-05 0.999999999 0 8.9500783e-05 0.999999996 2.76572408e-05 8.51203655e-05 0.999999996 0 0.000234088839 0.999999973 7.23556639e-05 0.000222633368 0.999999973 0 0.000328272437 0.999999946 0.000101454884 0.000312186692 0.999999946 8.36252002e-06 1.15100356e-05 1 2.10509934e-05 2.8974202e-05 0.999999999 5.26482506e-05 7.24454728e-05 0.999999996 0.000137546518 0.000189299006 0.999999973 0.000192796594 0.000265357697 0.999999946 1.15100329e-05 8.36252911e-06 1 2.89742056e-05 2.10509879e-05 0.999999999 7.245766e-05 5.26436231e-05 0.999999996 0.000189362656 0.000137572479 0.999999973 0.000265473763 0.000192864159 0.999999946 1.35308574e-05 4.39644145e-06 1 3.40611914e-05 1.10671854e-05 0.999999999 8.51792862e-05 2.76764166e-05 0.999999996 0.00022260716 7.23294923e-05 0.999999973 0.000312073129 0.000101398815 0.999999946 1.4227182e-05 0 1 3.58141042e-05 0 0.999999999 8.9562796e-05 0 0.999999996 0.000234062428 0 0.999999973 0.000328132244 0 0.999999946 1.35308519e-05 -4.39643463e-06 1 3.4061235e-05 -1.10671726e-05 0.999999999 8.5179359e-05 -2.76764184e-05 0.999999996 0.000222607131 -7.23293468e-05 0.999999973 0.000312066988 -0.000101394137 0.999999946 1.15100356e-05 -8.36252093e-06 1 2.89741892e-05 -2.10509825e-05 0.999999999 7.24578273e-05 -5.26436741e-05 0.999999996 0.000189310473 -0.000137513529 0.999999973 0.000265383105 -0.000192775814 0.999999946 8.36253002e-06 -1.15100311e-05 1 2.10509915e-05 -2.89742165e-05 0.999999999 5.26203583e-05 -7.24069975e-05 0.999999996 0.000137599007 -0.000189370907 0.999999973 0.000192955312 -0.000265580283 0.999999946 4.39644009e-06 -1.35308574e-05 1 1.10671799e-05 -3.40611805e-05 0.999999999 2.76572572e-05 -8.51203582e-05 0.999999996 7.23377214e-05 -0.000222632932 0.999999973 0.000101442486 -0.00031220756 0.999999946 0 -1.42271829e-05 1 0 -3.58140969e-05 0.999999999 0 -8.95007903e-05 0.999999996 0 -0.000234088839 0.999999973 0 -0.000328272408 0.999999946 -4.39643918e-06 -1.35308546e-05 1 -1.10671508e-05 -3.40612096e-05 0.999999999 -2.76572372e-05 -8.51203946e-05 0.999999996 -7.23377069e-05 -0.000222632597 0.999999973 -0.000101437749 -0.000312200953 0.999999946 -8.3625273e-06 -1.15100329e-05 1 -2.10509715e-05 -2.89741892e-05 0.999999999 -5.26072943e-05 -7.24077178e-05 0.999999996 -0.00013754646 -0.00018932696 0.999999973 -0.000192863664 -0.000265472861 0.999999946 -1.15100293e-05 -8.36253002e-06 1 -2.8974222e-05 -2.10509861e-05 0.999999999 -7.24076378e-05 -5.26072397e-05 0.999999996 -0.00018931299 -0.000137554332 0.999999973 -0.000265467448 -0.000192884604 0.999999946 -1.35308546e-05 -4.39643827e-06 1 -3.40611914e-05 -1.10671699e-05 0.999999999 -8.50927387e-05 -2.76540285e-05 0.999999996 -0.000222603799 -7.23338361e-05 0.999999973 -0.000312207851 -0.0001014425 0.999999946 -1.42271838e-05 0 1 -3.58141005e-05 0 0.999999999 -8.94697656e-05 0 0.999999996 -0.000234066662 8.29954038e-09 0.999999973 -0.000328264696 8.97250546e-09 0.999999946 -1.35308546e-05 4.396436e-06 1 -3.40612168e-05 1.10671426e-05 0.999999999 -8.51152432e-05 2.7661379e-05 0.999999996 -0.000222561569 7.23202446e-05 0.999999973 -0.000312074759 0.000101399318 0.999999946 -1.15100347e-05 8.36252275e-06 1 -2.89742056e-05 2.10510043e-05 0.999999999 -7.24076378e-05 5.26072324e-05 0.999999996 -0.000189320718 0.000137549312 0.999999973 -0.00026547126 0.000192879191 0.999999946 -8.36252457e-06 1.15100338e-05 1 -2.10509934e-05 2.89742056e-05 0.999999999 -5.26072252e-05 7.24075505e-05 0.999999996 -0.000137587831 0.000189383931 0.999999973 -0.000192946464 0.00026558689 0.999999946 -4.39643782e-06 1.35308564e-05 1 -1.10671672e-05 3.40612059e-05 0.999999999 -2.76572608e-05 8.512038e-05 0.999999996 -7.23378014e-05 0.000222633077 0.999999973 -0.000101442471 0.000312207851 0.999999946 0 1.4227182e-05 1 0 3.5814086e-05 0.999999999 0 8.9500783e-05 0.999999996 0 0.000234088839 0.999999973 0 0.000328272437 0.999999946</float_array>
        <technique_common><accessor source="#vfx_kurp_0643-mesh-normals-array" count="105" stride="3"><param name="X" type="float"/><param name="Y" type="float"/><param name="Z" type="float"/></accessor></technique_common>
      </source>
      <source id="vfx_kurp_0643-mesh-uv0">
        <float_array id="vfx_kurp_0643-mesh-uv0-array" count="210">1 -0.899999976 0.949999988 -0.899999976 1 -0.799999952 0.949999988 -0.799999952 1 -0.700000048 0.949999988 -0.700000048 1 -0.600000024 0.949999988 -0.600000024 1 -0.5 0.949999988 -0.5 0.899999976 -0.899999976 0.899999976 -0.799999952 0.899999976 -0.700000048 0.899999976 -0.600000024 0.899999976 -0.5 0.849999964 -0.899999976 0.849999964 -0.799999952 0.849999964 -0.700000048 0.849999964 -0.600000024 0.849999964 -0.5 0.800000012 -0.899999976 0.800000012 -0.799999952 0.800000012 -0.700000048 0.800000012 -0.600000024 0.800000012 -0.5 0.75 -0.899999976 0.75 -0.799999952 0.75 -0.700000048 0.75 -0.600000024 0.75 -0.5 0.699999988 -0.899999976 0.699999988 -0.799999952 0.699999988 -0.700000048 0.699999988 -0.600000024 0.699999988 -0.5 0.649999976 -0.899999976 0.649999976 -0.799999952 0.649999976 -0.700000048 0.649999976 -0.600000024 0.649999976 -0.5 0.599999964 -0.899999976 0.599999964 -0.799999952 0.599999964 -0.700000048 0.599999964 -0.600000024 0.599999964 -0.5 0.550000012 -0.899999976 0.550000012 -0.799999952 0.550000012 -0.700000048 0.550000012 -0.600000024 0.550000012 -0.5 0.5 -0.899999976 0.5 -0.799999952 0.5 -0.700000048 0.5 -0.600000024 0.5 -0.5 0.449999988 -0.899999976 0.449999988 -0.799999952 0.449999988 -0.700000048 0.449999988 -0.600000024 0.449999988 -0.5 0.400000006 -0.899999976 0.400000006 -0.799999952 0.400000006 -0.700000048 0.400000006 -0.600000024 0.400000006 -0.5 0.349999994 -0.899999976 0.349999994 -0.799999952 0.349999994 -0.700000048 0.349999994 -0.600000024 0.349999994 -0.5 0.299999982 -0.899999976 0.299999982 -0.799999952 0.299999982 -0.700000048 0.299999982 -0.600000024 0.299999982 -0.5 0.25 -0.899999976 0.25 -0.799999952 0.25 -0.700000048 0.25 -0.600000024 0.25 -0.5 0.200000003 -0.899999976 0.200000003 -0.799999952 0.200000003 -0.700000048 0.200000003 -0.600000024 0.200000003 -0.5 0.149999991 -0.899999976 0.149999991 -0.799999952 0.149999991 -0.700000048 0.149999991 -0.600000024 0.149999991 -0.5 0.100000001 -0.899999976 0.100000001 -0.799999952 0.100000001 -0.700000048 0.100000001 -0.600000024 0.100000001 -0.5 0.0500000007 -0.899999976 0.0500000007 -0.799999952 0.0500000007 -0.700000048 0.0500000007 -0.600000024 0.0500000007 -0.5 0 -0.899999976 0 -0.799999952 0 -0.700000048 0 -0.600000024 0 -0.5</float_array>
        <technique_common><accessor source="#vfx_kurp_0643-mesh-uv0-array" count="105" stride="2"><param name="S" type="float"/><param name="T" type="float"/></accessor></technique_common>
      </source>
      <source id="vfx_kurp_0643-mesh-colors">
        <float_array id="vfx_kurp_0643-mesh-colors-array" count="420">0.0392156877 0.0392156877 0.0392156877 0 0.0392156877 0.0392156877 0.0392156877 0 0.0392156877 0.0392156877 0.0392156877 0.599999964 0.0392156877 0.0392156877 0.0392156877 0.599999964 0.0392156877 0.0392156877 0.0392156877 1 0.0392156877 0.0392156877 0.0392156877 1 0.0392156877 0.0392156877 0.0392156877 0.550000012 0.0392156877 0.0392156877 0.0392156877 0.550000012 0.0392156877 0.0392156877 0.0392156877 0 0.0392156877 0.0392156877 0.0392156877 0 0.0392156877 0.0392156877 0.0392156877 0 0.0392156877 0.0392156877 0.0392156877 0.599999964 0.0392156877 0.0392156877 0.0392156877 1 0.0392156877 0.0392156877 0.0392156877 0.550000012 0.0392156877 0.0392156877 0.0392156877 0 0.0392156877 0.0392156877 0.0392156877 0 0.0392156877 0.0392156877 0.0392156877 0.599999964 0.0392156877 0.0392156877 0.0392156877 1 0.0392156877 0.0392156877 0.0392156877 0.550000012 0.0392156877 0.0392156877 0.0392156877 0 0.0392156877 0.0392156877 0.0392156877 0 0.0392156877 0.0392156877 0.0392156877 0.599999964 0.0392156877 0.0392156877 0.0392156877 1 0.0392156877 0.0392156877 0.0392156877 0.550000012 0.0392156877 0.0392156877 0.0392156877 0 0.0392156877 0.0392156877 0.0392156877 0 0.0392156877 0.0392156877 0.0392156877 0.599999964 0.0392156877 0.0392156877 0.0392156877 1 0.0392156877 0.0392156877 0.0392156877 0.550000012 0.0392156877 0.0392156877 0.0392156877 0 0.0392156877 0.0392156877 0.0392156877 0 0.0392156877 0.0392156877 0.0392156877 0.599999964 0.0392156877 0.0392156877 0.0392156877 1 0.0392156877 0.0392156877 0.0392156877 0.550000012 0.0392156877 0.0392156877 0.0392156877 0 0.0392156877 0.0392156877 0.0392156877 0 0.0392156877 0.0392156877 0.0392156877 0.599999964 0.0392156877 0.0392156877 0.0392156877 1 0.0392156877 0.0392156877 0.0392156877 0.550000012 0.0392156877 0.0392156877 0.0392156877 0 0.0392156877 0.0392156877 0.0392156877 0 0.0392156877 0.0392156877 0.0392156877 0.599999964 0.0392156877 0.0392156877 0.0392156877 1 0.0392156877 0.0392156877 0.0392156877 0.550000012 0.0392156877 0.0392156877 0.0392156877 0 0.0392156877 0.0392156877 0.0392156877 0 0.0392156877 0.0392156877 0.0392156877 0.599999964 0.0392156877 0.0392156877 0.0392156877 1 0.0392156877 0.0392156877 0.0392156877 0.550000012 0.0392156877 0.0392156877 0.0392156877 0 0.0392156877 0.0392156877 0.0392156877 0 0.0392156877 0.0392156877 0.0392156877 0.599999964 0.0392156877 0.0392156877 0.0392156877 1 0.0392156877 0.0392156877 0.0392156877 0.550000012 0.0392156877 0.0392156877 0.0392156877 0 0.0392156877 0.0392156877 0.0392156877 0 0.0392156877 0.0392156877 0.0392156877 0.599999964 0.0392156877 0.0392156877 0.0392156877 1 0.0392156877 0.0392156877 0.0392156877 0.550000012 0.0392156877 0.0392156877 0.0392156877 0 0.0392156877 0.0392156877 0.0392156877 0 0.0392156877 0.0392156877 0.0392156877 0.599999964 0.0392156877 0.0392156877 0.0392156877 1 0.0392156877 0.0392156877 0.0392156877 0.550000012 0.0392156877 0.0392156877 0.0392156877 0 0.0392156877 0.0392156877 0.0392156877 0 0.0392156877 0.0392156877 0.0392156877 0.599999964 0.0392156877 0.0392156877 0.0392156877 1 0.0392156877 0.0392156877 0.0392156877 0.550000012 0.0392156877 0.0392156877 0.0392156877 0 0.0392156877 0.0392156877 0.0392156877 0 0.0392156877 0.0392156877 0.0392156877 0.599999964 0.0392156877 0.0392156877 0.0392156877 1 0.0392156877 0.0392156877 0.0392156877 0.550000012 0.0392156877 0.0392156877 0.0392156877 0 0.0392156877 0.0392156877 0.0392156877 0 0.0392156877 0.0392156877 0.0392156877 0.599999964 0.0392156877 0.0392156877 0.0392156877 1 0.0392156877 0.0392156877 0.0392156877 0.550000012 0.0392156877 0.0392156877 0.0392156877 0 0.0392156877 0.0392156877 0.0392156877 0 0.0392156877 0.0392156877 0.0392156877 0.599999964 0.0392156877 0.0392156877 0.0392156877 1 0.0392156877 0.0392156877 0.0392156877 0.550000012 0.0392156877 0.0392156877 0.0392156877 0 0.0392156877 0.0392156877 0.0392156877 0 0.0392156877 0.0392156877 0.0392156877 0.599999964 0.0392156877 0.0392156877 0.0392156877 1 0.0392156877 0.0392156877 0.0392156877 0.550000012 0.0392156877 0.0392156877 0.0392156877 0 0.0392156877 0.0392156877 0.0392156877 0 0.0392156877 0.0392156877 0.0392156877 0.599999964 0.0392156877 0.0392156877 0.0392156877 1 0.0392156877 0.0392156877 0.0392156877 0.550000012 0.0392156877 0.0392156877 0.0392156877 0 0.0392156877 0.0392156877 0.0392156877 0 0.0392156877 0.0392156877 0.0392156877 0.599999964 0.0392156877 0.0392156877 0.0392156877 1 0.0392156877 0.0392156877 0.0392156877 0.550000012 0.0392156877 0.0392156877 0.0392156877 0 0.0392156877 0.0392156877 0.0392156877 0 0.0392156877 0.0392156877 0.0392156877 0.599999964 0.0392156877 0.0392156877 0.0392156877 1 0.0392156877 0.0392156877 0.0392156877 0.550000012 0.0392156877 0.0392156877 0.0392156877 0</float_array>
        <technique_common><accessor source="#vfx_kurp_0643-mesh-colors-array" count="105" stride="4"><param name="R" type="float"/><param name="G" type="float"/><param name="B" type="float"/><param name="A" type="float"/></accessor></technique_common>
      </source>
      <vertices id="vfx_kurp_0643-mesh-vertices"><input semantic="POSITION" source="#vfx_kurp_0643-mesh-positions"/></vertices>
      <triangles material="PreviewMaterial" count="160">
        <input semantic="VERTEX" source="#vfx_kurp_0643-mesh-vertices" offset="0"/>
        <input semantic="NORMAL" source="#vfx_kurp_0643-mesh-normals" offset="1"/>
        <input semantic="TEXCOORD" source="#vfx_kurp_0643-mesh-uv0" offset="2" set="0"/>
        <input semantic="COLOR" source="#vfx_kurp_0643-mesh-colors" offset="3" set="0"/>
        <p>0 0 0 0 1 1 1 1 2 2 2 2 3 3 3 3 2 2 2 2 1 1 1 1 2 2 2 2 3 3 3 3 4 4 4 4 5 5 5 5 4 4 4 4 3 3 3 3 4 4 4 4 5 5 5 5 6 6 6 6 7 7 7 7 6 6 6 6 5 5 5 5 6 6 6 6 7 7 7 7 8 8 8 8 9 9 9 9 8 8 8 8 7 7 7 7 1 1 1 1 10 10 10 10 3 3 3 3 11 11 11 11 3 3 3 3 10 10 10 10 3 3 3 3 11 11 11 11 5 5 5 5 12 12 12 12 5 5 5 5 11 11 11 11 5 5 5 5 12 12 12 12 7 7 7 7 13 13 13 13 7 7 7 7 12 12 12 12 7 7 7 7 13 13 13 13 9 9 9 9 14 14 14 14 9 9 9 9 13 13 13 13 10 10 10 10 15 15 15 15 11 11 11 11 16 16 16 16 11 11 11 11 15 15 15 15 11 11 11 11 16 16 16 16 12 12 12 12 17 17 17 17 12 12 12 12 16 16 16 16 12 12 12 12 17 17 17 17 13 13 13 13 18 18 18 18 13 13 13 13 17 17 17 17 13 13 13 13 18 18 18 18 14 14 14 14 19 19 19 19 14 14 14 14 18 18 18 18 15 15 15 15 20 20 20 20 16 16 16 16 21 21 21 21 16 16 16 16 20 20 20 20 16 16 16 16 21 21 21 21 17 17 17 17 22 22 22 22 17 17 17 17 21 21 21 21 17 17 17 17 22 22 22 22 18 18 18 18 23 23 23 23 18 18 18 18 22 22 22 22 18 18 18 18 23 23 23 23 19 19 19 19 24 24 24 24 19 19 19 19 23 23 23 23 20 20 20 20 25 25 25 25 21 21 21 21 26 26 26 26 21 21 21 21 25 25 25 25 21 21 21 21 26 26 26 26 22 22 22 22 27 27 27 27 22 22 22 22 26 26 26 26 22 22 22 22 27 27 27 27 23 23 23 23 28 28 28 28 23 23 23 23 27 27 27 27 23 23 23 23 28 28 28 28 24 24 24 24 29 29 29 29 24 24 24 24 28 28 28 28 25 25 25 25 30 30 30 30 26 26 26 26 31 31 31 31 26 26 26 26 30 30 30 30 26 26 26 26 31 31 31 31 27 27 27 27 32 32 32 32 27 27 27 27 31 31 31 31 27 27 27 27 32 32 32 32 28 28 28 28 33 33 33 33 28 28 28 28 32 32 32 32 28 28 28 28 33 33 33 33 29 29 29 29 34 34 34 34 29 29 29 29 33 33 33 33 30 30 30 30 35 35 35 35 31 31 31 31 36 36 36 36 31 31 31 31 35 35 35 35 31 31 31 31 36 36 36 36 32 32 32 32 37 37 37 37 32 32 32 32 36 36 36 36 32 32 32 32 37 37 37 37 33 33 33 33 38 38 38 38 33 33 33 33 37 37 37 37 33 33 33 33 38 38 38 38 34 34 34 34 39 39 39 39 34 34 34 34 38 38 38 38 35 35 35 35 40 40 40 40 36 36 36 36 41 41 41 41 36 36 36 36 40 40 40 40 36 36 36 36 41 41 41 41 37 37 37 37 42 42 42 42 37 37 37 37 41 41 41 41 37 37 37 37 42 42 42 42 38 38 38 38 43 43 43 43 38 38 38 38 42 42 42 42 38 38 38 38 43 43 43 43 39 39 39 39 44 44 44 44 39 39 39 39 43 43 43 43 40 40 40 40 45 45 45 45 41 41 41 41 46 46 46 46 41 41 41 41 45 45 45 45 41 41 41 41 46 46 46 46 42 42 42 42 47 47 47 47 42 42 42 42 46 46 46 46 42 42 42 42 47 47 47 47 43 43 43 43 48 48 48 48 43 43 43 43 47 47 47 47 43 43 43 43 48 48 48 48 44 44 44 44 49 49 49 49 44 44 44 44 48 48 48 48 45 45 45 45 50 50 50 50 46 46 46 46 51 51 51 51 46 46 46 46 50 50 50 50 46 46 46 46 51 51 51 51 47 47 47 47 52 52 52 52 47 47 47 47 51 51 51 51 47 47 47 47 52 52 52 52 48 48 48 48 53 53 53 53 48 48 48 48 52 52 52 52 48 48 48 48 53 53 53 53 49 49 49 49 54 54 54 54 49 49 49 49 53 53 53 53 50 50 50 50 55 55 55 55 51 51 51 51 56 56 56 56 51 51 51 51 55 55 55 55 51 51 51 51 56 56 56 56 52 52 52 52 57 57 57 57 52 52 52 52 56 56 56 56 52 52 52 52 57 57 57 57 53 53 53 53 58 58 58 58 53 53 53 53 57 57 57 57 53 53 53 53 58 58 58 58 54 54 54 54 59 59 59 59 54 54 54 54 58 58 58 58 55 55 55 55 60 60 60 60 56 56 56 56 61 61 61 61 56 56 56 56 60 60 60 60 56 56 56 56 61 61 61 61 57 57 57 57 62 62 62 62 57 57 57 57 61 61 61 61 57 57 57 57 62 62 62 62 58 58 58 58 63 63 63 63 58 58 58 58 62 62 62 62 58 58 58 58 63 63 63 63 59 59 59 59 64 64 64 64 59 59 59 59 63 63 63 63 60 60 60 60 65 65 65 65 61 61 61 61 66 66 66 66 61 61 61 61 65 65 65 65 61 61 61 61 66 66 66 66 62 62 62 62 67 67 67 67 62 62 62 62 66 66 66 66 62 62 62 62 67 67 67 67 63 63 63 63 68 68 68 68 63 63 63 63 67 67 67 67 63 63 63 63 68 68 68 68 64 64 64 64 69 69 69 69 64 64 64 64 68 68 68 68 65 65 65 65 70 70 70 70 66 66 66 66 71 71 71 71 66 66 66 66 70 70 70 70 66 66 66 66 71 71 71 71 67 67 67 67 72 72 72 72 67 67 67 67 71 71 71 71 67 67 67 67 72 72 72 72 68 68 68 68 73 73 73 73 68 68 68 68 72 72 72 72 68 68 68 68 73 73 73 73 69 69 69 69 74 74 74 74 69 69 69 69 73 73 73 73 70 70 70 70 75 75 75 75 71 71 71 71 76 76 76 76 71 71 71 71 75 75 75 75 71 71 71 71 76 76 76 76 72 72 72 72 77 77 77 77 72 72 72 72 76 76 76 76 72 72 72 72 77 77 77 77 73 73 73 73 78 78 78 78 73 73 73 73 77 77 77 77 73 73 73 73 78 78 78 78 74 74 74 74 79 79 79 79 74 74 74 74 78 78 78 78 75 75 75 75 80 80 80 80 76 76 76 76 81 81 81 81 76 76 76 76 80 80 80 80 76 76 76 76 81 81 81 81 77 77 77 77 82 82 82 82 77 77 77 77 81 81 81 81 77 77 77 77 82 82 82 82 78 78 78 78 83 83 83 83 78 78 78 78 82 82 82 82 78 78 78 78 83 83 83 83 79 79 79 79 84 84 84 84 79 79 79 79 83 83 83 83 80 80 80 80 85 85 85 85 81 81 81 81 86 86 86 86 81 81 81 81 85 85 85 85 81 81 81 81 86 86 86 86 82 82 82 82 87 87 87 87 82 82 82 82 86 86 86 86 82 82 82 82 87 87 87 87 83 83 83 83 88 88 88 88 83 83 83 83 87 87 87 87 83 83 83 83 88 88 88 88 84 84 84 84 89 89 89 89 84 84 84 84 88 88 88 88 85 85 85 85 90 90 90 90 86 86 86 86 91 91 91 91 86 86 86 86 90 90 90 90 86 86 86 86 91 91 91 91 87 87 87 87 92 92 92 92 87 87 87 87 91 91 91 91 87 87 87 87 92 92 92 92 88 88 88 88 93 93 93 93 88 88 88 88 92 92 92 92 88 88 88 88 93 93 93 93 89 89 89 89 94 94 94 94 89 89 89 89 93 93 93 93 90 90 90 90 95 95 95 95 91 91 91 91 96 96 96 96 91 91 91 91 95 95 95 95 91 91 91 91 96 96 96 96 92 92 92 92 97 97 97 97 92 92 92 92 96 96 96 96 92 92 92 92 97 97 97 97 93 93 93 93 98 98 98 98 93 93 93 93 97 97 97 97 93 93 93 93 98 98 98 98 94 94 94 94 99 99 99 99 94 94 94 94 98 98 98 98 95 95 95 95 100 100 100 100 96 96 96 96 101 101 101 101 96 96 96 96 100 100 100 100 96 96 96 96 101 101 101 101 97 97 97 97 102 102 102 102 97 97 97 97 101 101 101 101 97 97 97 97 102 102 102 102 98 98 98 98 103 103 103 103 98 98 98 98 102 102 102 102 98 98 98 98 103 103 103 103 99 99 99 99 104 104 104 104 99 99 99 99 103 103 103 103</p>
      </triangles>
    </mesh></geometry>
  </library_geometries>
  <library_visual_scenes>
    <visual_scene id="Scene" name="Scene">
      <node id="vfx_kurp_0643" name="vfx_kurp_0643" type="NODE">
        <instance_geometry url="#vfx_kurp_0643-mesh"><bind_material><technique_common><instance_material symbol="PreviewMaterial" target="#PreviewMaterial"><bind_vertex_input semantic="UVSET0" input_semantic="TEXCOORD" input_set="0"/></instance_material></technique_common></bind_material></instance_geometry>
      </node>
    </visual_scene>
  </library_visual_scenes>
  <scene><instance_visual_scene url="#Scene"/></scene>
</COLLADA>
