<?xml version="1.0" encoding="utf-8"?>
<COLLADA xmlns="http://www.collada.org/2005/11/COLLADASchema" version="1.4.1">
  <asset>
    <contributor><authoring_tool>Morrobroom Kurpulio VFX preview converter</authoring_tool></contributor>
    <unit name="unit" meter="1"/>
    <up_axis>Z_UP</up_axis>
  </asset>
  <library_images>
    <image id="VFXTexture" name="darkmap_newgen-1.dds">
      <init_from>../../../Textures/Kurp/darkmap_newgen-1.dds</init_from>
    </image>
  </library_images>
  <library_effects>
    <effect id="PreviewEffect">
      <profile_COMMON>
        <newparam sid="VFXTexture-surface">
          <surface type="2D"><init_from>VFXTexture</init_from></surface>
        </newparam>
        <newparam sid="VFXTexture-sampler">
          <sampler2D><source>VFXTexture-surface</source></sampler2D>
        </newparam>
        <technique sid="common"><phong>
          <emission><color>0.08 0.08 0.08 1</color></emission>
          <ambient><color>0.2 0.2 0.2 1</color></ambient>
          <diffuse><texture texture="VFXTexture-sampler" texcoord="UVSET0"/></diffuse>
          <specular><color>0.15 0.15 0.15 1</color></specular>
          <shininess><float>8</float></shininess>
          <transparent opaque="A_ONE"><texture texture="VFXTexture-sampler" texcoord="UVSET0"/></transparent>
          <transparency><float>1</float></transparency>
        </phong></technique>
      </profile_COMMON>
      <extra><technique profile="GOOGLEEARTH"><double_sided>1</double_sided></technique></extra>
    </effect>
  </library_effects>
  <library_materials><material id="PreviewMaterial" name="PreviewMaterial"><instance_effect url="#PreviewEffect"/></material></library_materials>
  <library_geometries>
    <geometry id="vfx_kurp_1120-mesh" name="vfx_kurp_1120"><mesh>
      <source id="vfx_kurp_1120-mesh-positions">
        <float_array id="vfx_kurp_1120-mesh-positions-array" count="303">-2.44596395 -1.41719284 1.47197379 -2.10383586 -1.40352833 0.80531741 -1.61259833 -2.53349949 1.47140975 -1.25192928 -2.5844603 0.804189803 -0.909497819 -2.2149708 0.162423125 -1.81716425 -1.19574839 0.162986968 -0.739615454 -1.76873162 -0.479343196 -1.60644929 -0.833202297 -0.479343157 -1.76624536 -2.5746207 2.1386297 -2.48447805 -1.44492393 2.1386297 -2.47476802 -1.53928006 2.75700781 -1.76441064 -2.47647475 2.75700781 -2.36121987 -1.6798217 3.37538544 -1.65873827 -2.42451528 3.37538576 -0.682509495 -2.68354329 3.37538607 -0.608017255 -2.74730636 2.75700844 -0.429686732 -2.85725509 2.13863002 -0.173688455 -2.7342378 1.47036837 0.255023034 -2.68804292 0.802106724 0.466234588 -2.35717741 0.161381536 0.470588364 -1.93430229 -0.479343316 -2.19446522 -1.95598598 3.9937637 -1.57822466 -2.53152185 3.99376434 -0.759868947 -2.74610364 3.99376466 -1.46354969 -2.65372436 4.61214387 -0.875331617 -2.79171574 4.61214387 -0.9592128 -2.65998011 5.23052119 -1.28945456 -2.57491272 5.23052119 -1.28752742 -2.41952068 5.84889945 -1.55445377 -2.37172324 5.23052055 -1.92053663 -2.27982098 4.61214324 -1.64040167 -0.936526004 7.23114823 -2.12370356 -0.422208416 5.747593 -1.61667302 -1.32484151 5.74759237 -1.93329807 -0.672814474 4.2640419 -1.0389896 -2.04019269 4.26404127 -1.9296796 -0.689506581 2.78048858 -0.817909735 -2.42536722 2.78048858 -2.31949444 -0.0533919503 1.2912318 -1.06181804 -2.21071302 1.29693574 -1.6709147 -0.167577031 -0.191748267 -0.696878424 -1.77726323 -0.191748307 2.90973288 -0.689980665 4.01164027 3.12462289 -0.0296762119 4.65427454 2.97839573 -0.711149852 4.65414274 3.10877923 -0.405290224 5.2967856 3.03566565 -0.746026981 5.29671985 3.08987335 -0.596369963 5.93929665 3.07145117 -0.0703653881 5.29671382 3.04996677 0.640173463 4.6541294 3.06850265 0.151744852 4.01176349 2.84345036 -0.812254471 3.36913874 3.01476276 0.189723188 3.36925307 3.04482593 0.214730978 2.72674266 2.83200724 -0.947333467 2.72657529 3.07842388 0.158500013 2.08423145 2.82409923 -1.16365145 2.08401104 3.09195167 0.0323059547 1.46639801 2.79652153 -1.35468506 1.46418996 2.98340478 -0.134091675 0.848564174 2.6472436 -1.54779976 0.844368559 2.60403931 -0.328323693 0.191703149 2.37671243 -1.61105309 0.189605342 2.94293193 0.97336529 4.01162788 2.83827744 1.16311424 3.36912699 2.85895293 1.35096225 2.72655814 2.8831629 1.45757168 2.08398801 2.85311339 1.39314882 1.46709401 2.70062239 1.25123582 0.850199609 2.38818271 0.933552876 0.192520827 1.94814068 0.784149097 -0.465157796 2.09743767 -0.316989326 -0.465157796 1.97931955 -1.43061725 -0.465157796 -0.667710549 2.14160521 6.19936366 -0.629524121 2.30566637 5.45064859 -1.23644196 1.83306317 6.1960207 -1.37401809 1.81248693 5.44847119 -0.542196719 2.51112139 4.70186206 -1.42455524 1.86837072 4.70071079 -0.327671122 2.73636376 3.95503158 -1.3805322 2.00564609 3.95276842 -0.171322005 2.90700572 3.20842817 -1.34929681 2.13031882 3.20488957 -1.27270815 2.16604082 2.37674451 0.026267664 3.03819812 2.38797834 -1.09210399 2.08547926 1.55346606 0.266731225 2.99645205 1.57261219 0.449870791 2.73982995 0.540143215 -0.842064357 1.80469039 0.530596787 0.258076374 2.14964042 -0.491325071 -0.730653512 1.40881146 -0.492104995 -0.802288704 2.24445912 7.68505818 -1.58180057 1.28566697 6.20285462 -1.8947106 1.0750823 5.45661168 -2.08329312 0.97545885 4.71002891 -2.15346771 0.96029515 3.9636402 -2.19100125 0.974561417 3.21715716 -2.21086197 0.985132116 2.39009143 -2.06938629 0.932430112 1.56768762 -1.84726187 0.654763793 0.541889886 -1.5417009 0.467522697 -0.484528743</float_array>
        <technique_common><accessor source="#vfx_kurp_1120-mesh-positions-array" count="101" stride="3"><param name="X" type="float"/><param name="Y" type="float"/><param name="Z" type="float"/></accessor></technique_common>
      </source>
      <source id="vfx_kurp_1120-mesh-normals">
        <float_array id="vfx_kurp_1120-mesh-normals-array" count="303">-0.794459935 -0.556884524 -0.242307736 -0.703933052 -0.548590356 -0.451139534 -0.533147699 -0.816009114 -0.223344254 -0.411113372 -0.829211514 -0.378674081 -0.355316994 -0.730701798 -0.582944865 -0.638573884 -0.576173543 -0.510144531 -0.385102938 -0.714963097 -0.583543912 -0.622237989 -0.576547273 -0.529540487 -0.556640558 -0.830356229 -0.0256869845 -0.841832404 -0.535215798 -0.0697298575 -0.817124111 -0.576381373 -0.00962803865 -0.545455757 -0.828658764 0.12570867 -0.759105778 -0.650962095 -0.00260164627 -0.509110985 -0.860209045 0.0290930177 -0.244984266 -0.969439852 -0.0130031554 -0.218048991 -0.970605797 0.101877496 -0.176673457 -0.9815284 -0.0734063311 -0.104500902 -0.985003987 -0.137283307 -0.0778859477 -0.927887852 -0.364633945 -0.0970617913 -0.846143074 -0.524042849 -0.113400032 -0.828873201 -0.547822644 -0.700104138 -0.709200283 -0.0830009306 -0.477949955 -0.873225106 -0.0950881406 -0.24595427 -0.960717539 -0.128562463 -0.441781631 -0.894400757 0.0698303343 -0.228367432 -0.973465437 0.0146068129 -0.238016294 -0.949866121 0.20273775 -0.413118755 -0.883171331 0.222129005 -0.433789216 -0.873526082 0.220859911 -0.593365289 -0.773864776 0.221474475 -0.64886682 -0.759495721 0.0462395875 -0.8662299 -0.486582046 0.113506266 -0.871302181 -0.489431258 0.0359103416 -0.862005409 -0.506623683 0.0167068633 -0.843863656 -0.535993629 -0.0245959327 -0.838829748 -0.544182236 -0.0151772507 -0.84089143 -0.541201299 -0.00166038088 -0.849173311 -0.527365448 0.0281135404 -0.846319572 -0.506428907 -0.165145221 -0.856382964 -0.503845869 -0.112905092 -0.813290475 -0.481008231 -0.327398359 -0.804863269 -0.487030354 -0.339111415 0.977263597 -0.190543776 -0.0929996323 0.998850835 -0.0323043991 -0.0354038854 0.972415816 -0.208635884 -0.104300277 0.998036928 -0.0622947481 -0.00645406456 0.975471487 -0.209298609 -0.0681870275 0.997317527 -0.0727906953 0.00769843933 0.990523065 0.110413331 0.0816881528 0.99143955 0.127104867 -0.0298659009 0.995948291 -0.00876258386 -0.0894998217 0.983987525 -0.177258643 -0.0186527244 0.999748431 0.00194624851 -0.0223447387 0.998726564 0.00196882341 0.0504120374 0.982132475 -0.183691468 0.0409053332 0.999434553 -0.00533004024 0.0331988752 0.979526348 -0.197523372 0.0388928133 0.996580202 -0.00538071674 -0.0824557335 0.972573565 -0.217771602 -0.0817079533 0.944093041 -0.0195659547 -0.329098014 0.933957528 -0.19894773 -0.2968891 0.843037311 -0.0321018623 -0.536896231 0.873116904 -0.136420174 -0.468034622 0.98263506 0.161379274 -0.0915700252 0.985177455 0.171530708 -0.00161213649 0.985627938 0.15587206 0.0651265599 0.988889231 0.14863764 -0.00222277132 0.975071544 0.161311342 -0.152361854 0.91688406 0.175824865 -0.358342348 0.832066905 0.153763878 -0.532936521 0.80126248 0.127216783 -0.584631788 0.801104065 -0.00576407693 -0.598497328 0.840382569 -0.0891360708 -0.534613784 -0.476668454 0.878212762 0.0391092045 -0.532494417 0.834282445 0.142907304 -0.703634874 0.706311302 0.0776035356 -0.706541415 0.697623547 0.118830196 -0.578262217 0.809901426 0.0983488124 -0.706996969 0.701081506 0.0929516394 -0.57279687 0.816031737 0.0774335175 -0.690427483 0.718033613 0.0879637452 -0.558279345 0.829047873 0.0316827452 -0.681870158 0.730588133 0.0359731538 -0.668282019 0.734712765 -0.116603156 -0.552330544 0.825317726 -0.117395153 -0.640155022 0.718424206 -0.27215475 -0.536706144 0.805825583 -0.250183222 -0.542994553 0.775861672 -0.32124069 -0.63222188 0.696012142 -0.340385945 -0.554969127 0.75859546 -0.341382769 -0.652304575 0.680218562 -0.334367238 -0.657766882 0.753045801 -0.0162711666 -0.826434233 0.545273946 0.140295338 -0.803801002 0.578711988 0.137827367 -0.800779388 0.592196871 0.0897509812 -0.803864823 0.59181874 0.0595980351 -0.807526415 0.588515882 0.0393719005 -0.789562826 0.608025793 -0.083037213 -0.745862954 0.61503839 -0.255765972 -0.715845646 0.616485954 -0.327887297 -0.715883918 0.619325465 -0.322406861</float_array>
        <technique_common><accessor source="#vfx_kurp_1120-mesh-normals-array" count="101" stride="3"><param name="X" type="float"/><param name="Y" type="float"/><param name="Z" type="float"/></accessor></technique_common>
      </source>
      <source id="vfx_kurp_1120-mesh-uv0">
        <float_array id="vfx_kurp_1120-mesh-uv0-array" count="202">0.826171875 0.700195312 0.826171875 0.80078125 0.50089258 0.699999988 0.50089258 0.799999952 0.50089258 0.895217061 0.826171875 0.895507812 0.50089258 0.99043417 0.826171875 0.990234375 0.50089258 0.600000024 0.826171875 0.599609375 0.826171875 0.5 0.50089258 0.5 0.826171875 0.400390625 0.50089258 0.399999976 0.134765625 0.400390625 0.134765625 0.5 0.134765625 0.599609375 0.134765625 0.700195312 0.134765625 0.80078125 0.134765625 0.895507812 0.134765625 0.990234375 0.826171875 0.299804688 0.50089258 0.299999952 0.134765625 0.299804688 0.50089258 0.199999988 0.134765625 0.19921875 0.317829102 0.099609375 0.50089258 0.100000024 0.50089258 0 0.663532257 0.099609375 0.826171875 0.19921875 0.506128132 -0.00358080864 0.99070406 0.192487478 0.00657582283 0.192487478 0.99070406 0.388025403 0.00657582283 0.388025403 0.99070406 0.588563561 0.00657582283 0.588563561 0.99070406 0.795241475 0.00657582283 0.795241475 0.99070406 0.990039885 0.00657582283 0.990039885 0.134765625 0.299804688 0.50089258 0.199999988 0.134765625 0.19921875 0.50089258 0.100000024 0.317829102 0.099609375 0.50089258 0 0.663532257 0.099609375 0.826171875 0.19921875 0.50089258 0.299999952 0.134765625 0.400390625 0.50089258 0.399999976 0.50089258 0.5 0.134765625 0.5 0.50089258 0.600000024 0.134765625 0.599609375 0.50089258 0.699999988 0.134765625 0.700195312 0.50089258 0.799999952 0.134765625 0.80078125 0.50089258 0.895217061 0.134765625 0.895507812 0.826171875 0.299804688 0.826171875 0.400390625 0.826171875 0.5 0.826171875 0.599609375 0.826171875 0.700195312 0.826171875 0.80078125 0.826171875 0.895507812 0.826171875 0.990234375 0.50089258 0.99043417 0.134765625 0.990234375 0.826171875 0.19921875 0.826171875 0.299804688 0.50089258 0.199999988 0.50089258 0.299999952 0.826171875 0.400390625 0.50089258 0.399999976 0.826171875 0.5 0.50089258 0.5 0.826171875 0.599609375 0.50089258 0.600000024 0.50089258 0.699999988 0.826171875 0.700195312 0.50089258 0.799999952 0.826171875 0.80078125 0.826171875 0.895507812 0.50089258 0.895217061 0.826171875 0.990234375 0.50089258 0.99043417 0.50089258 0 0.134765625 0.19921875 0.134765625 0.299804688 0.134765625 0.400390625 0.134765625 0.5 0.134765625 0.599609375 0.134765625 0.700195312 0.134765625 0.80078125 0.134765625 0.895507812 0.134765625 0.990234375</float_array>
        <technique_common><accessor source="#vfx_kurp_1120-mesh-uv0-array" count="101" stride="2"><param name="S" type="float"/><param name="T" type="float"/></accessor></technique_common>
      </source>
      <source id="vfx_kurp_1120-mesh-colors">
        <float_array id="vfx_kurp_1120-mesh-colors-array" count="404">1 1 1 0 1 1 1 0 1 1 1 1 1 1 1 1 1 1 1 0.5 1 1 1 0 1 1 1 0 1 1 1 0 1 1 1 1 1 1 1 0 1 1 1 0 1 1 1 1 1 1 1 0 1 1 1 1 1 1 1 0 1 1 1 0 1 1 1 0 1 1 1 0 1 1 1 0 1 1 1 0 1 1 1 0 1 1 1 0 1 1 1 1 1 1 1 0 1 1 1 1 1 1 1 0 1 1 1 0 1 1 1 0.5 1 1 1 0 1 1 1 0 1 1 1 0 1 1 1 0 1 1 1 0 1 1 1 0 1 1 1 1 1 1 1 1 1 1 1 1 1 1 1 1 1 1 1 1 1 1 1 1 1 1 1 0 1 1 1 0 1 1 1 0 1 1 1 1 1 1 1 0 1 1 1 0.5 1 1 1 0 1 1 1 0 1 1 1 0 1 1 1 0 1 1 1 1 1 1 1 0 1 1 1 1 1 1 1 1 1 1 1 0 1 1 1 1 1 1 1 0 1 1 1 1 1 1 1 0 1 1 1 1 1 1 1 0 1 1 1 0.5 1 1 1 0 1 1 1 0 1 1 1 0 1 1 1 0 1 1 1 0 1 1 1 0 1 1 1 0 1 1 1 0 1 1 1 0 1 1 1 0 1 1 1 0 1 1 1 0 1 1 1 0 1 1 1 1 1 1 1 1 1 1 1 0 1 1 1 1 1 1 1 0 1 1 1 1 1 1 1 0 1 1 1 1 1 1 1 1 1 1 1 0 1 1 1 1 1 1 1 0 1 1 1 0 1 1 1 0.5 1 1 1 0 1 1 1 0 1 1 1 0 1 1 1 0 1 1 1 0 1 1 1 0 1 1 1 0 1 1 1 0 1 1 1 0 1 1 1 0 1 1 1 0 1 1 1 0</float_array>
        <technique_common><accessor source="#vfx_kurp_1120-mesh-colors-array" count="101" stride="4"><param name="R" type="float"/><param name="G" type="float"/><param name="B" type="float"/><param name="A" type="float"/></accessor></technique_common>
      </source>
      <vertices id="vfx_kurp_1120-mesh-vertices"><input semantic="POSITION" source="#vfx_kurp_1120-mesh-positions"/></vertices>
      <triangles material="PreviewMaterial" count="119">
        <input semantic="VERTEX" source="#vfx_kurp_1120-mesh-vertices" offset="0"/>
        <input semantic="NORMAL" source="#vfx_kurp_1120-mesh-normals" offset="1"/>
        <input semantic="TEXCOORD" source="#vfx_kurp_1120-mesh-uv0" offset="2" set="0"/>
        <input semantic="COLOR" source="#vfx_kurp_1120-mesh-colors" offset="3" set="0"/>
        <p>0 0 0 0 1 1 1 1 2 2 2 2 2 2 2 2 1 1 1 1 3 3 3 3 3 3 3 3 1 1 1 1 4 4 4 4 5 5 5 5 4 4 4 4 1 1 1 1 4 4 4 4 5 5 5 5 6 6 6 6 7 7 7 7 6 6 6 6 5 5 5 5 8 8 8 8 0 0 0 0 2 2 2 2 0 0 0 0 8 8 8 8 9 9 9 9 9 9 9 9 8 8 8 8 10 10 10 10 11 11 11 11 10 10 10 10 8 8 8 8 10 10 10 10 11 11 11 11 12 12 12 12 12 12 12 12 11 11 11 11 13 13 13 13 13 13 13 13 11 11 11 11 14 14 14 14 14 14 14 14 11 11 11 11 15 15 15 15 8 8 8 8 15 15 15 15 11 11 11 11 15 15 15 15 8 8 8 8 16 16 16 16 2 2 2 2 16 16 16 16 8 8 8 8 16 16 16 16 2 2 2 2 17 17 17 17 3 3 3 3 17 17 17 17 2 2 2 2 17 17 17 17 3 3 3 3 18 18 18 18 4 4 4 4 18 18 18 18 3 3 3 3 18 18 18 18 4 4 4 4 19 19 19 19 6 6 6 6 19 19 19 19 4 4 4 4 20 20 20 20 19 19 19 19 6 6 6 6 12 12 12 12 13 13 13 13 21 21 21 21 21 21 21 21 13 13 13 13 22 22 22 22 14 14 14 14 22 22 22 22 13 13 13 13 23 23 23 23 22 22 22 22 14 14 14 14 22 22 22 22 23 23 23 23 24 24 24 24 25 25 25 25 24 24 24 24 23 23 23 23 26 26 26 26 24 24 24 24 25 25 25 25 24 24 24 24 26 26 26 26 27 27 27 27 28 28 28 28 27 27 27 27 26 26 26 26 29 29 29 29 27 27 27 27 28 28 28 28 30 30 30 30 27 27 27 27 29 29 29 29 27 27 27 27 30 30 30 30 24 24 24 24 24 24 24 24 30 30 30 30 22 22 22 22 21 21 21 21 22 22 22 22 30 30 30 30 31 31 31 31 32 32 32 32 33 33 33 33 34 34 34 34 33 33 33 33 32 32 32 32 33 33 33 33 34 34 34 34 35 35 35 35 36 36 36 36 35 35 35 35 34 34 34 34 35 35 35 35 36 36 36 36 37 37 37 37 38 38 38 38 37 37 37 37 36 36 36 36 37 37 37 37 38 38 38 38 39 39 39 39 40 40 40 40 39 39 39 39 38 38 38 38 39 39 39 39 40 40 40 40 41 41 41 41 42 42 42 42 43 43 43 43 44 44 44 44 45 45 45 45 44 44 44 44 43 43 43 43 44 44 44 44 45 45 45 45 46 46 46 46 46 46 46 46 45 45 45 45 47 47 47 47 47 47 47 47 45 45 45 45 48 48 48 48 48 48 48 48 45 45 45 45 49 49 49 49 43 43 43 43 49 49 49 49 45 45 45 45 43 43 43 43 42 42 42 42 50 50 50 50 51 51 51 51 50 50 50 50 42 42 42 42 50 50 50 50 51 51 51 51 52 52 52 52 52 52 52 52 51 51 51 51 53 53 53 53 54 54 54 54 53 53 53 53 51 51 51 51 53 53 53 53 54 54 54 54 55 55 55 55 56 56 56 56 55 55 55 55 54 54 54 54 55 55 55 55 56 56 56 56 57 57 57 57 58 58 58 58 57 57 57 57 56 56 56 56 57 57 57 57 58 58 58 58 59 59 59 59 60 60 60 60 59 59 59 59 58 58 58 58 59 59 59 59 60 60 60 60 61 61 61 61 62 62 62 62 61 61 61 61 60 60 60 60 50 50 50 50 49 49 49 49 43 43 43 43 49 49 49 49 50 50 50 50 63 63 63 63 52 52 52 52 63 63 63 63 50 50 50 50 63 63 63 63 52 52 52 52 64 64 64 64 53 53 53 53 64 64 64 64 52 52 52 52 64 64 64 64 53 53 53 53 65 65 65 65 55 55 55 55 65 65 65 65 53 53 53 53 65 65 65 65 55 55 55 55 66 66 66 66 66 66 66 66 55 55 55 55 67 67 67 67 57 57 57 57 67 67 67 67 55 55 55 55 67 67 67 67 57 57 57 57 68 68 68 68 59 59 59 59 68 68 68 68 57 57 57 57 68 68 68 68 59 59 59 59 69 69 69 69 61 61 61 61 69 69 69 69 59 59 59 59 69 69 69 69 61 61 61 61 70 70 70 70 70 70 70 70 61 61 61 61 71 71 71 71 62 62 62 62 71 71 71 71 61 61 61 61 72 72 72 72 71 71 71 71 62 62 62 62 73 73 73 73 74 74 74 74 75 75 75 75 75 75 75 75 74 74 74 74 76 76 76 76 77 77 77 77 76 76 76 76 74 74 74 74 76 76 76 76 77 77 77 77 78 78 78 78 79 79 79 79 78 78 78 78 77 77 77 77 78 78 78 78 79 79 79 79 80 80 80 80 81 81 81 81 80 80 80 80 79 79 79 79 80 80 80 80 81 81 81 81 82 82 82 82 82 82 82 82 81 81 81 81 83 83 83 83 84 84 84 84 83 83 83 83 81 81 81 81 83 83 83 83 84 84 84 84 85 85 85 85 86 86 86 86 85 85 85 85 84 84 84 84 87 87 87 87 85 85 85 85 86 86 86 86 85 85 85 85 87 87 87 87 88 88 88 88 89 89 89 89 88 88 88 88 87 87 87 87 88 88 88 88 89 89 89 89 90 90 90 90 75 75 75 75 91 91 91 91 73 73 73 73 91 91 91 91 75 75 75 75 92 92 92 92 76 76 76 76 92 92 92 92 75 75 75 75 92 92 92 92 76 76 76 76 93 93 93 93 78 78 78 78 93 93 93 93 76 76 76 76 93 93 93 93 78 78 78 78 94 94 94 94 80 80 80 80 94 94 94 94 78 78 78 78 94 94 94 94 80 80 80 80 95 95 95 95 82 82 82 82 95 95 95 95 80 80 80 80 95 95 95 95 82 82 82 82 96 96 96 96 96 96 96 96 82 82 82 82 97 97 97 97 83 83 83 83 97 97 97 97 82 82 82 82 97 97 97 97 83 83 83 83 98 98 98 98 85 85 85 85 98 98 98 98 83 83 83 83 98 98 98 98 85 85 85 85 99 99 99 99 88 88 88 88 99 99 99 99 85 85 85 85 99 99 99 99 88 88 88 88 100 100 100 100 90 90 90 90 100 100 100 100 88 88 88 88</p>
      </triangles>
    </mesh></geometry>
  </library_geometries>
  <library_visual_scenes>
    <visual_scene id="Scene" name="Scene">
      <node id="vfx_kurp_1120" name="vfx_kurp_1120" type="NODE">
        <instance_geometry url="#vfx_kurp_1120-mesh"><bind_material><technique_common><instance_material symbol="PreviewMaterial" target="#PreviewMaterial"><bind_vertex_input semantic="UVSET0" input_semantic="TEXCOORD" input_set="0"/></instance_material></technique_common></bind_material></instance_geometry>
      </node>
    </visual_scene>
  </library_visual_scenes>
  <scene><instance_visual_scene url="#Scene"/></scene>
</COLLADA>
