<?xml version="1.0" encoding="utf-8"?>
<COLLADA xmlns="http://www.collada.org/2005/11/COLLADASchema" version="1.4.1">
  <asset>
    <contributor><authoring_tool>Morrobroom Kurpulio VFX preview converter</authoring_tool></contributor>
    <unit name="unit" meter="1"/>
    <up_axis>Z_UP</up_axis>
  </asset>
  <library_images>
    <image id="VFXTexture" name="darkmap_newgen-1.dds">
      <init_from>../../../Textures/Kurp/darkmap_newgen-1.dds</init_from>
    </image>
  </library_images>
  <library_effects>
    <effect id="PreviewEffect">
      <profile_COMMON>
        <newparam sid="VFXTexture-surface">
          <surface type="2D"><init_from>VFXTexture</init_from></surface>
        </newparam>
        <newparam sid="VFXTexture-sampler">
          <sampler2D><source>VFXTexture-surface</source></sampler2D>
        </newparam>
        <technique sid="common"><phong>
          <emission><color>0.08 0.08 0.08 1</color></emission>
          <ambient><color>0.2 0.2 0.2 1</color></ambient>
          <diffuse><texture texture="VFXTexture-sampler" texcoord="UVSET0"/></diffuse>
          <specular><color>0.15 0.15 0.15 1</color></specular>
          <shininess><float>8</float></shininess>
          <transparent opaque="A_ONE"><texture texture="VFXTexture-sampler" texcoord="UVSET0"/></transparent>
          <transparency><float>1</float></transparency>
        </phong></technique>
      </profile_COMMON>
      <extra><technique profile="GOOGLEEARTH"><double_sided>1</double_sided></technique></extra>
    </effect>
  </library_effects>
  <library_materials><material id="PreviewMaterial" name="PreviewMaterial"><instance_effect url="#PreviewEffect"/></material></library_materials>
  <library_geometries>
    <geometry id="vfx_kurp_1192-mesh" name="vfx_kurp_1192"><mesh>
      <source id="vfx_kurp_1192-mesh-positions">
        <float_array id="vfx_kurp_1192-mesh-positions-array" count="756">1.60653731 -0.803115396 6.79306108 1.74251641 0.181757372 7.11160873 0.892058254 -0.997020658 7.62449386 1.13898695 -0.144423572 7.9805649 1.14099914 0.665148525 8.30591402 1.59815066 1.1565577 7.42342091 2.07187722 1.59094687 6.66024319 2.34680729 0.453124217 6.35105809 2.31100219 -0.657263626 6.0592976 1.20536535 -1.70606062 6.47173308 1.93765082 -1.78938245 5.74025078 0.571266186 -2.46552005 6.14563146 1.25611312 -2.77922698 5.41561414 -0.252644726 -3.01830373 5.81459487 0.312314825 -3.53885367 5.08518141 -1.20385388 -3.31272635 5.4784478 -0.820339848 -3.99402067 4.74873368 -2.20703078 -3.3117021 5.13548209 -2.04504589 -4.09373663 4.40604327 -3.15983821 -3.00797916 4.78851365 -3.16570383 -3.85512353 4.08732484 0.454817448 -1.66324929 7.29036409 -0.136515538 -2.1849012 6.95241521 -0.842754827 -2.52486211 6.610519 -1.61375521 -2.65456767 6.26451931 -2.48234887 -2.53637434 5.88221892 -3.18151441 -2.18240224 5.52705844 -3.74332475 -1.63644759 5.16723811 -3.97753215 -2.42998647 4.4357731 -4.11236225 -0.943426023 4.80240539 -4.57837075 -1.62702568 4.07691023 -4.24651562 -0.166161809 4.4321394 -4.89717915 -0.674531569 3.71152282 -4.24486237 -3.2447094 3.73197567 -5.08554233 -2.32944658 3.36942054 -5.59853848 -1.19583989 2.99923443 -4.8944465 0.331422281 3.33913255 -5.72534999 0.0419226172 2.62092711 -4.55984381 1.27940501 2.95954322 -5.39690849 1.32698956 2.20075188 -3.92378858 2.05861013 2.57101246 -4.71292711 2.34798698 1.80415544 -3.06206081 2.57347202 2.17359975 -3.73549174 3.07728065 1.39776851 -2.0771887 2.75734036 1.76662625 -2.58016868 3.43004408 0.980990439 -1.09420862 2.57940078 1.34965678 -1.3281768 3.33565295 0.525841531 -4.12360204 0.618395974 4.05595129 -3.78692496 1.25198138 3.70460166 -3.19908088 1.80779057 3.31397945 -2.44757623 2.12820936 2.91528929 -1.62117544 2.16271165 2.50776672 -0.825226005 1.89372457 2.09060697 -0.227932551 1.35895433 1.68552067 -0.255355463 2.04437371 0.920737272 0.174366165 0.585282787 1.24407021 0.325167948 1.24293315 0.480145808 0.231072749 -0.268954592 0.804827902 0.536821193 0.286962223 0.0274860527 -0.279733829 2.83252939 0.0871685018 0.505088509 2.00700206 -0.363163367 0.901601821 0.94034882 -0.842301894 1.63332924 -0.810244288 19.7593131 1.78831239 0.182275486 20.0667432 0.950185545 -1.01847644 20.5617288 1.2191876 -0.149468699 20.9053724 1.2370262 0.684731451 21.2193672 1.65935418 1.17449821 20.3676722 2.09358991 1.59646727 19.63113 2.3494445 0.451088244 19.3327365 2.29475217 -0.656057953 19.0511572 1.21409021 -1.71066043 19.4491982 1.90456071 -1.77384956 18.7432447 0.566737567 -2.45879054 19.1344773 1.21431952 -2.74006302 18.4299387 -0.262327314 -2.99411599 18.8149944 0.273790218 -3.47050176 18.1110376 -1.2084172 -3.26881037 18.4905785 -0.841320971 -3.89617308 17.7863316 -2.19552972 -3.25042509 18.1595824 -2.03404863 -3.97224235 17.455601 -3.12287942 -2.93670369 17.8247236 -3.11424097 -3.72248568 17.1480061 0.491928326 -1.68921508 20.2392599 -0.117157783 -2.20679497 19.9131048 -0.835195806 -2.53627803 19.5831408 -1.61020357 -2.65208868 19.2492176 -2.47332696 -2.51903236 18.8802582 -3.1595729 -2.15584829 18.5374926 -3.70325922 -1.60813276 18.1902309 -3.90893669 -2.35999817 17.4842926 -4.0525439 -0.922946481 17.83813 -4.47688601 -1.57235028 17.137955 -4.16975449 -0.163761601 17.4807868 -4.76761617 -0.649884603 16.7853192 -4.14259793 -3.11640069 16.8050574 -4.93171322 -2.22573305 16.4551563 -5.40061291 -1.13764044 16.0978893 -4.74798776 0.313162608 16.4259247 -5.49933778 0.0363659766 15.7327853 -4.41352542 1.21006267 16.0595843 -5.1677515 1.24032889 15.3272744 -3.79845927 1.93712786 15.6846127 -4.5102386 2.18373142 14.9445185 -2.97906288 2.4075074 15.301069 -3.58863583 2.84518551 14.5523142 -2.05487747 2.56356121 14.9082993 -2.51459005 3.15149793 14.1500819 -1.14398272 2.38251041 14.505882 -1.36597646 3.04335239 13.7108178 -4.03742629 0.593698972 17.1177278 -3.70236144 1.19806259 16.7786398 -3.13048002 1.72060145 16.4016501 -2.41026558 2.01350687 16.0168743 -1.62832848 2.03324444 15.6235741 -0.884767799 1.76843488 15.2209729 -0.335092943 1.26010243 14.8300243 -0.377369525 1.87511316 14.0919322 0.0265680436 0.536925997 14.4039804 0.143041656 1.13079782 13.666717 0.0663638841 -0.250504185 13.9800679 0.321597815 0.25616633 13.229855 -0.417472863 2.56643311 13.2874543 0.28045795 1.80478795 12.8528386 0.620227425 0.83715714 12.3904225 2.76623369 -1.13775995 26.8059121 3.01810782 0.271386908 27.1244601 1.94963075 -1.46923006 27.637345 2.35897757 -0.208083483 27.9934162 2.4227621 1.02754068 28.3187653 2.8881746 1.70764591 27.4362729 3.3573112 2.26261582 26.6730933 3.64442507 0.640017561 26.36391 3.5244636 -0.89872951 26.0721498 2.16994025 -2.38948832 26.4845843 2.96942315 -2.42113754 25.7531022 1.28655941 -3.40352659 26.1584841 2.04136416 -3.70542974 25.4284653 0.185365886 -4.10278828 25.827447 0.81537522 -4.64444582 25.0980331 -1.04320173 -4.43127703 25.4913002 -0.603315114 -5.15650601 24.7615847 -2.29768067 -4.35668606 25.148334 -2.08703948 -5.19626855 24.4188953 -3.449765 -3.88992274 24.8013655 -3.40142627 -4.81570836 24.1001758 1.29461003 -2.41967425 27.3032159 0.449970196 -3.13182053 26.9652667 -0.522466758 -3.56295466 26.6233697 -1.54979181 -3.68574136 26.2773719 -2.66857865 -3.45786523 25.8950713 -3.53623247 -2.92416551 25.53991 -4.20351632 -2.15345981 25.1800904 -4.40065847 -3.0872731 24.4486249 -4.61151767 -1.21758191 24.8152566 -5.06211742 -2.02920072 24.0897621 -4.72211825 -0.20709887 24.4449915 -5.37203201 -0.824085223 23.7243742 -4.62141628 -3.98055152 23.7448273 -5.5254827 -2.80459007 23.3822738 -6.02835887 -1.41152351 23.0120862 -5.30316911 0.401495639 23.3519846 -6.08626981 0.050290363 22.6337794 -4.86458483 1.51158687 22.9723963 -5.64308019 1.50513158 22.2136034 -4.11093433 2.38125135 22.5838652 -4.84770199 2.60557428 21.8170077 -3.14357117 2.91362039 22.1864512 -3.78064899 3.33930319 21.4106197 -2.08551363 3.05346673 21.7794782 -2.57844774 3.6367413 20.9938425 -1.0739774 2.79158199 21.3625088 -1.33476848 3.44681509 20.5386942 -4.52443497 0.775583227 24.0688037 -4.08881637 1.53824003 23.7174533 -3.37901744 2.17510371 23.3268314 -2.51364941 2.50712473 22.9281415 -1.60088829 2.49314487 22.5206195 -0.758708166 2.13468526 22.1034602 -0.158810685 1.49844488 21.6983727 -0.252189909 2.16000615 20.9335892 0.212150981 0.629586198 21.2569222 0.277431981 1.28026387 20.4929981 0.221236368 -0.283173272 20.8176807 0.427330585 0.286513814 20.040338 -0.3449331 2.85383997 20.1000208 0.349338789 1.96889214 19.6496896 0.650482654 0.894920781 19.1705499 0.89192882 -0.639875345 13.314847 0.966245207 0.137096585 13.6333952 0.260541656 -0.769301913 14.1462794 0.418328522 -0.114662565 14.50235 0.390881594 0.490328201 14.8276991 0.821999881 0.888026562 13.9452065 1.27499993 1.25972008 13.1820281 1.53084408 0.359738154 12.8728434 1.53677156 -0.538037457 12.5810836 0.602902388 -1.36973191 12.9935194 1.26783655 -1.47362538 12.2620366 0.117955989 -2.00050677 12.6674178 0.736432992 -2.31202925 11.9373997 -0.534313964 -2.47654412 12.3363817 -0.0275940533 -2.97573471 11.6069667 -1.30768996 -2.74924321 12.0002338 -0.969516841 -3.39547449 11.2705194 -2.14290669 -2.7803021 11.6572679 -2.01188254 -3.51898868 10.9278292 -2.95491793 -2.55472514 11.3103006 -2.98626407 -3.34780845 10.6091107 -0.052039177 -1.29610921 13.8121499 -0.494373735 -1.72255986 13.4742015 -1.03993141 -2.01484635 13.1323045 -1.65181171 -2.14453695 12.7863047 -2.35947949 -2.07690369 12.4040059 -2.94474938 -1.80952319 12.0488449 -3.42925754 -1.37426679 11.6890244 -3.66975748 -2.08813791 10.957559 -3.76192896 -0.803268265 11.3241906 -4.21272678 -1.41510903 10.5986967 -3.90079025 -0.145795719 10.9539252 -4.52034624 -0.594956205 10.2333087 -3.94629717 -2.84959389 10.2537619 -4.71619483 -2.06932229 9.89120619 -5.20919466 -1.07526725 9.52102005 -4.54917878 0.291787514 9.86091819 -5.36262446 0.0359401941 9.14271266 -4.28018216 1.14697815 9.48132909 -5.10460781 1.21700225 8.72253751 -3.73078007 1.86855972 9.09279816 -4.50665092 2.17952657 8.32594087 -2.96093443 2.36376573 8.6953849 -3.61907919 2.88984906 7.91955396 -2.058474 2.562522 8.28841214 -2.54190657 3.25848406 7.50277612 -1.1366018 2.42532285 7.87144216 -1.34650624 3.20792947 7.04762747 -3.81936108 0.534094216 10.5777368 -3.54599348 1.09663022 10.2263862 -3.04454427 1.60413278 9.83576488 -2.38350251 1.91200919 9.43707526 -1.63811225 1.9668339 9.02955209 -0.902627982 1.74312036 8.6123928 -0.33545562 1.26506316 8.20730592 -0.330201015 1.94486898 7.44252336 0.062284614 0.550947778 7.76585609 0.246444515 1.19627343 7.00193176 0.138883936 -0.257831117 7.32661386 0.477216623 0.279098322 6.54927194 -0.320906586 2.75571512 6.60895421 0.469005818 1.97536886 6.15862233 0.891675989 0.93682245 5.679484</float_array>
        <technique_common><accessor source="#vfx_kurp_1192-mesh-positions-array" count="252" stride="3"><param name="X" type="float"/><param name="Y" type="float"/><param name="Z" type="float"/></accessor></technique_common>
      </source>
      <source id="vfx_kurp_1192-mesh-normals">
        <float_array id="vfx_kurp_1192-mesh-normals-array" count="756">0.757840675 -0.293156776 0.582869296 0.757840705 -0.293156753 0.582869269 0.757840675 -0.293156776 0.582869296 0.814434763 -0.408132545 0.412460716 0.909896865 -0.156633688 0.384127041 0.909896876 -0.156633682 0.384127016 0.858264865 -0.0366350607 0.511897737 0.779630024 0.0182823964 0.625973465 0.726521885 -0.196442405 0.658465133 0.673945178 -0.494694118 0.548703587 0.626071939 -0.395801742 0.671844408 0.494051749 -0.657007774 0.569432748 0.47629029 -0.55232469 0.684167375 0.275713103 -0.761911523 0.586065795 0.288080659 -0.659816388 0.694011432 0.0360081312 -0.800050963 0.598850457 0.0763112909 -0.708488786 0.701584084 -0.208227442 -0.767114612 0.606775498 -0.142144059 -0.690747262 0.708987508 -0.43369762 -0.661004571 0.612355559 -0.334449194 -0.599530097 0.727122685 0.65269472 -0.635342593 0.412709816 0.437764336 -0.782776648 0.442293009 0.189745312 -0.863721895 0.466884573 -0.0718581497 -0.8707057 0.486526454 -0.328909837 -0.801438989 0.49951363 -0.577545859 -0.66335538 0.475815533 -0.74932301 -0.452331882 0.483643355 -0.599356932 -0.439690917 0.668911927 -0.85117381 -0.197172775 0.486442229 -0.70635299 -0.229237902 0.669712952 -0.871330198 0.0802200798 0.484095471 -0.744589546 0.00683490922 0.667487596 -0.502830965 -0.464648965 0.728877466 -0.623291383 -0.283867901 0.728647285 -0.683731576 -0.0722851492 0.726144606 -0.771217174 0.222835475 0.596295583 -0.676041542 0.15116179 0.721192031 -0.665611702 0.467779664 0.581500859 -0.608419546 0.382805609 0.6951874 -0.476228405 0.671696929 0.567476644 -0.455159088 0.570477406 0.683656151 -0.231764688 0.807079706 0.543053844 -0.245516322 0.701731448 0.668800949 0.0515237005 0.857404506 0.51205744 0.00219422062 0.760281909 0.649589566 0.346904499 0.810524215 0.471919237 0.276558495 0.745781376 0.606073872 -0.804594078 0.354487122 0.476410799 -0.65233432 0.602002276 0.460492339 -0.423145534 0.776117607 0.467535365 -0.144416081 0.886276183 0.440066498 0.162401577 0.899558203 0.405488308 0.463511429 0.808212228 0.363249432 0.74023003 0.605724591 0.291817103 0.632695192 0.587826705 0.504139424 0.909513692 0.325228201 0.258865721 0.820539278 0.342985527 0.457248534 0.984504781 -0.0239673491 0.173712125 0.924293592 0.0242762269 0.380909464 0.536919888 0.620786283 0.571263009 0.739414405 0.412848616 0.531810453 0.879883391 0.120621402 0.459625605 0.763761751 -0.296812561 0.573210512 0.763761751 -0.296812561 0.573210512 0.763761751 -0.296812565 0.57321051 0.821702691 -0.410637371 0.395198225 0.917750747 -0.156948051 0.364829927 0.917750736 -0.156948064 0.364829948 0.869804259 -0.036190524 0.492067878 0.791222167 0.0174931457 0.611278556 0.737367128 -0.200481718 0.645055656 0.684178838 -0.501072379 0.529929985 0.635899446 -0.403244563 0.658046896 0.502319309 -0.666427335 0.550953645 0.484134687 -0.563038079 0.669777371 0.281114885 -0.773982208 0.567385198 0.292859352 -0.673433035 0.678764574 0.0376301322 -0.814063258 0.579555852 0.0769210524 -0.724227267 0.685257628 -0.211219326 -0.781941947 0.586475224 -0.146652982 -0.707277548 0.691557209 -0.441738784 -0.67508882 0.59086541 -0.344216175 -0.614854914 0.709555255 0.659002781 -0.640110741 0.394934899 0.442526329 -0.789155633 0.425915291 0.192548412 -0.871428361 0.45115155 -0.071457883 -0.879332572 0.470816311 -0.331471385 -0.810337764 0.483197091 -0.583499716 -0.671572212 0.456638639 -0.758137607 -0.458700469 0.463488133 -0.610837572 -0.446687894 0.653718124 -0.862304483 -0.200651511 0.464940803 -0.720889584 -0.232772788 0.652790194 -0.883773227 0.080513916 0.46093643 -0.761075966 0.00808297875 0.648612395 -0.518036222 -0.477340077 0.709778081 -0.643285942 -0.291875395 0.707807849 -0.70701116 -0.0737385319 0.703347602 -0.791470652 0.22779173 0.567172932 -0.70032927 0.157618998 0.69620052 -0.683889375 0.479596413 0.549802331 -0.63076311 0.398068875 0.666092388 -0.490060284 0.689572653 0.533226475 -0.472118658 0.593500405 0.651813809 -0.238944889 0.828798112 0.505963467 -0.254363081 0.730318866 0.633982473 0.0520232943 0.880029685 0.472060727 0.00335389615 0.791233692 0.611504698 0.354681557 0.830706787 0.429100487 0.288290794 0.774412549 0.563181695 -0.816943228 0.359043381 0.451322073 -0.662901241 0.610608993 0.433265048 -0.430793573 0.788353146 0.439222284 -0.147507646 0.900392436 0.409310342 0.164209268 0.913464869 0.372313377 0.469482875 0.819816088 0.327852729 0.748019403 0.612725273 0.255019044 0.649356859 0.602124781 0.464522786 0.918112856 0.328750341 0.221341357 0.839818735 0.350225504 0.41478499 0.990250967 -0.0238368786 0.13724003 0.941363238 0.0240871315 0.336533899 0.557627347 0.64310603 0.524848908 0.765396327 0.426217245 0.482190131 0.904991982 0.123177134 0.407206221 0.73853996 -0.271513185 0.617121802 0.73853996 -0.271513185 0.617121802 0.73853993 -0.271513198 0.617121832 0.825176458 -0.384638431 0.413687188 0.916936559 -0.145199069 0.371678055 0.916936559 -0.145199063 0.371678058 0.861688787 -0.0319918608 0.506427641 0.768500351 0.0140911824 0.639694184 0.712880037 -0.183893524 0.676746057 0.685969861 -0.469484337 0.555904494 0.618892707 -0.370755255 0.692468308 0.509513106 -0.631737441 0.584212462 0.475502555 -0.522505988 0.707732161 0.288921922 -0.741607654 0.605427296 0.289801133 -0.63145547 0.71922131 0.0407611437 -0.785005837 0.61814591 0.0749859481 -0.684320231 0.725315744 -0.214476547 -0.754362109 0.620433413 -0.150057569 -0.669614252 0.727392246 -0.44801332 -0.647757208 0.61619369 -0.346485163 -0.577797724 0.738984318 0.672956323 -0.610568354 0.417535713 0.457108387 -0.760784996 0.460714785 0.201442882 -0.845934592 0.493776702 -0.0715627877 -0.853891145 0.515508176 -0.338200532 -0.781928015 0.523649672 -0.593688503 -0.644870454 0.481327392 -0.761622125 -0.435298706 0.480048722 -0.600888513 -0.410428614 0.685916429 -0.859694313 -0.189937718 0.474182826 -0.705938961 -0.212125461 0.675761032 -0.882117313 0.0739081374 0.465195264 -0.746659397 0.00965234013 0.66513651 -0.518187371 -0.446615679 0.729394463 -0.64118665 -0.27167165 0.717686696 -0.705511615 -0.0672011821 0.705505041 -0.800153431 0.215084627 0.559904536 -0.704169329 0.151616797 0.693655464 -0.702962174 0.462491231 0.540320316 -0.645291474 0.386832604 0.658755986 -0.514893855 0.679630294 0.522481561 -0.491174215 0.586962745 0.643601295 -0.256851895 0.832796261 0.490385045 -0.267917353 0.734775259 0.623157774 0.0535467443 0.893337096 0.446185589 0.00659158213 0.804867999 0.593417269 0.3774888 0.841018737 0.387543147 0.313799008 0.789003587 0.52820784 -0.824408653 0.339274618 0.453037644 -0.681949768 0.589174626 0.43337948 -0.451610927 0.77474599 0.442511267 -0.158399889 0.900131116 0.405799765 0.173108446 0.918224557 0.356226232 0.494211567 0.817734542 0.295068036 0.773646327 0.600232067 0.202960162 0.680453018 0.593278339 0.430121498 0.934584618 0.317471161 0.160510602 0.867267234 0.339971479 0.363685218 0.997545281 -0.0220532866 0.0664610074 0.962323702 0.0216979404 0.271039281 0.59751251 0.647734238 0.472672357 0.806581266 0.422307018 0.413622344 0.938630774 0.118711492 0.323851589 0.781788643 -0.299092676 0.54712895 0.781788643 -0.299092676 0.54712895 0.781788643 -0.299092676 0.54712895 0.819468725 -0.413416253 0.396935778 0.9134624 -0.159809579 0.374228996 0.9134624 -0.159809573 0.374229 0.867532722 -0.0392416387 0.495829678 0.799768291 0.0212516677 0.599932536 0.74956667 -0.200100603 0.630959235 0.68243732 -0.503522175 0.529853492 0.646766649 -0.406070794 0.64560004 0.500313923 -0.66888489 0.549799039 0.492639419 -0.567652489 0.65960371 0.278331634 -0.775471399 0.566723575 0.298639121 -0.678115874 0.671545633 0.0344548639 -0.813438556 0.580629467 0.0806837196 -0.727338953 0.681519027 -0.213486363 -0.778374022 0.590387546 -0.143383141 -0.708138709 0.691361587 -0.441391085 -0.668910825 0.598107197 -0.340642904 -0.615163377 0.711010852 0.655709159 -0.641545835 0.398075922 0.440078607 -0.791924709 0.423303762 0.189663386 -0.875011296 0.445402101 -0.0753625243 -0.882576822 0.464089046 -0.335634611 -0.811910295 0.47765163 -0.58451108 -0.668359542 0.460045997 -0.756988447 -0.454725701 0.469247299 -0.614629123 -0.453943445 0.645109596 -0.858074787 -0.196888779 0.474281001 -0.722841369 -0.237064802 0.649076756 -0.876162261 0.0824083818 0.474919521 -0.759723279 0.00473126198 0.65022931 -0.511660261 -0.475565417 0.71557062 -0.632334588 -0.290166598 0.718300992 -0.691057185 -0.0750111631 0.718897275 -0.771783827 0.224716364 0.59485484 -0.680479139 0.150213592 0.717205701 -0.663059787 0.467913721 0.584301693 -0.608519835 0.380648297 0.696283336 -0.471980541 0.668704077 0.574516515 -0.453832045 0.565641998 0.688538747 -0.228016925 0.799935783 0.555077495 -0.244636672 0.693422223 0.677730418 0.0523882456 0.846606752 0.529634288 0.00032055576 0.748632592 0.662985022 0.342976929 0.797869893 0.495752418 0.269404874 0.731544916 0.626309069 -0.806649734 0.357165107 0.470902636 -0.651624513 0.603598404 0.459406639 -0.421591622 0.776725377 0.467929688 -0.142483574 0.883580435 0.446076279 0.162673538 0.893859691 0.417794414 0.460592179 0.800955492 0.382524698 0.733747745 0.599300113 0.320083772 0.624064644 0.581871582 0.521506262 0.900869584 0.32135109 0.291834661 0.808197161 0.339227796 0.481395732 0.976337063 -0.0242374943 0.214891796 0.910200347 0.0249820504 0.41341411 0.523419125 0.607851252 0.597117472 0.720503583 0.404136327 0.563514344 0.858345599 0.119087913 0.499060018</float_array>
        <technique_common><accessor source="#vfx_kurp_1192-mesh-normals-array" count="252" stride="3"><param name="X" type="float"/><param name="Y" type="float"/><param name="Z" type="float"/></accessor></technique_common>
      </source>
      <source id="vfx_kurp_1192-mesh-uv0">
        <float_array id="vfx_kurp_1192-mesh-uv0-array" count="504">0.5 -0.900000095 0.5 -0.950000048 0 -0.900000095 0 -0.950000048 0 -1 0.5 -1 1 -1 1 -0.950000048 1 -0.900000095 0.5 -0.850000024 1 -0.850000024 0.5 -0.799999952 1 -0.799999952 0.5 -0.75 1 -0.75 0.5 -0.700000048 1 -0.700000048 0.5 -0.650000095 1 -0.650000095 0.5 -0.600000024 1 -0.600000024 0 -0.850000024 0 -0.799999952 0 -0.75 0 -0.700000048 0 -0.650000095 0 -0.600000024 0 -0.549999952 0.5 -0.549999952 0 -0.5 0.5 -0.5 0 -0.450000048 0.5 -0.450000048 1 -0.549999952 1 -0.5 1 -0.450000048 0.5 -0.399999976 1 -0.399999976 0.5 -0.350000024 1 -0.350000024 0.5 -0.299999952 1 -0.299999952 0.5 -0.25 1 -0.25 0.5 -0.200000048 1 -0.200000048 0.5 -0.149999976 1 -0.149999976 0 -0.399999976 0 -0.350000024 0 -0.299999952 0 -0.25 0 -0.200000048 0 -0.149999976 0 -0.100000024 0.5 -0.100000024 0 -0.0499999523 0.5 -0.0499999523 0 0 0.5 0 1 -0.100000024 1 -0.0499999523 1 0 0.5 -0.900000095 0.5 -0.950000048 0 -0.900000095 0 -0.950000048 0 -1 0.5 -1 1 -1 1 -0.950000048 1 -0.900000095 0.5 -0.850000024 1 -0.850000024 0.5 -0.799999952 1 -0.799999952 0.5 -0.75 1 -0.75 0.5 -0.700000048 1 -0.700000048 0.5 -0.650000095 1 -0.650000095 0.5 -0.600000024 1 -0.600000024 0 -0.850000024 0 -0.799999952 0 -0.75 0 -0.700000048 0 -0.650000095 0 -0.600000024 0 -0.549999952 0.5 -0.549999952 0 -0.5 0.5 -0.5 0 -0.450000048 0.5 -0.450000048 1 -0.549999952 1 -0.5 1 -0.450000048 0.5 -0.399999976 1 -0.399999976 0.5 -0.350000024 1 -0.350000024 0.5 -0.299999952 1 -0.299999952 0.5 -0.25 1 -0.25 0.5 -0.200000048 1 -0.200000048 0.5 -0.149999976 1 -0.149999976 0 -0.399999976 0 -0.350000024 0 -0.299999952 0 -0.25 0 -0.200000048 0 -0.149999976 0 -0.100000024 0.5 -0.100000024 0 -0.0499999523 0.5 -0.0499999523 0 0 0.5 0 1 -0.100000024 1 -0.0499999523 1 0 0.5 -0.900000095 0.5 -0.950000048 0 -0.900000095 0 -0.950000048 0 -1 0.5 -1 1 -1 1 -0.950000048 1 -0.900000095 0.5 -0.850000024 1 -0.850000024 0.5 -0.799999952 1 -0.799999952 0.5 -0.75 1 -0.75 0.5 -0.700000048 1 -0.700000048 0.5 -0.650000095 1 -0.650000095 0.5 -0.600000024 1 -0.600000024 0 -0.850000024 0 -0.799999952 0 -0.75 0 -0.700000048 0 -0.650000095 0 -0.600000024 0 -0.549999952 0.5 -0.549999952 0 -0.5 0.5 -0.5 0 -0.450000048 0.5 -0.450000048 1 -0.549999952 1 -0.5 1 -0.450000048 0.5 -0.399999976 1 -0.399999976 0.5 -0.350000024 1 -0.350000024 0.5 -0.299999952 1 -0.299999952 0.5 -0.25 1 -0.25 0.5 -0.200000048 1 -0.200000048 0.5 -0.149999976 1 -0.149999976 0 -0.399999976 0 -0.350000024 0 -0.299999952 0 -0.25 0 -0.200000048 0 -0.149999976 0 -0.100000024 0.5 -0.100000024 0 -0.0499999523 0.5 -0.0499999523 0 0 0.5 0 1 -0.100000024 1 -0.0499999523 1 0 0.5 -0.900000095 0.5 -0.950000048 0 -0.900000095 0 -0.950000048 0 -1 0.5 -1 1 -1 1 -0.950000048 1 -0.900000095 0.5 -0.850000024 1 -0.850000024 0.5 -0.799999952 1 -0.799999952 0.5 -0.75 1 -0.75 0.5 -0.700000048 1 -0.700000048 0.5 -0.650000095 1 -0.650000095 0.5 -0.600000024 1 -0.600000024 0 -0.850000024 0 -0.799999952 0 -0.75 0 -0.700000048 0 -0.650000095 0 -0.600000024 0 -0.549999952 0.5 -0.549999952 0 -0.5 0.5 -0.5 0 -0.450000048 0.5 -0.450000048 1 -0.549999952 1 -0.5 1 -0.450000048 0.5 -0.399999976 1 -0.399999976 0.5 -0.350000024 1 -0.350000024 0.5 -0.299999952 1 -0.299999952 0.5 -0.25 1 -0.25 0.5 -0.200000048 1 -0.200000048 0.5 -0.149999976 1 -0.149999976 0 -0.399999976 0 -0.350000024 0 -0.299999952 0 -0.25 0 -0.200000048 0 -0.149999976 0 -0.100000024 0.5 -0.100000024 0 -0.0499999523 0.5 -0.0499999523 0 0 0.5 0 1 -0.100000024 1 -0.0499999523 1 0</float_array>
        <technique_common><accessor source="#vfx_kurp_1192-mesh-uv0-array" count="252" stride="2"><param name="S" type="float"/><param name="T" type="float"/></accessor></technique_common>
      </source>
      <vertices id="vfx_kurp_1192-mesh-vertices"><input semantic="POSITION" source="#vfx_kurp_1192-mesh-positions"/></vertices>
      <triangles material="PreviewMaterial" count="320">
        <input semantic="VERTEX" source="#vfx_kurp_1192-mesh-vertices" offset="0"/>
        <input semantic="NORMAL" source="#vfx_kurp_1192-mesh-normals" offset="1"/>
        <input semantic="TEXCOORD" source="#vfx_kurp_1192-mesh-uv0" offset="2" set="0"/>
        <p>0 0 0 1 1 1 2 2 2 3 3 3 2 2 2 1 1 1 4 4 4 3 3 3 5 5 5 1 1 1 5 5 5 3 3 3 5 5 5 1 1 1 6 6 6 6 6 6 1 1 1 7 7 7 0 0 0 7 7 7 1 1 1 7 7 7 0 0 0 8 8 8 9 9 9 8 8 8 0 0 0 8 8 8 9 9 9 10 10 10 11 11 11 10 10 10 9 9 9 10 10 10 11 11 11 12 12 12 13 13 13 12 12 12 11 11 11 12 12 12 13 13 13 14 14 14 15 15 15 14 14 14 13 13 13 14 14 14 15 15 15 16 16 16 17 17 17 16 16 16 15 15 15 16 16 16 17 17 17 18 18 18 19 19 19 18 18 18 17 17 17 18 18 18 19 19 19 20 20 20 21 21 21 0 0 0 2 2 2 0 0 0 21 21 21 9 9 9 22 22 22 9 9 9 21 21 21 9 9 9 22 22 22 11 11 11 23 23 23 11 11 11 22 22 22 11 11 11 23 23 23 13 13 13 24 24 24 13 13 13 23 23 23 13 13 13 24 24 24 15 15 15 25 25 25 15 15 15 24 24 24 15 15 15 25 25 25 17 17 17 26 26 26 17 17 17 25 25 25 17 17 17 26 26 26 19 19 19 27 27 27 19 19 19 26 26 26 19 19 19 27 27 27 28 28 28 29 29 29 28 28 28 27 27 27 28 28 28 29 29 29 30 30 30 31 31 31 30 30 30 29 29 29 32 32 32 30 30 30 31 31 31 19 19 19 28 28 28 20 20 20 20 20 20 28 28 28 33 33 33 30 30 30 33 33 33 28 28 28 33 33 33 30 30 30 34 34 34 32 32 32 34 34 34 30 30 30 34 34 34 32 32 32 35 35 35 36 36 36 35 35 35 32 32 32 35 35 35 36 36 36 37 37 37 38 38 38 37 37 37 36 36 36 37 37 37 38 38 38 39 39 39 40 40 40 39 39 39 38 38 38 39 39 39 40 40 40 41 41 41 42 42 42 41 41 41 40 40 40 41 41 41 42 42 42 43 43 43 44 44 44 43 43 43 42 42 42 43 43 43 44 44 44 45 45 45 46 46 46 45 45 45 44 44 44 45 45 45 46 46 46 47 47 47 48 48 48 32 32 32 31 31 31 32 32 32 48 48 48 36 36 36 49 49 49 36 36 36 48 48 48 36 36 36 49 49 49 38 38 38 50 50 50 38 38 38 49 49 49 38 38 38 50 50 50 40 40 40 51 51 51 40 40 40 50 50 50 40 40 40 51 51 51 42 42 42 52 52 52 42 42 42 51 51 51 42 42 42 52 52 52 44 44 44 53 53 53 44 44 44 52 52 52 44 44 44 53 53 53 46 46 46 54 54 54 46 46 46 53 53 53 46 46 46 54 54 54 55 55 55 56 56 56 55 55 55 54 54 54 55 55 55 56 56 56 57 57 57 58 58 58 57 57 57 56 56 56 59 59 59 57 57 57 58 58 58 46 46 46 55 55 55 47 47 47 47 47 47 55 55 55 60 60 60 57 57 57 60 60 60 55 55 55 60 60 60 57 57 57 61 61 61 59 59 59 61 61 61 57 57 57 61 61 61 59 59 59 62 62 62 63 63 63 64 64 64 65 65 65 66 66 66 65 65 65 64 64 64 67 67 67 66 66 66 68 68 68 64 64 64 68 68 68 66 66 66 68 68 68 64 64 64 69 69 69 69 69 69 64 64 64 70 70 70 63 63 63 70 70 70 64 64 64 70 70 70 63 63 63 71 71 71 72 72 72 71 71 71 63 63 63 71 71 71 72 72 72 73 73 73 74 74 74 73 73 73 72 72 72 73 73 73 74 74 74 75 75 75 76 76 76 75 75 75 74 74 74 75 75 75 76 76 76 77 77 77 78 78 78 77 77 77 76 76 76 77 77 77 78 78 78 79 79 79 80 80 80 79 79 79 78 78 78 79 79 79 80 80 80 81 81 81 82 82 82 81 81 81 80 80 80 81 81 81 82 82 82 83 83 83 84 84 84 63 63 63 65 65 65 63 63 63 84 84 84 72 72 72 85 85 85 72 72 72 84 84 84 72 72 72 85 85 85 74 74 74 86 86 86 74 74 74 85 85 85 74 74 74 86 86 86 76 76 76 87 87 87 76 76 76 86 86 86 76 76 76 87 87 87 78 78 78 88 88 88 78 78 78 87 87 87 78 78 78 88 88 88 80 80 80 89 89 89 80 80 80 88 88 88 80 80 80 89 89 89 82 82 82 90 90 90 82 82 82 89 89 89 82 82 82 90 90 90 91 91 91 92 92 92 91 91 91 90 90 90 91 91 91 92 92 92 93 93 93 94 94 94 93 93 93 92 92 92 95 95 95 93 93 93 94 94 94 82 82 82 91 91 91 83 83 83 83 83 83 91 91 91 96 96 96 93 93 93 96 96 96 91 91 91 96 96 96 93 93 93 97 97 97 95 95 95 97 97 97 93 93 93 97 97 97 95 95 95 98 98 98 99 99 99 98 98 98 95 95 95 98 98 98 99 99 99 100 100 100 101 101 101 100 100 100 99 99 99 100 100 100 101 101 101 102 102 102 103 103 103 102 102 102 101 101 101 102 102 102 103 103 103 104 104 104 105 105 105 104 104 104 103 103 103 104 104 104 105 105 105 106 106 106 107 107 107 106 106 106 105 105 105 106 106 106 107 107 107 108 108 108 109 109 109 108 108 108 107 107 107 108 108 108 109 109 109 110 110 110 111 111 111 95 95 95 94 94 94 95 95 95 111 111 111 99 99 99 112 112 112 99 99 99 111 111 111 99 99 99 112 112 112 101 101 101 113 113 113 101 101 101 112 112 112 101 101 101 113 113 113 103 103 103 114 114 114 103 103 103 113 113 113 103 103 103 114 114 114 105 105 105 115 115 115 105 105 105 114 114 114 105 105 105 115 115 115 107 107 107 116 116 116 107 107 107 115 115 115 107 107 107 116 116 116 109 109 109 117 117 117 109 109 109 116 116 116 109 109 109 117 117 117 118 118 118 119 119 119 118 118 118 117 117 117 118 118 118 119 119 119 120 120 120 121 121 121 120 120 120 119 119 119 122 122 122 120 120 120 121 121 121 109 109 109 118 118 118 110 110 110 110 110 110 118 118 118 123 123 123 120 120 120 123 123 123 118 118 118 123 123 123 120 120 120 124 124 124 122 122 122 124 124 124 120 120 120 124 124 124 122 122 122 125 125 125 126 126 126 127 127 127 128 128 128 129 129 129 128 128 128 127 127 127 130 130 130 129 129 129 131 131 131 127 127 127 131 131 131 129 129 129 131 131 131 127 127 127 132 132 132 132 132 132 127 127 127 133 133 133 126 126 126 133 133 133 127 127 127 133 133 133 126 126 126 134 134 134 135 135 135 134 134 134 126 126 126 134 134 134 135 135 135 136 136 136 137 137 137 136 136 136 135 135 135 136 136 136 137 137 137 138 138 138 139 139 139 138 138 138 137 137 137 138 138 138 139 139 139 140 140 140 141 141 141 140 140 140 139 139 139 140 140 140 141 141 141 142 142 142 143 143 143 142 142 142 141 141 141 142 142 142 143 143 143 144 144 144 145 145 145 144 144 144 143 143 143 144 144 144 145 145 145 146 146 146 147 147 147 126 126 126 128 128 128 126 126 126 147 147 147 135 135 135 148 148 148 135 135 135 147 147 147 135 135 135 148 148 148 137 137 137 149 149 149 137 137 137 148 148 148 137 137 137 149 149 149 139 139 139 150 150 150 139 139 139 149 149 149 139 139 139 150 150 150 141 141 141 151 151 151 141 141 141 150 150 150 141 141 141 151 151 151 143 143 143 152 152 152 143 143 143 151 151 151 143 143 143 152 152 152 145 145 145 153 153 153 145 145 145 152 152 152 145 145 145 153 153 153 154 154 154 155 155 155 154 154 154 153 153 153 154 154 154 155 155 155 156 156 156 157 157 157 156 156 156 155 155 155 158 158 158 156 156 156 157 157 157 145 145 145 154 154 154 146 146 146 146 146 146 154 154 154 159 159 159 156 156 156 159 159 159 154 154 154 159 159 159 156 156 156 160 160 160 158 158 158 160 160 160 156 156 156 160 160 160 158 158 158 161 161 161 162 162 162 161 161 161 158 158 158 161 161 161 162 162 162 163 163 163 164 164 164 163 163 163 162 162 162 163 163 163 164 164 164 165 165 165 166 166 166 165 165 165 164 164 164 165 165 165 166 166 166 167 167 167 168 168 168 167 167 167 166 166 166 167 167 167 168 168 168 169 169 169 170 170 170 169 169 169 168 168 168 169 169 169 170 170 170 171 171 171 172 172 172 171 171 171 170 170 170 171 171 171 172 172 172 173 173 173 174 174 174 158 158 158 157 157 157 158 158 158 174 174 174 162 162 162 175 175 175 162 162 162 174 174 174 162 162 162 175 175 175 164 164 164 176 176 176 164 164 164 175 175 175 164 164 164 176 176 176 166 166 166 177 177 177 166 166 166 176 176 176 166 166 166 177 177 177 168 168 168 178 178 178 168 168 168 177 177 177 168 168 168 178 178 178 170 170 170 179 179 179 170 170 170 178 178 178 170 170 170 179 179 179 172 172 172 180 180 180 172 172 172 179 179 179 172 172 172 180 180 180 181 181 181 182 182 182 181 181 181 180 180 180 181 181 181 182 182 182 183 183 183 184 184 184 183 183 183 182 182 182 185 185 185 183 183 183 184 184 184 172 172 172 181 181 181 173 173 173 173 173 173 181 181 181 186 186 186 183 183 183 186 186 186 181 181 181 186 186 186 183 183 183 187 187 187 185 185 185 187 187 187 183 183 183 187 187 187 185 185 185 188 188 188 189 189 189 190 190 190 191 191 191 192 192 192 191 191 191 190 190 190 193 193 193 192 192 192 194 194 194 190 190 190 194 194 194 192 192 192 194 194 194 190 190 190 195 195 195 195 195 195 190 190 190 196 196 196 189 189 189 196 196 196 190 190 190 196 196 196 189 189 189 197 197 197 198 198 198 197 197 197 189 189 189 197 197 197 198 198 198 199 199 199 200 200 200 199 199 199 198 198 198 199 199 199 200 200 200 201 201 201 202 202 202 201 201 201 200 200 200 201 201 201 202 202 202 203 203 203 204 204 204 203 203 203 202 202 202 203 203 203 204 204 204 205 205 205 206 206 206 205 205 205 204 204 204 205 205 205 206 206 206 207 207 207 208 208 208 207 207 207 206 206 206 207 207 207 208 208 208 209 209 209 210 210 210 189 189 189 191 191 191 189 189 189 210 210 210 198 198 198 211 211 211 198 198 198 210 210 210 198 198 198 211 211 211 200 200 200 212 212 212 200 200 200 211 211 211 200 200 200 212 212 212 202 202 202 213 213 213 202 202 202 212 212 212 202 202 202 213 213 213 204 204 204 214 214 214 204 204 204 213 213 213 204 204 204 214 214 214 206 206 206 215 215 215 206 206 206 214 214 214 206 206 206 215 215 215 208 208 208 216 216 216 208 208 208 215 215 215 208 208 208 216 216 216 217 217 217 218 218 218 217 217 217 216 216 216 217 217 217 218 218 218 219 219 219 220 220 220 219 219 219 218 218 218 221 221 221 219 219 219 220 220 220 208 208 208 217 217 217 209 209 209 209 209 209 217 217 217 222 222 222 219 219 219 222 222 222 217 217 217 222 222 222 219 219 219 223 223 223 221 221 221 223 223 223 219 219 219 223 223 223 221 221 221 224 224 224 225 225 225 224 224 224 221 221 221 224 224 224 225 225 225 226 226 226 227 227 227 226 226 226 225 225 225 226 226 226 227 227 227 228 228 228 229 229 229 228 228 228 227 227 227 228 228 228 229 229 229 230 230 230 231 231 231 230 230 230 229 229 229 230 230 230 231 231 231 232 232 232 233 233 233 232 232 232 231 231 231 232 232 232 233 233 233 234 234 234 235 235 235 234 234 234 233 233 233 234 234 234 235 235 235 236 236 236 237 237 237 221 221 221 220 220 220 221 221 221 237 237 237 225 225 225 238 238 238 225 225 225 237 237 237 225 225 225 238 238 238 227 227 227 239 239 239 227 227 227 238 238 238 227 227 227 239 239 239 229 229 229 240 240 240 229 229 229 239 239 239 229 229 229 240 240 240 231 231 231 241 241 241 231 231 231 240 240 240 231 231 231 241 241 241 233 233 233 242 242 242 233 233 233 241 241 241 233 233 233 242 242 242 235 235 235 243 243 243 235 235 235 242 242 242 235 235 235 243 243 243 244 244 244 245 245 245 244 244 244 243 243 243 244 244 244 245 245 245 246 246 246 247 247 247 246 246 246 245 245 245 248 248 248 246 246 246 247 247 247 235 235 235 244 244 244 236 236 236 236 236 236 244 244 244 249 249 249 246 246 246 249 249 249 244 244 244 249 249 249 246 246 246 250 250 250 248 248 248 250 250 250 246 246 246 250 250 250 248 248 248 251 251 251</p>
      </triangles>
    </mesh></geometry>
  </library_geometries>
  <library_visual_scenes>
    <visual_scene id="Scene" name="Scene">
      <node id="vfx_kurp_1192" name="vfx_kurp_1192" type="NODE">
        <instance_geometry url="#vfx_kurp_1192-mesh"><bind_material><technique_common><instance_material symbol="PreviewMaterial" target="#PreviewMaterial"><bind_vertex_input semantic="UVSET0" input_semantic="TEXCOORD" input_set="0"/></instance_material></technique_common></bind_material></instance_geometry>
      </node>
    </visual_scene>
  </library_visual_scenes>
  <scene><instance_visual_scene url="#Scene"/></scene>
</COLLADA>
