<?xml version="1.0" encoding="utf-8"?>
<COLLADA xmlns="http://www.collada.org/2005/11/COLLADASchema" version="1.4.1">
  <asset>
    <contributor><authoring_tool>Morrobroom Kurpulio VFX preview converter</authoring_tool></contributor>
    <unit name="unit" meter="1"/>
    <up_axis>Z_UP</up_axis>
  </asset>
  <library_images>
    <image id="VFXTexture" name="darkmap_newgen-1.dds">
      <init_from>../../../Textures/Kurp/darkmap_newgen-1.dds</init_from>
    </image>
  </library_images>
  <library_effects>
    <effect id="PreviewEffect">
      <profile_COMMON>
        <newparam sid="VFXTexture-surface">
          <surface type="2D"><init_from>VFXTexture</init_from></surface>
        </newparam>
        <newparam sid="VFXTexture-sampler">
          <sampler2D><source>VFXTexture-surface</source></sampler2D>
        </newparam>
        <technique sid="common"><phong>
          <emission><color>0.08 0.08 0.08 1</color></emission>
          <ambient><color>0.2 0.2 0.2 1</color></ambient>
          <diffuse><texture texture="VFXTexture-sampler" texcoord="UVSET0"/></diffuse>
          <specular><color>0.15 0.15 0.15 1</color></specular>
          <shininess><float>8</float></shininess>
          <transparent opaque="A_ONE"><texture texture="VFXTexture-sampler" texcoord="UVSET0"/></transparent>
          <transparency><float>1</float></transparency>
        </phong></technique>
      </profile_COMMON>
      <extra><technique profile="GOOGLEEARTH"><double_sided>1</double_sided></technique></extra>
    </effect>
  </library_effects>
  <library_materials><material id="PreviewMaterial" name="PreviewMaterial"><instance_effect url="#PreviewEffect"/></material></library_materials>
  <library_geometries>
    <geometry id="vfx_kurp_0975-mesh" name="vfx_kurp_0975"><mesh>
      <source id="vfx_kurp_0975-mesh-positions">
        <float_array id="vfx_kurp_0975-mesh-positions-array" count="198">-1.98872265 -0.0378286416 3.07362907 -1.53381952 -0.970415018 2.15272809 -0.650907502 -0.085807025 3.03684163 -1.09187385 -0.752961989 1.90319021 -0.650907502 -0.085807025 3.03684163 -1.53381952 -0.970415018 2.15272809 -1.53381952 -0.970415018 2.15272809 -1.98872265 -0.0378286416 3.07362907 -1.69590876 -1.16549409 2.13449992 -2.94021661 -0.730055124 2.56670795 -1.7382769 -1.45621339 1.832521 -3.10760781 -1.5706943 1.64136722 -1.60881862 -1.81318875 1.554363 -2.40209223 -2.09400283 0.451379248 -1.60881862 -1.81318875 1.554363 -3.10760781 -1.5706943 1.64136722 -1.37249487 -2.00570737 1.45618048 -1.01490173 -2.09293607 0.118559033 -1.37249487 -2.00570737 1.45618048 -2.40209223 -2.09400283 0.451379248 -0.548129745 -1.93901037 1.92051565 -0.21654483 -1.94247489 0.573388154 0.566023715 -1.35962168 1.84408802 0.271903288 -1.80882762 0.56486156 0.566023715 -1.35962168 1.84408802 0.271903288 -1.80882762 0.56486156 0.948537262 -0.587872902 1.28630272 0.724762032 -1.44457519 0.218267557 0.948537262 -0.587872902 1.28630272 0.724762032 -1.44457519 0.218267557 0.755209948 0.0514192982 0.761867868 0.597387352 -0.868763035 -0.26432382 0.755209948 0.0514192982 0.761867868 0.597387352 -0.868763035 -0.26432382 0.00622848538 0.47712626 0.512360489 -0.186942467 -0.420535677 -0.527639889 -1.89470372 -0.0598885528 2.09739642 -1.62783847 -0.948355477 3.12896106 -0.910128139 0.183992999 2.12999609 -0.83265335 -1.02276249 2.81003627 -0.910128139 0.183992999 2.12999609 -1.62783847 -0.948355477 3.12896106 -2.29253548 -1.39800441 2.87769093 -2.34359004 -0.497545217 1.82351716 -2.29253548 -1.39800441 2.87769093 -2.34359004 -0.497545217 1.82351716 -2.43155086 -2.07960026 2.13767326 -2.41433413 -0.947308194 1.33621547 -2.13944021 -2.58388537 1.25970265 -1.87147096 -1.32330659 0.746039793 -1.19157071 -2.74148175 0.833076161 -1.19582608 -1.35716186 0.741663454 -0.196691561 -2.60742635 1.29436248 -0.567983259 -1.27405942 1.19954176 -0.196691561 -2.60742635 1.29436248 -0.567983259 -1.27405942 1.19954176 0.841581594 -2.12633825 1.29767207 -0.00365454359 -1.04211132 1.11127778 1.51136822 -1.1767686 0.739695329 0.161930839 -0.855679686 0.764875178 1.51136822 -1.1767686 0.739695329 -0.00365454359 -1.04211132 1.11127778 1.24869189 -0.16479995 -0.0579376939 0.103905486 -0.652544073 0.555482012 0.10063371 0.51515823 -0.463343171 -0.281347707 -0.458567884 0.448063999</float_array>
        <technique_common><accessor source="#vfx_kurp_0975-mesh-positions-array" count="66" stride="3"><param name="X" type="float"/><param name="Y" type="float"/><param name="Z" type="float"/></accessor></technique_common>
      </source>
      <source id="vfx_kurp_0975-mesh-normals">
        <float_array id="vfx_kurp_0975-mesh-normals-array" count="198">-0.00572140495 -0.704034961 0.710142267 -0.00572140599 -0.704034966 0.710142262 -0.00572137759 -0.70403497 0.710142259 0.540647013 -0.799916225 0.260451224 0.540647013 -0.799916225 0.260451224 0.540647013 -0.799916225 0.260451224 0.493025586 -0.4775998 0.727202999 0.108477191 -0.619387032 0.777555402 0.142933966 -0.652998352 0.743749308 0.00879648522 -0.68601447 0.72753472 -0.0380933893 -0.680657128 0.731611077 -0.0373465548 -0.716467362 0.696620236 -0.0561885869 -0.626271514 0.777577542 -0.181026692 -0.914069683 0.362913146 -0.309081953 -0.844530015 0.437306986 -0.131785765 -0.933838884 0.33253188 -0.416562505 -0.763235289 0.493910491 0.070289937 -0.995604633 0.0618929672 0.0306485545 -0.99684627 0.0731995888 0.0174945094 -0.997413184 0.0697200251 0.280695477 -0.955428566 0.0914675063 0.26137367 -0.957621598 0.121015203 0.41798435 -0.895425973 0.153301694 0.258693116 -0.928454581 0.266551989 0.883671319 -0.466448621 -0.0393787285 0.808221976 -0.558398345 0.186998731 0.854188619 -0.515137877 0.0706736969 0.731472773 -0.59846325 0.326786353 0.962006928 0.0757361536 -0.262310322 0.973723822 0.0600084178 -0.219683656 0.968028503 0.0680295786 -0.241439006 0.979075331 0.0516013922 -0.19684713 0.53564424 0.586095468 -0.607928738 0.537288096 0.586020941 -0.606548398 0.536626366 0.586051275 -0.607104643 0.538235986 0.58597668 -0.605750241 -0.473730838 0.633507334 0.611757756 -0.48308043 0.597741281 0.639795795 -0.199576589 0.716339942 0.668600234 0.365539917 0.4746674 0.800669363 0.365539879 0.474667424 0.800669366 0.365539889 0.474667407 0.800669371 -0.639896357 0.520118516 0.565693717 -0.748751532 0.485665063 0.451110396 -0.990384352 0.0777825567 0.114405899 -0.99293326 0.0736798313 0.0930313074 -0.996902197 -0.0395014725 -0.0680120863 -0.978006715 -0.024990955 -0.207070804 -0.725424957 -0.207180689 -0.656380068 -0.488561407 -0.131644473 -0.862541294 0.0645454554 -0.14270261 -0.987658772 0.264864897 -0.0162490748 -0.964148616 0.479445613 -0.00479495102 -0.877558495 0.577150936 0.10310504 -0.810102554 0.0319304796 -0.062048942 -0.997562215 -0.02131176 -0.149072808 -0.988596534 -0.120516969 -0.227594097 -0.966269417 -0.126519808 -0.263058909 -0.956447985 -0.252355512 -0.351703246 -0.901455225 -0.158429199 -0.755714207 -0.635449626 -0.17361355 -0.673282425 -0.718713511 -0.20462148 -0.817775928 -0.537933621 -0.136145006 -0.651871245 -0.746008323 -0.0909406265 -0.689169428 -0.718870852 -0.122016345 -0.652720623 -0.747708366 -0.120192226 -0.652864032 -0.747878589</float_array>
        <technique_common><accessor source="#vfx_kurp_0975-mesh-normals-array" count="66" stride="3"><param name="X" type="float"/><param name="Y" type="float"/><param name="Z" type="float"/></accessor></technique_common>
      </source>
      <source id="vfx_kurp_0975-mesh-uv0">
        <float_array id="vfx_kurp_0975-mesh-uv0-array" count="132">0 0.0999999642 1 0.0999999642 0 0 1 0 0 0 1 0.0999999642 1 0.0999999642 0 0.0999999642 1 0.199999988 0 0.199999988 1 0.300000012 0 0.300000012 1 0.399999976 0 0.399999976 1 0.399999976 0 0.300000012 1 0.5 0 0.5 1 0.5 0 0.399999976 1 0.600000024 0 0.600000024 1 0.699999988 0 0.699999988 1 0.699999988 0 0.699999988 1 0.800000012 0 0.800000012 1 0.800000012 0 0.800000012 1 0.899999976 0 0.899999976 1 0.899999976 0 0.899999976 1 1 0 1 1 0.0999999642 0 0.0999999642 1 0 0 0 1 0 0 0.0999999642 0 0.199999988 1 0.199999988 0 0.199999988 1 0.199999988 0 0.300000012 1 0.300000012 0 0.399999976 1 0.399999976 0 0.5 1 0.5 0 0.600000024 1 0.600000024 0 0.600000024 1 0.600000024 0 0.699999988 1 0.699999988 0 0.800000012 1 0.800000012 0 0.800000012 1 0.699999988 0 0.899999976 1 0.899999976 0 1 1 1</float_array>
        <technique_common><accessor source="#vfx_kurp_0975-mesh-uv0-array" count="66" stride="2"><param name="S" type="float"/><param name="T" type="float"/></accessor></technique_common>
      </source>
      <source id="vfx_kurp_0975-mesh-colors">
        <float_array id="vfx_kurp_0975-mesh-colors-array" count="264">0.0392156877 0.0392156877 0.0392156877 1 0.0392156877 0.0392156877 0.0392156877 1 0.0392156877 0.0392156877 0.0392156877 0 0.0392156877 0.0392156877 0.0392156877 0 0.0392156877 0.0392156877 0.0392156877 0 0.0392156877 0.0392156877 0.0392156877 1 0.0392156877 0.0392156877 0.0392156877 1 0.0392156877 0.0392156877 0.0392156877 1 0.0392156877 0.0392156877 0.0392156877 1 0.0392156877 0.0392156877 0.0392156877 1 0.0392156877 0.0392156877 0.0392156877 1 0.0392156877 0.0392156877 0.0392156877 1 0.0392156877 0.0392156877 0.0392156877 1 0.0392156877 0.0392156877 0.0392156877 1 0.0392156877 0.0392156877 0.0392156877 1 0.0392156877 0.0392156877 0.0392156877 1 0.0392156877 0.0392156877 0.0392156877 1 0.0392156877 0.0392156877 0.0392156877 1 0.0392156877 0.0392156877 0.0392156877 1 0.0392156877 0.0392156877 0.0392156877 1 0.0392156877 0.0392156877 0.0392156877 1 0.0392156877 0.0392156877 0.0392156877 1 0.0392156877 0.0392156877 0.0392156877 1 0.0392156877 0.0392156877 0.0392156877 1 0.0392156877 0.0392156877 0.0392156877 1 0.0392156877 0.0392156877 0.0392156877 1 0.0392156877 0.0392156877 0.0392156877 1 0.0392156877 0.0392156877 0.0392156877 1 0.0392156877 0.0392156877 0.0392156877 1 0.0392156877 0.0392156877 0.0392156877 1 0.0392156877 0.0392156877 0.0392156877 1 0.0392156877 0.0392156877 0.0392156877 1 0.0392156877 0.0392156877 0.0392156877 1 0.0392156877 0.0392156877 0.0392156877 1 0.0392156877 0.0392156877 0.0392156877 0 0.0392156877 0.0392156877 0.0392156877 0 0.0392156877 0.0392156877 0.0392156877 1 0.0392156877 0.0392156877 0.0392156877 1 0.0392156877 0.0392156877 0.0392156877 0 0.0392156877 0.0392156877 0.0392156877 0 0.0392156877 0.0392156877 0.0392156877 0 0.0392156877 0.0392156877 0.0392156877 1 0.0392156877 0.0392156877 0.0392156877 1 0.0392156877 0.0392156877 0.0392156877 1 0.0392156877 0.0392156877 0.0392156877 1 0.0392156877 0.0392156877 0.0392156877 1 0.0392156877 0.0392156877 0.0392156877 1 0.0392156877 0.0392156877 0.0392156877 1 0.0392156877 0.0392156877 0.0392156877 1 0.0392156877 0.0392156877 0.0392156877 1 0.0392156877 0.0392156877 0.0392156877 1 0.0392156877 0.0392156877 0.0392156877 1 0.0392156877 0.0392156877 0.0392156877 1 0.0392156877 0.0392156877 0.0392156877 1 0.0392156877 0.0392156877 0.0392156877 1 0.0392156877 0.0392156877 0.0392156877 1 0.0392156877 0.0392156877 0.0392156877 1 0.0392156877 0.0392156877 0.0392156877 1 0.0392156877 0.0392156877 0.0392156877 1 0.0392156877 0.0392156877 0.0392156877 1 0.0392156877 0.0392156877 0.0392156877 1 0.0392156877 0.0392156877 0.0392156877 1 0.0392156877 0.0392156877 0.0392156877 1 0.0392156877 0.0392156877 0.0392156877 1 0.0392156877 0.0392156877 0.0392156877 0 0.0392156877 0.0392156877 0.0392156877 0</float_array>
        <technique_common><accessor source="#vfx_kurp_0975-mesh-colors-array" count="66" stride="4"><param name="R" type="float"/><param name="G" type="float"/><param name="B" type="float"/><param name="A" type="float"/></accessor></technique_common>
      </source>
      <vertices id="vfx_kurp_0975-mesh-vertices"><input semantic="POSITION" source="#vfx_kurp_0975-mesh-positions"/></vertices>
      <triangles material="PreviewMaterial" count="40">
        <input semantic="VERTEX" source="#vfx_kurp_0975-mesh-vertices" offset="0"/>
        <input semantic="NORMAL" source="#vfx_kurp_0975-mesh-normals" offset="1"/>
        <input semantic="TEXCOORD" source="#vfx_kurp_0975-mesh-uv0" offset="2" set="0"/>
        <input semantic="COLOR" source="#vfx_kurp_0975-mesh-colors" offset="3" set="0"/>
        <p>0 0 0 0 1 1 1 1 2 2 2 2 3 3 3 3 4 4 4 4 5 5 5 5 6 6 6 6 7 7 7 7 8 8 8 8 9 9 9 9 8 8 8 8 7 7 7 7 8 8 8 8 9 9 9 9 10 10 10 10 11 11 11 11 10 10 10 10 9 9 9 9 10 10 10 10 11 11 11 11 12 12 12 12 13 13 13 13 14 14 14 14 15 15 15 15 14 14 14 14 13 13 13 13 16 16 16 16 17 17 17 17 18 18 18 18 19 19 19 19 18 18 18 18 17 17 17 17 20 20 20 20 21 21 21 21 20 20 20 20 17 17 17 17 20 20 20 20 21 21 21 21 22 22 22 22 23 23 23 23 22 22 22 22 21 21 21 21 24 24 24 24 25 25 25 25 26 26 26 26 27 27 27 27 26 26 26 26 25 25 25 25 28 28 28 28 29 29 29 29 30 30 30 30 31 31 31 31 30 30 30 30 29 29 29 29 32 32 32 32 33 33 33 33 34 34 34 34 35 35 35 35 34 34 34 34 33 33 33 33 36 36 36 36 37 37 37 37 38 38 38 38 39 39 39 39 40 40 40 40 41 41 41 41 37 37 37 37 36 36 36 36 42 42 42 42 43 43 43 43 42 42 42 42 36 36 36 36 44 44 44 44 45 45 45 45 46 46 46 46 47 47 47 47 46 46 46 46 45 45 45 45 46 46 46 46 47 47 47 47 48 48 48 48 49 49 49 49 48 48 48 48 47 47 47 47 48 48 48 48 49 49 49 49 50 50 50 50 51 51 51 51 50 50 50 50 49 49 49 49 50 50 50 50 51 51 51 51 52 52 52 52 53 53 53 53 52 52 52 52 51 51 51 51 54 54 54 54 55 55 55 55 56 56 56 56 57 57 57 57 56 56 56 56 55 55 55 55 56 56 56 56 57 57 57 57 58 58 58 58 59 59 59 59 60 60 60 60 61 61 61 61 60 60 60 60 59 59 59 59 62 62 62 62 63 63 63 63 62 62 62 62 59 59 59 59 62 62 62 62 63 63 63 63 64 64 64 64 65 65 65 65 64 64 64 64 63 63 63 63</p>
      </triangles>
    </mesh></geometry>
  </library_geometries>
  <library_visual_scenes>
    <visual_scene id="Scene" name="Scene">
      <node id="vfx_kurp_0975" name="vfx_kurp_0975" type="NODE">
        <instance_geometry url="#vfx_kurp_0975-mesh"><bind_material><technique_common><instance_material symbol="PreviewMaterial" target="#PreviewMaterial"><bind_vertex_input semantic="UVSET0" input_semantic="TEXCOORD" input_set="0"/></instance_material></technique_common></bind_material></instance_geometry>
      </node>
    </visual_scene>
  </library_visual_scenes>
  <scene><instance_visual_scene url="#Scene"/></scene>
</COLLADA>
