<?xml version="1.0" encoding="utf-8"?>
<COLLADA xmlns="http://www.collada.org/2005/11/COLLADASchema" version="1.4.1">
  <asset>
    <contributor><authoring_tool>Morrobroom Kurpulio VFX preview converter</authoring_tool></contributor>
    <unit name="unit" meter="1"/>
    <up_axis>Z_UP</up_axis>
  </asset>
  <library_images>
    <image id="VFXTexture" name="darkmap_newgen-1.dds">
      <init_from>../../../Textures/Kurp/darkmap_newgen-1.dds</init_from>
    </image>
  </library_images>
  <library_effects>
    <effect id="PreviewEffect">
      <profile_COMMON>
        <newparam sid="VFXTexture-surface">
          <surface type="2D"><init_from>VFXTexture</init_from></surface>
        </newparam>
        <newparam sid="VFXTexture-sampler">
          <sampler2D><source>VFXTexture-surface</source></sampler2D>
        </newparam>
        <technique sid="common"><phong>
          <emission><color>0.08 0.08 0.08 1</color></emission>
          <ambient><color>0.2 0.2 0.2 1</color></ambient>
          <diffuse><texture texture="VFXTexture-sampler" texcoord="UVSET0"/></diffuse>
          <specular><color>0.15 0.15 0.15 1</color></specular>
          <shininess><float>8</float></shininess>
          <transparent opaque="A_ONE"><texture texture="VFXTexture-sampler" texcoord="UVSET0"/></transparent>
          <transparency><float>1</float></transparency>
        </phong></technique>
      </profile_COMMON>
      <extra><technique profile="GOOGLEEARTH"><double_sided>1</double_sided></technique></extra>
    </effect>
  </library_effects>
  <library_materials><material id="PreviewMaterial" name="PreviewMaterial"><instance_effect url="#PreviewEffect"/></material></library_materials>
  <library_geometries>
    <geometry id="vfx_kurp_0083-mesh" name="vfx_kurp_0083"><mesh>
      <source id="vfx_kurp_0083-mesh-positions">
        <float_array id="vfx_kurp_0083-mesh-positions-array" count="195">-7.97681731e-06 4.55113459 -0.344719887 -1.62036814e-05 3.88705492 2.9789927 2.27556 3.94139878 -0.344712233 1.94351134 3.36628852 2.97899956 3.94139185 2.27556774 -0.344706507 3.36627315 1.94352841 2.97900452 4.55112917 2.36092763e-07 -0.344703953 3.88704047 1.32715716e-06 2.97900642 -2.4114657e-05 2.64027333 6.30270529 1.32011194 2.28654408 6.30270963 2.28651869 1.32013778 6.30271316 2.64024865 2.26825382e-06 6.30271445 -3.27393798e-05 1.94525731 9.62642002 0.972594576 1.6846426 9.62642357 1.68460735 0.972630557 9.62642617 1.94522251 3.48693664e-06 9.62642712 -4.72457757e-05 1.71614587 13.8057213 0.858023513 1.48622683 13.8057235 1.4861754 0.858075759 13.8057248 1.71609474 5.20440062e-06 13.8057266 -0.858117711 1.48622629 13.8057181 -0.97265975 1.68464214 9.62641838 -1.48626902 0.858074524 13.8057159 -1.68467227 0.972629253 9.62641578 -1.71618806 3.80892812e-06 13.8057169 -1.94528662 1.8933611e-06 9.62641578 -1.48626812 -0.858066878 13.8057178 -1.68467134 -0.972625312 9.62641673 -0.858116536 -1.48621777 13.8057201 -0.972658267 -1.68463736 9.62641838 -4.59969091e-05 -1.71613681 13.8057222 -3.13286633e-05 -1.94525206 9.62642193 0.858024569 -1.48621711 13.8057254 0.972595761 -1.68463678 9.62642453 1.48617594 -0.858065524 13.8057258 1.68460805 -0.972623948 9.62642617 1.71609474 5.20440062e-06 13.8057266 1.94522251 3.48693664e-06 9.62642712 2.64024865 2.26825382e-06 6.30271445 2.28651963 -1.32013364 6.30271411 1.32011357 -2.28654099 6.30271106 -2.2252359e-05 -2.64027071 6.30270672 -1.32015785 -2.28654169 6.30270237 -2.28656472 -1.32013575 6.30269885 -2.64029444 1.02212187e-07 6.30269755 -2.28656614 1.32013603 6.30269837 -1.32015972 2.28654314 6.30270094 3.88704047 1.32715716e-06 2.97900642 3.36627407 -1.94352616 2.97900523 1.94351395 -3.36628761 2.97900075 -1.34150908e-05 -3.88705468 2.97899461 -1.94354037 -3.366289 2.97898823 -3.36630206 -1.94352912 2.97898327 -3.88706938 -1.79265102e-06 2.97898113 -3.36630393 1.94352604 2.97898231 -1.94354334 3.36628713 2.97898656 4.55112917 2.36092763e-07 -0.344703953 3.9413936 -2.2755678 -0.344705374 2.27556257 -3.94139941 -0.344710295 -4.72745864e-06 -4.55113745 -0.344717622 -2.27557202 -3.9414014 -0.344725246 -3.94140364 -2.27557108 -0.344731031 -4.55114143 -3.44796788e-06 -0.344733586 -3.94140563 2.27556446 -0.344732164 -2.27557554 3.94139608 -0.344727213</float_array>
        <technique_common><accessor source="#vfx_kurp_0083-mesh-positions-array" count="65" stride="3"><param name="X" type="float"/><param name="Y" type="float"/><param name="Z" type="float"/></accessor></technique_common>
      </source>
      <source id="vfx_kurp_0083-mesh-normals">
        <float_array id="vfx_kurp_0083-mesh-normals-array" count="195">-1.28562078e-06 0.980618277 0.195928033 -1.25420923e-06 0.96257407 0.271018745 0.490308171 0.849240577 0.195929427 0.481285936 0.833613795 0.271020089 0.849239557 0.490309563 0.195930363 0.833612571 0.481287483 0.271021106 0.980617727 4.19418881e-07 0.195930789 0.962573257 3.2073409e-07 0.271021634 -1.25899388e-06 0.959358476 0.28219021 0.479678181 0.830828948 0.282191604 0.830827751 0.479679622 0.282192678 0.959357597 4.29262284e-07 0.282193199 -5.4569911e-07 0.99128711 0.131718889 0.495642952 0.858479938 0.131720385 0.858479135 0.495644018 0.13172161 0.991286658 3.81509414e-07 0.131722289 -5.43457733e-07 0.998500736 0.0547382853 0.499249606 0.864727332 0.0547400458 0.864726591 0.499250729 0.0547415103 0.998500521 3.01512561e-07 0.0547422023 -0.499250811 0.864726853 0.0547366263 -0.495644205 0.85847969 0.131717284 -0.864727388 0.499250005 0.0547355141 -0.85848035 0.495643308 0.131716362 -0.998500902 -5.57419388e-07 0.0547352626 -0.991287482 -4.41832573e-07 0.13171609 -0.864726887 -0.499250827 0.054735937 -0.858479841 -0.495644097 0.131716709 -0.499250213 -0.864727152 0.0547373457 -0.495643628 -0.8584799 0.131718095 1.00490398e-07 -0.998500686 0.0547391986 -7.47958355e-08 -0.991287005 0.13171968 0.499250375 -0.864726834 0.0547408862 0.495643576 -0.858479461 0.131721144 0.86472697 -0.499250024 0.0547419403 0.858479542 -0.495643179 0.131722116 0.998500521 3.01512561e-07 0.0547422023 0.991286658 3.81509414e-07 0.131722289 0.959357597 4.29262284e-07 0.282193199 0.830828137 -0.479678783 0.282192969 0.47967867 -0.830828465 0.282192194 -6.6445464e-07 -0.959358252 0.282190972 -0.479679756 -0.830828694 0.282189675 -0.830829254 -0.479679401 0.282188629 -0.959359131 -4.37343519e-07 0.282187983 -0.830829787 0.479678757 0.282188155 -0.479680492 0.830828523 0.282188929 0.962573257 3.2073409e-07 0.271021634 0.833612886 -0.481286725 0.271021483 0.481286453 -0.833613305 0.271020678 -5.91580518e-07 -0.96257385 0.271019525 -0.481287373 -0.833613605 0.27101812 -0.833614 -0.481287265 0.271017099 -0.962574683 -3.52666821e-07 0.271016566 -0.833614485 0.481286657 0.271016688 -0.481288183 0.833613339 0.271017501 0.980617727 4.19418881e-07 0.195930789 0.849239815 -0.490308954 0.195930771 0.490308768 -0.849240111 0.19592995 -4.26651212e-07 -0.980618102 0.195928913 -0.490309472 -0.84924026 0.195927541 -0.849240562 -0.490309439 0.195926319 -0.980618729 -3.57316668e-07 0.19592577 -0.849241113 0.490308678 0.195925832 -0.490310335 0.849239969 0.195926647</float_array>
        <technique_common><accessor source="#vfx_kurp_0083-mesh-normals-array" count="65" stride="3"><param name="X" type="float"/><param name="Y" type="float"/><param name="Z" type="float"/></accessor></technique_common>
      </source>
      <source id="vfx_kurp_0083-mesh-uv0">
        <float_array id="vfx_kurp_0083-mesh-uv0-array" count="130">5.96046448e-08 2 5.96046448e-08 1.75 -0.166666627 2 -0.166666627 1.75 -0.333333313 2 -0.333333313 1.75 -0.49999994 2 -0.49999994 1.75 5.96046448e-08 1.5 -0.166666627 1.5 -0.333333313 1.5 -0.49999994 1.5 5.96046448e-08 1.25 -0.166666627 1.25 -0.333333313 1.25 -0.49999994 1.25 5.96046448e-08 1 -0.166666627 1 -0.333333313 1 -0.49999994 1 0.166666687 1 0.166666687 1.25 0.333333373 1 0.333333373 1.25 0.5 1 0.5 1.25 0.666666746 1 0.666666746 1.25 0.833333373 1 0.833333373 1.25 1 1 1 1.25 1.16666663 1 1.16666663 1.25 1.33333325 1 1.33333325 1.25 1.5 1 1.5 1.25 1.5 1.5 1.33333325 1.5 1.16666663 1.5 1 1.5 0.833333373 1.5 0.666666746 1.5 0.5 1.5 0.333333373 1.5 0.166666687 1.5 1.5 1.75 1.33333325 1.75 1.16666663 1.75 1 1.75 0.833333373 1.75 0.666666746 1.75 0.5 1.75 0.333333373 1.75 0.166666687 1.75 1.5 2 1.33333325 2 1.16666663 2 1 2 0.833333373 2 0.666666746 2 0.5 2 0.333333373 2 0.166666687 2</float_array>
        <technique_common><accessor source="#vfx_kurp_0083-mesh-uv0-array" count="65" stride="2"><param name="S" type="float"/><param name="T" type="float"/></accessor></technique_common>
      </source>
      <vertices id="vfx_kurp_0083-mesh-vertices"><input semantic="POSITION" source="#vfx_kurp_0083-mesh-positions"/></vertices>
      <triangles material="PreviewMaterial" count="96">
        <input semantic="VERTEX" source="#vfx_kurp_0083-mesh-vertices" offset="0"/>
        <input semantic="NORMAL" source="#vfx_kurp_0083-mesh-normals" offset="1"/>
        <input semantic="TEXCOORD" source="#vfx_kurp_0083-mesh-uv0" offset="2" set="0"/>
        <p>0 0 0 1 1 1 2 2 2 3 3 3 2 2 2 1 1 1 2 2 2 3 3 3 4 4 4 5 5 5 4 4 4 3 3 3 4 4 4 5 5 5 6 6 6 7 7 7 6 6 6 5 5 5 1 1 1 8 8 8 3 3 3 9 9 9 3 3 3 8 8 8 3 3 3 9 9 9 5 5 5 10 10 10 5 5 5 9 9 9 5 5 5 10 10 10 7 7 7 11 11 11 7 7 7 10 10 10 8 8 8 12 12 12 9 9 9 13 13 13 9 9 9 12 12 12 9 9 9 13 13 13 10 10 10 14 14 14 10 10 10 13 13 13 10 10 10 14 14 14 11 11 11 15 15 15 11 11 11 14 14 14 12 12 12 16 16 16 13 13 13 17 17 17 13 13 13 16 16 16 13 13 13 17 17 17 14 14 14 18 18 18 14 14 14 17 17 17 14 14 14 18 18 18 15 15 15 19 19 19 15 15 15 18 18 18 16 16 16 12 12 12 20 20 20 21 21 21 20 20 20 12 12 12 20 20 20 21 21 21 22 22 22 23 23 23 22 22 22 21 21 21 22 22 22 23 23 23 24 24 24 25 25 25 24 24 24 23 23 23 24 24 24 25 25 25 26 26 26 27 27 27 26 26 26 25 25 25 26 26 26 27 27 27 28 28 28 29 29 29 28 28 28 27 27 27 28 28 28 29 29 29 30 30 30 31 31 31 30 30 30 29 29 29 30 30 30 31 31 31 32 32 32 33 33 33 32 32 32 31 31 31 32 32 32 33 33 33 34 34 34 35 35 35 34 34 34 33 33 33 34 34 34 35 35 35 36 36 36 37 37 37 36 36 36 35 35 35 38 38 38 37 37 37 39 39 39 35 35 35 39 39 39 37 37 37 39 39 39 35 35 35 40 40 40 33 33 33 40 40 40 35 35 35 40 40 40 33 33 33 41 41 41 31 31 31 41 41 41 33 33 33 41 41 41 31 31 31 42 42 42 29 29 29 42 42 42 31 31 31 42 42 42 29 29 29 43 43 43 27 27 27 43 43 43 29 29 29 43 43 43 27 27 27 44 44 44 25 25 25 44 44 44 27 27 27 44 44 44 25 25 25 45 45 45 23 23 23 45 45 45 25 25 25 45 45 45 23 23 23 46 46 46 21 21 21 46 46 46 23 23 23 46 46 46 21 21 21 8 8 8 12 12 12 8 8 8 21 21 21 47 47 47 38 38 38 48 48 48 39 39 39 48 48 48 38 38 38 48 48 48 39 39 39 49 49 49 40 40 40 49 49 49 39 39 39 49 49 49 40 40 40 50 50 50 41 41 41 50 50 50 40 40 40 50 50 50 41 41 41 51 51 51 42 42 42 51 51 51 41 41 41 51 51 51 42 42 42 52 52 52 43 43 43 52 52 52 42 42 42 52 52 52 43 43 43 53 53 53 44 44 44 53 53 53 43 43 43 53 53 53 44 44 44 54 54 54 45 45 45 54 54 54 44 44 44 54 54 54 45 45 45 55 55 55 46 46 46 55 55 55 45 45 45 55 55 55 46 46 46 1 1 1 8 8 8 1 1 1 46 46 46 56 56 56 47 47 47 57 57 57 48 48 48 57 57 57 47 47 47 57 57 57 48 48 48 58 58 58 49 49 49 58 58 58 48 48 48 58 58 58 49 49 49 59 59 59 50 50 50 59 59 59 49 49 49 59 59 59 50 50 50 60 60 60 51 51 51 60 60 60 50 50 50 60 60 60 51 51 51 61 61 61 52 52 52 61 61 61 51 51 51 61 61 61 52 52 52 62 62 62 53 53 53 62 62 62 52 52 52 62 62 62 53 53 53 63 63 63 54 54 54 63 63 63 53 53 53 63 63 63 54 54 54 64 64 64 55 55 55 64 64 64 54 54 54 64 64 64 55 55 55 0 0 0 1 1 1 0 0 0 55 55 55</p>
      </triangles>
    </mesh></geometry>
  </library_geometries>
  <library_visual_scenes>
    <visual_scene id="Scene" name="Scene">
      <node id="vfx_kurp_0083" name="vfx_kurp_0083" type="NODE">
        <instance_geometry url="#vfx_kurp_0083-mesh"><bind_material><technique_common><instance_material symbol="PreviewMaterial" target="#PreviewMaterial"><bind_vertex_input semantic="UVSET0" input_semantic="TEXCOORD" input_set="0"/></instance_material></technique_common></bind_material></instance_geometry>
      </node>
    </visual_scene>
  </library_visual_scenes>
  <scene><instance_visual_scene url="#Scene"/></scene>
</COLLADA>
