<?xml version="1.0" encoding="utf-8"?>
<COLLADA xmlns="http://www.collada.org/2005/11/COLLADASchema" version="1.4.1">
  <asset>
    <contributor><authoring_tool>Morrobroom Kurpulio VFX preview converter</authoring_tool></contributor>
    <unit name="unit" meter="1"/>
    <up_axis>Z_UP</up_axis>
  </asset>
  <library_images>
    <image id="VFXTexture" name="darkmap_newgen-1.dds">
      <init_from>../../../Textures/Kurp/darkmap_newgen-1.dds</init_from>
    </image>
  </library_images>
  <library_effects>
    <effect id="PreviewEffect">
      <profile_COMMON>
        <newparam sid="VFXTexture-surface">
          <surface type="2D"><init_from>VFXTexture</init_from></surface>
        </newparam>
        <newparam sid="VFXTexture-sampler">
          <sampler2D><source>VFXTexture-surface</source></sampler2D>
        </newparam>
        <technique sid="common"><phong>
          <emission><color>0.08 0.08 0.08 1</color></emission>
          <ambient><color>0.2 0.2 0.2 1</color></ambient>
          <diffuse><texture texture="VFXTexture-sampler" texcoord="UVSET0"/></diffuse>
          <specular><color>0.15 0.15 0.15 1</color></specular>
          <shininess><float>8</float></shininess>
          <transparent opaque="A_ONE"><texture texture="VFXTexture-sampler" texcoord="UVSET0"/></transparent>
          <transparency><float>1</float></transparency>
        </phong></technique>
      </profile_COMMON>
      <extra><technique profile="GOOGLEEARTH"><double_sided>1</double_sided></technique></extra>
    </effect>
  </library_effects>
  <library_materials><material id="PreviewMaterial" name="PreviewMaterial"><instance_effect url="#PreviewEffect"/></material></library_materials>
  <library_geometries>
    <geometry id="vfx_kurp_0672-mesh" name="vfx_kurp_0672"><mesh>
      <source id="vfx_kurp_0672-mesh-positions">
        <float_array id="vfx_kurp_0672-mesh-positions-array" count="189">-2.41504097 1.87064309 -1.55320028 -2.74910045 1.75588655 0.0213501904 -2.51041842 2.25667698 -1.55401351 -2.86079645 2.19451713 0.0522615192 -2.54448152 2.65266425 -1.55428458 -2.90109539 2.64536929 0.0778677651 -3.97581863 2.64175145 1.86575281 -3.91906548 2.02359549 1.77026865 -3.75998569 1.42432945 1.66744572 -3.50363517 0.861732772 1.5572832 -2.56894636 1.34097588 -0.0148662245 -3.15825152 0.352348712 1.4397818 -2.32515025 0.960640314 -0.0563877178 -2.73496675 -0.0890919917 1.31494116 -2.0242703 0.6247806 -0.103214304 -2.24741983 -0.450184665 1.18276046 -1.67442274 0.342061169 -0.155346051 -1.71127331 -0.721280263 1.04324123 -1.28504968 0.119664745 -0.212782989 -1.14365888 -0.895820836 0.896382352 -0.866646469 -0.0369134499 -0.275525005 -0.562568188 -0.970559033 0.742184716 -0.430462509 -0.124017559 -0.343572205 -2.26059151 1.50401444 -1.55184477 -2.0507648 1.16579039 -1.54994721 -1.79062068 0.864296623 -1.54750749 -1.48646569 0.606977948 -1.54452548 -1.14570105 0.400212266 -1.5410013 -0.776646554 0.249150746 -1.53693496 -0.388336837 0.157586701 -1.53232645 0.0118273012 -0.139932435 -0.416924453 0.00969754532 0.127857484 -1.52717566 0.44845435 -0.0849249593 -0.495581988 0.407664329 0.16078227 -1.52148282 0.0137900822 -0.945663716 0.580647308 0.567640543 -0.82469793 0.411770814 1.08228302 -0.614473353 0.235554817 0.86790067 0.0387717925 -0.579544662 1.54268789 -0.324787023 0.052000013 1.25922537 0.227032884 -0.668812146 1.93604136 0.0319577665 -0.138894303 1.61238229 0.473973188 -0.763384977 2.25220108 0.44122152 -0.337127845 1.91850257 0.772129812 -0.863262858 2.48406243 0.886887634 -0.542700908 2.17014551 1.1126918 -0.968446027 2.62780309 1.35187605 -0.755613089 2.36150241 1.48576825 -1.07893425 2.68301558 1.81880395 -0.975864271 2.48855424 1.88069003 -1.19472746 0.79574877 0.255636579 -1.51524781 1.16435695 0.41016478 -1.50847052 1.50435495 0.620631701 -1.50115118 1.80729437 0.88190878 -1.49328943 2.06562448 1.18759794 -1.48488576 2.27288342 1.53018493 -1.47593968 2.4238596 1.90122134 -1.46645156 2.54917145 2.28633338 -1.31582596 2.51472974 2.29153425 -1.45642116 2.54315519 2.69145114 -1.44222951 2.54315424 2.69145114 -1.4458487 2.65269995 2.27065664 -1.20345499 2.54313374 2.6914509 -1.43838501</float_array>
        <technique_common><accessor source="#vfx_kurp_0672-mesh-positions-array" count="63" stride="3"><param name="X" type="float"/><param name="Y" type="float"/><param name="Z" type="float"/></accessor></technique_common>
      </source>
      <source id="vfx_kurp_0672-mesh-normals">
        <float_array id="vfx_kurp_0672-mesh-normals-array" count="189">-0.925993156 -0.306995833 -0.219750391 -0.879845006 -0.267845012 -0.392596249 -0.963126223 -0.158771189 -0.217208627 -0.914165679 -0.129650875 -0.384046562 -0.973120493 -0.0823299403 -0.2150774 -0.922197087 -0.0560068609 -0.382643129 -0.857071764 0.000892260695 -0.515196268 -0.849656414 -0.0626948776 -0.523596534 -0.821314596 -0.191646766 -0.537320995 -0.774056144 -0.31301088 -0.550328333 -0.825002955 -0.39850176 -0.400707464 -0.709584822 -0.424150824 -0.562659274 -0.751140001 -0.518645569 -0.408406014 -0.629946165 -0.522769718 -0.574351505 -0.660176468 -0.625578218 -0.415714955 -0.537464859 -0.606952882 -0.58543977 -0.554403068 -0.716937406 -0.422655883 -0.434680239 -0.675196838 -0.595954965 -0.436424391 -0.790746586 -0.429247699 -0.324278452 -0.726428501 -0.605925011 -0.309097115 -0.845453612 -0.435507936 -0.209021752 -0.760016848 -0.6153733 -0.175461606 -0.879962369 -0.44145153 -0.866204669 -0.447606102 -0.22212215 -0.785212769 -0.577159346 -0.224339023 -0.684989501 -0.6924781 -0.226414365 -0.567981171 -0.790726992 -0.228359833 -0.437050026 -0.86948378 -0.23018521 -0.295404903 -0.926800394 -0.231898625 -0.14652315 -0.96125204 -0.233506919 -0.0386708334 -0.893651628 -0.447092087 0.00593321534 -0.971973642 -0.235014971 0.0980825254 -0.886384567 -0.452440291 0.158208267 -0.95868295 -0.236425771 -0.091680215 -0.775770587 -0.624319417 0.0250394287 -0.773929026 -0.632777124 0.138558958 -0.755140118 -0.64075332 0.231640027 -0.858506008 -0.457504461 0.246493663 -0.720430154 -0.648244759 0.358948861 -0.81082963 -0.462288898 0.346714701 -0.671162687 -0.65523245 0.477132792 -0.744613798 -0.466791806 0.437412107 -0.60898503 -0.661670524 0.583558668 -0.661527124 -0.471000155 0.517168159 -0.535755719 -0.667460041 0.675902764 -0.563605271 -0.474873196 0.585073962 -0.453427117 -0.672378099 0.752235842 -0.453192519 -0.478286294 0.641039959 -0.363772715 -0.675823337 0.811231379 -0.332800667 -0.480777877 0.306544036 -0.921689024 -0.237739559 0.44727389 -0.861886092 -0.238952784 0.576914423 -0.780732493 -0.24005525 0.692253959 -0.680214466 -0.241024349 0.79043658 -0.562794029 -0.241811692 0.869043781 -0.431338008 -0.242302351 0.92619093 -0.289009268 -0.24216524 0.853322967 -0.204064166 -0.479789257 0.960818858 -0.138987273 -0.239811717 0.999100198 -0.0346576073 -0.0244467737 0.997484086 -0.0708902552 -0.000262844768 0.687625815 -0.267147508 -0.6751318 0.995636169 -0.0131131464 -0.0923940698</float_array>
        <technique_common><accessor source="#vfx_kurp_0672-mesh-normals-array" count="63" stride="3"><param name="X" type="float"/><param name="Y" type="float"/><param name="Z" type="float"/></accessor></technique_common>
      </source>
      <source id="vfx_kurp_0672-mesh-uv0">
        <float_array id="vfx_kurp_0672-mesh-uv0-array" count="126">0.100000001 1 0.100000001 0.5 0.0500000007 1 0.0500000007 0.5 0 1 0 0.5 0 0 0.0500000007 0 0.100000001 0 0.150000006 0 0.150000006 0.5 0.200000003 0 0.200000003 0.5 0.25 0 0.25 0.5 0.300000012 0 0.300000012 0.5 0.349999994 0 0.349999994 0.5 0.400000006 0 0.400000006 0.5 0.450000018 0 0.450000018 0.5 0.150000006 1 0.200000003 1 0.25 1 0.300000012 1 0.349999994 1 0.400000006 1 0.450000018 1 0.5 0.5 0.5 1 0.550000012 0.5 0.550000012 1 0.5 0 0.550000012 0 0.600000024 0 0.600000024 0.5 0.650000036 0 0.650000036 0.5 0.699999988 0 0.699999988 0.5 0.75 0 0.75 0.5 0.800000012 0 0.800000012 0.5 0.850000024 0 0.850000024 0.5 0.900000036 0 0.900000036 0.5 0.600000024 1 0.650000036 1 0.699999988 1 0.75 1 0.800000012 1 0.850000024 1 0.900000036 1 0.949999988 0.5 0.949999988 1 1 0.5 1 1 0.949999988 0 1 0</float_array>
        <technique_common><accessor source="#vfx_kurp_0672-mesh-uv0-array" count="63" stride="2"><param name="S" type="float"/><param name="T" type="float"/></accessor></technique_common>
      </source>
      <vertices id="vfx_kurp_0672-mesh-vertices"><input semantic="POSITION" source="#vfx_kurp_0672-mesh-positions"/></vertices>
      <triangles material="PreviewMaterial" count="80">
        <input semantic="VERTEX" source="#vfx_kurp_0672-mesh-vertices" offset="0"/>
        <input semantic="NORMAL" source="#vfx_kurp_0672-mesh-normals" offset="1"/>
        <input semantic="TEXCOORD" source="#vfx_kurp_0672-mesh-uv0" offset="2" set="0"/>
        <p>0 0 0 1 1 1 2 2 2 3 3 3 2 2 2 1 1 1 2 2 2 3 3 3 4 4 4 5 5 5 4 4 4 3 3 3 6 6 6 5 5 5 7 7 7 3 3 3 7 7 7 5 5 5 7 7 7 3 3 3 8 8 8 1 1 1 8 8 8 3 3 3 8 8 8 1 1 1 9 9 9 10 10 10 9 9 9 1 1 1 9 9 9 10 10 10 11 11 11 12 12 12 11 11 11 10 10 10 11 11 11 12 12 12 13 13 13 14 14 14 13 13 13 12 12 12 13 13 13 14 14 14 15 15 15 16 16 16 15 15 15 14 14 14 15 15 15 16 16 16 17 17 17 18 18 18 17 17 17 16 16 16 17 17 17 18 18 18 19 19 19 20 20 20 19 19 19 18 18 18 19 19 19 20 20 20 21 21 21 22 22 22 21 21 21 20 20 20 1 1 1 0 0 0 10 10 10 23 23 23 10 10 10 0 0 0 10 10 10 23 23 23 12 12 12 24 24 24 12 12 12 23 23 23 12 12 12 24 24 24 14 14 14 25 25 25 14 14 14 24 24 24 14 14 14 25 25 25 16 16 16 26 26 26 16 16 16 25 25 25 16 16 16 26 26 26 18 18 18 27 27 27 18 18 18 26 26 26 18 18 18 27 27 27 20 20 20 28 28 28 20 20 20 27 27 27 20 20 20 28 28 28 22 22 22 29 29 29 22 22 22 28 28 28 22 22 22 29 29 29 30 30 30 31 31 31 30 30 30 29 29 29 30 30 30 31 31 31 32 32 32 33 33 33 32 32 32 31 31 31 21 21 21 22 22 22 34 34 34 30 30 30 34 34 34 22 22 22 34 34 34 30 30 30 35 35 35 32 32 32 35 35 35 30 30 30 35 35 35 32 32 32 36 36 36 37 37 37 36 36 36 32 32 32 36 36 36 37 37 37 38 38 38 39 39 39 38 38 38 37 37 37 38 38 38 39 39 39 40 40 40 41 41 41 40 40 40 39 39 39 40 40 40 41 41 41 42 42 42 43 43 43 42 42 42 41 41 41 42 42 42 43 43 43 44 44 44 45 45 45 44 44 44 43 43 43 44 44 44 45 45 45 46 46 46 47 47 47 46 46 46 45 45 45 46 46 46 47 47 47 48 48 48 49 49 49 48 48 48 47 47 47 32 32 32 33 33 33 37 37 37 50 50 50 37 37 37 33 33 33 37 37 37 50 50 50 39 39 39 51 51 51 39 39 39 50 50 50 39 39 39 51 51 51 41 41 41 52 52 52 41 41 41 51 51 51 41 41 41 52 52 52 43 43 43 53 53 53 43 43 43 52 52 52 43 43 43 53 53 53 45 45 45 54 54 54 45 45 45 53 53 53 45 45 45 54 54 54 47 47 47 55 55 55 47 47 47 54 54 54 47 47 47 55 55 55 49 49 49 56 56 56 49 49 49 55 55 55 49 49 49 56 56 56 57 57 57 58 58 58 57 57 57 56 56 56 57 57 57 58 58 58 59 59 59 60 60 60 59 59 59 58 58 58 48 48 48 49 49 49 61 61 61 57 57 57 61 61 61 49 49 49 61 61 61 57 57 57 62 62 62 59 59 59 62 62 62 57 57 57</p>
      </triangles>
    </mesh></geometry>
  </library_geometries>
  <library_visual_scenes>
    <visual_scene id="Scene" name="Scene">
      <node id="vfx_kurp_0672" name="vfx_kurp_0672" type="NODE">
        <instance_geometry url="#vfx_kurp_0672-mesh"><bind_material><technique_common><instance_material symbol="PreviewMaterial" target="#PreviewMaterial"><bind_vertex_input semantic="UVSET0" input_semantic="TEXCOORD" input_set="0"/></instance_material></technique_common></bind_material></instance_geometry>
      </node>
    </visual_scene>
  </library_visual_scenes>
  <scene><instance_visual_scene url="#Scene"/></scene>
</COLLADA>
