<?xml version="1.0" encoding="utf-8"?>
<COLLADA xmlns="http://www.collada.org/2005/11/COLLADASchema" version="1.4.1">
  <asset>
    <contributor><authoring_tool>Morrobroom Kurpulio VFX preview converter</authoring_tool></contributor>
    <unit name="unit" meter="1"/>
    <up_axis>Z_UP</up_axis>
  </asset>
  <library_images>
    <image id="VFXTexture" name="darkmap_newgen-1.dds">
      <init_from>../../../Textures/Kurp/darkmap_newgen-1.dds</init_from>
    </image>
  </library_images>
  <library_effects>
    <effect id="PreviewEffect">
      <profile_COMMON>
        <newparam sid="VFXTexture-surface">
          <surface type="2D"><init_from>VFXTexture</init_from></surface>
        </newparam>
        <newparam sid="VFXTexture-sampler">
          <sampler2D><source>VFXTexture-surface</source></sampler2D>
        </newparam>
        <technique sid="common"><phong>
          <emission><color>0.08 0.08 0.08 1</color></emission>
          <ambient><color>0.2 0.2 0.2 1</color></ambient>
          <diffuse><texture texture="VFXTexture-sampler" texcoord="UVSET0"/></diffuse>
          <specular><color>0.15 0.15 0.15 1</color></specular>
          <shininess><float>8</float></shininess>
          <transparent opaque="A_ONE"><texture texture="VFXTexture-sampler" texcoord="UVSET0"/></transparent>
          <transparency><float>1</float></transparency>
        </phong></technique>
      </profile_COMMON>
      <extra><technique profile="GOOGLEEARTH"><double_sided>1</double_sided></technique></extra>
    </effect>
  </library_effects>
  <library_materials><material id="PreviewMaterial" name="PreviewMaterial"><instance_effect url="#PreviewEffect"/></material></library_materials>
  <library_geometries>
    <geometry id="vfx_kurp_1080-mesh" name="vfx_kurp_1080"><mesh>
      <source id="vfx_kurp_1080-mesh-positions">
        <float_array id="vfx_kurp_1080-mesh-positions-array" count="453">-1.25735176 -1.26263564 -0.0614096217 -1.00761972 -1.35095951 0.581863054 -1.19483747 -1.16661192 0.624766979 -0.950419977 -0.892982073 1.21582849 -1.25735176 -1.26263564 -0.0614096217 -0.843850308 -1.50722846 0.441738359 -0.604486664 -1.23361204 1.13655241 -0.561309581 -0.483403724 1.62179114 -1.25735176 -1.26263564 -0.0614096217 -0.728461761 -1.61162812 0.225725573 -0.301880257 -1.52235939 0.877635633 -0.109325946 -0.928458196 1.51821189 -0.086744898 -0.000231554587 1.78085067 -1.25735176 -1.26263564 -0.0614096217 -0.679020926 -1.64826459 -0.0332892785 -0.0886700114 -1.71526482 0.478496128 0.286048361 -1.30572479 1.17992092 0.402478644 -0.481955023 1.66873727 0.401025905 0.482975863 1.66879185 -1.25735176 -1.26263564 -0.0614096217 -0.703054702 -1.61156033 -0.295873533 0.00268472886 -1.78296018 -0.000100942283 0.564620956 -1.55776785 0.658419936 0.83042871 -0.890305443 1.30257383 0.853009508 0.0379214236 1.5652126 0.827744155 0.892654592 1.30267464 -1.25735176 -1.26263564 -0.0614096217 -0.796904207 -1.50710318 -0.522051143 -0.0417239403 -1.71513951 -0.485293422 0.683981733 -1.64621616 0.0331027652 1.13195351 -1.16311489 0.73810527 1.24838378 -0.339345136 1.22692172 1.1736774 0.552024695 1.22339855 1.12844589 1.16643478 0.738237038 -1.25735176 -1.26263564 -0.0614096217 -0.94628165 -1.35079586 -0.677388594 -0.21513516 -1.52212792 -0.903215123 0.625959063 -1.55760424 -0.600831757 1.26114863 -1.2588506 0.0612668723 1.52695631 -0.591388135 0.705420778 1.47628374 0.263277402 0.964481865 1.3156636 0.98208722 0.695333112 1.25735176 1.26263564 0.0614096217 -1.25735176 -1.26263564 -0.0614096217 -1.12844571 -1.16643469 -0.738237168 -0.491148722 -1.23330961 -1.19024133 0.399386368 -1.30542243 -1.14687282 1.19834531 -1.16293771 -0.624898874 1.64631708 -0.679836447 0.0801036536 1.68949399 0.0703719764 0.565342361 1.47943295 0.825818332 0.55520846 1.25735176 1.26263564 0.0614096217 -1.25735176 -1.26263564 -0.0614096217 -1.31566355 -0.982087008 -0.695333201 -0.827744003 -0.892654605 -1.30267481 0.0387572608 -0.92806311 -1.5218906 0.953104784 -0.88997808 -1.21592937 1.5882944 -0.591224518 -0.553830777 1.78084872 0.0026766137 0.0867453819 1.59482149 0.721418676 0.339195719 1.25735176 1.26263564 0.0614096217 -1.25735176 -1.26263564 -0.0614096217 -1.47943295 -0.825818072 -0.555208506 -1.17367746 -0.552024499 -1.22339865 -0.401025697 -0.482975867 -1.66879202 0.562762707 -0.481527352 -1.62184569 1.36172171 -0.339042711 -1.09987175 1.73644011 0.0704972224 -0.398447002 1.64426233 0.684782204 0.0801809139 1.25735176 1.26263564 0.0614096217 -1.25735176 -1.26263564 -0.0614096217 -1.59482146 -0.721418448 -0.339195718 -1.4762838 -0.263277207 -0.96448196 -0.853009536 -0.0379211957 -1.5652127 0.0867451182 0.000231554917 -1.78085066 1.00109266 0.0383165426 -1.47488953 1.56302889 0.263508807 -0.816368704 1.62022855 0.721486464 -0.182403294 1.25735176 1.26263564 0.0614096217 -1.25735176 -1.26263564 -0.0614096217 -1.6442623 -0.684781976 -0.0801808527 -1.68949405 -0.0703717811 -0.565342318 -1.24838381 0.339345363 -1.22692172 -0.402478632 0.48195523 -1.66873727 0.561309771 0.48340372 -1.62179094 1.28701536 0.552327087 -1.10339482 1.52637907 0.825943578 -0.408580857 1.25735176 1.26263564 0.0614096217 -1.25735176 -1.26263564 -0.0614096217 -1.62022849 -0.721486269 0.182403412 -1.78084879 -0.00267641849 -0.0867452749 -1.52695641 0.591388428 -0.705420691 -0.83042867 0.890305618 -1.30257374 0.109325969 0.928458359 -1.51821171 0.950420111 0.89298206 -1.2158283 1.37700166 0.982250869 -0.563918261 1.25735176 1.26263564 0.0614096217 -1.25735176 -1.26263564 -0.0614096217 -1.52637898 -0.825943415 0.408581 -1.73644012 -0.0704970922 0.398447186 -1.64631712 0.679836674 -0.0801035113 -1.13195341 1.163115 -0.738105127 -0.286048273 1.30572489 -1.17992073 0.604486715 1.2336121 -1.13655213 1.19483763 1.166612 -0.624766832 1.25735176 1.26263564 0.0614096217 -1.25735176 -1.26263564 -0.0614096217 -1.37700152 -0.982250755 0.563918406 -1.56302884 -0.263508741 0.816368891 -1.58829438 0.591224681 0.553831008 -1.26114853 1.25885071 -0.0612667113 -0.564620803 1.55776789 -0.658419744 0.301880378 1.52235939 -0.877635443 1.00761984 1.35095964 -0.58186291 1.25735176 1.26263564 0.0614096217 -1.25735176 -1.26263564 -0.0614096217 -1.19483747 -1.16661192 0.624766979 -1.28701527 -0.552327054 1.10339501 -1.36172162 0.339042809 1.09987203 -1.19834521 1.16293782 0.624899017 -0.683981512 1.64621613 -0.0331026102 0.0886701976 1.71526475 -0.478495935 0.843850497 1.50722853 -0.441738212 1.25735176 1.26263564 0.0614096217 -0.950419977 -0.892982073 1.21582849 -1.00109254 -0.0383164773 1.47488972 -0.953104614 0.889978125 1.21592947 -0.625958772 1.55760414 0.600831818 -0.00268453903 1.78296012 0.000101061869 0.728461983 1.61162815 -0.225725447 1.25735176 1.26263564 0.0614096217 -0.561309581 -0.483403724 1.62179114 -0.562762499 0.481527365 1.6218457 -0.399386071 1.30542233 1.14687274 0.0417241355 1.71513944 0.485293431 0.679021151 1.64826462 0.0332893492 1.25735176 1.26263564 0.0614096217 -0.086744898 -0.000231554587 1.78085067 -0.0387569916 0.928063045 1.52189043 0.215135359 1.52212786 0.90321504 0.703054961 1.61156033 0.295873568 1.25735176 1.26263564 0.0614096217 0.401025905 0.482975863 1.66879185 0.491148894 1.23330958 1.19024115 0.796904437 1.50710322 0.522051108 1.25735176 1.26263564 0.0614096217 0.827744155 0.892654592 1.30267464 0.946281866 1.35079591 0.677388513 1.25735176 1.26263564 0.0614096217 1.12844589 1.16643478 0.738237038 1.25735176 1.26263564 0.0614096217</float_array>
        <technique_common><accessor source="#vfx_kurp_1080-mesh-positions-array" count="151" stride="3"><param name="X" type="float"/><param name="Y" type="float"/><param name="Z" type="float"/></accessor></technique_common>
      </source>
      <source id="vfx_kurp_1080-mesh-normals">
        <float_array id="vfx_kurp_1080-mesh-normals-array" count="453">-0.705203914 -0.708167463 -0.0344424723 -0.554381424 -0.757046513 0.345748194 -0.664985212 -0.648138319 0.371094849 -0.525201289 -0.492380682 0.694064025 -0.705203914 -0.708167463 -0.0344424723 -0.457630328 -0.849366486 0.262965882 -0.3279551 -0.686602993 0.648861914 -0.309119267 -0.265234874 0.913288421 -0.705203914 -0.708167463 -0.0344424723 -0.389461566 -0.911043295 0.13535067 -0.155413396 -0.851242506 0.501231356 -0.0546843633 -0.515769052 0.854980646 -0.0486521028 -0.000129771777 0.998815777 -0.705203914 -0.708167463 -0.0344424723 -0.36025308 -0.932687258 -0.0176691221 -0.0338439667 -0.961234338 0.273647828 0.167883223 -0.7281434 0.664546772 0.22573602 -0.270311384 0.935935364 0.218890893 0.264994178 0.939076601 -0.705203914 -0.708167463 -0.0344424723 -0.374451649 -0.911003256 -0.172797655 0.0182451825 -0.999833255 0.000758746917 0.324699831 -0.870025763 0.370978694 0.465757878 -0.499340552 0.730567322 0.473325607 0.0144600164 0.880768856 0.455253183 0.492194016 0.741949857 -0.705203914 -0.708167463 -0.0344424723 -0.429895714 -0.849292473 -0.306417967 -0.00707604097 -0.961162921 -0.275890866 0.391891479 -0.919815866 0.0189694914 0.634872473 -0.652349656 0.413976895 0.695893339 -0.197914319 0.690334979 0.652499342 0.297971723 0.696747774 0.62576255 0.648033626 0.434135521 -0.705203914 -0.708167463 -0.0344424723 -0.518144331 -0.756949824 -0.398187665 -0.105952594 -0.851110541 -0.514183717 0.359228863 -0.869933634 -0.337890659 0.707333415 -0.706044379 0.0343623962 0.852709943 -0.339796708 0.396766872 0.825041097 0.133332221 0.549117206 0.736366357 0.539125434 0.408788888 0.705203912 0.708167465 0.0344424722 -0.705203914 -0.708167463 -0.0344424723 -0.62576253 -0.648033629 -0.434135545 -0.263331523 -0.686430567 -0.677841859 0.231684453 -0.727973126 -0.645273153 0.672109285 -0.652250257 -0.35048354 0.919901554 -0.3895868 0.0447577393 0.946610437 0.0233403428 0.321533683 0.833117364 0.446805515 0.326006578 0.705203912 0.708167465 0.0344424722 -0.705203914 -0.708167463 -0.0344424723 -0.736366348 -0.539125446 -0.408788888 -0.455253202 -0.492193997 -0.741949858 0.0286758708 -0.515546589 -0.856381579 0.534562659 -0.499156943 -0.681971488 0.8872389 -0.339704545 -0.312102478 0.998699593 -0.015258573 0.0486446149 0.901286171 0.385128677 0.198391379 0.705203912 0.708167465 0.0344424722 -0.705203914 -0.708167463 -0.0344424723 -0.833117401 -0.44680547 -0.326006548 -0.652499417 -0.297971717 -0.696747706 -0.2188908 -0.264994057 -0.939076657 0.315633648 -0.2700715 -0.909635523 0.759694533 -0.197744137 -0.619484845 0.973378444 0.023411705 -0.228005039 0.930494648 0.363484705 0.0453715818 0.705203912 0.708167465 0.0344424722 -0.705203914 -0.708167463 -0.0344424723 -0.901286191 -0.385128655 -0.198391335 -0.825041133 -0.133332262 -0.549117143 -0.473325624 -0.0144598688 -0.880768849 0.0486522986 0.000129924693 -0.998815767 0.556685958 0.0146824101 -0.830593264 0.874501905 0.133464188 -0.466297897 0.91629605 0.385168747 -0.109756933 0.705203912 0.708167465 0.0344424722 -0.705203914 -0.708167463 -0.0344424723 -0.93049466 -0.363484679 -0.045371539 -0.946610467 -0.0233403847 -0.32153359 -0.695893316 0.197914481 -0.690334955 -0.225735859 0.270311509 -0.935935366 0.309119386 0.265234963 -0.913288355 0.717123 0.29814417 -0.629956075 0.860852016 0.446879526 -0.243377271 0.705203912 0.708167465 0.0344424722 -0.705203914 -0.708167463 -0.0344424723 -0.916296056 -0.385168719 0.10975699 -0.998699596 0.015258573 -0.0486445573 -0.852709884 0.339796857 -0.396766871 -0.465757818 0.499340743 -0.73056723 0.0546845696 0.515769196 -0.854980546 0.52520127 0.492380701 -0.694064025 0.772603409 0.539222141 -0.335146916 0.705203912 0.708167465 0.0344424722 -0.705203914 -0.708167463 -0.0344424723 -0.860852018 -0.446879494 0.243377323 -0.973378429 -0.0234117889 0.228005094 -0.919901508 0.389586923 -0.0447576371 -0.63487229 0.65234984 -0.413976886 -0.167883127 0.728143522 -0.664546663 0.327955052 0.686603023 -0.648861905 0.664985219 0.648138312 -0.371094849 0.705203912 0.708167465 0.0344424722 -0.705203914 -0.708167463 -0.0344424723 -0.772603384 -0.539222159 0.335146945 -0.874501871 -0.133464266 0.466297937 -0.887238829 0.339704658 0.312102557 -0.70733323 0.706044568 -0.0343623455 -0.324699723 0.870025848 -0.370978591 0.155413315 0.851242541 -0.501231322 0.554381396 0.757046522 -0.34574822 0.705203912 0.708167465 0.0344424722 -0.705203914 -0.708167463 -0.0344424723 -0.664985212 -0.648138319 0.371094849 -0.71712297 -0.298144217 0.629956088 -0.759694429 0.197744157 0.619484965 -0.672109052 0.65225045 0.350483627 -0.391891361 0.919815918 -0.0189693864 0.0338439656 0.961234346 -0.273647801 0.457630331 0.849366493 -0.262965854 0.705203912 0.708167465 0.0344424722 -0.525201289 -0.492380682 0.694064025 -0.556685858 -0.0146823468 0.830593333 -0.534562363 0.499157118 0.681971592 -0.359228604 0.869933674 0.337890828 -0.0182451839 0.999833255 -0.000758718342 0.389461541 0.91104331 -0.135350641 0.705203912 0.708167465 0.0344424722 -0.309119267 -0.265234874 0.913288421 -0.315633419 0.27007166 0.909635555 -0.231684326 0.727973164 0.645273156 0.00707591052 0.961162896 0.275890954 0.360253079 0.932687258 0.0176691475 0.705203912 0.708167465 0.0344424722 -0.0486521028 -0.000129771777 0.998815777 -0.0286757206 0.515546692 0.856381522 0.10595255 0.851110508 0.51418378 0.374451696 0.91100323 0.17279769 0.705203912 0.708167465 0.0344424722 0.218890893 0.264994178 0.939076601 0.263331479 0.686430526 0.677841918 0.429895729 0.849292445 0.306418025 0.705203912 0.708167465 0.0344424722 0.455253183 0.492194016 0.741949857 0.518144362 0.756949815 0.398187642 0.705203912 0.708167465 0.0344424722 0.62576255 0.648033626 0.434135521 0.705203912 0.708167465 0.0344424722</float_array>
        <technique_common><accessor source="#vfx_kurp_1080-mesh-normals-array" count="151" stride="3"><param name="X" type="float"/><param name="Y" type="float"/><param name="Z" type="float"/></accessor></technique_common>
      </source>
      <source id="vfx_kurp_1080-mesh-uv0">
        <float_array id="vfx_kurp_1080-mesh-uv0-array" count="302">1.8125 -1 1.8125 -0.625 2 -0.625 2 -0.25 1.625 -1 1.625 -0.625 1.8125 -0.25 2 0.125 1.4375 -1 1.4375 -0.625 1.625 -0.25 1.8125 0.125 2 0.5 1.25 -1 1.25 -0.625 1.4375 -0.25 1.625 0.125 1.8125 0.5 2 0.875 1.0625 -1 1.0625 -0.625 1.25 -0.25 1.4375 0.125 1.625 0.5 1.8125 0.875 2 1.25 0.875 -1 0.875 -0.625 1.0625 -0.25 1.25 0.125 1.4375 0.5 1.625 0.875 1.8125 1.25 2 1.625 0.6875 -1 0.6875 -0.625 0.875 -0.25 1.0625 0.125 1.25 0.5 1.4375 0.875 1.625 1.25 1.8125 1.625 1.8125 2 0.5 -1 0.5 -0.625 0.6875 -0.25 0.875 0.125 1.0625 0.5 1.25 0.875 1.4375 1.25 1.625 1.625 1.625 2 0.3125 -1 0.3125 -0.625 0.5 -0.25 0.6875 0.125 0.875 0.5 1.0625 0.875 1.25 1.25 1.4375 1.625 1.4375 2 0.125 -1 0.125 -0.625 0.3125 -0.25 0.5 0.125 0.6875 0.5 0.875 0.875 1.0625 1.25 1.25 1.625 1.25 2 -0.0625 -1 -0.0625 -0.625 0.125 -0.25 0.3125 0.125 0.5 0.5 0.6875 0.875 0.875 1.25 1.0625 1.625 1.0625 2 -0.25 -1 -0.25 -0.625 -0.0625 -0.25 0.125 0.125 0.3125 0.5 0.5 0.875 0.6875 1.25 0.875 1.625 0.875 2 -0.4375 -1 -0.4375 -0.625 -0.25 -0.25 -0.0625 0.125 0.125 0.5 0.3125 0.875 0.5 1.25 0.6875 1.625 0.6875 2 -0.625 -1 -0.625 -0.625 -0.4375 -0.25 -0.25 0.125 -0.0625 0.5 0.125 0.875 0.3125 1.25 0.5 1.625 0.5 2 -0.8125 -1 -0.8125 -0.625 -0.625 -0.25 -0.4375 0.125 -0.25 0.5 -0.0625 0.875 0.125 1.25 0.3125 1.625 0.3125 2 -1 -1 -1 -0.625 -0.8125 -0.25 -0.625 0.125 -0.4375 0.5 -0.25 0.875 -0.0625 1.25 0.125 1.625 0.125 2 -1 -0.25 -0.8125 0.125 -0.625 0.5 -0.4375 0.875 -0.25 1.25 -0.0625 1.625 -0.0625 2 -1 0.125 -0.8125 0.5 -0.625 0.875 -0.4375 1.25 -0.25 1.625 -0.25 2 -1 0.5 -0.8125 0.875 -0.625 1.25 -0.4375 1.625 -0.4375 2 -1 0.875 -0.8125 1.25 -0.625 1.625 -0.625 2 -1 1.25 -0.8125 1.625 -0.8125 2 -1 1.625 -1 2</float_array>
        <technique_common><accessor source="#vfx_kurp_1080-mesh-uv0-array" count="151" stride="2"><param name="S" type="float"/><param name="T" type="float"/></accessor></technique_common>
      </source>
      <vertices id="vfx_kurp_1080-mesh-vertices"><input semantic="POSITION" source="#vfx_kurp_1080-mesh-positions"/></vertices>
      <triangles material="PreviewMaterial" count="224">
        <input semantic="VERTEX" source="#vfx_kurp_1080-mesh-vertices" offset="0"/>
        <input semantic="NORMAL" source="#vfx_kurp_1080-mesh-normals" offset="1"/>
        <input semantic="TEXCOORD" source="#vfx_kurp_1080-mesh-uv0" offset="2" set="0"/>
        <p>0 0 0 1 1 1 2 2 2 3 3 3 2 2 2 1 1 1 4 4 4 5 5 5 1 1 1 6 6 6 1 1 1 5 5 5 1 1 1 6 6 6 3 3 3 7 7 7 3 3 3 6 6 6 8 8 8 9 9 9 5 5 5 10 10 10 5 5 5 9 9 9 5 5 5 10 10 10 6 6 6 11 11 11 6 6 6 10 10 10 6 6 6 11 11 11 7 7 7 12 12 12 7 7 7 11 11 11 13 13 13 14 14 14 9 9 9 15 15 15 9 9 9 14 14 14 9 9 9 15 15 15 10 10 10 16 16 16 10 10 10 15 15 15 10 10 10 16 16 16 11 11 11 17 17 17 11 11 11 16 16 16 11 11 11 17 17 17 12 12 12 18 18 18 12 12 12 17 17 17 19 19 19 20 20 20 14 14 14 21 21 21 14 14 14 20 20 20 14 14 14 21 21 21 15 15 15 22 22 22 15 15 15 21 21 21 15 15 15 22 22 22 16 16 16 23 23 23 16 16 16 22 22 22 16 16 16 23 23 23 17 17 17 24 24 24 17 17 17 23 23 23 17 17 17 24 24 24 18 18 18 25 25 25 18 18 18 24 24 24 26 26 26 27 27 27 20 20 20 28 28 28 20 20 20 27 27 27 20 20 20 28 28 28 21 21 21 29 29 29 21 21 21 28 28 28 21 21 21 29 29 29 22 22 22 30 30 30 22 22 22 29 29 29 22 22 22 30 30 30 23 23 23 31 31 31 23 23 23 30 30 30 23 23 23 31 31 31 24 24 24 32 32 32 24 24 24 31 31 31 24 24 24 32 32 32 25 25 25 33 33 33 25 25 25 32 32 32 34 34 34 35 35 35 27 27 27 36 36 36 27 27 27 35 35 35 27 27 27 36 36 36 28 28 28 37 37 37 28 28 28 36 36 36 28 28 28 37 37 37 29 29 29 38 38 38 29 29 29 37 37 37 29 29 29 38 38 38 30 30 30 39 39 39 30 30 30 38 38 38 30 30 30 39 39 39 31 31 31 40 40 40 31 31 31 39 39 39 31 31 31 40 40 40 32 32 32 41 41 41 32 32 32 40 40 40 32 32 32 41 41 41 33 33 33 42 42 42 33 33 33 41 41 41 43 43 43 44 44 44 35 35 35 45 45 45 35 35 35 44 44 44 35 35 35 45 45 45 36 36 36 46 46 46 36 36 36 45 45 45 36 36 36 46 46 46 37 37 37 47 47 47 37 37 37 46 46 46 37 37 37 47 47 47 38 38 38 48 48 48 38 38 38 47 47 47 38 38 38 48 48 48 39 39 39 49 49 49 39 39 39 48 48 48 39 39 39 49 49 49 40 40 40 50 50 50 40 40 40 49 49 49 40 40 40 50 50 50 41 41 41 51 51 51 41 41 41 50 50 50 52 52 52 53 53 53 44 44 44 54 54 54 44 44 44 53 53 53 44 44 44 54 54 54 45 45 45 55 55 55 45 45 45 54 54 54 45 45 45 55 55 55 46 46 46 56 56 56 46 46 46 55 55 55 46 46 46 56 56 56 47 47 47 57 57 57 47 47 47 56 56 56 47 47 47 57 57 57 48 48 48 58 58 58 48 48 48 57 57 57 48 48 48 58 58 58 49 49 49 59 59 59 49 49 49 58 58 58 49 49 49 59 59 59 50 50 50 60 60 60 50 50 50 59 59 59 61 61 61 62 62 62 53 53 53 63 63 63 53 53 53 62 62 62 53 53 53 63 63 63 54 54 54 64 64 64 54 54 54 63 63 63 54 54 54 64 64 64 55 55 55 65 65 65 55 55 55 64 64 64 55 55 55 65 65 65 56 56 56 66 66 66 56 56 56 65 65 65 56 56 56 66 66 66 57 57 57 67 67 67 57 57 57 66 66 66 57 57 57 67 67 67 58 58 58 68 68 68 58 58 58 67 67 67 58 58 58 68 68 68 59 59 59 69 69 69 59 59 59 68 68 68 70 70 70 71 71 71 62 62 62 72 72 72 62 62 62 71 71 71 62 62 62 72 72 72 63 63 63 73 73 73 63 63 63 72 72 72 63 63 63 73 73 73 64 64 64 74 74 74 64 64 64 73 73 73 64 64 64 74 74 74 65 65 65 75 75 75 65 65 65 74 74 74 65 65 65 75 75 75 66 66 66 76 76 76 66 66 66 75 75 75 66 66 66 76 76 76 67 67 67 77 77 77 67 67 67 76 76 76 67 67 67 77 77 77 68 68 68 78 78 78 68 68 68 77 77 77 79 79 79 80 80 80 71 71 71 81 81 81 71 71 71 80 80 80 71 71 71 81 81 81 72 72 72 82 82 82 72 72 72 81 81 81 72 72 72 82 82 82 73 73 73 83 83 83 73 73 73 82 82 82 73 73 73 83 83 83 74 74 74 84 84 84 74 74 74 83 83 83 74 74 74 84 84 84 75 75 75 85 85 85 75 75 75 84 84 84 75 75 75 85 85 85 76 76 76 86 86 86 76 76 76 85 85 85 76 76 76 86 86 86 77 77 77 87 87 87 77 77 77 86 86 86 88 88 88 89 89 89 80 80 80 90 90 90 80 80 80 89 89 89 80 80 80 90 90 90 81 81 81 91 91 91 81 81 81 90 90 90 81 81 81 91 91 91 82 82 82 92 92 92 82 82 82 91 91 91 82 82 82 92 92 92 83 83 83 93 93 93 83 83 83 92 92 92 83 83 83 93 93 93 84 84 84 94 94 94 84 84 84 93 93 93 84 84 84 94 94 94 85 85 85 95 95 95 85 85 85 94 94 94 85 85 85 95 95 95 86 86 86 96 96 96 86 86 86 95 95 95 97 97 97 98 98 98 89 89 89 99 99 99 89 89 89 98 98 98 89 89 89 99 99 99 90 90 90 100 100 100 90 90 90 99 99 99 90 90 90 100 100 100 91 91 91 101 101 101 91 91 91 100 100 100 91 91 91 101 101 101 92 92 92 102 102 102 92 92 92 101 101 101 92 92 92 102 102 102 93 93 93 103 103 103 93 93 93 102 102 102 93 93 93 103 103 103 94 94 94 104 104 104 94 94 94 103 103 103 94 94 94 104 104 104 95 95 95 105 105 105 95 95 95 104 104 104 106 106 106 107 107 107 98 98 98 108 108 108 98 98 98 107 107 107 98 98 98 108 108 108 99 99 99 109 109 109 99 99 99 108 108 108 99 99 99 109 109 109 100 100 100 110 110 110 100 100 100 109 109 109 100 100 100 110 110 110 101 101 101 111 111 111 101 101 101 110 110 110 101 101 101 111 111 111 102 102 102 112 112 112 102 102 102 111 111 111 102 102 102 112 112 112 103 103 103 113 113 113 103 103 103 112 112 112 103 103 103 113 113 113 104 104 104 114 114 114 104 104 104 113 113 113 115 115 115 116 116 116 107 107 107 117 117 117 107 107 107 116 116 116 107 107 107 117 117 117 108 108 108 118 118 118 108 108 108 117 117 117 108 108 108 118 118 118 109 109 109 119 119 119 109 109 109 118 118 118 109 109 109 119 119 119 110 110 110 120 120 120 110 110 110 119 119 119 110 110 110 120 120 120 111 111 111 121 121 121 111 111 111 120 120 120 111 111 111 121 121 121 112 112 112 122 122 122 112 112 112 121 121 121 112 112 112 122 122 122 113 113 113 123 123 123 113 113 113 122 122 122 116 116 116 124 124 124 117 117 117 125 125 125 117 117 117 124 124 124 117 117 117 125 125 125 118 118 118 126 126 126 118 118 118 125 125 125 118 118 118 126 126 126 119 119 119 127 127 127 119 119 119 126 126 126 119 119 119 127 127 127 120 120 120 128 128 128 120 120 120 127 127 127 120 120 120 128 128 128 121 121 121 129 129 129 121 121 121 128 128 128 121 121 121 129 129 129 122 122 122 130 130 130 122 122 122 129 129 129 124 124 124 131 131 131 125 125 125 132 132 132 125 125 125 131 131 131 125 125 125 132 132 132 126 126 126 133 133 133 126 126 126 132 132 132 126 126 126 133 133 133 127 127 127 134 134 134 127 127 127 133 133 133 127 127 127 134 134 134 128 128 128 135 135 135 128 128 128 134 134 134 128 128 128 135 135 135 129 129 129 136 136 136 129 129 129 135 135 135 131 131 131 137 137 137 132 132 132 138 138 138 132 132 132 137 137 137 132 132 132 138 138 138 133 133 133 139 139 139 133 133 133 138 138 138 133 133 133 139 139 139 134 134 134 140 140 140 134 134 134 139 139 139 134 134 134 140 140 140 135 135 135 141 141 141 135 135 135 140 140 140 137 137 137 142 142 142 138 138 138 143 143 143 138 138 138 142 142 142 138 138 138 143 143 143 139 139 139 144 144 144 139 139 139 143 143 143 139 139 139 144 144 144 140 140 140 145 145 145 140 140 140 144 144 144 142 142 142 146 146 146 143 143 143 147 147 147 143 143 143 146 146 146 143 143 143 147 147 147 144 144 144 148 148 148 144 144 144 147 147 147 146 146 146 149 149 149 147 147 147 150 150 150 147 147 147 149 149 149</p>
      </triangles>
    </mesh></geometry>
  </library_geometries>
  <library_visual_scenes>
    <visual_scene id="Scene" name="Scene">
      <node id="vfx_kurp_1080" name="vfx_kurp_1080" type="NODE">
        <instance_geometry url="#vfx_kurp_1080-mesh"><bind_material><technique_common><instance_material symbol="PreviewMaterial" target="#PreviewMaterial"><bind_vertex_input semantic="UVSET0" input_semantic="TEXCOORD" input_set="0"/></instance_material></technique_common></bind_material></instance_geometry>
      </node>
    </visual_scene>
  </library_visual_scenes>
  <scene><instance_visual_scene url="#Scene"/></scene>
</COLLADA>
