<?xml version="1.0" encoding="utf-8"?>
<COLLADA xmlns="http://www.collada.org/2005/11/COLLADASchema" version="1.4.1">
  <asset>
    <contributor><authoring_tool>Morrobroom Kurpulio VFX preview converter</authoring_tool></contributor>
    <unit name="unit" meter="1"/>
    <up_axis>Z_UP</up_axis>
  </asset>
  <library_images>
    <image id="VFXTexture" name="darkmap_newgen-1.dds">
      <init_from>../../../Textures/Kurp/darkmap_newgen-1.dds</init_from>
    </image>
  </library_images>
  <library_effects>
    <effect id="PreviewEffect">
      <profile_COMMON>
        <newparam sid="VFXTexture-surface">
          <surface type="2D"><init_from>VFXTexture</init_from></surface>
        </newparam>
        <newparam sid="VFXTexture-sampler">
          <sampler2D><source>VFXTexture-surface</source></sampler2D>
        </newparam>
        <technique sid="common"><phong>
          <emission><color>0.08 0.08 0.08 1</color></emission>
          <ambient><color>0.2 0.2 0.2 1</color></ambient>
          <diffuse><texture texture="VFXTexture-sampler" texcoord="UVSET0"/></diffuse>
          <specular><color>0.15 0.15 0.15 1</color></specular>
          <shininess><float>8</float></shininess>
          <transparent opaque="A_ONE"><texture texture="VFXTexture-sampler" texcoord="UVSET0"/></transparent>
          <transparency><float>1</float></transparency>
        </phong></technique>
      </profile_COMMON>
      <extra><technique profile="GOOGLEEARTH"><double_sided>1</double_sided></technique></extra>
    </effect>
  </library_effects>
  <library_materials><material id="PreviewMaterial" name="PreviewMaterial"><instance_effect url="#PreviewEffect"/></material></library_materials>
  <library_geometries>
    <geometry id="vfx_kurp_0411-mesh" name="vfx_kurp_0411"><mesh>
      <source id="vfx_kurp_0411-mesh-positions">
        <float_array id="vfx_kurp_0411-mesh-positions-array" count="468">-0.464972019 -0.199731588 -14.1682549 0.150191903 -0.1594221 -14.287621 -0.6242432 0.094291091 -14.6664348 0.0938381553 0.167243242 -14.787735 0.757164359 -0.273076952 -14.4043179 0.760032177 0.070479691 -14.8962121 1.32652473 -0.513239443 -14.5189362 1.43856919 -0.190053284 -15.0118833 1.8190999 -0.887329459 -14.6313243 1.99260056 -0.578004062 -15.1152821 2.22541022 -1.35382783 -14.7420273 2.45842981 -1.06994462 -15.2164879 2.51872408 -1.89869714 -14.8510051 2.83013248 -1.7040723 -15.3255 -0.305701375 -0.493754625 -13.6700749 -1.05482751 -0.37898308 -14.0462093 -0.852356672 -0.630708933 -13.5406008 0.206545293 -0.486087263 -13.7875071 0.754296899 -0.61663413 -13.9124236 1.21447992 -0.836425245 -14.0259905 1.64559889 -1.19665468 -14.1473665 1.99239099 -1.63771087 -14.2675667 2.20731604 -2.09332216 -14.3765101 2.33323359 -2.63738877 -14.4941211 2.68568695 -2.49504447 -14.9583564 3.03814101 -2.35270017 -15.4225917 -1.57581282 -0.706388712 -13.9207349 -1.29958919 -0.882599115 -13.4180918 -2.0030601 -1.14799422 -13.7918572 -1.67938077 -1.22810358 -13.2930436 -2.2941792 -1.68876135 -13.6587424 -1.97091115 -1.70831949 -13.1536531 -2.42843986 -2.28586614 -13.5210385 -2.10808808 -2.19936776 -13.0211463 -2.39532208 -2.89557892 -13.3783393 -2.11118942 -2.70662677 -12.8848157 -2.18986237 -3.46974778 -13.230021 -1.97342205 -3.19202578 -12.7441978 -1.82286072 -3.95551372 -13.0754213 -1.70081395 -3.61208689 -12.5988064 -1.32400614 -4.30149829 -12.9138465 -1.31555539 -3.92328393 -12.4481406 -0.742231071 -4.46559513 -12.7445655 -0.856784284 -4.08905554 -12.2916899 -1.33245885 -4.67971265 -13.3795538 -1.94490749 -4.2989409 -13.5520377 -2.40630269 -3.74747014 -13.7158442 -2.67945457 -3.08453107 -13.8718629 -2.74879164 -2.3723647 -14.0209308 -2.61744744 -1.6692034 -14.1638317 -2.32673907 -1.06788486 -14.2906694 -1.85203671 -0.530178487 -14.423378 -1.25729826 -0.127257586 -14.5518165 -0.142622352 -4.42307353 -12.5667901 -0.378157496 -4.08722627 -12.1289191 0.400203109 -4.17346787 -12.3796377 0.0579119325 -3.91637135 -11.9592361 0.811730146 -3.74473286 -12.1820726 0.388819098 -3.59968328 -11.7819386 1.00850379 -3.18911541 -11.9716759 0.525844574 -3.24891615 -11.6203015 0.955208302 -2.60917479 -11.7467666 0.515748382 -2.89471829 -11.4546361 0.644856334 -2.12598217 -11.5035353 0.356046081 -2.60329413 -11.2827144 0.14377445 -1.87027609 -11.2366204 0.0857559443 -2.4517411 -11.1004865 -0.396027267 -1.93786114 -10.9374461 -0.127458572 -2.47434461 -10.9449363 -0.664597213 -1.40137812 -10.9299545 0.201793313 -1.28881136 -11.3727536 0.93366766 -1.6486702 -11.7243555 1.39466894 -2.32363307 -12.038897 1.49116302 -3.12931466 -12.3230495 1.23464084 -3.88978243 -12.5822067 0.742495894 -4.43056297 -12.8000393 0.0929104686 -4.75892079 -13.0046597 -0.627679646 -4.84213436 -13.1974411 0.464973807 -5.18758178 -14.1682549 -0.150190473 -5.22789145 -14.287621 0.624244452 -5.48160481 -14.6664348 -0.0938369036 -5.55455732 -14.787735 -0.757163465 -5.11423659 -14.4043179 -0.760030925 -5.45779359 -14.8962121 -1.32652339 -4.87407446 -14.5189376 -1.43856794 -5.19726062 -15.0118833 -1.81909847 -4.49998498 -14.6313243 -1.99259895 -4.80930984 -15.1152835 -2.22540915 -4.0334866 -14.7420273 -2.45842838 -4.31736946 -15.2164879 -2.51872337 -3.48861694 -14.8510051 -2.83013195 -3.68324196 -15.3255 0.305702448 -4.89355874 -13.6700749 1.05482876 -5.00833011 -14.0462093 0.852357745 -4.75660479 -13.5406008 -0.206543863 -4.90122628 -13.7875071 -0.754295647 -4.77067995 -13.9124236 -1.21447867 -4.55088866 -14.0259905 -1.64559799 -4.1906594 -14.1473665 -1.99238992 -3.74960339 -14.2675681 -2.20731497 -3.29399192 -14.3765101 -2.33323234 -2.74992532 -14.4941211 -2.68568623 -2.89226979 -14.9583564 -3.0381403 -3.03461409 -15.4225917 1.57581425 -4.68092465 -13.9207349 1.29958999 -4.50471389 -13.4180918 2.00306082 -4.23931932 -13.7918572 1.67938185 -4.15920997 -13.2930436 2.29417992 -3.69855201 -13.6587424 1.97091186 -3.6789937 -13.1536531 2.42844057 -3.10144687 -13.5210385 2.10808897 -3.1879456 -13.0211463 2.3953228 -2.49173427 -13.3783393 2.11119032 -2.68068659 -12.8848157 2.18986273 -1.91756523 -13.230021 1.97342205 -2.19528741 -12.7441978 1.82286072 -1.43179929 -13.0754213 1.70081413 -1.77522647 -12.5988064 1.32400632 -1.08581489 -12.9138465 1.31555593 -1.4640297 -12.4481406 0.74223125 -0.92171824 -12.7445655 0.856784463 -1.29825792 -12.2916899 1.33245885 -0.70760107 -13.3795538 1.94490767 -1.08837211 -13.5520377 2.40630305 -1.63984323 -13.7158442 2.67945457 -2.30278194 -13.8718629 2.74879146 -3.01494849 -14.0209308 2.61744833 -3.71810961 -14.1638317 2.32674015 -4.31942832 -14.2906709 1.85203743 -4.85713506 -14.423378 1.25729942 -5.2600565 -14.5518179 0.14262253 -0.964240372 -12.5667901 0.378157496 -1.30008736 -12.1289191 -0.400202572 -1.21384594 -12.3796377 -0.057911396 -1.47094229 -11.9592361 -0.811729789 -1.64258122 -12.1820726 -0.388819098 -1.7876308 -11.7819386 -1.00850308 -2.19819868 -11.9716759 -0.525844038 -2.13839775 -11.6203008 -0.955207407 -2.77813929 -11.7467659 -0.515747845 -2.49259543 -11.4546361 -0.644855976 -3.26133192 -11.5035353 -0.356045544 -2.78401977 -11.2827151 -0.143773913 -3.51703763 -11.2366204 -0.085755229 -2.9355728 -11.1004858 0.396028161 -3.4494524 -10.9374461 0.127459466 -2.91296911 -10.9449363 0.664598107 -3.98593569 -10.9299545 -0.20179224 -4.09850264 -11.3727543 -0.933666587 -3.73864388 -11.7243562 -1.39466777 -3.06368101 -12.038897 -1.49116221 -2.2579996 -12.3230495 -1.23464048 -1.49753165 -12.5822067 -0.742495716 -0.956750572 -12.8000393 -0.0929102898 -0.628392935 -13.0046597 0.627679467 -0.545179009 -13.1974411</float_array>
        <technique_common><accessor source="#vfx_kurp_0411-mesh-positions-array" count="156" stride="3"><param name="X" type="float"/><param name="Y" type="float"/><param name="Z" type="float"/></accessor></technique_common>
      </source>
      <source id="vfx_kurp_0411-mesh-normals">
        <float_array id="vfx_kurp_0411-mesh-normals-array" count="468">-0.0521048976 0.852515396 0.520098625 0.151479768 0.834843051 0.529236205 -0.083233358 0.840298429 0.535696516 0.122090673 0.830303655 0.543773582 0.33688643 0.770990776 0.540444961 0.304449261 0.774072589 0.555087627 0.502201019 0.665774999 0.551849423 0.475275094 0.674275331 0.565213555 0.633523291 0.528073673 0.565496628 0.603832972 0.545600961 0.581124198 0.723018583 0.375110833 0.580117223 0.69660349 0.399899609 0.59567095 0.778239954 0.20243099 0.594444504 0.760455504 0.227707778 0.608158362 -0.0129920971 0.866918265 0.498280972 -0.259769652 0.818338167 0.512681551 -0.230361591 0.839380126 0.49231549 0.188817201 0.840022316 0.508635992 0.37741661 0.766460895 0.51970607 0.536526852 0.654543928 0.532645457 0.667972315 0.506440929 0.545280269 0.756141533 0.342799242 0.557439379 0.801207483 0.169308454 0.573934853 0.7986766 0.08711291 0.595421724 0.780364769 0.122286181 0.613251104 0.764396259 0.151319252 0.626738257 -0.458407768 0.729796899 0.507206866 -0.430663178 0.76260038 0.482669543 -0.627713273 0.593313584 0.503939518 -0.606256011 0.63573772 0.477798285 -0.76261091 0.404373078 0.504883168 -0.756374237 0.441442279 0.48272842 -0.841488015 0.186633873 0.507016487 -0.845901021 0.22866665 0.481832986 -0.857371511 -0.0481731744 0.512438716 -0.875603283 -0.00333993216 0.483019395 -0.803489936 -0.285967772 0.522136339 -0.836907557 -0.24514514 0.489376748 -0.677625838 -0.502714756 0.536750498 -0.724206679 -0.472998912 0.501793499 -0.487126857 -0.672932982 0.556658447 -0.541348644 -0.660004684 0.520898707 -0.249744143 -0.773928095 0.581947736 -0.303379155 -0.780206816 0.547026884 -0.448256957 -0.68111245 0.578922733 -0.643336341 -0.523264039 0.558849799 -0.77827364 -0.315201967 0.543081818 -0.843255816 -0.0809535159 0.531381367 -0.83784424 0.155564038 0.523275129 -0.766965786 0.374830653 0.520831512 -0.64367998 0.558928791 0.522756818 -0.478838562 0.705113469 0.522999643 -0.282834408 0.801239662 0.527275736 0.00749447511 -0.790528941 0.612378826 -0.0365396773 -0.813712116 0.580118474 0.251748054 -0.719423051 0.647343333 0.224235772 -0.752221761 0.619581101 0.455687061 -0.563911694 0.688732825 0.448441109 -0.598240603 0.664084899 0.579068879 -0.350955653 0.735873197 0.590013201 -0.396889624 0.703109557 0.606308943 -0.134663196 0.783744403 0.645387746 -0.182537922 0.741724048 0.557218311 0.043564949 0.829222437 0.617374422 0.020390356 0.786405148 0.489843202 0.149709959 0.858860038 0.554819182 0.16888914 0.814648472 0.467556994 0.204028149 0.860094746 0.549980766 0.264264289 0.792266081 0.442714838 0.190138905 0.876270945 0.467074591 0.147144016 0.871888734 0.532400419 0.0552622963 0.844686849 0.589968017 -0.111756055 0.799655128 0.575503901 -0.328570643 0.748890241 0.460474638 -0.545338986 0.700405952 0.270090422 -0.69765631 0.663571275 0.0373863426 -0.774328524 0.631678398 -0.212349655 -0.768733746 0.603287702 0.0521052669 -0.852515225 0.520098868 -0.151479468 -0.834842921 0.529236496 0.0832337423 -0.8402981 0.535696973 -0.122090602 -0.830303264 0.543774195 -0.336886875 -0.77099071 0.540444778 -0.304449559 -0.774072173 0.555088045 -0.502200768 -0.665775102 0.551849529 -0.475275058 -0.674274964 0.565214024 -0.633523168 -0.528074206 0.565496267 -0.603833673 -0.545601723 0.581122754 -0.723018249 -0.375111262 0.580117361 -0.696602956 -0.399900714 0.595670833 -0.778239735 -0.202431085 0.594444758 -0.760455214 -0.227708093 0.608158607 0.0129921444 -0.866918371 0.498280786 0.259769706 -0.818338269 0.512681361 0.23036159 -0.839380302 0.49231519 -0.18881664 -0.840022398 0.508636065 -0.377416403 -0.766461076 0.519705953 -0.536527102 -0.654544538 0.532644456 -0.667972562 -0.506441174 0.545279739 -0.756140883 -0.342799214 0.557440278 -0.801207019 -0.169308397 0.573935518 -0.798676314 -0.0871126207 0.59542215 -0.780364521 -0.122286015 0.613251453 -0.764396359 -0.151319055 0.626738182 0.458408079 -0.729796634 0.507206967 0.430663288 -0.762599946 0.482670129 0.627713505 -0.593313698 0.503939095 0.606256011 -0.635737899 0.477798047 0.762611147 -0.40437278 0.504883049 0.756374366 -0.441441987 0.482728486 0.841488369 -0.186633738 0.507015948 0.845901201 -0.22866686 0.48183257 0.857371748 0.0481734053 0.512438298 0.875603205 0.00334035025 0.483019534 0.803489641 0.28596816 0.522136579 0.836907036 0.24514571 0.489377354 0.677625678 0.502714829 0.536750632 0.724206818 0.472998747 0.501793453 0.487126866 0.672933115 0.556658279 0.541348754 0.660004554 0.520898758 0.249743819 0.773928104 0.581947862 0.303378909 0.780206796 0.547027049 0.448256998 0.681112765 0.57892233 0.643336008 0.523264297 0.55884994 0.7782738 0.315202108 0.543081507 0.84325636 0.0809536805 0.531380478 0.83784478 -0.155563725 0.523274356 0.766966042 -0.374830364 0.520831344 0.643680565 -0.55892896 0.522755915 0.478838895 -0.705113417 0.52299941 0.282834476 -0.801239627 0.527275752 -0.00749471507 0.790528837 0.612378957 0.0365393353 0.813712251 0.580118307 -0.251748112 0.719422927 0.647343448 -0.224236021 0.752221746 0.619581029 -0.455687366 0.563911488 0.688732791 -0.448441621 0.598240609 0.664084548 -0.579069374 0.350955664 0.735872803 -0.590013675 0.396889771 0.703109076 -0.606309417 0.134662823 0.783744101 -0.645386994 0.182537571 0.741724789 -0.557218364 -0.0435655632 0.829222368 -0.617374123 -0.0203902219 0.786405386 -0.489843386 -0.149710637 0.858859815 -0.554819701 -0.168889284 0.814648089 -0.467556452 -0.204028177 0.860095034 -0.549978738 -0.264263334 0.792267807 -0.442714963 -0.190139385 0.876270778 -0.467074995 -0.147145377 0.871888288 -0.532401017 -0.0552637569 0.844686376 -0.589968684 0.111755401 0.799654726 -0.575504111 0.328570358 0.748890204 -0.460474702 0.545338693 0.700406138 -0.27009037 0.697655972 0.663571652 -0.037386418 0.774328363 0.631678591 0.212349428 0.768733911 0.603287572</float_array>
        <technique_common><accessor source="#vfx_kurp_0411-mesh-normals-array" count="156" stride="3"><param name="X" type="float"/><param name="Y" type="float"/><param name="Z" type="float"/></accessor></technique_common>
      </source>
      <source id="vfx_kurp_0411-mesh-uv0">
        <float_array id="vfx_kurp_0411-mesh-uv0-array" count="312">0.5 0.720000029 0.5 0.75999999 1 0.720000029 1 0.75999999 0.5 0.800000012 1 0.800000012 0.5 0.840000033 1 0.840000033 0.5 0.879999995 1 0.879999995 0.5 0.920000017 1 0.920000017 0.5 0.959999979 1 0.959999979 0 0.720000029 0.5 0.680000007 0 0.680000007 0 0.75999999 0 0.800000012 0 0.840000033 0 0.879999995 0 0.920000017 0 0.959999979 0 1 0.5 1 1 1 0.5 0.639999986 0 0.639999986 0.5 0.600000024 0 0.600000024 0.5 0.560000002 0 0.560000002 0.5 0.519999981 0 0.519999981 0.5 0.480000019 0 0.480000019 0.5 0.439999998 0 0.439999998 0.5 0.400000036 0 0.400000036 0.5 0.360000014 0 0.360000014 0.5 0.319999993 0 0.319999993 1 0.360000014 1 0.400000036 1 0.439999998 1 0.480000019 1 0.519999981 1 0.560000002 1 0.600000024 1 0.639999986 1 0.680000007 0.5 0.280000031 0 0.280000031 0.5 0.24000001 0 0.24000001 0.5 0.200000048 0 0.200000048 0.5 0.160000026 0 0.160000026 0.5 0.120000005 0 0.120000005 0.5 0.0800000429 0 0.0800000429 0.5 0.0400000215 0 0.0400000215 0.5 0 0 0 1 0 1 0.0400000215 1 0.0800000429 1 0.120000005 1 0.160000026 1 0.200000048 1 0.24000001 1 0.280000031 1 0.319999993 0.5 0.720000029 0.5 0.75999999 1 0.720000029 1 0.75999999 0.5 0.800000012 1 0.800000012 0.5 0.840000033 1 0.840000033 0.5 0.879999995 1 0.879999995 0.5 0.920000017 1 0.920000017 0.5 0.959999979 1 0.959999979 0 0.720000029 0.5 0.680000007 0 0.680000007 0 0.75999999 0 0.800000012 0 0.840000033 0 0.879999995 0 0.920000017 0 0.959999979 0 1 0.5 1 1 1 0.5 0.639999986 0 0.639999986 0.5 0.600000024 0 0.600000024 0.5 0.560000002 0 0.560000002 0.5 0.519999981 0 0.519999981 0.5 0.480000019 0 0.480000019 0.5 0.439999998 0 0.439999998 0.5 0.400000036 0 0.400000036 0.5 0.360000014 0 0.360000014 0.5 0.319999993 0 0.319999993 1 0.360000014 1 0.400000036 1 0.439999998 1 0.480000019 1 0.519999981 1 0.560000002 1 0.600000024 1 0.639999986 1 0.680000007 0.5 0.280000031 0 0.280000031 0.5 0.24000001 0 0.24000001 0.5 0.200000048 0 0.200000048 0.5 0.160000026 0 0.160000026 0.5 0.120000005 0 0.120000005 0.5 0.0800000429 0 0.0800000429 0.5 0.0400000215 0 0.0400000215 0.5 0 0 0 1 0 1 0.0400000215 1 0.0800000429 1 0.120000005 1 0.160000026 1 0.200000048 1 0.24000001 1 0.280000031 1 0.319999993</float_array>
        <technique_common><accessor source="#vfx_kurp_0411-mesh-uv0-array" count="156" stride="2"><param name="S" type="float"/><param name="T" type="float"/></accessor></technique_common>
      </source>
      <vertices id="vfx_kurp_0411-mesh-vertices"><input semantic="POSITION" source="#vfx_kurp_0411-mesh-positions"/></vertices>
      <triangles material="PreviewMaterial" count="200">
        <input semantic="VERTEX" source="#vfx_kurp_0411-mesh-vertices" offset="0"/>
        <input semantic="NORMAL" source="#vfx_kurp_0411-mesh-normals" offset="1"/>
        <input semantic="TEXCOORD" source="#vfx_kurp_0411-mesh-uv0" offset="2" set="0"/>
        <p>0 0 0 1 1 1 2 2 2 2 2 2 1 1 1 3 3 3 4 4 4 3 3 3 1 1 1 3 3 3 4 4 4 5 5 5 6 6 6 5 5 5 4 4 4 5 5 5 6 6 6 7 7 7 8 8 8 7 7 7 6 6 6 7 7 7 8 8 8 9 9 9 10 10 10 9 9 9 8 8 8 9 9 9 10 10 10 11 11 11 12 12 12 11 11 11 10 10 10 11 11 11 12 12 12 13 13 13 14 14 14 15 15 15 16 16 16 15 15 15 14 14 14 0 0 0 17 17 17 0 0 0 14 14 14 0 0 0 17 17 17 1 1 1 18 18 18 1 1 1 17 17 17 1 1 1 18 18 18 4 4 4 19 19 19 4 4 4 18 18 18 4 4 4 19 19 19 6 6 6 20 20 20 6 6 6 19 19 19 6 6 6 20 20 20 8 8 8 21 21 21 8 8 8 20 20 20 8 8 8 21 21 21 10 10 10 22 22 22 10 10 10 21 21 21 10 10 10 22 22 22 12 12 12 23 23 23 12 12 12 22 22 22 24 24 24 12 12 12 23 23 23 12 12 12 24 24 24 13 13 13 25 25 25 13 13 13 24 24 24 15 15 15 26 26 26 16 16 16 16 16 16 26 26 26 27 27 27 28 28 28 27 27 27 26 26 26 27 27 27 28 28 28 29 29 29 30 30 30 29 29 29 28 28 28 29 29 29 30 30 30 31 31 31 32 32 32 31 31 31 30 30 30 31 31 31 32 32 32 33 33 33 34 34 34 33 33 33 32 32 32 33 33 33 34 34 34 35 35 35 36 36 36 35 35 35 34 34 34 35 35 35 36 36 36 37 37 37 38 38 38 37 37 37 36 36 36 37 37 37 38 38 38 39 39 39 40 40 40 39 39 39 38 38 38 39 39 39 40 40 40 41 41 41 42 42 42 41 41 41 40 40 40 41 41 41 42 42 42 43 43 43 40 40 40 38 38 38 44 44 44 44 44 44 38 38 38 45 45 45 36 36 36 45 45 45 38 38 38 45 45 45 36 36 36 46 46 46 34 34 34 46 46 46 36 36 36 46 46 46 34 34 34 47 47 47 32 32 32 47 47 47 34 34 34 47 47 47 32 32 32 48 48 48 30 30 30 48 48 48 32 32 32 48 48 48 30 30 30 49 49 49 28 28 28 49 49 49 30 30 30 49 49 49 28 28 28 50 50 50 26 26 26 50 50 50 28 28 28 50 50 50 26 26 26 51 51 51 15 15 15 51 51 51 26 26 26 51 51 51 15 15 15 52 52 52 0 0 0 52 52 52 15 15 15 52 52 52 0 0 0 2 2 2 42 42 42 53 53 53 43 43 43 43 43 43 53 53 53 54 54 54 55 55 55 54 54 54 53 53 53 54 54 54 55 55 55 56 56 56 57 57 57 56 56 56 55 55 55 56 56 56 57 57 57 58 58 58 59 59 59 58 58 58 57 57 57 58 58 58 59 59 59 60 60 60 61 61 61 60 60 60 59 59 59 60 60 60 61 61 61 62 62 62 63 63 63 62 62 62 61 61 61 62 62 62 63 63 63 64 64 64 65 65 65 64 64 64 63 63 63 64 64 64 65 65 65 66 66 66 67 67 67 66 66 66 65 65 65 66 66 66 67 67 67 68 68 68 67 67 67 65 65 65 69 69 69 69 69 69 65 65 65 70 70 70 63 63 63 70 70 70 65 65 65 70 70 70 63 63 63 71 71 71 61 61 61 71 71 71 63 63 63 71 71 71 61 61 61 72 72 72 59 59 59 72 72 72 61 61 61 72 72 72 59 59 59 73 73 73 57 57 57 73 73 73 59 59 59 73 73 73 57 57 57 74 74 74 55 55 55 74 74 74 57 57 57 74 74 74 55 55 55 75 75 75 53 53 53 75 75 75 55 55 55 75 75 75 53 53 53 76 76 76 42 42 42 76 76 76 53 53 53 76 76 76 42 42 42 77 77 77 40 40 40 77 77 77 42 42 42 77 77 77 40 40 40 44 44 44 78 78 78 79 79 79 80 80 80 80 80 80 79 79 79 81 81 81 82 82 82 81 81 81 79 79 79 81 81 81 82 82 82 83 83 83 84 84 84 83 83 83 82 82 82 83 83 83 84 84 84 85 85 85 86 86 86 85 85 85 84 84 84 85 85 85 86 86 86 87 87 87 88 88 88 87 87 87 86 86 86 87 87 87 88 88 88 89 89 89 90 90 90 89 89 89 88 88 88 89 89 89 90 90 90 91 91 91 92 92 92 93 93 93 94 94 94 93 93 93 92 92 92 78 78 78 95 95 95 78 78 78 92 92 92 78 78 78 95 95 95 79 79 79 96 96 96 79 79 79 95 95 95 79 79 79 96 96 96 82 82 82 97 97 97 82 82 82 96 96 96 82 82 82 97 97 97 84 84 84 98 98 98 84 84 84 97 97 97 84 84 84 98 98 98 86 86 86 99 99 99 86 86 86 98 98 98 86 86 86 99 99 99 88 88 88 100 100 100 88 88 88 99 99 99 88 88 88 100 100 100 90 90 90 101 101 101 90 90 90 100 100 100 102 102 102 90 90 90 101 101 101 90 90 90 102 102 102 91 91 91 103 103 103 91 91 91 102 102 102 93 93 93 104 104 104 94 94 94 94 94 94 104 104 104 105 105 105 106 106 106 105 105 105 104 104 104 105 105 105 106 106 106 107 107 107 108 108 108 107 107 107 106 106 106 107 107 107 108 108 108 109 109 109 110 110 110 109 109 109 108 108 108 109 109 109 110 110 110 111 111 111 112 112 112 111 111 111 110 110 110 111 111 111 112 112 112 113 113 113 114 114 114 113 113 113 112 112 112 113 113 113 114 114 114 115 115 115 116 116 116 115 115 115 114 114 114 115 115 115 116 116 116 117 117 117 118 118 118 117 117 117 116 116 116 117 117 117 118 118 118 119 119 119 120 120 120 119 119 119 118 118 118 119 119 119 120 120 120 121 121 121 118 118 118 116 116 116 122 122 122 122 122 122 116 116 116 123 123 123 114 114 114 123 123 123 116 116 116 123 123 123 114 114 114 124 124 124 112 112 112 124 124 124 114 114 114 124 124 124 112 112 112 125 125 125 110 110 110 125 125 125 112 112 112 125 125 125 110 110 110 126 126 126 108 108 108 126 126 126 110 110 110 126 126 126 108 108 108 127 127 127 106 106 106 127 127 127 108 108 108 127 127 127 106 106 106 128 128 128 104 104 104 128 128 128 106 106 106 128 128 128 104 104 104 129 129 129 93 93 93 129 129 129 104 104 104 129 129 129 93 93 93 130 130 130 78 78 78 130 130 130 93 93 93 130 130 130 78 78 78 80 80 80 120 120 120 131 131 131 121 121 121 121 121 121 131 131 131 132 132 132 133 133 133 132 132 132 131 131 131 132 132 132 133 133 133 134 134 134 135 135 135 134 134 134 133 133 133 134 134 134 135 135 135 136 136 136 137 137 137 136 136 136 135 135 135 136 136 136 137 137 137 138 138 138 139 139 139 138 138 138 137 137 137 138 138 138 139 139 139 140 140 140 141 141 141 140 140 140 139 139 139 140 140 140 141 141 141 142 142 142 143 143 143 142 142 142 141 141 141 142 142 142 143 143 143 144 144 144 145 145 145 144 144 144 143 143 143 144 144 144 145 145 145 146 146 146 145 145 145 143 143 143 147 147 147 147 147 147 143 143 143 148 148 148 141 141 141 148 148 148 143 143 143 148 148 148 141 141 141 149 149 149 139 139 139 149 149 149 141 141 141 149 149 149 139 139 139 150 150 150 137 137 137 150 150 150 139 139 139 150 150 150 137 137 137 151 151 151 135 135 135 151 151 151 137 137 137 151 151 151 135 135 135 152 152 152 133 133 133 152 152 152 135 135 135 152 152 152 133 133 133 153 153 153 131 131 131 153 153 153 133 133 133 153 153 153 131 131 131 154 154 154 120 120 120 154 154 154 131 131 131 154 154 154 120 120 120 155 155 155 118 118 118 155 155 155 120 120 120 155 155 155 118 118 118 122 122 122</p>
      </triangles>
    </mesh></geometry>
  </library_geometries>
  <library_visual_scenes>
    <visual_scene id="Scene" name="Scene">
      <node id="vfx_kurp_0411" name="vfx_kurp_0411" type="NODE">
        <instance_geometry url="#vfx_kurp_0411-mesh"><bind_material><technique_common><instance_material symbol="PreviewMaterial" target="#PreviewMaterial"><bind_vertex_input semantic="UVSET0" input_semantic="TEXCOORD" input_set="0"/></instance_material></technique_common></bind_material></instance_geometry>
      </node>
    </visual_scene>
  </library_visual_scenes>
  <scene><instance_visual_scene url="#Scene"/></scene>
</COLLADA>
