<?xml version="1.0" encoding="utf-8"?>
<COLLADA xmlns="http://www.collada.org/2005/11/COLLADASchema" version="1.4.1">
  <asset>
    <contributor><authoring_tool>Morrobroom Kurpulio VFX preview converter</authoring_tool></contributor>
    <unit name="unit" meter="1"/>
    <up_axis>Z_UP</up_axis>
  </asset>
  <library_images>
    <image id="VFXTexture" name="darkmap_newgen-1.dds">
      <init_from>../../../Textures/Kurp/darkmap_newgen-1.dds</init_from>
    </image>
  </library_images>
  <library_effects>
    <effect id="PreviewEffect">
      <profile_COMMON>
        <newparam sid="VFXTexture-surface">
          <surface type="2D"><init_from>VFXTexture</init_from></surface>
        </newparam>
        <newparam sid="VFXTexture-sampler">
          <sampler2D><source>VFXTexture-surface</source></sampler2D>
        </newparam>
        <technique sid="common"><phong>
          <emission><color>0.08 0.08 0.08 1</color></emission>
          <ambient><color>0.2 0.2 0.2 1</color></ambient>
          <diffuse><texture texture="VFXTexture-sampler" texcoord="UVSET0"/></diffuse>
          <specular><color>0.15 0.15 0.15 1</color></specular>
          <shininess><float>8</float></shininess>
          <transparent opaque="A_ONE"><texture texture="VFXTexture-sampler" texcoord="UVSET0"/></transparent>
          <transparency><float>1</float></transparency>
        </phong></technique>
      </profile_COMMON>
      <extra><technique profile="GOOGLEEARTH"><double_sided>1</double_sided></technique></extra>
    </effect>
  </library_effects>
  <library_materials><material id="PreviewMaterial" name="PreviewMaterial"><instance_effect url="#PreviewEffect"/></material></library_materials>
  <library_geometries>
    <geometry id="vfx_kurp_0206-mesh" name="vfx_kurp_0206"><mesh>
      <source id="vfx_kurp_0206-mesh-positions">
        <float_array id="vfx_kurp_0206-mesh-positions-array" count="240">-0.487123184 -1.33836518 -13.5646632 -0.487123462 -1.33836536 -9.04310944 0.487124852 1.33836629 -13.564663 0.487124574 1.33836611 -9.04310927 -0.487124574 -1.33836611 9.04310832 0.487123462 1.33836536 9.04310849 -0.487124852 -1.33836629 13.564662 0.487123184 1.33836518 13.5646622 -1.338366 0.487123989 -13.5646641 -1.33836592 0.487124088 -9.04310942 1.33836548 -0.487124013 -13.564664 1.33836556 -0.487123914 -9.04310929 -1.33836556 0.487123914 9.04310834 1.33836592 -0.487124088 9.04310846 -1.33836548 0.487124013 13.5646621 1.338366 -0.487123989 13.5646622 3.36040854 -1.72865464 -13.0350848 3.36040834 -1.72865478 -9.77487206 4.18111833 0.526232898 -13.0350846 4.18111813 0.526232764 -9.77487192 3.36040754 -1.72865531 3.26597685 4.18111732 0.526232229 3.26597699 3.36040734 -1.72865545 6.52618907 4.18111712 0.526232095 6.52618922 2.64331899 -0.190856575 -13.0350857 2.64331913 -0.190856454 -9.77487204 4.898206 -1.01156617 -13.0350856 4.89820637 -1.01156613 -9.77487194 2.64331953 -0.190856476 3.26597687 4.89820677 -1.01156615 3.26597697 2.64331966 -0.190856411 6.52618909 4.89820667 -1.011566 6.5261892 1.14490108 4.31298728 -13.2113074 1.14490085 4.31298713 -9.53136935 1.6548091 5.71395164 -13.2113074 1.65480887 5.71395149 -9.53136926 1.14489995 4.31298652 5.18838399 1.65480797 5.71395088 5.18838408 1.14489972 4.31298637 8.86832209 1.65480774 5.71395073 8.86832218 0.69937228 5.26842292 -13.2113074 0.699372329 5.26842317 -9.53136934 2.10033654 4.75851497 -13.2113074 2.10033645 4.75851477 -9.53136927 0.699372311 5.26842326 5.18838401 2.1003363 4.7585144 5.18838407 0.699372309 5.26842303 8.8683221 2.10033654 4.75851509 8.86832217 5.0496132 3.67061194 -13.3863122 5.04961295 3.67061178 -9.28954977 5.55952119 5.07157632 -13.3863121 5.55952094 5.07157615 -9.28954968 5.04961194 3.6706111 7.09750227 5.55951993 5.07157548 7.09750236 5.04961169 3.67061094 11.1942652 5.55951968 5.07157531 11.1942652 4.60408454 4.62604753 -13.3863131 4.60408429 4.62604737 -9.28954975 6.00504891 4.11613955 -13.3863131 6.00504866 4.11613938 -9.28954969 4.60408428 4.62604734 7.09750228 6.00504843 4.11613944 7.09750235 4.60408403 4.62604718 11.1942652 6.00504818 4.11613927 11.1942652 -1.18308626 4.64762069 -12.9645367 -1.18308645 4.64762056 -9.8723538 -0.866279858 5.51804143 -12.9645367 -0.866280048 5.5180413 -9.87235375 -1.18308721 4.64762006 2.49638149 -0.866280808 5.51804079 2.49638155 -1.1830874 4.64761993 5.58856513 -0.866280998 5.51804067 5.58856519 -1.45989389 5.24123405 -12.9645367 -1.45989391 5.24123437 -9.87235379 -0.58947315 4.92442764 -12.9645367 -0.589472953 4.92442788 -9.87235375 -1.45989445 5.24123378 2.4963815 -0.589473265 4.92442721 2.49638154 -1.45989425 5.24123402 5.58856514 -0.589473292 4.92442753 5.58856518</float_array>
        <technique_common><accessor source="#vfx_kurp_0206-mesh-positions-array" count="80" stride="3"><param name="X" type="float"/><param name="Y" type="float"/><param name="Z" type="float"/></accessor></technique_common>
      </source>
      <source id="vfx_kurp_0206-mesh-normals">
        <float_array id="vfx_kurp_0206-mesh-normals-array" count="240">-0.939692908 0.342019355 -4.37113874e-08 -0.939692908 0.342019355 -4.37113874e-08 -0.939692908 0.342019355 -4.37113874e-08 -0.939692908 0.342019355 -4.37113874e-08 -0.939692908 0.342019355 -4.37113874e-08 -0.939692908 0.342019355 -4.37113874e-08 -0.939692908 0.342019355 -4.37113874e-08 -0.939692908 0.342019355 -4.37113874e-08 0.342019343 0.939692912 -2.65762737e-08 0.342019343 0.939692912 -1.22127945e-08 0.342019343 0.939692912 -2.65762808e-08 0.342019343 0.939692912 -1.22127874e-08 0.342019343 0.939692912 -1.22128016e-08 0.342019343 0.939692912 -1.22128087e-08 0.342019343 0.939692912 -2.65762808e-08 0.342019343 0.939692912 -2.65762879e-08 -0.93969291 0.342019348 -4.37113881e-08 -0.93969291 0.342019348 -4.37113881e-08 -0.93969291 0.342019348 -4.37113881e-08 -0.93969291 0.342019348 -4.37113881e-08 -0.93969291 0.342019348 -4.37113881e-08 -0.93969291 0.342019348 -4.37113881e-08 -0.93969291 0.342019348 -4.37113881e-08 -0.93969291 0.342019348 -4.37113881e-08 0.342019348 0.93969291 -5.00899657e-08 0.342019348 0.93969291 -2.95222334e-08 0.342019348 0.93969291 -5.00899515e-08 0.342019348 0.93969291 -2.95222334e-08 0.342019348 0.93969291 -2.03810372e-08 0.342019348 0.93969291 -2.03810443e-08 0.342019348 0.93969291 -3.18075662e-08 0.342019348 0.93969291 -3.18075662e-08 -0.939692903 0.342019367 -4.37113869e-08 -0.939692903 0.342019367 -4.37113869e-08 -0.939692903 0.342019367 -4.37113869e-08 -0.939692903 0.342019367 -4.37113869e-08 -0.939692903 0.342019367 -4.37113869e-08 -0.939692903 0.342019367 -4.37113869e-08 -0.939692903 0.342019367 -4.37113869e-08 -0.939692903 0.342019367 -4.37113869e-08 0.342019348 0.93969291 -6.99728414e-08 0.342019612 0.939692814 1.13337018e-08 0.342019421 0.939692884 -3.82196923e-08 0.342019658 0.939692797 2.82511118e-08 0.342019939 0.939692695 4.23666229e-08 0.342019875 0.939692718 1.16543109e-08 0.342019495 0.939692857 -1.36044043e-07 0.342019348 0.93969291 -1.99550327e-07 -0.93969291 0.342019348 -4.37113881e-08 -0.93969291 0.342019348 -4.37113881e-08 -0.93969291 0.342019348 -4.37113881e-08 -0.93969291 0.342019348 -4.37113881e-08 -0.93969291 0.342019348 -4.37113881e-08 -0.93969291 0.342019348 -4.37113881e-08 -0.93969291 0.342019348 -4.37113881e-08 -0.93969291 0.342019348 -4.37113881e-08 0.342019348 0.93969291 5.96046445e-08 0.342019348 0.93969291 3.05062356e-08 0.342019348 0.93969291 5.96046445e-08 0.342019348 0.93969291 3.05062321e-08 0.342019348 0.93969291 3.05062321e-08 0.342019348 0.93969291 3.05062356e-08 0.342019348 0.93969291 5.96046445e-08 0.342019348 0.93969291 5.96046445e-08 -0.93969291 0.342019348 -4.37113881e-08 -0.93969291 0.342019348 -4.37113881e-08 -0.93969291 0.342019348 -4.37113881e-08 -0.93969291 0.342019348 -4.37113881e-08 -0.93969291 0.342019348 -4.37113881e-08 -0.93969291 0.342019348 -4.37113881e-08 -0.93969291 0.342019348 -4.37113881e-08 -0.93969291 0.342019348 -4.37113881e-08 0.342019348 0.93969291 -9.46026258e-08 0.342019348 0.93969291 -1.74989977e-08 0.342019348 0.93969291 -9.460264e-08 0.342019348 0.93969291 -1.74990048e-08 0.342019348 0.93969291 -1.74989835e-08 0.342019348 0.93969291 -1.74989764e-08 0.342019348 0.93969291 -9.46025973e-08 0.342019348 0.93969291 -9.46025973e-08</float_array>
        <technique_common><accessor source="#vfx_kurp_0206-mesh-normals-array" count="80" stride="3"><param name="X" type="float"/><param name="Y" type="float"/><param name="Z" type="float"/></accessor></technique_common>
      </source>
      <source id="vfx_kurp_0206-mesh-uv0">
        <float_array id="vfx_kurp_0206-mesh-uv0-array" count="160">1 1 1 0.833333313 0 1 0 0.833333313 1 0.166666627 0 0.166666627 1 0 0 0 1 1 1 0.833333313 0 1 0 0.833333313 1 0.166666627 0 0.166666627 1 0 0 0 1 1 1 0.833333313 0 1 0 0.833333313 1 0.166666627 0 0.166666627 1 0 0 0 1 1 1 0.833333313 0 1 0 0.833333313 1 0.166666627 0 0.166666627 1 0 0 0 1 1 1 0.833333313 0 1 0 0.833333313 1 0.166666627 0 0.166666627 1 0 0 0 1 1 1 0.833333313 0 1 0 0.833333313 1 0.166666627 0 0.166666627 1 0 0 0 1 1 1 0.833333313 0 1 0 0.833333313 1 0.166666627 0 0.166666627 1 0 0 0 1 1 1 0.833333313 0 1 0 0.833333313 1 0.166666627 0 0.166666627 1 0 0 0 1 1 1 0.833333313 0 1 0 0.833333313 1 0.166666627 0 0.166666627 1 0 0 0 1 1 1 0.833333313 0 1 0 0.833333313 1 0.166666627 0 0.166666627 1 0 0 0</float_array>
        <technique_common><accessor source="#vfx_kurp_0206-mesh-uv0-array" count="80" stride="2"><param name="S" type="float"/><param name="T" type="float"/></accessor></technique_common>
      </source>
      <source id="vfx_kurp_0206-mesh-colors">
        <float_array id="vfx_kurp_0206-mesh-colors-array" count="320">0 0 0 0 0 0 0 1 0 0 0 0 0 0 0 1 0 0 0 1 0 0 0 1 0 0 0 0 0 0 0 0 0 0 0 0 0 0 0 1 0 0 0 0 0 0 0 1 0 0 0 1 0 0 0 1 0 0 0 0 0 0 0 0 0 0 0 0 0 0 0 1 0 0 0 0 0 0 0 1 0 0 0 1 0 0 0 1 0 0 0 0 0 0 0 0 0 0 0 0 0 0 0 1 0 0 0 0 0 0 0 1 0 0 0 1 0 0 0 1 0 0 0 0 0 0 0 0 0 0 0 0 0 0 0 1 0 0 0 0 0 0 0 1 0 0 0 1 0 0 0 1 0 0 0 0 0 0 0 0 0 0 0 0 0 0 0 1 0 0 0 0 0 0 0 1 0 0 0 1 0 0 0 1 0 0 0 0 0 0 0 0 0 0 0 0 0 0 0 1 0 0 0 0 0 0 0 1 0 0 0 1 0 0 0 1 0 0 0 0 0 0 0 0 0 0 0 0 0 0 0 1 0 0 0 0 0 0 0 1 0 0 0 1 0 0 0 1 0 0 0 0 0 0 0 0 0 0 0 0 0 0 0 1 0 0 0 0 0 0 0 1 0 0 0 1 0 0 0 1 0 0 0 0 0 0 0 0 0 0 0 0 0 0 0 1 0 0 0 0 0 0 0 1 0 0 0 1 0 0 0 1 0 0 0 0 0 0 0 0</float_array>
        <technique_common><accessor source="#vfx_kurp_0206-mesh-colors-array" count="80" stride="4"><param name="R" type="float"/><param name="G" type="float"/><param name="B" type="float"/><param name="A" type="float"/></accessor></technique_common>
      </source>
      <vertices id="vfx_kurp_0206-mesh-vertices"><input semantic="POSITION" source="#vfx_kurp_0206-mesh-positions"/></vertices>
      <triangles material="PreviewMaterial" count="60">
        <input semantic="VERTEX" source="#vfx_kurp_0206-mesh-vertices" offset="0"/>
        <input semantic="NORMAL" source="#vfx_kurp_0206-mesh-normals" offset="1"/>
        <input semantic="TEXCOORD" source="#vfx_kurp_0206-mesh-uv0" offset="2" set="0"/>
        <input semantic="COLOR" source="#vfx_kurp_0206-mesh-colors" offset="3" set="0"/>
        <p>0 0 0 0 1 1 1 1 2 2 2 2 2 2 2 2 1 1 1 1 3 3 3 3 4 4 4 4 3 3 3 3 1 1 1 1 3 3 3 3 4 4 4 4 5 5 5 5 6 6 6 6 5 5 5 5 4 4 4 4 5 5 5 5 6 6 6 6 7 7 7 7 8 8 8 8 9 9 9 9 10 10 10 10 10 10 10 10 9 9 9 9 11 11 11 11 12 12 12 12 11 11 11 11 9 9 9 9 11 11 11 11 12 12 12 12 13 13 13 13 14 14 14 14 13 13 13 13 12 12 12 12 13 13 13 13 14 14 14 14 15 15 15 15 16 16 16 16 17 17 17 17 18 18 18 18 18 18 18 18 17 17 17 17 19 19 19 19 20 20 20 20 19 19 19 19 17 17 17 17 19 19 19 19 20 20 20 20 21 21 21 21 22 22 22 22 21 21 21 21 20 20 20 20 21 21 21 21 22 22 22 22 23 23 23 23 24 24 24 24 25 25 25 25 26 26 26 26 26 26 26 26 25 25 25 25 27 27 27 27 28 28 28 28 27 27 27 27 25 25 25 25 27 27 27 27 28 28 28 28 29 29 29 29 30 30 30 30 29 29 29 29 28 28 28 28 29 29 29 29 30 30 30 30 31 31 31 31 32 32 32 32 33 33 33 33 34 34 34 34 34 34 34 34 33 33 33 33 35 35 35 35 36 36 36 36 35 35 35 35 33 33 33 33 35 35 35 35 36 36 36 36 37 37 37 37 38 38 38 38 37 37 37 37 36 36 36 36 37 37 37 37 38 38 38 38 39 39 39 39 40 40 40 40 41 41 41 41 42 42 42 42 42 42 42 42 41 41 41 41 43 43 43 43 44 44 44 44 43 43 43 43 41 41 41 41 43 43 43 43 44 44 44 44 45 45 45 45 46 46 46 46 45 45 45 45 44 44 44 44 45 45 45 45 46 46 46 46 47 47 47 47 48 48 48 48 49 49 49 49 50 50 50 50 50 50 50 50 49 49 49 49 51 51 51 51 52 52 52 52 51 51 51 51 49 49 49 49 51 51 51 51 52 52 52 52 53 53 53 53 54 54 54 54 53 53 53 53 52 52 52 52 53 53 53 53 54 54 54 54 55 55 55 55 56 56 56 56 57 57 57 57 58 58 58 58 58 58 58 58 57 57 57 57 59 59 59 59 60 60 60 60 59 59 59 59 57 57 57 57 59 59 59 59 60 60 60 60 61 61 61 61 62 62 62 62 61 61 61 61 60 60 60 60 61 61 61 61 62 62 62 62 63 63 63 63 64 64 64 64 65 65 65 65 66 66 66 66 66 66 66 66 65 65 65 65 67 67 67 67 68 68 68 68 67 67 67 67 65 65 65 65 67 67 67 67 68 68 68 68 69 69 69 69 70 70 70 70 69 69 69 69 68 68 68 68 69 69 69 69 70 70 70 70 71 71 71 71 72 72 72 72 73 73 73 73 74 74 74 74 74 74 74 74 73 73 73 73 75 75 75 75 76 76 76 76 75 75 75 75 73 73 73 73 75 75 75 75 76 76 76 76 77 77 77 77 78 78 78 78 77 77 77 77 76 76 76 76 77 77 77 77 78 78 78 78 79 79 79 79</p>
      </triangles>
    </mesh></geometry>
  </library_geometries>
  <library_visual_scenes>
    <visual_scene id="Scene" name="Scene">
      <node id="vfx_kurp_0206" name="vfx_kurp_0206" type="NODE">
        <instance_geometry url="#vfx_kurp_0206-mesh"><bind_material><technique_common><instance_material symbol="PreviewMaterial" target="#PreviewMaterial"><bind_vertex_input semantic="UVSET0" input_semantic="TEXCOORD" input_set="0"/></instance_material></technique_common></bind_material></instance_geometry>
      </node>
    </visual_scene>
  </library_visual_scenes>
  <scene><instance_visual_scene url="#Scene"/></scene>
</COLLADA>
