<?xml version="1.0" encoding="utf-8"?>
<COLLADA xmlns="http://www.collada.org/2005/11/COLLADASchema" version="1.4.1">
  <asset>
    <contributor><authoring_tool>Morrobroom Kurpulio VFX preview converter</authoring_tool></contributor>
    <unit name="unit" meter="1"/>
    <up_axis>Z_UP</up_axis>
  </asset>
  <library_images>
    <image id="VFXTexture" name="darkmap_newgen-1.dds">
      <init_from>../../../Textures/Kurp/darkmap_newgen-1.dds</init_from>
    </image>
  </library_images>
  <library_effects>
    <effect id="PreviewEffect">
      <profile_COMMON>
        <newparam sid="VFXTexture-surface">
          <surface type="2D"><init_from>VFXTexture</init_from></surface>
        </newparam>
        <newparam sid="VFXTexture-sampler">
          <sampler2D><source>VFXTexture-surface</source></sampler2D>
        </newparam>
        <technique sid="common"><phong>
          <emission><color>0.08 0.08 0.08 1</color></emission>
          <ambient><color>0.2 0.2 0.2 1</color></ambient>
          <diffuse><texture texture="VFXTexture-sampler" texcoord="UVSET0"/></diffuse>
          <specular><color>0.15 0.15 0.15 1</color></specular>
          <shininess><float>8</float></shininess>
          <transparent opaque="A_ONE"><texture texture="VFXTexture-sampler" texcoord="UVSET0"/></transparent>
          <transparency><float>1</float></transparency>
        </phong></technique>
      </profile_COMMON>
      <extra><technique profile="GOOGLEEARTH"><double_sided>1</double_sided></technique></extra>
    </effect>
  </library_effects>
  <library_materials><material id="PreviewMaterial" name="PreviewMaterial"><instance_effect url="#PreviewEffect"/></material></library_materials>
  <library_geometries>
    <geometry id="vfx_kurp_0614-mesh" name="vfx_kurp_0614"><mesh>
      <source id="vfx_kurp_0614-mesh-positions">
        <float_array id="vfx_kurp_0614-mesh-positions-array" count="288">0.0461186469 -19.1053015 0.385136366 0.036349029 -16.9186449 0.303566094 0.115773649 -19.084425 0.966586508 0.107002735 -16.8974706 0.893353041 -0.0566793375 -13.1317829 -0.473025688 0.106761164 -13.0827996 0.891305623 0.541720313 -10.3677691 0.800764734 0.673504154 -10.3282735 1.90083991 0.534617281 -8.69220832 0.741458325 0.666401162 -8.65271269 1.84153351 -0.110657937 -5.85251152 -0.923674823 0.11677089 -5.78435091 0.97480362 -0.020263949 -2.38063236 -0.169132377 0.115267015 -2.34001359 0.962222136 -0.0547074429 -0.0163961146 -0.456671111 0.0547066082 0.0163953925 0.456670544 -0.209963609 -19.0948632 0.710711032 -0.223404895 -16.9080577 0.633808846 0.37185591 -19.0948632 0.6410118 0.366756669 -16.9080577 0.563110269 -1.21422714 -13.103632 0.460955027 1.28872192 -13.1036346 0.161113552 0.0671462776 -10.3480206 1.41554765 1.14807817 -10.3480219 1.28605708 0.0600432712 -8.67245986 1.35624124 1.14097514 -8.67246115 1.22675067 -1.10546864 -5.81196236 0.341095262 1.15474372 -5.81196495 0.0703324887 -0.518535072 -2.36032249 0.464353401 0.613538151 -2.36032346 0.328736368 -0.456961367 8.02949568e-08 0.054741489 0.456960517 -8.02605919e-07 -0.0547420353 4.0867329 -14.6143976 2.63497893 3.73983817 -13.3243113 2.40455644 3.86314754 -14.7225408 2.37020838 3.51304752 -13.4340059 2.13598972 3.37944658 -10.9586882 2.29202654 2.85481993 -11.2124396 1.67076159 2.19590368 -9.64620824 1.53770312 1.77289161 -9.85081052 1.03677026 1.9288802 -8.65832098 1.35969582 1.50586797 -8.86292261 0.858763045 2.29241166 -6.62699913 1.60573358 1.56238918 -6.9800956 0.741238083 1.40716387 -4.7615613 0.841191349 0.972123805 -4.97198101 0.326015151 1.10751485 -3.32546306 0.681955308 0.756307388 -3.49533458 0.266053864 4.11011499 -14.6535954 2.38237018 3.76355568 -13.3640711 2.14832587 3.83976545 -14.683343 2.62281713 3.48933001 -13.3942461 2.39222029 3.65946476 -11.040526 1.41780155 2.49643845 -11.1685032 2.45218912 2.23553172 -9.72087527 1.06387963 1.73326341 -9.7761435 1.51059366 1.96850824 -8.73298735 0.885872417 1.46623992 -8.78825623 1.33258645 2.38324532 -6.77926974 0.624416462 1.33300962 -6.89483624 1.55848876 1.4526597 -4.83782934 0.349678716 0.926627816 -4.89571264 0.817527743 1.14424365 -3.38703405 0.285157482 0.719578591 -3.43376359 0.66285167 -4.5404657 -15.0067909 -1.12955638 -4.04319893 -13.2839415 -0.931422636 -4.18780243 -15.0723329 -1.45318712 -3.6854794 -13.3504237 -1.25969343 -3.56167498 -10.2108356 -0.233083833 -2.73417677 -10.3646247 -0.992460143 -2.30689325 -8.13776018 -1.04993654 -1.6396724 -8.26176144 -1.66223001 -1.92394357 -6.81804919 -0.899901542 -1.25672279 -6.9420511 -1.51219485 -2.01332497 -4.45033333 0.526631177 -0.861854044 -4.66433196 -0.530047439 -0.695511087 -1.83935941 0.346946532 -0.00931859599 -1.96688714 -0.282756733 -0.276980577 0.0514754643 0.672623509 0.276982054 -0.0514770225 0.164264488 -4.21320417 -15.1035298 -1.1139476 -3.71124538 -13.3820673 -0.915590132 -4.51506396 -14.9755941 -1.46879557 -4.01743295 -13.2522978 -1.27552593 -2.4368345 -10.5743988 0.093780901 -3.73541487 -10.0240327 -1.43275195 -1.69287823 -8.31860253 -1.02645651 -2.25368741 -8.08091909 -1.68571005 -1.30992855 -6.99889154 -0.87642135 -1.87073773 -6.76120875 -1.53567504 -0.742002819 -4.8261349 0.587266728 -1.91464645 -4.32914333 -0.791222688 -0.0587436422 -2.02758737 0.377317082 -0.64608603 -1.77865903 -0.313127283 0.237081257 -0.10048051 0.697141575 -0.2370798 0.100478951 0.139746391</float_array>
        <technique_common><accessor source="#vfx_kurp_0614-mesh-positions-array" count="96" stride="3"><param name="X" type="float"/><param name="Y" type="float"/><param name="Z" type="float"/></accessor></technique_common>
      </source>
      <source id="vfx_kurp_0614-mesh-normals">
        <float_array id="vfx_kurp_0614-mesh-normals-array" count="288">0.992900864 -9.60611729e-07 -0.11894484 0.992900865 -9.57858349e-07 -0.118944826 0.992900864 -9.60018057e-07 -0.11894484 0.992900864 -9.58138928e-07 -0.118944833 0.990721837 -0.0705643903 -0.116150373 0.989186842 -0.0907105076 -0.115243199 0.989129352 -0.0913740087 -0.115212476 0.990833212 -0.0688570432 -0.11622501 0.988842083 0.0861207258 -0.121550629 0.990281995 0.0684066635 -0.121087156 0.99034621 0.0675143387 -0.121062787 0.989297188 0.0809234958 -0.12141854 0.992900864 -9.60315462e-07 -0.118944833 0.992900864 -9.60289655e-07 -0.118944833 0.992900863 -9.62925369e-07 -0.118944848 0.992900864 -9.6379155e-07 -0.11894484 -0.118869327 -0.0356252678 -0.99227059 -0.118749835 -0.0572403039 -0.991272931 -0.118869334 -0.0356252678 -0.992270589 -0.118749842 -0.0572403298 -0.991272929 -0.117773132 0.140007244 -0.983121285 -0.117332598 0.164080379 -0.979444072 -0.116702974 0.193228885 -0.974188387 -0.117062935 0.177172171 -0.977193067 -0.115953281 -0.222875743 -0.967926258 -0.116304428 -0.209544422 -0.970857567 -0.117622025 -0.148733511 -0.981857119 -0.117201641 -0.170585154 -0.978347832 -0.118803184 -0.048797292 -0.991718018 -0.118803176 -0.0487973106 -0.991718018 -0.117277962 -0.166834306 -0.978985288 -0.117277969 -0.16683432 -0.978985285 -0.744708954 -0.0819462462 0.662339329 -0.744709288 -0.0819462808 0.66233895 -0.74470901 -0.0819462532 0.662339265 -0.744709317 -0.081946284 0.662338916 -0.724698776 -0.148895575 0.672786588 -0.718301159 -0.167934428 0.675160331 -0.718085399 -0.16856095 0.675233713 -0.725227115 -0.147280529 0.67257273 -0.764092342 0.000318747312 0.645106806 -0.760559262 -0.0166519452 0.649054945 -0.760375024 -0.0175061468 0.649248303 -0.763080171 -0.00466305664 0.646287017 -0.744709034 -0.0819463378 0.662339228 -0.74470909 -0.08194633 0.662339165 -0.744709145 -0.0819463518 0.662339101 -0.744709202 -0.0819463292 0.662339039 0.615891517 0.297893465 0.729340197 0.621309214 0.27724525 0.732877842 0.615891448 0.29789349 0.729340245 0.621309214 0.27724525 0.732877842 0.561328289 0.459907976 0.688037213 0.552369837 0.481305334 0.680612032 0.541032374 0.50694561 0.671036601 0.547344809 0.492857848 0.676391012 0.653239556 0.113774487 0.748554239 0.651312125 0.127283069 0.748058512 0.641071968 0.188110171 0.74407076 0.645022318 0.166400667 0.745826406 0.619226465 0.285329167 0.731536637 0.619226512 0.285329102 0.731536623 0.644365711 0.170138772 0.745550554 0.644365675 0.170138793 0.745550581 -0.624814163 0.264809881 -0.734495056 -0.62481398 0.264809998 -0.73449517 -0.624814136 0.26480987 -0.734495084 -0.624814049 0.264809973 -0.734495121 -0.642816071 0.196738587 -0.740325217 -0.647381131 0.177060531 -0.741314535 -0.64752723 0.176410514 -0.741341903 -0.64241749 0.198401302 -0.74022746 -0.5986163 0.346098392 -0.722408769 -0.60438568 0.329539869 -0.725342281 -0.604671111 0.328703488 -0.725483883 -0.600329614 0.341248826 -0.723293574 -0.624814567 0.264809965 -0.734494683 -0.624814631 0.264809967 -0.734494628 -0.624814741 0.264809903 -0.734494557 -0.624814809 0.264809877 -0.734494508 -0.729971096 0.135663685 0.669878767 -0.73579472 0.114974998 0.667373118 -0.729971121 0.135663735 0.669878731 -0.735794721 0.11497499 0.667373119 -0.670147289 0.300824011 0.678533364 -0.660191216 0.323047865 0.678076423 -0.64755385 0.349819982 0.676978576 -0.654594669 0.33509088 0.677657673 -0.769038667 -0.0462455259 0.63752716 -0.767125633 -0.0330897767 0.640642904 -0.756680417 0.0265149079 0.653247048 -0.760755012 0.00517237705 0.649018534 -0.733560226 0.123065691 0.66838928 -0.733560225 0.123065699 0.66838928 -0.760081003 0.00884180342 0.649768182 -0.760081003 0.00884180062 0.649768182</float_array>
        <technique_common><accessor source="#vfx_kurp_0614-mesh-normals-array" count="96" stride="3"><param name="X" type="float"/><param name="Y" type="float"/><param name="Z" type="float"/></accessor></technique_common>
      </source>
      <source id="vfx_kurp_0614-mesh-uv0">
        <float_array id="vfx_kurp_0614-mesh-uv0-array" count="192">1 1 1 0.857142866 0 1 0 0.857142866 1 0.714285731 0 0.714285731 1 0.571428537 0 0.571428537 1 0.428571403 0 0.428571403 1 0.285714269 0 0.285714269 1 0.142857075 0 0.142857075 1 0 0 0 1 1 1 0.857142866 0 1 0 0.857142866 1 0.714285731 0 0.714285731 1 0.571428537 0 0.571428537 1 0.428571403 0 0.428571403 1 0.285714269 0 0.285714269 1 0.142857075 0 0.142857075 1 0 0 0 1 1 1 0.857142866 0 1 0 0.857142866 1 0.714285731 0 0.714285731 1 0.571428537 0 0.571428537 1 0.428571403 0 0.428571403 1 0.285714269 0 0.285714269 1 0.142857075 0 0.142857075 1 0 0 0 1 1 1 0.857142866 0 1 0 0.857142866 1 0.714285731 0 0.714285731 1 0.571428537 0 0.571428537 1 0.428571403 0 0.428571403 1 0.285714269 0 0.285714269 1 0.142857075 0 0.142857075 1 0 0 0 1 1 1 0.857142866 0 1 0 0.857142866 1 0.714285731 0 0.714285731 1 0.571428537 0 0.571428537 1 0.428571403 0 0.428571403 1 0.285714269 0 0.285714269 1 0.142857075 0 0.142857075 1 0 0 0 1 1 1 0.857142866 0 1 0 0.857142866 1 0.714285731 0 0.714285731 1 0.571428537 0 0.571428537 1 0.428571403 0 0.428571403 1 0.285714269 0 0.285714269 1 0.142857075 0 0.142857075 1 0 0 0</float_array>
        <technique_common><accessor source="#vfx_kurp_0614-mesh-uv0-array" count="96" stride="2"><param name="S" type="float"/><param name="T" type="float"/></accessor></technique_common>
      </source>
      <vertices id="vfx_kurp_0614-mesh-vertices"><input semantic="POSITION" source="#vfx_kurp_0614-mesh-positions"/></vertices>
      <triangles material="PreviewMaterial" count="84">
        <input semantic="VERTEX" source="#vfx_kurp_0614-mesh-vertices" offset="0"/>
        <input semantic="NORMAL" source="#vfx_kurp_0614-mesh-normals" offset="1"/>
        <input semantic="TEXCOORD" source="#vfx_kurp_0614-mesh-uv0" offset="2" set="0"/>
        <p>0 0 0 1 1 1 2 2 2 2 2 2 1 1 1 3 3 3 4 4 4 3 3 3 1 1 1 3 3 3 4 4 4 5 5 5 6 6 6 5 5 5 4 4 4 5 5 5 6 6 6 7 7 7 8 8 8 7 7 7 6 6 6 7 7 7 8 8 8 9 9 9 10 10 10 9 9 9 8 8 8 9 9 9 10 10 10 11 11 11 12 12 12 11 11 11 10 10 10 11 11 11 12 12 12 13 13 13 14 14 14 13 13 13 12 12 12 13 13 13 14 14 14 15 15 15 16 16 16 17 17 17 18 18 18 18 18 18 17 17 17 19 19 19 20 20 20 19 19 19 17 17 17 19 19 19 20 20 20 21 21 21 22 22 22 21 21 21 20 20 20 21 21 21 22 22 22 23 23 23 24 24 24 23 23 23 22 22 22 23 23 23 24 24 24 25 25 25 26 26 26 25 25 25 24 24 24 25 25 25 26 26 26 27 27 27 28 28 28 27 27 27 26 26 26 27 27 27 28 28 28 29 29 29 30 30 30 29 29 29 28 28 28 29 29 29 30 30 30 31 31 31 32 32 32 33 33 33 34 34 34 34 34 34 33 33 33 35 35 35 36 36 36 35 35 35 33 33 33 35 35 35 36 36 36 37 37 37 38 38 38 37 37 37 36 36 36 37 37 37 38 38 38 39 39 39 40 40 40 39 39 39 38 38 38 39 39 39 40 40 40 41 41 41 42 42 42 41 41 41 40 40 40 41 41 41 42 42 42 43 43 43 44 44 44 43 43 43 42 42 42 43 43 43 44 44 44 45 45 45 46 46 46 45 45 45 44 44 44 45 45 45 46 46 46 47 47 47 48 48 48 49 49 49 50 50 50 50 50 50 49 49 49 51 51 51 52 52 52 51 51 51 49 49 49 51 51 51 52 52 52 53 53 53 54 54 54 53 53 53 52 52 52 53 53 53 54 54 54 55 55 55 56 56 56 55 55 55 54 54 54 55 55 55 56 56 56 57 57 57 58 58 58 57 57 57 56 56 56 57 57 57 58 58 58 59 59 59 60 60 60 59 59 59 58 58 58 59 59 59 60 60 60 61 61 61 62 62 62 61 61 61 60 60 60 61 61 61 62 62 62 63 63 63 64 64 64 65 65 65 66 66 66 66 66 66 65 65 65 67 67 67 68 68 68 67 67 67 65 65 65 67 67 67 68 68 68 69 69 69 70 70 70 69 69 69 68 68 68 69 69 69 70 70 70 71 71 71 72 72 72 71 71 71 70 70 70 71 71 71 72 72 72 73 73 73 74 74 74 73 73 73 72 72 72 73 73 73 74 74 74 75 75 75 76 76 76 75 75 75 74 74 74 75 75 75 76 76 76 77 77 77 78 78 78 77 77 77 76 76 76 77 77 77 78 78 78 79 79 79 80 80 80 81 81 81 82 82 82 82 82 82 81 81 81 83 83 83 84 84 84 83 83 83 81 81 81 83 83 83 84 84 84 85 85 85 86 86 86 85 85 85 84 84 84 85 85 85 86 86 86 87 87 87 88 88 88 87 87 87 86 86 86 87 87 87 88 88 88 89 89 89 90 90 90 89 89 89 88 88 88 89 89 89 90 90 90 91 91 91 92 92 92 91 91 91 90 90 90 91 91 91 92 92 92 93 93 93 94 94 94 93 93 93 92 92 92 93 93 93 94 94 94 95 95 95</p>
      </triangles>
    </mesh></geometry>
  </library_geometries>
  <library_visual_scenes>
    <visual_scene id="Scene" name="Scene">
      <node id="vfx_kurp_0614" name="vfx_kurp_0614" type="NODE">
        <instance_geometry url="#vfx_kurp_0614-mesh"><bind_material><technique_common><instance_material symbol="PreviewMaterial" target="#PreviewMaterial"><bind_vertex_input semantic="UVSET0" input_semantic="TEXCOORD" input_set="0"/></instance_material></technique_common></bind_material></instance_geometry>
      </node>
    </visual_scene>
  </library_visual_scenes>
  <scene><instance_visual_scene url="#Scene"/></scene>
</COLLADA>
