<?xml version="1.0" encoding="utf-8"?>
<COLLADA xmlns="http://www.collada.org/2005/11/COLLADASchema" version="1.4.1">
  <asset>
    <contributor><authoring_tool>Morrobroom Kurpulio VFX preview converter</authoring_tool></contributor>
    <unit name="unit" meter="1"/>
    <up_axis>Z_UP</up_axis>
  </asset>
  <library_images>
    <image id="VFXTexture" name="darkmap_newgen-1.dds">
      <init_from>../../../Textures/Kurp/darkmap_newgen-1.dds</init_from>
    </image>
  </library_images>
  <library_effects>
    <effect id="PreviewEffect">
      <profile_COMMON>
        <newparam sid="VFXTexture-surface">
          <surface type="2D"><init_from>VFXTexture</init_from></surface>
        </newparam>
        <newparam sid="VFXTexture-sampler">
          <sampler2D><source>VFXTexture-surface</source></sampler2D>
        </newparam>
        <technique sid="common"><phong>
          <emission><color>0.08 0.08 0.08 1</color></emission>
          <ambient><color>0.2 0.2 0.2 1</color></ambient>
          <diffuse><texture texture="VFXTexture-sampler" texcoord="UVSET0"/></diffuse>
          <specular><color>0.15 0.15 0.15 1</color></specular>
          <shininess><float>8</float></shininess>
          <transparent opaque="A_ONE"><texture texture="VFXTexture-sampler" texcoord="UVSET0"/></transparent>
          <transparency><float>1</float></transparency>
        </phong></technique>
      </profile_COMMON>
      <extra><technique profile="GOOGLEEARTH"><double_sided>1</double_sided></technique></extra>
    </effect>
  </library_effects>
  <library_materials><material id="PreviewMaterial" name="PreviewMaterial"><instance_effect url="#PreviewEffect"/></material></library_materials>
  <library_geometries>
    <geometry id="vfx_kurp_0271-mesh" name="vfx_kurp_0271"><mesh>
      <source id="vfx_kurp_0271-mesh-positions">
        <float_array id="vfx_kurp_0271-mesh-positions-array" count="756">-1.11298701 2.2105211 2.45807791 -1.28422907 1.63171649 2.03973967 -2.22574031 2.10780305 2.8656342 -2.19853628 1.2924394 2.15683132 -1.20127112 1.04132608 1.49834874 -1.83817255 0.60070315 1.40536228 -0.833411425 0.527292967 0.895382702 -1.18557 0.111144293 0.696559355 -0.18967963 0.177495662 0.309948832 -0.314834878 -0.12064556 0.110910807 -0.749935716 2.70209134 2.71649694 -1.9166953 2.95420575 3.45128238 -3.30526257 3.63209152 3.54572582 -3.51959574 2.35271949 2.74383795 -3.24938786 1.21526626 1.86606395 -2.56874281 0.339882351 1.02142382 -1.59507251 -0.194930121 0.305830255 -0.471209809 -0.358858734 -0.208802551 1.30291978 -2.76858777 1.53841138 1.44679382 -2.10419172 1.27670261 2.46419388 -2.7932142 1.77662158 2.38519835 -1.8219282 1.33735549 1.32321498 -1.3925702 0.942000657 1.96426284 -0.953495264 0.875988364 0.90540871 -0.73405458 0.572838038 1.24918565 -0.286529034 0.444910571 0.208287545 -0.234130897 0.218161605 0.321167774 0.103232581 0.0930731222 0.952379733 -3.30419219 1.70344502 2.19227815 -3.75705814 2.14390594 3.53951061 -4.45315003 1.82009715 3.71220624 -3.01470637 1.38461763 3.387797 -1.68578428 0.914536536 2.64781129 -0.61170879 0.467707291 1.61708486 0.105077773 0.0943440534 0.444952145 0.414429814 -0.168620545 -1.99572033 -3.06585288 2.19928408 -1.27815869 -2.8570472 1.67620039 -1.41496244 -4.41620886 2.17968947 -0.516580895 -3.77797616 1.42465737 -0.654156625 -2.31382549 1.12521449 0.104293004 -2.8041712 0.761283785 -0.234702811 -1.4619104 0.62548694 0.377156675 -1.60537362 0.264897846 -0.114068214 -0.377905861 0.258805856 0.271024883 -0.317712553 -0.00813353132 -2.69629776 -2.96423864 2.62880677 -2.48883587 -4.6463939 2.94064254 -2.74346405 -6.47395563 2.37843204 -1.21196651 -5.88260007 1.43886539 -0.0404561106 -4.78279173 0.619163588 0.66611512 -3.34746838 0.00436657446 0.867641956 -1.77557856 -0.352305941 0.588863924 -0.265411578 -0.433613464 -3.80230272 0.479583576 1.75204915 -3.23386681 -0.169499606 1.372383 -4.69976091 -0.860843003 1.82390052 -3.65140915 -1.4713414 1.25453389 -2.41642481 -0.539940208 0.951977134 -2.45091158 -1.60746825 0.728109822 -1.43202558 -0.527815819 0.547915936 -1.23458943 -1.25376552 0.304406002 -0.399282888 -0.0742308162 0.222348556 -0.14056265 -0.450398326 0.0315360641 -4.08434451 1.27718407 2.04650116 -5.4769206 0.154702038 2.37155539 -7.39421439 -0.772401989 1.94694453 -6.02437305 -2.04108667 1.27731183 -4.38931239 -2.65152651 0.661888674 -2.70299578 -2.59041077 0.167667579 -1.16768861 -1.92653757 -0.158575147 0.050235562 -0.795975208 -0.294530533 0.97065416 3.53486216 2.19928408 0.349319637 3.11960506 1.67620039 0.0101062562 4.64755583 2.17968947 -0.654293731 3.76834989 1.42465737 -0.0820646882 2.41364765 1.12521449 -0.952991992 2.65275139 0.761283785 -0.225415081 1.47495103 0.625486895 -0.852070034 1.42744115 0.264897823 -0.0139137888 0.404957637 0.258805834 -0.362988174 0.231559239 -0.00813357183 1.6693005 3.64900124 2.62880677 0.964762151 5.19053078 2.94064254 0.657050371 7.00990677 2.37843204 -0.625180051 5.98468852 1.43886548 -1.41098267 4.5830723 0.619163588 -1.65237486 3.00157678 0.00436653115 -1.37104395 1.44199249 -0.352306031 -0.650309756 0.0859454144 -0.433613509 3.76836133 1.6065293 1.34912279 2.86026496 1.82804865 1.02838799 3.88399565 3.19179368 1.59964746 2.53611177 3.12044227 1.07157952 1.86810833 1.68602961 0.628054172 1.30634433 2.57816255 0.527773172 0.928670257 1.14012516 0.195523515 0.33433903 1.62653214 0.0299801733 0.188782051 0.206735127 -0.210558012 -0.269528054 0.373613678 -0.365272589 4.48394394 1.1075702 1.55970401 5.19693768 2.78411365 2.05201274 6.19884825 4.55061901 1.48630992 4.2327565 4.84906805 0.978085667 2.38401586 4.46519566 0.446204066 0.857873619 3.50374603 -0.0452375449 -0.196484439 2.1303699 -0.442375973 -0.700135186 0.54640156 -0.707478046 2.959001 -2.14507449 2.19928318 2.78822315 -1.41752377 1.67619967 4.33803177 -1.63614017 2.17968857 3.74793148 -0.705435053 1.42465657 2.27857178 -0.765815645 1.12521404 2.80812854 -0.0342046274 0.761283427 1.44989651 -0.302137278 0.625486806 1.62534106 0.301330224 0.264897801 0.373736903 -0.124658145 0.258806013 0.33388035 0.263067752 -0.00813328545 2.82068127 -2.83933783 2.62880588 4.51141977 -2.72063345 2.94064111 6.32306027 -3.07102704 2.37843043 5.81307042 -1.51054734 1.43886423 4.77639806 -0.282815717 0.619162872 3.38022172 0.498265743 0.00436625804 1.82110673 0.782184988 -0.352305897 0.298368059 0.583217651 -0.433613062 0.0359268151 2.54985523 2.50229913 -0.397296309 2.10121787 2.07005793 -1.0327726 2.98693013 2.92340004 -1.39707819 2.22679031 2.19104093 -0.603115663 1.52061528 1.51067448 -1.39707837 1.4208937 1.41459775 -0.511415988 0.873977423 0.887669563 -1.03277305 0.660753697 0.682238594 -0.0885207262 0.246141717 0.282779507 -0.345530972 0.0326877991 0.0771266799 0.603269711 2.82699108 2.76930642 -0.3455301 3.61499584 3.52851176 -1.29432973 4.89903867 3.62609375 -2.10147196 3.82901144 2.79755616 -2.39686006 2.65772295 1.89061028 -2.19104111 1.53064781 1.01789957 -1.5541302 0.575770363 0.278524049 -0.602541044 -0.110947955 -0.253211975 -0.127171721 -3.16601229 1.55206865 0.321832068 -2.62587887 1.2816622 0.925198495 -3.74294114 1.79819548 1.31647861 -2.81519884 1.34433085 0.548301324 -1.91479558 0.935836852 1.3453247 -1.81847191 0.86763069 0.479805797 -1.11191887 0.55440554 1.00846088 -0.865941972 0.422226548 0.079653969 -0.32102906 0.187941827 0.344139777 -0.0657743085 0.0586961824 -0.704070702 -3.48947096 1.72258687 0.215915702 -4.4963479 2.17768604 1.11814713 -5.7773416 1.84311587 1.96307194 -4.5416733 1.39316368 2.3001954 -3.16905928 0.907459974 2.13485026 -1.83158666 0.445780858 1.53252608 -0.682721213 0.0600093529 0.606126443 0.160297796 -0.211694576 -3.29176676 -1.86372274 2.23490453 -2.53455502 -2.01493049 1.69443691 -3.4042182 -3.37835169 2.21465886 -2.27631605 -3.22237587 1.43453407 -1.70343447 -1.81503528 1.12513956 -1.2425124 -2.62642497 0.749114066 -0.912388086 -1.23462483 0.608804137 -0.420200139 -1.65817255 0.23623129 -0.284369208 -0.298891962 0.229936838 0.0972431861 -0.42756781 -0.0458739577 -3.8852284 -1.43617129 2.67870194 -4.49813998 -3.07664073 3.00090122 -5.60389817 -4.62976241 2.42000628 -3.91822207 -4.81897545 1.44921425 -2.31969541 -4.37042212 0.602270633 -0.98704648 -3.39247155 -0.0329584256 -0.051998483 -2.04828393 -0.401484534 0.41346015 -0.531370372 -0.485494226 -3.25471616 2.24753219 1.77280641 -3.04368925 1.38139209 1.38052243 -4.71698177 1.44766429 1.84704566 -4.04776776 0.38778162 1.25875676 -2.47147036 0.651715234 0.946144849 -3.01268256 -0.310044274 0.714837581 -1.56363434 0.192898236 0.528655171 -1.72926486 -0.566572174 0.277052455 -0.400757164 0.115532991 0.192267939 -0.343253262 -0.352672175 -0.00488599087 -3.13240921 3.11304796 2.07704419 -4.94433188 2.74924886 2.4129011 -7.14380765 2.81496996 1.97417879 -6.49420023 0.998491555 1.28229171 -5.28733099 -0.341417402 0.646415636 -3.71291006 -1.09041899 0.135769699 -1.98912495 -1.21499947 -0.201315321 -0.333386131 -0.760421634 -0.341789022 2.577465 2.76872975 2.23490453 1.80987579 2.68482059 1.69443691 2.22844452 4.24688065 2.21465886 1.19991535 3.75839353 1.43453407 1.07757345 2.24385291 1.12513956 0.393646762 2.87871265 0.749114066 0.498105392 1.45211595 0.608804092 -0.0988059416 1.70772976 0.236231267 0.18112573 0.370668925 0.229936816 -0.221522346 0.378415614 -0.0458739996 3.2721523 2.53980446 2.67870194 3.36243975 4.2887038 3.00090122 3.9489938 6.10277152 2.42000628 2.28461695 5.77542329 1.44921434 0.895455748 4.86618304 0.602270633 -0.0807079989 3.5322243 -0.0329584703 -0.567417964 1.96880865 -0.401484624 -0.554320022 0.382143304 -0.485494271 4.22058964 -0.333840072 1.35648921 3.49420881 0.302649915 1.02509513 5.08331501 1.06360602 1.61533982 3.81412876 1.64166927 1.06972209 2.51725602 0.646141782 0.611456707 2.42836851 1.73181403 0.507842973 1.39580691 0.594369516 0.164551388 1.08339348 1.32380399 -0.00649358751 0.272238426 0.0922671631 -0.255025774 -0.0680675916 0.46397084 -0.414882123 4.63811874 -1.13265896 1.57406884 6.09180522 0.0632660072 2.08273888 7.85318398 1.20370594 1.49823555 6.1940403 2.41574943 0.973121077 4.31670749 2.94653213 0.423563004 2.45926523 2.79405534 -0.0842110813 0.837496072 2.03889424 -0.494547933 -0.380167231 0.827864796 -0.768460393 1.68801731 -3.38523066 2.23490363 1.87884021 -2.63701916 1.69443601 3.19463575 -3.57718599 2.21465778 3.09819603 -2.44264144 1.43453327 1.72293323 -1.79653591 1.12513912 2.55744159 -1.37892562 0.749113664 1.18493003 -0.976058722 0.608804002 1.6337775 -0.506827801 0.236231245 0.283521965 -0.299695708 0.229937017 0.432090104 0.0746209994 -0.0458737034 1.22984514 -3.95538425 2.67870104 2.83580911 -4.65372562 3.00089979 4.3286258 -5.83963752 2.42000467 4.606233 -4.16624558 1.44921309 4.24237239 -2.54634047 0.602269918 3.33586335 -1.16410241 -0.0329587525 2.04271406 -0.159653138 -0.401484489 0.552380025 0.384940982 -0.485493824</float_array>
        <technique_common><accessor source="#vfx_kurp_0271-mesh-positions-array" count="252" stride="3"><param name="X" type="float"/><param name="Y" type="float"/><param name="Z" type="float"/></accessor></technique_common>
      </source>
      <source id="vfx_kurp_0271-mesh-normals">
        <float_array id="vfx_kurp_0271-mesh-normals-array" count="756">-0.320560634 0.615332126 -0.720143913 -0.320560664 0.615332247 -0.720143796 -0.0425016591 0.615023685 -0.787362353 -0.0634080082 0.680467292 -0.730029924 -0.320560842 0.615331947 -0.720143973 -0.115377649 0.724452847 -0.679599935 -0.320560791 0.615332022 -0.720143931 -0.182809936 0.743013749 -0.643825361 -0.320560728 0.615332134 -0.720143864 -0.216124649 0.747157318 -0.628526911 -0.320560697 0.615332013 -0.720143981 -0.0399258128 0.578361498 -0.814802986 0.182286437 0.505401956 -0.843410053 0.176948917 0.565642349 -0.80544262 0.140239327 0.683931164 -0.715940706 0.0509342285 0.770434788 -0.635480874 -0.0664352482 0.815833576 -0.574457948 -0.131602597 0.824674944 -0.550083624 0.176705251 -0.393618961 -0.902130461 0.176705315 -0.393618881 -0.902130483 -0.110663919 -0.368795271 -0.922899532 -0.0853653257 -0.449817988 -0.889031236 0.176705315 -0.393619028 -0.902130419 -0.0284093254 -0.508599415 -0.860534453 0.176705315 -0.393618881 -0.902130483 0.0435356809 -0.538363175 -0.841587628 0.176705348 -0.393618976 -0.902130435 0.0794583925 -0.54622006 -0.833864503 0.176705197 -0.393619062 -0.902130427 -0.113112772 -0.325775452 -0.93865641 -0.33627334 -0.241679786 -0.910225863 -0.329027795 -0.311497801 -0.891464991 -0.286399965 -0.452999539 -0.844254984 -0.190792337 -0.562318982 -0.804609002 -0.0672729412 -0.626736127 -0.776322213 0.00166723024 -0.643994736 -0.765028104 -0.532907127 -0.217324748 -0.817789672 -0.532907004 -0.217324851 -0.817789725 -0.619232897 0.0530079011 -0.783416097 -0.671905513 -0.00585982293 -0.740613694 -0.532907005 -0.217324837 -0.817789728 -0.695553311 -0.0836576159 -0.713587412 -0.532906945 -0.217324762 -0.817789787 -0.691034206 -0.162511753 -0.704316446 -0.532907014 -0.217324766 -0.817789741 -0.682719893 -0.198948743 -0.703073926 -0.532906945 -0.217324762 -0.817789787 -0.58704853 0.0735655278 -0.806202292 -0.585966212 0.305829158 -0.750407972 -0.639776876 0.26862156 -0.720088888 -0.735372715 0.167792185 -0.656561309 -0.785976991 0.0337716484 -0.617332686 -0.790625919 -0.105840063 -0.603082529 -0.778125278 -0.176103635 -0.602916712 -0.374028503 0.201903581 -0.905172703 -0.374028476 0.201903598 -0.905172711 -0.216563076 0.373295636 -0.902081372 -0.286800478 0.401508695 -0.869790925 -0.374028386 0.201903508 -0.905172768 -0.363247864 0.395685843 -0.843494934 -0.374028385 0.201903522 -0.905172765 -0.426889512 0.360895041 -0.829168327 -0.374028409 0.201903534 -0.905172753 -0.442750517 0.329102727 -0.834064371 -0.374028515 0.201903424 -0.905172733 -0.196101026 0.344935508 -0.917912786 -0.0259634745 0.450528391 -0.892384484 -0.0741126249 0.480362868 -0.873932969 -0.188716649 0.526457962 -0.828992183 -0.31526854 0.52501892 -0.790544673 -0.43171996 0.479686739 -0.763883832 -0.491258894 0.438734655 -0.752447076 0.442690198 0.367757026 -0.817789801 0.442690253 0.367757111 -0.817789733 0.606438175 0.135984707 -0.783416172 0.638931685 0.20798455 -0.740613751 0.442690176 0.367757152 -0.817789756 0.638046247 0.289292149 -0.713587443 0.442690169 0.367757057 -0.817789803 0.609983974 0.36312234 -0.704316489 0.442690188 0.367757077 -0.817789783 0.591080001 0.395362401 -0.703073968 0.442690104 0.367757023 -0.817789853 0.58194137 0.106686906 -0.806202298 0.650873528 -0.115114455 -0.750408097 0.690976758 -0.0634256395 -0.720089098 0.751759898 0.061516528 -0.656561325 0.759643061 0.204555432 -0.617332564 0.722020973 0.339082743 -0.603082588 0.688935571 0.402317222 -0.602916771 0.356594229 0.120401857 -0.926468536 0.356594227 0.120401901 -0.926468531 0.31812245 -0.166325467 -0.933345566 0.401910785 -0.143400208 -0.904380507 0.356594146 0.120401964 -0.926468554 0.464670628 -0.0879958123 -0.881100417 0.356594121 0.120401943 -0.926468566 0.49859814 -0.0166172165 -0.866673966 0.356594122 0.120401929 -0.926468568 0.508214521 0.0193587742 -0.861012914 0.356594118 0.120402017 -0.926468558 0.274368135 -0.167171417 -0.946982494 0.181827305 -0.385217902 -0.90473532 0.2527915 -0.380421469 -0.889593145 0.398323479 -0.34242821 -0.850929684 0.513810856 -0.250370226 -0.820556613 0.585190757 -0.128741529 -0.80061064 0.606172612 -0.0600112258 -0.793065834 0.188996434 -0.543599306 -0.817789791 0.188996526 -0.543599255 -0.817789804 -0.08550212 -0.615587846 -0.783416231 -0.0294861585 -0.671283594 -0.740613869 0.188996523 -0.543599187 -0.81778985 0.0469601603 -0.698990467 -0.713587465 0.188996451 -0.543599194 -0.817789861 0.125942841 -0.698624787 -0.704316554 0.188996451 -0.543599194 -0.817789861 0.162766709 -0.692238267 -0.703074093 0.188996273 -0.543599434 -0.817789744 -0.104338743 -0.582366886 -0.806202355 -0.336223929 -0.569070337 -0.75040817 -0.301897825 -0.624763491 -0.72008908 -0.20623573 -0.725530117 -0.656561401 -0.0750622668 -0.783113115 -0.617332572 0.0641116738 -0.795098144 -0.603082611 0.1349355 -0.786310084 -0.602916962 9.58006052e-08 0.693824745 -0.72014389 1.38551913e-07 0.693824836 -0.720143803 0.246459695 0.565082435 -0.787362344 0.258154691 0.632781508 -0.730029943 -1.57813824e-07 0.693824684 -0.720143949 0.232386562 0.69580204 -0.679599888 -9.25436659e-08 0.693824714 -0.72014392 0.18115843 0.743418125 -0.643825376 2.49247843e-08 0.693824775 -0.720143862 0.153527097 0.762484971 -0.628526929 -1.41909596e-09 0.693824654 -0.720143979 0.231805561 0.531377788 -0.814802938 0.39517006 0.364005742 -0.843410009 0.418268541 0.419897089 -0.80544265 0.440363661 0.541764421 -0.715940751 0.401128072 0.659742576 -0.635480923 0.318011825 0.754232418 -0.574457952 0.264301778 0.792182151 -0.550083639 -0.0251452269 -0.430729982 -0.902130478 -0.0251451242 -0.430730008 -0.902130469 -0.268535194 -0.275944379 -0.922899534 -0.283532705 -0.359489495 -0.889031219 -0.0251452139 -0.430730103 -0.902130421 -0.260178334 -0.43793572 -0.86053445 -0.0251451338 -0.430729983 -0.90213048 -0.210123966 -0.497572262 -0.841587644 -0.0251451345 -0.430730055 -0.902130446 -0.181895208 -0.521137348 -0.833864496 -0.0251453151 -0.430730053 -0.902130442 -0.250830945 -0.236659955 -0.938656435 -0.409891479 -0.0589734902 -0.910225853 -0.43572291 -0.124240545 -0.891464993 -0.463294139 -0.269429052 -0.844255013 -0.429010422 -0.410553784 -0.804609003 -0.349226799 -0.524751777 -0.776322237 -0.296059706 -0.571909682 -0.765028081 -0.573027381 0.0534747958 -0.817789745 -0.573027381 0.0534747736 -0.817789746 -0.52468812 0.333108869 -0.783416146 -0.59859989 0.305236746 -0.740613733 -0.573027314 0.0534747653 -0.817789794 -0.655516549 0.247165957 -0.713587446 -0.573027312 0.0534748062 -0.817789792 -0.687940838 0.175144718 -0.704316499 -0.573027312 0.0534748285 -0.817789791 -0.697401751 0.138988463 -0.703073968 -0.573027352 0.053474823 -0.817789764 -0.486646739 0.336470989 -0.806202347 -0.37837643 0.541958579 -0.750408006 -0.443290174 0.53382188 -0.720088899 -0.574656415 0.488566538 -0.656561302 -0.681455917 0.393087987 -0.617332703 -0.750082254 0.271418482 -0.603082597 -0.771458991 0.203328254 -0.602916783 -0.238431052 0.351870717 -0.905172708 -0.238431036 0.351870744 -0.905172702 -0.0195932428 0.431120967 -0.90208138 -0.0688496471 0.488593351 -0.869790931 -0.238430993 0.351870598 -0.90517277 -0.139338807 0.518749418 -0.843494955 -0.23843096 0.351870653 -0.905172757 -0.211854672 0.517298234 -0.82916834 -0.238431002 0.351870649 -0.905172748 -0.240609998 0.496430655 -0.834064406 -0.238431096 0.351870537 -0.905172767 -0.0145489874 0.396515347 -0.917912799 0.18512683 0.411555566 -0.892384487 0.15620892 0.460260726 -0.873932971 0.0758669602 0.554090383 -0.828992191 -0.0370329506 0.611283539 -0.790544746 -0.161254509 0.624882634 -0.763883942 -0.232978507 0.616071699 -0.752447126 0.562519428 0.121620952 -0.817789849 0.562519649 0.121620911 -0.817789703 0.600659184 -0.159585712 -0.783416202 0.662742073 -0.110743917 -0.740613752 0.562519563 0.121620986 -0.817789751 0.699522561 -0.0382255878 -0.71358741 0.562519497 0.121620947 -0.817789802 0.708745954 0.0402175261 -0.704316494 0.562519566 0.121620934 -0.817789757 0.706876146 0.0775442631 -0.703073966 0.562519427 0.121620975 -0.817789846 0.565397573 -0.174251024 -0.80620231 0.524054722 -0.402807993 -0.750408135 0.583502345 -0.37549522 -0.720089128 0.695134883 -0.292770775 -0.65656132 0.768212984 -0.169556158 -0.617332585 0.797001404 -0.032865788 -0.603082584 0.796874533 0.0385010285 -0.602916785 0.371880643 -0.0579728174 -0.926468532 0.371880644 -0.057972758 -0.926468535 0.20528749 -0.294487839 -0.933345573 0.290188701 -0.31286806 -0.904380503 0.371880594 -0.057972685 -0.926468559 0.371446393 -0.292727792 -0.881100458 0.371880593 -0.0579727221 -0.926468557 0.434514084 -0.245099475 -0.866673963 0.371880619 -0.0579727364 -0.926468546 0.459664178 -0.217636472 -0.861012898 0.371880619 -0.0579727252 -0.926468547 0.166092275 -0.275022743 -0.946982496 -0.0167211532 -0.425645906 -0.904735302 0.0484308346 -0.454178936 -0.889593137 0.195052342 -0.48772252 -0.850929684 0.340007188 -0.459436508 -0.820556645 0.459506668 -0.384546584 -0.800610734 0.509869692 -0.333285866 -0.793065841 -0.0835384254 -0.569421751 -0.817789827 -0.0835383218 -0.569421755 -0.817789834 -0.360242956 -0.506442477 -0.783416256 -0.336296714 -0.581717861 -0.740613833 -0.0835383246 -0.569421715 -0.817789862 -0.281299895 -0.64160998 -0.713587418 -0.0835383542 -0.569421714 -0.81778986 -0.211083593 -0.677777236 -0.704316502 -0.0835383764 -0.569421713 -0.817789859 -0.175474938 -0.689126535 -0.703074082 -0.0835386082 -0.569421838 -0.817789748 -0.361599805 -0.46827689 -0.806202416 -0.561108486 -0.349349121 -0.750408194 -0.556397069 -0.41460096 -0.720089123 -0.518113436 -0.548165621 -0.656561436 -0.428384162 -0.659838985 -0.617332588 -0.310492375 -0.734769246 -0.603082614 -0.243620621 -0.759697443 -0.602916901</float_array>
        <technique_common><accessor source="#vfx_kurp_0271-mesh-normals-array" count="252" stride="3"><param name="X" type="float"/><param name="Y" type="float"/><param name="Z" type="float"/></accessor></technique_common>
      </source>
      <source id="vfx_kurp_0271-mesh-uv0">
        <float_array id="vfx_kurp_0271-mesh-uv0-array" count="504">0 -0.623529434 0 -0.423529387 0.5 -0.623529434 0.5 -0.423529387 0 -0.223529339 0.5 -0.223529339 0 -0.0235294104 0.5 -0.0235294104 0 0.176470578 0.5 0.176470578 0 -0.823529482 0.5 -0.823529482 1 -0.823529482 1 -0.623529434 1 -0.423529387 1 -0.223529339 1 -0.0235294104 1 0.176470578 0 -0.623529434 0 -0.423529387 0.5 -0.623529434 0.5 -0.423529387 0 -0.223529339 0.5 -0.223529339 0 -0.0235294104 0.5 -0.0235294104 0 0.176470578 0.5 0.176470578 0 -0.823529482 0.5 -0.823529482 1 -0.823529482 1 -0.623529434 1 -0.423529387 1 -0.223529339 1 -0.0235294104 1 0.176470578 0 -0.623529434 0 -0.423529387 0.5 -0.623529434 0.5 -0.423529387 0 -0.223529339 0.5 -0.223529339 0 -0.0235294104 0.5 -0.0235294104 0 0.176470578 0.5 0.176470578 0 -0.823529482 0.5 -0.823529482 1 -0.823529482 1 -0.623529434 1 -0.423529387 1 -0.223529339 1 -0.0235294104 1 0.176470578 0 -0.623529434 0 -0.423529387 0.5 -0.623529434 0.5 -0.423529387 0 -0.223529339 0.5 -0.223529339 0 -0.0235294104 0.5 -0.0235294104 0 0.176470578 0.5 0.176470578 0 -0.823529482 0.5 -0.823529482 1 -0.823529482 1 -0.623529434 1 -0.423529387 1 -0.223529339 1 -0.0235294104 1 0.176470578 0 -0.623529434 0 -0.423529387 0.5 -0.623529434 0.5 -0.423529387 0 -0.223529339 0.5 -0.223529339 0 -0.0235294104 0.5 -0.0235294104 0 0.176470578 0.5 0.176470578 0 -0.823529482 0.5 -0.823529482 1 -0.823529482 1 -0.623529434 1 -0.423529387 1 -0.223529339 1 -0.0235294104 1 0.176470578 0 -0.623529434 0 -0.423529387 0.5 -0.623529434 0.5 -0.423529387 0 -0.223529339 0.5 -0.223529339 0 -0.0235294104 0.5 -0.0235294104 0 0.176470578 0.5 0.176470578 0 -0.823529482 0.5 -0.823529482 1 -0.823529482 1 -0.623529434 1 -0.423529387 1 -0.223529339 1 -0.0235294104 1 0.176470578 0 -0.623529434 0 -0.423529387 0.5 -0.623529434 0.5 -0.423529387 0 -0.223529339 0.5 -0.223529339 0 -0.0235294104 0.5 -0.0235294104 0 0.176470578 0.5 0.176470578 0 -0.823529482 0.5 -0.823529482 1 -0.823529482 1 -0.623529434 1 -0.423529387 1 -0.223529339 1 -0.0235294104 1 0.176470578 0 -0.623529434 0 -0.423529387 0.5 -0.623529434 0.5 -0.423529387 0 -0.223529339 0.5 -0.223529339 0 -0.0235294104 0.5 -0.0235294104 0 0.176470578 0.5 0.176470578 0 -0.823529482 0.5 -0.823529482 1 -0.823529482 1 -0.623529434 1 -0.423529387 1 -0.223529339 1 -0.0235294104 1 0.176470578 0 -0.623529434 0 -0.423529387 0.5 -0.623529434 0.5 -0.423529387 0 -0.223529339 0.5 -0.223529339 0 -0.0235294104 0.5 -0.0235294104 0 0.176470578 0.5 0.176470578 0 -0.823529482 0.5 -0.823529482 1 -0.823529482 1 -0.623529434 1 -0.423529387 1 -0.223529339 1 -0.0235294104 1 0.176470578 0 -0.623529434 0 -0.423529387 0.5 -0.623529434 0.5 -0.423529387 0 -0.223529339 0.5 -0.223529339 0 -0.0235294104 0.5 -0.0235294104 0 0.176470578 0.5 0.176470578 0 -0.823529482 0.5 -0.823529482 1 -0.823529482 1 -0.623529434 1 -0.423529387 1 -0.223529339 1 -0.0235294104 1 0.176470578 0 -0.623529434 0 -0.423529387 0.5 -0.623529434 0.5 -0.423529387 0 -0.223529339 0.5 -0.223529339 0 -0.0235294104 0.5 -0.0235294104 0 0.176470578 0.5 0.176470578 0 -0.823529482 0.5 -0.823529482 1 -0.823529482 1 -0.623529434 1 -0.423529387 1 -0.223529339 1 -0.0235294104 1 0.176470578 0 -0.623529434 0 -0.423529387 0.5 -0.623529434 0.5 -0.423529387 0 -0.223529339 0.5 -0.223529339 0 -0.0235294104 0.5 -0.0235294104 0 0.176470578 0.5 0.176470578 0 -0.823529482 0.5 -0.823529482 1 -0.823529482 1 -0.623529434 1 -0.423529387 1 -0.223529339 1 -0.0235294104 1 0.176470578 0 -0.623529434 0 -0.423529387 0.5 -0.623529434 0.5 -0.423529387 0 -0.223529339 0.5 -0.223529339 0 -0.0235294104 0.5 -0.0235294104 0 0.176470578 0.5 0.176470578 0 -0.823529482 0.5 -0.823529482 1 -0.823529482 1 -0.623529434 1 -0.423529387 1 -0.223529339 1 -0.0235294104 1 0.176470578 0 -0.623529434 0 -0.423529387 0.5 -0.623529434 0.5 -0.423529387 0 -0.223529339 0.5 -0.223529339 0 -0.0235294104 0.5 -0.0235294104 0 0.176470578 0.5 0.176470578 0 -0.823529482 0.5 -0.823529482 1 -0.823529482 1 -0.623529434 1 -0.423529387 1 -0.223529339 1 -0.0235294104 1 0.176470578</float_array>
        <technique_common><accessor source="#vfx_kurp_0271-mesh-uv0-array" count="252" stride="2"><param name="S" type="float"/><param name="T" type="float"/></accessor></technique_common>
      </source>
      <vertices id="vfx_kurp_0271-mesh-vertices"><input semantic="POSITION" source="#vfx_kurp_0271-mesh-positions"/></vertices>
      <triangles material="PreviewMaterial" count="280">
        <input semantic="VERTEX" source="#vfx_kurp_0271-mesh-vertices" offset="0"/>
        <input semantic="NORMAL" source="#vfx_kurp_0271-mesh-normals" offset="1"/>
        <input semantic="TEXCOORD" source="#vfx_kurp_0271-mesh-uv0" offset="2" set="0"/>
        <p>0 0 0 1 1 1 2 2 2 2 2 2 1 1 1 3 3 3 4 4 4 3 3 3 1 1 1 3 3 3 4 4 4 5 5 5 6 6 6 5 5 5 4 4 4 5 5 5 6 6 6 7 7 7 8 8 8 7 7 7 6 6 6 7 7 7 8 8 8 9 9 9 10 10 10 0 0 0 11 11 11 2 2 2 11 11 11 0 0 0 11 11 11 2 2 2 12 12 12 12 12 12 2 2 2 13 13 13 3 3 3 13 13 13 2 2 2 13 13 13 3 3 3 14 14 14 5 5 5 14 14 14 3 3 3 14 14 14 5 5 5 15 15 15 7 7 7 15 15 15 5 5 5 15 15 15 7 7 7 16 16 16 9 9 9 16 16 16 7 7 7 16 16 16 9 9 9 17 17 17 18 18 18 19 19 19 20 20 20 20 20 20 19 19 19 21 21 21 22 22 22 21 21 21 19 19 19 21 21 21 22 22 22 23 23 23 24 24 24 23 23 23 22 22 22 23 23 23 24 24 24 25 25 25 26 26 26 25 25 25 24 24 24 25 25 25 26 26 26 27 27 27 28 28 28 18 18 18 29 29 29 20 20 20 29 29 29 18 18 18 29 29 29 20 20 20 30 30 30 30 30 30 20 20 20 31 31 31 21 21 21 31 31 31 20 20 20 31 31 31 21 21 21 32 32 32 23 23 23 32 32 32 21 21 21 32 32 32 23 23 23 33 33 33 25 25 25 33 33 33 23 23 23 33 33 33 25 25 25 34 34 34 27 27 27 34 34 34 25 25 25 34 34 34 27 27 27 35 35 35 36 36 36 37 37 37 38 38 38 38 38 38 37 37 37 39 39 39 40 40 40 39 39 39 37 37 37 39 39 39 40 40 40 41 41 41 42 42 42 41 41 41 40 40 40 41 41 41 42 42 42 43 43 43 44 44 44 43 43 43 42 42 42 43 43 43 44 44 44 45 45 45 46 46 46 36 36 36 47 47 47 38 38 38 47 47 47 36 36 36 47 47 47 38 38 38 48 48 48 48 48 48 38 38 38 49 49 49 39 39 39 49 49 49 38 38 38 49 49 49 39 39 39 50 50 50 41 41 41 50 50 50 39 39 39 50 50 50 41 41 41 51 51 51 43 43 43 51 51 51 41 41 41 51 51 51 43 43 43 52 52 52 45 45 45 52 52 52 43 43 43 52 52 52 45 45 45 53 53 53 54 54 54 55 55 55 56 56 56 56 56 56 55 55 55 57 57 57 58 58 58 57 57 57 55 55 55 57 57 57 58 58 58 59 59 59 60 60 60 59 59 59 58 58 58 59 59 59 60 60 60 61 61 61 62 62 62 61 61 61 60 60 60 61 61 61 62 62 62 63 63 63 64 64 64 54 54 54 65 65 65 56 56 56 65 65 65 54 54 54 65 65 65 56 56 56 66 66 66 66 66 66 56 56 56 67 67 67 57 57 57 67 67 67 56 56 56 67 67 67 57 57 57 68 68 68 59 59 59 68 68 68 57 57 57 68 68 68 59 59 59 69 69 69 61 61 61 69 69 69 59 59 59 69 69 69 61 61 61 70 70 70 63 63 63 70 70 70 61 61 61 70 70 70 63 63 63 71 71 71 72 72 72 73 73 73 74 74 74 74 74 74 73 73 73 75 75 75 76 76 76 75 75 75 73 73 73 75 75 75 76 76 76 77 77 77 78 78 78 77 77 77 76 76 76 77 77 77 78 78 78 79 79 79 80 80 80 79 79 79 78 78 78 79 79 79 80 80 80 81 81 81 82 82 82 72 72 72 83 83 83 74 74 74 83 83 83 72 72 72 83 83 83 74 74 74 84 84 84 84 84 84 74 74 74 85 85 85 75 75 75 85 85 85 74 74 74 85 85 85 75 75 75 86 86 86 77 77 77 86 86 86 75 75 75 86 86 86 77 77 77 87 87 87 79 79 79 87 87 87 77 77 77 87 87 87 79 79 79 88 88 88 81 81 81 88 88 88 79 79 79 88 88 88 81 81 81 89 89 89 90 90 90 91 91 91 92 92 92 92 92 92 91 91 91 93 93 93 94 94 94 93 93 93 91 91 91 93 93 93 94 94 94 95 95 95 96 96 96 95 95 95 94 94 94 95 95 95 96 96 96 97 97 97 98 98 98 97 97 97 96 96 96 97 97 97 98 98 98 99 99 99 100 100 100 90 90 90 101 101 101 92 92 92 101 101 101 90 90 90 101 101 101 92 92 92 102 102 102 102 102 102 92 92 92 103 103 103 93 93 93 103 103 103 92 92 92 103 103 103 93 93 93 104 104 104 95 95 95 104 104 104 93 93 93 104 104 104 95 95 95 105 105 105 97 97 97 105 105 105 95 95 95 105 105 105 97 97 97 106 106 106 99 99 99 106 106 106 97 97 97 106 106 106 99 99 99 107 107 107 108 108 108 109 109 109 110 110 110 110 110 110 109 109 109 111 111 111 112 112 112 111 111 111 109 109 109 111 111 111 112 112 112 113 113 113 114 114 114 113 113 113 112 112 112 113 113 113 114 114 114 115 115 115 116 116 116 115 115 115 114 114 114 115 115 115 116 116 116 117 117 117 118 118 118 108 108 108 119 119 119 110 110 110 119 119 119 108 108 108 119 119 119 110 110 110 120 120 120 120 120 120 110 110 110 121 121 121 111 111 111 121 121 121 110 110 110 121 121 121 111 111 111 122 122 122 113 113 113 122 122 122 111 111 111 122 122 122 113 113 113 123 123 123 115 115 115 123 123 123 113 113 113 123 123 123 115 115 115 124 124 124 117 117 117 124 124 124 115 115 115 124 124 124 117 117 117 125 125 125 126 126 126 127 127 127 128 128 128 128 128 128 127 127 127 129 129 129 130 130 130 129 129 129 127 127 127 129 129 129 130 130 130 131 131 131 132 132 132 131 131 131 130 130 130 131 131 131 132 132 132 133 133 133 134 134 134 133 133 133 132 132 132 133 133 133 134 134 134 135 135 135 136 136 136 126 126 126 137 137 137 128 128 128 137 137 137 126 126 126 137 137 137 128 128 128 138 138 138 138 138 138 128 128 128 139 139 139 129 129 129 139 139 139 128 128 128 139 139 139 129 129 129 140 140 140 131 131 131 140 140 140 129 129 129 140 140 140 131 131 131 141 141 141 133 133 133 141 141 141 131 131 131 141 141 141 133 133 133 142 142 142 135 135 135 142 142 142 133 133 133 142 142 142 135 135 135 143 143 143 144 144 144 145 145 145 146 146 146 146 146 146 145 145 145 147 147 147 148 148 148 147 147 147 145 145 145 147 147 147 148 148 148 149 149 149 150 150 150 149 149 149 148 148 148 149 149 149 150 150 150 151 151 151 152 152 152 151 151 151 150 150 150 151 151 151 152 152 152 153 153 153 154 154 154 144 144 144 155 155 155 146 146 146 155 155 155 144 144 144 155 155 155 146 146 146 156 156 156 156 156 156 146 146 146 157 157 157 147 147 147 157 157 157 146 146 146 157 157 157 147 147 147 158 158 158 149 149 149 158 158 158 147 147 147 158 158 158 149 149 149 159 159 159 151 151 151 159 159 159 149 149 149 159 159 159 151 151 151 160 160 160 153 153 153 160 160 160 151 151 151 160 160 160 153 153 153 161 161 161 162 162 162 163 163 163 164 164 164 164 164 164 163 163 163 165 165 165 166 166 166 165 165 165 163 163 163 165 165 165 166 166 166 167 167 167 168 168 168 167 167 167 166 166 166 167 167 167 168 168 168 169 169 169 170 170 170 169 169 169 168 168 168 169 169 169 170 170 170 171 171 171 172 172 172 162 162 162 173 173 173 164 164 164 173 173 173 162 162 162 173 173 173 164 164 164 174 174 174 174 174 174 164 164 164 175 175 175 165 165 165 175 175 175 164 164 164 175 175 175 165 165 165 176 176 176 167 167 167 176 176 176 165 165 165 176 176 176 167 167 167 177 177 177 169 169 169 177 177 177 167 167 167 177 177 177 169 169 169 178 178 178 171 171 171 178 178 178 169 169 169 178 178 178 171 171 171 179 179 179 180 180 180 181 181 181 182 182 182 182 182 182 181 181 181 183 183 183 184 184 184 183 183 183 181 181 181 183 183 183 184 184 184 185 185 185 186 186 186 185 185 185 184 184 184 185 185 185 186 186 186 187 187 187 188 188 188 187 187 187 186 186 186 187 187 187 188 188 188 189 189 189 190 190 190 180 180 180 191 191 191 182 182 182 191 191 191 180 180 180 191 191 191 182 182 182 192 192 192 192 192 192 182 182 182 193 193 193 183 183 183 193 193 193 182 182 182 193 193 193 183 183 183 194 194 194 185 185 185 194 194 194 183 183 183 194 194 194 185 185 185 195 195 195 187 187 187 195 195 195 185 185 185 195 195 195 187 187 187 196 196 196 189 189 189 196 196 196 187 187 187 196 196 196 189 189 189 197 197 197 198 198 198 199 199 199 200 200 200 200 200 200 199 199 199 201 201 201 202 202 202 201 201 201 199 199 199 201 201 201 202 202 202 203 203 203 204 204 204 203 203 203 202 202 202 203 203 203 204 204 204 205 205 205 206 206 206 205 205 205 204 204 204 205 205 205 206 206 206 207 207 207 208 208 208 198 198 198 209 209 209 200 200 200 209 209 209 198 198 198 209 209 209 200 200 200 210 210 210 210 210 210 200 200 200 211 211 211 201 201 201 211 211 211 200 200 200 211 211 211 201 201 201 212 212 212 203 203 203 212 212 212 201 201 201 212 212 212 203 203 203 213 213 213 205 205 205 213 213 213 203 203 203 213 213 213 205 205 205 214 214 214 207 207 207 214 214 214 205 205 205 214 214 214 207 207 207 215 215 215 216 216 216 217 217 217 218 218 218 218 218 218 217 217 217 219 219 219 220 220 220 219 219 219 217 217 217 219 219 219 220 220 220 221 221 221 222 222 222 221 221 221 220 220 220 221 221 221 222 222 222 223 223 223 224 224 224 223 223 223 222 222 222 223 223 223 224 224 224 225 225 225 226 226 226 216 216 216 227 227 227 218 218 218 227 227 227 216 216 216 227 227 227 218 218 218 228 228 228 228 228 228 218 218 218 229 229 229 219 219 219 229 229 229 218 218 218 229 229 229 219 219 219 230 230 230 221 221 221 230 230 230 219 219 219 230 230 230 221 221 221 231 231 231 223 223 223 231 231 231 221 221 221 231 231 231 223 223 223 232 232 232 225 225 225 232 232 232 223 223 223 232 232 232 225 225 225 233 233 233 234 234 234 235 235 235 236 236 236 236 236 236 235 235 235 237 237 237 238 238 238 237 237 237 235 235 235 237 237 237 238 238 238 239 239 239 240 240 240 239 239 239 238 238 238 239 239 239 240 240 240 241 241 241 242 242 242 241 241 241 240 240 240 241 241 241 242 242 242 243 243 243 244 244 244 234 234 234 245 245 245 236 236 236 245 245 245 234 234 234 245 245 245 236 236 236 246 246 246 246 246 246 236 236 236 247 247 247 237 237 237 247 247 247 236 236 236 247 247 247 237 237 237 248 248 248 239 239 239 248 248 248 237 237 237 248 248 248 239 239 239 249 249 249 241 241 241 249 249 249 239 239 239 249 249 249 241 241 241 250 250 250 243 243 243 250 250 250 241 241 241 250 250 250 243 243 243 251 251 251</p>
      </triangles>
    </mesh></geometry>
  </library_geometries>
  <library_visual_scenes>
    <visual_scene id="Scene" name="Scene">
      <node id="vfx_kurp_0271" name="vfx_kurp_0271" type="NODE">
        <instance_geometry url="#vfx_kurp_0271-mesh"><bind_material><technique_common><instance_material symbol="PreviewMaterial" target="#PreviewMaterial"><bind_vertex_input semantic="UVSET0" input_semantic="TEXCOORD" input_set="0"/></instance_material></technique_common></bind_material></instance_geometry>
      </node>
    </visual_scene>
  </library_visual_scenes>
  <scene><instance_visual_scene url="#Scene"/></scene>
</COLLADA>
