<?xml version="1.0" encoding="utf-8"?>
<COLLADA xmlns="http://www.collada.org/2005/11/COLLADASchema" version="1.4.1">
  <asset>
    <contributor><authoring_tool>Morrobroom Kurpulio VFX preview converter</authoring_tool></contributor>
    <unit name="unit" meter="1"/>
    <up_axis>Z_UP</up_axis>
  </asset>
  <library_images>
    <image id="VFXTexture" name="darkmap_newgen-1.dds">
      <init_from>../../../Textures/Kurp/darkmap_newgen-1.dds</init_from>
    </image>
  </library_images>
  <library_effects>
    <effect id="PreviewEffect">
      <profile_COMMON>
        <newparam sid="VFXTexture-surface">
          <surface type="2D"><init_from>VFXTexture</init_from></surface>
        </newparam>
        <newparam sid="VFXTexture-sampler">
          <sampler2D><source>VFXTexture-surface</source></sampler2D>
        </newparam>
        <technique sid="common"><phong>
          <emission><color>0.08 0.08 0.08 1</color></emission>
          <ambient><color>0.2 0.2 0.2 1</color></ambient>
          <diffuse><texture texture="VFXTexture-sampler" texcoord="UVSET0"/></diffuse>
          <specular><color>0.15 0.15 0.15 1</color></specular>
          <shininess><float>8</float></shininess>
          <transparent opaque="A_ONE"><texture texture="VFXTexture-sampler" texcoord="UVSET0"/></transparent>
          <transparency><float>1</float></transparency>
        </phong></technique>
      </profile_COMMON>
      <extra><technique profile="GOOGLEEARTH"><double_sided>1</double_sided></technique></extra>
    </effect>
  </library_effects>
  <library_materials><material id="PreviewMaterial" name="PreviewMaterial"><instance_effect url="#PreviewEffect"/></material></library_materials>
  <library_geometries>
    <geometry id="vfx_kurp_0681-mesh" name="vfx_kurp_0681"><mesh>
      <source id="vfx_kurp_0681-mesh-positions">
        <float_array id="vfx_kurp_0681-mesh-positions-array" count="189">-5.02196326 1.13733626 -1.70347224 -5.45054743 0.72405404 0.0234160341 -5.44266525 1.65912491 -1.70436413 -5.93364667 1.31456844 0.0573180578 -5.77678971 2.23979701 -1.70466152 -6.31638128 1.97461437 0.0854017267 -7.95562589 1.20349311 2.0462648 -7.42857341 0.299583703 1.94154249 -6.75865672 -0.502574048 1.82877141 -5.9662641 -1.17942104 1.70795071 -4.87976416 0.218542994 -0.0163043433 -5.07576506 -1.7115526 1.57908089 -4.23638666 -0.1888126 -0.0618430698 -4.11465916 -2.08439519 1.44216193 -3.5374871 -0.487559147 -0.113200159 -3.11261926 -2.28871465 1.29719277 -2.80163651 -0.670242182 -0.170375685 -2.10044563 -2.32092755 1.14417497 -2.04837588 -0.732615012 -0.233369679 -1.10898191 -2.18321972 0.983107439 -1.29765351 -0.673759394 -0.302182008 -0.168026713 -1.88344688 0.813991086 -0.569258772 -0.496103916 -0.376812803 -4.52484257 0.687272774 -1.70198573 -3.96335804 0.320051249 -1.69990449 -3.35117032 0.0447858126 -1.69722875 -2.70321742 -0.131643038 -1.69395828 -2.03534941 -0.204764222 -1.69009307 -1.36394527 -0.172635151 -1.68563348 -0.705509475 -0.0358968886 -1.68057904 0.117751056 -0.205345199 -0.457261901 -0.0762664584 0.202232111 -1.67492997 0.745587483 0.189725479 -0.543529599 0.508240783 0.536027575 -1.6686864 0.69472365 -1.43483814 0.636824955 1.45465237 -0.855499129 0.451609612 2.09109952 -0.167732725 0.25834467 1.29824567 0.67749173 -0.635615688 2.58808393 0.602788268 0.0570309191 1.7619502 1.24385822 -0.733519779 2.93486562 1.42798725 -0.152332431 2.1255458 1.87267776 -0.83724259 3.12630846 2.27842797 -0.369745097 2.38080021 2.54623161 -0.946783701 3.16303924 3.1244281 -0.595207333 2.52262331 3.24575928 -1.06214335 3.05138621 3.93717228 -0.828718814 2.54918705 3.95201261 -1.18332125 2.80311017 4.68981525 -1.07027936 2.46195223 4.64582986 -1.3103175 1.0335347 0.957391056 -1.66184809 1.48656574 1.4560422 -1.65441516 1.85604145 2.0197687 -1.64638761 2.13270814 2.63471673 -1.63776543 2.30958919 3.2857341 -1.62854852 2.38216549 3.95673737 -1.6187371 2.34849435 4.63110837 -1.60833095 2.26558912 5.30870012 -1.44313224 2.20926897 5.29211054 -1.59733005 1.96780701 5.92330037 -1.58176534 1.96780572 5.92329977 -1.58573465 2.43491427 5.35850137 -1.31988939 1.96777437 5.92328462 -1.57754891</float_array>
        <technique_common><accessor source="#vfx_kurp_0681-mesh-positions-array" count="63" stride="3"><param name="X" type="float"/><param name="Y" type="float"/><param name="Z" type="float"/></accessor></technique_common>
      </source>
      <source id="vfx_kurp_0681-mesh-normals">
        <float_array id="vfx_kurp_0681-mesh-normals-array" count="189">-0.687493596 -0.648385867 -0.327029546 -0.627679895 -0.564649699 -0.535899867 -0.781321112 -0.533765181 -0.32346878 -0.712061434 -0.464158494 -0.526806802 -0.822063783 -0.470721926 -0.320362304 -0.749125999 -0.406112605 -0.523338121 -0.666024395 -0.309728673 -0.678586512 -0.632736337 -0.357104625 -0.687110628 -0.559982898 -0.443114918 -0.700048801 -0.476705273 -0.515489174 -0.712055472 -0.52968232 -0.650433755 -0.544401112 -0.385281273 -0.573170836 -0.723210574 -0.420529287 -0.719760516 -0.552358506 -0.288150647 -0.61548467 -0.733585596 -0.302893585 -0.771273819 -0.559814408 -0.1877578 -0.642132757 -0.743244597 -0.179597845 -0.804036224 -0.566807168 -0.0865002879 -0.653181893 -0.752244052 -0.0535516915 -0.817543978 -0.573370788 0.0133209493 -0.649044316 -0.760633965 0.0723123027 -0.811732172 -0.579535859 0.109549485 -0.630453794 -0.768457496 0.195103708 -0.786971758 -0.585328963 -0.577047562 -0.746919388 -0.330344577 -0.452684171 -0.826980706 -0.333436581 -0.31744455 -0.886630853 -0.336325271 -0.174636051 -0.924425417 -0.339027872 -0.0277538294 -0.939450491 -0.341558925 0.119604159 -0.931346666 -0.343930565 0.263825389 -0.900319028 -0.346152873 0.312037277 -0.744055642 -0.590774016 0.401370068 -0.847133728 -0.348233421 0.420494137 -0.684177486 -0.595890802 0.528859272 -0.773100221 -0.350176983 0.200214614 -0.598434069 -0.775751747 0.283571277 -0.554263241 -0.782546861 0.358132308 -0.499432267 -0.788865426 0.518078745 -0.60889983 -0.600695773 0.422697063 -0.435598802 -0.794720628 0.602670549 -0.520116098 -0.605200342 0.476375849 -0.364535378 -0.800112498 0.672471485 -0.420003714 -0.609408716 0.518612245 -0.288068495 -0.805020423 0.726048056 -0.310970567 -0.613311933 0.549209805 -0.208000855 -0.809385096 0.7623737 -0.195592823 -0.616870966 0.568386235 -0.125985437 -0.813058889 0.780893075 -0.076529311 -0.619959087 0.576969743 -0.0432144228 -0.815621499 0.781696704 0.0436951482 -0.62212619 0.643157605 -0.680040459 -0.351984757 0.741451824 -0.570244477 -0.353652978 0.821321712 -0.446413811 -0.355169474 0.880802114 -0.311593663 -0.356506697 0.918437003 -0.169091196 -0.357605423 0.933329932 -0.0223803173 -0.358321587 0.925221824 0.125044827 -0.35822949 0.766499946 0.163995354 -0.620953587 0.894897595 0.270138886 -0.355222855 0.919169532 0.393164878 -0.0234254127 0.933987263 0.357306121 -0.000359518911 0.577830033 0.0412132176 -0.815115896 0.903716089 0.414377895 -0.107648456</float_array>
        <technique_common><accessor source="#vfx_kurp_0681-mesh-normals-array" count="63" stride="3"><param name="X" type="float"/><param name="Y" type="float"/><param name="Z" type="float"/></accessor></technique_common>
      </source>
      <source id="vfx_kurp_0681-mesh-uv0">
        <float_array id="vfx_kurp_0681-mesh-uv0-array" count="126">0.100000001 1 0.100000001 0.5 0.0500000007 1 0.0500000007 0.5 0 1 0 0.5 0 0 0.0500000007 0 0.100000001 0 0.150000006 0 0.150000006 0.5 0.200000003 0 0.200000003 0.5 0.25 0 0.25 0.5 0.300000012 0 0.300000012 0.5 0.349999994 0 0.349999994 0.5 0.400000006 0 0.400000006 0.5 0.450000018 0 0.450000018 0.5 0.150000006 1 0.200000003 1 0.25 1 0.300000012 1 0.349999994 1 0.400000006 1 0.450000018 1 0.5 0.5 0.5 1 0.550000012 0.5 0.550000012 1 0.5 0 0.550000012 0 0.600000024 0 0.600000024 0.5 0.650000036 0 0.650000036 0.5 0.699999988 0 0.699999988 0.5 0.75 0 0.75 0.5 0.800000012 0 0.800000012 0.5 0.850000024 0 0.850000024 0.5 0.900000036 0 0.900000036 0.5 0.600000024 1 0.650000036 1 0.699999988 1 0.75 1 0.800000012 1 0.850000024 1 0.900000036 1 0.949999988 0.5 0.949999988 1 1 0.5 1 1 0.949999988 0 1 0</float_array>
        <technique_common><accessor source="#vfx_kurp_0681-mesh-uv0-array" count="63" stride="2"><param name="S" type="float"/><param name="T" type="float"/></accessor></technique_common>
      </source>
      <vertices id="vfx_kurp_0681-mesh-vertices"><input semantic="POSITION" source="#vfx_kurp_0681-mesh-positions"/></vertices>
      <triangles material="PreviewMaterial" count="80">
        <input semantic="VERTEX" source="#vfx_kurp_0681-mesh-vertices" offset="0"/>
        <input semantic="NORMAL" source="#vfx_kurp_0681-mesh-normals" offset="1"/>
        <input semantic="TEXCOORD" source="#vfx_kurp_0681-mesh-uv0" offset="2" set="0"/>
        <p>0 0 0 1 1 1 2 2 2 3 3 3 2 2 2 1 1 1 2 2 2 3 3 3 4 4 4 5 5 5 4 4 4 3 3 3 6 6 6 5 5 5 7 7 7 3 3 3 7 7 7 5 5 5 7 7 7 3 3 3 8 8 8 1 1 1 8 8 8 3 3 3 8 8 8 1 1 1 9 9 9 10 10 10 9 9 9 1 1 1 9 9 9 10 10 10 11 11 11 12 12 12 11 11 11 10 10 10 11 11 11 12 12 12 13 13 13 14 14 14 13 13 13 12 12 12 13 13 13 14 14 14 15 15 15 16 16 16 15 15 15 14 14 14 15 15 15 16 16 16 17 17 17 18 18 18 17 17 17 16 16 16 17 17 17 18 18 18 19 19 19 20 20 20 19 19 19 18 18 18 19 19 19 20 20 20 21 21 21 22 22 22 21 21 21 20 20 20 1 1 1 0 0 0 10 10 10 23 23 23 10 10 10 0 0 0 10 10 10 23 23 23 12 12 12 24 24 24 12 12 12 23 23 23 12 12 12 24 24 24 14 14 14 25 25 25 14 14 14 24 24 24 14 14 14 25 25 25 16 16 16 26 26 26 16 16 16 25 25 25 16 16 16 26 26 26 18 18 18 27 27 27 18 18 18 26 26 26 18 18 18 27 27 27 20 20 20 28 28 28 20 20 20 27 27 27 20 20 20 28 28 28 22 22 22 29 29 29 22 22 22 28 28 28 22 22 22 29 29 29 30 30 30 31 31 31 30 30 30 29 29 29 30 30 30 31 31 31 32 32 32 33 33 33 32 32 32 31 31 31 21 21 21 22 22 22 34 34 34 30 30 30 34 34 34 22 22 22 34 34 34 30 30 30 35 35 35 32 32 32 35 35 35 30 30 30 35 35 35 32 32 32 36 36 36 37 37 37 36 36 36 32 32 32 36 36 36 37 37 37 38 38 38 39 39 39 38 38 38 37 37 37 38 38 38 39 39 39 40 40 40 41 41 41 40 40 40 39 39 39 40 40 40 41 41 41 42 42 42 43 43 43 42 42 42 41 41 41 42 42 42 43 43 43 44 44 44 45 45 45 44 44 44 43 43 43 44 44 44 45 45 45 46 46 46 47 47 47 46 46 46 45 45 45 46 46 46 47 47 47 48 48 48 49 49 49 48 48 48 47 47 47 32 32 32 33 33 33 37 37 37 50 50 50 37 37 37 33 33 33 37 37 37 50 50 50 39 39 39 51 51 51 39 39 39 50 50 50 39 39 39 51 51 51 41 41 41 52 52 52 41 41 41 51 51 51 41 41 41 52 52 52 43 43 43 53 53 53 43 43 43 52 52 52 43 43 43 53 53 53 45 45 45 54 54 54 45 45 45 53 53 53 45 45 45 54 54 54 47 47 47 55 55 55 47 47 47 54 54 54 47 47 47 55 55 55 49 49 49 56 56 56 49 49 49 55 55 55 49 49 49 56 56 56 57 57 57 58 58 58 57 57 57 56 56 56 57 57 57 58 58 58 59 59 59 60 60 60 59 59 59 58 58 58 48 48 48 49 49 49 61 61 61 57 57 57 61 61 61 49 49 49 61 61 61 57 57 57 62 62 62 59 59 59 62 62 62 57 57 57</p>
      </triangles>
    </mesh></geometry>
  </library_geometries>
  <library_visual_scenes>
    <visual_scene id="Scene" name="Scene">
      <node id="vfx_kurp_0681" name="vfx_kurp_0681" type="NODE">
        <instance_geometry url="#vfx_kurp_0681-mesh"><bind_material><technique_common><instance_material symbol="PreviewMaterial" target="#PreviewMaterial"><bind_vertex_input semantic="UVSET0" input_semantic="TEXCOORD" input_set="0"/></instance_material></technique_common></bind_material></instance_geometry>
      </node>
    </visual_scene>
  </library_visual_scenes>
  <scene><instance_visual_scene url="#Scene"/></scene>
</COLLADA>
