<?xml version="1.0" encoding="utf-8"?>
<COLLADA xmlns="http://www.collada.org/2005/11/COLLADASchema" version="1.4.1">
  <asset>
    <contributor><authoring_tool>Morrobroom Kurpulio VFX preview converter</authoring_tool></contributor>
    <unit name="unit" meter="1"/>
    <up_axis>Z_UP</up_axis>
  </asset>
  <library_images>
    <image id="VFXTexture" name="darkmap_newgen-1.dds">
      <init_from>../../../Textures/Kurp/darkmap_newgen-1.dds</init_from>
    </image>
  </library_images>
  <library_effects>
    <effect id="PreviewEffect">
      <profile_COMMON>
        <newparam sid="VFXTexture-surface">
          <surface type="2D"><init_from>VFXTexture</init_from></surface>
        </newparam>
        <newparam sid="VFXTexture-sampler">
          <sampler2D><source>VFXTexture-surface</source></sampler2D>
        </newparam>
        <technique sid="common"><phong>
          <emission><color>0.08 0.08 0.08 1</color></emission>
          <ambient><color>0.2 0.2 0.2 1</color></ambient>
          <diffuse><texture texture="VFXTexture-sampler" texcoord="UVSET0"/></diffuse>
          <specular><color>0.15 0.15 0.15 1</color></specular>
          <shininess><float>8</float></shininess>
          <transparent opaque="A_ONE"><texture texture="VFXTexture-sampler" texcoord="UVSET0"/></transparent>
          <transparency><float>1</float></transparency>
        </phong></technique>
      </profile_COMMON>
      <extra><technique profile="GOOGLEEARTH"><double_sided>1</double_sided></technique></extra>
    </effect>
  </library_effects>
  <library_materials><material id="PreviewMaterial" name="PreviewMaterial"><instance_effect url="#PreviewEffect"/></material></library_materials>
  <library_geometries>
    <geometry id="vfx_kurp_0283-mesh" name="vfx_kurp_0283"><mesh>
      <source id="vfx_kurp_0283-mesh-positions">
        <float_array id="vfx_kurp_0283-mesh-positions-array" count="408">2.35439705 -2.56950603 -0.268640573 3.41579299 -2.70161673 -1.39477703 0.982423406 0.191550961 -2.54541999 1.39031778 0.140804185 -2.97830652 4.1588652 -2.67224077 -2.76683798 1.67452344 0.151953224 -3.50267014 4.52067237 -2.47500183 -4.31105968 1.81128267 0.226520396 -4.08643124 4.4411905 -2.11267777 -5.91467238 1.78076871 0.365729135 -4.7025954 3.93207497 -1.63654447 -7.35140642 1.58831542 0.545713369 -5.24569678 3.06337664 -1.09059905 -8.52662506 1.2559818 0.754500314 -5.69494621 -0.0956500109 0.467871327 -2.08232915 0.481330817 0.300878003 -2.23865926 0.597236058 1.27009101 1.60085277 2.11075707 0.832311634 1.18946351 0.982423406 0.191550961 -2.54541999 3.4316611 0.543992289 0.381438027 1.39031778 0.140804185 -2.97830652 4.49305704 0.411881618 -0.744698563 1.67452344 0.151953224 -3.50267014 5.23612897 0.441257744 -2.11675982 1.81128267 0.226520396 -4.08643124 5.59793615 0.638496283 -3.66098032 1.78076871 0.365729135 -4.7025954 5.51845476 1.00082079 -5.26459523 1.58831542 0.545713369 -5.24569678 5.00933923 1.47695408 -6.70132928 1.2559818 0.754500314 -5.69494621 4.1406406 2.02289971 -7.87654843 -0.937537235 1.81182663 1.54956921 -0.680687443 0.674271988 -2.10138615 -2.31801499 2.3915481 1.06066758 -1.20440052 0.894247683 -2.28708267 -3.47085227 2.97094173 0.196106348 -1.64744597 1.11693537 -2.61944482 -4.33127289 3.51557127 -0.986527222 -1.97649714 1.32514346 -3.07136182 -4.83027561 3.98941632 -2.42906011 -2.16511996 1.50426654 -3.61668584 -4.89817934 4.34801992 -4.03403973 -2.19123646 1.64206211 -4.23336838 -4.52583827 4.54091294 -5.57490372 -2.05048484 1.71497703 -4.81583204 -3.7739007 4.56609621 -6.94157512 -1.76278855 1.72452831 -5.33832827 -2.05048484 1.71497703 -4.81583204 -1.76278855 1.72452831 -5.33832827 -5.60310039 1.42741396 -6.22498163 -4.85116283 1.45259685 -7.59165197 -5.97544148 1.23452069 -4.68411712 -2.19123646 1.64206211 -4.23336838 -5.90753837 0.875917678 -3.07913934 -2.16511996 1.50426654 -3.61668584 -5.40853565 0.402072635 -1.63660645 -1.97649714 1.32514346 -3.07136182 -4.54811474 -0.142557142 -0.453972235 -1.64744597 1.11693537 -2.61944482 -3.39527773 -0.721950626 0.410588754 -1.20440052 0.894247683 -2.28708267 -2.01480025 -1.30167198 0.899490286 -0.680687443 0.674271988 -2.10138615 -0.480027173 -1.84340739 0.950773899 -0.0956500109 0.467871327 -2.08232915 1.0334934 -2.28118677 0.539384657 0.481330817 0.300878003 -2.23865926 -1.37481127 1.20543654 -0.588616341 -1.31361561 0.207289521 -0.624738469 -0.22834124 1.04566125 -2.76988651 -0.204819535 0.662024345 -2.78382335 -1.24844286 -0.746426952 -0.936551087 -0.179908538 0.297433478 -2.9028804 -1.18318895 -1.59347227 -1.51848414 -0.155240854 -0.0227675229 -3.12287538 -1.12319277 -2.25596093 -2.34439872 -0.132187751 -0.277331197 -3.44020809 -1.07691207 -2.64062585 -3.29754429 -0.114693221 -0.422737809 -3.80050853 -1.04677222 -2.73954737 -4.29736095 -0.103176105 -0.460429805 -4.18283246 -0.264454171 1.76216841 -3.06737578 -0.248627966 1.41866669 -2.86323563 0.689227208 3.22054883 -1.31766456 0.730792101 2.31891282 -0.78281202 -0.22834124 1.04566125 -2.76988651 0.784245191 1.33591916 -0.536439251 -0.204819535 0.662024345 -2.78382335 0.845440788 0.337772098 -0.572561457 -0.179908538 0.297433478 -2.9028804 0.910613635 -0.615944421 -0.884374375 -0.155240854 -0.0227675229 -3.12287538 0.9758675 -1.46298922 -1.46630674 -0.132187751 -0.277331197 -3.44020809 1.03586371 -2.12547904 -2.29222229 -0.114693221 -0.422737809 -3.80050853 1.08214448 -2.51014402 -3.24536774 -0.103176105 -0.460429805 -4.18283246 1.11228423 -2.60906574 -4.24518472 0.665001055 3.93024294 -2.08999145 -0.273707609 2.03291019 -3.36153625 0.660150404 4.37520111 -3.00203369 -0.275539334 2.20161764 -3.70764727 0.673556479 4.54749926 -3.98767057 -0.270383325 2.26778806 -4.08648713 0.704121177 4.44139043 -4.98709754 -0.258708212 2.22736531 -4.46852286 0.750796323 4.04936893 -5.93816646 -0.241063228 2.07916063 -4.82804949 0.811042459 3.38076045 -6.75911566 -0.217915195 1.8222731 -5.14349625 0.876347588 2.53015692 -7.33427228 -0.193229007 1.5007343 -5.36091042 0.941465451 1.57456566 -7.63912353 -0.168329965 1.135294 -5.47735154 -0.193229007 1.5007343 -5.36091042 -0.168329965 1.135294 -5.47735154 -1.28270879 2.39967382 -7.38644827 -1.21759109 1.44408295 -7.69129885 -1.34801406 3.25027758 -6.81129159 -0.217915195 1.8222731 -5.14349625 -1.40826009 3.91888542 -5.99034311 -0.241063228 2.07916063 -4.82804949 -1.45493516 4.31090704 -5.03927417 -0.258708212 2.22736531 -4.46852286 -1.48550002 4.4170158 -4.03984663 -0.270383325 2.26778806 -4.08648713 -1.49890593 4.24471801 -3.05421025 -0.275539334 2.20161764 -3.70764727 -1.49405547 3.79975961 -2.14216805 -0.273707609 2.03291019 -3.36153625 -1.46982925 3.09006567 -1.36984142 -0.264454171 1.76216841 -3.06737578 -1.42826441 2.18843003 -0.834989075 -0.248627966 1.41866669 -2.86323563</float_array>
        <technique_common><accessor source="#vfx_kurp_0283-mesh-positions-array" count="136" stride="3"><param name="X" type="float"/><param name="Y" type="float"/><param name="Z" type="float"/></accessor></technique_common>
      </source>
      <source id="vfx_kurp_0283-mesh-normals">
        <float_array id="vfx_kurp_0283-mesh-normals-array" count="408">0.530883848 0.680383401 0.505213587 0.614536557 0.669958824 0.416533305 0.530877511 0.680397843 0.505200796 0.614549355 0.669943757 0.416538656 0.673051311 0.672354666 0.308125193 0.673085002 0.672353349 0.308054466 0.701426741 0.687984317 0.186220585 0.701437765 0.688000553 0.18611905 0.695259733 0.716096491 0.0618038711 0.695282907 0.716064209 0.0619171066 0.655255032 0.753636364 -0.0517017813 0.65527871 0.753621639 -0.0516162555 0.626155037 0.772746936 -0.103884759 0.626056358 0.772816271 -0.103963685 -0.26879582 -0.929363312 0.253046717 -0.15075689 -0.963559415 0.220965188 -0.268767616 -0.929380746 0.253012643 -0.150524978 -0.963607367 0.220914175 -0.0458563412 -0.986502212 0.157195995 -0.0458685797 -0.986505912 0.157169202 0.0377833896 -0.996933899 0.0685216556 0.0377948632 -0.996934373 0.0685084174 0.0963292609 -0.99454494 -0.0400129423 0.0963178092 -0.994549908 -0.0399169268 0.124694291 -0.978894972 -0.161913456 0.124684766 -0.978912492 -0.161814837 0.118536917 -0.950832844 -0.286122182 0.118517784 -0.950801466 -0.286234356 0.0785416452 -0.913281907 -0.399684085 0.0784998099 -0.913260986 -0.399740106 0.0504696507 -0.890923838 -0.451339704 0.0505076243 -0.89097486 -0.451234726 -0.388624248 -0.88710383 0.249034112 -0.38835899 -0.887205421 0.249086002 -0.498003613 -0.84121543 0.210592026 -0.497998776 -0.841222882 0.210573696 -0.588856354 -0.795571937 0.14252539 -0.588868256 -0.79556087 0.142537993 -0.656645178 -0.752603926 0.0490350889 -0.656684834 -0.752573241 0.0489749531 -0.69585311 -0.715247234 -0.0648833087 -0.695873265 -0.715218752 -0.064981043 -0.701121014 -0.687425974 -0.189406582 -0.701133465 -0.687445624 -0.189289139 -0.671919511 -0.672122618 -0.311087379 -0.671935357 -0.672146244 -0.311002094 -0.647865493 -0.666551506 -0.368753836 -0.647775844 -0.666578407 -0.36886269 -0.0952010894 0.994769823 0.0370101483 -0.0721885809 0.997159711 -0.0214783313 -0.0951647203 0.994775639 0.0369473013 -0.0722161898 0.997160277 -0.0213589426 -0.124379433 0.979472512 0.158629614 -0.124388064 0.979452647 0.15874546 -0.119111221 0.95164898 0.283154966 -0.119129732 0.951675008 0.283059685 -0.0799122252 0.914302002 0.397071637 -0.0799321727 0.914338338 0.396983945 -0.0121139242 0.87131645 0.490572011 -0.0121014458 0.871310632 0.490582651 0.0787477224 0.825677952 0.558618578 0.0787378564 0.825662951 0.558642141 0.188099169 0.779814251 0.597083275 0.188333903 0.779753632 0.597088447 0.307998146 0.737486089 0.601041938 0.308028802 0.737456337 0.601062732 0.426198049 0.703313387 0.568951231 0.425940177 0.703377914 0.569064561 0.883784152 0.0991823636 0.457261884 0.891268452 -0.0228651885 0.45289925 0.883793656 0.0991797249 0.457244087 0.89125964 -0.0228725633 0.452916218 0.899261943 -0.13967464 0.414510498 0.899262931 -0.13974827 0.414483536 0.907247227 -0.243321531 0.343070113 0.907252501 -0.243398707 0.343001412 0.914472848 -0.323096908 0.243614036 0.914466155 -0.323037363 0.243718103 0.920152652 -0.370424383 0.126904981 0.92015871 -0.370382147 0.126984303 0.920760751 -0.384540937 0.0657868266 0.920780169 -0.384518527 0.065645889 -0.921849344 0.22080436 0.318495244 -0.916867668 0.111658275 0.383257237 -0.921860298 0.220758086 0.318495616 -0.916838421 0.111455385 0.383386238 -0.91026761 -0.00922753784 0.413917541 -0.910278894 -0.00923868667 0.413892476 -0.902793572 -0.131262994 0.409553161 -0.90279182 -0.13128031 0.409551475 -0.894812661 -0.248184702 0.371099252 -0.894808366 -0.248109375 0.371159975 -0.886811581 -0.351818322 0.299648274 -0.886817928 -0.351744389 0.299716279 -0.879601172 -0.431460341 0.200359057 -0.879593791 -0.431521986 0.200258678 -0.873915394 -0.478832622 0.0836134243 -0.87391808 -0.478840387 0.0835408507 -0.869865596 -0.492779296 0.0224145083 -0.869885625 -0.492738739 0.0225285419 -0.924820443 0.306793055 0.224911469 -0.924815556 0.306631995 0.225151075 -0.925418739 0.361714877 0.112971259 -0.92542643 0.3616974 0.112964212 -0.923785946 0.382835137 -0.0075355242 -0.923778116 0.382853979 -0.00753811679 -0.920036066 0.36964501 -0.129985403 -0.920029453 0.369634251 -0.130062777 -0.914304794 0.321448808 -0.246409024 -0.914298475 0.321397671 -0.246499159 -0.907050922 0.24093527 -0.345266304 -0.907057701 0.241024198 -0.345186418 -0.899051239 0.136829501 -0.415914123 -0.899067224 0.136897214 -0.415857283 -0.893270052 0.0802156752 -0.442305392 -0.8932785 0.0800727049 -0.442314236 0.895009958 0.245312006 -0.372530796 0.897366635 0.188338573 -0.399076063 0.895019571 0.245243212 -0.372552996 0.897373583 0.188442344 -0.399011448 0.887015725 0.349359213 -0.301912644 0.887009831 0.349444442 -0.301831314 0.879760176 0.4298738 -0.203053071 0.879765084 0.429822895 -0.203139547 0.874034642 0.478076387 -0.0866395578 0.874049609 0.478033467 -0.0867253416 0.870273163 0.491264579 0.0358292459 0.870273516 0.49126269 0.0358465592 0.868645472 0.470124628 0.15632619 0.868631223 0.470145943 0.156341264 0.869259984 0.415241874 0.268255973 0.869285984 0.415075043 0.268429854 0.872184599 0.329155858 0.361870759 0.872170432 0.329144946 0.361914826 0.877242644 0.219896328 0.426721161 0.877228134 0.220163903 0.426613006</float_array>
        <technique_common><accessor source="#vfx_kurp_0283-mesh-normals-array" count="136" stride="3"><param name="X" type="float"/><param name="Y" type="float"/><param name="Z" type="float"/></accessor></technique_common>
      </source>
      <source id="vfx_kurp_0283-mesh-uv0">
        <float_array id="vfx_kurp_0283-mesh-uv0-array" count="272">1 0.375 1 0.3125 0.5 0.375 0.5 0.3125 1 0.25 0.5 0.25 1 0.1875 0.5 0.1875 1 0.125 0.5 0.125 1 0.0625 0.5 0.0625 1 0 0.5 0 0.5 0.5 0.5 0.4375 0 0.5 0 0.4375 0.5 0.375 0 0.375 0.5 0.3125 0 0.3125 0.5 0.25 0 0.25 0.5 0.1875 0 0.1875 0.5 0.125 0 0.125 0.5 0.0625 0 0.0625 0.5 0 0 0 0 0.5625 0.5 0.5625 0 0.625 0.5 0.625 0 0.6875 0.5 0.6875 0 0.75 0.5 0.75 0 0.8125 0.5 0.8125 0 0.875 0.5 0.875 0 0.9375 0.5 0.9375 0 1 0.5 1 0.5 0.9375 0.5 1 1 0.9375 1 1 1 0.875 0.5 0.875 1 0.8125 0.5 0.8125 1 0.75 0.5 0.75 1 0.6875 0.5 0.6875 1 0.625 0.5 0.625 1 0.5625 0.5 0.5625 1 0.5 0.5 0.5 1 0.4375 0.5 0.4375 1 0.375 1 0.3125 0.5 0.375 0.5 0.3125 1 0.25 0.5 0.25 1 0.1875 0.5 0.1875 1 0.125 0.5 0.125 1 0.0625 0.5 0.0625 1 0 0.5 0 0.5 0.5 0.5 0.4375 0 0.5 0 0.4375 0.5 0.375 0 0.375 0.5 0.3125 0 0.3125 0.5 0.25 0 0.25 0.5 0.1875 0 0.1875 0.5 0.125 0 0.125 0.5 0.0625 0 0.0625 0.5 0 0 0 0 0.5625 0.5 0.5625 0 0.625 0.5 0.625 0 0.6875 0.5 0.6875 0 0.75 0.5 0.75 0 0.8125 0.5 0.8125 0 0.875 0.5 0.875 0 0.9375 0.5 0.9375 0 1 0.5 1 0.5 0.9375 0.5 1 1 0.9375 1 1 1 0.875 0.5 0.875 1 0.8125 0.5 0.8125 1 0.75 0.5 0.75 1 0.6875 0.5 0.6875 1 0.625 0.5 0.625 1 0.5625 0.5 0.5625 1 0.5 0.5 0.5 1 0.4375 0.5 0.4375</float_array>
        <technique_common><accessor source="#vfx_kurp_0283-mesh-uv0-array" count="136" stride="2"><param name="S" type="float"/><param name="T" type="float"/></accessor></technique_common>
      </source>
      <vertices id="vfx_kurp_0283-mesh-vertices"><input semantic="POSITION" source="#vfx_kurp_0283-mesh-positions"/></vertices>
      <triangles material="PreviewMaterial" count="128">
        <input semantic="VERTEX" source="#vfx_kurp_0283-mesh-vertices" offset="0"/>
        <input semantic="NORMAL" source="#vfx_kurp_0283-mesh-normals" offset="1"/>
        <input semantic="TEXCOORD" source="#vfx_kurp_0283-mesh-uv0" offset="2" set="0"/>
        <p>0 0 0 1 1 1 2 2 2 2 2 2 1 1 1 3 3 3 4 4 4 3 3 3 1 1 1 3 3 3 4 4 4 5 5 5 6 6 6 5 5 5 4 4 4 5 5 5 6 6 6 7 7 7 8 8 8 7 7 7 6 6 6 7 7 7 8 8 8 9 9 9 10 10 10 9 9 9 8 8 8 9 9 9 10 10 10 11 11 11 12 12 12 11 11 11 10 10 10 11 11 11 12 12 12 13 13 13 14 14 14 15 15 15 16 16 16 16 16 16 15 15 15 17 17 17 18 18 18 17 17 17 15 15 15 17 17 17 18 18 18 19 19 19 20 20 20 19 19 19 18 18 18 19 19 19 20 20 20 21 21 21 22 22 22 21 21 21 20 20 20 21 21 21 22 22 22 23 23 23 24 24 24 23 23 23 22 22 22 23 23 23 24 24 24 25 25 25 26 26 26 25 25 25 24 24 24 25 25 25 26 26 26 27 27 27 28 28 28 27 27 27 26 26 26 27 27 27 28 28 28 29 29 29 30 30 30 29 29 29 28 28 28 29 29 29 30 30 30 31 31 31 32 32 32 14 14 14 16 16 16 14 14 14 32 32 32 33 33 33 34 34 34 33 33 33 32 32 32 33 33 33 34 34 34 35 35 35 36 36 36 35 35 35 34 34 34 35 35 35 36 36 36 37 37 37 38 38 38 37 37 37 36 36 36 37 37 37 38 38 38 39 39 39 40 40 40 39 39 39 38 38 38 39 39 39 40 40 40 41 41 41 42 42 42 41 41 41 40 40 40 41 41 41 42 42 42 43 43 43 44 44 44 43 43 43 42 42 42 43 43 43 44 44 44 45 45 45 46 46 46 45 45 45 44 44 44 47 47 47 45 45 45 46 46 46 48 48 48 49 49 49 50 50 50 51 51 51 50 50 50 49 49 49 50 50 50 52 52 52 48 48 48 48 48 48 52 52 52 53 53 53 54 54 54 53 53 53 52 52 52 53 53 53 54 54 54 55 55 55 56 56 56 55 55 55 54 54 54 55 55 55 56 56 56 57 57 57 58 58 58 57 57 57 56 56 56 57 57 57 58 58 58 59 59 59 60 60 60 59 59 59 58 58 58 59 59 59 60 60 60 61 61 61 62 62 62 61 61 61 60 60 60 61 61 61 62 62 62 63 63 63 64 64 64 63 63 63 62 62 62 63 63 63 64 64 64 65 65 65 66 66 66 65 65 65 64 64 64 65 65 65 66 66 66 67 67 67 0 0 0 67 67 67 66 66 66 67 67 67 0 0 0 2 2 2 68 68 68 69 69 69 70 70 70 70 70 70 69 69 69 71 71 71 72 72 72 71 71 71 69 69 69 71 71 71 72 72 72 73 73 73 74 74 74 73 73 73 72 72 72 73 73 73 74 74 74 75 75 75 76 76 76 75 75 75 74 74 74 75 75 75 76 76 76 77 77 77 78 78 78 77 77 77 76 76 76 77 77 77 78 78 78 79 79 79 80 80 80 79 79 79 78 78 78 79 79 79 80 80 80 81 81 81 82 82 82 83 83 83 84 84 84 84 84 84 83 83 83 85 85 85 86 86 86 85 85 85 83 83 83 85 85 85 86 86 86 87 87 87 88 88 88 87 87 87 86 86 86 87 87 87 88 88 88 89 89 89 90 90 90 89 89 89 88 88 88 89 89 89 90 90 90 91 91 91 92 92 92 91 91 91 90 90 90 91 91 91 92 92 92 93 93 93 94 94 94 93 93 93 92 92 92 93 93 93 94 94 94 95 95 95 96 96 96 95 95 95 94 94 94 95 95 95 96 96 96 97 97 97 98 98 98 97 97 97 96 96 96 97 97 97 98 98 98 99 99 99 100 100 100 82 82 82 84 84 84 82 82 82 100 100 100 101 101 101 102 102 102 101 101 101 100 100 100 101 101 101 102 102 102 103 103 103 104 104 104 103 103 103 102 102 102 103 103 103 104 104 104 105 105 105 106 106 106 105 105 105 104 104 104 105 105 105 106 106 106 107 107 107 108 108 108 107 107 107 106 106 106 107 107 107 108 108 108 109 109 109 110 110 110 109 109 109 108 108 108 109 109 109 110 110 110 111 111 111 112 112 112 111 111 111 110 110 110 111 111 111 112 112 112 113 113 113 114 114 114 113 113 113 112 112 112 115 115 115 113 113 113 114 114 114 116 116 116 117 117 117 118 118 118 119 119 119 118 118 118 117 117 117 118 118 118 120 120 120 116 116 116 116 116 116 120 120 120 121 121 121 122 122 122 121 121 121 120 120 120 121 121 121 122 122 122 123 123 123 124 124 124 123 123 123 122 122 122 123 123 123 124 124 124 125 125 125 126 126 126 125 125 125 124 124 124 125 125 125 126 126 126 127 127 127 128 128 128 127 127 127 126 126 126 127 127 127 128 128 128 129 129 129 130 130 130 129 129 129 128 128 128 129 129 129 130 130 130 131 131 131 132 132 132 131 131 131 130 130 130 131 131 131 132 132 132 133 133 133 134 134 134 133 133 133 132 132 132 133 133 133 134 134 134 135 135 135 68 68 68 135 135 135 134 134 134 135 135 135 68 68 68 70 70 70</p>
      </triangles>
    </mesh></geometry>
  </library_geometries>
  <library_visual_scenes>
    <visual_scene id="Scene" name="Scene">
      <node id="vfx_kurp_0283" name="vfx_kurp_0283" type="NODE">
        <instance_geometry url="#vfx_kurp_0283-mesh"><bind_material><technique_common><instance_material symbol="PreviewMaterial" target="#PreviewMaterial"><bind_vertex_input semantic="UVSET0" input_semantic="TEXCOORD" input_set="0"/></instance_material></technique_common></bind_material></instance_geometry>
      </node>
    </visual_scene>
  </library_visual_scenes>
  <scene><instance_visual_scene url="#Scene"/></scene>
</COLLADA>
