<?xml version="1.0" encoding="utf-8"?>
<COLLADA xmlns="http://www.collada.org/2005/11/COLLADASchema" version="1.4.1">
  <asset>
    <contributor><authoring_tool>Morrobroom Kurpulio VFX preview converter</authoring_tool></contributor>
    <unit name="unit" meter="1"/>
    <up_axis>Z_UP</up_axis>
  </asset>
  <library_images>
    <image id="VFXTexture" name="darkmap_newgen-1.dds">
      <init_from>../../../Textures/Kurp/darkmap_newgen-1.dds</init_from>
    </image>
  </library_images>
  <library_effects>
    <effect id="PreviewEffect">
      <profile_COMMON>
        <newparam sid="VFXTexture-surface">
          <surface type="2D"><init_from>VFXTexture</init_from></surface>
        </newparam>
        <newparam sid="VFXTexture-sampler">
          <sampler2D><source>VFXTexture-surface</source></sampler2D>
        </newparam>
        <technique sid="common"><phong>
          <emission><color>0.08 0.08 0.08 1</color></emission>
          <ambient><color>0.2 0.2 0.2 1</color></ambient>
          <diffuse><texture texture="VFXTexture-sampler" texcoord="UVSET0"/></diffuse>
          <specular><color>0.15 0.15 0.15 1</color></specular>
          <shininess><float>8</float></shininess>
          <transparent opaque="A_ONE"><texture texture="VFXTexture-sampler" texcoord="UVSET0"/></transparent>
          <transparency><float>1</float></transparency>
        </phong></technique>
      </profile_COMMON>
      <extra><technique profile="GOOGLEEARTH"><double_sided>1</double_sided></technique></extra>
    </effect>
  </library_effects>
  <library_materials><material id="PreviewMaterial" name="PreviewMaterial"><instance_effect url="#PreviewEffect"/></material></library_materials>
  <library_geometries>
    <geometry id="vfx_kurp_0686-mesh" name="vfx_kurp_0686"><mesh>
      <source id="vfx_kurp_0686-mesh-positions">
        <float_array id="vfx_kurp_0686-mesh-positions-array" count="189">-2.74684566 4.35528171 -1.70347212 -3.34213459 4.36610194 0.0234162288 -2.67536668 5.02172299 -1.70436394 -3.26618076 5.12526095 0.0573183367 -2.50103117 5.66858183 -1.70466125 -3.07009258 5.86261805 0.0854020925 -4.77447782 6.47647344 2.04626525 -5.04095566 5.4646313 1.94154283 -5.13446359 4.4237178 1.82877163 -5.05276087 3.38480893 1.70795073 -3.29598016 3.60504695 -0.0163042243 -4.79935625 2.37885735 1.57908094 -3.12908736 2.86206682 -0.061843016 -4.38339168 1.43561364 1.44216181 -2.84613668 2.15662458 -0.113200158 -3.81931836 0.582588968 1.29719261 -2.45498811 1.50712342 -0.170375735 -3.12638169 -0.155903666 1.14417479 -1.96645689 0.930383581 -0.233369751 -2.32793697 -0.759600175 0.983107262 -1.39399883 0.441159909 -0.3021821 -1.45061003 -1.21298458 0.813990934 -0.753324779 0.0517284469 -0.376812887 -2.71357081 3.68552174 -1.70198568 -2.57620614 3.02882741 -1.6999045 -2.3379663 2.40130347 -1.69722881 -2.00454838 1.81837777 -1.69395837 -1.5839989 1.29441924 -1.69009319 -1.08652604 0.8423836 -1.68563361 -0.524253166 0.473487704 -1.68057916 -0.0619383124 -0.228463414 -0.457261961 0.0890712007 0.196928326 -1.67493008 0.661365961 -0.393053742 -0.543529621 0.738408972 0.0196482696 -1.66868648 -0.523339505 -1.50582703 0.636824787 0.423665328 -1.63352344 0.451609507 1.36002534 -1.59723536 0.258344615 1.39705677 -0.438939368 -0.635615658 2.25628654 -1.40381599 0.0570309466 2.12542665 -0.366346548 -0.733519746 3.08500166 -1.06552416 -0.152332333 2.82716956 -0.178805018 -0.837242483 3.82172401 -0.599542492 -0.369744932 3.48393606 0.116977012 -0.946783513 4.44590844 -0.0273028685 -0.595207055 4.07886036 0.511333634 -1.06214308 4.94165468 0.626344444 -0.82871848 4.59703989 0.991946378 -1.183321 5.29829588 1.33410084 -1.07027892 5.02595836 1.54423336 -1.31031704 1.40779658 -0.0538417893 -1.66184814 2.08073722 -0.0215835708 -1.65441516 2.74061024 0.115772299 -1.64638755 3.37107699 0.354973205 -1.63776519 3.95648914 0.690237722 -1.62854832 4.48227906 1.11338955 -1.6187367 4.93532197 1.61405079 -1.60833047 5.35582866 2.15180288 -1.44313169 5.3042737 2.17989665 -1.59732961 5.57985232 2.79695434 -1.58176482 5.57985142 2.79695467 -1.58573413 5.51077396 2.06728687 -1.31988884 5.57981871 2.79696657 -1.57754839</float_array>
        <technique_common><accessor source="#vfx_kurp_0686-mesh-positions-array" count="63" stride="3"><param name="X" type="float"/><param name="Y" type="float"/><param name="Z" type="float"/></accessor></technique_common>
      </source>
      <source id="vfx_kurp_0686-mesh-normals">
        <float_array id="vfx_kurp_0686-mesh-normals-array" count="189">-0.944609507 0.0276531308 -0.327029333 -0.843104534 0.0445691058 -0.535899561 -0.929906524 0.175048475 -0.323468528 -0.831713259 0.175293617 -0.526806608 -0.914137641 0.248436113 -0.320362095 -0.816877195 0.242546692 -0.523338083 -0.689961777 0.251939228 -0.678586303 -0.699923434 0.194900936 -0.68711048 -0.709297482 0.0826381883 -0.700048578 -0.701587589 -0.027424409 -0.712055304 -0.834468158 -0.0853842696 -0.544400973 -0.677728151 -0.132858065 -0.723210404 -0.806306823 -0.211588393 -0.552358271 -0.638966951 -0.231460044 -0.733585362 -0.759551205 -0.331194817 -0.559814219 -0.586821437 -0.321291647 -0.743244427 -0.695534343 -0.441544714 -0.56680706 -0.523034444 -0.400704517 -0.752243883 -0.615957756 -0.540224191 -0.573370618 -0.449524466 -0.468363125 -0.760633773 -0.522848926 -0.62511393 -0.579535654 -0.368335141 -0.523261451 -0.768457336 -0.41851406 -0.694432249 -0.585328825 -0.936186008 -0.120117803 -0.330344475 -0.904859798 -0.264667483 -0.333436456 -0.851409899 -0.402475563 -0.336325149 -0.777153834 -0.53018117 -0.339027796 -0.683916812 -0.644666868 -0.341558813 -0.573988773 -0.743134388 -0.343930471 -0.450069082 -0.823174383 -0.346152795 -0.305483275 -0.746770473 -0.590773924 -0.315202674 -0.88282547 -0.348233346 -0.186452428 -0.781120849 -0.595890688 -0.17270462 -0.920624375 -0.350176918 -0.281583847 -0.564729953 -0.775751646 -0.191408254 -0.592438555 -0.782546764 -0.0999142648 -0.606389859 -0.78886531 -0.0642203252 -0.796894216 -0.600695729 -0.00912296139 -0.606906911 -0.794720562 0.0583747485 -0.793930068 -0.605200327 0.0790831373 -0.59461406 -0.800112478 0.178521696 -0.772496652 -0.60940867 0.163019095 -0.570409492 -0.805020364 0.293504204 -0.733282874 -0.613311918 0.241271327 -0.535428859 -0.809385004 0.400774719 -0.67738478 -0.616870719 0.31282472 -0.490995025 -0.81305878 0.498060535 -0.606289277 -0.619958883 0.377422251 -0.438536399 -0.815621402 0.583640304 -0.521845824 -0.622126138 -0.0260802819 -0.935642344 -0.351984692 0.121061819 -0.92750939 -0.353652892 0.265099753 -0.89642445 -0.355169434 0.402491098 -0.843151147 -0.356506745 0.529867563 -0.768998732 -0.357604971 0.644138878 -0.675789001 -0.358321549 0.742650703 -0.56581044 -0.358229646 0.657959486 -0.426035104 -0.620953626 0.82380531 -0.441770999 -0.355222741 0.927957348 -0.371950111 -0.0234152829 0.913081476 -0.407777097 -0.000239668909 0.437730584 -0.379445625 -0.815115301 0.932014369 -0.346030787 -0.107758577</float_array>
        <technique_common><accessor source="#vfx_kurp_0686-mesh-normals-array" count="63" stride="3"><param name="X" type="float"/><param name="Y" type="float"/><param name="Z" type="float"/></accessor></technique_common>
      </source>
      <source id="vfx_kurp_0686-mesh-uv0">
        <float_array id="vfx_kurp_0686-mesh-uv0-array" count="126">0.100000001 1 0.100000001 0.5 0.0500000007 1 0.0500000007 0.5 0 1 0 0.5 0 0 0.0500000007 0 0.100000001 0 0.150000006 0 0.150000006 0.5 0.200000003 0 0.200000003 0.5 0.25 0 0.25 0.5 0.300000012 0 0.300000012 0.5 0.349999994 0 0.349999994 0.5 0.400000006 0 0.400000006 0.5 0.450000018 0 0.450000018 0.5 0.150000006 1 0.200000003 1 0.25 1 0.300000012 1 0.349999994 1 0.400000006 1 0.450000018 1 0.5 0.5 0.5 1 0.550000012 0.5 0.550000012 1 0.5 0 0.550000012 0 0.600000024 0 0.600000024 0.5 0.650000036 0 0.650000036 0.5 0.699999988 0 0.699999988 0.5 0.75 0 0.75 0.5 0.800000012 0 0.800000012 0.5 0.850000024 0 0.850000024 0.5 0.900000036 0 0.900000036 0.5 0.600000024 1 0.650000036 1 0.699999988 1 0.75 1 0.800000012 1 0.850000024 1 0.900000036 1 0.949999988 0.5 0.949999988 1 1 0.5 1 1 0.949999988 0 1 0</float_array>
        <technique_common><accessor source="#vfx_kurp_0686-mesh-uv0-array" count="63" stride="2"><param name="S" type="float"/><param name="T" type="float"/></accessor></technique_common>
      </source>
      <vertices id="vfx_kurp_0686-mesh-vertices"><input semantic="POSITION" source="#vfx_kurp_0686-mesh-positions"/></vertices>
      <triangles material="PreviewMaterial" count="80">
        <input semantic="VERTEX" source="#vfx_kurp_0686-mesh-vertices" offset="0"/>
        <input semantic="NORMAL" source="#vfx_kurp_0686-mesh-normals" offset="1"/>
        <input semantic="TEXCOORD" source="#vfx_kurp_0686-mesh-uv0" offset="2" set="0"/>
        <p>0 0 0 1 1 1 2 2 2 3 3 3 2 2 2 1 1 1 2 2 2 3 3 3 4 4 4 5 5 5 4 4 4 3 3 3 6 6 6 5 5 5 7 7 7 3 3 3 7 7 7 5 5 5 7 7 7 3 3 3 8 8 8 1 1 1 8 8 8 3 3 3 8 8 8 1 1 1 9 9 9 10 10 10 9 9 9 1 1 1 9 9 9 10 10 10 11 11 11 12 12 12 11 11 11 10 10 10 11 11 11 12 12 12 13 13 13 14 14 14 13 13 13 12 12 12 13 13 13 14 14 14 15 15 15 16 16 16 15 15 15 14 14 14 15 15 15 16 16 16 17 17 17 18 18 18 17 17 17 16 16 16 17 17 17 18 18 18 19 19 19 20 20 20 19 19 19 18 18 18 19 19 19 20 20 20 21 21 21 22 22 22 21 21 21 20 20 20 1 1 1 0 0 0 10 10 10 23 23 23 10 10 10 0 0 0 10 10 10 23 23 23 12 12 12 24 24 24 12 12 12 23 23 23 12 12 12 24 24 24 14 14 14 25 25 25 14 14 14 24 24 24 14 14 14 25 25 25 16 16 16 26 26 26 16 16 16 25 25 25 16 16 16 26 26 26 18 18 18 27 27 27 18 18 18 26 26 26 18 18 18 27 27 27 20 20 20 28 28 28 20 20 20 27 27 27 20 20 20 28 28 28 22 22 22 29 29 29 22 22 22 28 28 28 22 22 22 29 29 29 30 30 30 31 31 31 30 30 30 29 29 29 30 30 30 31 31 31 32 32 32 33 33 33 32 32 32 31 31 31 21 21 21 22 22 22 34 34 34 30 30 30 34 34 34 22 22 22 34 34 34 30 30 30 35 35 35 32 32 32 35 35 35 30 30 30 35 35 35 32 32 32 36 36 36 37 37 37 36 36 36 32 32 32 36 36 36 37 37 37 38 38 38 39 39 39 38 38 38 37 37 37 38 38 38 39 39 39 40 40 40 41 41 41 40 40 40 39 39 39 40 40 40 41 41 41 42 42 42 43 43 43 42 42 42 41 41 41 42 42 42 43 43 43 44 44 44 45 45 45 44 44 44 43 43 43 44 44 44 45 45 45 46 46 46 47 47 47 46 46 46 45 45 45 46 46 46 47 47 47 48 48 48 49 49 49 48 48 48 47 47 47 32 32 32 33 33 33 37 37 37 50 50 50 37 37 37 33 33 33 37 37 37 50 50 50 39 39 39 51 51 51 39 39 39 50 50 50 39 39 39 51 51 51 41 41 41 52 52 52 41 41 41 51 51 51 41 41 41 52 52 52 43 43 43 53 53 53 43 43 43 52 52 52 43 43 43 53 53 53 45 45 45 54 54 54 45 45 45 53 53 53 45 45 45 54 54 54 47 47 47 55 55 55 47 47 47 54 54 54 47 47 47 55 55 55 49 49 49 56 56 56 49 49 49 55 55 55 49 49 49 56 56 56 57 57 57 58 58 58 57 57 57 56 56 56 57 57 57 58 58 58 59 59 59 60 60 60 59 59 59 58 58 58 48 48 48 49 49 49 61 61 61 57 57 57 61 61 61 49 49 49 61 61 61 57 57 57 62 62 62 59 59 59 62 62 62 57 57 57</p>
      </triangles>
    </mesh></geometry>
  </library_geometries>
  <library_visual_scenes>
    <visual_scene id="Scene" name="Scene">
      <node id="vfx_kurp_0686" name="vfx_kurp_0686" type="NODE">
        <instance_geometry url="#vfx_kurp_0686-mesh"><bind_material><technique_common><instance_material symbol="PreviewMaterial" target="#PreviewMaterial"><bind_vertex_input semantic="UVSET0" input_semantic="TEXCOORD" input_set="0"/></instance_material></technique_common></bind_material></instance_geometry>
      </node>
    </visual_scene>
  </library_visual_scenes>
  <scene><instance_visual_scene url="#Scene"/></scene>
</COLLADA>
