<?xml version="1.0" encoding="utf-8"?>
<COLLADA xmlns="http://www.collada.org/2005/11/COLLADASchema" version="1.4.1">
  <asset>
    <contributor><authoring_tool>Morrobroom Kurpulio VFX preview converter</authoring_tool></contributor>
    <unit name="unit" meter="1"/>
    <up_axis>Z_UP</up_axis>
  </asset>
  <library_images>
    <image id="VFXTexture" name="darkmap_newgen-1.dds">
      <init_from>../../../Textures/Kurp/darkmap_newgen-1.dds</init_from>
    </image>
  </library_images>
  <library_effects>
    <effect id="PreviewEffect">
      <profile_COMMON>
        <newparam sid="VFXTexture-surface">
          <surface type="2D"><init_from>VFXTexture</init_from></surface>
        </newparam>
        <newparam sid="VFXTexture-sampler">
          <sampler2D><source>VFXTexture-surface</source></sampler2D>
        </newparam>
        <technique sid="common"><phong>
          <emission><color>0.08 0.08 0.08 1</color></emission>
          <ambient><color>0.2 0.2 0.2 1</color></ambient>
          <diffuse><texture texture="VFXTexture-sampler" texcoord="UVSET0"/></diffuse>
          <specular><color>0.15 0.15 0.15 1</color></specular>
          <shininess><float>8</float></shininess>
          <transparent opaque="A_ONE"><texture texture="VFXTexture-sampler" texcoord="UVSET0"/></transparent>
          <transparency><float>1</float></transparency>
        </phong></technique>
      </profile_COMMON>
      <extra><technique profile="GOOGLEEARTH"><double_sided>1</double_sided></technique></extra>
    </effect>
  </library_effects>
  <library_materials><material id="PreviewMaterial" name="PreviewMaterial"><instance_effect url="#PreviewEffect"/></material></library_materials>
  <library_geometries>
    <geometry id="vfx_kurp_0830-mesh" name="vfx_kurp_0830"><mesh>
      <source id="vfx_kurp_0830-mesh-positions">
        <float_array id="vfx_kurp_0830-mesh-positions-array" count="468">-0.678107557 -0.016698636 3.44975313 -0.540423707 0.141117603 3.79139783 -0.440486653 -0.504895954 3.55476959 -0.323502199 -0.370805876 3.96403532 -0.372114062 0.334037934 4.12724411 -0.180229743 -0.206583861 4.34989322 -0.441107907 -0.505607933 2.70224098 -0.49227415 -0.564255876 3.12577732 0.00476839038 -0.755097984 2.72770308 -0.0034066784 -0.764468425 3.09696652 0.0754282212 -0.674106095 3.44975273 0.213112049 -0.516289837 3.79139743 0.381421739 -0.323369545 4.12724371 -0.756942681 -0.107061177 3.09696655 -0.74876735 -0.0976904803 2.72770281 -0.294915639 -0.33803909 2.35337448 -0.648183235 0.0176013061 2.37535646 -0.101595822 -0.116451506 2.06878936 -0.491334115 0.197385245 2.05238599 0.107662642 0.123405271 1.79977673 -0.317192162 0.396990625 1.73961982 0.305634606 0.350325225 1.50163987 -0.164729083 0.57174709 1.41788556 0.45670534 0.523485968 1.1143272 -0.0729168436 0.676984529 1.06801192 0.490387869 0.562093757 0.608937796 -0.0822989982 0.666230519 0.695746345 0.391520295 0.448769594 0.136458553 -0.194687357 0.537408472 0.352900217 0.105352527 -0.639806217 2.37535674 0.262201625 -0.460022258 2.05238627 0.436343578 -0.260416879 1.73962009 0.58880665 -0.0856602861 1.41788575 0.680619069 0.0195771776 1.068012 0.671236881 0.00882317491 0.695746128 0.558848467 -0.119998935 0.352899838 0.391885615 -0.311375456 0.0274163199 0.24755997 0.283759145 -0.268909812 -0.361650185 0.346031978 0.0274167468 -4.91219635 -3.06351329 3.96427917 -5.07210936 -3.08243971 4.31737349 -4.74296168 -2.54436545 4.05187823 -4.86008251 -2.55935406 4.4600281 -5.27131879 -3.10529888 4.66193008 -5.01982664 -2.57859266 4.85685641 -4.71523224 -2.53525303 3.21688502 -4.68880655 -2.53572677 3.63645545 -4.87341538 -2.04879205 3.22262431 -4.90823101 -2.05522803 3.60678469 -5.013388 -2.06867461 3.97177587 -5.17330109 -2.08760094 4.32487019 -5.37251053 -2.11046012 4.66942678 -4.80703953 -3.05006708 3.59928827 -4.77222401 -3.04363106 3.21512785 -4.84176708 -2.54498016 2.79969122 -4.83150857 -3.04658387 2.80673427 -5.0423187 -2.56267478 2.44072893 -4.96840026 -3.05764342 2.42657014 -5.27983195 -2.58436408 2.11297518 -5.14581112 -3.07296686 2.06527564 -5.52489107 -2.60685458 1.78965138 -5.32665341 -3.08871074 1.7134884 -5.74811657 -2.62693029 1.44062211 -5.47383863 -3.10103229 1.36184822 -5.90874305 -2.64016513 1.02873047 -5.55027939 -3.10608846 1.00099283 -5.94188592 -2.63981628 0.535074931 -5.51945758 -3.10011731 0.624631494 -4.93270031 -2.05174512 2.81423095 -5.06959201 -2.06280467 2.43406681 -5.24700262 -2.07812784 2.07277201 -5.42784492 -2.09387171 1.72098477 -5.57503028 -2.10619325 1.3693445 -5.65147075 -2.11124945 1.00848929 -5.62064929 -2.1052787 0.632128079 -5.4794147 -2.08822097 0.274895828 -5.83383763 -2.62520001 0.0538480195 -5.37822309 -3.0830597 0.26739906 -2.36715692 0.307628282 2.97324779 -2.35813028 0.156638741 3.24533843 -1.85640356 0.142695147 2.8399928 -1.842597 -0.0882462181 3.13052819 -2.35367444 0.0821046988 3.54048756 -1.83323697 -0.244814801 3.50994886 -1.8875652 0.663936882 2.39744275 -1.87189172 0.401765396 2.60624375 -1.39339748 0.776427259 2.46703756 -1.38070445 0.56410846 2.71708682 -1.36893896 0.36730537 2.97324849 -1.35991232 0.216315829 3.24533912 -1.35545646 0.141782355 3.54048804 -2.37892237 0.504431235 2.71708603 -2.3916154 0.716750035 2.46703676 -1.90226106 0.909754644 2.1892953 -2.40342488 0.914286422 2.21328474 -1.91483543 1.12008603 1.95620601 -2.41253913 1.06674262 1.94601353 -1.92366401 1.26776408 1.66446096 -2.41714714 1.14382113 1.65540737 -1.9256171 1.30043285 1.31049562 -2.41530342 1.11298504 1.35902341 -1.92034503 1.21224946 0.957378193 -2.40747671 0.982066639 1.08357258 -1.9112739 1.06051594 0.625436944 -2.39599429 0.790002544 0.820933227 -1.90202406 0.90579471 0.322720195 -2.38352548 0.58143739 0.570291767 -1.40520687 0.973963568 2.21328553 -1.4143212 1.12642003 1.94601412 -1.41892924 1.20349852 1.65540792 -1.41708562 1.17266249 1.35902366 -1.40925871 1.04174395 1.08357277 -1.39777635 0.849679789 0.820933307 -1.38530752 0.641114652 0.570291874 -1.3732391 0.439248287 0.329287351 -1.89343805 0.762178068 0.0327510784 -2.37145716 0.379571087 0.329287311 -1.28177256 -5.07015879 3.57508284 -1.27909748 -5.09348388 3.89671741 -1.80542965 -4.89247154 3.56881803 -1.8093503 -4.85828801 3.94610958 -1.27067202 -5.16694762 4.19114557 -1.80618948 -4.88584788 4.30458294 -1.77562084 -5.15237786 2.9034012 -1.79328952 -4.9983222 3.21429037 -2.26071979 -5.31088167 2.93882473 -2.2707533 -5.22339776 3.25000873 -2.27526008 -5.18410334 3.57508308 -2.27258485 -5.20742808 3.89671734 -2.26415929 -5.28089189 4.19114551 -1.27726594 -5.10945358 3.25000877 -1.26723214 -5.19693716 2.93882456 -1.75503001 -5.3319109 2.62182546 -1.2538814 -5.31334459 2.63815498 -1.733481 -5.51979671 2.35476609 -1.23942269 -5.43941024 2.34462199 -1.7126773 -5.70118488 2.08743942 -1.2260657 -5.55586963 2.05484963 -1.69442673 -5.86031094 1.80269261 -1.21602019 -5.64345801 1.76546067 -1.68123789 -5.97530676 1.48032373 -1.21149538 -5.68290968 1.47307767 -1.67696372 -6.01257264 1.10532961 -1.21470826 -5.65489562 1.17415883 -1.68401548 -5.95108961 0.715371461 -1.22660449 -5.55117312 0.886208717 -2.24736876 -5.42728877 2.63815494 -2.2329102 -5.55335477 2.34462226 -2.21955321 -5.66981416 2.05484989 -2.20950745 -5.75740227 1.76546063 -2.20498265 -5.79685394 1.47307762 -2.20819577 -5.76884015 1.17415909 -2.22009176 -5.66511738 0.886208674 -2.23846224 -5.50494543 0.619586833 -1.69873713 -5.82272938 0.354003117 -1.24497463 -5.39100078 0.619586753</float_array>
        <technique_common><accessor source="#vfx_kurp_0830-mesh-positions-array" count="156" stride="3"><param name="X" type="float"/><param name="Y" type="float"/><param name="Z" type="float"/></accessor></technique_common>
      </source>
      <source id="vfx_kurp_0830-mesh-normals">
        <float_array id="vfx_kurp_0830-mesh-normals-array" count="468">0.854404633 0.373550496 -0.361182432 0.8507724 0.233417953 -0.470852825 0.642381083 0.695831754 -0.321192643 0.598436504 0.647825153 -0.471377049 0.864925332 0.169076215 -0.472564707 0.580184048 0.630944021 -0.515069037 0.643319673 0.688518255 0.334787113 0.678375677 0.733982373 -0.0328072808 0.432636405 0.867676031 0.244875571 0.342006612 0.933788458 -0.105216882 0.197676863 0.914392013 -0.353286152 0.0654204232 0.886616311 -0.457855529 -0.0143604049 0.870121738 -0.492627587 0.846166326 0.522218374 -0.106256853 0.758149645 0.602172705 0.250194222 0.550327246 0.575617267 0.604817894 0.590793875 0.608419021 0.52989517 0.486556823 0.499729396 0.716612161 0.430636618 0.630084036 0.646178157 0.488255492 0.503624446 0.712719434 0.322242648 0.708299795 0.628069325 0.555896735 0.587833205 0.587733735 0.268893204 0.83488595 0.480272731 0.650305973 0.70533581 0.282140987 0.2294518 0.956344525 0.18098901 0.668883778 0.730414311 -0.138164489 0.120518098 0.977261761 -0.174455835 0.614651118 0.666594754 -0.421729104 -0.0347327321 0.9200579 -0.390239795 0.463530915 0.713540751 0.525355772 0.510305168 0.564954924 0.648393838 0.609020727 0.472155345 0.637309254 0.751667852 0.438187708 0.492937088 0.889876606 0.415489701 0.188382414 0.933684025 0.308812212 -0.181298535 0.902453331 0.143692119 -0.406116437 0.898150613 0.0628566638 -0.435171824 0.585416963 0.636857892 -0.501696127 -0.129783295 0.882396368 -0.452253187 -0.906160429 0.310324281 -0.287353645 -0.833206344 0.407917996 -0.373323047 -0.969650148 -0.0687687219 -0.234626199 -0.932843193 -0.0666376504 -0.354066378 -0.801145926 0.463419938 -0.378691387 -0.913953766 -0.0676002779 -0.400148367 -0.987109138 -0.0682728935 0.144756212 -0.995330214 -0.0699367997 -0.0665327601 -0.93801153 -0.341913459 0.0568291829 -0.88240801 -0.447196276 -0.146190265 -0.795074011 -0.534050886 -0.287483856 -0.704027917 -0.605725375 -0.370730984 -0.640182607 -0.647699568 -0.413099866 -0.969699133 0.198145225 -0.142905779 -0.99521898 0.0756157777 0.0618177695 -0.930877234 -0.0611917388 0.360170997 -0.959094079 -0.0540461693 0.277880477 -0.85917613 -0.0524907048 0.508980455 -0.887389269 -0.184289002 0.422584725 -0.821995133 -0.049240686 0.56736175 -0.826068842 -0.312605398 0.46892231 -0.837637705 -0.0532860075 0.543620894 -0.794479686 -0.434036426 0.424752174 -0.903578609 -0.0640001069 0.423615019 -0.787495452 -0.542811647 0.291901402 -0.979639501 -0.0755150813 0.18602129 -0.76976503 -0.633662172 0.0770327852 -0.990875796 -0.0773680031 -0.110360092 -0.693374062 -0.703666751 -0.155195081 -0.937128015 -0.216983232 0.27333013 -0.901804314 -0.0816148506 0.424367759 -0.876216932 0.0559972005 0.478652485 -0.878095037 0.186283596 0.440735213 -0.901023282 0.303866065 0.309552031 -0.908045149 0.409126766 0.0898292693 -0.849905432 0.504632454 -0.151680066 -0.796588497 0.556468579 -0.23619798 -0.966003154 -0.0769638409 -0.246808579 -0.613083661 -0.739601037 -0.277702593 0.350542793 0.772062752 0.530130981 0.437393345 0.829299485 0.347777841 -0.0155684096 0.749259096 0.662093975 -0.0293465144 0.87520298 0.482864915 0.481683351 0.839425971 0.2516847 -0.037561146 0.931651378 0.361406794 0.000403601008 0.661850981 0.749635322 -0.00496896865 0.671867366 0.740654813 -0.292175319 0.712698893 0.637725545 -0.401133492 0.682635797 0.610819359 -0.497452874 0.700132191 0.512206553 -0.579970094 0.74299154 0.334063261 -0.623993488 0.755357062 0.200169518 0.247062088 0.737938478 0.628018413 0.126340577 0.749151586 0.650238386 -0.000353225669 0.721948765 0.691946425 -0.00808199657 0.808893405 0.587899771 -0.00830623119 0.844957298 0.534769269 -0.148176765 0.898493265 0.413223304 -0.0197975752 0.970278071 0.241181509 -0.283678982 0.952211992 0.11321907 -0.0244850611 0.993169426 -0.114083181 -0.404140438 0.888592982 -0.216963174 -0.0217499726 0.930583866 -0.365432082 -0.506347433 0.75009452 -0.425406263 -0.0188786527 0.883972839 -0.46715695 -0.595173707 0.638517775 -0.487917319 -0.0195131526 0.877380197 -0.479398819 -0.670356951 0.570161338 -0.474907998 -0.17314885 0.794040767 0.582682363 -0.0472464955 0.908629515 0.414921888 0.0840607414 0.989741404 0.115523785 0.217387159 0.950376234 -0.222548504 0.343091917 0.830067911 -0.439630754 0.452793362 0.732270685 -0.50868243 0.543392664 0.675391963 -0.498568058 0.5913348 0.663774103 -0.457959709 -0.0257446113 0.879476082 -0.47524629 -0.710503769 0.52153859 -0.47242131 -0.289559134 -0.955673481 0.0533264105 -0.383761425 -0.916771417 -0.110712866 0.084189079 -0.983624837 0.159356142 0.0885623835 -0.99581531 -0.0225515682 -0.435333202 -0.886091446 -0.159144441 0.0915836708 -0.990474254 -0.102825984 0.0633812621 -0.884312949 0.462572616 0.0744630001 -0.93854299 0.337034594 0.350043981 -0.87273806 0.340290303 0.459890671 -0.861714205 0.214357645 0.553029556 -0.831671649 0.0498054102 0.627874118 -0.770691701 -0.108666439 0.667899331 -0.717399044 -0.198113844 -0.183149295 -0.95769702 0.22197467 -0.0651701969 -0.935263837 0.347899986 0.0556723663 -0.847562011 0.527768155 0.0631334943 -0.907712069 0.41481678 0.0534375573 -0.84054255 0.539103561 0.197135236 -0.886021959 0.419646025 0.0576318686 -0.86715717 0.494688801 0.329584861 -0.87266989 0.360306929 0.06775219 -0.922012139 0.381186641 0.452460367 -0.860247842 0.235060133 0.07981545 -0.979485698 0.185033133 0.558635912 -0.827821333 0.0513591041 0.0859056579 -0.994265183 -0.0636943033 0.644378293 -0.749441815 -0.152031515 0.0835088598 -0.956315755 -0.280154327 0.710156699 -0.632939092 -0.308327048 0.226569598 -0.883165237 0.410713259 0.0951729618 -0.90208215 0.42093931 -0.0373889724 -0.929705511 0.366401047 -0.165143948 -0.95597855 0.242554092 -0.284964793 -0.956963119 0.0549240943 -0.396066693 -0.904660037 -0.157230378 -0.49504547 -0.806958295 -0.322099819 -0.547211197 -0.756802384 -0.357505325 0.0843380684 -0.927614022 -0.363894651 0.74455617 -0.548350801 -0.380719725</float_array>
        <technique_common><accessor source="#vfx_kurp_0830-mesh-normals-array" count="156" stride="3"><param name="X" type="float"/><param name="Y" type="float"/><param name="Z" type="float"/></accessor></technique_common>
      </source>
      <source id="vfx_kurp_0830-mesh-uv0">
        <float_array id="vfx_kurp_0830-mesh-uv0-array" count="312">-9.93410509e-09 0.500000119 -4.96705255e-09 0.583333433 0.5 0.5 0.5 0.583333313 0 0.666666746 0.5 0.666666627 0.49999997 0.333333313 0.5 0.416666627 1 0.333333194 1 0.416666508 1 0.499999881 1 0.583333194 1 0.666666508 -1.49011612e-08 0.416666746 -1.98682137e-08 0.333333433 0.49999997 0.25 -2.48352663e-08 0.250000119 0.49999997 0.166666627 -2.98023224e-08 0.166666746 0.49999997 0.0833333135 -3.47693749e-08 0.0833334327 0.49999997 0 -3.97364275e-08 1.1920929e-07 0.49999994 -0.0833333731 -4.47034836e-08 -0.0833332539 0.49999994 -0.166666746 -4.96705361e-08 -0.166666508 0.49999994 -0.25 -5.46375922e-08 -0.25 1 0.249999881 1 0.166666508 0.99999994 0.0833331943 0.99999994 -1.1920929e-07 0.99999994 -0.0833334923 0.99999994 -0.166666746 0.99999994 -0.250000238 0.99999994 -0.333333492 0.49999994 -0.333333373 -5.96046448e-08 -0.333333254 -9.93410509e-09 0.500000119 -4.96705255e-09 0.583333433 0.5 0.5 0.5 0.583333313 0 0.666666746 0.5 0.666666627 0.49999997 0.333333313 0.5 0.416666627 1 0.333333194 1 0.416666508 1 0.499999881 1 0.583333194 1 0.666666508 -1.49011612e-08 0.416666746 -1.98682137e-08 0.333333433 0.49999997 0.25 -2.48352663e-08 0.250000119 0.49999997 0.166666627 -2.98023224e-08 0.166666746 0.49999997 0.0833333135 -3.47693749e-08 0.0833334327 0.49999997 0 -3.97364275e-08 1.1920929e-07 0.49999994 -0.0833333731 -4.47034836e-08 -0.0833332539 0.49999994 -0.166666746 -4.96705361e-08 -0.166666508 0.49999994 -0.25 -5.46375922e-08 -0.25 1 0.249999881 1 0.166666508 0.99999994 0.0833331943 0.99999994 -1.1920929e-07 0.99999994 -0.0833334923 0.99999994 -0.166666746 0.99999994 -0.250000238 0.99999994 -0.333333492 0.49999994 -0.333333373 -5.96046448e-08 -0.333333254 -9.93410509e-09 0.500000119 -4.96705255e-09 0.583333433 0.5 0.5 0.5 0.583333313 0 0.666666746 0.5 0.666666627 0.49999997 0.333333313 0.5 0.416666627 1 0.333333194 1 0.416666508 1 0.499999881 1 0.583333194 1 0.666666508 -1.49011612e-08 0.416666746 -1.98682137e-08 0.333333433 0.49999997 0.25 -2.48352663e-08 0.250000119 0.49999997 0.166666627 -2.98023224e-08 0.166666746 0.49999997 0.0833333135 -3.47693749e-08 0.0833334327 0.49999997 0 -3.97364275e-08 1.1920929e-07 0.49999994 -0.0833333731 -4.47034836e-08 -0.0833332539 0.49999994 -0.166666746 -4.96705361e-08 -0.166666508 0.49999994 -0.25 -5.46375922e-08 -0.25 1 0.249999881 1 0.166666508 0.99999994 0.0833331943 0.99999994 -1.1920929e-07 0.99999994 -0.0833334923 0.99999994 -0.166666746 0.99999994 -0.250000238 0.99999994 -0.333333492 0.49999994 -0.333333373 -5.96046448e-08 -0.333333254 -9.93410509e-09 0.500000119 -4.96705255e-09 0.583333433 0.5 0.5 0.5 0.583333313 0 0.666666746 0.5 0.666666627 0.49999997 0.333333313 0.5 0.416666627 1 0.333333194 1 0.416666508 1 0.499999881 1 0.583333194 1 0.666666508 -1.49011612e-08 0.416666746 -1.98682137e-08 0.333333433 0.49999997 0.25 -2.48352663e-08 0.250000119 0.49999997 0.166666627 -2.98023224e-08 0.166666746 0.49999997 0.0833333135 -3.47693749e-08 0.0833334327 0.49999997 0 -3.97364275e-08 1.1920929e-07 0.49999994 -0.0833333731 -4.47034836e-08 -0.0833332539 0.49999994 -0.166666746 -4.96705361e-08 -0.166666508 0.49999994 -0.25 -5.46375922e-08 -0.25 1 0.249999881 1 0.166666508 0.99999994 0.0833331943 0.99999994 -1.1920929e-07 0.99999994 -0.0833334923 0.99999994 -0.166666746 0.99999994 -0.250000238 0.99999994 -0.333333492 0.49999994 -0.333333373 -5.96046448e-08 -0.333333254</float_array>
        <technique_common><accessor source="#vfx_kurp_0830-mesh-uv0-array" count="156" stride="2"><param name="S" type="float"/><param name="T" type="float"/></accessor></technique_common>
      </source>
      <vertices id="vfx_kurp_0830-mesh-vertices"><input semantic="POSITION" source="#vfx_kurp_0830-mesh-positions"/></vertices>
      <triangles material="PreviewMaterial" count="192">
        <input semantic="VERTEX" source="#vfx_kurp_0830-mesh-vertices" offset="0"/>
        <input semantic="NORMAL" source="#vfx_kurp_0830-mesh-normals" offset="1"/>
        <input semantic="TEXCOORD" source="#vfx_kurp_0830-mesh-uv0" offset="2" set="0"/>
        <p>0 0 0 1 1 1 2 2 2 2 2 2 1 1 1 3 3 3 4 4 4 3 3 3 1 1 1 3 3 3 4 4 4 5 5 5 6 6 6 7 7 7 8 8 8 8 8 8 7 7 7 9 9 9 2 2 2 9 9 9 7 7 7 9 9 9 2 2 2 10 10 10 3 3 3 10 10 10 2 2 2 10 10 10 3 3 3 11 11 11 5 5 5 11 11 11 3 3 3 11 11 11 5 5 5 12 12 12 7 7 7 0 0 0 2 2 2 0 0 0 7 7 7 13 13 13 6 6 6 13 13 13 7 7 7 13 13 13 6 6 6 14 14 14 15 15 15 14 14 14 6 6 6 14 14 14 15 15 15 16 16 16 17 17 17 16 16 16 15 15 15 16 16 16 17 17 17 18 18 18 19 19 19 18 18 18 17 17 17 18 18 18 19 19 19 20 20 20 21 21 21 20 20 20 19 19 19 20 20 20 21 21 21 22 22 22 23 23 23 22 22 22 21 21 21 22 22 22 23 23 23 24 24 24 25 25 25 24 24 24 23 23 23 24 24 24 25 25 25 26 26 26 27 27 27 26 26 26 25 25 25 28 28 28 26 26 26 27 27 27 29 29 29 6 6 6 8 8 8 6 6 6 29 29 29 15 15 15 30 30 30 15 15 15 29 29 29 15 15 15 30 30 30 17 17 17 31 31 31 17 17 17 30 30 30 17 17 17 31 31 31 19 19 19 32 32 32 19 19 19 31 31 31 19 19 19 32 32 32 21 21 21 33 33 33 21 21 21 32 32 32 21 21 21 33 33 33 23 23 23 34 34 34 23 23 23 33 33 33 23 23 23 34 34 34 25 25 25 35 35 35 25 25 25 34 34 34 25 25 25 35 35 35 27 27 27 36 36 36 27 27 27 35 35 35 37 37 37 27 27 27 36 36 36 27 27 27 37 37 37 28 28 28 38 38 38 28 28 28 37 37 37 39 39 39 40 40 40 41 41 41 41 41 41 40 40 40 42 42 42 43 43 43 42 42 42 40 40 40 42 42 42 43 43 43 44 44 44 45 45 45 46 46 46 47 47 47 47 47 47 46 46 46 48 48 48 41 41 41 48 48 48 46 46 46 48 48 48 41 41 41 49 49 49 42 42 42 49 49 49 41 41 41 49 49 49 42 42 42 50 50 50 44 44 44 50 50 50 42 42 42 50 50 50 44 44 44 51 51 51 46 46 46 39 39 39 41 41 41 39 39 39 46 46 46 52 52 52 45 45 45 52 52 52 46 46 46 52 52 52 45 45 45 53 53 53 54 54 54 53 53 53 45 45 45 53 53 53 54 54 54 55 55 55 56 56 56 55 55 55 54 54 54 55 55 55 56 56 56 57 57 57 58 58 58 57 57 57 56 56 56 57 57 57 58 58 58 59 59 59 60 60 60 59 59 59 58 58 58 59 59 59 60 60 60 61 61 61 62 62 62 61 61 61 60 60 60 61 61 61 62 62 62 63 63 63 64 64 64 63 63 63 62 62 62 63 63 63 64 64 64 65 65 65 66 66 66 65 65 65 64 64 64 67 67 67 65 65 65 66 66 66 68 68 68 45 45 45 47 47 47 45 45 45 68 68 68 54 54 54 69 69 69 54 54 54 68 68 68 54 54 54 69 69 69 56 56 56 70 70 70 56 56 56 69 69 69 56 56 56 70 70 70 58 58 58 71 71 71 58 58 58 70 70 70 58 58 58 71 71 71 60 60 60 72 72 72 60 60 60 71 71 71 60 60 60 72 72 72 62 62 62 73 73 73 62 62 62 72 72 72 62 62 62 73 73 73 64 64 64 74 74 74 64 64 64 73 73 73 64 64 64 74 74 74 66 66 66 75 75 75 66 66 66 74 74 74 76 76 76 66 66 66 75 75 75 66 66 66 76 76 76 67 67 67 77 77 77 67 67 67 76 76 76 78 78 78 79 79 79 80 80 80 80 80 80 79 79 79 81 81 81 82 82 82 81 81 81 79 79 79 81 81 81 82 82 82 83 83 83 84 84 84 85 85 85 86 86 86 86 86 86 85 85 85 87 87 87 80 80 80 87 87 87 85 85 85 87 87 87 80 80 80 88 88 88 81 81 81 88 88 88 80 80 80 88 88 88 81 81 81 89 89 89 83 83 83 89 89 89 81 81 81 89 89 89 83 83 83 90 90 90 85 85 85 78 78 78 80 80 80 78 78 78 85 85 85 91 91 91 84 84 84 91 91 91 85 85 85 91 91 91 84 84 84 92 92 92 93 93 93 92 92 92 84 84 84 92 92 92 93 93 93 94 94 94 95 95 95 94 94 94 93 93 93 94 94 94 95 95 95 96 96 96 97 97 97 96 96 96 95 95 95 96 96 96 97 97 97 98 98 98 99 99 99 98 98 98 97 97 97 98 98 98 99 99 99 100 100 100 101 101 101 100 100 100 99 99 99 100 100 100 101 101 101 102 102 102 103 103 103 102 102 102 101 101 101 102 102 102 103 103 103 104 104 104 105 105 105 104 104 104 103 103 103 106 106 106 104 104 104 105 105 105 107 107 107 84 84 84 86 86 86 84 84 84 107 107 107 93 93 93 108 108 108 93 93 93 107 107 107 93 93 93 108 108 108 95 95 95 109 109 109 95 95 95 108 108 108 95 95 95 109 109 109 97 97 97 110 110 110 97 97 97 109 109 109 97 97 97 110 110 110 99 99 99 111 111 111 99 99 99 110 110 110 99 99 99 111 111 111 101 101 101 112 112 112 101 101 101 111 111 111 101 101 101 112 112 112 103 103 103 113 113 113 103 103 103 112 112 112 103 103 103 113 113 113 105 105 105 114 114 114 105 105 105 113 113 113 115 115 115 105 105 105 114 114 114 105 105 105 115 115 115 106 106 106 116 116 116 106 106 106 115 115 115 117 117 117 118 118 118 119 119 119 119 119 119 118 118 118 120 120 120 121 121 121 120 120 120 118 118 118 120 120 120 121 121 121 122 122 122 123 123 123 124 124 124 125 125 125 125 125 125 124 124 124 126 126 126 119 119 119 126 126 126 124 124 124 126 126 126 119 119 119 127 127 127 120 120 120 127 127 127 119 119 119 127 127 127 120 120 120 128 128 128 122 122 122 128 128 128 120 120 120 128 128 128 122 122 122 129 129 129 124 124 124 117 117 117 119 119 119 117 117 117 124 124 124 130 130 130 123 123 123 130 130 130 124 124 124 130 130 130 123 123 123 131 131 131 132 132 132 131 131 131 123 123 123 131 131 131 132 132 132 133 133 133 134 134 134 133 133 133 132 132 132 133 133 133 134 134 134 135 135 135 136 136 136 135 135 135 134 134 134 135 135 135 136 136 136 137 137 137 138 138 138 137 137 137 136 136 136 137 137 137 138 138 138 139 139 139 140 140 140 139 139 139 138 138 138 139 139 139 140 140 140 141 141 141 142 142 142 141 141 141 140 140 140 141 141 141 142 142 142 143 143 143 144 144 144 143 143 143 142 142 142 145 145 145 143 143 143 144 144 144 146 146 146 123 123 123 125 125 125 123 123 123 146 146 146 132 132 132 147 147 147 132 132 132 146 146 146 132 132 132 147 147 147 134 134 134 148 148 148 134 134 134 147 147 147 134 134 134 148 148 148 136 136 136 149 149 149 136 136 136 148 148 148 136 136 136 149 149 149 138 138 138 150 150 150 138 138 138 149 149 149 138 138 138 150 150 150 140 140 140 151 151 151 140 140 140 150 150 150 140 140 140 151 151 151 142 142 142 152 152 152 142 142 142 151 151 151 142 142 142 152 152 152 144 144 144 153 153 153 144 144 144 152 152 152 154 154 154 144 144 144 153 153 153 144 144 144 154 154 154 145 145 145 155 155 155 145 145 145 154 154 154</p>
      </triangles>
    </mesh></geometry>
  </library_geometries>
  <library_visual_scenes>
    <visual_scene id="Scene" name="Scene">
      <node id="vfx_kurp_0830" name="vfx_kurp_0830" type="NODE">
        <instance_geometry url="#vfx_kurp_0830-mesh"><bind_material><technique_common><instance_material symbol="PreviewMaterial" target="#PreviewMaterial"><bind_vertex_input semantic="UVSET0" input_semantic="TEXCOORD" input_set="0"/></instance_material></technique_common></bind_material></instance_geometry>
      </node>
    </visual_scene>
  </library_visual_scenes>
  <scene><instance_visual_scene url="#Scene"/></scene>
</COLLADA>
