<?xml version="1.0" encoding="utf-8"?>
<COLLADA xmlns="http://www.collada.org/2005/11/COLLADASchema" version="1.4.1">
  <asset>
    <contributor><authoring_tool>Morrobroom Kurpulio VFX preview converter</authoring_tool></contributor>
    <unit name="unit" meter="1"/>
    <up_axis>Z_UP</up_axis>
  </asset>
  <library_images>
    <image id="VFXTexture" name="darkmap_newgen-1.dds">
      <init_from>../../../Textures/Kurp/darkmap_newgen-1.dds</init_from>
    </image>
  </library_images>
  <library_effects>
    <effect id="PreviewEffect">
      <profile_COMMON>
        <newparam sid="VFXTexture-surface">
          <surface type="2D"><init_from>VFXTexture</init_from></surface>
        </newparam>
        <newparam sid="VFXTexture-sampler">
          <sampler2D><source>VFXTexture-surface</source></sampler2D>
        </newparam>
        <technique sid="common"><phong>
          <emission><color>0.08 0.08 0.08 1</color></emission>
          <ambient><color>0.2 0.2 0.2 1</color></ambient>
          <diffuse><texture texture="VFXTexture-sampler" texcoord="UVSET0"/></diffuse>
          <specular><color>0.15 0.15 0.15 1</color></specular>
          <shininess><float>8</float></shininess>
          <transparent opaque="A_ONE"><texture texture="VFXTexture-sampler" texcoord="UVSET0"/></transparent>
          <transparency><float>1</float></transparency>
        </phong></technique>
      </profile_COMMON>
      <extra><technique profile="GOOGLEEARTH"><double_sided>1</double_sided></technique></extra>
    </effect>
  </library_effects>
  <library_materials><material id="PreviewMaterial" name="PreviewMaterial"><instance_effect url="#PreviewEffect"/></material></library_materials>
  <library_geometries>
    <geometry id="vfx_kurp_0352-mesh" name="vfx_kurp_0352"><mesh>
      <source id="vfx_kurp_0352-mesh-positions">
        <float_array id="vfx_kurp_0352-mesh-positions-array" count="702">-0.888158083 -3.57773352 -9.9828558 -0.617549121 -4.06213081 -10.4556806 -0.328496218 -3.62205219 -9.53593969 0.084949851 -4.04399443 -9.96308684 0.180464387 -3.46760201 -9.06723547 0.718378544 -3.78603995 -9.44225407 0.572191894 -3.15188742 -8.57684398 1.20349288 -3.3324759 -8.89345264 0.770027876 -2.79083759 -8.12108159 1.47137377 -2.75079131 -8.31579423 0.81681937 -2.34643686 -7.58711386 1.50391316 -2.13666093 -7.71095467 0.713156462 -1.98970771 -7.08857346 1.31514591 -1.57866597 -7.07997823 0.439905345 -1.687819 -6.50023842 0.940539837 -1.16380692 -6.42203951 -0.34693855 -4.5465281 -10.9285047 0.498396635 -4.46593666 -10.3902326 1.25629252 -4.1044786 -9.81727266 1.83479619 -3.51306367 -9.2100606 2.17271984 -2.71074772 -8.51051044 2.19100696 -1.92688394 -7.83479691 1.91713428 -1.16762495 -7.07138443 1.44117478 -0.639795184 -6.34384131 -1.22263938 -4.30545688 -11.4650002 -1.29899883 -3.82779551 -10.9199717 -1.91647553 -3.80116546 -11.929548 -1.8653537 -3.35607862 -11.35531 -2.40477276 -3.09053063 -12.3616462 -2.2459985 -2.7081989 -11.7631845 -2.63296223 -2.25333506 -12.7625699 -2.39230049 -1.95662606 -12.1442285 -2.5766623 -1.38075399 -13.1337032 -2.28373253 -1.18471062 -12.4992113 -2.24228346 -0.564538479 -13.4764466 -1.92884231 -0.476163983 -12.8289971 -1.6640321 0.112635255 -13.7921247 -1.36246812 0.094586134 -13.1344771 -0.898245871 0.584653258 -14.0819049 -0.639983833 0.469964504 -13.4165211 -0.0162041187 0.806686521 -14.3467283 0.170271099 0.613939762 -13.6759157 0.356745958 0.421192646 -13.0051031 -0.381721795 0.355276823 -12.7511358 -1.06090307 0.0765352249 -12.476831 -1.61540043 -0.387790203 -12.1815476 -1.99080205 -0.988669038 -11.8647194 -2.1516391 -1.65991902 -11.525887 -2.08722389 -2.32586735 -11.1647236 -1.81423151 -2.91099179 -10.7810712 -1.3753581 -3.35013413 -10.3749433 0.993990004 0.509511352 -13.9129643 1.12572223 0.254208326 -13.2503371 1.75372821 0.162689209 -14.1277127 1.77231127 -0.121945739 -13.4638252 2.38629198 -0.387658238 -14.3210678 2.28470385 -0.660629869 -13.6588984 2.84372431 -1.09515095 -14.4931469 2.62883824 -1.31241488 -13.8361745 3.09470916 -1.90542376 -14.6438527 2.78913456 -2.02449131 -13.9963074 3.100281 -2.75805616 -14.77036 2.73152035 -2.80926096 -14.1461878 2.88337362 -3.58464897 -14.873394 2.49146533 -3.4804101 -14.2690358 2.46403027 -4.33484566 -14.9513497 2.11052907 -4.06370902 -14.3749638 1.84961557 -4.93999529 -14.9936171 1.52624792 -4.56492162 -14.458879 2.17298234 -5.3150686 -15.5283551 2.81753182 -4.6059823 -15.5277371 3.27528226 -3.68888748 -15.4777536 3.46904039 -2.70685136 -15.3945308 3.40028429 -1.78635728 -15.291398 3.05860949 -0.877888083 -15.1501179 2.48788029 -0.114686608 -14.9832373 1.73514605 0.447323442 -14.7916002 0.862256974 0.764812946 -14.5755916 1.69170839 -2.18378538 -9.98312902 1.97751367 -1.71029627 -10.4518991 1.45202002 -1.67397702 -9.53191853 1.6126315 -1.10805845 -9.95423341 1.06504431 -1.30777717 -9.06014514 1.07397035 -0.685898066 -9.42987013 0.596398741 -1.12382627 -8.56824088 0.43928495 -0.490068913 -8.87946653 0.184785247 -1.13054931 -8.11257648 -0.198601484 -0.546187162 -8.30234671 -0.224073529 -1.30907679 -7.58017087 -0.747660935 -0.821796298 -7.69990468 -0.482068777 -1.57384551 -7.08391213 -1.1379987 -1.2602216 -7.07269764 -0.608168542 -1.9568367 -6.49885941 -1.31174701 -1.78703964 -6.41926718 2.26331627 -1.2368052 -10.9206662 1.77324235 -0.542140603 -10.376549 1.08289629 -0.064016819 -9.79959369 0.282168835 0.143688083 -9.19069219 -0.581984997 0.0381753445 -8.49211836 -1.27124888 -0.334517241 -7.81963778 -1.79392791 -0.946597695 -7.06148314 -2.01532638 -1.6172415 -6.33967352 2.48934656 -2.11948693 -11.4646225 2.11283863 -2.42108524 -10.9221983 2.39656305 -2.97676313 -11.9364381 1.98496056 -3.15154839 -11.3637307 2.02255207 -3.759902 -12.3751945 1.61189854 -3.80987477 -11.7772043 1.4094218 -4.38162374 -12.7814198 1.03237179 -4.3175869 -12.1625805 0.624175519 -4.77500904 -13.1559291 0.308504641 -4.61502779 -12.5201225 -0.250375271 -4.8994621 -13.4997725 -0.482806921 -4.66748857 -12.8503933 -1.12548548 -4.74297523 -13.8141689 -1.2596578 -4.4676522 -13.1542153 -1.91577673 -4.32099652 -14.1004057 -1.94456148 -4.03442717 -13.4326143 -2.54691696 -3.67259288 -14.3597546 -2.47227788 -3.40876079 -13.6867218 -2.3976388 -3.14492869 -13.013689 -1.97334552 -3.74785709 -12.764823 -1.39383066 -4.19232917 -12.4942632 -0.715239465 -4.43551505 -12.2010112 -0.00716757774 -4.45504618 -11.8843153 0.655320704 -4.25355005 -11.5437427 1.20124573 -3.85984683 -11.179214 1.57335716 -3.32633364 -10.7910233 1.73633283 -2.72268462 -10.3797748 -2.79112065 -2.64632803 -13.9173102 -2.63498747 -2.39841557 -13.2525916 -2.86781001 -1.81708539 -14.1250148 -2.62997925 -1.65220284 -13.4597368 -2.70466375 -0.995211124 -14.3113747 -2.41722178 -0.940071344 -13.6487432 -2.31809306 -0.245478272 -14.4770565 -2.02267778 -0.316324711 -13.8206906 -1.73970973 0.377701521 -14.6224308 -1.48443174 0.179004192 -13.9765792 -1.00257754 0.810284972 -14.7452116 -0.774785399 0.522646308 -14.1234899 -0.177454054 1.03768587 -14.8462601 -0.0730510354 0.651688099 -14.2451935 0.682000637 1.05191517 -14.924037 0.622476965 0.614928603 -14.3513846 1.51255113 0.824894428 -14.9681768 1.34784812 0.361321807 -14.4374042 1.67725468 1.28846812 -15.4989481 0.741524756 1.48890209 -15.4966893 -0.281856716 1.42368364 -15.4473267 -1.23037058 1.09792399 -15.3669333 -1.9949888 0.576399207 -15.268281 -2.61350763 -0.174632192 -15.1334224 -2.9921068 -1.0503509 -14.9740062 -3.10564148 -1.98196864 -14.7902927 -2.94725382 -2.89423978 -14.5820274 -0.800324321 -0.655156732 -9.9705863 -1.35332537 -0.650285125 -10.4393334 -1.12355125 -1.11488807 -9.523314 -1.69452882 -1.26431179 -9.94692063 -1.24894238 -1.62950993 -9.05593729 -1.79308033 -1.93773329 -9.42829943 -1.17557985 -2.12288243 -8.56823444 -1.64748609 -2.58008695 -8.8833611 -0.965102613 -2.47136807 -8.11553192 -1.28166068 -3.09825754 -8.31063795 -0.606896996 -2.73040724 -7.58532143 -0.769510746 -3.42904401 -7.71099329 -0.248843551 -2.81598884 -7.08978438 -0.194963336 -3.54054701 -7.08471751 0.146250844 -2.72735399 -6.50397491 0.348635584 -3.42017198 -6.43025279 -1.90632784 -0.645416737 -10.9080777 -2.26550567 -1.41373765 -10.3705258 -2.33721828 -2.24595666 -9.80066085 -2.11939251 -3.03729343 -9.19848633 -1.59821928 -3.72514451 -8.50574541 -0.932124496 -4.12768078 -7.83666301 -0.141084194 -4.26510537 -7.07965279 0.551018804 -4.11299014 -6.35653353 -1.25274128 -0.0107388496 -11.4465837 -0.803813875 -0.179829597 -10.9055865 -0.462722182 0.336230278 -11.9153852 -0.106396258 0.0732822418 -11.344908 0.402752101 0.403131723 -12.3535008 0.650296569 0.078442812 -11.7582743 1.24701011 0.182455659 -12.7615328 1.37891632 -0.170357108 -12.1457033 1.97867399 -0.301553965 -13.1400905 1.99681288 -0.649429321 -12.5072594 2.52135372 -0.997751713 -13.4897976 2.43564248 -1.30977952 -12.8430963 2.82051373 -1.83548641 -13.8112736 2.64834344 -2.08430189 -13.15347 2.84712124 -2.73320621 -14.1051207 2.61280793 -2.89652646 -13.4387555 2.59813356 -3.60702932 -14.3718953 2.33214283 -3.66948187 -13.6994333 2.06615245 -3.73193443 -13.0269728 2.37849426 -3.05984724 -12.7723904 2.47617316 -2.33311826 -12.4956651 2.34993142 -1.62180734 -12.1963935 2.01495087 -0.997305751 -11.8744283 1.51082289 -0.523169875 -11.5298738 0.897841394 -0.246246457 -11.1630478 0.249930024 -0.189667225 -10.7744322 -0.354886115 -0.348921061 -10.3645885 1.828969 -4.3304987 -13.935658 1.5362851 -4.31458068 -13.2708478 1.14745384 -4.81563342 -14.1475167 0.886212856 -4.68733907 -13.4811916 0.353119612 -5.0895946 -14.336247 0.162452996 -4.86324656 -13.67173 -0.489664614 -5.13399053 -14.5023551 -0.574964046 -4.83743906 -13.8435001 -1.31796813 -4.94878113 -14.646203 -1.27236915 -4.62270319 -13.9976048 -2.05977988 -4.53031075 -14.7654748 -1.92333698 -4.18345892 -14.1408219 -2.6672709 -3.93240452 -14.8614821 -2.38414156 -3.64290118 -14.2579608 -3.10683239 -3.19740915 -14.9330449 -2.69797504 -3.0241828 -14.3589163 -3.3226676 -2.36576772 -14.9701352 -2.83846092 -2.27043092 -14.4385428 -3.80687392 -2.46110415 -15.501729 -3.51568973 -3.37063479 -15.5071721 -2.95040095 -4.2219075 -15.4650021 -2.19622314 -4.87716079 -15.3901277 -1.36356783 -5.27485871 -15.2948027 -0.404366076 -5.43054199 -15.1612086 0.543785512 -5.31594265 -15.0007653 1.40869349 -4.94392812 -14.8138433 2.12165308 -4.34641743 -14.6004682</float_array>
        <technique_common><accessor source="#vfx_kurp_0352-mesh-positions-array" count="234" stride="3"><param name="X" type="float"/><param name="Y" type="float"/><param name="Z" type="float"/></accessor></technique_common>
      </source>
      <source id="vfx_kurp_0352-mesh-normals">
        <float_array id="vfx_kurp_0352-mesh-normals-array" count="702">-0.525542975 -0.709678948 0.469212502 -0.455983827 -0.740428762 0.493805628 -0.320451758 -0.792322734 0.519167946 -0.247219225 -0.798802629 0.548449646 -0.124813792 -0.815873411 0.564599056 -0.0567338905 -0.800422537 0.596745363 0.040877995 -0.801781194 0.596218002 0.103218071 -0.76381141 0.637132764 0.184290285 -0.763223331 0.61929576 0.227606174 -0.711508443 0.664794078 0.303976119 -0.723957183 0.619261266 0.325849781 -0.663074156 0.673909923 0.417535987 -0.679062837 0.603769297 0.419296971 -0.624617623 0.658819304 0.483565418 -0.625531551 0.612270173 0.47258522 -0.579144524 0.664270148 -0.407122635 -0.756711768 0.511506072 -0.195644869 -0.799276762 0.568225081 -0.0110149858 -0.786416708 0.617598115 0.138341128 -0.738307709 0.660123821 0.25032156 -0.676620286 0.69247679 0.335435511 -0.624053718 0.705719473 0.415831548 -0.589669423 0.692368468 0.462384042 -0.546011742 0.698621626 -0.6221091 -0.640020474 0.450947959 -0.65962834 -0.609738178 0.43944261 -0.798218237 -0.45173081 0.398480766 -0.825631862 -0.40838668 0.389297249 -0.912283226 -0.208495881 0.352517777 -0.925577517 -0.156458064 0.34471312 -0.947181409 0.0679827411 0.313409837 -0.943610166 0.123251263 0.307260445 -0.89379263 0.34817794 0.282678008 -0.872999593 0.400444948 0.278416152 -0.754939155 0.601462436 0.261361455 -0.719029672 0.644860095 0.25913662 -0.544236378 0.800813341 0.250009514 -0.497342298 0.830789523 0.249878784 -0.283433013 0.926173187 0.248734706 -0.231014757 0.940106566 0.250662773 -0.00211960059 0.966133202 0.25803516 0.0540593256 0.96351562 0.262135918 0.119304879 0.956485379 0.266274419 -0.166472522 0.95293038 0.253398088 -0.438263839 0.86334766 0.250111225 -0.671870642 0.69473695 0.256769178 -0.84312301 0.46302336 0.273409871 -0.93450654 0.192117856 0.299646886 -0.938173581 -0.0887307961 0.334600027 -0.857977166 -0.349086946 0.376846767 -0.712700464 -0.560343427 0.421987312 0.334379517 0.899743657 0.280449086 0.400343171 0.870938282 0.284941846 0.57707398 0.756858931 0.306839013 0.633496044 0.707361338 0.313564508 0.756526116 0.556372824 0.343682291 0.794049269 0.495091472 0.352661583 0.864175494 0.321624844 0.386986015 0.880826876 0.256514426 0.397925072 0.897117496 0.0688132867 0.436399966 0.893975732 0.00350496451 0.448101668 0.854485748 -0.172837346 0.489878922 0.830819736 -0.239923376 0.502170628 0.752279984 -0.36625784 0.547658672 0.710290483 -0.423730875 0.562085025 0.604615097 -0.510682647 0.611264115 0.550595082 -0.551728523 0.62645087 0.484718922 -0.570351962 0.663133626 0.420396026 -0.603505666 0.677530879 0.534305153 -0.540977297 0.649508712 0.641723998 -0.479249006 0.598757631 0.778403797 -0.323737135 0.537849232 0.869279568 -0.118629382 0.47987509 0.896667412 0.120440519 0.426006611 0.848050188 0.370483105 0.378884082 0.723477896 0.60252535 0.336961327 0.528586075 0.793396987 0.301857552 0.27617789 0.92051383 0.276369429 0.876516919 -0.106741135 0.469387282 0.868969403 -0.0317809776 0.493844253 0.847399644 0.111864327 0.519037778 0.816969439 0.178437051 0.548380484 0.771278322 0.293977708 0.56454128 0.724129198 0.345466702 0.596900044 0.676655112 0.431867866 0.596345542 0.612523676 0.467210949 0.637596012 0.571295975 0.538272915 0.619583068 0.50450223 0.550102704 0.665480665 0.47682305 0.623659059 0.619426474 0.412697101 0.612058929 0.674585035 0.380383191 0.700884457 0.603381808 0.331864744 0.674894808 0.659077226 0.300309741 0.732086822 0.611443328 0.265380495 0.698671143 0.664403361 0.85909912 0.0182997951 0.511481983 0.791959735 0.223352454 0.568254749 0.689229418 0.378260875 0.617965629 0.572692986 0.485029038 0.660885448 0.462619426 0.552290383 0.693511788 0.373833753 0.6006657 0.706717088 0.303075322 0.654183288 0.692957124 0.241488407 0.672864959 0.699239656 0.863415364 -0.225239084 0.451421382 0.85571901 -0.27205103 0.440151353 0.78719057 -0.469314881 0.400093175 0.763583959 -0.513667942 0.391260505 0.634073918 -0.686598902 0.355713668 0.596378623 -0.72318518 0.348332792 0.414109053 -0.852752154 0.31831974 0.36543811 -0.876780465 0.312587594 0.147183669 -0.945941136 0.28901961 0.0923343126 -0.954045507 0.285081647 -0.140031932 -0.953050065 0.268489536 -0.195263843 -0.943868375 0.266429209 -0.417865701 -0.87138237 0.25706229 -0.467525308 -0.845824726 0.256905856 -0.657679201 -0.708893658 0.25480944 -0.696542761 -0.670089861 0.256530233 -0.834023353 -0.485357044 0.262361555 -0.860441194 -0.434544467 0.26610535 -0.88754312 -0.373495242 0.2697564 -0.740623721 -0.620023496 0.258935067 -0.525771973 -0.810874339 0.256995408 -0.262012574 -0.928214559 0.264134708 0.0238521904 -0.959601122 0.280351137 0.302251793 -0.902982912 0.305394359 0.544905367 -0.767050986 0.338690015 0.728775287 -0.570152242 0.379226846 0.839256826 -0.341631324 0.423008295 -0.94605845 -0.159555882 0.281984627 -0.954337344 -0.0867831471 0.285847719 -0.944260874 0.121891265 0.305800461 -0.929555134 0.19652589 0.311937218 -0.861355668 0.377024176 0.340469065 -0.826904815 0.440925291 0.349017642 -0.713293306 0.58739286 0.382337924 -0.665103795 0.634921374 0.393079878 -0.512095753 0.742793922 0.431294712 -0.453785005 0.773185019 0.443017038 -0.281805479 0.82765488 0.485358704 -0.211666402 0.84102099 0.497876518 -0.0622122653 0.836413612 0.544556612 0.00886189942 0.828876201 0.559361878 0.138517316 0.780207671 0.609990937 0.201400924 0.753729714 0.625563096 0.251332285 0.704862719 0.663325433 0.312941048 0.665109701 0.678009577 0.200685651 0.733606999 0.64926577 0.0925685832 0.796719546 0.597217735 -0.112330601 0.837636174 0.534553529 -0.336411705 0.812976636 0.475285338 -0.556898893 0.71598822 0.420980394 -0.747839162 0.548151857 0.3745212 -0.884965193 0.324255471 0.334208016 -0.951591382 0.0604185207 0.301369283 -0.934563528 -0.221523138 0.278421465 -0.34979847 0.813612102 0.464409708 -0.411397345 0.768944635 0.489363232 -0.524373052 0.6781041 0.514983235 -0.567045147 0.617621059 0.54498076 -0.643461054 0.520167653 0.56159014 -0.664447722 0.452698199 0.594620523 -0.714812676 0.368500461 0.594348592 -0.713058648 0.294388323 0.636304078 -0.753481767 0.223482973 0.618320781 -0.729842123 0.158930525 0.664884624 -0.779475154 0.0986733662 0.618613006 -0.736759822 0.04830535 0.674426836 -0.797285157 -0.0236798865 0.603138162 -0.750005846 -0.052953631 0.65930808 -0.783212942 -0.108569448 0.61220108 -0.736811106 -0.122839317 0.664845769 -0.450270558 0.734575978 0.507596844 -0.593600161 0.572668261 0.565411276 -0.675344716 0.405347085 0.616119514 -0.708426794 0.2504443 0.659855385 -0.710612484 0.12108835 0.693085499 -0.707140678 0.0198861582 0.706793183 -0.717273527 -0.0677521819 0.693489963 -0.702352877 -0.130714341 0.699724372 -0.241338696 0.861565875 0.446609311 -0.196339934 0.878789539 0.434947786 0.00953184798 0.918692037 0.394859576 0.060271337 0.920585087 0.385863271 0.276562758 0.894765402 0.350582252 0.327383574 0.88034468 0.343239334 0.532870045 0.785870003 0.313779945 0.577957088 0.755606584 0.30826011 0.748453536 0.598582966 0.285509608 0.782497889 0.555180375 0.281907441 0.897864301 0.350556888 0.266363597 0.916945254 0.298571102 0.264701151 0.964168286 0.0675442128 0.256548816 0.966382817 0.0126703151 0.256795083 0.941109689 -0.220877387 0.255979948 0.926846524 -0.27268753 0.258064007 0.834449949 -0.483125628 0.265109242 0.804078406 -0.530109171 0.269150855 0.76530833 -0.58285702 0.273094955 0.905534618 -0.334647087 0.26080334 0.964811913 -0.0543043795 0.257272241 0.936191424 0.233396571 0.262814875 0.821140112 0.498687924 0.27755949 0.632161214 0.713827566 0.301367558 0.391354056 0.857581976 0.33375913 0.127051116 0.918763224 0.37380764 -0.127316578 0.899681437 0.417568917 0.609617176 -0.739163641 0.286363424 0.551736729 -0.781786049 0.290511885 0.366976076 -0.87663929 0.311178589 0.296016962 -0.900865141 0.317515285 0.106617952 -0.932032243 0.346335834 0.0347287807 -0.934226582 0.35498536 -0.148229762 -0.909580822 0.388188956 -0.213314603 -0.891825717 0.398928277 -0.382969082 -0.814065399 0.436614485 -0.438751313 -0.778828029 0.448245677 -0.571922833 -0.658161634 0.489619787 -0.619149098 -0.603882084 0.501976915 -0.690097642 -0.473375895 0.547430823 -0.719675431 -0.407657331 0.562034495 -0.74290021 -0.272430486 0.611458018 -0.751925594 -0.204152869 0.626840895 -0.735208052 -0.137648899 0.663718239 -0.731927084 -0.0647625093 0.678298283 -0.734150827 -0.195874333 0.650119841 -0.733727524 -0.321069364 0.598797448 -0.665539008 -0.517776237 0.537555203 -0.531478276 -0.698202657 0.479628912 -0.337253714 -0.839348601 0.426326 -0.097364932 -0.919716892 0.380316853 0.16328129 -0.926169268 0.339926031 0.42281533 -0.852806284 0.306510424 0.656630876 -0.699304702 0.28250456</float_array>
        <technique_common><accessor source="#vfx_kurp_0352-mesh-normals-array" count="234" stride="3"><param name="X" type="float"/><param name="Y" type="float"/><param name="Z" type="float"/></accessor></technique_common>
      </source>
      <source id="vfx_kurp_0352-mesh-uv0">
        <float_array id="vfx_kurp_0352-mesh-uv0-array" count="468">1 0.280000031 0.5 0.280000031 1 0.24000001 0.5 0.24000001 1 0.200000048 0.5 0.200000048 1 0.160000026 0.5 0.160000026 1 0.120000005 0.5 0.120000005 1 0.0800000429 0.5 0.0800000429 1 0.0400000215 0.5 0.0400000215 1 0 0.5 0 0 0.280000031 0 0.24000001 0 0.200000048 0 0.160000026 0 0.120000005 0 0.0800000429 0 0.0400000215 0 0 0 0.319999993 0.5 0.319999993 0 0.360000014 0.5 0.360000014 0 0.400000036 0.5 0.400000036 0 0.439999998 0.5 0.439999998 0 0.480000019 0.5 0.480000019 0 0.519999981 0.5 0.519999981 0 0.560000002 0.5 0.560000002 0 0.600000024 0.5 0.600000024 0 0.639999986 0.5 0.639999986 1 0.639999986 1 0.600000024 1 0.560000002 1 0.519999981 1 0.480000019 1 0.439999998 1 0.400000036 1 0.360000014 1 0.319999993 0.5 0.680000007 1 0.680000007 0.5 0.720000029 1 0.720000029 0.5 0.75999999 1 0.75999999 0.5 0.800000012 1 0.800000012 0.5 0.840000033 1 0.840000033 0.5 0.879999995 1 0.879999995 0.5 0.920000017 1 0.920000017 0.5 0.959999979 1 0.959999979 0.5 1 1 1 0 1 0 0.959999979 0 0.920000017 0 0.879999995 0 0.840000033 0 0.800000012 0 0.75999999 0 0.720000029 0 0.680000007 1 0.280000031 0.5 0.280000031 1 0.24000001 0.5 0.24000001 1 0.200000048 0.5 0.200000048 1 0.160000026 0.5 0.160000026 1 0.120000005 0.5 0.120000005 1 0.0800000429 0.5 0.0800000429 1 0.0400000215 0.5 0.0400000215 1 0 0.5 0 0 0.280000031 0 0.24000001 0 0.200000048 0 0.160000026 0 0.120000005 0 0.0800000429 0 0.0400000215 0 0 0 0.319999993 0.5 0.319999993 0 0.360000014 0.5 0.360000014 0 0.400000036 0.5 0.400000036 0 0.439999998 0.5 0.439999998 0 0.480000019 0.5 0.480000019 0 0.519999981 0.5 0.519999981 0 0.560000002 0.5 0.560000002 0 0.600000024 0.5 0.600000024 0 0.639999986 0.5 0.639999986 1 0.639999986 1 0.600000024 1 0.560000002 1 0.519999981 1 0.480000019 1 0.439999998 1 0.400000036 1 0.360000014 1 0.319999993 0.5 0.680000007 1 0.680000007 0.5 0.720000029 1 0.720000029 0.5 0.75999999 1 0.75999999 0.5 0.800000012 1 0.800000012 0.5 0.840000033 1 0.840000033 0.5 0.879999995 1 0.879999995 0.5 0.920000017 1 0.920000017 0.5 0.959999979 1 0.959999979 0.5 1 1 1 0 1 0 0.959999979 0 0.920000017 0 0.879999995 0 0.840000033 0 0.800000012 0 0.75999999 0 0.720000029 0 0.680000007 1 0.280000031 0.5 0.280000031 1 0.24000001 0.5 0.24000001 1 0.200000048 0.5 0.200000048 1 0.160000026 0.5 0.160000026 1 0.120000005 0.5 0.120000005 1 0.0800000429 0.5 0.0800000429 1 0.0400000215 0.5 0.0400000215 1 0 0.5 0 0 0.280000031 0 0.24000001 0 0.200000048 0 0.160000026 0 0.120000005 0 0.0800000429 0 0.0400000215 0 0 0 0.319999993 0.5 0.319999993 0 0.360000014 0.5 0.360000014 0 0.400000036 0.5 0.400000036 0 0.439999998 0.5 0.439999998 0 0.480000019 0.5 0.480000019 0 0.519999981 0.5 0.519999981 0 0.560000002 0.5 0.560000002 0 0.600000024 0.5 0.600000024 0 0.639999986 0.5 0.639999986 1 0.639999986 1 0.600000024 1 0.560000002 1 0.519999981 1 0.480000019 1 0.439999998 1 0.400000036 1 0.360000014 1 0.319999993 0.5 0.680000007 1 0.680000007 0.5 0.720000029 1 0.720000029 0.5 0.75999999 1 0.75999999 0.5 0.800000012 1 0.800000012 0.5 0.840000033 1 0.840000033 0.5 0.879999995 1 0.879999995 0.5 0.920000017 1 0.920000017 0.5 0.959999979 1 0.959999979 0.5 1 1 1 0 1 0 0.959999979 0 0.920000017 0 0.879999995 0 0.840000033 0 0.800000012 0 0.75999999 0 0.720000029 0 0.680000007</float_array>
        <technique_common><accessor source="#vfx_kurp_0352-mesh-uv0-array" count="234" stride="2"><param name="S" type="float"/><param name="T" type="float"/></accessor></technique_common>
      </source>
      <vertices id="vfx_kurp_0352-mesh-vertices"><input semantic="POSITION" source="#vfx_kurp_0352-mesh-positions"/></vertices>
      <triangles material="PreviewMaterial" count="300">
        <input semantic="VERTEX" source="#vfx_kurp_0352-mesh-vertices" offset="0"/>
        <input semantic="NORMAL" source="#vfx_kurp_0352-mesh-normals" offset="1"/>
        <input semantic="TEXCOORD" source="#vfx_kurp_0352-mesh-uv0" offset="2" set="0"/>
        <p>0 0 0 1 1 1 2 2 2 3 3 3 2 2 2 1 1 1 2 2 2 3 3 3 4 4 4 5 5 5 4 4 4 3 3 3 4 4 4 5 5 5 6 6 6 7 7 7 6 6 6 5 5 5 6 6 6 7 7 7 8 8 8 9 9 9 8 8 8 7 7 7 8 8 8 9 9 9 10 10 10 11 11 11 10 10 10 9 9 9 10 10 10 11 11 11 12 12 12 13 13 13 12 12 12 11 11 11 12 12 12 13 13 13 14 14 14 15 15 15 14 14 14 13 13 13 1 1 1 16 16 16 3 3 3 17 17 17 3 3 3 16 16 16 3 3 3 17 17 17 5 5 5 18 18 18 5 5 5 17 17 17 5 5 5 18 18 18 7 7 7 19 19 19 7 7 7 18 18 18 7 7 7 19 19 19 9 9 9 20 20 20 9 9 9 19 19 19 9 9 9 20 20 20 11 11 11 21 21 21 11 11 11 20 20 20 11 11 11 21 21 21 13 13 13 22 22 22 13 13 13 21 21 21 13 13 13 22 22 22 15 15 15 23 23 23 15 15 15 22 22 22 16 16 16 1 1 1 24 24 24 25 25 25 24 24 24 1 1 1 24 24 24 25 25 25 26 26 26 27 27 27 26 26 26 25 25 25 26 26 26 27 27 27 28 28 28 29 29 29 28 28 28 27 27 27 28 28 28 29 29 29 30 30 30 31 31 31 30 30 30 29 29 29 30 30 30 31 31 31 32 32 32 33 33 33 32 32 32 31 31 31 32 32 32 33 33 33 34 34 34 35 35 35 34 34 34 33 33 33 34 34 34 35 35 35 36 36 36 37 37 37 36 36 36 35 35 35 36 36 36 37 37 37 38 38 38 39 39 39 38 38 38 37 37 37 38 38 38 39 39 39 40 40 40 41 41 41 40 40 40 39 39 39 42 42 42 41 41 41 43 43 43 39 39 39 43 43 43 41 41 41 43 43 43 39 39 39 44 44 44 37 37 37 44 44 44 39 39 39 44 44 44 37 37 37 45 45 45 35 35 35 45 45 45 37 37 37 45 45 45 35 35 35 46 46 46 33 33 33 46 46 46 35 35 35 46 46 46 33 33 33 47 47 47 31 31 31 47 47 47 33 33 33 47 47 47 31 31 31 48 48 48 29 29 29 48 48 48 31 31 31 48 48 48 29 29 29 49 49 49 27 27 27 49 49 49 29 29 29 49 49 49 27 27 27 50 50 50 25 25 25 50 50 50 27 27 27 50 50 50 25 25 25 0 0 0 1 1 1 0 0 0 25 25 25 41 41 41 42 42 42 51 51 51 52 52 52 51 51 51 42 42 42 51 51 51 52 52 52 53 53 53 54 54 54 53 53 53 52 52 52 53 53 53 54 54 54 55 55 55 56 56 56 55 55 55 54 54 54 55 55 55 56 56 56 57 57 57 58 58 58 57 57 57 56 56 56 57 57 57 58 58 58 59 59 59 60 60 60 59 59 59 58 58 58 59 59 59 60 60 60 61 61 61 62 62 62 61 61 61 60 60 60 61 61 61 62 62 62 63 63 63 64 64 64 63 63 63 62 62 62 63 63 63 64 64 64 65 65 65 66 66 66 65 65 65 64 64 64 65 65 65 66 66 66 67 67 67 68 68 68 67 67 67 66 66 66 67 67 67 69 69 69 65 65 65 70 70 70 65 65 65 69 69 69 65 65 65 70 70 70 63 63 63 71 71 71 63 63 63 70 70 70 63 63 63 71 71 71 61 61 61 72 72 72 61 61 61 71 71 71 61 61 61 72 72 72 59 59 59 73 73 73 59 59 59 72 72 72 59 59 59 73 73 73 57 57 57 74 74 74 57 57 57 73 73 73 57 57 57 74 74 74 55 55 55 75 75 75 55 55 55 74 74 74 55 55 55 75 75 75 53 53 53 76 76 76 53 53 53 75 75 75 53 53 53 76 76 76 51 51 51 77 77 77 51 51 51 76 76 76 51 51 51 77 77 77 41 41 41 40 40 40 41 41 41 77 77 77 78 78 78 79 79 79 80 80 80 81 81 81 80 80 80 79 79 79 80 80 80 81 81 81 82 82 82 83 83 83 82 82 82 81 81 81 82 82 82 83 83 83 84 84 84 85 85 85 84 84 84 83 83 83 84 84 84 85 85 85 86 86 86 87 87 87 86 86 86 85 85 85 86 86 86 87 87 87 88 88 88 89 89 89 88 88 88 87 87 87 88 88 88 89 89 89 90 90 90 91 91 91 90 90 90 89 89 89 90 90 90 91 91 91 92 92 92 93 93 93 92 92 92 91 91 91 79 79 79 94 94 94 81 81 81 95 95 95 81 81 81 94 94 94 81 81 81 95 95 95 83 83 83 96 96 96 83 83 83 95 95 95 83 83 83 96 96 96 85 85 85 97 97 97 85 85 85 96 96 96 85 85 85 97 97 97 87 87 87 98 98 98 87 87 87 97 97 97 87 87 87 98 98 98 89 89 89 99 99 99 89 89 89 98 98 98 89 89 89 99 99 99 91 91 91 100 100 100 91 91 91 99 99 99 91 91 91 100 100 100 93 93 93 101 101 101 93 93 93 100 100 100 94 94 94 79 79 79 102 102 102 103 103 103 102 102 102 79 79 79 102 102 102 103 103 103 104 104 104 105 105 105 104 104 104 103 103 103 104 104 104 105 105 105 106 106 106 107 107 107 106 106 106 105 105 105 106 106 106 107 107 107 108 108 108 109 109 109 108 108 108 107 107 107 108 108 108 109 109 109 110 110 110 111 111 111 110 110 110 109 109 109 110 110 110 111 111 111 112 112 112 113 113 113 112 112 112 111 111 111 112 112 112 113 113 113 114 114 114 115 115 115 114 114 114 113 113 113 114 114 114 115 115 115 116 116 116 117 117 117 116 116 116 115 115 115 116 116 116 117 117 117 118 118 118 119 119 119 118 118 118 117 117 117 120 120 120 119 119 119 121 121 121 117 117 117 121 121 121 119 119 119 121 121 121 117 117 117 122 122 122 115 115 115 122 122 122 117 117 117 122 122 122 115 115 115 123 123 123 113 113 113 123 123 123 115 115 115 123 123 123 113 113 113 124 124 124 111 111 111 124 124 124 113 113 113 124 124 124 111 111 111 125 125 125 109 109 109 125 125 125 111 111 111 125 125 125 109 109 109 126 126 126 107 107 107 126 126 126 109 109 109 126 126 126 107 107 107 127 127 127 105 105 105 127 127 127 107 107 107 127 127 127 105 105 105 128 128 128 103 103 103 128 128 128 105 105 105 128 128 128 103 103 103 78 78 78 79 79 79 78 78 78 103 103 103 119 119 119 120 120 120 129 129 129 130 130 130 129 129 129 120 120 120 129 129 129 130 130 130 131 131 131 132 132 132 131 131 131 130 130 130 131 131 131 132 132 132 133 133 133 134 134 134 133 133 133 132 132 132 133 133 133 134 134 134 135 135 135 136 136 136 135 135 135 134 134 134 135 135 135 136 136 136 137 137 137 138 138 138 137 137 137 136 136 136 137 137 137 138 138 138 139 139 139 140 140 140 139 139 139 138 138 138 139 139 139 140 140 140 141 141 141 142 142 142 141 141 141 140 140 140 141 141 141 142 142 142 143 143 143 144 144 144 143 143 143 142 142 142 143 143 143 144 144 144 145 145 145 146 146 146 145 145 145 144 144 144 145 145 145 147 147 147 143 143 143 148 148 148 143 143 143 147 147 147 143 143 143 148 148 148 141 141 141 149 149 149 141 141 141 148 148 148 141 141 141 149 149 149 139 139 139 150 150 150 139 139 139 149 149 149 139 139 139 150 150 150 137 137 137 151 151 151 137 137 137 150 150 150 137 137 137 151 151 151 135 135 135 152 152 152 135 135 135 151 151 151 135 135 135 152 152 152 133 133 133 153 153 153 133 133 133 152 152 152 133 133 133 153 153 153 131 131 131 154 154 154 131 131 131 153 153 153 131 131 131 154 154 154 129 129 129 155 155 155 129 129 129 154 154 154 129 129 129 155 155 155 119 119 119 118 118 118 119 119 119 155 155 155 156 156 156 157 157 157 158 158 158 159 159 159 158 158 158 157 157 157 158 158 158 159 159 159 160 160 160 161 161 161 160 160 160 159 159 159 160 160 160 161 161 161 162 162 162 163 163 163 162 162 162 161 161 161 162 162 162 163 163 163 164 164 164 165 165 165 164 164 164 163 163 163 164 164 164 165 165 165 166 166 166 167 167 167 166 166 166 165 165 165 166 166 166 167 167 167 168 168 168 169 169 169 168 168 168 167 167 167 168 168 168 169 169 169 170 170 170 171 171 171 170 170 170 169 169 169 157 157 157 172 172 172 159 159 159 173 173 173 159 159 159 172 172 172 159 159 159 173 173 173 161 161 161 174 174 174 161 161 161 173 173 173 161 161 161 174 174 174 163 163 163 175 175 175 163 163 163 174 174 174 163 163 163 175 175 175 165 165 165 176 176 176 165 165 165 175 175 175 165 165 165 176 176 176 167 167 167 177 177 177 167 167 167 176 176 176 167 167 167 177 177 177 169 169 169 178 178 178 169 169 169 177 177 177 169 169 169 178 178 178 171 171 171 179 179 179 171 171 171 178 178 178 172 172 172 157 157 157 180 180 180 181 181 181 180 180 180 157 157 157 180 180 180 181 181 181 182 182 182 183 183 183 182 182 182 181 181 181 182 182 182 183 183 183 184 184 184 185 185 185 184 184 184 183 183 183 184 184 184 185 185 185 186 186 186 187 187 187 186 186 186 185 185 185 186 186 186 187 187 187 188 188 188 189 189 189 188 188 188 187 187 187 188 188 188 189 189 189 190 190 190 191 191 191 190 190 190 189 189 189 190 190 190 191 191 191 192 192 192 193 193 193 192 192 192 191 191 191 192 192 192 193 193 193 194 194 194 195 195 195 194 194 194 193 193 193 194 194 194 195 195 195 196 196 196 197 197 197 196 196 196 195 195 195 198 198 198 197 197 197 199 199 199 195 195 195 199 199 199 197 197 197 199 199 199 195 195 195 200 200 200 193 193 193 200 200 200 195 195 195 200 200 200 193 193 193 201 201 201 191 191 191 201 201 201 193 193 193 201 201 201 191 191 191 202 202 202 189 189 189 202 202 202 191 191 191 202 202 202 189 189 189 203 203 203 187 187 187 203 203 203 189 189 189 203 203 203 187 187 187 204 204 204 185 185 185 204 204 204 187 187 187 204 204 204 185 185 185 205 205 205 183 183 183 205 205 205 185 185 185 205 205 205 183 183 183 206 206 206 181 181 181 206 206 206 183 183 183 206 206 206 181 181 181 156 156 156 157 157 157 156 156 156 181 181 181 197 197 197 198 198 198 207 207 207 208 208 208 207 207 207 198 198 198 207 207 207 208 208 208 209 209 209 210 210 210 209 209 209 208 208 208 209 209 209 210 210 210 211 211 211 212 212 212 211 211 211 210 210 210 211 211 211 212 212 212 213 213 213 214 214 214 213 213 213 212 212 212 213 213 213 214 214 214 215 215 215 216 216 216 215 215 215 214 214 214 215 215 215 216 216 216 217 217 217 218 218 218 217 217 217 216 216 216 217 217 217 218 218 218 219 219 219 220 220 220 219 219 219 218 218 218 219 219 219 220 220 220 221 221 221 222 222 222 221 221 221 220 220 220 221 221 221 222 222 222 223 223 223 224 224 224 223 223 223 222 222 222 223 223 223 225 225 225 221 221 221 226 226 226 221 221 221 225 225 225 221 221 221 226 226 226 219 219 219 227 227 227 219 219 219 226 226 226 219 219 219 227 227 227 217 217 217 228 228 228 217 217 217 227 227 227 217 217 217 228 228 228 215 215 215 229 229 229 215 215 215 228 228 228 215 215 215 229 229 229 213 213 213 230 230 230 213 213 213 229 229 229 213 213 213 230 230 230 211 211 211 231 231 231 211 211 211 230 230 230 211 211 211 231 231 231 209 209 209 232 232 232 209 209 209 231 231 231 209 209 209 232 232 232 207 207 207 233 233 233 207 207 207 232 232 232 207 207 207 233 233 233 197 197 197 196 196 196 197 197 197 233 233 233</p>
      </triangles>
    </mesh></geometry>
  </library_geometries>
  <library_visual_scenes>
    <visual_scene id="Scene" name="Scene">
      <node id="vfx_kurp_0352" name="vfx_kurp_0352" type="NODE">
        <instance_geometry url="#vfx_kurp_0352-mesh"><bind_material><technique_common><instance_material symbol="PreviewMaterial" target="#PreviewMaterial"><bind_vertex_input semantic="UVSET0" input_semantic="TEXCOORD" input_set="0"/></instance_material></technique_common></bind_material></instance_geometry>
      </node>
    </visual_scene>
  </library_visual_scenes>
  <scene><instance_visual_scene url="#Scene"/></scene>
</COLLADA>
