<?xml version="1.0" encoding="utf-8"?>
<COLLADA xmlns="http://www.collada.org/2005/11/COLLADASchema" version="1.4.1">
  <asset>
    <contributor><authoring_tool>Morrobroom Kurpulio VFX preview converter</authoring_tool></contributor>
    <unit name="unit" meter="1"/>
    <up_axis>Z_UP</up_axis>
  </asset>
  <library_images>
    <image id="VFXTexture" name="darkmap_newgen-1.dds">
      <init_from>../../../Textures/Kurp/darkmap_newgen-1.dds</init_from>
    </image>
  </library_images>
  <library_effects>
    <effect id="PreviewEffect">
      <profile_COMMON>
        <newparam sid="VFXTexture-surface">
          <surface type="2D"><init_from>VFXTexture</init_from></surface>
        </newparam>
        <newparam sid="VFXTexture-sampler">
          <sampler2D><source>VFXTexture-surface</source></sampler2D>
        </newparam>
        <technique sid="common"><phong>
          <emission><color>0.08 0.08 0.08 1</color></emission>
          <ambient><color>0.2 0.2 0.2 1</color></ambient>
          <diffuse><texture texture="VFXTexture-sampler" texcoord="UVSET0"/></diffuse>
          <specular><color>0.15 0.15 0.15 1</color></specular>
          <shininess><float>8</float></shininess>
          <transparent opaque="A_ONE"><texture texture="VFXTexture-sampler" texcoord="UVSET0"/></transparent>
          <transparency><float>1</float></transparency>
        </phong></technique>
      </profile_COMMON>
      <extra><technique profile="GOOGLEEARTH"><double_sided>1</double_sided></technique></extra>
    </effect>
  </library_effects>
  <library_materials><material id="PreviewMaterial" name="PreviewMaterial"><instance_effect url="#PreviewEffect"/></material></library_materials>
  <library_geometries>
    <geometry id="vfx_kurp_0580-mesh" name="vfx_kurp_0580"><mesh>
      <source id="vfx_kurp_0580-mesh-positions">
        <float_array id="vfx_kurp_0580-mesh-positions-array" count="648">1.02566995 -2.01019766 2.95496705 0.504342661 -2.4911342 2.47717575 0.314456527 -1.95691693 2.84351844 -0.282819769 -2.1733201 2.40128095 0.232716353 -2.59357893 2.28614127 0.714618036 -3.01268926 2.09369569 0.745071466 -3.01587978 2.10630827 0.902431633 -2.51497286 2.52407665 1.61051886 -2.20715703 2.82763673 -0.400160479 -2.43989426 1.78438597 0.173165671 -2.73385651 1.98572013 0.720190359 -3.03087669 2.06085188 -0.173477211 -2.49171567 1.32439851 -0.400160479 -2.43989426 1.78438597 0.312517269 -2.77806165 1.69516454 0.173165671 -2.73385651 1.98572013 0.782901807 -3.03890675 1.99322774 0.720190359 -3.03087669 2.06085188 0.0537469259 -2.4309641 1.09290342 0.517017364 -2.74045859 1.47401461 0.955108161 -3.03108534 1.83026023 0.296854478 -2.33452117 0.862609097 0.784263754 -2.63942367 1.21632988 1.27167348 -2.94432626 1.57005032 0.521074975 -2.1900111 0.642905649 1.0605652 -2.46167758 0.944235708 1.6000553 -2.73334404 1.24556578 0.671576947 -2.02222111 0.474568214 1.27343366 -2.22387118 0.704258563 1.87529049 -2.42552127 0.933948965 0.747214167 -1.85653784 0.360338373 1.39728153 -1.95226089 0.514939914 2.04734889 -2.04798394 0.669541484 0.771225655 -1.65928247 0.266724728 1.43907088 -1.61237477 0.352946559 2.10691622 -1.56546778 0.439168684 0.733527368 -1.37478882 0.172444334 1.38832119 -1.21824919 0.221357701 2.04311502 -1.06170957 0.270271097 0.662971913 -1.14478714 0.104558203 1.28350379 -0.879623516 0.121303703 1.90403567 -0.6144598 0.138049203 0.574296793 -0.983000841 0.0641527452 1.12511218 -0.593121162 0.0483922281 1.67592756 -0.203241542 0.0326317082 0.452904872 -0.854910934 0.0430222401 0.872619107 -0.328247594 -0.002995468 1.29233342 0.198415857 -0.0490131836 0.296054522 -0.762532284 0.0359398313 0.565923971 -0.146396624 -0.0206247856 0.835793346 0.469738924 -0.0771893899 0.0776281759 -0.694249701 0.041484431 0.216206617 -0.0358414013 -0.0127985312 0.354785061 0.622566917 -0.0670814949 -0.232927647 -0.649802168 0.0613454889 -0.155377239 0.0188277827 0.0106315262 -0.0778268097 0.6874578 -0.0400824427 0.762159189 -3.5661817 3.17187948 0.942796218 -2.97120788 2.6738298 0.822575826 -3.6292352 2.76437963 0.977747859 -3.0446072 2.21723768 0.856883709 -3.70080679 2.31944254 0.975611483 -3.11535358 1.78399962 0.854785679 -3.76979312 1.89696863 0.944156811 -3.18230288 1.38065829 0.824052177 -3.8351074 1.50343138 0.891714156 -3.24477955 1.01115206 0.772769375 -3.89606606 1.14279642 0.826593461 -3.30212408 0.679350633 0.709023307 -3.95198469 0.819031122 0.757105308 -3.35369746 0.389067287 0.640900317 -4.00217922 0.536104553 0.677718015 -3.40798282 0.0934395222 0.562186817 -4.05566454 0.244479935 0.564372256 -4.17361212 3.62122534 0.640129117 -4.22566233 3.24833682 0.702355552 -4.28726254 2.85492945 0.736019558 -4.3570077 2.4216427 0.733959875 -4.42423266 2.00993765 0.703947543 -4.48791191 1.62620448 0.653824594 -4.54735258 1.27444078 0.59145318 -4.60184506 0.958711593 0.524695355 -4.65066075 0.683141817 0.446655618 -4.70334626 0.395520344 0.685271938 -3.5119854 3.56390714 0.483539699 -4.13563232 3.96510733 0.600054162 -3.47148411 3.93374187 0.406424732 -4.11578749 4.26980353 0.514647422 -3.44951682 4.27465311 0.342197073 -4.11671216 4.52201998 0.437191997 -3.45092237 4.57991946 0.279800133 -4.14668569 4.7090465 0.353446569 -3.50790974 4.95787297 0.282960031 -4.16901761 4.75824714 0.338906669 -3.67611811 5.24517171 0.312494803 -4.22202764 4.77626151 0.462368842 -3.99935616 5.37348714 0.381248287 -4.30143836 4.73760306 0.67737286 -4.24806205 5.32607667 0.620585175 -4.41952027 4.58025795 0.972157086 -4.34155284 5.15119642 1.06830642 -4.30651709 4.34820912 1.00374589 -4.19484436 5.91454999 0.63311412 -3.82206928 6.00203105 0.411086537 -3.23529583 5.7512528 0.427093133 -2.86766961 5.15867406 0.532187403 -2.78513274 4.63781748 0.622870112 -2.78324614 4.2795027 0.716568625 -2.8073359 3.90237641 0.806170884 -2.85035826 3.50659327 0.884189289 -2.90670083 3.09542213 1.32372587 -4.26358401 5.722136 1.29238739 -4.25838449 4.98312869 1.51647135 -4.2102504 5.61804697 1.58213674 -4.0558616 4.92425305 1.63197772 -4.12308766 5.59406506 1.82608042 -3.76698557 4.97931912 1.80147346 -3.91249276 5.63801067 1.9234934 -3.43718182 5.06175443 1.89431341 -3.60212935 5.71566051 1.90176835 -3.07969016 5.15481822 1.87348539 -3.25643093 5.80567622 1.78568146 -2.7202665 5.24937405 1.75974142 -2.90203528 5.8989434 1.59987499 -2.38463392 5.3362883 1.5756036 -2.56602052 5.98602738 1.36935551 -2.09912828 5.40626074 1.34241744 -2.27632963 6.05704952 1.11929738 -1.8898986 5.4500583 0.876769949 -1.60094012 4.80883555 1.15618123 -1.72132732 4.7974671 1.39629358 -1.92192692 4.75547196 1.62414832 -2.20325009 4.68654735 1.81162029 -2.538495 4.59980701 1.93005086 -2.90294673 4.50396294 1.95267358 -3.27223209 4.40784915 1.85068657 -3.62148116 4.32062781 1.53229577 -3.98863511 4.25444053 1.08241529 -2.05847069 6.10264942 0.825251524 -1.75674137 5.46360559 0.773733099 -1.91254262 6.11837563 0.46018084 -1.68482769 5.44443135 0.381811097 -1.83385477 6.09811422 0.0581249147 -1.68866526 5.38407734 -0.057549956 -1.83798078 6.0321333 -0.259610432 -1.75368248 5.30285952 -0.412300554 -1.90783326 5.94205858 -0.553782669 -1.87563829 5.19153829 -0.74648342 -2.04469965 5.81598758 -0.819715635 -2.06197989 5.04437875 -1.05129064 -2.25746199 5.64754677 -1.04268217 -2.31898164 4.85772373 -1.30572051 -2.55027698 5.4347551 -1.20749286 -2.65142469 4.62880874 -1.49149233 -2.92497949 5.17668124 -1.29504883 -2.97491249 4.38419048 -1.00232096 -2.82148407 3.71422311 -0.988468521 -2.62175866 3.89742251 -0.92349338 -2.37786988 4.08093648 -0.779643777 -2.0876863 4.28069235 -0.588140574 -1.8664978 4.44121073 -0.361081948 -1.70657692 4.567089 -0.10692037 -1.59953169 4.66366045 0.173799768 -1.53934986 4.73602139 0.538550555 -1.53580072 4.79074849 -1.60162962 -3.32806729 4.87095759 -1.31534363 -3.25399664 4.12726284 -1.62836631 -3.68650921 4.54030257 -1.27679938 -3.4913234 3.86146085 -1.57874743 -3.99464406 4.19484954 -1.18783846 -3.68954142 3.59021612 -1.46458658 -4.24963925 3.84585954 -1.05688419 -3.85129816 3.31696479 -1.30010403 -4.4530737 3.50233647 -0.878124408 -3.98802049 3.02374445 -1.08262894 -4.62007623 3.14347371 -0.667087897 -4.09012105 2.7316295 -0.832305936 -4.74146557 2.79570154 -0.437689265 -4.15841386 2.450243 -0.565396278 -4.82100989 2.46783807 -0.201073424 -4.19640268 2.18412735 -0.293269127 -4.86472082 2.16170506 0.100555453 -4.19288185 1.92480346 0.322094536 -3.48692498 1.93775907 0.102785889 -3.5277495 2.03989516 -0.108877721 -3.52808455 2.20654964 -0.309981595 -3.49581799 2.43264693 -0.501869858 -3.43877654 2.66755745 -0.673619846 -3.35596451 2.90401517 -0.813664437 -3.24952284 3.13159315 -0.911090957 -3.12944336 3.33457465 -0.974851359 -2.98800298 3.52807218 0.0983250441 -4.85801396 1.80971174 0.431261542 -4.12856193 1.75877109 0.54042852 -4.77019913 1.57978314 0.763800838 -4.01417628 1.67640521 0.986131097 -4.61594137 1.46640436 1.07337387 -3.86075762 1.66523875 1.40728126 -4.40682522 1.45083767 1.38515526 -3.63561522 1.73040022 1.86190642 -4.07219675 1.5360886 1.58615579 -3.37418828 1.86992513 2.21690367 -3.59897359 1.78459872 1.6109578 -3.08282298 2.07574351 2.27702494 -3.03746739 2.17549014 1.49144377 -2.82143725 2.28471168 2.06412092 -2.5750555 2.54353434 1.24166125 -2.62646717 2.4484595 0.778733634 -3.02371818 2.09825212 0.872803679 -3.04577708 2.06928225 0.918767855 -3.06782017 2.02588804 0.944890332 -3.12817678 1.97599786 0.955408193 -3.14940177 1.95525192 0.908404092 -3.19903369 1.92471185 0.7394665 -3.31468979 1.87963981 0.541470552 -3.41241141 1.88640608</float_array>
        <technique_common><accessor source="#vfx_kurp_0580-mesh-positions-array" count="216" stride="3"><param name="X" type="float"/><param name="Y" type="float"/><param name="Z" type="float"/></accessor></technique_common>
      </source>
      <source id="vfx_kurp_0580-mesh-normals">
        <float_array id="vfx_kurp_0580-mesh-normals-array" count="648">0.101089526 0.625659219 -0.773518875 0.213093668 0.617349183 -0.75727873 0.239500587 0.601602306 -0.762046019 0.432495207 0.683817554 -0.587657595 0.396569749 0.69228739 -0.602885233 0.447439487 0.743016281 -0.497719511 0.127430224 0.657577451 -0.742531773 0.0841295185 0.631222277 -0.77102572 0.0475673129 0.645191649 -0.762538581 0.526481253 0.739397528 -0.419653174 0.496419696 0.748525762 -0.439632425 0.514019789 0.768894761 -0.380242689 0.333246788 0.900370745 0.279784023 0.436878757 0.893658137 0.102528462 0.354961704 0.905856912 0.231139444 0.438877623 0.894723721 0.0828003297 0.349875179 0.891449383 0.287932903 0.424992286 0.856672966 0.292391836 0.186423173 0.85901761 0.476796755 0.206483569 0.870069139 0.447598289 0.220243304 0.87603239 0.429022306 0.111487631 0.823092601 0.556856425 0.116084395 0.826855261 0.55030427 0.11835746 0.828862318 0.546789511 0.0224427707 0.76167198 0.647574024 0.0234102712 0.763064667 0.645898036 0.0242234569 0.764058413 0.644692148 -0.0633326658 0.660415207 0.748225052 -0.0627327467 0.662643154 0.746303325 -0.062290314 0.663843321 0.745273079 -0.124235366 0.51938621 0.845460548 -0.123996956 0.522082193 0.843833478 -0.123777819 0.523490399 0.842992796 -0.143903096 0.368456693 0.918439745 -0.144387805 0.369740302 0.917847629 -0.144604356 0.369973728 0.917719467 -0.13559345 0.269200809 0.953491133 -0.136035707 0.270293781 0.953118858 -0.136267342 0.270930418 0.95290499 -0.11764217 0.215684629 0.969350536 -0.118588704 0.216743577 0.968998938 -0.118983382 0.217272706 0.968832042 -0.0772072316 0.15562297 0.984794666 -0.0852381806 0.161271242 0.983222274 -0.0878775353 0.163452598 0.982629527 -0.0202268591 0.105414568 0.994222633 -0.0322733256 0.111762475 0.993210744 -0.0359454961 0.113871077 0.992845053 0.0269439039 0.0802100718 0.996413755 0.0213320786 0.0817130955 0.996427575 0.0194886486 0.0822498335 0.996421175 0.0603341375 0.0695163908 0.99575462 0.0589634858 0.069573191 0.995832756 0.0584036088 0.0695909574 0.995864507 0.0732239954 0.0669803763 0.995063755 0.0726811054 0.0669433499 0.995106047 0.0722909131 0.0669254722 0.995135672 -0.969225979 0.157073361 -0.189549363 -0.977822931 0.162292089 -0.132376709 -0.97755199 0.160765943 -0.136185234 -0.983184542 0.171393972 -0.0630258929 -0.983186136 0.171307438 -0.0632359326 -0.983001269 0.183296622 0.0105286515 -0.982996551 0.183319082 0.0105780151 -0.978127124 0.194033154 0.0749564145 -0.978104152 0.194093399 0.0751000731 -0.970537749 0.203329061 0.129281749 -0.970463325 0.20346638 0.129623946 -0.962119191 0.21104745 0.172585157 -0.961915543 0.211344202 0.173355462 -0.954748353 0.216982827 0.203406086 -0.954435772 0.217383183 0.204442924 -0.951488635 0.219547863 0.215564637 -0.951165881 0.219946151 0.216580605 -0.961168295 0.15446272 -0.228684887 -0.968357621 0.15447373 -0.196013737 -0.977247797 0.159116849 -0.140244685 -0.983187903 0.171215891 -0.0634560133 -0.982991521 0.183343023 0.0106304151 -0.978079876 0.19415715 0.0752512934 -0.970384788 0.203611479 0.129983574 -0.961700197 0.211657831 0.174165711 -0.954108843 0.217800688 0.205521719 -0.950832871 0.220356361 0.217623358 -0.961948989 0.156117184 -0.224235518 -0.95664767 0.155334944 -0.246366173 -0.957213183 0.156238182 -0.243582742 -0.956226952 0.156665316 -0.247155812 -0.956531832 0.157032121 -0.245739227 -0.950650026 0.158658156 -0.266631051 -0.961910925 0.162053012 -0.220150387 -0.988254824 0.125698679 -0.0869036522 -0.986887082 0.138336325 -0.083168194 -0.956709428 -0.12667287 0.262032546 -0.983176979 -0.0568356584 0.173587832 -0.736596092 -0.534903713 0.413889134 -0.821117981 -0.444857274 0.357585327 -0.453918545 -0.831485997 0.320295164 -0.444047554 -0.839916336 0.312029356 -0.012915191 -0.993131934 0.116284822 0.0410183946 -0.993965486 0.101735459 0.395733189 -0.915579185 -0.0714842636 -0.373001116 -0.876256099 0.305033469 -0.80364246 -0.470085264 0.364936488 -0.980872582 -0.0565198358 0.18626456 -0.987372652 0.140556622 -0.0730690296 -0.964569992 0.15966671 -0.210026838 -0.956768042 0.157308386 -0.244640522 -0.957689635 0.156986745 -0.241217172 -0.962632721 0.157570864 -0.220249102 -0.969991968 0.159445936 -0.183555374 0.0848333413 -0.99262918 0.0865483434 0.40339615 -0.912120913 -0.0728490613 0.422712226 -0.903278058 -0.0735059438 0.667302262 -0.734524292 -0.123214268 0.686270252 -0.717670347 -0.118247259 0.884559482 -0.460987407 -0.071029096 0.888529344 -0.453799445 -0.0676880243 0.992973481 -0.117388114 0.0149565024 0.992782191 -0.119092206 0.0141622173 0.982790899 0.163031658 0.0868488752 0.982993335 0.162065946 0.0863639514 0.921192688 0.363695352 0.138310242 0.922213935 0.361543219 0.137142115 0.836593791 0.518670852 0.176327467 0.837957737 0.51681747 0.175289857 0.720713835 0.66071746 0.209818984 0.721444405 0.66003494 0.209456079 0.533025469 0.811852036 0.238285796 0.285766846 0.926127032 0.246223538 0.525663523 0.815954391 0.240616485 0.71995777 0.661421253 0.210196898 0.835218613 0.520528765 0.17736875 0.920173607 0.36582727 0.139466632 0.982592684 0.163972985 0.0873182574 0.993145989 -0.11582537 0.0156693266 0.883462414 -0.462935895 -0.0720036111 0.661869856 -0.739107847 -0.125091501 0.539570724 0.808120974 0.236228546 0.295522542 0.923598265 0.244198019 0.304169135 0.921257017 0.24241833 0.0675109615 0.970891634 0.229807974 0.0693420763 0.970809066 0.229611485 -0.142386212 0.969944281 0.197317661 -0.139171503 0.970392851 0.197405694 -0.330185935 0.932507505 0.146311318 -0.325432574 0.93410431 0.146774581 -0.504974172 0.859679136 0.0771548417 -0.50275811 0.86093567 0.0776147911 -0.663237615 0.748312487 -0.0120120115 -0.66246609 0.748999902 -0.0117399475 -0.786310502 0.607026608 -0.115041261 -0.786134693 0.607271528 -0.114950144 -0.855236153 0.475404769 -0.206304211 -0.854657216 0.476797181 -0.205488421 -0.88094749 0.384531397 -0.275802692 -0.885753195 0.311890642 -0.343752097 -0.881611966 0.382123947 -0.277022799 -0.85604823 0.47349948 -0.207315389 -0.786540996 0.606706876 -0.1151522 -0.664252979 0.74740588 -0.0123462402 -0.507852952 0.858031152 0.0766023632 -0.336215635 0.93043359 0.145781964 -0.146431633 0.969357343 0.197241272 0.0654361569 0.970975754 0.23005259 -0.880573985 0.385924695 -0.275048335 -0.885573043 0.313631143 -0.34263084 -0.885486807 0.314556611 -0.342004754 -0.875376811 0.251676566 -0.412764272 -0.875420602 0.252175709 -0.412366562 -0.853821775 0.203058928 -0.479328122 -0.853873987 0.203264075 -0.479148129 -0.825618036 0.168070168 -0.538616076 -0.826052115 0.168728921 -0.537743856 -0.795177374 0.145705015 -0.588611071 -0.795924411 0.146592392 -0.587379778 -0.766661868 0.132564521 -0.628216704 -0.767150558 0.13299331 -0.627529124 -0.743152457 0.125722773 -0.657204847 -0.743331683 0.125844502 -0.65697882 -0.689772011 0.122217643 -0.713636756 -0.697387382 0.124188916 -0.705852642 -0.561491326 0.142161397 -0.815179507 -0.371303488 0.184749948 -0.9099457 -0.536617917 0.137083862 -0.832615894 -0.675160497 0.117542217 -0.728245927 -0.742897122 0.125544588 -0.657527507 -0.765944676 0.131912036 -0.629228074 -0.794025525 0.144279362 -0.590514124 -0.824928007 0.16697868 -0.540011022 -0.853707055 0.202635124 -0.479711653 -0.875296931 0.250683587 -0.413537208 -0.573697346 0.14416597 -0.806280055 -0.38740366 0.185094662 -0.903138068 -0.395042794 0.184988765 -0.899844624 -0.236352015 0.240557087 -0.941419148 -0.239162839 0.240154942 -0.940811745 -0.108217324 0.308568841 -0.945026075 -0.117484366 0.303989338 -0.945403568 -0.00854257933 0.396770685 -0.917878014 -0.0183590212 0.390920122 -0.920241493 0.0646984368 0.51005485 -0.857705172 0.0617082197 0.504528605 -0.861186962 0.078165517 0.605933576 -0.791665746 0.0774446371 0.60332943 -0.793722828 0.049922277 0.658214815 -0.751173098 0.0580823935 0.648193536 -0.759257252 0.0360840973 0.653281894 -0.756254392 -0.0299326994 0.664494005 -0.74669388 -0.0654346445 0.744538268 -0.664365167 -0.0220610075 0.751334832 -0.659552335 0.0996945217 0.663100467 -0.741861694 0.123879675 0.619130163 -0.775455781 0.0261602333 0.416453482 -0.908780578 -0.0836559732 0.319035504 -0.944043445 -0.230501807 0.241204614 -0.942703162</float_array>
        <technique_common><accessor source="#vfx_kurp_0580-mesh-normals-array" count="216" stride="3"><param name="X" type="float"/><param name="Y" type="float"/><param name="Z" type="float"/></accessor></technique_common>
      </source>
      <source id="vfx_kurp_0580-mesh-uv0">
        <float_array id="vfx_kurp_0580-mesh-uv0-array" count="432">0 0.757142842 0.5 0.771428585 0 0.771428585 0 0.785714269 0.5 0.785714269 1 0.785714269 1 0.771428585 0.5 0.757142842 0 0.742857099 0 0.800000012 0.5 0.800000012 1 0.800000012 0 0.814285696 0 0.800000012 0.5 0.814285696 0.5 0.800000012 1 0.814285696 1 0.800000012 0 0.828571439 0.5 0.828571439 1 0.828571439 0 0.842857122 0.5 0.842857122 1 0.842857122 0 0.857142866 0.5 0.857142866 1 0.857142866 0 0.871428549 0.5 0.871428549 1 0.871428549 0 0.885714293 0.5 0.885714293 1 0.885714293 0 0.899999976 0.5 0.899999976 1 0.899999976 0 0.914285719 0.5 0.914285719 1 0.914285719 0 0.928571403 0.5 0.928571403 1 0.928571403 0 0.942857146 0.5 0.942857146 1 0.942857146 0 0.95714283 0.5 0.95714283 1 0.95714283 0 0.971428573 0.5 0.971428573 1 0.971428573 0 0.985714257 0.5 0.985714257 1 0.985714257 0 1 0.5 1 1 1 0.5 0.114285707 0 0.100000024 0.5 0.100000024 0 0.0857142806 0.5 0.0857142806 0 0.0714285374 0.5 0.0714285374 0 0.0571428537 0.5 0.0571428537 0 0.0428571105 0.5 0.0428571105 0 0.0285714269 0.5 0.0285714269 0 0.0142856836 0.5 0.0142856836 0 0 0.5 0 1 0.128571451 1 0.114285707 1 0.100000024 1 0.0857142806 1 0.0714285374 1 0.0571428537 1 0.0428571105 1 0.0285714269 1 0.0142856836 1 0 0.5 0.128571451 1 0.142857134 0.5 0.142857134 1 0.157142878 0.5 0.157142878 1 0.171428561 0.5 0.171428561 1 0.185714304 0.5 0.185714304 1 0.199999988 0.5 0.199999988 1 0.214285731 0.5 0.214285731 1 0.228571415 0.5 0.228571415 1 0.242857158 0.5 0.242857158 1 0.257142842 0 0.228571415 0 0.214285731 0 0.199999988 0 0.185714304 0 0.171428561 0 0.157142878 0 0.142857134 0 0.128571451 0 0.114285707 0 0.242857158 0.5 0.257142842 0 0.257142842 0.5 0.271428585 0 0.271428585 0.5 0.285714269 0 0.285714269 0.5 0.300000012 0 0.300000012 0.5 0.314285696 0 0.314285696 0.5 0.328571439 0 0.328571439 0.5 0.342857122 0 0.342857122 0.5 0.357142866 0 0.357142866 0.5 0.371428549 1 0.385714293 1 0.371428549 1 0.357142866 1 0.342857122 1 0.328571439 1 0.314285696 1 0.300000012 1 0.285714269 1 0.271428585 0 0.371428549 0.5 0.385714293 0 0.385714293 0.5 0.399999976 0 0.399999976 0.5 0.414285719 0 0.414285719 0.5 0.428571403 0 0.428571403 0.5 0.442857146 0 0.442857146 0.5 0.45714283 0 0.45714283 0.5 0.471428573 0 0.471428573 0.5 0.485714257 0 0.485714257 0.5 0.5 1 0.514285684 1 0.5 1 0.485714257 1 0.471428573 1 0.45714283 1 0.442857146 1 0.428571403 1 0.414285719 1 0.399999976 0 0.5 0.5 0.514285684 0 0.514285684 0.5 0.528571427 0 0.528571427 0.5 0.54285717 0 0.54285717 0.5 0.557142854 0 0.557142854 0.5 0.571428537 0 0.571428537 0.5 0.585714281 0 0.585714281 0.5 0.600000024 0 0.600000024 0.5 0.614285707 0 0.614285707 0.5 0.628571391 1 0.642857134 1 0.628571391 1 0.614285707 1 0.600000024 1 0.585714281 1 0.571428537 1 0.557142854 1 0.54285717 1 0.528571427 0 0.628571391 0.5 0.642857134 0 0.642857134 0.5 0.657142878 0 0.657142878 0.5 0.671428561 0 0.671428561 0.5 0.685714245 0 0.685714245 0.5 0.699999988 0 0.699999988 0.5 0.714285731 0 0.714285731 0.5 0.728571415 0 0.728571415 0.5 0.742857099 1 0.757142842 1 0.742857099 1 0.728571415 1 0.714285731 1 0.699999988 1 0.685714245 1 0.671428561 1 0.657142878</float_array>
        <technique_common><accessor source="#vfx_kurp_0580-mesh-uv0-array" count="216" stride="2"><param name="S" type="float"/><param name="T" type="float"/></accessor></technique_common>
      </source>
      <source id="vfx_kurp_0580-mesh-colors">
        <float_array id="vfx_kurp_0580-mesh-colors-array" count="864">0 0 0 1 0 0 0 1 0 0 0 1 0 0 0 1 0 0 0 1 0 0 0 1 0 0 0 1 0 0 0 1 0 0 0 1 0 0 0 1 0 0 0 1 0 0 0 1 0 0 0 1 0 0 0 1 0 0 0 1 0 0 0 1 0 0 0 1 0 0 0 1 0 0 0 1 0 0 0 1 0 0 0 1 0 0 0 1 0 0 0 1 0 0 0 1 0 0 0 1 0 0 0 1 0 0 0 1 0 0 0 1 0 0 0 1 0 0 0 1 0 0 0 1 0 0 0 1 0 0 0 1 0 0 0 1 0 0 0 1 0 0 0 1 0 0 0 1 0 0 0 1 0 0 0 1 0 0 0 1 0 0 0 1 0 0 0 1 0 0 0 1 0 0 0 1 0 0 0 1 0 0 0 1 0 0 0 1 0 0 0 1 0 0 0 1 0 0 0 1 0 0 0 1 0 0 0 1 0 0 0 1 0 0 0 1 0 0 0 0 0 0 0 0 0 0 0 0 0 0 0 1 0 0 0 1 0 0 0 1 0 0 0 1 0 0 0 1 0 0 0 1 0 0 0 1 0 0 0 1 0 0 0 1 0 0 0 1 0 0 0 1 0 0 0 1 0 0 0 1 0 0 0 1 0 0 0 1 0 0 0 0 0 0 0 0 0 0 0 1 0 0 0 1 0 0 0 1 0 0 0 1 0 0 0 1 0 0 0 1 0 0 0 1 0 0 0 1 0 0 0 1 0 0 0 0 0 0 0 1 0 0 0 1 0 0 0 1 0 0 0 1 0 0 0 1 0 0 0 1 0 0 0 1 0 0 0 1 0 0 0 1 0 0 0 1 0 0 0 1 0 0 0 1 0 0 0 1 0 0 0 1 0 0 0 1 0 0 0 1 0 0 0 1 0 0 0 1 0 0 0 1 0 0 0 1 0 0 0 1 0 0 0 1 0 0 0 1 0 0 0 1 0 0 0 1 0 0 0 1 0 0 0 1 0 0 0 1 0 0 0 1 0 0 0 1 0 0 0 1 0 0 0 1 0 0 0 1 0 0 0 1 0 0 0 1 0 0 0 1 0 0 0 1 0 0 0 1 0 0 0 1 0 0 0 1 0 0 0 1 0 0 0 1 0 0 0 1 0 0 0 1 0 0 0 1 0 0 0 1 0 0 0 1 0 0 0 1 0 0 0 1 0 0 0 1 0 0 0 1 0 0 0 1 0 0 0 1 0 0 0 1 0 0 0 1 0 0 0 1 0 0 0 1 0 0 0 1 0 0 0 1 0 0 0 1 0 0 0 1 0 0 0 1 0 0 0 1 0 0 0 1 0 0 0 1 0 0 0 1 0 0 0 1 0 0 0 1 0 0 0 1 0 0 0 1 0 0 0 1 0 0 0 1 0 0 0 1 0 0 0 1 0 0 0 1 0 0 0 1 0 0 0 1 0 0 0 1 0 0 0 1 0 0 0 1 0 0 0 1 0 0 0 1 0 0 0 1 0 0 0 1 0 0 0 1 0 0 0 1 0 0 0 1 0 0 0 1 0 0 0 1 0 0 0 1 0 0 0 1 0 0 0 1 0 0 0 1 0 0 0 1 0 0 0 1 0 0 0 1 0 0 0 1 0 0 0 1 0 0 0 1 0 0 0 1 0 0 0 1 0 0 0 1 0 0 0 1 0 0 0 1 0 0 0 1 0 0 0 1 0 0 0 1 0 0 0 1 0 0 0 1 0 0 0 1 0 0 0 1 0 0 0 1 0 0 0 1 0 0 0 1 0 0 0 1 0 0 0 1 0 0 0 1 0 0 0 1 0 0 0 1 0 0 0 1 0 0 0 1 0 0 0 1 0 0 0 1 0 0 0 1 0 0 0 1 0 0 0 1 0 0 0 1 0 0 0 1 0 0 0 1 0 0 0 1 0 0 0 1 0 0 0 1</float_array>
        <technique_common><accessor source="#vfx_kurp_0580-mesh-colors-array" count="216" stride="4"><param name="R" type="float"/><param name="G" type="float"/><param name="B" type="float"/><param name="A" type="float"/></accessor></technique_common>
      </source>
      <vertices id="vfx_kurp_0580-mesh-vertices"><input semantic="POSITION" source="#vfx_kurp_0580-mesh-positions"/></vertices>
      <triangles material="PreviewMaterial" count="280">
        <input semantic="VERTEX" source="#vfx_kurp_0580-mesh-vertices" offset="0"/>
        <input semantic="NORMAL" source="#vfx_kurp_0580-mesh-normals" offset="1"/>
        <input semantic="TEXCOORD" source="#vfx_kurp_0580-mesh-uv0" offset="2" set="0"/>
        <input semantic="COLOR" source="#vfx_kurp_0580-mesh-colors" offset="3" set="0"/>
        <p>0 0 0 0 1 1 1 1 2 2 2 2 3 3 3 3 2 2 2 2 4 4 4 4 1 1 1 1 4 4 4 4 2 2 2 2 5 5 5 5 4 4 4 4 6 6 6 6 1 1 1 1 6 6 6 6 4 4 4 4 6 6 6 6 1 1 1 1 7 7 7 7 0 0 0 0 7 7 7 7 1 1 1 1 7 7 7 7 0 0 0 0 8 8 8 8 9 9 9 9 3 3 3 3 10 10 10 10 4 4 4 4 10 10 10 10 3 3 3 3 10 10 10 10 4 4 4 4 11 11 11 11 5 5 5 5 11 11 11 11 4 4 4 4 12 12 12 12 13 13 13 13 14 14 14 14 15 15 15 15 14 14 14 14 13 13 13 13 14 14 14 14 15 15 15 15 16 16 16 16 17 17 17 17 16 16 16 16 15 15 15 15 18 18 18 18 12 12 12 12 19 19 19 19 14 14 14 14 19 19 19 19 12 12 12 12 19 19 19 19 14 14 14 14 20 20 20 20 16 16 16 16 20 20 20 20 14 14 14 14 21 21 21 21 18 18 18 18 22 22 22 22 19 19 19 19 22 22 22 22 18 18 18 18 22 22 22 22 19 19 19 19 23 23 23 23 20 20 20 20 23 23 23 23 19 19 19 19 24 24 24 24 21 21 21 21 25 25 25 25 22 22 22 22 25 25 25 25 21 21 21 21 25 25 25 25 22 22 22 22 26 26 26 26 23 23 23 23 26 26 26 26 22 22 22 22 27 27 27 27 24 24 24 24 28 28 28 28 25 25 25 25 28 28 28 28 24 24 24 24 28 28 28 28 25 25 25 25 29 29 29 29 26 26 26 26 29 29 29 29 25 25 25 25 30 30 30 30 27 27 27 27 31 31 31 31 28 28 28 28 31 31 31 31 27 27 27 27 31 31 31 31 28 28 28 28 32 32 32 32 29 29 29 29 32 32 32 32 28 28 28 28 33 33 33 33 30 30 30 30 34 34 34 34 31 31 31 31 34 34 34 34 30 30 30 30 34 34 34 34 31 31 31 31 35 35 35 35 32 32 32 32 35 35 35 35 31 31 31 31 36 36 36 36 33 33 33 33 37 37 37 37 34 34 34 34 37 37 37 37 33 33 33 33 37 37 37 37 34 34 34 34 38 38 38 38 35 35 35 35 38 38 38 38 34 34 34 34 39 39 39 39 36 36 36 36 40 40 40 40 37 37 37 37 40 40 40 40 36 36 36 36 40 40 40 40 37 37 37 37 41 41 41 41 38 38 38 38 41 41 41 41 37 37 37 37 42 42 42 42 39 39 39 39 43 43 43 43 40 40 40 40 43 43 43 43 39 39 39 39 43 43 43 43 40 40 40 40 44 44 44 44 41 41 41 41 44 44 44 44 40 40 40 40 45 45 45 45 42 42 42 42 46 46 46 46 43 43 43 43 46 46 46 46 42 42 42 42 46 46 46 46 43 43 43 43 47 47 47 47 44 44 44 44 47 47 47 47 43 43 43 43 48 48 48 48 45 45 45 45 49 49 49 49 46 46 46 46 49 49 49 49 45 45 45 45 49 49 49 49 46 46 46 46 50 50 50 50 47 47 47 47 50 50 50 50 46 46 46 46 51 51 51 51 48 48 48 48 52 52 52 52 49 49 49 49 52 52 52 52 48 48 48 48 52 52 52 52 49 49 49 49 53 53 53 53 50 50 50 50 53 53 53 53 49 49 49 49 54 54 54 54 51 51 51 51 55 55 55 55 52 52 52 52 55 55 55 55 51 51 51 51 55 55 55 55 52 52 52 52 56 56 56 56 53 53 53 53 56 56 56 56 52 52 52 52 57 57 57 57 58 58 58 58 59 59 59 59 60 60 60 60 59 59 59 59 58 58 58 58 59 59 59 59 60 60 60 60 61 61 61 61 62 62 62 62 61 61 61 61 60 60 60 60 61 61 61 61 62 62 62 62 63 63 63 63 64 64 64 64 63 63 63 63 62 62 62 62 63 63 63 63 64 64 64 64 65 65 65 65 66 66 66 66 65 65 65 65 64 64 64 64 65 65 65 65 66 66 66 66 67 67 67 67 68 68 68 68 67 67 67 67 66 66 66 66 67 67 67 67 68 68 68 68 69 69 69 69 70 70 70 70 69 69 69 69 68 68 68 68 69 69 69 69 70 70 70 70 71 71 71 71 72 72 72 72 71 71 71 71 70 70 70 70 71 71 71 71 72 72 72 72 73 73 73 73 74 74 74 74 57 57 57 57 75 75 75 75 59 59 59 59 75 75 75 75 57 57 57 57 75 75 75 75 59 59 59 59 76 76 76 76 61 61 61 61 76 76 76 76 59 59 59 59 76 76 76 76 61 61 61 61 77 77 77 77 63 63 63 63 77 77 77 77 61 61 61 61 77 77 77 77 63 63 63 63 78 78 78 78 65 65 65 65 78 78 78 78 63 63 63 63 78 78 78 78 65 65 65 65 79 79 79 79 67 67 67 67 79 79 79 79 65 65 65 65 79 79 79 79 67 67 67 67 80 80 80 80 69 69 69 69 80 80 80 80 67 67 67 67 80 80 80 80 69 69 69 69 81 81 81 81 71 71 71 71 81 81 81 81 69 69 69 69 81 81 81 81 71 71 71 71 82 82 82 82 73 73 73 73 82 82 82 82 71 71 71 71 82 82 82 82 73 73 73 73 83 83 83 83 57 57 57 57 74 74 74 74 84 84 84 84 85 85 85 85 84 84 84 84 74 74 74 74 84 84 84 84 85 85 85 85 86 86 86 86 87 87 87 87 86 86 86 86 85 85 85 85 86 86 86 86 87 87 87 87 88 88 88 88 89 89 89 89 88 88 88 88 87 87 87 87 88 88 88 88 89 89 89 89 90 90 90 90 91 91 91 91 90 90 90 90 89 89 89 89 90 90 90 90 91 91 91 91 92 92 92 92 93 93 93 93 92 92 92 92 91 91 91 91 92 92 92 92 93 93 93 93 94 94 94 94 95 95 95 95 94 94 94 94 93 93 93 93 94 94 94 94 95 95 95 95 96 96 96 96 97 97 97 97 96 96 96 96 95 95 95 95 96 96 96 96 97 97 97 97 98 98 98 98 99 99 99 99 98 98 98 98 97 97 97 97 98 98 98 98 99 99 99 99 100 100 100 100 101 101 101 101 100 100 100 100 99 99 99 99 100 100 100 100 102 102 102 102 98 98 98 98 103 103 103 103 98 98 98 98 102 102 102 102 98 98 98 98 103 103 103 103 96 96 96 96 104 104 104 104 96 96 96 96 103 103 103 103 96 96 96 96 104 104 104 104 94 94 94 94 105 105 105 105 94 94 94 94 104 104 104 104 94 94 94 94 105 105 105 105 92 92 92 92 106 106 106 106 92 92 92 92 105 105 105 105 92 92 92 92 106 106 106 106 90 90 90 90 107 107 107 107 90 90 90 90 106 106 106 106 90 90 90 90 107 107 107 107 88 88 88 88 108 108 108 108 88 88 88 88 107 107 107 107 88 88 88 88 108 108 108 108 86 86 86 86 109 109 109 109 86 86 86 86 108 108 108 108 86 86 86 86 109 109 109 109 84 84 84 84 110 110 110 110 84 84 84 84 109 109 109 109 84 84 84 84 110 110 110 110 57 57 57 57 58 58 58 58 57 57 57 57 110 110 110 110 102 102 102 102 100 100 100 100 111 111 111 111 112 112 112 112 111 111 111 111 100 100 100 100 111 111 111 111 112 112 112 112 113 113 113 113 114 114 114 114 113 113 113 113 112 112 112 112 113 113 113 113 114 114 114 114 115 115 115 115 116 116 116 116 115 115 115 115 114 114 114 114 115 115 115 115 116 116 116 116 117 117 117 117 118 118 118 118 117 117 117 117 116 116 116 116 117 117 117 117 118 118 118 118 119 119 119 119 120 120 120 120 119 119 119 119 118 118 118 118 119 119 119 119 120 120 120 120 121 121 121 121 122 122 122 122 121 121 121 121 120 120 120 120 121 121 121 121 122 122 122 122 123 123 123 123 124 124 124 124 123 123 123 123 122 122 122 122 123 123 123 123 124 124 124 124 125 125 125 125 126 126 126 126 125 125 125 125 124 124 124 124 125 125 125 125 126 126 126 126 127 127 127 127 128 128 128 128 127 127 127 127 126 126 126 126 129 129 129 129 128 128 128 128 130 130 130 130 126 126 126 126 130 130 130 130 128 128 128 128 130 130 130 130 126 126 126 126 131 131 131 131 124 124 124 124 131 131 131 131 126 126 126 126 131 131 131 131 124 124 124 124 132 132 132 132 122 122 122 122 132 132 132 132 124 124 124 124 132 132 132 132 122 122 122 122 133 133 133 133 120 120 120 120 133 133 133 133 122 122 122 122 133 133 133 133 120 120 120 120 134 134 134 134 118 118 118 118 134 134 134 134 120 120 120 120 134 134 134 134 118 118 118 118 135 135 135 135 116 116 116 116 135 135 135 135 118 118 118 118 135 135 135 135 116 116 116 116 136 136 136 136 114 114 114 114 136 136 136 136 116 116 116 116 136 136 136 136 114 114 114 114 137 137 137 137 112 112 112 112 137 137 137 137 114 114 114 114 137 137 137 137 112 112 112 112 101 101 101 101 100 100 100 100 101 101 101 101 112 112 112 112 127 127 127 127 128 128 128 128 138 138 138 138 139 139 139 139 138 138 138 138 128 128 128 128 138 138 138 138 139 139 139 139 140 140 140 140 141 141 141 141 140 140 140 140 139 139 139 139 140 140 140 140 141 141 141 141 142 142 142 142 143 143 143 143 142 142 142 142 141 141 141 141 142 142 142 142 143 143 143 143 144 144 144 144 145 145 145 145 144 144 144 144 143 143 143 143 144 144 144 144 145 145 145 145 146 146 146 146 147 147 147 147 146 146 146 146 145 145 145 145 146 146 146 146 147 147 147 147 148 148 148 148 149 149 149 149 148 148 148 148 147 147 147 147 148 148 148 148 149 149 149 149 150 150 150 150 151 151 151 151 150 150 150 150 149 149 149 149 150 150 150 150 151 151 151 151 152 152 152 152 153 153 153 153 152 152 152 152 151 151 151 151 152 152 152 152 153 153 153 153 154 154 154 154 155 155 155 155 154 154 154 154 153 153 153 153 156 156 156 156 155 155 155 155 157 157 157 157 153 153 153 153 157 157 157 157 155 155 155 155 157 157 157 157 153 153 153 153 158 158 158 158 151 151 151 151 158 158 158 158 153 153 153 153 158 158 158 158 151 151 151 151 159 159 159 159 149 149 149 149 159 159 159 159 151 151 151 151 159 159 159 159 149 149 149 149 160 160 160 160 147 147 147 147 160 160 160 160 149 149 149 149 160 160 160 160 147 147 147 147 161 161 161 161 145 145 145 145 161 161 161 161 147 147 147 147 161 161 161 161 145 145 145 145 162 162 162 162 143 143 143 143 162 162 162 162 145 145 145 145 162 162 162 162 143 143 143 143 163 163 163 163 141 141 141 141 163 163 163 163 143 143 143 143 163 163 163 163 141 141 141 141 164 164 164 164 139 139 139 139 164 164 164 164 141 141 141 141 164 164 164 164 139 139 139 139 129 129 129 129 128 128 128 128 129 129 129 129 139 139 139 139 154 154 154 154 155 155 155 155 165 165 165 165 166 166 166 166 165 165 165 165 155 155 155 155 165 165 165 165 166 166 166 166 167 167 167 167 168 168 168 168 167 167 167 167 166 166 166 166 167 167 167 167 168 168 168 168 169 169 169 169 170 170 170 170 169 169 169 169 168 168 168 168 169 169 169 169 170 170 170 170 171 171 171 171 172 172 172 172 171 171 171 171 170 170 170 170 171 171 171 171 172 172 172 172 173 173 173 173 174 174 174 174 173 173 173 173 172 172 172 172 173 173 173 173 174 174 174 174 175 175 175 175 176 176 176 176 175 175 175 175 174 174 174 174 175 175 175 175 176 176 176 176 177 177 177 177 178 178 178 178 177 177 177 177 176 176 176 176 177 177 177 177 178 178 178 178 179 179 179 179 180 180 180 180 179 179 179 179 178 178 178 178 179 179 179 179 180 180 180 180 181 181 181 181 182 182 182 182 181 181 181 181 180 180 180 180 183 183 183 183 182 182 182 182 184 184 184 184 180 180 180 180 184 184 184 184 182 182 182 182 184 184 184 184 180 180 180 180 185 185 185 185 178 178 178 178 185 185 185 185 180 180 180 180 185 185 185 185 178 178 178 178 186 186 186 186 176 176 176 176 186 186 186 186 178 178 178 178 186 186 186 186 176 176 176 176 187 187 187 187 174 174 174 174 187 187 187 187 176 176 176 176 187 187 187 187 174 174 174 174 188 188 188 188 172 172 172 172 188 188 188 188 174 174 174 174 188 188 188 188 172 172 172 172 189 189 189 189 170 170 170 170 189 189 189 189 172 172 172 172 189 189 189 189 170 170 170 170 190 190 190 190 168 168 168 168 190 190 190 190 170 170 170 170 190 190 190 190 168 168 168 168 191 191 191 191 166 166 166 166 191 191 191 191 168 168 168 168 191 191 191 191 166 166 166 166 156 156 156 156 155 155 155 155 156 156 156 156 166 166 166 166 181 181 181 181 182 182 182 182 192 192 192 192 193 193 193 193 192 192 192 192 182 182 182 182 192 192 192 192 193 193 193 193 194 194 194 194 195 195 195 195 194 194 194 194 193 193 193 193 194 194 194 194 195 195 195 195 196 196 196 196 197 197 197 197 196 196 196 196 195 195 195 195 196 196 196 196 197 197 197 197 198 198 198 198 199 199 199 199 198 198 198 198 197 197 197 197 198 198 198 198 199 199 199 199 200 200 200 200 201 201 201 201 200 200 200 200 199 199 199 199 200 200 200 200 201 201 201 201 202 202 202 202 203 203 203 203 202 202 202 202 201 201 201 201 202 202 202 202 203 203 203 203 204 204 204 204 205 205 205 205 204 204 204 204 203 203 203 203 204 204 204 204 205 205 205 205 206 206 206 206 207 207 207 207 206 206 206 206 205 205 205 205 206 206 206 206 207 207 207 207 8 8 8 8 7 7 7 7 8 8 8 8 207 207 207 207 6 6 6 6 7 7 7 7 208 208 208 208 207 207 207 207 208 208 208 208 7 7 7 7 208 208 208 208 207 207 207 207 209 209 209 209 205 205 205 205 209 209 209 209 207 207 207 207 209 209 209 209 205 205 205 205 210 210 210 210 203 203 203 203 210 210 210 210 205 205 205 205 210 210 210 210 203 203 203 203 211 211 211 211 201 201 201 201 211 211 211 211 203 203 203 203 211 211 211 211 201 201 201 201 212 212 212 212 199 199 199 199 212 212 212 212 201 201 201 201 212 212 212 212 199 199 199 199 213 213 213 213 197 197 197 197 213 213 213 213 199 199 199 199 213 213 213 213 197 197 197 197 214 214 214 214 195 195 195 195 214 214 214 214 197 197 197 197 214 214 214 214 195 195 195 195 215 215 215 215 193 193 193 193 215 215 215 215 195 195 195 195 215 215 215 215 193 193 193 193 183 183 183 183 182 182 182 182 183 183 183 183 193 193 193 193</p>
      </triangles>
    </mesh></geometry>
  </library_geometries>
  <library_visual_scenes>
    <visual_scene id="Scene" name="Scene">
      <node id="vfx_kurp_0580" name="vfx_kurp_0580" type="NODE">
        <instance_geometry url="#vfx_kurp_0580-mesh"><bind_material><technique_common><instance_material symbol="PreviewMaterial" target="#PreviewMaterial"><bind_vertex_input semantic="UVSET0" input_semantic="TEXCOORD" input_set="0"/></instance_material></technique_common></bind_material></instance_geometry>
      </node>
    </visual_scene>
  </library_visual_scenes>
  <scene><instance_visual_scene url="#Scene"/></scene>
</COLLADA>
