<?xml version="1.0" encoding="utf-8"?>
<COLLADA xmlns="http://www.collada.org/2005/11/COLLADASchema" version="1.4.1">
  <asset>
    <contributor><authoring_tool>Morrobroom Kurpulio VFX preview converter</authoring_tool></contributor>
    <unit name="unit" meter="1"/>
    <up_axis>Z_UP</up_axis>
  </asset>
  <library_images>
    <image id="VFXTexture" name="darkmap_newgen-1.dds">
      <init_from>../../../Textures/Kurp/darkmap_newgen-1.dds</init_from>
    </image>
  </library_images>
  <library_effects>
    <effect id="PreviewEffect">
      <profile_COMMON>
        <newparam sid="VFXTexture-surface">
          <surface type="2D"><init_from>VFXTexture</init_from></surface>
        </newparam>
        <newparam sid="VFXTexture-sampler">
          <sampler2D><source>VFXTexture-surface</source></sampler2D>
        </newparam>
        <technique sid="common"><phong>
          <emission><color>0.08 0.08 0.08 1</color></emission>
          <ambient><color>0.2 0.2 0.2 1</color></ambient>
          <diffuse><texture texture="VFXTexture-sampler" texcoord="UVSET0"/></diffuse>
          <specular><color>0.15 0.15 0.15 1</color></specular>
          <shininess><float>8</float></shininess>
          <transparent opaque="A_ONE"><texture texture="VFXTexture-sampler" texcoord="UVSET0"/></transparent>
          <transparency><float>1</float></transparency>
        </phong></technique>
      </profile_COMMON>
      <extra><technique profile="GOOGLEEARTH"><double_sided>1</double_sided></technique></extra>
    </effect>
  </library_effects>
  <library_materials><material id="PreviewMaterial" name="PreviewMaterial"><instance_effect url="#PreviewEffect"/></material></library_materials>
  <library_geometries>
    <geometry id="vfx_kurp_0518-mesh" name="vfx_kurp_0518"><mesh>
      <source id="vfx_kurp_0518-mesh-positions">
        <float_array id="vfx_kurp_0518-mesh-positions-array" count="162">-0.198720257 -0.149736234 -0.0172828836 0.362970714 -0.587019967 -0.0565937046 -0.491264152 0.649992256 -2.19927603 -1.06747155 0.320221627 -2.62176639 -0.491264152 0.649992256 -2.19927603 0.362970714 -0.587019967 -0.0565937046 -0.491264152 0.649992256 -2.19927603 -1.06747155 0.320221627 -2.62176639 0.215103322 -0.55311343 -4.35279504 0.188526795 0.1236128 -4.52898267 0.215103322 -0.55311343 -4.35279504 -1.06747155 0.320221627 -2.62176639 0.215103322 -0.55311343 -4.35279504 0.188526795 0.1236128 -4.52898267 -0.490656927 -0.13394716 -6.58266168 0.0929697932 -0.463619275 -6.31562201 -0.490656927 -0.13394716 -6.58266168 0.188526795 0.1236128 -4.52898267 -0.44863864 0.503876355 -0.126733676 -0.198720257 -0.149736234 -0.0172828836 0.171470216 0.5608561 -1.86504096 -0.491264152 0.649992256 -2.19927603 0.171470216 0.5608561 -1.86504096 -0.198720257 -0.149736234 -0.0172828836 0.171470216 0.5608561 -1.86504096 -0.491264152 0.649992256 -2.19927603 -0.145354421 -1.08180954 -4.10516985 0.215103322 -0.55311343 -4.35279504 -0.145354421 -1.08180954 -4.10516985 -0.491264152 0.649992256 -2.19927603 -0.145354421 -1.08180954 -4.10516985 0.215103322 -0.55311343 -4.35279504 -0.8092207 0.504520962 -6.61378007 -0.490656927 -0.13394716 -6.58266168 -0.8092207 0.504520962 -6.61378007 0.215103322 -0.55311343 -4.35279504 0.0210047563 -0.713832611 -8.5595036 0.0210047563 -0.713832611 -8.5595036 -0.51016641 -1.07335603 -8.31421095 0.0210047563 -0.713832611 -8.5595036 0.0929697932 -0.463619275 -6.31562201 -0.293791189 0.284205068 -10.4413736 0.0210047563 -0.713832611 -8.5595036 -0.51016641 -1.07335603 -8.31421095 -0.0745027882 -0.395494726 -10.5883677 0.0210047563 -0.713832611 -8.5595036 -0.293791189 0.284205068 -10.4413736 -0.258651124 -1.06356269 -10.9322205 0.0210047563 -0.713832611 -8.5595036 -0.0745027882 -0.395494726 -10.5883677 0.680677985 -0.757366296 -8.7708957 0.0210047563 -0.713832611 -8.5595036 -0.258651124 -1.06356269 -10.9322205 -0.8092207 0.504520962 -6.61378007</float_array>
        <technique_common><accessor source="#vfx_kurp_0518-mesh-positions-array" count="54" stride="3"><param name="X" type="float"/><param name="Y" type="float"/><param name="Z" type="float"/></accessor></technique_common>
      </source>
      <source id="vfx_kurp_0518-mesh-normals">
        <float_array id="vfx_kurp_0518-mesh-normals-array" count="162">0.610645001 0.766479059 0.199054098 0.61064503 0.766479039 0.199054088 0.610645001 0.766479059 0.199054098 0.680451333 -0.48366157 -0.550506557 0.680451333 -0.48366157 -0.550506557 0.680451333 -0.48366157 -0.550506557 0.111666348 -0.85149637 0.512332468 0.111666348 -0.85149637 0.512332468 0.111666355 -0.851496369 0.512332469 -0.830916868 -0.170520645 -0.529622382 -0.830916868 -0.170520645 -0.529622382 -0.830916869 -0.170520642 -0.529622382 -0.950142931 0.0430888258 0.308823191 -0.950142937 0.0430887796 0.308823178 -0.950142929 0.0430887797 0.308823206 0.553222175 0.804604001 -0.215772163 0.544500196 0.819617746 -0.178174875 0.56686983 0.773146014 -0.284435998 0.865328155 0.384674102 0.321298956 0.865328163 0.384674105 0.32129893 0.865328155 0.384674102 0.321298956 0.0505140584 -0.935517044 -0.349651527 0.0505140573 -0.935517034 -0.349651553 0.0505140573 -0.935517034 -0.349651553 -0.388771232 -0.715902258 0.579949038 -0.388771203 -0.71590229 0.579949018 -0.388771203 -0.71590229 0.579949018 -0.818971355 0.342838042 -0.460160838 -0.818971355 0.342838042 -0.460160838 -0.818971344 0.342838037 -0.460160862 -0.55150379 0.631357643 0.545189047 -0.55150379 0.631357643 0.545189047 -0.551503767 0.631357658 0.545189052 0.894625561 0.443881489 -0.0511305054 0.894630721 0.443893672 -0.050934087 0.880908172 0.429878794 -0.198002564 0.888522865 0.44813044 0.0985201809 0.526768995 0.842747071 -0.110868389 0.581580568 -0.81032233 0.0717060981 0.581580568 -0.81032233 0.0717060981 0.581580568 -0.81032233 0.0717060981 0.325474784 -0.811726756 -0.484939006 0.325474791 -0.811726753 -0.484939005 0.325474784 -0.811726756 -0.484939006 -0.951897251 -0.306399998 -0.00326555102 -0.951897253 -0.306399995 -0.0032655492 -0.951897251 -0.306399998 -0.00326554916 -0.970782169 0.22583057 0.0811328217 -0.970782162 0.225830598 0.0811328246 -0.970782169 0.22583057 0.0811328217 0.0311873763 -0.955280324 0.294052463 0.0736440431 -0.906179491 0.41643161 -0.0178752887 -0.988846841 0.147859387 0.127189048 -0.815353238 0.564820364</float_array>
        <technique_common><accessor source="#vfx_kurp_0518-mesh-normals-array" count="54" stride="3"><param name="X" type="float"/><param name="Y" type="float"/><param name="Z" type="float"/></accessor></technique_common>
      </source>
      <source id="vfx_kurp_0518-mesh-uv0">
        <float_array id="vfx_kurp_0518-mesh-uv0-array" count="108">0.5 1 1 1 0.5 0.800000012 1 0.800000012 0.5 0.800000012 1 1 0.5 0.800000012 1 0.800000012 0.5 0.600000024 1 0.600000024 0.5 0.600000024 1 0.800000012 0.5 0.600000024 1 0.600000024 0.5 0.399999976 1 0.399999976 0.5 0.399999976 1 0.600000024 0 1 0.5 1 0 0.800000012 0.5 0.800000012 0 0.800000012 0.5 1 0 0.800000012 0.5 0.800000012 0 0.600000024 0.5 0.600000024 0 0.600000024 0.5 0.800000012 0 0.600000024 0.5 0.600000024 0 0.399999976 0.5 0.399999976 0 0.399999976 0.5 0.600000024 0.5 0.199999988 0.5 0.199999988 1 0.199999988 0.5 0.199999988 1 0.399999976 1 0 0.5 0.199999988 1 0.199999988 0.5 0 0.5 0.199999988 1 0 0 0 0.5 0.199999988 0.5 0 0 0.199999988 0.5 0.199999988 0 0 0 0.399999976</float_array>
        <technique_common><accessor source="#vfx_kurp_0518-mesh-uv0-array" count="54" stride="2"><param name="S" type="float"/><param name="T" type="float"/></accessor></technique_common>
      </source>
      <vertices id="vfx_kurp_0518-mesh-vertices"><input semantic="POSITION" source="#vfx_kurp_0518-mesh-positions"/></vertices>
      <triangles material="PreviewMaterial" count="20">
        <input semantic="VERTEX" source="#vfx_kurp_0518-mesh-vertices" offset="0"/>
        <input semantic="NORMAL" source="#vfx_kurp_0518-mesh-normals" offset="1"/>
        <input semantic="TEXCOORD" source="#vfx_kurp_0518-mesh-uv0" offset="2" set="0"/>
        <p>0 0 0 1 1 1 2 2 2 3 3 3 4 4 4 5 5 5 6 6 6 7 7 7 8 8 8 9 9 9 10 10 10 11 11 11 12 12 12 13 13 13 14 14 14 15 15 15 16 16 16 17 17 17 18 18 18 19 19 19 20 20 20 21 21 21 22 22 22 23 23 23 24 24 24 25 25 25 26 26 26 27 27 27 28 28 28 29 29 29 30 30 30 31 31 31 32 32 32 33 33 33 34 34 34 35 35 35 34 34 34 33 33 33 36 36 36 15 15 15 37 37 37 16 16 16 38 38 38 39 39 39 40 40 40 41 41 41 42 42 42 43 43 43 44 44 44 45 45 45 46 46 46 47 47 47 48 48 48 49 49 49 50 50 50 51 51 51 52 52 52 51 51 51 50 50 50 53 53 53</p>
      </triangles>
    </mesh></geometry>
  </library_geometries>
  <library_visual_scenes>
    <visual_scene id="Scene" name="Scene">
      <node id="vfx_kurp_0518" name="vfx_kurp_0518" type="NODE">
        <instance_geometry url="#vfx_kurp_0518-mesh"><bind_material><technique_common><instance_material symbol="PreviewMaterial" target="#PreviewMaterial"><bind_vertex_input semantic="UVSET0" input_semantic="TEXCOORD" input_set="0"/></instance_material></technique_common></bind_material></instance_geometry>
      </node>
    </visual_scene>
  </library_visual_scenes>
  <scene><instance_visual_scene url="#Scene"/></scene>
</COLLADA>
