<?xml version="1.0" encoding="utf-8"?>
<COLLADA xmlns="http://www.collada.org/2005/11/COLLADASchema" version="1.4.1">
  <asset>
    <contributor><authoring_tool>Morrobroom Kurpulio VFX preview converter</authoring_tool></contributor>
    <unit name="unit" meter="1"/>
    <up_axis>Z_UP</up_axis>
  </asset>
  <library_images>
    <image id="VFXTexture" name="darkmap_newgen-1.dds">
      <init_from>../../../Textures/Kurp/darkmap_newgen-1.dds</init_from>
    </image>
  </library_images>
  <library_effects>
    <effect id="PreviewEffect">
      <profile_COMMON>
        <newparam sid="VFXTexture-surface">
          <surface type="2D"><init_from>VFXTexture</init_from></surface>
        </newparam>
        <newparam sid="VFXTexture-sampler">
          <sampler2D><source>VFXTexture-surface</source></sampler2D>
        </newparam>
        <technique sid="common"><phong>
          <emission><color>0.08 0.08 0.08 1</color></emission>
          <ambient><color>0.2 0.2 0.2 1</color></ambient>
          <diffuse><texture texture="VFXTexture-sampler" texcoord="UVSET0"/></diffuse>
          <specular><color>0.15 0.15 0.15 1</color></specular>
          <shininess><float>8</float></shininess>
          <transparent opaque="A_ONE"><texture texture="VFXTexture-sampler" texcoord="UVSET0"/></transparent>
          <transparency><float>1</float></transparency>
        </phong></technique>
      </profile_COMMON>
      <extra><technique profile="GOOGLEEARTH"><double_sided>1</double_sided></technique></extra>
    </effect>
  </library_effects>
  <library_materials><material id="PreviewMaterial" name="PreviewMaterial"><instance_effect url="#PreviewEffect"/></material></library_materials>
  <library_geometries>
    <geometry id="vfx_kurp_1069-mesh" name="vfx_kurp_1069"><mesh>
      <source id="vfx_kurp_1069-mesh-positions">
        <float_array id="vfx_kurp_1069-mesh-positions-array" count="264">-1.89442123 -4.10110327 -0.738135666 -2.46489728 -3.81496727 -1.6190187 -1.95423929 -4.97485176 -1.02656087 -2.24291624 -5.07261001 -1.66740006 -2.29929375 -2.55653971 -1.47860963 -1.62419654 -3.23964825 -0.365359114 -1.76231912 -1.42051088 -1.25991776 -1.2078306 -2.48761822 0.0301419829 -0.906535759 -0.518083833 -0.984350197 -0.698572236 -1.92285682 0.410338548 0.184287563 0.0624062053 -0.67888101 -0.123138417 -1.59281385 0.763957712 1.40337308 0.264136812 -0.373411749 0.510837281 -1.51330602 1.09774234 2.63138833 0.0673611033 -0.0978439694 1.1899913 -1.67562667 1.42037833 3.74812592 -0.508659586 0.12084768 1.87097395 -2.05605414 1.72622558 4.64427263 -1.40753928 0.26125655 2.47463593 -2.62157872 1.98603208 5.23210698 -2.54129052 0.309637978 2.9040726 -3.32964815 2.14922935 3.13432662 -0.498019587 -0.902390095 3.74610286 -0.013776872 -1.97929167 2.19713295 0.0196896916 -1.25499716 2.23796594 0.39004689 -2.03843904 5.0548602 -0.847443234 -1.80763779 3.9491904 -1.24250457 -0.446661221 6.03612811 -2.02934497 -1.54028138 4.5673079 -2.0923763 0.0368489446 6.59385344 -3.44378812 -1.20339289 4.92994066 -2.94841651 0.501648834 6.67344083 -4.95232008 -0.829949139 4.99831898 -3.75650884 0.933957286 6.26710175 -6.4072735 -0.456504959 4.75886182 -4.50002196 1.34201755 5.41460993 -7.66622894 -0.119616259 4.22812095 -5.16864922 1.73644804 4.19941382 -8.60594941 0.147740113 3.45477637 -5.72661511 2.11035426 2.74046549 -9.13444948 0.319393515 2.51629551 -6.10327821 2.42797419 1.18057569 -9.19999409 0.378540988 1.5098928 -6.21325555 2.62748707 4.99353956 -3.53177605 -0.81669171 5.67011403 -3.73394945 -1.79132284 4.89084622 -2.56823329 -1.13581266 5.18661073 -2.40625078 -1.84485311 5.73145028 -5.13696963 -1.63597037 4.86460892 -4.52234944 -0.404242318 5.36461779 -6.47797276 -1.39400422 4.55541632 -5.42176895 0.0333499058 4.60552496 -7.62569251 -1.08910928 4.10902725 -6.13498483 0.454008888 3.52847522 -8.46778246 -0.751130547 3.54543625 -6.60516252 0.845262007 2.23889819 -8.92181231 -0.413151686 2.8699217 -6.8136001 1.21456971 0.863026984 -8.94333927 -0.108256742 2.09871827 -6.76721818 1.57154211 -0.464458324 -8.53025508 0.133709293 1.28361757 -6.48353445 1.90993908 -1.61361475 -7.72299703 0.289060949 0.517204234 -5.98331052 2.19739536 -2.47195465 -6.60058342 0.342591301 -0.086757339 -5.29429384 2.37796094 0.206391121 -8.42391988 -0.998426524 -0.367173197 -9.06909881 -2.18993737 1.32703951 -8.80796298 -1.38855972 1.35370304 -9.21935514 -2.25537944 -1.95338708 -8.4121725 -2.0000151 -0.824534503 -7.76927634 -0.494196906 -3.24967008 -7.31288329 -1.70420543 -1.66132961 -6.96200096 0.0407707293 -4.12913144 -5.87883847 -1.33146391 -2.22092996 -6.09891794 0.555036798 -4.50568361 -4.2504091 -0.918276356 -2.45069379 -5.23154509 1.0333537 -4.34246831 -2.58699886 -0.505088665 -2.33262799 -4.37539423 1.48484145 -3.65546111 -1.05143331 -0.132346802 -1.88278659 -3.54487711 1.9212492 -2.51191108 0.205975155 0.16346287 -1.14733925 -2.78832666 2.33494837 -1.02375768 1.06214312 0.353384408 -0.197123293 -2.19759947 2.68637077 0.663329906 1.43326169 0.418826648 0.878339566 -1.8844077 2.90711718</float_array>
        <technique_common><accessor source="#vfx_kurp_1069-mesh-positions-array" count="88" stride="3"><param name="X" type="float"/><param name="Y" type="float"/><param name="Z" type="float"/></accessor></technique_common>
      </source>
      <source id="vfx_kurp_1069-mesh-normals">
        <float_array id="vfx_kurp_1069-mesh-normals-array" count="264">-0.846700713 -0.0297821838 0.531235281 -0.851098927 -0.0317390028 0.524045085 -0.872765202 -0.14638773 0.465673206 -0.887839284 -0.173110288 0.426349896 -0.79676275 0.156251512 0.583741882 -0.828068057 0.127245511 0.545996221 -0.716515586 0.337844977 0.610300079 -0.791275183 0.296675674 0.534665436 -0.58487769 0.508137973 0.6322293 -0.696545448 0.47915338 0.534075348 -0.393142486 0.629465197 0.670233207 -0.51251681 0.634839793 0.578191107 -0.170212275 0.666381884 0.725922149 -0.268993662 0.705985924 0.655153634 0.0447444094 0.623963239 0.780171657 -0.0377959572 0.69414508 0.718842176 0.237879702 0.528215331 0.815108466 0.165104718 0.635685969 0.754084731 0.410132011 0.388941313 0.824934172 0.362593564 0.518400925 0.774458771 0.485450836 0.319455348 0.813809416 0.453694918 0.452155266 0.767930034 0.330839192 0.779958212 0.531234992 0.330924381 0.784771414 0.524044733 0.236174126 0.852860213 0.465672889 0.218325842 0.877815377 0.42634961 0.478338295 0.656077735 0.583741793 0.465280144 0.696708391 0.545996159 0.609004033 0.506604537 0.610299869 0.60328669 0.591758617 0.534665231 0.707709311 0.315331025 0.632229291 0.728633195 0.428785902 0.534075199 0.736638536 0.0902849091 0.67023302 0.791959284 0.19620345 0.578190884 0.675882023 -0.127360035 0.725922112 0.753522223 -0.0545710607 0.655153615 0.546593142 -0.304250033 0.780171683 0.645082585 -0.259103094 0.718842156 0.378193564 -0.438825225 0.815108612 0.506351017 -0.41828771 0.754084902 0.179171109 -0.536079218 0.824934413 0.316592224 -0.54770685 0.774458888 0.0843642133 -0.574975322 0.813809596 0.218052466 -0.602276173 0.767930032 0.828665902 0.176357915 0.531235079 0.832657489 0.179048805 0.524044875 0.834086084 0.295717857 0.465673011 0.844290811 0.324652009 0.426349738 0.811790957 -0.0155212149 0.583741839 0.837583785 0.0184801659 0.545996233 0.764296302 -0.20829064 0.610300067 0.830771082 -0.154765051 0.534665493 0.664229297 -0.398855114 0.63222942 0.769167539 -0.350919938 0.534075364 0.496475117 -0.551633657 0.670233368 0.614969286 -0.536197411 0.578191244 0.283342163 -0.626700841 0.725922361 0.387500055 -0.648550094 0.655153785 0.0642854122 -0.622253544 0.78017172 0.157758855 -0.677036183 0.718842229 -0.142542114 -0.561497774 0.815108579 -0.0522107715 -0.654698412 0.754084892 -0.336362217 -0.454250976 0.824934246 -0.267065563 -0.573488831 0.774458873 -0.422602856 -0.39889971 0.813809467 -0.368286245 -0.524069275 0.767930099 -0.190374685 -0.825558341 0.531235263 -0.189622812 -0.830313224 0.524044978 -0.0844885761 -0.880914468 0.465673039 -0.0625779177 -0.902391302 0.426349554 -0.357144437 -0.729173003 0.58374188 -0.337229197 -0.766918909 0.545996204 -0.511780866 -0.604660428 0.610300018 -0.491363516 -0.68752807 0.534665361 -0.64220087 -0.433432851 0.632229394 -0.643105608 -0.548797511 0.534075341 -0.709769385 -0.216829213 0.670233178 -0.745857163 -0.330745014 0.578190997 -0.687729596 0.00805948146 0.725922205 -0.751550633 -0.0771057547 0.655153683 -0.591121551 0.20471292 0.780171733 -0.680275054 0.143149313 0.718842212 -0.448649139 0.366485882 0.815108612 -0.57129324 0.324006037 0.754084956 -0.26953836 0.496822294 0.824934349 -0.406890767 0.484410248 0.774458918 -0.182926184 0.551590469 0.813809539 -0.319324097 0.555261821 0.767929965</float_array>
        <technique_common><accessor source="#vfx_kurp_1069-mesh-normals-array" count="88" stride="3"><param name="X" type="float"/><param name="Y" type="float"/><param name="Z" type="float"/></accessor></technique_common>
      </source>
      <source id="vfx_kurp_1069-mesh-uv0">
        <float_array id="vfx_kurp_1069-mesh-uv0-array" count="176">1 1.3975687 0 1.3975687 1 1.49756861 0 1.49756873 0 1.2975688 1 1.29756868 0 1.19756877 1 1.19756866 0 1.09756875 1 1.09756875 0 0.997568727 1 0.997568727 0 0.897568762 1 0.897568703 0 0.797568798 1 0.797568738 0 0.697568774 1 0.697568715 0 0.59756875 1 0.59756875 0 0.497568786 1 0.497568727 1 1.3975687 0 1.3975687 1 1.49756861 0 1.49756873 0 1.2975688 1 1.29756868 0 1.19756877 1 1.19756866 0 1.09756875 1 1.09756875 0 0.997568727 1 0.997568727 0 0.897568762 1 0.897568703 0 0.797568798 1 0.797568738 0 0.697568774 1 0.697568715 0 0.59756875 1 0.59756875 0 0.497568786 1 0.497568727 1 1.3975687 0 1.3975687 1 1.49756861 0 1.49756873 0 1.2975688 1 1.29756868 0 1.19756877 1 1.19756866 0 1.09756875 1 1.09756875 0 0.997568727 1 0.997568727 0 0.897568762 1 0.897568703 0 0.797568798 1 0.797568738 0 0.697568774 1 0.697568715 0 0.59756875 1 0.59756875 0 0.497568786 1 0.497568727 1 1.3975687 0 1.3975687 1 1.49756861 0 1.49756873 0 1.2975688 1 1.29756868 0 1.19756877 1 1.19756866 0 1.09756875 1 1.09756875 0 0.997568727 1 0.997568727 0 0.897568762 1 0.897568703 0 0.797568798 1 0.797568738 0 0.697568774 1 0.697568715 0 0.59756875 1 0.59756875 0 0.497568786 1 0.497568727</float_array>
        <technique_common><accessor source="#vfx_kurp_1069-mesh-uv0-array" count="88" stride="2"><param name="S" type="float"/><param name="T" type="float"/></accessor></technique_common>
      </source>
      <source id="vfx_kurp_1069-mesh-colors">
        <float_array id="vfx_kurp_1069-mesh-colors-array" count="352">0.0666666701 0.0666666701 0.0666666701 1 0.0666666701 0.0666666701 0.0666666701 1 0.0666666701 0.0666666701 0.0666666701 0 0.0666666701 0.0666666701 0.0666666701 0 0.0666666701 0.0666666701 0.0666666701 1 0.0666666701 0.0666666701 0.0666666701 1 0.0666666701 0.0666666701 0.0666666701 1 0.0666666701 0.0666666701 0.0666666701 1 0.0666666701 0.0666666701 0.0666666701 1 0.0666666701 0.0666666701 0.0666666701 1 0.0666666701 0.0666666701 0.0666666701 1 0.0666666701 0.0666666701 0.0666666701 1 0.0666666701 0.0666666701 0.0666666701 1 0.0666666701 0.0666666701 0.0666666701 1 0.0666666701 0.0666666701 0.0666666701 1 0.0666666701 0.0666666701 0.0666666701 1 0.0666666701 0.0666666701 0.0666666701 1 0.0666666701 0.0666666701 0.0666666701 1 0.0666666701 0.0666666701 0.0666666701 1 0.0666666701 0.0666666701 0.0666666701 1 0.0666666701 0.0666666701 0.0666666701 0 0.0666666701 0.0666666701 0.0666666701 0 0.0666666701 0.0666666701 0.0666666701 1 0.0666666701 0.0666666701 0.0666666701 1 0.0666666701 0.0666666701 0.0666666701 0 0.0666666701 0.0666666701 0.0666666701 0 0.0666666701 0.0666666701 0.0666666701 1 0.0666666701 0.0666666701 0.0666666701 1 0.0666666701 0.0666666701 0.0666666701 1 0.0666666701 0.0666666701 0.0666666701 1 0.0666666701 0.0666666701 0.0666666701 1 0.0666666701 0.0666666701 0.0666666701 1 0.0666666701 0.0666666701 0.0666666701 1 0.0666666701 0.0666666701 0.0666666701 1 0.0666666701 0.0666666701 0.0666666701 1 0.0666666701 0.0666666701 0.0666666701 1 0.0666666701 0.0666666701 0.0666666701 1 0.0666666701 0.0666666701 0.0666666701 1 0.0666666701 0.0666666701 0.0666666701 1 0.0666666701 0.0666666701 0.0666666701 1 0.0666666701 0.0666666701 0.0666666701 1 0.0666666701 0.0666666701 0.0666666701 1 0.0666666701 0.0666666701 0.0666666701 0 0.0666666701 0.0666666701 0.0666666701 0 0.0666666701 0.0666666701 0.0666666701 1 0.0666666701 0.0666666701 0.0666666701 1 0.0666666701 0.0666666701 0.0666666701 0 0.0666666701 0.0666666701 0.0666666701 0 0.0666666701 0.0666666701 0.0666666701 1 0.0666666701 0.0666666701 0.0666666701 1 0.0666666701 0.0666666701 0.0666666701 1 0.0666666701 0.0666666701 0.0666666701 1 0.0666666701 0.0666666701 0.0666666701 1 0.0666666701 0.0666666701 0.0666666701 1 0.0666666701 0.0666666701 0.0666666701 1 0.0666666701 0.0666666701 0.0666666701 1 0.0666666701 0.0666666701 0.0666666701 1 0.0666666701 0.0666666701 0.0666666701 1 0.0666666701 0.0666666701 0.0666666701 1 0.0666666701 0.0666666701 0.0666666701 1 0.0666666701 0.0666666701 0.0666666701 1 0.0666666701 0.0666666701 0.0666666701 1 0.0666666701 0.0666666701 0.0666666701 1 0.0666666701 0.0666666701 0.0666666701 1 0.0666666701 0.0666666701 0.0666666701 0 0.0666666701 0.0666666701 0.0666666701 0 0.0666666701 0.0666666701 0.0666666701 1 0.0666666701 0.0666666701 0.0666666701 1 0.0666666701 0.0666666701 0.0666666701 0 0.0666666701 0.0666666701 0.0666666701 0 0.0666666701 0.0666666701 0.0666666701 1 0.0666666701 0.0666666701 0.0666666701 1 0.0666666701 0.0666666701 0.0666666701 1 0.0666666701 0.0666666701 0.0666666701 1 0.0666666701 0.0666666701 0.0666666701 1 0.0666666701 0.0666666701 0.0666666701 1 0.0666666701 0.0666666701 0.0666666701 1 0.0666666701 0.0666666701 0.0666666701 1 0.0666666701 0.0666666701 0.0666666701 1 0.0666666701 0.0666666701 0.0666666701 1 0.0666666701 0.0666666701 0.0666666701 1 0.0666666701 0.0666666701 0.0666666701 1 0.0666666701 0.0666666701 0.0666666701 1 0.0666666701 0.0666666701 0.0666666701 1 0.0666666701 0.0666666701 0.0666666701 1 0.0666666701 0.0666666701 0.0666666701 1 0.0666666701 0.0666666701 0.0666666701 0 0.0666666701 0.0666666701 0.0666666701 0</float_array>
        <technique_common><accessor source="#vfx_kurp_1069-mesh-colors-array" count="88" stride="4"><param name="R" type="float"/><param name="G" type="float"/><param name="B" type="float"/><param name="A" type="float"/></accessor></technique_common>
      </source>
      <vertices id="vfx_kurp_1069-mesh-vertices"><input semantic="POSITION" source="#vfx_kurp_1069-mesh-positions"/></vertices>
      <triangles material="PreviewMaterial" count="80">
        <input semantic="VERTEX" source="#vfx_kurp_1069-mesh-vertices" offset="0"/>
        <input semantic="NORMAL" source="#vfx_kurp_1069-mesh-normals" offset="1"/>
        <input semantic="TEXCOORD" source="#vfx_kurp_1069-mesh-uv0" offset="2" set="0"/>
        <input semantic="COLOR" source="#vfx_kurp_1069-mesh-colors" offset="3" set="0"/>
        <p>0 0 0 0 1 1 1 1 2 2 2 2 3 3 3 3 2 2 2 2 1 1 1 1 1 1 1 1 0 0 0 0 4 4 4 4 5 5 5 5 4 4 4 4 0 0 0 0 4 4 4 4 5 5 5 5 6 6 6 6 7 7 7 7 6 6 6 6 5 5 5 5 6 6 6 6 7 7 7 7 8 8 8 8 9 9 9 9 8 8 8 8 7 7 7 7 8 8 8 8 9 9 9 9 10 10 10 10 11 11 11 11 10 10 10 10 9 9 9 9 10 10 10 10 11 11 11 11 12 12 12 12 13 13 13 13 12 12 12 12 11 11 11 11 12 12 12 12 13 13 13 13 14 14 14 14 15 15 15 15 14 14 14 14 13 13 13 13 14 14 14 14 15 15 15 15 16 16 16 16 17 17 17 17 16 16 16 16 15 15 15 15 16 16 16 16 17 17 17 17 18 18 18 18 19 19 19 19 18 18 18 18 17 17 17 17 18 18 18 18 19 19 19 19 20 20 20 20 21 21 21 21 20 20 20 20 19 19 19 19 22 22 22 22 23 23 23 23 24 24 24 24 25 25 25 25 24 24 24 24 23 23 23 23 23 23 23 23 22 22 22 22 26 26 26 26 27 27 27 27 26 26 26 26 22 22 22 22 26 26 26 26 27 27 27 27 28 28 28 28 29 29 29 29 28 28 28 28 27 27 27 27 28 28 28 28 29 29 29 29 30 30 30 30 31 31 31 31 30 30 30 30 29 29 29 29 30 30 30 30 31 31 31 31 32 32 32 32 33 33 33 33 32 32 32 32 31 31 31 31 32 32 32 32 33 33 33 33 34 34 34 34 35 35 35 35 34 34 34 34 33 33 33 33 34 34 34 34 35 35 35 35 36 36 36 36 37 37 37 37 36 36 36 36 35 35 35 35 36 36 36 36 37 37 37 37 38 38 38 38 39 39 39 39 38 38 38 38 37 37 37 37 38 38 38 38 39 39 39 39 40 40 40 40 41 41 41 41 40 40 40 40 39 39 39 39 40 40 40 40 41 41 41 41 42 42 42 42 43 43 43 43 42 42 42 42 41 41 41 41 44 44 44 44 45 45 45 45 46 46 46 46 47 47 47 47 46 46 46 46 45 45 45 45 45 45 45 45 44 44 44 44 48 48 48 48 49 49 49 49 48 48 48 48 44 44 44 44 48 48 48 48 49 49 49 49 50 50 50 50 51 51 51 51 50 50 50 50 49 49 49 49 50 50 50 50 51 51 51 51 52 52 52 52 53 53 53 53 52 52 52 52 51 51 51 51 52 52 52 52 53 53 53 53 54 54 54 54 55 55 55 55 54 54 54 54 53 53 53 53 54 54 54 54 55 55 55 55 56 56 56 56 57 57 57 57 56 56 56 56 55 55 55 55 56 56 56 56 57 57 57 57 58 58 58 58 59 59 59 59 58 58 58 58 57 57 57 57 58 58 58 58 59 59 59 59 60 60 60 60 61 61 61 61 60 60 60 60 59 59 59 59 60 60 60 60 61 61 61 61 62 62 62 62 63 63 63 63 62 62 62 62 61 61 61 61 62 62 62 62 63 63 63 63 64 64 64 64 65 65 65 65 64 64 64 64 63 63 63 63 66 66 66 66 67 67 67 67 68 68 68 68 69 69 69 69 68 68 68 68 67 67 67 67 67 67 67 67 66 66 66 66 70 70 70 70 71 71 71 71 70 70 70 70 66 66 66 66 70 70 70 70 71 71 71 71 72 72 72 72 73 73 73 73 72 72 72 72 71 71 71 71 72 72 72 72 73 73 73 73 74 74 74 74 75 75 75 75 74 74 74 74 73 73 73 73 74 74 74 74 75 75 75 75 76 76 76 76 77 77 77 77 76 76 76 76 75 75 75 75 76 76 76 76 77 77 77 77 78 78 78 78 79 79 79 79 78 78 78 78 77 77 77 77 78 78 78 78 79 79 79 79 80 80 80 80 81 81 81 81 80 80 80 80 79 79 79 79 80 80 80 80 81 81 81 81 82 82 82 82 83 83 83 83 82 82 82 82 81 81 81 81 82 82 82 82 83 83 83 83 84 84 84 84 85 85 85 85 84 84 84 84 83 83 83 83 84 84 84 84 85 85 85 85 86 86 86 86 87 87 87 87 86 86 86 86 85 85 85 85</p>
      </triangles>
    </mesh></geometry>
  </library_geometries>
  <library_visual_scenes>
    <visual_scene id="Scene" name="Scene">
      <node id="vfx_kurp_1069" name="vfx_kurp_1069" type="NODE">
        <instance_geometry url="#vfx_kurp_1069-mesh"><bind_material><technique_common><instance_material symbol="PreviewMaterial" target="#PreviewMaterial"><bind_vertex_input semantic="UVSET0" input_semantic="TEXCOORD" input_set="0"/></instance_material></technique_common></bind_material></instance_geometry>
      </node>
    </visual_scene>
  </library_visual_scenes>
  <scene><instance_visual_scene url="#Scene"/></scene>
</COLLADA>
