<?xml version="1.0" encoding="utf-8"?>
<COLLADA xmlns="http://www.collada.org/2005/11/COLLADASchema" version="1.4.1">
  <asset>
    <contributor><authoring_tool>Morrobroom Kurpulio VFX preview converter</authoring_tool></contributor>
    <unit name="unit" meter="1"/>
    <up_axis>Z_UP</up_axis>
  </asset>
  <library_images>
    <image id="VFXTexture" name="darkmap_newgen-1.dds">
      <init_from>../../../Textures/Kurp/darkmap_newgen-1.dds</init_from>
    </image>
  </library_images>
  <library_effects>
    <effect id="PreviewEffect">
      <profile_COMMON>
        <newparam sid="VFXTexture-surface">
          <surface type="2D"><init_from>VFXTexture</init_from></surface>
        </newparam>
        <newparam sid="VFXTexture-sampler">
          <sampler2D><source>VFXTexture-surface</source></sampler2D>
        </newparam>
        <technique sid="common"><phong>
          <emission><color>0.08 0.08 0.08 1</color></emission>
          <ambient><color>0.2 0.2 0.2 1</color></ambient>
          <diffuse><texture texture="VFXTexture-sampler" texcoord="UVSET0"/></diffuse>
          <specular><color>0.15 0.15 0.15 1</color></specular>
          <shininess><float>8</float></shininess>
          <transparent opaque="A_ONE"><texture texture="VFXTexture-sampler" texcoord="UVSET0"/></transparent>
          <transparency><float>1</float></transparency>
        </phong></technique>
      </profile_COMMON>
      <extra><technique profile="GOOGLEEARTH"><double_sided>1</double_sided></technique></extra>
    </effect>
  </library_effects>
  <library_materials><material id="PreviewMaterial" name="PreviewMaterial"><instance_effect url="#PreviewEffect"/></material></library_materials>
  <library_geometries>
    <geometry id="vfx_kurp_0131-mesh" name="vfx_kurp_0131"><mesh>
      <source id="vfx_kurp_0131-mesh-positions">
        <float_array id="vfx_kurp_0131-mesh-positions-array" count="192">-0.160851137 0.194271112 -0.344867807 0.690283345 3.03889086 -2.12593545 0.0193499301 0.00936392455 -0.0111715393 2.24152678 3.37920065 -1.29414542 2.18625619 3.03889115 0.465164796 0.0193499301 0.00936392455 -0.0111715393 2.24152678 3.37920065 -1.29414542 0.2182386 0.194271071 0.31173543 -0.344867301 0.194270785 0.160851383 -2.12593907 3.03888911 -0.690283103 -0.0111712363 0.00936391197 -0.0193499294 -1.29414945 3.37919964 -2.24152697 0.46516219 3.03889113 -2.18625663 -0.0111712363 0.00936391197 -0.0193499294 -1.29414945 3.37919964 -2.24152697 0.311735624 0.194271296 -0.218238831 0.160851349 0.194270959 0.344867402 -0.690285888 3.03888891 2.12593896 -0.0193491049 0.00936389302 0.0111713796 -2.24153056 3.37919716 1.294149 -2.18626021 3.03888898 -0.465162793 -0.0193491049 0.00936389302 0.0111713796 -2.24153056 3.37919716 1.294149 -0.218238223 0.19427109 -0.311735328 0.344867953 0.194271309 -0.160850837 2.12593678 3.03889101 0.690287662 0.0111716886 0.0093639063 0.0193493965 1.29414727 3.37919961 2.2415308 -0.465165324 3.03888935 2.18626109 0.0111716886 0.0093639063 0.0193493965 1.29414727 3.37919961 2.2415308 -0.311735327 0.19427082 0.218238194 -0.366623341 0.236732115 -0.0944980227 -1.67477993 3.78827774 -1.33266333 0.00523585086 0.0154031138 -0.0195402159 0.473972737 4.26266561 -1.76889888 2.11672972 3.7882785 -0.316731925 0.00523585086 0.0154031138 -0.0195402159 0.473972737 4.26266561 -1.76889888 0.364754372 0.236732377 0.101473634 -0.0944981594 0.236732042 0.366623724 -1.33266831 3.78827724 1.67477939 -0.0195404434 0.0154030931 -0.00523555517 -1.76890411 4.26266423 -0.473973762 -0.316736164 3.78827915 -2.11673062 -0.0195404434 0.0154030931 -0.00523555517 -1.76890411 4.26266423 -0.473973762 0.101474013 0.236732502 -0.364754545 0.0944982538 0.236732477 -0.366623184 1.33266325 3.7882798 -1.67477566 0.0195403656 0.0154031084 0.00523584914 1.76889858 4.26266525 0.47397786 0.316731409 3.78827753 2.11673425 0.0195403656 0.0154031084 0.00523584914 1.76889858 4.26266525 0.47397786 -0.101473612 0.23673195 0.36475401 0.36662358 0.236732426 0.0944981679 1.67477554 3.78827859 1.33266733 -0.00523585266 0.0154030891 0.0195401369 -0.473978644 4.2626635 1.76890258 -2.11673438 3.78827675 0.316734837 -0.00523585266 0.0154030891 0.0195401369 -0.473978644 4.2626635 1.76890258 -0.364754247 0.236732074 -0.101473928</float_array>
        <technique_common><accessor source="#vfx_kurp_0131-mesh-positions-array" count="64" stride="3"><param name="X" type="float"/><param name="Y" type="float"/><param name="Z" type="float"/></accessor></technique_common>
      </source>
      <source id="vfx_kurp_0131-mesh-normals">
        <float_array id="vfx_kurp_0131-mesh-normals-array" count="192">0.566094685 -0.552455142 -0.61182524 0.486045042 -0.570047653 -0.662424252 0.536039121 -0.559803516 -0.631887715 0.48174756 -0.570819884 -0.664893938 0.816698743 -0.570047689 -0.0897150741 0.815250371 -0.55980364 -0.148279188 0.816688813 -0.570819914 -0.0847585306 0.812903562 -0.552455336 -0.184339093 -0.611825423 -0.552456066 -0.566093585 -0.662423757 -0.570048394 -0.486044849 -0.631887606 -0.559804388 -0.536038338 -0.664893414 -0.570820616 -0.481747415 -0.0897148546 -0.570047887 -0.81669863 -0.148279112 -0.559803844 -0.815250244 -0.0847583104 -0.570820108 -0.8166887 -0.184339136 -0.552455498 -0.812903442 -0.56609401 -0.552456353 0.61182477 -0.486044131 -0.570048903 0.662423846 -0.536038303 -0.559804783 0.631887287 -0.481746647 -0.570821131 0.664893529 -0.816697931 -0.570048866 0.0897149898 -0.815249551 -0.559804862 0.148279084 -0.816687953 -0.570821159 0.084758434 -0.812902762 -0.552456526 0.184339054 0.611824613 -0.552455778 0.566094741 0.662424028 -0.570048337 0.486044546 0.63188726 -0.559804177 0.536038966 0.664893706 -0.570820608 0.481747022 0.0897158046 -0.570048788 0.816697897 0.148279112 -0.559804807 0.815249583 0.0847593484 -0.57082096 0.816687997 0.184338558 -0.552456642 0.812902795 -0.00716002054 -0.331537349 -0.943414925 -0.101954514 -0.367180691 -0.924545087 -0.0518663754 -0.348782846 -0.935767282 -0.106095408 -0.36865767 -0.923490816 0.550567655 -0.367180314 -0.749702524 0.512800773 -0.348782355 -0.784465573 0.553626758 -0.368657342 -0.746718941 0.477907316 -0.331536679 -0.813442086 -0.943414363 -0.33153892 0.00716124177 -0.924544682 -0.367181722 0.101954472 -0.93576676 -0.348784151 0.0518670058 -0.923490421 -0.368658677 0.106095339 -0.7497019 -0.367181273 -0.550567865 -0.784464494 -0.348783634 -0.512801554 -0.746718353 -0.36865828 -0.553626927 -0.813440604 -0.331538335 -0.47790869 0.94341501 -0.331537107 -0.00715998018 0.924545139 -0.36718048 -0.101954797 0.935767358 -0.348782626 -0.0518664824 0.923490877 -0.368657426 -0.106095722 0.749702287 -0.367180875 0.550567604 0.78446509 -0.348783035 0.512801051 0.746718799 -0.36865785 0.553626611 0.813441381 -0.331537498 0.477907949 0.00716040485 -0.331538332 0.943414576 0.101954573 -0.367181411 0.924544794 0.0518666188 -0.348783719 0.935766943 0.106095495 -0.368658407 0.923490511 -0.550567632 -0.367181697 0.749701863 -0.512801304 -0.348784005 0.784464493 -0.553626708 -0.368658658 0.746718328 -0.47790841 -0.331538579 0.813440669</float_array>
        <technique_common><accessor source="#vfx_kurp_0131-mesh-normals-array" count="64" stride="3"><param name="X" type="float"/><param name="Y" type="float"/><param name="Z" type="float"/></accessor></technique_common>
      </source>
      <source id="vfx_kurp_0131-mesh-uv0">
        <float_array id="vfx_kurp_0131-mesh-uv0-array" count="128">1 1.48148143 1 0.481481433 0.5 1.48148155 0.5 0.481481493 0 0.481481552 0.5 1.48148155 0.5 0.481481493 0 1.48148155 1 1.48148143 1 0.481481433 0.5 1.48148155 0.5 0.481481493 0 0.481481552 0.5 1.48148155 0.5 0.481481493 0 1.48148155 1 1.48148143 1 0.481481433 0.5 1.48148155 0.5 0.481481493 0 0.481481552 0.5 1.48148155 0.5 0.481481493 0 1.48148155 1 1.48148143 1 0.481481433 0.5 1.48148155 0.5 0.481481493 0 0.481481552 0.5 1.48148155 0.5 0.481481493 0 1.48148155 1 1.48148143 1 0.481481433 0.5 1.48148155 0.5 0.481481493 0 0.481481552 0.5 1.48148155 0.5 0.481481493 0 1.48148155 1 1.48148143 1 0.481481433 0.5 1.48148155 0.5 0.481481493 0 0.481481552 0.5 1.48148155 0.5 0.481481493 0 1.48148155 1 1.48148143 1 0.481481433 0.5 1.48148155 0.5 0.481481493 0 0.481481552 0.5 1.48148155 0.5 0.481481493 0 1.48148155 1 1.48148143 1 0.481481433 0.5 1.48148155 0.5 0.481481493 0 0.481481552 0.5 1.48148155 0.5 0.481481493 0 1.48148155</float_array>
        <technique_common><accessor source="#vfx_kurp_0131-mesh-uv0-array" count="64" stride="2"><param name="S" type="float"/><param name="T" type="float"/></accessor></technique_common>
      </source>
      <vertices id="vfx_kurp_0131-mesh-vertices"><input semantic="POSITION" source="#vfx_kurp_0131-mesh-positions"/></vertices>
      <triangles material="PreviewMaterial" count="32">
        <input semantic="VERTEX" source="#vfx_kurp_0131-mesh-vertices" offset="0"/>
        <input semantic="NORMAL" source="#vfx_kurp_0131-mesh-normals" offset="1"/>
        <input semantic="TEXCOORD" source="#vfx_kurp_0131-mesh-uv0" offset="2" set="0"/>
        <p>0 0 0 1 1 1 2 2 2 3 3 3 2 2 2 1 1 1 4 4 4 5 5 5 6 6 6 5 5 5 4 4 4 7 7 7 8 8 8 9 9 9 10 10 10 11 11 11 10 10 10 9 9 9 12 12 12 13 13 13 14 14 14 13 13 13 12 12 12 15 15 15 16 16 16 17 17 17 18 18 18 19 19 19 18 18 18 17 17 17 20 20 20 21 21 21 22 22 22 21 21 21 20 20 20 23 23 23 24 24 24 25 25 25 26 26 26 27 27 27 26 26 26 25 25 25 28 28 28 29 29 29 30 30 30 29 29 29 28 28 28 31 31 31 32 32 32 33 33 33 34 34 34 35 35 35 34 34 34 33 33 33 36 36 36 37 37 37 38 38 38 37 37 37 36 36 36 39 39 39 40 40 40 41 41 41 42 42 42 43 43 43 42 42 42 41 41 41 44 44 44 45 45 45 46 46 46 45 45 45 44 44 44 47 47 47 48 48 48 49 49 49 50 50 50 51 51 51 50 50 50 49 49 49 52 52 52 53 53 53 54 54 54 53 53 53 52 52 52 55 55 55 56 56 56 57 57 57 58 58 58 59 59 59 58 58 58 57 57 57 60 60 60 61 61 61 62 62 62 61 61 61 60 60 60 63 63 63</p>
      </triangles>
    </mesh></geometry>
  </library_geometries>
  <library_visual_scenes>
    <visual_scene id="Scene" name="Scene">
      <node id="vfx_kurp_0131" name="vfx_kurp_0131" type="NODE">
        <instance_geometry url="#vfx_kurp_0131-mesh"><bind_material><technique_common><instance_material symbol="PreviewMaterial" target="#PreviewMaterial"><bind_vertex_input semantic="UVSET0" input_semantic="TEXCOORD" input_set="0"/></instance_material></technique_common></bind_material></instance_geometry>
      </node>
    </visual_scene>
  </library_visual_scenes>
  <scene><instance_visual_scene url="#Scene"/></scene>
</COLLADA>
