<?xml version="1.0" encoding="utf-8"?>
<COLLADA xmlns="http://www.collada.org/2005/11/COLLADASchema" version="1.4.1">
  <asset>
    <contributor><authoring_tool>Morrobroom Kurpulio VFX preview converter</authoring_tool></contributor>
    <unit name="unit" meter="1"/>
    <up_axis>Z_UP</up_axis>
  </asset>
  <library_images>
    <image id="VFXTexture" name="darkmap_newgen-1.dds">
      <init_from>../../../Textures/Kurp/darkmap_newgen-1.dds</init_from>
    </image>
  </library_images>
  <library_effects>
    <effect id="PreviewEffect">
      <profile_COMMON>
        <newparam sid="VFXTexture-surface">
          <surface type="2D"><init_from>VFXTexture</init_from></surface>
        </newparam>
        <newparam sid="VFXTexture-sampler">
          <sampler2D><source>VFXTexture-surface</source></sampler2D>
        </newparam>
        <technique sid="common"><phong>
          <emission><color>0.08 0.08 0.08 1</color></emission>
          <ambient><color>0.2 0.2 0.2 1</color></ambient>
          <diffuse><texture texture="VFXTexture-sampler" texcoord="UVSET0"/></diffuse>
          <specular><color>0.15 0.15 0.15 1</color></specular>
          <shininess><float>8</float></shininess>
          <transparent opaque="A_ONE"><texture texture="VFXTexture-sampler" texcoord="UVSET0"/></transparent>
          <transparency><float>1</float></transparency>
        </phong></technique>
      </profile_COMMON>
      <extra><technique profile="GOOGLEEARTH"><double_sided>1</double_sided></technique></extra>
    </effect>
  </library_effects>
  <library_materials><material id="PreviewMaterial" name="PreviewMaterial"><instance_effect url="#PreviewEffect"/></material></library_materials>
  <library_geometries>
    <geometry id="vfx_kurp_0818-mesh" name="vfx_kurp_0818"><mesh>
      <source id="vfx_kurp_0818-mesh-positions">
        <float_array id="vfx_kurp_0818-mesh-positions-array" count="486">-4.0544628 3.88135764 2.92157486 -4.70870845 3.50778478 3.49483859 -2.50205331 2.07121215 0.113850156 -2.86947511 1.45559527 0.363033086 -5.22030173 3.20273018 4.09389408 -3.07852416 0.794559116 0.610534785 -1.32857414 2.92944763 -0.106886546 -1.98054369 2.57481973 -0.0403636231 -0.244014883 0.653132709 1.44464816 -0.364304091 0.587640265 1.52192744 -2.50205331 2.07121215 0.113850156 -0.467204223 0.473249668 1.6526981 -2.86947511 1.45559527 0.363033086 -0.520629005 0.312542006 1.83947101 -3.07852416 0.794559116 0.610534785 -0.520629005 0.312542006 1.83947101 -3.07852416 0.794559116 0.610534785 -0.481423166 0.177657167 2.03873393 -1.98054369 2.57481973 -0.0403636231 -3.19835216 4.2128152 2.47693659 -1.32857414 2.92944763 -0.106886546 -2.16829484 4.47047163 2.15895617 -0.579247276 3.11454008 -0.142959446 -0.750650489 4.60469546 1.91451695 0.185205996 3.11872303 -0.206669095 0.725639338 4.47249655 1.68111588 0.879063253 2.9595209 -0.288249304 1.94518004 3.99101452 1.45252111 1.47089422 2.68335105 -0.378291095 3.01546122 3.23807261 1.21888082 1.94212316 2.34830258 -0.466766095 3.86577842 2.26040542 0.966238245 2.29545918 2.01441269 -0.545153006 4.57149088 1.16510522 0.677092004 2.56602467 1.71844267 -0.611049741 5.00031414 0.0455873339 0.331643403 -0.0889379764 0.716393708 1.39621616 -0.579247276 3.11454008 -0.142959446 0.0951677874 0.74766231 1.34884426 0.185205996 3.11872303 -0.206669095 0.295301346 0.728604932 1.30068526 0.879063253 2.9595209 -0.288249304 0.497186761 0.672659399 1.24924206 1.47089422 2.68335105 -0.378291095 0.688926572 0.564577116 1.19104028 1.94212316 2.34830258 -0.466766095 0.85216587 0.418321727 1.12173199 2.29545918 2.01441269 -0.545153006 0.971879828 0.264686984 1.03638574 2.56602467 1.71844267 -0.611049741 1.04753715 0.120587421 0.929491 2.86687629 1.35131287 -0.689864854 2.86687629 1.35131287 -0.689864854 5.16499008 -0.800947423 -0.0911462207 -1.33412401 -5.45194568 2.92157555 -0.683477958 -5.83175174 3.49483962 -0.542695823 -3.20244716 0.113850488 0.174154855 -3.2128356 0.363033728 -0.163496541 -6.12227739 4.09389545 0.851153583 -3.0633597 0.61053564 -1.87268894 -2.61530248 -0.106886749 -1.23958744 -3.00261051 -0.0403635616 -0.443622482 -0.537889001 1.44464816 -0.326759794 -0.609316182 1.52192744 -0.542695823 -3.20244716 0.113850488 -0.176244611 -0.64123513 1.6526981 0.174154855 -3.2128356 0.363033728 -0.010355379 -0.607148475 1.83947118 0.851153583 -3.0633597 0.61053564 -0.010355379 -0.607148475 1.83947118 0.851153583 -3.0633597 0.61053564 0.0868553376 -0.505752786 2.03873427 -1.23958744 -3.00261051 -0.0403635616 -2.04922982 -4.87626075 2.47693693 -1.87268894 -2.61530248 -0.106886749 -2.78739535 -4.11303307 2.158956 -2.40764712 -2.05891242 -0.142959927 -3.61245859 -2.95242942 1.91451627 -2.79349645 -1.39896838 -0.206669822 -4.23611593 -1.60782569 1.68111485 -3.00255234 -0.718469401 -0.288250202 -4.42891038 -0.310931754 1.45251974 -3.05929721 -0.0678436619 -0.378292121 -4.3119844 0.992430055 1.21887928 -3.00475076 0.507776547 -0.466767208 -3.89045796 2.21765922 0.966236705 -2.89226235 0.9807192 -0.545154204 -3.29475623 3.37647392 0.677090422 -2.77122699 1.36302099 -0.611050896 -2.53963677 4.30760501 0.331641863 -0.575946521 -0.435218969 1.39621607 -2.40764712 -2.05891242 -0.142959927 -0.69507879 -0.291413021 1.34884409 -2.79349645 -1.39896838 -0.206669822 -0.778641522 -0.108563638 1.30068501 -3.00255234 -0.718469401 -0.288250202 -0.831133797 0.0942470337 1.24924172 -3.05929721 -0.0678436619 -0.378292121 -0.833401689 0.31433971 1.19103993 -3.00475076 0.507776547 -0.466767208 -0.788360485 0.528836725 1.12173174 -2.89226235 0.9807192 -0.545154204 -0.715165865 0.709329431 1.03638548 -2.77122699 1.36302099 -0.611050896 -0.628200611 0.846900387 0.929490743 -2.60370926 1.80713087 -0.689866009 -2.60370926 1.80713087 -0.689866009 -1.88885404 4.87348569 -0.0911476324 5.38858399 1.57058856 2.92157692 5.39218312 2.323968 3.49484099 3.04474841 1.13123561 0.113851376 2.69531934 1.7572405 0.363034327 5.38379428 2.91954755 4.09389647 2.22736972 2.26880041 0.610536068 3.20126308 -0.314144687 -0.106885615 3.2201307 0.42779134 -0.0403625189 0.687636317 -0.115243398 1.44464833 0.691062709 0.0216763185 1.52192761 3.04474841 1.13123561 0.113851376 0.643447583 0.167985687 1.65269827 2.69531934 1.7572405 0.363034327 0.530983043 0.294606682 1.83947135 2.22736972 2.26880041 0.610536068 0.530983043 0.294606682 1.83947135 2.22736972 2.26880041 0.610536068 0.394566352 0.328095779 2.03873444 3.2201307 0.42779134 -0.0403625189 5.24757975 0.663446109 2.47693864 3.20126308 -0.314144687 -0.106885615 4.95568831 -0.357437532 2.15895771 2.98689474 -1.05562689 -0.142958719 4.36310763 -1.65226519 1.91451815 2.60829073 -1.71975423 -0.206668646 3.51047599 -2.86467 1.68111639 2.12348917 -2.24105116 -0.288249111 2.48373017 -3.6800823 1.45252111 1.58840351 -2.61550661 -0.378291137 1.29652259 -4.23050181 1.21888039 1.0626288 -2.85607857 -0.466766395 0.0246800693 -4.47806447 0.96623739 0.596803805 -2.99513164 -0.545153476 -1.2767338 -4.54157948 0.677090721 0.205203388 -3.08146314 -0.611050339 -2.46067651 -4.35319248 0.331641777 0.664883604 -0.281174418 1.39621641 2.98689474 -1.05562689 -0.142958719 0.599910136 -0.456248989 1.34884443 2.60829073 -1.71975423 -0.206668646 0.483339341 -0.620040973 1.30068526 2.12348917 -2.24105116 -0.288249111 0.333946308 -0.766906112 1.24924198 1.58840351 -2.61550661 -0.378291137 0.144474508 -0.878916611 1.1910401 1.0626288 -2.85607857 -0.466766395 -0.0638059467 -0.94715828 1.12173182 0.596803805 -2.99513164 -0.545153476 -0.256714455 -0.974016308 1.03638548 0.205203388 -3.08146314 -0.611050339 -0.419336965 -0.967487605 0.929490658 -0.263165944 -3.15844349 -0.689865624 -0.263165944 -3.15844349 -0.689865624 -3.27613467 -4.07253852 -0.0911481029</float_array>
        <technique_common><accessor source="#vfx_kurp_0818-mesh-positions-array" count="162" stride="3"><param name="X" type="float"/><param name="Y" type="float"/><param name="Z" type="float"/></accessor></technique_common>
      </source>
      <source id="vfx_kurp_0818-mesh-normals">
        <float_array id="vfx_kurp_0818-mesh-normals-array" count="486">0.674758017 -0.398612559 0.621135771 0.775053322 -0.220027551 0.592351437 0.697701455 -0.351306618 0.62433672 0.803555545 -0.14376004 0.577608464 0.799490647 -0.160387922 0.578869951 0.83245039 -0.0568912104 0.551171243 -0.134027931 0.510575724 0.849322638 -0.195005668 0.493837649 0.84740614 0.0503593788 0.615763178 0.786320317 0.0591972008 0.690639538 0.720772308 -0.227346162 0.493460585 0.839529853 -0.0172153785 0.735028323 0.677817818 -0.278803735 0.467468528 0.838893112 -0.0898569147 0.713237819 0.695138511 -0.327359257 0.420370785 0.84624129 -0.122440054 0.810531133 0.572754498 -0.122440061 0.810531133 0.572754498 -0.122440061 0.810531133 0.572754498 0.513657805 -0.573849733 0.637849624 0.487144744 -0.608852274 0.626090175 0.30787734 -0.72418632 0.617062167 0.297904646 -0.736886634 0.606836807 0.127953381 -0.793352666 0.595163406 0.111040092 -0.802559306 0.586147301 -0.030879908 -0.803725142 0.594198896 -0.0791771873 -0.805340424 0.587501298 -0.191858086 -0.775529336 0.60145218 -0.277652031 -0.752398566 0.597332192 -0.326427164 -0.724299078 0.607318823 -0.432824287 -0.655571883 0.618779962 -0.432774508 -0.662656894 0.611221782 -0.524223515 -0.559285412 0.642175626 -0.50305653 -0.620053773 0.602052693 -0.561516164 -0.470171182 0.680910168 -0.556886311 -0.597233172 0.577226277 -0.5881564 -0.450142203 0.671895859 0.0562879376 0.560614593 0.826161574 -0.0116433994 0.536994333 0.843505494 0.171055522 0.541572917 0.823066695 0.14298566 0.5382473 0.830569049 0.285550714 0.508373024 0.812414708 0.283480467 0.506281677 0.814443177 0.398033413 0.45206407 0.798252766 0.39930743 0.451261431 0.798070609 0.520690328 0.358324919 0.774909565 0.481979493 0.386108521 0.786521442 0.627801433 0.225552624 0.744977432 0.525673685 0.32836747 0.784756001 0.71387247 0.0438836278 0.698899366 0.539489156 0.279456976 0.794263967 0.738692409 -0.0542432484 0.671856528 0.534430697 0.265698738 0.802364014 -0.613053746 -0.595565683 0.519101745 -0.594264818 -0.448895285 0.667339756 0.0078288801 0.783664107 0.621135473 -0.196977315 0.781229846 0.592351133 -0.0446104361 0.779880686 0.624336468 -0.27727771 0.767779832 0.577608172 -0.260845154 0.772573411 0.5788697 -0.366955632 0.749369133 0.551170996 -0.375157864 -0.371359349 0.84932256 -0.330173375 -0.415798576 0.847406093 -0.558446459 -0.26426899 0.786320198 -0.627710113 -0.29405344 0.720772217 -0.313676595 -0.44361773 0.839529811 -0.627945955 -0.382422921 0.677817518 -0.265438294 -0.475185254 0.838893012 -0.572754077 -0.43443706 0.695138266 -0.200372695 -0.493686703 0.846241232 -0.640721088 -0.511301582 0.572754031 -0.640721088 -0.511301582 0.572754031 -0.640721088 -0.511301582 0.572754031 0.240139252 0.731765705 0.637849585 0.283709142 0.72630597 0.626090057 0.473224948 0.62872286 0.617062164 0.489210036 0.626436468 0.606836792 0.623086564 0.507487529 0.595163457 0.639516482 0.497443385 0.586147377 0.711486026 0.375120244 0.594198988 0.737033733 0.334100936 0.587501354 0.767557021 0.221610679 0.601452348 0.790422194 0.135745673 0.597332293 0.790474785 0.0794549746 0.607319126 0.784153739 -0.0470508399 0.618780358 0.79026483 -0.0434651218 0.611221958 0.746466995 -0.174348146 0.642175794 0.788510617 -0.12563239 0.602052746 0.687938105 -0.251201604 0.68091036 0.795661634 -0.183661522 0.577227 0.683912569 -0.284287242 0.671896094 -0.51365077 -0.231560288 0.826161437 -0.459229316 -0.278580544 0.843505374 -0.554543871 -0.122648005 0.82306656 -0.537628838 -0.14529452 0.830568923 -0.58303947 -0.00689206607 0.812414596 -0.580193216 -0.0076393666 0.814443044 -0.590515913 0.118675448 0.798252525 -0.590457794 0.120180204 0.798070368 -0.57066399 0.271768571 0.77490932 -0.575369844 0.224352244 0.786521209 -0.509235447 0.430915599 0.744977185 -0.547211709 0.291063101 0.784755769 -0.394940882 0.596289931 0.698899148 -0.511761662 0.327483056 0.794263715 -0.322370522 0.666848049 0.671856329 -0.497317595 0.329981187 0.802363774 0.822302004 -0.233137107 0.519101632 0.685886919 -0.290200769 0.66733998 -0.682587793 -0.385051573 0.621135405 -0.578076121 -0.561202523 0.592351016 -0.65309137 -0.428574114 0.624336361 -0.526277824 -0.624019723 0.577608031 -0.538645329 -0.612185718 0.578869464 -0.46549473 -0.692477655 0.551170894 0.509185301 -0.139216211 0.849322775 0.525178511 -0.0780390678 0.847406299 0.508086672 -0.35149371 0.786320612 0.568512548 -0.396586053 0.720772492 0.541022288 -0.0498428668 0.839529971 0.645160793 -0.35260561 0.677817701 0.544241265 0.00771665967 0.838893258 0.662610476 -0.278801086 0.69513834 0.527731309 0.0733158081 0.846241371 0.763160586 -0.299229801 0.572754264 0.763160586 -0.299229801 0.572754264 0.763160586 -0.299229801 0.572754264 -0.75379752 -0.157916246 0.637849322 -0.770854174 -0.117453784 0.626089811 -0.781102666 0.0954631429 0.61706192 -0.787115095 0.110450089 0.606836556 -0.751040567 0.285865273 0.595163098 -0.750557132 0.305115941 0.586146956 -0.680606787 0.428605142 0.594198648 -0.657857071 0.471239336 0.587501118 -0.575699197 0.553918528 0.601452158 -0.512770424 0.616652858 0.59733219 -0.464047907 0.644843755 0.607318757 -0.351329946 0.702622639 0.618780006 -0.357490818 0.70612206 0.611221688 -0.222243989 0.733633499 0.642175598 -0.28545424 0.745686463 0.602052801 -0.126422437 0.721372673 0.680910298 -0.238776045 0.780894108 0.577226465 -0.0957566338 0.73442935 0.671895972 0.457362284 -0.329053871 0.826161783 0.47087216 -0.25841379 0.843505615 0.383487788 -0.418925192 0.823066704 0.394642751 -0.392952989 0.830569111 0.297488188 -0.501481005 0.81241466 0.296712253 -0.498642301 0.81444318 0.192482043 -0.570739222 0.798252719 0.191149847 -0.571441355 0.798070494 0.0499733548 -0.630093647 0.774909453 0.0933898874 -0.610460972 0.786521284 -0.118566398 -0.656468551 0.744977215 0.0215375389 -0.61943079 0.784755778 -0.318932123 -0.640173747 0.698899045 -0.0277278648 -0.606940035 0.794263785 -0.416322619 -0.612605036 0.671856046 -0.0371135961 -0.595680183 0.802363821 -0.20924853 0.828702935 0.519101625 -0.0916225403 0.739095938 0.667339872</float_array>
        <technique_common><accessor source="#vfx_kurp_0818-mesh-normals-array" count="162" stride="3"><param name="X" type="float"/><param name="Y" type="float"/><param name="Z" type="float"/></accessor></technique_common>
      </source>
      <source id="vfx_kurp_0818-mesh-uv0">
        <float_array id="vfx_kurp_0818-mesh-uv0-array" count="324">1 0.166666627 1 0.0833333135 0.5 0.166666627 0.5 0.0833333135 1 0 0.5 0 0.5 0.333333313 0.5 0.25 0 0.333333313 0 0.25 0.5 0.166666627 0 0.166666627 0.5 0.0833333135 0 0.0833333135 0.5 0 0 0.0833333135 0.5 0 0 0 0.5 0.25 1 0.25 0.5 0.333333313 1 0.333333313 0.5 0.416666627 1 0.416666627 0.5 0.5 1 0.5 0.5 0.583333313 1 0.583333313 0.5 0.666666627 1 0.666666627 0.5 0.75 1 0.75 0.5 0.833333313 1 0.833333313 0.5 0.916666687 1 0.916666687 0 0.416666627 0.5 0.416666627 0 0.5 0.5 0.5 0 0.583333313 0.5 0.583333313 0 0.666666627 0.5 0.666666627 0 0.75 0.5 0.75 0 0.833333313 0.5 0.833333313 0 0.916666687 0.5 0.916666687 0 1 0.5 1 0.5 1 1 1 1 0.166666627 1 0.0833333135 0.5 0.166666627 0.5 0.0833333135 1 0 0.5 0 0.5 0.333333313 0.5 0.25 0 0.333333313 0 0.25 0.5 0.166666627 0 0.166666627 0.5 0.0833333135 0 0.0833333135 0.5 0 0 0.0833333135 0.5 0 0 0 0.5 0.25 1 0.25 0.5 0.333333313 1 0.333333313 0.5 0.416666627 1 0.416666627 0.5 0.5 1 0.5 0.5 0.583333313 1 0.583333313 0.5 0.666666627 1 0.666666627 0.5 0.75 1 0.75 0.5 0.833333313 1 0.833333313 0.5 0.916666687 1 0.916666687 0 0.416666627 0.5 0.416666627 0 0.5 0.5 0.5 0 0.583333313 0.5 0.583333313 0 0.666666627 0.5 0.666666627 0 0.75 0.5 0.75 0 0.833333313 0.5 0.833333313 0 0.916666687 0.5 0.916666687 0 1 0.5 1 0.5 1 1 1 1 0.166666627 1 0.0833333135 0.5 0.166666627 0.5 0.0833333135 1 0 0.5 0 0.5 0.333333313 0.5 0.25 0 0.333333313 0 0.25 0.5 0.166666627 0 0.166666627 0.5 0.0833333135 0 0.0833333135 0.5 0 0 0.0833333135 0.5 0 0 0 0.5 0.25 1 0.25 0.5 0.333333313 1 0.333333313 0.5 0.416666627 1 0.416666627 0.5 0.5 1 0.5 0.5 0.583333313 1 0.583333313 0.5 0.666666627 1 0.666666627 0.5 0.75 1 0.75 0.5 0.833333313 1 0.833333313 0.5 0.916666687 1 0.916666687 0 0.416666627 0.5 0.416666627 0 0.5 0.5 0.5 0 0.583333313 0.5 0.583333313 0 0.666666627 0.5 0.666666627 0 0.75 0.5 0.75 0 0.833333313 0.5 0.833333313 0 0.916666687 0.5 0.916666687 0 1 0.5 1 0.5 1 1 1</float_array>
        <technique_common><accessor source="#vfx_kurp_0818-mesh-uv0-array" count="162" stride="2"><param name="S" type="float"/><param name="T" type="float"/></accessor></technique_common>
      </source>
      <vertices id="vfx_kurp_0818-mesh-vertices"><input semantic="POSITION" source="#vfx_kurp_0818-mesh-positions"/></vertices>
      <triangles material="PreviewMaterial" count="144">
        <input semantic="VERTEX" source="#vfx_kurp_0818-mesh-vertices" offset="0"/>
        <input semantic="NORMAL" source="#vfx_kurp_0818-mesh-normals" offset="1"/>
        <input semantic="TEXCOORD" source="#vfx_kurp_0818-mesh-uv0" offset="2" set="0"/>
        <p>0 0 0 1 1 1 2 2 2 2 2 2 1 1 1 3 3 3 4 4 4 3 3 3 1 1 1 3 3 3 4 4 4 5 5 5 6 6 6 7 7 7 8 8 8 8 8 8 7 7 7 9 9 9 10 10 10 9 9 9 7 7 7 9 9 9 10 10 10 11 11 11 12 12 12 11 11 11 10 10 10 11 11 11 12 12 12 13 13 13 14 14 14 13 13 13 12 12 12 15 15 15 16 16 16 17 17 17 18 18 18 0 0 0 2 2 2 0 0 0 18 18 18 19 19 19 20 20 20 19 19 19 18 18 18 19 19 19 20 20 20 21 21 21 22 22 22 21 21 21 20 20 20 21 21 21 22 22 22 23 23 23 24 24 24 23 23 23 22 22 22 23 23 23 24 24 24 25 25 25 26 26 26 25 25 25 24 24 24 25 25 25 26 26 26 27 27 27 28 28 28 27 27 27 26 26 26 27 27 27 28 28 28 29 29 29 30 30 30 29 29 29 28 28 28 29 29 29 30 30 30 31 31 31 32 32 32 31 31 31 30 30 30 31 31 31 32 32 32 33 33 33 34 34 34 33 33 33 32 32 32 35 35 35 33 33 33 34 34 34 36 36 36 6 6 6 8 8 8 6 6 6 36 36 36 37 37 37 38 38 38 37 37 37 36 36 36 37 37 37 38 38 38 39 39 39 40 40 40 39 39 39 38 38 38 39 39 39 40 40 40 41 41 41 42 42 42 41 41 41 40 40 40 41 41 41 42 42 42 43 43 43 44 44 44 43 43 43 42 42 42 43 43 43 44 44 44 45 45 45 46 46 46 45 45 45 44 44 44 45 45 45 46 46 46 47 47 47 48 48 48 47 47 47 46 46 46 47 47 47 48 48 48 49 49 49 50 50 50 49 49 49 48 48 48 51 51 51 49 49 49 50 50 50 34 34 34 52 52 52 35 35 35 53 53 53 35 35 35 52 52 52 54 54 54 55 55 55 56 56 56 56 56 56 55 55 55 57 57 57 58 58 58 57 57 57 55 55 55 57 57 57 58 58 58 59 59 59 60 60 60 61 61 61 62 62 62 62 62 62 61 61 61 63 63 63 64 64 64 63 63 63 61 61 61 63 63 63 64 64 64 65 65 65 66 66 66 65 65 65 64 64 64 65 65 65 66 66 66 67 67 67 68 68 68 67 67 67 66 66 66 69 69 69 70 70 70 71 71 71 72 72 72 54 54 54 56 56 56 54 54 54 72 72 72 73 73 73 74 74 74 73 73 73 72 72 72 73 73 73 74 74 74 75 75 75 76 76 76 75 75 75 74 74 74 75 75 75 76 76 76 77 77 77 78 78 78 77 77 77 76 76 76 77 77 77 78 78 78 79 79 79 80 80 80 79 79 79 78 78 78 79 79 79 80 80 80 81 81 81 82 82 82 81 81 81 80 80 80 81 81 81 82 82 82 83 83 83 84 84 84 83 83 83 82 82 82 83 83 83 84 84 84 85 85 85 86 86 86 85 85 85 84 84 84 85 85 85 86 86 86 87 87 87 88 88 88 87 87 87 86 86 86 89 89 89 87 87 87 88 88 88 90 90 90 60 60 60 62 62 62 60 60 60 90 90 90 91 91 91 92 92 92 91 91 91 90 90 90 91 91 91 92 92 92 93 93 93 94 94 94 93 93 93 92 92 92 93 93 93 94 94 94 95 95 95 96 96 96 95 95 95 94 94 94 95 95 95 96 96 96 97 97 97 98 98 98 97 97 97 96 96 96 97 97 97 98 98 98 99 99 99 100 100 100 99 99 99 98 98 98 99 99 99 100 100 100 101 101 101 102 102 102 101 101 101 100 100 100 101 101 101 102 102 102 103 103 103 104 104 104 103 103 103 102 102 102 105 105 105 103 103 103 104 104 104 88 88 88 106 106 106 89 89 89 107 107 107 89 89 89 106 106 106 108 108 108 109 109 109 110 110 110 110 110 110 109 109 109 111 111 111 112 112 112 111 111 111 109 109 109 111 111 111 112 112 112 113 113 113 114 114 114 115 115 115 116 116 116 116 116 116 115 115 115 117 117 117 118 118 118 117 117 117 115 115 115 117 117 117 118 118 118 119 119 119 120 120 120 119 119 119 118 118 118 119 119 119 120 120 120 121 121 121 122 122 122 121 121 121 120 120 120 123 123 123 124 124 124 125 125 125 126 126 126 108 108 108 110 110 110 108 108 108 126 126 126 127 127 127 128 128 128 127 127 127 126 126 126 127 127 127 128 128 128 129 129 129 130 130 130 129 129 129 128 128 128 129 129 129 130 130 130 131 131 131 132 132 132 131 131 131 130 130 130 131 131 131 132 132 132 133 133 133 134 134 134 133 133 133 132 132 132 133 133 133 134 134 134 135 135 135 136 136 136 135 135 135 134 134 134 135 135 135 136 136 136 137 137 137 138 138 138 137 137 137 136 136 136 137 137 137 138 138 138 139 139 139 140 140 140 139 139 139 138 138 138 139 139 139 140 140 140 141 141 141 142 142 142 141 141 141 140 140 140 143 143 143 141 141 141 142 142 142 144 144 144 114 114 114 116 116 116 114 114 114 144 144 144 145 145 145 146 146 146 145 145 145 144 144 144 145 145 145 146 146 146 147 147 147 148 148 148 147 147 147 146 146 146 147 147 147 148 148 148 149 149 149 150 150 150 149 149 149 148 148 148 149 149 149 150 150 150 151 151 151 152 152 152 151 151 151 150 150 150 151 151 151 152 152 152 153 153 153 154 154 154 153 153 153 152 152 152 153 153 153 154 154 154 155 155 155 156 156 156 155 155 155 154 154 154 155 155 155 156 156 156 157 157 157 158 158 158 157 157 157 156 156 156 159 159 159 157 157 157 158 158 158 142 142 142 160 160 160 143 143 143 161 161 161 143 143 143 160 160 160</p>
      </triangles>
    </mesh></geometry>
  </library_geometries>
  <library_visual_scenes>
    <visual_scene id="Scene" name="Scene">
      <node id="vfx_kurp_0818" name="vfx_kurp_0818" type="NODE">
        <instance_geometry url="#vfx_kurp_0818-mesh"><bind_material><technique_common><instance_material symbol="PreviewMaterial" target="#PreviewMaterial"><bind_vertex_input semantic="UVSET0" input_semantic="TEXCOORD" input_set="0"/></instance_material></technique_common></bind_material></instance_geometry>
      </node>
    </visual_scene>
  </library_visual_scenes>
  <scene><instance_visual_scene url="#Scene"/></scene>
</COLLADA>
