<?xml version="1.0" encoding="utf-8"?>
<COLLADA xmlns="http://www.collada.org/2005/11/COLLADASchema" version="1.4.1">
  <asset>
    <contributor><authoring_tool>Morrobroom Kurpulio VFX preview converter</authoring_tool></contributor>
    <unit name="unit" meter="1"/>
    <up_axis>Z_UP</up_axis>
  </asset>
  <library_images>
    <image id="VFXTexture" name="darkmap_newgen-1.dds">
      <init_from>../../../Textures/Kurp/darkmap_newgen-1.dds</init_from>
    </image>
  </library_images>
  <library_effects>
    <effect id="PreviewEffect">
      <profile_COMMON>
        <newparam sid="VFXTexture-surface">
          <surface type="2D"><init_from>VFXTexture</init_from></surface>
        </newparam>
        <newparam sid="VFXTexture-sampler">
          <sampler2D><source>VFXTexture-surface</source></sampler2D>
        </newparam>
        <technique sid="common"><phong>
          <emission><color>0.08 0.08 0.08 1</color></emission>
          <ambient><color>0.2 0.2 0.2 1</color></ambient>
          <diffuse><texture texture="VFXTexture-sampler" texcoord="UVSET0"/></diffuse>
          <specular><color>0.15 0.15 0.15 1</color></specular>
          <shininess><float>8</float></shininess>
          <transparent opaque="A_ONE"><texture texture="VFXTexture-sampler" texcoord="UVSET0"/></transparent>
          <transparency><float>1</float></transparency>
        </phong></technique>
      </profile_COMMON>
      <extra><technique profile="GOOGLEEARTH"><double_sided>1</double_sided></technique></extra>
    </effect>
  </library_effects>
  <library_materials><material id="PreviewMaterial" name="PreviewMaterial"><instance_effect url="#PreviewEffect"/></material></library_materials>
  <library_geometries>
    <geometry id="vfx_kurp_0241-mesh" name="vfx_kurp_0241"><mesh>
      <source id="vfx_kurp_0241-mesh-positions">
        <float_array id="vfx_kurp_0241-mesh-positions-array" count="567">-4.66090475 -1.07951308 -4.50505455 -4.23558187 -0.353424948 -5.05592276 -3.37720545 -0.919818275 -3.45847825 -3.0206617 -0.310855082 -3.91975969 -2.66258151 0.386657001 -4.2473817 -3.81132038 0.470196794 -5.44826836 -4.96005926 0.553736587 -6.64915539 -5.45050053 -0.395992449 -6.19208734 -5.9446033 -1.239206 -5.55163237 -5.06701398 -1.68389347 -3.81089416 -6.41949922 -1.94776016 -4.74356031 -5.43261134 -2.14394773 -2.99331993 -6.91120743 -2.56239107 -3.63157339 -5.72501405 -2.41714171 -2.06952816 -7.25490397 -2.87947185 -2.53255708 -5.93261005 -2.51729202 -1.09051923 -7.50193075 -2.99779772 -1.36448398 -6.03924378 -2.44199068 -0.0927048687 -7.63326829 -2.91324915 -0.168270456 -6.00745356 -2.16419363 0.873653963 -7.59662384 -2.53206878 1.20215955 -3.71452873 -1.42002763 -2.87822726 -3.95401525 -1.72550439 -2.35506648 -4.19512414 -1.95481156 -1.60649925 -4.36328972 -2.03678633 -0.816554476 -4.44521926 -1.97073222 -0.0171392749 -4.41828365 -1.79631848 0.545148375 -4.29157587 -1.45411135 1.24314268 -5.8471356 -1.72887252 1.76606697 -4.11905155 -1.13089463 1.65693894 -5.53882945 -1.14651247 2.52451943 -3.77699403 -0.606012598 2.10581226 -5.09400258 -0.462470157 3.11258644 -7.40269533 -2.00363379 2.28899117 -6.95860735 -1.16213031 3.39210012 -6.41101113 -0.318928568 4.11935967 -4.51348776 0.275932527 3.46922577 -5.55894779 0.773342107 4.66434329 -3.83091484 1.00279709 3.58458682 -4.5300979 1.8622914 4.82600578 -3.07523963 1.64895958 3.43713462 -3.37833119 2.82717001 4.57232828 -2.29236025 2.13071063 3.02910721 -2.38873249 3.43605771 4.056478 -1.54102003 2.37174968 2.40659689 -1.03649092 3.86613792 2.93665632 -0.887193593 2.30207136 1.64880401 -0.0411907502 3.7302448 1.7641662 -3.46802773 -0.221477052 2.27410824 -3.13173253 0.14330197 2.34316786 -2.77214655 0.470749917 2.30194039 -2.19598725 0.825364032 2.00173642 -2.04554866 0.877361352 1.87653707 -1.73319644 0.873897829 1.53344182 -1.49792879 0.689727413 1.17480879 -0.389215371 1.8952823 0.881379606 -1.42505712 0.519054469 1.02460735 -0.0921475585 1.16580742 0.267130164 -1.38753922 0.209937134 0.918392174 -1.35654854e-07 0.209938458 7.65963633e-08 0.719497622 3.1008379 0.587951604 1.24076193 1.81256032 -0.490347021 1.38753893 0.209939783 -0.91839189 -7.11194413 0.279792463 3.89668695 -7.57410148 -0.451306778 3.38340005 -5.67730564 -0.35285659 3.33966276 -6.06440939 -0.965526368 2.90893489 -6.37029524 -1.52739551 2.34963386 -7.93901976 -1.11864341 2.72477862 -9.50774429 -0.709891551 3.09992338 -9.0837947 0.0629103981 3.85786332 -8.54658376 0.912439836 4.45370962 -6.56237957 1.04650344 4.24624687 -7.90633622 1.80750225 4.86541499 -5.93800898 1.81776942 4.41668248 -7.05784806 2.85020054 5.08657361 -5.24984559 2.55125745 4.37250307 -6.23956902 3.71812928 5.02638742 -4.52907891 3.21430783 4.14349721 -5.37964632 4.50849688 4.75203439 -3.79791409 3.77512524 3.73907584 -4.50304684 5.18463332 4.27272484 -3.08690565 4.17346898 3.14931322 -3.49492776 5.75858335 3.44871263 -5.21842254 0.285505075 3.62707876 -4.81816989 0.78533853 3.74679136 -4.26012254 1.38438561 3.71861872 -3.67851112 1.92011879 3.53496003 -3.09278152 2.36561679 3.20542683 -2.67888373 2.58835538 2.84991419 -2.15815139 2.76699272 2.28663522 -2.42127427 4.40362103 2.43127969 -1.83876953 2.77217457 1.83560372 -1.83665205 4.42134291 1.61436543 -1.46997788 2.61993154 1.17620499 -1.35401033 4.22523938 0.754011912 -2.68439716 6.04024914 2.57592436 -1.83453457 6.07051125 1.39312694 -1.23804326 5.83054665 0.331819923 -1.00835056 3.79315335 -0.0845872842 -0.715926314 5.20551893 -0.914297457 -0.803703481 3.15842569 -0.834778284 -0.415266457 4.24382544 -2.03466658 -0.750214149 2.34518276 -1.42307052 -0.350907483 2.99313843 -2.9027384 -0.84264067 1.40560755 -1.76966203 -0.467784725 1.80543776 -3.34075367 -1.048942 0.423050299 -1.81604523 -0.837460527 0.0378294592 -3.42090981 -1.31584013 -0.49784129 -1.52054966 -1.2497281 -1.36906085 -2.93664099 -1.30077475 2.38078758 0.745122913 -1.19214069 2.07302651 0.365110766 -1.14952082 1.69722538 0.0565967022 -1.21749633 1.00577648 -0.198570864 -1.26042348 0.8082706 -0.211180406 -1.38195216 0.373378294 -0.104458265 -1.4977295 0.0222941248 0.180537727 -1.5623242 -1.24266157 -0.898546472 -1.52966024 -0.0898523299 0.38887304 -1.68350264 -1.69621017 -0.0169032307 -1.50017213 -0.131537513 0.713889412 -1.55453808 -1.77501213 0.968334755 -1.62691833 -2.50761649 -1.97763182 -1.83734495 -3.30256786 -0.422679484 -1.60890404 -3.41848648 1.2227801 -1.99646487 6.24036355 -0.173077029 -2.39806583 6.49869693 0.712100872 -1.52080186 4.82099673 0.55345572 -1.85772503 5.03703728 1.29544594 -2.27406414 5.11388737 2.03222035 -2.88881447 6.59408576 1.58522897 -3.50356461 8.07428491 1.13823768 -2.93840795 7.96035734 0.128758734 -2.4721292 7.65973112 -0.899607673 -1.69440858 5.82279442 -1.03705455 -2.11725229 7.17513771 -1.90945284 -1.50031351 5.2539439 -1.84481385 -1.86009556 6.39785883 -2.99838406 -1.43422088 4.53236793 -2.54373101 -1.78625117 5.5367854 -3.82276477 -1.47702293 3.70400303 -3.11255805 -1.83799828 4.5480469 -4.50036082 -1.62177282 2.79711799 -3.52399561 -2.00832223 3.46290058 -4.99913044 -1.87184201 1.84199212 -3.7169479 -2.35611178 2.11319637 -5.28559142 -1.2715642 4.47045112 -0.16465699 -1.14053146 4.11002936 -0.691243792 -1.08219059 3.52795046 -1.26469696 -1.11604776 2.85995935 -1.72475566 -1.23522342 2.13133558 -2.04886096 -1.38757243 1.57078797 -2.14830495 -1.63891102 0.824420647 -2.13730685 -2.19212079 0.888633888 -3.7052817 -1.84343091 0.330921323 -1.99556435 -2.56222698 -0.0117145492 -3.45660605 -2.13875717 -0.28282023 -1.63487724 -2.94766256 -0.814121398 -2.9884288 -2.74533056 0.952847224 -5.27325711 -3.28102323 -0.354350613 -4.91764757 -3.7565672 -1.34542164 -4.34198054 -3.30626531 -1.45387505 -2.30173637 -4.29080898 -2.30583581 -3.33785681 -3.59752753 -1.90028643 -1.45118968 -4.72374177 -2.96626376 -2.05454814 -3.77546933 -2.11278302 -0.485014142 -4.97689803 -3.25998697 -0.580930541 -3.79061079 -2.06508766 0.519459209 -4.99597504 -3.19960887 0.688771159 -3.6074597 -1.76877495 1.46221353 -4.66312557 -2.66623316 2.38354232 -3.20045904 -1.26491272 2.22841699 -4.01724139 -1.87681699 3.54262709 -2.32172203 -0.601914333 -1.26561564 -2.47131272 -0.834308627 -0.847832359 -2.57404043 -0.965579172 -0.389095993 -2.58524653 -0.930566741 0.35014811 -2.55179363 -0.871316274 0.540885309 -2.38367688 -0.653008487 0.914206516 -2.09721648 -0.366173244 1.14562218 -2.57921622 -0.64731402 2.71321443 -1.90908018 -0.222708283 1.17759939 -1.78302366 -0.0552667237 2.82829102 -1.6199046 -0.0865457538 1.09962555 -0.902360227 0.316444247 2.54580628 -3.06121653 -0.928455885 4.2808064 -1.65696714 0.112174871 4.47898274 -0.184815923 0.719434124 3.99198682</float_array>
        <technique_common><accessor source="#vfx_kurp_0241-mesh-positions-array" count="189" stride="3"><param name="X" type="float"/><param name="Y" type="float"/><param name="Z" type="float"/></accessor></technique_common>
      </source>
      <source id="vfx_kurp_0241-mesh-normals">
        <float_array id="vfx_kurp_0241-mesh-normals-array" count="567">0.477623975 -0.740849921 -0.472246474 0.540381074 -0.633576691 -0.553686619 0.476720659 -0.742009935 -0.471337108 0.541716091 -0.631800761 -0.554410926 0.573286663 -0.570528935 -0.588080893 0.571272151 -0.573322729 -0.587323742 0.569829581 -0.575371502 -0.586721299 0.539423169 -0.634866836 -0.553142609 0.478260869 -0.740014246 -0.47291168 0.417021758 -0.829253031 -0.372064865 0.417006343 -0.829295039 -0.371988505 0.359996146 -0.900663331 -0.243327637 0.35711362 -0.903296864 -0.237749108 0.316282192 -0.943219867 -0.101498063 0.315015319 -0.94392074 -0.0988887557 0.287664888 -0.957121127 0.0341769119 0.288136157 -0.957038233 0.0324865545 0.27149329 -0.945254519 0.181067082 0.272840084 -0.946227496 0.17381546 0.275081604 -0.907080587 0.318645446 0.275730846 -0.907627159 0.316520838 0.418497529 -0.827654415 -0.373962548 0.365000126 -0.896338933 -0.251697091 0.318190785 -0.942160909 -0.10529694 0.286927312 -0.957249283 0.0366950668 0.268605619 -0.943459567 0.194255158 0.273363775 -0.905271191 0.325201965 0.298068674 -0.845299667 0.443422529 0.297521387 -0.847893668 0.438813574 0.336893918 -0.771569972 0.539613071 0.336939546 -0.772819346 0.537793641 0.397406053 -0.679120441 0.617141682 0.392937004 -0.687455116 0.61074215 0.297042811 -0.849533542 0.435956798 0.337212476 -0.772843666 0.537587588 0.390721141 -0.691206036 0.607923684 0.456262265 -0.604941911 0.652587182 0.456075906 -0.605827211 0.651895819 0.523158905 -0.533279058 0.664769288 0.526423751 -0.5298416 0.664940534 0.587302509 -0.478815856 0.652542058 0.589957903 -0.476366617 0.651939045 0.634630276 -0.448678086 0.629231585 0.633184384 -0.449454345 0.63013358 0.656142586 -0.439208771 0.613655084 0.655678852 -0.439391215 0.614020035 0.648274778 -0.434477984 0.625274895 0.647645487 -0.434349397 0.626015914 0.456308364 -0.602844416 0.654493152 0.513979557 -0.543725732 0.663466159 0.580571414 -0.485865535 0.65335405 0.639297186 -0.445883988 0.626487492 0.659800945 -0.437195777 0.611164926 0.650293839 -0.434706726 0.623015237 0.61659325 -0.401721572 0.677076468 0.613648997 -0.398809216 0.681458816 0.578165465 -0.294134196 0.761058322 0.571186845 -0.273990514 0.773740775 0.553145092 -0.198335462 0.809131356 0.54519673 -0.174441105 0.81995782 0.613706116 -0.398980531 0.681307082 0.569934708 -0.268911532 0.776441251 0.54393381 -0.16967699 0.821794214 0.0869972407 -0.540453731 0.836863934 0.0186335261 -0.648423382 0.761051844 0.0876482367 -0.53907747 0.837683274 0.0181538625 -0.650168223 0.75957338 -0.0126175478 -0.701970448 0.712094297 -0.0121298581 -0.699483092 0.714546199 -0.0117167793 -0.697666467 0.716326893 0.0190023184 -0.647157492 0.762119474 0.0865131772 -0.541437928 0.836277729 0.165690512 -0.427914771 0.888501887 0.165757731 -0.427859039 0.888516189 0.263951744 -0.307078714 0.914347932 0.267860925 -0.30154819 0.915051481 0.370382748 -0.195405375 0.908093255 0.372085249 -0.192960921 0.907919958 0.470351965 -0.103646212 0.876371207 0.469191682 -0.104876812 0.876846634 0.577508141 -0.0207818519 0.816120372 0.572611691 -0.0252958481 0.819436374 0.678698135 0.0369283861 0.733488334 0.677471925 0.035420339 0.734695304 0.16438654 -0.43032056 0.887581704 0.258307223 -0.316015935 0.912913636 0.367923707 -0.199025258 0.908306717 0.472064295 -0.101781571 0.87566878 0.586187176 -0.0121959968 0.810083855 0.682585535 0.0413176453 0.729636786 0.771763954 0.0684892139 0.632210113 0.768573911 0.0671038803 0.636232044 0.845811731 0.0709929769 0.528736714 0.844752978 0.0702497297 0.530525572 0.909658504 0.0432134276 0.4131029 0.904869887 0.045145663 0.423287558 0.766537449 0.0663703847 0.638760763 0.844729291 0.0699176032 0.530607156 0.902663023 0.0462220557 0.427858607 0.944341343 -0.000843398314 0.328966134 0.943966492 -0.000893802018 0.330040092 0.964973923 -0.0626883132 0.254745959 0.96565704 -0.0659015689 0.251323428 0.969868582 -0.131527958 0.205073964 0.96993186 -0.134450543 0.202867542 0.965061152 -0.187815209 0.182708566 0.965316425 -0.186024131 0.183191763 0.960168939 -0.215217094 0.178205531 0.960291218 -0.214615318 0.178272383 0.964185761 -0.203462285 0.170143811 0.96443282 -0.202578646 0.169797611 0.945250019 -0.000252826193 0.326346958 0.962633176 -0.0539425788 0.265381928 0.969391619 -0.124349621 0.211700404 0.96428216 -0.193555311 0.180821062 0.959339346 -0.219855374 0.177007441 0.96343095 -0.20626563 0.171041788 0.980123512 -0.155577867 0.123099266 0.981296459 -0.151317072 0.118997489 0.99531836 -0.0965258709 -0.00491111217 0.995808634 -0.0871156877 -0.027857165 0.991796926 -0.0647264654 -0.110224055 0.989128289 -0.0558725892 -0.1360275 0.98125567 -0.151416186 0.119207586 0.99578173 -0.0854215035 -0.0334949572 0.988495227 -0.0545409432 -0.141076117 0.892528306 0.402667318 0.20310651 0.833156304 0.440910616 0.333838887 0.893057282 0.402300326 0.201502203 0.832304903 0.440865938 0.336014542 0.79591878 0.452135423 0.402600118 0.79731096 0.452533937 0.399384862 0.798348071 0.452770919 0.397037596 0.833780341 0.440922644 0.332261291 0.892140554 0.402945632 0.204254863 0.936146068 0.343241955 0.0762594257 0.936172721 0.343182563 0.076199509 0.966087122 0.253327524 -0.0500083799 0.966779934 0.249491763 -0.0555915489 0.977354119 0.142257573 -0.156657936 0.977259159 0.140351951 -0.1589524 0.971517562 0.027413331 -0.235376581 0.971725799 0.0288211604 -0.234346563 0.949295364 -0.106061461 -0.29595486 0.951001695 -0.0995891085 -0.292707679 0.91441591 -0.241514806 -0.324829405 0.915269514 -0.239659717 -0.32379768 0.9355494 0.34427286 0.0788892823 0.965063973 0.258800919 -0.0409098149 0.977491034 0.1450049 -0.153247701 0.971193658 0.0253284048 -0.236941662 0.945951129 -0.117693375 -0.302199819 0.911818308 -0.247352297 -0.327725821 0.869128438 -0.37514593 -0.322306205 0.871222169 -0.370258468 -0.322305132 0.822162863 -0.489222107 -0.291049748 0.823315155 -0.487342216 -0.290946249 0.770318215 -0.595980648 -0.226752983 0.775469607 -0.587227289 -0.231971981 0.872478006 -0.367178558 -0.322431444 0.823478059 -0.487235287 -0.290664172 0.777684095 -0.583278539 -0.234507129 0.734572945 -0.660069106 -0.157198488 0.735264487 -0.659222609 -0.157517256 0.705636021 -0.70470452 -0.0739550215 0.70428687 -0.70647895 -0.0697674525 0.690857271 -0.722949424 0.00776919793 0.690079586 -0.723645584 0.0112797984 0.689028151 -0.721491762 0.068482437 0.68895389 -0.721736326 0.0666274218 0.691989644 -0.715512139 0.0958786286 0.691906252 -0.715671696 0.0952877894 0.683656318 -0.724527878 0.0875979045 0.683210915 -0.725033647 0.0868853114 0.732729856 -0.662195328 -0.156857596 0.710128001 -0.698824934 -0.0858017048 0.693575904 -0.720382437 -0.00126874246 0.689013353 -0.720904579 0.0745465448 0.69214054 -0.714707515 0.100670952 0.684922757 -0.723044756 0.0899282921 0.638100734 -0.767693926 0.0589363083 0.63399256 -0.771282205 0.056366597 0.523538765 -0.850609953 0.0486812998 0.502277183 -0.86337135 0.0480368908 0.426828433 -0.902559198 0.0566072673 0.401883894 -0.913874969 0.057635731 0.634173388 -0.771132105 0.0563860903 0.497183097 -0.866291186 0.0484618296 0.397079704 -0.915935929 0.0582158227</float_array>
        <technique_common><accessor source="#vfx_kurp_0241-mesh-normals-array" count="189" stride="3"><param name="X" type="float"/><param name="Y" type="float"/><param name="Z" type="float"/></accessor></technique_common>
      </source>
      <source id="vfx_kurp_0241-mesh-uv0">
        <float_array id="vfx_kurp_0241-mesh-uv0-array" count="378">0.5 0.0999999642 0.5 0.0500000119 0 0.0999999642 0 0.0500000119 0 0 0.5 0 1 0 1 0.0500000119 1 0.0999999642 0.5 0.149999976 1 0.149999976 0.5 0.199999988 1 0.199999988 0.5 0.25 1 0.25 0.5 0.300000012 1 0.300000012 0.5 0.349999964 1 0.349999964 0.5 0.399999976 1 0.399999976 0 0.149999976 0 0.199999988 0 0.25 0 0.300000012 0 0.349999964 0 0.399999976 0 0.449999988 0.5 0.449999988 0 0.5 0.5 0.5 0 0.549999952 0.5 0.549999952 1 0.449999988 1 0.5 1 0.549999952 0.5 0.600000024 1 0.600000024 0.5 0.649999976 1 0.649999976 0.5 0.699999988 1 0.699999988 0.5 0.75 1 0.75 0.5 0.800000012 1 0.800000012 0.5 0.850000024 1 0.850000024 0 0.600000024 0 0.649999976 0 0.699999988 0 0.75 0 0.800000012 0 0.850000024 0 0.899999976 0.5 0.899999976 0 0.949999988 0.5 0.949999988 0 1 0.5 1 1 0.899999976 1 0.949999988 1 1 0.5 0.0999999642 0.5 0.0500000119 0 0.0999999642 0 0.0500000119 0 0 0.5 0 1 0 1 0.0500000119 1 0.0999999642 0.5 0.149999976 1 0.149999976 0.5 0.199999988 1 0.199999988 0.5 0.25 1 0.25 0.5 0.300000012 1 0.300000012 0.5 0.349999964 1 0.349999964 0.5 0.399999976 1 0.399999976 0 0.149999976 0 0.199999988 0 0.25 0 0.300000012 0 0.349999964 0 0.399999976 0 0.449999988 0.5 0.449999988 0 0.5 0.5 0.5 0 0.549999952 0.5 0.549999952 1 0.449999988 1 0.5 1 0.549999952 0.5 0.600000024 1 0.600000024 0.5 0.649999976 1 0.649999976 0.5 0.699999988 1 0.699999988 0.5 0.75 1 0.75 0.5 0.800000012 1 0.800000012 0.5 0.850000024 1 0.850000024 0 0.600000024 0 0.649999976 0 0.699999988 0 0.75 0 0.800000012 0 0.850000024 0 0.899999976 0.5 0.899999976 0 0.949999988 0.5 0.949999988 0 1 0.5 1 1 0.899999976 1 0.949999988 1 1 0.5 0.0999999642 0.5 0.0500000119 0 0.0999999642 0 0.0500000119 0 0 0.5 0 1 0 1 0.0500000119 1 0.0999999642 0.5 0.149999976 1 0.149999976 0.5 0.199999988 1 0.199999988 0.5 0.25 1 0.25 0.5 0.300000012 1 0.300000012 0.5 0.349999964 1 0.349999964 0.5 0.399999976 1 0.399999976 0 0.149999976 0 0.199999988 0 0.25 0 0.300000012 0 0.349999964 0 0.399999976 0 0.449999988 0.5 0.449999988 0 0.5 0.5 0.5 0 0.549999952 0.5 0.549999952 1 0.449999988 1 0.5 1 0.549999952 0.5 0.600000024 1 0.600000024 0.5 0.649999976 1 0.649999976 0.5 0.699999988 1 0.699999988 0.5 0.75 1 0.75 0.5 0.800000012 1 0.800000012 0.5 0.850000024 1 0.850000024 0 0.600000024 0 0.649999976 0 0.699999988 0 0.75 0 0.800000012 0 0.850000024 0 0.899999976 0.5 0.899999976 0 0.949999988 0.5 0.949999988 0 1 0.5 1 1 0.899999976 1 0.949999988 1 1</float_array>
        <technique_common><accessor source="#vfx_kurp_0241-mesh-uv0-array" count="189" stride="2"><param name="S" type="float"/><param name="T" type="float"/></accessor></technique_common>
      </source>
      <vertices id="vfx_kurp_0241-mesh-vertices"><input semantic="POSITION" source="#vfx_kurp_0241-mesh-positions"/></vertices>
      <triangles material="PreviewMaterial" count="240">
        <input semantic="VERTEX" source="#vfx_kurp_0241-mesh-vertices" offset="0"/>
        <input semantic="NORMAL" source="#vfx_kurp_0241-mesh-normals" offset="1"/>
        <input semantic="TEXCOORD" source="#vfx_kurp_0241-mesh-uv0" offset="2" set="0"/>
        <p>0 0 0 1 1 1 2 2 2 3 3 3 2 2 2 1 1 1 4 4 4 3 3 3 5 5 5 1 1 1 5 5 5 3 3 3 5 5 5 1 1 1 6 6 6 6 6 6 1 1 1 7 7 7 0 0 0 7 7 7 1 1 1 7 7 7 0 0 0 8 8 8 9 9 9 8 8 8 0 0 0 8 8 8 9 9 9 10 10 10 11 11 11 10 10 10 9 9 9 10 10 10 11 11 11 12 12 12 13 13 13 12 12 12 11 11 11 12 12 12 13 13 13 14 14 14 15 15 15 14 14 14 13 13 13 14 14 14 15 15 15 16 16 16 17 17 17 16 16 16 15 15 15 16 16 16 17 17 17 18 18 18 19 19 19 18 18 18 17 17 17 18 18 18 19 19 19 20 20 20 21 21 21 0 0 0 2 2 2 0 0 0 21 21 21 9 9 9 22 22 22 9 9 9 21 21 21 9 9 9 22 22 22 11 11 11 23 23 23 11 11 11 22 22 22 11 11 11 23 23 23 13 13 13 24 24 24 13 13 13 23 23 23 13 13 13 24 24 24 15 15 15 25 25 25 15 15 15 24 24 24 15 15 15 25 25 25 17 17 17 26 26 26 17 17 17 25 25 25 17 17 17 26 26 26 19 19 19 27 27 27 19 19 19 26 26 26 19 19 19 27 27 27 28 28 28 29 29 29 28 28 28 27 27 27 28 28 28 29 29 29 30 30 30 31 31 31 30 30 30 29 29 29 32 32 32 30 30 30 31 31 31 19 19 19 28 28 28 20 20 20 20 20 20 28 28 28 33 33 33 30 30 30 33 33 33 28 28 28 33 33 33 30 30 30 34 34 34 32 32 32 34 34 34 30 30 30 34 34 34 32 32 32 35 35 35 36 36 36 35 35 35 32 32 32 35 35 35 36 36 36 37 37 37 38 38 38 37 37 37 36 36 36 37 37 37 38 38 38 39 39 39 40 40 40 39 39 39 38 38 38 39 39 39 40 40 40 41 41 41 42 42 42 41 41 41 40 40 40 41 41 41 42 42 42 43 43 43 44 44 44 43 43 43 42 42 42 43 43 43 44 44 44 45 45 45 46 46 46 45 45 45 44 44 44 45 45 45 46 46 46 47 47 47 48 48 48 32 32 32 31 31 31 32 32 32 48 48 48 36 36 36 49 49 49 36 36 36 48 48 48 36 36 36 49 49 49 38 38 38 50 50 50 38 38 38 49 49 49 38 38 38 50 50 50 40 40 40 51 51 51 40 40 40 50 50 50 40 40 40 51 51 51 42 42 42 52 52 52 42 42 42 51 51 51 42 42 42 52 52 52 44 44 44 53 53 53 44 44 44 52 52 52 44 44 44 53 53 53 46 46 46 54 54 54 46 46 46 53 53 53 46 46 46 54 54 54 55 55 55 56 56 56 55 55 55 54 54 54 55 55 55 56 56 56 57 57 57 58 58 58 57 57 57 56 56 56 59 59 59 57 57 57 58 58 58 46 46 46 55 55 55 47 47 47 47 47 47 55 55 55 60 60 60 57 57 57 60 60 60 55 55 55 60 60 60 57 57 57 61 61 61 59 59 59 61 61 61 57 57 57 61 61 61 59 59 59 62 62 62 63 63 63 64 64 64 65 65 65 66 66 66 65 65 65 64 64 64 67 67 67 66 66 66 68 68 68 64 64 64 68 68 68 66 66 66 68 68 68 64 64 64 69 69 69 69 69 69 64 64 64 70 70 70 63 63 63 70 70 70 64 64 64 70 70 70 63 63 63 71 71 71 72 72 72 71 71 71 63 63 63 71 71 71 72 72 72 73 73 73 74 74 74 73 73 73 72 72 72 73 73 73 74 74 74 75 75 75 76 76 76 75 75 75 74 74 74 75 75 75 76 76 76 77 77 77 78 78 78 77 77 77 76 76 76 77 77 77 78 78 78 79 79 79 80 80 80 79 79 79 78 78 78 79 79 79 80 80 80 81 81 81 82 82 82 81 81 81 80 80 80 81 81 81 82 82 82 83 83 83 84 84 84 63 63 63 65 65 65 63 63 63 84 84 84 72 72 72 85 85 85 72 72 72 84 84 84 72 72 72 85 85 85 74 74 74 86 86 86 74 74 74 85 85 85 74 74 74 86 86 86 76 76 76 87 87 87 76 76 76 86 86 86 76 76 76 87 87 87 78 78 78 88 88 88 78 78 78 87 87 87 78 78 78 88 88 88 80 80 80 89 89 89 80 80 80 88 88 88 80 80 80 89 89 89 82 82 82 90 90 90 82 82 82 89 89 89 82 82 82 90 90 90 91 91 91 92 92 92 91 91 91 90 90 90 91 91 91 92 92 92 93 93 93 94 94 94 93 93 93 92 92 92 95 95 95 93 93 93 94 94 94 82 82 82 91 91 91 83 83 83 83 83 83 91 91 91 96 96 96 93 93 93 96 96 96 91 91 91 96 96 96 93 93 93 97 97 97 95 95 95 97 97 97 93 93 93 97 97 97 95 95 95 98 98 98 99 99 99 98 98 98 95 95 95 98 98 98 99 99 99 100 100 100 101 101 101 100 100 100 99 99 99 100 100 100 101 101 101 102 102 102 103 103 103 102 102 102 101 101 101 102 102 102 103 103 103 104 104 104 105 105 105 104 104 104 103 103 103 104 104 104 105 105 105 106 106 106 107 107 107 106 106 106 105 105 105 106 106 106 107 107 107 108 108 108 109 109 109 108 108 108 107 107 107 108 108 108 109 109 109 110 110 110 111 111 111 95 95 95 94 94 94 95 95 95 111 111 111 99 99 99 112 112 112 99 99 99 111 111 111 99 99 99 112 112 112 101 101 101 113 113 113 101 101 101 112 112 112 101 101 101 113 113 113 103 103 103 114 114 114 103 103 103 113 113 113 103 103 103 114 114 114 105 105 105 115 115 115 105 105 105 114 114 114 105 105 105 115 115 115 107 107 107 116 116 116 107 107 107 115 115 115 107 107 107 116 116 116 109 109 109 117 117 117 109 109 109 116 116 116 109 109 109 117 117 117 118 118 118 119 119 119 118 118 118 117 117 117 118 118 118 119 119 119 120 120 120 121 121 121 120 120 120 119 119 119 122 122 122 120 120 120 121 121 121 109 109 109 118 118 118 110 110 110 110 110 110 118 118 118 123 123 123 120 120 120 123 123 123 118 118 118 123 123 123 120 120 120 124 124 124 122 122 122 124 124 124 120 120 120 124 124 124 122 122 122 125 125 125 126 126 126 127 127 127 128 128 128 129 129 129 128 128 128 127 127 127 130 130 130 129 129 129 131 131 131 127 127 127 131 131 131 129 129 129 131 131 131 127 127 127 132 132 132 132 132 132 127 127 127 133 133 133 126 126 126 133 133 133 127 127 127 133 133 133 126 126 126 134 134 134 135 135 135 134 134 134 126 126 126 134 134 134 135 135 135 136 136 136 137 137 137 136 136 136 135 135 135 136 136 136 137 137 137 138 138 138 139 139 139 138 138 138 137 137 137 138 138 138 139 139 139 140 140 140 141 141 141 140 140 140 139 139 139 140 140 140 141 141 141 142 142 142 143 143 143 142 142 142 141 141 141 142 142 142 143 143 143 144 144 144 145 145 145 144 144 144 143 143 143 144 144 144 145 145 145 146 146 146 147 147 147 126 126 126 128 128 128 126 126 126 147 147 147 135 135 135 148 148 148 135 135 135 147 147 147 135 135 135 148 148 148 137 137 137 149 149 149 137 137 137 148 148 148 137 137 137 149 149 149 139 139 139 150 150 150 139 139 139 149 149 149 139 139 139 150 150 150 141 141 141 151 151 151 141 141 141 150 150 150 141 141 141 151 151 151 143 143 143 152 152 152 143 143 143 151 151 151 143 143 143 152 152 152 145 145 145 153 153 153 145 145 145 152 152 152 145 145 145 153 153 153 154 154 154 155 155 155 154 154 154 153 153 153 154 154 154 155 155 155 156 156 156 157 157 157 156 156 156 155 155 155 158 158 158 156 156 156 157 157 157 145 145 145 154 154 154 146 146 146 146 146 146 154 154 154 159 159 159 156 156 156 159 159 159 154 154 154 159 159 159 156 156 156 160 160 160 158 158 158 160 160 160 156 156 156 160 160 160 158 158 158 161 161 161 162 162 162 161 161 161 158 158 158 161 161 161 162 162 162 163 163 163 164 164 164 163 163 163 162 162 162 163 163 163 164 164 164 165 165 165 166 166 166 165 165 165 164 164 164 165 165 165 166 166 166 167 167 167 168 168 168 167 167 167 166 166 166 167 167 167 168 168 168 169 169 169 170 170 170 169 169 169 168 168 168 169 169 169 170 170 170 171 171 171 172 172 172 171 171 171 170 170 170 171 171 171 172 172 172 173 173 173 174 174 174 158 158 158 157 157 157 158 158 158 174 174 174 162 162 162 175 175 175 162 162 162 174 174 174 162 162 162 175 175 175 164 164 164 176 176 176 164 164 164 175 175 175 164 164 164 176 176 176 166 166 166 177 177 177 166 166 166 176 176 176 166 166 166 177 177 177 168 168 168 178 178 178 168 168 168 177 177 177 168 168 168 178 178 178 170 170 170 179 179 179 170 170 170 178 178 178 170 170 170 179 179 179 172 172 172 180 180 180 172 172 172 179 179 179 172 172 172 180 180 180 181 181 181 182 182 182 181 181 181 180 180 180 181 181 181 182 182 182 183 183 183 184 184 184 183 183 183 182 182 182 185 185 185 183 183 183 184 184 184 172 172 172 181 181 181 173 173 173 173 173 173 181 181 181 186 186 186 183 183 183 186 186 186 181 181 181 186 186 186 183 183 183 187 187 187 185 185 185 187 187 187 183 183 183 187 187 187 185 185 185 188 188 188</p>
      </triangles>
    </mesh></geometry>
  </library_geometries>
  <library_visual_scenes>
    <visual_scene id="Scene" name="Scene">
      <node id="vfx_kurp_0241" name="vfx_kurp_0241" type="NODE">
        <instance_geometry url="#vfx_kurp_0241-mesh"><bind_material><technique_common><instance_material symbol="PreviewMaterial" target="#PreviewMaterial"><bind_vertex_input semantic="UVSET0" input_semantic="TEXCOORD" input_set="0"/></instance_material></technique_common></bind_material></instance_geometry>
      </node>
    </visual_scene>
  </library_visual_scenes>
  <scene><instance_visual_scene url="#Scene"/></scene>
</COLLADA>
