<?xml version="1.0" encoding="utf-8"?>
<COLLADA xmlns="http://www.collada.org/2005/11/COLLADASchema" version="1.4.1">
  <asset>
    <contributor><authoring_tool>Morrobroom Kurpulio VFX preview converter</authoring_tool></contributor>
    <unit name="unit" meter="1"/>
    <up_axis>Z_UP</up_axis>
  </asset>
  <library_images>
    <image id="VFXTexture" name="darkmap_newgen-1.dds">
      <init_from>../../../Textures/Kurp/darkmap_newgen-1.dds</init_from>
    </image>
  </library_images>
  <library_effects>
    <effect id="PreviewEffect">
      <profile_COMMON>
        <newparam sid="VFXTexture-surface">
          <surface type="2D"><init_from>VFXTexture</init_from></surface>
        </newparam>
        <newparam sid="VFXTexture-sampler">
          <sampler2D><source>VFXTexture-surface</source></sampler2D>
        </newparam>
        <technique sid="common"><phong>
          <emission><color>0.08 0.08 0.08 1</color></emission>
          <ambient><color>0.2 0.2 0.2 1</color></ambient>
          <diffuse><texture texture="VFXTexture-sampler" texcoord="UVSET0"/></diffuse>
          <specular><color>0.15 0.15 0.15 1</color></specular>
          <shininess><float>8</float></shininess>
          <transparent opaque="A_ONE"><texture texture="VFXTexture-sampler" texcoord="UVSET0"/></transparent>
          <transparency><float>1</float></transparency>
        </phong></technique>
      </profile_COMMON>
      <extra><technique profile="GOOGLEEARTH"><double_sided>1</double_sided></technique></extra>
    </effect>
  </library_effects>
  <library_materials><material id="PreviewMaterial" name="PreviewMaterial"><instance_effect url="#PreviewEffect"/></material></library_materials>
  <library_geometries>
    <geometry id="vfx_kurp_0846-mesh" name="vfx_kurp_0846"><mesh>
      <source id="vfx_kurp_0846-mesh-positions">
        <float_array id="vfx_kurp_0846-mesh-positions-array" count="468">-0.990178588 -2.92938882 -1.72887349 -0.843961715 -1.87694408 -1.80661765 -0.346812729 -3.23888525 -2.02922348 -0.17662519 -2.18200612 -2.01970073 0.408763027 -3.54951904 -2.07805181 0.553261445 -2.48899186 -1.97753826 1.13322439 -3.84235506 -1.85912581 1.20629829 -2.77961989 -1.68942913 1.7569257 -4.13176543 -1.36366224 1.73233085 -3.07190611 -1.16140695 2.18100159 -4.40960467 -0.66964461 2.048398 -3.35769499 -0.480333771 2.34902253 -4.67617634 0.144528822 2.11752313 -3.63761149 0.273272043 2.23403156 -4.93197161 0.986837872 1.93209839 -3.91238422 1.01320039 -0.952878649 -1.08506961 -2.19554639 -0.0894618723 -1.37338194 -2.41071917 0.752537541 -1.63855923 -2.29350426 1.52528005 -1.90948842 -1.86805773 2.0617028 -2.16198527 -1.21317961 2.34059289 -2.41107103 -0.418032161 2.33483243 -2.65795202 0.420014142 2.05235739 -2.9039336 1.20316599 -1.63278179 -0.805080173 -1.68975847 -1.3885062 -1.55480886 -1.34021047 -2.08656157 -0.498363499 -0.926380426 -1.70692271 -1.2352359 -0.732290337 -2.19093031 -0.20375404 -0.0960372683 -1.75019962 -0.899014007 -0.033270207 -1.93856251 0.120603429 0.742769792 -1.52136752 -0.56579757 0.594925051 -1.36228874 0.453967 1.3891472 -1.06227297 -0.226017885 1.06889464 -0.623331417 0.771845222 1.7086984 -0.433678235 0.130866028 1.29794491 0.213244057 1.12518624 1.67086963 0.198008448 0.486310335 1.22594918 0.922261565 1.49149204 1.26679587 0.715793553 0.85168954 0.883326993 1.35352316 1.90012895 0.555607021 0.99657206 1.21847808 0.368898896 0.969718126 0.21240678 0.174278017 0.780622943 -0.147200131 0.684268927 0.339543866 -0.515443958 1.07611099 -0.242451718 -0.874267427 1.22816242 -0.880479028 -1.24482675 1.08339765 -1.36908571 -1.58872898 0.694341747 -1.66574274 -1.9266154 0.128496511 -1.70954773 -2.2743626 -0.563927154 -1.47730465 -2.59895099 -1.19380596 0.986716191 1.61134391 -0.216358575 0.885052772 0.607950033 -0.391691272 0.688844991 2.02266847 -0.695438816 0.524523457 1.02210926 -0.826927952 0.214282131 2.44272809 -0.918544548 0.00929774757 1.44283228 -0.984921197 -0.281255494 2.88576396 -0.84221061 -0.515412371 1.89696059 -0.828596208 -0.617179762 3.35501387 -0.501998876 -0.853386323 2.39246292 -0.380881931 -0.660328339 3.85401407 -0.0504493809 -0.83826722 2.93843164 0.194782203 -0.414898819 4.37102211 0.281519546 -0.426440316 3.56833029 0.639196696 -0.0333886102 4.93503723 0.337397619 0.199184905 4.31089432 0.665231882 0.223888665 5.55719533 0.105050444 0.635242113 5.26188743 0.185929407 -0.055493009 6.28072313 0.185865971 -0.244066853 5.8312802 0.277281249 -0.565497057 5.30354049 0.173485999 -0.781441954 4.75906233 -0.208609678 -0.684629772 4.21974985 -0.722185294 -0.242291763 3.69970371 -1.11332404 0.407181238 3.20163709 -1.17538843 1.02852599 2.72686433 -0.833316159 1.37270571 2.30213868 -0.19981642 0.941559318 -2.92938948 1.5990854 0.795341441 -1.87694495 1.67682985 0.298193606 -3.23888681 1.89943535 0.128005088 -2.18200785 1.889913 -0.457381943 -3.54952105 1.94826351 -0.601881374 -2.48899383 1.84775025 -1.18184315 -3.84235718 1.72933746 -1.25491794 -2.77962219 1.55964094 -1.80554418 -4.13176775 1.23387383 -1.78095046 -3.07190805 1.03161872 -2.22961981 -4.4096064 0.539856019 -2.09701746 -3.35769647 0.350545413 -2.39764097 -4.6761773 -0.274317559 -2.16614232 -3.63761231 -0.403060552 -2.28264951 -4.93197204 -1.11662679 -1.98071708 -3.91238438 -1.14298917 0.904257679 -1.08507084 2.06575869 0.0408410254 -1.37338386 2.28093165 -0.80115828 -1.63856167 2.16371667 -1.57390065 -1.90949103 1.73826984 -2.11032316 -2.16198749 1.08339163 -2.38921325 -2.41107283 0.288244013 -2.38345232 -2.65795338 -0.549802432 -2.10097704 -2.90393375 -1.33295445 1.58416061 -0.805080301 1.55997084 1.33988574 -1.55480891 1.21042259 2.0379401 -0.49836266 0.796592837 1.65830194 -1.23523507 0.602502494 2.14230856 -0.203752401 -0.0337503649 1.70157853 -0.899012619 -0.0965176044 1.88994045 0.120605597 -0.872557413 1.47274612 -0.565795781 -0.724712897 1.31366636 0.4539693 -1.51893479 1.01365124 -0.226016057 -1.1986824 0.574708677 0.771847243 -1.83848595 0.385056076 0.130867574 -1.42773266 -0.261867223 1.12518766 -1.80065728 -0.24663102 0.48631131 -1.35573679 -0.970885111 1.49149232 -1.39658328 -0.764416548 0.851689729 -1.01311454 -1.40214716 1.90012832 -0.685394209 -1.0451954 1.21847767 -0.498686223 -1.01834057 0.212406248 -0.304065606 -0.829245045 -0.147200028 -0.814056618 -0.388165527 -0.515443173 -1.20589892 0.193830414 -0.874266064 -1.35795037 0.831858092 -1.24482499 -1.21318561 1.32046516 -1.58872722 -0.824129844 1.61712251 -1.92661395 -0.258284604 1.66092796 -2.27436164 0.434139099 1.42868506 -2.59895056 1.06401778 -1.03533985 1.61134304 0.086571389 -0.933675535 0.607949013 0.261903882 -0.737469043 2.02266723 0.565651789 -0.573146614 1.02210814 0.697140719 -0.26290651 2.44272697 0.788757615 -0.0579211927 1.4428314 0.855134057 0.232630768 2.88576326 0.712423757 0.466788558 1.89696022 0.698809141 0.568554678 3.35501376 0.372212115 0.804762097 2.39246319 0.25109494 0.611702719 3.85401443 -0.0793372758 0.789642533 2.93843225 -0.32456909 0.366272765 4.37102275 -0.41130611 0.377814969 3.56833094 -0.768983561 -0.0152380349 4.93503746 -0.46718406 -0.247810991 4.31089412 -0.795018557 -0.272515894 5.55719546 -0.23483671 -0.683869075 5.26188665 -0.31571574 0.0068651331 6.280723 -0.31565208 0.195439407 5.8312802 -0.407067478 0.516870115 5.30354086 -0.303272329 0.732815531 4.75906219 0.0788232575 0.636003922 4.21974946 0.592398855 0.193666276 3.69970266 0.983537509 -0.455806325 3.20163571 1.04560174 -1.07715065 2.72686285 0.703529346 -1.42133009 2.30213743 0.0700294044</float_array>
        <technique_common><accessor source="#vfx_kurp_0846-mesh-positions-array" count="156" stride="3"><param name="X" type="float"/><param name="Y" type="float"/><param name="Z" type="float"/></accessor></technique_common>
      </source>
      <source id="vfx_kurp_0846-mesh-normals">
        <float_array id="vfx_kurp_0846-mesh-normals-array" count="468">-0.549471108 -0.00619289085 -0.835489766 -0.556282079 -0.220234494 -0.801278364 -0.190246946 0.0180201636 -0.98157087 -0.205213274 -0.192964884 -0.959506157 0.180514844 0.047178399 -0.98244012 0.167247639 -0.161213351 -0.972645096 0.529437422 0.0770633707 -0.844841555 0.517627491 -0.128324689 -0.845928221 0.797076812 0.110403684 -0.59369991 0.796042654 -0.0926499669 -0.598107078 0.949510258 0.147625199 -0.276834011 0.959206097 -0.0516833846 -0.277943324 0.980038807 0.187685707 0.0655592226 0.997223288 -0.00829757326 0.0740058371 0.943821758 0.220596761 0.246043814 0.956376277 0.0611871013 0.28565811 -0.542985484 -0.41186147 -0.731803863 -0.211213954 -0.385708475 -0.898118944 0.148114945 -0.353367994 -0.923684483 0.494404846 -0.320390101 -0.808030959 0.767883033 -0.285938494 -0.573231912 0.931169618 -0.246583782 -0.26855089 0.976005189 -0.205222056 0.072785844 0.943073107 -0.166677531 0.287804997 -0.780170007 -0.436951949 -0.447669247 -0.823654911 -0.244835228 -0.511515688 -0.885154872 -0.456900526 -0.0879929613 -0.95396521 -0.266731068 -0.137131017 -0.832552108 -0.47436856 0.286061979 -0.918559385 -0.284357786 0.274571132 -0.622981292 -0.485499501 0.61333885 -0.718003929 -0.29722704 0.629385767 -0.294289213 -0.493391793 0.818509864 -0.375927725 -0.308044156 0.873949165 0.0960077926 -0.495662588 0.86319239 0.0606243596 -0.311550021 0.948293874 0.485501329 -0.487684562 0.725570277 0.487468001 -0.306269368 0.817663758 0.783483541 -0.469096641 0.407555988 0.815223495 -0.292038581 0.500124105 0.897214385 -0.439860503 -0.0391035211 0.961535362 -0.269150108 0.054844936 0.987342142 -0.0712174458 0.141716513 0.806221361 -0.0844664426 0.585553189 0.449448381 -0.0902564056 0.888735019 -0.00689726022 -0.0920161693 0.995733625 -0.45151791 -0.0874706033 0.887964228 -0.783770281 -0.0768101975 0.616282679 -0.969050449 -0.0632968385 0.238610012 -0.982094651 -0.0473794575 -0.18233289 -0.831045349 -0.0282494094 -0.555486812 0.870114369 -0.237971379 -0.431590788 0.934683305 -0.050384159 -0.351892818 0.53198486 -0.191986324 -0.824701982 0.628976939 -0.0179693176 -0.777216259 0.0262990408 -0.134598555 -0.990551154 0.133642463 0.0230040777 -0.990762587 -0.510253962 -0.0705018606 -0.857129151 -0.408170197 0.0694678832 -0.910258921 -0.903873784 9.77399357e-05 -0.427799221 -0.837635178 0.124747475 -0.531794486 -0.982288448 0.0746375798 0.171868079 -0.981788831 0.186759387 0.0348083811 -0.693625063 0.154480511 0.703576609 -0.769028377 0.257063594 0.585246669 -0.172916335 0.235632244 0.956335395 -0.30589421 0.337831657 0.890111512 0.354480694 0.224002366 0.907836096 0.112745719 0.405492553 0.907118621 0.36382933 0.110128792 0.924932359 0.0838735959 0.096594461 0.99178361 -0.510409093 0.0260174319 0.859538045 -0.927610676 -0.0507034292 0.370091334 -0.959139275 -0.129871593 -0.251366704 -0.631222106 -0.207992216 -0.747193342 -0.104106149 -0.281479322 -0.953903193 0.421787252 -0.348530478 -0.837031672 0.774461853 -0.403014229 -0.487635488 0.549471153 -0.0061926104 0.835489739 0.556282448 -0.220234243 0.801278176 0.190246946 0.0180199911 0.981570873 0.205213347 -0.192964958 0.959506127 -0.180514814 0.0471779309 0.982440148 -0.167247612 -0.161213921 0.972645006 -0.529437425 0.0770627614 0.844841609 -0.517627486 -0.128325381 0.845928119 -0.797076807 0.110402769 0.593700086 -0.796042531 -0.0926509122 0.598107095 -0.949510254 0.1476241 0.276834614 -0.959206018 -0.0516844026 0.277943408 -0.980038968 0.187684922 -0.0655590635 -0.997223267 -0.00829837506 -0.074006032 -0.943821871 0.220596099 -0.246043974 -0.95637628 0.061186312 -0.285658269 0.542985984 -0.411861228 0.731803628 0.211214262 -0.385708574 0.898118829 -0.148114729 -0.353368572 0.923684296 -0.494404807 -0.320390869 0.808030679 -0.767882862 -0.285939337 0.573231721 -0.93116941 -0.246584747 0.268550724 -0.976004975 -0.205222922 -0.0727862696 -0.943072923 -0.166678353 -0.287805123 0.780170482 -0.4369514 0.447668954 0.823655259 -0.244834612 0.511515422 0.88515528 -0.456899822 0.0879925211 0.953965483 -0.266730226 0.137130755 0.832552466 -0.474367687 -0.286062385 0.918559628 -0.284356806 -0.274571333 0.622981584 -0.485498672 -0.613339209 0.718004122 -0.297226285 -0.629385904 0.294289444 -0.493391189 -0.818510145 0.375927901 -0.308043632 -0.873949274 -0.0960073032 -0.495662318 -0.863192599 -0.0606240765 -0.311549805 -0.948293963 -0.485500799 -0.487684849 -0.725570439 -0.48746761 -0.306269595 -0.817663907 -0.783483036 -0.469097168 -0.40755635 -0.815223165 -0.292039198 -0.500124283 -0.897214001 -0.439861322 0.0391031107 -0.961535104 -0.269151 -0.0548450873 -0.987342083 -0.0712182907 -0.141716499 -0.806221336 -0.0844670572 -0.585553134 -0.449448233 -0.0902565648 -0.888735077 0.0068974077 -0.0920159549 -0.995733644 0.451517877 -0.0874700676 -0.887964298 0.783770299 -0.0768094128 -0.616282753 0.969050482 -0.0632959471 -0.238610115 0.982094682 -0.0473785957 0.182332947 0.831045436 -0.0282488232 0.555486711 -0.870114182 -0.237972351 0.431590629 -0.934683256 -0.0503850641 0.351892819 -0.531984863 -0.191987032 0.824701816 -0.628976915 -0.0179700477 0.777216262 -0.0262989515 -0.134598837 0.990551118 -0.133642429 0.0230037608 0.990762599 0.510253982 -0.0705016571 0.857129156 0.408170106 0.0694680625 0.910258948 0.903873818 9.8422321e-05 0.427799148 0.837635059 0.124748109 0.531794526 0.982288394 0.0746385217 -0.17186798 0.981788659 0.186760333 -0.0348081447 0.693624973 0.154481296 -0.703576525 0.76902817 0.257064429 -0.585246575 0.172916131 0.235632621 -0.956335338 0.305893738 0.337832163 -0.890111482 -0.35448103 0.22400219 -0.907836008 -0.112746574 0.405492559 -0.907118512 -0.363829369 0.110128712 -0.924932353 -0.0838736045 0.0965946357 -0.991783593 0.510409129 0.0260181315 -0.859538003 0.927610708 -0.0507025148 -0.370091379 0.95913943 -0.12987083 0.25136651 0.631222282 -0.207991957 0.747193266 0.104106251 -0.281479571 0.953903108 -0.421787124 -0.348531127 0.837031466 -0.774461528 -0.403015198 0.487635204</float_array>
        <technique_common><accessor source="#vfx_kurp_0846-mesh-normals-array" count="156" stride="3"><param name="X" type="float"/><param name="Y" type="float"/><param name="Z" type="float"/></accessor></technique_common>
      </source>
      <source id="vfx_kurp_0846-mesh-uv0">
        <float_array id="vfx_kurp_0846-mesh-uv0-array" count="312">0.75 1.27999997 0.5 1.27999997 0.75 1.24000001 0.5 1.24000001 0.75 1.20000005 0.5 1.20000005 0.75 1.16000009 0.5 1.16000009 0.75 1.12 0.5 1.12 0.75 1.08000004 0.5 1.08000004 0.75 1.03999996 0.5 1.03999996 0.75 1 0.5 1 0.25 1.27999997 0.25 1.24000001 0.25 1.20000005 0.25 1.16000009 0.25 1.12 0.25 1.08000004 0.25 1.03999996 0.25 1 0.25 1.31999993 0.5 1.31999993 0.25 1.36000001 0.5 1.36000001 0.25 1.4000001 0.5 1.4000001 0.25 1.44000006 0.5 1.44000006 0.25 1.48000002 0.5 1.48000002 0.25 1.51999998 0.5 1.51999998 0.25 1.55999994 0.5 1.55999994 0.25 1.60000002 0.5 1.60000002 0.25 1.63999999 0.5 1.63999999 0.75 1.63999999 0.75 1.60000002 0.75 1.55999994 0.75 1.51999998 0.75 1.48000002 0.75 1.44000006 0.75 1.4000001 0.75 1.36000001 0.75 1.31999993 0.5 1.68000007 0.75 1.68000007 0.5 1.72000003 0.75 1.72000003 0.5 1.75999999 0.75 1.75999999 0.5 1.79999995 0.75 1.79999995 0.5 1.84000003 0.75 1.84000003 0.5 1.88 0.75 1.88 0.5 1.92000008 0.75 1.92000008 0.5 1.96000004 0.75 1.96000004 0.5 2 0.75 2 0.25 2 0.25 1.96000004 0.25 1.92000008 0.25 1.88 0.25 1.84000003 0.25 1.79999995 0.25 1.75999999 0.25 1.72000003 0.25 1.68000007 0.75 1.27999997 0.5 1.27999997 0.75 1.24000001 0.5 1.24000001 0.75 1.20000005 0.5 1.20000005 0.75 1.16000009 0.5 1.16000009 0.75 1.12 0.5 1.12 0.75 1.08000004 0.5 1.08000004 0.75 1.03999996 0.5 1.03999996 0.75 1 0.5 1 0.25 1.27999997 0.25 1.24000001 0.25 1.20000005 0.25 1.16000009 0.25 1.12 0.25 1.08000004 0.25 1.03999996 0.25 1 0.25 1.31999993 0.5 1.31999993 0.25 1.36000001 0.5 1.36000001 0.25 1.4000001 0.5 1.4000001 0.25 1.44000006 0.5 1.44000006 0.25 1.48000002 0.5 1.48000002 0.25 1.51999998 0.5 1.51999998 0.25 1.55999994 0.5 1.55999994 0.25 1.60000002 0.5 1.60000002 0.25 1.63999999 0.5 1.63999999 0.75 1.63999999 0.75 1.60000002 0.75 1.55999994 0.75 1.51999998 0.75 1.48000002 0.75 1.44000006 0.75 1.4000001 0.75 1.36000001 0.75 1.31999993 0.5 1.68000007 0.75 1.68000007 0.5 1.72000003 0.75 1.72000003 0.5 1.75999999 0.75 1.75999999 0.5 1.79999995 0.75 1.79999995 0.5 1.84000003 0.75 1.84000003 0.5 1.88 0.75 1.88 0.5 1.92000008 0.75 1.92000008 0.5 1.96000004 0.75 1.96000004 0.5 2 0.75 2 0.25 2 0.25 1.96000004 0.25 1.92000008 0.25 1.88 0.25 1.84000003 0.25 1.79999995 0.25 1.75999999 0.25 1.72000003 0.25 1.68000007</float_array>
        <technique_common><accessor source="#vfx_kurp_0846-mesh-uv0-array" count="156" stride="2"><param name="S" type="float"/><param name="T" type="float"/></accessor></technique_common>
      </source>
      <source id="vfx_kurp_0846-mesh-colors">
        <float_array id="vfx_kurp_0846-mesh-colors-array" count="624">0.0156862754 0.607843161 0.392156899 0 0.0156862754 0.607843161 0.392156899 1 0.0156862754 0.607843161 0.392156899 0 0.0156862754 0.607843161 0.392156899 1 0.0156862754 0.607843161 0.392156899 0 0.0156862754 0.607843161 0.392156899 1 0.0156862754 0.607843161 0.392156899 0 0.0156862754 0.607843161 0.392156899 1 0.0156862754 0.607843161 0.392156899 0 0.0156862754 0.607843161 0.392156899 1 0.0156862754 0.607843161 0.392156899 0 0.0156862754 0.607843161 0.392156899 1 0.0156862754 0.607843161 0.392156899 0 0.0156862754 0.607843161 0.392156899 0.299999982 0.0156862754 0.607843161 0.392156899 0 0.0156862754 0.607843161 0.392156899 0 0.0156862754 0.607843161 0.392156899 0 0.0156862754 0.607843161 0.392156899 0 0.0156862754 0.607843161 0.392156899 0 0.0156862754 0.607843161 0.392156899 0 0.0156862754 0.607843161 0.392156899 0 0.0156862754 0.607843161 0.392156899 0 0.0156862754 0.607843161 0.392156899 0 0.0156862754 0.607843161 0.392156899 0 0.0156862754 0.607843161 0.392156899 0 0.0156862754 0.607843161 0.392156899 1 0.0156862754 0.607843161 0.392156899 0 0.0156862754 0.607843161 0.392156899 1 0.0156862754 0.607843161 0.392156899 0 0.0156862754 0.607843161 0.392156899 1 0.0156862754 0.607843161 0.392156899 0 0.0156862754 0.607843161 0.392156899 1 0.0156862754 0.607843161 0.392156899 0 0.0156862754 0.607843161 0.392156899 1 0.0156862754 0.607843161 0.392156899 0 0.0156862754 0.607843161 0.392156899 1 0.0156862754 0.607843161 0.392156899 0 0.0156862754 0.607843161 0.392156899 1 0.0156862754 0.607843161 0.392156899 0 0.0156862754 0.607843161 0.392156899 1 0.0156862754 0.607843161 0.392156899 0 0.0156862754 0.607843161 0.392156899 1 0.0156862754 0.607843161 0.392156899 0 0.0156862754 0.607843161 0.392156899 0 0.0156862754 0.607843161 0.392156899 0 0.0156862754 0.607843161 0.392156899 0 0.0156862754 0.607843161 0.392156899 0 0.0156862754 0.607843161 0.392156899 0 0.0156862754 0.607843161 0.392156899 0 0.0156862754 0.607843161 0.392156899 0 0.0156862754 0.607843161 0.392156899 0 0.0156862754 0.607843161 0.392156899 1 0.0156862754 0.607843161 0.392156899 0 0.0156862754 0.607843161 0.392156899 1 0.0156862754 0.607843161 0.392156899 0 0.0156862754 0.607843161 0.392156899 1 0.0156862754 0.607843161 0.392156899 0 0.0156862754 0.607843161 0.392156899 1 0.0156862754 0.607843161 0.392156899 0 0.0156862754 0.607843161 0.392156899 1 0.0156862754 0.607843161 0.392156899 0 0.0156862754 0.607843161 0.392156899 1 0.0156862754 0.607843161 0.392156899 0 0.0156862754 0.607843161 0.392156899 1 0.0156862754 0.607843161 0.392156899 0 0.0156862754 0.607843161 0.392156899 0.299999982 0.0156862754 0.607843161 0.392156899 0 0.0156862754 0.607843161 0.392156899 0 0.0156862754 0.607843161 0.392156899 0 0.0156862754 0.607843161 0.392156899 0 0.0156862754 0.607843161 0.392156899 0 0.0156862754 0.607843161 0.392156899 0 0.0156862754 0.607843161 0.392156899 0 0.0156862754 0.607843161 0.392156899 0 0.0156862754 0.607843161 0.392156899 0 0.0156862754 0.607843161 0.392156899 0 0.0156862754 0.607843161 0.392156899 0 0.0156862754 0.607843161 0.392156899 0 0.0156862754 0.607843161 0.392156899 0 0.0156862754 0.607843161 0.392156899 1 0.0156862754 0.607843161 0.392156899 0 0.0156862754 0.607843161 0.392156899 1 0.0156862754 0.607843161 0.392156899 0 0.0156862754 0.607843161 0.392156899 1 0.0156862754 0.607843161 0.392156899 0 0.0156862754 0.607843161 0.392156899 1 0.0156862754 0.607843161 0.392156899 0 0.0156862754 0.607843161 0.392156899 1 0.0156862754 0.607843161 0.392156899 0 0.0156862754 0.607843161 0.392156899 1 0.0156862754 0.607843161 0.392156899 0 0.0156862754 0.607843161 0.392156899 0.299999982 0.0156862754 0.607843161 0.392156899 0 0.0156862754 0.607843161 0.392156899 0 0.0156862754 0.607843161 0.392156899 0 0.0156862754 0.607843161 0.392156899 0 0.0156862754 0.607843161 0.392156899 0 0.0156862754 0.607843161 0.392156899 0 0.0156862754 0.607843161 0.392156899 0 0.0156862754 0.607843161 0.392156899 0 0.0156862754 0.607843161 0.392156899 0 0.0156862754 0.607843161 0.392156899 0 0.0156862754 0.607843161 0.392156899 0 0.0156862754 0.607843161 0.392156899 1 0.0156862754 0.607843161 0.392156899 0 0.0156862754 0.607843161 0.392156899 1 0.0156862754 0.607843161 0.392156899 0 0.0156862754 0.607843161 0.392156899 1 0.0156862754 0.607843161 0.392156899 0 0.0156862754 0.607843161 0.392156899 1 0.0156862754 0.607843161 0.392156899 0 0.0156862754 0.607843161 0.392156899 1 0.0156862754 0.607843161 0.392156899 0 0.0156862754 0.607843161 0.392156899 1 0.0156862754 0.607843161 0.392156899 0 0.0156862754 0.607843161 0.392156899 1 0.0156862754 0.607843161 0.392156899 0 0.0156862754 0.607843161 0.392156899 1 0.0156862754 0.607843161 0.392156899 0 0.0156862754 0.607843161 0.392156899 1 0.0156862754 0.607843161 0.392156899 0 0.0156862754 0.607843161 0.392156899 0 0.0156862754 0.607843161 0.392156899 0 0.0156862754 0.607843161 0.392156899 0 0.0156862754 0.607843161 0.392156899 0 0.0156862754 0.607843161 0.392156899 0 0.0156862754 0.607843161 0.392156899 0 0.0156862754 0.607843161 0.392156899 0 0.0156862754 0.607843161 0.392156899 0 0.0156862754 0.607843161 0.392156899 1 0.0156862754 0.607843161 0.392156899 0 0.0156862754 0.607843161 0.392156899 1 0.0156862754 0.607843161 0.392156899 0 0.0156862754 0.607843161 0.392156899 1 0.0156862754 0.607843161 0.392156899 0 0.0156862754 0.607843161 0.392156899 1 0.0156862754 0.607843161 0.392156899 0 0.0156862754 0.607843161 0.392156899 1 0.0156862754 0.607843161 0.392156899 0 0.0156862754 0.607843161 0.392156899 1 0.0156862754 0.607843161 0.392156899 0 0.0156862754 0.607843161 0.392156899 1 0.0156862754 0.607843161 0.392156899 0 0.0156862754 0.607843161 0.392156899 0.299999982 0.0156862754 0.607843161 0.392156899 0 0.0156862754 0.607843161 0.392156899 0 0.0156862754 0.607843161 0.392156899 0 0.0156862754 0.607843161 0.392156899 0 0.0156862754 0.607843161 0.392156899 0 0.0156862754 0.607843161 0.392156899 0 0.0156862754 0.607843161 0.392156899 0 0.0156862754 0.607843161 0.392156899 0 0.0156862754 0.607843161 0.392156899 0 0.0156862754 0.607843161 0.392156899 0 0.0156862754 0.607843161 0.392156899 0 0.0156862754 0.607843161 0.392156899 0</float_array>
        <technique_common><accessor source="#vfx_kurp_0846-mesh-colors-array" count="156" stride="4"><param name="R" type="float"/><param name="G" type="float"/><param name="B" type="float"/><param name="A" type="float"/></accessor></technique_common>
      </source>
      <vertices id="vfx_kurp_0846-mesh-vertices"><input semantic="POSITION" source="#vfx_kurp_0846-mesh-positions"/></vertices>
      <triangles material="PreviewMaterial" count="200">
        <input semantic="VERTEX" source="#vfx_kurp_0846-mesh-vertices" offset="0"/>
        <input semantic="NORMAL" source="#vfx_kurp_0846-mesh-normals" offset="1"/>
        <input semantic="TEXCOORD" source="#vfx_kurp_0846-mesh-uv0" offset="2" set="0"/>
        <input semantic="COLOR" source="#vfx_kurp_0846-mesh-colors" offset="3" set="0"/>
        <p>0 0 0 0 1 1 1 1 2 2 2 2 3 3 3 3 2 2 2 2 1 1 1 1 2 2 2 2 3 3 3 3 4 4 4 4 5 5 5 5 4 4 4 4 3 3 3 3 4 4 4 4 5 5 5 5 6 6 6 6 7 7 7 7 6 6 6 6 5 5 5 5 6 6 6 6 7 7 7 7 8 8 8 8 9 9 9 9 8 8 8 8 7 7 7 7 8 8 8 8 9 9 9 9 10 10 10 10 11 11 11 11 10 10 10 10 9 9 9 9 10 10 10 10 11 11 11 11 12 12 12 12 13 13 13 13 12 12 12 12 11 11 11 11 12 12 12 12 13 13 13 13 14 14 14 14 15 15 15 15 14 14 14 14 13 13 13 13 1 1 1 1 16 16 16 16 3 3 3 3 17 17 17 17 3 3 3 3 16 16 16 16 3 3 3 3 17 17 17 17 5 5 5 5 18 18 18 18 5 5 5 5 17 17 17 17 5 5 5 5 18 18 18 18 7 7 7 7 19 19 19 19 7 7 7 7 18 18 18 18 7 7 7 7 19 19 19 19 9 9 9 9 20 20 20 20 9 9 9 9 19 19 19 19 9 9 9 9 20 20 20 20 11 11 11 11 21 21 21 21 11 11 11 11 20 20 20 20 11 11 11 11 21 21 21 21 13 13 13 13 22 22 22 22 13 13 13 13 21 21 21 21 13 13 13 13 22 22 22 22 15 15 15 15 23 23 23 23 15 15 15 15 22 22 22 22 16 16 16 16 1 1 1 1 24 24 24 24 25 25 25 25 24 24 24 24 1 1 1 1 24 24 24 24 25 25 25 25 26 26 26 26 27 27 27 27 26 26 26 26 25 25 25 25 26 26 26 26 27 27 27 27 28 28 28 28 29 29 29 29 28 28 28 28 27 27 27 27 28 28 28 28 29 29 29 29 30 30 30 30 31 31 31 31 30 30 30 30 29 29 29 29 30 30 30 30 31 31 31 31 32 32 32 32 33 33 33 33 32 32 32 32 31 31 31 31 32 32 32 32 33 33 33 33 34 34 34 34 35 35 35 35 34 34 34 34 33 33 33 33 34 34 34 34 35 35 35 35 36 36 36 36 37 37 37 37 36 36 36 36 35 35 35 35 36 36 36 36 37 37 37 37 38 38 38 38 39 39 39 39 38 38 38 38 37 37 37 37 38 38 38 38 39 39 39 39 40 40 40 40 41 41 41 41 40 40 40 40 39 39 39 39 42 42 42 42 41 41 41 41 43 43 43 43 39 39 39 39 43 43 43 43 41 41 41 41 43 43 43 43 39 39 39 39 44 44 44 44 37 37 37 37 44 44 44 44 39 39 39 39 44 44 44 44 37 37 37 37 45 45 45 45 35 35 35 35 45 45 45 45 37 37 37 37 45 45 45 45 35 35 35 35 46 46 46 46 33 33 33 33 46 46 46 46 35 35 35 35 46 46 46 46 33 33 33 33 47 47 47 47 31 31 31 31 47 47 47 47 33 33 33 33 47 47 47 47 31 31 31 31 48 48 48 48 29 29 29 29 48 48 48 48 31 31 31 31 48 48 48 48 29 29 29 29 49 49 49 49 27 27 27 27 49 49 49 49 29 29 29 29 49 49 49 49 27 27 27 27 50 50 50 50 25 25 25 25 50 50 50 50 27 27 27 27 50 50 50 50 25 25 25 25 0 0 0 0 1 1 1 1 0 0 0 0 25 25 25 25 41 41 41 41 42 42 42 42 51 51 51 51 52 52 52 52 51 51 51 51 42 42 42 42 51 51 51 51 52 52 52 52 53 53 53 53 54 54 54 54 53 53 53 53 52 52 52 52 53 53 53 53 54 54 54 54 55 55 55 55 56 56 56 56 55 55 55 55 54 54 54 54 55 55 55 55 56 56 56 56 57 57 57 57 58 58 58 58 57 57 57 57 56 56 56 56 57 57 57 57 58 58 58 58 59 59 59 59 60 60 60 60 59 59 59 59 58 58 58 58 59 59 59 59 60 60 60 60 61 61 61 61 62 62 62 62 61 61 61 61 60 60 60 60 61 61 61 61 62 62 62 62 63 63 63 63 64 64 64 64 63 63 63 63 62 62 62 62 63 63 63 63 64 64 64 64 65 65 65 65 66 66 66 66 65 65 65 65 64 64 64 64 65 65 65 65 66 66 66 66 67 67 67 67 68 68 68 68 67 67 67 67 66 66 66 66 67 67 67 67 69 69 69 69 65 65 65 65 70 70 70 70 65 65 65 65 69 69 69 69 65 65 65 65 70 70 70 70 63 63 63 63 71 71 71 71 63 63 63 63 70 70 70 70 63 63 63 63 71 71 71 71 61 61 61 61 72 72 72 72 61 61 61 61 71 71 71 71 61 61 61 61 72 72 72 72 59 59 59 59 73 73 73 73 59 59 59 59 72 72 72 72 59 59 59 59 73 73 73 73 57 57 57 57 74 74 74 74 57 57 57 57 73 73 73 73 57 57 57 57 74 74 74 74 55 55 55 55 75 75 75 75 55 55 55 55 74 74 74 74 55 55 55 55 75 75 75 75 53 53 53 53 76 76 76 76 53 53 53 53 75 75 75 75 53 53 53 53 76 76 76 76 51 51 51 51 77 77 77 77 51 51 51 51 76 76 76 76 51 51 51 51 77 77 77 77 41 41 41 41 40 40 40 40 41 41 41 41 77 77 77 77 78 78 78 78 79 79 79 79 80 80 80 80 81 81 81 81 80 80 80 80 79 79 79 79 80 80 80 80 81 81 81 81 82 82 82 82 83 83 83 83 82 82 82 82 81 81 81 81 82 82 82 82 83 83 83 83 84 84 84 84 85 85 85 85 84 84 84 84 83 83 83 83 84 84 84 84 85 85 85 85 86 86 86 86 87 87 87 87 86 86 86 86 85 85 85 85 86 86 86 86 87 87 87 87 88 88 88 88 89 89 89 89 88 88 88 88 87 87 87 87 88 88 88 88 89 89 89 89 90 90 90 90 91 91 91 91 90 90 90 90 89 89 89 89 90 90 90 90 91 91 91 91 92 92 92 92 93 93 93 93 92 92 92 92 91 91 91 91 79 79 79 79 94 94 94 94 81 81 81 81 95 95 95 95 81 81 81 81 94 94 94 94 81 81 81 81 95 95 95 95 83 83 83 83 96 96 96 96 83 83 83 83 95 95 95 95 83 83 83 83 96 96 96 96 85 85 85 85 97 97 97 97 85 85 85 85 96 96 96 96 85 85 85 85 97 97 97 97 87 87 87 87 98 98 98 98 87 87 87 87 97 97 97 97 87 87 87 87 98 98 98 98 89 89 89 89 99 99 99 99 89 89 89 89 98 98 98 98 89 89 89 89 99 99 99 99 91 91 91 91 100 100 100 100 91 91 91 91 99 99 99 99 91 91 91 91 100 100 100 100 93 93 93 93 101 101 101 101 93 93 93 93 100 100 100 100 94 94 94 94 79 79 79 79 102 102 102 102 103 103 103 103 102 102 102 102 79 79 79 79 102 102 102 102 103 103 103 103 104 104 104 104 105 105 105 105 104 104 104 104 103 103 103 103 104 104 104 104 105 105 105 105 106 106 106 106 107 107 107 107 106 106 106 106 105 105 105 105 106 106 106 106 107 107 107 107 108 108 108 108 109 109 109 109 108 108 108 108 107 107 107 107 108 108 108 108 109 109 109 109 110 110 110 110 111 111 111 111 110 110 110 110 109 109 109 109 110 110 110 110 111 111 111 111 112 112 112 112 113 113 113 113 112 112 112 112 111 111 111 111 112 112 112 112 113 113 113 113 114 114 114 114 115 115 115 115 114 114 114 114 113 113 113 113 114 114 114 114 115 115 115 115 116 116 116 116 117 117 117 117 116 116 116 116 115 115 115 115 116 116 116 116 117 117 117 117 118 118 118 118 119 119 119 119 118 118 118 118 117 117 117 117 120 120 120 120 119 119 119 119 121 121 121 121 117 117 117 117 121 121 121 121 119 119 119 119 121 121 121 121 117 117 117 117 122 122 122 122 115 115 115 115 122 122 122 122 117 117 117 117 122 122 122 122 115 115 115 115 123 123 123 123 113 113 113 113 123 123 123 123 115 115 115 115 123 123 123 123 113 113 113 113 124 124 124 124 111 111 111 111 124 124 124 124 113 113 113 113 124 124 124 124 111 111 111 111 125 125 125 125 109 109 109 109 125 125 125 125 111 111 111 111 125 125 125 125 109 109 109 109 126 126 126 126 107 107 107 107 126 126 126 126 109 109 109 109 126 126 126 126 107 107 107 107 127 127 127 127 105 105 105 105 127 127 127 127 107 107 107 107 127 127 127 127 105 105 105 105 128 128 128 128 103 103 103 103 128 128 128 128 105 105 105 105 128 128 128 128 103 103 103 103 78 78 78 78 79 79 79 79 78 78 78 78 103 103 103 103 119 119 119 119 120 120 120 120 129 129 129 129 130 130 130 130 129 129 129 129 120 120 120 120 129 129 129 129 130 130 130 130 131 131 131 131 132 132 132 132 131 131 131 131 130 130 130 130 131 131 131 131 132 132 132 132 133 133 133 133 134 134 134 134 133 133 133 133 132 132 132 132 133 133 133 133 134 134 134 134 135 135 135 135 136 136 136 136 135 135 135 135 134 134 134 134 135 135 135 135 136 136 136 136 137 137 137 137 138 138 138 138 137 137 137 137 136 136 136 136 137 137 137 137 138 138 138 138 139 139 139 139 140 140 140 140 139 139 139 139 138 138 138 138 139 139 139 139 140 140 140 140 141 141 141 141 142 142 142 142 141 141 141 141 140 140 140 140 141 141 141 141 142 142 142 142 143 143 143 143 144 144 144 144 143 143 143 143 142 142 142 142 143 143 143 143 144 144 144 144 145 145 145 145 146 146 146 146 145 145 145 145 144 144 144 144 145 145 145 145 147 147 147 147 143 143 143 143 148 148 148 148 143 143 143 143 147 147 147 147 143 143 143 143 148 148 148 148 141 141 141 141 149 149 149 149 141 141 141 141 148 148 148 148 141 141 141 141 149 149 149 149 139 139 139 139 150 150 150 150 139 139 139 139 149 149 149 149 139 139 139 139 150 150 150 150 137 137 137 137 151 151 151 151 137 137 137 137 150 150 150 150 137 137 137 137 151 151 151 151 135 135 135 135 152 152 152 152 135 135 135 135 151 151 151 151 135 135 135 135 152 152 152 152 133 133 133 133 153 153 153 153 133 133 133 133 152 152 152 152 133 133 133 133 153 153 153 153 131 131 131 131 154 154 154 154 131 131 131 131 153 153 153 153 131 131 131 131 154 154 154 154 129 129 129 129 155 155 155 155 129 129 129 129 154 154 154 154 129 129 129 129 155 155 155 155 119 119 119 119 118 118 118 118 119 119 119 119 155 155 155 155</p>
      </triangles>
    </mesh></geometry>
  </library_geometries>
  <library_visual_scenes>
    <visual_scene id="Scene" name="Scene">
      <node id="vfx_kurp_0846" name="vfx_kurp_0846" type="NODE">
        <instance_geometry url="#vfx_kurp_0846-mesh"><bind_material><technique_common><instance_material symbol="PreviewMaterial" target="#PreviewMaterial"><bind_vertex_input semantic="UVSET0" input_semantic="TEXCOORD" input_set="0"/></instance_material></technique_common></bind_material></instance_geometry>
      </node>
    </visual_scene>
  </library_visual_scenes>
  <scene><instance_visual_scene url="#Scene"/></scene>
</COLLADA>
