<?xml version="1.0" encoding="utf-8"?>
<COLLADA xmlns="http://www.collada.org/2005/11/COLLADASchema" version="1.4.1">
  <asset>
    <contributor><authoring_tool>Morrobroom Kurpulio VFX preview converter</authoring_tool></contributor>
    <unit name="unit" meter="1"/>
    <up_axis>Z_UP</up_axis>
  </asset>
  <library_images>
    <image id="VFXTexture" name="darkmap_newgen-1.dds">
      <init_from>../../../Textures/Kurp/darkmap_newgen-1.dds</init_from>
    </image>
  </library_images>
  <library_effects>
    <effect id="PreviewEffect">
      <profile_COMMON>
        <newparam sid="VFXTexture-surface">
          <surface type="2D"><init_from>VFXTexture</init_from></surface>
        </newparam>
        <newparam sid="VFXTexture-sampler">
          <sampler2D><source>VFXTexture-surface</source></sampler2D>
        </newparam>
        <technique sid="common"><phong>
          <emission><color>0.08 0.08 0.08 1</color></emission>
          <ambient><color>0.2 0.2 0.2 1</color></ambient>
          <diffuse><texture texture="VFXTexture-sampler" texcoord="UVSET0"/></diffuse>
          <specular><color>0.15 0.15 0.15 1</color></specular>
          <shininess><float>8</float></shininess>
          <transparent opaque="A_ONE"><texture texture="VFXTexture-sampler" texcoord="UVSET0"/></transparent>
          <transparency><float>1</float></transparency>
        </phong></technique>
      </profile_COMMON>
      <extra><technique profile="GOOGLEEARTH"><double_sided>1</double_sided></technique></extra>
    </effect>
  </library_effects>
  <library_materials><material id="PreviewMaterial" name="PreviewMaterial"><instance_effect url="#PreviewEffect"/></material></library_materials>
  <library_geometries>
    <geometry id="vfx_kurp_0293-mesh" name="vfx_kurp_0293"><mesh>
      <source id="vfx_kurp_0293-mesh-positions">
        <float_array id="vfx_kurp_0293-mesh-positions-array" count="504">-0.107420996 -0.943002164 -0.997523904 -0.107420996 -0.760631084 -0.970376015 2.39035636e-08 -0.89363277 -1.88747919 1.46641508e-08 -0.548217773 -1.83601952 4.23766124e-08 -1.58424723 -1.79772472 3.33506556e-08 -1.24681222 -1.87418771 0.107421055 -1.30822229 -0.950217962 0.107421048 -1.13045073 -0.990492225 2.39035636e-08 -0.89363277 -1.88747919 0.107421041 -0.943002164 -0.997523904 1.46641508e-08 -0.548217773 -1.83601952 0.107421041 -0.760630965 -0.970376015 3.33506556e-08 -1.24681222 -1.87418771 -0.107420988 -1.13045073 -0.990492225 4.23766124e-08 -1.58424723 -1.79772472 -0.107420981 -1.30822229 -0.950217962 5.07110904e-08 -1.89583158 -1.66416347 -0.107420981 -1.47245991 -0.879807532 5.81712065e-08 -2.17472792 -1.48008192 -0.107420973 -1.6200285 -0.782395303 6.46153353e-08 -2.41564083 -1.25140274 -0.107420973 -1.74779487 -0.66111511 6.99090634e-08 -2.61354685 -0.983272016 -0.107420966 -1.85262382 -0.51910162 7.39009991e-08 -2.76278543 -0.680778444 -0.107420966 -1.93138266 -0.359488338 7.64184307e-08 -2.85689974 -0.350169748 -0.107420966 -1.98093617 -0.185409829 3.51261662e-07 -2.88947392 -2.73971978e-07 -0.107420966 -1.99815023 -2.65331408e-07 0.107421055 -1.47245991 -0.879807532 5.07110904e-08 -1.89583158 -1.66416347 0.107421063 -1.6200285 -0.782395303 5.81712065e-08 -2.17472792 -1.48008192 0.107421063 -1.74779487 -0.66111517 6.46153353e-08 -2.41564083 -1.25140274 0.10742107 -1.85262382 -0.51910162 6.99090634e-08 -2.61354685 -0.983272016 0.10742107 -1.93138266 -0.359488368 7.39009991e-08 -2.76278543 -0.680778444 0.10742107 -1.98093617 -0.185409844 7.64184307e-08 -2.85689974 -0.350169748 0.10742107 -1.99815023 -2.65331408e-07 3.51261662e-07 -2.88947392 -2.73971978e-07 0.10742107 -1.98093617 0.185409531 7.64184378e-08 -2.85689998 0.350168437 0.10742107 -1.93138266 0.3594881 7.39010062e-08 -2.76278543 0.680777788 7.64184378e-08 -2.85689998 0.350168437 -0.107420966 -1.98093617 0.185409531 7.39010062e-08 -2.76278543 0.680777788 -0.107420966 -1.93138266 0.35948807 6.99090705e-08 -2.61354733 0.98327136 -0.107420951 -1.8526243 0.519101202 6.46153353e-08 -2.41564131 1.25140214 -0.107420973 -1.74779487 0.661114872 5.81712207e-08 -2.17472839 1.48008132 -0.107420973 -1.62002885 0.782395005 5.07111011e-08 -1.89583218 1.66416299 -0.107420981 -1.47246027 0.879807234 4.87794303e-08 -1.58424866 1.7977246 -0.107420966 -1.30822289 0.950217783 3.33506449e-08 -1.24681234 1.87418771 -0.107420988 -1.13045108 0.990492105 2.39035742e-08 -0.893634021 1.88747919 -0.107420981 -0.943002582 0.997523904 0.10742107 -1.8526243 0.519101202 6.99090705e-08 -2.61354733 0.98327136 0.107421063 -1.74779487 0.661114931 6.46153353e-08 -2.41564131 1.25140214 0.107421063 -1.62002885 0.782395005 5.81712207e-08 -2.17472839 1.48008132 0.107421055 -1.47246027 0.879807234 5.07111011e-08 -1.89583218 1.66416299 0.107421055 -1.30822289 0.950217783 4.87794303e-08 -1.58424866 1.7977246 0.107421048 -1.13045108 0.990492105 3.33506449e-08 -1.24681234 1.87418771 0.107421041 -0.943002582 0.997523904 2.39035742e-08 -0.893634021 1.88747919 0.107421041 -0.760631502 0.970376074 1.46641659e-08 -0.548219204 1.83601964 1.46641659e-08 -0.548219204 1.83601964 -0.107420996 -0.760631621 0.970376074 0.997523785 -0.943002045 -0.107421316 0.970375896 -0.760631025 -0.107421301 1.88747895 -0.89363265 -5.6860722e-07 1.83601916 -0.548217714 -5.61692616e-07 1.79772449 -1.58424723 -5.21958782e-07 1.87418759 -1.24681211 -5.54987764e-07 0.950217903 -1.30822217 0.107420757 0.990492165 -1.13045061 0.107420743 1.88747895 -0.89363265 -5.6860722e-07 0.997523844 -0.943002045 0.107420735 1.83601916 -0.548217714 -5.61692616e-07 0.970375955 -0.760630906 0.107420743 1.87418759 -1.24681211 -5.54987764e-07 0.990492046 -1.13045061 -0.107421301 1.79772449 -1.58424723 -5.21958782e-07 0.950217843 -1.30822217 -0.107421279 1.66416335 -1.89583135 -4.71697263e-07 0.879807413 -1.47245979 -0.107421257 1.4800818 -2.17472768 -4.06450908e-07 0.782395184 -1.62002838 -0.107421219 1.25140262 -2.41564083 -3.2822058e-07 0.661114991 -1.74779463 -0.107421182 0.983271956 -2.61354661 -2.38756229e-07 0.519101501 -1.8526237 -0.10742113 0.680778384 -2.7627852 -1.39806559e-07 0.359488279 -1.93138242 -0.107421078 0.350169718 -2.8568995 -3.35056178e-08 0.185409784 -1.98093605 -0.107421033 3.51261662e-07 -2.88947392 -2.73971978e-07 2.31610173e-07 -1.99814999 -0.107420966 0.879807472 -1.47245979 0.10742078 1.66416335 -1.89583135 -4.71697263e-07 0.782395303 -1.62002838 0.107420817 1.4800818 -2.17472768 -4.06450908e-07 0.66111511 -1.74779463 0.107420854 1.25140262 -2.41564083 -3.2822058e-07 0.51910162 -1.8526237 0.107420906 0.983271956 -2.61354661 -2.38756229e-07 0.359488368 -1.93138242 0.107420959 0.680778384 -2.7627852 -1.39806559e-07 0.185409859 -1.98093605 0.107421018 0.350169718 -2.8568995 -3.35056178e-08 2.9905263e-07 -1.99814999 0.107421078 3.51261662e-07 -2.88947392 -2.73971978e-07 -0.185409486 -1.98093605 0.10742113 -0.350168407 -2.85689974 1.86342092e-07 -0.35948801 -1.93138242 0.10742119 -0.680777729 -2.7627852 2.87608373e-07 -0.350168407 -2.85689974 1.86342092e-07 -0.185409546 -1.98093605 -0.107420906 -0.680777729 -2.7627852 2.87608373e-07 -0.35948807 -1.93138242 -0.107420854 -0.983271182 -2.61354733 3.78574157e-07 -0.519101202 -1.85262406 -0.107420795 -1.25140202 -2.41564107 4.5745108e-07 -0.661114872 -1.74779463 -0.107420772 -1.4800812 -2.17472816 5.22793187e-07 -0.782394946 -1.62002873 -0.107420735 -1.66416276 -1.89583194 5.7311928e-07 -0.879807174 -1.47246015 -0.107420705 -1.79772437 -1.58424854 6.13114764e-07 -0.950217724 -1.30822289 -0.107420668 -1.87418759 -1.24681222 6.21689082e-07 -0.990492046 -1.13045096 -0.107420683 -1.88747895 -0.893633962 6.16414411e-07 -0.997523844 -0.943002462 -0.107420668 -0.519101083 -1.85262406 0.107421242 -0.983271182 -2.61354733 3.78574157e-07 -0.661114872 -1.74779463 0.107421279 -1.25140202 -2.41564107 4.5745108e-07 -0.782394946 -1.62002873 0.107421316 -1.4800812 -2.17472816 5.22793187e-07 -0.879807115 -1.47246015 0.107421339 -1.66416276 -1.89583194 5.7311928e-07 -0.950217664 -1.30822289 0.107421353 -1.79772437 -1.58424854 6.13114764e-07 -0.990491986 -1.13045096 0.107421368 -1.87418759 -1.24681222 6.21689082e-07 -0.997523785 -0.943002462 0.107421353 -1.88747895 -0.893633962 6.16414411e-07 -0.970375955 -0.760631442 0.107421353 -1.83601952 -0.548219204 5.91020978e-07 -1.83601952 -0.548219204 5.91020978e-07 -0.970376015 -0.760631561 -0.107420698</float_array>
        <technique_common><accessor source="#vfx_kurp_0293-mesh-positions-array" count="168" stride="3"><param name="X" type="float"/><param name="Y" type="float"/><param name="Z" type="float"/></accessor></technique_common>
      </source>
      <source id="vfx_kurp_0293-mesh-normals">
        <float_array id="vfx_kurp_0293-mesh-normals-array" count="504">-0.992815544 0.00659043009 -0.11947327 -0.99275473 0.01769508 -0.11884835 -0.992815659 0.00659505967 -0.119472055 -0.992754345 0.0177061447 -0.118849919 0.992815862 -0.0369510058 -0.113803723 0.992815743 -0.0155421339 -0.118639545 0.992815901 -0.0369387787 -0.113807349 0.992816067 -0.0155236196 -0.118639265 0.99281565 0.00659680957 -0.119472032 0.992815557 0.00659415453 -0.119472958 0.992754624 0.0177040079 -0.118847905 0.992754188 0.0176925683 -0.118853252 -0.992815961 -0.0155414192 -0.118637814 -0.992815702 -0.0155229303 -0.118642408 -0.99281586 -0.0369504134 -0.113803931 -0.992815902 -0.0369374078 -0.113807789 -0.992815742 -0.0567571861 -0.105335296 -0.992815918 -0.0567520525 -0.105336406 -0.99281574 -0.0744338637 -0.0936830125 -0.992815825 -0.0744325722 -0.0936831359 -0.992815796 -0.0896670672 -0.0792250785 -0.992815715 -0.0896681456 -0.0792248682 -0.992815859 -0.102186375 -0.0622464124 -0.992815679 -0.102189556 -0.0622440543 -0.992815874 -0.111646424 -0.0430315631 -0.992815814 -0.11165044 -0.0430225367 -0.992815793 -0.117609158 -0.0220201351 -0.992816173 -0.117609921 -0.0219989331 -0.992815548 -0.119654871 1.20943729e-06 -0.992815397 -0.119656118 2.68299329e-06 0.992815701 -0.0567529292 -0.105337973 0.992815873 -0.0567566578 -0.105334344 0.992815697 -0.0744326356 -0.0936844445 0.992815821 -0.0744331575 -0.0936827091 0.992815792 -0.0896671414 -0.0792250335 0.992815756 -0.0896670541 -0.0792255867 0.992815899 -0.102187841 -0.0622433528 0.992815736 -0.102187164 -0.0622470642 0.992815931 -0.111649895 -0.0430212588 0.992815816 -0.111647035 -0.0430313284 0.99281579 -0.117613517 -0.0219969749 0.992816047 -0.117607178 -0.0220192619 0.992815446 -0.119655715 -2.9050332e-06 0.99281561 -0.119654357 -1.35422021e-06 0.992816208 -0.117609598 0.0219990685 0.9928158 -0.117608965 0.0220208691 0.992815819 -0.111650448 0.0430224102 0.992815877 -0.111646417 0.0430315148 -0.992816024 -0.117607503 0.0220185908 -0.992815785 -0.117613561 0.021996986 -0.992815808 -0.111647131 0.0430312722 -0.992815923 -0.111649991 0.0430211951 -0.992815731 -0.102187261 0.0622469931 -0.992815896 -0.102187908 0.0622432967 -0.992815753 -0.089667106 0.0792255715 -0.992815787 -0.0896671931 0.0792250405 -0.992815817 -0.0744332466 0.0936826863 -0.99281569 -0.0744327767 0.0936843992 -0.99281587 -0.056756829 0.105334284 -0.9928157 -0.0567530185 0.105337936 -0.992815865 -0.036951114 0.113803664 -0.992815903 -0.036938857 0.113807305 -0.992815746 -0.0155421796 0.118639515 -0.992816066 -0.0155237425 0.11863925 -0.992815654 0.00659672763 0.11947201 -0.992815558 0.00659407305 0.119472951 0.992815685 -0.102189505 0.0622440472 0.992815862 -0.102186368 0.0622463642 0.992815719 -0.0896680864 0.0792248834 0.9928158 -0.0896670304 0.0792250639 0.992815829 -0.0744325501 0.0936831139 0.992815742 -0.0744338489 0.0936830052 0.992815919 -0.0567520824 0.105336376 0.992815745 -0.0567572608 0.105335222 0.992815908 -0.0369374266 0.11380773 0.992815865 -0.0369504397 0.11380388 0.992815704 -0.0155228856 0.118642394 0.992815964 -0.0155413336 0.118637807 0.992815545 0.00659041985 0.119473262 0.992815658 0.00659508248 0.119472062 0.992754727 0.0176950587 0.118848379 0.992754342 0.0177061707 0.118849941 -0.992754625 0.0177039222 0.118847912 -0.992754188 0.0176924733 0.118853267 0.119472969 0.0065904308 -0.99281558 0.118848071 0.0176951253 -0.992754763 0.119471783 0.00659510226 -0.992815692 0.118849625 0.0177061927 -0.992754379 0.113804047 -0.0369510193 0.992815824 0.118639846 -0.0155421287 0.992815708 0.113807679 -0.0369387944 0.992815863 0.118639588 -0.0155236339 0.992816028 0.119472362 0.00659684695 0.99281561 0.119473303 0.00659416071 0.992815515 0.118848242 0.0177040511 0.992754583 0.118853597 0.0176925843 0.992754146 0.118637513 -0.0155414198 -0.992815997 0.118642107 -0.0155229588 -0.992815737 0.113803623 -0.0369504237 -0.992815895 0.113807502 -0.0369373978 -0.992815935 0.105334995 -0.0567571845 -0.992815774 0.105336098 -0.0567520547 -0.99281595 0.0936827263 -0.0744338538 -0.992815767 0.0936828183 -0.0744325892 -0.992815854 0.0792247601 -0.0896670695 -0.992815821 0.0792245425 -0.0896681406 -0.992815741 0.0622460894 -0.102186399 -0.992815876 0.0622437463 -0.102189558 -0.992815698 0.0430312482 -0.111646426 -0.992815888 0.0430222404 -0.111650434 -0.992815828 0.0220207462 -0.117608995 -0.992815799 0.0219988283 -0.117609606 -0.992816213 -1.63575783e-06 -0.119654328 -0.992815613 -3.27179901e-06 -0.119655693 -0.992815449 0.105338304 -0.0567529272 0.992815666 0.105334661 -0.0567566522 0.99281584 0.0936847471 -0.0744326705 0.992815666 0.0936830488 -0.0744331477 0.99281579 0.0792253594 -0.0896671169 0.992815769 0.0792258904 -0.0896670372 0.992815734 0.0622436534 -0.102187838 0.992815881 0.0622473572 -0.102187185 0.992815716 0.0430215971 -0.111649901 0.992815915 0.0430316482 -0.111647048 0.992815801 0.0219972951 -0.117613516 0.992815783 0.0220188683 -0.117607473 0.992816021 2.99408368e-06 -0.119656126 0.992815397 1.56967893e-06 -0.119654863 0.992815549 -0.0219986005 -0.117609893 0.992816184 -0.0220197312 -0.117609137 0.992815805 -0.0430221213 -0.11165045 0.992815831 -0.0430311775 -0.111646426 0.992815891 -0.0220196733 -0.117607192 -0.992816037 -0.0219972876 -0.11761356 -0.992815778 -0.0430315659 -0.111647144 -0.992815793 -0.0430215224 -0.111649982 -0.992815909 -0.0622473011 -0.102187259 -0.992815712 -0.0622436084 -0.102187904 -0.992815877 -0.0792258974 -0.0896670963 -0.992815728 -0.0792253413 -0.0896672037 -0.992815762 -0.093683026 -0.0744332442 -0.992815785 -0.0936847168 -0.0744327744 -0.992815661 -0.105334608 -0.056756827 -0.992815835 -0.10533826 -0.0567530277 -0.992815665 -0.11380398 -0.0369511498 -0.992815827 -0.113807628 -0.0369388876 -0.992815865 -0.118639831 -0.0155421771 -0.992815709 -0.11863958 -0.0155237344 -0.992816027 -0.119472362 0.00659673007 -0.992815611 -0.119473289 0.00659407318 -0.992815517 -0.0622437132 -0.102189508 0.992815705 -0.062246034 -0.102186364 0.992815883 -0.0792245501 -0.089668111 0.992815743 -0.079224778 -0.0896670123 0.992815825 -0.0936828258 -0.0744325669 0.992815855 -0.0936827263 -0.0744338538 0.992815767 -0.105336105 -0.0567520732 0.992815948 -0.105334943 -0.0567572591 0.992815775 -0.113807443 -0.0369374539 0.99281594 -0.113803579 -0.0369504648 0.992815899 -0.1186421 -0.0155228787 0.992815739 -0.118637513 -0.0155413369 0.992815999 -0.119472976 0.0065904252 0.992815579 -0.119471768 0.00659508458 0.992815694 -0.118848086 0.017695021 0.992754763 -0.118849647 0.0177061349 0.992754378 -0.118848257 0.017703889 -0.992754584 -0.11885359 0.0176924465 -0.99275415</float_array>
        <technique_common><accessor source="#vfx_kurp_0293-mesh-normals-array" count="168" stride="3"><param name="X" type="float"/><param name="Y" type="float"/><param name="Z" type="float"/></accessor></technique_common>
      </source>
      <source id="vfx_kurp_0293-mesh-uv0">
        <float_array id="vfx_kurp_0293-mesh-uv0-array" count="336">1 0.0500000119 1 0 0.5 0.0500000119 0.5 0 0.5 0.149999976 0.5 0.0999999642 0 0.149999976 0 0.0999999642 0.5 0.0500000119 0 0.0500000119 0.5 0 0 0 0.5 0.0999999642 1 0.0999999642 0.5 0.149999976 1 0.149999976 0.5 0.199999988 1 0.199999988 0.5 0.25 1 0.25 0.5 0.300000012 1 0.300000012 0.5 0.349999964 1 0.349999964 0.5 0.399999976 1 0.399999976 0.5 0.449999988 1 0.449999988 0.5 0.5 1 0.5 0 0.199999988 0.5 0.199999988 0 0.25 0.5 0.25 0 0.300000012 0.5 0.300000012 0 0.349999964 0.5 0.349999964 0 0.399999976 0.5 0.399999976 0 0.449999988 0.5 0.449999988 0 0.5 0.5 0.5 0 0.549999952 0.5 0.549999952 0 0.600000024 0.5 0.600000024 0.5 0.549999952 1 0.549999952 0.5 0.600000024 1 0.600000024 0.5 0.649999976 1 0.649999976 0.5 0.699999988 1 0.699999988 0.5 0.75 1 0.75 0.5 0.800000012 1 0.800000012 0.5 0.850000024 1 0.850000024 0.5 0.899999976 1 0.899999976 0.5 0.949999988 1 0.949999988 0 0.649999976 0.5 0.649999976 0 0.699999988 0.5 0.699999988 0 0.75 0.5 0.75 0 0.800000012 0.5 0.800000012 0 0.850000024 0.5 0.850000024 0 0.899999976 0.5 0.899999976 0 0.949999988 0.5 0.949999988 0 1 0.5 1 0.5 1 1 1 1 0.0500000119 1 0 0.5 0.0500000119 0.5 0 0.5 0.149999976 0.5 0.0999999642 0 0.149999976 0 0.0999999642 0.5 0.0500000119 0 0.0500000119 0.5 0 0 0 0.5 0.0999999642 1 0.0999999642 0.5 0.149999976 1 0.149999976 0.5 0.199999988 1 0.199999988 0.5 0.25 1 0.25 0.5 0.300000012 1 0.300000012 0.5 0.349999964 1 0.349999964 0.5 0.399999976 1 0.399999976 0.5 0.449999988 1 0.449999988 0.5 0.5 1 0.5 0 0.199999988 0.5 0.199999988 0 0.25 0.5 0.25 0 0.300000012 0.5 0.300000012 0 0.349999964 0.5 0.349999964 0 0.399999976 0.5 0.399999976 0 0.449999988 0.5 0.449999988 0 0.5 0.5 0.5 0 0.549999952 0.5 0.549999952 0 0.600000024 0.5 0.600000024 0.5 0.549999952 1 0.549999952 0.5 0.600000024 1 0.600000024 0.5 0.649999976 1 0.649999976 0.5 0.699999988 1 0.699999988 0.5 0.75 1 0.75 0.5 0.800000012 1 0.800000012 0.5 0.850000024 1 0.850000024 0.5 0.899999976 1 0.899999976 0.5 0.949999988 1 0.949999988 0 0.649999976 0.5 0.649999976 0 0.699999988 0.5 0.699999988 0 0.75 0.5 0.75 0 0.800000012 0.5 0.800000012 0 0.850000024 0.5 0.850000024 0 0.899999976 0.5 0.899999976 0 0.949999988 0.5 0.949999988 0 1 0.5 1 0.5 1 1 1</float_array>
        <technique_common><accessor source="#vfx_kurp_0293-mesh-uv0-array" count="168" stride="2"><param name="S" type="float"/><param name="T" type="float"/></accessor></technique_common>
      </source>
      <vertices id="vfx_kurp_0293-mesh-vertices"><input semantic="POSITION" source="#vfx_kurp_0293-mesh-positions"/></vertices>
      <triangles material="PreviewMaterial" count="160">
        <input semantic="VERTEX" source="#vfx_kurp_0293-mesh-vertices" offset="0"/>
        <input semantic="NORMAL" source="#vfx_kurp_0293-mesh-normals" offset="1"/>
        <input semantic="TEXCOORD" source="#vfx_kurp_0293-mesh-uv0" offset="2" set="0"/>
        <p>0 0 0 1 1 1 2 2 2 3 3 3 2 2 2 1 1 1 4 4 4 5 5 5 6 6 6 6 6 6 5 5 5 7 7 7 8 8 8 7 7 7 5 5 5 7 7 7 8 8 8 9 9 9 10 10 10 9 9 9 8 8 8 9 9 9 10 10 10 11 11 11 12 12 12 0 0 0 2 2 2 0 0 0 12 12 12 13 13 13 14 14 14 13 13 13 12 12 12 13 13 13 14 14 14 15 15 15 16 16 16 15 15 15 14 14 14 15 15 15 16 16 16 17 17 17 18 18 18 17 17 17 16 16 16 17 17 17 18 18 18 19 19 19 20 20 20 19 19 19 18 18 18 19 19 19 20 20 20 21 21 21 22 22 22 21 21 21 20 20 20 21 21 21 22 22 22 23 23 23 24 24 24 23 23 23 22 22 22 23 23 23 24 24 24 25 25 25 26 26 26 25 25 25 24 24 24 25 25 25 26 26 26 27 27 27 28 28 28 27 27 27 26 26 26 29 29 29 27 27 27 28 28 28 30 30 30 4 4 4 6 6 6 4 4 4 30 30 30 31 31 31 32 32 32 31 31 31 30 30 30 31 31 31 32 32 32 33 33 33 34 34 34 33 33 33 32 32 32 33 33 33 34 34 34 35 35 35 36 36 36 35 35 35 34 34 34 35 35 35 36 36 36 37 37 37 38 38 38 37 37 37 36 36 36 37 37 37 38 38 38 39 39 39 40 40 40 39 39 39 38 38 38 39 39 39 40 40 40 41 41 41 42 42 42 41 41 41 40 40 40 41 41 41 42 42 42 43 43 43 44 44 44 43 43 43 42 42 42 43 43 43 44 44 44 45 45 45 46 46 46 45 45 45 44 44 44 47 47 47 45 45 45 46 46 46 48 48 48 29 29 29 28 28 28 29 29 29 48 48 48 49 49 49 50 50 50 49 49 49 48 48 48 49 49 49 50 50 50 51 51 51 52 52 52 51 51 51 50 50 50 51 51 51 52 52 52 53 53 53 54 54 54 53 53 53 52 52 52 53 53 53 54 54 54 55 55 55 56 56 56 55 55 55 54 54 54 55 55 55 56 56 56 57 57 57 58 58 58 57 57 57 56 56 56 57 57 57 58 58 58 59 59 59 60 60 60 59 59 59 58 58 58 59 59 59 60 60 60 61 61 61 62 62 62 61 61 61 60 60 60 61 61 61 62 62 62 63 63 63 64 64 64 63 63 63 62 62 62 65 65 65 63 63 63 64 64 64 66 66 66 47 47 47 46 46 46 47 47 47 66 66 66 67 67 67 68 68 68 67 67 67 66 66 66 67 67 67 68 68 68 69 69 69 70 70 70 69 69 69 68 68 68 69 69 69 70 70 70 71 71 71 72 72 72 71 71 71 70 70 70 71 71 71 72 72 72 73 73 73 74 74 74 73 73 73 72 72 72 73 73 73 74 74 74 75 75 75 76 76 76 75 75 75 74 74 74 75 75 75 76 76 76 77 77 77 78 78 78 77 77 77 76 76 76 77 77 77 78 78 78 79 79 79 80 80 80 79 79 79 78 78 78 81 81 81 79 79 79 80 80 80 64 64 64 82 82 82 65 65 65 83 83 83 65 65 65 82 82 82 84 84 84 85 85 85 86 86 86 87 87 87 86 86 86 85 85 85 88 88 88 89 89 89 90 90 90 90 90 90 89 89 89 91 91 91 92 92 92 91 91 91 89 89 89 91 91 91 92 92 92 93 93 93 94 94 94 93 93 93 92 92 92 93 93 93 94 94 94 95 95 95 96 96 96 84 84 84 86 86 86 84 84 84 96 96 96 97 97 97 98 98 98 97 97 97 96 96 96 97 97 97 98 98 98 99 99 99 100 100 100 99 99 99 98 98 98 99 99 99 100 100 100 101 101 101 102 102 102 101 101 101 100 100 100 101 101 101 102 102 102 103 103 103 104 104 104 103 103 103 102 102 102 103 103 103 104 104 104 105 105 105 106 106 106 105 105 105 104 104 104 105 105 105 106 106 106 107 107 107 108 108 108 107 107 107 106 106 106 107 107 107 108 108 108 109 109 109 110 110 110 109 109 109 108 108 108 109 109 109 110 110 110 111 111 111 112 112 112 111 111 111 110 110 110 113 113 113 111 111 111 112 112 112 114 114 114 88 88 88 90 90 90 88 88 88 114 114 114 115 115 115 116 116 116 115 115 115 114 114 114 115 115 115 116 116 116 117 117 117 118 118 118 117 117 117 116 116 116 117 117 117 118 118 118 119 119 119 120 120 120 119 119 119 118 118 118 119 119 119 120 120 120 121 121 121 122 122 122 121 121 121 120 120 120 121 121 121 122 122 122 123 123 123 124 124 124 123 123 123 122 122 122 123 123 123 124 124 124 125 125 125 126 126 126 125 125 125 124 124 124 125 125 125 126 126 126 127 127 127 128 128 128 127 127 127 126 126 126 127 127 127 128 128 128 129 129 129 130 130 130 129 129 129 128 128 128 131 131 131 129 129 129 130 130 130 132 132 132 113 113 113 112 112 112 113 113 113 132 132 132 133 133 133 134 134 134 133 133 133 132 132 132 133 133 133 134 134 134 135 135 135 136 136 136 135 135 135 134 134 134 135 135 135 136 136 136 137 137 137 138 138 138 137 137 137 136 136 136 137 137 137 138 138 138 139 139 139 140 140 140 139 139 139 138 138 138 139 139 139 140 140 140 141 141 141 142 142 142 141 141 141 140 140 140 141 141 141 142 142 142 143 143 143 144 144 144 143 143 143 142 142 142 143 143 143 144 144 144 145 145 145 146 146 146 145 145 145 144 144 144 145 145 145 146 146 146 147 147 147 148 148 148 147 147 147 146 146 146 149 149 149 147 147 147 148 148 148 150 150 150 131 131 131 130 130 130 131 131 131 150 150 150 151 151 151 152 152 152 151 151 151 150 150 150 151 151 151 152 152 152 153 153 153 154 154 154 153 153 153 152 152 152 153 153 153 154 154 154 155 155 155 156 156 156 155 155 155 154 154 154 155 155 155 156 156 156 157 157 157 158 158 158 157 157 157 156 156 156 157 157 157 158 158 158 159 159 159 160 160 160 159 159 159 158 158 158 159 159 159 160 160 160 161 161 161 162 162 162 161 161 161 160 160 160 161 161 161 162 162 162 163 163 163 164 164 164 163 163 163 162 162 162 165 165 165 163 163 163 164 164 164 148 148 148 166 166 166 149 149 149 167 167 167 149 149 149 166 166 166</p>
      </triangles>
    </mesh></geometry>
  </library_geometries>
  <library_visual_scenes>
    <visual_scene id="Scene" name="Scene">
      <node id="vfx_kurp_0293" name="vfx_kurp_0293" type="NODE">
        <instance_geometry url="#vfx_kurp_0293-mesh"><bind_material><technique_common><instance_material symbol="PreviewMaterial" target="#PreviewMaterial"><bind_vertex_input semantic="UVSET0" input_semantic="TEXCOORD" input_set="0"/></instance_material></technique_common></bind_material></instance_geometry>
      </node>
    </visual_scene>
  </library_visual_scenes>
  <scene><instance_visual_scene url="#Scene"/></scene>
</COLLADA>
