<?xml version="1.0" encoding="utf-8"?>
<COLLADA xmlns="http://www.collada.org/2005/11/COLLADASchema" version="1.4.1">
  <asset>
    <contributor><authoring_tool>Morrobroom Kurpulio VFX preview converter</authoring_tool></contributor>
    <unit name="unit" meter="1"/>
    <up_axis>Z_UP</up_axis>
  </asset>
  <library_images>
    <image id="VFXTexture" name="darkmap_newgen-1.dds">
      <init_from>../../../Textures/Kurp/darkmap_newgen-1.dds</init_from>
    </image>
  </library_images>
  <library_effects>
    <effect id="PreviewEffect">
      <profile_COMMON>
        <newparam sid="VFXTexture-surface">
          <surface type="2D"><init_from>VFXTexture</init_from></surface>
        </newparam>
        <newparam sid="VFXTexture-sampler">
          <sampler2D><source>VFXTexture-surface</source></sampler2D>
        </newparam>
        <technique sid="common"><phong>
          <emission><color>0.08 0.08 0.08 1</color></emission>
          <ambient><color>0.2 0.2 0.2 1</color></ambient>
          <diffuse><texture texture="VFXTexture-sampler" texcoord="UVSET0"/></diffuse>
          <specular><color>0.15 0.15 0.15 1</color></specular>
          <shininess><float>8</float></shininess>
          <transparent opaque="A_ONE"><texture texture="VFXTexture-sampler" texcoord="UVSET0"/></transparent>
          <transparency><float>1</float></transparency>
        </phong></technique>
      </profile_COMMON>
      <extra><technique profile="GOOGLEEARTH"><double_sided>1</double_sided></technique></extra>
    </effect>
  </library_effects>
  <library_materials><material id="PreviewMaterial" name="PreviewMaterial"><instance_effect url="#PreviewEffect"/></material></library_materials>
  <library_geometries>
    <geometry id="vfx_kurp_1059-mesh" name="vfx_kurp_1059"><mesh>
      <source id="vfx_kurp_1059-mesh-positions">
        <float_array id="vfx_kurp_1059-mesh-positions-array" count="930">4.33505657 1.1798737 4.88772184 3.63340996 0.70519074 4.9164371 3.47972461 0.913416253 3.88200455 3.47972461 0.913416253 3.88200455 3.63340996 0.70519074 4.9164371 2.74655034 0.814368268 3.87665933 2.81298318 0.5643951 4.91110975 2.74655034 0.814368268 3.87665933 3.63340996 0.70519074 4.9164371 2.74655034 0.814368268 3.87665933 2.81298318 0.5643951 4.91110975 2.27719708 0.966771571 3.88337409 2.21079422 0.740147087 4.91987656 2.27719708 0.966771571 3.88337409 2.81298318 0.5643951 4.91110975 2.27719708 0.966771571 3.88337409 2.21079422 0.740147087 4.91987656 1.79842862 1.42947328 3.96239512 2.00755237 -0.637708757 5.23701447 2.21079422 0.740147087 4.91987656 3.27437937 -0.762370721 5.24006093 2.81298318 0.5643951 4.91110975 3.27437937 -0.762370721 5.24006093 2.21079422 0.740147087 4.91987656 3.27437937 -0.762370721 5.24006093 2.81298318 0.5643951 4.91110975 4.50115281 -0.363183301 5.23833556 3.63340996 0.70519074 4.9164371 4.50115281 -0.363183301 5.23833556 2.81298318 0.5643951 4.91110975 4.50115281 -0.363183301 5.23833556 3.63340996 0.70519074 4.9164371 5.67279204 0.636557234 5.15539433 4.33505657 1.1798737 4.88772184 3.63340996 0.70519074 4.9164371 6.36164394 1.87167759 4.9673294 4.90566569 1.9555184 4.7895377 4.33505657 1.1798737 4.88772184 6.36164394 1.87167759 4.9673294 4.90566569 1.9555184 4.7895377 6.62517902 3.26164164 4.65266485 5.19488816 2.92043187 4.59604213 6.62517902 3.26164164 4.65266485 4.90566569 1.9555184 4.7895377 6.62517902 3.26164164 4.65266485 5.19488816 2.92043187 4.59604213 6.43919584 4.63467744 4.21199005 5.1518618 3.93118129 4.30208776 6.43919584 4.63467744 4.21199005 5.19488816 2.92043187 4.59604213 6.43919584 4.63467744 4.21199005 5.1518618 3.93118129 4.30208776 5.83547699 5.83003654 3.66260133 4.78967709 4.85968372 3.91828756 5.83547699 5.83003654 3.66260133 5.1518618 3.93118129 4.30208776 5.83547699 5.83003654 3.66260133 4.78967709 4.85968372 3.91828756 4.89105763 6.71701435 3.034332 4.14898878 5.60143028 3.46213849 4.89105763 6.71701435 3.034332 4.78967709 4.85968372 3.91828756 4.89105763 6.71701435 3.034332 4.14898878 5.60143028 3.46213849 3.71303447 7.20663547 2.36434642 3.36589372 6.03912889 2.99901422 3.71303447 7.20663547 2.36434642 4.14898878 5.60143028 3.46213849 3.99202825 1.22562143 3.86586775 4.33505657 1.1798737 4.88772184 3.47972461 0.913416253 3.88200455 4.33505657 1.1798737 4.88772184 3.99202825 1.22562143 3.86586775 4.90566569 1.9555184 4.7895377 4.44591715 1.80785503 3.79524669 4.90566569 1.9555184 4.7895377 3.99202825 1.22562143 3.86586775 4.90566569 1.9555184 4.7895377 4.44591715 1.80785503 3.79524669 5.19488816 2.92043187 4.59604213 4.66922829 2.50190484 3.65935815 5.19488816 2.92043187 4.59604213 4.44591715 1.80785503 3.79524669 5.19488816 2.92043187 4.59604213 4.66922829 2.50190484 3.65935815 5.1518618 3.93118129 4.30208776 4.65020058 3.21178154 3.45676519 5.1518618 3.93118129 4.30208776 4.66922829 2.50190484 3.65935815 5.1518618 3.93118129 4.30208776 4.65020058 3.21178154 3.45676519 4.78967709 4.85968372 3.91828756 4.40686229 3.85182914 3.19532881 4.78967709 4.85968372 3.91828756 4.40686229 3.85182914 3.19532881 4.14898878 5.60143028 3.46213849 3.97877324 4.35575499 2.88910238 4.14898878 5.60143028 3.46213849 3.97877324 4.35575499 2.88910238 3.36589372 6.03912889 2.99901422 3.41716998 4.68053179 2.55500295 3.36589372 6.03912889 2.99901422 3.41716998 4.68053179 2.55500295 2.39971782 6.2048029 2.48196572 2.77563206 4.80538289 2.20989428 2.39971782 6.2048029 2.48196572 2.77563206 4.80538289 2.20989428 1.38876612 6.03802243 1.97185841 2.10299451 4.72697176 1.86855805 1.38876612 6.03802243 1.97185841 2.77563206 4.80538289 2.20989428 0.51442082 5.6043494 1.54270501 1.38876612 6.03802243 1.97185841 2.10299451 4.72697176 1.86855805 3.71303447 7.20663547 2.36434642 3.36589372 6.03912889 2.99901422 2.42210544 7.25553191 1.69189425 2.39971782 6.2048029 2.48196572 2.42210544 7.25553191 1.69189425 3.36589372 6.03912889 2.99901422 2.42210544 7.25553191 1.69189425 2.39971782 6.2048029 2.48196572 1.37077506 6.96088191 1.16862318 1.38876612 6.03802243 1.97185841 1.37077506 6.96088191 1.16862318 2.39971782 6.2048029 2.48196572 1.37077506 6.96088191 1.16862318 1.38876612 6.03802243 1.97185841 0.188056348 6.21432699 0.589254499 0.51442082 5.6043494 1.54270501 0.188056348 6.21432699 0.589254499 1.38876612 6.03802243 1.97185841 0.188056348 6.21432699 0.589254499 0.51442082 5.6043494 1.54270501 -0.795662173 5.11571647 0.0997457534 -0.335578548 4.8272184 1.12424719 -0.795662173 5.11571647 0.0997457534 0.51442082 5.6043494 1.54270501 -0.795662173 5.11571647 0.0997457534 -0.335578548 4.8272184 1.12424719 -1.37832352 4.00421136 -0.210876713 -0.945371964 3.93237019 0.812716114 -1.37832352 4.00421136 -0.210876713 -0.335578548 4.8272184 1.12424719 -1.37832352 4.00421136 -0.210876713 -0.945371964 3.93237019 0.812716114 -1.75666603 2.77139926 -0.444011774 -1.75666603 2.77139926 -0.444011774 -0.945371964 3.93237019 0.812716114 -1.39114402 2.73440571 0.554249613 -1.39114402 2.73440571 0.554249613 -0.945371964 3.93237019 0.812716114 0.323237725 3.1702549 0.984984746 0.323237725 3.1702549 0.984984746 -0.945371964 3.93237019 0.812716114 0.821890891 3.88694973 1.23908274 -0.335578548 4.8272184 1.12424719 -0.945371964 3.93237019 0.812716114 0.821890891 3.88694973 1.23908274 -0.335578548 4.8272184 1.12424719 1.39005883 4.38664528 1.51837338 0.51442082 5.6043494 1.54270501 -0.335578548 4.8272184 1.12424719 1.39005883 4.38664528 1.51837338 4.33505657 1.1798737 4.88772184 3.63340996 0.70519074 4.9164371 5.67279204 0.636557234 5.15539433 4.50115281 -0.363183301 5.23833556 2.81298318 0.5643951 4.91110975 4.50115281 -0.363183301 5.23833556 3.63340996 0.70519074 4.9164371 4.50115281 -0.363183301 5.23833556 2.81298318 0.5643951 4.91110975 3.27437937 -0.762370721 5.24006093 2.21079422 0.740147087 4.91987656 3.27437937 -0.762370721 5.24006093 3.27437937 -0.762370721 5.24006093 2.21079422 0.740147087 4.91987656 2.00755237 -0.637708757 5.23701447 1.79842862 1.42947328 3.96239512 2.27719708 0.966771571 3.88337409 2.27719708 0.966771571 3.88337409 2.21079422 0.740147087 4.91987656 2.27719708 0.966771571 3.88337409 2.81298318 0.5643951 4.91110975 2.74655034 0.814368268 3.87665933 3.63340996 0.70519074 4.9164371 2.74655034 0.814368268 3.87665933 2.81298318 0.5643951 4.91110975 2.74655034 0.814368268 3.87665933 3.47972461 0.913416253 3.88200455 4.33505657 1.1798737 4.88772184 3.47972461 0.913416253 3.88200455 3.63340996 0.70519074 4.9164371 3.47972461 0.913416253 3.88200455 3.99202825 1.22562143 3.86586775 4.90566569 1.9555184 4.7895377 3.99202825 1.22562143 3.86586775 4.33505657 1.1798737 4.88772184 3.99202825 1.22562143 3.86586775 4.90566569 1.9555184 4.7895377 4.44591715 1.80785503 3.79524669 5.19488816 2.92043187 4.59604213 4.44591715 1.80785503 3.79524669 4.90566569 1.9555184 4.7895377 4.44591715 1.80785503 3.79524669 5.19488816 2.92043187 4.59604213 4.66922829 2.50190484 3.65935815 5.1518618 3.93118129 4.30208776 4.66922829 2.50190484 3.65935815 4.66922829 2.50190484 3.65935815 5.1518618 3.93118129 4.30208776 4.65020058 3.21178154 3.45676519 4.78967709 4.85968372 3.91828756 4.65020058 3.21178154 3.45676519 4.78967709 4.85968372 3.91828756 4.40686229 3.85182914 3.19532881 4.14898878 5.60143028 3.46213849 4.40686229 3.85182914 3.19532881 4.14898878 5.60143028 3.46213849 3.97877324 4.35575499 2.88910238 3.36589372 6.03912889 2.99901422 3.97877324 4.35575499 2.88910238 6.36164394 1.87167759 4.9673294 4.33505657 1.1798737 4.88772184 4.90566569 1.9555184 4.7895377 6.62517902 3.26164164 4.65266485 6.36164394 1.87167759 4.9673294 4.90566569 1.9555184 4.7895377 6.62517902 3.26164164 4.65266485 5.19488816 2.92043187 4.59604213 6.43919584 4.63467744 4.21199005 6.62517902 3.26164164 4.65266485 5.19488816 2.92043187 4.59604213 6.43919584 4.63467744 4.21199005 5.1518618 3.93118129 4.30208776 5.83547699 5.83003654 3.66260133 6.43919584 4.63467744 4.21199005 5.1518618 3.93118129 4.30208776 5.83547699 5.83003654 3.66260133 4.78967709 4.85968372 3.91828756 4.89105763 6.71701435 3.034332 5.83547699 5.83003654 3.66260133 4.78967709 4.85968372 3.91828756 4.89105763 6.71701435 3.034332 4.14898878 5.60143028 3.46213849 3.71303447 7.20663547 2.36434642 4.89105763 6.71701435 3.034332 4.14898878 5.60143028 3.46213849 3.71303447 7.20663547 2.36434642 3.36589372 6.03912889 2.99901422 2.42210544 7.25553191 1.69189425 3.71303447 7.20663547 2.36434642 3.36589372 6.03912889 2.99901422 2.42210544 7.25553191 1.69189425 2.39971782 6.2048029 2.48196572 1.37077506 6.96088191 1.16862318 2.39971782 6.2048029 2.48196572 2.42210544 7.25553191 1.69189425 2.39971782 6.2048029 2.48196572 1.37077506 6.96088191 1.16862318 1.38876612 6.03802243 1.97185841 0.188056348 6.21432699 0.589254499 1.38876612 6.03802243 1.97185841 1.37077506 6.96088191 1.16862318 0.51442082 5.6043494 1.54270501 1.38876612 6.03802243 1.97185841 0.188056348 6.21432699 0.589254499 3.36589372 6.03912889 2.99901422 3.41716998 4.68053179 2.55500295 2.39971782 6.2048029 2.48196572 3.41716998 4.68053179 2.55500295 3.36589372 6.03912889 2.99901422 2.77563206 4.80538289 2.20989428 1.38876612 6.03802243 1.97185841 2.77563206 4.80538289 2.20989428 2.39971782 6.2048029 2.48196572 2.77563206 4.80538289 2.20989428 2.10299451 4.72697176 1.86855805 0.51442082 5.6043494 1.54270501 2.10299451 4.72697176 1.86855805 1.38876612 6.03802243 1.97185841 1.39005883 4.38664528 1.51837338 -0.335578548 4.8272184 1.12424719 1.39005883 4.38664528 1.51837338 0.51442082 5.6043494 1.54270501 0.821890891 3.88694973 1.23908274 -0.945371964 3.93237019 0.812716114 0.821890891 3.88694973 1.23908274 -0.945371964 3.93237019 0.812716114 0.323237725 3.1702549 0.984984746 0.323237725 3.1702549 0.984984746 -1.39114402 2.73440571 0.554249613 -1.39114402 2.73440571 0.554249613 -1.75666603 2.77139926 -0.444011774 -1.75666603 2.77139926 -0.444011774 -0.945371964 3.93237019 0.812716114 -1.37832352 4.00421136 -0.210876713 -0.335578548 4.8272184 1.12424719 -1.37832352 4.00421136 -0.210876713 -0.945371964 3.93237019 0.812716114 -1.37832352 4.00421136 -0.210876713 -0.335578548 4.8272184 1.12424719 -0.795662173 5.11571647 0.0997457534 0.51442082 5.6043494 1.54270501 -0.795662173 5.11571647 0.0997457534 -0.335578548 4.8272184 1.12424719 -0.795662173 5.11571647 0.0997457534 0.51442082 5.6043494 1.54270501 0.188056348 6.21432699 0.589254499</float_array>
        <technique_common><accessor source="#vfx_kurp_1059-mesh-positions-array" count="310" stride="3"><param name="X" type="float"/><param name="Y" type="float"/><param name="Z" type="float"/></accessor></technique_common>
      </source>
      <source id="vfx_kurp_1059-mesh-normals">
        <float_array id="vfx_kurp_1059-mesh-normals-array" count="930">0.536800886 -0.808130651 -0.242424542 0.536800863 -0.808130666 -0.242424545 0.536800886 -0.808130651 -0.242424542 0.132299028 -0.967732459 -0.214454787 0.132299025 -0.967732459 -0.214454787 0.132299029 -0.967732462 -0.214454773 0.165650266 -0.956112081 -0.241680942 0.165650265 -0.956112078 -0.241680956 0.165650265 -0.956112078 -0.241680956 -0.304920591 -0.930018681 -0.205155275 -0.304920591 -0.930018681 -0.205155275 -0.304920592 -0.930018683 -0.20515526 -0.27614534 -0.935091632 -0.222142728 -0.27614534 -0.935091632 -0.222142728 -0.276145365 -0.935091622 -0.222142739 -0.698030657 -0.688907766 -0.195344035 -0.698030657 -0.688907766 -0.195344035 -0.698030657 -0.688907766 -0.195344035 -0.019455458 -0.221534184 -0.974958507 -0.0194554554 -0.221534198 -0.974958504 -0.0194554517 -0.221534198 -0.974958504 -0.0927155965 -0.269869014 -0.958422941 -0.0927155906 -0.269869042 -0.958422934 0.489395259 0.300186989 -0.818767398 0.0693351982 -0.21728757 -0.973641999 0.069335194 -0.217287556 -0.973642002 0.0693351963 -0.21728757 -0.973641999 0.0493784136 -0.251154733 -0.966686646 0.0493784132 -0.251154733 -0.966686646 0.157752905 0.276642391 0.947936184 0.107030211 -0.206127414 -0.972654113 0.107030211 -0.206127414 -0.972654113 0.107030219 -0.206127413 -0.972654112 0.106450489 -0.216061052 -0.970559589 -0.00939360004 0.628031714 -0.778131047 0.109535063 -0.209053014 -0.971750435 0.107233861 -0.202113529 -0.973473688 0.107233851 -0.202113517 -0.973473691 0.104183304 -0.238343374 -0.965576654 0.104183296 -0.238343375 -0.965576655 0.104183304 -0.238343374 -0.965576654 0.0914047454 -0.222061341 -0.97073886 0.0914047513 -0.222061354 -0.970738856 0.0914047477 -0.222061354 -0.970738856 0.106984546 -0.290674189 -0.950822182 0.106984549 -0.290674189 -0.950822182 0.106984546 -0.290674189 -0.950822182 0.0832548609 -0.275019067 -0.957827302 0.0832548609 -0.275019067 -0.957827302 0.0832548609 -0.275019067 -0.957827302 0.131230653 -0.358510846 -0.924255641 0.131230642 -0.358510822 -0.924255652 0.131230653 -0.358510846 -0.924255641 0.0952050159 -0.348326362 -0.932526005 0.0952050237 -0.348326387 -0.932525995 0.0952050159 -0.348326362 -0.932526005 0.183473613 -0.430592744 -0.883700923 0.183473603 -0.430592723 -0.883700936 0.183473593 -0.430592701 -0.883700949 0.135020596 -0.431804411 -0.891804008 0.135020599 -0.431804435 -0.891803996 0.1350206 -0.431804411 -0.891804008 0.26549449 -0.494082218 -0.827886126 0.26549449 -0.494082218 -0.827886126 0.265494503 -0.494082214 -0.827886124 0.2053842 -0.513855808 -0.832928291 0.2053842 -0.513855808 -0.832928291 0.2053842 -0.513855808 -0.832928291 0.504380804 -0.838339832 -0.206848569 0.50438078 -0.838339846 -0.206848571 0.504380804 -0.838339832 -0.206848569 0.80496636 -0.567495409 0.173141909 0.755954811 -0.591599749 -0.280253565 0.755954817 -0.591599754 -0.280253538 0.747488657 -0.613585836 -0.254505656 0.747488651 -0.613585832 -0.254505684 0.747488657 -0.613585836 -0.254505656 0.960748118 -0.263818972 0.0858056215 0.873733588 -0.332990996 -0.354551285 0.873733572 -0.332991017 -0.354551306 0.875418831 -0.34745798 -0.336028008 0.87541884 -0.347457984 -0.336027981 0.875418832 -0.347458008 -0.336027977 0.998309345 0.0400755153 -0.0420999322 0.885591301 -0.0945524759 -0.45473935 0.885591314 -0.0945524485 -0.45473933 0.891220065 -0.102226462 -0.441901059 0.891220079 -0.102226434 -0.441901038 0.891220065 -0.102226462 -0.441901059 0.934673051 0.302179353 -0.18728034 0.821955915 0.0880262565 -0.562707609 0.821955915 0.0880262565 -0.562707609 0.82572303 0.0862335775 -0.557445287 0.794562812 0.508429714 -0.331917405 0.715158248 0.207205797 -0.667543585 0.715158221 0.207205796 -0.667543614 0.718669696 0.207149312 -0.663779353 0.603792811 0.650356008 -0.460946097 0.596668266 0.266653198 -0.756890383 0.596668266 0.266653198 -0.756890383 0.602410776 0.268405338 -0.751704617 0.489771936 0.287483891 -0.823089584 0.489771936 0.287483891 -0.823089584 0.48977194 0.287483877 -0.823089586 0.496549668 0.292284596 -0.817317651 0.396138777 0.276629293 -0.875528585 0.396138774 0.276629307 -0.875528582 0.396138777 0.276629293 -0.875528585 0.406092758 0.289522889 -0.866755542 0.406092762 0.289522875 -0.866755544 0.406092782 0.28952289 -0.86675553 0.324558031 0.248715392 -0.912580264 0.324558034 0.248715378 -0.912580267 0.324558012 0.248715362 -0.912580279 0.377034819 -0.526380584 -0.762081509 0.377034819 -0.526380584 -0.762081509 0.377034819 -0.526380584 -0.762081509 0.306630703 -0.576199938 -0.757608899 0.306630704 -0.576199901 -0.757608927 0.306630703 -0.576199938 -0.757608899 0.492240181 -0.529808958 -0.690653366 0.492240181 -0.529808958 -0.690653366 0.492240181 -0.529808958 -0.690653366 0.440301474 -0.58456369 -0.681483606 0.440301491 -0.584563714 -0.681483574 0.207483533 -0.935091323 -0.287323513 0.616053621 -0.510281671 -0.600075456 0.616053621 -0.510281671 -0.600075456 0.616053621 -0.510281671 -0.600075456 0.572237528 -0.58776664 -0.571904352 0.572237515 -0.587766675 -0.571904329 0.387807732 -0.920542611 -0.0469730077 0.736936707 -0.426029381 -0.524807828 0.736936751 -0.426029309 -0.524807825 0.736936721 -0.426029336 -0.524807845 0.710768076 -0.525810943 -0.467259665 0.710768076 -0.525810943 -0.467259665 0.710768086 -0.525810951 -0.467259641 0.832578669 -0.307738726 -0.460553619 0.832578675 -0.3077387 -0.460553625 0.832578664 -0.307738696 -0.460553649 0.821129737 -0.428182007 -0.377367359 0.821129728 -0.428182002 -0.377367384 0.821129737 -0.428182007 -0.377367359 0.897088375 -0.200888669 -0.393543123 0.897088361 -0.200888694 -0.393543144 0.897088371 -0.200888696 -0.393543119 0.902905896 -0.262549256 -0.34033635 0.90290589 -0.262549282 -0.340336346 0.90290589 -0.262549282 -0.340336346 0.210164971 0.130834669 -0.968872011 0.210164959 0.130834659 -0.968872015 0.210164997 0.130834678 -0.968872004 0.235152274 0.175334877 -0.956013122 0.235152274 0.175334877 -0.956013122 0.235152274 0.175334877 -0.956013122 0.235197331 0.172712256 -0.956479321 -0.155397496 -0.0410611798 0.986998276 0.269779915 0.217536821 -0.938028 0.269779918 0.217536807 -0.938028002 0.269779891 0.217536804 -0.938028011 0.268727242 0.21201346 -0.939593509 -0.176291852 -0.104372359 0.97878884 0.326542206 0.253010054 -0.910689903 -0.191619623 0.353822285 0.91547349 -0.106781179 0.210420448 0.97176181 -0.106846736 0.209294304 0.971997772 -0.107030211 0.206127414 0.972654113 0.172159241 0.777068762 0.605413358 -0.0493784132 0.251154733 0.966686646 -0.0493784136 0.251154733 0.966686646 -0.0693351963 0.21728757 0.973641999 -0.069335194 0.217287556 0.973642002 -0.0693351982 0.21728757 0.973641999 0.0927155936 0.269869028 0.958422937 0.0927155906 0.269869042 0.958422934 0.0194554517 0.221534198 0.974958504 0.0194554554 0.221534198 0.974958504 0.019455458 0.221534184 0.974958507 0.698030657 0.688907766 0.195344035 0.698030657 0.688907766 0.195344035 0.27614534 0.935091632 0.222142728 0.27614534 0.935091632 0.222142728 0.304920592 0.930018683 0.20515526 0.304920591 0.930018681 0.205155275 0.304920591 0.930018681 0.205155275 -0.165650265 0.956112078 0.241680956 -0.165650265 0.956112078 0.241680956 -0.165650266 0.956112081 0.241680942 -0.132299029 0.967732462 0.214454773 -0.132299028 0.967732459 0.214454787 -0.536800886 0.808130651 0.242424542 -0.536800886 0.808130651 0.242424542 -0.536800863 0.808130666 0.242424545 -0.504380804 0.838339832 0.206848569 -0.504380804 0.838339832 0.206848569 -0.755954817 0.591599754 0.280253538 -0.755954811 0.591599749 0.280253565 -0.755954787 0.591599787 0.280253548 -0.747488657 0.613585836 0.254505656 -0.747488651 0.613585832 0.254505684 -0.747488657 0.613585836 0.254505656 -0.888300227 0.171823288 0.42591016 -0.873733588 0.332990996 0.354551285 -0.873733579 0.332990992 0.354551311 -0.875418832 0.347458008 0.336027977 -0.87541884 0.347457984 0.336027981 -0.875418831 0.34745798 0.336028008 -0.846385678 -0.0309475038 0.531670515 -0.885591301 0.0945524759 0.45473935 -0.891220065 0.102226462 0.441901059 -0.891220079 0.102226434 0.441901038 -0.891220065 0.102226462 0.441901059 -0.751833011 -0.170275881 0.636987636 -0.821955915 -0.0880262565 0.562707609 -0.825723057 -0.0862335804 0.557445246 -0.82572303 -0.0862335775 0.557445287 -0.636873314 -0.248073445 0.729967087 -0.715158248 -0.207205797 0.667543585 -0.718669723 -0.207149314 0.663779324 -0.718669696 -0.207149312 0.663779353 -0.538862656 0.125174432 0.833041655 -0.596668266 -0.266653198 0.756890383 -0.109535063 0.209053014 0.971750435 -0.107233851 0.202113517 0.973473691 -0.107233861 0.202113529 0.973473688 -0.104183304 0.238343374 0.965576654 -0.104183304 0.238343374 0.965576654 -0.0914047477 0.222061354 0.970738856 -0.0914047513 0.222061354 0.970738856 -0.0914047454 0.222061341 0.97073886 -0.106984546 0.290674189 0.950822182 -0.106984546 0.290674189 0.950822182 -0.0832548609 0.275019067 0.957827302 -0.0832548609 0.275019067 0.957827302 -0.0832548609 0.275019067 0.957827302 -0.131230653 0.358510846 0.924255641 -0.131230653 0.358510846 0.924255641 -0.0952050159 0.348326362 0.932526005 -0.0952050237 0.348326387 0.932525995 -0.0952050159 0.348326362 0.932526005 -0.183473593 0.430592701 0.883700949 -0.183473613 0.430592744 0.883700923 -0.1350206 0.431804411 0.891804008 -0.135020599 0.431804435 0.891803996 -0.135020596 0.431804411 0.891804008 -0.265494503 0.494082214 0.827886124 -0.26549449 0.494082218 0.827886126 -0.2053842 0.513855808 0.832928291 -0.2053842 0.513855808 0.832928291 -0.2053842 0.513855808 0.832928291 -0.377034819 0.526380584 0.762081509 -0.377034819 0.526380584 0.762081509 -0.306630703 0.576199938 0.757608899 -0.306630704 0.576199901 0.757608927 -0.306630703 0.576199938 0.757608899 -0.492240181 0.529808958 0.690653366 -0.492240181 0.529808958 0.690653366 -0.492240181 0.529808958 0.690653366 -0.440301491 0.584563714 0.681483574 -0.440301491 0.584563714 0.681483574 -0.440301474 0.58456369 0.681483606 -0.616053621 0.510281671 0.600075456 -0.616053621 0.510281671 0.600075456 -0.616053621 0.510281671 0.600075456 -0.564402154 0.452442334 0.690468061 -0.572237528 0.58776664 0.571904352 -0.572237515 0.587766675 0.571904329 -0.602410816 -0.268405324 0.75170459 -0.602410776 -0.268405338 0.751704617 -0.48977194 -0.287483877 0.823089586 -0.489771936 -0.287483891 0.823089584 -0.489771936 -0.287483891 0.823089584 -0.496549668 -0.292284596 0.817317651 -0.396138777 -0.276629293 0.875528585 -0.396138774 -0.276629307 0.875528582 -0.396138777 -0.276629293 0.875528585 -0.406092782 -0.28952289 0.86675553 -0.406092758 -0.289522889 0.866755542 -0.324558031 -0.248715392 0.912580264 -0.324558012 -0.248715362 0.912580279 -0.324558034 -0.248715378 0.912580267 -0.326542206 -0.253010054 0.910689903 -0.268727265 -0.212013477 0.939593499 -0.268727265 -0.212013477 0.939593499 -0.268727242 -0.21201346 0.939593509 -0.269779915 -0.217536821 0.938028 -0.553893428 -0.0122214194 0.832497872 -0.235197331 -0.172712256 0.956479321 -0.235152274 -0.175334877 0.956013122 -0.235152274 -0.175334877 0.956013122 -0.210164997 -0.130834678 0.968872004 -0.210164971 -0.130834669 0.968872011 -0.90290589 0.262549282 0.340336346 -0.902905896 0.262549256 0.34033635 -0.897088371 0.200888696 0.393543119 -0.897088361 0.200888694 0.393543144 -0.897088375 0.200888669 0.393543123 -0.821129737 0.428182007 0.377367359 -0.821129728 0.428182002 0.377367384 -0.821129737 0.428182007 0.377367359 -0.832578664 0.307738696 0.460553649 -0.832578675 0.3077387 0.460553625 -0.832578669 0.307738726 0.460553619 -0.710768086 0.525810951 0.467259641 -0.710768076 0.525810943 0.467259665 -0.710768076 0.525810943 0.467259665 -0.736936721 0.426029336 0.524807845 -0.736936751 0.426029309 0.524807825 -0.736936707 0.426029381 0.524807828</float_array>
        <technique_common><accessor source="#vfx_kurp_1059-mesh-normals-array" count="310" stride="3"><param name="X" type="float"/><param name="Y" type="float"/><param name="Z" type="float"/></accessor></technique_common>
      </source>
      <source id="vfx_kurp_1059-mesh-uv0">
        <float_array id="vfx_kurp_1059-mesh-uv0-array" count="620">0.5 0.199999928 0.5 0.133333266 1 0.199999928 1 0.199999928 0.5 0.133333266 1 0.133333266 0.5 0.0666666031 1 0.133333266 0.5 0.133333266 1 0.133333266 0.5 0.0666666031 1 0.0666666031 0.5 0 1 0.0666666031 0.5 0.0666666031 1 0.0666666031 0.5 0 1 0 0 0 0.5 0 0 0.0666666031 0.5 0.0666666031 0 0.0666666031 0.5 0 0 0.0666666031 0.5 0.0666666031 0 0.133333266 0.5 0.133333266 0 0.133333266 0.5 0.0666666031 0 0.133333266 0.5 0.133333266 0 0.199999928 0.5 0.199999928 0.5 0.133333266 0 0.266666651 0.5 0.266666651 0.5 0.199999928 0 0.266666651 0.5 0.266666651 0 0.333333313 0.5 0.333333313 0 0.333333313 0.5 0.266666651 0 0.333333313 0.5 0.333333313 0 0.399999976 0.5 0.399999976 0 0.399999976 0.5 0.333333313 0 0.399999976 0.5 0.399999976 0 0.466666639 0.5 0.466666639 0 0.466666639 0.5 0.399999976 0 0.466666639 0.5 0.466666639 0 0.533333302 0.5 0.533333302 0 0.533333302 0.5 0.466666639 0 0.533333302 0.5 0.533333302 0 0.599999964 0.5 0.599999964 0 0.599999964 0.5 0.533333302 1 0.266666651 0.5 0.199999928 1 0.199999928 0.5 0.199999928 1 0.266666651 0.5 0.266666651 1 0.333333313 0.5 0.266666651 1 0.266666651 0.5 0.266666651 1 0.333333313 0.5 0.333333313 1 0.399999976 0.5 0.333333313 1 0.333333313 0.5 0.333333313 1 0.399999976 0.5 0.399999976 1 0.466666639 0.5 0.399999976 1 0.399999976 0.5 0.399999976 1 0.466666639 0.5 0.466666639 1 0.533333302 0.5 0.466666639 1 0.533333302 0.5 0.533333302 1 0.599999964 0.5 0.533333302 1 0.599999964 0.5 0.599999964 1 0.666666627 0.5 0.599999964 1 0.666666627 0.5 0.666666627 1 0.733333349 0.5 0.666666627 1 0.733333349 0.5 0.733333349 1 0.799999952 0.5 0.733333349 1 0.733333349 0.5 0.799999952 0.5 0.733333349 1 0.799999952 0 0.599999964 0.5 0.599999964 0 0.666666627 0.5 0.666666627 0 0.666666627 0.5 0.599999964 0 0.666666627 0.5 0.666666627 0 0.733333349 0.5 0.733333349 0 0.733333349 0.5 0.666666627 0 0.733333349 0.5 0.733333349 0 0.799999952 0.5 0.799999952 0 0.799999952 0.5 0.733333349 0 0.799999952 0.5 0.799999952 0 0.866666675 0.5 0.866666675 0 0.866666675 0.5 0.799999952 0 0.866666675 0.5 0.866666675 0 0.933333337 0.5 0.933333337 0 0.933333337 0.5 0.866666675 0 0.933333337 0.5 0.933333337 0 1 0 1 0.5 0.933333337 0.5 1 0.5 1 0.5 0.933333337 1 1 1 1 0.5 0.933333337 1 0.933333337 0.5 0.866666675 0.5 0.933333337 1 0.933333337 0.5 0.866666675 1 0.866666675 0.5 0.799999952 0.5 0.866666675 1 0.866666675 0.5 0.199999928 0.5 0.133333266 0 0.199999928 0 0.133333266 0.5 0.0666666031 0 0.133333266 0.5 0.133333266 0 0.133333266 0.5 0.0666666031 0 0.0666666031 0.5 0 0 0.0666666031 0 0.0666666031 0.5 0 0 0 1 0 1 0.0666666031 1 0.0666666031 0.5 0 1 0.0666666031 0.5 0.0666666031 1 0.133333266 0.5 0.133333266 1 0.133333266 0.5 0.0666666031 1 0.133333266 1 0.199999928 0.5 0.199999928 1 0.199999928 0.5 0.133333266 1 0.199999928 1 0.266666651 0.5 0.266666651 1 0.266666651 0.5 0.199999928 1 0.266666651 0.5 0.266666651 1 0.333333313 0.5 0.333333313 1 0.333333313 0.5 0.266666651 1 0.333333313 0.5 0.333333313 1 0.399999976 0.5 0.399999976 1 0.399999976 1 0.399999976 0.5 0.399999976 1 0.466666639 0.5 0.466666639 1 0.466666639 0.5 0.466666639 1 0.533333302 0.5 0.533333302 1 0.533333302 0.5 0.533333302 1 0.599999964 0.5 0.599999964 1 0.599999964 0 0.266666651 0.5 0.199999928 0.5 0.266666651 0 0.333333313 0 0.266666651 0.5 0.266666651 0 0.333333313 0.5 0.333333313 0 0.399999976 0 0.333333313 0.5 0.333333313 0 0.399999976 0.5 0.399999976 0 0.466666639 0 0.399999976 0.5 0.399999976 0 0.466666639 0.5 0.466666639 0 0.533333302 0 0.466666639 0.5 0.466666639 0 0.533333302 0.5 0.533333302 0 0.599999964 0 0.533333302 0.5 0.533333302 0 0.599999964 0.5 0.599999964 0 0.666666627 0 0.599999964 0.5 0.599999964 0 0.666666627 0.5 0.666666627 0 0.733333349 0.5 0.666666627 0 0.666666627 0.5 0.666666627 0 0.733333349 0.5 0.733333349 0 0.799999952 0.5 0.733333349 0 0.733333349 0.5 0.799999952 0.5 0.733333349 0 0.799999952 0.5 0.599999964 1 0.666666627 0.5 0.666666627 1 0.666666627 0.5 0.599999964 1 0.733333349 0.5 0.733333349 1 0.733333349 0.5 0.666666627 1 0.733333349 1 0.799999952 0.5 0.799999952 1 0.799999952 0.5 0.733333349 1 0.866666675 0.5 0.866666675 1 0.866666675 0.5 0.799999952 1 0.933333337 0.5 0.933333337 1 0.933333337 0.5 0.933333337 1 1 1 1 0.5 1 0.5 1 0 1 0 1 0.5 0.933333337 0 0.933333337 0.5 0.866666675 0 0.933333337 0.5 0.933333337 0 0.933333337 0.5 0.866666675 0 0.866666675 0.5 0.799999952 0 0.866666675 0.5 0.866666675 0 0.866666675 0.5 0.799999952 0 0.799999952</float_array>
        <technique_common><accessor source="#vfx_kurp_1059-mesh-uv0-array" count="310" stride="2"><param name="S" type="float"/><param name="T" type="float"/></accessor></technique_common>
      </source>
      <source id="vfx_kurp_1059-mesh-colors">
        <float_array id="vfx_kurp_1059-mesh-colors-array" count="1240">0 0 0 0.849999964 0 0 0 0.599999964 0 0 0 0 0 0 0 0 0 0 0 0.599999964 0 0 0 0 0 0 0 0.299999982 0 0 0 0 0 0 0 0.599999964 0 0 0 0 0 0 0 0.299999982 0 0 0 0 0 0 0 0 0 0 0 0 0 0 0 0.299999982 0 0 0 0 0 0 0 0 0 0 0 0 0 0 0 0 0 0 0 0 0 0 0 0 0 0 0 0.299999982 0 0 0 0 0 0 0 0 0 0 0 0 0 0 0 0.299999982 0 0 0 0 0 0 0 0.599999964 0 0 0 0 0 0 0 0.299999982 0 0 0 0 0 0 0 0.599999964 0 0 0 0 0 0 0 0.849999964 0 0 0 0.599999964 0 0 0 0 0 0 0 1 0 0 0 0.849999964 0 0 0 0 0 0 0 1 0 0 0 0 0 0 0 1 0 0 0 0 0 0 0 1 0 0 0 0 0 0 0 1 0 0 0 0 0 0 0 1 0 0 0 0 0 0 0 1 0 0 0 0 0 0 0 1 0 0 0 0 0 0 0 1 0 0 0 0 0 0 0 1 0 0 0 0 0 0 0 1 0 0 0 0 0 0 0 1 0 0 0 0 0 0 0 1 0 0 0 0 0 0 0 1 0 0 0 0 0 0 0 1 0 0 0 0 0 0 0 1 0 0 0 0 0 0 0 0.849999964 0 0 0 0 0 0 0 0.849999964 0 0 0 0 0 0 0 1 0 0 0 0 0 0 0 1 0 0 0 0 0 0 0 1 0 0 0 0 0 0 0 1 0 0 0 0 0 0 0 1 0 0 0 0 0 0 0 1 0 0 0 0 0 0 0 1 0 0 0 0 0 0 0 1 0 0 0 0 0 0 0 1 0 0 0 0 0 0 0 1 0 0 0 0 0 0 0 1 0 0 0 0 0 0 0 1 0 0 0 0 0 0 0 1 0 0 0 0 0 0 0 1 0 0 0 0 0 0 0 1 0 0 0 0 0 0 0 1 0 0 0 0 0 0 0 1 0 0 0 0 0 0 0 1 0 0 0 0 0 0 0 1 0 0 0 0 0 0 0 0.849999964 0 0 0 1 0 0 0 0 0 0 0 0 0 0 0 1 0 0 0 0 0 0 0 1 0 0 0 0 0 0 0 1 0 0 0 0 0 0 0 1 0 0 0 0 0 0 0 1 0 0 0 0 0 0 0 1 0 0 0 0 0 0 0 1 0 0 0 0 0 0 0 0.849999964 0 0 0 0 0 0 0 1 0 0 0 0 0 0 0 0.849999964 0 0 0 0 0 0 0 0.599999964 0 0 0 0 0 0 0 0.849999964 0 0 0 0 0 0 0 0.599999964 0 0 0 0 0 0 0 0.299999982 0 0 0 0 0 0 0 0.599999964 0 0 0 0 0 0 0 0.299999982 0 0 0 0 0 0 0 0 0 0 0 0.299999982 0 0 0 0 0 0 0 0 0 0 0 0.299999982 0 0 0 0 0 0 0 0 0 0 0 0.299999982 0 0 0 0 0 0 0 0.599999964 0 0 0 0.299999982 0 0 0 0 0 0 0 0.599999964 0 0 0 0 0 0 0 0.849999964 0 0 0 0.599999964 0 0 0 0 0 0 0 0.849999964 0 0 0 0.599999964 0 0 0 0 0 0 0 0 0 0 0 0.299999982 0 0 0 0 0 0 0 0.599999964 0 0 0 0 0 0 0 0.299999982 0 0 0 0 0 0 0 0 0 0 0 0 0 0 0 0 0 0 0 0 0 0 0 0 0 0 0 0 0 0 0 0 0 0 0 0 0 0 0 0 0 0 0 0 0 0 0 0.299999982 0 0 0 0 0 0 0 0.599999964 0 0 0 0 0 0 0 0.299999982 0 0 0 0 0 0 0 0 0 0 0 0.849999964 0 0 0 0 0 0 0 0.599999964 0 0 0 0 0 0 0 0 0 0 0 1 0 0 0 0 0 0 0 0.849999964 0 0 0 0 0 0 0 1 0 0 0 0 0 0 0 1 0 0 0 0 0 0 0 1 0 0 0 0 0 0 0 1 0 0 0 0 0 0 0 1 0 0 0 0 0 0 0 0 0 0 0 1 0 0 0 0 0 0 0 1 0 0 0 0 0 0 0 1 0 0 0 0 0 0 0 1 0 0 0 0 0 0 0 1 0 0 0 0 0 0 0 1 0 0 0 0 0 0 0 0 0 0 0 0.849999964 0 0 0 1 0 0 0 0 0 0 0 0 0 0 0 1 0 0 0 0 0 0 0 1 0 0 0 0 0 0 0 0 0 0 0 1 0 0 0 0 0 0 0 1 0 0 0 0 0 0 0 0 0 0 0 1 0 0 0 0 0 0 0 1 0 0 0 0 0 0 0 0 0 0 0 1 0 0 0 0 0 0 0 1 0 0 0 0 0 0 0 0 0 0 0 1 0 0 0 0 0 0 0 1 0 0 0 0 0 0 0 0 0 0 0 1 0 0 0 0 0 0 0 1 0 0 0 0 0 0 0 1 0 0 0 0 0 0 0 1 0 0 0 0 0 0 0 1 0 0 0 0 0 0 0 1 0 0 0 0 0 0 0 0.849999964 0 0 0 1 0 0 0 0 0 0 0 1 0 0 0 0 0 0 0 1 0 0 0 0 0 0 0 1 0 0 0 0 0 0 0 1 0 0 0 0 0 0 0 1 0 0 0 0 0 0 0 0 0 0 0 0.849999964 0 0 0 0 0 0 0 1 0 0 0 0 0 0 0 0.599999964 0 0 0 0 0 0 0 0.849999964 0 0 0 0 0 0 0 0.299999982 0 0 0 0 0 0 0 0.299999982 0 0 0 0 0 0 0 0 0 0 0 0 0 0 0 0 0 0 0 0 0 0 0 0 0 0 0 0.299999982 0 0 0 0 0 0 0 0.599999964 0 0 0 0 0 0 0 0.299999982 0 0 0 0 0 0 0 0.599999964 0 0 0 0 0 0 0 0.849999964 0 0 0 0 0 0 0 0.599999964 0 0 0 0 0 0 0 0.849999964 0 0 0 0</float_array>
        <technique_common><accessor source="#vfx_kurp_1059-mesh-colors-array" count="310" stride="4"><param name="R" type="float"/><param name="G" type="float"/><param name="B" type="float"/><param name="A" type="float"/></accessor></technique_common>
      </source>
      <vertices id="vfx_kurp_1059-mesh-vertices"><input semantic="POSITION" source="#vfx_kurp_1059-mesh-positions"/></vertices>
      <triangles material="PreviewMaterial" count="120">
        <input semantic="VERTEX" source="#vfx_kurp_1059-mesh-vertices" offset="0"/>
        <input semantic="NORMAL" source="#vfx_kurp_1059-mesh-normals" offset="1"/>
        <input semantic="TEXCOORD" source="#vfx_kurp_1059-mesh-uv0" offset="2" set="0"/>
        <input semantic="COLOR" source="#vfx_kurp_1059-mesh-colors" offset="3" set="0"/>
        <p>0 0 0 0 1 1 1 1 2 2 2 2 3 3 3 3 4 4 4 4 5 5 5 5 6 6 6 6 7 7 7 7 8 8 8 8 9 9 9 9 10 10 10 10 11 11 11 11 12 12 12 12 13 13 13 13 14 14 14 14 15 15 15 15 16 16 16 16 17 17 17 17 18 18 18 18 19 19 19 19 20 20 20 20 21 21 21 21 22 22 22 22 23 23 23 23 24 24 24 24 25 25 25 25 26 26 26 26 27 27 27 27 28 28 28 28 29 29 29 29 30 30 30 30 31 31 31 31 32 32 32 32 33 33 33 33 32 32 32 32 34 34 34 34 32 32 32 32 33 33 33 33 35 35 35 35 36 36 36 36 35 35 35 35 37 37 37 37 38 38 38 38 39 39 39 39 40 40 40 40 41 41 41 41 42 42 42 42 43 43 43 43 44 44 44 44 45 45 45 45 46 46 46 46 47 47 47 47 48 48 48 48 49 49 49 49 50 50 50 50 51 51 51 51 52 52 52 52 53 53 53 53 54 54 54 54 55 55 55 55 56 56 56 56 57 57 57 57 58 58 58 58 59 59 59 59 60 60 60 60 61 61 61 61 62 62 62 62 63 63 63 63 64 64 64 64 65 65 65 65 66 66 66 66 67 67 67 67 68 68 68 68 69 69 69 69 70 70 70 70 71 71 71 71 72 72 72 72 73 73 73 73 74 74 74 74 75 75 75 75 76 76 76 76 77 77 77 77 78 78 78 78 79 79 79 79 80 80 80 80 81 81 81 81 82 82 82 82 83 83 83 83 84 84 84 84 85 85 85 85 86 86 86 86 87 87 87 87 88 88 88 88 89 89 89 89 90 90 90 90 91 91 91 91 92 92 92 92 91 91 91 91 90 90 90 90 93 93 93 93 94 94 94 94 95 95 95 95 96 96 96 96 95 95 95 95 94 94 94 94 97 97 97 97 98 98 98 98 99 99 99 99 100 100 100 100 99 99 99 99 98 98 98 98 101 101 101 101 102 102 102 102 103 103 103 103 104 104 104 104 103 103 103 103 102 102 102 102 105 105 105 105 106 106 106 106 107 107 107 107 108 108 108 108 109 109 109 109 110 110 110 110 111 111 111 111 112 112 112 112 113 113 113 113 114 114 114 114 115 115 115 115 116 116 116 116 117 117 117 117 118 118 118 118 119 119 119 119 120 120 120 120 121 121 121 121 122 122 122 122 123 123 123 123 124 124 124 124 125 125 125 125 126 126 126 126 127 127 127 127 128 128 128 128 129 129 129 129 130 130 130 130 131 131 131 131 132 132 132 132 133 133 133 133 134 134 134 134 135 135 135 135 136 136 136 136 137 137 137 137 138 138 138 138 139 139 139 139 140 140 140 140 141 141 141 141 142 142 142 142 143 143 143 143 144 144 144 144 145 145 145 145 146 146 146 146 147 147 147 147 148 148 148 148 149 149 149 149 150 150 150 150 151 151 151 151 152 152 152 152 153 153 153 153 154 154 154 154 155 155 155 155 156 156 156 156 155 155 155 155 157 157 157 157 158 158 158 158 159 159 159 159 160 160 160 160 161 161 161 161 160 160 160 160 162 162 162 162 163 163 163 163 111 111 111 111 113 113 113 113 164 164 164 164 165 165 165 165 166 166 166 166 166 166 166 166 165 165 165 165 167 167 167 167 168 168 168 168 169 169 169 169 170 170 170 170 171 171 171 171 172 172 172 172 173 173 173 173 174 174 174 174 175 175 175 175 29 29 29 29 176 176 176 176 177 177 177 177 178 178 178 178 179 179 179 179 23 23 23 23 180 180 180 180 168 168 168 168 181 181 181 181 182 182 182 182 183 183 183 183 184 184 184 184 185 185 185 185 186 186 186 186 187 187 187 187 188 188 188 188 189 189 189 189 34 34 34 34 190 190 190 190 191 191 191 191 192 192 192 192 193 193 193 193 194 194 194 194 164 164 164 164 195 195 195 195 196 196 196 196 197 197 197 197 198 198 198 198 199 199 199 199 200 200 200 200 201 201 201 201 202 202 202 202 203 203 203 203 204 204 204 204 205 205 205 205 206 206 206 206 207 207 207 207 208 208 208 208 209 209 209 209 202 202 202 202 210 210 210 210 211 211 211 211 212 212 212 212 213 213 213 213 214 214 214 214 208 208 208 208 214 214 214 214 215 215 215 215 216 216 216 216 217 217 217 217 218 218 218 218 213 213 213 213 218 218 218 218 219 219 219 219 220 220 220 220 221 221 221 221 222 222 222 222 217 217 217 217 223 223 223 223 71 71 71 71 166 166 166 166 224 224 224 224 223 223 223 223 225 225 225 225 226 226 226 226 77 77 77 77 227 227 227 227 228 228 228 228 229 229 229 229 230 230 230 230 231 231 231 231 83 83 83 83 232 232 232 232 233 233 233 233 234 234 234 234 235 235 235 235 236 236 236 236 89 89 89 89 237 237 237 237 238 238 238 238 239 239 239 239 240 240 240 240 241 241 241 241 93 93 93 93 242 242 242 242 243 243 243 243 244 244 244 244 245 245 245 245 246 246 246 246 97 97 97 97 247 247 247 247 248 248 248 248 249 249 249 249 250 250 250 250 251 251 251 251 221 221 221 221 252 252 252 252 253 253 253 253 254 254 254 254 255 255 255 255 256 256 256 256 257 257 257 257 258 258 258 258 259 259 259 259 260 260 260 260 261 261 261 261 262 262 262 262 263 263 263 263 264 264 264 264 265 265 265 265 266 266 266 266 267 267 267 267 222 222 222 222 268 268 268 268 269 269 269 269 270 270 270 270 271 271 271 271 272 272 272 272 271 271 271 271 125 125 125 125 273 273 273 273 274 274 274 274 275 275 275 275 276 276 276 276 277 277 277 277 131 131 131 131 278 278 278 278 279 279 279 279 280 280 280 280 281 281 281 281 280 280 280 280 265 265 265 265 282 282 282 282 283 283 283 283 284 284 284 284 285 285 285 285 284 284 284 284 283 283 283 283 286 286 286 286 287 287 287 287 288 288 288 288 162 162 162 162 288 288 288 288 289 289 289 289 290 290 290 290 291 291 291 291 157 157 157 157 292 292 292 292 293 293 293 293 287 287 287 287 294 294 294 294 295 295 295 295 296 296 296 296 297 297 297 297 298 298 298 298 299 299 299 299 300 300 300 300 301 301 301 301 302 302 302 302 303 303 303 303 304 304 304 304 305 305 305 305 306 306 306 306 307 307 307 307 308 308 308 308 309 309 309 309</p>
      </triangles>
    </mesh></geometry>
  </library_geometries>
  <library_visual_scenes>
    <visual_scene id="Scene" name="Scene">
      <node id="vfx_kurp_1059" name="vfx_kurp_1059" type="NODE">
        <instance_geometry url="#vfx_kurp_1059-mesh"><bind_material><technique_common><instance_material symbol="PreviewMaterial" target="#PreviewMaterial"><bind_vertex_input semantic="UVSET0" input_semantic="TEXCOORD" input_set="0"/></instance_material></technique_common></bind_material></instance_geometry>
      </node>
    </visual_scene>
  </library_visual_scenes>
  <scene><instance_visual_scene url="#Scene"/></scene>
</COLLADA>
