<?xml version="1.0" encoding="utf-8"?>
<COLLADA xmlns="http://www.collada.org/2005/11/COLLADASchema" version="1.4.1">
  <asset>
    <contributor><authoring_tool>Morrobroom Kurpulio VFX preview converter</authoring_tool></contributor>
    <unit name="unit" meter="1"/>
    <up_axis>Z_UP</up_axis>
  </asset>
  <library_images>
    <image id="VFXTexture" name="darkmap_newgen-1.dds">
      <init_from>../../../Textures/Kurp/darkmap_newgen-1.dds</init_from>
    </image>
  </library_images>
  <library_effects>
    <effect id="PreviewEffect">
      <profile_COMMON>
        <newparam sid="VFXTexture-surface">
          <surface type="2D"><init_from>VFXTexture</init_from></surface>
        </newparam>
        <newparam sid="VFXTexture-sampler">
          <sampler2D><source>VFXTexture-surface</source></sampler2D>
        </newparam>
        <technique sid="common"><phong>
          <emission><color>0.08 0.08 0.08 1</color></emission>
          <ambient><color>0.2 0.2 0.2 1</color></ambient>
          <diffuse><texture texture="VFXTexture-sampler" texcoord="UVSET0"/></diffuse>
          <specular><color>0.15 0.15 0.15 1</color></specular>
          <shininess><float>8</float></shininess>
          <transparent opaque="A_ONE"><texture texture="VFXTexture-sampler" texcoord="UVSET0"/></transparent>
          <transparency><float>1</float></transparency>
        </phong></technique>
      </profile_COMMON>
      <extra><technique profile="GOOGLEEARTH"><double_sided>1</double_sided></technique></extra>
    </effect>
  </library_effects>
  <library_materials><material id="PreviewMaterial" name="PreviewMaterial"><instance_effect url="#PreviewEffect"/></material></library_materials>
  <library_geometries>
    <geometry id="vfx_kurp_0659-mesh" name="vfx_kurp_0659"><mesh>
      <source id="vfx_kurp_0659-mesh-positions">
        <float_array id="vfx_kurp_0659-mesh-positions-array" count="234">0.622691489 -1.09160762 5.60653372e-07 0.64593872 -1.13235712 -0.58448141 1.0797406 -0.629541955 3.7743055e-07 1.12004912 -0.653044499 -0.584481346 1.24747527 0.00120845414 9.31189849e-08 1.29404228 0.0012535065 -0.584481663 1.08094923 0.631635584 -2.16100898e-07 1.12130247 0.655214213 -0.58448207 0.700125833 -1.22736 -1.28269304 1.21401471 -0.707831177 -1.28269412 1.40260767 0.00135701152 -1.28269446 1.21537404 0.710183468 -1.28269494 0.903075829 -1.58313735 -2.21334684 1.56592227 -0.91301388 -2.21334605 1.80918761 0.00175146207 -2.21334775 1.56767657 0.916046734 -2.21334736 1.50155278 -2.63230033 -3.18040344 2.60368006 -1.51807765 -3.1804037 3.00815634 0.00291286052 -3.18040392 2.60659329 1.52312096 -3.18040541 2.30732444 -4.04485653 -3.78744426 4.00088278 -2.33271466 -3.78744587 4.62240681 0.00447565333 -3.78744729 4.0053592 2.34046806 -3.7874493 -0.00447893078 -4.67318324 -3.78744521 -0.00291240331 -3.04120024 -3.18040272 -2.31508157 -4.0493332 -3.78744634 -1.50660269 -2.63521382 -3.18040441 -4.00535997 -2.34046815 -3.78744656 -2.60659631 -1.52312208 -3.18040559 -4.62240615 -0.00447618672 -3.78744809 -3.0081565 -0.00291291123 -3.18040445 -4.00088403 2.33271506 -3.78744952 -2.60368284 1.51807701 -3.18040586 -2.30732473 4.04485453 -3.78744921 -1.50155449 2.63229969 -3.18040613 0.00447546165 4.67317839 -3.78744945 0.00291212213 3.04119984 -3.18040565 2.3150808 4.04933264 -3.78744881 1.50659919 2.63521175 -3.18040539 4.0053592 2.34046806 -3.7874493 2.60659329 1.52312096 -3.18040541 1.56767657 0.916046734 -2.21334736 0.906111613 1.58488826 -2.21334835 0.00175232281 1.82905995 -2.21334803 -0.903075978 1.58313507 -2.21334851 -1.56592605 0.913011425 -2.21334835 -1.80918543 -0.00175255173 -2.21334855 -1.56767761 -0.916047282 -2.21334656 -0.90611212 -1.58488923 -2.21334771 -0.00175262022 -1.82906044 -2.21334636 1.21537404 0.710183468 -1.28269494 0.702482726 1.22871924 -1.28269504 0.00135804176 1.41801518 -1.28269504 -0.700127099 1.22736096 -1.28269492 -1.21401544 0.707832845 -1.28269503 -1.40260876 -0.00135875663 -1.28269446 -1.21537441 -0.710184245 -1.28269398 -0.702481429 -1.22871686 -1.28269388 -0.00135854357 -1.41801673 -1.28269435 1.12130247 0.655214213 -0.58448207 0.64810844 1.13361359 -0.584482208 0.00125340167 1.30825834 -0.584482321 -0.645936054 1.13235972 -0.58448232 -1.12004783 0.653045668 -0.584482384 -1.29404432 -0.00125357214 -0.584481769 -1.12129903 -0.655211733 -0.58448178 -0.648105179 -1.13360991 -0.584481344 -0.00125366502 -1.30825932 -0.584481052 1.08094923 0.631635584 -2.16100898e-07 0.624783837 1.09281702 -4.67373837e-07 0.0012090149 1.26117873 -5.93370965e-07 -0.622690714 1.09160857 -5.60331725e-07 -1.0797406 0.629543565 -3.77109269e-07 -1.24747515 -0.00120803749 -9.27971261e-08 -1.080949 -0.631633737 2.164221e-07 -0.62478342 -1.09281476 4.67694826e-07 -0.00120784306 -1.2611773 5.93692434e-07</float_array>
        <technique_common><accessor source="#vfx_kurp_0659-mesh-positions-array" count="78" stride="3"><param name="X" type="float"/><param name="Y" type="float"/><param name="Z" type="float"/></accessor></technique_common>
      </source>
      <source id="vfx_kurp_0659-mesh-normals">
        <float_array id="vfx_kurp_0659-mesh-normals-array" count="234">0.502406165 -0.860922224 0.0800060591 0.500436725 -0.857667534 0.118192575 0.865155495 -0.49515026 0.0795750549 0.861866788 -0.493323504 0.117548114 0.996840728 -0.000851675905 0.0794218924 0.993093119 -0.000837804008 0.117325847 0.865573326 0.494398768 0.0797036711 0.8622662 0.492578206 0.117744262 0.482897967 -0.827281415 0.287080152 0.831801714 -0.475959928 0.285601219 0.958498993 -0.000840883198 0.285094674 0.832105523 0.475158152 0.286050921 0.391968953 -0.671281645 0.629079719 0.676219247 -0.386833268 0.626966947 0.779629818 -0.000703417426 0.626240251 0.676121699 0.385961902 0.627608841 0.238500504 -0.408596517 0.881003062 0.412497213 -0.236038323 0.879847691 0.47599615 -0.000414932515 0.879447265 0.412138497 0.235351761 0.880199641 0.175857903 -0.302293489 0.93685252 0.304794185 -0.174886018 0.936224004 0.351987192 -0.000212725536 0.936004792 0.304455802 0.174446414 0.936416101 0.000211799278 -0.34862926 0.937260686 0.000415664132 -0.471699728 0.881759147 -0.175417545 -0.301957144 0.937043525 -0.237812339 -0.4082347 0.88135675 -0.304455622 -0.174445216 0.936416382 -0.412138474 -0.235350369 0.880200024 -0.351987356 0.000213843755 0.936004731 -0.475996258 0.000415849713 0.879447207 -0.304794464 0.174887133 0.936223705 -0.412497286 0.236038752 0.879847542 -0.175858335 0.302294874 0.936851992 -0.238500545 0.408597226 0.881002723 -0.000212549352 0.3486308 0.937260114 -0.000415950247 0.471700467 0.881758752 0.175417359 0.301957712 0.937043377 0.237812193 0.408235587 0.881356379 0.304455802 0.174446414 0.936416101 0.412138497 0.235351761 0.880199641 0.676121699 0.385961902 0.627608841 0.391098669 0.671180952 0.629728482 -0.000705650028 0.77621284 0.630470561 -0.391969261 0.671282514 0.6290786 -0.67621973 0.386832226 0.626967069 -0.77963054 0.000703504652 0.626239353 -0.676121659 -0.385960641 0.627609661 -0.3910987 -0.671179844 0.629729643 0.000705206743 -0.776212565 0.630470901 0.832105523 0.475158152 0.286050921 0.482105133 0.827585737 0.287535195 -0.000845074032 0.957613247 0.288055818 -0.482897371 0.827281916 0.287079712 -0.831800973 0.475960909 0.285601741 -0.95849923 0.000838569385 0.285093883 -0.832103959 -0.475159394 0.286053408 -0.482106121 -0.827584441 0.287537268 0.000844568369 -0.957612943 0.288056831 0.8622662 0.492578206 0.117744262 0.499699748 0.858069679 0.118391675 -0.000844901513 0.992939763 0.118616661 -0.50043412 0.857668976 0.118193143 -0.861865853 0.493324921 0.117549027 -0.993093032 0.000836181745 0.117326598 -0.862264312 -0.492581526 0.117744202 -0.4997013 -0.858068675 0.118392396 0.000842429366 -0.992939517 0.11861874 0.865573326 0.494398768 0.0797036711 0.501664629 0.861342047 0.0801403675 -0.000859223566 0.996771164 0.0802901476 -0.502405294 0.86092277 0.0800056502 -0.865155716 0.495150175 0.0795731848 -0.996840542 0.00085241892 0.0794242266 -0.865572197 -0.494401243 0.079700585 -0.501665188 -0.861342129 0.0801359847 0.000856912011 -0.996770992 0.0802923172</float_array>
        <technique_common><accessor source="#vfx_kurp_0659-mesh-normals-array" count="78" stride="3"><param name="X" type="float"/><param name="Y" type="float"/><param name="Z" type="float"/></accessor></technique_common>
      </source>
      <source id="vfx_kurp_0659-mesh-uv0">
        <float_array id="vfx_kurp_0659-mesh-uv0-array" count="156">0.166666701 1 0.166666701 0.799999952 0.0833333582 1 0.0833333582 0.799999952 2.78275341e-08 1 2.78275341e-08 0.799999952 -0.0833333731 1 -0.0833333731 0.799999952 0.166666701 0.599999964 0.0833333582 0.599999964 2.78275341e-08 0.599999964 -0.0833333731 0.599999964 0.166666701 0.399999976 0.0833333582 0.399999976 2.78275341e-08 0.399999976 -0.0833333731 0.399999976 0.166666701 0.199999928 0.0833333582 0.199999928 2.78275341e-08 0.199999928 -0.0833333731 0.199999928 0.166666701 0 0.0833333582 0 2.78275341e-08 0 -0.0833333731 0 0.25000003 0 0.25000003 0.199999928 0.333333343 0 0.333333343 0.199999928 0.416666687 0 0.416666687 0.199999928 0.5 0 0.5 0.199999928 0.583333373 0 0.583333373 0.199999928 0.666666687 0 0.666666687 0.199999928 0.75 0 0.75 0.199999928 0.833333313 0 0.833333313 0.199999928 0.916666627 0 0.916666627 0.199999928 0.916666627 0.399999976 0.833333313 0.399999976 0.75 0.399999976 0.666666687 0.399999976 0.583333373 0.399999976 0.5 0.399999976 0.416666687 0.399999976 0.333333343 0.399999976 0.25000003 0.399999976 0.916666627 0.599999964 0.833333313 0.599999964 0.75 0.599999964 0.666666687 0.599999964 0.583333373 0.599999964 0.5 0.599999964 0.416666687 0.599999964 0.333333343 0.599999964 0.25000003 0.599999964 0.916666627 0.799999952 0.833333313 0.799999952 0.75 0.799999952 0.666666687 0.799999952 0.583333373 0.799999952 0.5 0.799999952 0.416666687 0.799999952 0.333333343 0.799999952 0.25000003 0.799999952 0.916666627 1 0.833333313 1 0.75 1 0.666666687 1 0.583333373 1 0.5 1 0.416666687 1 0.333333343 1 0.25000003 1</float_array>
        <technique_common><accessor source="#vfx_kurp_0659-mesh-uv0-array" count="78" stride="2"><param name="S" type="float"/><param name="T" type="float"/></accessor></technique_common>
      </source>
      <source id="vfx_kurp_0659-mesh-colors">
        <float_array id="vfx_kurp_0659-mesh-colors-array" count="312">1 0.470588267 0 0 0 0 0 0.099999994 1 0.470588267 0 0 0 0 0 0.099999994 1 0.470588267 0 0 0 0 0 0.099999994 1 0.470588267 0 0 0 0 0 0.099999994 0 0 0 0.5 0 0 0 0.5 0 0 0 0.5 0 0 0 0.5 0.270588249 0.0901960805 0 1 0.270588249 0.0901960805 0 1 0.270588249 0.0901960805 0 1 0.270588249 0.0901960805 0 1 1 0.517647088 0 1 1 0.517647088 0 1 1 0.517647088 0 1 1 0.517647088 0 1 0 0 0 0 0 0 0 0 0 0 0 0 0 0 0 0 0 0 0 0 1 0.517647088 0 1 0 0 0 0 1 0.517647088 0 1 0 0 0 0 1 0.517647088 0 1 0 0 0 0 1 0.517647088 0 1 0 0 0 0 1 0.517647088 0 1 0 0 0 0 1 0.517647088 0 1 0 0 0 0 1 0.517647088 0 1 0 0 0 0 1 0.517647088 0 1 0 0 0 0 1 0.517647088 0 1 0.270588249 0.0901960805 0 1 0.270588249 0.0901960805 0 1 0.270588249 0.0901960805 0 1 0.270588249 0.0901960805 0 1 0.270588249 0.0901960805 0 1 0.270588249 0.0901960805 0 1 0.270588249 0.0901960805 0 1 0.270588249 0.0901960805 0 1 0.270588249 0.0901960805 0 1 0 0 0 0.5 0 0 0 0.5 0 0 0 0.5 0 0 0 0.5 0 0 0 0.5 0 0 0 0.5 0 0 0 0.5 0 0 0 0.5 0 0 0 0.5 0 0 0 0.099999994 0 0 0 0.099999994 0 0 0 0.099999994 0 0 0 0.099999994 0 0 0 0.099999994 0 0 0 0.099999994 0 0 0 0.099999994 0 0 0 0.099999994 0 0 0 0.099999994 1 0.470588267 0 0 1 0.470588267 0 0 1 0.470588267 0 0 1 0.470588267 0 0 1 0.470588267 0 0 1 0.470588267 0 0 1 0.470588267 0 0 1 0.470588267 0 0 1 0.470588267 0 0</float_array>
        <technique_common><accessor source="#vfx_kurp_0659-mesh-colors-array" count="78" stride="4"><param name="R" type="float"/><param name="G" type="float"/><param name="B" type="float"/><param name="A" type="float"/></accessor></technique_common>
      </source>
      <vertices id="vfx_kurp_0659-mesh-vertices"><input semantic="POSITION" source="#vfx_kurp_0659-mesh-positions"/></vertices>
      <triangles material="PreviewMaterial" count="120">
        <input semantic="VERTEX" source="#vfx_kurp_0659-mesh-vertices" offset="0"/>
        <input semantic="NORMAL" source="#vfx_kurp_0659-mesh-normals" offset="1"/>
        <input semantic="TEXCOORD" source="#vfx_kurp_0659-mesh-uv0" offset="2" set="0"/>
        <input semantic="COLOR" source="#vfx_kurp_0659-mesh-colors" offset="3" set="0"/>
        <p>0 0 0 0 1 1 1 1 2 2 2 2 3 3 3 3 2 2 2 2 1 1 1 1 2 2 2 2 3 3 3 3 4 4 4 4 5 5 5 5 4 4 4 4 3 3 3 3 4 4 4 4 5 5 5 5 6 6 6 6 7 7 7 7 6 6 6 6 5 5 5 5 1 1 1 1 8 8 8 8 3 3 3 3 9 9 9 9 3 3 3 3 8 8 8 8 3 3 3 3 9 9 9 9 5 5 5 5 10 10 10 10 5 5 5 5 9 9 9 9 5 5 5 5 10 10 10 10 7 7 7 7 11 11 11 11 7 7 7 7 10 10 10 10 8 8 8 8 12 12 12 12 9 9 9 9 13 13 13 13 9 9 9 9 12 12 12 12 9 9 9 9 13 13 13 13 10 10 10 10 14 14 14 14 10 10 10 10 13 13 13 13 10 10 10 10 14 14 14 14 11 11 11 11 15 15 15 15 11 11 11 11 14 14 14 14 12 12 12 12 16 16 16 16 13 13 13 13 17 17 17 17 13 13 13 13 16 16 16 16 13 13 13 13 17 17 17 17 14 14 14 14 18 18 18 18 14 14 14 14 17 17 17 17 14 14 14 14 18 18 18 18 15 15 15 15 19 19 19 19 15 15 15 15 18 18 18 18 16 16 16 16 20 20 20 20 17 17 17 17 21 21 21 21 17 17 17 17 20 20 20 20 17 17 17 17 21 21 21 21 18 18 18 18 22 22 22 22 18 18 18 18 21 21 21 21 18 18 18 18 22 22 22 22 19 19 19 19 23 23 23 23 19 19 19 19 22 22 22 22 20 20 20 20 16 16 16 16 24 24 24 24 25 25 25 25 24 24 24 24 16 16 16 16 24 24 24 24 25 25 25 25 26 26 26 26 27 27 27 27 26 26 26 26 25 25 25 25 26 26 26 26 27 27 27 27 28 28 28 28 29 29 29 29 28 28 28 28 27 27 27 27 28 28 28 28 29 29 29 29 30 30 30 30 31 31 31 31 30 30 30 30 29 29 29 29 30 30 30 30 31 31 31 31 32 32 32 32 33 33 33 33 32 32 32 32 31 31 31 31 32 32 32 32 33 33 33 33 34 34 34 34 35 35 35 35 34 34 34 34 33 33 33 33 34 34 34 34 35 35 35 35 36 36 36 36 37 37 37 37 36 36 36 36 35 35 35 35 36 36 36 36 37 37 37 37 38 38 38 38 39 39 39 39 38 38 38 38 37 37 37 37 38 38 38 38 39 39 39 39 40 40 40 40 41 41 41 41 40 40 40 40 39 39 39 39 42 42 42 42 41 41 41 41 43 43 43 43 39 39 39 39 43 43 43 43 41 41 41 41 43 43 43 43 39 39 39 39 44 44 44 44 37 37 37 37 44 44 44 44 39 39 39 39 44 44 44 44 37 37 37 37 45 45 45 45 35 35 35 35 45 45 45 45 37 37 37 37 45 45 45 45 35 35 35 35 46 46 46 46 33 33 33 33 46 46 46 46 35 35 35 35 46 46 46 46 33 33 33 33 47 47 47 47 31 31 31 31 47 47 47 47 33 33 33 33 47 47 47 47 31 31 31 31 48 48 48 48 29 29 29 29 48 48 48 48 31 31 31 31 48 48 48 48 29 29 29 29 49 49 49 49 27 27 27 27 49 49 49 49 29 29 29 29 49 49 49 49 27 27 27 27 50 50 50 50 25 25 25 25 50 50 50 50 27 27 27 27 50 50 50 50 25 25 25 25 12 12 12 12 16 16 16 16 12 12 12 12 25 25 25 25 51 51 51 51 42 42 42 42 52 52 52 52 43 43 43 43 52 52 52 52 42 42 42 42 52 52 52 52 43 43 43 43 53 53 53 53 44 44 44 44 53 53 53 53 43 43 43 43 53 53 53 53 44 44 44 44 54 54 54 54 45 45 45 45 54 54 54 54 44 44 44 44 54 54 54 54 45 45 45 45 55 55 55 55 46 46 46 46 55 55 55 55 45 45 45 45 55 55 55 55 46 46 46 46 56 56 56 56 47 47 47 47 56 56 56 56 46 46 46 46 56 56 56 56 47 47 47 47 57 57 57 57 48 48 48 48 57 57 57 57 47 47 47 47 57 57 57 57 48 48 48 48 58 58 58 58 49 49 49 49 58 58 58 58 48 48 48 48 58 58 58 58 49 49 49 49 59 59 59 59 50 50 50 50 59 59 59 59 49 49 49 49 59 59 59 59 50 50 50 50 8 8 8 8 12 12 12 12 8 8 8 8 50 50 50 50 60 60 60 60 51 51 51 51 61 61 61 61 52 52 52 52 61 61 61 61 51 51 51 51 61 61 61 61 52 52 52 52 62 62 62 62 53 53 53 53 62 62 62 62 52 52 52 52 62 62 62 62 53 53 53 53 63 63 63 63 54 54 54 54 63 63 63 63 53 53 53 53 63 63 63 63 54 54 54 54 64 64 64 64 55 55 55 55 64 64 64 64 54 54 54 54 64 64 64 64 55 55 55 55 65 65 65 65 56 56 56 56 65 65 65 65 55 55 55 55 65 65 65 65 56 56 56 56 66 66 66 66 57 57 57 57 66 66 66 66 56 56 56 56 66 66 66 66 57 57 57 57 67 67 67 67 58 58 58 58 67 67 67 67 57 57 57 57 67 67 67 67 58 58 58 58 68 68 68 68 59 59 59 59 68 68 68 68 58 58 58 58 68 68 68 68 59 59 59 59 1 1 1 1 8 8 8 8 1 1 1 1 59 59 59 59 69 69 69 69 60 60 60 60 70 70 70 70 61 61 61 61 70 70 70 70 60 60 60 60 70 70 70 70 61 61 61 61 71 71 71 71 62 62 62 62 71 71 71 71 61 61 61 61 71 71 71 71 62 62 62 62 72 72 72 72 63 63 63 63 72 72 72 72 62 62 62 62 72 72 72 72 63 63 63 63 73 73 73 73 64 64 64 64 73 73 73 73 63 63 63 63 73 73 73 73 64 64 64 64 74 74 74 74 65 65 65 65 74 74 74 74 64 64 64 64 74 74 74 74 65 65 65 65 75 75 75 75 66 66 66 66 75 75 75 75 65 65 65 65 75 75 75 75 66 66 66 66 76 76 76 76 67 67 67 67 76 76 76 76 66 66 66 66 76 76 76 76 67 67 67 67 77 77 77 77 68 68 68 68 77 77 77 77 67 67 67 67 77 77 77 77 68 68 68 68 0 0 0 0 1 1 1 1 0 0 0 0 68 68 68 68</p>
      </triangles>
    </mesh></geometry>
  </library_geometries>
  <library_visual_scenes>
    <visual_scene id="Scene" name="Scene">
      <node id="vfx_kurp_0659" name="vfx_kurp_0659" type="NODE">
        <instance_geometry url="#vfx_kurp_0659-mesh"><bind_material><technique_common><instance_material symbol="PreviewMaterial" target="#PreviewMaterial"><bind_vertex_input semantic="UVSET0" input_semantic="TEXCOORD" input_set="0"/></instance_material></technique_common></bind_material></instance_geometry>
      </node>
    </visual_scene>
  </library_visual_scenes>
  <scene><instance_visual_scene url="#Scene"/></scene>
</COLLADA>
