<?xml version="1.0" encoding="utf-8"?>
<COLLADA xmlns="http://www.collada.org/2005/11/COLLADASchema" version="1.4.1">
  <asset>
    <contributor><authoring_tool>Morrobroom Kurpulio VFX preview converter</authoring_tool></contributor>
    <unit name="unit" meter="1"/>
    <up_axis>Z_UP</up_axis>
  </asset>
  <library_images>
    <image id="VFXTexture" name="darkmap_newgen-1.dds">
      <init_from>../../../Textures/Kurp/darkmap_newgen-1.dds</init_from>
    </image>
  </library_images>
  <library_effects>
    <effect id="PreviewEffect">
      <profile_COMMON>
        <newparam sid="VFXTexture-surface">
          <surface type="2D"><init_from>VFXTexture</init_from></surface>
        </newparam>
        <newparam sid="VFXTexture-sampler">
          <sampler2D><source>VFXTexture-surface</source></sampler2D>
        </newparam>
        <technique sid="common"><phong>
          <emission><color>0.08 0.08 0.08 1</color></emission>
          <ambient><color>0.2 0.2 0.2 1</color></ambient>
          <diffuse><texture texture="VFXTexture-sampler" texcoord="UVSET0"/></diffuse>
          <specular><color>0.15 0.15 0.15 1</color></specular>
          <shininess><float>8</float></shininess>
          <transparent opaque="A_ONE"><texture texture="VFXTexture-sampler" texcoord="UVSET0"/></transparent>
          <transparency><float>1</float></transparency>
        </phong></technique>
      </profile_COMMON>
      <extra><technique profile="GOOGLEEARTH"><double_sided>1</double_sided></technique></extra>
    </effect>
  </library_effects>
  <library_materials><material id="PreviewMaterial" name="PreviewMaterial"><instance_effect url="#PreviewEffect"/></material></library_materials>
  <library_geometries>
    <geometry id="vfx_kurp_0393-mesh" name="vfx_kurp_0393"><mesh>
      <source id="vfx_kurp_0393-mesh-positions">
        <float_array id="vfx_kurp_0393-mesh-positions-array" count="1224">1.72767012 -2.86842803 1.18902711 1.68611185 -1.72781004 1.07256742 0.885455447 -2.79872801 1.04620866 0.852982285 -1.9074598 0.955208275 1.41612965 -0.636447593 0.923930745 0.642020461 -1.05467991 0.839065033 0.933904803 0.340245704 0.752025883 0.265214621 -0.291501111 0.704740271 0.268341596 1.14372888 0.5671565 -0.254850169 0.336332918 0.560285067 -0.540668542 1.72584337 0.380403017 -0.887002984 0.7911917 0.41435771 -1.44463511 2.05169887 0.202959196 -1.59335408 1.04581214 0.275704751 -2.38937709 2.10176449 0.0454606245 -2.33156643 1.0849326 0.152636801 0.737493899 -3.67506377 1.10661191 1.53831341 -3.98993612 1.26632943 0.417965638 -4.48394183 1.13279755 1.12939098 -5.02511383 1.29984098 -0.0539774031 -5.17688008 1.12319631 0.525412689 -5.91191553 1.2875534 -0.650047667 -5.7123451 1.07838298 -0.237420533 -6.59718739 1.23020281 -1.33451873 -6.05824307 1.00104444 -1.11338621 -7.03985687 1.13122705 -2.06636561 -6.19384214 0.895815762 -2.04998089 -7.21339285 0.996558612 -2.80172197 -6.11101353 0.76900444 -2.991068 -7.10739008 0.834268153 -3.49651215 -5.81472225 0.628209878 -3.88024083 -6.72820646 0.654084689 -4.10909484 -5.3227279 0.481872273 -4.66420441 -6.09856688 0.466805885 1.24118619 -2.77296402 1.53708821 1.20417053 -1.75702129 1.43335842 1.3776153 -2.89049035 0.697916385 1.34059929 -1.87454673 0.594186348 0.963698417 -0.784949987 1.30096825 1.10012736 -0.902476002 0.461796435 0.534183288 0.0849858815 1.14785352 0.670612316 -0.0325398315 0.30868156 -0.0586311301 0.800644209 0.983191257 0.0777980628 0.683118471 0.144019248 -0.779212504 1.31913116 0.816850934 -0.642783444 1.20160487 -0.0223210135 -1.58437132 1.60936854 0.658802589 -1.44794238 1.4918429 -0.180369299 -2.42584832 1.6539618 0.518519068 -2.28941946 1.53643603 -0.32065267 1.20895582 -3.8894124 0.766769313 1.07252715 -3.771886 1.60594089 0.844730768 -4.8114393 0.796617467 0.708301744 -4.69391415 1.63578974 0.306770195 -5.60130928 0.78567305 0.170341102 -5.48378381 1.62484516 -0.372681491 -6.21167845 0.734591603 -0.509110592 -6.09415205 1.57376319 -1.15290004 -6.60596183 0.646433962 -1.28932896 -6.4884366 1.48560639 -1.98712077 -6.76052912 0.526485475 -2.12354962 -6.64300264 1.3656572 -2.82534278 -6.66611504 0.381934991 -2.96177165 -6.54858905 1.22110658 -3.61732392 -6.32837665 0.221445836 -3.75375314 -6.21085065 1.06061744 -4.31559755 -5.76755906 0.0546380341 -4.45202643 -5.65003315 0.893809466 -5.31882488 -7.96258491 3.0531144 -4.54368957 -7.60194653 4.09570195 -4.82279773 -6.79517527 2.5837008 -4.21711376 -6.51337471 3.39836884 -3.67901459 -6.94284707 4.94709675 -3.54146484 -5.99836027 4.06364021 -2.77662612 -6.02479069 5.5562685 -2.83634788 -5.28100022 4.53964125 -1.89061262 -4.90280596 5.88670558 -2.144025 -4.40429237 4.79784238 -1.07407836 -3.64414065 5.91860248 -1.50599321 -3.42078269 4.82276608 -0.375965575 -2.32423598 5.65004762 -0.960493774 -2.38942169 4.6129194 0.16188385 -1.02220306 5.09713652 -0.540222584 -1.37202585 4.18088073 -5.32221288 -6.82687008 1.66846715 -5.95796183 -8.00314842 1.88182573 -5.6854268 -6.60656115 0.707522954 -6.42279184 -7.72120573 0.652039386 -5.89066753 -6.14745397 -0.241532916 -6.68545403 -7.13365126 -0.562535274 -5.92563646 -5.47706407 -1.12181836 -6.7302059 -6.27570676 -1.68909807 -5.78823492 -4.63557384 -1.8805722 -6.55436365 -5.19879371 -2.66012735 -5.48669899 -3.67342009 -2.47231395 -6.16846535 -3.96745881 -3.41742072 -5.03910333 -2.64827299 -2.8615781 -5.59564577 -2.65550629 -3.91558901 -4.47227346 -1.62157558 -3.0250319 -4.8702344 -1.34156931 -4.12477259 -3.82018508 -0.65486717 -2.95287966 -4.03571117 -0.104404819 -4.03243371 -5.50561219 -6.9721438 3.05029469 -4.81520259 -6.6509247 3.97892183 -4.62799257 -7.77844166 2.5936417 -3.93758366 -7.45722236 3.52226921 -4.04504079 -6.0638675 4.73725537 -3.16742156 -6.87016621 4.28060232 -3.24128852 -5.24615997 5.279842 -2.36366872 -6.05245908 4.82318969 -2.45211937 -4.24681283 5.57416041 -1.57450046 -5.05311196 5.11750808 -1.72483727 -3.12572475 5.60256993 -0.847216976 -3.93202388 5.14591833 -1.10303089 -1.95009173 5.36336987 -0.225410829 -2.75639161 4.90671766 -0.623970408 -0.790377388 4.87089417 0.253649489 -1.59667682 4.41424275 -5.19726919 -7.81457209 1.55038047 -6.07488918 -7.00827302 2.00703271 -5.6112913 -7.56344503 0.455015237 -6.4889113 -6.75714667 0.911667663 -5.84524246 -7.04011548 -0.626800472 -6.72286208 -6.23381633 -0.170148102 -5.8851027 -6.2759483 -1.630225 -6.76272086 -5.4696479 -1.17357261 -5.72847999 -5.31674534 -2.4951153 -6.60610003 -4.51044685 -2.03846376 -5.3847651 -4.2200011 -3.16963409 -6.26238362 -3.41370258 -2.71298103 -4.87455626 -3.05145133 -3.61335099 -5.75217553 -2.24515226 -3.1566986 -4.22843547 -1.88113493 -3.79966945 -5.1060557 -1.07483455 -3.34301568 -3.48512992 -0.77919751 -3.71742257 -4.36275022 0.0271024734 -3.2607698 -4.81263812 0.169764278 1.31486071 -4.63507559 -0.0171891165 1.95107907 -5.34432831 0.81753006 1.49199638 -5.11708844 0.578272659 2.3062094 -4.35424621 -0.331713801 2.51121467 -4.75769242 0.175753532 3.02305419 -3.98698354 -0.754956727 2.96169462 -4.28768077 -0.365900325 3.59956469 -3.55529989 -1.26155177 3.2755186 -3.73522501 -1.01422507 4.00118701 -3.08506871 -1.82113322 3.43387604 -3.13343795 -1.73035947 4.20384796 -2.6044754 -2.40016128 3.42727559 -2.5183889 -2.47138327 4.1954005 -2.1423259 -2.96393151 3.25611315 -1.92694352 -3.19287907 3.97635258 -5.42579168 0.879185663 0.629216935 -4.87629222 0.21794134 0.640693066 -5.356595 0.759543663 -0.230415731 -4.82222317 0.124454241 -0.0310158657 -5.14088654 0.465775873 -1.0353785 -4.65367061 -0.105093177 -0.660005542 -4.79159528 0.0154889234 -1.73742212 -4.38073769 -0.456942809 -1.20857626 -4.32965604 -0.564327195 -2.29446941 -4.01978281 -0.910006121 -1.6438477 -3.78275691 -1.23892049 -2.67313179 -3.59244053 -1.43712668 -1.93973072 -3.18367783 -1.96785693 -2.85071272 -3.12432602 -2.00671108 -2.07849128 -2.56832601 -2.70744673 -2.81656917 -2.64349608 -2.58461855 -2.05181136 -1.97358304 -3.41335953 -2.57274768 -2.17876984 -3.13621235 -1.86129171 -5.35191591 0.166745604 1.41004174 -5.14951417 -0.0463599024 2.13525745 -4.80509578 0.820345558 1.39069176 -4.60269476 0.607240361 2.11590734 -4.82940129 -0.404881122 2.7737474 -4.28258185 0.248718611 2.754398 -4.41076446 -0.887330035 3.28724335 -3.8639447 -0.233729632 3.26789294 -3.91869441 -1.4647894 3.64496598 -3.37187465 -0.811189619 3.62561592 -3.38268549 -2.10264753 3.82547499 -2.83586573 -1.44904775 3.80612493 -2.83486447 -2.76267312 3.81795127 -2.28804487 -2.10907326 3.79860137 -2.30806679 -3.40530654 3.62284574 -1.76124716 -2.75170641 3.60349631 -4.87765486 0.875262202 0.622218406 -5.42447427 0.2216622 0.641568288 -4.81602147 0.768697621 -0.143452757 -5.36284159 0.115097975 -0.124102729 -4.62389095 0.507039867 -0.860428742 -5.17071108 -0.146560204 -0.841078695 -4.31277865 0.105972155 -1.48573563 -4.85959809 -0.547628028 -1.46638598 -3.90133163 -0.410467945 -1.9818955 -4.44815175 -1.06406792 -1.9625453 -3.41421109 -1.01132487 -2.31916788 -3.96103123 -1.66492485 -2.29981809 -2.88061402 -1.66058538 -2.47733849 -3.42743381 -2.31418548 -2.45798887 -2.33252325 -2.31933357 -2.44692731 -2.87934284 -2.97293414 -2.42757702 -1.80278879 -2.94808727 -2.22975609 -2.34960894 -3.60168785 -2.21040617 -3.57967779 -1.6947741 4.41845701 -3.52533589 -2.55937766 4.42258993 -3.66316308 -1.57438115 5.23344531 -3.5936186 -2.68087517 5.23873465 -3.45636593 -3.39795166 4.25187332 -3.50535311 -3.75405636 5.02025598 -3.3769007 -4.16023412 3.91653989 -3.40365586 -4.72960368 4.59110652 -3.29170383 -4.80053613 3.4366879 -3.2946234 -5.54904284 3.97700678 -3.20588125 -5.28047936 2.84107887 -3.18479044 -6.16325932 3.21476433 -3.12457758 -5.57129695 2.16541218 -3.08074003 -6.53543873 2.35006631 -3.05266457 -5.65555826 1.45018545 -2.98870866 -6.64327335 1.43474049 -3.70981824 -0.500896388 5.00470526 -3.61613272 -0.855963072 4.23972212 -3.73078654 0.475237516 4.56622589 -3.63251743 -0.0932212255 3.89709825 -3.72481196 1.29551428 3.94428739 -3.62784895 0.547735093 3.41112134 -3.69225271 1.91076745 3.1761677 -3.60240757 1.02848809 2.81091977 -3.6350594 2.28412081 2.30790578 -3.55771727 1.32022312 2.13246853 -3.55666147 2.39319607 1.39154323 -3.49645762 1.40545353 1.41643122 -3.46175685 2.23145655 0.48200422 -3.42230036 1.2790718 0.705726198 -3.3560339 1.80859553 -0.366195347 -3.33968971 0.948652241 0.0429515213 -3.2458304 1.14995891 -1.10221722 -3.2535777 0.433999849 -0.532168518 -4.03122525 -1.6660822 4.78717969 -3.96928241 -2.65163067 4.79189066 -3.21174121 -1.59929714 4.86349284 -3.14979803 -2.58484601 4.86820381 -3.89066414 -3.60750901 4.59729351 -3.07118009 -3.54072386 4.67360681 -3.80008346 -4.47642304 4.21505142 -2.98059906 -4.4096379 4.2913647 -3.70296844 -5.20629384 3.66807554 -2.88348402 -5.13950826 3.74438888 -3.60514083 -5.75337396 2.98915006 -2.78565624 -5.68658838 3.06546339 -3.51246344 -6.08487231 2.2189676 -2.69297885 -6.01808673 2.29528093 -3.43049179 -6.18091995 1.40369118 -2.61100735 -6.11413424 1.48000476 -3.25329572 -0.643149847 4.65975556 -4.07278046 -0.709933783 4.58344225 -3.27197274 0.226288918 4.26920389 -4.0914568 0.159503993 4.19289026 -3.26665068 0.956904977 3.71524642 -4.08613543 0.890120242 3.63893314 -3.23765035 1.50490831 3.03108586 -4.05713477 1.43812348 2.95477219 -3.18670926 1.83745247 2.25772924 -4.00619331 1.77066767 2.18141574 -3.11687993 1.93460575 1.44152923 -3.93636435 1.8678206 1.36521575 -3.03234917 1.7905446 0.631407417 -3.85183323 1.72375972 0.55509386 -2.93818237 1.41390486 -0.124079909 -3.75766681 1.34711967 -0.200393832 -2.84002408 0.827259913 -0.779650656 -3.65950903 0.760475143 -0.855964366 1.81190186 -3.72692519 -0.72307374 1.27397154 -4.41628711 -1.75245233 0.706457409 -3.52695172 -0.413063242 0.286123639 -4.06561267 -1.21741083 0.465196852 -5.00950203 -2.63513587 -0.345845242 -4.52914499 -1.90713061 -0.565946053 -5.47101494 -3.31821774 -1.15157018 -4.88976698 -2.44088438 -1.75765294 -5.77316317 -3.76075472 -2.0827588 -5.12586322 -2.78667875 -3.03849645 -5.89783786 -3.93622523 -3.08359801 -5.22328255 -2.92378948 -4.33170547 -5.83756456 -3.83410823 -4.09409862 -5.1761858 -2.84399621 -5.55976822 -5.59595713 -3.4605273 -5.05369587 -4.98739619 -2.55208341 0.889962196 -2.94544921 0.457699707 2.04674602 -2.98273563 0.3913026 0.825639564 -2.35595849 1.34268776 1.96442755 -2.22832319 1.52388356 0.517344433 -1.79381204 2.18885638 1.56988085 -1.50890508 2.60678521 -0.0164443875 -1.2927041 2.94548907 0.886753838 -0.867601833 3.57510074 -0.743733093 -0.882668767 3.56723442 -0.0440084919 -0.342851207 4.37079149 -1.62093049 -0.588283233 4.01682713 -1.16661848 0.0338943209 4.94616587 -2.59545798 -0.427192418 4.26731892 -2.41378955 0.24005365 5.26673893 -3.60890576 -0.409051274 4.30369685 -3.71077032 0.263270327 5.31329446 -4.60053161 -0.534946148 4.12378047 -4.97982186 0.102153536 5.0830415 1.25226595 -3.02204618 -0.853692843 0.77313375 -3.63605708 -1.7705557 1.26551315 -4.23753168 -0.29099265 0.786380757 -4.85154306 -1.20785564 0.0527619435 -4.16443094 -2.55675724 0.066009265 -5.37991724 -1.99405702 -0.865671754 -4.57549839 -3.16517507 -0.852424795 -5.79098406 -2.60247518 -1.92711998 -4.8446205 -3.5593416 -1.91387281 -6.06010713 -2.9966416 -3.06796101 -4.95566739 -3.71563128 -3.05471398 -6.17115351 -3.15293073 -4.21981623 -4.9019827 -3.62467675 -4.20656866 -6.11746868 -3.06197632 -5.3136464 -4.6867844 -3.29192955 -5.30039879 -5.90226988 -2.72922858 1.47468728 -3.57468555 0.701577171 1.46144043 -2.3592001 0.13887688 1.401367 -2.90273434 1.71036192 1.3881196 -1.68724835 1.14766115 1.04994606 -2.26195185 2.67489653 1.03669905 -1.04646587 2.11219646 0.441488269 -1.69074616 3.53737062 0.428241061 -0.475260015 2.97467048 -0.387537384 -1.22335293 4.24608875 -0.40078432 -0.00786743904 3.68338854 -1.38744116 -0.887787696 4.75857288 -1.40068784 0.327698261 4.19587239 -2.49829062 -0.704162143 5.04410525 -2.51153764 0.511323667 4.48140487 -3.65350447 -0.683482947 5.08557138 -3.66675241 0.532002397 4.52287092 -4.78384302 -0.826990147 4.88048664 -4.79708984 0.38849552 4.31778674 -5.11250767 1.78523679 3.61429736 -3.95681911 2.12989558 3.79216279 -4.68296085 0.873591089 2.97906417 -3.77991583 1.14290516 3.1180467 -2.75262703 2.20394736 3.78520209 -2.83897146 1.2007673 3.11260783 -1.57210953 2.00294972 3.59383309 -1.91652634 1.04371009 2.96307321 -0.486020956 1.53895262 3.22952348 -1.06786809 0.681146865 2.6784052 0.440536701 0.839765326 2.71411047 -0.343863876 0.134808212 2.27566736 1.15203157 -0.0527049192 2.07848705 0.212091152 -0.562558931 1.77899676 1.60581879 -1.08496388 1.36075074 0.566674328 -1.36915624 1.21816448 -5.49398009 0.408967477 2.70399014 -6.15042771 1.1906239 3.26226617 -6.16436224 -0.223118493 2.30931115 -7.00836208 0.381701608 2.75716753 -6.65393022 -0.984778915 1.81868502 -7.63489388 -0.593049177 2.12927878 -6.93333597 -1.83036314 1.26151734 -7.99246985 -1.67520227 1.41623225 -6.98583145 -2.70918949 0.671203356 -8.05965611 -2.79989598 0.660766997 -6.80827613 -3.56858291 0.0831253462 -7.83242486 -3.89972116 -0.0918368738 -6.41130903 -4.35703157 -0.467468278 -7.32439732 -4.90875651 -0.796470784 -5.81872388 -5.02728022 -0.947577474 -6.56602286 -5.7665226 -1.41090065 -5.06603632 -5.53915578 -1.32842425 -5.6027577 -6.42160383 -1.89829633 -4.91165506 1.7455137 2.88760106 -3.88228892 2.05250126 3.04602559 -4.86666145 0.932739579 3.72408888 -3.83729431 1.23972664 3.88251238 -2.80972107 2.11845767 3.03982573 -2.76472648 1.30568222 3.87631257 -1.75823887 1.93943102 2.86937353 -1.71324409 1.12665645 3.70586028 -0.790866004 1.52614973 2.54488466 -0.745872008 0.713375084 3.38137172 0.0344161841 0.903387571 2.0858091 0.0794097894 0.0906132697 2.92229682 0.66814034 0.108469677 1.51966309 0.713134062 -0.704304811 2.35614844 1.07232486 -0.810959946 0.880377593 1.11732042 -1.62373336 1.71686493 -5.79113046 0.403120522 3.41053503 -5.8361243 1.21589684 2.57404847 -6.55529076 -0.317381301 2.96064723 -6.60028293 0.49539163 2.12415997 -7.11333643 -1.18558824 2.40138898 -7.15833281 -0.372813112 1.56490234 -7.43182795 -2.14945751 1.76628308 -7.4768229 -1.33668134 0.929795898 -7.49167279 -3.15121639 1.09339247 -7.5366649 -2.33844235 0.256905818 -7.28927731 -4.13082454 0.423051908 -7.33427308 -3.31805136 -0.413435851 -6.83678116 -5.02956864 -0.204562663 -6.88177394 -4.2167933 -1.04104917 -6.16130114 -5.7935739 -0.751832457 -6.20629321 -4.98079889 -1.58831883 -5.30332422 -6.37705142 -1.1859536 -5.34831853 -5.56427848 -2.02244071</float_array>
        <technique_common><accessor source="#vfx_kurp_0393-mesh-positions-array" count="408" stride="3"><param name="X" type="float"/><param name="Y" type="float"/><param name="Z" type="float"/></accessor></technique_common>
      </source>
      <source id="vfx_kurp_0393-mesh-normals">
        <float_array id="vfx_kurp_0393-mesh-normals-array" count="1224">-0.158827478 0.0945560232 0.982768025 -0.158827342 0.0945559413 0.982768055 -0.158827457 0.0945559449 0.982768036 -0.158827299 0.0945559412 0.982768062 -0.158827285 0.0945559412 0.982768064 -0.158827242 0.094555941 0.982768071 -0.158827219 0.0945560192 0.982768067 -0.158827213 0.094555941 0.982768076 -0.158827303 0.0945559955 0.982768056 -0.158827305 0.0945560227 0.982768053 -0.15882725 0.0945560464 0.982768059 -0.158827236 0.0945560464 0.982768062 -0.158827104 0.0945560189 0.982768086 -0.158827133 0.094556019 0.982768081 -0.158827057 0.0945559645 0.982768099 -0.158827151 0.0945558865 0.982768091 -0.158827508 0.0945560504 0.982768017 -0.158827521 0.0945560233 0.982768018 -0.158827384 0.0945561011 0.982768033 -0.158827348 0.0945560228 0.982768046 -0.158827357 0.0945559414 0.982768052 -0.158827357 0.0945559414 0.982768052 -0.158827346 0.0945559956 0.982768049 -0.158827334 0.0945560228 0.982768048 -0.158827119 0.0945560189 0.982768083 -0.158827201 0.0945559681 0.982768075 -0.158826868 0.0945559368 0.982768132 -0.158827235 0.094555676 0.982768098 -0.158827855 0.0945553648 0.982768027 -0.158827642 0.0945553881 0.982768059 -0.158827424 0.0945558905 0.982768046 -0.158827203 0.094555992 0.982768072 -0.158827654 0.094556078 0.982767991 -0.158828035 0.094556004 0.982767937 -0.984845302 0.0475924406 -0.166777368 -0.978149603 -0.15625646 -0.137139614 -0.984443617 0.0531030084 -0.167483836 -0.978880069 -0.150811274 -0.138020902 -0.928319821 -0.357855761 -0.100804587 -0.930153965 -0.352770915 -0.101814941 -0.830989625 -0.553296808 -0.057609773 -0.833790148 -0.548954863 -0.0586732254 -0.679901801 -0.733261231 -0.00784270656 -0.683259558 -0.730122209 -0.0088281456 -0.471687221 -0.880531923 0.046633654 -0.474756708 -0.878918915 0.0459086993 -0.21365525 -0.971638374 0.101342509 -0.21529116 -0.971309725 0.101030369 -0.0735265086 -0.98922673 0.12658724 -0.0735264446 -0.989226732 0.126587264 -0.947473511 0.257236003 -0.190062055 -0.948993504 0.251943237 -0.189567759 -0.864613992 0.45879392 -0.204818905 -0.86715964 0.45407542 -0.204571922 -0.729828702 0.650649173 -0.209775403 -0.73309129 0.646966141 -0.209790307 -0.538198149 0.818230888 -0.202091481 -0.541468025 0.816015887 -0.202312752 -0.293049537 0.939158992 -0.179171303 -0.295221478 0.93843054 -0.17942241 -0.0131940762 0.989951853 -0.140787946 -0.0133016491 0.989947967 -0.140805147 0.268346379 0.9590443 -0.0906876636 0.270355045 0.9585178 -0.0902871914 0.517771157 0.85478085 -0.0355348619 0.520986839 0.852857349 -0.0347426981 0.627206276 0.778820777 -0.00710519432 0.627206387 0.778820688 -0.00710522415 -0.771969079 0.490555124 0.404251668 -0.771969123 0.490555122 0.404251587 -0.771969045 0.490555159 0.40425169 -0.771969125 0.490555111 0.404251596 -0.77196904 0.490555182 0.404251672 -0.771969056 0.490555114 0.404251724 -0.771969051 0.490555025 0.404251841 -0.771969118 0.490554923 0.404251839 -0.771968989 0.490555106 0.404251862 -0.771969 0.490555061 0.404251896 -0.771969046 0.490554826 0.404252093 -0.771969064 0.490554858 0.404252019 -0.771969192 0.490554897 0.404251727 -0.771969223 0.490555095 0.404251429 -0.771969369 0.490554912 0.404251372 -0.771969413 0.490555053 0.404251117 -0.771969005 0.490555038 0.404251914 -0.771969192 0.490554897 0.404251727 -0.771969444 0.490554775 0.404251395 -0.771969305 0.490554781 0.404251652 -0.771968713 0.490555007 0.40425251 -0.771968579 0.490555102 0.40425265 -0.771968608 0.4905552 0.404252477 -0.771968664 0.490555142 0.404252439 -0.771968679 0.490555185 0.404252357 -0.771968789 0.490555303 0.404252004 -0.771969213 0.490555029 0.404251528 -0.771969271 0.490555182 0.404251231 -0.77196932 0.490554936 0.404251436 -0.771969313 0.490554859 0.404251544 -0.771969005 0.49055526 0.404251645 -0.771968946 0.490555218 0.404251808 -0.771968751 0.490555504 0.404251834 -0.771968764 0.490555448 0.404251878 0.471496942 0.763320703 -0.441624431 0.305282149 0.69871527 -0.646992876 0.474114712 0.763953465 -0.43771034 0.313204417 0.702712506 -0.638825584 0.124626767 0.588200799 -0.799054434 0.137121123 0.596943104 -0.790478797 -0.054304454 0.446674669 -0.893046901 -0.0391409198 0.459834693 -0.887141501 -0.220926409 0.287371185 -0.931992126 -0.205101222 0.303709278 -0.930426872 -0.369578336 0.119609568 -0.921469156 -0.354698901 0.137684328 -0.92478739 -0.497200861 -0.0506277438 -0.866157108 -0.484455035 -0.0321857792 -0.874223881 -0.546458114 -0.125867412 -0.827973988 -0.546457828 -0.125867347 -0.827974186 0.603405821 0.771349199 -0.202291443 0.604786433 0.771081378 -0.199165454 0.688473291 0.723861566 0.0450439795 0.69096102 0.720775768 0.0552735204 0.724501807 0.629214436 0.28140065 0.725193573 0.621545089 0.29627012 0.71422822 0.50004055 0.489732068 0.711405371 0.487802279 0.505916332 0.664454502 0.348946397 0.66086052 0.657678886 0.33323263 0.67558456 0.582359649 0.185626305 0.79145443 0.571984126 0.16784547 0.802908499 0.473480223 0.0166007695 0.880647996 0.460227838 -0.00187375147 0.887798866 0.341450284 -0.153517216 0.927277827 0.326275146 -0.171357378 0.929613456 0.260443114 -0.245376452 0.933787867 0.260443057 -0.245376046 0.93378799 -0.769050463 -0.638618562 0.0269762461 -0.769050685 -0.638618271 0.0269768065 -0.769050625 -0.63861835 0.0269766467 -0.769050739 -0.638618212 0.0269766476 -0.769050402 -0.638618617 0.0269766712 -0.76905036 -0.638618683 0.0269762978 -0.769050412 -0.638618623 0.026976272 -0.769050355 -0.638618691 0.0269762715 -0.769050294 -0.638618758 0.0269764042 -0.76905028 -0.638618773 0.0269764848 -0.769049979 -0.638619119 0.0269768556 -0.769050045 -0.638619044 0.0269767492 -0.769050534 -0.638618467 0.0269764585 -0.769050529 -0.638618475 0.0269764322 -0.769050619 -0.638618358 0.0269766204 -0.769050462 -0.638618538 0.026976831 -0.769050228 -0.638618833 0.0269765106 -0.7690503 -0.63861875 0.0269764305 -0.769050426 -0.638618596 0.0269764839 -0.769050537 -0.638618457 0.0269766178 -0.769050586 -0.638618406 0.0269764326 -0.769050502 -0.638618506 0.0269764602 -0.769050357 -0.638618681 0.0269764309 -0.769050346 -0.638618698 0.0269763784 -0.769050378 -0.638618671 0.0269760841 -0.769050363 -0.638618685 0.0269761647 -0.769050201 -0.638618873 0.026976349 -0.769050117 -0.638618973 0.0269763766 -0.769050546 -0.638618463 0.0269762185 -0.769050537 -0.638618469 0.0269763254 -0.769050108 -0.638618967 0.0269767759 -0.769050062 -0.63861902 0.026976828 -0.769050003 -0.638619098 0.0269766682 -0.769050111 -0.638618981 0.0269763504 -0.738737742 0.625481705 0.251076056 -0.658649046 0.565731307 0.496114425 -0.740140066 0.62645803 0.244423854 -0.664090923 0.569922651 0.483912614 -0.537635184 0.470514322 0.699688989 -0.548127679 0.478879612 0.68573345 -0.388865587 0.350559239 0.851992826 -0.40388698 0.36276605 0.83980718 -0.224060883 0.215593484 0.950429466 -0.242240737 0.230566093 0.942421722 -0.0520818086 0.0730591025 0.995966793 -0.0717896608 0.0894711875 0.993398788 0.120512535 -0.0715110125 0.990132771 0.100912317 -0.0550171748 0.993372948 0.19541753 -0.134732913 0.97142114 0.195417142 -0.134732923 0.971421217 -0.767110548 0.641331304 -0.0153481792 -0.767113474 0.641295403 -0.0166470598 -0.741740859 0.612469776 -0.273315333 -0.739896585 0.610663719 -0.282210676 -0.667960214 0.543793251 -0.508053199 -0.661883347 0.538305882 -0.521667723 -0.555047773 0.443535018 -0.703703529 -0.543996514 0.433859556 -0.718215621 -0.414115345 0.321247004 -0.851650658 -0.398734375 0.308019549 -0.863790979 -0.255212382 0.185424405 -0.948938581 -0.236858707 0.169843158 -0.956583114 -0.0862170071 0.0426640763 -0.995362449 -0.0664661458 0.0260780003 -0.997447838 0.0867143348 -0.101886756 -0.991009441 0.106248578 -0.11811996 -0.987298797 0.181785579 -0.180703139 -0.966592147 0.181785596 -0.180702954 -0.966592179 -0.993723731 -0.062899258 -0.092503139 -0.993723731 -0.062898962 -0.0925033369 -0.993723747 -0.0628992714 -0.092502948 -0.993723725 -0.0628987706 -0.0925035267 -0.993723707 -0.0628987914 -0.0925037105 -0.993723701 -0.0628987853 -0.0925037806 -0.993723697 -0.062898879 -0.0925037619 -0.993723698 -0.0628988843 -0.0925037423 -0.993723711 -0.0628988156 -0.092503647 -0.993723711 -0.0628988019 -0.0925036545 -0.993723731 -0.0628986882 -0.0925035225 -0.993723721 -0.0628987778 -0.0925035678 -0.993723673 -0.0628989824 -0.0925039498 -0.993723684 -0.0628989103 -0.092503873 -0.993723657 -0.0628988711 -0.0925041952 -0.993723713 -0.0628985036 -0.0925038371 -0.993723669 -0.0628989735 -0.0925039881 -0.993723656 -0.0628987546 -0.0925042766 -0.993723671 -0.0628990725 -0.0925038997 -0.993723683 -0.0628991187 -0.0925037404 -0.993723691 -0.0628991003 -0.0925036723 -0.993723696 -0.0628990742 -0.0925036367 -0.993723682 -0.0628989597 -0.0925038622 -0.993723692 -0.0628989818 -0.0925037381 -0.993723696 -0.0628988993 -0.0925037506 -0.993723679 -0.0628989571 -0.092503897 -0.993723697 -0.0628991452 -0.0925035805 -0.993723695 -0.062899123 -0.0925036096 -0.993723687 -0.0628990234 -0.0925037651 -0.99372371 -0.0628988251 -0.0925036584 -0.993723706 -0.0628987 -0.092503778 -0.99372372 -0.0628986129 -0.0925036929 -0.99372374 -0.0628985505 -0.0925035156 -0.993723736 -0.0628986157 -0.0925035127 -0.100349276 0.100214948 0.989892412 -0.0837554551 -0.104639011 0.990977145 -0.100515135 0.102541409 0.989637291 -0.0839659807 -0.102313108 0.99120217 -0.0632359266 -0.308569922 0.949097372 -0.0634806388 -0.306364885 0.949795118 -0.038675821 -0.508407718 0.860247507 -0.038937693 -0.506479081 0.861372624 -0.0101298724 -0.696047765 0.717924018 -0.0103792116 -0.694592429 0.719328597 0.0215343107 -0.855463954 0.517414434 0.0213416043 -0.85464773 0.5187695 0.0539507996 -0.963137739 0.263543177 0.0538565151 -0.962918085 0.264363837 0.0691678236 -0.989921492 0.123576904 0.0691679023 -0.989921491 0.123576871 -0.112999366 0.306624291 0.9450993 -0.112887396 0.304418438 0.945825486 -0.120787791 0.506754201 0.853586837 -0.120737666 0.504824424 0.854736636 -0.122617726 0.694793533 0.708679645 -0.12263148 0.693337711 0.71010164 -0.116761768 0.854659074 0.505889866 -0.116822165 0.85384348 0.507251312 -0.101782675 0.96277066 0.250425526 -0.101840942 0.962551852 0.251241626 -0.0778557629 0.996319007 -0.0358736249 -0.0778460444 0.996316089 -0.0359755995 -0.0475772222 0.94695767 -0.317816897 -0.0474611282 0.94663847 -0.318783703 -0.0150395856 0.826898686 -0.562149779 -0.0148316523 0.82594831 -0.563550718 0.00135019164 0.745295009 -0.666733474 0.0013502784 0.745295092 -0.666733381 -0.00501348184 0.832089018 -0.554619447 -0.00501307291 0.832089039 -0.554619419 -0.0050133397 0.832089047 -0.554619405 -0.00501300883 0.832089058 -0.554619392 -0.00501317849 0.832089067 -0.554619377 -0.00501331 0.832089062 -0.554619382 -0.00501343918 0.832089054 -0.554619394 -0.00501356611 0.832089074 -0.554619362 -0.00501345663 0.832089153 -0.554619244 -0.00501354497 0.832089164 -0.554619227 -0.00501325598 0.832089197 -0.554619181 -0.00501327244 0.832089217 -0.554619151 -0.00501316933 0.832089243 -0.554619113 -0.00501324712 0.832089307 -0.554619016 -0.00501298175 0.832089311 -0.554619012 -0.00501305957 0.832089388 -0.554618896 -0.005013445 0.832089149 -0.554619251 -0.00501346263 0.832089137 -0.554619269 -0.00501344631 0.832089116 -0.5546193 -0.00501341199 0.832089144 -0.554619259 -0.00501340688 0.832089266 -0.554619076 -0.0050134082 0.832089237 -0.554619119 -0.00501344685 0.832089145 -0.554619257 -0.00501346578 0.832089096 -0.55461933 -0.00501341133 0.83208907 -0.55461937 -0.00501339313 0.83208904 -0.554619415 -0.00501343902 0.832088992 -0.554619487 -0.00501350186 0.832089031 -0.554619427 -0.00501351427 0.832089155 -0.554619241 -0.00501356336 0.832089209 -0.55461916 -0.00501303568 0.832089195 -0.554619186 -0.00501289753 0.832089149 -0.554619255 -0.00501243458 0.832089127 -0.554619292 -0.00501221549 0.832089055 -0.554619403 -0.959555831 0.109588933 0.259312307 -0.864595924 0.203300503 0.459502768 -0.953086507 0.118550231 0.278517418 -0.854354801 0.210629349 0.475092782 -0.716503103 0.286614887 0.635983655 -0.704765957 0.291701745 0.646695475 -0.521238095 0.353840409 0.776600163 -0.510888245 0.356553298 0.782216688 -0.289397021 0.399532129 0.869841044 -0.283242498 0.400360165 0.87148461 -0.0364040262 0.419503146 0.907023625 -0.0362680031 0.419506585 0.907027484 0.219036474 0.411871767 0.88452511 0.213016886 0.41237743 0.885758805 0.337791472 0.398444433 0.852724431 0.337791788 0.398444638 0.85272421 -0.99748153 0.020554876 0.0678829482 -0.998838648 0.0108463664 0.0469437031 -0.986108865 -0.0785102944 -0.146374314 -0.982036874 -0.0879788072 -0.166923056 -0.918971088 -0.173863049 -0.353926235 -0.910178476 -0.182143503 -0.372020007 -0.797639392 -0.26051908 -0.543968023 -0.785825542 -0.266847608 -0.557916277 -0.626151625 -0.333168488 -0.704934679 -0.613849948 -0.33714264 -0.713808855 -0.412320297 -0.38643189 -0.825022647 -0.402460831 -0.388191347 -0.829055341 -0.168687105 -0.415601547 -0.893767316 -0.163820477 -0.415902682 -0.894532174 0.08782295 -0.41769692 -0.904332025 0.0864129259 -0.417761364 -0.904438085 0.21290512 -0.408564742 -0.887550709 0.212904933 -0.408564615 -0.887550813 -0.0391500409 0.558776794 -0.828393487 -0.0391501268 0.558776862 -0.828393437 -0.0391498568 0.558776768 -0.828393513 -0.0391500321 0.558776727 -0.828393532 -0.0391495693 0.558776452 -0.828393739 -0.039149474 0.55877645 -0.828393745 -0.0391497849 0.558776877 -0.828393443 -0.0391499915 0.558777014 -0.828393341 -0.0391501979 0.55877704 -0.828393313 -0.0391501403 0.558776707 -0.82839354 -0.0391503083 0.558776335 -0.828393784 -0.0391502562 0.558776245 -0.828393847 -0.0391502685 0.558776621 -0.828393592 -0.0391501952 0.558776864 -0.828393432 -0.0391500735 0.558776728 -0.82839353 -0.0391500594 0.558776772 -0.8283935 -0.0391505165 0.558777003 -0.828393323 -0.0391503539 0.558777 -0.828393333 -0.0391495186 0.558776783 -0.828393519 -0.0391491642 0.55877682 -0.828393511 -0.0391496907 0.558776565 -0.828393657 -0.0391497315 0.558776544 -0.82839367 -0.0391495527 0.558776629 -0.828393621 -0.0391494006 0.558776714 -0.828393571 -0.039149187 0.558776644 -0.828393628 -0.0391491332 0.558776665 -0.828393617 -0.0391493327 0.558776779 -0.82839353 -0.0391494699 0.558776539 -0.828393686 -0.0391499488 0.55877677 -0.828393507 -0.0391500786 0.558776463 -0.828393708 -0.0391500499 0.558776152 -0.828393919 -0.0391500549 0.55877613 -0.828393934 -0.0391498128 0.558776059 -0.828393993 -0.0391498562 0.558776259 -0.828393856 0.420566702 -0.639277161 -0.643776638 0.17114459 -0.70200074 -0.691306365 0.432219555 -0.635017768 -0.640264548 0.17660447 -0.701161212 -0.690784927 -0.093934821 -0.716548195 -0.691183719 -0.0966523885 -0.716434408 -0.690926954 -0.350548432 -0.681042906 -0.642881293 -0.360392347 -0.678618269 -0.639995782 -0.576899336 -0.6011108 -0.553039747 -0.590467818 -0.594466858 -0.545854294 -0.758669606 -0.48716171 -0.43254352 -0.772108978 -0.476029003 -0.421003699 -0.889745552 -0.350362793 -0.292572668 -0.900138339 -0.335619527 -0.277687782 -0.940433975 -0.267720984 -0.209545733 -0.940433657 -0.267722239 -0.209545553 0.648668826 -0.528105371 -0.548026889 0.634576696 -0.536956469 -0.555868841 0.814517005 -0.393568809 -0.426222525 0.801619847 -0.406642476 -0.438232263 0.926854047 -0.243110257 -0.286075128 0.917653874 -0.259196732 -0.301211588 0.987048571 -0.0852298735 -0.135908008 0.982877233 -0.102900522 -0.152852303 0.997066162 0.074267303 0.018532051 0.99840725 0.0564069284 0.0011055726 0.957564045 0.230750056 0.172700641 0.964260757 0.214066786 0.156130085 0.867666348 0.379069816 0.321653824 0.878839524 0.364948615 0.307333043 0.726276679 0.51211862 0.458537572 0.740015931 0.501839298 0.447809937 0.644764991 0.565256306 0.514551664 0.644766093 0.565256555 0.514550009</float_array>
        <technique_common><accessor source="#vfx_kurp_0393-mesh-normals-array" count="408" stride="3"><param name="X" type="float"/><param name="Y" type="float"/><param name="Z" type="float"/></accessor></technique_common>
      </source>
      <source id="vfx_kurp_0393-mesh-uv0">
        <float_array id="vfx_kurp_0393-mesh-uv0-array" count="816">0 0.5625 0 0.625 1 0.5625 1 0.625 0 0.6875 1 0.6875 0 0.75 1 0.75 0 0.8125 1 0.8125 0 0.875 1 0.875 0 0.9375 1 0.9375 0 1 1 1 1 0.5 0 0.5 1 0.4375 0 0.4375 1 0.375 0 0.375 1 0.3125 0 0.3125 1 0.25 0 0.25 1 0.1875 0 0.1875 1 0.125 0 0.125 1 0.0625 0 0.0625 1 0 0 0 0 0.5625 0 0.625 1 0.5625 1 0.625 0 0.6875 1 0.6875 0 0.75 1 0.75 0 0.8125 1 0.8125 0 0.875 1 0.875 0 0.9375 1 0.9375 0 1 1 1 1 0.5 0 0.5 1 0.4375 0 0.4375 1 0.375 0 0.375 1 0.3125 0 0.3125 1 0.25 0 0.25 1 0.1875 0 0.1875 1 0.125 0 0.125 1 0.0625 0 0.0625 1 0 0 0 0 0.5625 0 0.625 1 0.5625 1 0.625 0 0.6875 1 0.6875 0 0.75 1 0.75 0 0.8125 1 0.8125 0 0.875 1 0.875 0 0.9375 1 0.9375 0 1 1 1 1 0.5 0 0.5 1 0.4375 0 0.4375 1 0.375 0 0.375 1 0.3125 0 0.3125 1 0.25 0 0.25 1 0.1875 0 0.1875 1 0.125 0 0.125 1 0.0625 0 0.0625 1 0 0 0 0 0.5625 0 0.625 1 0.5625 1 0.625 0 0.6875 1 0.6875 0 0.75 1 0.75 0 0.8125 1 0.8125 0 0.875 1 0.875 0 0.9375 1 0.9375 0 1 1 1 1 0.5 0 0.5 1 0.4375 0 0.4375 1 0.375 0 0.375 1 0.3125 0 0.3125 1 0.25 0 0.25 1 0.1875 0 0.1875 1 0.125 0 0.125 1 0.0625 0 0.0625 1 0 0 0 0 0.5625 0 0.625 1 0.5625 1 0.625 0 0.6875 1 0.6875 0 0.75 1 0.75 0 0.8125 1 0.8125 0 0.875 1 0.875 0 0.9375 1 0.9375 0 1 1 1 1 0.5 0 0.5 1 0.4375 0 0.4375 1 0.375 0 0.375 1 0.3125 0 0.3125 1 0.25 0 0.25 1 0.1875 0 0.1875 1 0.125 0 0.125 1 0.0625 0 0.0625 1 0 0 0 0 0.5625 0 0.625 1 0.5625 1 0.625 0 0.6875 1 0.6875 0 0.75 1 0.75 0 0.8125 1 0.8125 0 0.875 1 0.875 0 0.9375 1 0.9375 0 1 1 1 1 0.5 0 0.5 1 0.4375 0 0.4375 1 0.375 0 0.375 1 0.3125 0 0.3125 1 0.25 0 0.25 1 0.1875 0 0.1875 1 0.125 0 0.125 1 0.0625 0 0.0625 1 0 0 0 0 0.5625 0 0.625 1 0.5625 1 0.625 0 0.6875 1 0.6875 0 0.75 1 0.75 0 0.8125 1 0.8125 0 0.875 1 0.875 0 0.9375 1 0.9375 0 1 1 1 1 0.5 0 0.5 1 0.4375 0 0.4375 1 0.375 0 0.375 1 0.3125 0 0.3125 1 0.25 0 0.25 1 0.1875 0 0.1875 1 0.125 0 0.125 1 0.0625 0 0.0625 1 0 0 0 0 0.5625 0 0.625 1 0.5625 1 0.625 0 0.6875 1 0.6875 0 0.75 1 0.75 0 0.8125 1 0.8125 0 0.875 1 0.875 0 0.9375 1 0.9375 0 1 1 1 1 0.5 0 0.5 1 0.4375 0 0.4375 1 0.375 0 0.375 1 0.3125 0 0.3125 1 0.25 0 0.25 1 0.1875 0 0.1875 1 0.125 0 0.125 1 0.0625 0 0.0625 1 0 0 0 0 0.5625 0 0.625 1 0.5625 1 0.625 0 0.6875 1 0.6875 0 0.75 1 0.75 0 0.8125 1 0.8125 0 0.875 1 0.875 0 0.9375 1 0.9375 0 1 1 1 1 0.5 0 0.5 1 0.4375 0 0.4375 1 0.375 0 0.375 1 0.3125 0 0.3125 1 0.25 0 0.25 1 0.1875 0 0.1875 1 0.125 0 0.125 1 0.0625 0 0.0625 1 0 0 0 0 0.5625 0 0.625 1 0.5625 1 0.625 0 0.6875 1 0.6875 0 0.75 1 0.75 0 0.8125 1 0.8125 0 0.875 1 0.875 0 0.9375 1 0.9375 0 1 1 1 1 0.5 0 0.5 1 0.4375 0 0.4375 1 0.375 0 0.375 1 0.3125 0 0.3125 1 0.25 0 0.25 1 0.1875 0 0.1875 1 0.125 0 0.125 1 0.0625 0 0.0625 1 0 0 0 0 0.5625 0 0.625 1 0.5625 1 0.625 0 0.6875 1 0.6875 0 0.75 1 0.75 0 0.8125 1 0.8125 0 0.875 1 0.875 0 0.9375 1 0.9375 0 1 1 1 1 0.5 0 0.5 1 0.4375 0 0.4375 1 0.375 0 0.375 1 0.3125 0 0.3125 1 0.25 0 0.25 1 0.1875 0 0.1875 1 0.125 0 0.125 1 0.0625 0 0.0625 1 0 0 0 0 0.5625 0 0.625 1 0.5625 1 0.625 0 0.6875 1 0.6875 0 0.75 1 0.75 0 0.8125 1 0.8125 0 0.875 1 0.875 0 0.9375 1 0.9375 0 1 1 1 1 0.5 0 0.5 1 0.4375 0 0.4375 1 0.375 0 0.375 1 0.3125 0 0.3125 1 0.25 0 0.25 1 0.1875 0 0.1875 1 0.125 0 0.125 1 0.0625 0 0.0625 1 0 0 0</float_array>
        <technique_common><accessor source="#vfx_kurp_0393-mesh-uv0-array" count="408" stride="2"><param name="S" type="float"/><param name="T" type="float"/></accessor></technique_common>
      </source>
      <vertices id="vfx_kurp_0393-mesh-vertices"><input semantic="POSITION" source="#vfx_kurp_0393-mesh-positions"/></vertices>
      <triangles material="PreviewMaterial" count="384">
        <input semantic="VERTEX" source="#vfx_kurp_0393-mesh-vertices" offset="0"/>
        <input semantic="NORMAL" source="#vfx_kurp_0393-mesh-normals" offset="1"/>
        <input semantic="TEXCOORD" source="#vfx_kurp_0393-mesh-uv0" offset="2" set="0"/>
        <p>0 0 0 1 1 1 2 2 2 2 2 2 1 1 1 3 3 3 4 4 4 3 3 3 1 1 1 3 3 3 4 4 4 5 5 5 6 6 6 5 5 5 4 4 4 5 5 5 6 6 6 7 7 7 8 8 8 7 7 7 6 6 6 7 7 7 8 8 8 9 9 9 10 10 10 9 9 9 8 8 8 9 9 9 10 10 10 11 11 11 12 12 12 11 11 11 10 10 10 11 11 11 12 12 12 13 13 13 14 14 14 13 13 13 12 12 12 13 13 13 14 14 14 15 15 15 16 16 16 0 0 0 2 2 2 0 0 0 16 16 16 17 17 17 18 18 18 17 17 17 16 16 16 17 17 17 18 18 18 19 19 19 20 20 20 19 19 19 18 18 18 19 19 19 20 20 20 21 21 21 22 22 22 21 21 21 20 20 20 21 21 21 22 22 22 23 23 23 24 24 24 23 23 23 22 22 22 23 23 23 24 24 24 25 25 25 26 26 26 25 25 25 24 24 24 25 25 25 26 26 26 27 27 27 28 28 28 27 27 27 26 26 26 27 27 27 28 28 28 29 29 29 30 30 30 29 29 29 28 28 28 29 29 29 30 30 30 31 31 31 32 32 32 31 31 31 30 30 30 33 33 33 31 31 31 32 32 32 34 34 34 35 35 35 36 36 36 36 36 36 35 35 35 37 37 37 38 38 38 37 37 37 35 35 35 37 37 37 38 38 38 39 39 39 40 40 40 39 39 39 38 38 38 39 39 39 40 40 40 41 41 41 42 42 42 41 41 41 40 40 40 41 41 41 42 42 42 43 43 43 44 44 44 43 43 43 42 42 42 43 43 43 44 44 44 45 45 45 46 46 46 45 45 45 44 44 44 45 45 45 46 46 46 47 47 47 48 48 48 47 47 47 46 46 46 47 47 47 48 48 48 49 49 49 50 50 50 34 34 34 36 36 36 34 34 34 50 50 50 51 51 51 52 52 52 51 51 51 50 50 50 51 51 51 52 52 52 53 53 53 54 54 54 53 53 53 52 52 52 53 53 53 54 54 54 55 55 55 56 56 56 55 55 55 54 54 54 55 55 55 56 56 56 57 57 57 58 58 58 57 57 57 56 56 56 57 57 57 58 58 58 59 59 59 60 60 60 59 59 59 58 58 58 59 59 59 60 60 60 61 61 61 62 62 62 61 61 61 60 60 60 61 61 61 62 62 62 63 63 63 64 64 64 63 63 63 62 62 62 63 63 63 64 64 64 65 65 65 66 66 66 65 65 65 64 64 64 67 67 67 65 65 65 66 66 66 68 68 68 69 69 69 70 70 70 70 70 70 69 69 69 71 71 71 72 72 72 71 71 71 69 69 69 71 71 71 72 72 72 73 73 73 74 74 74 73 73 73 72 72 72 73 73 73 74 74 74 75 75 75 76 76 76 75 75 75 74 74 74 75 75 75 76 76 76 77 77 77 78 78 78 77 77 77 76 76 76 77 77 77 78 78 78 79 79 79 80 80 80 79 79 79 78 78 78 79 79 79 80 80 80 81 81 81 82 82 82 81 81 81 80 80 80 81 81 81 82 82 82 83 83 83 84 84 84 68 68 68 70 70 70 68 68 68 84 84 84 85 85 85 86 86 86 85 85 85 84 84 84 85 85 85 86 86 86 87 87 87 88 88 88 87 87 87 86 86 86 87 87 87 88 88 88 89 89 89 90 90 90 89 89 89 88 88 88 89 89 89 90 90 90 91 91 91 92 92 92 91 91 91 90 90 90 91 91 91 92 92 92 93 93 93 94 94 94 93 93 93 92 92 92 93 93 93 94 94 94 95 95 95 96 96 96 95 95 95 94 94 94 95 95 95 96 96 96 97 97 97 98 98 98 97 97 97 96 96 96 97 97 97 98 98 98 99 99 99 100 100 100 99 99 99 98 98 98 101 101 101 99 99 99 100 100 100 102 102 102 103 103 103 104 104 104 104 104 104 103 103 103 105 105 105 106 106 106 105 105 105 103 103 103 105 105 105 106 106 106 107 107 107 108 108 108 107 107 107 106 106 106 107 107 107 108 108 108 109 109 109 110 110 110 109 109 109 108 108 108 109 109 109 110 110 110 111 111 111 112 112 112 111 111 111 110 110 110 111 111 111 112 112 112 113 113 113 114 114 114 113 113 113 112 112 112 113 113 113 114 114 114 115 115 115 116 116 116 115 115 115 114 114 114 115 115 115 116 116 116 117 117 117 118 118 118 102 102 102 104 104 104 102 102 102 118 118 118 119 119 119 120 120 120 119 119 119 118 118 118 119 119 119 120 120 120 121 121 121 122 122 122 121 121 121 120 120 120 121 121 121 122 122 122 123 123 123 124 124 124 123 123 123 122 122 122 123 123 123 124 124 124 125 125 125 126 126 126 125 125 125 124 124 124 125 125 125 126 126 126 127 127 127 128 128 128 127 127 127 126 126 126 127 127 127 128 128 128 129 129 129 130 130 130 129 129 129 128 128 128 129 129 129 130 130 130 131 131 131 132 132 132 131 131 131 130 130 130 131 131 131 132 132 132 133 133 133 134 134 134 133 133 133 132 132 132 135 135 135 133 133 133 134 134 134 136 136 136 137 137 137 138 138 138 138 138 138 137 137 137 139 139 139 140 140 140 139 139 139 137 137 137 139 139 139 140 140 140 141 141 141 142 142 142 141 141 141 140 140 140 141 141 141 142 142 142 143 143 143 144 144 144 143 143 143 142 142 142 143 143 143 144 144 144 145 145 145 146 146 146 145 145 145 144 144 144 145 145 145 146 146 146 147 147 147 148 148 148 147 147 147 146 146 146 147 147 147 148 148 148 149 149 149 150 150 150 149 149 149 148 148 148 149 149 149 150 150 150 151 151 151 152 152 152 136 136 136 138 138 138 136 136 136 152 152 152 153 153 153 154 154 154 153 153 153 152 152 152 153 153 153 154 154 154 155 155 155 156 156 156 155 155 155 154 154 154 155 155 155 156 156 156 157 157 157 158 158 158 157 157 157 156 156 156 157 157 157 158 158 158 159 159 159 160 160 160 159 159 159 158 158 158 159 159 159 160 160 160 161 161 161 162 162 162 161 161 161 160 160 160 161 161 161 162 162 162 163 163 163 164 164 164 163 163 163 162 162 162 163 163 163 164 164 164 165 165 165 166 166 166 165 165 165 164 164 164 165 165 165 166 166 166 167 167 167 168 168 168 167 167 167 166 166 166 169 169 169 167 167 167 168 168 168 170 170 170 171 171 171 172 172 172 172 172 172 171 171 171 173 173 173 174 174 174 173 173 173 171 171 171 173 173 173 174 174 174 175 175 175 176 176 176 175 175 175 174 174 174 175 175 175 176 176 176 177 177 177 178 178 178 177 177 177 176 176 176 177 177 177 178 178 178 179 179 179 180 180 180 179 179 179 178 178 178 179 179 179 180 180 180 181 181 181 182 182 182 181 181 181 180 180 180 181 181 181 182 182 182 183 183 183 184 184 184 183 183 183 182 182 182 183 183 183 184 184 184 185 185 185 186 186 186 170 170 170 172 172 172 170 170 170 186 186 186 187 187 187 188 188 188 187 187 187 186 186 186 187 187 187 188 188 188 189 189 189 190 190 190 189 189 189 188 188 188 189 189 189 190 190 190 191 191 191 192 192 192 191 191 191 190 190 190 191 191 191 192 192 192 193 193 193 194 194 194 193 193 193 192 192 192 193 193 193 194 194 194 195 195 195 196 196 196 195 195 195 194 194 194 195 195 195 196 196 196 197 197 197 198 198 198 197 197 197 196 196 196 197 197 197 198 198 198 199 199 199 200 200 200 199 199 199 198 198 198 199 199 199 200 200 200 201 201 201 202 202 202 201 201 201 200 200 200 203 203 203 201 201 201 202 202 202 204 204 204 205 205 205 206 206 206 206 206 206 205 205 205 207 207 207 208 208 208 207 207 207 205 205 205 207 207 207 208 208 208 209 209 209 210 210 210 209 209 209 208 208 208 209 209 209 210 210 210 211 211 211 212 212 212 211 211 211 210 210 210 211 211 211 212 212 212 213 213 213 214 214 214 213 213 213 212 212 212 213 213 213 214 214 214 215 215 215 216 216 216 215 215 215 214 214 214 215 215 215 216 216 216 217 217 217 218 218 218 217 217 217 216 216 216 217 217 217 218 218 218 219 219 219 220 220 220 204 204 204 206 206 206 204 204 204 220 220 220 221 221 221 222 222 222 221 221 221 220 220 220 221 221 221 222 222 222 223 223 223 224 224 224 223 223 223 222 222 222 223 223 223 224 224 224 225 225 225 226 226 226 225 225 225 224 224 224 225 225 225 226 226 226 227 227 227 228 228 228 227 227 227 226 226 226 227 227 227 228 228 228 229 229 229 230 230 230 229 229 229 228 228 228 229 229 229 230 230 230 231 231 231 232 232 232 231 231 231 230 230 230 231 231 231 232 232 232 233 233 233 234 234 234 233 233 233 232 232 232 233 233 233 234 234 234 235 235 235 236 236 236 235 235 235 234 234 234 237 237 237 235 235 235 236 236 236 238 238 238 239 239 239 240 240 240 240 240 240 239 239 239 241 241 241 242 242 242 241 241 241 239 239 239 241 241 241 242 242 242 243 243 243 244 244 244 243 243 243 242 242 242 243 243 243 244 244 244 245 245 245 246 246 246 245 245 245 244 244 244 245 245 245 246 246 246 247 247 247 248 248 248 247 247 247 246 246 246 247 247 247 248 248 248 249 249 249 250 250 250 249 249 249 248 248 248 249 249 249 250 250 250 251 251 251 252 252 252 251 251 251 250 250 250 251 251 251 252 252 252 253 253 253 254 254 254 238 238 238 240 240 240 238 238 238 254 254 254 255 255 255 256 256 256 255 255 255 254 254 254 255 255 255 256 256 256 257 257 257 258 258 258 257 257 257 256 256 256 257 257 257 258 258 258 259 259 259 260 260 260 259 259 259 258 258 258 259 259 259 260 260 260 261 261 261 262 262 262 261 261 261 260 260 260 261 261 261 262 262 262 263 263 263 264 264 264 263 263 263 262 262 262 263 263 263 264 264 264 265 265 265 266 266 266 265 265 265 264 264 264 265 265 265 266 266 266 267 267 267 268 268 268 267 267 267 266 266 266 267 267 267 268 268 268 269 269 269 270 270 270 269 269 269 268 268 268 271 271 271 269 269 269 270 270 270 272 272 272 273 273 273 274 274 274 274 274 274 273 273 273 275 275 275 276 276 276 275 275 275 273 273 273 275 275 275 276 276 276 277 277 277 278 278 278 277 277 277 276 276 276 277 277 277 278 278 278 279 279 279 280 280 280 279 279 279 278 278 278 279 279 279 280 280 280 281 281 281 282 282 282 281 281 281 280 280 280 281 281 281 282 282 282 283 283 283 284 284 284 283 283 283 282 282 282 283 283 283 284 284 284 285 285 285 286 286 286 285 285 285 284 284 284 285 285 285 286 286 286 287 287 287 288 288 288 272 272 272 274 274 274 272 272 272 288 288 288 289 289 289 290 290 290 289 289 289 288 288 288 289 289 289 290 290 290 291 291 291 292 292 292 291 291 291 290 290 290 291 291 291 292 292 292 293 293 293 294 294 294 293 293 293 292 292 292 293 293 293 294 294 294 295 295 295 296 296 296 295 295 295 294 294 294 295 295 295 296 296 296 297 297 297 298 298 298 297 297 297 296 296 296 297 297 297 298 298 298 299 299 299 300 300 300 299 299 299 298 298 298 299 299 299 300 300 300 301 301 301 302 302 302 301 301 301 300 300 300 301 301 301 302 302 302 303 303 303 304 304 304 303 303 303 302 302 302 305 305 305 303 303 303 304 304 304 306 306 306 307 307 307 308 308 308 308 308 308 307 307 307 309 309 309 310 310 310 309 309 309 307 307 307 309 309 309 310 310 310 311 311 311 312 312 312 311 311 311 310 310 310 311 311 311 312 312 312 313 313 313 314 314 314 313 313 313 312 312 312 313 313 313 314 314 314 315 315 315 316 316 316 315 315 315 314 314 314 315 315 315 316 316 316 317 317 317 318 318 318 317 317 317 316 316 316 317 317 317 318 318 318 319 319 319 320 320 320 319 319 319 318 318 318 319 319 319 320 320 320 321 321 321 322 322 322 306 306 306 308 308 308 306 306 306 322 322 322 323 323 323 324 324 324 323 323 323 322 322 322 323 323 323 324 324 324 325 325 325 326 326 326 325 325 325 324 324 324 325 325 325 326 326 326 327 327 327 328 328 328 327 327 327 326 326 326 327 327 327 328 328 328 329 329 329 330 330 330 329 329 329 328 328 328 329 329 329 330 330 330 331 331 331 332 332 332 331 331 331 330 330 330 331 331 331 332 332 332 333 333 333 334 334 334 333 333 333 332 332 332 333 333 333 334 334 334 335 335 335 336 336 336 335 335 335 334 334 334 335 335 335 336 336 336 337 337 337 338 338 338 337 337 337 336 336 336 339 339 339 337 337 337 338 338 338 340 340 340 341 341 341 342 342 342 342 342 342 341 341 341 343 343 343 344 344 344 343 343 343 341 341 341 343 343 343 344 344 344 345 345 345 346 346 346 345 345 345 344 344 344 345 345 345 346 346 346 347 347 347 348 348 348 347 347 347 346 346 346 347 347 347 348 348 348 349 349 349 350 350 350 349 349 349 348 348 348 349 349 349 350 350 350 351 351 351 352 352 352 351 351 351 350 350 350 351 351 351 352 352 352 353 353 353 354 354 354 353 353 353 352 352 352 353 353 353 354 354 354 355 355 355 356 356 356 340 340 340 342 342 342 340 340 340 356 356 356 357 357 357 358 358 358 357 357 357 356 356 356 357 357 357 358 358 358 359 359 359 360 360 360 359 359 359 358 358 358 359 359 359 360 360 360 361 361 361 362 362 362 361 361 361 360 360 360 361 361 361 362 362 362 363 363 363 364 364 364 363 363 363 362 362 362 363 363 363 364 364 364 365 365 365 366 366 366 365 365 365 364 364 364 365 365 365 366 366 366 367 367 367 368 368 368 367 367 367 366 366 366 367 367 367 368 368 368 369 369 369 370 370 370 369 369 369 368 368 368 369 369 369 370 370 370 371 371 371 372 372 372 371 371 371 370 370 370 373 373 373 371 371 371 372 372 372 374 374 374 375 375 375 376 376 376 376 376 376 375 375 375 377 377 377 378 378 378 377 377 377 375 375 375 377 377 377 378 378 378 379 379 379 380 380 380 379 379 379 378 378 378 379 379 379 380 380 380 381 381 381 382 382 382 381 381 381 380 380 380 381 381 381 382 382 382 383 383 383 384 384 384 383 383 383 382 382 382 383 383 383 384 384 384 385 385 385 386 386 386 385 385 385 384 384 384 385 385 385 386 386 386 387 387 387 388 388 388 387 387 387 386 386 386 387 387 387 388 388 388 389 389 389 390 390 390 374 374 374 376 376 376 374 374 374 390 390 390 391 391 391 392 392 392 391 391 391 390 390 390 391 391 391 392 392 392 393 393 393 394 394 394 393 393 393 392 392 392 393 393 393 394 394 394 395 395 395 396 396 396 395 395 395 394 394 394 395 395 395 396 396 396 397 397 397 398 398 398 397 397 397 396 396 396 397 397 397 398 398 398 399 399 399 400 400 400 399 399 399 398 398 398 399 399 399 400 400 400 401 401 401 402 402 402 401 401 401 400 400 400 401 401 401 402 402 402 403 403 403 404 404 404 403 403 403 402 402 402 403 403 403 404 404 404 405 405 405 406 406 406 405 405 405 404 404 404 407 407 407 405 405 405 406 406 406</p>
      </triangles>
    </mesh></geometry>
  </library_geometries>
  <library_visual_scenes>
    <visual_scene id="Scene" name="Scene">
      <node id="vfx_kurp_0393" name="vfx_kurp_0393" type="NODE">
        <instance_geometry url="#vfx_kurp_0393-mesh"><bind_material><technique_common><instance_material symbol="PreviewMaterial" target="#PreviewMaterial"><bind_vertex_input semantic="UVSET0" input_semantic="TEXCOORD" input_set="0"/></instance_material></technique_common></bind_material></instance_geometry>
      </node>
    </visual_scene>
  </library_visual_scenes>
  <scene><instance_visual_scene url="#Scene"/></scene>
</COLLADA>
