<?xml version="1.0" encoding="utf-8"?>
<COLLADA xmlns="http://www.collada.org/2005/11/COLLADASchema" version="1.4.1">
  <asset>
    <contributor><authoring_tool>Morrobroom Kurpulio VFX preview converter</authoring_tool></contributor>
    <unit name="unit" meter="1"/>
    <up_axis>Z_UP</up_axis>
  </asset>
  <library_images>
    <image id="VFXTexture" name="darkmap_newgen-1.dds">
      <init_from>../../../Textures/Kurp/darkmap_newgen-1.dds</init_from>
    </image>
  </library_images>
  <library_effects>
    <effect id="PreviewEffect">
      <profile_COMMON>
        <newparam sid="VFXTexture-surface">
          <surface type="2D"><init_from>VFXTexture</init_from></surface>
        </newparam>
        <newparam sid="VFXTexture-sampler">
          <sampler2D><source>VFXTexture-surface</source></sampler2D>
        </newparam>
        <technique sid="common"><phong>
          <emission><color>0.08 0.08 0.08 1</color></emission>
          <ambient><color>0.2 0.2 0.2 1</color></ambient>
          <diffuse><texture texture="VFXTexture-sampler" texcoord="UVSET0"/></diffuse>
          <specular><color>0.15 0.15 0.15 1</color></specular>
          <shininess><float>8</float></shininess>
          <transparent opaque="A_ONE"><texture texture="VFXTexture-sampler" texcoord="UVSET0"/></transparent>
          <transparency><float>1</float></transparency>
        </phong></technique>
      </profile_COMMON>
      <extra><technique profile="GOOGLEEARTH"><double_sided>1</double_sided></technique></extra>
    </effect>
  </library_effects>
  <library_materials><material id="PreviewMaterial" name="PreviewMaterial"><instance_effect url="#PreviewEffect"/></material></library_materials>
  <library_geometries>
    <geometry id="vfx_kurp_0226-mesh" name="vfx_kurp_0226"><mesh>
      <source id="vfx_kurp_0226-mesh-positions">
        <float_array id="vfx_kurp_0226-mesh-positions-array" count="288">0.0211558033 1.40271558 -0.206159943 0.872111217 2.36062593 1.26798384 1.30081138 0.751027716 -0.805720095 2.48879352 1.43691363 0.857386329 1.30081138 0.751027716 -0.805720095 2.48879352 1.43691363 0.857386329 1.22536877 -0.683030528 -0.206159876 2.48042012 -0.425030566 1.26798392 1.30058496 3.07461542 2.95562184 3.20013806 1.84761101 2.76135353 3.20013806 1.84761101 2.76135353 3.31298953 -0.41095156 2.95562219 3.68105214 -0.665057109 4.74427201 3.38743356 1.95574678 4.77928057 3.38743356 1.95574678 4.77928057 1.26455205 3.52041975 4.74427201 1.20420973 -0.693168732 -0.25820314 1.60830689 -2.05673217 1.12092438 3.46394189e-06 -1.41062421 -0.913009895 7.07097085e-06 -2.94897657 0.642900294 3.46394189e-06 -1.41062421 -0.913009895 7.07097085e-06 -2.94897657 0.642900294 -1.20420618 -0.693174426 -0.258203028 -1.60829712 -2.05673968 1.12092438 2.01240313 -2.95636624 2.74860517 9.37010752e-06 -3.9639314 2.47922464 9.37010752e-06 -3.9639314 2.47922464 -2.01238892 -2.95637602 2.74860517 -2.41648229 -3.33212149 4.51635325 1.01023114e-05 -4.38784039 4.47357023 1.01023114e-05 -4.38784039 4.47357023 2.41649792 -3.33211012 4.51635325 1.03853754 0.790900904 -0.228361483 2.16801662 0.605406337 0.636366433 0.875237132 -0.505315593 -0.744793176 1.92155277 -1.10940285 0.230779361 0.875237132 -0.505315593 -0.744793176 1.92155277 -1.10940285 0.230779361 -0.165665355 -1.29485118 -0.228361506 0.559721354 -2.18025799 0.636366433 3.00752275 0.587327204 1.71198334 2.64072499 -1.52461467 1.44427374 2.64072499 -1.52461467 1.44427374 0.995135061 -2.89824964 1.71198334 1.09808872 -3.42429626 2.92679846 2.98482074 -1.72327752 2.81480925 2.98482074 -1.72327752 2.81480925 3.51456872 0.761192548 2.92679864 -1.03853746 -0.790900848 -0.228361528 -2.16801677 -0.605406247 0.636366343 -0.875236871 0.505315508 -0.744793489 -1.92155236 1.10940285 0.230779249 -0.875236871 0.505315508 -0.744793489 -1.92155236 1.10940285 0.230779249 0.165665665 1.294851 -0.228361506 -0.559721109 2.18025806 0.636366254 -3.00752288 -0.587326716 1.71198316 -2.6407251 1.52461519 1.44427356 -2.6407251 1.52461519 1.44427356 -0.995134817 2.89824971 1.71198298 -1.09808846 3.42429673 2.92679792 -2.98482076 1.72327819 2.81480889 -2.98482076 1.72327819 2.81480889 -3.51456876 -0.761191904 2.92679846 -1.22163464 -0.705315163 -0.753546655 0.00180351328 -1.38946035 -0.21018176 -2.55388558 -1.47449441 0.537562026 -0.977028767 -2.4212006 0.93423064 -3.43286133 -1.98197407 2.06136058 -1.55408712 -3.22097521 2.28489518 -3.7999771 -2.19392944 3.71628672 -1.67744333 -3.75880345 3.75178844 -1.20241005 0.696285886 -0.210181983 -1.22163464 -0.705315163 -0.753546655 -2.58533812 0.364456056 0.93423064 -2.55388558 -1.47449441 0.537562026 -3.56649222 0.264592077 2.28489501 -3.43286133 -1.98197407 2.06136058 -4.09394464 0.426673798 3.75178844 -3.7999771 -2.19392944 3.71628672 -3.57185475e-06 1.50204938 -0.664516621 -1.20420974 0.719679252 -0.16699609 -7.03887007e-06 2.87381527 0.715544132 -1.6083071 1.93558379 1.05626195 -9.31243855e-06 3.69520663 2.29547364 -2.01240291 2.6636477 2.45667942 -1.0074991e-05 3.91147775 3.96996756 -2.41649757 2.85534497 3.94091745 1.20420645 0.719684991 -0.166996023 -3.57185475e-06 1.50204938 -0.664516621 1.60829751 1.93559157 1.05626195 -7.03887007e-06 2.87381527 0.715544132 2.01238983 2.6636574 2.45667942 -9.31243855e-06 3.69520663 2.29547364 2.41648317 2.85535655 3.94091781 -1.0074991e-05 3.91147775 3.96996756</float_array>
        <technique_common><accessor source="#vfx_kurp_0226-mesh-positions-array" count="96" stride="3"><param name="X" type="float"/><param name="Y" type="float"/><param name="Z" type="float"/></accessor></technique_common>
      </source>
      <source id="vfx_kurp_0226-mesh-normals">
        <float_array id="vfx_kurp_0226-mesh-normals-array" count="288">0.128340026 0.796101387 -0.591397852 0.303366745 0.811226143 -0.499880748 0.217938046 0.792279673 -0.569908701 0.373709204 0.802089743 -0.465825585 0.833694446 -0.249771288 -0.492511801 0.882072283 -0.132343585 -0.452143411 0.806028131 -0.201096965 -0.556667461 0.857243913 -0.0848384381 -0.507873324 0.478842742 0.829329567 -0.287961972 0.527622129 0.813744312 -0.243793114 0.970399927 0.00359462102 -0.24147683 0.957505525 0.0492513423 -0.284178595 0.976348449 0.111855485 -0.18501907 0.988371807 0.0720781174 -0.133887699 0.591509062 0.800346268 -0.0977899866 0.553778263 0.818979659 -0.15033946 0.619752926 -0.459677985 -0.63608369 0.545042417 -0.622684718 -0.561420079 0.572119364 -0.53441343 -0.622158918 0.502581062 -0.68058598 -0.533118186 -0.627529486 -0.553664024 -0.547414735 -0.549854057 -0.655897139 -0.517164828 -0.57225729 -0.548880519 -0.609304333 -0.496958585 -0.652385441 -0.572210977 0.47491767 -0.798486242 -0.369963413 0.437618167 -0.836906677 -0.328751507 -0.478391077 -0.816180708 -0.324023193 -0.432698154 -0.82263796 -0.368834779 -0.388916532 -0.879037527 -0.275747997 -0.429601486 -0.874633801 -0.224629199 0.395818324 -0.898261321 -0.190930493 0.430084661 -0.870227669 -0.240272739 0.615392261 0.223608489 -0.755838348 0.736918114 0.0806104323 -0.67115844 0.667110964 0.134630591 -0.732691999 0.772340081 0.0104574443 -0.63512317 0.210331744 -0.714061456 -0.667740065 0.334925989 -0.707811272 -0.62195481 0.218493627 -0.644040331 -0.733125219 0.349119357 -0.648481862 -0.676451734 0.884500394 -0.0738619939 -0.460655467 0.901893006 -0.125749484 -0.413250617 0.525204776 -0.745754245 -0.409890899 0.54654238 -0.70297223 -0.455106 0.613718124 -0.704223352 -0.356958729 0.601451106 -0.743066642 -0.293442556 0.945451931 -0.189653903 -0.264862311 0.933486238 -0.143790126 -0.328523733 -0.615392155 -0.223608612 -0.755838398 -0.736918078 -0.0806102479 -0.671158502 -0.667110946 -0.134630519 -0.732692029 -0.77234005 -0.010457311 -0.63512321 -0.210331652 0.714061603 -0.667739937 -0.334925874 0.707811152 -0.621955008 -0.218493565 0.644040338 -0.733125232 -0.349119213 0.648481793 -0.676451875 -0.884500355 0.0738620718 -0.46065553 -0.901892979 0.125749453 -0.413250687 -0.525204577 0.74575428 -0.40989109 -0.546542204 0.702972257 -0.455106168 -0.613717972 0.704223365 -0.356958965 -0.601450914 0.743066738 -0.293442705 -0.945451931 0.189653903 -0.264862311 -0.933486247 0.143790128 -0.328523706 -0.155514982 -0.769783904 -0.619070135 -0.175955627 -0.709766139 -0.682108236 -0.283245825 -0.764624353 -0.57889671 -0.295128879 -0.703316097 -0.646718959 -0.459628964 -0.806797845 -0.371239078 -0.483364211 -0.761222682 -0.432318249 -0.534512997 -0.80347221 -0.262160761 -0.557305275 -0.763319478 -0.326732621 -0.650917116 0.282148775 -0.70476874 -0.692230193 0.207894297 -0.691084163 -0.757662212 0.152706577 -0.634530278 -0.79671447 0.083975236 -0.598493286 -0.900974373 0.0135806856 -0.433659711 -0.924543226 -0.0424970002 -0.378700182 -0.954906112 -0.0576811085 -0.291251106 -0.967879712 -0.105480697 -0.228216312 -0.601047553 0.566829215 -0.563423891 -0.536785065 0.558990203 -0.631974483 -0.533109876 0.674785439 -0.510351322 -0.472505888 0.661483 -0.58239027 -0.477490115 0.833576692 -0.277764448 -0.425726441 0.839910665 -0.336611158 -0.433922437 0.887548378 -0.154819882 -0.388314515 0.894570199 -0.221260021 0.581006541 0.473151589 -0.662237852 0.536648931 0.549808139 -0.640092911 0.52357551 0.630711433 -0.5727755 0.48231871 0.698730816 -0.528340714 0.471580871 0.813045238 -0.341421914 0.433187397 0.855958946 -0.282281705 0.433325753 0.881767787 -0.186317903 0.396504672 0.910470221 -0.117592605</float_array>
        <technique_common><accessor source="#vfx_kurp_0226-mesh-normals-array" count="96" stride="3"><param name="X" type="float"/><param name="Y" type="float"/><param name="Z" type="float"/></accessor></technique_common>
      </source>
      <source id="vfx_kurp_0226-mesh-uv0">
        <float_array id="vfx_kurp_0226-mesh-uv0-array" count="192">1 1 1 0.666666627 0.5 1 0.5 0.666666627 0.5 1 0.5 0.666666627 0 1 0 0.666666627 1 0.333333313 0.5 0.333333313 0.5 0.333333313 0 0.333333313 0 0 0.5 0 0.5 0 1 0 1 1 1 0.666666627 0.5 1 0.5 0.666666627 0.5 1 0.5 0.666666627 0 1 0 0.666666627 1 0.333333313 0.5 0.333333313 0.5 0.333333313 0 0.333333313 0 0 0.5 0 0.5 0 1 0 1 1 1 0.666666627 0.5 1 0.5 0.666666627 0.5 1 0.5 0.666666627 0 1 0 0.666666627 1 0.333333313 0.5 0.333333313 0.5 0.333333313 0 0.333333313 0 0 0.5 0 0.5 0 1 0 1 1 1 0.666666627 0.5 1 0.5 0.666666627 0.5 1 0.5 0.666666627 0 1 0 0.666666627 1 0.333333313 0.5 0.333333313 0.5 0.333333313 0 0.333333313 0 0 0.5 0 0.5 0 1 0 0.5 1 0 1 0.5 0.666666627 0 0.666666627 0.5 0.333333313 0 0.333333313 0.5 0 0 0 1 1 0.5 1 1 0.666666627 0.5 0.666666627 1 0.333333313 0.5 0.333333313 1 0 0.5 0 0.5 1 0 1 0.5 0.666666627 0 0.666666627 0.5 0.333333313 0 0.333333313 0.5 0 0 0 1 1 0.5 1 1 0.666666627 0.5 0.666666627 1 0.333333313 0.5 0.333333313 1 0 0.5 0</float_array>
        <technique_common><accessor source="#vfx_kurp_0226-mesh-uv0-array" count="96" stride="2"><param name="S" type="float"/><param name="T" type="float"/></accessor></technique_common>
      </source>
      <vertices id="vfx_kurp_0226-mesh-vertices"><input semantic="POSITION" source="#vfx_kurp_0226-mesh-positions"/></vertices>
      <triangles material="PreviewMaterial" count="72">
        <input semantic="VERTEX" source="#vfx_kurp_0226-mesh-vertices" offset="0"/>
        <input semantic="NORMAL" source="#vfx_kurp_0226-mesh-normals" offset="1"/>
        <input semantic="TEXCOORD" source="#vfx_kurp_0226-mesh-uv0" offset="2" set="0"/>
        <p>0 0 0 1 1 1 2 2 2 3 3 3 2 2 2 1 1 1 4 4 4 5 5 5 6 6 6 7 7 7 6 6 6 5 5 5 1 1 1 8 8 8 3 3 3 9 9 9 3 3 3 8 8 8 5 5 5 10 10 10 7 7 7 11 11 11 7 7 7 10 10 10 12 12 12 11 11 11 13 13 13 10 10 10 13 13 13 11 11 11 14 14 14 9 9 9 15 15 15 8 8 8 15 15 15 9 9 9 16 16 16 17 17 17 18 18 18 19 19 19 18 18 18 17 17 17 20 20 20 21 21 21 22 22 22 23 23 23 22 22 22 21 21 21 17 17 17 24 24 24 19 19 19 25 25 25 19 19 19 24 24 24 21 21 21 26 26 26 23 23 23 27 27 27 23 23 23 26 26 26 28 28 28 27 27 27 29 29 29 26 26 26 29 29 29 27 27 27 30 30 30 25 25 25 31 31 31 24 24 24 31 31 31 25 25 25 32 32 32 33 33 33 34 34 34 35 35 35 34 34 34 33 33 33 36 36 36 37 37 37 38 38 38 39 39 39 38 38 38 37 37 37 33 33 33 40 40 40 35 35 35 41 41 41 35 35 35 40 40 40 37 37 37 42 42 42 39 39 39 43 43 43 39 39 39 42 42 42 44 44 44 43 43 43 45 45 45 42 42 42 45 45 45 43 43 43 46 46 46 41 41 41 47 47 47 40 40 40 47 47 47 41 41 41 48 48 48 49 49 49 50 50 50 51 51 51 50 50 50 49 49 49 52 52 52 53 53 53 54 54 54 55 55 55 54 54 54 53 53 53 49 49 49 56 56 56 51 51 51 57 57 57 51 51 51 56 56 56 53 53 53 58 58 58 55 55 55 59 59 59 55 55 55 58 58 58 60 60 60 59 59 59 61 61 61 58 58 58 61 61 61 59 59 59 62 62 62 57 57 57 63 63 63 56 56 56 63 63 63 57 57 57 64 64 64 65 65 65 66 66 66 67 67 67 66 66 66 65 65 65 66 66 66 67 67 67 68 68 68 69 69 69 68 68 68 67 67 67 68 68 68 69 69 69 70 70 70 71 71 71 70 70 70 69 69 69 72 72 72 73 73 73 74 74 74 75 75 75 74 74 74 73 73 73 74 74 74 75 75 75 76 76 76 77 77 77 76 76 76 75 75 75 76 76 76 77 77 77 78 78 78 79 79 79 78 78 78 77 77 77 80 80 80 81 81 81 82 82 82 83 83 83 82 82 82 81 81 81 82 82 82 83 83 83 84 84 84 85 85 85 84 84 84 83 83 83 84 84 84 85 85 85 86 86 86 87 87 87 86 86 86 85 85 85 88 88 88 89 89 89 90 90 90 91 91 91 90 90 90 89 89 89 90 90 90 91 91 91 92 92 92 93 93 93 92 92 92 91 91 91 92 92 92 93 93 93 94 94 94 95 95 95 94 94 94 93 93 93</p>
      </triangles>
    </mesh></geometry>
  </library_geometries>
  <library_visual_scenes>
    <visual_scene id="Scene" name="Scene">
      <node id="vfx_kurp_0226" name="vfx_kurp_0226" type="NODE">
        <instance_geometry url="#vfx_kurp_0226-mesh"><bind_material><technique_common><instance_material symbol="PreviewMaterial" target="#PreviewMaterial"><bind_vertex_input semantic="UVSET0" input_semantic="TEXCOORD" input_set="0"/></instance_material></technique_common></bind_material></instance_geometry>
      </node>
    </visual_scene>
  </library_visual_scenes>
  <scene><instance_visual_scene url="#Scene"/></scene>
</COLLADA>
