<?xml version="1.0" encoding="utf-8"?>
<COLLADA xmlns="http://www.collada.org/2005/11/COLLADASchema" version="1.4.1">
  <asset>
    <contributor><authoring_tool>Morrobroom Kurpulio VFX preview converter</authoring_tool></contributor>
    <unit name="unit" meter="1"/>
    <up_axis>Z_UP</up_axis>
  </asset>
  <library_images>
    <image id="VFXTexture" name="darkmap_newgen-1.dds">
      <init_from>../../../Textures/Kurp/darkmap_newgen-1.dds</init_from>
    </image>
  </library_images>
  <library_effects>
    <effect id="PreviewEffect">
      <profile_COMMON>
        <newparam sid="VFXTexture-surface">
          <surface type="2D"><init_from>VFXTexture</init_from></surface>
        </newparam>
        <newparam sid="VFXTexture-sampler">
          <sampler2D><source>VFXTexture-surface</source></sampler2D>
        </newparam>
        <technique sid="common"><phong>
          <emission><color>0.08 0.08 0.08 1</color></emission>
          <ambient><color>0.2 0.2 0.2 1</color></ambient>
          <diffuse><texture texture="VFXTexture-sampler" texcoord="UVSET0"/></diffuse>
          <specular><color>0.15 0.15 0.15 1</color></specular>
          <shininess><float>8</float></shininess>
          <transparent opaque="A_ONE"><texture texture="VFXTexture-sampler" texcoord="UVSET0"/></transparent>
          <transparency><float>1</float></transparency>
        </phong></technique>
      </profile_COMMON>
      <extra><technique profile="GOOGLEEARTH"><double_sided>1</double_sided></technique></extra>
    </effect>
  </library_effects>
  <library_materials><material id="PreviewMaterial" name="PreviewMaterial"><instance_effect url="#PreviewEffect"/></material></library_materials>
  <library_geometries>
    <geometry id="vfx_kurp_0720-mesh" name="vfx_kurp_0720"><mesh>
      <source id="vfx_kurp_0720-mesh-positions">
        <float_array id="vfx_kurp_0720-mesh-positions-array" count="2424">1.32551254 -0.83569581 2.74337231 0.289930449 0.165448625 0.371090861 -0.156747743 0.0961146681 0.338883279 -1.06806643 0.798049853 -2.90989634 -1.06806643 0.798049853 -2.90989634 -0.331339573 -0.137570468 -0.128586767 -0.156747743 0.0961146681 0.338883279 0.619973225 -0.656387863 1.49669188 1.32551254 -0.83569581 2.74337231 -1.06806643 0.798049853 -2.90989634 0.0899113986 -0.24137166 -0.331394074 -0.331339573 -0.137570468 -0.128586767 0.619973225 -0.656387863 1.49669188 0.55971455 -0.535008025 0.826991927 1.32551254 -0.83569581 2.74337231 1.32551254 -0.83569581 2.74337231 0.55971455 -0.535008025 0.826991927 0.346111762 -0.038923987 -0.030786727 0.0899113986 -0.24137166 -0.331394074 -1.06806643 0.798049853 -2.90989634 1.32551254 -0.83569581 2.74337231 0.346111762 -0.038923987 -0.030786727 0.289930449 0.165448625 0.371090861 -1.06806643 0.798049853 -2.90989634 0.592122251 1.47019252 3.08165819 -0.0872817254 0.507299768 0.203984187 0.312005744 0.840029829 0.412769271 -0.877595424 -0.0915395713 -2.9560276 0.592122251 1.47019252 3.08165819 -0.171122169 0.899836495 1.15226999 -0.0872817254 0.507299768 0.203984187 -0.512132891 0.559830245 -0.0601782172 -0.877595424 -0.0915395713 -2.9560276 -0.877595424 -0.0915395713 -2.9560276 -0.512132891 0.559830245 -0.0601782172 -0.404917441 1.12354678 -0.12259557 0.0276816957 1.30837243 1.74440534 -0.171122169 0.899836495 1.15226999 0.592122251 1.47019252 3.08165819 -0.877595424 -0.0915395713 -2.9560276 -0.404917441 1.12354678 -0.12259557 0.113151569 1.2689379 0.224136281 0.0276816957 1.30837243 1.74440534 0.592122251 1.47019252 3.08165819 0.592122251 1.47019252 3.08165819 0.312005744 0.840029829 0.412769271 0.113151569 1.2689379 0.224136281 -0.877595424 -0.0915395713 -2.9560276 0.392807057 -2.9172393 0.630457382 0.254626655 -2.08788503 0.157187984 0.0817573547 -2.00491877 0.23894592 -0.15912049 -1.19223574 -0.609261533 -0.15912049 -1.19223574 -0.609261533 -0.0774044163 -1.98260258 0.0845470549 0.0817573547 -2.00491877 0.23894592 0.152546624 -2.55321818 0.374741147 0.392807057 -2.9172393 0.630457382 -0.15912049 -1.19223574 -0.609261533 0.017859237 -2.08577625 -0.0960777396 -0.0774044163 -1.98260258 0.0845470549 0.152546624 -2.55321818 0.374741147 0.137615175 -2.4217485 0.167850654 0.392807057 -2.9172393 0.630457382 0.392807057 -2.9172393 0.630457382 0.137615175 -2.4217485 0.167850654 0.185182144 -2.11631167 -0.0230246284 0.017859237 -2.08577625 -0.0960777396 -0.15912049 -1.19223574 -0.609261533 0.392807057 -2.9172393 0.630457382 0.185182144 -2.11631167 -0.0230246284 0.254626655 -2.08788503 0.157187984 -0.15912049 -1.19223574 -0.609261533 -2.05835236 -2.37638843 0.460567294 -1.75885257 -1.93936423 0.118912465 -1.81075116 -1.78900517 0.204348621 -1.64656867 -1.34533842 -0.421693052 -1.64656867 -1.34533842 -0.421693052 -1.92543808 -1.70452689 0.100906396 -1.81075116 -1.78900517 0.204348621 -2.05026203 -2.08693531 0.292918441 -1.81075116 -1.78900517 0.204348621 -1.92543808 -1.70452689 0.100906396 -2.05835236 -2.37638843 0.460567294 -1.64656867 -1.34533842 -0.421693052 -1.95061758 -1.83195962 -0.0541572203 -1.92543808 -1.70452689 0.100906396 -2.05026203 -2.08693531 0.292918441 -2.01933532 -2.03717908 0.13401911 -2.05835236 -2.37638843 0.460567294 -2.05835236 -2.37638843 0.460567294 -2.01933532 -2.03717908 0.13401911 -1.84825237 -1.93479462 -0.0159173976 -1.95061758 -1.83195962 -0.0541572203 -1.64656867 -1.34533842 -0.421693052 -2.05835236 -2.37638843 0.460567294 -1.84825237 -1.93479462 -0.0159173976 -1.75885257 -1.93936423 0.118912465 -1.64656867 -1.34533842 -0.421693052 -0.152269408 -1.98192051 2.5816064 -0.564663798 -0.946841416 0.281746991 -0.157999769 -0.907123808 0.116193017 -0.890027614 1.05355453 -2.47966693 -0.890027614 1.05355453 -2.47966693 -0.0874277168 -0.378279503 -0.102015648 -0.157999769 -0.907123808 0.116193017 -0.085085645 -1.19208328 1.48628804 -0.152269408 -1.98192051 2.5816064 -0.890027614 1.05355453 -2.47966693 -0.490166903 -0.105252401 0.00816325547 -0.0874277168 -0.378279503 -0.102015648 -0.085085645 -1.19208328 1.48628804 -0.337893158 -0.75974105 1.01551211 -0.152269408 -1.98192051 2.5816064 -0.152269408 -1.98192051 2.5816064 -0.337893158 -0.75974105 1.01551211 -0.682837151 -0.472258313 0.180455426 -0.490166903 -0.105252401 0.00816325547 -0.890027614 1.05355453 -2.47966693 -0.152269408 -1.98192051 2.5816064 -0.682837151 -0.472258313 0.180455426 -0.564663798 -0.946841416 0.281746991 -0.890027614 1.05355453 -2.47966693 -1.97309643 2.51287508 1.9861366 -1.09496705 1.21345865 0.164101404 -1.06939227 1.55768384 0.232081185 -0.301651945 -0.0332910634 -1.9931578 -1.97309643 2.51287508 1.9861366 -1.57147281 1.52439337 0.741690793 -1.09496705 1.21345865 0.164101404 -1.24099129 1.01322467 -0.0749251846 -0.301651945 -0.0332910634 -1.9931578 -0.301651945 -0.0332910634 -1.9931578 -1.24099129 1.01322467 -0.0749251846 -1.35091992 1.28442698 -0.301815024 -1.78188921 1.93485184 1.02696068 -1.57147281 1.52439337 0.741690793 -1.97309643 2.51287508 1.9861366 -0.301651945 -0.0332910634 -1.9931578 -1.35091992 1.28442698 -0.301815024 -1.2486012 1.62408168 -0.0624958015 -1.78188921 1.93485184 1.02696068 -1.97309643 2.51287508 1.9861366 -1.97309643 2.51287508 1.9861366 -1.06939227 1.55768384 0.232081185 -1.2486012 1.62408168 -0.0624958015 -0.301651945 -0.0332910634 -1.9931578 -1.62609667 1.05065887 1.92008358 -1.30061042 1.24517616 0.209021492 -1.68336647 0.817793764 0.0496111336 -0.354940181 0.673270258 -1.82632834 -0.354940181 0.673270258 -1.82632834 -1.34838425 0.364200668 -0.102924257 -1.68336647 0.817793764 0.0496111336 -1.42255258 0.615425786 1.096979 -1.68336647 0.817793764 0.0496111336 -1.34838425 0.364200668 -0.102924257 -1.62609667 1.05065887 1.92008358 -0.354940181 0.673270258 -1.82632834 -0.70357035 0.544813676 0.0265782464 -1.34838425 0.364200668 -0.102924257 -1.42255258 0.615425786 1.096979 -1.00776642 0.655435199 0.769629025 -1.62609667 1.05065887 1.92008358 -1.62609667 1.05065887 1.92008358 -1.00776642 0.655435199 0.769629025 -0.803937698 1.00891448 0.160097326 -0.70357035 0.544813676 0.0265782464 -0.354940181 0.673270258 -1.82632834 -1.62609667 1.05065887 1.92008358 -0.803937698 1.00891448 0.160097326 -1.30061042 1.24517616 0.209021492 -0.354940181 0.673270258 -1.82632834 -1.33697928 -0.471355898 2.2793371 -1.05611761 0.268469237 0.327785212 -1.2716897 0.105305851 0.097946434 -0.419574863 0.757534299 -2.28032435 -0.419574863 0.757534299 -2.28032435 -1.08149273 -0.0584057096 -0.240808595 -1.2716897 0.105305851 0.097946434 -1.18443753 -0.379610284 1.20105184 -1.33697928 -0.471355898 2.2793371 -0.419574863 0.757534299 -2.28032435 -0.720119189 -0.00233293838 -0.147022354 -1.08149273 -0.0584057096 -0.240808595 -1.18443753 -0.379610284 1.20105184 -0.895929994 -0.244165621 0.783932409 -1.33697928 -0.471355898 2.2793371 -1.33697928 -0.471355898 2.2793371 -0.895929994 -0.244165621 0.783932409 -0.776190124 0.178660214 0.136665868 -0.720119189 -0.00233293838 -0.147022354 -0.419574863 0.757534299 -2.28032435 -1.33697928 -0.471355898 2.2793371 -0.776190124 0.178660214 0.136665868 -1.05611761 0.268469237 0.327785212 -0.419574863 0.757534299 -2.28032435 0.93704828 1.59081951 1.60898502 0.634646844 1.09072808 0.0986349679 0.409589074 1.53035832 -0.0439143084 -0.545343271 0.353420128 -1.53437344 -0.545343271 0.353420128 -1.53437344 -0.0906020018 1.41904998 -0.0853991898 0.409589074 1.53035832 -0.0439143084 0.366073253 1.50725019 0.949056167 0.409589074 1.53035832 -0.0439143084 -0.0906020018 1.41904998 -0.0853991898 0.93704828 1.59081951 1.60898502 -0.545343271 0.353420128 -1.53437344 -0.15571837 0.861858282 0.0922541539 -0.0906020018 1.41904998 -0.0853991898 0.366073253 1.50725019 0.949056167 0.184535317 1.13489876 0.704928112 0.93704828 1.59081951 1.60898502 0.93704828 1.59081951 1.60898502 0.184535317 1.13489876 0.704928112 0.265098758 0.783920893 0.145578421 -0.15571837 0.861858282 0.0922541539 -0.545343271 0.353420128 -1.53437344 0.93704828 1.59081951 1.60898502 0.265098758 0.783920893 0.145578421 0.634646844 1.09072808 0.0986349679 -0.545343271 0.353420128 -1.53437344 -1.57947276 -1.08887585 1.23644032 -1.05971052 -0.199656785 0.15072309 -1.40479179 -0.282528428 0.13193826 -0.590740601 0.507581874 -1.24035255 -1.57947276 -1.08887585 1.23644032 -1.01073394 -0.638472455 0.487515863 -1.05971052 -0.199656785 0.15072309 -0.811830638 -0.327166405 -0.0253258679 -0.590740601 0.507581874 -1.24035255 -0.590740601 0.507581874 -1.24035255 -0.811830638 -0.327166405 -0.0253258679 -1.04866345 -0.586508405 -0.294573247 -1.25463226 -0.923489241 0.598363234 -1.01073394 -0.638472455 0.487515863 -1.57947276 -1.08887585 1.23644032 -0.590740601 0.507581874 -1.24035255 -1.04866345 -0.586508405 -0.294573247 -1.40907132 -0.551838365 -0.157270568 -1.25463226 -0.923489241 0.598363234 -1.40907132 -0.551838365 -0.157270568 -1.04866345 -0.586508405 -0.294573247 -1.57947276 -1.08887585 1.23644032 -1.57947276 -1.08887585 1.23644032 -1.40479179 -0.282528428 0.13193826 -1.40907132 -0.551838365 -0.157270568 -0.590740601 0.507581874 -1.24035255 -0.350615776 2.3260831 1.6566846 -0.793919683 1.39483191 0.238768438 -0.482727256 0.993624697 0.291389182 -0.642008457 0.518934627 -1.83302833 -0.642008457 0.518934627 -1.83302833 -0.124760474 1.03337868 -0.0489872744 -0.482727256 0.993624697 0.291389182 -0.127468861 1.8341754 0.897774216 -0.482727256 0.993624697 0.291389182 -0.124760474 1.03337868 -0.0489872744 -0.350615776 2.3260831 1.6566846 -0.642008457 0.518934627 -1.83302833 -0.229406202 1.54103949 -0.291767722 -0.124760474 1.03337868 -0.0489872744 -0.127468861 1.8341754 0.897774216 -0.202770751 1.87246203 0.432515297 -0.350615776 2.3260831 1.6566846 -0.350615776 2.3260831 1.6566846 -0.202770751 1.87246203 0.432515297 -0.591425477 1.63366608 -0.0936415497 -0.229406202 1.54103949 -0.291767722 -0.642008457 0.518934627 -1.83302833 -0.350615776 2.3260831 1.6566846 -0.591425477 1.63366608 -0.0936415497 -0.793919683 1.39483191 0.238768438 -0.642008457 0.518934627 -1.83302833 -2.06275223 2.64034583 1.23752398 -1.68294652 1.86044661 0.485215891 -1.50598215 1.81592445 0.513669224 -1.05987034 1.067261 -0.61484191 -1.05987034 1.067261 -0.61484191 -1.37032201 1.82388484 0.332624305 -1.50598215 1.81592445 0.513669224 -1.74662058 2.33311591 0.834766259 -2.06275223 2.64034583 1.23752398 -1.05987034 1.067261 -0.61484191 -1.49261593 1.90196965 0.202909899 -1.37032201 1.82388484 0.332624305 -1.74662058 2.33311591 0.834766259 -1.69739848 2.20623037 0.587430929 -2.06275223 2.64034583 1.23752398 -2.06275223 2.64034583 1.23752398 -1.69739848 2.20623037 0.587430929 -1.64109554 1.89916773 0.308165568 -1.49261593 1.90196965 0.202909899 -1.05987034 1.067261 -0.61484191 -2.06275223 2.64034583 1.23752398 -1.64109554 1.89916773 0.308165568 -1.68294652 1.86044661 0.485215891 -1.05987034 1.067261 -0.61484191 -1.36992198 2.61007704 1.3969864 -1.05582488 2.15342341 0.441695908 -1.30664683 2.12948499 0.329594821 -0.798288064 1.16612509 -0.619905861 -0.798288064 1.16612509 -0.619905861 -1.35310716 1.83628358 0.286334069 -1.30664683 2.12948499 0.329594821 -1.39094615 2.21558163 0.958006354 -1.36992198 2.61007704 1.3969864 -0.798288064 1.16612509 -0.619905861 -1.10834891 1.68372292 0.412375748 -1.35310716 1.83628358 0.286334069 -1.39094615 2.21558163 0.958006354 -1.22467464 1.99985915 0.806641205 -1.36992198 2.61007704 1.3969864 -1.36992198 2.61007704 1.3969864 -1.22467464 1.99985915 0.806641205 -0.986526826 1.88967977 0.465390693 -1.10834891 1.68372292 0.412375748 -0.798288064 1.16612509 -0.619905861 -1.36992198 2.61007704 1.3969864 -0.986526826 1.88967977 0.465390693 -1.05582488 2.15342341 0.441695908 -0.798288064 1.16612509 -0.619905861 -2.86977894 1.13396219 1.61725415 -1.99738257 0.901043908 0.447837981 -2.0808689 1.04561381 0.531377646 -1.14930367 0.69718831 -0.901554608 -2.86977894 1.13396219 1.61725415 -2.33545543 0.892054166 0.802460408 -1.99738257 0.901043908 0.447837981 -1.99087758 0.80461603 0.286887263 -1.14930367 0.69718831 -0.901554608 -1.14930367 0.69718831 -0.901554608 -1.99087758 0.80461603 0.286887263 -2.09173909 0.912278896 0.195495388 -2.55807357 1.00037944 1.01191817 -2.33545543 0.892054166 0.802460408 -2.86977894 1.13396219 1.61725415 -1.14930367 0.69718831 -0.901554608 -2.09173909 0.912278896 0.195495388 -2.15381098 1.05818716 0.374440144 -2.55807357 1.00037944 1.01191817 -2.86977894 1.13396219 1.61725415 -2.86977894 1.13396219 1.61725415 -2.0808689 1.04561381 0.531377646 -2.15381098 1.05818716 0.374440144 -1.14930367 0.69718831 -0.901554608 -3.26345401 0.00254141845 0.922912552 -2.5891394 0.231245942 0.414329095 -2.62700745 0.163013438 0.245888166 -1.64262035 0.243412124 -0.207727814 -1.64262035 0.243412124 -0.207727814 -2.48760207 0.0326638024 0.187221472 -2.62700745 0.163013438 0.245888166 -2.92421768 -0.0343015091 0.617506615 -3.26345401 0.00254141845 0.922912552 -1.64262035 0.243412124 -0.207727814 -2.37235815 0.0177319928 0.354177836 -2.48760207 0.0326638024 0.187221472 -2.92421768 -0.0343015091 0.617506615 -2.69811905 -0.0283371001 0.589856814 -3.26345401 0.00254141845 0.922912552 -3.26345401 0.00254141845 0.922912552 -2.69811905 -0.0283371001 0.589856814 -2.44654599 0.135438932 0.443925101 -2.37235815 0.0177319928 0.354177836 -1.64262035 0.243412124 -0.207727814 -3.26345401 0.00254141845 0.922912552 -2.44654599 0.135438932 0.443925101 -2.5891394 0.231245942 0.414329095 -1.64262035 0.243412124 -0.207727814 -1.81035476 -1.58782242 0.716631117 -1.40679706 -1.16874116 0.284137367 -1.46535262 -0.980103738 0.348147111 -1.187955 -0.599806681 -0.421690076 -1.187955 -0.599806681 -0.421690076 -1.58106101 -0.898174506 0.203648741 -1.46535262 -0.980103738 0.348147111 -1.76656136 -1.29082135 0.475966168 -1.46535262 -0.980103738 0.348147111 -1.58106101 -0.898174506 0.203648741 -1.81035476 -1.58782242 0.716631117 -1.187955 -0.599806681 -0.421690076 -1.60235246 -1.0701597 0.0484828368 -1.58106101 -0.898174506 0.203648741 -1.76656136 -1.29082135 0.475966168 -1.71233206 -1.26509479 0.290696587 -1.81035476 -1.58782242 0.716631117 -1.81035476 -1.58782242 0.716631117 -1.71233206 -1.26509479 0.290696587 -1.49540243 -1.18437473 0.121223453 -1.60235246 -1.0701597 0.0484828368 -1.187955 -0.599806681 -0.421690076 -1.81035476 -1.58782242 0.716631117 -1.49540243 -1.18437473 0.121223453 -1.40679706 -1.16874116 0.284137367 -1.187955 -0.599806681 -0.421690076 1.65007492 1.80204437 1.1828245 0.851034742 1.47951083 0.483869664 0.801789291 1.25243362 0.542775165 0.107190388 0.878353103 -0.588208333 0.107190388 0.878353103 -0.588208333 0.849043895 1.09390416 0.347023676 0.801789291 1.25243362 0.542775165 1.36205982 1.46981405 0.802408937 1.65007492 1.80204437 1.1828245 0.107190388 0.878353103 -0.588208333 0.958870832 1.25632222 0.171587868 0.849043895 1.09390416 0.347023676 1.36205982 1.46981405 0.802408937 1.25231444 1.44633339 0.543257715 1.65007492 1.80204437 1.1828245 1.65007492 1.80204437 1.1828245 1.25231444 1.44633339 0.543257715 0.929877572 1.43855741 0.277716511 0.958870832 1.25632222 0.171587868 0.107190388 0.878353103 -0.588208333 1.65007492 1.80204437 1.1828245 0.929877572 1.43855741 0.277716511 0.851034742 1.47951083 0.483869664 0.107190388 0.878353103 -0.588208333 -2.60987056 2.70954934 0.30648624 -2.32493022 2.35095401 0.0371550383 -2.35448752 2.3489452 0.109696922 -1.97050184 1.96693026 -0.209558443 -2.60987056 2.70954934 0.30648624 -2.38584293 2.49763357 0.114035127 -2.32493022 2.35095401 0.0371550383 -2.25562208 2.35228071 0.00437382476 -1.97050184 1.96693026 -0.209558443 -1.97050184 1.96693026 -0.209558443 -2.25562208 2.35228071 0.00437382476 -2.21202635 2.34096419 0.0728847148 -2.43232481 2.56879418 0.197217031 -2.38584293 2.49763357 0.114035127 -2.60987056 2.70954934 0.30648624 -1.97050184 1.96693026 -0.209558443 -2.21202635 2.34096419 0.0728847148 -2.28193854 2.34547478 0.137585048 -2.43232481 2.56879418 0.197217031 -2.60987056 2.70954934 0.30648624 -2.60987056 2.70954934 0.30648624 -2.35448752 2.3489452 0.109696922 -2.28193854 2.34547478 0.137585048 -1.97050184 1.96693026 -0.209558443 -2.98729487 1.03762749 0.420928513 -2.66661307 0.996605871 0.122211211 -2.71138874 1.00201029 0.036000765 -2.31033265 0.800085168 -0.276473905 -2.31033265 0.800085168 -0.276473905 -2.69936328 0.914454503 -0.0170646703 -2.71138874 1.00201029 0.036000765 -2.876531 0.961088623 0.233457247 -2.98729487 1.03762749 0.420928513 -2.31033265 0.800085168 -0.276473905 -2.64990258 0.851931356 0.0543388645 -2.69936328 0.914454503 -0.0170646703 -2.876531 0.961088623 0.233457247 -2.78482408 0.899528056 0.198914407 -2.98729487 1.03762749 0.420928513 -2.98729487 1.03762749 0.420928513 -2.78482408 0.899528056 0.198914407 -2.63822064 0.910703283 0.115783591 -2.64990258 0.851931356 0.0543388645 -2.31033265 0.800085168 -0.276473905 -2.98729487 1.03762749 0.420928513 -2.63822064 0.910703283 0.115783591 -2.66661307 0.996605871 0.122211211 -2.31033265 0.800085168 -0.276473905 2.53437029 -0.0420747492 0.39337837 2.17996428 0.0526874984 0.167450778 2.13085642 -0.0339397114 0.180352667 1.78241667 0.0802734835 -0.24729764 1.78241667 0.0802734835 -0.24729764 2.11247522 -0.076835532 0.0780285867 2.13085642 -0.0339397114 0.180352667 2.36665038 -0.073936423 0.239569917 2.53437029 -0.0420747492 0.39337837 1.78241667 0.0802734835 -0.24729764 2.16622586 -0.00956437582 0.00260140231 2.11247522 -0.076835532 0.0780285867 2.36665038 -0.073936423 0.239569917 2.3131887 -0.0318550557 0.140498537 2.53437029 -0.0420747492 0.39337837 2.53437029 -0.0420747492 0.39337837 2.3131887 -0.0318550557 0.140498537 2.19005514 0.0510725506 0.0662821489 2.16622586 -0.00956437582 0.00260140231 1.78241667 0.0802734835 -0.24729764 2.53437029 -0.0420747492 0.39337837 2.19005514 0.0510725506 0.0662821489 2.17996428 0.0526874984 0.167450778 1.78241667 0.0802734835 -0.24729764 -3.79130286 -0.636174014 0.30950047 -3.52629553 -0.49564474 0.0952502025 -3.53744667 -0.526570049 0.0242911231 -3.13350569 -0.426826419 -0.166802923 -3.13350569 -0.426826419 -0.166802923 -3.47069442 -0.571385007 -0.00042326275 -3.53744667 -0.526570049 0.0242911231 -3.64774985 -0.628643539 0.180842536 -3.79130286 -0.636174014 0.30950047 -3.13350569 -0.426826419 -0.166802923 -3.42176434 -0.569831398 0.0699103329 -3.47069442 -0.571385007 -0.00042326275 -3.64774985 -0.628643539 0.180842536 -3.55412852 -0.610932886 0.169194589 -3.79130286 -0.636174014 0.30950047 -3.79130286 -0.636174014 0.30950047 -3.55412852 -0.610932886 0.169194589 -3.46054427 -0.525880465 0.107718233 -3.42176434 -0.569831398 0.0699103329 -3.13350569 -0.426826419 -0.166802923 -3.79130286 -0.636174014 0.30950047 -3.46054427 -0.525880465 0.107718233 -3.52629553 -0.49564474 0.0952502025 -3.13350569 -0.426826419 -0.166802923 -2.08039846 -1.99882025 0.28931641 -1.94771876 -1.82886029 0.0384892813 -1.91039195 -1.8222742 0.107119956 -1.81820051 -1.58259951 -0.190223614 -2.08039846 -1.99882025 0.28931641 -2.0391046 -1.86286513 0.109883165 -1.94771876 -1.82886029 0.0384892813 -1.99277346 -1.78074477 0.0078458849 -1.81820051 -1.58259951 -0.190223614 -1.81820051 -1.58259951 -0.190223614 -1.99277346 -1.78074477 0.0078458849 -1.98380403 -1.7082927 0.0732125559 -2.0619497 -1.87370284 0.187931588 -2.0391046 -1.86286513 0.109883165 -2.08039846 -1.99882025 0.28931641 -1.81820051 -1.58259951 -0.190223614 -1.98380403 -1.7082927 0.0732125559 -1.93505956 -1.74280696 0.134085299 -2.0619497 -1.87370284 0.187931588 -1.93505956 -1.74280696 0.134085299 -1.98380403 -1.7082927 0.0732125559 -2.08039846 -1.99882025 0.28931641 -2.08039846 -1.99882025 0.28931641 -1.91039195 -1.8222742 0.107119956 -1.93505956 -1.74280696 0.134085299 -1.81820051 -1.58259951 -0.190223614 -3.00522111 2.85322337 0.730342752 -2.48954722 2.21083595 0.16602608 -2.33488472 2.20283332 0.208554258 -1.73174301 1.57860338 -0.676866901 -1.73174301 1.57860338 -0.676866901 -2.20347219 2.22226305 0.0632794499 -2.33488472 2.20283332 0.208554258 -2.65032622 2.62158162 0.430320845 -3.00522111 2.85322337 0.730342752 -1.73174301 1.57860338 -0.676866901 -2.30717752 2.26254601 -0.0642631902 -2.20347219 2.22226305 0.0632794499 -2.65032622 2.62158162 0.430320845 -2.56518651 2.50867419 0.22964359 -3.00522111 2.85322337 0.730342752 -3.00522111 2.85322337 0.730342752 -2.56518651 2.50867419 0.22964359 -2.44305303 2.24158733 0.014184398 -2.30717752 2.26254601 -0.0642631902 -1.73174301 1.57860338 -0.676866901 -3.00522111 2.85322337 0.730342752 -2.44305303 2.24158733 0.014184398 -2.48954722 2.21083595 0.16602608 -1.73174301 1.57860338 -0.676866901 0.183858804 3.27595588 0.990609433 0.154167943 2.76793415 0.17609217 -0.0649067174 2.83536366 0.105593471 -0.119836435 1.85691335 -0.680934244 -0.119836435 1.85691335 -0.680934244 -0.20997659 2.61871633 0.0968798815 -0.0649067174 2.83536366 0.105593471 -0.0247890293 2.95604461 0.647290377 0.183858804 3.27595588 0.990609433 -0.119836435 1.85691335 -0.680934244 -0.0561829031 2.41439823 0.194439851 -0.20997659 2.61871633 0.0968798815 -0.0247890293 2.95604461 0.647290377 0.0115206395 2.72022777 0.518854294 0.183858804 3.27595588 0.990609433 0.183858804 3.27595588 0.990609433 0.0115206395 2.72022777 0.518854294 0.118533616 2.53526322 0.211498653 -0.0561829031 2.41439823 0.194439851 -0.119836435 1.85691335 -0.680934244 0.183858804 3.27595588 0.990609433 0.118533616 2.53526322 0.211498653 0.154167943 2.76793415 0.17609217 -0.119836435 1.85691335 -0.680934244 -3.33260002 0.693859956 0.848364953 -2.69726137 0.823537458 0.211867855 -2.7992029 0.862190995 0.0431943065 -1.96440548 0.695660787 -0.698810354 -1.96440548 0.695660787 -0.698810354 -2.76039309 0.713783457 -0.104285409 -2.7992029 0.862190995 0.0431943065 -3.10789787 0.651723354 0.430353396 -3.33260002 0.693859956 0.848364953 -1.96440548 0.695660787 -0.698810354 -2.63754786 0.568656678 0.00820429976 -2.76039309 0.713783457 -0.104285409 -3.10789787 0.651723354 0.430353396 -2.90971144 0.56630051 0.327907261 -3.33260002 0.693859956 0.848364953 -3.33260002 0.693859956 0.848364953 -2.90971144 0.56630051 0.327907261 -2.62043076 0.661471131 0.158138731 -2.63754786 0.568656678 0.00820429976 -1.96440548 0.695660787 -0.698810354 -3.33260002 0.693859956 0.848364953 -2.62043076 0.661471131 0.158138731 -2.69726137 0.823537458 0.211867855 -1.96440548 0.695660787 -0.698810354 3.01855889 0.0013762305 0.64322856 2.2406101 0.258231556 0.0715085206 2.23933695 0.227791441 0.27918537 1.34043887 0.373513945 -0.482662886 3.01855889 0.0013762305 0.64322856 2.51457722 0.0791425405 0.172750778 2.2406101 0.258231556 0.0715085206 2.18428039 0.152661043 -0.0735735372 1.34043887 0.373513945 -0.482662886 1.34043887 0.373513945 -0.482662886 2.18428039 0.152661043 -0.0735735372 2.09396863 -0.0145736476 0.0668296887 2.64695943 -0.0325303323 0.350379717 2.51457722 0.0791425405 0.172750778 3.01855889 0.0013762305 0.64322856 1.34043887 0.373513945 -0.482662886 2.09396863 -0.0145736476 0.0668296887 2.14803171 0.0418175277 0.2854445 2.64695943 -0.0325303323 0.350379717 3.01855889 0.0013762305 0.64322856 3.01855889 0.0013762305 0.64322856 2.23933695 0.227791441 0.27918537 2.14803171 0.0418175277 0.2854445 1.34043887 0.373513945 -0.482662886 -4.02560782 -1.00536605 0.580046504 -3.53429402 -0.620794548 0.144478966 -3.5684127 -0.662121962 -0.00779899988 -2.78399431 -0.352631278 -0.434625686 -2.78399431 -0.352631278 -0.434625686 -3.43247334 -0.737987532 -0.084693808 -3.5684127 -0.662121962 -0.00779899988 -3.75632744 -0.932635133 0.295819224 -4.02560782 -1.00536605 0.580046504 -2.78399431 -0.352631278 -0.434625686 -3.31850702 -0.752063816 0.0498590116 -3.43247334 -0.737987532 -0.084693808 -3.75632744 -0.932635133 0.295819224 -3.56776602 -0.88243321 0.261357814 -4.02560782 -1.00536605 0.580046504 -4.02560782 -1.00536605 0.580046504 -3.56776602 -0.88243321 0.261357814 -3.39439953 -0.679073683 0.148059037 -3.31850702 -0.752063816 0.0498590116 -2.78399431 -0.352631278 -0.434625686 -4.02560782 -1.00536605 0.580046504 -3.39439953 -0.679073683 0.148059037 -3.53429402 -0.620794548 0.144478966 -2.78399431 -0.352631278 -0.434625686 0.0846959413 -2.47022099 0.418967635 0.0594959436 -2.10809949 0.124521118 -0.0250720649 -2.05880943 0.149337462 -0.0845197848 -1.73182287 -0.32710933 -0.0845197848 -1.73182287 -0.32710933 -0.094738296 -2.05710547 0.0668742121 -0.0250720649 -2.05880943 0.149337462 -0.0109167175 -2.31157959 0.258711975 0.0846959413 -2.47022099 0.418967635 -0.0845197848 -1.73182287 -0.32710933 -0.0439624176 -2.12225094 -0.0070324579 -0.094738296 -2.05710547 0.0668742121 -0.0109167175 -2.31157959 0.258711975 -0.00603663976 -2.2645537 0.149539628 0.0846959413 -2.47022099 0.418967635 0.0846959413 -2.47022099 0.418967635 -0.00603663976 -2.2645537 0.149539628 0.0328244664 -2.13435722 0.0376753029 -0.0439624176 -2.12225094 -0.0070324579 -0.0845197848 -1.73182287 -0.32710933 0.0846959413 -2.47022099 0.418967635 0.0328244664 -2.13435722 0.0376753029 0.0594959436 -2.10809949 0.124521118 -0.0845197848 -1.73182287 -0.32710933 0.320090267 2.85952288 0.44692008 0.272490148 2.56563668 0.0893807017 0.182852198 2.6188502 0.0380983898 0.0595088286 2.11331299 -0.277779028 0.0595088286 2.11331299 -0.277779028 0.0869866157 2.53650376 0.0388205463 0.182852198 2.6188502 0.0380983898 0.194932126 2.71155201 0.2909213 0.320090267 2.85952288 0.44692008 0.0595088286 2.11331299 -0.277779028 0.126924591 2.43046772 0.107687808 0.0869866157 2.53650376 0.0388205463 0.194932126 2.71155201 0.2909213 0.185627245 2.5882219 0.246942733 0.320090267 2.85952288 0.44692008 0.320090267 2.85952288 0.44692008 0.185627245 2.5882219 0.246942733 0.223389674 2.46554592 0.11883959 0.126924591 2.43046772 0.107687808 0.0595088286 2.11331299 -0.277779028 0.320090267 2.85952288 0.44692008 0.223389674 2.46554592 0.11883959 0.272490148 2.56563668 0.0893807017 0.0595088286 2.11331299 -0.277779028 2.06042811 0.00343738065 1.14658987 1.37967906 0.00353670214 0.383329636 1.43076025 0.217449189 0.291438755 0.277574526 0.247034724 -0.384901318 0.277574526 0.247034724 -0.384901318 1.20690081 0.362483942 0.302371775 1.43076025 0.217449189 0.291438755 1.66324074 0.198718074 0.827788714 2.06042811 0.00343738065 1.14658987 0.277574526 0.247034724 -0.384901318 1.02132871 0.215368238 0.435629289 1.20690081 0.362483942 0.302371775 1.66324074 0.198718074 0.827788714 1.39836507 0.159186777 0.729461383 2.06042811 0.00343738065 1.14658987 2.06042811 0.00343738065 1.14658987 1.39836507 0.159186777 0.729461383 1.15003335 0.0419498592 0.446950003 1.02132871 0.215368238 0.435629289 0.277574526 0.247034724 -0.384901318 2.06042811 0.00343738065 1.14658987 1.15003335 0.0419498592 0.446950003 1.37967906 0.00353670214 0.383329636 0.277574526 0.247034724 -0.384901318 -0.0482179476 -0.815332055 1.04814072 -0.0149498952 -0.0763728627 0.158508115 -0.417423251 0.103675514 0.228443499 -0.410708299 0.327455746 -1.19826112 -0.410708299 0.327455746 -1.19826112 -0.674545843 -0.0979033351 -0.0164286478 -0.417423251 0.103675514 0.228443499 -0.391615017 -0.606410715 0.564915916 -0.417423251 0.103675514 0.228443499 -0.674545843 -0.0979033351 -0.0164286478 -0.0482179476 -0.815332055 1.04814072 -0.410708299 0.327455746 -1.19826112 -0.388347626 -0.455759384 -0.231195927 -0.674545843 -0.0979033351 -0.0164286478 -0.391615017 -0.606410715 0.564915916 -0.303245142 -0.647149671 0.239626328 -0.0482179476 -0.815332055 1.04814072 -0.0482179476 -0.815332055 1.04814072 -0.303245142 -0.647149671 0.239626328 -0.0725600699 -0.363797431 -0.0974130209 -0.388347626 -0.455759384 -0.231195927 -0.410708299 0.327455746 -1.19826112 -0.0482179476 -0.815332055 1.04814072 -0.0725600699 -0.363797431 -0.0974130209 -0.0149498952 -0.0763728627 0.158508115 -0.410708299 0.327455746 -1.19826112 -2.37026991 0.579324026 1.75385077 -1.44387173 0.241832396 0.243316876 -1.1385514 0.478027137 0.252571823 -0.500220639 0.334895983 -1.89168023 -0.500220639 0.334895983 -1.89168023 -1.13967583 0.737658887 -0.0703286322 -1.1385514 0.478027137 0.252571823 -1.89272663 0.739577088 0.954338639 -2.37026991 0.579324026 1.75385077 -0.500220639 0.334895983 -1.89168023 -1.51310148 0.650328882 -0.249801403 -1.13967583 0.737658887 -0.0703286322 -1.89272663 0.739577088 0.954338639 -1.86540119 0.676537079 0.501006144 -2.37026991 0.579324026 1.75385077 -2.37026991 0.579324026 1.75385077 -1.86540119 0.676537079 0.501006144 -1.60055151 0.383978197 -0.0507544912 -1.51310148 0.650328882 -0.249801403 -0.500220639 0.334895983 -1.89168023 -2.37026991 0.579324026 1.75385077 -1.60055151 0.383978197 -0.0507544912 -1.44387173 0.241832396 0.243316876 -0.500220639 0.334895983 -1.89168023 -0.934305369 1.13324085 3.787155 -0.432616336 0.528762693 0.498735763 -0.502891681 0.741507783 0.231532995 -0.234706925 -0.325708762 -3.79856903 -0.234706925 -0.325708762 -3.79856903 -0.688910664 0.618440188 -0.280197693 -0.502891681 0.741507783 0.231532995 -0.909312563 0.905999364 2.06365622 -0.934305369 1.13324085 3.787155 -0.234706925 -0.325708762 -3.79856903 -0.745967362 0.313700852 -0.219436166 -0.688910664 0.618440188 -0.280197693 -0.909312563 0.905999364 2.06365622 -0.884819954 0.599273708 1.3245364 -0.934305369 1.13324085 3.787155 -0.934305369 1.13324085 3.787155 -0.884819954 0.599273708 1.3245364 -0.584363229 0.318705499 0.176856235 -0.745967362 0.313700852 -0.219436166 -0.234706925 -0.325708762 -3.79856903 -0.934305369 1.13324085 3.787155 -0.584363229 0.318705499 0.176856235 -0.432616336 0.528762693 0.498735763 -0.234706925 -0.325708762 -3.79856903</float_array>
        <technique_common><accessor source="#vfx_kurp_0720-mesh-positions-array" count="808" stride="3"><param name="X" type="float"/><param name="Y" type="float"/><param name="Z" type="float"/></accessor></technique_common>
      </source>
      <source id="vfx_kurp_0720-mesh-normals">
        <float_array id="vfx_kurp_0720-mesh-normals-array" count="2424">-0.168607207 0.879609356 0.444813434 -0.168538856 0.911389257 0.375452097 -0.167863205 0.931366442 0.323076607 -0.166168646 0.953205131 0.252562784 -0.94827128 0.123139095 0.292606122 -0.94270928 0.042345379 0.330917031 -0.898308811 -0.149287807 0.413224432 -0.867341333 -0.183280576 0.462738849 -0.866980118 -0.179731333 0.464803317 -0.332149275 -0.917085993 -0.220522425 -0.311535754 -0.933911087 -0.175372618 -0.314382485 -0.932930951 -0.175509243 0.0300846386 -0.983264688 -0.179681575 -0.193807368 -0.968225015 -0.158047539 0.0770264665 -0.979806521 -0.184515868 0.865381627 -0.30922211 -0.394330225 0.860565852 -0.317756575 -0.398066796 0.8197859 -0.364104495 -0.442016963 0.816553762 -0.327955919 -0.475063016 0.816407704 -0.305752208 -0.489891875 0.840882572 0.520789466 -0.147291655 0.790318649 0.583672922 -0.18633935 0.822199234 0.545517269 -0.162478704 0.768835414 0.606971413 -0.201190976 0.59585177 -0.793341297 0.124780828 0.633525485 -0.773436482 0.0210111258 0.610088067 -0.787418612 0.0881162901 0.64519751 -0.763835204 -0.0166118782 -0.221915972 -0.907707182 0.356119323 -0.233756688 -0.905499583 0.354158603 -0.296304182 -0.901531706 0.315348085 -0.281451021 -0.92094759 0.269519682 -0.266652476 -0.932548594 0.243412358 -0.977620273 0.194748026 0.0795726616 -0.971066567 0.196633803 0.135517044 -0.968380367 0.200602435 0.14831766 -0.923050505 -0.0900518244 0.373989885 -0.962162929 0.102002612 0.252661759 -0.906458892 -0.137577998 0.399255021 0.00658909523 0.918637354 -0.395046827 -0.0556969624 0.94772804 -0.314180538 -0.188934814 0.974636014 -0.11995114 -0.199847101 0.97914203 -0.0366335973 -0.194820076 0.980164178 -0.0363774914 0.920275573 0.348044883 -0.178766969 0.913737895 0.306159317 -0.267113333 0.908948766 0.289454781 -0.300046782 0.890967169 0.244921578 -0.382349217 0.552671975 0.480611542 0.680856985 0.558392364 0.563674081 0.608662055 0.558691759 0.60399035 0.568382947 0.554393027 0.673957782 0.488292207 -0.559321463 0.513453602 0.650787907 -0.609168309 0.398623165 0.685575338 -0.662649303 0.208621891 0.719286319 -0.651396764 0.102104418 0.751835716 -0.647083792 0.103533212 0.755356499 -0.898170131 -0.338809247 -0.280176211 -0.884004657 -0.399548505 -0.242686544 -0.886090411 -0.395768345 -0.241269974 -0.669821842 -0.648717059 -0.361254588 -0.807773138 -0.522190723 -0.273531361 -0.619599961 -0.681952889 -0.388633689 0.353288278 -0.534729173 -0.767627581 0.339516474 -0.535932159 -0.77298466 0.276517491 -0.508533614 -0.815433407 0.281216447 -0.466016085 -0.838895892 0.293595467 -0.431693137 -0.852902537 0.934539011 -0.0456853826 -0.352915972 0.928549757 0.0570001026 -0.366805584 0.932874759 0.00439358802 -0.360174098 0.92192146 0.107376367 -0.372197714 0.79292472 -0.070227409 0.605259035 0.866706796 0.0158642735 0.498565598 0.889260247 0.0485043822 0.454822534 0.932451226 0.13039129 0.336946321 0.0635100259 0.806308797 0.588075336 0.0635100725 0.806308797 0.588075331 0.0635100725 0.806308797 0.588075331 -0.304487002 0.48796926 0.818030358 -0.333248861 0.504662541 0.796404995 -0.339510979 0.508231248 0.791475391 -0.298699334 0.484551601 0.82218517 -0.891000687 0.410926555 -0.193021095 -0.930734003 0.339930197 -0.134839446 -0.928400421 0.346559059 -0.134050275 -0.981446582 -0.0138362094 -0.191235891 -0.976747866 0.163232175 -0.138992316 -0.970242783 -0.100478462 -0.220302112 -0.230304274 -0.661012118 -0.714158891 -0.244724676 -0.647699689 -0.721522658 -0.259152996 -0.572436757 -0.777917659 -0.237923489 -0.537635724 -0.808913 -0.198242896 -0.508848118 -0.837719133 0.574888456 -0.710813748 -0.405274079 0.645573564 -0.617773154 -0.44898898 0.61764684 -0.657305813 -0.431811822 0.682670114 -0.558198951 -0.471567011 -0.0729009746 -0.914301297 -0.398420113 -0.106785965 -0.874987009 -0.472222927 -0.120515338 -0.856688933 -0.501557699 -0.152234078 -0.808833643 -0.567990249 0.833060025 -0.302318189 -0.463265266 0.881698895 -0.275654085 -0.382912371 0.964590485 -0.202061982 -0.169517408 0.972481512 -0.212321266 -0.0959134466 0.971390012 -0.21686648 -0.0968006918 0.589595871 0.764286479 0.261233397 0.587904153 0.747063816 0.310264986 0.590023926 0.740379713 0.322039821 0.30279349 0.776551834 0.552524525 0.498918177 0.755023649 0.425464384 0.25601345 0.776560398 0.575683126 -0.730703802 0.493497549 0.471733105 -0.724139852 0.502663166 0.472177103 -0.691902931 0.564231111 0.450459307 -0.71744385 0.566778133 0.405014655 -0.73332033 0.563535696 0.380353537 -0.971339811 -0.226445548 0.0722591551 -0.968003923 -0.248492247 -0.0349286077 -0.971522577 -0.23410682 0.0365770446 -0.964219482 -0.255323377 -0.071349585 0.837245345 -0.165152468 0.521291564 0.881683149 -0.153612007 0.446136947 0.855093499 -0.160868785 0.49288573 0.897150133 -0.148792139 0.415911695 0.345263323 -0.677432057 0.649522168 0.328283606 -0.691739154 0.643215996 0.195557989 -0.795667653 0.573297531 0.202813618 -0.808091325 0.553041632 0.214818608 -0.809293513 0.546714711 -0.861571365 -0.482136963 -0.158867026 -0.882562147 -0.454341373 -0.121070119 -0.880965093 -0.457657168 -0.120209903 -0.847832583 -0.5173872 0.116148162 -0.912939443 -0.393930678 -0.106584212 -0.830488974 -0.534571765 0.156592119 -0.370791734 0.606973142 -0.702920404 -0.44800076 0.601195029 -0.661709797 -0.618115256 0.570477734 -0.540822231 -0.648216935 0.587184917 -0.484797564 -0.645663737 0.590290141 -0.484433574 0.558362713 0.814791622 -0.156031066 0.605566788 0.771667638 -0.194468307 0.638604357 0.736681152 -0.222453041 0.678510819 0.687895275 -0.257726906 -0.731874042 0.67860672 -0.0620750033 -0.672482789 0.696070967 -0.251499716 -0.658114511 0.696267422 -0.286525685 -0.571112039 0.681921112 -0.456962401 -0.764529655 -0.392724753 -0.511137629 -0.764529655 -0.392724753 -0.511137629 -0.764529655 -0.392724753 -0.511137629 -0.815037453 -0.571986306 0.0924425035 -0.795397899 -0.60050936 0.0820407907 -0.789071752 -0.609228493 0.0787807917 -0.820320939 -0.56390397 0.0953198251 0.272556842 -0.962016247 -0.0154113265 0.256119224 -0.961774268 0.0969185289 0.248213917 -0.962791314 0.106877204 0.412666857 -0.801418186 0.43293759 0.324769481 -0.896291862 0.301969672 0.465691711 -0.729531314 0.500914455 0.890260687 0.1957643 0.411232595 0.899054598 0.174222372 0.401680712 0.940239629 0.135010672 0.312604477 0.956749233 0.132381899 0.25904814 0.969031082 0.154038119 0.193005232 0.436952221 0.880624421 0.183230418 0.431754333 0.901504453 0.0296296609 0.435359561 0.894885566 0.0981930547 0.424303092 0.90373723 -0.0567970546 -0.699960587 0.69536161 0.162872364 -0.667735928 0.737250329 0.10291104 -0.642707704 0.763706606 0.060654987 -0.604701332 0.796450369 0.00176288533 -0.891429533 -0.239081791 -0.384958808 -0.883504041 -0.321489127 -0.340683651 -0.83931346 -0.492779431 -0.229611299 -0.835408409 -0.524446636 -0.164464331 -0.837740477 -0.521217258 -0.162860258 0.221684156 -0.928039731 -0.299329906 0.207735174 -0.945796097 -0.249631408 0.211558123 -0.944768575 -0.250310808 0.362737215 -0.930361772 -0.0533730808 0.155385196 -0.966087744 -0.206227817 0.399211609 -0.916606372 -0.0215139349 0.930143467 0.203986355 0.305323924 0.938076494 0.183834984 0.293627639 0.980554953 0.0400619126 0.19211202 0.985033959 0.0439204463 0.166670617 0.985687069 0.0562819034 0.158913027 0.502626922 0.781911285 0.368755907 0.470666403 0.829974345 0.299358854 0.490260404 0.802016508 0.341195337 0.45653753 0.847628603 0.270368702 0.885816321 0.357573976 -0.295753779 0.842520985 0.282617477 -0.458569245 0.830062705 0.266002485 -0.490141392 0.755766241 0.183026755 -0.628743665 -0.135666155 0.817990901 -0.559004097 -0.135666155 0.817990901 -0.559004097 -0.135666155 0.817990901 -0.559004097 -0.171902458 0.984993767 0.0153890573 -0.208165091 0.977998632 0.0136371052 -0.218238124 0.97580702 0.0131446493 -0.162689086 0.986550405 0.0158290632 -0.969022723 0.170280112 0.178884449 -0.941140079 0.192776467 0.277655515 -0.936715829 0.200886378 0.286719581 -0.800960626 0.00361865937 0.598706089 -0.875530287 0.12000611 0.468022702 -0.750520586 -0.0652477757 0.657618109 -0.107104885 -0.849054726 0.517334143 -0.129890834 -0.84819424 0.513512319 -0.198739171 -0.872810718 0.445762484 -0.215539343 -0.892128176 0.397051771 -0.212602866 -0.916984815 0.337548324 0.643129407 -0.756046274 0.121567257 0.636619036 -0.77074782 -0.0257682205 0.641415782 -0.765978142 0.043165747 0.627326001 -0.771660609 -0.104890388 -0.223051941 0.803781323 0.551528255 -0.232085501 0.866027794 0.44286813 -0.228740043 0.84156521 0.489332188 -0.235672855 0.896093147 0.376132128 0.446317173 0.575660787 0.685139139 0.488122919 0.565021152 0.665197048 0.624077031 0.539180326 0.565519615 0.653616234 0.543591166 0.526587564 0.650773779 0.565351314 0.506824802 0.821602799 -0.528526915 -0.213607444 0.794602923 -0.590530483 -0.140996257 0.799209594 -0.584527598 -0.139969684 0.782851168 -0.601766747 0.158179743 0.746972547 -0.662217521 -0.0591605311 0.781551715 -0.571685914 0.24970409 -0.346458582 -0.526265631 -0.776537789 -0.346458582 -0.526265631 -0.776537789 -0.346458582 -0.526265631 -0.776537789 -0.279979702 -0.882878064 -0.377011524 -0.242568219 -0.88925586 -0.38779463 -0.23427143 -0.890475461 -0.390090183 -0.287411963 -0.881437168 -0.374783781 -0.991320807 0.103205272 -0.0814354279 -0.959073886 0.214161919 -0.18523486 -0.940526163 0.255449225 -0.223955868 -0.879416084 0.354813281 -0.317387597 -0.701805446 -0.474681731 0.531174519 -0.751290074 -0.53139888 0.391380192 -0.764940638 -0.549177279 0.336556291 -0.787688045 -0.586042029 0.19000601 0.283897694 -0.940088873 0.188772377 0.283897694 -0.940088873 0.188772377 0.283897694 -0.940088873 0.188772377 0.536306814 -0.631031399 0.560512599 0.566647144 -0.625997465 0.535759449 0.57338185 -0.624724617 0.530049439 0.530019452 -0.631936901 0.565451266 0.954424323 0.0565982225 -0.293037288 0.972498246 0.107468791 -0.206634024 0.972738198 0.100582745 -0.208958154 0.889432565 0.445248114 -0.103265822 0.952293588 0.275416381 -0.131463833 0.844638473 0.527139669 -0.0933253429 -0.090160628 0.930276755 -0.355606833 -0.072494126 0.927275306 -0.367294307 -0.0387893258 0.892015417 -0.450337522 -0.0486644121 0.867753489 -0.494606568 -0.0784841693 0.840374532 -0.536293652 -0.826036801 0.553676187 -0.105384457 -0.863282277 0.467637647 -0.189891393 -0.849802003 0.503519822 -0.155898505 -0.878974614 0.41269612 -0.238925807 -0.283851343 -0.733717109 0.617322946 -0.28573056 -0.779102642 0.557993836 -0.286093253 -0.810295122 0.511441557 -0.285233539 -0.846779975 0.449005013 0.749650609 -0.375163165 0.545230744 0.77139177 -0.292493884 0.565156673 0.797739166 -0.0825957668 0.597319146 0.7761356 -0.0299245597 0.62985558 0.774056522 -0.0324013378 0.632286844 0.710623658 0.644616412 -0.281928534 0.691783541 0.678240355 -0.247841792 0.693908855 0.67634908 -0.24706765 0.406766946 0.843618612 -0.350497203 0.598212846 0.755081897 -0.268314593 0.364913648 0.855889116 -0.366458526 -0.582246413 0.485999591 -0.651761852 -0.573965693 0.490869374 -0.655446902 -0.510927347 0.507020836 -0.694178017 -0.517903931 0.464697527 -0.718214262 -0.524462688 0.441393932 -0.728086729 -0.942427828 -0.201547667 -0.266848884 -0.916686583 -0.285881975 -0.279208173 -0.933532584 -0.233764767 -0.271792106 -0.904832564 -0.317764654 -0.283378996 0.093774493 0.909887743 -0.40411711 0.149378839 0.84435691 -0.514536074 0.163825104 0.82392876 -0.542496759 0.213967971 0.740653463 -0.636906709 -0.756294866 0.211202442 -0.619202393 -0.844940841 0.206675089 -0.493315702 -0.936289405 0.19685606 -0.29087771 -0.961790149 0.222523777 -0.15950824 -0.960041173 0.229454726 -0.160223202 -0.593099276 -0.776882702 0.211391856 -0.604597194 -0.744368836 0.283508853 -0.609846596 -0.736405098 0.292907257 -0.382301317 -0.707592931 0.594270937 -0.529954456 -0.721338053 0.445892013 -0.320113137 -0.696976396 0.641678644 0.671204826 -0.426664722 0.606169364 0.662554009 -0.441632791 0.60496501 0.650053661 -0.511990172 0.561512512 0.671586012 -0.530406173 0.517340816 0.696818774 -0.53510328 0.477606612 0.946391271 0.265227364 0.184385487 0.96431248 0.258511064 0.0572142456 0.956467997 0.262724969 0.127061253 0.967205672 0.253989579 -0.00157532808 0.806918028 0.133496487 0.575379861 0.835340811 0.18280915 0.518446279 0.81620004 0.148726824 0.558299048 0.843108349 0.197967044 0.499977361 0.606630531 -0.56014974 0.56412026 0.599692038 -0.574421642 0.557143821 0.51786552 -0.717971752 0.465114896 0.533404645 -0.715924746 0.450478904 0.541822658 -0.711163801 0.447966801 -0.544297416 -0.777441562 -0.315158596 -0.569050981 -0.771178215 -0.285420991 -0.566806148 -0.772967602 -0.285047149 -0.493949694 -0.865932586 -0.0785777117 -0.620842085 -0.731668969 -0.281452704 -0.475311779 -0.878342479 -0.0509234943 -0.605579984 0.500823558 -0.618424326 -0.653064115 0.459986399 -0.601597685 -0.793691286 0.308233243 -0.524448673 -0.815563998 0.309152086 -0.48916291 -0.814879179 0.312046004 -0.488466187 0.134299978 0.990795593 0.0169590139 0.18300594 0.983091647 -0.00629596808 0.23210848 0.972227518 -0.0299884553 0.278104171 0.959119679 -0.0524167039 -0.468740291 0.850364307 -0.239088025 -0.373533254 0.885945761 -0.27490547 -0.321533252 0.900580891 -0.292524232 -0.223656774 0.919828318 -0.322325165 -0.415837414 -0.035729883 -0.908736827 -0.486339347 -0.131335113 -0.863843231 -0.58417018 -0.274791148 -0.763698256 -0.651372471 -0.317102176 -0.689318586 -0.654137019 -0.312211655 -0.688932974 0.15218984 -0.969569212 -0.19176495 0.0916943905 -0.983329553 -0.157019519 0.0962927449 -0.983303311 -0.154409541 0.0418155025 -0.993612508 0.104812444 0.00900507641 -0.990118416 -0.139944388 0.0468457854 -0.98419761 0.170764567 0.507113302 -0.0110567906 0.861808474 0.520533079 -0.0395877012 0.852923284 0.596234138 -0.180919307 0.782159228 0.621392669 -0.188242688 0.760549697 0.634067249 -0.174713021 0.753282208 0.298452019 0.657817826 0.691521583 0.347247894 0.707104556 0.61597244 0.322408006 0.682483656 0.655949035 0.369711068 0.728435677 0.576797357 0.732791287 -0.00342506963 0.680444854 0.820029361 0.0614672195 0.569011097 0.847996809 0.0857555071 0.523017596 0.905541673 0.145912239 0.398376577 0.0557659107 0.887049549 0.458293859 0.0557659053 0.887049555 0.458293847 0.0557659053 0.887049555 0.458293847 -0.34728912 0.624455277 0.699604084 -0.373137516 0.63858389 0.673037153 -0.378749738 0.641559625 0.667045639 -0.342073886 0.621522969 0.704765674 -0.847626218 0.409423377 -0.337494137 -0.895992786 0.350297761 -0.272925642 -0.893383115 0.356870165 -0.27296574 -0.960594353 -0.00565957895 -0.277896487 -0.950909764 0.177171654 -0.25373377 -0.951597882 -0.0962145517 -0.291897637 -0.20299977 -0.757399662 -0.620593946 -0.215993868 -0.744883221 -0.631265108 -0.221432407 -0.679130484 -0.699821031 -0.195765724 -0.650614447 -0.733741523 -0.152256415 -0.628404938 -0.762840231 0.568675597 -0.788692862 -0.233605726 0.647769905 -0.706724852 -0.284489249 0.616379551 -0.741860133 -0.264045058 0.689825847 -0.653051141 -0.312513212 -0.693686314 0.318076816 0.646240232 -0.765434977 0.311997074 0.562820684 -0.798934556 0.307361584 0.516945289 -0.854484238 0.296041654 0.426867691 -0.421054239 -0.751909858 0.507291725 -0.302359553 -0.775132067 0.554751278 -0.110782493 -0.782629647 0.612550467 -0.016236505 -0.749115615 0.662240267 -0.0192078527 -0.745808569 0.66588335 0.601163865 -0.73788887 -0.306793125 0.650603283 -0.713843865 -0.259118323 0.647378978 -0.716988276 -0.258511646 0.845562663 -0.429782133 -0.316719277 0.750981115 -0.605622114 -0.263152465 0.867177222 -0.369621072 -0.333742309 0.511688966 0.575250483 -0.638170263 0.517229364 0.563063713 -0.644540953 0.513424849 0.501332159 -0.696463202 0.474519868 0.498140977 -0.725731673 0.440176424 0.50314231 -0.743701911 -0.16426283 0.953614849 -0.252262644 -0.258922082 0.923658617 -0.282513921 -0.210704967 0.940273648 -0.267374052 -0.304542818 0.905239501 -0.296302409 -0.84332772 -0.403634398 -0.354792376 -0.805937699 -0.483384261 -0.341766122 -0.8299158 -0.434299401 -0.350176804 -0.789830429 -0.513083499 -0.336025617 -0.499609386 0.230227771 -0.835096183 -0.49140835 0.235421392 -0.838507365 -0.424463817 0.252469453 -0.869534153 -0.421664537 0.20531928 -0.883200437 -0.423415601 0.179667231 -0.887940828 0.670482156 0.671382481 -0.315751869 0.641626504 0.708258935 -0.294422674 0.643771658 0.706950745 -0.292880003 0.364117617 0.79906763 -0.47844465 0.545325477 0.762690216 -0.347740935 0.324952287 0.800648123 -0.503357322 0.67008356 -0.120404566 0.732455297 0.677703545 -0.032988937 0.734594878 0.672470688 0.180267581 0.717834782 0.638975214 0.234684021 0.732553129 0.636775167 0.232506772 0.735158478 -0.308473137 -0.614648035 0.725983551 -0.293578674 -0.671737725 0.680132334 -0.281329506 -0.712103232 0.643243886 -0.264219423 -0.760879819 0.592663477 0.124587172 0.992205497 -0.00250754112 0.223332403 0.973190233 -0.0549855204 0.272006639 0.958866437 -0.0811636904 0.362802714 0.922670266 -0.130590089 -0.409425928 0.43109405 -0.804069854 -0.526638552 0.386542554 -0.75712396 -0.683465323 0.311382627 -0.660239359 -0.761727007 0.297962366 -0.575317647 -0.760914701 0.303513926 -0.573487676 -0.478960698 -0.797605675 -0.366635838 -0.535333899 -0.781349032 -0.320797923 -0.53128272 -0.78477741 -0.319159973 -0.568204607 -0.821023048 -0.0553595472 -0.605850561 -0.743124541 -0.28409684 -0.554057272 -0.83238495 0.012483371 0.453310465 -0.510296385 0.730826396 0.446055385 -0.539530317 0.714101975 0.418800437 -0.674878577 0.607573124 0.432475814 -0.691228062 0.578937334 0.451116924 -0.686223144 0.570606097 0.683101106 0.172681191 0.709615449 0.748631477 0.200143684 0.632054916 0.716610493 0.186566901 0.672058176 0.778365299 0.213077097 0.590546876 -0.428680673 0.366032471 0.825986144 -0.522993944 0.407938245 0.748374053 -0.548761448 0.41883907 0.723487876 -0.629171888 0.450956639 0.633072543 -0.677490342 -0.626999295 0.384550024 -0.569568368 -0.716537141 0.402698896 -0.373652072 -0.827337413 0.419400685 -0.258521214 -0.853107208 0.453183047 -0.259390565 -0.849788009 0.45888656 0.188424445 -0.795810384 -0.575484197 0.253309052 -0.802129534 -0.540761256 0.262394729 -0.805468081 -0.531385149 0.574050876 -0.597023156 -0.560382854 0.41269912 -0.736731293 -0.535636479 0.621646784 -0.54187284 -0.565622755 0.667414693 0.486147867 -0.564108038 0.666299102 0.474627131 -0.575130067 0.6282611 0.443861594 -0.638963908 0.587005897 0.465175299 -0.66259793 0.55329124 0.490002124 -0.673622092 0.252497346 0.967548564 0.00973994805 0.131304051 0.99133839 -0.00272801444 0.200773667 0.979627827 0.00438803996 0.0776961359 0.996943655 -0.00816449261 -0.598682766 0.76447081 -0.239088533 -0.510390273 0.814818067 -0.274905959 -0.461399737 0.837579626 -0.29252462 -0.367860357 0.872229914 -0.322325511 -0.404772064 -0.101764071 -0.908737393 -0.459079172 -0.207412683 -0.863843906 -0.532712463 -0.364667505 -0.763698267 -0.59228418 -0.417179909 -0.689318776 -0.595795155 -0.412794458 -0.688933138 0.30526634 -0.932758499 -0.191765597 0.247749764 -0.956015038 -0.157020068 0.252284466 -0.95525395 -0.154409971 0.20015691 -0.974141517 0.104811808 0.16721026 -0.975938704 -0.139944186 0.20361696 -0.964043498 0.17076378 0.502354861 0.0701731858 0.861809328 0.520164264 0.0441550103 0.852924073 0.617491037 -0.0832543371 0.782159533 0.643497037 -0.0864606768 0.760549877 0.653845147 -0.0710783574 0.753282411 0.189422836 0.697078729 0.691520235 0.22970997 0.753534203 0.6159704 0.209126529 0.725257866 0.6559475 0.248473221 0.778182761 0.576795153 0.568676044 -0.788692811 -0.23360481 0.647770393 -0.706724671 -0.284488589 0.616380156 -0.741859877 -0.264044365 0.689826386 -0.653050795 -0.312512745 -0.202999748 -0.757400174 -0.620593328 -0.215994181 -0.744883409 -0.631264779 -0.221434031 -0.679129601 -0.699821374 -0.195767526 -0.650613304 -0.733742055 -0.15225835 -0.62840399 -0.762840626 -0.847626205 0.409423499 -0.337494022 -0.895992745 0.350297923 -0.27292557 -0.893383076 0.356870287 -0.272965708 -0.960594543 -0.00565928633 -0.277895839 -0.950909729 0.177172614 -0.253733229 -0.951598109 -0.0962145179 -0.291896909 0.0557658397 0.887049681 0.458293612 0.0557658397 0.887049681 0.458293612 0.0557657935 0.887049679 0.458293622 -0.347289182 0.624455459 0.699603891 -0.373137382 0.638583943 0.673037178 -0.378749517 0.641559661 0.667045729 -0.342073999 0.621523161 0.70476545 0.732791599 -0.00342534984 0.680444516 0.820029608 0.061466816 0.569010784 0.847997118 0.085755092 0.523017163 0.905541951 0.145911757 0.39837612 -0.214595171 -0.736150724 0.641896428 -0.201828635 -0.784496211 0.586370955 -0.191511892 -0.817889142 0.542568473 -0.177312135 -0.857178208 0.483534824 0.740026181 -0.197092637 0.643051899 0.744364301 -0.110802319 0.658516995 0.729188203 0.101860835 0.676689689 0.695103031 0.151429962 0.702780721 0.693244386 0.148757514 0.705183255 0.610957325 0.747515072 -0.260676742 0.582798825 0.779003263 -0.231299473 0.585128968 0.777587532 -0.230177587 0.285898193 0.882378378 -0.373725329 0.479855632 0.835834292 -0.266682599 0.244538175 0.885721333 -0.394586874 -0.584383462 0.33060222 -0.741079038 -0.576749303 0.336698112 -0.744308151 -0.513731812 0.361956511 -0.777860598 -0.510371398 0.317738619 -0.799101499 -0.511547581 0.293085134 -0.80772531 -0.856323257 -0.388033958 -0.34079338 -0.814764865 -0.466712571 -0.344002312 -0.841340446 -0.418277433 -0.342330604 -0.797033242 -0.49603433 -0.344511183 0.397269827 0.772088731 -0.496039994 0.405594094 0.684978897 -0.605225034 0.406478688 0.659283394 -0.632550775 0.404903634 0.558951438 -0.723620299 -0.683890812 0.480039602 -0.549413631 -0.748310842 0.517757039 -0.414678831 -0.806668651 0.554897837 -0.20340619 -0.801034282 0.594145599 -0.0730416692 -0.796744545 0.599694613 -0.074595585 -0.821342143 -0.452207628 0.347714461 -0.808522773 -0.414945763 0.41726603 -0.808730971 -0.405147613 0.426391403 -0.549534771 -0.460913996 0.696828403 -0.709157714 -0.418305639 0.567552402 -0.482447424 -0.475084086 0.735893738 0.517874848 -0.641255209 0.566213209 0.503824852 -0.651332396 0.567385785 0.457972497 -0.711901319 0.532407461 0.463820294 -0.739362061 0.488072205 0.479188753 -0.755699962 0.446425477 0.98825073 -0.143240481 0.0533166028 0.984032486 -0.161945711 -0.0738488581 0.988367829 -0.152022249 -0.0042744066 0.976636808 -0.169648292 -0.131909068 0.015494721 0.976614639 0.214438246 0.112953439 0.981184447 0.15658417 0.161516813 0.97870731 0.126666178 0.253108838 0.965032558 0.0681768113 -0.49393104 0.544498474 -0.677903783 -0.603078673 0.477368382 -0.639073972 -0.745704691 0.365073498 -0.557356129 -0.817660324 0.324424381 -0.475584289 -0.817366276 0.329501384 -0.472589894 -0.407103179 -0.749373808 -0.522212502 -0.462529688 -0.750201436 -0.4725083 -0.458052338 -0.753404398 -0.471773112 -0.477468121 -0.850210567 -0.221734494 -0.534851486 -0.729414221 -0.426484211 -0.458767369 -0.874309602 -0.158477823 0.542434596 -0.600171869 0.587842187 0.537573345 -0.625714909 0.565239552 0.519889739 -0.736905339 0.432070805 0.533804262 -0.744917828 0.400188006 0.551345767 -0.736069474 0.392708002 0.695110518 0.0932072629 0.712835026 0.753268677 0.144370438 0.641672406 0.724972962 0.118759711 0.678461742 0.779287512 0.169416093 0.603331717 0.213994815 0.96631861 0.14294951 0.0913245877 0.985212883 0.144966876 0.161561602 0.976286927 0.144089159 0.037263937 0.98870801 0.145147754 0.591914383 0.603437572 -0.534322431 0.59022479 0.593736174 -0.546911377 0.547610357 0.571315939 -0.61132724 0.50351379 0.593809112 -0.62758633 0.467962296 0.618203789 -0.631534135 0.164831917 -0.684893887 -0.709754044 0.232884802 -0.69305996 -0.68222618 0.242933758 -0.697328094 -0.674326863 0.542046065 -0.470461592 -0.696313115 0.38935198 -0.620792103 -0.680457346 0.586732021 -0.412691055 -0.696729236 -0.613225886 -0.714861338 0.336046543 -0.500634852 -0.800201236 0.330216182 -0.299806146 -0.901553501 0.311957625 -0.181089452 -0.926053971 0.3311052 -0.181550213 -0.923717544 0.337320943 -0.363427497 0.208982913 0.907880277 -0.466179816 0.257361691 0.846428579 -0.494576852 0.27061354 0.825931019 -0.584313236 0.312085117 0.749120098 -0.648104413 0.759119777 -0.0608098177 -0.565610713 0.819115293 -0.0955754068 -0.519422625 0.846949152 -0.113478061 -0.430526903 0.890805841 -0.145298105 -0.483869277 0.0197678812 -0.874916998 -0.529524907 -0.0943594858 -0.843030047 -0.587193757 -0.269050741 -0.763423336 -0.637414991 -0.335658379 -0.693567287 -0.641044362 -0.331582021 -0.692181688 0.322440966 -0.873597201 -0.36449932 0.269396472 -0.905051961 -0.329099512 0.274122144 -0.904465118 -0.32680254 0.24731493 -0.966371191 -0.0704417994 0.191661907 -0.931698971 -0.308549413 0.256543053 -0.966523365 -0.00427163032 0.577789675 -0.0383490571 0.81528427 0.595698256 -0.0616650292 0.800837694 0.690902818 -0.171042055 0.702422887 0.714874077 -0.169431922 0.678415712 0.723881285 -0.152569768 0.672843482 0.225826823 0.589711887 0.77539805 0.256598021 0.659354879 0.706688474 0.240983134 0.624117873 0.743238865 0.270620056 0.690790754 0.67050199 0.516871231 0.561439174 0.646243132 0.533259765 0.631557673 0.562822289 0.539202083 0.664848408 0.516950392 0.54560103 0.72117992 0.426871221 -0.584993275 0.632805331 0.507287179 -0.643758596 0.527094615 0.554748715 -0.710088804 0.347214282 0.612548882 -0.70743235 0.246936669 0.66223995 -0.703368959 0.248740586 0.665883044 -0.887544606 -0.343713942 -0.306798465 -0.879954359 -0.398164656 -0.259123971 -0.88194837 -0.394127249 -0.258516507 -0.670041046 -0.671365572 -0.316722695 -0.808047688 -0.527074261 -0.263157095 -0.619502986 -0.710513897 -0.33374549 0.388972149 -0.664411692 -0.63816751 0.375669756 -0.665914899 -0.64453827 0.3181353 -0.643219249 -0.696461721 0.327121437 -0.605233506 -0.725729956 0.342490719 -0.57411587 -0.743700931 0.957701962 -0.138467731 -0.252257088 0.9584639 -0.0391838717 -0.282509426 0.959365503 -0.0901751462 -0.267369174 0.955044078 0.00989665222 -0.296298609 0.636125335 0.552376472 -0.538725154 0.62948915 0.44975443 -0.633612155 0.625606276 0.420673567 -0.65700117 0.604281881 0.31093967 -0.733593846 -0.474846148 0.546755653 -0.689622644 -0.537741774 0.621024119 -0.570230504 -0.601599375 0.70544215 -0.374739331 -0.596631414 0.762257326 -0.250987499 -0.590859859 0.766176947 -0.252700441 -0.941046011 -0.161335536 0.297326841 -0.924498567 -0.118031693 0.362451265 -0.922782708 -0.107184382 0.37011293 -0.713380925 -0.184288053 0.676110619 -0.843276657 -0.122956025 0.523226811 -0.656438482 -0.208954324 0.724863166 0.269992785 -0.654420473 0.706284461 0.253661188 -0.660176125 0.706981956 0.196075976 -0.71154206 0.674731138 0.197925522 -0.746320881 0.635476695 0.21172589 -0.772551965 0.5986114 0.901947398 -0.384726255 0.196154529 0.90372602 -0.4218354 0.0730354407 0.90460815 -0.402355084 0.140692864 0.899532964 -0.43655901 0.0160211736 0.676903334 -0.421009176 -0.603782369 0.580517015 -0.434453063 -0.688658501 0.550703451 -0.437001765 -0.711164655 0.44559237 -0.441061586 -0.779045645 0.394019327 0.656641984 -0.643094141 0.443152098 0.723862724 -0.528809015 0.50707616 0.798080406 -0.325486456 0.560776827 0.799525782 -0.21514617 0.565598897 0.795515823 -0.217376318 -0.388192822 0.837674284 0.38419803 -0.344167551 0.827984324 0.44270832 -0.333161661 0.828294823 0.450478627 -0.355868752 0.580462696 0.732407325 -0.328829401 0.738185816 0.589027102 -0.364388159 0.520026767 0.772524065 -0.544421049 -0.489045158 0.681498756 -0.553197131 -0.475878315 0.68374905 -0.615016807 -0.429647492 0.661178765 -0.647684462 -0.440086033 0.621955883 -0.667669511 -0.457164028 0.587552956 -0.132043915 -0.984238238 0.11764138 -0.165486652 -0.986210231 -0.00188384788 -0.146699194 -0.986951423 0.0663794752 -0.179304605 -0.982303865 -0.0541200084 0.412733892 0.693019139 0.591079696 0.431178619 0.807446017 0.402636223 0.432582575 0.832924374 0.345122155 0.424693174 0.894093903 0.142238533 -0.676488308 0.728038742 0.111009722 -0.676488298 0.728038752 0.111009722 -0.676488293 0.728038752 0.111009749 -0.731704751 0.269975832 0.625876352 -0.75563111 0.257845045 0.602110918 -0.763902668 0.253453002 0.593476445 -0.724230195 0.27360191 0.632955464 -0.822989487 -0.450597707 -0.345904627 -0.818364804 -0.527170475 -0.228845664 -0.822950311 -0.517555872 -0.234283385 -0.599778182 -0.798198619 -0.056081168 -0.708815895 -0.697503936 -0.105205924 -0.493492325 -0.869385476 -0.0251837172 0.505566191 -0.798964986 -0.32566513 0.482984693 -0.804475224 -0.34575338 0.444568972 -0.770505409 -0.45681489 0.431933737 -0.746141674 -0.506661473 0.44305811 -0.691632273 -0.570389612 0.988424287 -0.132805124 -0.0733500386 0.981438303 -0.0277548849 -0.189759118 0.986200257 -0.0604297346 -0.154134032 0.962545762 0.0451095495 -0.267340202 0.527583266 -0.700801083 0.480139291 0.55822333 -0.736559962 0.381924254 0.571620127 -0.751792869 0.328721634 0.591475623 -0.773501394 0.227710738 0.914768716 0.316378739 0.251202487 0.855485068 0.405005326 0.322670086 0.734909862 0.527169357 0.426614538 0.661204838 0.55640588 0.503210352 0.662579181 0.551883489 0.506372831 -0.105078793 0.962591068 -0.249753646 -0.141050682 0.971970693 -0.188089547 -0.13666046 0.972452145 -0.188840524 -0.472112179 0.869175092 -0.147121549 -0.280412209 0.94828089 -0.148769444 -0.52847086 0.835933792 -0.148098767 -0.918059498 -0.116347411 -0.378985538 -0.916952153 -0.103219915 -0.38541458 -0.893819275 -0.0544882384 -0.445104634 -0.872071807 -0.0750653766 -0.483586551 -0.855286312 -0.0992417431 -0.508563075 -0.520414626 -0.843863491 -0.130625514 -0.441734277 -0.87709591 -0.18860963 -0.482957001 -0.861102952 -0.158915834 -0.4015104 -0.889956333 -0.216257077 0.918483826 0.38947494 0.0685327105 0.930580828 0.363364215 0.0445619879 0.946346718 0.323046064 0.00831441083 0.954887443 0.296589059 -0.0149967128 0.0546319803 0.966129992 -0.252206631 0.0115608423 0.971249936 -0.237781221 -0.206737914 0.965860215 -0.156120082 -0.199231508 0.971105155 -0.131383352 -0.197135035 0.971589824 -0.130961793 -0.974751567 0.149418925 -0.165931815 -0.977739286 0.157340984 -0.138815354 -0.97797493 0.155302782 -0.139449211 -0.998974113 -0.0423387595 -0.0160670791 -0.967469716 0.220709528 -0.123651332 -0.997824003 -0.0656772431 -0.00581021069 -0.111106136 -0.971699468 0.208459999 -0.123024156 -0.970965608 0.205160535 -0.307590513 -0.940428421 0.144853239 -0.292413097 -0.947248466 0.131205655 -0.286270122 -0.949462151 0.128728557 0.584233803 -0.777692803 0.232087847 0.637117166 -0.74760743 0.187522927 0.596547934 -0.771242016 0.222072767 0.648872588 -0.740017282 0.177027642</float_array>
        <technique_common><accessor source="#vfx_kurp_0720-mesh-normals-array" count="808" stride="3"><param name="X" type="float"/><param name="Y" type="float"/><param name="Z" type="float"/></accessor></technique_common>
      </source>
      <source id="vfx_kurp_0720-mesh-uv0">
        <float_array id="vfx_kurp_0720-mesh-uv0-array" count="1616">1.43876529 1.89931273 1.97989845 0.237428904 1.4461236 0.237428904 1.94612372 -0.762571096 1.34612358 -0.762571096 0.846123695 0.237428904 1.4461236 0.237428904 0.846123695 0.987429082 0.838765323 1.89931273 0.746123612 -0.762571096 0.246123731 0.237428904 0.846123695 0.237428904 0.546123624 0.987429082 0.246123731 0.987429082 0.238765359 1.89931273 -0.361234605 1.89931273 -0.0930626988 0.791496575 -0.353876233 0.237428904 0.246123731 0.237428904 0.146123737 -0.762571096 -0.961234748 1.89931273 -0.353876233 0.237428904 -0.953876376 0.237428904 -0.453876257 -0.762571096 -0.961234748 1.89931273 -0.353876233 0.237428904 -0.953876376 0.237428904 -0.453876257 -0.762571096 -0.361234605 1.89931273 -0.0930626988 0.791496575 -0.353876233 0.237428904 0.246123731 0.237428904 0.146123737 -0.762571096 0.746123612 -0.762571096 0.246123731 0.237428904 0.846123695 0.237428904 0.546123624 0.987429082 0.246123731 0.987429082 0.238765359 1.89931273 1.34612358 -0.762571096 0.846123695 0.237428904 1.4461236 0.237428904 0.846123695 0.987429082 0.838765323 1.89931273 1.43876529 1.89931273 1.97989845 0.237428904 1.4461236 0.237428904 1.94612372 -0.762571096 1.43876529 1.89931273 1.97989845 0.237428904 1.4461236 0.237428904 1.94612372 -0.762571096 1.34612358 -0.762571096 0.846123695 0.237428904 1.4461236 0.237428904 0.846123695 0.987429082 0.838765323 1.89931273 0.746123612 -0.762571096 0.246123731 0.237428904 0.846123695 0.237428904 0.546123624 0.987429082 0.246123731 0.987429082 0.238765359 1.89931273 -0.361234605 1.89931273 -0.0930626988 0.791496575 -0.353876233 0.237428904 0.246123731 0.237428904 0.146123737 -0.762571096 -0.961234748 1.89931273 -0.353876233 0.237428904 -0.953876376 0.237428904 -0.453876257 -0.762571096 1.43876529 1.89931273 1.97989845 0.237428904 1.4461236 0.237428904 1.94612372 -0.762571096 1.34612358 -0.762571096 0.846123695 0.237428904 1.4461236 0.237428904 0.846123695 0.987429082 1.4461236 0.237428904 0.846123695 0.237428904 0.838765323 1.89931273 0.746123612 -0.762571096 0.246123731 0.237428904 0.846123695 0.237428904 0.546123624 0.987429082 0.246123731 0.987429082 0.238765359 1.89931273 -0.361234605 1.89931273 -0.0930626988 0.791496575 -0.353876233 0.237428904 0.246123731 0.237428904 0.146123737 -0.762571096 -0.961234748 1.89931273 -0.353876233 0.237428904 -0.953876376 0.237428904 -0.453876257 -0.762571096 1.43876529 1.89931273 1.97989845 0.237428904 1.4461236 0.237428904 1.94612372 -0.762571096 1.34612358 -0.762571096 0.846123695 0.237428904 1.4461236 0.237428904 0.846123695 0.987429082 0.838765323 1.89931273 0.746123612 -0.762571096 0.246123731 0.237428904 0.846123695 0.237428904 0.546123624 0.987429082 0.246123731 0.987429082 0.238765359 1.89931273 -0.361234605 1.89931273 -0.0930626988 0.791496575 -0.353876233 0.237428904 0.246123731 0.237428904 0.146123737 -0.762571096 -0.961234748 1.89931273 -0.353876233 0.237428904 -0.953876376 0.237428904 -0.453876257 -0.762571096 -0.961234748 1.89931273 -0.353876233 0.237428904 -0.953876376 0.237428904 -0.453876257 -0.762571096 -0.361234605 1.89931273 -0.0930626988 0.791496575 -0.353876233 0.237428904 0.246123731 0.237428904 0.146123737 -0.762571096 0.746123612 -0.762571096 0.246123731 0.237428904 0.846123695 0.237428904 0.546123624 0.987429082 0.246123731 0.987429082 0.238765359 1.89931273 1.34612358 -0.762571096 0.846123695 0.237428904 1.4461236 0.237428904 0.846123695 0.987429082 0.838765323 1.89931273 1.43876529 1.89931273 1.97989845 0.237428904 1.4461236 0.237428904 1.94612372 -0.762571096 1.43876529 1.89931273 1.97989845 0.237428904 1.4461236 0.237428904 1.94612372 -0.762571096 1.34612358 -0.762571096 0.846123695 0.237428904 1.4461236 0.237428904 0.846123695 0.987429082 1.4461236 0.237428904 0.846123695 0.237428904 0.838765323 1.89931273 0.746123612 -0.762571096 0.246123731 0.237428904 0.846123695 0.237428904 0.546123624 0.987429082 0.246123731 0.987429082 0.238765359 1.89931273 -0.361234605 1.89931273 -0.0930626988 0.791496575 -0.353876233 0.237428904 0.246123731 0.237428904 0.146123737 -0.762571096 -0.961234748 1.89931273 -0.353876233 0.237428904 -0.953876376 0.237428904 -0.453876257 -0.762571096 1.43876529 1.89931273 1.97989845 0.237428904 1.4461236 0.237428904 1.94612372 -0.762571096 1.34612358 -0.762571096 0.846123695 0.237428904 1.4461236 0.237428904 0.846123695 0.987429082 0.838765323 1.89931273 0.746123612 -0.762571096 0.246123731 0.237428904 0.846123695 0.237428904 0.546123624 0.987429082 0.246123731 0.987429082 0.238765359 1.89931273 -0.361234605 1.89931273 -0.0930626988 0.791496575 -0.353876233 0.237428904 0.246123731 0.237428904 0.146123737 -0.762571096 -0.961234748 1.89931273 -0.353876233 0.237428904 -0.953876376 0.237428904 -0.453876257 -0.762571096 1.43876529 1.89931273 1.97989845 0.237428904 1.4461236 0.237428904 1.94612372 -0.762571096 1.34612358 -0.762571096 0.846123695 0.237428904 1.4461236 0.237428904 0.846123695 0.987429082 1.4461236 0.237428904 0.846123695 0.237428904 0.838765323 1.89931273 0.746123612 -0.762571096 0.246123731 0.237428904 0.846123695 0.237428904 0.546123624 0.987429082 0.246123731 0.987429082 0.238765359 1.89931273 -0.361234605 1.89931273 -0.0930626988 0.791496575 -0.353876233 0.237428904 0.246123731 0.237428904 0.146123737 -0.762571096 -0.961234748 1.89931273 -0.353876233 0.237428904 -0.953876376 0.237428904 -0.453876257 -0.762571096 -0.961234748 1.89931273 -0.353876233 0.237428904 -0.953876376 0.237428904 -0.453876257 -0.762571096 -0.361234605 1.89931273 -0.0930626988 0.791496575 -0.353876233 0.237428904 0.246123731 0.237428904 0.146123737 -0.762571096 0.746123612 -0.762571096 0.246123731 0.237428904 0.846123695 0.237428904 0.546123624 0.987429082 0.246123731 0.987429082 0.238765359 1.89931273 1.34612358 -0.762571096 0.846123695 0.237428904 1.4461236 0.237428904 0.846123695 0.987429082 1.4461236 0.237428904 0.846123695 0.237428904 0.838765323 1.89931273 1.43876529 1.89931273 1.97989845 0.237428904 1.4461236 0.237428904 1.94612372 -0.762571096 1.43876529 1.89931273 1.97989845 0.237428904 1.4461236 0.237428904 1.94612372 -0.762571096 1.34612358 -0.762571096 0.846123695 0.237428904 1.4461236 0.237428904 0.846123695 0.987429082 1.4461236 0.237428904 0.846123695 0.237428904 0.838765323 1.89931273 0.746123612 -0.762571096 0.246123731 0.237428904 0.846123695 0.237428904 0.546123624 0.987429082 0.246123731 0.987429082 0.238765359 1.89931273 -0.361234605 1.89931273 -0.0930626988 0.791496575 -0.353876233 0.237428904 0.246123731 0.237428904 0.146123737 -0.762571096 -0.961234748 1.89931273 -0.353876233 0.237428904 -0.953876376 0.237428904 -0.453876257 -0.762571096 1.43876529 1.89931273 1.97989845 0.237428904 1.4461236 0.237428904 1.94612372 -0.762571096 1.34612358 -0.762571096 0.846123695 0.237428904 1.4461236 0.237428904 0.846123695 0.987429082 0.838765323 1.89931273 0.746123612 -0.762571096 0.246123731 0.237428904 0.846123695 0.237428904 0.546123624 0.987429082 0.246123731 0.987429082 0.238765359 1.89931273 -0.361234605 1.89931273 -0.0930626988 0.791496575 -0.353876233 0.237428904 0.246123731 0.237428904 0.146123737 -0.762571096 -0.961234748 1.89931273 -0.353876233 0.237428904 -0.953876376 0.237428904 -0.453876257 -0.762571096 1.43876529 1.89931273 1.97989845 0.237428904 1.4461236 0.237428904 1.94612372 -0.762571096 1.34612358 -0.762571096 0.846123695 0.237428904 1.4461236 0.237428904 0.846123695 0.987429082 0.838765323 1.89931273 0.746123612 -0.762571096 0.246123731 0.237428904 0.846123695 0.237428904 0.546123624 0.987429082 0.246123731 0.987429082 0.238765359 1.89931273 -0.361234605 1.89931273 -0.0930626988 0.791496575 -0.353876233 0.237428904 0.246123731 0.237428904 0.146123737 -0.762571096 -0.961234748 1.89931273 -0.353876233 0.237428904 -0.953876376 0.237428904 -0.453876257 -0.762571096 -0.961234748 1.89931273 -0.353876233 0.237428904 -0.953876376 0.237428904 -0.453876257 -0.762571096 -0.361234605 1.89931273 -0.0930626988 0.791496575 -0.353876233 0.237428904 0.246123731 0.237428904 0.146123737 -0.762571096 0.746123612 -0.762571096 0.246123731 0.237428904 0.846123695 0.237428904 0.546123624 0.987429082 0.246123731 0.987429082 0.238765359 1.89931273 1.34612358 -0.762571096 0.846123695 0.237428904 1.4461236 0.237428904 0.846123695 0.987429082 0.838765323 1.89931273 1.43876529 1.89931273 1.97989845 0.237428904 1.4461236 0.237428904 1.94612372 -0.762571096 1.43876529 1.89931273 1.97989845 0.237428904 1.4461236 0.237428904 1.94612372 -0.762571096 1.34612358 -0.762571096 0.846123695 0.237428904 1.4461236 0.237428904 0.846123695 0.987429082 0.838765323 1.89931273 0.746123612 -0.762571096 0.246123731 0.237428904 0.846123695 0.237428904 0.546123624 0.987429082 0.246123731 0.987429082 0.238765359 1.89931273 -0.361234605 1.89931273 -0.0930626988 0.791496575 -0.353876233 0.237428904 0.246123731 0.237428904 0.146123737 -0.762571096 -0.961234748 1.89931273 -0.353876233 0.237428904 -0.953876376 0.237428904 -0.453876257 -0.762571096 1.43876529 1.89931273 1.97989845 0.237428904 1.4461236 0.237428904 1.94612372 -0.762571096 1.34612358 -0.762571096 0.846123695 0.237428904 1.4461236 0.237428904 0.846123695 0.987429082 1.4461236 0.237428904 0.846123695 0.237428904 0.838765323 1.89931273 0.746123612 -0.762571096 0.246123731 0.237428904 0.846123695 0.237428904 0.546123624 0.987429082 0.246123731 0.987429082 0.238765359 1.89931273 -0.361234605 1.89931273 -0.0930626988 0.791496575 -0.353876233 0.237428904 0.246123731 0.237428904 0.146123737 -0.762571096 -0.961234748 1.89931273 -0.353876233 0.237428904 -0.953876376 0.237428904 -0.453876257 -0.762571096 1.43876529 1.89931273 1.97989845 0.237428904 1.4461236 0.237428904 1.94612372 -0.762571096 1.34612358 -0.762571096 0.846123695 0.237428904 1.4461236 0.237428904 0.846123695 0.987429082 0.838765323 1.89931273 0.746123612 -0.762571096 0.246123731 0.237428904 0.846123695 0.237428904 0.546123624 0.987429082 0.246123731 0.987429082 0.238765359 1.89931273 -0.361234605 1.89931273 -0.0930626988 0.791496575 -0.353876233 0.237428904 0.246123731 0.237428904 0.146123737 -0.762571096 -0.961234748 1.89931273 -0.353876233 0.237428904 -0.953876376 0.237428904 -0.453876257 -0.762571096 -0.961234748 1.89931273 -0.353876233 0.237428904 -0.953876376 0.237428904 -0.453876257 -0.762571096 -0.361234605 1.89931273 -0.0930626988 0.791496575 -0.353876233 0.237428904 0.246123731 0.237428904 0.146123737 -0.762571096 0.746123612 -0.762571096 0.246123731 0.237428904 0.846123695 0.237428904 0.546123624 0.987429082 0.246123731 0.987429082 0.238765359 1.89931273 1.34612358 -0.762571096 0.846123695 0.237428904 1.4461236 0.237428904 0.846123695 0.987429082 0.838765323 1.89931273 1.43876529 1.89931273 1.97989845 0.237428904 1.4461236 0.237428904 1.94612372 -0.762571096 1.43876529 1.89931273 1.97989845 0.237428904 1.4461236 0.237428904 1.94612372 -0.762571096 1.34612358 -0.762571096 0.846123695 0.237428904 1.4461236 0.237428904 0.846123695 0.987429082 0.838765323 1.89931273 0.746123612 -0.762571096 0.246123731 0.237428904 0.846123695 0.237428904 0.546123624 0.987429082 0.246123731 0.987429082 0.238765359 1.89931273 -0.361234605 1.89931273 -0.0930626988 0.791496575 -0.353876233 0.237428904 0.246123731 0.237428904 0.146123737 -0.762571096 -0.961234748 1.89931273 -0.353876233 0.237428904 -0.953876376 0.237428904 -0.453876257 -0.762571096 1.43876529 1.89931273 1.97989845 0.237428904 1.4461236 0.237428904 1.94612372 -0.762571096 1.34612358 -0.762571096 0.846123695 0.237428904 1.4461236 0.237428904 0.846123695 0.987429082 0.838765323 1.89931273 0.746123612 -0.762571096 0.246123731 0.237428904 0.846123695 0.237428904 0.546123624 0.987429082 0.246123731 0.987429082 0.238765359 1.89931273 -0.361234605 1.89931273 -0.0930626988 0.791496575 -0.353876233 0.237428904 0.246123731 0.237428904 0.146123737 -0.762571096 -0.961234748 1.89931273 -0.353876233 0.237428904 -0.953876376 0.237428904 -0.453876257 -0.762571096 1.43876529 1.89931273 1.97989845 0.237428904 1.4461236 0.237428904 1.94612372 -0.762571096 1.34612358 -0.762571096 0.846123695 0.237428904 1.4461236 0.237428904 0.846123695 0.987429082 0.838765323 1.89931273 0.746123612 -0.762571096 0.246123731 0.237428904 0.846123695 0.237428904 0.546123624 0.987429082 0.246123731 0.987429082 0.238765359 1.89931273 -0.361234605 1.89931273 -0.0930626988 0.791496575 -0.353876233 0.237428904 0.246123731 0.237428904 0.146123737 -0.762571096 -0.961234748 1.89931273 -0.353876233 0.237428904 -0.953876376 0.237428904 -0.453876257 -0.762571096 -0.961234748 1.89931273 -0.353876233 0.237428904 -0.953876376 0.237428904 -0.453876257 -0.762571096 -0.361234605 1.89931273 -0.0930626988 0.791496575 -0.353876233 0.237428904 0.246123731 0.237428904 0.146123737 -0.762571096 0.746123612 -0.762571096 0.246123731 0.237428904 0.846123695 0.237428904 0.546123624 0.987429082 0.246123731 0.987429082 0.238765359 1.89931273 1.34612358 -0.762571096 0.846123695 0.237428904 1.4461236 0.237428904 0.846123695 0.987429082 1.4461236 0.237428904 0.846123695 0.237428904 0.838765323 1.89931273 1.43876529 1.89931273 1.97989845 0.237428904 1.4461236 0.237428904 1.94612372 -0.762571096 1.43876529 1.89931273 1.97989845 0.237428904 1.4461236 0.237428904 1.94612372 -0.762571096 1.34612358 -0.762571096 0.846123695 0.237428904 1.4461236 0.237428904 0.846123695 0.987429082 0.838765323 1.89931273 0.746123612 -0.762571096 0.246123731 0.237428904 0.846123695 0.237428904 0.546123624 0.987429082 0.246123731 0.987429082 0.238765359 1.89931273 -0.361234605 1.89931273 -0.0930626988 0.791496575 -0.353876233 0.237428904 0.246123731 0.237428904 0.146123737 -0.762571096 -0.961234748 1.89931273 -0.353876233 0.237428904 -0.953876376 0.237428904 -0.453876257 -0.762571096 1.43876529 1.89931273 1.97989845 0.237428904 1.4461236 0.237428904 1.94612372 -0.762571096 1.34612358 -0.762571096 0.846123695 0.237428904 1.4461236 0.237428904 0.846123695 0.987429082 0.838765323 1.89931273 0.746123612 -0.762571096 0.246123731 0.237428904 0.846123695 0.237428904 0.546123624 0.987429082 0.246123731 0.987429082 0.238765359 1.89931273 -0.361234605 1.89931273 -0.0930626988 0.791496575 -0.353876233 0.237428904 0.246123731 0.237428904 0.146123737 -0.762571096 -0.961234748 1.89931273 -0.353876233 0.237428904 -0.953876376 0.237428904 -0.453876257 -0.762571096 1.43876529 1.89931273 1.97989845 0.237428904 1.4461236 0.237428904 1.94612372 -0.762571096 1.34612358 -0.762571096 0.846123695 0.237428904 1.4461236 0.237428904 0.846123695 0.987429082 0.838765323 1.89931273 0.746123612 -0.762571096 0.246123731 0.237428904 0.846123695 0.237428904 0.546123624 0.987429082 0.246123731 0.987429082 0.238765359 1.89931273 -0.361234605 1.89931273 -0.0930626988 0.791496575 -0.353876233 0.237428904 0.246123731 0.237428904 0.146123737 -0.762571096 -0.961234748 1.89931273 -0.353876233 0.237428904 -0.953876376 0.237428904 -0.453876257 -0.762571096 -0.961234748 1.89931273 -0.353876233 0.237428904 -0.953876376 0.237428904 -0.453876257 -0.762571096 -0.361234605 1.89931273 -0.0930626988 0.791496575 -0.353876233 0.237428904 0.246123731 0.237428904 0.146123737 -0.762571096 0.746123612 -0.762571096 0.246123731 0.237428904 0.846123695 0.237428904 0.546123624 0.987429082 0.246123731 0.987429082 0.238765359 1.89931273 1.34612358 -0.762571096 0.846123695 0.237428904 1.4461236 0.237428904 0.846123695 0.987429082 0.838765323 1.89931273 1.43876529 1.89931273 1.97989845 0.237428904 1.4461236 0.237428904 1.94612372 -0.762571096 1.43876529 1.89931273 1.97989845 0.237428904 1.4461236 0.237428904 1.94612372 -0.762571096 1.34612358 -0.762571096 0.846123695 0.237428904 1.4461236 0.237428904 0.846123695 0.987429082 0.838765323 1.89931273 0.746123612 -0.762571096 0.246123731 0.237428904 0.846123695 0.237428904 0.546123624 0.987429082 0.246123731 0.987429082 0.238765359 1.89931273 -0.361234605 1.89931273 -0.0930626988 0.791496575 -0.353876233 0.237428904 0.246123731 0.237428904 0.146123737 -0.762571096 -0.961234748 1.89931273 -0.353876233 0.237428904 -0.953876376 0.237428904 -0.453876257 -0.762571096 1.43876529 1.89931273 1.97989845 0.237428904 1.4461236 0.237428904 1.94612372 -0.762571096 1.34612358 -0.762571096 0.846123695 0.237428904 1.4461236 0.237428904 0.846123695 0.987429082 0.838765323 1.89931273 0.746123612 -0.762571096 0.246123731 0.237428904 0.846123695 0.237428904 0.546123624 0.987429082 0.246123731 0.987429082 0.238765359 1.89931273 -0.361234605 1.89931273 -0.0930626988 0.791496575 -0.353876233 0.237428904 0.246123731 0.237428904 0.146123737 -0.762571096 -0.961234748 1.89931273 -0.353876233 0.237428904 -0.953876376 0.237428904 -0.453876257 -0.762571096 1.43876529 1.89931273 1.97989845 0.237428904 1.4461236 0.237428904 1.94612372 -0.762571096 1.34612358 -0.762571096 0.846123695 0.237428904 1.4461236 0.237428904 0.846123695 0.987429082 0.838765323 1.89931273 0.746123612 -0.762571096 0.246123731 0.237428904 0.846123695 0.237428904 0.546123624 0.987429082 0.246123731 0.987429082 0.238765359 1.89931273 -0.361234605 1.89931273 -0.0930626988 0.791496575 -0.353876233 0.237428904 0.246123731 0.237428904 0.146123737 -0.762571096 -0.961234748 1.89931273 -0.353876233 0.237428904 -0.953876376 0.237428904 -0.453876257 -0.762571096 1.43876529 1.89931273 1.97989845 0.237428904 1.4461236 0.237428904 1.94612372 -0.762571096 1.34612358 -0.762571096 0.846123695 0.237428904 1.4461236 0.237428904 0.846123695 0.987429082 0.838765323 1.89931273 0.746123612 -0.762571096 0.246123731 0.237428904 0.846123695 0.237428904 0.546123624 0.987429082 0.246123731 0.987429082 0.238765359 1.89931273 -0.361234605 1.89931273 -0.0930626988 0.791496575 -0.353876233 0.237428904 0.246123731 0.237428904 0.146123737 -0.762571096 -0.961234748 1.89931273 -0.353876233 0.237428904 -0.953876376 0.237428904 -0.453876257 -0.762571096 1.43876529 1.89931273 1.97989845 0.237428904 1.4461236 0.237428904 1.94612372 -0.762571096 1.34612358 -0.762571096 0.846123695 0.237428904 1.4461236 0.237428904 0.846123695 0.987429082 1.4461236 0.237428904 0.846123695 0.237428904 0.838765323 1.89931273 0.746123612 -0.762571096 0.246123731 0.237428904 0.846123695 0.237428904 0.546123624 0.987429082 0.246123731 0.987429082 0.238765359 1.89931273 -0.361234605 1.89931273 -0.0930626988 0.791496575 -0.353876233 0.237428904 0.246123731 0.237428904 0.146123737 -0.762571096 -0.961234748 1.89931273 -0.353876233 0.237428904 -0.953876376 0.237428904 -0.453876257 -0.762571096 1.43876529 1.89931273 1.97989845 0.237428904 1.4461236 0.237428904 1.94612372 -0.762571096 1.34612358 -0.762571096 0.846123695 0.237428904 1.4461236 0.237428904 0.846123695 0.987429082 0.838765323 1.89931273 0.746123612 -0.762571096 0.246123731 0.237428904 0.846123695 0.237428904 0.546123624 0.987429082 0.246123731 0.987429082 0.238765359 1.89931273 -0.361234605 1.89931273 -0.0930626988 0.791496575 -0.353876233 0.237428904 0.246123731 0.237428904 0.146123737 -0.762571096 -0.961234748 1.89931273 -0.353876233 0.237428904 -0.953876376 0.237428904 -0.453876257 -0.762571096 1.43876529 1.89931273 1.97989845 0.237428904 1.4461236 0.237428904 1.94612372 -0.762571096 1.34612358 -0.762571096 0.846123695 0.237428904 1.4461236 0.237428904 0.846123695 0.987429082 0.838765323 1.89931273 0.746123612 -0.762571096 0.246123731 0.237428904 0.846123695 0.237428904 0.546123624 0.987429082 0.246123731 0.987429082 0.238765359 1.89931273 -0.361234605 1.89931273 -0.0930626988 0.791496575 -0.353876233 0.237428904 0.246123731 0.237428904 0.146123737 -0.762571096 -0.961234748 1.89931273 -0.353876233 0.237428904 -0.953876376 0.237428904 -0.453876257 -0.762571096</float_array>
        <technique_common><accessor source="#vfx_kurp_0720-mesh-uv0-array" count="808" stride="2"><param name="S" type="float"/><param name="T" type="float"/></accessor></technique_common>
      </source>
      <vertices id="vfx_kurp_0720-mesh-vertices"><input semantic="POSITION" source="#vfx_kurp_0720-mesh-positions"/></vertices>
      <triangles material="PreviewMaterial" count="462">
        <input semantic="VERTEX" source="#vfx_kurp_0720-mesh-vertices" offset="0"/>
        <input semantic="NORMAL" source="#vfx_kurp_0720-mesh-normals" offset="1"/>
        <input semantic="TEXCOORD" source="#vfx_kurp_0720-mesh-uv0" offset="2" set="0"/>
        <p>0 0 0 1 1 1 2 2 2 3 3 3 2 2 2 1 1 1 4 4 4 5 5 5 6 6 6 7 7 7 6 6 6 5 5 5 6 6 6 7 7 7 8 8 8 9 9 9 10 10 10 11 11 11 11 11 11 10 10 10 12 12 12 13 13 13 12 12 12 10 10 10 12 12 12 13 13 13 14 14 14 15 15 15 16 16 16 17 17 17 18 18 18 17 17 17 16 16 16 17 17 17 18 18 18 19 19 19 20 20 20 21 21 21 22 22 22 23 23 23 22 22 22 21 21 21 24 24 24 25 25 25 26 26 26 27 27 27 26 26 26 25 25 25 28 28 28 29 29 29 30 30 30 31 31 31 30 30 30 29 29 29 30 30 30 31 31 31 32 32 32 33 33 33 34 34 34 35 35 35 35 35 35 34 34 34 36 36 36 37 37 37 36 36 36 34 34 34 36 36 36 37 37 37 38 38 38 39 39 39 40 40 40 41 41 41 42 42 42 41 41 41 40 40 40 41 41 41 42 42 42 43 43 43 44 44 44 45 45 45 46 46 46 47 47 47 46 46 46 45 45 45 48 48 48 49 49 49 50 50 50 51 51 51 50 50 50 49 49 49 52 52 52 53 53 53 54 54 54 55 55 55 54 54 54 53 53 53 54 54 54 55 55 55 56 56 56 57 57 57 58 58 58 59 59 59 59 59 59 58 58 58 60 60 60 61 61 61 60 60 60 58 58 58 60 60 60 61 61 61 62 62 62 63 63 63 64 64 64 65 65 65 66 66 66 65 65 65 64 64 64 65 65 65 66 66 66 67 67 67 68 68 68 69 69 69 70 70 70 71 71 71 70 70 70 69 69 69 72 72 72 73 73 73 74 74 74 75 75 75 74 74 74 73 73 73 76 76 76 77 77 77 78 78 78 79 79 79 80 80 80 81 81 81 80 80 80 79 79 79 82 82 82 83 83 83 84 84 84 85 85 85 85 85 85 84 84 84 86 86 86 87 87 87 86 86 86 84 84 84 86 86 86 87 87 87 88 88 88 89 89 89 90 90 90 91 91 91 92 92 92 91 91 91 90 90 90 91 91 91 92 92 92 93 93 93 94 94 94 95 95 95 96 96 96 97 97 97 96 96 96 95 95 95 98 98 98 99 99 99 100 100 100 101 101 101 100 100 100 99 99 99 102 102 102 103 103 103 104 104 104 105 105 105 104 104 104 103 103 103 104 104 104 105 105 105 106 106 106 107 107 107 108 108 108 109 109 109 109 109 109 108 108 108 110 110 110 111 111 111 110 110 110 108 108 108 110 110 110 111 111 111 112 112 112 113 113 113 114 114 114 115 115 115 116 116 116 115 115 115 114 114 114 115 115 115 116 116 116 117 117 117 118 118 118 119 119 119 120 120 120 121 121 121 120 120 120 119 119 119 122 122 122 123 123 123 124 124 124 125 125 125 124 124 124 123 123 123 126 126 126 127 127 127 128 128 128 129 129 129 128 128 128 127 127 127 128 128 128 129 129 129 130 130 130 131 131 131 132 132 132 133 133 133 133 133 133 132 132 132 134 134 134 135 135 135 134 134 134 132 132 132 134 134 134 135 135 135 136 136 136 137 137 137 138 138 138 139 139 139 140 140 140 139 139 139 138 138 138 139 139 139 140 140 140 141 141 141 142 142 142 143 143 143 144 144 144 145 145 145 144 144 144 143 143 143 146 146 146 147 147 147 148 148 148 149 149 149 148 148 148 147 147 147 150 150 150 151 151 151 152 152 152 153 153 153 154 154 154 155 155 155 154 154 154 153 153 153 156 156 156 157 157 157 158 158 158 159 159 159 159 159 159 158 158 158 160 160 160 161 161 161 160 160 160 158 158 158 160 160 160 161 161 161 162 162 162 163 163 163 164 164 164 165 165 165 166 166 166 165 165 165 164 164 164 165 165 165 166 166 166 167 167 167 168 168 168 169 169 169 170 170 170 171 171 171 170 170 170 169 169 169 172 172 172 173 173 173 174 174 174 175 175 175 174 174 174 173 173 173 176 176 176 177 177 177 178 178 178 179 179 179 178 178 178 177 177 177 178 178 178 179 179 179 180 180 180 181 181 181 182 182 182 183 183 183 183 183 183 182 182 182 184 184 184 185 185 185 184 184 184 182 182 182 184 184 184 185 185 185 186 186 186 187 187 187 188 188 188 189 189 189 190 190 190 189 189 189 188 188 188 189 189 189 190 190 190 191 191 191 192 192 192 193 193 193 194 194 194 195 195 195 194 194 194 193 193 193 196 196 196 197 197 197 198 198 198 199 199 199 198 198 198 197 197 197 200 200 200 201 201 201 202 202 202 203 203 203 204 204 204 205 205 205 204 204 204 203 203 203 206 206 206 207 207 207 208 208 208 209 209 209 209 209 209 208 208 208 210 210 210 211 211 211 210 210 210 208 208 208 210 210 210 211 211 211 212 212 212 213 213 213 214 214 214 215 215 215 216 216 216 215 215 215 214 214 214 215 215 215 216 216 216 217 217 217 218 218 218 219 219 219 220 220 220 221 221 221 220 220 220 219 219 219 222 222 222 223 223 223 224 224 224 225 225 225 224 224 224 223 223 223 226 226 226 227 227 227 228 228 228 229 229 229 228 228 228 227 227 227 228 228 228 229 229 229 230 230 230 231 231 231 232 232 232 233 233 233 233 233 233 232 232 232 234 234 234 235 235 235 234 234 234 232 232 232 234 234 234 235 235 235 236 236 236 237 237 237 238 238 238 239 239 239 240 240 240 241 241 241 242 242 242 241 241 241 240 240 240 243 243 243 244 244 244 245 245 245 246 246 246 247 247 247 246 246 246 245 245 245 248 248 248 249 249 249 250 250 250 251 251 251 250 250 250 249 249 249 252 252 252 253 253 253 254 254 254 255 255 255 256 256 256 257 257 257 256 256 256 255 255 255 258 258 258 259 259 259 260 260 260 261 261 261 261 261 261 260 260 260 262 262 262 263 263 263 262 262 262 260 260 260 262 262 262 263 263 263 264 264 264 265 265 265 266 266 266 267 267 267 268 268 268 267 267 267 266 266 266 267 267 267 268 268 268 269 269 269 270 270 270 271 271 271 272 272 272 273 273 273 272 272 272 271 271 271 274 274 274 275 275 275 276 276 276 277 277 277 276 276 276 275 275 275 278 278 278 279 279 279 280 280 280 281 281 281 280 280 280 279 279 279 280 280 280 281 281 281 282 282 282 283 283 283 284 284 284 285 285 285 285 285 285 284 284 284 286 286 286 287 287 287 286 286 286 284 284 284 286 286 286 287 287 287 288 288 288 289 289 289 290 290 290 291 291 291 292 292 292 291 291 291 290 290 290 291 291 291 292 292 292 293 293 293 294 294 294 295 295 295 296 296 296 297 297 297 296 296 296 295 295 295 298 298 298 299 299 299 300 300 300 301 301 301 300 300 300 299 299 299 302 302 302 303 303 303 304 304 304 305 305 305 304 304 304 303 303 303 304 304 304 305 305 305 306 306 306 307 307 307 308 308 308 309 309 309 309 309 309 308 308 308 310 310 310 311 311 311 310 310 310 308 308 308 310 310 310 311 311 311 312 312 312 313 313 313 314 314 314 315 315 315 316 316 316 315 315 315 314 314 314 315 315 315 316 316 316 317 317 317 318 318 318 319 319 319 320 320 320 321 321 321 320 320 320 319 319 319 322 322 322 323 323 323 324 324 324 325 325 325 324 324 324 323 323 323 326 326 326 327 327 327 328 328 328 329 329 329 328 328 328 327 327 327 328 328 328 329 329 329 330 330 330 331 331 331 332 332 332 333 333 333 333 333 333 332 332 332 334 334 334 335 335 335 334 334 334 332 332 332 334 334 334 335 335 335 336 336 336 337 337 337 338 338 338 339 339 339 340 340 340 339 339 339 338 338 338 339 339 339 340 340 340 341 341 341 342 342 342 343 343 343 344 344 344 345 345 345 344 344 344 343 343 343 346 346 346 347 347 347 348 348 348 349 349 349 348 348 348 347 347 347 350 350 350 351 351 351 352 352 352 353 353 353 352 352 352 351 351 351 352 352 352 353 353 353 354 354 354 355 355 355 356 356 356 357 357 357 357 357 357 356 356 356 358 358 358 359 359 359 358 358 358 356 356 356 358 358 358 359 359 359 360 360 360 361 361 361 362 362 362 363 363 363 364 364 364 363 363 363 362 362 362 363 363 363 364 364 364 365 365 365 366 366 366 367 367 367 368 368 368 369 369 369 368 368 368 367 367 367 370 370 370 371 371 371 372 372 372 373 373 373 372 372 372 371 371 371 374 374 374 375 375 375 376 376 376 377 377 377 378 378 378 379 379 379 378 378 378 377 377 377 380 380 380 381 381 381 382 382 382 383 383 383 383 383 383 382 382 382 384 384 384 385 385 385 384 384 384 382 382 382 384 384 384 385 385 385 386 386 386 387 387 387 388 388 388 389 389 389 390 390 390 389 389 389 388 388 388 389 389 389 390 390 390 391 391 391 392 392 392 393 393 393 394 394 394 395 395 395 394 394 394 393 393 393 396 396 396 397 397 397 398 398 398 399 399 399 398 398 398 397 397 397 400 400 400 401 401 401 402 402 402 403 403 403 402 402 402 401 401 401 402 402 402 403 403 403 404 404 404 405 405 405 406 406 406 407 407 407 407 407 407 406 406 406 408 408 408 409 409 409 408 408 408 406 406 406 408 408 408 409 409 409 410 410 410 411 411 411 412 412 412 413 413 413 414 414 414 413 413 413 412 412 412 413 413 413 414 414 414 415 415 415 416 416 416 417 417 417 418 418 418 419 419 419 418 418 418 417 417 417 420 420 420 421 421 421 422 422 422 423 423 423 422 422 422 421 421 421 424 424 424 425 425 425 426 426 426 427 427 427 426 426 426 425 425 425 426 426 426 427 427 427 428 428 428 429 429 429 430 430 430 431 431 431 431 431 431 430 430 430 432 432 432 433 433 433 432 432 432 430 430 430 432 432 432 433 433 433 434 434 434 435 435 435 436 436 436 437 437 437 438 438 438 437 437 437 436 436 436 437 437 437 438 438 438 439 439 439 440 440 440 441 441 441 442 442 442 443 443 443 442 442 442 441 441 441 444 444 444 445 445 445 446 446 446 447 447 447 446 446 446 445 445 445 448 448 448 449 449 449 450 450 450 451 451 451 450 450 450 449 449 449 450 450 450 451 451 451 452 452 452 453 453 453 454 454 454 455 455 455 455 455 455 454 454 454 456 456 456 457 457 457 456 456 456 454 454 454 456 456 456 457 457 457 458 458 458 459 459 459 460 460 460 461 461 461 462 462 462 461 461 461 460 460 460 461 461 461 462 462 462 463 463 463 464 464 464 465 465 465 466 466 466 467 467 467 466 466 466 465 465 465 468 468 468 469 469 469 470 470 470 471 471 471 470 470 470 469 469 469 472 472 472 473 473 473 474 474 474 475 475 475 474 474 474 473 473 473 474 474 474 475 475 475 476 476 476 477 477 477 478 478 478 479 479 479 479 479 479 478 478 478 480 480 480 481 481 481 480 480 480 478 478 478 480 480 480 481 481 481 482 482 482 483 483 483 484 484 484 485 485 485 486 486 486 485 485 485 484 484 484 485 485 485 486 486 486 487 487 487 488 488 488 489 489 489 490 490 490 491 491 491 490 490 490 489 489 489 492 492 492 493 493 493 494 494 494 495 495 495 494 494 494 493 493 493 496 496 496 497 497 497 498 498 498 499 499 499 498 498 498 497 497 497 498 498 498 499 499 499 500 500 500 501 501 501 502 502 502 503 503 503 503 503 503 502 502 502 504 504 504 505 505 505 504 504 504 502 502 502 504 504 504 505 505 505 506 506 506 507 507 507 508 508 508 509 509 509 510 510 510 509 509 509 508 508 508 509 509 509 510 510 510 511 511 511 512 512 512 513 513 513 514 514 514 515 515 515 514 514 514 513 513 513 516 516 516 517 517 517 518 518 518 519 519 519 518 518 518 517 517 517 520 520 520 521 521 521 522 522 522 523 523 523 522 522 522 521 521 521 522 522 522 523 523 523 524 524 524 525 525 525 526 526 526 527 527 527 527 527 527 526 526 526 528 528 528 529 529 529 528 528 528 526 526 526 528 528 528 529 529 529 530 530 530 531 531 531 532 532 532 533 533 533 534 534 534 535 535 535 536 536 536 535 535 535 534 534 534 537 537 537 538 538 538 539 539 539 540 540 540 541 541 541 540 540 540 539 539 539 542 542 542 543 543 543 544 544 544 545 545 545 544 544 544 543 543 543 546 546 546 547 547 547 548 548 548 549 549 549 548 548 548 547 547 547 548 548 548 549 549 549 550 550 550 551 551 551 552 552 552 553 553 553 553 553 553 552 552 552 554 554 554 555 555 555 554 554 554 552 552 552 554 554 554 555 555 555 556 556 556 557 557 557 558 558 558 559 559 559 560 560 560 559 559 559 558 558 558 559 559 559 560 560 560 561 561 561 562 562 562 563 563 563 564 564 564 565 565 565 564 564 564 563 563 563 566 566 566 567 567 567 568 568 568 569 569 569 568 568 568 567 567 567 570 570 570 571 571 571 572 572 572 573 573 573 572 572 572 571 571 571 572 572 572 573 573 573 574 574 574 575 575 575 576 576 576 577 577 577 577 577 577 576 576 576 578 578 578 579 579 579 578 578 578 576 576 576 578 578 578 579 579 579 580 580 580 581 581 581 582 582 582 583 583 583 584 584 584 583 583 583 582 582 582 583 583 583 584 584 584 585 585 585 586 586 586 587 587 587 588 588 588 589 589 589 588 588 588 587 587 587 590 590 590 591 591 591 592 592 592 593 593 593 592 592 592 591 591 591 594 594 594 595 595 595 596 596 596 597 597 597 596 596 596 595 595 595 596 596 596 597 597 597 598 598 598 599 599 599 600 600 600 601 601 601 601 601 601 600 600 600 602 602 602 603 603 603 602 602 602 600 600 600 602 602 602 603 603 603 604 604 604 605 605 605 606 606 606 607 607 607 608 608 608 607 607 607 606 606 606 607 607 607 608 608 608 609 609 609 610 610 610 611 611 611 612 612 612 613 613 613 612 612 612 611 611 611 614 614 614 615 615 615 616 616 616 617 617 617 616 616 616 615 615 615 618 618 618 619 619 619 620 620 620 621 621 621 620 620 620 619 619 619 620 620 620 621 621 621 622 622 622 623 623 623 624 624 624 625 625 625 625 625 625 624 624 624 626 626 626 627 627 627 626 626 626 624 624 624 626 626 626 627 627 627 628 628 628 629 629 629 630 630 630 631 631 631 632 632 632 631 631 631 630 630 630 631 631 631 632 632 632 633 633 633 634 634 634 635 635 635 636 636 636 637 637 637 636 636 636 635 635 635 638 638 638 639 639 639 640 640 640 641 641 641 640 640 640 639 639 639 642 642 642 643 643 643 644 644 644 645 645 645 644 644 644 643 643 643 644 644 644 645 645 645 646 646 646 647 647 647 648 648 648 649 649 649 649 649 649 648 648 648 650 650 650 651 651 651 650 650 650 648 648 648 650 650 650 651 651 651 652 652 652 653 653 653 654 654 654 655 655 655 656 656 656 655 655 655 654 654 654 655 655 655 656 656 656 657 657 657 658 658 658 659 659 659 660 660 660 661 661 661 660 660 660 659 659 659 662 662 662 663 663 663 664 664 664 665 665 665 664 664 664 663 663 663 666 666 666 667 667 667 668 668 668 669 669 669 668 668 668 667 667 667 668 668 668 669 669 669 670 670 670 671 671 671 672 672 672 673 673 673 673 673 673 672 672 672 674 674 674 675 675 675 674 674 674 672 672 672 674 674 674 675 675 675 676 676 676 677 677 677 678 678 678 679 679 679 680 680 680 679 679 679 678 678 678 679 679 679 680 680 680 681 681 681 682 682 682 683 683 683 684 684 684 685 685 685 684 684 684 683 683 683 686 686 686 687 687 687 688 688 688 689 689 689 688 688 688 687 687 687 690 690 690 691 691 691 692 692 692 693 693 693 692 692 692 691 691 691 692 692 692 693 693 693 694 694 694 695 695 695 696 696 696 697 697 697 697 697 697 696 696 696 698 698 698 699 699 699 698 698 698 696 696 696 698 698 698 699 699 699 700 700 700 701 701 701 702 702 702 703 703 703 704 704 704 703 703 703 702 702 702 703 703 703 704 704 704 705 705 705 706 706 706 707 707 707 708 708 708 709 709 709 708 708 708 707 707 707 710 710 710 711 711 711 712 712 712 713 713 713 712 712 712 711 711 711 714 714 714 715 715 715 716 716 716 717 717 717 716 716 716 715 715 715 716 716 716 717 717 717 718 718 718 719 719 719 720 720 720 721 721 721 721 721 721 720 720 720 722 722 722 723 723 723 722 722 722 720 720 720 722 722 722 723 723 723 724 724 724 725 725 725 726 726 726 727 727 727 728 728 728 727 727 727 726 726 726 727 727 727 728 728 728 729 729 729 730 730 730 731 731 731 732 732 732 733 733 733 732 732 732 731 731 731 734 734 734 735 735 735 736 736 736 737 737 737 736 736 736 735 735 735 738 738 738 739 739 739 740 740 740 741 741 741 742 742 742 743 743 743 742 742 742 741 741 741 744 744 744 745 745 745 746 746 746 747 747 747 747 747 747 746 746 746 748 748 748 749 749 749 748 748 748 746 746 746 748 748 748 749 749 749 750 750 750 751 751 751 752 752 752 753 753 753 754 754 754 753 753 753 752 752 752 753 753 753 754 754 754 755 755 755 756 756 756 757 757 757 758 758 758 759 759 759 758 758 758 757 757 757 760 760 760 761 761 761 762 762 762 763 763 763 762 762 762 761 761 761 764 764 764 765 765 765 766 766 766 767 767 767 766 766 766 765 765 765 766 766 766 767 767 767 768 768 768 769 769 769 770 770 770 771 771 771 771 771 771 770 770 770 772 772 772 773 773 773 772 772 772 770 770 770 772 772 772 773 773 773 774 774 774 775 775 775 776 776 776 777 777 777 778 778 778 777 777 777 776 776 776 777 777 777 778 778 778 779 779 779 780 780 780 781 781 781 782 782 782 783 783 783 782 782 782 781 781 781 784 784 784 785 785 785 786 786 786 787 787 787 786 786 786 785 785 785 788 788 788 789 789 789 790 790 790 791 791 791 790 790 790 789 789 789 790 790 790 791 791 791 792 792 792 793 793 793 794 794 794 795 795 795 795 795 795 794 794 794 796 796 796 797 797 797 796 796 796 794 794 794 796 796 796 797 797 797 798 798 798 799 799 799 800 800 800 801 801 801 802 802 802 801 801 801 800 800 800 801 801 801 802 802 802 803 803 803 804 804 804 805 805 805 806 806 806 807 807 807 806 806 806 805 805 805</p>
      </triangles>
    </mesh></geometry>
  </library_geometries>
  <library_visual_scenes>
    <visual_scene id="Scene" name="Scene">
      <node id="vfx_kurp_0720" name="vfx_kurp_0720" type="NODE">
        <instance_geometry url="#vfx_kurp_0720-mesh"><bind_material><technique_common><instance_material symbol="PreviewMaterial" target="#PreviewMaterial"><bind_vertex_input semantic="UVSET0" input_semantic="TEXCOORD" input_set="0"/></instance_material></technique_common></bind_material></instance_geometry>
      </node>
    </visual_scene>
  </library_visual_scenes>
  <scene><instance_visual_scene url="#Scene"/></scene>
</COLLADA>
