<?xml version="1.0" encoding="utf-8"?>
<COLLADA xmlns="http://www.collada.org/2005/11/COLLADASchema" version="1.4.1">
  <asset>
    <contributor><authoring_tool>Morrobroom Kurpulio VFX preview converter</authoring_tool></contributor>
    <unit name="unit" meter="1"/>
    <up_axis>Z_UP</up_axis>
  </asset>
  <library_images>
    <image id="VFXTexture" name="darkmap_newgen-1.dds">
      <init_from>../../../Textures/Kurp/darkmap_newgen-1.dds</init_from>
    </image>
  </library_images>
  <library_effects>
    <effect id="PreviewEffect">
      <profile_COMMON>
        <newparam sid="VFXTexture-surface">
          <surface type="2D"><init_from>VFXTexture</init_from></surface>
        </newparam>
        <newparam sid="VFXTexture-sampler">
          <sampler2D><source>VFXTexture-surface</source></sampler2D>
        </newparam>
        <technique sid="common"><phong>
          <emission><color>0.08 0.08 0.08 1</color></emission>
          <ambient><color>0.2 0.2 0.2 1</color></ambient>
          <diffuse><texture texture="VFXTexture-sampler" texcoord="UVSET0"/></diffuse>
          <specular><color>0.15 0.15 0.15 1</color></specular>
          <shininess><float>8</float></shininess>
          <transparent opaque="A_ONE"><texture texture="VFXTexture-sampler" texcoord="UVSET0"/></transparent>
          <transparency><float>1</float></transparency>
        </phong></technique>
      </profile_COMMON>
      <extra><technique profile="GOOGLEEARTH"><double_sided>1</double_sided></technique></extra>
    </effect>
  </library_effects>
  <library_materials><material id="PreviewMaterial" name="PreviewMaterial"><instance_effect url="#PreviewEffect"/></material></library_materials>
  <library_geometries>
    <geometry id="vfx_kurp_0464-mesh" name="vfx_kurp_0464"><mesh>
      <source id="vfx_kurp_0464-mesh-positions">
        <float_array id="vfx_kurp_0464-mesh-positions-array" count="240">0.0595034946 14.2673937 -1.13011273 -0.0595034942 -14.2673935 -1.13011489 0.0595034942 14.2673935 1.13011489 -0.0595034946 -14.2673937 1.13011273 -0.935071052 14.2715416 1.28293319e-07 -1.05407839 -14.2632442 -1.27980048e-07 1.05407839 14.2632456 1.27980156e-07 0.935071058 -14.2715401 -1.28293211e-07 0.85860715 14.2640624 -0.799109838 0.739601231 -14.2707263 -0.79911244 -0.739601226 14.2707277 0.79911244 -0.858607144 -14.2640609 0.799109838 -0.643766778 14.2703281 -0.703275769 -0.762774344 -14.2644591 -0.703277208 0.762774356 14.2644619 0.703277208 0.643766784 -14.2703267 0.703275769 -1.8019329 10.5966857 -0.611852066 -6.16233411 -3.17600171 -0.611853106 -1.8019329 10.5966856 0.61185523 -6.16233411 -3.1760018 0.611854189 -2.31529522 10.7592155 1.09623662e-06 -6.67569714 -3.01347182 1.08336847e-06 -1.28857059 10.4341564 1.07185703e-06 -5.64897215 -3.33853061 1.05898891e-06 -1.38946525 10.4660995 -0.432644184 -5.7498661 -3.30658784 -0.432645448 -2.21440072 10.7272731 0.432647571 -6.57480176 -3.04541531 0.432646352 -2.16493469 10.7116122 -0.380758758 -6.52533661 -3.0610755 -0.380759352 -1.43893057 10.4817604 0.38076152 -5.79933303 -3.29092693 0.380760882 -2.04387488 13.1692109 -0.538127205 -9.62883801 1.19081536 -0.538128111 -2.04387488 13.1692108 0.538130534 -9.62883801 1.19081527 0.538129629 -2.44399573 13.4225774 1.20754141e-06 -10.0289589 1.44418053 1.20580763e-06 -1.64375401 12.9158457 1.1694103e-06 -9.22871714 0.937451172 1.16767669e-06 -1.72239233 12.9656441 -0.380512898 -9.30735565 0.98724606 -0.380513937 -2.36535723 13.3727819 0.380516361 -9.95032037 1.3943843 0.380515232 -2.32680272 13.348368 -0.334879311 -9.91176585 1.36997189 -0.334879836 -1.76094631 12.9900565 0.334882237 -9.34591016 1.01165946 0.334881689 2.37571578 13.3304223 -0.582989549 10.4663951 2.19419508 -0.582990388 2.37571578 13.3304222 0.582992769 10.4663951 2.19419499 0.58299193 1.96062465 13.0288509 1.11538253e-06 10.051304 1.89262368 1.25504593e-06 2.7908069 13.6319936 1.16104915e-06 10.8814862 2.49576693 1.30071258e-06 2.70922567 13.5727254 -0.41223529 10.7999059 2.43649673 -0.412236308 2.04220463 13.0881206 0.412238734 10.132885 1.95189334 0.412237671 2.08220168 13.1171794 -0.362797433 10.1728806 1.98095219 -0.362797892 2.66922934 13.5436665 0.362800296 10.7599088 2.40743824 0.362799859 2.49466411 8.95566172 -0.559837634 7.03949674 -6.66154864 -0.559838812 2.49466411 8.95566164 0.559840864 7.03949674 -6.66154872 0.559839686 2.02158969 8.81799052 1.10608569e-06 6.56642196 -6.79921984 8.6800256e-07 2.96773889 9.09333356 1.12702242e-06 7.51257152 -6.5238768 8.88939292e-07 2.87476198 9.06627676 -0.395864456 7.41959478 -6.55093503 -0.395865813 2.11456571 8.84504804 0.39586782 6.65939869 -6.77216304 0.395866463 2.16014978 8.8583142 -0.34838989 6.70498187 -6.75889687 -0.348390688 2.82917862 9.05301059 0.348392673 7.37401089 -6.56420049 0.348391875</float_array>
        <technique_common><accessor source="#vfx_kurp_0464-mesh-positions-array" count="80" stride="3"><param name="X" type="float"/><param name="Y" type="float"/><param name="Z" type="float"/></accessor></technique_common>
      </source>
      <source id="vfx_kurp_0464-mesh-normals">
        <float_array id="vfx_kurp_0464-mesh-normals-array" count="240">-0.999991303 0.0041705569 0 -0.999991303 0.0041705569 0 -0.999991303 0.0041705569 0 -0.999991303 0.0041705569 0 0 -8.98158637e-09 1 0 -8.98158637e-09 1 0 -8.98158637e-09 1 0 -8.98158637e-09 1 -0.707100681 0.00294906707 -0.707106732 -0.707100651 0.00294906695 -0.707106762 -0.707100681 0.00294906707 -0.707106732 -0.707100681 0.00294906707 -0.707106732 -0.707100591 0.00294900756 0.707106822 -0.707100591 0.00294900756 0.707106822 -0.707100532 0.00294900731 0.707106881 -0.707100591 0.00294900756 0.707106822 -0.953361142 0.301831962 2.26375372e-08 -0.953361142 0.301831962 2.26375372e-08 -0.95336115 0.301831935 2.26375352e-08 -0.953361142 0.301831962 2.26375372e-08 2.13129229e-08 -7.68194457e-09 1 2.13128945e-08 -7.68193024e-09 1 2.13129229e-08 -7.68193746e-09 1 2.13128945e-08 -7.68193024e-09 1 -0.674128057 0.213427429 -0.707106849 -0.674128176 0.213427444 -0.70710673 -0.674128054 0.213427443 -0.707106847 -0.674128174 0.213427459 -0.707106728 -0.674127957 0.213427373 0.707106961 -0.674128185 0.213427475 0.707106713 -0.674127952 0.213427401 0.707106957 -0.674128218 0.213427466 0.707106684 -0.844862252 0.534983902 4.02570618e-08 -0.844862252 0.534983902 4.02570618e-08 -0.844862252 0.534983902 4.02570618e-08 -0.844862252 0.534983902 4.02570618e-08 3.39463704e-08 -2.16402649e-08 1 3.39462677e-08 -2.16401934e-08 1 3.39463669e-08 -2.16402613e-08 1 3.39462641e-08 -2.16401934e-08 1 -0.597407964 0.378290843 -0.707106613 -0.597407901 0.378290841 -0.707106668 -0.597407957 0.378290869 -0.707106605 -0.597407908 0.378290815 -0.707106676 -0.597407838 0.378290731 0.70710678 -0.597407894 0.37829076 0.707106717 -0.597407844 0.378290706 0.707106788 -0.597407894 0.37829076 0.707106717 -0.8090261 -0.58777272 -4.45028769e-08 -0.8090261 -0.58777272 -4.45028769e-08 -0.8090261 -0.58777272 -4.45028769e-08 -0.8090261 -0.58777272 -4.45028769e-08 -4.19676948e-08 -1.79489592e-08 1 -4.19677162e-08 -1.79489698e-08 1 -4.19676984e-08 -1.79489592e-08 1 -4.19677091e-08 -1.79489698e-08 1 -0.572067597 -0.415617804 -0.707107139 -0.572067896 -0.415618101 -0.707106722 -0.57206759 -0.415617829 -0.70710713 -0.572067896 -0.415618101 -0.707106722 -0.572067672 -0.415617981 0.707106974 -0.572067786 -0.415618036 0.707106849 -0.572067665 -0.415618005 0.707106966 -0.572067786 -0.415618036 0.707106849 -0.960168192 -0.279422695 -2.12469438e-08 -0.960168184 -0.279422723 -2.12469459e-08 -0.960168184 -0.279422723 -2.12469459e-08 -0.960168192 -0.279422695 -2.12469438e-08 -1.6310544e-08 -1.9991525e-08 1 -1.63105369e-08 -1.99915214e-08 1 -1.6310544e-08 -1.99915214e-08 1 -1.63105369e-08 -1.99915179e-08 1 -0.678941334 -0.197581639 -0.707106895 -0.67894151 -0.197581682 -0.707106714 -0.678941334 -0.197581639 -0.707106895 -0.67894151 -0.197581682 -0.707106714 -0.678941372 -0.197581694 0.707106843 -0.678941252 -0.19758168 0.707106962 -0.678941372 -0.197581694 0.707106843 -0.678941252 -0.19758168 0.707106962</float_array>
        <technique_common><accessor source="#vfx_kurp_0464-mesh-normals-array" count="80" stride="3"><param name="X" type="float"/><param name="Y" type="float"/><param name="Z" type="float"/></accessor></technique_common>
      </source>
      <source id="vfx_kurp_0464-mesh-uv0">
        <float_array id="vfx_kurp_0464-mesh-uv0-array" count="160">1 1 1 0 0 1 0 0 1 1 1 0 0 1 0 0 1 1 1 0 0 1 0 0 1 1 1 0 0 1 0 0 1 1 1 0 0 1 0 0 1 1 1 0 0 1 0 0 1 1 1 0 0 1 0 0 1 1 1 0 0 1 0 0 1 1 1 0 0 1 0 0 1 1 1 0 0 1 0 0 1 1 1 0 0 1 0 0 1 1 1 0 0 1 0 0 1 1 1 0 0 1 0 0 1 1 1 0 0 1 0 0 1 1 1 0 0 1 0 0 1 1 1 0 0 1 0 0 1 1 1 0 0 1 0 0 1 1 1 0 0 1 0 0 1 1 1 0 0 1 0 0 1 1 1 0 0 1 0 0</float_array>
        <technique_common><accessor source="#vfx_kurp_0464-mesh-uv0-array" count="80" stride="2"><param name="S" type="float"/><param name="T" type="float"/></accessor></technique_common>
      </source>
      <source id="vfx_kurp_0464-mesh-colors">
        <float_array id="vfx_kurp_0464-mesh-colors-array" count="320">0.0392156877 0.0392156877 0.0392156877 0 0.0392156877 0.0392156877 0.0392156877 0 0.0392156877 0.0392156877 0.0392156877 0 0.0392156877 0.0392156877 0.0392156877 0 0.0392156877 0.0392156877 0.0392156877 0 0.0392156877 0.0392156877 0.0392156877 0 0.0392156877 0.0392156877 0.0392156877 0 0.0392156877 0.0392156877 0.0392156877 0 0.0392156877 0.0392156877 0.0392156877 0 0.0392156877 0.0392156877 0.0392156877 0 0.0392156877 0.0392156877 0.0392156877 0 0.0392156877 0.0392156877 0.0392156877 0 0.0392156877 0.0392156877 0.0392156877 0 0.0392156877 0.0392156877 0.0392156877 0 0.0392156877 0.0392156877 0.0392156877 0 0.0392156877 0.0392156877 0.0392156877 0 0.0392156877 0.0392156877 0.0392156877 0 0.0392156877 0.0392156877 0.0392156877 0 0.0392156877 0.0392156877 0.0392156877 0 0.0392156877 0.0392156877 0.0392156877 0 0.0392156877 0.0392156877 0.0392156877 0 0.0392156877 0.0392156877 0.0392156877 0 0.0392156877 0.0392156877 0.0392156877 0 0.0392156877 0.0392156877 0.0392156877 0 0.0392156877 0.0392156877 0.0392156877 0 0.0392156877 0.0392156877 0.0392156877 0 0.0392156877 0.0392156877 0.0392156877 0 0.0392156877 0.0392156877 0.0392156877 0 0.0392156877 0.0392156877 0.0392156877 0 0.0392156877 0.0392156877 0.0392156877 0 0.0392156877 0.0392156877 0.0392156877 0 0.0392156877 0.0392156877 0.0392156877 0 0.0392156877 0.0392156877 0.0392156877 0 0.0392156877 0.0392156877 0.0392156877 0 0.0392156877 0.0392156877 0.0392156877 0 0.0392156877 0.0392156877 0.0392156877 0 0.0392156877 0.0392156877 0.0392156877 0 0.0392156877 0.0392156877 0.0392156877 0 0.0392156877 0.0392156877 0.0392156877 0 0.0392156877 0.0392156877 0.0392156877 0 0.0392156877 0.0392156877 0.0392156877 0 0.0392156877 0.0392156877 0.0392156877 0 0.0392156877 0.0392156877 0.0392156877 0 0.0392156877 0.0392156877 0.0392156877 0 0.0392156877 0.0392156877 0.0392156877 0 0.0392156877 0.0392156877 0.0392156877 0 0.0392156877 0.0392156877 0.0392156877 0 0.0392156877 0.0392156877 0.0392156877 0 0.0392156877 0.0392156877 0.0392156877 0 0.0392156877 0.0392156877 0.0392156877 0 0.0392156877 0.0392156877 0.0392156877 0 0.0392156877 0.0392156877 0.0392156877 0 0.0392156877 0.0392156877 0.0392156877 0 0.0392156877 0.0392156877 0.0392156877 0 0.0392156877 0.0392156877 0.0392156877 0 0.0392156877 0.0392156877 0.0392156877 0 0.0392156877 0.0392156877 0.0392156877 0 0.0392156877 0.0392156877 0.0392156877 0 0.0392156877 0.0392156877 0.0392156877 0 0.0392156877 0.0392156877 0.0392156877 0 0.0392156877 0.0392156877 0.0392156877 0 0.0392156877 0.0392156877 0.0392156877 0 0.0392156877 0.0392156877 0.0392156877 0 0.0392156877 0.0392156877 0.0392156877 0 0.0392156877 0.0392156877 0.0392156877 0 0.0392156877 0.0392156877 0.0392156877 0 0.0392156877 0.0392156877 0.0392156877 0 0.0392156877 0.0392156877 0.0392156877 0 0.0392156877 0.0392156877 0.0392156877 0 0.0392156877 0.0392156877 0.0392156877 0 0.0392156877 0.0392156877 0.0392156877 0 0.0392156877 0.0392156877 0.0392156877 0 0.0392156877 0.0392156877 0.0392156877 0 0.0392156877 0.0392156877 0.0392156877 0 0.0392156877 0.0392156877 0.0392156877 0 0.0392156877 0.0392156877 0.0392156877 0 0.0392156877 0.0392156877 0.0392156877 0 0.0392156877 0.0392156877 0.0392156877 0 0.0392156877 0.0392156877 0.0392156877 0 0.0392156877 0.0392156877 0.0392156877 0</float_array>
        <technique_common><accessor source="#vfx_kurp_0464-mesh-colors-array" count="80" stride="4"><param name="R" type="float"/><param name="G" type="float"/><param name="B" type="float"/><param name="A" type="float"/></accessor></technique_common>
      </source>
      <vertices id="vfx_kurp_0464-mesh-vertices"><input semantic="POSITION" source="#vfx_kurp_0464-mesh-positions"/></vertices>
      <triangles material="PreviewMaterial" count="40">
        <input semantic="VERTEX" source="#vfx_kurp_0464-mesh-vertices" offset="0"/>
        <input semantic="NORMAL" source="#vfx_kurp_0464-mesh-normals" offset="1"/>
        <input semantic="TEXCOORD" source="#vfx_kurp_0464-mesh-uv0" offset="2" set="0"/>
        <input semantic="COLOR" source="#vfx_kurp_0464-mesh-colors" offset="3" set="0"/>
        <p>0 0 0 0 1 1 1 1 2 2 2 2 3 3 3 3 2 2 2 2 1 1 1 1 4 4 4 4 5 5 5 5 6 6 6 6 7 7 7 7 6 6 6 6 5 5 5 5 8 8 8 8 9 9 9 9 10 10 10 10 11 11 11 11 10 10 10 10 9 9 9 9 12 12 12 12 13 13 13 13 14 14 14 14 15 15 15 15 14 14 14 14 13 13 13 13 16 16 16 16 17 17 17 17 18 18 18 18 19 19 19 19 18 18 18 18 17 17 17 17 20 20 20 20 21 21 21 21 22 22 22 22 23 23 23 23 22 22 22 22 21 21 21 21 24 24 24 24 25 25 25 25 26 26 26 26 27 27 27 27 26 26 26 26 25 25 25 25 28 28 28 28 29 29 29 29 30 30 30 30 31 31 31 31 30 30 30 30 29 29 29 29 32 32 32 32 33 33 33 33 34 34 34 34 35 35 35 35 34 34 34 34 33 33 33 33 36 36 36 36 37 37 37 37 38 38 38 38 39 39 39 39 38 38 38 38 37 37 37 37 40 40 40 40 41 41 41 41 42 42 42 42 43 43 43 43 42 42 42 42 41 41 41 41 44 44 44 44 45 45 45 45 46 46 46 46 47 47 47 47 46 46 46 46 45 45 45 45 48 48 48 48 49 49 49 49 50 50 50 50 51 51 51 51 50 50 50 50 49 49 49 49 52 52 52 52 53 53 53 53 54 54 54 54 55 55 55 55 54 54 54 54 53 53 53 53 56 56 56 56 57 57 57 57 58 58 58 58 59 59 59 59 58 58 58 58 57 57 57 57 60 60 60 60 61 61 61 61 62 62 62 62 63 63 63 63 62 62 62 62 61 61 61 61 64 64 64 64 65 65 65 65 66 66 66 66 67 67 67 67 66 66 66 66 65 65 65 65 68 68 68 68 69 69 69 69 70 70 70 70 71 71 71 71 70 70 70 70 69 69 69 69 72 72 72 72 73 73 73 73 74 74 74 74 75 75 75 75 74 74 74 74 73 73 73 73 76 76 76 76 77 77 77 77 78 78 78 78 79 79 79 79 78 78 78 78 77 77 77 77</p>
      </triangles>
    </mesh></geometry>
  </library_geometries>
  <library_visual_scenes>
    <visual_scene id="Scene" name="Scene">
      <node id="vfx_kurp_0464" name="vfx_kurp_0464" type="NODE">
        <instance_geometry url="#vfx_kurp_0464-mesh"><bind_material><technique_common><instance_material symbol="PreviewMaterial" target="#PreviewMaterial"><bind_vertex_input semantic="UVSET0" input_semantic="TEXCOORD" input_set="0"/></instance_material></technique_common></bind_material></instance_geometry>
      </node>
    </visual_scene>
  </library_visual_scenes>
  <scene><instance_visual_scene url="#Scene"/></scene>
</COLLADA>
