<?xml version="1.0" encoding="utf-8"?>
<COLLADA xmlns="http://www.collada.org/2005/11/COLLADASchema" version="1.4.1">
  <asset>
    <contributor><authoring_tool>Morrobroom Kurpulio VFX preview converter</authoring_tool></contributor>
    <unit name="unit" meter="1"/>
    <up_axis>Z_UP</up_axis>
  </asset>
  <library_images>
    <image id="VFXTexture" name="darkmap_newgen-1.dds">
      <init_from>../../../Textures/Kurp/darkmap_newgen-1.dds</init_from>
    </image>
  </library_images>
  <library_effects>
    <effect id="PreviewEffect">
      <profile_COMMON>
        <newparam sid="VFXTexture-surface">
          <surface type="2D"><init_from>VFXTexture</init_from></surface>
        </newparam>
        <newparam sid="VFXTexture-sampler">
          <sampler2D><source>VFXTexture-surface</source></sampler2D>
        </newparam>
        <technique sid="common"><phong>
          <emission><color>0.08 0.08 0.08 1</color></emission>
          <ambient><color>0.2 0.2 0.2 1</color></ambient>
          <diffuse><texture texture="VFXTexture-sampler" texcoord="UVSET0"/></diffuse>
          <specular><color>0.15 0.15 0.15 1</color></specular>
          <shininess><float>8</float></shininess>
          <transparent opaque="A_ONE"><texture texture="VFXTexture-sampler" texcoord="UVSET0"/></transparent>
          <transparency><float>1</float></transparency>
        </phong></technique>
      </profile_COMMON>
      <extra><technique profile="GOOGLEEARTH"><double_sided>1</double_sided></technique></extra>
    </effect>
  </library_effects>
  <library_materials><material id="PreviewMaterial" name="PreviewMaterial"><instance_effect url="#PreviewEffect"/></material></library_materials>
  <library_geometries>
    <geometry id="vfx_kurp_1154-mesh" name="vfx_kurp_1154"><mesh>
      <source id="vfx_kurp_1154-mesh-positions">
        <float_array id="vfx_kurp_1154-mesh-positions-array" count="1152">1.66300095e-07 1.7643517 0.146364746 1.4585655e-07 1.50791723 0.0503748174 1.6059076e-07 1.4398128 0.908310841 1.46335795e-07 1.23481809 0.890166004 1.16412289e-07 1.23884307 -0.0245301565 1.25893529e-07 1.02520614 0.889578907 7.82437098e-08 0.958741637 -0.0782118032 9.82464713e-08 0.803126275 0.904710645 5.82409446e-08 1.11435696 -1.06113426 1.06931057e-07 1.45248001 -0.938639175 1.45377316e-07 1.78101643 -0.789416366 1.72009437e-07 2.08889059 -0.615581438 1.86879181e-07 2.37455694 -0.418390782 1.77742893e-07 2.00814608 0.263439544 1.902263e-07 2.63685796 -0.199499461 1.80185002e-07 2.23930096 0.401599133 1.82464235e-07 2.87519801 0.039211259 1.73626315e-07 2.45781562 0.5608437 1.64131341e-07 3.08962433 0.295862974 1.58066902e-07 2.66369052 0.741173276 1.38700437e-07 3.25696773 0.542041483 1.35976538e-07 2.83650714 0.919643658 1.05899563e-07 3.40505326 0.798030616 1.06787842e-07 2.99826702 1.11354461 1.686066e-07 1.64173527 0.945269726 1.70143675e-07 1.84174383 1.00269784 1.64788388e-07 2.04043312 1.08247602 1.52002511e-07 2.2377569 1.18648342 1.33252675e-07 2.41604678 1.29724585 1.07676106e-07 2.59148093 1.42905891 7.4830609e-08 2.76390969 1.58338817 7.04156717e-08 3.15011749 1.32397493 3.44152036e-08 2.93219163 1.76051005 2.68601101e-08 3.29205923 1.55093489 -1.37922039e-08 3.09520757 1.96043539 -2.38787898e-08 3.42409182 1.794424 6.60007533e-08 3.53632541 1.06456158 1.93050372e-08 3.6519267 1.34135984 -3.39654057e-08 3.75297613 1.62841257 -9.36630818e-08 3.84050741 1.92591427 -8.18011435e-08 3.54621552 2.05444246 -1.59705182e-07 3.9154321 2.23420424 -1.46906933e-07 3.65843047 2.33099103 -2.30964938e-07 3.97697797 2.54874627 -2.18320625e-07 3.75951611 2.62011392 -2.05676391e-07 3.54205425 2.69148157 -1.34108676e-07 3.40142863 2.42777756 -6.99392052e-08 3.25192364 2.18297064 4.98809736e-09 0.564632303 -1.73515313 8.77103149e-09 0.468642553 -1.4787187 1.6333345e-07 1.32657852 -1.41061433 1.7729205e-07 1.30843381 -1.20561973 8.64549682e-09 0.393737579 -1.20964454 1.88411667e-07 1.30784675 -0.996007738 4.6653684e-09 0.340055955 -0.929543018 1.96582562e-07 1.32297844 -0.773927801 -1.87251838e-07 -0.642866619 -1.08515824 -1.7112065e-07 -0.520371511 -1.42328131 -1.59750015e-07 -0.37114884 -1.75181783 -1.5335725e-07 -0.197313882 -2.05969201 -1.51846971e-07 -0.000123272132 -2.34535854 -2.70323754e-09 0.681707116 -1.97894774 -1.55054546e-07 0.218767987 -2.60765951 -1.43030101e-08 0.819866814 -2.21010249 -1.62760642e-07 0.457478832 -2.84599966 -2.98112489e-08 0.979111272 -2.42861727 -1.7471768e-07 0.714130546 -3.06042599 -4.92279001e-08 1.15944085 -2.63449218 -1.88244812e-07 0.960308947 -3.22776951 -7.04645671e-08 1.33791125 -2.80730903 -2.04752754e-07 1.21629796 -3.37585493 -9.48001195e-08 1.53181231 -2.96906878 1.46440474e-07 1.36353739 -1.61253682 1.26448512e-07 1.42096561 -1.8125455 1.03138138e-07 1.50074374 -2.01123485 7.62618638e-08 1.60475104 -2.2085585 4.73156815e-08 1.71551357 -2.38684852 1.51524984e-08 1.84732655 -2.56228276 -2.04259595e-08 2.00165586 -2.73471146 -1.22326957e-07 1.74224252 -3.12091938 -5.95065602e-08 2.17877769 -2.90299346 -1.53045163e-07 1.96920223 -3.26286091 -1.02140804e-07 2.37870303 -3.0660094 -1.86954598e-07 2.21269159 -3.39489371 -2.24227974e-07 1.48282917 -3.5071273 -2.4658372e-07 1.75962708 -3.6227285 -2.71768393e-07 2.04668016 -3.72377802 -2.99761425e-07 2.34418181 -3.81130936 -2.24055387e-07 2.4727103 -3.51701763 -3.30566321e-07 2.65247197 -3.88623433 -2.64347537e-07 2.74925856 -3.62923243 -3.63624751e-07 2.9670138 -3.94777992 -3.07368357e-07 3.0383817 -3.73031828 -2.51112076e-07 3.10974938 -3.51285639 -1.98128681e-07 2.84604537 -3.37223077 -1.48349348e-07 2.60123854 -3.22272569 -3.02496173e-07 -1.31688527 -0.535434644 -2.45498693e-07 -1.060451 -0.439444758 -2.10197476e-07 -0.992346282 -1.29738059 -1.62545782e-07 -0.787351721 -1.27923585 -1.93684819e-07 -0.791376874 -0.364539757 -1.19686991e-07 -0.577739737 -1.27864867 -1.47265107e-07 -0.511275358 -0.310858017 -8.02677927e-08 -0.355659901 -1.29378038 -2.14262427e-07 -0.666890844 0.672064381 -2.67682627e-07 -1.00501384 0.549569231 -3.28451617e-07 -1.33355026 0.400346421 -3.94794889e-07 -1.64142432 0.226511353 -4.66194002e-07 -1.92709074 0.0293208686 -3.64677278e-07 -1.56067978 -0.652509333 -5.42059571e-07 -2.18939164 -0.189570562 -4.32041988e-07 -1.79183457 -0.79066921 -6.21798346e-07 -2.42773168 -0.428281281 -5.04590249e-07 -2.01034912 -0.949913651 -7.04886187e-07 -2.64215799 -0.684933229 -5.8232216e-07 -2.2162242 -1.1302433 -7.80853376e-07 -2.80950128 -0.931111614 -6.56601701e-07 -2.38904076 -1.30871373 -8.5837482e-07 -2.9575867 -1.18710062 -7.34640515e-07 -2.55080046 -1.50261462 -2.63160531e-07 -1.19426872 -1.3343395 -3.22024372e-07 -1.39427736 -1.39176777 -3.87382164e-07 -1.59296664 -1.47154595 -4.59758146e-07 -1.79029036 -1.57555341 -5.32350045e-07 -1.96858023 -1.68631585 -6.10906258e-07 -2.14401441 -1.81812889 -6.95823797e-07 -2.31644307 -1.97245823 -8.16870285e-07 -2.70265115 -1.71304518 -7.87058936e-07 -2.48472502 -2.14958011 -9.03291009e-07 -2.84459255 -1.94000501 -8.84495777e-07 -2.64774089 -2.3495055 -9.93902681e-07 -2.97662514 -2.18349412 -9.3791673e-07 -3.08885895 -1.45363195 -1.01952304e-06 -3.20446009 -1.7304299 -1.10330955e-06 -3.30550939 -2.01748274 -1.189441e-06 -3.39304088 -2.31498469 -1.08870539e-06 -3.098749 -2.44351288 -1.2781097e-06 -3.46796536 -2.62327441 -1.18769904e-06 -3.21096373 -2.72006119 -1.36795571e-06 -3.52951117 -2.93781649 -1.28963982e-06 -3.31204934 -3.00918411 -1.21132386e-06 -3.09458749 -3.08055175 -1.09728843e-06 -2.95396192 -2.8168477 -9.87969712e-07 -2.80445693 -2.57204079 -1.41184169e-07 -0.117166225 1.34608408 -1.08413129e-07 -0.021176475 1.08964966 -2.12940187e-07 -0.879112509 1.02154559 -1.93502039e-07 -0.860967821 0.816550963 -8.59180405e-08 0.0537282073 0.820575478 -1.82205152e-07 -0.860380844 0.606939006 -7.36867699e-08 0.107409804 0.540473923 -1.7860392e-07 -0.87551267 0.384859161 3.12303773e-08 1.09033236 0.696088837 1.0369103e-08 0.967837376 1.0342119 -2.33242314e-08 0.818614849 1.36274852 -6.94281627e-08 0.644779952 1.67062265 -1.27467759e-07 0.447589545 1.95628922 -1.84231086e-07 -0.23424086 1.58987865 -1.96778638e-07 0.228698394 2.21859032 -2.37553927e-07 -0.372400503 1.82103346 -2.76573382e-07 -0.0100123254 2.45693036 -3.01152635e-07 -0.531644837 2.03954814 -3.66037084e-07 -0.266664056 2.67135692 -3.75027296e-07 -0.711974375 2.24542334 -4.53908007e-07 -0.512842224 2.83870046 -4.50160523e-07 -0.890444773 2.41824019 -5.47722457e-07 -0.768831357 2.98678598 -5.33052518e-07 -1.08434578 2.58000001 -2.40994415e-07 -0.916071278 1.22346807 -2.78329189e-07 -0.973499347 1.42347668 -3.25731882e-07 -1.05327745 1.62216606 -3.84017488e-07 -1.15728469 1.81948977 -4.46413015e-07 -1.26804717 1.99777985 -5.18382591e-07 -1.39986003 2.17321398 -6.00567186e-07 -1.55418935 2.34564291 -6.2412754e-07 -1.29477594 2.73185066 -6.93137082e-07 -1.731311 2.51392487 -7.23385672e-07 -1.52173565 2.87379219 -7.96147088e-07 -1.93123628 2.67694087 -8.30826754e-07 -1.76522465 3.0058249 -6.47687868e-07 -1.03536234 3.11805837 -7.53634254e-07 -1.31216024 3.23365957 -8.65506489e-07 -1.59921322 3.33470921 -9.83342549e-07 -1.89671506 3.42224083 -9.46450998e-07 -2.0252433 3.12794889 -1.10724843e-06 -2.20500487 3.49716571 -1.07025842e-06 -2.30179171 3.24016402 -1.23529587e-06 -2.51954684 3.55871165 -1.20059202e-06 -2.59091449 3.34124978 -1.16588811e-06 -2.66228219 3.12378786 -1.03326841e-06 -2.39857852 2.98316237 -9.09559439e-07 -2.15377149 2.83365701 -8.03097527e-07 -2.89086882 1.02123621 -9.32183551e-07 -3.23045448 0.996387645 -8.88776228e-07 -2.91682152 1.69622405 -1.02430643e-06 -3.29544048 1.60337502 -1.06997879e-06 -3.57829754 0.947637996 -1.16521277e-06 -3.67116199 1.48611516 -1.21648288e-06 -3.9343972 0.874987207 -1.31156603e-06 -4.04491798 1.34557961 -1.37169612e-06 -4.29875417 0.778435462 -1.46353864e-06 -4.41777518 1.18264363 -1.53561858e-06 -4.67136877 0.657982386 -1.62137008e-06 -4.79084346 0.997937338 -6.06753913e-07 -2.58446149 0.281084969 -5.70400412e-07 -2.23439504 0.999002594 -5.07311891e-07 -2.32275681 0.195296783 -6.82720471e-07 -2.55954 1.02218362 -7.17418807e-07 -2.86491612 0.346248379 -8.40060669e-07 -3.16546847 0.389400274 -9.74744695e-07 -3.4854329 0.409160552 -1.12139972e-06 -3.82387643 0.404394802 -1.27985361e-06 -4.17973316 0.374227292 -1.44986716e-06 -4.55189408 0.318027435 -1.62956603e-06 -4.93556002 0.236964361 -1.70610403e-06 -5.04723614 0.515737231 -1.78264204e-06 -5.1589118 0.794510134 -4.55607974e-07 -1.87949992 0.944161368 -4.10525496e-07 -2.05178874 0.0846795727 -3.51711804e-07 -1.53513782 0.858832058 -3.2672177e-07 -1.80402255 -0.0477455691 -2.58711741e-07 -1.20130817 0.743014293 -2.54924406e-07 -1.57760877 -0.20034709 -1.76607884e-07 -0.878011286 0.596708599 -1.94111703e-07 -1.37015531 -0.372136435 -1.05400183e-07 -0.565247056 0.419914602 -1.43341028e-07 -1.17902164 -0.562881837 -4.50886682e-08 -0.263015562 0.212632425 -1.01850788e-07 -1.00164158 -0.773076753 4.14349358e-09 0.0271840756 -0.0236337532 -6.81417768e-08 -0.829545594 -1.00906119 7.64287578e-08 0.883913706 0.961793638 1.16734506e-08 0.475610463 1.19834158 -6.7459335e-08 0.0485275467 1.40271112 -1.59104062e-07 -0.385867247 1.56555365 -2.62499061e-07 -0.825007407 1.68637586 -3.76701846e-07 -1.2662532 1.76540968 -5.00690556e-07 -1.70721142 1.80364332 -6.33489029e-07 -2.14603365 1.80270847 -7.58686975e-07 -2.53461829 1.76328203 -4.92833405e-07 -0.992036547 -3.30913689 -5.6689136e-07 -0.967187762 -3.64872229 -6.76513679e-07 -1.66702435 -3.33509006 -7.40854157e-07 -1.57417504 -3.71370882 -6.44802745e-07 -0.918437989 -3.99656547 -8.0732239e-07 -1.45691497 -4.08943008 -7.26567267e-07 -0.845786858 -4.35266499 -8.76019748e-07 -1.31637914 -4.46318587 -8.12185243e-07 -0.749234895 -4.7170217 -9.47089816e-07 -1.15344303 -4.83604318 -9.0165655e-07 -0.62878182 -5.08963631 -1.02069961e-06 -0.968736522 -5.20911121 -2.30996322e-07 -0.251885569 -3.0027291 -3.55903958e-07 -0.969803395 -2.65266314 -1.58116978e-07 -0.16609757 -2.74102427 -4.22628698e-07 -0.992984192 -2.97780808 -3.09153129e-07 -0.31704887 -3.28318362 -3.92928587e-07 -0.36020064 -3.58373607 -4.82282995e-07 -0.379960576 -3.90370036 -5.77114845e-07 -0.375194702 -4.24214399 -6.77280643e-07 -0.34502685 -4.59800058 -7.82613519e-07 -0.288826776 -4.97016126 -8.92140251e-07 -0.207763578 -5.3538273 -9.93909119e-07 -0.486536198 -5.46550364 -1.09567811e-06 -0.7653091 -5.5771793 -2.86418431e-07 -0.914962402 -2.29776804 -8.55429194e-08 -0.055480593 -2.47005621 -2.21635148e-07 -0.829633248 -1.9534058 -1.915522e-08 0.0769444322 -2.22229003 -1.61553992e-07 -0.713815716 -1.61957617 4.14967863e-08 0.229545829 -1.99587614 -1.06175097e-07 -0.567510295 -1.29627926 9.6924334e-08 0.401334994 -1.78842263 -5.54983592e-08 -0.390716527 -0.983514944 1.47636361e-07 0.592080236 -1.59728877 -9.52381525e-09 -0.183434536 -0.681283316 1.94081478e-07 0.802274925 -1.41990859 3.15645906e-08 0.0528314134 -0.391083571 2.37437361e-07 1.03825925 -1.24781248 -1.74308179e-07 -0.932596425 0.465645338 -2.13129115e-07 -1.16914403 0.0573419854 -2.5863308e-07 -1.3735133 -0.369741 -3.09274521e-07 -1.53635555 -0.80413592 -3.64604818e-07 -1.6571775 -1.24327609 -4.24115056e-07 -1.73621091 -1.6845218 -4.8729401e-07 -1.7744443 -2.12548001 -5.53690975e-07 -1.7735092 -2.56430225 -6.14261001e-07 -1.73408246 -2.95288671 1.63175324e-07 3.33833518 -1.41030418 1.36641284e-07 3.67792063 -1.38545533 8.53341435e-08 3.36428804 -2.08529183 6.4143682e-08 3.742907 -1.9924428 1.0389173e-07 4.0257637 -1.33670569 3.67020506e-08 4.11862831 -1.87518266 6.49267851e-08 4.38186336 -1.2640549 3.22000578e-09 4.49238435 -1.73464705 1.97462592e-08 4.74622019 -1.16750281 -3.61528957e-08 4.86524131 -1.57171086 -3.16497163e-08 5.11883479 -1.04704973 -8.13208502e-08 5.23830959 -1.38700456 2.66986476e-07 3.03192755 -0.670153017 1.97622878e-07 2.68186129 -1.38807069 2.87395889e-07 2.7702229 -0.584365063 1.83493891e-07 3.00700642 -1.41125176 2.41016507e-07 3.31238207 -0.735316318 2.09138963e-07 3.61293452 -0.778468088 1.71081507e-07 3.93289895 -0.798228366 1.26633543e-07 4.27134223 -0.793462399 7.5645414e-08 4.62719907 -0.763294764 1.80213388e-08 4.99935999 -0.707094907 -4.58136712e-08 5.38302579 -0.626031492 -8.86264201e-08 5.49470191 -0.904804362 -1.31439318e-07 5.60637757 -1.18357726 2.05239993e-07 2.32696637 -1.33322974 3.02352195e-07 2.49925477 -0.473747916 2.05141693e-07 1.98260421 -1.24790049 3.11332618e-07 2.25148859 -0.341322891 1.97328015e-07 1.6487746 -1.13208293 3.14754924e-07 2.02507482 -0.188721486 1.81798926e-07 1.3254777 -0.985777377 3.12918412e-07 1.81762125 -0.0169322664 1.58554447e-07 1.01271339 -0.808983473 3.05968325e-07 1.62648756 0.173813046 1.27594591e-07 0.710481889 -0.601701465 2.93891266e-07 1.44910742 0.384007914 8.91888898e-08 0.420282166 -0.365435397 2.75628723e-07 1.27701134 0.619992214 -9.72509382e-08 -0.436446976 -1.35086303 -3.8702096e-08 -0.0281437 -1.58741078 1.11405832e-08 0.398939293 -1.79178017 5.06794201e-08 0.833334008 -1.95462241 7.99010625e-08 1.27247422 -2.07544456 9.89508056e-08 1.71372 -2.15447814 1.08127781e-07 2.15467828 -2.19271171 1.07849906e-07 2.59350033 -2.19177657 1.00001261e-07 2.982085 -2.15235009 -1.47090163e-07 1.43950248 2.92006743 -2.28652228e-07 1.41465379 3.25965319 -1.26929785e-07 2.11449034 2.94602054 -2.19309978e-07 2.021641 3.32463933 -3.21285657e-07 1.36590386 3.60749606 -3.21189707e-07 1.90438105 3.70036092 -4.24990167e-07 1.29325301 3.96359577 -4.32327742e-07 1.76384522 4.07411671 -5.39766008e-07 1.19670114 4.32795285 -5.52603135e-07 1.60090918 4.44697397 -6.65613163e-07 1.07624784 4.7005672 -6.81992739e-07 1.41620267 4.820042 -1.08772475e-07 0.699351375 2.61365975 -1.68749532e-08 1.41726926 2.26359373 -6.18003799e-08 0.613563422 2.35195509 -7.65992816e-08 1.44045009 2.58873865 -1.67250505e-07 0.764514723 2.89411444 -2.37994497e-07 0.807666446 3.19466672 -3.21381537e-07 0.8274266 3.51463126 -4.1765264e-07 0.822660725 3.85307489 -5.26928875e-07 0.792492874 4.20893148 -6.49233666e-07 0.736293017 4.5810924 -7.83240834e-07 0.655229601 4.9647582 -8.00822695e-07 0.934002346 5.07643443 -8.18404596e-07 1.21277534 5.18811044 3.60490349e-08 1.36242815 1.90869852 -2.26317406e-08 0.502946275 2.08098696 7.50636398e-08 1.27709906 1.56433644 3.76471522e-09 0.370521312 1.83322073 1.00168852e-07 1.16128142 1.23050668 1.8332374e-08 0.217919861 1.60680678 1.11364724e-07 1.01497591 0.907209749 2.18810185e-08 0.0461305789 1.39935326 1.08651209e-07 0.838182038 0.594445407 1.49895839e-08 -0.144614671 1.20821952 9.2028326e-08 0.630900016 0.292213807 -2.0423499e-09 -0.354809476 1.03083933 6.17663873e-08 0.394633993 0.00201407127 -2.99517622e-08 -0.590793879 0.858743257 1.53484538e-07 1.38006187 -0.854715114 1.86099009e-07 1.61660957 -0.446411769 2.02312859e-07 1.8209789 -0.0193287216 2.0084843e-07 1.98382124 0.415066235 1.82005362e-07 2.10464322 0.854206379 1.46362567e-07 2.18367673 1.29545221 9.47297798e-08 2.22191014 1.73641041 2.80504433e-08 2.22097517 2.17523275 -4.44261271e-08 2.18154842 2.56381722</float_array>
        <technique_common><accessor source="#vfx_kurp_1154-mesh-positions-array" count="384" stride="3"><param name="X" type="float"/><param name="Y" type="float"/><param name="Z" type="float"/></accessor></technique_common>
      </source>
      <source id="vfx_kurp_1154-mesh-normals">
        <float_array id="vfx_kurp_1154-mesh-normals-array" count="1152">-1 5.67492257e-08 1.62152353e-08 -1 8.56571138e-08 2.8070234e-08 -1 5.56245621e-08 1.68075827e-08 -1 8.52434791e-08 2.87242286e-08 -1 1.14343534e-07 3.68399879e-08 -1 1.14893108e-07 3.74118126e-08 -1 1.28511711e-07 4.04616339e-08 -1 1.27250799e-07 4.04965241e-08 -1 1.29217314e-07 4.08078538e-08 -1 1.16731813e-07 3.77613744e-08 -1 8.85054661e-08 2.95841179e-08 -1 5.98144543e-08 1.83106398e-08 -1 3.16036401e-08 4.01683018e-09 -1 2.8497491e-08 1.34335295e-09 -1 4.63033399e-09 -1.30950238e-08 -1 1.6744315e-09 -1.62722014e-08 -1 -2.0409278e-08 -3.26069296e-08 -1 -2.30413959e-08 -3.61464611e-08 -1 -4.3101686e-08 -5.40571519e-08 -1 -4.54766198e-08 -5.79950037e-08 -1 -6.23673158e-08 -7.57290667e-08 -1 -6.43026025e-08 -7.97604083e-08 -1 -7.78647042e-08 -9.65384526e-08 -1 -7.92930537e-08 -1.00407043e-07 -1 2.67794237e-08 1.78149085e-09 -1 0 -1.60332405e-08 -1 -2.5330257e-08 -3.60949738e-08 -1 -4.77461409e-08 -5.80375228e-08 -1 -6.67702438e-08 -8.01774735e-08 -1 -8.14988003e-08 -1.00808747e-07 -1 -9.37688706e-08 -1.21096422e-07 -1 -9.18801372e-08 -1.20785274e-07 -1 -1.03871779e-07 -1.40818907e-07 -1 -1.02300201e-07 -1.40628962e-07 -1 -1.12043951e-07 -1.59737449e-07 -1 -1.10769375e-07 -1.59677681e-07 -1 -9.09222712e-08 -1.17221127e-07 -1 -1.01740897e-07 -1.3746392e-07 -1 -1.10519103e-07 -1.56960588e-07 -1 -1.17494379e-07 -1.75495109e-07 -1 -1.17528331e-07 -1.77755725e-07 -1 -1.22966677e-07 -1.9306346e-07 -1 -1.22882775e-07 -1.94876896e-07 -1 -1.25321524e-07 -2.02691544e-07 -1 -1.24877945e-07 -2.03340272e-07 -1 -1.25662459e-07 -2.03593653e-07 -1 -1.23621839e-07 -1.94667597e-07 -1 -1.18535729e-07 -1.7769234e-07 -1 1.67211048e-07 9.42465398e-08 -1 1.79066041e-07 6.53386752e-08 -1 1.67803398e-07 9.53712665e-08 -1 1.79720045e-07 6.57523395e-08 -1 1.87835792e-07 3.6652267e-08 -1 1.88407623e-07 3.61027111e-08 -1 1.91457438e-07 2.2484118e-08 -1 1.91492324e-07 2.37450192e-08 -1 1.91803652e-07 2.17785156e-08 -1 1.8875718e-07 3.42639912e-08 -1 1.80579932e-07 6.24903259e-08 -1 1.69306459e-07 9.11813242e-08 -1 1.55012648e-07 1.19392158e-07 -1 1.52339156e-07 1.22498302e-07 -1 1.37900787e-07 1.46365489e-07 -1 1.34723624e-07 1.49321398e-07 -1 1.18388893e-07 1.71405082e-07 -1 1.14849361e-07 1.740372e-07 -1 9.69386968e-08 1.94097477e-07 -1 9.30008618e-08 1.96472386e-07 -1 7.52667363e-08 2.13363184e-07 -1 7.12354222e-08 2.15298437e-07 -1 5.4457452e-08 2.28860559e-07 -1 5.05887772e-08 2.30288898e-07 -1 1.527773e-07 1.24216354e-07 -1 1.3496259e-07 1.51437126e-07 -1 1.14900841e-07 1.76326096e-07 -1 9.29583259e-08 1.98741932e-07 -1 7.08183976e-08 2.1776593e-07 -1 5.01870054e-08 2.32494675e-07 -1 2.98993851e-08 2.44764678e-07 -1 3.02105145e-08 2.42875924e-07 -1 1.01769471e-08 2.5486764e-07 -1 1.0366849e-08 2.532961e-07 -1 -8.74137501e-09 2.63039762e-07 -1 -8.68165625e-09 2.61765173e-07 -1 3.3774699e-08 2.41918101e-07 -1 1.35318371e-08 2.52736777e-07 -1 -5.96466728e-09 2.61514869e-07 -1 -2.44989961e-08 2.68490278e-07 -1 -2.67597465e-08 2.68524206e-07 -1 -4.20678426e-08 2.7396231e-07 -1 -4.3881201e-08 2.73878671e-07 -1 -5.16956852e-08 2.76317391e-07 -1 -5.23440605e-08 2.75873872e-07 -1 -5.25975797e-08 2.76658356e-07 -1 -4.36717503e-08 2.74617952e-07 -1 -2.66963412e-08 2.6953154e-07 -1 2.45242413e-07 -1.62152078e-08 -1 2.16334523e-07 -2.80702192e-08 -1 2.46367112e-07 -1.68075577e-08 -1 2.16748168e-07 -2.87242131e-08 -1 1.87648086e-07 -3.68399875e-08 -1 1.87098528e-07 -3.74118098e-08 -1 1.73479903e-07 -4.04616395e-08 -1 1.74740841e-07 -4.04965216e-08 -1 1.72774309e-07 -4.08078651e-08 -1 1.85259812e-07 -3.7761383e-08 -1 2.13486171e-07 -2.95841245e-08 -1 2.42177175e-07 -1.8310633e-08 -1 2.70387994e-07 -4.01680803e-09 -1 2.73494137e-07 -1.34331612e-09 -1 2.973613e-07 1.3095046e-08 -1 3.00317223e-07 1.62722149e-08 -1 3.22400891e-07 3.26069603e-08 -1 3.25032982e-07 3.61464397e-08 -1 3.45093311e-07 5.40571533e-08 -1 3.47468201e-07 5.79949869e-08 -1 3.64359053e-07 7.57291212e-08 -1 3.66294295e-07 7.97605202e-08 -1 3.79856312e-07 9.65384125e-08 -1 3.81284657e-07 1.00407063e-07 -1 2.7521218e-07 -1.7814708e-09 -1 3.02432951e-07 1.60332498e-08 -1 3.27321897e-07 3.60949813e-08 -1 3.49737739e-07 5.80375475e-08 -1 3.68761836e-07 8.01775784e-08 -1 3.83490469e-07 1.00808842e-07 -1 3.95760443e-07 1.21096526e-07 -1 3.93871675e-07 1.20785295e-07 -1 4.05863357e-07 1.40819006e-07 -1 4.04291918e-07 1.40629166e-07 -1 4.14035636e-07 1.59737454e-07 -1 4.12760961e-07 1.59677659e-07 -1 3.92913911e-07 1.17221134e-07 -1 4.03732629e-07 1.3746411e-07 -1 4.12510647e-07 1.56960604e-07 -1 4.19485949e-07 1.75495102e-07 -1 4.19519864e-07 1.77755675e-07 -1 4.24958477e-07 1.93063404e-07 -1 4.24874479e-07 1.94876923e-07 -1 4.27313119e-07 2.02691629e-07 -1 4.26869643e-07 2.03340531e-07 -1 4.27654217e-07 2.03593709e-07 -1 4.25613305e-07 1.94667642e-07 -1 4.2052723e-07 1.77692317e-07 -1 1.34780544e-07 -9.42465659e-08 -1 1.22925547e-07 -6.533867e-08 -1 1.34188189e-07 -9.53712702e-08 -1 1.22271547e-07 -6.57523278e-08 -1 1.14155801e-07 -3.66522571e-08 -1 1.13583972e-07 -3.61026983e-08 -1 1.10534173e-07 -2.24841188e-08 -1 1.10499282e-07 -2.37450065e-08 -1 1.10187938e-07 -2.17784789e-08 -1 1.13234419e-07 -3.42639621e-08 -1 1.21411664e-07 -6.24903278e-08 -1 1.32685133e-07 -9.11813504e-08 -1 1.46978926e-07 -1.19392151e-07 -1 1.4965242e-07 -1.22498324e-07 -1 1.64090808e-07 -1.463655e-07 -1 1.67267963e-07 -1.49321429e-07 -1 1.83602681e-07 -1.71405074e-07 -1 1.87142163e-07 -1.74037205e-07 -1 2.05052874e-07 -1.94097494e-07 -1 2.0899064e-07 -1.96472353e-07 -1 2.26724765e-07 -2.13363216e-07 -1 2.30756066e-07 -2.1529842e-07 -1 2.47534071e-07 -2.2886061e-07 -1 2.51402732e-07 -2.30288899e-07 -1 1.49214261e-07 -1.24216372e-07 -1 1.67028956e-07 -1.5143714e-07 -1 1.87090682e-07 -1.76326147e-07 -1 2.09033185e-07 -1.98741953e-07 -1 2.31173182e-07 -2.17766002e-07 -1 2.51804509e-07 -2.32494606e-07 -1 2.72092171e-07 -2.44764692e-07 -1 2.71781095e-07 -2.42876135e-07 -1 2.91814645e-07 -2.54867742e-07 -1 2.91624729e-07 -2.53296217e-07 -1 3.10733079e-07 -2.63039952e-07 -1 3.10673304e-07 -2.6176521e-07 -1 2.68216925e-07 -2.41918296e-07 -1 2.88459628e-07 -2.52736937e-07 -1 3.07956078e-07 -2.61514832e-07 -1 3.26490681e-07 -2.68490056e-07 -1 3.28751317e-07 -2.68524073e-07 -1 3.44059242e-07 -2.73962461e-07 -1 3.45872695e-07 -2.73878668e-07 -1 3.53687512e-07 -2.76317179e-07 -1 3.5433629e-07 -2.75873803e-07 -1 3.54589544e-07 -2.76658593e-07 -1 3.45663309e-07 -2.74617789e-07 -1 3.28687889e-07 -2.69531519e-07 -1 3.75956019e-07 -1.12484919e-07 -1 3.99688226e-07 -1.08997396e-07 -1 3.71760943e-07 -1.12171506e-07 -1 3.95917903e-07 -1.08932282e-07 -1 4.21610087e-07 -1.04177818e-07 -1 4.18321442e-07 -1.04294234e-07 -1 4.41659005e-07 -9.83636594e-08 -1 4.38867571e-07 -9.8597611e-08 -1 4.59854945e-07 -9.18567866e-08 -1 4.57543834e-07 -9.21544481e-08 -1 4.76393369e-07 -8.48819332e-08 -1 4.74528447e-07 -8.52074956e-08 -1 3.52392606e-07 -1.15281351e-07 -1 3.21657127e-07 -1.13831767e-07 -1 3.23203937e-07 -1.14939389e-07 -1 3.5046791e-07 -1.142837e-07 -1 3.7766453e-07 -1.13302592e-07 -1 4.01092691e-07 -1.09661375e-07 -1 4.22695127e-07 -1.04723289e-07 -1 4.42440488e-07 -9.88229674e-08 -1 4.60367454e-07 -9.22547852e-08 -1 4.76640691e-07 -8.52394762e-08 -1 4.84790072e-07 -8.10650219e-08 -1 4.83894407e-07 -8.10523306e-08 -1 4.82968275e-07 -8.10774953e-08 -1 2.90460357e-07 -1.10646181e-07 -1 2.91986346e-07 -1.11872244e-07 -1 2.59320646e-07 -1.04433503e-07 -1 2.60619897e-07 -1.05701655e-07 -1 2.28570143e-07 -9.51355818e-08 -1 2.29475857e-07 -9.63003989e-08 -1 1.99018617e-07 -8.29686249e-08 -1 1.99423917e-07 -8.3862343e-08 -1 1.7137132e-07 -6.83577212e-08 -1 1.71256556e-07 -6.88327946e-08 -1 1.46270624e-07 -5.19319415e-08 -1 1.45543062e-07 -5.17041229e-08 -1 1.34448087e-07 -4.3376916e-08 -1 1.35236667e-07 -4.42203955e-08 -1 1.33941572e-07 -4.28533717e-08 -1 1.44276118e-07 -5.0312525e-08 -1 1.68711618e-07 -6.64840952e-08 -1 1.95792987e-07 -8.10600476e-08 -1 2.24847003e-07 -9.33261653e-08 -1 2.55231211e-07 -1.02848077e-07 -1 2.86183245e-07 -1.09376986e-07 -1 3.17092978e-07 -1.12887623e-07 -1 3.45956148e-07 -1.13664428e-07 -1 2.63480601e-07 2.2496036e-07 -1 2.59993035e-07 2.48692528e-07 -1 2.63167134e-07 2.20765179e-07 -1 2.59927927e-07 2.44922276e-07 -1 2.55173524e-07 2.70614368e-07 -1 2.55290041e-07 2.67325937e-07 -1 2.49359386e-07 2.90663419e-07 -1 2.49593335e-07 2.87871949e-07 -1 2.42852391e-07 3.0885924e-07 -1 2.43149976e-07 3.06547932e-07 -1 2.35877455e-07 3.25397547e-07 -1 2.36203116e-07 3.23532803e-07 -1 2.6627703e-07 2.0139691e-07 -1 2.64827475e-07 1.70661425e-07 -1 2.65935079e-07 1.72208233e-07 -1 2.65279372e-07 1.99472184e-07 -1 2.64298234e-07 2.26668791e-07 -1 2.60657062e-07 2.50097026e-07 -1 2.55718949e-07 2.7169941e-07 -1 2.49818614e-07 2.91444821e-07 -1 2.43250522e-07 3.09372009e-07 -1 2.36235017e-07 3.2564489e-07 -1 2.32060565e-07 3.33794231e-07 -1 2.32047954e-07 3.32898723e-07 -1 2.32073204e-07 3.31972668e-07 -1 2.61641896e-07 1.39464612e-07 -1 2.62867983e-07 1.40990655e-07 -1 2.55429262e-07 1.08324919e-07 -1 2.56697404e-07 1.0962416e-07 -1 2.46131361e-07 7.75744362e-08 -1 2.47296162e-07 7.84801262e-08 -1 2.33964413e-07 4.80228843e-08 -1 2.34858125e-07 4.84281889e-08 -1 2.1935352e-07 2.03755777e-08 -1 2.19828603e-07 2.02608144e-08 -1 2.02927757e-07 -4.72514244e-09 -1 2.0269995e-07 -5.45270068e-09 -1 1.9437274e-07 -1.654768e-08 -1 1.95216212e-07 -1.57591142e-08 -1 1.93849194e-07 -1.70541867e-08 -1 2.01308347e-07 -6.71964548e-09 -1 2.17479892e-07 1.77158581e-08 -1 2.32055843e-07 4.47972569e-08 -1 2.44321945e-07 7.38513052e-08 -1 2.5384383e-07 1.04235489e-07 -1 2.60372721e-07 1.35187501e-07 -1 2.63883353e-07 1.66097276e-07 -1 2.6466013e-07 1.94960414e-07 -1 -7.39645813e-08 1.12484857e-07 -1 -9.76967294e-08 1.08997358e-07 -1 -6.97694652e-08 1.12171447e-07 -1 -9.39263128e-08 1.08932135e-07 -1 -1.19618479e-07 1.04177778e-07 -1 -1.1632991e-07 1.04294194e-07 -1 -1.39667349e-07 9.83635018e-08 -1 -1.36875987e-07 9.85975441e-08 -1 -1.57863406e-07 9.18567115e-08 -1 -1.55552356e-07 9.21543889e-08 -1 -1.7440187e-07 8.48818553e-08 -1 -1.72536957e-07 8.5207407e-08 -1 -5.04010882e-08 1.15281272e-07 -1 -1.96655722e-08 1.13831731e-07 -1 -2.12124336e-08 1.14939381e-07 -1 -4.84763417e-08 1.14283615e-07 -1 -7.56729395e-08 1.13302445e-07 -1 -9.9101078e-08 1.0966134e-07 -1 -1.20703655e-07 1.0472331e-07 -1 -1.40448933e-07 9.88228228e-08 -1 -1.58375902e-07 9.22546808e-08 -1 -1.74649139e-07 8.52393718e-08 -1 -1.82798702e-07 8.10649249e-08 -1 -1.81903077e-07 8.10522308e-08 -1 -1.80976955e-07 8.10773848e-08 -1 1.15311566e-08 1.10646162e-07 -1 1.00052124e-08 1.11872211e-07 -1 4.26709084e-08 1.04433488e-07 -1 4.13716424e-08 1.05701644e-07 -1 7.34214192e-08 9.51355763e-08 -1 7.2515702e-08 9.63003894e-08 -1 1.02972962e-07 8.29686282e-08 -1 1.02567658e-07 8.38623409e-08 -1 1.3062026e-07 6.83577245e-08 -1 1.30735033e-07 6.88328086e-08 -1 1.55720967e-07 5.19319581e-08 -1 1.56448539e-07 5.17041402e-08 -1 1.6754351e-07 4.33769369e-08 -1 1.66754932e-07 4.4220424e-08 -1 1.68050021e-07 4.28533922e-08 -1 1.57715473e-07 5.03125416e-08 -1 1.33279961e-07 6.64841085e-08 -1 1.06198581e-07 8.10600702e-08 -1 7.71445627e-08 9.33261638e-08 -1 4.67603668e-08 1.02848046e-07 -1 1.58082984e-08 1.09376937e-07 -1 -1.51014408e-08 1.12887588e-07 -1 -4.39646138e-08 1.1366439e-07 -1 3.85110009e-08 -2.24960244e-07 -1 4.1998519e-08 -2.48692522e-07 -1 3.8824409e-08 -2.20765163e-07 -1 4.20636034e-08 -2.4492221e-07 -1 4.68180652e-08 -2.70614355e-07 -1 4.67016887e-08 -2.67325707e-07 -1 5.26322261e-08 -2.90663237e-07 -1 5.23982242e-08 -2.87871948e-07 -1 5.91391232e-08 -3.08859236e-07 -1 5.88414108e-08 -3.06548119e-07 -1 6.61140036e-08 -3.25397759e-07 -1 6.57884865e-08 -3.23532763e-07 -1 3.57145508e-08 -2.01396889e-07 -1 3.71641068e-08 -1.70661405e-07 -1 3.60564619e-08 -1.72208252e-07 -1 3.67121921e-08 -1.99472204e-07 -1 3.76933445e-08 -2.26668768e-07 -1 4.13345855e-08 -2.50096912e-07 -1 4.62726156e-08 -2.71699338e-07 -1 5.21728916e-08 -2.91444772e-07 -1 5.87411861e-08 -3.0937176e-07 -1 6.57565165e-08 -3.25645016e-07 -1 6.99309121e-08 -3.33794421e-07 -1 6.99436859e-08 -3.3289864e-07 -1 6.99186513e-08 -3.31972207e-07 -1 4.03496681e-08 -1.39464614e-07 -1 3.91236106e-08 -1.40990607e-07 -1 4.65623327e-08 -1.0832491e-07 -1 4.5294196e-08 -1.09624136e-07 -1 5.5860253e-08 -7.75743878e-08 -1 5.46954438e-08 -7.84800896e-08 -1 6.80271985e-08 -4.80228612e-08 -1 6.71334777e-08 -4.84281588e-08 -1 8.26380888e-08 -2.03755523e-08 -1 8.21630007e-08 -2.02607943e-08 -1 9.90638532e-08 4.7251478e-09 -1 9.92916684e-08 5.45272178e-09 -1 1.07618871e-07 1.65476917e-08 -1 1.06775399e-07 1.57591259e-08 -1 1.08142421e-07 1.70541974e-08 -1 1.00683266e-07 6.71965486e-09 -1 8.45117167e-08 -1.77158427e-08 -1 6.99357658e-08 -4.47972315e-08 -1 5.76696582e-08 -7.38512662e-08 -1 4.81477589e-08 -1.04235475e-07 -1 4.16188803e-08 -1.35187479e-07 -1 3.81082612e-08 -1.66097227e-07 -1 3.7331459e-08 -1.94960438e-07</float_array>
        <technique_common><accessor source="#vfx_kurp_1154-mesh-normals-array" count="384" stride="3"><param name="X" type="float"/><param name="Y" type="float"/><param name="Z" type="float"/></accessor></technique_common>
      </source>
      <source id="vfx_kurp_1154-mesh-uv0">
        <float_array id="vfx_kurp_1154-mesh-uv0-array" count="768">0.5 0.799999952 0.5 0.866666675 1 0.799999952 1 0.866666675 0.5 0.933333337 1 0.933333337 0.5 1 1 1 0 1 0 0.933333337 0 0.866666675 0 0.799999952 0 0.733333349 0.5 0.733333349 0 0.666666627 0.5 0.666666627 0 0.599999964 0.5 0.599999964 0 0.533333302 0.5 0.533333302 0 0.466666639 0.5 0.466666639 0 0.399999976 0.5 0.399999976 1 0.733333349 1 0.666666627 1 0.599999964 1 0.533333302 1 0.466666639 1 0.399999976 1 0.333333313 0.5 0.333333313 1 0.266666651 0.5 0.266666651 1 0.199999928 0.5 0.199999928 0 0.333333313 0 0.266666651 0 0.199999928 0 0.133333266 0.5 0.133333266 0 0.0666666031 0.5 0.0666666031 0 0 0.5 0 1 0 1 0.0666666031 1 0.133333266 0.5 0.799999952 0.5 0.866666675 1 0.799999952 1 0.866666675 0.5 0.933333337 1 0.933333337 0.5 1 1 1 0 1 0 0.933333337 0 0.866666675 0 0.799999952 0 0.733333349 0.5 0.733333349 0 0.666666627 0.5 0.666666627 0 0.599999964 0.5 0.599999964 0 0.533333302 0.5 0.533333302 0 0.466666639 0.5 0.466666639 0 0.399999976 0.5 0.399999976 1 0.733333349 1 0.666666627 1 0.599999964 1 0.533333302 1 0.466666639 1 0.399999976 1 0.333333313 0.5 0.333333313 1 0.266666651 0.5 0.266666651 1 0.199999928 0.5 0.199999928 0 0.333333313 0 0.266666651 0 0.199999928 0 0.133333266 0.5 0.133333266 0 0.0666666031 0.5 0.0666666031 0 0 0.5 0 1 0 1 0.0666666031 1 0.133333266 0.5 0.799999952 0.5 0.866666675 1 0.799999952 1 0.866666675 0.5 0.933333337 1 0.933333337 0.5 1 1 1 0 1 0 0.933333337 0 0.866666675 0 0.799999952 0 0.733333349 0.5 0.733333349 0 0.666666627 0.5 0.666666627 0 0.599999964 0.5 0.599999964 0 0.533333302 0.5 0.533333302 0 0.466666639 0.5 0.466666639 0 0.399999976 0.5 0.399999976 1 0.733333349 1 0.666666627 1 0.599999964 1 0.533333302 1 0.466666639 1 0.399999976 1 0.333333313 0.5 0.333333313 1 0.266666651 0.5 0.266666651 1 0.199999928 0.5 0.199999928 0 0.333333313 0 0.266666651 0 0.199999928 0 0.133333266 0.5 0.133333266 0 0.0666666031 0.5 0.0666666031 0 0 0.5 0 1 0 1 0.0666666031 1 0.133333266 0.5 0.799999952 0.5 0.866666675 1 0.799999952 1 0.866666675 0.5 0.933333337 1 0.933333337 0.5 1 1 1 0 1 0 0.933333337 0 0.866666675 0 0.799999952 0 0.733333349 0.5 0.733333349 0 0.666666627 0.5 0.666666627 0 0.599999964 0.5 0.599999964 0 0.533333302 0.5 0.533333302 0 0.466666639 0.5 0.466666639 0 0.399999976 0.5 0.399999976 1 0.733333349 1 0.666666627 1 0.599999964 1 0.533333302 1 0.466666639 1 0.399999976 1 0.333333313 0.5 0.333333313 1 0.266666651 0.5 0.266666651 1 0.199999928 0.5 0.199999928 0 0.333333313 0 0.266666651 0 0.199999928 0 0.133333266 0.5 0.133333266 0 0.0666666031 0.5 0.0666666031 0 0 0.5 0 1 0 1 0.0666666031 1 0.133333266 0.5 0.399999976 0.5 0.333333313 0 0.399999976 0 0.333333313 0.5 0.266666651 0 0.266666651 0.5 0.199999928 0 0.199999928 0.5 0.133333266 0 0.133333266 0.5 0.0666666031 0 0.0666666031 1 0.466666639 0.5 0.533333302 1 0.533333302 0.5 0.466666639 1 0.399999976 1 0.333333313 1 0.266666651 1 0.199999928 1 0.133333266 1 0.0666666031 1 0 0.5 0 0 0 0.5 0.599999964 1 0.599999964 0.5 0.666666627 1 0.666666627 0.5 0.733333349 1 0.733333349 0.5 0.799999952 1 0.799999952 0.5 0.866666675 1 0.866666675 0.5 0.933333337 1 0.933333337 0.5 1 1 1 0 1 0 0.933333337 0 0.866666675 0 0.799999952 0 0.733333349 0 0.666666627 0 0.599999964 0 0.533333302 0 0.466666639 0.5 0.399999976 0.5 0.333333313 0 0.399999976 0 0.333333313 0.5 0.266666651 0 0.266666651 0.5 0.199999928 0 0.199999928 0.5 0.133333266 0 0.133333266 0.5 0.0666666031 0 0.0666666031 1 0.466666639 0.5 0.533333302 1 0.533333302 0.5 0.466666639 1 0.399999976 1 0.333333313 1 0.266666651 1 0.199999928 1 0.133333266 1 0.0666666031 1 0 0.5 0 0 0 0.5 0.599999964 1 0.599999964 0.5 0.666666627 1 0.666666627 0.5 0.733333349 1 0.733333349 0.5 0.799999952 1 0.799999952 0.5 0.866666675 1 0.866666675 0.5 0.933333337 1 0.933333337 0.5 1 1 1 0 1 0 0.933333337 0 0.866666675 0 0.799999952 0 0.733333349 0 0.666666627 0 0.599999964 0 0.533333302 0 0.466666639 0.5 0.399999976 0.5 0.333333313 0 0.399999976 0 0.333333313 0.5 0.266666651 0 0.266666651 0.5 0.199999928 0 0.199999928 0.5 0.133333266 0 0.133333266 0.5 0.0666666031 0 0.0666666031 1 0.466666639 0.5 0.533333302 1 0.533333302 0.5 0.466666639 1 0.399999976 1 0.333333313 1 0.266666651 1 0.199999928 1 0.133333266 1 0.0666666031 1 0 0.5 0 0 0 0.5 0.599999964 1 0.599999964 0.5 0.666666627 1 0.666666627 0.5 0.733333349 1 0.733333349 0.5 0.799999952 1 0.799999952 0.5 0.866666675 1 0.866666675 0.5 0.933333337 1 0.933333337 0.5 1 1 1 0 1 0 0.933333337 0 0.866666675 0 0.799999952 0 0.733333349 0 0.666666627 0 0.599999964 0 0.533333302 0 0.466666639 0.5 0.399999976 0.5 0.333333313 0 0.399999976 0 0.333333313 0.5 0.266666651 0 0.266666651 0.5 0.199999928 0 0.199999928 0.5 0.133333266 0 0.133333266 0.5 0.0666666031 0 0.0666666031 1 0.466666639 0.5 0.533333302 1 0.533333302 0.5 0.466666639 1 0.399999976 1 0.333333313 1 0.266666651 1 0.199999928 1 0.133333266 1 0.0666666031 1 0 0.5 0 0 0 0.5 0.599999964 1 0.599999964 0.5 0.666666627 1 0.666666627 0.5 0.733333349 1 0.733333349 0.5 0.799999952 1 0.799999952 0.5 0.866666675 1 0.866666675 0.5 0.933333337 1 0.933333337 0.5 1 1 1 0 1 0 0.933333337 0 0.866666675 0 0.799999952 0 0.733333349 0 0.666666627 0 0.599999964 0 0.533333302 0 0.466666639</float_array>
        <technique_common><accessor source="#vfx_kurp_1154-mesh-uv0-array" count="384" stride="2"><param name="S" type="float"/><param name="T" type="float"/></accessor></technique_common>
      </source>
      <vertices id="vfx_kurp_1154-mesh-vertices"><input semantic="POSITION" source="#vfx_kurp_1154-mesh-positions"/></vertices>
      <triangles material="PreviewMaterial" count="480">
        <input semantic="VERTEX" source="#vfx_kurp_1154-mesh-vertices" offset="0"/>
        <input semantic="NORMAL" source="#vfx_kurp_1154-mesh-normals" offset="1"/>
        <input semantic="TEXCOORD" source="#vfx_kurp_1154-mesh-uv0" offset="2" set="0"/>
        <p>0 0 0 1 1 1 2 2 2 2 2 2 1 1 1 3 3 3 4 4 4 3 3 3 1 1 1 3 3 3 4 4 4 5 5 5 6 6 6 5 5 5 4 4 4 5 5 5 6 6 6 7 7 7 8 8 8 6 6 6 9 9 9 4 4 4 9 9 9 6 6 6 9 9 9 4 4 4 10 10 10 1 1 1 10 10 10 4 4 4 10 10 10 1 1 1 11 11 11 0 0 0 11 11 11 1 1 1 11 11 11 0 0 0 12 12 12 13 13 13 12 12 12 0 0 0 12 12 12 13 13 13 14 14 14 15 15 15 14 14 14 13 13 13 14 14 14 15 15 15 16 16 16 17 17 17 16 16 16 15 15 15 16 16 16 17 17 17 18 18 18 19 19 19 18 18 18 17 17 17 18 18 18 19 19 19 20 20 20 21 21 21 20 20 20 19 19 19 20 20 20 21 21 21 22 22 22 23 23 23 22 22 22 21 21 21 24 24 24 0 0 0 2 2 2 0 0 0 24 24 24 13 13 13 25 25 25 13 13 13 24 24 24 13 13 13 25 25 25 15 15 15 26 26 26 15 15 15 25 25 25 15 15 15 26 26 26 17 17 17 27 27 27 17 17 17 26 26 26 17 17 17 27 27 27 19 19 19 28 28 28 19 19 19 27 27 27 19 19 19 28 28 28 21 21 21 29 29 29 21 21 21 28 28 28 21 21 21 29 29 29 23 23 23 30 30 30 23 23 23 29 29 29 23 23 23 30 30 30 31 31 31 32 32 32 31 31 31 30 30 30 31 31 31 32 32 32 33 33 33 34 34 34 33 33 33 32 32 32 35 35 35 33 33 33 34 34 34 22 22 22 23 23 23 36 36 36 31 31 31 36 36 36 23 23 23 36 36 36 31 31 31 37 37 37 33 33 33 37 37 37 31 31 31 37 37 37 33 33 33 38 38 38 35 35 35 38 38 38 33 33 33 38 38 38 35 35 35 39 39 39 40 40 40 39 39 39 35 35 35 39 39 39 40 40 40 41 41 41 42 42 42 41 41 41 40 40 40 41 41 41 42 42 42 43 43 43 43 43 43 42 42 42 44 44 44 44 44 44 42 42 42 45 45 45 45 45 45 42 42 42 46 46 46 40 40 40 46 46 46 42 42 42 46 46 46 40 40 40 47 47 47 35 35 35 47 47 47 40 40 40 47 47 47 35 35 35 34 34 34 48 48 48 49 49 49 50 50 50 50 50 50 49 49 49 51 51 51 52 52 52 51 51 51 49 49 49 51 51 51 52 52 52 53 53 53 54 54 54 53 53 53 52 52 52 53 53 53 54 54 54 55 55 55 56 56 56 54 54 54 57 57 57 52 52 52 57 57 57 54 54 54 57 57 57 52 52 52 58 58 58 49 49 49 58 58 58 52 52 52 58 58 58 49 49 49 59 59 59 48 48 48 59 59 59 49 49 49 59 59 59 48 48 48 60 60 60 61 61 61 60 60 60 48 48 48 60 60 60 61 61 61 62 62 62 63 63 63 62 62 62 61 61 61 62 62 62 63 63 63 64 64 64 65 65 65 64 64 64 63 63 63 64 64 64 65 65 65 66 66 66 67 67 67 66 66 66 65 65 65 66 66 66 67 67 67 68 68 68 69 69 69 68 68 68 67 67 67 68 68 68 69 69 69 70 70 70 71 71 71 70 70 70 69 69 69 72 72 72 48 48 48 50 50 50 48 48 48 72 72 72 61 61 61 73 73 73 61 61 61 72 72 72 61 61 61 73 73 73 63 63 63 74 74 74 63 63 63 73 73 73 63 63 63 74 74 74 65 65 65 75 75 75 65 65 65 74 74 74 65 65 65 75 75 75 67 67 67 76 76 76 67 67 67 75 75 75 67 67 67 76 76 76 69 69 69 77 77 77 69 69 69 76 76 76 69 69 69 77 77 77 71 71 71 78 78 78 71 71 71 77 77 77 71 71 71 78 78 78 79 79 79 80 80 80 79 79 79 78 78 78 79 79 79 80 80 80 81 81 81 82 82 82 81 81 81 80 80 80 83 83 83 81 81 81 82 82 82 70 70 70 71 71 71 84 84 84 79 79 79 84 84 84 71 71 71 84 84 84 79 79 79 85 85 85 81 81 81 85 85 85 79 79 79 85 85 85 81 81 81 86 86 86 83 83 83 86 86 86 81 81 81 86 86 86 83 83 83 87 87 87 88 88 88 87 87 87 83 83 83 87 87 87 88 88 88 89 89 89 90 90 90 89 89 89 88 88 88 89 89 89 90 90 90 91 91 91 91 91 91 90 90 90 92 92 92 92 92 92 90 90 90 93 93 93 93 93 93 90 90 90 94 94 94 88 88 88 94 94 94 90 90 90 94 94 94 88 88 88 95 95 95 83 83 83 95 95 95 88 88 88 95 95 95 83 83 83 82 82 82 96 96 96 97 97 97 98 98 98 98 98 98 97 97 97 99 99 99 100 100 100 99 99 99 97 97 97 99 99 99 100 100 100 101 101 101 102 102 102 101 101 101 100 100 100 101 101 101 102 102 102 103 103 103 104 104 104 102 102 102 105 105 105 100 100 100 105 105 105 102 102 102 105 105 105 100 100 100 106 106 106 97 97 97 106 106 106 100 100 100 106 106 106 97 97 97 107 107 107 96 96 96 107 107 107 97 97 97 107 107 107 96 96 96 108 108 108 109 109 109 108 108 108 96 96 96 108 108 108 109 109 109 110 110 110 111 111 111 110 110 110 109 109 109 110 110 110 111 111 111 112 112 112 113 113 113 112 112 112 111 111 111 112 112 112 113 113 113 114 114 114 115 115 115 114 114 114 113 113 113 114 114 114 115 115 115 116 116 116 117 117 117 116 116 116 115 115 115 116 116 116 117 117 117 118 118 118 119 119 119 118 118 118 117 117 117 120 120 120 96 96 96 98 98 98 96 96 96 120 120 120 109 109 109 121 121 121 109 109 109 120 120 120 109 109 109 121 121 121 111 111 111 122 122 122 111 111 111 121 121 121 111 111 111 122 122 122 113 113 113 123 123 123 113 113 113 122 122 122 113 113 113 123 123 123 115 115 115 124 124 124 115 115 115 123 123 123 115 115 115 124 124 124 117 117 117 125 125 125 117 117 117 124 124 124 117 117 117 125 125 125 119 119 119 126 126 126 119 119 119 125 125 125 119 119 119 126 126 126 127 127 127 128 128 128 127 127 127 126 126 126 127 127 127 128 128 128 129 129 129 130 130 130 129 129 129 128 128 128 131 131 131 129 129 129 130 130 130 118 118 118 119 119 119 132 132 132 127 127 127 132 132 132 119 119 119 132 132 132 127 127 127 133 133 133 129 129 129 133 133 133 127 127 127 133 133 133 129 129 129 134 134 134 131 131 131 134 134 134 129 129 129 134 134 134 131 131 131 135 135 135 136 136 136 135 135 135 131 131 131 135 135 135 136 136 136 137 137 137 138 138 138 137 137 137 136 136 136 137 137 137 138 138 138 139 139 139 139 139 139 138 138 138 140 140 140 140 140 140 138 138 138 141 141 141 141 141 141 138 138 138 142 142 142 136 136 136 142 142 142 138 138 138 142 142 142 136 136 136 143 143 143 131 131 131 143 143 143 136 136 136 143 143 143 131 131 131 130 130 130 144 144 144 145 145 145 146 146 146 146 146 146 145 145 145 147 147 147 148 148 148 147 147 147 145 145 145 147 147 147 148 148 148 149 149 149 150 150 150 149 149 149 148 148 148 149 149 149 150 150 150 151 151 151 152 152 152 150 150 150 153 153 153 148 148 148 153 153 153 150 150 150 153 153 153 148 148 148 154 154 154 145 145 145 154 154 154 148 148 148 154 154 154 145 145 145 155 155 155 144 144 144 155 155 155 145 145 145 155 155 155 144 144 144 156 156 156 157 157 157 156 156 156 144 144 144 156 156 156 157 157 157 158 158 158 159 159 159 158 158 158 157 157 157 158 158 158 159 159 159 160 160 160 161 161 161 160 160 160 159 159 159 160 160 160 161 161 161 162 162 162 163 163 163 162 162 162 161 161 161 162 162 162 163 163 163 164 164 164 165 165 165 164 164 164 163 163 163 164 164 164 165 165 165 166 166 166 167 167 167 166 166 166 165 165 165 168 168 168 144 144 144 146 146 146 144 144 144 168 168 168 157 157 157 169 169 169 157 157 157 168 168 168 157 157 157 169 169 169 159 159 159 170 170 170 159 159 159 169 169 169 159 159 159 170 170 170 161 161 161 171 171 171 161 161 161 170 170 170 161 161 161 171 171 171 163 163 163 172 172 172 163 163 163 171 171 171 163 163 163 172 172 172 165 165 165 173 173 173 165 165 165 172 172 172 165 165 165 173 173 173 167 167 167 174 174 174 167 167 167 173 173 173 167 167 167 174 174 174 175 175 175 176 176 176 175 175 175 174 174 174 175 175 175 176 176 176 177 177 177 178 178 178 177 177 177 176 176 176 179 179 179 177 177 177 178 178 178 166 166 166 167 167 167 180 180 180 175 175 175 180 180 180 167 167 167 180 180 180 175 175 175 181 181 181 177 177 177 181 181 181 175 175 175 181 181 181 177 177 177 182 182 182 179 179 179 182 182 182 177 177 177 182 182 182 179 179 179 183 183 183 184 184 184 183 183 183 179 179 179 183 183 183 184 184 184 185 185 185 186 186 186 185 185 185 184 184 184 185 185 185 186 186 186 187 187 187 187 187 187 186 186 186 188 188 188 188 188 188 186 186 186 189 189 189 189 189 189 186 186 186 190 190 190 184 184 184 190 190 190 186 186 186 190 190 190 184 184 184 191 191 191 179 179 179 191 191 191 184 184 184 191 191 191 179 179 179 178 178 178 192 192 192 193 193 193 194 194 194 194 194 194 193 193 193 195 195 195 196 196 196 195 195 195 193 193 193 195 195 195 196 196 196 197 197 197 198 198 198 197 197 197 196 196 196 197 197 197 198 198 198 199 199 199 200 200 200 199 199 199 198 198 198 199 199 199 200 200 200 201 201 201 202 202 202 201 201 201 200 200 200 201 201 201 202 202 202 203 203 203 204 204 204 205 205 205 206 206 206 205 205 205 204 204 204 207 207 207 208 208 208 207 207 207 204 204 204 207 207 207 208 208 208 192 192 192 209 209 209 192 192 192 208 208 208 192 192 192 209 209 209 193 193 193 210 210 210 193 193 193 209 209 209 193 193 193 210 210 210 196 196 196 211 211 211 196 196 196 210 210 210 196 196 196 211 211 211 198 198 198 212 212 212 198 198 198 211 211 211 198 198 198 212 212 212 200 200 200 213 213 213 200 200 200 212 212 212 200 200 200 213 213 213 202 202 202 214 214 214 202 202 202 213 213 213 215 215 215 202 202 202 214 214 214 202 202 202 215 215 215 203 203 203 216 216 216 203 203 203 215 215 215 205 205 205 217 217 217 206 206 206 206 206 206 217 217 217 218 218 218 219 219 219 218 218 218 217 217 217 218 218 218 219 219 219 220 220 220 221 221 221 220 220 220 219 219 219 220 220 220 221 221 221 222 222 222 223 223 223 222 222 222 221 221 221 222 222 222 223 223 223 224 224 224 225 225 225 224 224 224 223 223 223 224 224 224 225 225 225 226 226 226 227 227 227 226 226 226 225 225 225 226 226 226 227 227 227 228 228 228 229 229 229 228 228 228 227 227 227 228 228 228 229 229 229 230 230 230 229 229 229 227 227 227 231 231 231 231 231 231 227 227 227 232 232 232 225 225 225 232 232 232 227 227 227 232 232 232 225 225 225 233 233 233 223 223 223 233 233 233 225 225 225 233 233 233 223 223 223 234 234 234 221 221 221 234 234 234 223 223 223 234 234 234 221 221 221 235 235 235 219 219 219 235 235 235 221 221 221 235 235 235 219 219 219 236 236 236 217 217 217 236 236 236 219 219 219 236 236 236 217 217 217 237 237 237 205 205 205 237 237 237 217 217 217 237 237 237 205 205 205 238 238 238 207 207 207 238 238 238 205 205 205 238 238 238 207 207 207 239 239 239 192 192 192 239 239 239 207 207 207 239 239 239 192 192 192 194 194 194 240 240 240 241 241 241 242 242 242 242 242 242 241 241 241 243 243 243 244 244 244 243 243 243 241 241 241 243 243 243 244 244 244 245 245 245 246 246 246 245 245 245 244 244 244 245 245 245 246 246 246 247 247 247 248 248 248 247 247 247 246 246 246 247 247 247 248 248 248 249 249 249 250 250 250 249 249 249 248 248 248 249 249 249 250 250 250 251 251 251 252 252 252 253 253 253 254 254 254 253 253 253 252 252 252 255 255 255 256 256 256 255 255 255 252 252 252 255 255 255 256 256 256 240 240 240 257 257 257 240 240 240 256 256 256 240 240 240 257 257 257 241 241 241 258 258 258 241 241 241 257 257 257 241 241 241 258 258 258 244 244 244 259 259 259 244 244 244 258 258 258 244 244 244 259 259 259 246 246 246 260 260 260 246 246 246 259 259 259 246 246 246 260 260 260 248 248 248 261 261 261 248 248 248 260 260 260 248 248 248 261 261 261 250 250 250 262 262 262 250 250 250 261 261 261 263 263 263 250 250 250 262 262 262 250 250 250 263 263 263 251 251 251 264 264 264 251 251 251 263 263 263 253 253 253 265 265 265 254 254 254 254 254 254 265 265 265 266 266 266 267 267 267 266 266 266 265 265 265 266 266 266 267 267 267 268 268 268 269 269 269 268 268 268 267 267 267 268 268 268 269 269 269 270 270 270 271 271 271 270 270 270 269 269 269 270 270 270 271 271 271 272 272 272 273 273 273 272 272 272 271 271 271 272 272 272 273 273 273 274 274 274 275 275 275 274 274 274 273 273 273 274 274 274 275 275 275 276 276 276 277 277 277 276 276 276 275 275 275 276 276 276 277 277 277 278 278 278 277 277 277 275 275 275 279 279 279 279 279 279 275 275 275 280 280 280 273 273 273 280 280 280 275 275 275 280 280 280 273 273 273 281 281 281 271 271 271 281 281 281 273 273 273 281 281 281 271 271 271 282 282 282 269 269 269 282 282 282 271 271 271 282 282 282 269 269 269 283 283 283 267 267 267 283 283 283 269 269 269 283 283 283 267 267 267 284 284 284 265 265 265 284 284 284 267 267 267 284 284 284 265 265 265 285 285 285 253 253 253 285 285 285 265 265 265 285 285 285 253 253 253 286 286 286 255 255 255 286 286 286 253 253 253 286 286 286 255 255 255 287 287 287 240 240 240 287 287 287 255 255 255 287 287 287 240 240 240 242 242 242 288 288 288 289 289 289 290 290 290 290 290 290 289 289 289 291 291 291 292 292 292 291 291 291 289 289 289 291 291 291 292 292 292 293 293 293 294 294 294 293 293 293 292 292 292 293 293 293 294 294 294 295 295 295 296 296 296 295 295 295 294 294 294 295 295 295 296 296 296 297 297 297 298 298 298 297 297 297 296 296 296 297 297 297 298 298 298 299 299 299 300 300 300 301 301 301 302 302 302 301 301 301 300 300 300 303 303 303 304 304 304 303 303 303 300 300 300 303 303 303 304 304 304 288 288 288 305 305 305 288 288 288 304 304 304 288 288 288 305 305 305 289 289 289 306 306 306 289 289 289 305 305 305 289 289 289 306 306 306 292 292 292 307 307 307 292 292 292 306 306 306 292 292 292 307 307 307 294 294 294 308 308 308 294 294 294 307 307 307 294 294 294 308 308 308 296 296 296 309 309 309 296 296 296 308 308 308 296 296 296 309 309 309 298 298 298 310 310 310 298 298 298 309 309 309 311 311 311 298 298 298 310 310 310 298 298 298 311 311 311 299 299 299 312 312 312 299 299 299 311 311 311 301 301 301 313 313 313 302 302 302 302 302 302 313 313 313 314 314 314 315 315 315 314 314 314 313 313 313 314 314 314 315 315 315 316 316 316 317 317 317 316 316 316 315 315 315 316 316 316 317 317 317 318 318 318 319 319 319 318 318 318 317 317 317 318 318 318 319 319 319 320 320 320 321 321 321 320 320 320 319 319 319 320 320 320 321 321 321 322 322 322 323 323 323 322 322 322 321 321 321 322 322 322 323 323 323 324 324 324 325 325 325 324 324 324 323 323 323 324 324 324 325 325 325 326 326 326 325 325 325 323 323 323 327 327 327 327 327 327 323 323 323 328 328 328 321 321 321 328 328 328 323 323 323 328 328 328 321 321 321 329 329 329 319 319 319 329 329 329 321 321 321 329 329 329 319 319 319 330 330 330 317 317 317 330 330 330 319 319 319 330 330 330 317 317 317 331 331 331 315 315 315 331 331 331 317 317 317 331 331 331 315 315 315 332 332 332 313 313 313 332 332 332 315 315 315 332 332 332 313 313 313 333 333 333 301 301 301 333 333 333 313 313 313 333 333 333 301 301 301 334 334 334 303 303 303 334 334 334 301 301 301 334 334 334 303 303 303 335 335 335 288 288 288 335 335 335 303 303 303 335 335 335 288 288 288 290 290 290 336 336 336 337 337 337 338 338 338 338 338 338 337 337 337 339 339 339 340 340 340 339 339 339 337 337 337 339 339 339 340 340 340 341 341 341 342 342 342 341 341 341 340 340 340 341 341 341 342 342 342 343 343 343 344 344 344 343 343 343 342 342 342 343 343 343 344 344 344 345 345 345 346 346 346 345 345 345 344 344 344 345 345 345 346 346 346 347 347 347 348 348 348 349 349 349 350 350 350 349 349 349 348 348 348 351 351 351 352 352 352 351 351 351 348 348 348 351 351 351 352 352 352 336 336 336 353 353 353 336 336 336 352 352 352 336 336 336 353 353 353 337 337 337 354 354 354 337 337 337 353 353 353 337 337 337 354 354 354 340 340 340 355 355 355 340 340 340 354 354 354 340 340 340 355 355 355 342 342 342 356 356 356 342 342 342 355 355 355 342 342 342 356 356 356 344 344 344 357 357 357 344 344 344 356 356 356 344 344 344 357 357 357 346 346 346 358 358 358 346 346 346 357 357 357 359 359 359 346 346 346 358 358 358 346 346 346 359 359 359 347 347 347 360 360 360 347 347 347 359 359 359 349 349 349 361 361 361 350 350 350 350 350 350 361 361 361 362 362 362 363 363 363 362 362 362 361 361 361 362 362 362 363 363 363 364 364 364 365 365 365 364 364 364 363 363 363 364 364 364 365 365 365 366 366 366 367 367 367 366 366 366 365 365 365 366 366 366 367 367 367 368 368 368 369 369 369 368 368 368 367 367 367 368 368 368 369 369 369 370 370 370 371 371 371 370 370 370 369 369 369 370 370 370 371 371 371 372 372 372 373 373 373 372 372 372 371 371 371 372 372 372 373 373 373 374 374 374 373 373 373 371 371 371 375 375 375 375 375 375 371 371 371 376 376 376 369 369 369 376 376 376 371 371 371 376 376 376 369 369 369 377 377 377 367 367 367 377 377 377 369 369 369 377 377 377 367 367 367 378 378 378 365 365 365 378 378 378 367 367 367 378 378 378 365 365 365 379 379 379 363 363 363 379 379 379 365 365 365 379 379 379 363 363 363 380 380 380 361 361 361 380 380 380 363 363 363 380 380 380 361 361 361 381 381 381 349 349 349 381 381 381 361 361 361 381 381 381 349 349 349 382 382 382 351 351 351 382 382 382 349 349 349 382 382 382 351 351 351 383 383 383 336 336 336 383 383 383 351 351 351 383 383 383 336 336 336 338 338 338</p>
      </triangles>
    </mesh></geometry>
  </library_geometries>
  <library_visual_scenes>
    <visual_scene id="Scene" name="Scene">
      <node id="vfx_kurp_1154" name="vfx_kurp_1154" type="NODE">
        <instance_geometry url="#vfx_kurp_1154-mesh"><bind_material><technique_common><instance_material symbol="PreviewMaterial" target="#PreviewMaterial"><bind_vertex_input semantic="UVSET0" input_semantic="TEXCOORD" input_set="0"/></instance_material></technique_common></bind_material></instance_geometry>
      </node>
    </visual_scene>
  </library_visual_scenes>
  <scene><instance_visual_scene url="#Scene"/></scene>
</COLLADA>
