<?xml version="1.0" encoding="utf-8"?>
<COLLADA xmlns="http://www.collada.org/2005/11/COLLADASchema" version="1.4.1">
  <asset>
    <contributor><authoring_tool>Morrobroom Kurpulio VFX preview converter</authoring_tool></contributor>
    <unit name="unit" meter="1"/>
    <up_axis>Z_UP</up_axis>
  </asset>
  <library_images>
    <image id="VFXTexture" name="darkmap_newgen-1.dds">
      <init_from>../../../Textures/Kurp/darkmap_newgen-1.dds</init_from>
    </image>
  </library_images>
  <library_effects>
    <effect id="PreviewEffect">
      <profile_COMMON>
        <newparam sid="VFXTexture-surface">
          <surface type="2D"><init_from>VFXTexture</init_from></surface>
        </newparam>
        <newparam sid="VFXTexture-sampler">
          <sampler2D><source>VFXTexture-surface</source></sampler2D>
        </newparam>
        <technique sid="common"><phong>
          <emission><color>0.08 0.08 0.08 1</color></emission>
          <ambient><color>0.2 0.2 0.2 1</color></ambient>
          <diffuse><texture texture="VFXTexture-sampler" texcoord="UVSET0"/></diffuse>
          <specular><color>0.15 0.15 0.15 1</color></specular>
          <shininess><float>8</float></shininess>
          <transparent opaque="A_ONE"><texture texture="VFXTexture-sampler" texcoord="UVSET0"/></transparent>
          <transparency><float>1</float></transparency>
        </phong></technique>
      </profile_COMMON>
      <extra><technique profile="GOOGLEEARTH"><double_sided>1</double_sided></technique></extra>
    </effect>
  </library_effects>
  <library_materials><material id="PreviewMaterial" name="PreviewMaterial"><instance_effect url="#PreviewEffect"/></material></library_materials>
  <library_geometries>
    <geometry id="vfx_kurp_0195-mesh" name="vfx_kurp_0195"><mesh>
      <source id="vfx_kurp_0195-mesh-positions">
        <float_array id="vfx_kurp_0195-mesh-positions-array" count="408">-1.09713185 -9.72373009 -3.2331624 -1.09712982 4.95710039 -3.23316264 -1.76592147 -9.72372627 -2.92465067 -1.76592243 5.39254808 -2.92465115 -5.23724174 -2.40632296 4.08009863 -5.23724031 -9.42831707 4.08009911 -4.85745192 -1.50981855 2.94939065 -4.85745335 -9.42830944 2.94939089 -4.85745192 -1.50981855 2.94939065 -4.85745335 -9.42830944 2.94939089 -3.80006886 5.02077532 2.76638532 -3.80007029 -9.72373104 2.76638532 1.32405615 5.28077269 -1.25658357e-06 1.3240521 -8.51523685 -2.33690276e-08 0.53947705 3.27677608 -0.538935304 0.53947705 -8.60692215 -0.538936853 0.53947705 3.27677608 -0.538935304 0.53947705 -8.60692215 -0.538936853 0.819297016 2.95839977 -1.19558096 0.819298089 -8.60712528 -1.19557977 -5.77690125 4.49186325 -0.660254538 -5.77690029 -9.2510643 -0.660251439 -4.89313984 5.24067402 -0.80404222 -4.89313841 -9.25098324 -0.804041862 -4.89313984 5.24067402 -0.80404222 -4.89313841 -9.25098324 -0.804041862 -4.59968185 5.5369997 -8.11553377e-07 -4.59968185 -9.25095081 -1.81042526e-06 0.353488594 5.93884706 1.05025101 0.353488594 -9.7094326 1.05025089 0.577763617 1.30328715 0.47439599 0.57776469 -9.50204849 0.474395305 1.40829778 0.834578872 -0.206952423 1.40829885 -9.50205326 -0.206951305 -6.44988918 0.100944959 -3.43521261 -6.44988966 -9.89699841 -3.43521118 -5.49199963 1.02462339 -3.00926495 -5.49200153 -9.89699841 -3.00926566 -5.49199963 1.02462339 -3.00926495 -5.49200153 -9.89699841 -3.00926566 -4.93314171 3.07243776 -3.91071963 -4.93314123 -10.1131821 -3.91071987 0.390772164 1.30025661 1.47621596 0.390775412 -8.67016983 1.47621608 0.390363663 5.98946571 0.488564074 0.39036265 -8.51478672 0.488564432 0.390363663 5.98946571 0.488564074 0.39036265 -8.51478672 0.488564432 1.0111773 5.46920681 0.707273066 1.0111773 -8.51511669 0.707273781 0.614670157 -8.67050171 2.36922693 0.614670157 0.778187156 2.36922669 0.614670157 -8.67050171 2.36922693 0.614670157 0.778187156 2.36922669 -0.347481608 -8.51559448 3.08511186 -0.347482622 4.71822929 3.08511114 -0.347481608 -8.51559448 3.08511186 -0.347482622 4.71822929 3.08511114 -1.33971286 -8.51514149 2.66612267 -1.3397119 5.43214273 2.66612291 -1.33971286 -8.51514149 2.66612267 -1.3397119 5.43214273 2.66612291 -1.53808916 -8.51491547 2.31364989 -1.53808606 5.78671598 2.3136487 -1.53808916 -8.51491547 2.31364989 -1.53808606 5.78671598 2.3136487 -2.11377406 -8.78772831 2.63251114 -2.11377239 -2.04950905 2.63251066 -2.11377406 -8.78772831 2.63251114 -2.11377239 -2.04950905 2.63251066 -2.80743909 -8.78764915 2.25430679 -2.80743909 -1.925506 2.25430584 -2.80743909 -8.78764915 2.25430679 -2.80743909 -1.925506 2.25430584 -3.68069434 -8.51536179 2.69938064 -3.68069172 5.08489847 2.6993804 -4.76131487 -8.51576138 2.72510719 -4.76131773 4.45603323 2.72510791 -4.76131487 -8.51576138 2.72510719 -4.76131773 4.45603323 2.72510791 -4.7150135 -8.51631737 3.58461237 -4.71501112 3.58044338 3.5846107 -1.37636173 5.49804401 2.26541305 -1.3763597 -9.25095558 2.26541209 -0.672267318 4.71033573 2.98037553 -0.672268391 -9.25104141 2.98037529 -0.672267318 4.71033573 2.98037553 -0.672268391 -9.25104141 2.98037529 0.373919249 4.61603165 2.61156273 0.373920292 -9.25105095 2.61156297 1.08001399 4.08643389 2.72469115 1.08001399 -9.25110817 2.72469115 -5.68996 4.31372499 -2.0465858 -5.68995905 -9.70944881 -2.04658628 -5.05848455 4.87871361 -2.08187652 -5.05848312 -9.70944309 -2.08187437 -5.05848455 4.87871361 -2.08187652 -5.05848312 -9.70944309 -2.08187437 -5.11098242 0.455499291 -1.12677038 -5.11098289 -9.48278522 -1.12677014 -4.65115547 0.837819993 -1.98670051e-07 -4.65115643 -9.48278236 -2.36300401e-09 -4.71929741 5.82704401 0.172376499 -4.71929598 -9.71213436 0.172374159 -5.11552954 5.42346334 -0.713069975 -5.11552811 -9.71213818 -0.713069618 -5.15978098 4.91906691 -1.87538373 -5.1597805 -9.71214294 -1.8753798 -5.15978098 4.91906691 -1.87538373 -5.1597805 -9.71214294 -1.8753798 -5.86083364 4.21936035 -1.89871931 -5.86083364 -9.71215057 -1.89871633 -0.575765252 2.59834838 4.66027832 -0.575764179 -9.71216488 4.66027975 -0.546594679 4.43547773 3.42588854 -0.546595693 -9.71214771 3.42588973 -0.546594679 4.43547773 3.42588854 -0.546595693 -9.71214771 3.42588973 -1.17576504 4.23631191 3.69444299 -1.17576706 -9.71215057 3.69444346 -1.17576504 4.23631191 3.69444299 -1.17576706 -9.71215057 3.69444346 -2.01661921 4.58811951 3.48839307 -2.01661801 -9.71214581 3.48839307 -2.01661921 4.58811951 3.48839307 -2.01661801 -9.71214581 3.48839307 -2.96029878 3.56453633 4.12629509 -2.96029758 -9.7121563 4.12629604 -2.96029878 3.56453633 4.12629509 -2.96029758 -9.7121563 4.12629604 -2.89569306 4.87141895 3.18543196 -2.89568996 -9.7121439 3.18543124 -2.89569306 4.87141895 3.18543196 -2.89568996 -9.7121439 3.18543124 -3.5374496 5.33489561 2.56923127 -3.53744888 -9.71213913 2.56923175</float_array>
        <technique_common><accessor source="#vfx_kurp_0195-mesh-positions-array" count="136" stride="3"><param name="X" type="float"/><param name="Y" type="float"/><param name="Z" type="float"/></accessor></technique_common>
      </source>
      <source id="vfx_kurp_0195-mesh-normals">
        <float_array id="vfx_kurp_0195-mesh-normals-array" count="408">0.41887861 -4.30757433e-08 0.90804224 0.41887689 5.27330148e-08 0.908043034 0.41887856 -3.99437075e-08 0.908042263 0.418876865 5.50704986e-08 0.908043045 0.947954585 2.14737779e-07 0.318405565 0.947955306 -1.25839264e-07 0.318403421 0.947954714 1.53982583e-07 0.318405181 0.947955384 -1.61665627e-07 0.318403189 0.170538498 -1.14052799e-09 0.985351014 0.170538681 -1.59248102e-08 0.985350982 0.17053857 -8.15257086e-09 0.985351001 0.170538681 -1.65456593e-08 0.985350982 0.566198118 -2.40023556e-07 -0.824269186 0.566201511 9.06977254e-08 -0.824266855 0.566198227 -2.29649699e-07 -0.824269111 0.566201688 1.07490394e-07 -0.824266734 0.919954478 -5.11229387e-08 0.392025202 0.91995341 1.18808317e-07 0.392027708 0.919954436 -4.56454936e-08 0.392025299 0.919953358 1.25747549e-07 0.39202783 0.160587874 2.33746699e-07 0.987021547 0.160590824 4.78136205e-08 0.987021067 0.160588087 2.20087146e-07 0.987021513 0.160590979 4.02102748e-08 0.987021042 -0.939387773 -8.42684762e-08 0.342856547 -0.939388115 -2.54079252e-08 0.342855609 -0.939387792 -8.14134745e-08 0.342856494 -0.939388141 -2.31586355e-08 0.342855538 0.931823391 -2.76468009e-09 0.362912066 0.931822953 6.62521201e-08 0.36291319 0.871833917 2.92744294e-09 0.489801614 0.823577459 1.05077574e-07 0.567203816 0.63425231 2.10100186e-08 0.773126126 0.63425136 1.49421454e-07 0.773126905 -0.406313001 1.50116079e-07 0.913733957 -0.406311757 1.95855548e-08 0.913734511 -0.40631283 1.34440429e-07 0.913734034 -0.406311685 1.11177768e-08 0.913734543 0.849921455 -1.82937268e-07 0.526909405 0.8499202 1.18072705e-08 0.526911429 0.849921228 -1.48080304e-07 0.52690977 0.849920113 2.12085607e-08 0.526911569 0.997885293 2.4682666e-07 -0.0649995584 0.991627657 1.4163e-07 -0.129130128 0.999999914 1.97582333e-07 -0.000413963997 0.999999913 -6.98711185e-08 -0.00041793373 -0.332277321 4.64689717e-08 0.943181733 -0.332277366 4.81878443e-08 0.943181717 -0.332277294 4.65061833e-08 0.943181743 -0.332277366 4.82408863e-08 0.943181717 0.969978148 2.94401955e-07 -0.24319209 0.969977353 -6.13654089e-09 -0.243195259 0.596938368 2.02440943e-08 0.802287096 0.59693789 8.59644153e-08 0.802287452 0.596938301 2.54417425e-08 0.802287146 0.59693789 8.90676254e-08 0.802287452 -0.389009148 2.00050305e-08 0.921233892 -0.38900905 1.11962481e-08 0.921233933 -0.389009122 1.95319105e-08 0.921233902 -0.389009025 1.08514778e-08 0.921233943 -0.871458926 5.12035983e-08 0.49046849 -0.871461884 2.27484865e-07 0.490463236 -0.871458992 5.44976356e-08 0.490468374 -0.871461936 2.29744617e-07 0.490463142 0.484523541 -3.20897268e-08 0.874778222 0.484523797 -4.40930664e-08 0.874778081 0.484523564 -3.30863123e-08 0.87477821 0.48452403 -5.81029006e-08 0.874777952 -0.478697634 1.80695553e-07 0.877979826 -0.478697235 1.25985237e-07 0.877980044 -0.478697586 1.76335713e-07 0.877979852 -0.478697189 1.22018309e-07 0.877980069 0.454094256 1.23821322e-07 0.89095365 0.454095372 -6.23200916e-08 0.890953081 0.262509497 6.59387856e-08 0.964929409 0.0751070175 -4.8755106e-08 0.997175479 0.0238005023 9.76387355e-09 0.999716728 0.0238012525 -4.98741427e-08 0.99971671 0.998552173 2.23203933e-07 -0.0537918002 0.998551856 -1.67775001e-07 -0.0537976815 0.998552158 2.05167555e-07 -0.0537920751 0.998551827 -2.04229774e-07 -0.0537982275 -0.712501424 -1.43270089e-07 0.701670664 -0.712503198 3.42735335e-08 0.701668862 -0.712501513 -1.3730114e-07 0.701670574 -0.712503258 4.277101e-08 0.701668802 0.332475786 -4.16551457e-08 0.943111792 0.332474853 3.7012064e-08 0.943112121 0.160126911 -2.2902377e-08 0.987096435 0.089901134 2.13559622e-08 0.995950695 -0.158199478 4.95371978e-09 0.987407173 -0.158199367 0 0.987407191 0.0557990869 -3.01558074e-08 0.998442017 0.0557950034 1.47298197e-07 0.998442245 0.0557988682 -2.07619303e-08 0.99844203 0.0557948883 1.52331796e-07 0.998442252 -0.998492785 -1.05984726e-07 -0.0548831266 -0.998492703 3.5892611e-08 -0.0548846266 -0.993162693 -4.17208953e-08 0.116738446 -0.988655511 6.83672925e-08 0.1502008 -0.925870436 5.71257434e-08 0.377841152 -0.925870557 9.27418588e-08 0.377840855 0.912775452 1.45524083e-07 -0.408461717 0.912775015 7.94255165e-08 -0.408462692 0.961290077 1.26965647e-07 -0.27553836 0.973800427 5.22291334e-08 -0.227404328 0.999276051 9.06925885e-08 -0.038044371 0.999276018 2.23375624e-08 -0.0380452303 0.0332683215 -2.67637831e-07 -0.999446456 0.0332693579 -2.15525979e-07 -0.999446422 0.0332683475 -2.66487775e-07 -0.999446455 0.0332693914 -2.13801832e-07 -0.999446421 0.999720888 8.98727934e-08 0.0236251116 0.999720929 -6.07725495e-08 0.0236233863 0.999720894 6.64106723e-08 0.0236248454 0.999720931 -6.96113318e-08 0.023623284 -0.392572762 -4.93798142e-08 -0.91972095 -0.392571412 2.32559976e-08 -0.919721527 -0.392572711 -4.73981862e-08 -0.919720972 -0.392571362 2.55950178e-08 -0.919721548 0.238006482 -6.77829902e-08 -0.971263566 0.238007844 1.64677552e-08 -0.971263232 0.23800658 -6.33112274e-08 -0.971263542 0.2380079 1.98407155e-08 -0.971263218 -0.560026584 -4.66847039e-08 -0.828474638 -0.560027118 -1.06355393e-07 -0.828474277 -0.560026584 -4.90301202e-08 -0.828474638 -0.560027187 -1.09793839e-07 -0.82847423 0.997650756 9.44982487e-08 0.0685052508 0.99765064 2.03976757e-07 0.0685069349 0.997650743 1.06293186e-07 0.0685054362 0.997650635 2.0867053e-07 0.0685070091 0.692598815 1.82575404e-07 -0.721323008 0.692596778 1.65498829e-08 -0.721324964 0.692598693 1.73232832e-07 -0.721323125 0.692596686 1.00637234e-08 -0.721325052</float_array>
        <technique_common><accessor source="#vfx_kurp_0195-mesh-normals-array" count="136" stride="3"><param name="X" type="float"/><param name="Y" type="float"/><param name="Z" type="float"/></accessor></technique_common>
      </source>
      <source id="vfx_kurp_0195-mesh-uv0">
        <float_array id="vfx_kurp_0195-mesh-uv0-array" count="272">0.599999964 1 0.599999964 0 0.560000002 1 0.560000002 0 0.199999988 0 0.199999988 1 0.239999995 0 0.239999995 1 0.239999995 0 0.239999995 1 0.280000001 0 0.280000001 1 0.680000007 0 0.680000007 1 0.719999969 0 0.719999969 1 0.719999969 0 0.719999969 1 0.75999999 0 0.75999999 1 0.280000001 0 0.280000001 1 0.319999993 0 0.319999993 1 0.319999993 0 0.319999993 1 0.359999985 0 0.359999985 1 0.842105269 0 0.842105269 1 0.894736826 0 0.894736826 1 0.947368443 0 0.947368443 1 0.280000001 0 0.280000001 1 0.319999993 0 0.319999993 1 0.319999993 0 0.319999993 1 0.359999985 0 0.359999985 1 0.560000002 0 0.560000002 1 0.599999964 0 0.599999964 1 0.599999964 0 0.599999964 1 0.639999986 0 0.639999986 1 0.519999981 1 0.519999981 0 0.519999981 1 0.519999981 0 0.479999989 1 0.479999989 0 0.479999989 1 0.479999989 0 0.439999998 1 0.439999998 0 0.439999998 1 0.439999998 0 0.399999976 1 0.399999976 0 0.399999976 1 0.399999976 0 0.359999985 1 0.359999985 0 0.359999985 1 0.359999985 0 0.319999993 1 0.319999993 0 0.319999993 1 0.319999993 0 0.280000001 1 0.280000001 0 0.239999995 1 0.239999995 0 0.239999995 1 0.239999995 0 0.199999988 1 0.199999988 0 0.519999981 0 0.519999981 1 0.560000002 0 0.560000002 1 0.560000002 0 0.560000002 1 0.599999964 0 0.599999964 1 0.639999986 0 0.639999986 1 0.473684222 0 0.473684222 1 0.526315808 0 0.526315808 1 0.526315808 0 0.526315808 1 0.578947365 0 0.578947365 1 0.631578922 0 0.631578922 1 0.680000007 0 0.680000007 1 0.719999969 0 0.719999969 1 0.75999999 0 0.75999999 1 0.75999999 0 0.75999999 1 0.799999952 0 0.799999952 1 0.319999993 0 0.319999993 1 0.359999985 0 0.359999985 1 0.359999985 0 0.359999985 1 0.399999976 0 0.399999976 1 0.399999976 0 0.399999976 1 0.439999998 0 0.439999998 1 0.439999998 0 0.439999998 1 0.479999989 0 0.479999989 1 0.479999989 0 0.479999989 1 0.519999981 0 0.519999981 1 0.519999981 0 0.519999981 1 0.560000002 0 0.560000002 1</float_array>
        <technique_common><accessor source="#vfx_kurp_0195-mesh-uv0-array" count="136" stride="2"><param name="S" type="float"/><param name="T" type="float"/></accessor></technique_common>
      </source>
      <vertices id="vfx_kurp_0195-mesh-vertices"><input semantic="POSITION" source="#vfx_kurp_0195-mesh-positions"/></vertices>
      <triangles material="PreviewMaterial" count="74">
        <input semantic="VERTEX" source="#vfx_kurp_0195-mesh-vertices" offset="0"/>
        <input semantic="NORMAL" source="#vfx_kurp_0195-mesh-normals" offset="1"/>
        <input semantic="TEXCOORD" source="#vfx_kurp_0195-mesh-uv0" offset="2" set="0"/>
        <p>0 0 0 1 1 1 2 2 2 3 3 3 2 2 2 1 1 1 4 4 4 5 5 5 6 6 6 7 7 7 6 6 6 5 5 5 8 8 8 9 9 9 10 10 10 11 11 11 10 10 10 9 9 9 12 12 12 13 13 13 14 14 14 15 15 15 14 14 14 13 13 13 16 16 16 17 17 17 18 18 18 19 19 19 18 18 18 17 17 17 20 20 20 21 21 21 22 22 22 23 23 23 22 22 22 21 21 21 24 24 24 25 25 25 26 26 26 27 27 27 26 26 26 25 25 25 28 28 28 29 29 29 30 30 30 31 31 31 30 30 30 29 29 29 30 30 30 31 31 31 32 32 32 33 33 33 32 32 32 31 31 31 34 34 34 35 35 35 36 36 36 37 37 37 36 36 36 35 35 35 38 38 38 39 39 39 40 40 40 41 41 41 40 40 40 39 39 39 42 42 42 43 43 43 44 44 44 45 45 45 44 44 44 43 43 43 46 46 46 47 47 47 48 48 48 49 49 49 48 48 48 47 47 47 43 43 43 42 42 42 50 50 50 51 51 51 50 50 50 42 42 42 52 52 52 53 53 53 54 54 54 55 55 55 54 54 54 53 53 53 56 56 56 57 57 57 58 58 58 59 59 59 58 58 58 57 57 57 60 60 60 61 61 61 62 62 62 63 63 63 62 62 62 61 61 61 64 64 64 65 65 65 66 66 66 67 67 67 66 66 66 65 65 65 68 68 68 69 69 69 70 70 70 71 71 71 70 70 70 69 69 69 72 72 72 73 73 73 74 74 74 75 75 75 74 74 74 73 73 73 74 74 74 75 75 75 76 76 76 77 77 77 76 76 76 75 75 75 78 78 78 79 79 79 80 80 80 81 81 81 80 80 80 79 79 79 82 82 82 83 83 83 84 84 84 85 85 85 84 84 84 83 83 83 86 86 86 87 87 87 88 88 88 89 89 89 88 88 88 87 87 87 88 88 88 89 89 89 90 90 90 91 91 91 90 90 90 89 89 89 92 92 92 93 93 93 94 94 94 95 95 95 94 94 94 93 93 93 96 96 96 97 97 97 98 98 98 99 99 99 98 98 98 97 97 97 98 98 98 99 99 99 100 100 100 101 101 101 100 100 100 99 99 99 102 102 102 103 103 103 104 104 104 105 105 105 104 104 104 103 103 103 104 104 104 105 105 105 106 106 106 107 107 107 106 106 106 105 105 105 108 108 108 109 109 109 110 110 110 111 111 111 110 110 110 109 109 109 112 112 112 113 113 113 114 114 114 115 115 115 114 114 114 113 113 113 116 116 116 117 117 117 118 118 118 119 119 119 118 118 118 117 117 117 120 120 120 121 121 121 122 122 122 123 123 123 122 122 122 121 121 121 124 124 124 125 125 125 126 126 126 127 127 127 126 126 126 125 125 125 128 128 128 129 129 129 130 130 130 131 131 131 130 130 130 129 129 129 132 132 132 133 133 133 134 134 134 135 135 135 134 134 134 133 133 133</p>
      </triangles>
    </mesh></geometry>
  </library_geometries>
  <library_visual_scenes>
    <visual_scene id="Scene" name="Scene">
      <node id="vfx_kurp_0195" name="vfx_kurp_0195" type="NODE">
        <instance_geometry url="#vfx_kurp_0195-mesh"><bind_material><technique_common><instance_material symbol="PreviewMaterial" target="#PreviewMaterial"><bind_vertex_input semantic="UVSET0" input_semantic="TEXCOORD" input_set="0"/></instance_material></technique_common></bind_material></instance_geometry>
      </node>
    </visual_scene>
  </library_visual_scenes>
  <scene><instance_visual_scene url="#Scene"/></scene>
</COLLADA>
