<?xml version="1.0" encoding="utf-8"?>
<COLLADA xmlns="http://www.collada.org/2005/11/COLLADASchema" version="1.4.1">
  <asset>
    <contributor><authoring_tool>Morrobroom Kurpulio VFX preview converter</authoring_tool></contributor>
    <unit name="unit" meter="1"/>
    <up_axis>Z_UP</up_axis>
  </asset>
  <library_images>
    <image id="VFXTexture" name="darkmap_newgen-1.dds">
      <init_from>../../../Textures/Kurp/darkmap_newgen-1.dds</init_from>
    </image>
  </library_images>
  <library_effects>
    <effect id="PreviewEffect">
      <profile_COMMON>
        <newparam sid="VFXTexture-surface">
          <surface type="2D"><init_from>VFXTexture</init_from></surface>
        </newparam>
        <newparam sid="VFXTexture-sampler">
          <sampler2D><source>VFXTexture-surface</source></sampler2D>
        </newparam>
        <technique sid="common"><phong>
          <emission><color>0.08 0.08 0.08 1</color></emission>
          <ambient><color>0.2 0.2 0.2 1</color></ambient>
          <diffuse><texture texture="VFXTexture-sampler" texcoord="UVSET0"/></diffuse>
          <specular><color>0.15 0.15 0.15 1</color></specular>
          <shininess><float>8</float></shininess>
          <transparent opaque="A_ONE"><texture texture="VFXTexture-sampler" texcoord="UVSET0"/></transparent>
          <transparency><float>1</float></transparency>
        </phong></technique>
      </profile_COMMON>
      <extra><technique profile="GOOGLEEARTH"><double_sided>1</double_sided></technique></extra>
    </effect>
  </library_effects>
  <library_materials><material id="PreviewMaterial" name="PreviewMaterial"><instance_effect url="#PreviewEffect"/></material></library_materials>
  <library_geometries>
    <geometry id="vfx_kurp_0656-mesh" name="vfx_kurp_0656"><mesh>
      <source id="vfx_kurp_0656-mesh-positions">
        <float_array id="vfx_kurp_0656-mesh-positions-array" count="924">-4.26048246 -9.20272494 0.963319952 -5.25738343 -9.11644031 0.890061628 -3.63166864 -9.03436777 -0.259367701 -4.48158361 -9.07298219 -0.412144137 -6.17546594 -8.77957857 0.831698459 -5.29000924 -8.91203037 -0.542710632 -6.17546594 -8.77957857 0.831698459 -5.25738343 -9.11644031 0.890061628 -5.40763026 -7.98685272 1.96232709 -4.76490621 -8.20457152 1.9322418 -4.26048246 -9.20272494 0.963319952 -4.05422872 -8.25892034 1.90572341 -3.2599781 -9.02604849 1.04607461 -3.32028622 -8.13454212 1.87987311 -2.33038137 -8.5964827 1.13213044 -2.61094484 -7.82811684 1.85108203 -1.53920394 -7.94500222 1.21503193 -1.97407496 -7.34912523 1.8152519 -0.941500058 -7.12030952 1.28862434 -1.45415149 -6.71977063 1.7680675 -0.575609409 -6.18432843 1.34754787 -1.08887278 -5.97398327 1.70528777 -0.460374705 -5.2068225 1.38766622 -0.906018206 -5.15551765 1.6230717 -0.593994645 -4.25953558 1.40637625 -0.920801626 -4.31515458 1.51829234 -2.79397619 -8.78834252 -0.0882685751 -3.2599781 -9.02604849 1.04607461 -2.02335364 -8.34155521 0.0966161792 -2.33038137 -8.5964827 1.13213044 -1.37191989 -7.71539745 0.290402486 -1.53920394 -7.94500222 1.21503193 -0.885082532 -6.94521448 0.488197762 -0.941500058 -7.12030952 1.28862434 -0.597765486 -6.07842171 0.685463314 -0.575609409 -6.18432843 1.34754787 -0.531085148 -5.17156284 0.878390906 -0.460374705 -5.2068225 1.38766622 -0.689824879 -4.28640852 1.06424439 -0.593994645 -4.25953558 1.40637625 -1.06096334 -3.48528819 1.24166002 -0.954506162 -3.41034195 1.40279713 -0.954506162 -3.41034195 1.40279713 -1.13399104 -3.50715291 1.38881663 -7.92696846 -2.25045683 -0.222582097 -8.05719202 -1.43388418 -0.482899983 -7.45661012 -2.92950157 -1.08867509 -7.64517414 -2.2763264 -1.39792187 -7.9671507 -0.617323145 -0.686975506 -7.66453344 -1.60412694 -1.65823488 -7.9671507 -0.617323145 -0.686975506 -8.05719202 -1.43388418 -0.482899983 -7.33479516 -0.851071746 0.500103471 -7.37148196 -1.43050809 0.585984605 -7.92696846 -2.25045683 -0.222582097 -7.26002918 -2.02443813 0.706898146 -7.58150087 -3.00397264 0.0750855961 -6.99689866 -2.59337931 0.852749105 -7.04397716 -3.63756462 0.388245051 -6.58900461 -3.09834144 1.01087241 -6.35321888 -4.1051999 0.694006128 -6.053698 -3.50354647 1.16679861 -5.55999743 -4.37522806 0.97040413 -5.41801987 -3.77911969 1.30520013 -4.72250388 -4.43264709 1.19819312 -4.71720977 -3.90353611 1.41095062 -3.90140112 -4.27996499 1.36237301 -3.99252226 -3.86564505 1.47026245 -3.15481793 -3.93664517 1.45332707 -3.28841575 -3.6660785 1.47180675 -7.10324177 -3.51886362 -0.744121557 -7.58150087 -3.00397264 0.0750855961 -6.60151314 -4.00236234 -0.380248142 -7.04397716 -3.63756462 0.388245051 -5.97933993 -4.34382625 -0.0143679999 -6.35321888 -4.1051999 0.694006128 -5.27466478 -4.51593924 0.336081797 -5.55999743 -4.37522806 0.97040413 -4.5331635 -4.50277595 0.654837125 -4.72250388 -4.43264709 1.19819312 -3.80517914 -4.30171129 0.928137192 -3.90140112 -4.27996499 1.36237301 -3.14203205 -3.92445265 1.14596371 -3.15481793 -3.93664517 1.45332707 -2.59192155 -3.39704155 1.30310766 -2.53367613 -3.43725034 1.46751556 -2.53367613 -3.43725034 1.46751556 -2.64928079 -3.31785774 1.4077273 2.43288723 -6.60962732 -0.172972559 2.05018588 -7.13895797 -0.742940605 2.83173459 -5.60574808 -0.688338827 2.61307174 -6.06360621 -1.23640779 1.50159861 -7.52147649 -1.26184118 2.25245701 -6.42202414 -1.7477622 1.50159861 -7.52147649 -1.26184118 2.05018588 -7.13895797 -0.742940605 0.874133207 -7.23689674 -0.083295835 1.26273049 -6.92925087 0.231051543 2.43288723 -6.60962732 -0.172972559 1.55034087 -6.51314476 0.583089105 2.6163724 -5.97099074 0.405141543 1.7110592 -6.00761124 0.947519721 2.58466112 -5.26928697 0.948322676 1.72715316 -5.43837392 1.29691473 2.33994204 -4.55528998 1.41698038 1.59065271 -4.83636132 1.60351883 1.90187923 -3.87993547 1.77824009 1.30436956 -4.23575575 1.84120966 1.30553116 -3.29007924 2.00849814 0.882213285 -3.67166991 1.987459 0.598126127 -2.82473595 2.09515944 0.348736612 -3.17760086 2.0251923 -0.165040289 -2.51204911 2.03744404 -0.262158677 -2.78279538 1.94438139 2.88540402 -5.07564205 -0.134225725 2.6163724 -5.97099074 0.405141543 2.76173508 -4.50701084 0.394235343 2.58466112 -5.26928697 0.948322676 2.46049387 -3.93802835 0.866546426 2.33994204 -4.55528998 1.41698038 1.99422024 -3.40874493 1.25571568 1.90187923 -3.87993547 1.77824009 1.38799032 -2.95818626 1.54046905 1.30553116 -3.29007924 2.00849814 0.678227484 -2.6212802 1.7072396 0.598126127 -2.82473595 2.09515944 -0.0894712098 -2.42583979 1.75171399 -0.165040289 -2.51204911 2.03744404 -0.863429169 -2.3898372 1.67980214 -0.925222338 -2.36718573 1.84625853 -0.925222338 -2.36718573 1.84625853 -0.909330562 -2.50974363 1.74321299 3.44876916 0.194264524 3.62961214 4.0930063 -0.0155336684 3.02692704 2.77171603 1.1839921 3.26990362 3.37292085 1.12300705 2.77473423 4.54417432 -0.329897635 2.33293485 3.83651709 0.966105095 2.2007844 4.54417432 -0.329897635 2.33293485 4.0930063 -0.0155336684 3.02692704 3.69426074 -1.35939207 2.83984777 3.36013175 -1.09388803 3.28117803 3.44876916 0.194264524 3.62961214 2.88777194 -0.888160367 3.6686221 2.65681704 0.280962677 4.09230871 2.29971416 -0.757005837 3.96895068 1.77440924 0.236758209 4.37882346 1.62733879 -0.710063322 4.1536399 0.865482809 0.0649177069 4.46812496 0.909093072 -0.750920414 4.20105622 -0.00488507844 -0.220814189 4.3556881 0.188090162 -0.87657955 4.09831581 -0.775918838 -0.597620794 4.05344177 -0.490788155 -1.0773511 3.84263143 -1.39604405 -1.03569271 3.5884265 -1.08412039 -1.33722908 3.44204617 -1.82691851 -1.50080181 3.00027946 -1.55332616 -1.6347685 2.91540699 2.06584264 1.13629202 3.65206965 2.65681704 0.280962677 4.09230871 1.29702607 0.973806432 3.894176 1.77440924 0.236758209 4.37882346 0.51323504 0.697862672 3.97863029 0.865482809 0.0649177069 4.46812496 -0.234518388 0.317516672 3.89910274 -0.00488507844 -0.220814189 4.3556881 -0.895835074 -0.150698875 3.66161764 -0.775918838 -0.597620794 4.05344177 -1.42485885 -0.683608726 3.28482747 -1.39604405 -1.03569271 3.5884265 -1.78418205 -1.2528107 2.79932103 -1.82691851 -1.50080181 3.00027946 -1.94844251 -1.82663956 2.24593506 -2.04632417 -1.95715187 2.33781623 -2.04632417 -1.95715187 2.33781623 -1.86792943 -1.94444359 2.2915016 0.482340206 -5.57942078 5.6405832 0.349954052 -5.31342586 6.2844398 -0.261628631 -6.12043996 5.30554562 -0.382651793 -5.98880363 5.88972187 0.131324725 -4.92707039 6.8158069 -0.567518617 -5.75199334 6.39732892 0.131324725 -4.92707039 6.8158069 0.349954052 -5.31342586 6.2844398 0.518541642 -4.25480468 6.01263667 0.623093751 -4.54312145 5.64328287 0.482340206 -5.57942078 5.6405832 0.668760505 -4.75947579 5.1902683 0.516241851 -5.70179025 4.93141761 0.645278463 -4.88564113 4.67970894 0.447891839 -5.66978066 4.20903217 0.546564303 -4.90932251 4.14272291 0.282046801 -5.48567752 3.52585812 0.371321677 -4.82526805 3.61349584 0.0313569305 -5.16424594 2.93026585 0.123360634 -4.63597161 3.12699891 -0.284892782 -4.73118552 2.46265035 -0.188442167 -4.35186457 2.7164927 -0.642512725 -4.22077319 2.15228406 -0.550529849 -3.99095536 2.41097932 -1.01448531 -3.67289367 2.01515197 -0.945445564 -3.57786666 2.23276557 -0.212814027 -6.13083547 4.67873064 0.516241851 -5.70179025 4.93141761 -0.239270198 -6.01165624 4.04743742 0.447891839 -5.66978066 4.20903217 -0.338266635 -5.76327774 3.45153815 0.282046801 -5.48567752 3.52585812 -0.501173815 -5.3952229 2.92977265 0.0313569305 -5.16424594 2.93026585 -0.713789085 -4.92595273 2.51678262 -0.284892782 -4.73118552 2.46265035 -0.957096589 -4.38197138 2.24019127 -0.642512725 -4.22077319 2.15228406 -1.208476 -3.79623265 2.11798335 -1.01448531 -3.67289367 2.01515197 -1.44329405 -3.20589098 2.1564076 -1.37320033 -3.12970866 2.05286889 -1.37320033 -3.12970866 2.05286889 -1.3529709 -3.14229519 2.19536011 -4.72146003 0.601412305 5.78434919 -4.34933815 1.38435227 5.7776522 -5.57554247 0.501744435 4.9518441 -5.36926564 1.21929224 4.97190075 -3.86687855 2.05808139 5.60488688 -5.06122451 1.86283463 4.86724201 -3.86687855 2.05808139 5.60488688 -4.34933815 1.38435227 5.7776522 -3.08174376 0.941390849 5.62012927 -3.45117483 0.490799551 5.69052857 -4.72146003 0.601412305 5.78434919 -3.75837203 -0.041741837 5.64781864 -4.95202517 -0.232718698 5.62062801 -3.98042819 -0.623240567 5.48425135 -5.02226898 -1.05643955 5.29660777 -4.09995851 -1.21593172 5.20000374 -4.92709277 -1.80989531 4.8355601 -4.10654862 -1.77968145 4.80351878 -4.67510343 -2.43994704 4.27160295 -3.99781561 -2.27472891 4.31129233 -4.28755066 -2.90441208 3.64657914 -3.77997236 -2.66457818 3.74705909 -3.79629628 -3.17529259 3.00644715 -3.46780865 -2.91887127 3.14041732 -3.24100103 -3.24077656 2.3974428 -3.08402952 -3.01602737 2.52489423 -5.65830086 -0.248194268 4.80461339 -4.95202517 -0.232718698 5.62062801 -5.60331586 -0.985318206 4.5371607 -5.02226898 -1.05643955 5.29660777 -5.40527585 -1.66388698 4.16582535 -4.92709277 -1.80989531 4.8355601 -5.06865368 -2.24096272 3.71563319 -4.67510343 -2.43994704 4.27160295 -4.60790784 -2.67978331 3.21889159 -4.28755066 -2.90441208 3.64657914 -4.04696164 -2.95296996 2.71313522 -3.79629628 -3.17529259 3.00644715 -3.41790081 -3.04527408 2.23847904 -3.24100103 -3.24077656 2.3974428 -2.75890734 -2.95561978 1.83453835 -2.66577793 -3.10593266 1.86232667 -2.66577793 -3.10593266 1.86232667 -2.65793465 -2.94540597 1.93556126 -1.1062323 3.66815349 -0.270255882 -0.221564491 3.76849983 -0.309696424 -1.56342821 3.18199013 -1.30396406 -0.825282253 3.34607216 -1.43728773 0.639488184 3.64420037 -0.289169854 -0.0879577063 3.33714093 -1.51371 0.639488184 3.64420037 -0.289169854 -0.221564491 3.76849983 -0.309696424 0.0630970248 3.03590565 0.836630703 -0.533037811 3.09448552 0.764150345 -1.1062323 3.66815349 -0.270255882 -1.1586593 3.00236121 0.725307881 -1.94670706 3.34577207 -0.17259533 -1.77204141 2.754354 0.720854215 -2.67983369 2.82274053 -0.023429249 -2.33085168 2.35596337 0.748659787 -3.2523188 2.1368171 0.166273134 -2.7950568 1.82346017 0.803736194 -3.62491951 1.33851899 0.382335825 -3.12987213 1.18323269 0.878461019 -3.77534465 0.486592075 0.608628748 -3.30853072 0.470361045 0.962993453 -3.69971232 -0.357000117 0.828441539 -3.31468074 -0.27352679 1.04589486 -3.41249643 -1.13220393 1.0258579 -3.14419042 -1.00306759 1.11491261 -2.25415288 2.84760059 -1.11520392 -1.94670706 3.34577207 -0.17259533 -2.85083016 2.35800028 -0.875784186 -2.67983369 2.82274053 -0.023429249 -3.31186426 1.74021816 -0.593607611 -3.2523188 2.1368171 0.166273134 -3.60402127 1.03186112 -0.279289304 -3.62491951 1.33851899 0.382335825 -3.70537832 0.278875741 0.0544857162 -3.77534465 0.486592075 0.608628748 -3.60769377 -0.467503945 0.393823212 -3.69971232 -0.357000117 0.828441539 -3.31790638 -1.15447458 0.724639455 -3.41249643 -1.13220393 1.0258579 -2.85858035 -1.73184819 1.03379672 -2.94505448 -1.78571512 1.18703585 -2.94505448 -1.78571512 1.18703585 -2.8061492 -1.6724746 1.15788345</float_array>
        <technique_common><accessor source="#vfx_kurp_0656-mesh-positions-array" count="308" stride="3"><param name="X" type="float"/><param name="Y" type="float"/><param name="Z" type="float"/></accessor></technique_common>
      </source>
      <source id="vfx_kurp_0656-mesh-normals">
        <float_array id="vfx_kurp_0656-mesh-normals-array" count="924">0.038383154 -0.989895565 -0.136504596 -0.220513643 -0.957621105 -0.185298549 0.168572135 -0.985456168 -0.0214377444 -0.0643394529 -0.997052036 -0.0418051641 -0.279783533 -0.94703568 -0.157621687 -0.190776672 -0.981224104 -0.0283464101 -0.291848248 -0.678626425 0.674010961 -0.203819574 -0.70029281 0.684140016 -0.232154928 -0.68572066 0.689848727 -0.122938381 -0.70245096 0.701034096 -0.0225538527 -0.716779444 0.696935114 0.0479319466 -0.697172268 0.715299488 0.1531512 -0.682662494 0.714504464 0.207443371 -0.647144589 0.733601478 0.309277788 -0.601571486 0.736518158 0.344608397 -0.556967921 0.755666452 0.43274909 -0.480710258 0.762657113 0.448904218 -0.433441838 0.781417415 0.511677971 -0.330610672 0.793020957 0.509974266 -0.285852861 0.811304129 0.5345337 -0.165315679 0.82882112 0.516380941 -0.126854761 0.846911207 0.486365401 -0.00460363711 0.873743385 0.451205338 0.0243066411 0.892089082 0.333578151 0.113967502 0.935808221 0.274723656 0.127321016 0.953056279 0.391785346 -0.920032201 -0.0067075387 0.293852784 -0.950970519 -0.0964656108 0.594574837 -0.804039593 0.00104675802 0.528706278 -0.846112509 -0.0675521595 0.766502745 -0.642240945 -0.000333285191 0.72800562 -0.683554772 -0.0525422712 0.897332165 -0.441119781 -0.0144334213 0.878873501 -0.473814842 -0.0555055348 0.976697701 -0.20922488 -0.0478178828 0.969725717 -0.229386009 -0.083750184 0.992525956 0.0418921725 -0.11461794 0.98760006 0.0345075278 -0.153151403 0.922172952 0.292457686 -0.25311173 0.905917289 0.292529509 -0.306170462 0.759790785 0.340403451 -0.553934521 0.723449188 0.304517336 -0.619588948 -0.0296853168 0.125474145 0.991652672 -0.141354399 0.120163923 0.982639082 -0.906063239 -0.34353705 -0.247045953 -0.930252222 -0.10124184 -0.352676754 -0.89119413 -0.441483652 -0.104236306 -0.955987478 -0.230324399 -0.181765272 -0.94002184 -0.0371257388 -0.339087922 -0.974717136 -0.104545504 -0.19747593 -0.843483813 0.215931572 0.491842062 -0.844215397 0.129231935 0.520191763 -0.83843519 0.161078665 0.520653528 -0.829433578 0.0561102752 0.555780151 -0.817471158 -0.0429383367 0.574366786 -0.784841957 -0.0998511724 0.611598598 -0.744885916 -0.194610159 0.638178548 -0.70127077 -0.231679567 0.674198699 -0.633314157 -0.313726634 0.707452315 -0.585758599 -0.330424381 0.740072018 -0.492777769 -0.390123774 0.777800432 -0.447356861 -0.388155009 0.805734155 -0.336246963 -0.415612395 0.845106098 -0.297538714 -0.39769576 0.867933636 -0.180149832 -0.383110339 0.905964959 -0.151458477 -0.351583952 0.923823064 -0.0476760614 -0.283458312 0.957798715 -0.0323171138 -0.238630489 0.97057256 0.0156609554 -0.0941773316 0.99543225 0.0105777163 -0.0317452272 0.999440019 -0.776568445 -0.62942448 -0.0276816743 -0.813392808 -0.564199234 -0.141673443 -0.617610244 -0.785274943 0.0435987403 -0.661053815 -0.749066479 -0.0436722236 -0.421023889 -0.901021786 0.104396483 -0.460046681 -0.887010167 0.0396234079 -0.194832871 -0.969612055 0.147961535 -0.222792235 -0.969739095 0.0998484277 0.0515011462 -0.985050695 0.164386009 0.0373355414 -0.991380047 0.125585272 0.30665644 -0.942098528 0.135691526 0.305630429 -0.94724758 0.0964990357 0.553400522 -0.832740362 0.0170690262 0.559381135 -0.828043655 -0.0379005358 0.615143836 -0.726775059 -0.305607714 0.584330739 -0.715927997 -0.382105601 -0.0736592303 0.260998932 0.96252474 -0.104627832 0.362459192 0.926108175 0.918114639 -0.387191355 -0.0845479932 0.803319732 -0.525822638 -0.279621104 0.930976618 -0.354867204 0.0857426671 0.856131816 -0.5118663 -0.0709309837 0.762731199 -0.576385821 -0.293292522 0.788951932 -0.599112582 -0.136451322 0.277445607 -0.889708953 0.362549189 0.327712007 -0.844424902 0.423735088 0.302250472 -0.859982886 0.411186196 0.356179414 -0.798094938 0.485984254 0.409098613 -0.733147955 0.543260896 0.414101702 -0.684144447 0.600388338 0.442799136 -0.603423483 0.66318099 0.427393421 -0.558263815 0.711109258 0.426597717 -0.466609313 0.774783929 0.395851469 -0.430208878 0.81130878 0.361757853 -0.3351668 0.86993935 0.321313161 -0.310593108 0.894589165 0.252784391 -0.222582526 0.941571596 0.207692255 -0.211411732 0.955075393 0.107050466 -0.144400911 0.983711632 0.0610768012 -0.14765879 0.987150701 -0.065142054 -0.12265765 0.990308848 -0.109512925 -0.142563962 0.983708512 -0.246567425 -0.20335302 0.947550555 -0.286312776 -0.246794607 0.92580636 0.956796859 -0.175251328 0.232005911 0.972121724 -0.211423606 0.101387438 0.932639962 0.0186251884 0.360327355 0.963918256 -0.0118144599 0.265936108 0.859218844 0.218298992 0.462697015 0.895667333 0.198665776 0.397884327 0.739247604 0.415352128 0.530090171 0.77271041 0.408037823 0.486234261 0.578073722 0.601827647 0.551030177 0.60357709 0.605952636 0.518185391 0.385238431 0.771080291 0.506977845 0.401178689 0.784261015 0.473276155 0.180480556 0.917755934 0.353766609 0.189805221 0.934338979 0.301636621 0.164488521 0.986252261 0.0158115024 0.201037288 0.977839169 -0.0584343149 -0.415073821 -0.479696575 0.773049106 -0.451398192 -0.555241654 0.698531587 0.561945785 0.609804901 0.558887213 0.737179314 0.569497317 0.363647447 0.472691254 0.544429289 0.692935587 0.658355526 0.508508525 0.554965838 0.780299623 0.526305458 0.337838812 0.748665162 0.457697592 0.479597112 0.730902764 -0.302067232 0.611993902 0.677075126 -0.277720821 0.681498657 0.6908729 -0.296769495 0.659259056 0.617664652 -0.270397943 0.738495315 0.547890825 -0.234683521 0.802956592 0.483356663 -0.241895224 0.841340025 0.392496324 -0.221887198 0.892587647 0.330856901 -0.241600859 0.912229541 0.223984934 -0.240800387 0.944375944 0.171506276 -0.2697913 0.947522164 0.056919141 -0.290908361 0.9550563 0.017663183 -0.325709565 0.945304867 -0.0929614042 -0.370110647 0.924324773 -0.116844496 -0.407773803 0.905575999 -0.207891214 -0.47541946 0.8548436 -0.215131032 -0.513966716 0.830395601 -0.263598122 -0.603953557 0.752167622 -0.251700546 -0.642300977 0.72394495 -0.209813274 -0.752401137 0.624396444 -0.17005432 -0.788152129 0.591521555 0.260717893 0.556165756 0.789117122 0.34443507 0.621571435 0.703571911 0.0326110925 0.543736758 0.838621997 0.100953141 0.605036053 0.789772017 -0.200856661 0.508655815 0.837213153 -0.152170906 0.562801976 0.812464123 -0.428192741 0.454522793 0.781063382 -0.398970172 0.500189825 0.768526473 -0.63691424 0.388403361 0.665945253 -0.623681453 0.426516867 0.655060919 -0.81233045 0.324718108 0.484435124 -0.8088855 0.359238516 0.465458844 -0.929559043 0.299403924 0.215121538 -0.923751128 0.339522572 0.177223804 -0.871281259 0.485838905 -0.0694947933 -0.829333163 0.549072436 -0.103566232 0.072758128 -0.89601955 0.438012809 0.161717369 -0.913990875 0.372113117 0.445599711 -0.838622151 0.313295044 0.366886025 -0.749755843 0.550691221 0.5482091 -0.817925204 0.17454267 0.519573108 -0.755844985 0.398424578 0.379092653 -0.705652988 0.598617257 0.51182929 -0.691915601 0.509198959 0.913084102 -0.0412514537 0.405679356 0.940517955 -0.0831188752 0.329419532 0.934819273 -0.0589584776 0.350195409 0.962025326 -0.103969685 0.252383789 0.974590888 -0.152443838 0.164114222 0.984286157 -0.152331365 0.0893079899 0.983784743 -0.178840844 -0.0135474275 0.98388592 -0.160564313 -0.0786612896 0.968758252 -0.160303648 -0.189235803 0.962312948 -0.128433898 -0.239705078 0.932257745 -0.0978589507 -0.348308946 0.922487465 -0.0574273447 -0.381731552 0.879334542 0.00475459793 -0.476180804 0.869171739 0.0493130857 -0.492045433 0.817953263 0.141622999 -0.557579937 0.809866293 0.187098907 -0.555977145 0.761064562 0.305050656 -0.572472558 0.757203777 0.34942119 -0.551858018 0.733692712 0.482815689 -0.478104607 0.735783874 0.523141958 -0.430051836 0.541250278 -0.838894814 -0.0574771869 0.47690185 -0.877135753 0.0565464163 0.498576284 -0.818180296 -0.286361122 0.46043807 -0.864533581 -0.201440988 0.42025624 -0.756899001 -0.500488357 0.397357858 -0.803318152 -0.443606448 0.306163312 -0.658327325 -0.687654826 0.289190065 -0.699158087 -0.65387084 0.154864627 -0.528896347 -0.834437296 0.136004428 -0.56145307 -0.816255625 -0.0397610958 -0.380868437 -0.923773938 -0.0677685721 -0.405892649 -0.911404728 -0.299959801 -0.242273093 -0.922674301 -0.345013238 -0.265633284 -0.900224874 -0.587585847 -0.313954254 -0.745771814 -0.624440074 -0.364404428 -0.690857443 0.74464722 0.650182485 -0.15087496 0.731397375 0.680548504 -0.0437220142 -0.706628471 0.216162552 0.673758084 -0.608792603 0.461268603 0.645447784 -0.682575741 0.0530922908 0.728883782 -0.603337978 0.272392717 0.74952351 -0.55839222 0.501423156 0.660887998 -0.530494617 0.377373596 0.75905509 0.167170367 0.130874375 0.977203135 0.123103022 0.0522087652 0.991019622 0.147900886 0.072482197 0.986342567 0.0984377519 -0.026590177 0.994787903 0.0439587441 -0.11218744 0.992714263 0.0379004963 -0.186565855 0.981711126 0.00100209612 -0.283536006 0.958961068 0.0120032125 -0.3468376 0.93784839 -0.00216916205 -0.448409413 0.89382565 0.0224945092 -0.496525426 0.86773066 0.0354844939 -0.593517461 0.804038478 0.0697251982 -0.624806306 0.777660258 0.112761024 -0.706141121 0.699034813 0.152824798 -0.720720357 0.67617065 0.226929224 -0.773622291 0.591617848 0.2701125 -0.772116165 0.575218102 0.37491664 -0.780069966 0.500927501 0.419792438 -0.761507888 0.493842126 0.553807493 -0.691042026 0.464497771 0.598704871 -0.647696895 0.471212488 -0.728888017 -0.16598183 0.664208018 -0.765817477 -0.036566673 0.6420175 -0.740542742 -0.374032664 0.558297424 -0.783760641 -0.279517053 0.554607495 -0.717390261 -0.559897238 0.414567601 -0.760892509 -0.49655414 0.417703934 -0.661366008 -0.71168804 0.236844123 -0.700779357 -0.672428824 0.238217904 -0.577597616 -0.815817349 0.0286888003 -0.610910837 -0.791382038 0.0224147153 -0.477373449 -0.853583452 -0.208590224 -0.50558435 -0.832497497 -0.226566507 -0.388623411 -0.785642493 -0.481391438 -0.417212731 -0.750144663 -0.513046316 -0.491846424 -0.53083353 -0.690146983 -0.542014373 -0.465199789 -0.69986397 0.754078672 -0.389446552 0.528863631 0.792724262 -0.28464951 0.539038868 -0.232663914 0.909081701 -0.345597979 0.0295943586 0.922819548 -0.384094072 -0.365163193 0.901213795 -0.2333871 -0.138797234 0.957263596 -0.253735563 0.0882074978 0.930970954 -0.354277462 -0.0127016697 0.971645885 -0.236099433 0.110367012 0.849685632 0.515609785 0.019354591 0.853887129 0.520098232 0.049724052 0.84713823 0.529040961 -0.0610443248 0.842368469 0.535433425 -0.161870712 0.833999169 0.527487686 -0.227736418 0.804192055 0.549009346 -0.327567159 0.767941784 0.550422722 -0.374390406 0.726510011 0.576207452 -0.464758385 0.662074242 0.587926307 -0.491193192 0.615980176 0.615871473 -0.562119365 0.525973543 0.638258295 -0.569246313 0.481304238 0.666561974 -0.610191014 0.372231162 0.699364632 -0.600350743 0.333633355 0.726820315 -0.600640183 0.216947249 0.769522749 -0.576000155 0.187798609 0.795585007 -0.523096436 0.0829361778 0.848228571 -0.483800574 0.0665555669 0.872643891 -0.352835371 0.014832606 0.935567846 -0.293503569 0.018088533 0.955786828 -0.570738822 0.794628531 -0.206936451 -0.476541663 0.826244254 -0.300380552 -0.745636387 0.64260896 -0.176295502 -0.68618854 0.682476948 -0.251734985 -0.880512466 0.451461226 -0.144501068 -0.848539696 0.488222739 -0.20400721 -0.966495591 0.228796602 -0.116354579 -0.952941945 0.255403474 -0.163311711 -0.994851597 -0.016391779 -0.100008046 -0.990236667 -0.0031168392 -0.139361507 -0.955385924 -0.273451988 -0.111632194 -0.950018475 -0.273352499 -0.15080885 -0.827960999 -0.526655039 -0.192652679 -0.809217088 -0.534298034 -0.244322154 -0.643336094 -0.60056212 -0.474809235 -0.611640198 -0.572229872 -0.546305082 0.00158015449 0.0921626676 0.995742711 0.110121759 0.118953391 0.986774183</float_array>
        <technique_common><accessor source="#vfx_kurp_0656-mesh-normals-array" count="308" stride="3"><param name="X" type="float"/><param name="Y" type="float"/><param name="Z" type="float"/></accessor></technique_common>
      </source>
      <source id="vfx_kurp_0656-mesh-uv0">
        <float_array id="vfx_kurp_0656-mesh-uv0-array" count="616">0.5 0.199999988 0.5 0.0999999642 0 0.199999988 0 0.0999999642 0.5 0 0 0 0.5 0 0.5 0.0999999642 1 0 1 0.0999999642 0.5 0.199999988 1 0.199999988 0.5 0.300000012 1 0.300000012 0.5 0.399999976 1 0.399999976 0.5 0.5 1 0.5 0.5 0.600000024 1 0.600000024 0.5 0.699999988 1 0.699999988 0.5 0.800000012 1 0.800000012 0.5 0.899999976 1 0.899999976 0 0.300000012 0.5 0.300000012 0 0.399999976 0.5 0.399999976 0 0.5 0.5 0.5 0 0.600000024 0.5 0.600000024 0 0.699999988 0.5 0.699999988 0 0.800000012 0.5 0.800000012 0 0.899999976 0.5 0.899999976 0 1 0.5 1 0.5 1 1 1 0.5 0.199999988 0.5 0.0999999642 0 0.199999988 0 0.0999999642 0.5 0 0 0 0.5 0 0.5 0.0999999642 1 0 1 0.0999999642 0.5 0.199999988 1 0.199999988 0.5 0.300000012 1 0.300000012 0.5 0.399999976 1 0.399999976 0.5 0.5 1 0.5 0.5 0.600000024 1 0.600000024 0.5 0.699999988 1 0.699999988 0.5 0.800000012 1 0.800000012 0.5 0.899999976 1 0.899999976 0 0.300000012 0.5 0.300000012 0 0.399999976 0.5 0.399999976 0 0.5 0.5 0.5 0 0.600000024 0.5 0.600000024 0 0.699999988 0.5 0.699999988 0 0.800000012 0.5 0.800000012 0 0.899999976 0.5 0.899999976 0 1 0.5 1 0.5 1 1 1 0.5 0.199999988 0.5 0.0999999642 0 0.199999988 0 0.0999999642 0.5 0 0 0 0.5 0 0.5 0.0999999642 1 0 1 0.0999999642 0.5 0.199999988 1 0.199999988 0.5 0.300000012 1 0.300000012 0.5 0.399999976 1 0.399999976 0.5 0.5 1 0.5 0.5 0.600000024 1 0.600000024 0.5 0.699999988 1 0.699999988 0.5 0.800000012 1 0.800000012 0.5 0.899999976 1 0.899999976 0 0.300000012 0.5 0.300000012 0 0.399999976 0.5 0.399999976 0 0.5 0.5 0.5 0 0.600000024 0.5 0.600000024 0 0.699999988 0.5 0.699999988 0 0.800000012 0.5 0.800000012 0 0.899999976 0.5 0.899999976 0 1 0.5 1 0.5 1 1 1 0.5 0.199999988 0.5 0.0999999642 0 0.199999988 0 0.0999999642 0.5 0 0 0 0.5 0 0.5 0.0999999642 1 0 1 0.0999999642 0.5 0.199999988 1 0.199999988 0.5 0.300000012 1 0.300000012 0.5 0.399999976 1 0.399999976 0.5 0.5 1 0.5 0.5 0.600000024 1 0.600000024 0.5 0.699999988 1 0.699999988 0.5 0.800000012 1 0.800000012 0.5 0.899999976 1 0.899999976 0 0.300000012 0.5 0.300000012 0 0.399999976 0.5 0.399999976 0 0.5 0.5 0.5 0 0.600000024 0.5 0.600000024 0 0.699999988 0.5 0.699999988 0 0.800000012 0.5 0.800000012 0 0.899999976 0.5 0.899999976 0 1 0.5 1 0.5 1 1 1 0.5 0.199999988 0.5 0.0999999642 0 0.199999988 0 0.0999999642 0.5 0 0 0 0.5 0 0.5 0.0999999642 1 0 1 0.0999999642 0.5 0.199999988 1 0.199999988 0.5 0.300000012 1 0.300000012 0.5 0.399999976 1 0.399999976 0.5 0.5 1 0.5 0.5 0.600000024 1 0.600000024 0.5 0.699999988 1 0.699999988 0.5 0.800000012 1 0.800000012 0.5 0.899999976 1 0.899999976 0 0.300000012 0.5 0.300000012 0 0.399999976 0.5 0.399999976 0 0.5 0.5 0.5 0 0.600000024 0.5 0.600000024 0 0.699999988 0.5 0.699999988 0 0.800000012 0.5 0.800000012 0 0.899999976 0.5 0.899999976 0 1 0.5 1 0.5 1 1 1 0.5 0.199999988 0.5 0.0999999642 0 0.199999988 0 0.0999999642 0.5 0 0 0 0.5 0 0.5 0.0999999642 1 0 1 0.0999999642 0.5 0.199999988 1 0.199999988 0.5 0.300000012 1 0.300000012 0.5 0.399999976 1 0.399999976 0.5 0.5 1 0.5 0.5 0.600000024 1 0.600000024 0.5 0.699999988 1 0.699999988 0.5 0.800000012 1 0.800000012 0.5 0.899999976 1 0.899999976 0 0.300000012 0.5 0.300000012 0 0.399999976 0.5 0.399999976 0 0.5 0.5 0.5 0 0.600000024 0.5 0.600000024 0 0.699999988 0.5 0.699999988 0 0.800000012 0.5 0.800000012 0 0.899999976 0.5 0.899999976 0 1 0.5 1 0.5 1 1 1 0.5 0.199999988 0.5 0.0999999642 0 0.199999988 0 0.0999999642 0.5 0 0 0 0.5 0 0.5 0.0999999642 1 0 1 0.0999999642 0.5 0.199999988 1 0.199999988 0.5 0.300000012 1 0.300000012 0.5 0.399999976 1 0.399999976 0.5 0.5 1 0.5 0.5 0.600000024 1 0.600000024 0.5 0.699999988 1 0.699999988 0.5 0.800000012 1 0.800000012 0.5 0.899999976 1 0.899999976 0 0.300000012 0.5 0.300000012 0 0.399999976 0.5 0.399999976 0 0.5 0.5 0.5 0 0.600000024 0.5 0.600000024 0 0.699999988 0.5 0.699999988 0 0.800000012 0.5 0.800000012 0 0.899999976 0.5 0.899999976 0 1 0.5 1 0.5 1 1 1</float_array>
        <technique_common><accessor source="#vfx_kurp_0656-mesh-uv0-array" count="308" stride="2"><param name="S" type="float"/><param name="T" type="float"/></accessor></technique_common>
      </source>
      <source id="vfx_kurp_0656-mesh-colors">
        <float_array id="vfx_kurp_0656-mesh-colors-array" count="1232">1 1 1 0.799999952 1 1 1 0.599999964 1 1 1 0.599999964 1 1 1 0.299999982 1 1 1 0 1 1 1 0 1 1 1 0 1 1 1 0.599999964 1 1 1 0 1 1 1 0.299999982 1 1 1 0.799999952 1 1 1 0.599999964 1 1 1 1 1 1 1 0.799999952 1 1 1 1 1 1 1 1 1 1 1 1 1 1 1 1 1 1 1 1 1 1 1 1 1 1 1 1 1 1 1 0.799999952 1 1 1 0.799999952 1 1 1 0.599999964 1 1 1 0.599999964 1 1 1 0.299999982 1 1 1 0.799999952 1 1 1 1 1 1 1 1 1 1 1 1 1 1 1 1 1 1 1 1 1 1 1 1 1 1 1 1 1 1 1 0.799999952 1 1 1 1 1 1 1 0.599999964 1 1 1 0.799999952 1 1 1 0.299999982 1 1 1 0.599999964 1 1 1 0 1 1 1 0 1 1 1 0 1 1 1 0 1 1 1 0.799999952 1 1 1 0.599999964 1 1 1 0.599999964 1 1 1 0.299999982 1 1 1 0 1 1 1 0 1 1 1 0 1 1 1 0.599999964 1 1 1 0 1 1 1 0.299999982 1 1 1 0.799999952 1 1 1 0.599999964 1 1 1 1 1 1 1 0.799999952 1 1 1 1 1 1 1 1 1 1 1 1 1 1 1 1 1 1 1 1 1 1 1 1 1 1 1 1 1 1 1 0.799999952 1 1 1 0.799999952 1 1 1 0.599999964 1 1 1 0.599999964 1 1 1 0.299999982 1 1 1 0.799999952 1 1 1 1 1 1 1 1 1 1 1 1 1 1 1 1 1 1 1 1 1 1 1 1 1 1 1 1 1 1 1 0.799999952 1 1 1 1 1 1 1 0.599999964 1 1 1 0.799999952 1 1 1 0.299999982 1 1 1 0.599999964 1 1 1 0 1 1 1 0 1 1 1 0 1 1 1 0 1 1 1 0.799999952 1 1 1 0.599999964 1 1 1 0.599999964 1 1 1 0.299999982 1 1 1 0 1 1 1 0 1 1 1 0 1 1 1 0.599999964 1 1 1 0 1 1 1 0.299999982 1 1 1 0.799999952 1 1 1 0.599999964 1 1 1 1 1 1 1 0.799999952 1 1 1 1 1 1 1 1 1 1 1 1 1 1 1 1 1 1 1 1 1 1 1 1 1 1 1 1 1 1 1 0.799999952 1 1 1 0.799999952 1 1 1 0.599999964 1 1 1 0.599999964 1 1 1 0.299999982 1 1 1 0.799999952 1 1 1 1 1 1 1 1 1 1 1 1 1 1 1 1 1 1 1 1 1 1 1 1 1 1 1 1 1 1 1 0.799999952 1 1 1 1 1 1 1 0.599999964 1 1 1 0.799999952 1 1 1 0.299999982 1 1 1 0.599999964 1 1 1 0 1 1 1 0 1 1 1 0 1 1 1 0 1 1 1 0.799999952 1 1 1 0.599999964 1 1 1 0.599999964 1 1 1 0.299999982 1 1 1 0 1 1 1 0 1 1 1 0 1 1 1 0.599999964 1 1 1 0 1 1 1 0.299999982 1 1 1 0.799999952 1 1 1 0.599999964 1 1 1 1 1 1 1 0.799999952 1 1 1 1 1 1 1 1 1 1 1 1 1 1 1 1 1 1 1 1 1 1 1 1 1 1 1 1 1 1 1 0.799999952 1 1 1 0.799999952 1 1 1 0.599999964 1 1 1 0.599999964 1 1 1 0.299999982 1 1 1 0.799999952 1 1 1 1 1 1 1 1 1 1 1 1 1 1 1 1 1 1 1 1 1 1 1 1 1 1 1 1 1 1 1 0.799999952 1 1 1 1 1 1 1 0.599999964 1 1 1 0.799999952 1 1 1 0.299999982 1 1 1 0.599999964 1 1 1 0 1 1 1 0 1 1 1 0 1 1 1 0 1 1 1 0.799999952 1 1 1 0.599999964 1 1 1 0.599999964 1 1 1 0.299999982 1 1 1 0 1 1 1 0 1 1 1 0 1 1 1 0.599999964 1 1 1 0 1 1 1 0.299999982 1 1 1 0.799999952 1 1 1 0.599999964 1 1 1 1 1 1 1 0.799999952 1 1 1 1 1 1 1 1 1 1 1 1 1 1 1 1 1 1 1 1 1 1 1 1 1 1 1 1 1 1 1 0.799999952 1 1 1 0.799999952 1 1 1 0.599999964 1 1 1 0.599999964 1 1 1 0.299999982 1 1 1 0.799999952 1 1 1 1 1 1 1 1 1 1 1 1 1 1 1 1 1 1 1 1 1 1 1 1 1 1 1 1 1 1 1 0.799999952 1 1 1 1 1 1 1 0.599999964 1 1 1 0.799999952 1 1 1 0.299999982 1 1 1 0.599999964 1 1 1 0 1 1 1 0 1 1 1 0 1 1 1 0 1 1 1 0.799999952 1 1 1 0.599999964 1 1 1 0.599999964 1 1 1 0.299999982 1 1 1 0 1 1 1 0 1 1 1 0 1 1 1 0.599999964 1 1 1 0 1 1 1 0.299999982 1 1 1 0.799999952 1 1 1 0.599999964 1 1 1 1 1 1 1 0.799999952 1 1 1 1 1 1 1 1 1 1 1 1 1 1 1 1 1 1 1 1 1 1 1 1 1 1 1 1 1 1 1 0.799999952 1 1 1 0.799999952 1 1 1 0.599999964 1 1 1 0.599999964 1 1 1 0.299999982 1 1 1 0.799999952 1 1 1 1 1 1 1 1 1 1 1 1 1 1 1 1 1 1 1 1 1 1 1 1 1 1 1 1 1 1 1 0.799999952 1 1 1 1 1 1 1 0.599999964 1 1 1 0.799999952 1 1 1 0.299999982 1 1 1 0.599999964 1 1 1 0 1 1 1 0 1 1 1 0 1 1 1 0 1 1 1 0.799999952 1 1 1 0.599999964 1 1 1 0.599999964 1 1 1 0.299999982 1 1 1 0 1 1 1 0 1 1 1 0 1 1 1 0.599999964 1 1 1 0 1 1 1 0.299999982 1 1 1 0.799999952 1 1 1 0.599999964 1 1 1 1 1 1 1 0.799999952 1 1 1 1 1 1 1 1 1 1 1 1 1 1 1 1 1 1 1 1 1 1 1 1 1 1 1 1 1 1 1 0.799999952 1 1 1 0.799999952 1 1 1 0.599999964 1 1 1 0.599999964 1 1 1 0.299999982 1 1 1 0.799999952 1 1 1 1 1 1 1 1 1 1 1 1 1 1 1 1 1 1 1 1 1 1 1 1 1 1 1 1 1 1 1 0.799999952 1 1 1 1 1 1 1 0.599999964 1 1 1 0.799999952 1 1 1 0.299999982 1 1 1 0.599999964 1 1 1 0 1 1 1 0 1 1 1 0 1 1 1 0</float_array>
        <technique_common><accessor source="#vfx_kurp_0656-mesh-colors-array" count="308" stride="4"><param name="R" type="float"/><param name="G" type="float"/><param name="B" type="float"/><param name="A" type="float"/></accessor></technique_common>
      </source>
      <vertices id="vfx_kurp_0656-mesh-vertices"><input semantic="POSITION" source="#vfx_kurp_0656-mesh-positions"/></vertices>
      <triangles material="PreviewMaterial" count="280">
        <input semantic="VERTEX" source="#vfx_kurp_0656-mesh-vertices" offset="0"/>
        <input semantic="NORMAL" source="#vfx_kurp_0656-mesh-normals" offset="1"/>
        <input semantic="TEXCOORD" source="#vfx_kurp_0656-mesh-uv0" offset="2" set="0"/>
        <input semantic="COLOR" source="#vfx_kurp_0656-mesh-colors" offset="3" set="0"/>
        <p>0 0 0 0 1 1 1 1 2 2 2 2 2 2 2 2 1 1 1 1 3 3 3 3 4 4 4 4 3 3 3 3 1 1 1 1 3 3 3 3 4 4 4 4 5 5 5 5 6 6 6 6 7 7 7 7 8 8 8 8 8 8 8 8 7 7 7 7 9 9 9 9 10 10 10 10 9 9 9 9 7 7 7 7 9 9 9 9 10 10 10 10 11 11 11 11 12 12 12 12 11 11 11 11 10 10 10 10 11 11 11 11 12 12 12 12 13 13 13 13 14 14 14 14 13 13 13 13 12 12 12 12 13 13 13 13 14 14 14 14 15 15 15 15 16 16 16 16 15 15 15 15 14 14 14 14 15 15 15 15 16 16 16 16 17 17 17 17 18 18 18 18 17 17 17 17 16 16 16 16 17 17 17 17 18 18 18 18 19 19 19 19 20 20 20 20 19 19 19 19 18 18 18 18 19 19 19 19 20 20 20 20 21 21 21 21 22 22 22 22 21 21 21 21 20 20 20 20 21 21 21 21 22 22 22 22 23 23 23 23 24 24 24 24 23 23 23 23 22 22 22 22 23 23 23 23 24 24 24 24 25 25 25 25 26 26 26 26 0 0 0 0 2 2 2 2 0 0 0 0 26 26 26 26 27 27 27 27 28 28 28 28 27 27 27 27 26 26 26 26 27 27 27 27 28 28 28 28 29 29 29 29 30 30 30 30 29 29 29 29 28 28 28 28 29 29 29 29 30 30 30 30 31 31 31 31 32 32 32 32 31 31 31 31 30 30 30 30 31 31 31 31 32 32 32 32 33 33 33 33 34 34 34 34 33 33 33 33 32 32 32 32 33 33 33 33 34 34 34 34 35 35 35 35 36 36 36 36 35 35 35 35 34 34 34 34 35 35 35 35 36 36 36 36 37 37 37 37 38 38 38 38 37 37 37 37 36 36 36 36 37 37 37 37 38 38 38 38 39 39 39 39 40 40 40 40 39 39 39 39 38 38 38 38 41 41 41 41 39 39 39 39 40 40 40 40 24 24 24 24 42 42 42 42 25 25 25 25 43 43 43 43 25 25 25 25 42 42 42 42 44 44 44 44 45 45 45 45 46 46 46 46 46 46 46 46 45 45 45 45 47 47 47 47 48 48 48 48 47 47 47 47 45 45 45 45 47 47 47 47 48 48 48 48 49 49 49 49 50 50 50 50 51 51 51 51 52 52 52 52 52 52 52 52 51 51 51 51 53 53 53 53 54 54 54 54 53 53 53 53 51 51 51 51 53 53 53 53 54 54 54 54 55 55 55 55 56 56 56 56 55 55 55 55 54 54 54 54 55 55 55 55 56 56 56 56 57 57 57 57 58 58 58 58 57 57 57 57 56 56 56 56 57 57 57 57 58 58 58 58 59 59 59 59 60 60 60 60 59 59 59 59 58 58 58 58 59 59 59 59 60 60 60 60 61 61 61 61 62 62 62 62 61 61 61 61 60 60 60 60 61 61 61 61 62 62 62 62 63 63 63 63 64 64 64 64 63 63 63 63 62 62 62 62 63 63 63 63 64 64 64 64 65 65 65 65 66 66 66 66 65 65 65 65 64 64 64 64 65 65 65 65 66 66 66 66 67 67 67 67 68 68 68 68 67 67 67 67 66 66 66 66 67 67 67 67 68 68 68 68 69 69 69 69 70 70 70 70 44 44 44 44 46 46 46 46 44 44 44 44 70 70 70 70 71 71 71 71 72 72 72 72 71 71 71 71 70 70 70 70 71 71 71 71 72 72 72 72 73 73 73 73 74 74 74 74 73 73 73 73 72 72 72 72 73 73 73 73 74 74 74 74 75 75 75 75 76 76 76 76 75 75 75 75 74 74 74 74 75 75 75 75 76 76 76 76 77 77 77 77 78 78 78 78 77 77 77 77 76 76 76 76 77 77 77 77 78 78 78 78 79 79 79 79 80 80 80 80 79 79 79 79 78 78 78 78 79 79 79 79 80 80 80 80 81 81 81 81 82 82 82 82 81 81 81 81 80 80 80 80 81 81 81 81 82 82 82 82 83 83 83 83 84 84 84 84 83 83 83 83 82 82 82 82 85 85 85 85 83 83 83 83 84 84 84 84 68 68 68 68 86 86 86 86 69 69 69 69 87 87 87 87 69 69 69 69 86 86 86 86 88 88 88 88 89 89 89 89 90 90 90 90 90 90 90 90 89 89 89 89 91 91 91 91 92 92 92 92 91 91 91 91 89 89 89 89 91 91 91 91 92 92 92 92 93 93 93 93 94 94 94 94 95 95 95 95 96 96 96 96 96 96 96 96 95 95 95 95 97 97 97 97 98 98 98 98 97 97 97 97 95 95 95 95 97 97 97 97 98 98 98 98 99 99 99 99 100 100 100 100 99 99 99 99 98 98 98 98 99 99 99 99 100 100 100 100 101 101 101 101 102 102 102 102 101 101 101 101 100 100 100 100 101 101 101 101 102 102 102 102 103 103 103 103 104 104 104 104 103 103 103 103 102 102 102 102 103 103 103 103 104 104 104 104 105 105 105 105 106 106 106 106 105 105 105 105 104 104 104 104 105 105 105 105 106 106 106 106 107 107 107 107 108 108 108 108 107 107 107 107 106 106 106 106 107 107 107 107 108 108 108 108 109 109 109 109 110 110 110 110 109 109 109 109 108 108 108 108 109 109 109 109 110 110 110 110 111 111 111 111 112 112 112 112 111 111 111 111 110 110 110 110 111 111 111 111 112 112 112 112 113 113 113 113 114 114 114 114 88 88 88 88 90 90 90 90 88 88 88 88 114 114 114 114 115 115 115 115 116 116 116 116 115 115 115 115 114 114 114 114 115 115 115 115 116 116 116 116 117 117 117 117 118 118 118 118 117 117 117 117 116 116 116 116 117 117 117 117 118 118 118 118 119 119 119 119 120 120 120 120 119 119 119 119 118 118 118 118 119 119 119 119 120 120 120 120 121 121 121 121 122 122 122 122 121 121 121 121 120 120 120 120 121 121 121 121 122 122 122 122 123 123 123 123 124 124 124 124 123 123 123 123 122 122 122 122 123 123 123 123 124 124 124 124 125 125 125 125 126 126 126 126 125 125 125 125 124 124 124 124 125 125 125 125 126 126 126 126 127 127 127 127 128 128 128 128 127 127 127 127 126 126 126 126 129 129 129 129 127 127 127 127 128 128 128 128 112 112 112 112 130 130 130 130 113 113 113 113 131 131 131 131 113 113 113 113 130 130 130 130 132 132 132 132 133 133 133 133 134 134 134 134 134 134 134 134 133 133 133 133 135 135 135 135 136 136 136 136 135 135 135 135 133 133 133 133 135 135 135 135 136 136 136 136 137 137 137 137 138 138 138 138 139 139 139 139 140 140 140 140 140 140 140 140 139 139 139 139 141 141 141 141 142 142 142 142 141 141 141 141 139 139 139 139 141 141 141 141 142 142 142 142 143 143 143 143 144 144 144 144 143 143 143 143 142 142 142 142 143 143 143 143 144 144 144 144 145 145 145 145 146 146 146 146 145 145 145 145 144 144 144 144 145 145 145 145 146 146 146 146 147 147 147 147 148 148 148 148 147 147 147 147 146 146 146 146 147 147 147 147 148 148 148 148 149 149 149 149 150 150 150 150 149 149 149 149 148 148 148 148 149 149 149 149 150 150 150 150 151 151 151 151 152 152 152 152 151 151 151 151 150 150 150 150 151 151 151 151 152 152 152 152 153 153 153 153 154 154 154 154 153 153 153 153 152 152 152 152 153 153 153 153 154 154 154 154 155 155 155 155 156 156 156 156 155 155 155 155 154 154 154 154 155 155 155 155 156 156 156 156 157 157 157 157 158 158 158 158 132 132 132 132 134 134 134 134 132 132 132 132 158 158 158 158 159 159 159 159 160 160 160 160 159 159 159 159 158 158 158 158 159 159 159 159 160 160 160 160 161 161 161 161 162 162 162 162 161 161 161 161 160 160 160 160 161 161 161 161 162 162 162 162 163 163 163 163 164 164 164 164 163 163 163 163 162 162 162 162 163 163 163 163 164 164 164 164 165 165 165 165 166 166 166 166 165 165 165 165 164 164 164 164 165 165 165 165 166 166 166 166 167 167 167 167 168 168 168 168 167 167 167 167 166 166 166 166 167 167 167 167 168 168 168 168 169 169 169 169 170 170 170 170 169 169 169 169 168 168 168 168 169 169 169 169 170 170 170 170 171 171 171 171 172 172 172 172 171 171 171 171 170 170 170 170 173 173 173 173 171 171 171 171 172 172 172 172 156 156 156 156 174 174 174 174 157 157 157 157 175 175 175 175 157 157 157 157 174 174 174 174 176 176 176 176 177 177 177 177 178 178 178 178 178 178 178 178 177 177 177 177 179 179 179 179 180 180 180 180 179 179 179 179 177 177 177 177 179 179 179 179 180 180 180 180 181 181 181 181 182 182 182 182 183 183 183 183 184 184 184 184 184 184 184 184 183 183 183 183 185 185 185 185 186 186 186 186 185 185 185 185 183 183 183 183 185 185 185 185 186 186 186 186 187 187 187 187 188 188 188 188 187 187 187 187 186 186 186 186 187 187 187 187 188 188 188 188 189 189 189 189 190 190 190 190 189 189 189 189 188 188 188 188 189 189 189 189 190 190 190 190 191 191 191 191 192 192 192 192 191 191 191 191 190 190 190 190 191 191 191 191 192 192 192 192 193 193 193 193 194 194 194 194 193 193 193 193 192 192 192 192 193 193 193 193 194 194 194 194 195 195 195 195 196 196 196 196 195 195 195 195 194 194 194 194 195 195 195 195 196 196 196 196 197 197 197 197 198 198 198 198 197 197 197 197 196 196 196 196 197 197 197 197 198 198 198 198 199 199 199 199 200 200 200 200 199 199 199 199 198 198 198 198 199 199 199 199 200 200 200 200 201 201 201 201 202 202 202 202 176 176 176 176 178 178 178 178 176 176 176 176 202 202 202 202 203 203 203 203 204 204 204 204 203 203 203 203 202 202 202 202 203 203 203 203 204 204 204 204 205 205 205 205 206 206 206 206 205 205 205 205 204 204 204 204 205 205 205 205 206 206 206 206 207 207 207 207 208 208 208 208 207 207 207 207 206 206 206 206 207 207 207 207 208 208 208 208 209 209 209 209 210 210 210 210 209 209 209 209 208 208 208 208 209 209 209 209 210 210 210 210 211 211 211 211 212 212 212 212 211 211 211 211 210 210 210 210 211 211 211 211 212 212 212 212 213 213 213 213 214 214 214 214 213 213 213 213 212 212 212 212 213 213 213 213 214 214 214 214 215 215 215 215 216 216 216 216 215 215 215 215 214 214 214 214 217 217 217 217 215 215 215 215 216 216 216 216 200 200 200 200 218 218 218 218 201 201 201 201 219 219 219 219 201 201 201 201 218 218 218 218 220 220 220 220 221 221 221 221 222 222 222 222 222 222 222 222 221 221 221 221 223 223 223 223 224 224 224 224 223 223 223 223 221 221 221 221 223 223 223 223 224 224 224 224 225 225 225 225 226 226 226 226 227 227 227 227 228 228 228 228 228 228 228 228 227 227 227 227 229 229 229 229 230 230 230 230 229 229 229 229 227 227 227 227 229 229 229 229 230 230 230 230 231 231 231 231 232 232 232 232 231 231 231 231 230 230 230 230 231 231 231 231 232 232 232 232 233 233 233 233 234 234 234 234 233 233 233 233 232 232 232 232 233 233 233 233 234 234 234 234 235 235 235 235 236 236 236 236 235 235 235 235 234 234 234 234 235 235 235 235 236 236 236 236 237 237 237 237 238 238 238 238 237 237 237 237 236 236 236 236 237 237 237 237 238 238 238 238 239 239 239 239 240 240 240 240 239 239 239 239 238 238 238 238 239 239 239 239 240 240 240 240 241 241 241 241 242 242 242 242 241 241 241 241 240 240 240 240 241 241 241 241 242 242 242 242 243 243 243 243 244 244 244 244 243 243 243 243 242 242 242 242 243 243 243 243 244 244 244 244 245 245 245 245 246 246 246 246 220 220 220 220 222 222 222 222 220 220 220 220 246 246 246 246 247 247 247 247 248 248 248 248 247 247 247 247 246 246 246 246 247 247 247 247 248 248 248 248 249 249 249 249 250 250 250 250 249 249 249 249 248 248 248 248 249 249 249 249 250 250 250 250 251 251 251 251 252 252 252 252 251 251 251 251 250 250 250 250 251 251 251 251 252 252 252 252 253 253 253 253 254 254 254 254 253 253 253 253 252 252 252 252 253 253 253 253 254 254 254 254 255 255 255 255 256 256 256 256 255 255 255 255 254 254 254 254 255 255 255 255 256 256 256 256 257 257 257 257 258 258 258 258 257 257 257 257 256 256 256 256 257 257 257 257 258 258 258 258 259 259 259 259 260 260 260 260 259 259 259 259 258 258 258 258 261 261 261 261 259 259 259 259 260 260 260 260 244 244 244 244 262 262 262 262 245 245 245 245 263 263 263 263 245 245 245 245 262 262 262 262 264 264 264 264 265 265 265 265 266 266 266 266 266 266 266 266 265 265 265 265 267 267 267 267 268 268 268 268 267 267 267 267 265 265 265 265 267 267 267 267 268 268 268 268 269 269 269 269 270 270 270 270 271 271 271 271 272 272 272 272 272 272 272 272 271 271 271 271 273 273 273 273 274 274 274 274 273 273 273 273 271 271 271 271 273 273 273 273 274 274 274 274 275 275 275 275 276 276 276 276 275 275 275 275 274 274 274 274 275 275 275 275 276 276 276 276 277 277 277 277 278 278 278 278 277 277 277 277 276 276 276 276 277 277 277 277 278 278 278 278 279 279 279 279 280 280 280 280 279 279 279 279 278 278 278 278 279 279 279 279 280 280 280 280 281 281 281 281 282 282 282 282 281 281 281 281 280 280 280 280 281 281 281 281 282 282 282 282 283 283 283 283 284 284 284 284 283 283 283 283 282 282 282 282 283 283 283 283 284 284 284 284 285 285 285 285 286 286 286 286 285 285 285 285 284 284 284 284 285 285 285 285 286 286 286 286 287 287 287 287 288 288 288 288 287 287 287 287 286 286 286 286 287 287 287 287 288 288 288 288 289 289 289 289 290 290 290 290 264 264 264 264 266 266 266 266 264 264 264 264 290 290 290 290 291 291 291 291 292 292 292 292 291 291 291 291 290 290 290 290 291 291 291 291 292 292 292 292 293 293 293 293 294 294 294 294 293 293 293 293 292 292 292 292 293 293 293 293 294 294 294 294 295 295 295 295 296 296 296 296 295 295 295 295 294 294 294 294 295 295 295 295 296 296 296 296 297 297 297 297 298 298 298 298 297 297 297 297 296 296 296 296 297 297 297 297 298 298 298 298 299 299 299 299 300 300 300 300 299 299 299 299 298 298 298 298 299 299 299 299 300 300 300 300 301 301 301 301 302 302 302 302 301 301 301 301 300 300 300 300 301 301 301 301 302 302 302 302 303 303 303 303 304 304 304 304 303 303 303 303 302 302 302 302 305 305 305 305 303 303 303 303 304 304 304 304 288 288 288 288 306 306 306 306 289 289 289 289 307 307 307 307 289 289 289 289 306 306 306 306</p>
      </triangles>
    </mesh></geometry>
  </library_geometries>
  <library_visual_scenes>
    <visual_scene id="Scene" name="Scene">
      <node id="vfx_kurp_0656" name="vfx_kurp_0656" type="NODE">
        <instance_geometry url="#vfx_kurp_0656-mesh"><bind_material><technique_common><instance_material symbol="PreviewMaterial" target="#PreviewMaterial"><bind_vertex_input semantic="UVSET0" input_semantic="TEXCOORD" input_set="0"/></instance_material></technique_common></bind_material></instance_geometry>
      </node>
    </visual_scene>
  </library_visual_scenes>
  <scene><instance_visual_scene url="#Scene"/></scene>
</COLLADA>
