<?xml version="1.0" encoding="utf-8"?>
<COLLADA xmlns="http://www.collada.org/2005/11/COLLADASchema" version="1.4.1">
  <asset>
    <contributor><authoring_tool>Morrobroom Kurpulio VFX preview converter</authoring_tool></contributor>
    <unit name="unit" meter="1"/>
    <up_axis>Z_UP</up_axis>
  </asset>
  <library_images>
    <image id="VFXTexture" name="darkmap_newgen-1.dds">
      <init_from>../../../Textures/Kurp/darkmap_newgen-1.dds</init_from>
    </image>
  </library_images>
  <library_effects>
    <effect id="PreviewEffect">
      <profile_COMMON>
        <newparam sid="VFXTexture-surface">
          <surface type="2D"><init_from>VFXTexture</init_from></surface>
        </newparam>
        <newparam sid="VFXTexture-sampler">
          <sampler2D><source>VFXTexture-surface</source></sampler2D>
        </newparam>
        <technique sid="common"><phong>
          <emission><color>0.08 0.08 0.08 1</color></emission>
          <ambient><color>0.2 0.2 0.2 1</color></ambient>
          <diffuse><texture texture="VFXTexture-sampler" texcoord="UVSET0"/></diffuse>
          <specular><color>0.15 0.15 0.15 1</color></specular>
          <shininess><float>8</float></shininess>
          <transparent opaque="A_ONE"><texture texture="VFXTexture-sampler" texcoord="UVSET0"/></transparent>
          <transparency><float>1</float></transparency>
        </phong></technique>
      </profile_COMMON>
      <extra><technique profile="GOOGLEEARTH"><double_sided>1</double_sided></technique></extra>
    </effect>
  </library_effects>
  <library_materials><material id="PreviewMaterial" name="PreviewMaterial"><instance_effect url="#PreviewEffect"/></material></library_materials>
  <library_geometries>
    <geometry id="vfx_kurp_1105-mesh" name="vfx_kurp_1105"><mesh>
      <source id="vfx_kurp_1105-mesh-positions">
        <float_array id="vfx_kurp_1105-mesh-positions-array" count="708">-4.85136819 -4.20333572 2.60412215 -6.93551544 -4.11957078 -0.220024854 -6.6443295 -4.89533534 2.86869123 -7.72991995 -4.39539898 1.04510891 -6.93551544 -4.11957078 -0.220024854 -4.85136819 -4.20333572 2.60412215 -7.54195293 -2.07050625 -0.335635263 -5.2072961 -3.48202264 1.39715406 -7.54195293 -2.07050625 -0.335635263 -4.85136819 -4.20333572 2.60412215 -7.54195293 -2.07050625 -0.335635263 -5.2072961 -3.48202264 1.39715406 -7.10384396 -1.18522065 0.318251184 -4.7726275 -2.84521436 1.97765938 -7.10384396 -1.18522065 0.318251184 -4.7726275 -2.84521436 1.97765938 -5.90545316 -0.172540928 0.458706442 -4.41983885 -2.68342308 1.20516762 -5.90545316 -0.172540928 0.458706442 -4.7726275 -2.84521436 1.97765938 -5.90545316 -0.172540928 0.458706442 -4.41983885 -2.68342308 1.20516762 -5.65254983 0.672998842 0.469961923 -3.12508952 -2.26930606 1.87332444 -5.65254983 0.672998842 0.469961923 -3.12508952 -2.26930606 1.87332444 -4.40819853 1.52849322 -0.734057432 -2.77142306 -0.414240267 1.72063774 -4.40819853 1.52849322 -0.734057432 -3.12508952 -2.26930606 1.87332444 -4.40819853 1.52849322 -0.734057432 -2.77142306 -0.414240267 1.72063774 -3.45383165 1.67298092 -2.15593435 -2.12400585 0.202150686 1.03399392 -3.45383165 1.67298092 -2.15593435 -2.77142306 -0.414240267 1.72063774 -3.45383165 1.67298092 -2.15593435 -2.12400585 0.202150686 1.03399392 -2.41873113 0.949887666 -2.10189782 -1.28986531 -0.0527024199 1.08583992 -1.61054124 0.919225535 -2.6493932 -0.856840005 0.953908591 0.291657469 -1.61054124 0.919225535 -2.6493932 -1.28986531 -0.0527024199 1.08583992 -0.652487348 2.35782822 -3.36164366 -0.461467883 2.34548145 0.217058175 4.76261501 -5.72591285 -2.27713052 1.63842279 -6.78416132 1.33861331 5.1805655 -5.2449206 -3.97657977 1.14655916 -7.16473052 -0.537604712 5.1805655 -5.2449206 -3.97657977 1.63842279 -6.78416132 1.33861331 1.63842279 -6.78416132 1.33861331 4.76261501 -5.72591285 -2.27713052 2.23130734 -6.41778348 1.64465838 5.72754853 -5.55301609 -1.59246112 2.23130734 -6.41778348 1.64465838 5.72754853 -5.55301609 -1.59246112 2.91280842 -5.33049551 1.29134737 4.81888562 -4.32101962 -1.6033187 2.91280842 -5.33049551 1.29134737 5.72754853 -5.55301609 -1.59246112 1.79672528 -4.69564253 2.91440595 5.65791595 -3.49032143 -0.863981958 1.79672528 -4.69564253 2.91440595 4.81888562 -4.32101962 -1.6033187 1.79672528 -4.69564253 2.91440595 5.65791595 -3.49032143 -0.863981958 2.07533388 -3.44047806 2.10929729 3.89404559 -2.94831784 0.198245826 2.07533388 -3.44047806 2.10929729 3.89404559 -2.94831784 0.198245826 1.4223505 -3.00693473 1.5689835 4.11568283 -2.05879678 -0.926839628 1.4223505 -3.00693473 1.5689835 4.11568283 -2.05879678 -0.926839628 0.810025515 -3.09398425 0.904805927 3.65545618 -2.83492295 -2.50472384 0.810025515 -3.09398425 0.904805927 3.65545618 -2.83492295 -2.50472384 -0.00368645706 -2.46874592 0.772236974 3.19274524 -1.7564119 -3.16694014 -0.00368645706 -2.46874592 0.772236974 3.19274524 -1.7564119 -3.16694014 0.264705645 -1.0398308 0.219186475 1.78078505 -0.755335469 -1.66851561 -0.24253931 0.0979065303 1.51900945 2.195009 0.240513977 -3.30464858 -0.24253931 0.0979065303 1.51900945 1.78078505 -0.755335469 -1.66851561 3.93478065 -7.40376995 -0.0784989571 2.23017392 -5.45537677 -0.943613756 3.86119635 -7.40589658 -2.35151655 2.59500409 -5.03790452 -2.50158313 2.23017392 -5.45537677 -0.943613756 3.93478065 -7.40376995 -0.0784989571 2.71479687 -5.23480443 -0.750509992 4.8935387 -6.44533078 0.343680271 2.63973087 -4.57206707 -0.977217619 4.81276483 -5.23358477 0.74546159 2.63973087 -4.57206707 -0.977217619 4.8935387 -6.44533078 0.343680271 2.63973087 -4.57206707 -0.977217619 4.81276483 -5.23358477 0.74546159 2.60346869 -4.3838194 -0.581977245 5.59489332 -3.66569125 2.08412943 2.60346869 -4.3838194 -0.581977245 4.81276483 -5.23358477 0.74546159 2.60346869 -4.3838194 -0.581977245 5.59489332 -3.66569125 2.08412943 2.41823573 -4.12949662 0.0190531823 3.56965232 -2.50878862 1.8764973 2.41823573 -4.12949662 0.0190531823 5.59489332 -3.66569125 2.08412943 2.41823573 -4.12949662 0.0190531823 3.56965232 -2.50878862 1.8764973 2.16220501 -3.7661127 -0.405479032 3.49724634 -1.21204388 1.15188675 1.75907651 -4.02302698 -1.35780969 2.72020566 -1.65970961 0.149810665 1.75907651 -4.02302698 -1.35780969 3.49724634 -1.21204388 1.15188675 0.91788324 -2.63746909 -1.90116722 2.16874303 -1.60557774 -0.628715573 0.91788324 -2.63746909 -1.90116722 2.16874303 -1.60557774 -0.628715573 0.0697682444 -1.46828867 -1.22020939 2.01504632 -0.671002525 -0.0290389228 -0.103639386 -1.05637694 -1.21793052 1.56764887 0.945530722 -0.507244843 4.46836554 -2.21803466 -2.08913711 3.3789864 -0.941636504 -0.423584581 2.95943725 -2.16603072 -2.32947707 1.7535918 -1.22612373 -0.9193433 4.43898908 -2.71319739 -0.627720625 3.3789864 -0.941636504 -0.423584581 4.46836554 -2.21803466 -2.08913711 3.14943158 -1.87498578 0.896401121 3.14943158 -1.87498578 0.896401121 4.43898908 -2.71319739 -0.627720625 5.27732199 -0.482524234 1.38221229 5.06421591 -1.58473899 -0.47263551 5.27732199 -0.482524234 1.38221229 4.43898908 -2.71319739 -0.627720625 5.27732199 -0.482524234 1.38221229 5.06421591 -1.58473899 -0.47263551 6.61893422 -1.6087566 0.761982909 5.32310556 -2.12919054 -0.75297818 6.61893422 -1.6087566 0.761982909 5.32310556 -2.12919054 -0.75297818 7.31909896 -2.02719213 -0.997339036 6.03424997 -2.57398194 -2.46231984 7.31909896 -2.02719213 -0.997339036 6.03424997 -2.57398194 -2.46231984 8.30558747 -3.11060736 -0.742488629 7.22648502 -3.53581137 -2.50599575 8.24690406 -4.60020027 -1.49285463 6.93208569 -5.05367168 -3.45836619 9.95957175 -5.88717185 -0.985555488 7.9234947 -6.05363808 -3.10242344 9.95957175 -5.88717185 -0.985555488 7.9234947 -6.05363808 -3.10242344 8.5247081 -6.92264276 -0.476579399 7.55959246 -6.82064997 -2.44121284 7.34813274 -8.17746596 -0.265208282 5.86619753 -7.96811203 -2.63025698 3.31662486 -2.7323096 -0.644340752 4.39237948 -0.504387799 -1.84419002 2.68091061 -2.90849421 -1.49138227 2.21705351 -0.288612548 -1.70238082 2.68091061 -2.90849421 -1.49138227 4.39237948 -0.504387799 -1.84419002 4.04488452 -1.48257365 -0.394745942 3.55942141 -2.9025047 0.502869582 4.68765295 -2.07024261 1.147214 5.65283738 0.185207316 -0.0448376526 5.65283738 0.185207316 -0.0448376526 4.68765295 -2.07024261 1.147214 6.13283707 -1.32113276 -0.133836703 5.28723082 -3.12027521 0.679858472 6.11064651 -3.40068132 -1.03081879 7.04510411 -1.44567365 -2.10654195 7.04510411 -1.44567365 -2.10654195 6.11064651 -3.40068132 -1.03081879 8.31090179 -2.54199961 -2.15894907 7.40005273 -3.8900452 -1.27215939 8.31090179 -2.54199961 -2.15894907 7.40005273 -3.8900452 -1.27215939 8.26348791 -4.56617162 -3.25530281 7.11616441 -5.04389173 -1.78883132 8.26348791 -4.56617162 -3.25530281 7.11616441 -5.04389173 -1.78883132 10.2670464 -6.12976423 -2.60430725 7.92432486 -5.90123369 -1.53853124 10.2670464 -6.12976423 -2.60430725 7.92432486 -5.90123369 -1.53853124 8.69976131 -7.44782034 -1.92150025 7.11847362 -6.32070466 -1.15317669 7.33227788 -9.02436325 -2.28907838 5.51838391 -7.18294193 -0.838080466 0.412656308 -1.12618191 -1.5851217 -2.19082305 2.59824536 -0.722052754 1.27320944 1.0842314 -2.01059352 -1.90245391 3.73331849 -1.040271 -2.28930979 1.93995177 -0.497522116 -1.02256871 -1.34394478 -0.827375662 -1.99694812 -0.87057817 -0.753984545 -3.02912545 2.27999536 -0.340044206 -3.02912545 2.27999536 -0.340044206 -1.99694812 -0.87057817 -0.753984545 -4.42089803 2.5012446 1.58426517 -2.43990239 -1.45530081 -0.636814275 -4.42089803 2.5012446 1.58426517 -1.99694812 -0.87057817 -0.753984545 -2.4778361 -2.08516714 -0.548791406 -6.26718068 0.834593557 3.02239723 -4.3756223 -2.34834159 -0.452421252 -6.26718068 0.834593557 3.02239723 -2.4778361 -2.08516714 -0.548791406 -6.26718068 0.834593557 3.02239723 -4.3756223 -2.34834159 -0.452421252 -6.19222098 -0.611348542 2.22174721 -6.94645688 -1.76280797 2.61071453 -4.90448133 -2.58202077 -0.297616802 -6.94645688 -1.76280797 2.61071453 -4.3756223 -2.34834159 -0.452421252 -7.39609422 -2.29032341 2.51338248 -5.23792883 -3.33511137 -0.850198878 -7.39609422 -2.29032341 2.51338248 -5.23792883 -3.33511137 -0.850198878 -7.04632642 -3.21094408 2.55700375 -5.23990475 -4.85774877 0.338168541 -7.04632642 -3.21094408 2.55700375 -5.23990475 -4.85774877 0.338168541 -7.64386238 -3.49340678 2.7280593 -6.40882538 -5.77526632 0.856635752</float_array>
        <technique_common><accessor source="#vfx_kurp_1105-mesh-positions-array" count="236" stride="3"><param name="X" type="float"/><param name="Y" type="float"/><param name="Z" type="float"/></accessor></technique_common>
      </source>
      <source id="vfx_kurp_1105-mesh-normals">
        <float_array id="vfx_kurp_1105-mesh-normals-array" count="708">-0.314275929 0.913313219 0.259016611 -0.127802442 0.959010366 0.252914322 -0.234308641 0.937430103 0.257534973 0.0445037783 0.969899262 0.239405171 -0.790963295 -0.201495712 0.577733974 -0.790963244 -0.201495723 0.577734039 -0.790963272 -0.201495721 0.577734001 0.178713792 0.866886248 0.465370404 0.178713792 0.866886248 0.465370404 0.178713794 0.866886261 0.465370379 -0.660531198 -0.206319791 0.721893815 -0.66074544 -0.206630622 0.721608793 -0.660576489 -0.206385451 0.721833601 -0.660796275 -0.206704369 0.721541119 -0.380108758 0.329970086 0.864081636 -0.380108753 0.329970111 0.864081629 -0.380108753 0.329970111 0.864081629 0.709749462 0.550581634 0.439449162 0.709749436 0.550581672 0.439449155 0.709749462 0.550581634 0.439449162 -0.328038344 0.0855939131 0.940778681 -0.451541209 0.0294984135 0.891762513 -0.377711052 0.0636174391 0.92373545 -0.464358927 0.0233836538 0.885338349 0.296633801 0.606609664 0.737585997 0.296633763 0.606609637 0.737586035 0.296633774 0.60660967 0.737586004 -0.738413859 0.19393717 0.645858612 -0.738413886 0.193937187 0.645858577 -0.738413859 0.19393717 0.645858612 0.42577726 0.82585279 0.369703793 0.42577726 0.82585279 0.369703793 0.42577726 0.82585279 0.369703793 -0.266002913 0.828442354 0.49287495 -0.266002916 0.828442367 0.492874926 -0.266002916 0.828442367 0.492874926 0.561938145 0.814984032 0.141515191 0.322253801 0.92722485 0.190805045 0.379249983 0.905395594 0.190861913 0.26029222 0.943603035 0.204600276 0.193021611 0.953486243 0.231531082 -0.873197852 0.460924886 0.158346965 -0.780103348 0.595171536 0.192897924 -0.829170872 0.519508697 0.206364674 -0.843970629 0.514806402 0.150625187 -0.959878597 0.275517199 0.0521857508 0.0150345583 -0.963057704 -0.268875101 0.0150345583 -0.963057704 -0.268875101 0.0150345573 -0.963057706 -0.268875094 0.467763353 -0.88205957 0.056288188 0.467763353 -0.88205957 0.056288188 0.467763353 -0.88205957 0.056288188 0.464541144 -0.87347651 0.145740566 0.228832916 -0.973170206 -0.0239843181 0.434388264 -0.892293657 0.122958797 0.204177885 -0.978084669 -0.0407648193 0.69172292 -0.208936234 0.69127784 0.69172292 -0.208936241 0.691277838 0.69172292 -0.208936241 0.691277838 0.674844731 0.435045351 0.596087353 0.816307212 0.0932504724 0.570041126 0.645543154 0.481347951 0.592940289 0.82947153 0.0326939972 0.557591323 0.532076972 -0.79549393 0.289971556 0.532076972 -0.79549393 0.289971556 0.532076972 -0.79549393 0.289971556 0.605560943 0.330062993 0.72412317 0.580106954 0.4300234 0.691777274 0.601433683 0.348637937 0.718838725 0.553239965 0.510778515 0.658050796 0.22026947 0.873305937 0.434532048 0.31581279 0.734313717 0.60087074 0.24477701 0.843867041 0.477464797 0.329622445 0.707932891 0.62464395 -0.246148104 0.96399873 0.100586078 -0.411995504 0.876781839 -0.248018773 -0.296207165 0.955109462 0.00521826954 -0.430288731 0.853384114 -0.294256965 0.490415301 0.736898008 0.465267835 0.561404265 0.610512651 0.55865871 0.50859115 0.708881622 0.488694064 0.569049855 0.593564749 0.569089757 0.763090591 0.103578026 0.637937569 0.763334925 0.11660554 0.635391957 0.781011934 -0.112629142 0.614276026 0.771632988 0.0772202939 0.631363254 0.763997709 -0.307452205 0.567257122 0.828133242 0.360599017 0.429142963 0.828133242 0.360599017 0.429142963 0.828133242 0.360599017 0.429142963 -0.757890423 -0.651897102 0.0251450658 -0.81422362 -0.552766347 -0.177452141 -0.797144482 -0.595767144 -0.0980927385 -0.827615776 -0.462674236 -0.317780866 -0.393881676 0.0625755162 0.917028642 -0.4276295 0.0392778847 0.903100359 -0.356240596 0.167563536 0.919247029 -0.418242455 0.0660990094 0.905927243 -0.303636367 0.277414522 0.911507619 -0.647281491 -0.278424799 0.70958178 -0.647281491 -0.278424799 0.70958178 -0.647281491 -0.278424799 0.70958178 -0.505961982 -0.795840122 0.332627377 -0.505961967 -0.795840152 0.332627329 -0.505961982 -0.795840122 0.332627377 -0.577286127 -0.344216684 0.740442841 -0.577286129 -0.344216671 0.740442846 -0.577286129 -0.344216671 0.740442846 -0.0996812247 -0.927012834 0.361539567 -0.0996812203 -0.927012854 0.361539519 -0.0996812203 -0.927012854 0.361539519 -0.393569402 -0.55783021 0.730704169 -0.393569402 -0.55783021 0.730704169 -0.393569407 -0.557830188 0.730704183 -0.853138852 0.00829391806 0.521617974 -0.878052728 0.173210249 0.446118388 -0.900448186 0.203867082 0.384228158 -0.884033514 0.2063584 0.41940548 -0.907423502 0.287372927 0.306593197 -0.763269213 -0.0655905918 0.642742548 -0.712328552 -0.147967858 0.686071095 -0.76590558 -0.0942426656 0.636008619 -0.721106855 -0.106715408 0.684555859 -0.783193315 0.244338725 0.571757658 -0.250653605 -0.616525777 0.746370375 -0.256722902 -0.573591184 0.777873065 -0.362273341 -0.408543438 0.837765054 -0.421700765 -0.199838442 0.884439405 -0.474162914 -0.0938713967 0.875418581 -0.501918589 0.114688593 0.857277234 -0.116767232 -0.823701158 0.55487099 -0.0569319467 -0.834232956 0.548465248 -0.0790440719 -0.830707992 0.551068295 -0.0188207158 -0.839305395 0.543334368 -0.838238674 -0.469618815 -0.277153557 -0.821552453 -0.451447404 -0.348205125 -0.852788275 -0.489186394 -0.182890213 -0.792886743 -0.423984821 -0.437684228 0.309401383 -0.698090935 0.645708781 0.309401383 -0.698090935 0.645708781 0.309401383 -0.698090935 0.645708781 0.845749666 -0.495720492 0.197404902 0.845749666 -0.495720492 0.197404902 0.845749673 -0.495720491 0.197404875 -0.409168845 -0.763000318 0.500411202 -0.478713719 -0.650011395 0.590185022 -0.434370861 -0.726208577 0.532863076 -0.51502867 -0.573107427 0.637411442 0.0811156219 -0.961908138 0.261061274 0.0823715774 -0.958561588 0.272717078 0.0822526654 -0.958885963 0.271610401 0.083509686 -0.95537571 0.283343229 -0.6119273 -0.396156619 0.684547232 -0.573929689 -0.581589002 0.576505806 -0.69195325 -0.411038109 0.593505158 -0.705883033 -0.441349784 0.55402122 -0.715602366 -0.416001618 0.561120226 -0.706730181 -0.374492059 0.600240077 -0.619635497 -0.528161931 0.580600401 -0.642589414 -0.405730251 0.649970621 -0.452867091 0.810327702 0.371860745 -0.581050664 0.723612493 0.37251186 -0.574562778 0.731949371 0.366234532 -0.632255456 0.67642643 0.377756962 -0.605425262 0.700452925 0.377923209 -0.543354603 0.735057397 0.405532241 -0.803967623 0.512244184 0.302062837 -0.813718315 0.526056068 0.247239798 -0.711019411 0.567168979 0.415657006 0.0739585628 0.0930609724 0.992909757 0.0739585628 0.0930609724 0.992909757 0.0739585628 0.0930609724 0.992909757 -0.795529805 0.517890477 0.314518336 -0.772678219 0.506266148 0.382966 -0.678801527 0.545987984 0.491045424 -0.676299063 0.548993234 0.491147642 0.611570647 0.148969024 0.777038978 0.640480247 0.0719233957 0.764599293 0.771344519 -0.0317502674 0.635625325 0.778820378 -0.08498128 0.621463596 0.877109444 -0.198085734 0.437539787 0.886198907 -0.191438389 0.421903828 0.324428963 0.332243852 0.885640938 0.314272529 0.352682946 0.881389538 0.318180042 0.344882079 0.883072937 0.304965385 0.370957316 0.877146957 0.846120246 -0.269030287 0.460112196 0.817569566 -0.333272679 0.469584205 0.820334335 -0.327503396 0.468820972 0.779343551 -0.405609149 0.477603233 0.3957899 0.735889489 0.549378754 0.393801217 0.670489439 0.628780179 0.394664387 0.686951924 0.610194293 0.384853124 0.573830402 0.722915447 0.412509326 -0.0186983455 0.910761455 0.425901309 -0.0104850685 0.904708869 0.318900559 -0.177409122 0.931036217 0.340955389 -0.241673535 0.908484081 0.258723373 -0.356688511 0.89768342 0.35400973 -0.33832214 0.871903229 -0.41671401 -0.0695396779 -0.906373911 -0.44035535 -0.144689471 -0.886088101 -0.36941055 -0.055752289 -0.927592329 -0.40196214 -0.151067053 -0.903108622 -0.362598045 -0.0573095747 -0.930181848 -0.338990077 -0.036335277 -0.940088015 -0.0456805787 0.086064509 -0.995241772 -0.17622883 0.071254811 -0.981766852 -0.805735659 -0.190280384 -0.560877369 -0.805735691 -0.190280372 -0.560877328 -0.805735684 -0.190280399 -0.560877328 -0.700040856 0.0494116875 -0.712391244 -0.648902936 0.0805150282 -0.756599174 -0.505705159 0.215711905 -0.835302739 -0.731634831 0.00706606941 -0.681660139 -0.653356653 0.0736227584 -0.753461859 -0.132182789 0.694040866 -0.70769696 -0.132182794 0.69404083 -0.707696994 -0.132182789 0.694040866 -0.70769696 -0.663262016 0.335922527 -0.668759713 -0.698883162 0.28140981 -0.657549119 -0.685789662 0.302140934 -0.662120378 -0.717476433 0.250384124 -0.650027198 -0.504528177 0.675067358 -0.538270732 -0.565179359 0.600271846 -0.565902821 -0.467747496 0.708778139 -0.528058548 -0.567065086 0.599490077 -0.564844081 -0.540857034 0.639969036 -0.545814348 -0.83630116 -0.338180476 -0.431548763 -0.836822967 -0.336451204 -0.431888769 -0.836450982 -0.337685048 -0.43164634 -0.83694361 -0.336049947 -0.431967392 -0.449078645 0.502666554 -0.738684443 -0.561454824 0.335652317 -0.756376892 -0.492961175 0.443054264 -0.748793829 -0.577167367 0.30791843 -0.756349173</float_array>
        <technique_common><accessor source="#vfx_kurp_1105-mesh-normals-array" count="236" stride="3"><param name="X" type="float"/><param name="Y" type="float"/><param name="Z" type="float"/></accessor></technique_common>
      </source>
      <source id="vfx_kurp_1105-mesh-uv0">
        <float_array id="vfx_kurp_1105-mesh-uv0-array" count="472">1 0.0999999642 0 0.0999999642 1 0 0 0 0 0.0999999642 1 0.0999999642 0 0.199999988 1 0.199999988 0 0.199999988 1 0.0999999642 0 0.199999988 1 0.199999988 0 0.300000012 1 0.300000012 0 0.300000012 1 0.300000012 0 0.399999976 1 0.399999976 0 0.399999976 1 0.300000012 0 0.399999976 1 0.399999976 0 0.5 1 0.5 0 0.5 1 0.5 0 0.600000024 1 0.600000024 0 0.600000024 1 0.5 0 0.600000024 1 0.600000024 0 0.699999988 1 0.699999988 0 0.699999988 1 0.600000024 0 0.699999988 1 0.699999988 0 0.800000012 1 0.800000012 0 0.899999976 1 0.899999976 0 0.899999976 1 0.800000012 0 1 1 1 1 0.0999999642 0 0.0999999642 1 0 0 0 1 0 0 0.0999999642 0 0.0999999642 1 0.0999999642 0 0.199999988 1 0.199999988 0 0.199999988 1 0.199999988 0 0.300000012 1 0.300000012 0 0.300000012 1 0.199999988 0 0.399999976 1 0.399999976 0 0.399999976 1 0.300000012 0 0.399999976 1 0.399999976 0 0.5 1 0.5 0 0.5 1 0.5 0 0.600000024 1 0.600000024 0 0.600000024 1 0.600000024 0 0.699999988 1 0.699999988 0 0.699999988 1 0.699999988 0 0.800000012 1 0.800000012 0 0.800000012 1 0.800000012 0 0.899999976 1 0.899999976 0 1 1 1 0 1 1 0.899999976 1 0.0999999642 0 0.0999999642 1 0 0 0 0 0.0999999642 1 0.0999999642 0 0.199999988 1 0.199999988 0 0.300000012 1 0.300000012 0 0.300000012 1 0.199999988 0 0.300000012 1 0.300000012 0 0.399999976 1 0.399999976 0 0.399999976 1 0.300000012 0 0.399999976 1 0.399999976 0 0.5 1 0.5 0 0.5 1 0.399999976 0 0.5 1 0.5 0 0.600000024 1 0.600000024 0 0.699999988 1 0.699999988 0 0.699999988 1 0.600000024 0 0.800000012 1 0.800000012 0 0.800000012 1 0.800000012 0 0.899999976 1 0.899999976 0 1 1 1 0 0.899999976 1 0.899999976 0 1 1 1 0 0.800000012 1 0.899999976 0 0.899999976 1 0.800000012 1 0.800000012 0 0.800000012 1 0.699999988 0 0.699999988 1 0.699999988 0 0.800000012 1 0.699999988 0 0.699999988 1 0.600000024 0 0.600000024 1 0.600000024 0 0.600000024 1 0.5 0 0.5 1 0.5 0 0.5 1 0.399999976 0 0.399999976 1 0.300000012 0 0.300000012 1 0.199999988 0 0.199999988 1 0.199999988 0 0.199999988 1 0.0999999642 0 0.0999999642 1 0 0 0 0 0.899999976 1 0.899999976 0 1 1 1 0 1 1 0.899999976 1 0.800000012 0 0.800000012 0 0.699999988 1 0.699999988 1 0.699999988 0 0.699999988 1 0.600000024 0 0.600000024 0 0.5 1 0.5 1 0.5 0 0.5 1 0.399999976 0 0.399999976 1 0.399999976 0 0.399999976 1 0.300000012 0 0.300000012 1 0.300000012 0 0.300000012 1 0.199999988 0 0.199999988 1 0.199999988 0 0.199999988 1 0.0999999642 0 0.0999999642 1 0 0 0 0 0.899999976 1 0.899999976 0 1 1 1 1 0.800000012 0 0.800000012 0 0.699999988 1 0.699999988 1 0.699999988 0 0.699999988 1 0.600000024 0 0.600000024 1 0.600000024 0 0.699999988 0 0.5 1 0.5 0 0.399999976 1 0.5 0 0.5 1 0.5 0 0.399999976 1 0.399999976 1 0.300000012 0 0.300000012 1 0.300000012 0 0.399999976 1 0.199999988 0 0.199999988 1 0.199999988 0 0.199999988 1 0.0999999642 0 0.0999999642 1 0.0999999642 0 0.0999999642 1 0 0 0</float_array>
        <technique_common><accessor source="#vfx_kurp_1105-mesh-uv0-array" count="236" stride="2"><param name="S" type="float"/><param name="T" type="float"/></accessor></technique_common>
      </source>
      <vertices id="vfx_kurp_1105-mesh-vertices"><input semantic="POSITION" source="#vfx_kurp_1105-mesh-positions"/></vertices>
      <triangles material="PreviewMaterial" count="120">
        <input semantic="VERTEX" source="#vfx_kurp_1105-mesh-vertices" offset="0"/>
        <input semantic="NORMAL" source="#vfx_kurp_1105-mesh-normals" offset="1"/>
        <input semantic="TEXCOORD" source="#vfx_kurp_1105-mesh-uv0" offset="2" set="0"/>
        <p>0 0 0 1 1 1 2 2 2 3 3 3 2 2 2 1 1 1 4 4 4 5 5 5 6 6 6 7 7 7 8 8 8 9 9 9 10 10 10 11 11 11 12 12 12 13 13 13 12 12 12 11 11 11 14 14 14 15 15 15 16 16 16 17 17 17 18 18 18 19 19 19 20 20 20 21 21 21 22 22 22 23 23 23 22 22 22 21 21 21 24 24 24 25 25 25 26 26 26 27 27 27 28 28 28 29 29 29 30 30 30 31 31 31 32 32 32 33 33 33 34 34 34 35 35 35 36 36 36 37 37 37 38 38 38 39 39 39 38 38 38 37 37 37 38 38 38 39 39 39 40 40 40 41 41 41 42 42 42 43 43 43 42 42 42 41 41 41 44 44 44 45 45 45 44 44 44 41 41 41 46 46 46 47 47 47 48 48 48 49 49 49 50 50 50 51 51 51 52 52 52 53 53 53 54 54 54 55 55 55 54 54 54 53 53 53 56 56 56 57 57 57 58 58 58 59 59 59 60 60 60 61 61 61 60 60 60 59 59 59 62 62 62 63 63 63 64 64 64 65 65 65 66 66 66 67 67 67 68 68 68 69 69 69 68 68 68 67 67 67 70 70 70 71 71 71 72 72 72 73 73 73 72 72 72 71 71 71 74 74 74 75 75 75 76 76 76 77 77 77 76 76 76 75 75 75 78 78 78 79 79 79 80 80 80 81 81 81 80 80 80 79 79 79 82 82 82 83 83 83 84 84 84 85 85 85 84 84 84 83 83 83 84 84 84 85 85 85 86 86 86 87 87 87 88 88 88 89 89 89 90 90 90 91 91 91 92 92 92 93 93 93 92 92 92 91 91 91 94 94 94 95 95 95 96 96 96 97 97 97 96 96 96 95 95 95 96 96 96 97 97 97 98 98 98 99 99 99 100 100 100 101 101 101 102 102 102 103 103 103 104 104 104 105 105 105 106 106 106 107 107 107 108 108 108 109 109 109 110 110 110 111 111 111 112 112 112 113 113 113 114 114 114 115 115 115 116 116 116 117 117 117 116 116 116 115 115 115 116 116 116 117 117 117 118 118 118 119 119 119 120 120 120 121 121 121 120 120 120 119 119 119 122 122 122 123 123 123 122 122 122 119 119 119 124 124 124 125 125 125 126 126 126 127 127 127 126 126 126 125 125 125 126 126 126 127 127 127 128 128 128 129 129 129 128 128 128 127 127 127 130 130 130 131 131 131 132 132 132 133 133 133 132 132 132 131 131 131 134 134 134 135 135 135 136 136 136 135 135 135 134 134 134 137 137 137 138 138 138 139 139 139 140 140 140 141 141 141 142 142 142 143 143 143 144 144 144 145 145 145 146 146 146 147 147 147 146 146 146 145 145 145 148 148 148 149 149 149 150 150 150 151 151 151 150 150 150 149 149 149 152 152 152 153 153 153 154 154 154 155 155 155 154 154 154 153 153 153 154 154 154 155 155 155 156 156 156 157 157 157 156 156 156 155 155 155 156 156 156 157 157 157 158 158 158 159 159 159 158 158 158 157 157 157 160 160 160 161 161 161 162 162 162 163 163 163 162 162 162 161 161 161 162 162 162 163 163 163 164 164 164 165 165 165 164 164 164 163 163 163 166 166 166 167 167 167 168 168 168 169 169 169 170 170 170 171 171 171 167 167 167 166 166 166 172 172 172 173 173 173 172 172 172 166 166 166 174 174 174 172 172 172 173 173 173 172 172 172 174 174 174 175 175 175 176 176 176 177 177 177 178 178 178 179 179 179 178 178 178 177 177 177 180 180 180 178 178 178 179 179 179 178 178 178 180 180 180 181 181 181 182 182 182 183 183 183 184 184 184 185 185 185 184 184 184 183 183 183 186 186 186 187 187 187 188 188 188 189 189 189 188 188 188 187 187 187 190 190 190 191 191 191 192 192 192 193 193 193 192 192 192 191 191 191 194 194 194 195 195 195 196 196 196 197 197 197 196 196 196 195 195 195 196 196 196 197 197 197 198 198 198 199 199 199 198 198 198 197 197 197 200 200 200 201 201 201 202 202 202 203 203 203 202 202 202 201 201 201 201 201 201 200 200 200 204 204 204 205 205 205 204 204 204 200 200 200 206 206 206 204 204 204 205 205 205 204 204 204 206 206 206 207 207 207 208 208 208 209 209 209 210 210 210 211 211 211 212 212 212 213 213 213 214 214 214 212 212 212 211 211 211 212 212 212 214 214 214 215 215 215 216 216 216 217 217 217 218 218 218 219 219 219 220 220 220 221 221 221 221 221 221 220 220 220 222 222 222 223 223 223 224 224 224 225 225 225 224 224 224 223 223 223 226 226 226 227 227 227 226 226 226 223 223 223 228 228 228 229 229 229 230 230 230 231 231 231 230 230 230 229 229 229 232 232 232 233 233 233 234 234 234 235 235 235 234 234 234 233 233 233</p>
      </triangles>
    </mesh></geometry>
  </library_geometries>
  <library_visual_scenes>
    <visual_scene id="Scene" name="Scene">
      <node id="vfx_kurp_1105" name="vfx_kurp_1105" type="NODE">
        <instance_geometry url="#vfx_kurp_1105-mesh"><bind_material><technique_common><instance_material symbol="PreviewMaterial" target="#PreviewMaterial"><bind_vertex_input semantic="UVSET0" input_semantic="TEXCOORD" input_set="0"/></instance_material></technique_common></bind_material></instance_geometry>
      </node>
    </visual_scene>
  </library_visual_scenes>
  <scene><instance_visual_scene url="#Scene"/></scene>
</COLLADA>
