<?xml version="1.0" encoding="utf-8"?>
<COLLADA xmlns="http://www.collada.org/2005/11/COLLADASchema" version="1.4.1">
  <asset>
    <contributor><authoring_tool>Morrobroom Kurpulio VFX preview converter</authoring_tool></contributor>
    <unit name="unit" meter="1"/>
    <up_axis>Z_UP</up_axis>
  </asset>
  <library_images>
    <image id="VFXTexture" name="darkmap_newgen-1.dds">
      <init_from>../../../Textures/Kurp/darkmap_newgen-1.dds</init_from>
    </image>
  </library_images>
  <library_effects>
    <effect id="PreviewEffect">
      <profile_COMMON>
        <newparam sid="VFXTexture-surface">
          <surface type="2D"><init_from>VFXTexture</init_from></surface>
        </newparam>
        <newparam sid="VFXTexture-sampler">
          <sampler2D><source>VFXTexture-surface</source></sampler2D>
        </newparam>
        <technique sid="common"><phong>
          <emission><color>0.08 0.08 0.08 1</color></emission>
          <ambient><color>0.2 0.2 0.2 1</color></ambient>
          <diffuse><texture texture="VFXTexture-sampler" texcoord="UVSET0"/></diffuse>
          <specular><color>0.15 0.15 0.15 1</color></specular>
          <shininess><float>8</float></shininess>
          <transparent opaque="A_ONE"><texture texture="VFXTexture-sampler" texcoord="UVSET0"/></transparent>
          <transparency><float>1</float></transparency>
        </phong></technique>
      </profile_COMMON>
      <extra><technique profile="GOOGLEEARTH"><double_sided>1</double_sided></technique></extra>
    </effect>
  </library_effects>
  <library_materials><material id="PreviewMaterial" name="PreviewMaterial"><instance_effect url="#PreviewEffect"/></material></library_materials>
  <library_geometries>
    <geometry id="vfx_kurp_0562-mesh" name="vfx_kurp_0562"><mesh>
      <source id="vfx_kurp_0562-mesh-positions">
        <float_array id="vfx_kurp_0562-mesh-positions-array" count="900">0.011444132 -0.6281537 7.60899182 -3.15086559 -0.477540566 8.36665775 0.28306379 -0.334893056 7.85822117 -2.63295338 0.78051849 9.3706502 0.28306379 -0.334893056 7.85822117 -3.15086559 -0.477540566 8.36665775 0.28306379 -0.334893056 7.85822117 -2.63295338 0.78051849 9.3706502 0.704035918 -0.231764608 8.10045884 -1.59071319 1.46098592 10.3712393 0.704035918 -0.231764608 8.10045884 -2.63295338 0.78051849 9.3706502 0.704035918 -0.231764608 8.10045884 -1.59071319 1.46098592 10.3712393 1.20253533 -0.347893833 8.3310299 -0.356246332 1.46444791 11.2741387 1.20253533 -0.347893833 8.3310299 -1.59071319 1.46098592 10.3712393 1.20253533 -0.347893833 8.3310299 -0.356246332 1.46444791 11.2741387 1.70792419 -0.707733194 8.54516336 0.74634186 0.8715708 12.0127567 1.70792419 -0.707733194 8.54516336 -0.356246332 1.46444791 11.2741387 1.70792419 -0.707733194 8.54516336 0.74634186 0.8715708 12.0127567 2.12871294 -1.33071001 8.73231575 1.48391464 -0.112369316 12.5605949 2.12871294 -1.33071001 8.73231575 0.74634186 0.8715708 12.0127567 4.97654179 1.32174861 12.4380941 1.48391464 -0.112369316 12.5605949 3.19260997 3.39723128 11.2613729 0.74634186 0.8715708 12.0127567 3.19260997 3.39723128 11.2613729 0.74634186 0.8715708 12.0127567 0.89911454 4.42598472 9.84358033 -0.356246332 1.46444791 11.2741387 0.74634186 0.8715708 12.0127567 0.89911454 4.42598472 9.84358033 -0.356246332 1.46444791 11.2741387 -1.33294934 4.26465066 8.31337625 -1.59071319 1.46098592 10.3712393 -0.356246332 1.46444791 11.2741387 -1.33294934 4.26465066 8.31337625 -1.59071319 1.46098592 10.3712393 -2.97750454 3.06298255 6.82752688 -2.63295338 0.78051849 9.3706502 -1.59071319 1.46098592 10.3712393 -2.97750454 3.06298255 6.82752688 -2.63295338 0.78051849 9.3706502 -3.68879437 1.21179377 5.53053558 -3.15086559 -0.477540566 8.36665775 -2.63295338 0.78051849 9.3706502 -3.68879437 1.21179377 5.53053558 -3.15086559 -0.477540566 8.36665775 -3.38043469 -0.773482558 4.51914794 -2.90857811 -2.02972726 7.45659572 -3.38043469 -0.773482558 4.51914794 -2.90857811 -2.02972726 7.45659572 -2.22824613 -2.39601047 3.82168664 -1.8571854 -3.46725084 6.71085032 -2.22824613 -2.39601047 3.82168664 -1.8571854 -3.46725084 6.71085032 -0.542201116 -3.30352856 3.38594743 -0.0424241172 -4.3877855 6.1173906 -0.542201116 -3.30352856 3.38594743 -0.0424241172 -4.3877855 6.1173906 1.03808271 -3.3211609 3.15429014 1.88154741 -4.35139173 5.69472924 -3.15086559 -0.477540566 8.36665775 0.011444132 -0.6281537 7.60899182 -2.90857811 -2.02972726 7.45659572 -0.0319040284 -1.05592272 7.36225089 -2.90857811 -2.02972726 7.45659572 0.011444132 -0.6281537 7.60899182 -2.90857811 -2.02972726 7.45659572 -0.0319040284 -1.05592272 7.36225089 -1.8571854 -3.46725084 6.71085032 0.217126649 -1.51076871 7.13103311 -1.8571854 -3.46725084 6.71085032 -0.0319040284 -1.05592272 7.36225089 -1.8571854 -3.46725084 6.71085032 0.217126649 -1.51076871 7.13103311 -0.0424241172 -4.3877855 6.1173906 0.504195256 -1.73527439 6.99232972 -0.0424241172 -4.3877855 6.1173906 0.217126649 -1.51076871 7.13103311 -0.0424241172 -4.3877855 6.1173906 0.504195256 -1.73527439 6.99232972 1.88154741 -4.35139173 5.69472924 1.28597436 -1.81259846 6.77092474 1.88154741 -4.35139173 5.69472924 0.504195256 -1.73527439 6.99232972 1.88154741 -4.35139173 5.69472924 1.28597436 -1.81259846 6.77092474 3.59407527 -3.2787127 5.25961051 1.9587248 -1.4781237 6.55060955 3.59407527 -3.2787127 5.25961051 1.28597436 -1.81259846 6.77092474 3.59407527 -3.2787127 5.25961051 1.9587248 -1.4781237 6.55060955 4.41045999 -1.45880133 4.68471319 2.47214181 -0.60263565 6.19352671 4.41045999 -1.45880133 4.68471319 2.47214181 -0.60263565 6.19352671 4.15500452 0.352033976 3.91132417 2.36476069 0.680734251 5.55793529 4.15500452 0.352033976 3.91132417 2.36476069 0.680734251 5.55793529 3.01496246 1.75367535 2.80622455 1.49190667 1.79444127 4.56715473 3.01496246 1.75367535 2.80622455 2.36476069 0.680734251 5.55793529 3.01496246 1.75367535 2.80622455 1.49190667 1.79444127 4.56715473 1.56096801 2.14962654 1.51884737 0.0988337772 2.17658895 3.18004625 1.56096801 2.14962654 1.51884737 1.49190667 1.79444127 4.56715473 1.03808271 -3.3211609 3.15429014 1.88154741 -4.35139173 5.69472924 2.16159654 -2.6869545 2.98568227 3.59407527 -3.2787127 5.25961051 2.16159654 -2.6869545 2.98568227 3.59407527 -3.2787127 5.25961051 2.67844943 -1.79255849 2.79953616 4.41045999 -1.45880133 4.68471319 2.67844943 -1.79255849 2.79953616 3.59407527 -3.2787127 5.25961051 2.67844943 -1.79255849 2.79953616 4.41045999 -1.45880133 4.68471319 2.61494198 -0.787452117 2.46455538 4.15500452 0.352033976 3.91132417 4.41045999 -1.45880133 4.68471319 2.61494198 -0.787452117 2.46455538 4.15500452 0.352033976 3.91132417 2.20229672 -0.213189182 2.09204683 3.01496246 1.75367535 2.80622455 2.20229672 -0.213189182 2.09204683 4.15500452 0.352033976 3.91132417 2.20229672 -0.213189182 2.09204683 3.01496246 1.75367535 2.80622455 1.68130945 -0.0202282474 1.64154492 1.56096801 2.14962654 1.51884737 1.68130945 -0.0202282474 1.64154492 3.01496246 1.75367535 2.80622455 1.68130945 -0.0202282474 1.64154492 1.56096801 2.14962654 1.51884737 1.35415108 -0.11794954 1.26623875 1.35415108 -0.11794954 1.26623875 1.56096801 2.14962654 1.51884737 0.480019366 1.52235859 0.213766348 0.0988337772 2.17658895 3.18004625 0.480019366 1.52235859 0.213766348 1.56096801 2.14962654 1.51884737 0.480019366 1.52235859 0.213766348 0.0988337772 2.17658895 3.18004625 -1.19308876 1.34985894 1.41519224 -2.90857811 -2.02972726 7.45659572 -3.15086559 -0.477540566 8.36665775 -3.38043469 -0.773482558 4.51914794 -3.68879437 1.21179377 5.53053558 -2.63295338 0.78051849 9.3706502 -3.68879437 1.21179377 5.53053558 -3.15086559 -0.477540566 8.36665775 -2.97750454 3.06298255 6.82752688 -1.59071319 1.46098592 10.3712393 -2.97750454 3.06298255 6.82752688 -2.63295338 0.78051849 9.3706502 -1.59071319 1.46098592 10.3712393 -1.33294934 4.26465066 8.31337625 -0.356246332 1.46444791 11.2741387 -1.33294934 4.26465066 8.31337625 -0.356246332 1.46444791 11.2741387 0.89911454 4.42598472 9.84358033 0.74634186 0.8715708 12.0127567 0.89911454 4.42598472 9.84358033 0.74634186 0.8715708 12.0127567 3.19260997 3.39723128 11.2613729 0.217126649 -1.51076871 7.13103311 -0.0424241172 -4.3877855 6.1173906 0.504195256 -1.73527439 6.99232972 -0.0424241172 -4.3877855 6.1173906 0.217126649 -1.51076871 7.13103311 -1.8571854 -3.46725084 6.71085032 -0.0319040284 -1.05592272 7.36225089 -1.8571854 -3.46725084 6.71085032 0.217126649 -1.51076871 7.13103311 -1.8571854 -3.46725084 6.71085032 -0.0319040284 -1.05592272 7.36225089 0.011444132 -0.6281537 7.60899182 -2.90857811 -2.02972726 7.45659572 -0.0319040284 -1.05592272 7.36225089 -2.90857811 -2.02972726 7.45659572 0.011444132 -0.6281537 7.60899182 -3.15086559 -0.477540566 8.36665775 0.28306379 -0.334893056 7.85822117 -3.15086559 -0.477540566 8.36665775 0.011444132 -0.6281537 7.60899182 -3.15086559 -0.477540566 8.36665775 0.28306379 -0.334893056 7.85822117 -2.63295338 0.78051849 9.3706502 0.704035918 -0.231764608 8.10045884 0.28306379 -0.334893056 7.85822117 -2.63295338 0.78051849 9.3706502 0.704035918 -0.231764608 8.10045884 -1.59071319 1.46098592 10.3712393 1.20253533 -0.347893833 8.3310299 0.704035918 -0.231764608 8.10045884 -1.59071319 1.46098592 10.3712393 1.20253533 -0.347893833 8.3310299 -0.356246332 1.46444791 11.2741387 1.70792419 -0.707733194 8.54516336 1.20253533 -0.347893833 8.3310299 -0.356246332 1.46444791 11.2741387 1.70792419 -0.707733194 8.54516336 0.74634186 0.8715708 12.0127567 2.12871294 -1.33071001 8.73231575 1.70792419 -0.707733194 8.54516336 1.48391464 -0.112369316 12.5605949 2.12871294 -1.33071001 8.73231575 0.74634186 0.8715708 12.0127567 1.48391464 -0.112369316 12.5605949 3.19260997 3.39723128 11.2613729 4.97654179 1.32174861 12.4380941 -0.0424241172 -4.3877855 6.1173906 1.88154741 -4.35139173 5.69472924 0.504195256 -1.73527439 6.99232972 0.504195256 -1.73527439 6.99232972 1.88154741 -4.35139173 5.69472924 1.28597436 -1.81259846 6.77092474 3.59407527 -3.2787127 5.25961051 1.28597436 -1.81259846 6.77092474 1.88154741 -4.35139173 5.69472924 1.28597436 -1.81259846 6.77092474 1.9587248 -1.4781237 6.55060955 4.41045999 -1.45880133 4.68471319 1.9587248 -1.4781237 6.55060955 2.47214181 -0.60263565 6.19352671 4.15500452 0.352033976 3.91132417 2.47214181 -0.60263565 6.19352671 2.36476069 0.680734251 5.55793529 3.01496246 1.75367535 2.80622455 2.36476069 0.680734251 5.55793529 2.36476069 0.680734251 5.55793529 1.49190667 1.79444127 4.56715473 1.56096801 2.14962654 1.51884737 1.49190667 1.79444127 4.56715473 1.49190667 1.79444127 4.56715473 1.56096801 2.14962654 1.51884737 0.0988337772 2.17658895 3.18004625 0.480019366 1.52235859 0.213766348 0.0988337772 2.17658895 3.18004625 0.0988337772 2.17658895 3.18004625 0.480019366 1.52235859 0.213766348 -1.19308876 1.34985894 1.41519224 0.480019366 1.52235859 0.213766348 1.56096801 2.14962654 1.51884737 1.35415108 -0.11794954 1.26623875 1.35415108 -0.11794954 1.26623875 1.68130945 -0.0202282474 1.64154492 3.01496246 1.75367535 2.80622455 1.68130945 -0.0202282474 1.64154492 1.56096801 2.14962654 1.51884737 1.68130945 -0.0202282474 1.64154492 3.01496246 1.75367535 2.80622455 2.20229672 -0.213189182 2.09204683 4.15500452 0.352033976 3.91132417 2.20229672 -0.213189182 2.09204683 3.01496246 1.75367535 2.80622455 2.20229672 -0.213189182 2.09204683 4.15500452 0.352033976 3.91132417 2.61494198 -0.787452117 2.46455538 4.41045999 -1.45880133 4.68471319 2.61494198 -0.787452117 2.46455538 4.15500452 0.352033976 3.91132417 2.67844943 -1.79255849 2.79953616 3.59407527 -3.2787127 5.25961051 2.67844943 -1.79255849 2.79953616 4.41045999 -1.45880133 4.68471319 2.67844943 -1.79255849 2.79953616 3.59407527 -3.2787127 5.25961051 2.16159654 -2.6869545 2.98568227 2.16159654 -2.6869545 2.98568227 3.59407527 -3.2787127 5.25961051 1.88154741 -4.35139173 5.69472924 1.03808271 -3.3211609 3.15429014 -0.0424241172 -4.3877855 6.1173906 1.03808271 -3.3211609 3.15429014 1.88154741 -4.35139173 5.69472924 -0.542201116 -3.30352856 3.38594743 -1.8571854 -3.46725084 6.71085032 -0.542201116 -3.30352856 3.38594743 -0.0424241172 -4.3877855 6.1173906 -2.22824613 -2.39601047 3.82168664 -2.90857811 -2.02972726 7.45659572 -2.22824613 -2.39601047 3.82168664 -1.8571854 -3.46725084 6.71085032 -3.38043469 -0.773482558 4.51914794</float_array>
        <technique_common><accessor source="#vfx_kurp_0562-mesh-positions-array" count="300" stride="3"><param name="X" type="float"/><param name="Y" type="float"/><param name="Z" type="float"/></accessor></technique_common>
      </source>
      <source id="vfx_kurp_0562-mesh-normals">
        <float_array id="vfx_kurp_0562-mesh-normals-array" count="900">-0.131910993 0.710028456 -0.691707367 -0.13191102 0.710028448 -0.691707371 -0.13191102 0.710028453 -0.691707365 -0.13750398 0.651805167 -0.745816787 -0.13750398 0.651805169 -0.745816785 -0.13750398 0.65180517 -0.745816784 0.0735728218 0.865106839 -0.49616247 0.0735728218 0.865106839 -0.49616247 0.0735728218 0.865106839 -0.49616247 0.0259292764 0.8138573 -0.580485975 0.0259292764 0.8138573 -0.580485975 0.0259292764 0.8138573 -0.580485975 0.348572267 0.885329386 -0.307716191 0.348572262 0.885329396 -0.307716167 0.348572267 0.885329386 -0.307716191 0.282731077 0.876371823 -0.389917383 0.282731081 0.876371811 -0.389917407 0.282731077 0.876371823 -0.389917383 0.614992765 0.773963833 -0.150877053 0.614992765 0.773963833 -0.150877053 0.614992744 0.773963848 -0.150877061 0.5669109 0.797592618 -0.206053505 0.566910886 0.79759262 -0.206053536 0.5669109 0.797592618 -0.206053505 0.831550674 0.555005793 -0.0221821118 0.831550674 0.555005793 -0.0221821118 0.831550674 0.555005793 -0.0221821118 0.811952354 0.581715991 -0.0483723071 0.811952329 0.581716025 -0.0483723219 0.811952329 0.581716025 -0.0483723219 0.132525562 -0.400207741 -0.906791453 0.132525569 -0.400207718 -0.906791462 0.132525576 -0.400207694 -0.906791472 0.136644251 -0.401736113 -0.90550342 0.275494228 -0.509372825 -0.815255945 0.275494228 -0.509372825 -0.815255945 0.275494215 -0.509372824 -0.81525595 0.272568988 -0.509716033 -0.816024333 0.111157117 -0.600479307 -0.791876693 0.502308985 -0.539382127 -0.675834747 0.502309003 -0.539382149 -0.675834716 0.502308985 -0.539382127 -0.675834747 0.496830773 -0.542734983 -0.677198583 0.388225474 -0.66123456 -0.641911083 0.757713989 -0.429981005 -0.490903091 0.757713989 -0.429981005 -0.490903091 0.757713989 -0.429981005 -0.490903091 0.755124834 -0.433737099 -0.491587849 0.702014656 -0.555465999 -0.445682563 0.945538592 -0.167946938 -0.278837939 0.945538584 -0.16794696 -0.278837956 0.945538584 -0.16794696 -0.278837956 0.945748679 -0.166866096 -0.278774358 0.936631084 -0.275317916 -0.216615462 0.979207821 0.189275558 -0.0729849708 0.979207821 0.189275563 -0.072984966 0.979207826 0.189275542 -0.0729849498 0.977916452 0.195682752 -0.0734007687 0.831086781 0.546999398 0.100431175 0.831086769 0.546999413 0.100431192 0.831086781 0.546999398 0.100431175 0.826962496 0.553471439 0.0990070535 0.507580935 0.827074831 0.241472189 0.507580935 0.827074831 0.241472189 0.507580937 0.827074838 0.241472164 0.500274616 0.832274862 0.238838572 0.0629104923 0.931502679 0.358252744 0.0629104923 0.931502679 0.358252744 0.0629104923 0.931502679 0.358252744 0.0609453374 0.931859303 0.357664516 -0.183450405 0.475734723 -0.860245559 -0.183450405 0.475734723 -0.860245559 -0.183450405 0.475734723 -0.860245559 -0.198412503 0.504723888 -0.840170385 -0.198412503 0.504723888 -0.840170385 -0.198412503 0.504723888 -0.840170385 -0.48887181 0.0959469701 -0.867063165 -0.153444689 0.364292205 -0.918556431 -0.153444715 0.36429218 -0.918556436 -0.166686714 0.372768911 -0.912830148 -0.166686742 0.372768938 -0.912830131 -0.166686742 0.372768938 -0.912830131 -0.327619675 -0.0297409043 -0.944341478 -0.132044692 0.339968674 -0.931120562 -0.132044666 0.339968698 -0.931120556 -0.178970134 0.341261148 -0.922773277 -0.178970134 0.341261148 -0.922773277 -0.178970108 0.341261146 -0.922773282 -0.21543 0.0182073899 -0.976349531 -0.207627705 0.344749376 -0.915444484 -0.207627679 0.344749375 -0.915444491 -0.225966215 0.3347761 -0.914802838 -0.225966215 0.3347761 -0.914802838 -0.225966217 0.334776126 -0.914802828 -0.396401926 0.27792137 -0.875000129 -0.396401926 0.27792137 -0.875000129 -0.39640193 0.277921396 -0.875000119 -0.412377767 0.252964184 -0.875187808 -0.412377767 0.252964184 -0.875187808 -0.412377767 0.252964184 -0.875187808 -0.605589519 0.0203601536 -0.795516687 -0.605589494 0.0203601482 -0.795516706 -0.60558951 0.0203601304 -0.795516694 -0.60548102 0.0307121323 -0.795266936 -0.666902535 -0.370256184 -0.646646246 -0.666902532 -0.37025618 -0.646646251 -0.666902533 -0.370256182 -0.646646248 -0.663779125 -0.375799801 -0.646662031 -0.518340542 -0.748170103 -0.414203549 -0.518340542 -0.748170103 -0.414203549 -0.518340542 -0.748170103 -0.414203549 -0.49972599 -0.760505384 -0.414614876 -0.499725995 -0.760505395 -0.41461485 -0.49972599 -0.760505384 -0.414614876 -0.162452967 -0.979655756 -0.117828832 -0.162452967 -0.979655756 -0.117828832 -0.162452967 -0.979655756 -0.117828832 -0.151920439 -0.981349216 -0.117787508 -0.151920439 -0.981349216 -0.117787508 -0.151920439 -0.981349216 -0.117787508 -0.385429433 0.8034417 0.453790244 -0.385429435 0.803441698 0.453790247 -0.385429435 0.803441698 0.453790247 -0.387680905 0.802734677 0.453123111 -0.667772747 0.500554402 0.550930892 -0.667772747 0.500554402 0.550930892 -0.667772715 0.500554449 0.550930889 -0.686578425 0.480386162 0.545746463 -0.686578425 0.480386162 0.545746463 -0.564826209 0.403211931 0.719994092 -0.740484219 0.16992322 0.650237819 -0.740484219 0.16992322 0.650237819 -0.740484219 0.16992322 0.650237819 -0.739443869 0.173498486 0.650477548 -0.480818066 0.14979404 0.863930398 -0.6796543 -0.0126239023 0.733423936 -0.679654282 -0.0126239082 0.733423953 -0.6796543 -0.0126239023 0.733423936 -0.684352778 0.0180829329 0.728926802 -0.684352778 0.0180829329 0.728926802 -0.289068956 0.190759957 0.938109683 -0.654888172 -0.00381852141 0.755716151 -0.654888191 -0.00381851561 0.755716134 -0.654888172 -0.00381852141 0.755716151 -0.662030977 0.00566237966 0.749455084 -0.662030977 0.00566237966 0.749455084 -0.305594075 0.404992876 0.861738378 -0.753205458 -0.00457874266 0.657769393 -0.753205458 -0.00457874266 0.657769393 -0.753205458 -0.00457874266 0.657769393 -0.769934362 -0.000864244567 0.638122504 -0.769934362 -0.000864244567 0.638122504 -0.769934362 -0.000864244567 0.638122504 0.254686432 -0.936928476 0.239373875 0.254686432 -0.936928476 0.239373875 0.34748208 -0.925150185 0.152817994 0.268696167 -0.93277966 0.240259183 0.268696194 -0.932779661 0.240259149 0.268696194 -0.932779661 0.240259149 -0.688209883 -0.378611435 0.618886532 -0.978420785 -0.193206152 0.0732403548 -0.978800859 -0.191318225 0.0731178131 -0.979207821 -0.189275558 0.0729849708 -0.945748681 0.166866116 0.27877434 -0.945748681 0.166866116 0.27877434 -0.945748679 0.166866096 0.278774358 -0.945538592 0.167946938 0.278837939 -0.590836906 0.512721692 0.62291911 -0.755124834 0.433737099 0.491587849 -0.755124834 0.433737099 0.491587849 -0.757713989 0.429981005 0.490903091 -0.757713989 0.429981005 0.490903091 -0.34985069 0.524819365 0.775995573 -0.496830773 0.542734983 0.677198583 -0.502309003 0.539382149 0.675834716 -0.502308985 0.539382127 0.675834747 -0.833062201 -0.179293798 0.523317403 -0.272568988 0.509716033 0.816024333 -0.275494228 0.509372825 0.815255945 -0.275494228 0.509372825 0.815255945 0.178970108 -0.341261146 0.922773282 0.178970134 -0.341261148 0.922773277 0.178970134 -0.341261148 0.922773277 0.132044666 -0.339968698 0.931120556 0.132044692 -0.339968674 0.931120562 0.132044693 -0.3399687 0.931120552 0.166686742 -0.372768938 0.912830131 0.166686742 -0.372768938 0.912830131 0.166686714 -0.372768911 0.912830148 0.153444715 -0.36429218 0.918556436 0.153444689 -0.364292205 0.918556431 0.198412503 -0.504723888 0.840170385 0.198412503 -0.504723888 0.840170385 0.198412503 -0.504723888 0.840170385 0.183450405 -0.475734723 0.860245559 0.183450405 -0.475734723 0.860245559 0.183450405 -0.475734723 0.860245559 0.13191102 -0.710028453 0.691707365 0.13191102 -0.710028448 0.691707371 0.131910993 -0.710028456 0.691707367 0.13750398 -0.65180517 0.745816784 0.13750398 -0.651805169 0.745816785 0.13750398 -0.651805167 0.745816787 -0.0735728218 -0.865106839 0.49616247 -0.0735728218 -0.865106839 0.49616247 -0.0259292764 -0.8138573 0.580485975 -0.0259292764 -0.8138573 0.580485975 -0.0259292764 -0.8138573 0.580485975 -0.348572267 -0.885329386 0.307716191 -0.348572267 -0.885329386 0.307716191 -0.282731077 -0.876371823 0.389917383 -0.282731081 -0.876371811 0.389917407 -0.282731077 -0.876371823 0.389917383 -0.614992744 -0.773963848 0.150877061 -0.614992765 -0.773963833 0.150877053 -0.5669109 -0.797592618 0.206053505 -0.566910886 -0.79759262 0.206053536 -0.5669109 -0.797592618 0.206053505 -0.831550674 -0.555005793 0.0221821118 -0.831550674 -0.555005793 0.0221821118 -0.811952354 -0.581715991 0.0483723071 -0.811952329 -0.581716025 0.0483723219 -0.136644251 0.401736113 0.90550342 -0.136644251 0.401736113 0.90550342 -0.136644251 0.401736113 0.90550342 -0.132525562 0.400207741 0.906791453 0.207627679 -0.344749375 0.915444491 0.431036524 -0.829308365 0.35560533 0.207627705 -0.344749376 0.915444484 0.225966217 -0.334776126 0.914802828 0.225966215 -0.3347761 0.914802838 0.225966215 -0.3347761 0.914802838 0.520451464 -0.136430411 0.842921714 0.396401926 -0.27792137 0.875000129 0.396401926 -0.27792137 0.875000129 0.412377767 -0.252964184 0.875187808 0.412377767 -0.252964184 0.875187808 0.654938544 0.206218289 0.727000359 0.605589494 -0.0203601482 0.795516706 0.60548102 -0.0307121323 0.795266936 0.596358695 0.606996548 0.525272784 0.666902532 0.37025618 0.646646251 0.663779125 0.375799801 0.646662031 0.304518516 0.922918257 0.235563929 0.518340542 0.748170103 0.414203549 0.49972599 0.760505384 0.414614876 0.49972599 0.760505384 0.414614876 -0.119768114 0.984952356 -0.124597173 0.162452967 0.979655756 0.117828832 0.151920439 0.981349216 0.117787508 0.151920439 0.981349216 0.117787508 0.151920439 0.981349216 0.117787508 -0.254686432 0.936928476 -0.239373875 -0.254686432 0.936928476 -0.239373875 -0.268696194 0.932779661 -0.240259149 -0.268696167 0.93277966 -0.240259183 -0.268696194 0.932779661 -0.240259149 0.769934362 0.000864244567 -0.638122504 0.769934362 0.000864244567 -0.638122504 0.769934362 0.000864244567 -0.638122504 0.753205458 0.00457874266 -0.657769393 0.753205458 0.00457874266 -0.657769393 0.662030977 -0.00566237966 -0.749455084 0.662030977 -0.00566237966 -0.749455084 0.662030977 -0.00566237966 -0.749455084 0.654888172 0.00381852141 -0.755716151 0.654888191 0.00381851561 -0.755716134 0.654888172 0.00381852141 -0.755716151 0.684352768 -0.0180829555 -0.728926811 0.684352778 -0.0180829329 -0.728926802 0.684352778 -0.0180829329 -0.728926802 0.6796543 0.0126239023 -0.733423936 0.679654282 0.0126239082 -0.733423953 0.6796543 0.0126239023 -0.733423936 0.73944386 -0.173498444 -0.650477569 0.739443869 -0.173498486 -0.650477548 0.739443869 -0.173498486 -0.650477548 0.740484219 -0.16992322 -0.650237819 0.686578425 -0.480386162 -0.545746463 0.686578425 -0.480386162 -0.545746463 0.686578425 -0.480386162 -0.545746463 0.667772715 -0.500554449 -0.550930889 0.667772747 -0.500554402 -0.550930892 0.667772747 -0.500554402 -0.550930892 0.387680904 -0.802734679 -0.453123108 0.387680905 -0.802734677 -0.453123111 0.385429435 -0.803441698 -0.453790247 0.385429433 -0.8034417 -0.453790244 -0.0609453374 -0.931859303 -0.357664516 -0.0609453374 -0.931859303 -0.357664516 -0.0609453374 -0.931859303 -0.357664516 -0.0629104923 -0.931502679 -0.358252744 -0.500274637 -0.83227484 -0.238838601 -0.500274616 -0.832274862 -0.238838572 -0.500274616 -0.832274862 -0.238838572 -0.507580935 -0.827074831 -0.241472189 -0.826962496 -0.553471439 -0.0990070535 -0.826962496 -0.553471439 -0.0990070535 -0.826962496 -0.553471439 -0.0990070535 -0.831086781 -0.546999398 -0.100431175</float_array>
        <technique_common><accessor source="#vfx_kurp_0562-mesh-normals-array" count="300" stride="3"><param name="X" type="float"/><param name="Y" type="float"/><param name="Z" type="float"/></accessor></technique_common>
      </source>
      <source id="vfx_kurp_0562-mesh-uv0">
        <float_array id="vfx_kurp_0562-mesh-uv0-array" count="600">1 0.333333313 0.5 0.333333313 1 0.266666651 0.5 0.266666651 1 0.266666651 0.5 0.333333313 1 0.266666651 0.5 0.266666651 1 0.199999928 0.5 0.199999928 1 0.199999928 0.5 0.266666651 1 0.199999928 0.5 0.199999928 1 0.133333266 0.5 0.133333266 1 0.133333266 0.5 0.199999928 1 0.133333266 0.5 0.133333266 1 0.0666666031 0.5 0.0666666031 1 0.0666666031 0.5 0.133333266 1 0.0666666031 0.5 0.0666666031 1 0 0.5 0 1 0 0.5 0.0666666031 0 0 0.5 0 0 0.0666666031 0.5 0.0666666031 0 0.0666666031 0.5 0.0666666031 0 0.133333266 0.5 0.133333266 0.5 0.0666666031 0 0.133333266 0.5 0.133333266 0 0.199999928 0.5 0.199999928 0.5 0.133333266 0 0.199999928 0.5 0.199999928 0 0.266666651 0.5 0.266666651 0.5 0.199999928 0 0.266666651 0.5 0.266666651 0 0.333333313 0.5 0.333333313 0.5 0.266666651 0 0.333333313 0.5 0.333333313 0 0.399999976 0.5 0.399999976 0 0.399999976 0.5 0.399999976 0 0.466666639 0.5 0.466666639 0 0.466666639 0.5 0.466666639 0 0.533333302 0.5 0.533333302 0 0.533333302 0.5 0.533333302 0 0.599999964 0.5 0.599999964 0.5 0.333333313 1 0.333333313 0.5 0.399999976 1 0.399999976 0.5 0.399999976 1 0.333333313 0.5 0.399999976 1 0.399999976 0.5 0.466666639 1 0.466666639 0.5 0.466666639 1 0.399999976 0.5 0.466666639 1 0.466666639 0.5 0.533333302 1 0.533333302 0.5 0.533333302 1 0.466666639 0.5 0.533333302 1 0.533333302 0.5 0.599999964 1 0.599999964 0.5 0.599999964 1 0.533333302 0.5 0.599999964 1 0.599999964 0.5 0.666666627 1 0.666666627 0.5 0.666666627 1 0.599999964 0.5 0.666666627 1 0.666666627 0.5 0.733333349 1 0.733333349 0.5 0.733333349 1 0.733333349 0.5 0.799999952 1 0.799999952 0.5 0.799999952 1 0.799999952 0.5 0.866666675 1 0.866666675 0.5 0.866666675 1 0.799999952 0.5 0.866666675 1 0.866666675 0.5 0.933333337 1 0.933333337 0.5 0.933333337 1 0.866666675 0 0.599999964 0.5 0.599999964 0 0.666666627 0.5 0.666666627 0 0.666666627 0.5 0.666666627 0 0.733333349 0.5 0.733333349 0 0.733333349 0.5 0.666666627 0 0.733333349 0.5 0.733333349 0 0.799999952 0.5 0.799999952 0.5 0.733333349 0 0.799999952 0.5 0.799999952 0 0.866666675 0.5 0.866666675 0 0.866666675 0.5 0.799999952 0 0.866666675 0.5 0.866666675 0 0.933333337 0.5 0.933333337 0 0.933333337 0.5 0.866666675 0 0.933333337 0.5 0.933333337 0 1 0 1 0.5 0.933333337 0.5 1 1 0.933333337 0.5 1 0.5 0.933333337 0.5 1 1 0.933333337 1 1 0.5 0.399999976 0.5 0.333333313 0 0.399999976 0 0.333333313 0.5 0.266666651 0 0.333333313 0.5 0.333333313 0 0.266666651 0.5 0.199999928 0 0.266666651 0.5 0.266666651 0.5 0.199999928 0 0.199999928 0.5 0.133333266 0 0.199999928 0.5 0.133333266 0 0.133333266 0.5 0.0666666031 0 0.133333266 0.5 0.0666666031 0 0.0666666031 1 0.466666639 0.5 0.533333302 1 0.533333302 0.5 0.533333302 1 0.466666639 0.5 0.466666639 1 0.399999976 0.5 0.466666639 1 0.466666639 0.5 0.466666639 1 0.399999976 1 0.333333313 0.5 0.399999976 1 0.399999976 0.5 0.399999976 1 0.333333313 0.5 0.333333313 1 0.266666651 0.5 0.333333313 1 0.333333313 0.5 0.333333313 1 0.266666651 0.5 0.266666651 1 0.199999928 1 0.266666651 0.5 0.266666651 1 0.199999928 0.5 0.199999928 1 0.133333266 1 0.199999928 0.5 0.199999928 1 0.133333266 0.5 0.133333266 1 0.0666666031 1 0.133333266 0.5 0.133333266 1 0.0666666031 0.5 0.0666666031 1 0 1 0.0666666031 0.5 0 1 0 0.5 0.0666666031 0.5 0 0 0.0666666031 0 0 0.5 0.533333302 0.5 0.599999964 1 0.533333302 1 0.533333302 0.5 0.599999964 1 0.599999964 0.5 0.666666627 1 0.599999964 0.5 0.599999964 1 0.599999964 1 0.666666627 0.5 0.733333349 1 0.666666627 1 0.733333349 0.5 0.799999952 1 0.733333349 1 0.799999952 0.5 0.866666675 1 0.799999952 1 0.799999952 1 0.866666675 0.5 0.933333337 1 0.866666675 1 0.866666675 0.5 0.933333337 1 0.933333337 0.5 1 1 0.933333337 1 0.933333337 0.5 1 1 1 0.5 1 0.5 0.933333337 0 1 0 1 0 0.933333337 0.5 0.866666675 0 0.933333337 0.5 0.933333337 0 0.933333337 0.5 0.866666675 0 0.866666675 0.5 0.799999952 0 0.866666675 0.5 0.866666675 0 0.866666675 0.5 0.799999952 0 0.799999952 0.5 0.733333349 0 0.799999952 0.5 0.799999952 0 0.733333349 0.5 0.666666627 0 0.733333349 0.5 0.733333349 0 0.733333349 0.5 0.666666627 0 0.666666627 0 0.666666627 0.5 0.666666627 0.5 0.599999964 0 0.599999964 0.5 0.533333302 0 0.599999964 0.5 0.599999964 0 0.533333302 0.5 0.466666639 0 0.533333302 0.5 0.533333302 0 0.466666639 0.5 0.399999976 0 0.466666639 0.5 0.466666639 0 0.399999976</float_array>
        <technique_common><accessor source="#vfx_kurp_0562-mesh-uv0-array" count="300" stride="2"><param name="S" type="float"/><param name="T" type="float"/></accessor></technique_common>
      </source>
      <source id="vfx_kurp_0562-mesh-colors">
        <float_array id="vfx_kurp_0562-mesh-colors-array" count="1200">0.176470593 0.176470593 0.176470593 0 0.176470593 0.176470593 0.176470593 1 0.176470593 0.176470593 0.176470593 0 0.176470593 0.176470593 0.176470593 1 0.176470593 0.176470593 0.176470593 0 0.176470593 0.176470593 0.176470593 1 0.176470593 0.176470593 0.176470593 0 0.176470593 0.176470593 0.176470593 1 0.176470593 0.176470593 0.176470593 0 0.176470593 0.176470593 0.176470593 1 0.176470593 0.176470593 0.176470593 0 0.176470593 0.176470593 0.176470593 1 0.176470593 0.176470593 0.176470593 0 0.176470593 0.176470593 0.176470593 1 0.176470593 0.176470593 0.176470593 0 0.176470593 0.176470593 0.176470593 1 0.176470593 0.176470593 0.176470593 0 0.176470593 0.176470593 0.176470593 1 0.176470593 0.176470593 0.176470593 0 0.176470593 0.176470593 0.176470593 1 0.176470593 0.176470593 0.176470593 0 0.176470593 0.176470593 0.176470593 1 0.176470593 0.176470593 0.176470593 0 0.176470593 0.176470593 0.176470593 1 0.176470593 0.176470593 0.176470593 0 0.176470593 0.176470593 0.176470593 1 0.176470593 0.176470593 0.176470593 0 0.176470593 0.176470593 0.176470593 0 0.176470593 0.176470593 0.176470593 0 0.176470593 0.176470593 0.176470593 1 0.176470593 0.176470593 0.176470593 0 0.176470593 0.176470593 0.176470593 0 0.176470593 0.176470593 0.176470593 0 0.176470593 0.176470593 0.176470593 1 0.176470593 0.176470593 0.176470593 0 0.176470593 0.176470593 0.176470593 1 0.176470593 0.176470593 0.176470593 0 0.176470593 0.176470593 0.176470593 1 0.176470593 0.176470593 0.176470593 1 0.176470593 0.176470593 0.176470593 0 0.176470593 0.176470593 0.176470593 1 0.176470593 0.176470593 0.176470593 0 0.176470593 0.176470593 0.176470593 1 0.176470593 0.176470593 0.176470593 1 0.176470593 0.176470593 0.176470593 0 0.176470593 0.176470593 0.176470593 1 0.176470593 0.176470593 0.176470593 0 0.176470593 0.176470593 0.176470593 1 0.176470593 0.176470593 0.176470593 1 0.176470593 0.176470593 0.176470593 0 0.176470593 0.176470593 0.176470593 1 0.176470593 0.176470593 0.176470593 0 0.176470593 0.176470593 0.176470593 1 0.176470593 0.176470593 0.176470593 1 0.176470593 0.176470593 0.176470593 0 0.176470593 0.176470593 0.176470593 1 0.176470593 0.176470593 0.176470593 0 0.176470593 0.176470593 0.176470593 1 0.176470593 0.176470593 0.176470593 0 0.176470593 0.176470593 0.176470593 1 0.176470593 0.176470593 0.176470593 0 0.176470593 0.176470593 0.176470593 1 0.176470593 0.176470593 0.176470593 0 0.176470593 0.176470593 0.176470593 1 0.176470593 0.176470593 0.176470593 0 0.176470593 0.176470593 0.176470593 1 0.176470593 0.176470593 0.176470593 0 0.176470593 0.176470593 0.176470593 1 0.176470593 0.176470593 0.176470593 0 0.176470593 0.176470593 0.176470593 1 0.176470593 0.176470593 0.176470593 1 0.176470593 0.176470593 0.176470593 0 0.176470593 0.176470593 0.176470593 1 0.176470593 0.176470593 0.176470593 0 0.176470593 0.176470593 0.176470593 1 0.176470593 0.176470593 0.176470593 0 0.176470593 0.176470593 0.176470593 1 0.176470593 0.176470593 0.176470593 0 0.176470593 0.176470593 0.176470593 1 0.176470593 0.176470593 0.176470593 0 0.176470593 0.176470593 0.176470593 1 0.176470593 0.176470593 0.176470593 0 0.176470593 0.176470593 0.176470593 1 0.176470593 0.176470593 0.176470593 0 0.176470593 0.176470593 0.176470593 1 0.176470593 0.176470593 0.176470593 0 0.176470593 0.176470593 0.176470593 1 0.176470593 0.176470593 0.176470593 0 0.176470593 0.176470593 0.176470593 1 0.176470593 0.176470593 0.176470593 0 0.176470593 0.176470593 0.176470593 1 0.176470593 0.176470593 0.176470593 0 0.176470593 0.176470593 0.176470593 1 0.176470593 0.176470593 0.176470593 0 0.176470593 0.176470593 0.176470593 1 0.176470593 0.176470593 0.176470593 0 0.176470593 0.176470593 0.176470593 1 0.176470593 0.176470593 0.176470593 0 0.176470593 0.176470593 0.176470593 1 0.176470593 0.176470593 0.176470593 0 0.176470593 0.176470593 0.176470593 1 0.176470593 0.176470593 0.176470593 0 0.176470593 0.176470593 0.176470593 1 0.176470593 0.176470593 0.176470593 0 0.176470593 0.176470593 0.176470593 1 0.176470593 0.176470593 0.176470593 0 0.176470593 0.176470593 0.176470593 1 0.176470593 0.176470593 0.176470593 0 0.176470593 0.176470593 0.176470593 1 0.176470593 0.176470593 0.176470593 0 0.176470593 0.176470593 0.176470593 1 0.176470593 0.176470593 0.176470593 0 0.176470593 0.176470593 0.176470593 1 0.176470593 0.176470593 0.176470593 0 0.176470593 0.176470593 0.176470593 1 0.176470593 0.176470593 0.176470593 0 0.176470593 0.176470593 0.176470593 1 0.176470593 0.176470593 0.176470593 0 0.176470593 0.176470593 0.176470593 1 0.176470593 0.176470593 0.176470593 0 0.176470593 0.176470593 0.176470593 0 0.176470593 0.176470593 0.176470593 1 0.176470593 0.176470593 0.176470593 0 0.176470593 0.176470593 0.176470593 1 0.176470593 0.176470593 0.176470593 0 0.176470593 0.176470593 0.176470593 1 0.176470593 0.176470593 0.176470593 0 0.176470593 0.176470593 0.176470593 1 0.176470593 0.176470593 0.176470593 0 0.176470593 0.176470593 0.176470593 1 0.176470593 0.176470593 0.176470593 0 0.176470593 0.176470593 0.176470593 1 0.176470593 0.176470593 0.176470593 0 0.176470593 0.176470593 0.176470593 1 0.176470593 0.176470593 0.176470593 1 0.176470593 0.176470593 0.176470593 0 0.176470593 0.176470593 0.176470593 1 0.176470593 0.176470593 0.176470593 0 0.176470593 0.176470593 0.176470593 1 0.176470593 0.176470593 0.176470593 0 0.176470593 0.176470593 0.176470593 1 0.176470593 0.176470593 0.176470593 0 0.176470593 0.176470593 0.176470593 1 0.176470593 0.176470593 0.176470593 0 0.176470593 0.176470593 0.176470593 1 0.176470593 0.176470593 0.176470593 0 0.176470593 0.176470593 0.176470593 1 0.176470593 0.176470593 0.176470593 0 0.176470593 0.176470593 0.176470593 1 0.176470593 0.176470593 0.176470593 0 0.176470593 0.176470593 0.176470593 0 0.176470593 0.176470593 0.176470593 1 0.176470593 0.176470593 0.176470593 0 0.176470593 0.176470593 0.176470593 0 0.176470593 0.176470593 0.176470593 0 0.176470593 0.176470593 0.176470593 1 0.176470593 0.176470593 0.176470593 0 0.176470593 0.176470593 0.176470593 0 0.176470593 0.176470593 0.176470593 0 0.176470593 0.176470593 0.176470593 1 0.176470593 0.176470593 0.176470593 1 0.176470593 0.176470593 0.176470593 0 0.176470593 0.176470593 0.176470593 0 0.176470593 0.176470593 0.176470593 1 0.176470593 0.176470593 0.176470593 0 0.176470593 0.176470593 0.176470593 1 0.176470593 0.176470593 0.176470593 0 0.176470593 0.176470593 0.176470593 1 0.176470593 0.176470593 0.176470593 0 0.176470593 0.176470593 0.176470593 1 0.176470593 0.176470593 0.176470593 1 0.176470593 0.176470593 0.176470593 0 0.176470593 0.176470593 0.176470593 1 0.176470593 0.176470593 0.176470593 0 0.176470593 0.176470593 0.176470593 1 0.176470593 0.176470593 0.176470593 0 0.176470593 0.176470593 0.176470593 1 0.176470593 0.176470593 0.176470593 0 0.176470593 0.176470593 0.176470593 1 0.176470593 0.176470593 0.176470593 0 0.176470593 0.176470593 0.176470593 0 0.176470593 0.176470593 0.176470593 1 0.176470593 0.176470593 0.176470593 0 0.176470593 0.176470593 0.176470593 1 0.176470593 0.176470593 0.176470593 0 0.176470593 0.176470593 0.176470593 1 0.176470593 0.176470593 0.176470593 0 0.176470593 0.176470593 0.176470593 1 0.176470593 0.176470593 0.176470593 0 0.176470593 0.176470593 0.176470593 1 0.176470593 0.176470593 0.176470593 0 0.176470593 0.176470593 0.176470593 0 0.176470593 0.176470593 0.176470593 1 0.176470593 0.176470593 0.176470593 0 0.176470593 0.176470593 0.176470593 1 0.176470593 0.176470593 0.176470593 0 0.176470593 0.176470593 0.176470593 1 0.176470593 0.176470593 0.176470593 0 0.176470593 0.176470593 0.176470593 1 0.176470593 0.176470593 0.176470593 0 0.176470593 0.176470593 0.176470593 1 0.176470593 0.176470593 0.176470593 0 0.176470593 0.176470593 0.176470593 1 0.176470593 0.176470593 0.176470593 0 0.176470593 0.176470593 0.176470593 0 0.176470593 0.176470593 0.176470593 1 0.176470593 0.176470593 0.176470593 0 0.176470593 0.176470593 0.176470593 1 0.176470593 0.176470593 0.176470593 0 0.176470593 0.176470593 0.176470593 0 0.176470593 0.176470593 0.176470593 1 0.176470593 0.176470593 0.176470593 0 0.176470593 0.176470593 0.176470593 1 0.176470593 0.176470593 0.176470593 0 0.176470593 0.176470593 0.176470593 0 0.176470593 0.176470593 0.176470593 1 0.176470593 0.176470593 0.176470593 0 0.176470593 0.176470593 0.176470593 1 0.176470593 0.176470593 0.176470593 0 0.176470593 0.176470593 0.176470593 0 0.176470593 0.176470593 0.176470593 0 0.176470593 0.176470593 0.176470593 0 0.176470593 0.176470593 0.176470593 1 0.176470593 0.176470593 0.176470593 0 0.176470593 0.176470593 0.176470593 0 0.176470593 0.176470593 0.176470593 0 0.176470593 0.176470593 0.176470593 1 0.176470593 0.176470593 0.176470593 1 0.176470593 0.176470593 0.176470593 0 0.176470593 0.176470593 0.176470593 0 0.176470593 0.176470593 0.176470593 1 0.176470593 0.176470593 0.176470593 0 0.176470593 0.176470593 0.176470593 1 0.176470593 0.176470593 0.176470593 0 0.176470593 0.176470593 0.176470593 1 0.176470593 0.176470593 0.176470593 0 0.176470593 0.176470593 0.176470593 0 0.176470593 0.176470593 0.176470593 1 0.176470593 0.176470593 0.176470593 0 0.176470593 0.176470593 0.176470593 0 0.176470593 0.176470593 0.176470593 1 0.176470593 0.176470593 0.176470593 0 0.176470593 0.176470593 0.176470593 0 0.176470593 0.176470593 0.176470593 1 0.176470593 0.176470593 0.176470593 0 0.176470593 0.176470593 0.176470593 0 0.176470593 0.176470593 0.176470593 0 0.176470593 0.176470593 0.176470593 1 0.176470593 0.176470593 0.176470593 0 0.176470593 0.176470593 0.176470593 0 0.176470593 0.176470593 0.176470593 1 0.176470593 0.176470593 0.176470593 0 0.176470593 0.176470593 0.176470593 0 0.176470593 0.176470593 0.176470593 0 0.176470593 0.176470593 0.176470593 0 0.176470593 0.176470593 0.176470593 0 0.176470593 0.176470593 0.176470593 0 0.176470593 0.176470593 0.176470593 0 0.176470593 0.176470593 0.176470593 1 0.176470593 0.176470593 0.176470593 0 0.176470593 0.176470593 0.176470593 0 0.176470593 0.176470593 0.176470593 0 0.176470593 0.176470593 0.176470593 1 0.176470593 0.176470593 0.176470593 0 0.176470593 0.176470593 0.176470593 1 0.176470593 0.176470593 0.176470593 0 0.176470593 0.176470593 0.176470593 1 0.176470593 0.176470593 0.176470593 0 0.176470593 0.176470593 0.176470593 1 0.176470593 0.176470593 0.176470593 0 0.176470593 0.176470593 0.176470593 1 0.176470593 0.176470593 0.176470593 0 0.176470593 0.176470593 0.176470593 1 0.176470593 0.176470593 0.176470593 0 0.176470593 0.176470593 0.176470593 1 0.176470593 0.176470593 0.176470593 0 0.176470593 0.176470593 0.176470593 1 0.176470593 0.176470593 0.176470593 0 0.176470593 0.176470593 0.176470593 1 0.176470593 0.176470593 0.176470593 0 0.176470593 0.176470593 0.176470593 1 0.176470593 0.176470593 0.176470593 0 0.176470593 0.176470593 0.176470593 1 0.176470593 0.176470593 0.176470593 0 0.176470593 0.176470593 0.176470593 0 0.176470593 0.176470593 0.176470593 1 0.176470593 0.176470593 0.176470593 1 0.176470593 0.176470593 0.176470593 0 0.176470593 0.176470593 0.176470593 1 0.176470593 0.176470593 0.176470593 0 0.176470593 0.176470593 0.176470593 1 0.176470593 0.176470593 0.176470593 0 0.176470593 0.176470593 0.176470593 1 0.176470593 0.176470593 0.176470593 0 0.176470593 0.176470593 0.176470593 1 0.176470593 0.176470593 0.176470593 0 0.176470593 0.176470593 0.176470593 1 0.176470593 0.176470593 0.176470593 0 0.176470593 0.176470593 0.176470593 1 0.176470593 0.176470593 0.176470593 0</float_array>
        <technique_common><accessor source="#vfx_kurp_0562-mesh-colors-array" count="300" stride="4"><param name="R" type="float"/><param name="G" type="float"/><param name="B" type="float"/><param name="A" type="float"/></accessor></technique_common>
      </source>
      <vertices id="vfx_kurp_0562-mesh-vertices"><input semantic="POSITION" source="#vfx_kurp_0562-mesh-positions"/></vertices>
      <triangles material="PreviewMaterial" count="120">
        <input semantic="VERTEX" source="#vfx_kurp_0562-mesh-vertices" offset="0"/>
        <input semantic="NORMAL" source="#vfx_kurp_0562-mesh-normals" offset="1"/>
        <input semantic="TEXCOORD" source="#vfx_kurp_0562-mesh-uv0" offset="2" set="0"/>
        <input semantic="COLOR" source="#vfx_kurp_0562-mesh-colors" offset="3" set="0"/>
        <p>0 0 0 0 1 1 1 1 2 2 2 2 3 3 3 3 4 4 4 4 5 5 5 5 6 6 6 6 7 7 7 7 8 8 8 8 9 9 9 9 10 10 10 10 11 11 11 11 12 12 12 12 13 13 13 13 14 14 14 14 15 15 15 15 16 16 16 16 17 17 17 17 18 18 18 18 19 19 19 19 20 20 20 20 21 21 21 21 22 22 22 22 23 23 23 23 24 24 24 24 25 25 25 25 26 26 26 26 27 27 27 27 28 28 28 28 29 29 29 29 30 30 30 30 31 31 31 31 32 32 32 32 33 33 33 33 32 32 32 32 31 31 31 31 34 34 34 34 35 35 35 35 36 36 36 36 37 37 37 37 36 36 36 36 38 38 38 38 39 39 39 39 40 40 40 40 41 41 41 41 42 42 42 42 41 41 41 41 43 43 43 43 44 44 44 44 45 45 45 45 46 46 46 46 47 47 47 47 46 46 46 46 48 48 48 48 49 49 49 49 50 50 50 50 51 51 51 51 52 52 52 52 51 51 51 51 53 53 53 53 54 54 54 54 55 55 55 55 56 56 56 56 57 57 57 57 56 56 56 56 55 55 55 55 58 58 58 58 59 59 59 59 60 60 60 60 61 61 61 61 60 60 60 60 59 59 59 59 62 62 62 62 63 63 63 63 64 64 64 64 65 65 65 65 64 64 64 64 63 63 63 63 66 66 66 66 67 67 67 67 68 68 68 68 69 69 69 69 68 68 68 68 67 67 67 67 70 70 70 70 71 71 71 71 72 72 72 72 73 73 73 73 74 74 74 74 75 75 75 75 76 76 76 76 77 77 77 77 78 78 78 78 79 79 79 79 80 80 80 80 81 81 81 81 82 82 82 82 83 83 83 83 84 84 84 84 85 85 85 85 86 86 86 86 87 87 87 87 88 88 88 88 89 89 89 89 90 90 90 90 91 91 91 91 92 92 92 92 93 93 93 93 94 94 94 94 95 95 95 95 96 96 96 96 97 97 97 97 98 98 98 98 99 99 99 99 100 100 100 100 101 101 101 101 102 102 102 102 103 103 103 103 102 102 102 102 101 101 101 101 104 104 104 104 105 105 105 105 106 106 106 106 107 107 107 107 106 106 106 106 105 105 105 105 108 108 108 108 109 109 109 109 110 110 110 110 111 111 111 111 112 112 112 112 113 113 113 113 114 114 114 114 115 115 115 115 116 116 116 116 117 117 117 117 118 118 118 118 119 119 119 119 120 120 120 120 121 121 121 121 122 122 122 122 123 123 123 123 122 122 122 122 121 121 121 121 124 124 124 124 125 125 125 125 126 126 126 126 127 127 127 127 128 128 128 128 129 129 129 129 130 130 130 130 131 131 131 131 132 132 132 132 133 133 133 133 132 132 132 132 134 134 134 134 135 135 135 135 136 136 136 136 137 137 137 137 138 138 138 138 139 139 139 139 140 140 140 140 141 141 141 141 142 142 142 142 143 143 143 143 144 144 144 144 145 145 145 145 146 146 146 146 147 147 147 147 148 148 148 148 149 149 149 149 150 150 150 150 151 151 151 151 152 152 152 152 153 153 153 153 154 154 154 154 155 155 155 155 156 156 156 156 157 157 157 157 158 158 158 158 159 159 159 159 160 160 160 160 161 161 161 161 161 161 161 161 160 160 160 160 162 162 162 162 163 163 163 163 164 164 164 164 165 165 165 165 164 164 164 164 163 163 163 163 166 166 166 166 167 167 167 167 168 168 168 168 169 169 169 169 168 168 168 168 170 170 170 170 171 171 171 171 172 172 172 172 173 173 173 173 167 167 167 167 173 173 173 173 174 174 174 174 175 175 175 175 176 176 176 176 177 177 177 177 172 172 172 172 177 177 177 177 178 178 178 178 179 179 179 179 180 180 180 180 181 181 181 181 182 182 182 182 183 183 183 183 184 184 184 184 185 185 185 185 186 186 186 186 187 187 187 187 188 188 188 188 189 189 189 189 190 190 190 190 159 159 159 159 191 191 191 191 192 192 192 192 193 193 193 193 194 194 194 194 195 195 195 195 196 196 196 196 197 197 197 197 198 198 198 198 199 199 199 199 200 200 200 200 201 201 201 201 202 202 202 202 203 203 203 203 53 53 53 53 204 204 204 204 205 205 205 205 206 206 206 206 207 207 207 207 208 208 208 208 48 48 48 48 209 209 209 209 210 210 210 210 211 211 211 211 212 212 212 212 213 213 213 213 43 43 43 43 214 214 214 214 215 215 215 215 216 216 216 216 217 217 217 217 218 218 218 218 38 38 38 38 219 219 219 219 220 220 220 220 176 176 176 176 221 221 221 221 222 222 222 222 223 223 223 223 224 224 224 224 225 225 225 225 224 224 224 224 223 223 223 223 226 226 226 226 227 227 227 227 228 228 228 228 229 229 229 229 230 230 230 230 231 231 231 231 232 232 232 232 233 233 233 233 234 234 234 234 235 235 235 235 129 129 129 129 236 236 236 236 237 237 237 237 238 238 238 238 232 232 232 232 238 238 238 238 134 134 134 134 239 239 239 239 240 240 240 240 241 241 241 241 237 237 237 237 241 241 241 241 140 140 140 140 242 242 242 242 243 243 243 243 244 244 244 244 240 240 240 240 245 245 245 245 146 146 146 146 246 246 246 246 247 247 247 247 248 248 248 248 243 243 243 243 249 249 249 249 250 250 250 250 251 251 251 251 252 252 252 252 253 253 253 253 247 247 247 247 254 254 254 254 255 255 255 255 256 256 256 256 257 257 257 257 258 258 258 258 259 259 259 259 260 260 260 260 155 155 155 155 261 261 261 261 262 262 262 262 263 263 263 263 264 264 264 264 265 265 265 265 266 266 266 266 267 267 267 267 268 268 268 268 269 269 269 269 270 270 270 270 271 271 271 271 272 272 272 272 273 273 273 273 274 274 274 274 275 275 275 275 276 276 276 276 275 275 275 275 274 274 274 274 277 277 277 277 278 278 278 278 279 279 279 279 280 280 280 280 281 281 281 281 282 282 282 282 283 283 283 283 227 227 227 227 284 284 284 284 285 285 285 285 284 284 284 284 286 286 286 286 287 287 287 287 288 288 288 288 289 289 289 289 290 290 290 290 289 289 289 289 88 88 88 88 291 291 291 291 292 292 292 292 293 293 293 293 294 294 294 294 293 293 293 293 82 82 82 82 295 295 295 295 296 296 296 296 297 297 297 297 298 298 298 298 297 297 297 297 76 76 76 76 299 299 299 299</p>
      </triangles>
    </mesh></geometry>
  </library_geometries>
  <library_visual_scenes>
    <visual_scene id="Scene" name="Scene">
      <node id="vfx_kurp_0562" name="vfx_kurp_0562" type="NODE">
        <instance_geometry url="#vfx_kurp_0562-mesh"><bind_material><technique_common><instance_material symbol="PreviewMaterial" target="#PreviewMaterial"><bind_vertex_input semantic="UVSET0" input_semantic="TEXCOORD" input_set="0"/></instance_material></technique_common></bind_material></instance_geometry>
      </node>
    </visual_scene>
  </library_visual_scenes>
  <scene><instance_visual_scene url="#Scene"/></scene>
</COLLADA>
