<?xml version="1.0" encoding="utf-8"?>
<COLLADA xmlns="http://www.collada.org/2005/11/COLLADASchema" version="1.4.1">
  <asset>
    <contributor><authoring_tool>Morrobroom Kurpulio VFX preview converter</authoring_tool></contributor>
    <unit name="unit" meter="1"/>
    <up_axis>Z_UP</up_axis>
  </asset>
  <library_images>
    <image id="VFXTexture" name="darkmap_newgen-1.dds">
      <init_from>../../../Textures/Kurp/darkmap_newgen-1.dds</init_from>
    </image>
  </library_images>
  <library_effects>
    <effect id="PreviewEffect">
      <profile_COMMON>
        <newparam sid="VFXTexture-surface">
          <surface type="2D"><init_from>VFXTexture</init_from></surface>
        </newparam>
        <newparam sid="VFXTexture-sampler">
          <sampler2D><source>VFXTexture-surface</source></sampler2D>
        </newparam>
        <technique sid="common"><phong>
          <emission><color>0.08 0.08 0.08 1</color></emission>
          <ambient><color>0.2 0.2 0.2 1</color></ambient>
          <diffuse><texture texture="VFXTexture-sampler" texcoord="UVSET0"/></diffuse>
          <specular><color>0.15 0.15 0.15 1</color></specular>
          <shininess><float>8</float></shininess>
          <transparent opaque="A_ONE"><texture texture="VFXTexture-sampler" texcoord="UVSET0"/></transparent>
          <transparency><float>1</float></transparency>
        </phong></technique>
      </profile_COMMON>
      <extra><technique profile="GOOGLEEARTH"><double_sided>1</double_sided></technique></extra>
    </effect>
  </library_effects>
  <library_materials><material id="PreviewMaterial" name="PreviewMaterial"><instance_effect url="#PreviewEffect"/></material></library_materials>
  <library_geometries>
    <geometry id="vfx_kurp_0123-mesh" name="vfx_kurp_0123"><mesh>
      <source id="vfx_kurp_0123-mesh-positions">
        <float_array id="vfx_kurp_0123-mesh-positions-array" count="252">1.42851497 0.766078431 -1.18497619 1.08137262 1.35960784 -0.874061839 1.1182846 0.568784227 -0.928488353 0.778762397 1.03874998 -0.627682317 0.791152663 0.299327632 -0.659839491 0.484475944 0.672084621 -0.389688 0.455308975 -0.0188989164 -0.385263813 0.195406689 0.276700099 -0.156949857 0.105957353 -0.374565021 -0.100373622 -0.100336582 -0.142929421 0.0807152088 -0.306619593 0.088818266 0.262014984 -0.064487185 0.572383353 0.0715212908 0.177806029 1.0448982 -0.119435191 0.439244535 1.50874272 -0.326831865 0.734228312 1.95312948 -0.563158479 1.08359556 2.36315602 -0.846468089 1.39541347 1.61756923 -1.1319558 1.51261107 2.71035992 -1.19895466 1.72399268 1.79554364 -1.40449421 2.0363528 2.94323814 -1.63487953 2.070219 1.87643949 -1.69480799 2.6370597 3.00211216 -2.14098608 2.43719782 1.84316061 -2.00602535 3.27133904 2.85887641 -2.68142207 2.82802919 1.67861312 -2.34126996 1.70721441 0.871930803 -1.4175044 1.93532941 0.880625948 -1.61013541 2.10399047 0.809484326 -1.75486205 2.2371689 0.684004896 -1.87119654 2.3844679 0.498112516 -2.00124694 3.24581419 1.36570751 -2.70366608 2.5827045 0.209251768 -2.1773871 3.69365517 0.88735694 -3.09633907 2.84224562 -0.229391976 -2.40975814 4.17465597 0.226472418 -3.52241572 3.16019434 -0.85187539 -2.69691381 4.64126946 -0.542724747 -3.93951994 3.49249113 -1.61067496 -3.00021195 3.90858203 2.52190588 -3.23006754 4.54463202 2.00383437 -3.78303703 5.18859506 1.30454033 -4.34803139 5.78944112 0.524930742 -4.87894501 0.594053028 1.33756211 -1.45106789 1.08137262 1.35960784 -0.874061839 0.358317638 1.01971292 -1.12552951 0.778762397 1.03874998 -0.627682317 0.129129243 0.655978222 -0.810482654 0.484475944 0.672084621 -0.389688 -0.0966198603 0.263444919 -0.502797327 0.195406689 0.276700099 -0.156949857 -0.330821744 -0.153413911 -0.192289589 -0.100336582 -0.142929421 0.0807152088 0.130137697 -0.132557005 0.353509065 0.487424803 0.289871022 0.188740296 0.839815837 0.688134416 0.0310053059 1.19920318 1.05776032 -0.129879756 1.56869423 1.38166146 -0.297044782 1.95139795 1.64275035 -0.473621051 1.39541347 1.61756923 -1.1319558 2.35042672 1.82393754 -0.662741288 1.72399268 1.79554364 -1.40449421 2.76889105 1.9081283 -0.867539363 2.070219 1.87643949 -1.69480799 3.20989631 1.87822094 -1.0911432 2.43719782 1.84316061 -2.00602535 3.67654096 1.71711877 -1.33667492 2.82802919 1.67861312 -2.34126996 0.839444473 1.59243814 -1.79022868 1.09760371 1.76725139 -2.1461454 1.37164187 1.8449073 -2.52195119 1.66466433 1.80830415 -2.92077398 1.97976926 1.64034523 -3.34573628 3.24581419 1.36570751 -2.70366608 2.32005093 1.3239415 -3.79995667 3.69365517 0.88735694 -3.09633907 2.68861049 0.842007679 -4.28655913 4.17465597 0.226472418 -3.52241572 3.08855061 0.177457967 -4.80866956 4.64126946 -0.542724747 -3.93951994 3.47232397 -0.595482466 -5.32391139 4.17191934 1.40773225 -1.60725334 4.6991323 0.932977174 -1.90600203 5.26128292 0.275767027 -2.23604766 5.81082277 -0.489672795 -2.55501232</float_array>
        <technique_common><accessor source="#vfx_kurp_0123-mesh-positions-array" count="84" stride="3"><param name="X" type="float"/><param name="Y" type="float"/><param name="Z" type="float"/></accessor></technique_common>
      </source>
      <source id="vfx_kurp_0123-mesh-normals">
        <float_array id="vfx_kurp_0123-mesh-normals-array" count="252">0.645466548 -0.0224339127 0.763459007 0.645425592 -0.0224333262 0.763493649 0.645439285 -0.0224057488 0.763482882 0.64542123 -0.0224296971 0.763497443 0.645409431 -0.0223746082 0.763509032 0.645418136 -0.0224259763 0.763500167 0.645372401 -0.0223342028 0.763541517 0.6454159 -0.0224213418 0.763502194 0.645321377 -0.0222993028 0.763585661 0.645417069 -0.0224190223 0.763501274 0.645581259 -0.0225431905 0.76335879 0.645522525 -0.0225131931 0.763409344 0.645483676 -0.0224749947 0.763443317 0.645457175 -0.0224492748 0.763466479 0.645440402 -0.0224304135 0.763481214 0.645431804 -0.0224162006 0.7634889 0.645431003 -0.0224385351 0.763488921 0.645431011 -0.0224059452 0.763489872 0.645436433 -0.0224470593 0.76348408 0.645437453 -0.0224004738 0.763484586 0.64543964 -0.0224595163 0.763481002 0.64544854 -0.0224008594 0.763475202 0.645438356 -0.02247361 0.763481674 0.645460215 -0.0224057838 0.763465187 0.645432759 -0.0224849757 0.76348607 0.645494838 -0.0224659263 0.763434147 0.645523915 -0.0225112782 0.763408225 0.645530828 -0.0225714619 0.763400602 0.645491882 -0.0226146297 0.763432256 0.645436502 -0.0226245554 0.763478782 0.645425522 -0.0224913272 0.763492001 0.645392257 -0.0226161193 0.763516434 0.645418991 -0.0224936373 0.763497454 0.64536265 -0.0226035946 0.763541831 0.645414533 -0.0224949021 0.763501185 0.645343917 -0.0225939717 0.763557949 0.645414222 -0.0224950339 0.763501444 0.645337499 -0.0225932907 0.763563393 0.645469886 -0.022411882 0.763456832 0.645477345 -0.022416758 0.763450382 0.645484228 -0.0224214298 0.763444426 0.645487269 -0.0224219255 0.76344184 0.458878899 -0.813853922 -0.356471527 0.462453743 -0.810449219 -0.359595048 0.520311385 -0.748676629 -0.41080332 0.52216781 -0.746489751 -0.412424333 0.556349373 -0.703058904 -0.442926125 0.557239141 -0.701873967 -0.443686233 0.574145844 -0.678108674 -0.458830227 0.574449636 -0.677697339 -0.459057656 0.57926722 -0.670641576 -0.463345835 0.579279796 -0.670660507 -0.463302711 0.579026095 -0.670604195 -0.463701191 0.573759875 -0.678422528 -0.458849082 0.555701875 -0.703813683 -0.442540084 0.519326515 -0.749800556 -0.409998899 0.457514171 -0.815155114 -0.355250508 0.360470098 -0.892751185 -0.2702899 0.370309914 -0.886070314 -0.278836809 0.220876407 -0.963751831 -0.149653005 0.234209476 -0.958747264 -0.161088811 0.0457212643 -0.998954173 -0.000355392356 0.0602353184 -0.998104268 -0.0126323258 -0.137449992 -0.978529475 0.153582442 -0.125545006 -0.981631681 0.143658252 -0.296848492 -0.911200382 0.285648099 -0.289378729 -0.915495531 0.279513656 0.362088724 -0.891641153 -0.271786331 0.222235617 -0.963235102 -0.15096181 0.0460022842 -0.998941031 -0.000778543512 -0.138579092 -0.978256723 0.15430366 -0.298798762 -0.91013741 0.28700034 -0.411920863 -0.828471965 0.379414558 -0.419604536 -0.821715827 0.385636011 -0.499142755 -0.740686479 0.449711074 -0.504062919 -0.734937014 0.453638799 -0.557530922 -0.665584042 0.496142272 -0.560603282 -0.661180891 0.498561721 -0.580633876 -0.631132392 0.514330834 -0.580633002 -0.631138767 0.514323996 -0.417597051 -0.82336932 0.384285917 -0.50236242 -0.736753067 0.452578078 -0.559319989 -0.662789346 0.497866883 -0.580462422 -0.631136153 0.514519711</float_array>
        <technique_common><accessor source="#vfx_kurp_0123-mesh-normals-array" count="84" stride="3"><param name="X" type="float"/><param name="Y" type="float"/><param name="Z" type="float"/></accessor></technique_common>
      </source>
      <source id="vfx_kurp_0123-mesh-uv0">
        <float_array id="vfx_kurp_0123-mesh-uv0-array" count="168">1 0.692307711 0.5 0.692307711 1 0.769230843 0.5 0.769230783 1 0.846153915 0.5 0.846153855 1 0.923076987 0.5 0.923076928 1 1 0.5 1 0 1 5.80753134e-09 0.923076928 1.16150627e-08 0.846153855 1.74225931e-08 0.769230723 2.32301236e-08 0.692307651 2.90376541e-08 0.615384579 0.5 0.615384638 3.48451863e-08 0.538461447 0.50000006 0.538461566 4.06527185e-08 0.461538434 0.50000006 0.461538434 4.64602472e-08 0.384615362 0.50000006 0.384615362 5.22677794e-08 0.307692289 0.50000006 0.307692289 1 0.615384698 1 0.538461566 1 0.461538494 1 0.384615421 1 0.307692349 0.50000006 0.230769217 1 0.230769277 0.50000006 0.153846145 1.00000012 0.153846204 0.50000006 0.0769230127 1.00000012 0.0769230723 0.50000006 0 1.00000012 5.96046448e-08 5.80753081e-08 0.230769217 6.38828368e-08 0.153846145 6.96903726e-08 0.0769230127 7.54979013e-08 0 1 0.692307711 0.5 0.692307711 1 0.769230843 0.49999997 0.769230783 1 0.846153915 0.49999997 0.846153855 1 0.923076987 0.49999997 0.923076987 1 1.00000012 0.49999997 1 -5.35088276e-08 1 -4.82989293e-08 0.923076928 -4.3089031e-08 0.846153855 -3.78791327e-08 0.769230723 -3.2298292e-08 0.692307711 -2.67174496e-08 0.615384579 0.5 0.615384579 -2.16465494e-08 0.538461506 0.5 0.538461506 -1.58337627e-08 0.461538434 0.50000006 0.461538494 -1.07168114e-08 0.384615362 0.5 0.384615421 -5.13596943e-09 0.307692289 0.5 0.307692289 1 0.615384698 1 0.538461566 1 0.461538494 1 0.384615362 1.00000012 0.307692289 0.50000006 0.230769217 1 0.230769217 0.5 0.153846145 1 0.153846145 0.5 0.0769230127 1.00000012 0.0769230127 0.50000006 0 1 5.96046448e-08 -3.82223586e-09 0.230769157 2.68638445e-09 0.153846085 7.71123254e-09 0.0769229531 1.71873964e-08 0</float_array>
        <technique_common><accessor source="#vfx_kurp_0123-mesh-uv0-array" count="84" stride="2"><param name="S" type="float"/><param name="T" type="float"/></accessor></technique_common>
      </source>
      <vertices id="vfx_kurp_0123-mesh-vertices"><input semantic="POSITION" source="#vfx_kurp_0123-mesh-positions"/></vertices>
      <triangles material="PreviewMaterial" count="104">
        <input semantic="VERTEX" source="#vfx_kurp_0123-mesh-vertices" offset="0"/>
        <input semantic="NORMAL" source="#vfx_kurp_0123-mesh-normals" offset="1"/>
        <input semantic="TEXCOORD" source="#vfx_kurp_0123-mesh-uv0" offset="2" set="0"/>
        <p>0 0 0 1 1 1 2 2 2 3 3 3 2 2 2 1 1 1 2 2 2 3 3 3 4 4 4 5 5 5 4 4 4 3 3 3 4 4 4 5 5 5 6 6 6 7 7 7 6 6 6 5 5 5 6 6 6 7 7 7 8 8 8 9 9 9 8 8 8 7 7 7 10 10 10 9 9 9 11 11 11 7 7 7 11 11 11 9 9 9 11 11 11 7 7 7 12 12 12 5 5 5 12 12 12 7 7 7 12 12 12 5 5 5 13 13 13 3 3 3 13 13 13 5 5 5 13 13 13 3 3 3 14 14 14 1 1 1 14 14 14 3 3 3 14 14 14 1 1 1 15 15 15 16 16 16 15 15 15 1 1 1 15 15 15 16 16 16 17 17 17 18 18 18 17 17 17 16 16 16 17 17 17 18 18 18 19 19 19 20 20 20 19 19 19 18 18 18 19 19 19 20 20 20 21 21 21 22 22 22 21 21 21 20 20 20 21 21 21 22 22 22 23 23 23 24 24 24 23 23 23 22 22 22 1 1 1 0 0 0 16 16 16 25 25 25 16 16 16 0 0 0 16 16 16 25 25 25 18 18 18 26 26 26 18 18 18 25 25 25 18 18 18 26 26 26 20 20 20 27 27 27 20 20 20 26 26 26 20 20 20 27 27 27 22 22 22 28 28 28 22 22 22 27 27 27 22 22 22 28 28 28 24 24 24 29 29 29 24 24 24 28 28 28 24 24 24 29 29 29 30 30 30 31 31 31 30 30 30 29 29 29 30 30 30 31 31 31 32 32 32 33 33 33 32 32 32 31 31 31 32 32 32 33 33 33 34 34 34 35 35 35 34 34 34 33 33 33 34 34 34 35 35 35 36 36 36 37 37 37 36 36 36 35 35 35 23 23 23 24 24 24 38 38 38 30 30 30 38 38 38 24 24 24 38 38 38 30 30 30 39 39 39 32 32 32 39 39 39 30 30 30 39 39 39 32 32 32 40 40 40 34 34 34 40 40 40 32 32 32 40 40 40 34 34 34 41 41 41 36 36 36 41 41 41 34 34 34 42 42 42 43 43 43 44 44 44 45 45 45 44 44 44 43 43 43 44 44 44 45 45 45 46 46 46 47 47 47 46 46 46 45 45 45 46 46 46 47 47 47 48 48 48 49 49 49 48 48 48 47 47 47 48 48 48 49 49 49 50 50 50 51 51 51 50 50 50 49 49 49 52 52 52 51 51 51 53 53 53 49 49 49 53 53 53 51 51 51 53 53 53 49 49 49 54 54 54 47 47 47 54 54 54 49 49 49 54 54 54 47 47 47 55 55 55 45 45 45 55 55 55 47 47 47 55 55 55 45 45 45 56 56 56 43 43 43 56 56 56 45 45 45 56 56 56 43 43 43 57 57 57 58 58 58 57 57 57 43 43 43 57 57 57 58 58 58 59 59 59 60 60 60 59 59 59 58 58 58 59 59 59 60 60 60 61 61 61 62 62 62 61 61 61 60 60 60 61 61 61 62 62 62 63 63 63 64 64 64 63 63 63 62 62 62 63 63 63 64 64 64 65 65 65 66 66 66 65 65 65 64 64 64 43 43 43 42 42 42 58 58 58 67 67 67 58 58 58 42 42 42 58 58 58 67 67 67 60 60 60 68 68 68 60 60 60 67 67 67 60 60 60 68 68 68 62 62 62 69 69 69 62 62 62 68 68 68 62 62 62 69 69 69 64 64 64 70 70 70 64 64 64 69 69 69 64 64 64 70 70 70 66 66 66 71 71 71 66 66 66 70 70 70 66 66 66 71 71 71 72 72 72 73 73 73 72 72 72 71 71 71 72 72 72 73 73 73 74 74 74 75 75 75 74 74 74 73 73 73 74 74 74 75 75 75 76 76 76 77 77 77 76 76 76 75 75 75 76 76 76 77 77 77 78 78 78 79 79 79 78 78 78 77 77 77 65 65 65 66 66 66 80 80 80 72 72 72 80 80 80 66 66 66 80 80 80 72 72 72 81 81 81 74 74 74 81 81 81 72 72 72 81 81 81 74 74 74 82 82 82 76 76 76 82 82 82 74 74 74 82 82 82 76 76 76 83 83 83 78 78 78 83 83 83 76 76 76</p>
      </triangles>
    </mesh></geometry>
  </library_geometries>
  <library_visual_scenes>
    <visual_scene id="Scene" name="Scene">
      <node id="vfx_kurp_0123" name="vfx_kurp_0123" type="NODE">
        <instance_geometry url="#vfx_kurp_0123-mesh"><bind_material><technique_common><instance_material symbol="PreviewMaterial" target="#PreviewMaterial"><bind_vertex_input semantic="UVSET0" input_semantic="TEXCOORD" input_set="0"/></instance_material></technique_common></bind_material></instance_geometry>
      </node>
    </visual_scene>
  </library_visual_scenes>
  <scene><instance_visual_scene url="#Scene"/></scene>
</COLLADA>
