<?xml version="1.0" encoding="utf-8"?>
<COLLADA xmlns="http://www.collada.org/2005/11/COLLADASchema" version="1.4.1">
  <asset>
    <contributor><authoring_tool>Morrobroom Kurpulio VFX preview converter</authoring_tool></contributor>
    <unit name="unit" meter="1"/>
    <up_axis>Z_UP</up_axis>
  </asset>
  <library_images>
    <image id="VFXTexture" name="darkmap_newgen-1.dds">
      <init_from>../../../Textures/Kurp/darkmap_newgen-1.dds</init_from>
    </image>
  </library_images>
  <library_effects>
    <effect id="PreviewEffect">
      <profile_COMMON>
        <newparam sid="VFXTexture-surface">
          <surface type="2D"><init_from>VFXTexture</init_from></surface>
        </newparam>
        <newparam sid="VFXTexture-sampler">
          <sampler2D><source>VFXTexture-surface</source></sampler2D>
        </newparam>
        <technique sid="common"><phong>
          <emission><color>0.08 0.08 0.08 1</color></emission>
          <ambient><color>0.2 0.2 0.2 1</color></ambient>
          <diffuse><texture texture="VFXTexture-sampler" texcoord="UVSET0"/></diffuse>
          <specular><color>0.15 0.15 0.15 1</color></specular>
          <shininess><float>8</float></shininess>
          <transparent opaque="A_ONE"><texture texture="VFXTexture-sampler" texcoord="UVSET0"/></transparent>
          <transparency><float>1</float></transparency>
        </phong></technique>
      </profile_COMMON>
      <extra><technique profile="GOOGLEEARTH"><double_sided>1</double_sided></technique></extra>
    </effect>
  </library_effects>
  <library_materials><material id="PreviewMaterial" name="PreviewMaterial"><instance_effect url="#PreviewEffect"/></material></library_materials>
  <library_geometries>
    <geometry id="vfx_kurp_1200-mesh" name="vfx_kurp_1200"><mesh>
      <source id="vfx_kurp_1200-mesh-positions">
        <float_array id="vfx_kurp_1200-mesh-positions-array" count="993">0.169671341 0.0337491664 0.199999418 1.98749435e-07 -6.22483887e-08 0.199999347 0.172995163 -1.18617314e-07 0.199999404 0.159826895 0.066202705 0.199999413 0.143840748 0.0961111945 0.199999408 0.122326762 0.122326099 0.199999403 0.0961114194 0.143840571 0.1999994 0.0662031302 0.159827252 0.199999397 0.0337500398 0.169671335 0.199999396 2.5511837e-07 0.172994948 0.199999414 0.0337500398 0.169671335 0.199999396 -0.0337496774 0.169671354 0.199999338 -0.0662021956 0.159826508 0.19999934 -0.0961110761 0.143840638 0.199999343 -0.122326162 0.122326175 0.199999346 -0.143840157 0.0961112899 0.19999935 -0.159826761 0.0662028099 0.199999355 -0.169671398 0.0337492784 0.199999361 -0.172995373 -5.87926943e-09 0.199999366 -0.169671398 -0.0337496853 0.199999372 -0.1598268 -0.0662020438 0.199999377 -0.143840224 -0.0961113296 0.199999382 -0.122325952 -0.122326224 0.199999367 -0.0961110284 -0.143839905 0.19999937 -0.0662022957 -0.159826977 0.199999373 -0.0337496392 -0.169671442 0.199999375 2.87020169e-07 -0.172995035 0.199999375 0.0337499301 -0.169671461 0.199999375 0.0662027344 -0.159827015 0.199999449 0.0961116102 -0.143839962 0.199999428 0.1223264 -0.122325509 0.199999424 0.143840691 -0.0961110149 0.199999344 0.159826857 -0.0662021535 0.199999339 0.169671322 -0.0337497974 0.19999941 0.603276773 0.119998962 0.199999442 0.615095239 -2.46379073e-07 0.199999442 0.568274295 0.235386723 0.199999423 0.511433247 0.341728617 0.199999425 0.434938307 0.434938301 0.19999941 0.341728813 0.511433127 0.19999934 0.235387129 0.568273679 0.199999331 0.119999397 0.603276272 0.199999344 5.53245506e-07 0.6150947 0.199999361 0.119999397 0.603276272 0.199999344 -0.119998738 0.603275547 0.199999287 -0.23538589 0.568273831 0.199999312 -0.341728012 0.511432554 0.199999321 -0.43493762 0.434938568 0.199999257 -0.511432369 0.341729723 0.199999272 -0.568273341 0.235386304 0.19999929 -0.603275743 0.119999362 0.199999232 -0.615094743 1.54467753e-07 0.199999252 -0.60327582 -0.119999049 0.199999348 -0.568273493 -0.23538601 0.199999271 -0.511432598 -0.341728742 0.199999288 -0.43493762 -0.434937626 0.199999361 -0.341728394 -0.511432031 0.199999373 -0.235386576 -0.568273423 0.199999363 -0.119998986 -0.603275978 0.199999426 7.75933057e-09 -0.615094406 0.199999428 0.119998996 -0.603276054 0.199999407 0.235387053 -0.568273156 0.199999478 0.34172847 -0.511433061 0.199999449 0.434938001 -0.434937893 0.199999437 0.511432751 -0.341728285 0.199999422 0.56827357 -0.235387173 0.199999481 0.603276697 -0.11999945 0.199999462 1.03688085 0.206247987 0.199999466 1.0571945 -3.74140587e-07 0.199999481 0.976720941 0.404570679 0.199999453 0.879024944 0.58734602 0.199999442 0.74754988 0.747549683 0.199999435 0.587346178 0.879025663 0.199999356 0.40457141 0.976720897 0.19999936 0.206249042 1.03688119 0.199999293 7.06732956e-07 1.05719445 0.199999308 0.206249042 1.03688119 0.199999293 -0.206247955 1.03688134 0.199999254 -0.404570303 0.976720363 0.199999264 -0.587345148 0.879025281 0.199999223 -0.747548659 0.747550141 0.199999168 -0.879024639 0.587346592 0.199999194 -0.976720101 0.404571366 0.199999224 -1.03688039 0.206248655 0.19999918 -1.05719404 3.1481476e-07 0.199999214 -1.03688024 -0.206248036 0.199999228 -0.976719949 -0.404570385 0.19999926 -0.879024791 -0.587344544 0.199999271 -0.747549117 -0.747549389 0.199999278 -0.587345835 -0.879024606 0.199999357 -0.404570799 -0.97671984 0.199999354 -0.206248603 -1.03688128 0.199999421 -2.71501588e-07 -1.05719416 0.199999405 0.206248374 -1.03688059 0.199999459 0.404571105 -0.976720069 0.199999506 0.587345873 -0.879024606 0.19999949 0.747549422 -0.747549465 0.199999526 0.879025249 -0.587345917 0.1999995 0.976720636 -0.404570996 0.199999546 1.036881 -0.206249104 0.199999514 1.47048535 0.292496974 0.199999566 1.49929379 -5.01902049e-07 0.199999614 1.38516751 0.573754712 0.19999954 1.24661748 0.832962737 0.199999459 1.06016172 1.06016038 0.199999441 0.83296362 1.24661675 0.199999354 0.573755709 1.38516739 0.199999369 0.292498105 1.47048538 0.199999298 5.70941143e-07 1.49929428 0.199999255 0.292498105 1.47048538 0.199999298 -0.292496999 1.4704863 0.199999203 -0.573754336 1.38516693 0.19999916 -0.832962475 1.24661728 0.199999201 -1.06016035 1.06016183 0.199999155 -1.24661679 0.832963423 0.199999135 -1.38516644 0.573755627 0.199999177 -1.47048489 0.292498729 0.199999128 -1.49929379 -3.12048525e-07 0.199999175 -1.4704852 -0.292497424 0.199999204 -1.38516705 -0.573754723 0.199999231 -1.24661756 -0.832963053 0.199999254 -1.06016111 -1.06016108 0.199999253 -0.832963391 -1.24661707 0.19999934 -0.573755251 -1.38516733 0.19999942 -0.292497991 -1.47048577 0.199999396 -6.95402398e-07 -1.49929421 0.199999458 0.292497438 -1.47048547 0.199999491 0.573754794 -1.38516733 0.199999535 0.832963086 -1.24661806 0.199999588 1.06016073 -1.060161 0.199999615 1.24661695 -0.832963511 0.199999578 1.38516675 -0.573755219 0.199999612 1.4704852 -0.292497977 0.199999566 1.90409008 0.378746782 0.19999961 1.94139293 -6.29663526e-07 0.199999652 1.79361339 0.742938706 0.199999569 1.61421002 1.07858003 0.199999553 1.37277295 1.37277176 0.199999448 1.07858121 1.61420929 0.19999937 0.742939665 1.79361388 0.199999379 0.378748084 1.9040895 0.199999323 1.01370764e-06 1.94139312 0.199999279 0.378748084 1.9040895 0.199999323 -0.378746062 1.90409057 0.199999151 -0.742938216 1.79361434 0.199999131 -1.07857946 1.61421005 0.199999103 -1.37277158 1.37277268 0.199999066 -1.61420895 1.07858117 0.199999057 -1.79361324 0.742939088 0.199999112 -1.90408962 0.378747239 0.199999095 -1.94139278 -1.51701599e-07 0.199999137 -1.90408977 -0.378746373 0.199999104 -1.79361355 -0.742938336 0.199999201 -1.61420986 -1.07858004 0.199999237 -1.37277249 -1.37277246 0.199999246 -1.07858045 -1.61420922 0.199999324 -0.742939513 -1.79361336 0.199999391 -0.378747703 -1.90408989 0.199999447 -2.51464693e-07 -1.9413932 0.199999511 0.378746825 -1.90408974 0.199999543 0.742938826 -1.79361397 0.199999582 1.07858022 -1.61420998 0.19999961 1.37277203 -1.37277261 0.199999628 1.61420941 -1.07858034 0.199999656 1.79361278 -0.74293948 0.199999659 1.90408947 -0.378747212 0.199999619 2.3376948 0.464995788 0.199999634 2.38349238 -7.57425113e-07 0.19999969 2.20206035 0.912122662 0.199999599 1.98180202 1.32419678 0.199999551 1.68538433 1.68538391 0.199999473 1.32419858 1.9818019 0.199999387 0.912124232 2.20205946 0.199999313 0.464997434 2.33769438 0.199999271 1.02255527e-06 2.38349211 0.199999226 0.464997434 2.33769438 0.199999271 -0.464995412 2.33769468 0.199999119 -0.912122096 2.20206084 0.199999084 -1.32419675 1.98180342 0.199999081 -1.68538311 1.68538482 0.199998996 -1.98180141 1.32419861 0.199998979 -2.20205943 0.912124112 0.19999897 -2.33769434 0.464996513 0.199999042 -2.38349253 4.0225071e-07 0.199999023 -2.33769465 -0.464995761 0.199999079 -2.20206019 -0.912122673 0.199999114 -1.98180202 -1.32419672 0.199999219 -1.68538433 -1.68538384 0.19999924 -1.32419797 -1.98180214 0.199999308 -0.912123774 -2.20206031 0.199999382 -0.464996938 -2.33769446 0.199999442 -5.3072569e-07 -2.38349296 0.199999564 0.46499587 -2.33769492 0.199999594 0.912122859 -2.20206031 0.19999961 1.32419721 -1.98180183 0.199999708 1.68538326 -1.68538415 0.199999717 1.98180095 -1.32419794 0.199999715 2.20205973 -0.912123284 0.199999725 2.33769465 -0.464997287 0.199999747 2.77129999 0.551244794 0.199999734 2.82559228 -8.85186772e-07 0.199999729 2.61050714 1.08130669 0.19999961 2.34939448 1.56981491 0.199999568 1.99799602 1.99799514 0.199999479 1.56981655 2.34939436 0.199999403 1.08130857 2.61050748 0.199999322 0.55124705 2.77130002 0.199999277 1.60996202e-06 2.82559262 0.199999173 0.55124705 2.77130002 0.199999277 -0.551244342 2.77129971 0.199999067 -1.08130598 2.61050809 0.199999055 -1.56981396 2.3493939 0.199998983 -1.99799449 1.9979959 0.199998983 -2.34939341 1.56981491 0.199998901 -2.61050653 1.0813083 0.199998904 -2.77129877 0.551246587 0.199998914 -2.82559198 5.62597818e-07 0.199998985 -2.77129907 -0.551245568 0.199999036 -2.61050684 -1.08130663 0.199999085 -2.34939433 -1.5698153 0.199999126 -1.99799617 -1.99799522 0.199999215 -1.56981533 -2.34939429 0.19999931 -1.08130781 -2.61050711 0.199999372 -0.551246287 -2.77129904 0.199999493 -5.20707351e-07 -2.82559256 0.19999954 0.551245563 -2.77129965 0.199999627 1.08130659 -2.61050742 0.199999639 1.56981411 -2.3493946 0.19999973 1.9979948 -1.99799583 0.199999806 2.34939295 -1.56981561 0.199999794 2.61050623 -1.08130793 0.19999979 2.77129968 -0.551245797 0.199999799 3.2049041 0.63749464 0.199999758 3.26769219 -1.01294849e-06 0.199999843 3.01895379 1.25049065 0.199999716 2.71698694 1.81543151 0.199999585 2.31060786 2.31060667 0.199999486 1.81543331 2.71698575 0.1999994 1.25049283 3.01895474 0.199999351 0.637496438 3.20490505 0.199999225 1.18489069e-06 3.26769253 0.19999912 0.637496438 3.20490505 0.199999225 -0.637493539 3.20490383 0.199999016 -1.25049008 3.01895413 0.199999027 -1.81543133 2.71698728 0.199998962 -2.31060633 2.31060667 0.199998894 -2.71698511 1.81543334 0.199998822 -3.01895287 1.25049187 0.199998857 -3.20490349 0.637495136 0.199998862 -3.26769158 -6.42654766e-08 0.199998946 -3.2049038 -0.637494498 0.199998936 -3.01895348 -1.25049066 0.199999074 -2.71698663 -1.8154319 0.199999109 -2.31060771 -2.31060676 0.199999208 -1.8154327 -2.71698599 0.199999294 -1.25049237 -3.01895406 0.199999362 -0.637495942 -3.20490438 0.199999488 -6.55328535e-07 -3.26769216 0.199999593 0.637494607 -3.20490438 0.199999678 1.25049085 -3.01895406 0.199999763 1.81543133 -2.7169866 0.199999828 2.31060587 -2.31060737 0.199999819 2.71698633 -1.81543282 0.199999872 3.01895318 -1.25049181 0.199999856 3.20490441 -0.637494994 0.199999832 3.63850852 0.723743684 0.199999801 3.70979118 -1.14070993e-06 0.199999881 3.42740105 1.41967468 0.199999726 3.0845794 2.06104796 0.199999679 2.62321894 2.62321897 0.199999587 2.06105067 3.08457791 0.199999417 1.41967648 3.42740047 0.199999361 0.723745482 3.63851008 0.199999231 1.19373825e-06 3.70979121 0.199999143 0.723745482 3.63851008 0.199999231 -0.723743117 3.63850978 0.199999059 -1.41967419 3.42740138 0.199998903 -2.06104854 3.08457852 0.199998864 -2.6232171 2.62321988 0.199998805 -3.08457757 2.06104857 0.19999884 -3.42739952 1.41967682 0.199998791 -3.63850822 0.72374521 0.19999881 -3.70979057 1.27689694e-06 0.199998832 -3.63850822 -0.723743466 0.199998912 -3.42740013 -1.41967462 0.199998968 -3.08457909 -2.06104927 0.199999092 -2.62321894 -2.62321829 0.199999202 -2.06105037 -3.08457876 0.199999277 -1.41967663 -3.42739979 0.199999429 -0.72374533 -3.6385088 0.199999539 -1.07922894e-06 -3.70979145 0.199999646 0.723743423 -3.6385091 0.19999973 1.41967465 -3.4274004 0.199999791 2.06104808 -3.08457937 0.19999985 2.62321741 -2.6232189 0.199999889 3.08457848 -2.06105018 0.19999995 3.42740013 -1.41967599 0.199999922 3.63850852 -0.723744229 0.199999885 4.07211325 0.809992614 0.199999902 4.15188986 -1.26847116e-06 0.199999919 3.83584769 1.58885879 0.199999756 3.45217155 2.30666639 0.199999696 2.93583123 2.93582943 0.199999594 2.30666789 3.45217006 0.199999433 1.58886105 3.83584681 0.199999294 0.809995404 4.07211328 0.19999918 1.49186552e-06 4.15189111 0.19999909 0.809995404 4.07211328 0.19999918 -0.809991971 4.07211389 0.199999008 -1.5888583 3.83584864 0.199998875 -2.30666545 3.45217159 0.199998823 -2.93582879 2.93583066 0.199998792 -3.45216972 2.30666777 0.199998761 -3.83584617 1.58886123 0.199998726 -4.07211234 0.809995284 0.199998757 -4.15189017 1.04363884e-06 0.199998794 -4.07211325 -0.809992473 0.199998869 -3.83584678 -1.58885842 0.199998957 -3.45217125 -2.30666663 0.199999074 -2.93583032 -2.93582998 0.199999177 -2.30666773 -3.45217091 0.199999261 -1.58886059 -3.83584644 0.1999994 -0.809994641 -4.07211322 0.199999515 -1.21385024e-06 -4.15189105 0.199999623 0.80999281 -4.07211383 0.199999763 1.58885861 -3.83584766 0.199999819 2.3066656 -3.45217152 0.199999948 2.9358294 -2.93583059 0.199999978 3.45217064 -2.30666724 0.200000009 3.83584586 -1.5888601 0.199999968 4.07211295 -0.809994304 0.200000013</float_array>
        <technique_common><accessor source="#vfx_kurp_1200-mesh-positions-array" count="331" stride="3"><param name="X" type="float"/><param name="Y" type="float"/><param name="Z" type="float"/></accessor></technique_common>
      </source>
      <source id="vfx_kurp_1200-mesh-normals">
        <float_array id="vfx_kurp_1200-mesh-normals-array" count="993">-1.925861e-07 -1.63498328e-07 1 -1.34368577e-07 3.34320021e-08 1 -1.76371216e-07 -9.96581946e-08 1 -2.39209157e-07 5.53691279e-08 1 -2.29058244e-07 9.87010651e-09 1 -1.91048898e-07 5.07073139e-09 1 -1.14852327e-07 -8.96591246e-09 1 -7.55511991e-08 -3.99248137e-08 1 2.17513289e-07 -8.94966661e-08 1 -7.67724543e-07 -2.16464059e-07 1 2.17513289e-07 -8.94966661e-08 1 -1.0844675e-06 -1.38636466e-07 1 3.73196372e-08 7.28225729e-08 1 6.83704116e-09 9.63483515e-08 1 4.13129575e-09 1.58789394e-07 1 4.85776441e-09 1.59674763e-07 1 -4.20293595e-08 1.46451027e-07 1 -8.41872989e-08 1.79666491e-07 1 -4.74670294e-08 1.9422049e-07 1 -3.36778214e-08 1.16329996e-07 1 -1.00476733e-07 1.21301724e-07 1 9.03478536e-08 -5.48643015e-08 1 1.51189766e-07 -8.55092424e-08 1 -3.70235256e-08 9.34269906e-08 1 -4.57602276e-08 1.13790431e-07 1 -4.47130111e-09 1.40441262e-07 1 7.8248501e-09 1.30408839e-07 1 -1.00204556e-06 -1.83112604e-07 1 -8.72615317e-07 2.14626539e-09 1 1.74273737e-07 4.10707742e-07 1 5.46863646e-07 1.05716384e-06 1 5.83527992e-07 1.09478179e-06 1 -3.43219966e-07 -7.97885434e-07 1 -4.17535716e-07 -9.06472621e-07 1 -8.17748926e-08 5.3669666e-08 1 -8.02937663e-08 8.88487008e-08 1 -6.7010653e-08 5.49890586e-08 1 -6.48921059e-08 1.69225132e-08 1 -2.77568802e-07 1.99613023e-07 1 -2.4794366e-07 1.98569264e-07 1 1.18617161e-08 7.65486092e-08 1 1.42258102e-07 9.94959564e-08 1 -2.05088753e-07 8.05775002e-08 1 1.42258102e-07 9.94959564e-08 1 -2.58310592e-07 8.69111858e-08 1 6.47187832e-08 1.51132861e-07 1 -2.36035248e-07 -1.71342975e-08 1 -2.73509073e-07 -3.82250676e-09 1 -7.17441537e-08 2.10858438e-07 1 -1.70958444e-07 -8.69679866e-08 1 -2.14115389e-07 -1.11893712e-07 1 -2.32832875e-07 4.21633388e-07 1 -1.3314758e-07 1.14532057e-07 1 -1.65868883e-08 -2.73277863e-07 1 -3.2430782e-07 1.77329976e-07 1 -3.28061248e-07 1.88647736e-07 1 -1.97227603e-08 0 1 -2.05286796e-07 4.46252315e-08 1 -2.46657521e-07 8.11371876e-08 1 4.40121752e-08 6.74392808e-08 1 -1.88753887e-07 3.05796846e-08 1 -2.30778269e-07 1.92941201e-08 1 7.59743912e-08 1.59263832e-07 1 -3.8133785e-09 1.66734081e-07 1 -1.71504226e-07 -5.06494757e-08 1 -2.63614908e-07 -6.48413589e-08 1 -1.26830756e-07 1.64260656e-07 1 -1.57070616e-07 3.79791913e-08 1 -1.90629862e-07 1.26756401e-07 1 -1.30961539e-07 3.84614793e-08 1 -5.69451046e-08 1.43463126e-08 1 -1.70246608e-07 1.15557999e-07 1 -1.5908816e-07 9.67542277e-08 1 -1.55672396e-07 1.41537697e-08 1 -1.20598386e-07 7.46781055e-08 1 -8.11749246e-08 1.07219954e-07 1 -1.20598386e-07 7.46781055e-08 1 -1.65133017e-07 1.06748224e-07 1 -8.04613762e-08 1.07169775e-07 1 -2.33147304e-07 -3.13975335e-08 1 -1.74003077e-07 3.1691016e-08 1 -5.26871062e-08 1.98125139e-07 1 -1.22999722e-07 1.88465066e-08 1 -1.36254641e-07 -8.30655722e-09 1 -8.32621083e-08 1.1965237e-07 1 -1.48132131e-07 1.05774276e-07 1 -1.09114055e-07 3.99508764e-08 1 -5.52546631e-08 1.38076928e-08 1 -2.23795809e-07 8.62646559e-08 1 -1.80905076e-07 9.71685736e-08 1 -9.1777288e-08 6.06523969e-08 1 -1.58385475e-07 3.83413692e-08 1 -7.97875543e-08 2.7432975e-08 1 -2.28845082e-07 1.74573813e-08 1 -1.51560599e-07 5.83985695e-08 1 -1.07735474e-07 1.00805217e-07 1 -1.41755791e-07 1.22612256e-07 1 -1.57841683e-07 6.02338304e-08 1 -1.67041165e-07 2.15652847e-08 1 -1.27017415e-07 1.51969406e-07 1 -1.84673468e-07 8.93728753e-08 1 -1.6820411e-07 1.2509517e-08 1 -2.04475171e-07 7.87422039e-08 1 -2.02518081e-07 8.53222772e-08 1 -1.37527408e-07 9.76144037e-08 1 -1.1341217e-07 6.76301894e-08 1 -9.00623434e-08 3.80464371e-09 1 -1.98398865e-07 5.79969139e-09 1 -1.7056891e-07 3.02824645e-08 1 -1.98398865e-07 5.79969139e-09 1 -1.74835009e-07 7.85811878e-08 1 -7.83792586e-08 1.37326213e-07 1 -1.05393568e-07 1.22276308e-07 1 -1.67687872e-07 7.04561387e-09 1 -9.01329287e-08 1.19404778e-07 1 -1.0273358e-07 4.68264574e-08 1 -1.05293722e-07 8.22737434e-09 1 -1.09610419e-07 1.05682197e-07 1 -1.47530955e-07 8.77814017e-08 1 -9.04211745e-08 6.11767916e-08 1 -5.32432765e-08 1.24837953e-08 1 -1.27891084e-07 6.65888535e-08 1 -2.55171074e-07 1.1929454e-07 1 -8.40105656e-08 8.05692082e-08 1 -6.89025228e-08 7.6996983e-08 1 -1.42082783e-07 9.35381763e-08 1 -1.51433269e-07 7.42336539e-08 1 -1.74883809e-07 1.39673801e-08 1 -1.54645377e-07 2.18778524e-08 1 -1.09901912e-07 9.00492552e-08 1 -1.24742087e-07 1.06846027e-07 1 -1.27157278e-07 6.02570225e-08 1 -1.05416802e-07 2.76673546e-08 1 -9.38942222e-08 9.20773147e-08 1 -9.21966574e-08 7.39001393e-09 1 -8.75698518e-08 5.33685593e-08 1 -1.64481648e-07 8.52714379e-08 1 -1.99224345e-07 1.13606951e-07 1 -1.06284702e-07 6.69883988e-08 1 -2.46379681e-08 7.37679429e-08 1 -1.26268844e-07 6.83492374e-08 1 -2.12903586e-07 2.74311844e-08 1 -1.26268844e-07 6.83492374e-08 1 -1.98164329e-07 4.37689422e-08 1 -8.93124792e-08 5.7198946e-08 1 -1.34918892e-07 5.50434507e-08 1 -1.79434451e-07 8.36827425e-08 1 -1.51359188e-07 1.39193707e-07 1 -1.66280415e-07 1.5568519e-07 1 -1.28052889e-07 2.61858304e-08 1 -1.44735409e-07 4.76294133e-08 1 -1.53179585e-07 4.23299724e-08 1 -1.93708033e-07 1.17386847e-07 1 -6.56656027e-08 3.01753147e-08 1 -9.1199766e-08 5.566271e-08 1 -1.79813156e-07 8.35130791e-08 1 -1.68605652e-07 3.12751638e-08 1 -1.43337246e-07 6.76277097e-08 1 -1.26596248e-07 1.21564106e-07 1 -1.05889441e-07 9.13191016e-08 1 -1.45169793e-07 5.57577948e-08 1 -1.36093362e-07 8.66796768e-08 1 -1.18150574e-07 4.3560334e-08 1 -1.28149921e-07 5.33326485e-08 1 -1.40859186e-07 7.75925812e-08 1 -1.64446547e-07 7.80812641e-08 1 -1.47342689e-07 9.56165067e-08 1 -1.28021014e-07 7.97947664e-08 1 -7.46881312e-08 6.35913793e-08 1 -9.32313e-08 9.24760784e-08 1 -1.47392655e-07 1.06266764e-07 1 -1.63666044e-07 6.50127205e-08 1 -8.28103239e-08 7.53245217e-08 1 -9.88333255e-08 8.82494362e-08 1 -1.59455837e-07 1.16390623e-07 1 -9.88333255e-08 8.82494362e-08 1 -1.70661053e-07 6.85089816e-08 1 -9.26270616e-08 6.95808353e-08 1 -1.26436134e-07 6.29067287e-08 1 -1.53484606e-07 -1.7573015e-08 1 -1.55638944e-07 7.62147465e-08 1 -1.90084108e-07 1.44924341e-07 1 -1.90832253e-07 1.0559835e-07 1 -1.5419478e-07 4.99730319e-08 1 -1.12473366e-07 5.94423355e-08 1 -1.73902151e-07 8.25754469e-08 1 -1.85968233e-07 4.67674255e-08 1 -9.39113889e-08 4.41079635e-08 1 -1.32570932e-07 7.13350445e-08 1 -1.51764468e-07 5.51072716e-08 1 -1.58538882e-07 6.52381047e-08 1 -1.70117431e-07 3.05207664e-08 1 -6.72768437e-08 8.24224529e-08 1 -1.3717829e-07 1.40330201e-08 1 -1.74250872e-07 4.22932942e-08 1 -1.47907812e-07 1.37540791e-07 1 -1.40612926e-07 8.03324554e-08 1 -1.42336106e-07 2.92085929e-08 1 -1.67353988e-07 8.69166286e-08 1 -1.58415105e-07 6.42213038e-08 1 -1.5787991e-07 8.40176781e-08 1 -1.87359007e-07 9.23883476e-08 1 -9.70302025e-08 7.99827689e-08 1 -1.15832954e-07 9.58295061e-08 1 -1.22782481e-07 5.96416285e-08 1 -1.36072018e-07 2.74762613e-08 1 -1.19158074e-07 7.80780667e-08 1 -1.75322e-07 1.0485449e-07 1 -1.19158074e-07 7.80780667e-08 1 -1.24344538e-07 9.30375492e-08 1 -9.65373346e-08 3.20489164e-08 1 -1.30999922e-07 6.94349467e-08 1 -1.59403982e-07 3.42945867e-08 1 -1.5833902e-07 4.43434729e-08 1 -1.17679676e-07 5.66498315e-08 1 -1.60892796e-07 1.23026716e-07 1 -1.22659145e-07 7.2621134e-08 1 -1.64253279e-07 8.63776677e-08 1 -7.41536113e-08 5.18004555e-08 1 -1.59590826e-07 5.4379349e-08 1 -1.42389837e-07 6.59364048e-08 1 -1.26776555e-07 5.95459042e-08 1 -1.62012242e-07 4.56596823e-08 1 -1.44777644e-07 7.85257299e-08 1 -1.36277052e-07 5.65374165e-08 1 -1.17030488e-07 8.0380417e-08 1 -1.42710121e-07 1.26220851e-07 1 -1.76421509e-07 3.12434167e-08 1 -1.23514909e-07 3.34844543e-08 1 -1.37971753e-07 1.10956893e-07 1 -1.32371852e-07 5.65056268e-08 1 -1.1260034e-07 4.94643828e-08 1 -1.05695676e-07 7.03967515e-08 1 -1.52314257e-07 7.14110655e-08 1 -1.65314745e-07 7.05951066e-08 1 -2.14186514e-07 4.82039297e-08 1 -1.96600169e-07 3.67016639e-08 1 -9.72220917e-08 4.53634854e-08 1 -1.45176656e-07 2.0938117e-08 1 -1.50822999e-07 5.73443302e-08 1 -1.58347945e-07 2.3936181e-08 1 -1.50822999e-07 5.73443302e-08 1 -1.26118991e-07 1.60888902e-08 1 -1.02791276e-07 1.48647952e-07 1 -1.6349324e-07 5.99495422e-08 1 -1.62902552e-07 6.94584088e-08 1 -1.02048844e-07 0 1 -1.11001327e-07 7.66473249e-08 1 -1.19131705e-07 7.68216708e-08 1 -1.59667266e-07 8.1643023e-08 1 -1.56423695e-07 5.75843515e-08 1 -1.81352419e-07 7.85138212e-08 1 -9.02878838e-08 6.87862496e-08 1 -1.11805491e-07 8.62179661e-08 1 -1.29556454e-07 6.61344899e-08 1 -1.0897034e-07 1.1401546e-07 1 -1.66383842e-07 9.04696336e-08 1 -1.36501001e-07 1.06992889e-07 1 -1.46076502e-07 8.56321236e-08 1 -1.4892349e-07 9.87933788e-08 1 -1.36059924e-07 8.72685533e-08 1 -1.2033766e-07 4.52541116e-08 1 -1.41737971e-07 7.83252077e-08 1 -1.25566757e-07 8.58657359e-08 1 -9.79106929e-08 2.74234537e-08 1 -1.73375795e-07 9.31162276e-08 1 -1.02492741e-07 3.71791771e-08 1 -7.77819054e-08 5.59607685e-08 1 -1.4783069e-07 3.83958678e-08 1 -2.08352105e-07 4.27442188e-08 1 -1.54618718e-07 5.97496665e-08 1 -8.71290382e-08 1.05299314e-07 1 -1.36543576e-07 8.4887759e-08 1 -1.21579475e-07 4.25582414e-08 1 -1.36543576e-07 8.4887759e-08 1 -1.61501575e-07 -1.78626465e-08 1 -1.50686049e-07 8.4940261e-08 1 -1.39133135e-07 9.07100173e-08 1 -1.1516093e-07 6.31138306e-08 1 -9.20084844e-08 3.02649426e-08 1 -1.21527762e-07 4.79492215e-08 1 -1.1045919e-07 5.10017912e-08 1 -1.56530248e-07 8.04201434e-08 1 -1.03834715e-07 6.46740901e-08 1 -1.54838276e-07 8.42283114e-08 1 -1.26923723e-07 8.53144471e-08 1 -1.17042497e-07 6.51711858e-08 1 -1.48694994e-07 5.26089252e-08 1 -1.44853672e-07 8.25794402e-08 1 -1.44829102e-07 5.80115653e-08 1 -1.45302195e-07 3.9002046e-08 1 -1.15948744e-07 7.27207379e-08 1 -1.2767066e-07 3.60889771e-08 1 -1.34164623e-07 8.00729651e-08 1 -1.53150282e-07 8.067218e-08 1 -1.37636022e-07 6.76041765e-08 1 -1.2427995e-07 7.54617488e-08 1 -1.81689288e-07 8.52218278e-08 1 -2.22453068e-07 8.53331059e-08 1 -1.18302466e-07 3.59263481e-08 1 -1.22259038e-07 6.24054408e-08 1 -8.86290934e-08 5.82283519e-08 1 -1.2482144e-07 1.04702163e-07 1 -1.77403948e-07 8.69404175e-08 1 -7.17044628e-08 1.63222792e-07 1 -1.09573079e-07 1.51776603e-07 1 -1.09281032e-07 1.23014622e-07 1 -1.09573079e-07 1.51776603e-07 1 -1.58105152e-07 9.1608797e-08 1 -1.49926834e-07 2.3532408e-08 1 -8.96437626e-08 4.78348454e-08 1 -6.50464855e-08 -6.53926691e-09 1 -1.35218116e-07 7.13445374e-08 1 -1.46810677e-07 5.08812548e-08 1 -1.12374892e-07 6.10016855e-08 1 -9.03319446e-08 6.45844267e-08 1 -1.11418416e-07 8.61384919e-08 1 -7.56085043e-08 9.58921333e-08 1 -1.05623393e-07 1.01709986e-07 1 -1.22158923e-07 5.17733483e-08 1 -1.35034213e-07 4.55972042e-08 1 -1.75682203e-07 1.3931583e-08 1 -1.48633788e-07 -2.41550566e-08 1 -1.57205562e-07 -4.87480776e-08 1 -1.13695904e-07 3.56841952e-08 1 -1.35522399e-07 1.77698638e-08 1 -1.73176289e-07 1.24156141e-07 1 -1.76193723e-07 1.15619816e-07 1 -1.26403961e-07 7.52733911e-08 1 -1.02692141e-07 3.61965817e-08 1 -2.42887012e-07 1.11270495e-07 1</float_array>
        <technique_common><accessor source="#vfx_kurp_1200-mesh-normals-array" count="331" stride="3"><param name="X" type="float"/><param name="Y" type="float"/><param name="Z" type="float"/></accessor></technique_common>
      </source>
      <source id="vfx_kurp_1200-mesh-uv0">
        <float_array id="vfx_kurp_1200-mesh-uv0-array" count="662">1.34375 1 0.5 1 1.25 1 1.4375 1 1.53125 1 1.625 1 1.71875 1 1.8125 1 1.90625 1 -0.99999994 1 -1.09375 1 -0.906249881 1 -0.812499881 1 -0.718749881 1 -0.624999881 1 -0.531249881 1 -0.437499911 1 -0.343749911 1 -0.249999911 1 -0.156249911 1 -0.0624999106 1 0.0312500894 1 0.125000089 1 0.218750089 1 0.312500089 1 0.406250089 1 0.5 1 0.59375 1 0.6875 1 0.78125 1 0.875 1 0.96875 1 1.0625 1 1.15625 1 1.34375 0.888888896 1.25 0.888888896 1.4375 0.888888896 1.53125 0.888888896 1.625 0.888888896 1.71875 0.888888896 1.8125 0.888888896 1.90625 0.888888896 -0.99999994 0.888888896 -1.09375 0.888888896 -0.906249881 0.888888896 -0.812499881 0.888888896 -0.71874994 0.888888896 -0.624999881 0.888888896 -0.531249881 0.888888896 -0.437499911 0.888888896 -0.343749911 0.888888896 -0.249999911 0.888888896 -0.156249911 0.888888896 -0.0624999106 0.888888896 0.0312500894 0.888888896 0.125000089 0.888888896 0.218750089 0.888888896 0.312500089 0.888888896 0.406250089 0.888888896 0.5 0.888888896 0.59375 0.888888896 0.6875 0.888888896 0.78125 0.888888896 0.875 0.888888896 0.96875 0.888888896 1.0625 0.888888896 1.15625 0.888888896 1.34375 0.777777791 1.25 0.777777791 1.4375 0.777777791 1.53125 0.777777791 1.625 0.777777791 1.71875 0.777777791 1.8125 0.777777791 1.90625 0.777777791 -0.99999994 0.777777791 -1.09375 0.777777731 -0.90624994 0.777777791 -0.812499881 0.777777791 -0.718749881 0.777777791 -0.624999881 0.777777791 -0.531249881 0.777777791 -0.43749994 0.777777791 -0.343749911 0.777777791 -0.249999911 0.777777791 -0.156249911 0.777777791 -0.0624999106 0.777777791 0.0312500894 0.777777791 0.125000089 0.777777791 0.218750089 0.777777791 0.312500089 0.777777791 0.406250089 0.777777791 0.5 0.777777791 0.59375 0.777777791 0.6875 0.777777791 0.78125 0.777777791 0.875 0.777777791 0.96875 0.777777791 1.0625 0.777777791 1.15625 0.777777791 1.34375 0.666666627 1.25 0.666666627 1.4375 0.666666627 1.53125 0.666666627 1.625 0.666666627 1.71875 0.666666627 1.8125 0.666666627 1.90625 0.666666627 -0.99999994 0.666666627 -1.09375 0.666666627 -0.906249881 0.666666627 -0.812499881 0.666666627 -0.718749881 0.666666627 -0.62499994 0.666666627 -0.53124994 0.666666627 -0.437499911 0.666666627 -0.34374994 0.666666627 -0.249999911 0.666666627 -0.156249911 0.666666627 -0.0624999106 0.666666627 0.0312500894 0.666666627 0.125000089 0.666666627 0.218750089 0.666666627 0.312500089 0.666666627 0.406250089 0.666666627 0.5 0.666666627 0.59375 0.666666627 0.6875 0.666666627 0.78125 0.666666627 0.875 0.666666627 0.96875 0.666666627 1.0625 0.666666627 1.15625 0.666666627 1.34375 0.555555522 1.25 0.555555522 1.4375 0.555555522 1.53125 0.555555522 1.625 0.555555522 1.71875 0.555555522 1.8125 0.555555522 1.90625 0.555555522 -0.99999994 0.555555522 -1.09375 0.555555463 -0.906249881 0.555555522 -0.812499881 0.555555522 -0.71874994 0.555555522 -0.624999881 0.555555522 -0.531249881 0.555555522 -0.437499911 0.555555522 -0.343749911 0.555555522 -0.249999911 0.555555522 -0.156249911 0.555555522 -0.0624999106 0.555555522 0.0312500894 0.555555522 0.125000089 0.555555522 0.218750089 0.555555522 0.312500089 0.555555522 0.406250089 0.555555522 0.5 0.555555522 0.59375 0.555555522 0.6875 0.555555522 0.78125 0.555555522 0.875 0.555555522 0.96875 0.555555522 1.0625 0.555555522 1.15625 0.555555522 1.34375 0.444444418 1.25 0.444444418 1.4375 0.444444418 1.53125 0.444444418 1.625 0.444444418 1.71875 0.444444418 1.8125 0.444444418 1.90625 0.444444418 -0.99999994 0.444444418 -1.09375 0.444444418 -0.90624994 0.444444418 -0.81249994 0.444444418 -0.718749881 0.444444418 -0.624999881 0.444444418 -0.531249881 0.444444418 -0.437499911 0.444444418 -0.343749911 0.444444418 -0.249999911 0.444444418 -0.156249911 0.444444418 -0.0624999106 0.444444418 0.0312500894 0.444444418 0.125000089 0.444444418 0.218750089 0.444444418 0.312500089 0.444444418 0.406250089 0.444444418 0.5 0.444444418 0.59375 0.444444418 0.6875 0.444444418 0.78125 0.444444418 0.875 0.444444418 0.96875 0.444444418 1.0625 0.444444418 1.15625 0.444444418 1.34375 0.333333313 1.25 0.333333313 1.4375 0.333333313 1.53125 0.333333313 1.625 0.333333313 1.71875 0.333333313 1.8125 0.333333313 1.90625 0.333333313 -0.99999994 0.333333313 -1.09375 0.333333313 -0.906249881 0.333333313 -0.812499881 0.333333313 -0.71874994 0.333333313 -0.624999881 0.333333313 -0.531249881 0.333333313 -0.437499911 0.333333313 -0.343749911 0.333333313 -0.249999911 0.333333313 -0.156249911 0.333333313 -0.0624999106 0.333333313 0.0312500894 0.333333313 0.125000089 0.333333313 0.218750089 0.333333313 0.312500089 0.333333313 0.406250089 0.333333313 0.5 0.333333313 0.59375 0.333333313 0.6875 0.333333313 0.78125 0.333333313 0.875 0.333333313 0.96875 0.333333313 1.0625 0.333333313 1.15625 0.333333313 1.34375 0.222222209 1.25 0.222222209 1.4375 0.222222209 1.53125 0.222222209 1.625 0.222222209 1.71875 0.222222209 1.8125 0.222222209 1.90625 0.222222209 -0.99999994 0.222222209 -1.09375 0.222222149 -0.906249881 0.222222209 -0.812499881 0.222222209 -0.71874994 0.222222209 -0.624999881 0.222222209 -0.531249881 0.222222209 -0.437499911 0.222222209 -0.343749911 0.222222209 -0.249999911 0.222222209 -0.156249911 0.222222209 -0.0624999106 0.222222209 0.0312500894 0.222222209 0.125000089 0.222222209 0.218750089 0.222222209 0.312500089 0.222222209 0.406250089 0.222222209 0.5 0.222222209 0.59375 0.222222209 0.6875 0.222222209 0.78125 0.222222209 0.875 0.222222209 0.96875 0.222222209 1.0625 0.222222209 1.15625 0.222222209 1.34375 0.111111045 1.25 0.111111045 1.4375 0.111111045 1.53125 0.111111045 1.625 0.111111045 1.71875 0.111111045 1.8125 0.111111045 1.90625 0.111111045 -0.99999994 0.111111045 -1.09375 0.111110985 -0.90624994 0.111111045 -0.812499881 0.111111045 -0.71874994 0.111111045 -0.624999881 0.111111045 -0.531249881 0.111111045 -0.437499911 0.111111045 -0.343749911 0.111111045 -0.249999911 0.111111045 -0.156249911 0.111111045 -0.0624999106 0.111111045 0.0312500894 0.111111045 0.125000089 0.111111045 0.218750089 0.111111045 0.312500089 0.111111045 0.406250089 0.111111045 0.5 0.111111045 0.59375 0.111111045 0.6875 0.111111045 0.78125 0.111111045 0.875 0.111111045 0.96875 0.111111045 1.0625 0.111111045 1.15625 0.111111045 1.34375 0 1.25 0 1.4375 0 1.53125 0 1.625 0 1.71875 0 1.8125 0 1.90625 0 -0.99999994 0 -1.09375 0 -0.906249881 0 -0.81249994 0 -0.718749881 0 -0.62499994 0 -0.531249881 0 -0.43749994 0 -0.343749911 0 -0.249999911 0 -0.156249911 0 -0.0624999106 0 0.0312500894 0 0.125000089 0 0.218750089 0 0.312500089 0 0.406250089 0 0.5 0 0.59375 0 0.6875 0 0.78125 0 0.875 0 0.96875 0 1.0625 0 1.15625 0</float_array>
        <technique_common><accessor source="#vfx_kurp_1200-mesh-uv0-array" count="331" stride="2"><param name="S" type="float"/><param name="T" type="float"/></accessor></technique_common>
      </source>
      <vertices id="vfx_kurp_1200-mesh-vertices"><input semantic="POSITION" source="#vfx_kurp_1200-mesh-positions"/></vertices>
      <triangles material="PreviewMaterial" count="608">
        <input semantic="VERTEX" source="#vfx_kurp_1200-mesh-vertices" offset="0"/>
        <input semantic="NORMAL" source="#vfx_kurp_1200-mesh-normals" offset="1"/>
        <input semantic="TEXCOORD" source="#vfx_kurp_1200-mesh-uv0" offset="2" set="0"/>
        <p>0 0 0 1 1 1 2 2 2 3 3 3 1 1 1 0 0 0 4 4 4 1 1 1 3 3 3 5 5 5 1 1 1 4 4 4 6 6 6 1 1 1 5 5 5 7 7 7 1 1 1 6 6 6 8 8 8 1 1 1 7 7 7 9 9 9 1 1 1 10 10 10 11 11 11 1 1 1 9 9 9 12 12 12 1 1 1 11 11 11 13 13 13 1 1 1 12 12 12 14 14 14 1 1 1 13 13 13 15 15 15 1 1 1 14 14 14 16 16 16 1 1 1 15 15 15 17 17 17 1 1 1 16 16 16 18 18 18 1 1 1 17 17 17 19 19 19 1 1 1 18 18 18 20 20 20 1 1 1 19 19 19 21 21 21 1 1 1 20 20 20 22 22 22 1 1 1 21 21 21 23 23 23 1 1 1 22 22 22 24 24 24 1 1 1 23 23 23 25 25 25 1 1 1 24 24 24 26 26 26 1 1 1 25 25 25 27 27 27 1 1 1 26 26 26 28 28 28 1 1 1 27 27 27 29 29 29 1 1 1 28 28 28 30 30 30 1 1 1 29 29 29 31 31 31 1 1 1 30 30 30 32 32 32 1 1 1 31 31 31 33 33 33 1 1 1 32 32 32 2 2 2 1 1 1 33 33 33 34 34 34 2 2 2 35 35 35 0 0 0 2 2 2 34 34 34 36 36 36 0 0 0 34 34 34 3 3 3 0 0 0 36 36 36 37 37 37 3 3 3 36 36 36 4 4 4 3 3 3 37 37 37 38 38 38 4 4 4 37 37 37 5 5 5 4 4 4 38 38 38 39 39 39 5 5 5 38 38 38 6 6 6 5 5 5 39 39 39 40 40 40 6 6 6 39 39 39 7 7 7 6 6 6 40 40 40 41 41 41 7 7 7 40 40 40 8 8 8 7 7 7 41 41 41 42 42 42 10 10 10 43 43 43 9 9 9 10 10 10 42 42 42 44 44 44 9 9 9 42 42 42 11 11 11 9 9 9 44 44 44 45 45 45 11 11 11 44 44 44 12 12 12 11 11 11 45 45 45 46 46 46 12 12 12 45 45 45 13 13 13 12 12 12 46 46 46 47 47 47 13 13 13 46 46 46 14 14 14 13 13 13 47 47 47 48 48 48 14 14 14 47 47 47 15 15 15 14 14 14 48 48 48 49 49 49 15 15 15 48 48 48 16 16 16 15 15 15 49 49 49 50 50 50 16 16 16 49 49 49 17 17 17 16 16 16 50 50 50 51 51 51 17 17 17 50 50 50 18 18 18 17 17 17 51 51 51 52 52 52 18 18 18 51 51 51 19 19 19 18 18 18 52 52 52 53 53 53 19 19 19 52 52 52 20 20 20 19 19 19 53 53 53 54 54 54 20 20 20 53 53 53 21 21 21 20 20 20 54 54 54 55 55 55 21 21 21 54 54 54 22 22 22 21 21 21 55 55 55 56 56 56 22 22 22 55 55 55 23 23 23 22 22 22 56 56 56 57 57 57 23 23 23 56 56 56 24 24 24 23 23 23 57 57 57 58 58 58 24 24 24 57 57 57 25 25 25 24 24 24 58 58 58 59 59 59 25 25 25 58 58 58 26 26 26 25 25 25 59 59 59 60 60 60 26 26 26 59 59 59 27 27 27 26 26 26 60 60 60 61 61 61 27 27 27 60 60 60 28 28 28 27 27 27 61 61 61 62 62 62 28 28 28 61 61 61 29 29 29 28 28 28 62 62 62 63 63 63 29 29 29 62 62 62 30 30 30 29 29 29 63 63 63 64 64 64 30 30 30 63 63 63 31 31 31 30 30 30 64 64 64 65 65 65 31 31 31 64 64 64 32 32 32 31 31 31 65 65 65 66 66 66 32 32 32 65 65 65 33 33 33 32 32 32 66 66 66 35 35 35 33 33 33 66 66 66 2 2 2 33 33 33 35 35 35 67 67 67 35 35 35 68 68 68 34 34 34 35 35 35 67 67 67 69 69 69 34 34 34 67 67 67 36 36 36 34 34 34 69 69 69 70 70 70 36 36 36 69 69 69 37 37 37 36 36 36 70 70 70 71 71 71 37 37 37 70 70 70 38 38 38 37 37 37 71 71 71 72 72 72 38 38 38 71 71 71 39 39 39 38 38 38 72 72 72 73 73 73 39 39 39 72 72 72 40 40 40 39 39 39 73 73 73 74 74 74 40 40 40 73 73 73 41 41 41 40 40 40 74 74 74 75 75 75 43 43 43 76 76 76 42 42 42 43 43 43 75 75 75 77 77 77 42 42 42 75 75 75 44 44 44 42 42 42 77 77 77 78 78 78 44 44 44 77 77 77 45 45 45 44 44 44 78 78 78 79 79 79 45 45 45 78 78 78 46 46 46 45 45 45 79 79 79 80 80 80 46 46 46 79 79 79 47 47 47 46 46 46 80 80 80 81 81 81 47 47 47 80 80 80 48 48 48 47 47 47 81 81 81 82 82 82 48 48 48 81 81 81 49 49 49 48 48 48 82 82 82 83 83 83 49 49 49 82 82 82 50 50 50 49 49 49 83 83 83 84 84 84 50 50 50 83 83 83 51 51 51 50 50 50 84 84 84 85 85 85 51 51 51 84 84 84 52 52 52 51 51 51 85 85 85 86 86 86 52 52 52 85 85 85 53 53 53 52 52 52 86 86 86 87 87 87 53 53 53 86 86 86 54 54 54 53 53 53 87 87 87 88 88 88 54 54 54 87 87 87 55 55 55 54 54 54 88 88 88 89 89 89 55 55 55 88 88 88 56 56 56 55 55 55 89 89 89 90 90 90 56 56 56 89 89 89 57 57 57 56 56 56 90 90 90 91 91 91 57 57 57 90 90 90 58 58 58 57 57 57 91 91 91 92 92 92 58 58 58 91 91 91 59 59 59 58 58 58 92 92 92 93 93 93 59 59 59 92 92 92 60 60 60 59 59 59 93 93 93 94 94 94 60 60 60 93 93 93 61 61 61 60 60 60 94 94 94 95 95 95 61 61 61 94 94 94 62 62 62 61 61 61 95 95 95 96 96 96 62 62 62 95 95 95 63 63 63 62 62 62 96 96 96 97 97 97 63 63 63 96 96 96 64 64 64 63 63 63 97 97 97 98 98 98 64 64 64 97 97 97 65 65 65 64 64 64 98 98 98 99 99 99 65 65 65 98 98 98 66 66 66 65 65 65 99 99 99 68 68 68 66 66 66 99 99 99 35 35 35 66 66 66 68 68 68 100 100 100 68 68 68 101 101 101 67 67 67 68 68 68 100 100 100 102 102 102 67 67 67 100 100 100 69 69 69 67 67 67 102 102 102 103 103 103 69 69 69 102 102 102 70 70 70 69 69 69 103 103 103 104 104 104 70 70 70 103 103 103 71 71 71 70 70 70 104 104 104 105 105 105 71 71 71 104 104 104 72 72 72 71 71 71 105 105 105 106 106 106 72 72 72 105 105 105 73 73 73 72 72 72 106 106 106 107 107 107 73 73 73 106 106 106 74 74 74 73 73 73 107 107 107 108 108 108 76 76 76 109 109 109 75 75 75 76 76 76 108 108 108 110 110 110 75 75 75 108 108 108 77 77 77 75 75 75 110 110 110 111 111 111 77 77 77 110 110 110 78 78 78 77 77 77 111 111 111 112 112 112 78 78 78 111 111 111 79 79 79 78 78 78 112 112 112 113 113 113 79 79 79 112 112 112 80 80 80 79 79 79 113 113 113 114 114 114 80 80 80 113 113 113 81 81 81 80 80 80 114 114 114 115 115 115 81 81 81 114 114 114 82 82 82 81 81 81 115 115 115 116 116 116 82 82 82 115 115 115 83 83 83 82 82 82 116 116 116 117 117 117 83 83 83 116 116 116 84 84 84 83 83 83 117 117 117 118 118 118 84 84 84 117 117 117 85 85 85 84 84 84 118 118 118 119 119 119 85 85 85 118 118 118 86 86 86 85 85 85 119 119 119 120 120 120 86 86 86 119 119 119 87 87 87 86 86 86 120 120 120 121 121 121 87 87 87 120 120 120 88 88 88 87 87 87 121 121 121 122 122 122 88 88 88 121 121 121 89 89 89 88 88 88 122 122 122 123 123 123 89 89 89 122 122 122 90 90 90 89 89 89 123 123 123 124 124 124 90 90 90 123 123 123 91 91 91 90 90 90 124 124 124 125 125 125 91 91 91 124 124 124 92 92 92 91 91 91 125 125 125 126 126 126 92 92 92 125 125 125 93 93 93 92 92 92 126 126 126 127 127 127 93 93 93 126 126 126 94 94 94 93 93 93 127 127 127 128 128 128 94 94 94 127 127 127 95 95 95 94 94 94 128 128 128 129 129 129 95 95 95 128 128 128 96 96 96 95 95 95 129 129 129 130 130 130 96 96 96 129 129 129 97 97 97 96 96 96 130 130 130 131 131 131 97 97 97 130 130 130 98 98 98 97 97 97 131 131 131 132 132 132 98 98 98 131 131 131 99 99 99 98 98 98 132 132 132 101 101 101 99 99 99 132 132 132 68 68 68 99 99 99 101 101 101 133 133 133 101 101 101 134 134 134 100 100 100 101 101 101 133 133 133 135 135 135 100 100 100 133 133 133 102 102 102 100 100 100 135 135 135 136 136 136 102 102 102 135 135 135 103 103 103 102 102 102 136 136 136 137 137 137 103 103 103 136 136 136 104 104 104 103 103 103 137 137 137 138 138 138 104 104 104 137 137 137 105 105 105 104 104 104 138 138 138 139 139 139 105 105 105 138 138 138 106 106 106 105 105 105 139 139 139 140 140 140 106 106 106 139 139 139 107 107 107 106 106 106 140 140 140 141 141 141 109 109 109 142 142 142 108 108 108 109 109 109 141 141 141 143 143 143 108 108 108 141 141 141 110 110 110 108 108 108 143 143 143 144 144 144 110 110 110 143 143 143 111 111 111 110 110 110 144 144 144 145 145 145 111 111 111 144 144 144 112 112 112 111 111 111 145 145 145 146 146 146 112 112 112 145 145 145 113 113 113 112 112 112 146 146 146 147 147 147 113 113 113 146 146 146 114 114 114 113 113 113 147 147 147 148 148 148 114 114 114 147 147 147 115 115 115 114 114 114 148 148 148 149 149 149 115 115 115 148 148 148 116 116 116 115 115 115 149 149 149 150 150 150 116 116 116 149 149 149 117 117 117 116 116 116 150 150 150 151 151 151 117 117 117 150 150 150 118 118 118 117 117 117 151 151 151 152 152 152 118 118 118 151 151 151 119 119 119 118 118 118 152 152 152 153 153 153 119 119 119 152 152 152 120 120 120 119 119 119 153 153 153 154 154 154 120 120 120 153 153 153 121 121 121 120 120 120 154 154 154 155 155 155 121 121 121 154 154 154 122 122 122 121 121 121 155 155 155 156 156 156 122 122 122 155 155 155 123 123 123 122 122 122 156 156 156 157 157 157 123 123 123 156 156 156 124 124 124 123 123 123 157 157 157 158 158 158 124 124 124 157 157 157 125 125 125 124 124 124 158 158 158 159 159 159 125 125 125 158 158 158 126 126 126 125 125 125 159 159 159 160 160 160 126 126 126 159 159 159 127 127 127 126 126 126 160 160 160 161 161 161 127 127 127 160 160 160 128 128 128 127 127 127 161 161 161 162 162 162 128 128 128 161 161 161 129 129 129 128 128 128 162 162 162 163 163 163 129 129 129 162 162 162 130 130 130 129 129 129 163 163 163 164 164 164 130 130 130 163 163 163 131 131 131 130 130 130 164 164 164 165 165 165 131 131 131 164 164 164 132 132 132 131 131 131 165 165 165 134 134 134 132 132 132 165 165 165 101 101 101 132 132 132 134 134 134 166 166 166 134 134 134 167 167 167 133 133 133 134 134 134 166 166 166 168 168 168 133 133 133 166 166 166 135 135 135 133 133 133 168 168 168 169 169 169 135 135 135 168 168 168 136 136 136 135 135 135 169 169 169 170 170 170 136 136 136 169 169 169 137 137 137 136 136 136 170 170 170 171 171 171 137 137 137 170 170 170 138 138 138 137 137 137 171 171 171 172 172 172 138 138 138 171 171 171 139 139 139 138 138 138 172 172 172 173 173 173 139 139 139 172 172 172 140 140 140 139 139 139 173 173 173 174 174 174 142 142 142 175 175 175 141 141 141 142 142 142 174 174 174 176 176 176 141 141 141 174 174 174 143 143 143 141 141 141 176 176 176 177 177 177 143 143 143 176 176 176 144 144 144 143 143 143 177 177 177 178 178 178 144 144 144 177 177 177 145 145 145 144 144 144 178 178 178 179 179 179 145 145 145 178 178 178 146 146 146 145 145 145 179 179 179 180 180 180 146 146 146 179 179 179 147 147 147 146 146 146 180 180 180 181 181 181 147 147 147 180 180 180 148 148 148 147 147 147 181 181 181 182 182 182 148 148 148 181 181 181 149 149 149 148 148 148 182 182 182 183 183 183 149 149 149 182 182 182 150 150 150 149 149 149 183 183 183 184 184 184 150 150 150 183 183 183 151 151 151 150 150 150 184 184 184 185 185 185 151 151 151 184 184 184 152 152 152 151 151 151 185 185 185 186 186 186 152 152 152 185 185 185 153 153 153 152 152 152 186 186 186 187 187 187 153 153 153 186 186 186 154 154 154 153 153 153 187 187 187 188 188 188 154 154 154 187 187 187 155 155 155 154 154 154 188 188 188 189 189 189 155 155 155 188 188 188 156 156 156 155 155 155 189 189 189 190 190 190 156 156 156 189 189 189 157 157 157 156 156 156 190 190 190 191 191 191 157 157 157 190 190 190 158 158 158 157 157 157 191 191 191 192 192 192 158 158 158 191 191 191 159 159 159 158 158 158 192 192 192 193 193 193 159 159 159 192 192 192 160 160 160 159 159 159 193 193 193 194 194 194 160 160 160 193 193 193 161 161 161 160 160 160 194 194 194 195 195 195 161 161 161 194 194 194 162 162 162 161 161 161 195 195 195 196 196 196 162 162 162 195 195 195 163 163 163 162 162 162 196 196 196 197 197 197 163 163 163 196 196 196 164 164 164 163 163 163 197 197 197 198 198 198 164 164 164 197 197 197 165 165 165 164 164 164 198 198 198 167 167 167 165 165 165 198 198 198 134 134 134 165 165 165 167 167 167 199 199 199 167 167 167 200 200 200 166 166 166 167 167 167 199 199 199 201 201 201 166 166 166 199 199 199 168 168 168 166 166 166 201 201 201 202 202 202 168 168 168 201 201 201 169 169 169 168 168 168 202 202 202 203 203 203 169 169 169 202 202 202 170 170 170 169 169 169 203 203 203 204 204 204 170 170 170 203 203 203 171 171 171 170 170 170 204 204 204 205 205 205 171 171 171 204 204 204 172 172 172 171 171 171 205 205 205 206 206 206 172 172 172 205 205 205 173 173 173 172 172 172 206 206 206 207 207 207 175 175 175 208 208 208 174 174 174 175 175 175 207 207 207 209 209 209 174 174 174 207 207 207 176 176 176 174 174 174 209 209 209 210 210 210 176 176 176 209 209 209 177 177 177 176 176 176 210 210 210 211 211 211 177 177 177 210 210 210 178 178 178 177 177 177 211 211 211 212 212 212 178 178 178 211 211 211 179 179 179 178 178 178 212 212 212 213 213 213 179 179 179 212 212 212 180 180 180 179 179 179 213 213 213 214 214 214 180 180 180 213 213 213 181 181 181 180 180 180 214 214 214 215 215 215 181 181 181 214 214 214 182 182 182 181 181 181 215 215 215 216 216 216 182 182 182 215 215 215 183 183 183 182 182 182 216 216 216 217 217 217 183 183 183 216 216 216 184 184 184 183 183 183 217 217 217 218 218 218 184 184 184 217 217 217 185 185 185 184 184 184 218 218 218 219 219 219 185 185 185 218 218 218 186 186 186 185 185 185 219 219 219 220 220 220 186 186 186 219 219 219 187 187 187 186 186 186 220 220 220 221 221 221 187 187 187 220 220 220 188 188 188 187 187 187 221 221 221 222 222 222 188 188 188 221 221 221 189 189 189 188 188 188 222 222 222 223 223 223 189 189 189 222 222 222 190 190 190 189 189 189 223 223 223 224 224 224 190 190 190 223 223 223 191 191 191 190 190 190 224 224 224 225 225 225 191 191 191 224 224 224 192 192 192 191 191 191 225 225 225 226 226 226 192 192 192 225 225 225 193 193 193 192 192 192 226 226 226 227 227 227 193 193 193 226 226 226 194 194 194 193 193 193 227 227 227 228 228 228 194 194 194 227 227 227 195 195 195 194 194 194 228 228 228 229 229 229 195 195 195 228 228 228 196 196 196 195 195 195 229 229 229 230 230 230 196 196 196 229 229 229 197 197 197 196 196 196 230 230 230 231 231 231 197 197 197 230 230 230 198 198 198 197 197 197 231 231 231 200 200 200 198 198 198 231 231 231 167 167 167 198 198 198 200 200 200 232 232 232 200 200 200 233 233 233 199 199 199 200 200 200 232 232 232 234 234 234 199 199 199 232 232 232 201 201 201 199 199 199 234 234 234 235 235 235 201 201 201 234 234 234 202 202 202 201 201 201 235 235 235 236 236 236 202 202 202 235 235 235 203 203 203 202 202 202 236 236 236 237 237 237 203 203 203 236 236 236 204 204 204 203 203 203 237 237 237 238 238 238 204 204 204 237 237 237 205 205 205 204 204 204 238 238 238 239 239 239 205 205 205 238 238 238 206 206 206 205 205 205 239 239 239 240 240 240 208 208 208 241 241 241 207 207 207 208 208 208 240 240 240 242 242 242 207 207 207 240 240 240 209 209 209 207 207 207 242 242 242 243 243 243 209 209 209 242 242 242 210 210 210 209 209 209 243 243 243 244 244 244 210 210 210 243 243 243 211 211 211 210 210 210 244 244 244 245 245 245 211 211 211 244 244 244 212 212 212 211 211 211 245 245 245 246 246 246 212 212 212 245 245 245 213 213 213 212 212 212 246 246 246 247 247 247 213 213 213 246 246 246 214 214 214 213 213 213 247 247 247 248 248 248 214 214 214 247 247 247 215 215 215 214 214 214 248 248 248 249 249 249 215 215 215 248 248 248 216 216 216 215 215 215 249 249 249 250 250 250 216 216 216 249 249 249 217 217 217 216 216 216 250 250 250 251 251 251 217 217 217 250 250 250 218 218 218 217 217 217 251 251 251 252 252 252 218 218 218 251 251 251 219 219 219 218 218 218 252 252 252 253 253 253 219 219 219 252 252 252 220 220 220 219 219 219 253 253 253 254 254 254 220 220 220 253 253 253 221 221 221 220 220 220 254 254 254 255 255 255 221 221 221 254 254 254 222 222 222 221 221 221 255 255 255 256 256 256 222 222 222 255 255 255 223 223 223 222 222 222 256 256 256 257 257 257 223 223 223 256 256 256 224 224 224 223 223 223 257 257 257 258 258 258 224 224 224 257 257 257 225 225 225 224 224 224 258 258 258 259 259 259 225 225 225 258 258 258 226 226 226 225 225 225 259 259 259 260 260 260 226 226 226 259 259 259 227 227 227 226 226 226 260 260 260 261 261 261 227 227 227 260 260 260 228 228 228 227 227 227 261 261 261 262 262 262 228 228 228 261 261 261 229 229 229 228 228 228 262 262 262 263 263 263 229 229 229 262 262 262 230 230 230 229 229 229 263 263 263 264 264 264 230 230 230 263 263 263 231 231 231 230 230 230 264 264 264 233 233 233 231 231 231 264 264 264 200 200 200 231 231 231 233 233 233 265 265 265 233 233 233 266 266 266 232 232 232 233 233 233 265 265 265 267 267 267 232 232 232 265 265 265 234 234 234 232 232 232 267 267 267 268 268 268 234 234 234 267 267 267 235 235 235 234 234 234 268 268 268 269 269 269 235 235 235 268 268 268 236 236 236 235 235 235 269 269 269 270 270 270 236 236 236 269 269 269 237 237 237 236 236 236 270 270 270 271 271 271 237 237 237 270 270 270 238 238 238 237 237 237 271 271 271 272 272 272 238 238 238 271 271 271 239 239 239 238 238 238 272 272 272 273 273 273 241 241 241 274 274 274 240 240 240 241 241 241 273 273 273 275 275 275 240 240 240 273 273 273 242 242 242 240 240 240 275 275 275 276 276 276 242 242 242 275 275 275 243 243 243 242 242 242 276 276 276 277 277 277 243 243 243 276 276 276 244 244 244 243 243 243 277 277 277 278 278 278 244 244 244 277 277 277 245 245 245 244 244 244 278 278 278 279 279 279 245 245 245 278 278 278 246 246 246 245 245 245 279 279 279 280 280 280 246 246 246 279 279 279 247 247 247 246 246 246 280 280 280 281 281 281 247 247 247 280 280 280 248 248 248 247 247 247 281 281 281 282 282 282 248 248 248 281 281 281 249 249 249 248 248 248 282 282 282 283 283 283 249 249 249 282 282 282 250 250 250 249 249 249 283 283 283 284 284 284 250 250 250 283 283 283 251 251 251 250 250 250 284 284 284 285 285 285 251 251 251 284 284 284 252 252 252 251 251 251 285 285 285 286 286 286 252 252 252 285 285 285 253 253 253 252 252 252 286 286 286 287 287 287 253 253 253 286 286 286 254 254 254 253 253 253 287 287 287 288 288 288 254 254 254 287 287 287 255 255 255 254 254 254 288 288 288 289 289 289 255 255 255 288 288 288 256 256 256 255 255 255 289 289 289 290 290 290 256 256 256 289 289 289 257 257 257 256 256 256 290 290 290 291 291 291 257 257 257 290 290 290 258 258 258 257 257 257 291 291 291 292 292 292 258 258 258 291 291 291 259 259 259 258 258 258 292 292 292 293 293 293 259 259 259 292 292 292 260 260 260 259 259 259 293 293 293 294 294 294 260 260 260 293 293 293 261 261 261 260 260 260 294 294 294 295 295 295 261 261 261 294 294 294 262 262 262 261 261 261 295 295 295 296 296 296 262 262 262 295 295 295 263 263 263 262 262 262 296 296 296 297 297 297 263 263 263 296 296 296 264 264 264 263 263 263 297 297 297 266 266 266 264 264 264 297 297 297 233 233 233 264 264 264 266 266 266 298 298 298 266 266 266 299 299 299 265 265 265 266 266 266 298 298 298 300 300 300 265 265 265 298 298 298 267 267 267 265 265 265 300 300 300 301 301 301 267 267 267 300 300 300 268 268 268 267 267 267 301 301 301 302 302 302 268 268 268 301 301 301 269 269 269 268 268 268 302 302 302 303 303 303 269 269 269 302 302 302 270 270 270 269 269 269 303 303 303 304 304 304 270 270 270 303 303 303 271 271 271 270 270 270 304 304 304 305 305 305 271 271 271 304 304 304 272 272 272 271 271 271 305 305 305 306 306 306 274 274 274 307 307 307 273 273 273 274 274 274 306 306 306 308 308 308 273 273 273 306 306 306 275 275 275 273 273 273 308 308 308 309 309 309 275 275 275 308 308 308 276 276 276 275 275 275 309 309 309 310 310 310 276 276 276 309 309 309 277 277 277 276 276 276 310 310 310 311 311 311 277 277 277 310 310 310 278 278 278 277 277 277 311 311 311 312 312 312 278 278 278 311 311 311 279 279 279 278 278 278 312 312 312 313 313 313 279 279 279 312 312 312 280 280 280 279 279 279 313 313 313 314 314 314 280 280 280 313 313 313 281 281 281 280 280 280 314 314 314 315 315 315 281 281 281 314 314 314 282 282 282 281 281 281 315 315 315 316 316 316 282 282 282 315 315 315 283 283 283 282 282 282 316 316 316 317 317 317 283 283 283 316 316 316 284 284 284 283 283 283 317 317 317 318 318 318 284 284 284 317 317 317 285 285 285 284 284 284 318 318 318 319 319 319 285 285 285 318 318 318 286 286 286 285 285 285 319 319 319 320 320 320 286 286 286 319 319 319 287 287 287 286 286 286 320 320 320 321 321 321 287 287 287 320 320 320 288 288 288 287 287 287 321 321 321 322 322 322 288 288 288 321 321 321 289 289 289 288 288 288 322 322 322 323 323 323 289 289 289 322 322 322 290 290 290 289 289 289 323 323 323 324 324 324 290 290 290 323 323 323 291 291 291 290 290 290 324 324 324 325 325 325 291 291 291 324 324 324 292 292 292 291 291 291 325 325 325 326 326 326 292 292 292 325 325 325 293 293 293 292 292 292 326 326 326 327 327 327 293 293 293 326 326 326 294 294 294 293 293 293 327 327 327 328 328 328 294 294 294 327 327 327 295 295 295 294 294 294 328 328 328 329 329 329 295 295 295 328 328 328 296 296 296 295 295 295 329 329 329 330 330 330 296 296 296 329 329 329 297 297 297 296 296 296 330 330 330 299 299 299 297 297 297 330 330 330 266 266 266 297 297 297 299 299 299</p>
      </triangles>
    </mesh></geometry>
  </library_geometries>
  <library_visual_scenes>
    <visual_scene id="Scene" name="Scene">
      <node id="vfx_kurp_1200" name="vfx_kurp_1200" type="NODE">
        <instance_geometry url="#vfx_kurp_1200-mesh"><bind_material><technique_common><instance_material symbol="PreviewMaterial" target="#PreviewMaterial"><bind_vertex_input semantic="UVSET0" input_semantic="TEXCOORD" input_set="0"/></instance_material></technique_common></bind_material></instance_geometry>
      </node>
    </visual_scene>
  </library_visual_scenes>
  <scene><instance_visual_scene url="#Scene"/></scene>
</COLLADA>
