<?xml version="1.0" encoding="utf-8"?>
<COLLADA xmlns="http://www.collada.org/2005/11/COLLADASchema" version="1.4.1">
  <asset>
    <contributor><authoring_tool>Morrobroom Kurpulio VFX preview converter</authoring_tool></contributor>
    <unit name="unit" meter="1"/>
    <up_axis>Z_UP</up_axis>
  </asset>
  <library_images>
    <image id="VFXTexture" name="darkmap_newgen-1.dds">
      <init_from>../../../Textures/Kurp/darkmap_newgen-1.dds</init_from>
    </image>
  </library_images>
  <library_effects>
    <effect id="PreviewEffect">
      <profile_COMMON>
        <newparam sid="VFXTexture-surface">
          <surface type="2D"><init_from>VFXTexture</init_from></surface>
        </newparam>
        <newparam sid="VFXTexture-sampler">
          <sampler2D><source>VFXTexture-surface</source></sampler2D>
        </newparam>
        <technique sid="common"><phong>
          <emission><color>0.08 0.08 0.08 1</color></emission>
          <ambient><color>0.2 0.2 0.2 1</color></ambient>
          <diffuse><texture texture="VFXTexture-sampler" texcoord="UVSET0"/></diffuse>
          <specular><color>0.15 0.15 0.15 1</color></specular>
          <shininess><float>8</float></shininess>
          <transparent opaque="A_ONE"><texture texture="VFXTexture-sampler" texcoord="UVSET0"/></transparent>
          <transparency><float>1</float></transparency>
        </phong></technique>
      </profile_COMMON>
      <extra><technique profile="GOOGLEEARTH"><double_sided>1</double_sided></technique></extra>
    </effect>
  </library_effects>
  <library_materials><material id="PreviewMaterial" name="PreviewMaterial"><instance_effect url="#PreviewEffect"/></material></library_materials>
  <library_geometries>
    <geometry id="vfx_kurp_0326-mesh" name="vfx_kurp_0326"><mesh>
      <source id="vfx_kurp_0326-mesh-positions">
        <float_array id="vfx_kurp_0326-mesh-positions-array" count="576">1.08505416 -1.33575785 4.7898513e-05 1.37138784 -0.438088357 -2.66184043e-06 0.36168471 -0.991874397 4.78898291e-05 0.457129389 0.063636668 -2.67450491e-06 -0.36168462 -0.991874397 4.78898255e-05 -0.45712927 0.063636668 -2.67450491e-06 -1.08505416 -1.33575785 4.7898513e-05 -1.37138808 -0.438088447 -2.66184043e-06 1.68786192 0.473909408 -5.85447924e-05 0.562620878 1.0703398 -5.85598427e-05 -0.562620699 1.0703398 -5.855985e-05 -1.68786216 0.473909408 -5.85447924e-05 -2.034477 1.40023541 -0.000119750337 -0.678158939 2.02823448 -0.000119766199 0.678159177 2.02823424 -0.000119766199 2.03447652 1.40023553 -0.000119750337 0.907445312 -0.801868975 4.78850379e-05 0.706582904 0.118702419 -2.67589189e-06 0.109047294 -0.865741909 4.78866496e-05 -0.336050719 0.0960798636 -2.67532278e-06 -0.517408967 -1.22742653 4.78957736e-05 -1.12782192 -0.361049473 -2.66378561e-06 -0.971923649 -1.88692319 4.79124246e-05 -1.66873074 -1.25268555 -2.64128039e-06 0.52465868 1.06675279 -5.85597518e-05 -0.748043895 1.02065611 -5.85585876e-05 -1.7225318 0.45803529 -5.85443959e-05 -2.39880443 -0.621109307 -5.85171547e-05 -3.16214466 0.00780519936 -0.000119715187 -2.30153823 1.22982752 -0.000119746059 -1.12693202 1.90798628 -0.000119763157 0.361672699 2.0422821 -0.000119766533 0.486687303 -0.428312391 4.78756119e-05 -0.147550479 0.268494576 -2.67967198e-06 -0.172809228 -0.882827044 4.78870788e-05 -1.03918636 -0.272413999 -2.66602228e-06 -0.534493923 -1.5092833 4.79028859e-05 -1.4963156 -1.06418526 -2.64603932e-06 -0.598366797 -2.30768132 4.79230439e-05 -1.5189383 -2.10681915 -2.61972332e-06 -0.779126704 0.998568177 -5.85580274e-05 -1.85827112 0.322295874 -5.8540958e-05 -2.420892 -0.652191997 -5.85163725e-05 -2.4669888 -1.92489505 -5.84842492e-05 -3.44251823 -1.76190925 -0.000119670527 -3.30822229 -0.273303628 -0.000119708107 -2.63006306 0.901302218 -0.000119737757 -1.40804148 1.76190841 -0.000119759468 -0.0644781962 -0.315181762 4.78727561e-05 -0.962147653 -0.028848052 -2.67216706e-06 -0.408361673 -1.03855109 4.78910115e-05 -1.46387279 -0.943106472 -2.64909477e-06 -0.408361673 -1.76192045 4.79092632e-05 -1.46387279 -1.85736513 -2.62602066e-06 -0.0644782335 -2.48529005 4.79275259e-05 -0.962147653 -2.77162385 -2.60294451e-06 -1.87414539 0.287626117 -5.85400885e-05 -2.47057581 -0.837614954 -5.85116832e-05 -2.47057581 -1.96285653 -5.84832924e-05 -1.87414563 -3.08809781 -5.84548907e-05 -2.80047154 -3.43471289 -0.000119628312 -3.42847085 -2.07839465 -0.000119662553 -3.42847037 -0.722076654 -0.000119696786 -2.80047178 0.634240806 -0.000119730998 -0.598366916 -0.49279055 4.78772381e-05 -1.5189383 -0.693653047 -2.65538824e-06 -0.534494042 -1.29118848 4.78973852e-05 -1.49631572 -1.73628652 -2.62907588e-06 -0.172809348 -1.91764486 4.79131959e-05 -1.03918636 -2.52805781 -2.60909314e-06 0.486687183 -2.37215948 4.79246701e-05 -0.14755033 -3.06896639 -2.59543958e-06 -2.46698856 -0.875577271 -5.85107264e-05 -2.420892 -2.14827967 -5.84786103e-05 -1.85827112 -3.12276769 -5.84540212e-05 -0.779126585 -3.79904008 -5.84369518e-05 -1.408041 -4.56238031 -0.000119599841 -2.6300633 -3.70177412 -0.000119621574 -3.30822206 -2.5271678 -0.000119651231 -3.442518 -1.03856325 -0.00011968879 -0.97192353 -0.91354847 4.78878574e-05 -1.66873062 -1.54778612 -2.63383095e-06 -0.517408967 -1.57304513 4.79045011e-05 -1.12782216 -2.43942213 -2.61132982e-06 0.109047212 -1.93472981 4.79136252e-05 -0.336050957 -2.89655161 -2.59979265e-06 0.907445312 -1.99860287 4.79152441e-05 0.706582963 -2.91917443 -2.59921967e-06 -2.39880419 -2.1793623 -5.84778281e-05 -1.72253215 -3.25850654 -5.84505869e-05 -0.748044312 -3.82112765 -5.84363916e-05 0.524658561 -3.86722469 -5.84352274e-05 0.361672729 -4.84275436 -0.000119592776 -1.12693274 -4.70845795 -0.000119596181 -2.30153871 -4.03029871 -0.000119613294 -3.16214442 -2.80827689 -0.000119644123 -1.08505416 -1.46471381 4.7901769e-05 -1.37138808 -2.36238313 -2.61327204e-06 -0.361684799 -1.80859745 4.79104456e-05 -0.457129687 -2.86410832 -2.60061142e-06 0.361684531 -1.80859756 4.79104419e-05 0.457128942 -2.8641088 -2.6006112e-06 1.08505416 -1.46471429 4.7901769e-05 1.37138784 -2.3623836 -2.61327204e-06 -1.6878624 -3.27438092 -5.84501904e-05 -0.562621415 -3.87081146 -5.84351328e-05 0.562620163 -3.8708117 -5.84351401e-05 1.6878618 -3.2743814 -5.84501904e-05 2.03447628 -4.20070791 -0.000119608972 0.678158224 -4.82870626 -0.00011959314 -0.678159893 -4.82870626 -0.00011959314 -2.03447723 -4.20070696 -0.000119608972 -0.90744555 -1.99860251 4.79152441e-05 -0.706583381 -2.91917396 -2.59921967e-06 -0.10904754 -1.93472981 4.79136288e-05 0.336050183 -2.89655161 -2.59979265e-06 0.517408788 -1.57304525 4.79044975e-05 1.12782156 -2.43942237 -2.61132982e-06 0.971923649 -0.913548887 4.78878574e-05 1.66873062 -1.54778659 -2.63383095e-06 -0.524659395 -3.86722422 -5.84352274e-05 0.74804318 -3.82112765 -5.84363843e-05 1.7225312 -3.25850725 -5.84505942e-05 2.39880395 -2.17936301 -5.84778281e-05 3.16214395 -2.80827761 -0.000119644123 2.30153728 -4.03029966 -0.000119613294 1.12693107 -4.70845795 -0.000119596181 -0.361673683 -4.84275341 -0.000119592776 -0.48668766 -2.37215924 4.79246701e-05 0.147549689 -3.06896639 -2.59543958e-06 0.172808975 -1.91764486 4.79131995e-05 1.03918576 -2.52805829 -2.60909314e-06 0.534493923 -1.29118884 4.78973816e-05 1.49631548 -1.73628736 -2.62907588e-06 0.598367214 -0.492790759 4.78772381e-05 1.51893854 -0.693653405 -2.65538824e-06 0.779125512 -3.79904032 -5.84369518e-05 1.85827029 -3.1227684 -5.84540139e-05 2.42089128 -2.14828086 -5.84786139e-05 2.4669888 -0.875578105 -5.85107264e-05 3.442518 -1.03856421 -0.00011968879 3.30822134 -2.5271697 -0.000119651231 2.63006163 -3.70177507 -0.000119621574 1.40803993 -4.56238079 -0.000119599841 0.0644775406 -2.48529005 4.79275259e-05 0.962146819 -2.77162433 -2.60294428e-06 0.408361375 -1.76192093 4.79092669e-05 1.46387243 -1.85736609 -2.62602043e-06 0.408361733 -1.03855157 4.78910079e-05 1.46387291 -0.943107426 -2.64909454e-06 0.064478673 -0.315181881 4.78727561e-05 0.96214819 -0.0288484357 -2.67216706e-06 1.87414455 -3.08809876 -5.84548907e-05 2.47057533 -1.96285808 -5.84832851e-05 2.47057605 -0.837616563 -5.85116904e-05 1.87414622 0.287625223 -5.85400885e-05 2.8004725 0.634239614 -0.000119730998 3.42847085 -0.7220788 -0.000119696786 3.4284699 -2.0783968 -0.000119662553 2.80047059 -3.43471384 -0.000119628312 0.598366201 -2.30768156 4.79230439e-05 1.51893771 -2.10681963 -2.61972332e-06 0.534493744 -1.50928342 4.79028895e-05 1.49631584 -1.0641861 -2.64603932e-06 0.172809482 -0.882827044 4.78870788e-05 1.03918707 -0.272414565 -2.66602228e-06 -0.486686796 -0.428311914 4.78756119e-05 0.147551224 0.268494755 -2.67967198e-06 2.46698809 -1.924896 -5.84842492e-05 2.42089248 -0.652193487 -5.85163689e-05 1.85827219 0.322294682 -5.85409653e-05 0.779127955 0.998567939 -5.85580274e-05 1.40804291 1.76190794 -0.000119759468 2.63006473 0.901300609 -0.000119737757 3.30822277 -0.273305923 -0.000119708107 3.44251776 -1.76191068 -0.000119670527 0.971923172 -1.88692403 4.79124246e-05 1.66873062 -1.25268662 -2.64128039e-06 0.517409146 -1.22742701 4.78957772e-05 1.12782276 -0.361050397 -2.66378561e-06 -0.109046884 -0.865741909 4.78866459e-05 0.336051881 0.0960795134 -2.67532278e-06 -0.907445014 -0.801868379 4.78850379e-05 -0.70658201 0.118702933 -2.67589189e-06 2.39880466 -0.621111035 -5.85171547e-05 1.72253335 0.45803389 -5.85443886e-05 0.748045802 1.02065539 -5.85585949e-05 -0.524657071 1.06675315 -5.85597518e-05 -0.361670643 2.04228258 -0.000119766533 1.12693477 1.90798557 -0.000119763157 2.30154014 1.22982526 -0.000119746044 3.16214538 0.00780318119 -0.000119715187</float_array>
        <technique_common><accessor source="#vfx_kurp_0326-mesh-positions-array" count="192" stride="3"><param name="X" type="float"/><param name="Y" type="float"/><param name="Z" type="float"/></accessor></technique_common>
      </source>
      <source id="vfx_kurp_0326-mesh-normals">
        <float_array id="vfx_kurp_0326-mesh-normals-array" count="576">2.32398943e-05 4.89110825e-05 0.999999999 2.60213219e-05 4.90117235e-05 0.999999998 1.29632754e-05 4.75522865e-05 0.999999999 1.33953481e-05 5.083832e-05 0.999999999 -1.17134123e-05 4.6845882e-05 0.999999999 -1.35064829e-05 5.12141777e-05 0.999999999 -2.40976569e-05 4.69521182e-05 0.999999999 -2.70430682e-05 4.97646287e-05 0.999999998 2.85862442e-05 5.34312275e-05 0.999999998 1.40432194e-05 5.81554849e-05 0.999999998 -1.51298854e-05 5.85316883e-05 0.999999998 -2.77264007e-05 5.44353751e-05 0.999999998 -2.6065536e-05 5.63201755e-05 0.999999998 -1.35806722e-05 6.13402807e-05 0.999999998 1.30036978e-05 6.23282902e-05 0.999999998 2.87356397e-05 5.72780299e-05 0.999999998 -4.31658099e-06 5.39815736e-05 0.999999999 -1.95811162e-06 5.54594334e-05 0.999999998 -1.25369961e-05 4.76665081e-05 0.999999999 -1.38058303e-05 5.07283366e-05 0.999999999 -3.35544391e-05 3.47164023e-05 0.999999999 -3.72914255e-05 3.76029238e-05 0.999999999 -4.4332628e-05 2.86162812e-05 0.999999999 -4.82896757e-05 2.95792815e-05 0.999999998 -1.94658037e-06 6.05692948e-05 0.999999998 -1.69033355e-05 5.73891083e-05 0.999999998 -4.23560886e-05 4.31283696e-05 0.999999998 -5.12168262e-05 3.32825984e-05 0.999999998 -5.07208751e-05 3.57453209e-05 0.999999998 -4.24187273e-05 4.63352843e-05 0.999999998 -1.98899943e-05 6.04831074e-05 0.999999998 -3.74060141e-06 6.39754215e-05 0.999999998 -3.07164446e-05 4.45944969e-05 0.999999999 -2.94128713e-05 4.70535924e-05 0.999999998 -3.46779925e-05 3.50152877e-05 0.999999999 -3.73077455e-05 3.70324814e-05 0.999999999 -4.64045806e-05 1.32914447e-05 0.999999999 -5.108416e-05 1.39227486e-05 0.999999999 -5.26887015e-05 2.61949094e-06 0.999999999 -5.65971021e-05 1.4749462e-06 0.999999998 -3.19578211e-05 5.1484636e-05 0.999999998 -4.33206659e-05 4.12521439e-05 0.999999998 -5.82330175e-05 1.61755961e-05 0.999999998 -6.09837551e-05 3.21853349e-06 0.999999998 -6.17855984e-05 5.59929139e-06 0.999999998 -5.98907098e-05 1.89215479e-05 0.999999998 -4.74541775e-05 4.24382924e-05 0.999999998 -3.52145579e-05 5.35374237e-05 0.999999998 -4.88858422e-05 2.326514e-05 0.999999999 -4.89864796e-05 2.60465676e-05 0.999999998 -4.75270426e-05 1.29885166e-05 0.999999999 -5.08130833e-05 1.34205902e-05 0.999999999 -4.68206453e-05 -1.16881738e-05 0.999999999 -5.11889411e-05 -1.34812462e-05 0.999999999 -4.69268816e-05 -2.40724239e-05 0.999999999 -4.97393884e-05 -2.70178316e-05 0.999999998 -5.34059763e-05 2.86114827e-05 0.999999998 -5.81302446e-05 1.40684542e-05 0.999999998 -5.85064444e-05 -1.51046424e-05 0.999999998 -5.44101312e-05 -2.77011622e-05 0.999999998 -5.62949316e-05 -2.60403048e-05 0.999999998 -6.13150258e-05 -1.35554237e-05 0.999999998 -6.23030499e-05 1.30289309e-05 0.999999998 -5.72527823e-05 2.87608709e-05 0.999999998 -5.39563334e-05 -4.29134251e-06 0.999999999 -5.54341931e-05 -1.93287474e-06 0.999999998 -4.76412715e-05 -1.25117549e-05 0.999999999 -5.07030963e-05 -1.37805928e-05 0.999999999 -3.46911692e-05 -3.35292024e-05 0.999999999 -3.75776835e-05 -3.72661925e-05 0.999999999 -2.85910428e-05 -4.43073986e-05 0.999999999 -2.95540357e-05 -4.82644536e-05 0.999999998 -6.05440617e-05 -1.92134211e-06 0.999999998 -5.73638826e-05 -1.68781007e-05 0.999999998 -4.31031293e-05 -4.23308483e-05 0.999999998 -3.32573472e-05 -5.11915895e-05 0.999999998 -3.5720066e-05 -5.0695642e-05 0.999999998 -4.63100331e-05 -4.23934688e-05 0.999999998 -6.04578817e-05 -1.9864754e-05 0.999999998 -6.39501958e-05 -3.7153652e-06 0.999999998 -4.45692676e-05 -3.06911897e-05 0.999999999 -4.70283702e-05 -2.9387631e-05 0.999999998 -3.4990051e-05 -3.46527485e-05 0.999999999 -3.70072593e-05 -3.72825088e-05 0.999999999 -1.32662126e-05 -4.6379333e-05 0.999999999 -1.3897521e-05 -5.1058927e-05 0.999999999 -2.59426042e-06 -5.26634503e-05 0.999999999 -1.44971557e-06 -5.65718655e-05 0.999999998 -5.14594029e-05 -3.19325736e-05 0.999999998 -4.12269109e-05 -4.32954074e-05 0.999999998 -1.61503667e-05 -5.82077736e-05 0.999999998 -3.19330956e-06 -6.09585185e-05 0.999999998 -5.57407519e-06 -6.17603508e-05 0.999999998 -1.88963149e-05 -5.98654732e-05 0.999999998 -4.24130557e-05 -4.74289226e-05 0.999999998 -5.3512187e-05 -3.51892995e-05 0.999999998 -2.32399088e-05 -4.88606019e-05 0.999999999 -2.6021331e-05 -4.89612357e-05 0.999999998 -1.29632854e-05 -4.75018095e-05 0.999999999 -1.33953635e-05 -5.07878394e-05 0.999999999 1.17133995e-05 -4.67954087e-05 0.999999999 1.35064729e-05 -5.11637044e-05 0.999999999 2.40976569e-05 -4.69016485e-05 0.999999999 2.70430755e-05 -4.97141627e-05 0.999999998 -2.85862515e-05 -5.33807396e-05 0.999999998 -1.40432303e-05 -5.8104997e-05 0.999999998 1.51298818e-05 -5.84812223e-05 0.999999998 2.77263861e-05 -5.43849018e-05 0.999999998 2.6065496e-05 -5.62696877e-05 0.999999998 1.35806704e-05 -6.12898074e-05 0.999999998 -1.30037024e-05 -6.22778024e-05 0.999999998 -2.87356469e-05 -5.72275384e-05 0.999999998 4.31656871e-06 -5.39310967e-05 0.999999999 1.95810048e-06 -5.54089601e-05 0.999999998 1.25369879e-05 -4.76160384e-05 0.999999999 1.38058221e-05 -5.06778633e-05 0.999999999 3.35544318e-05 -3.46659362e-05 0.999999999 3.72914146e-05 -3.75524541e-05 0.999999999 4.4332617e-05 -2.8565817e-05 0.999999999 4.82896684e-05 -2.95288191e-05 0.999999998 1.94657036e-06 -6.0518836e-05 0.999999998 1.69033283e-05 -5.73386532e-05 0.999999998 4.23560777e-05 -4.30779072e-05 0.999999998 5.12168298e-05 -3.32321323e-05 0.999999998 5.07208823e-05 -3.56948548e-05 0.999999998 4.24187055e-05 -4.62848183e-05 0.999999998 1.98899779e-05 -6.04326523e-05 0.999999998 3.74059027e-06 -6.39249628e-05 0.999999998 3.07164227e-05 -4.45440418e-05 0.999999999 2.94128531e-05 -4.70031445e-05 0.999999998 3.46779816e-05 -3.49648289e-05 0.999999999 3.73077273e-05 -3.69820336e-05 0.999999999 4.64045697e-05 -1.32409905e-05 0.999999999 5.10841673e-05 -1.38722971e-05 0.999999999 5.26886978e-05 -2.56903581e-06 0.999999999 5.65971131e-05 -1.42449391e-06 0.999999998 3.1957792e-05 -5.14341736e-05 0.999999998 4.3320655e-05 -4.12016852e-05 0.999999998 5.82330175e-05 -1.61251482e-05 0.999999998 6.09837551e-05 -3.1680945e-06 0.999999998 6.17856202e-05 -5.54884717e-06 0.999999998 5.98907135e-05 -1.88711019e-05 0.999999998 4.74541702e-05 -4.23878336e-05 0.999999998 3.52145288e-05 -5.34869504e-05 0.999999998 4.88858349e-05 -2.32146885e-05 0.999999999 4.8986465e-05 -2.59961125e-05 0.999999998 4.75270389e-05 -1.29380651e-05 0.999999999 5.08130797e-05 -1.33701378e-05 0.999999999 4.68206526e-05 1.1738628e-05 0.999999999 5.11889447e-05 1.35316959e-05 0.999999999 4.69268925e-05 2.4122879e-05 0.999999999 4.9739403e-05 2.70682867e-05 0.999999998 5.34059726e-05 -2.85610312e-05 0.999999998 5.81302373e-05 -1.40180118e-05 0.999999998 5.85064589e-05 1.51550912e-05 0.999999998 5.44101421e-05 2.77516101e-05 0.999999998 5.62949425e-05 2.60907345e-05 0.999999998 6.13150549e-05 1.36058779e-05 0.999999998 6.23030427e-05 -1.29784894e-05 0.999999998 5.7252775e-05 -2.87104266e-05 0.999999998 5.3956337e-05 4.34179128e-06 0.999999999 5.54341968e-05 1.98331531e-06 0.999999998 4.76412787e-05 1.25622055e-05 0.999999999 5.07031036e-05 1.38310306e-05 0.999999999 3.46911801e-05 3.35796503e-05 0.999999999 3.75777053e-05 3.7316644e-05 0.999999999 2.85910682e-05 4.43578501e-05 0.999999999 2.95540703e-05 4.83149014e-05 0.999999998 6.05440581e-05 1.97177064e-06 0.999999998 5.73638862e-05 1.69285358e-05 0.999999998 4.31031548e-05 4.23812961e-05 0.999999998 3.32573908e-05 5.12420446e-05 0.999999998 3.57201097e-05 5.07461008e-05 0.999999998 4.63100695e-05 4.24439312e-05 0.999999998 6.04578853e-05 1.99151945e-05 0.999999998 6.39501885e-05 3.76579259e-06 0.999999998 4.4569293e-05 3.07416303e-05 0.999999999 4.70283884e-05 2.94380752e-05 0.999999998 3.49900801e-05 3.47032073e-05 0.999999999 3.70072812e-05 3.73329567e-05 0.999999999 1.32662408e-05 4.64298027e-05 0.999999999 1.38975501e-05 5.1109393e-05 0.999999999 2.59428998e-06 5.27139381e-05 0.999999999 1.44974876e-06 5.66223388e-05 0.999999998 5.14594175e-05 3.19830141e-05 0.999999998 4.12269327e-05 4.33458735e-05 0.999999998 1.61504031e-05 5.82582324e-05 0.999999998 3.19334321e-06 6.10089809e-05 0.999999998 5.57409838e-06 6.18108241e-05 0.999999998 1.88963549e-05 5.99159247e-05 0.999999998 4.24130921e-05 4.74793923e-05 0.999999998 5.35122089e-05 3.52397473e-05 0.999999998</float_array>
        <technique_common><accessor source="#vfx_kurp_0326-mesh-normals-array" count="192" stride="3"><param name="X" type="float"/><param name="Y" type="float"/><param name="Z" type="float"/></accessor></technique_common>
      </source>
      <source id="vfx_kurp_0326-mesh-uv0">
        <float_array id="vfx_kurp_0326-mesh-uv0-array" count="384">1 3.2647059 1 2.59803915 0.666666687 3.2647059 0.666666687 2.59803915 0.333333343 3.2647059 0.333333343 2.59803915 0 3.2647059 0 2.59803915 1 1.93137252 0.666666687 1.93137252 0.333333343 1.93137252 0 1.93137252 0 1.2647059 0.333333343 1.2647059 0.666666687 1.2647059 1 1.2647059 1 3.2647059 1 2.59803915 0.666666687 3.2647059 0.666666687 2.59803915 0.333333343 3.2647059 0.333333343 2.59803915 0 3.2647059 0 2.59803915 1 1.93137252 0.666666687 1.93137252 0.333333343 1.93137252 0 1.93137252 0 1.2647059 0.333333343 1.2647059 0.666666687 1.2647059 1 1.2647059 1 3.2647059 1 2.59803915 0.666666687 3.2647059 0.666666687 2.59803915 0.333333343 3.2647059 0.333333343 2.59803915 0 3.2647059 0 2.59803915 1 1.93137252 0.666666687 1.93137252 0.333333343 1.93137252 0 1.93137252 0 1.2647059 0.333333343 1.2647059 0.666666687 1.2647059 1 1.2647059 1 3.2647059 1 2.59803915 0.666666687 3.2647059 0.666666687 2.59803915 0.333333343 3.2647059 0.333333343 2.59803915 0 3.2647059 0 2.59803915 1 1.93137252 0.666666687 1.93137252 0.333333343 1.93137252 0 1.93137252 0 1.2647059 0.333333343 1.2647059 0.666666687 1.2647059 1 1.2647059 1 3.2647059 1 2.59803915 0.666666687 3.2647059 0.666666687 2.59803915 0.333333343 3.2647059 0.333333343 2.59803915 0 3.2647059 0 2.59803915 1 1.93137252 0.666666687 1.93137252 0.333333343 1.93137252 0 1.93137252 0 1.2647059 0.333333343 1.2647059 0.666666687 1.2647059 1 1.2647059 1 3.2647059 1 2.59803915 0.666666687 3.2647059 0.666666687 2.59803915 0.333333343 3.2647059 0.333333343 2.59803915 0 3.2647059 0 2.59803915 1 1.93137252 0.666666687 1.93137252 0.333333343 1.93137252 0 1.93137252 0 1.2647059 0.333333343 1.2647059 0.666666687 1.2647059 1 1.2647059 1 3.2647059 1 2.59803915 0.666666687 3.2647059 0.666666687 2.59803915 0.333333343 3.2647059 0.333333343 2.59803915 0 3.2647059 0 2.59803915 1 1.93137252 0.666666687 1.93137252 0.333333343 1.93137252 0 1.93137252 0 1.2647059 0.333333343 1.2647059 0.666666687 1.2647059 1 1.2647059 1 3.2647059 1 2.59803915 0.666666687 3.2647059 0.666666687 2.59803915 0.333333343 3.2647059 0.333333343 2.59803915 0 3.2647059 0 2.59803915 1 1.93137252 0.666666687 1.93137252 0.333333343 1.93137252 0 1.93137252 0 1.2647059 0.333333343 1.2647059 0.666666687 1.2647059 1 1.2647059 1 3.2647059 1 2.59803915 0.666666687 3.2647059 0.666666687 2.59803915 0.333333343 3.2647059 0.333333343 2.59803915 0 3.2647059 0 2.59803915 1 1.93137252 0.666666687 1.93137252 0.333333343 1.93137252 0 1.93137252 0 1.2647059 0.333333343 1.2647059 0.666666687 1.2647059 1 1.2647059 1 3.2647059 1 2.59803915 0.666666687 3.2647059 0.666666687 2.59803915 0.333333343 3.2647059 0.333333343 2.59803915 0 3.2647059 0 2.59803915 1 1.93137252 0.666666687 1.93137252 0.333333343 1.93137252 0 1.93137252 0 1.2647059 0.333333343 1.2647059 0.666666687 1.2647059 1 1.2647059 1 3.2647059 1 2.59803915 0.666666687 3.2647059 0.666666687 2.59803915 0.333333343 3.2647059 0.333333343 2.59803915 0 3.2647059 0 2.59803915 1 1.93137252 0.666666687 1.93137252 0.333333343 1.93137252 0 1.93137252 0 1.2647059 0.333333343 1.2647059 0.666666687 1.2647059 1 1.2647059 1 3.2647059 1 2.59803915 0.666666687 3.2647059 0.666666687 2.59803915 0.333333343 3.2647059 0.333333343 2.59803915 0 3.2647059 0 2.59803915 1 1.93137252 0.666666687 1.93137252 0.333333343 1.93137252 0 1.93137252 0 1.2647059 0.333333343 1.2647059 0.666666687 1.2647059 1 1.2647059</float_array>
        <technique_common><accessor source="#vfx_kurp_0326-mesh-uv0-array" count="192" stride="2"><param name="S" type="float"/><param name="T" type="float"/></accessor></technique_common>
      </source>
      <vertices id="vfx_kurp_0326-mesh-vertices"><input semantic="POSITION" source="#vfx_kurp_0326-mesh-positions"/></vertices>
      <triangles material="PreviewMaterial" count="216">
        <input semantic="VERTEX" source="#vfx_kurp_0326-mesh-vertices" offset="0"/>
        <input semantic="NORMAL" source="#vfx_kurp_0326-mesh-normals" offset="1"/>
        <input semantic="TEXCOORD" source="#vfx_kurp_0326-mesh-uv0" offset="2" set="0"/>
        <p>0 0 0 1 1 1 2 2 2 3 3 3 2 2 2 1 1 1 2 2 2 3 3 3 4 4 4 5 5 5 4 4 4 3 3 3 4 4 4 5 5 5 6 6 6 7 7 7 6 6 6 5 5 5 1 1 1 8 8 8 3 3 3 9 9 9 3 3 3 8 8 8 3 3 3 9 9 9 5 5 5 10 10 10 5 5 5 9 9 9 5 5 5 10 10 10 7 7 7 11 11 11 7 7 7 10 10 10 12 12 12 11 11 11 13 13 13 10 10 10 13 13 13 11 11 11 13 13 13 10 10 10 14 14 14 9 9 9 14 14 14 10 10 10 14 14 14 9 9 9 15 15 15 8 8 8 15 15 15 9 9 9 16 16 16 17 17 17 18 18 18 19 19 19 18 18 18 17 17 17 18 18 18 19 19 19 20 20 20 21 21 21 20 20 20 19 19 19 20 20 20 21 21 21 22 22 22 23 23 23 22 22 22 21 21 21 17 17 17 24 24 24 19 19 19 25 25 25 19 19 19 24 24 24 19 19 19 25 25 25 21 21 21 26 26 26 21 21 21 25 25 25 21 21 21 26 26 26 23 23 23 27 27 27 23 23 23 26 26 26 28 28 28 27 27 27 29 29 29 26 26 26 29 29 29 27 27 27 29 29 29 26 26 26 30 30 30 25 25 25 30 30 30 26 26 26 30 30 30 25 25 25 31 31 31 24 24 24 31 31 31 25 25 25 32 32 32 33 33 33 34 34 34 35 35 35 34 34 34 33 33 33 34 34 34 35 35 35 36 36 36 37 37 37 36 36 36 35 35 35 36 36 36 37 37 37 38 38 38 39 39 39 38 38 38 37 37 37 33 33 33 40 40 40 35 35 35 41 41 41 35 35 35 40 40 40 35 35 35 41 41 41 37 37 37 42 42 42 37 37 37 41 41 41 37 37 37 42 42 42 39 39 39 43 43 43 39 39 39 42 42 42 44 44 44 43 43 43 45 45 45 42 42 42 45 45 45 43 43 43 45 45 45 42 42 42 46 46 46 41 41 41 46 46 46 42 42 42 46 46 46 41 41 41 47 47 47 40 40 40 47 47 47 41 41 41 48 48 48 49 49 49 50 50 50 51 51 51 50 50 50 49 49 49 50 50 50 51 51 51 52 52 52 53 53 53 52 52 52 51 51 51 52 52 52 53 53 53 54 54 54 55 55 55 54 54 54 53 53 53 49 49 49 56 56 56 51 51 51 57 57 57 51 51 51 56 56 56 51 51 51 57 57 57 53 53 53 58 58 58 53 53 53 57 57 57 53 53 53 58 58 58 55 55 55 59 59 59 55 55 55 58 58 58 60 60 60 59 59 59 61 61 61 58 58 58 61 61 61 59 59 59 61 61 61 58 58 58 62 62 62 57 57 57 62 62 62 58 58 58 62 62 62 57 57 57 63 63 63 56 56 56 63 63 63 57 57 57 64 64 64 65 65 65 66 66 66 67 67 67 66 66 66 65 65 65 66 66 66 67 67 67 68 68 68 69 69 69 68 68 68 67 67 67 68 68 68 69 69 69 70 70 70 71 71 71 70 70 70 69 69 69 65 65 65 72 72 72 67 67 67 73 73 73 67 67 67 72 72 72 67 67 67 73 73 73 69 69 69 74 74 74 69 69 69 73 73 73 69 69 69 74 74 74 71 71 71 75 75 75 71 71 71 74 74 74 76 76 76 75 75 75 77 77 77 74 74 74 77 77 77 75 75 75 77 77 77 74 74 74 78 78 78 73 73 73 78 78 78 74 74 74 78 78 78 73 73 73 79 79 79 72 72 72 79 79 79 73 73 73 80 80 80 81 81 81 82 82 82 83 83 83 82 82 82 81 81 81 82 82 82 83 83 83 84 84 84 85 85 85 84 84 84 83 83 83 84 84 84 85 85 85 86 86 86 87 87 87 86 86 86 85 85 85 81 81 81 88 88 88 83 83 83 89 89 89 83 83 83 88 88 88 83 83 83 89 89 89 85 85 85 90 90 90 85 85 85 89 89 89 85 85 85 90 90 90 87 87 87 91 91 91 87 87 87 90 90 90 92 92 92 91 91 91 93 93 93 90 90 90 93 93 93 91 91 91 93 93 93 90 90 90 94 94 94 89 89 89 94 94 94 90 90 90 94 94 94 89 89 89 95 95 95 88 88 88 95 95 95 89 89 89 96 96 96 97 97 97 98 98 98 99 99 99 98 98 98 97 97 97 98 98 98 99 99 99 100 100 100 101 101 101 100 100 100 99 99 99 100 100 100 101 101 101 102 102 102 103 103 103 102 102 102 101 101 101 97 97 97 104 104 104 99 99 99 105 105 105 99 99 99 104 104 104 99 99 99 105 105 105 101 101 101 106 106 106 101 101 101 105 105 105 101 101 101 106 106 106 103 103 103 107 107 107 103 103 103 106 106 106 108 108 108 107 107 107 109 109 109 106 106 106 109 109 109 107 107 107 109 109 109 106 106 106 110 110 110 105 105 105 110 110 110 106 106 106 110 110 110 105 105 105 111 111 111 104 104 104 111 111 111 105 105 105 112 112 112 113 113 113 114 114 114 115 115 115 114 114 114 113 113 113 114 114 114 115 115 115 116 116 116 117 117 117 116 116 116 115 115 115 116 116 116 117 117 117 118 118 118 119 119 119 118 118 118 117 117 117 113 113 113 120 120 120 115 115 115 121 121 121 115 115 115 120 120 120 115 115 115 121 121 121 117 117 117 122 122 122 117 117 117 121 121 121 117 117 117 122 122 122 119 119 119 123 123 123 119 119 119 122 122 122 124 124 124 123 123 123 125 125 125 122 122 122 125 125 125 123 123 123 125 125 125 122 122 122 126 126 126 121 121 121 126 126 126 122 122 122 126 126 126 121 121 121 127 127 127 120 120 120 127 127 127 121 121 121 128 128 128 129 129 129 130 130 130 131 131 131 130 130 130 129 129 129 130 130 130 131 131 131 132 132 132 133 133 133 132 132 132 131 131 131 132 132 132 133 133 133 134 134 134 135 135 135 134 134 134 133 133 133 129 129 129 136 136 136 131 131 131 137 137 137 131 131 131 136 136 136 131 131 131 137 137 137 133 133 133 138 138 138 133 133 133 137 137 137 133 133 133 138 138 138 135 135 135 139 139 139 135 135 135 138 138 138 140 140 140 139 139 139 141 141 141 138 138 138 141 141 141 139 139 139 141 141 141 138 138 138 142 142 142 137 137 137 142 142 142 138 138 138 142 142 142 137 137 137 143 143 143 136 136 136 143 143 143 137 137 137 144 144 144 145 145 145 146 146 146 147 147 147 146 146 146 145 145 145 146 146 146 147 147 147 148 148 148 149 149 149 148 148 148 147 147 147 148 148 148 149 149 149 150 150 150 151 151 151 150 150 150 149 149 149 145 145 145 152 152 152 147 147 147 153 153 153 147 147 147 152 152 152 147 147 147 153 153 153 149 149 149 154 154 154 149 149 149 153 153 153 149 149 149 154 154 154 151 151 151 155 155 155 151 151 151 154 154 154 156 156 156 155 155 155 157 157 157 154 154 154 157 157 157 155 155 155 157 157 157 154 154 154 158 158 158 153 153 153 158 158 158 154 154 154 158 158 158 153 153 153 159 159 159 152 152 152 159 159 159 153 153 153 160 160 160 161 161 161 162 162 162 163 163 163 162 162 162 161 161 161 162 162 162 163 163 163 164 164 164 165 165 165 164 164 164 163 163 163 164 164 164 165 165 165 166 166 166 167 167 167 166 166 166 165 165 165 161 161 161 168 168 168 163 163 163 169 169 169 163 163 163 168 168 168 163 163 163 169 169 169 165 165 165 170 170 170 165 165 165 169 169 169 165 165 165 170 170 170 167 167 167 171 171 171 167 167 167 170 170 170 172 172 172 171 171 171 173 173 173 170 170 170 173 173 173 171 171 171 173 173 173 170 170 170 174 174 174 169 169 169 174 174 174 170 170 170 174 174 174 169 169 169 175 175 175 168 168 168 175 175 175 169 169 169 176 176 176 177 177 177 178 178 178 179 179 179 178 178 178 177 177 177 178 178 178 179 179 179 180 180 180 181 181 181 180 180 180 179 179 179 180 180 180 181 181 181 182 182 182 183 183 183 182 182 182 181 181 181 177 177 177 184 184 184 179 179 179 185 185 185 179 179 179 184 184 184 179 179 179 185 185 185 181 181 181 186 186 186 181 181 181 185 185 185 181 181 181 186 186 186 183 183 183 187 187 187 183 183 183 186 186 186 188 188 188 187 187 187 189 189 189 186 186 186 189 189 189 187 187 187 189 189 189 186 186 186 190 190 190 185 185 185 190 190 190 186 186 186 190 190 190 185 185 185 191 191 191 184 184 184 191 191 191 185 185 185</p>
      </triangles>
    </mesh></geometry>
  </library_geometries>
  <library_visual_scenes>
    <visual_scene id="Scene" name="Scene">
      <node id="vfx_kurp_0326" name="vfx_kurp_0326" type="NODE">
        <instance_geometry url="#vfx_kurp_0326-mesh"><bind_material><technique_common><instance_material symbol="PreviewMaterial" target="#PreviewMaterial"><bind_vertex_input semantic="UVSET0" input_semantic="TEXCOORD" input_set="0"/></instance_material></technique_common></bind_material></instance_geometry>
      </node>
    </visual_scene>
  </library_visual_scenes>
  <scene><instance_visual_scene url="#Scene"/></scene>
</COLLADA>
