<?xml version="1.0" encoding="utf-8"?>
<COLLADA xmlns="http://www.collada.org/2005/11/COLLADASchema" version="1.4.1">
  <asset>
    <contributor><authoring_tool>Morrobroom Kurpulio VFX preview converter</authoring_tool></contributor>
    <unit name="unit" meter="1"/>
    <up_axis>Z_UP</up_axis>
  </asset>
  <library_images>
    <image id="VFXTexture" name="darkmap_newgen-1.dds">
      <init_from>../../../Textures/Kurp/darkmap_newgen-1.dds</init_from>
    </image>
  </library_images>
  <library_effects>
    <effect id="PreviewEffect">
      <profile_COMMON>
        <newparam sid="VFXTexture-surface">
          <surface type="2D"><init_from>VFXTexture</init_from></surface>
        </newparam>
        <newparam sid="VFXTexture-sampler">
          <sampler2D><source>VFXTexture-surface</source></sampler2D>
        </newparam>
        <technique sid="common"><phong>
          <emission><color>0.08 0.08 0.08 1</color></emission>
          <ambient><color>0.2 0.2 0.2 1</color></ambient>
          <diffuse><texture texture="VFXTexture-sampler" texcoord="UVSET0"/></diffuse>
          <specular><color>0.15 0.15 0.15 1</color></specular>
          <shininess><float>8</float></shininess>
          <transparent opaque="A_ONE"><texture texture="VFXTexture-sampler" texcoord="UVSET0"/></transparent>
          <transparency><float>1</float></transparency>
        </phong></technique>
      </profile_COMMON>
      <extra><technique profile="GOOGLEEARTH"><double_sided>1</double_sided></technique></extra>
    </effect>
  </library_effects>
  <library_materials><material id="PreviewMaterial" name="PreviewMaterial"><instance_effect url="#PreviewEffect"/></material></library_materials>
  <library_geometries>
    <geometry id="vfx_kurp_0080-mesh" name="vfx_kurp_0080"><mesh>
      <source id="vfx_kurp_0080-mesh-positions">
        <float_array id="vfx_kurp_0080-mesh-positions-array" count="312">6.60192953 -2.88961973 4.17138753 5.82184858 -3.62719287 3.10646274 7.1259232 -2.07218483 3.09254844 6.40674197 -2.7071383 2.14830669 4.81743521 -3.97104329 2.02938707 5.49508374 -2.99036656 1.20129956 3.67373107 -3.89289946 1.0423103 4.46708768 -2.9002541 0.34095161 2.48833266 -3.40232692 0.239378608 3.40904102 -2.44826564 -0.351152216 1.36267518 -2.54591075 -0.301691501 2.40975587 -1.67787285 -0.808441737 0.441163369 -1.47118853 -0.523368563 1.55052093 -0.657024859 -0.98502536 5.39760979 -2.93181462 4.98039626 7.09277384 -1.82189638 5.12312617 5.8204814 -1.96015677 5.80782896 6.60192953 -2.88961973 4.17138753 4.714795 -3.6179367 4.04508349 5.82184858 -3.62719287 3.10646274 3.82689602 -3.9594594 3.0902167 4.81743521 -3.97104329 2.02938707 2.80714924 -3.92772777 2.20613345 3.67373107 -3.89289946 1.0423103 1.74077557 -3.52713433 1.47721676 2.48833266 -3.40232692 0.239378608 0.717483162 -2.79487505 0.974398476 1.36267518 -2.54591075 -0.301691501 -0.173762079 -1.8011389 0.74929061 0.441163369 -1.47118853 -0.523368563 -0.857219889 -0.629885721 0.833710969 -0.299381261 -0.15320756 -0.418589092 -0.299381261 -0.15320756 -0.418589092 0.913721208 0.515460287 -0.852097509 7.25541111 -0.517202893 5.87078843 5.9517024 -0.787128114 6.44884186 7.08029362 0.909978706 6.34174722 5.78544141 0.485473407 6.8415627 6.58817025 2.33408387 6.4881434 5.34220234 1.74721658 6.9461972 5.82826489 3.62967564 6.29118972 4.66697459 2.88877211 6.74849602 4.92836412 4.62965851 5.79770496 3.82081549 3.8109374 6.25562921 3.87456758 5.35967939 4.99066397 2.89337364 4.42544628 5.51136575 2.81608768 5.69387181 3.9613644 1.97235612 4.68801017 4.58025184 1.85343617 5.6055298 2.79750049 1.14486046 4.57964571 3.54056483 1.07842472 5.10585498 1.59874023 0.489343654 4.11423947 2.47984493 1.85343617 5.6055298 2.79750049 2.81608768 5.69387181 3.9613644 3.01094377 5.67318297 1.92442412 3.87793178 5.72400366 2.97230304 3.87456758 5.35967939 4.99066397 4.82403237 5.39761443 3.89351343 4.92836412 4.62965851 5.79770496 5.75961208 4.72057093 4.61135562 5.82826489 3.62967564 6.29118972 6.59145086 3.75145271 5.06262117 6.58817025 2.33408387 6.4881434 7.24325322 2.57065664 5.21473768 7.08029362 0.909978706 6.34174722 7.65027906 1.28785935 5.06151858 7.25541111 -0.517202893 5.87078843 7.77201429 0.014734622 4.62305956 7.09277384 -1.82189638 5.12312617 7.59337511 -1.13837807 3.94462527 0.565955656 4.24291642 0.467784017 0.068755808 3.33718413 1.48714862 0.367357354 3.09732419 -0.498799648 -0.0749317821 2.3212449 0.64520429 0.505807929 1.77502879 -1.21918742 0.0756671235 1.16008579 0.0231843195 0.974260516 0.397854687 -1.63361992 0.51189284 -0.040030674 -0.329343885 1.73605854 -0.907377874 -1.70974986 1.19987167 -1.1696189 -0.386724163 2.72819232 -2.02018544 -1.44555324 2.08353767 -2.12558507 -0.149414726 3.8019425 -2.80167075 -0.907720215 3.10033818 -2.82572513 0.362648404 4.98901382 -3.25981746 -0.0852735768 4.14384664 -3.18204974 1.09214254 4.98901382 -3.25981746 -0.0852735768 3.8019425 -2.80167075 -0.907720215 5.81327111 -2.35056108 -0.860201861 4.72848748 -1.91713396 -1.5901937 2.72819232 -2.02018544 -1.44555324 3.70822942 -1.15382538 -2.07452777 1.73605854 -0.907377874 -1.70974986 2.8192113 -0.126557718 -2.27875049 0.974260516 0.397854687 -1.63361992 2.14537989 1.06306126 -2.17458348 0.505807929 1.77502879 -1.21918742 1.74062361 2.30558463 -1.76727725 0.367357354 3.09732419 -0.498799648 1.63476081 3.48731652 -1.08893234 0.565955656 4.24291642 0.467784017 1.83101011 4.50034247 -0.195564403 1.07842472 5.10585498 1.59874023 2.30580189 5.25203646 0.837926041</float_array>
        <technique_common><accessor source="#vfx_kurp_0080-mesh-positions-array" count="104" stride="3"><param name="X" type="float"/><param name="Y" type="float"/><param name="Z" type="float"/></accessor></technique_common>
      </source>
      <source id="vfx_kurp_0080-mesh-normals">
        <float_array id="vfx_kurp_0080-mesh-normals-array" count="312">0.824006648 -0.566220455 -0.0201851369 0.687184397 -0.688328977 -0.232337737 0.822425046 -0.567530566 -0.0390653403 0.684368633 -0.685231369 -0.24919379 0.510522715 -0.736234344 -0.444213404 0.507746112 -0.729564621 -0.458180477 0.310300172 -0.705726734 -0.636917248 0.308601283 -0.696707802 -0.647582804 0.104864941 -0.599679977 -0.793339315 0.10492411 -0.589724487 -0.800759615 -0.0843986557 -0.430354082 -0.898705864 -0.0823800549 -0.41818445 -0.904618866 -0.243088679 -0.216305297 -0.945579141 -0.243687768 -0.191614257 -0.950736687 0.359004199 -0.785242201 0.504490507 0.434651925 -0.596425717 0.67479928 0.42703411 -0.588009884 0.686939768 0.363563772 -0.793118023 0.488656511 0.236488026 -0.924759134 0.298150898 0.237541104 -0.930412318 0.279118511 0.070456811 -0.993790859 0.0861136865 0.0680382561 -0.995572769 0.0648510324 -0.124182973 -0.985820572 -0.112855615 -0.129515912 -0.982345455 -0.134992724 -0.329905453 -0.901193191 -0.281092913 -0.337100033 -0.891546671 -0.302503061 -0.528035465 -0.747189368 -0.403592116 -0.535162555 -0.73259278 -0.420605347 -0.703475038 -0.53235979 -0.470867205 -0.703463335 -0.523653835 -0.480547602 -0.77290223 -0.405311715 -0.488205445 -0.773667798 -0.395345247 -0.495116425 -0.312163393 -0.082080235 -0.946476017 -0.306928077 -0.0590057028 -0.949901828 0.444345002 -0.358382979 0.821047599 0.434502185 -0.350923212 0.829494274 0.391740471 -0.100707302 0.914547671 0.38074854 -0.095327741 0.91975169 0.281558391 0.153183475 0.94723793 0.27056843 0.155856858 0.950000718 0.125208045 0.378293771 0.9171787 0.112166159 0.378918266 0.918607479 -0.059220888 0.555293279 0.829543405 -0.0832353637 0.558974714 0.824996451 -0.265516486 0.675059517 0.688328151 -0.290479969 0.672123709 0.681080837 -0.472013527 0.720016783 0.508703315 -0.49343234 0.711046976 0.500935848 -0.658477872 0.687268878 0.306705692 -0.675443124 0.673605929 0.300052726 -0.808393489 0.579935727 0.100868818 -0.820569913 0.563323244 0.0966019663 -0.156367416 0.980109903 -0.122203969 0.0406067467 0.995845112 0.0815083111 -0.141541079 0.982575878 -0.120460647 0.0542242475 0.995224027 0.0811718375 0.253285469 0.932410124 0.257794164 0.264879729 0.929891154 0.255227685 0.460884846 0.797424151 0.389486692 0.472589755 0.793086862 0.384281345 0.643298409 0.606564583 0.467168667 0.661352055 0.592560222 0.459875899 0.792923515 0.368446296 0.485303644 0.807782209 0.352899298 0.472175802 0.892433776 0.108650089 0.437900804 0.90201501 0.0949090824 0.421142716 0.931924605 -0.148899029 0.330674477 0.936739419 -0.15926885 0.311693271 0.90825975 -0.380844955 0.173266693 0.909258 -0.386855519 0.153599143 -0.908601429 0.407851334 -0.0900040683 -0.916216132 0.390190901 -0.0910991813 -0.950469929 0.186650648 -0.248532592 -0.954234172 0.169750834 -0.246214944 -0.930654177 -0.0636602555 -0.360319545 -0.931627581 -0.0783080632 -0.3548773 -0.851377683 -0.320522175 -0.415236772 -0.850795173 -0.331916089 -0.407405551 -0.72021145 -0.560865075 -0.40832075 -0.71929477 -0.568592182 -0.399146545 -0.552002944 -0.76079024 -0.341307722 -0.551098642 -0.766695657 -0.329344889 -0.362337927 -0.904589901 -0.224562549 -0.35302126 -0.913544318 -0.202021707 -0.252948387 -0.957495922 -0.138631425 -0.24827607 -0.961876469 -0.114685007 0.178721925 -0.727021486 -0.662946629 0.0743895572 -0.66120774 -0.746505538 0.177095405 -0.718784281 -0.67229932 0.0747989982 -0.651030493 -0.755357139 -0.121430799 -0.496882695 -0.859280018 -0.125088327 -0.477038478 -0.869935171 -0.291721022 -0.276500286 -0.915667209 -0.291546002 -0.253792154 -0.922274618 -0.417423932 -0.0195684709 -0.908501148 -0.413086008 0.00220151796 -0.910689356 -0.486564802 0.248442914 -0.837574362 -0.47827442 0.267623501 -0.836439621 -0.492831361 0.503442026 -0.709692452 -0.481253494 0.518834093 -0.706545299 -0.435604155 0.722578796 -0.536776401 -0.42174243 0.733538765 -0.532967356 -0.319994216 0.886301785 -0.334772829 -0.305041584 0.892772227 -0.331522823</float_array>
        <technique_common><accessor source="#vfx_kurp_0080-mesh-normals-array" count="104" stride="3"><param name="X" type="float"/><param name="Y" type="float"/><param name="Z" type="float"/></accessor></technique_common>
      </source>
      <source id="vfx_kurp_0080-mesh-uv0">
        <float_array id="vfx_kurp_0080-mesh-uv0-array" count="208">0.5 0.720000029 0.5 0.75999999 1 0.720000029 1 0.75999999 0.5 0.800000012 1 0.800000012 0.5 0.840000033 1 0.840000033 0.5 0.879999995 1 0.879999995 0.5 0.920000017 1 0.920000017 0.5 0.959999979 1 0.959999979 0 0.720000029 0.5 0.680000007 0 0.680000007 0.5 0.720000029 0 0.75999999 0.5 0.75999999 0 0.800000012 0.5 0.800000012 0 0.840000033 0.5 0.840000033 0 0.879999995 0.5 0.879999995 0 0.920000017 0.5 0.920000017 0 0.959999979 0.5 0.959999979 0 1 0.5 1 0.5 1 1 1 0.5 0.639999986 0 0.639999986 0.5 0.600000024 0 0.600000024 0.5 0.560000002 0 0.560000002 0.5 0.519999981 0 0.519999981 0.5 0.480000019 0 0.480000019 0.5 0.439999998 0 0.439999998 0.5 0.400000036 0 0.400000036 0.5 0.360000014 0 0.360000014 0.5 0.319999993 0 0.319999993 0.5 0.360000014 0.5 0.400000036 1 0.360000014 1 0.400000036 0.5 0.439999998 1 0.439999998 0.5 0.480000019 1 0.480000019 0.5 0.519999981 1 0.519999981 0.5 0.560000002 1 0.560000002 0.5 0.600000024 1 0.600000024 0.5 0.639999986 1 0.639999986 0.5 0.680000007 1 0.680000007 0.5 0.280000031 0 0.280000031 0.5 0.24000001 0 0.24000001 0.5 0.200000048 0 0.200000048 0.5 0.160000026 0 0.160000026 0.5 0.120000005 0 0.120000005 0.5 0.0800000429 0 0.0800000429 0.5 0.0400000215 0 0.0400000215 0.5 0 0 0 0.5 0 0.5 0.0400000215 1 0 1 0.0400000215 0.5 0.0800000429 1 0.0800000429 0.5 0.120000005 1 0.120000005 0.5 0.160000026 1 0.160000026 0.5 0.200000048 1 0.200000048 0.5 0.24000001 1 0.24000001 0.5 0.280000031 1 0.280000031 0.5 0.319999993 1 0.319999993</float_array>
        <technique_common><accessor source="#vfx_kurp_0080-mesh-uv0-array" count="104" stride="2"><param name="S" type="float"/><param name="T" type="float"/></accessor></technique_common>
      </source>
      <vertices id="vfx_kurp_0080-mesh-vertices"><input semantic="POSITION" source="#vfx_kurp_0080-mesh-positions"/></vertices>
      <triangles material="PreviewMaterial" count="100">
        <input semantic="VERTEX" source="#vfx_kurp_0080-mesh-vertices" offset="0"/>
        <input semantic="NORMAL" source="#vfx_kurp_0080-mesh-normals" offset="1"/>
        <input semantic="TEXCOORD" source="#vfx_kurp_0080-mesh-uv0" offset="2" set="0"/>
        <p>0 0 0 1 1 1 2 2 2 2 2 2 1 1 1 3 3 3 4 4 4 3 3 3 1 1 1 3 3 3 4 4 4 5 5 5 6 6 6 5 5 5 4 4 4 5 5 5 6 6 6 7 7 7 8 8 8 7 7 7 6 6 6 7 7 7 8 8 8 9 9 9 10 10 10 9 9 9 8 8 8 9 9 9 10 10 10 11 11 11 12 12 12 11 11 11 10 10 10 11 11 11 12 12 12 13 13 13 14 14 14 15 15 15 16 16 16 15 15 15 14 14 14 17 17 17 18 18 18 17 17 17 14 14 14 17 17 17 18 18 18 19 19 19 20 20 20 19 19 19 18 18 18 19 19 19 20 20 20 21 21 21 22 22 22 21 21 21 20 20 20 21 21 21 22 22 22 23 23 23 24 24 24 23 23 23 22 22 22 23 23 23 24 24 24 25 25 25 26 26 26 25 25 25 24 24 24 25 25 25 26 26 26 27 27 27 28 28 28 27 27 27 26 26 26 27 27 27 28 28 28 29 29 29 30 30 30 29 29 29 28 28 28 31 31 31 29 29 29 30 30 30 12 12 12 32 32 32 13 13 13 33 33 33 13 13 13 32 32 32 15 15 15 34 34 34 16 16 16 16 16 16 34 34 34 35 35 35 36 36 36 35 35 35 34 34 34 35 35 35 36 36 36 37 37 37 38 38 38 37 37 37 36 36 36 37 37 37 38 38 38 39 39 39 40 40 40 39 39 39 38 38 38 39 39 39 40 40 40 41 41 41 42 42 42 41 41 41 40 40 40 41 41 41 42 42 42 43 43 43 44 44 44 43 43 43 42 42 42 43 43 43 44 44 44 45 45 45 46 46 46 45 45 45 44 44 44 45 45 45 46 46 46 47 47 47 48 48 48 47 47 47 46 46 46 47 47 47 48 48 48 49 49 49 50 50 50 49 49 49 48 48 48 49 49 49 50 50 50 51 51 51 52 52 52 53 53 53 54 54 54 54 54 54 53 53 53 55 55 55 56 56 56 55 55 55 53 53 53 55 55 55 56 56 56 57 57 57 58 58 58 57 57 57 56 56 56 57 57 57 58 58 58 59 59 59 60 60 60 59 59 59 58 58 58 59 59 59 60 60 60 61 61 61 62 62 62 61 61 61 60 60 60 61 61 61 62 62 62 63 63 63 64 64 64 63 63 63 62 62 62 63 63 63 64 64 64 65 65 65 66 66 66 65 65 65 64 64 64 65 65 65 66 66 66 67 67 67 68 68 68 67 67 67 66 66 66 67 67 67 68 68 68 69 69 69 0 0 0 69 69 69 68 68 68 69 69 69 0 0 0 2 2 2 50 50 50 70 70 70 51 51 51 51 51 51 70 70 70 71 71 71 72 72 72 71 71 71 70 70 70 71 71 71 72 72 72 73 73 73 74 74 74 73 73 73 72 72 72 73 73 73 74 74 74 75 75 75 76 76 76 75 75 75 74 74 74 75 75 75 76 76 76 77 77 77 78 78 78 77 77 77 76 76 76 77 77 77 78 78 78 79 79 79 80 80 80 79 79 79 78 78 78 79 79 79 80 80 80 81 81 81 82 82 82 81 81 81 80 80 80 81 81 81 82 82 82 83 83 83 84 84 84 83 83 83 82 82 82 83 83 83 84 84 84 85 85 85 86 86 86 87 87 87 88 88 88 88 88 88 87 87 87 89 89 89 90 90 90 89 89 89 87 87 87 89 89 89 90 90 90 91 91 91 92 92 92 91 91 91 90 90 90 91 91 91 92 92 92 93 93 93 94 94 94 93 93 93 92 92 92 93 93 93 94 94 94 95 95 95 96 96 96 95 95 95 94 94 94 95 95 95 96 96 96 97 97 97 98 98 98 97 97 97 96 96 96 97 97 97 98 98 98 99 99 99 100 100 100 99 99 99 98 98 98 99 99 99 100 100 100 101 101 101 102 102 102 101 101 101 100 100 100 101 101 101 102 102 102 103 103 103 52 52 52 103 103 103 102 102 102 103 103 103 52 52 52 54 54 54</p>
      </triangles>
    </mesh></geometry>
  </library_geometries>
  <library_visual_scenes>
    <visual_scene id="Scene" name="Scene">
      <node id="vfx_kurp_0080" name="vfx_kurp_0080" type="NODE">
        <instance_geometry url="#vfx_kurp_0080-mesh"><bind_material><technique_common><instance_material symbol="PreviewMaterial" target="#PreviewMaterial"><bind_vertex_input semantic="UVSET0" input_semantic="TEXCOORD" input_set="0"/></instance_material></technique_common></bind_material></instance_geometry>
      </node>
    </visual_scene>
  </library_visual_scenes>
  <scene><instance_visual_scene url="#Scene"/></scene>
</COLLADA>
