<?xml version="1.0" encoding="utf-8"?>
<COLLADA xmlns="http://www.collada.org/2005/11/COLLADASchema" version="1.4.1">
  <asset>
    <contributor><authoring_tool>Morrobroom Kurpulio VFX preview converter</authoring_tool></contributor>
    <unit name="unit" meter="1"/>
    <up_axis>Z_UP</up_axis>
  </asset>
  <library_images>
    <image id="VFXTexture" name="darkmap_newgen-1.dds">
      <init_from>../../../Textures/Kurp/darkmap_newgen-1.dds</init_from>
    </image>
  </library_images>
  <library_effects>
    <effect id="PreviewEffect">
      <profile_COMMON>
        <newparam sid="VFXTexture-surface">
          <surface type="2D"><init_from>VFXTexture</init_from></surface>
        </newparam>
        <newparam sid="VFXTexture-sampler">
          <sampler2D><source>VFXTexture-surface</source></sampler2D>
        </newparam>
        <technique sid="common"><phong>
          <emission><color>0.08 0.08 0.08 1</color></emission>
          <ambient><color>0.2 0.2 0.2 1</color></ambient>
          <diffuse><texture texture="VFXTexture-sampler" texcoord="UVSET0"/></diffuse>
          <specular><color>0.15 0.15 0.15 1</color></specular>
          <shininess><float>8</float></shininess>
          <transparent opaque="A_ONE"><texture texture="VFXTexture-sampler" texcoord="UVSET0"/></transparent>
          <transparency><float>1</float></transparency>
        </phong></technique>
      </profile_COMMON>
      <extra><technique profile="GOOGLEEARTH"><double_sided>1</double_sided></technique></extra>
    </effect>
  </library_effects>
  <library_materials><material id="PreviewMaterial" name="PreviewMaterial"><instance_effect url="#PreviewEffect"/></material></library_materials>
  <library_geometries>
    <geometry id="vfx_kurp_0225-mesh" name="vfx_kurp_0225"><mesh>
      <source id="vfx_kurp_0225-mesh-positions">
        <float_array id="vfx_kurp_0225-mesh-positions-array" count="288">0.776753729 1.29970637 -0.217762761 2.08908384 1.73584808 1.33934677 1.62116716 1.77562458e-06 -0.85106653 3.10171836 3.84726788e-06 0.905640543 1.62116716 1.77562458e-06 -0.85106653 3.10171836 3.84726788e-06 0.905640543 0.776757147 -1.29970471 -0.217762694 2.08908847 -1.73584313 1.33934695 2.87488615 2.17198951 3.12196612 3.98824885 5.1277064e-06 2.91676426 3.98824885 5.1277064e-06 2.91676426 2.87489174 -2.17198181 3.12196648 3.08179248 -2.60812137 5.01128268 4.22167054 5.49019414e-06 5.04826176 4.22167054 5.49019414e-06 5.04826176 3.08178587 2.60812978 5.01128268 0.751508624 -1.29776242 -0.27273497 0.393368804 -2.79036214 1.18401074 -0.761244081 -1.31851728 -0.964394689 -1.59141671 -2.75642261 0.679083154 -0.761244081 -1.31851728 -0.964394689 -1.59141671 -2.75642261 0.679083154 -1.49964921 0.00194065947 -0.272734858 -2.61320636 -1.05451977 1.18401074 0.285589064 -3.84932508 2.90329832 -2.13913781 -3.70510548 2.61875707 -2.13913781 -3.70510548 2.61875707 -3.47640339 -1.67734358 2.90329832 -4.0568831 -1.8104842 4.77053618 -2.36790098 -4.1013352 4.72534561 -2.36790098 -4.1013352 4.72534561 0.460526504 -4.41860495 4.77053618 1.39753659 0.178808172 -0.241213806 2.35316203 -0.604100846 0.672181562 0.545392233 -0.94464441 -0.78671059 1.19738972 -2.073934 0.243767783 0.545392233 -0.94464441 -0.78671059 1.19738972 -2.073934 0.243767783 -0.853618068 -1.12090018 -0.241213828 -0.653408802 -2.33995007 0.672181562 3.12809501 -1.07404133 1.80833495 1.6455324 -2.85013742 1.52555841 1.6455324 -2.85013742 1.52555841 -0.633892279 -3.24603149 1.80833495 -0.821543765 -3.79328841 3.09152055 1.859951 -3.22152062 2.97322851 1.859951 -3.22152062 2.97322851 3.69585927 -1.18515753 3.09152055 -1.39753641 -0.178808121 -0.241213851 -2.35316212 0.604101001 0.672181472 -0.545392046 0.944644208 -0.786710948 -1.19738944 2.07393396 0.243767649 -0.545392046 0.944644208 -0.786710948 -1.19738944 2.07393396 0.243767649 0.853618246 1.12089987 -0.241213828 0.653409136 2.33994985 0.672181338 -3.12809464 1.07404176 1.80833477 -1.64553203 2.85013763 1.52555823 -1.64553203 2.85013763 1.52555823 0.633892678 3.24603151 1.80833459 0.82154423 3.79328868 3.09152019 -1.85995064 3.22152124 2.97322816 -1.85995064 3.22152124 2.97322816 -3.69585907 1.18515826 3.09152055 -1.52249153 -1.95424045e-06 -0.79595679 -0.748140403 -1.29970671 -0.222010933 -3.18284085 -3.72598947e-06 0.567816362 -2.21983996 -1.73584842 0.986809731 -4.27828553 -4.93753856e-06 2.17737526 -3.19081876 -2.17198925 2.41349047 -4.73581208 -5.28654414e-06 3.92544186 -3.59636091 -2.60812976 3.96294165 -0.748144276 1.29970483 -0.222011156 -1.52249153 -1.95424045e-06 -0.79595679 -2.21984481 1.73584334 0.986809731 -3.18284085 -3.72598947e-06 0.567816362 -3.19082498 2.17198279 2.4134903 -4.27828553 -4.93753856e-06 2.17737526 -3.59636866 2.60812212 3.96294165 -4.73581208 -5.28654414e-06 3.92544186 0.810581784 1.40397283 -0.701916084 -0.73720214 1.32254187 -0.176394738 1.55085579 2.68616895 0.755815387 -0.458747051 2.67712449 1.11570901 1.99412006 3.45392764 2.42466438 -0.443554977 3.57571958 2.59494299 2.11083046 3.65607733 4.19339991 -0.717814066 3.9729709 4.16271472 1.51395604 0.0228386863 -0.176394671 0.810581784 1.40397283 -0.701916084 2.54782873 0.941281965 1.11570901 1.55085579 2.68616895 0.755815387 3.31843799 1.40373809 2.59494299 1.99412006 3.45392764 2.42466438 3.79959667 1.36484998 4.16271508 2.11083046 3.65607733 4.19339991</float_array>
        <technique_common><accessor source="#vfx_kurp_0225-mesh-positions-array" count="96" stride="3"><param name="X" type="float"/><param name="Y" type="float"/><param name="Z" type="float"/></accessor></technique_common>
      </source>
      <source id="vfx_kurp_0225-mesh-normals">
        <float_array id="vfx_kurp_0225-mesh-normals-array" count="288">0.505317925 0.620509916 -0.599684282 0.66434631 0.548054006 -0.508213328 0.581181982 0.572775487 -0.57806206 0.722007744 0.505034965 -0.47291067 0.593948212 -0.629799102 -0.500578278 0.695343584 -0.553264591 -0.458688993 0.593433111 -0.572824074 -0.565428795 0.69592895 -0.498964802 -0.516446535 0.827688393 0.478121598 -0.2938225 0.8630224 0.440084117 -0.248028843 0.841288931 -0.481640985 -0.245468727 0.852460986 -0.435019266 -0.289945694 0.90079063 -0.391010859 -0.188909366 0.8915145 -0.432046029 -0.136154784 0.912243279 0.397280888 -0.0999004295 0.888334418 0.432546411 -0.154160837 0.30418221 -0.701741391 -0.64422993 0.159895043 -0.8059919 -0.569921602 0.225994167 -0.7427355 -0.630294069 0.0936947031 -0.836025441 -0.54063182 -0.814925712 -0.164637942 -0.55568915 -0.799932785 -0.292112999 -0.52419227 -0.76348829 -0.187818661 -0.617907583 -0.750852729 -0.314208767 -0.580941503 0.0122595465 -0.926115354 -0.377041183 -0.0398260514 -0.941627064 -0.334293819 -0.820788869 -0.466797484 -0.329250273 -0.783492431 -0.494803737 -0.375910724 -0.77503363 -0.565862395 -0.281287437 -0.808810909 -0.541777564 -0.228696273 -0.106257851 -0.975043282 -0.194935548 -0.0620718842 -0.967340143 -0.245764376 0.636783679 -0.11263722 -0.762770872 0.671846112 -0.295490749 -0.679196598 0.637543665 -0.214783857 -0.739868887 0.668396923 -0.374667036 -0.642549738 -0.173185801 -0.716555682 -0.675688267 -0.0628223891 -0.774751386 -0.629137216 -0.131110676 -0.659036469 -0.740594979 -0.0215404876 -0.728678069 -0.684517552 0.725753692 -0.503788609 -0.46848545 0.715592381 -0.558330361 -0.419755586 0.0818801657 -0.905606484 -0.416140042 0.121555128 -0.878071605 -0.46283324 0.178881118 -0.914171641 -0.363719338 0.148811143 -0.94265931 -0.298745158 0.722841294 -0.635989572 -0.270217926 0.734860228 -0.589474326 -0.335410888 -0.636783679 0.112636999 -0.762770904 -0.671846151 0.295490843 -0.679196518 -0.63754362 0.214783865 -0.739868923 -0.668396837 0.374667169 -0.64254975 0.173185982 0.716555706 -0.675688194 0.0628225011 0.774751322 -0.629137284 0.131110816 0.659036424 -0.740594994 0.0215405215 0.728677954 -0.684517674 -0.725753636 0.503788636 -0.468485507 -0.715592317 0.558330381 -0.419755668 -0.0818800555 0.905606423 -0.416140196 -0.121555019 0.878071512 -0.462833444 -0.178880981 0.914171584 -0.363719547 -0.148811083 0.942659246 -0.298745388 -0.722841257 0.635989514 -0.270218161 -0.734860156 0.589474312 -0.335411071 -0.515239935 -0.583983611 -0.627288572 -0.502076461 -0.521089915 -0.690206149 -0.623933629 -0.516876963 -0.586127147 -0.601590373 -0.45708912 -0.655101945 -0.799512037 -0.467619975 -0.376977534 -0.796077395 -0.415577708 -0.43994994 -0.863315745 -0.428340081 -0.266853328 -0.862274867 -0.381504118 -0.333071557 -0.418084933 0.563671674 -0.712375767 -0.490684784 0.520530103 -0.698768098 -0.574445232 0.506727182 -0.642837645 -0.643770552 0.467181162 -0.606053825 -0.770170925 0.460490946 -0.441344349 -0.819912829 0.423921194 -0.384751574 -0.853848368 0.427021776 -0.29764974 -0.88992765 0.392142232 -0.232923264 -0.235465721 0.785934537 -0.571719159 -0.183458434 0.745705038 -0.640520881 -0.12329528 0.846887078 -0.517281887 -0.0776641205 0.802940264 -0.590978187 0.00326711076 0.959346577 -0.282211749 0.0514854443 0.937913942 -0.34302578 0.0675298438 0.985216317 -0.157443731 0.110876553 0.967834176 -0.225839317 0.732696201 0.11812121 -0.670226571 0.733053155 0.206449393 -0.648083112 0.763276758 0.282066538 -0.581246126 0.762589293 0.362595953 -0.535706771 0.812927187 0.466962435 -0.347987749 0.801746899 0.524247634 -0.286995345 0.815672047 0.546104463 -0.190916281 0.798375662 0.590057405 -0.120118945</float_array>
        <technique_common><accessor source="#vfx_kurp_0225-mesh-normals-array" count="96" stride="3"><param name="X" type="float"/><param name="Y" type="float"/><param name="Z" type="float"/></accessor></technique_common>
      </source>
      <source id="vfx_kurp_0225-mesh-uv0">
        <float_array id="vfx_kurp_0225-mesh-uv0-array" count="192">1 1 1 0.666666627 0.5 1 0.5 0.666666627 0.5 1 0.5 0.666666627 0 1 0 0.666666627 1 0.333333313 0.5 0.333333313 0.5 0.333333313 0 0.333333313 0 0 0.5 0 0.5 0 1 0 1 1 1 0.666666627 0.5 1 0.5 0.666666627 0.5 1 0.5 0.666666627 0 1 0 0.666666627 1 0.333333313 0.5 0.333333313 0.5 0.333333313 0 0.333333313 0 0 0.5 0 0.5 0 1 0 1 1 1 0.666666627 0.5 1 0.5 0.666666627 0.5 1 0.5 0.666666627 0 1 0 0.666666627 1 0.333333313 0.5 0.333333313 0.5 0.333333313 0 0.333333313 0 0 0.5 0 0.5 0 1 0 1 1 1 0.666666627 0.5 1 0.5 0.666666627 0.5 1 0.5 0.666666627 0 1 0 0.666666627 1 0.333333313 0.5 0.333333313 0.5 0.333333313 0 0.333333313 0 0 0.5 0 0.5 0 1 0 0.5 1 0 1 0.5 0.666666627 0 0.666666627 0.5 0.333333313 0 0.333333313 0.5 0 0 0 1 1 0.5 1 1 0.666666627 0.5 0.666666627 1 0.333333313 0.5 0.333333313 1 0 0.5 0 0.5 1 0 1 0.5 0.666666627 0 0.666666627 0.5 0.333333313 0 0.333333313 0.5 0 0 0 1 1 0.5 1 1 0.666666627 0.5 0.666666627 1 0.333333313 0.5 0.333333313 1 0 0.5 0</float_array>
        <technique_common><accessor source="#vfx_kurp_0225-mesh-uv0-array" count="96" stride="2"><param name="S" type="float"/><param name="T" type="float"/></accessor></technique_common>
      </source>
      <vertices id="vfx_kurp_0225-mesh-vertices"><input semantic="POSITION" source="#vfx_kurp_0225-mesh-positions"/></vertices>
      <triangles material="PreviewMaterial" count="72">
        <input semantic="VERTEX" source="#vfx_kurp_0225-mesh-vertices" offset="0"/>
        <input semantic="NORMAL" source="#vfx_kurp_0225-mesh-normals" offset="1"/>
        <input semantic="TEXCOORD" source="#vfx_kurp_0225-mesh-uv0" offset="2" set="0"/>
        <p>0 0 0 1 1 1 2 2 2 3 3 3 2 2 2 1 1 1 4 4 4 5 5 5 6 6 6 7 7 7 6 6 6 5 5 5 1 1 1 8 8 8 3 3 3 9 9 9 3 3 3 8 8 8 5 5 5 10 10 10 7 7 7 11 11 11 7 7 7 10 10 10 12 12 12 11 11 11 13 13 13 10 10 10 13 13 13 11 11 11 14 14 14 9 9 9 15 15 15 8 8 8 15 15 15 9 9 9 16 16 16 17 17 17 18 18 18 19 19 19 18 18 18 17 17 17 20 20 20 21 21 21 22 22 22 23 23 23 22 22 22 21 21 21 17 17 17 24 24 24 19 19 19 25 25 25 19 19 19 24 24 24 21 21 21 26 26 26 23 23 23 27 27 27 23 23 23 26 26 26 28 28 28 27 27 27 29 29 29 26 26 26 29 29 29 27 27 27 30 30 30 25 25 25 31 31 31 24 24 24 31 31 31 25 25 25 32 32 32 33 33 33 34 34 34 35 35 35 34 34 34 33 33 33 36 36 36 37 37 37 38 38 38 39 39 39 38 38 38 37 37 37 33 33 33 40 40 40 35 35 35 41 41 41 35 35 35 40 40 40 37 37 37 42 42 42 39 39 39 43 43 43 39 39 39 42 42 42 44 44 44 43 43 43 45 45 45 42 42 42 45 45 45 43 43 43 46 46 46 41 41 41 47 47 47 40 40 40 47 47 47 41 41 41 48 48 48 49 49 49 50 50 50 51 51 51 50 50 50 49 49 49 52 52 52 53 53 53 54 54 54 55 55 55 54 54 54 53 53 53 49 49 49 56 56 56 51 51 51 57 57 57 51 51 51 56 56 56 53 53 53 58 58 58 55 55 55 59 59 59 55 55 55 58 58 58 60 60 60 59 59 59 61 61 61 58 58 58 61 61 61 59 59 59 62 62 62 57 57 57 63 63 63 56 56 56 63 63 63 57 57 57 64 64 64 65 65 65 66 66 66 67 67 67 66 66 66 65 65 65 66 66 66 67 67 67 68 68 68 69 69 69 68 68 68 67 67 67 68 68 68 69 69 69 70 70 70 71 71 71 70 70 70 69 69 69 72 72 72 73 73 73 74 74 74 75 75 75 74 74 74 73 73 73 74 74 74 75 75 75 76 76 76 77 77 77 76 76 76 75 75 75 76 76 76 77 77 77 78 78 78 79 79 79 78 78 78 77 77 77 80 80 80 81 81 81 82 82 82 83 83 83 82 82 82 81 81 81 82 82 82 83 83 83 84 84 84 85 85 85 84 84 84 83 83 83 84 84 84 85 85 85 86 86 86 87 87 87 86 86 86 85 85 85 88 88 88 89 89 89 90 90 90 91 91 91 90 90 90 89 89 89 90 90 90 91 91 91 92 92 92 93 93 93 92 92 92 91 91 91 92 92 92 93 93 93 94 94 94 95 95 95 94 94 94 93 93 93</p>
      </triangles>
    </mesh></geometry>
  </library_geometries>
  <library_visual_scenes>
    <visual_scene id="Scene" name="Scene">
      <node id="vfx_kurp_0225" name="vfx_kurp_0225" type="NODE">
        <instance_geometry url="#vfx_kurp_0225-mesh"><bind_material><technique_common><instance_material symbol="PreviewMaterial" target="#PreviewMaterial"><bind_vertex_input semantic="UVSET0" input_semantic="TEXCOORD" input_set="0"/></instance_material></technique_common></bind_material></instance_geometry>
      </node>
    </visual_scene>
  </library_visual_scenes>
  <scene><instance_visual_scene url="#Scene"/></scene>
</COLLADA>
