<?xml version="1.0" encoding="utf-8"?>
<COLLADA xmlns="http://www.collada.org/2005/11/COLLADASchema" version="1.4.1">
  <asset>
    <contributor><authoring_tool>Morrobroom Kurpulio VFX preview converter</authoring_tool></contributor>
    <unit name="unit" meter="1"/>
    <up_axis>Z_UP</up_axis>
  </asset>
  <library_images>
    <image id="VFXTexture" name="darkmap_newgen-1.dds">
      <init_from>../../../Textures/Kurp/darkmap_newgen-1.dds</init_from>
    </image>
  </library_images>
  <library_effects>
    <effect id="PreviewEffect">
      <profile_COMMON>
        <newparam sid="VFXTexture-surface">
          <surface type="2D"><init_from>VFXTexture</init_from></surface>
        </newparam>
        <newparam sid="VFXTexture-sampler">
          <sampler2D><source>VFXTexture-surface</source></sampler2D>
        </newparam>
        <technique sid="common"><phong>
          <emission><color>0.08 0.08 0.08 1</color></emission>
          <ambient><color>0.2 0.2 0.2 1</color></ambient>
          <diffuse><texture texture="VFXTexture-sampler" texcoord="UVSET0"/></diffuse>
          <specular><color>0.15 0.15 0.15 1</color></specular>
          <shininess><float>8</float></shininess>
          <transparent opaque="A_ONE"><texture texture="VFXTexture-sampler" texcoord="UVSET0"/></transparent>
          <transparency><float>1</float></transparency>
        </phong></technique>
      </profile_COMMON>
      <extra><technique profile="GOOGLEEARTH"><double_sided>1</double_sided></technique></extra>
    </effect>
  </library_effects>
  <library_materials><material id="PreviewMaterial" name="PreviewMaterial"><instance_effect url="#PreviewEffect"/></material></library_materials>
  <library_geometries>
    <geometry id="vfx_kurp_0200-mesh" name="vfx_kurp_0200"><mesh>
      <source id="vfx_kurp_0200-mesh-positions">
        <float_array id="vfx_kurp_0200-mesh-positions-array" count="144">0.687271774 8.93725168e-07 -20.4460487 0.687271774 5.95816778e-07 -13.6306992 -0.687271774 8.93725168e-07 -20.4460487 -0.687271774 5.95816778e-07 -13.6306992 0.687271774 -5.95816695e-07 13.6306973 -0.687271774 -5.95816695e-07 13.6306973 0.687271774 -8.93725084e-07 20.4460468 -0.687271774 -8.93725084e-07 20.4460468 4.38748231e-07 -0.687271297 -20.4460507 2.50713271e-07 -0.687271476 -13.6306992 4.38748231e-07 0.68727225 -20.4460506 2.50713271e-07 0.687272072 -13.6306991 -2.50713271e-07 -0.687272072 13.6306972 -2.50713271e-07 0.687271476 13.6306973 -4.38748231e-07 -0.68727225 20.4460468 -4.38748231e-07 0.687271297 20.4460469 1.78280878 -3.941634 -20.3312094 1.78280878 -3.94163419 -16.1331808 0.936136007 -3.941634 -20.3312094 0.936136007 -3.94163419 -16.1331808 1.78280878 -3.94163492 0.658925421 0.936136007 -3.94163492 0.658925421 1.78280878 -3.94163511 4.85695202 0.936136007 -3.94163511 4.85695202 1.35947263 -4.36497075 -20.3312094 1.35947251 -4.36497093 -16.1331808 1.35947263 -3.51829774 -20.3312093 1.35947251 -3.51829792 -16.1331808 1.35947227 -4.36497119 0.658925402 1.35947227 -3.51829842 0.658925439 1.35947216 -4.36497137 4.856952 1.35947216 -3.5182986 4.85695204 3.12315893 -1.73566339 -19.7535554 3.12315893 -1.73566361 -14.587576 2.08126593 -1.73566339 -19.7535554 2.08126593 -1.73566361 -14.587576 3.12315893 -1.73566451 6.07634775 2.08126593 -1.73566451 6.07634775 3.12315893 -1.73566474 11.2423286 2.08126593 -1.73566474 11.2423286 2.60221267 -2.25661025 -19.7535573 2.60221267 -2.25661047 -14.587576 2.60221267 -1.21471712 -19.7535573 2.60221267 -1.21471723 -14.587576 2.60221219 -2.2566109 6.07634773 2.60221219 -1.21471777 6.07634777 2.60221219 -2.25661088 11.2423285 2.60221219 -1.21471776 11.2423286</float_array>
        <technique_common><accessor source="#vfx_kurp_0200-mesh-positions-array" count="48" stride="3"><param name="X" type="float"/><param name="Y" type="float"/><param name="Z" type="float"/></accessor></technique_common>
      </source>
      <source id="vfx_kurp_0200-mesh-normals">
        <float_array id="vfx_kurp_0200-mesh-normals-array" count="144">0 -1 -4.37113879e-08 0 -1 -4.37113879e-08 0 -1 -4.37113879e-08 0 -1 -4.37113879e-08 0 -1 -4.37113879e-08 0 -1 -4.37113879e-08 0 -1 -4.37113879e-08 0 -1 -4.37113879e-08 -1 0 -2.75899161e-08 -1 0 -2.2991598e-08 -1 0 -2.75899144e-08 -1 0 -2.29915997e-08 -1 0 -2.29916033e-08 -1 0 -2.29916033e-08 -1 0 -2.75899215e-08 -1 0 -2.75899232e-08 0 -1 -4.37113883e-08 0 -1 -4.37113883e-08 0 -1 -4.37113883e-08 0 -1 -4.37113883e-08 0 -1 -4.37113883e-08 0 -1 -4.37113883e-08 0 -1 -4.37113883e-08 0 -1 -4.37113883e-08 -1 0 -2.8396494e-08 -1 0 -2.12973745e-08 -1 0 -2.8396494e-08 -1 0 -2.12973763e-08 -1 0 -2.12973799e-08 -1 0 -2.12973799e-08 -1 0 -2.83965065e-08 -1 0 -2.83965047e-08 0 -1 -4.37113883e-08 0 -1 -4.37113883e-08 0 -1 -4.37113883e-08 0 -1 -4.37113883e-08 0 -1 -4.37113883e-08 0 -1 -4.37113883e-08 0 -1 -4.37113883e-08 0 -1 -4.37113883e-08 -1 0 0 -1 0 -1.15379155e-08 -1 0 0 -1 0 -1.15379128e-08 -1 0 -1.15379128e-08 -1 0 -1.15379155e-08 -1 0 0 -1 0 0</float_array>
        <technique_common><accessor source="#vfx_kurp_0200-mesh-normals-array" count="48" stride="3"><param name="X" type="float"/><param name="Y" type="float"/><param name="Z" type="float"/></accessor></technique_common>
      </source>
      <source id="vfx_kurp_0200-mesh-uv0">
        <float_array id="vfx_kurp_0200-mesh-uv0-array" count="96">1 1 1 0.833333313 0 1 0 0.833333313 1 0.166666627 0 0.166666627 1 0 0 0 1 1 1 0.833333313 0 1 0 0.833333313 1 0.166666627 0 0.166666627 1 0 0 0 1 1 1 0.833333313 0 1 0 0.833333313 1 0.166666627 0 0.166666627 1 0 0 0 1 1 1 0.833333313 0 1 0 0.833333313 1 0.166666627 0 0.166666627 1 0 0 0 1 1 1 0.833333313 0 1 0 0.833333313 1 0.166666627 0 0.166666627 1 0 0 0 1 1 1 0.833333313 0 1 0 0.833333313 1 0.166666627 0 0.166666627 1 0 0 0</float_array>
        <technique_common><accessor source="#vfx_kurp_0200-mesh-uv0-array" count="48" stride="2"><param name="S" type="float"/><param name="T" type="float"/></accessor></technique_common>
      </source>
      <source id="vfx_kurp_0200-mesh-colors">
        <float_array id="vfx_kurp_0200-mesh-colors-array" count="192">0 0 0 0 0 0 0 1 0 0 0 0 0 0 0 1 0 0 0 1 0 0 0 1 0 0 0 0 0 0 0 0 0 0 0 0 0 0 0 1 0 0 0 0 0 0 0 1 0 0 0 1 0 0 0 1 0 0 0 0 0 0 0 0 0 0 0 0 0 0 0 1 0 0 0 0 0 0 0 1 0 0 0 1 0 0 0 1 0 0 0 0 0 0 0 0 0 0 0 0 0 0 0 1 0 0 0 0 0 0 0 1 0 0 0 1 0 0 0 1 0 0 0 0 0 0 0 0 0 0 0 0 0 0 0 1 0 0 0 0 0 0 0 1 0 0 0 1 0 0 0 1 0 0 0 0 0 0 0 0 0 0 0 0 0 0 0 1 0 0 0 0 0 0 0 1 0 0 0 1 0 0 0 1 0 0 0 0 0 0 0 0</float_array>
        <technique_common><accessor source="#vfx_kurp_0200-mesh-colors-array" count="48" stride="4"><param name="R" type="float"/><param name="G" type="float"/><param name="B" type="float"/><param name="A" type="float"/></accessor></technique_common>
      </source>
      <vertices id="vfx_kurp_0200-mesh-vertices"><input semantic="POSITION" source="#vfx_kurp_0200-mesh-positions"/></vertices>
      <triangles material="PreviewMaterial" count="36">
        <input semantic="VERTEX" source="#vfx_kurp_0200-mesh-vertices" offset="0"/>
        <input semantic="NORMAL" source="#vfx_kurp_0200-mesh-normals" offset="1"/>
        <input semantic="TEXCOORD" source="#vfx_kurp_0200-mesh-uv0" offset="2" set="0"/>
        <input semantic="COLOR" source="#vfx_kurp_0200-mesh-colors" offset="3" set="0"/>
        <p>0 0 0 0 1 1 1 1 2 2 2 2 2 2 2 2 1 1 1 1 3 3 3 3 4 4 4 4 3 3 3 3 1 1 1 1 3 3 3 3 4 4 4 4 5 5 5 5 6 6 6 6 5 5 5 5 4 4 4 4 5 5 5 5 6 6 6 6 7 7 7 7 8 8 8 8 9 9 9 9 10 10 10 10 10 10 10 10 9 9 9 9 11 11 11 11 12 12 12 12 11 11 11 11 9 9 9 9 11 11 11 11 12 12 12 12 13 13 13 13 14 14 14 14 13 13 13 13 12 12 12 12 13 13 13 13 14 14 14 14 15 15 15 15 16 16 16 16 17 17 17 17 18 18 18 18 18 18 18 18 17 17 17 17 19 19 19 19 20 20 20 20 19 19 19 19 17 17 17 17 19 19 19 19 20 20 20 20 21 21 21 21 22 22 22 22 21 21 21 21 20 20 20 20 21 21 21 21 22 22 22 22 23 23 23 23 24 24 24 24 25 25 25 25 26 26 26 26 26 26 26 26 25 25 25 25 27 27 27 27 28 28 28 28 27 27 27 27 25 25 25 25 27 27 27 27 28 28 28 28 29 29 29 29 30 30 30 30 29 29 29 29 28 28 28 28 29 29 29 29 30 30 30 30 31 31 31 31 32 32 32 32 33 33 33 33 34 34 34 34 34 34 34 34 33 33 33 33 35 35 35 35 36 36 36 36 35 35 35 35 33 33 33 33 35 35 35 35 36 36 36 36 37 37 37 37 38 38 38 38 37 37 37 37 36 36 36 36 37 37 37 37 38 38 38 38 39 39 39 39 40 40 40 40 41 41 41 41 42 42 42 42 42 42 42 42 41 41 41 41 43 43 43 43 44 44 44 44 43 43 43 43 41 41 41 41 43 43 43 43 44 44 44 44 45 45 45 45 46 46 46 46 45 45 45 45 44 44 44 44 45 45 45 45 46 46 46 46 47 47 47 47</p>
      </triangles>
    </mesh></geometry>
  </library_geometries>
  <library_visual_scenes>
    <visual_scene id="Scene" name="Scene">
      <node id="vfx_kurp_0200" name="vfx_kurp_0200" type="NODE">
        <instance_geometry url="#vfx_kurp_0200-mesh"><bind_material><technique_common><instance_material symbol="PreviewMaterial" target="#PreviewMaterial"><bind_vertex_input semantic="UVSET0" input_semantic="TEXCOORD" input_set="0"/></instance_material></technique_common></bind_material></instance_geometry>
      </node>
    </visual_scene>
  </library_visual_scenes>
  <scene><instance_visual_scene url="#Scene"/></scene>
</COLLADA>
