<?xml version="1.0" encoding="utf-8"?>
<COLLADA xmlns="http://www.collada.org/2005/11/COLLADASchema" version="1.4.1">
  <asset>
    <contributor><authoring_tool>Morrobroom Kurpulio VFX preview converter</authoring_tool></contributor>
    <unit name="unit" meter="1"/>
    <up_axis>Z_UP</up_axis>
  </asset>
  <library_images>
    <image id="VFXTexture" name="darkmap_newgen-1.dds">
      <init_from>../../../Textures/Kurp/darkmap_newgen-1.dds</init_from>
    </image>
  </library_images>
  <library_effects>
    <effect id="PreviewEffect">
      <profile_COMMON>
        <newparam sid="VFXTexture-surface">
          <surface type="2D"><init_from>VFXTexture</init_from></surface>
        </newparam>
        <newparam sid="VFXTexture-sampler">
          <sampler2D><source>VFXTexture-surface</source></sampler2D>
        </newparam>
        <technique sid="common"><phong>
          <emission><color>0.08 0.08 0.08 1</color></emission>
          <ambient><color>0.2 0.2 0.2 1</color></ambient>
          <diffuse><texture texture="VFXTexture-sampler" texcoord="UVSET0"/></diffuse>
          <specular><color>0.15 0.15 0.15 1</color></specular>
          <shininess><float>8</float></shininess>
          <transparent opaque="A_ONE"><texture texture="VFXTexture-sampler" texcoord="UVSET0"/></transparent>
          <transparency><float>1</float></transparency>
        </phong></technique>
      </profile_COMMON>
      <extra><technique profile="GOOGLEEARTH"><double_sided>1</double_sided></technique></extra>
    </effect>
  </library_effects>
  <library_materials><material id="PreviewMaterial" name="PreviewMaterial"><instance_effect url="#PreviewEffect"/></material></library_materials>
  <library_geometries>
    <geometry id="vfx_kurp_1173-mesh" name="vfx_kurp_1173"><mesh>
      <source id="vfx_kurp_1173-mesh-positions">
        <float_array id="vfx_kurp_1173-mesh-positions-array" count="432">-0.470180056 -13.8905522 -0.900800748 1.10758909 -13.0949866 -0.749962946 1.32866149 -13.4125318 -2.29755024 3.10733859 -12.5638229 -2.70440097 -0.458709796 -12.1622405 -1.27806645 3.10733859 -12.5638229 -2.70440097 1.10758909 -13.0949866 -0.749962946 3.10733859 -12.5638229 -2.70440097 -0.458709796 -12.1622405 -1.27806645 1.48400393 -11.7267443 -2.18240354 0.317476228 -11.4307531 0.0644518236 1.48400393 -11.7267443 -2.18240354 -0.458709796 -12.1622405 -1.27806645 1.89711101 -11.2097132 0.100418096 1.63947957 -10.2397846 -1.10114018 1.89711101 -11.2097132 0.100418096 0.317476228 -11.4307531 0.0644518236 3.39273014 -10.0029166 -0.782051348 2.21971515 -9.84580737 -0.903184317 3.39273014 -10.0029166 -0.782051348 1.63947957 -10.2397846 -1.10114018 3.39273014 -10.0029166 -0.782051348 2.21971515 -9.84580737 -0.903184317 3.79629126 -9.61176559 -0.862281032 0.0629822514 -8.8665478 0.216506047 3.79629126 -9.61176559 -0.862281032 2.21971515 -9.84580737 -0.903184317 1.36843935 -8.64162596 0.12109682 -0.0698409513 -13.443055 -2.58356794 1.48318224 -12.5506617 -2.42266866 1.15433501 -13.9824 -0.568812731 2.34711921 -13.1596378 -0.144757364 0.0356289637 -11.7518956 -2.59206469 2.34711921 -13.1596378 -0.144757364 1.48318224 -12.5506617 -2.42266866 1.22785746 -12.3053057 -0.457964566 0.817370355 -11.0914397 -0.570620282 1.22785746 -12.3053057 -0.457964566 0.0356289637 -11.7518956 -2.59206469 1.62544784 -11.5689125 1.04006546 2.26174389 -9.90928503 -1.82494731 1.62544784 -11.5689125 1.04006546 0.817370355 -11.0914397 -0.570620282 1.62544784 -11.5689125 1.04006546 2.26174389 -9.90928503 -1.82494731 2.34001333 -10.4250024 0.104028897 2.82425601 -9.51973956 -1.56621571 2.73908537 -10.027816 0.239798593 0.694475155 -8.61910248 -0.358419914 2.73908537 -10.027816 0.239798593 2.82425601 -9.51973956 -1.56621571 0.658539197 -9.03266615 1.15734504 0.480667559 -13.6560396 0.541396797 1.10509115 -11.6921405 -0.385992191 0.767240379 -13.2673076 -0.707580615 1.57992459 -11.0318226 -3.17937749 -1.06443064 -9.37182473 -0.641053925 1.57992459 -11.0318226 -3.17937749 1.10509115 -11.6921405 -0.385992191 -0.0581344877 -9.17649175 -3.3531024 -0.702026187 -7.10779736 0.2099073 -0.0581344877 -9.17649175 -3.3531024 -1.06443064 -9.37182473 -0.641053925 -0.0581344877 -9.17649175 -3.3531024 -0.702026187 -7.10779736 0.2099073 0.95056539 -7.2108921 -1.82673424 -0.955333595 -5.11215253 -0.813761941 0.95056539 -7.2108921 -1.82673424 -0.702026187 -7.10779736 0.2099073 0.734271014 -4.69722577 -3.04815819 -0.40777129 -3.64347026 1.77412433 0.734271014 -4.69722577 -3.04815819 -0.955333595 -5.11215253 -0.813761941 0.794349178 -3.15792301 -0.0427949696 -2.03264529 -0.258044521 1.93126089 0.794349178 -3.15792301 -0.0427949696 -0.40777129 -3.64347026 1.77412433 -1.76114188 -0.0679246059 1.52063934 0.181103243 -13.3699903 -0.332219391 0.565339807 -11.0297441 -1.76978597 1.19340108 -13.6676511 0.139880023 2.41042911 -11.6994175 -0.259685831 -1.21939662 -9.31368387 -2.36602984 2.41042911 -11.6994175 -0.259685831 0.565339807 -11.0297441 -1.76978597 0.527589362 -9.26666254 -1.08497706 -0.437551001 -7.1772983 -1.38627089 1.20941117 -6.89515173 0.0389250318 -0.784522728 -4.96026345 -2.64647652 1.20941117 -6.89515173 0.0389250318 -0.784522728 -4.96026345 -2.64647652 0.398355021 -4.96384112 -0.451979159 -0.378201021 -3.21484237 0.306730378 0.789711362 -3.92835536 1.96318052 -2.01788569 -0.081026588 1.52244146 -1.76309518 -0.297470714 2.07536746 0.973921513 -13.9011059 0.703882778 1.20771014 -12.1365802 0.608828946 0.978914851 -13.9055324 -0.127531738 0.889551109 -11.9103164 -1.20373955 0.816698603 -10.2930404 1.64308882 0.897194196 -10.4574705 0.626793014 -0.767543579 -9.42129469 1.49231166 0.897194196 -10.4574705 0.626793014 0.816698603 -10.2930404 1.64308882 -1.00059636 -9.2706579 0.296135486 -0.0716965982 -7.52559601 1.71339851 -1.00059636 -9.2706579 0.296135486 -0.767543579 -9.42129469 1.49231166 -0.424820564 -7.16488924 -0.824975177 0.367332021 -6.25789873 2.60141044 0.170310149 -6.24531187 0.85405502 -0.0847008007 -4.17020511 1.15380693 0.170310149 -6.24531187 0.85405502 0.367332021 -6.25789873 2.60141044 -0.0310806287 -4.12393944 0.0729812814 -0.417692105 -2.26445343 3.27421604 -0.452197075 -2.27258438 2.82574299 0.631867287 -13.9824511 0.375635513 0.25320763 -12.1225966 0.13044469 1.37949814 -13.8460713 0.286809804 2.41722358 -12.1635257 -0.138139328 0.343821911 -10.5702678 1.19226172 2.41722358 -12.1635257 -0.138139328 0.25320763 -12.1225966 0.13044469 1.45959232 -10.2012911 1.29844211 -1.46578197 -9.51250036 1.46753873 1.45959232 -10.2012911 1.29844211 -1.46578197 -9.51250036 1.46753873 -0.00772628074 -9.18917875 0.24752476 -1.28774516 -7.33618687 1.40815427 -0.00772628074 -9.18917875 0.24752476 -1.46578197 -9.51250036 1.46753873 0.9811579 -7.57035941 -0.0251147572 -0.67205854 -6.30906306 1.93809097 1.57761423 -6.29967021 2.02425194 -0.656614902 -4.19982346 0.594790434 1.57761423 -6.29967021 2.02425194 -0.67205854 -6.30906306 1.93809097 0.729658416 -4.15555702 0.855179261 -0.641206403 -2.27990613 2.98303419 0.729658416 -4.15555702 0.855179261 -0.656614902 -4.19982346 0.594790434 -0.167237036 -2.25469956 3.17297175</float_array>
        <technique_common><accessor source="#vfx_kurp_1173-mesh-positions-array" count="144" stride="3"><param name="X" type="float"/><param name="Y" type="float"/><param name="Z" type="float"/></accessor></technique_common>
      </source>
      <source id="vfx_kurp_1173-mesh-normals">
        <float_array id="vfx_kurp_1173-mesh-normals-array" count="432">-0.418770745 0.875926241 -0.239550169 -0.433357881 0.868639353 -0.240138755 -0.44833825 0.860851659 -0.240680775 -0.462314089 0.853301223 -0.241127985 -0.299038589 -0.798214631 -0.522904699 -0.299038618 -0.798214606 -0.522904722 -0.299038618 -0.798214606 -0.522904722 -0.382610569 -0.176451271 -0.906903579 -0.382610569 -0.176451271 -0.906903579 -0.382610568 -0.176451278 -0.906903578 -0.229572516 0.942382254 -0.243335463 -0.241101733 0.938078495 -0.248754278 -0.336896401 0.894858414 -0.292795548 -0.131500604 0.971690318 -0.196279182 0.179785551 -0.746243337 -0.640935283 0.159041109 -0.751270544 -0.640545468 0.120841574 -0.759593563 -0.639073496 0.216154726 -0.736552914 -0.640911023 0.135466996 0.278273951 -0.950900784 0.135466996 0.278273951 -0.950900784 0.135466996 0.278273951 -0.950900784 0.0640959772 -0.263552411 -0.962513289 0.0640959772 -0.263552411 -0.962513289 0.0640959772 -0.263552411 -0.962513289 -0.121929521 0.567726895 -0.81413719 -0.100842172 0.620553278 -0.777653191 -0.0800984886 0.668749815 -0.739160278 -0.148052597 0.496484636 -0.855326508 0.473050793 -0.735902805 -0.484427506 0.522068632 -0.717331193 -0.461389536 0.563375772 -0.699235983 -0.44008724 0.612053895 -0.674705561 -0.412507498 0.528899166 0.848607969 -0.0114100059 0.566993432 0.821302138 -0.0630971205 0.477658356 0.876928717 0.0532777592 0.626179009 0.764821226 -0.151487097 0.8796013 0.260509341 -0.398040747 0.881896718 0.261842305 -0.392041817 0.870733881 0.255454429 -0.420197029 0.890756539 0.267096349 -0.36771229 0.330821108 -0.846593706 -0.416937036 0.330821097 -0.846593705 -0.416937046 0.330821091 -0.84659372 -0.416937021 0.749588845 -0.631225702 -0.199174989 0.650566743 -0.726680444 -0.220677244 0.730491264 -0.656554697 -0.187932019 0.640920623 -0.737242208 -0.213763145 0.722913965 -0.673256116 -0.155311304 0.500257753 0.830337868 0.24552231 0.498483435 0.829900704 0.25055755 0.49629004 0.829332746 0.256716561 0.502662664 0.830897397 0.238620539 -0.960572694 0.236028152 -0.146938123 -0.965343524 0.231610044 -0.120285779 -0.96311227 0.233782158 -0.133269121 -0.966981338 0.229868423 -0.110034542 -0.692607583 -0.660682953 -0.289469812 -0.692820916 -0.660232461 -0.289986682 -0.686823996 -0.672496826 -0.275718729 -0.699281441 -0.646042976 -0.305996633 -0.910000707 0.265390698 -0.318538051 -0.910000701 0.265390724 -0.318538047 -0.910000697 0.265390704 -0.318538075 -0.561119576 0.667768466 -0.489111538 -0.561119576 0.667768466 -0.489111538 -0.561119576 0.667768466 -0.489111538 -0.719698299 -0.370024768 -0.587465768 -0.718921152 -0.368354839 -0.589463391 -0.726256674 -0.384486023 -0.569843611 -0.712681798 -0.355245755 -0.604884376 -0.656482401 0.689433037 -0.306125701 -0.639541585 0.705402819 -0.305603376 -0.585336279 0.752060912 -0.302961754 -0.716501783 0.626591443 -0.306607825 -0.734941367 -0.303734875 -0.606305462 -0.74289087 -0.326344602 -0.584476138 -0.744190728 -0.330232773 -0.580625934 -0.730331853 -0.291404282 -0.617817877 0.221922505 -0.536558494 -0.814159312 0.39533215 -0.475013994 -0.78617695 0.34141982 -0.496473654 -0.798089229 0.465778291 -0.443462453 -0.765762127 0.597164178 0.210449607 -0.77401932 0.622481731 0.314258906 -0.716769024 0.654012676 0.4758628 -0.588066336 0.589561904 0.171727554 -0.789256871 0.646908164 -0.0449309572 -0.761243086 0.655994977 -0.01774955 -0.754556521 0.653742548 -0.294023445 -0.69725956 0.854305357 0.241819147 -0.460093313 0.810220737 0.39162587 -0.436086615 0.814381958 0.398862939 -0.42153337 0.781543819 0.518936148 -0.346257899 0.790287038 0.521877308 -0.321077051 0.801758015 0.561696931 -0.204158375 0.806886214 0.571877966 -0.14795347 -0.991361259 0.13099089 -0.00665138176 -0.984543513 -0.112425444 0.134292926 -0.992463523 0.0974239822 0.0743284851 -0.988081238 -0.0650746132 0.139501831 -0.991719265 -0.120902902 0.0433057496 -0.986515962 0.130176372 -0.0991986352 -0.519062413 -0.85438561 0.0244834863 -0.503106837 -0.861843689 0.0641012241 -0.487008176 -0.867447466 0.101773923 -0.529768389 -0.84813475 -0.00359172368 -0.946878238 0.268687559 0.176716153 -0.92277986 0.331050861 0.197186857 -0.923867483 0.313523424 0.219481062 -0.931925708 0.323465375 0.163965317 -0.950984684 0.271530821 0.147983595 -0.911672779 0.397101585 0.105655461 -0.992686907 -0.117548912 -0.0274764893 -0.98895955 -0.131423112 0.0684614742 -0.984460384 -0.136872844 0.110016253 -0.991293135 -0.122167046 -0.0491236631 -0.961262228 -0.2723961 0.0421342318 -0.940564265 -0.33045278 0.0783570259 -0.0899846095 -0.148158103 -0.984861384 -0.114992755 -0.164035272 -0.979729093 -0.106835897 -0.158865714 -0.981502815 -0.124541563 -0.17007585 -0.977529337 -0.0430253328 0.404136847 -0.913686067 -0.0960411775 0.561375931 -0.821969073 -0.0910058611 0.565845097 -0.81947377 -0.0769244513 0.483534205 -0.871938817 0.00561235584 0.260832118 -0.965367861 -0.226292745 -0.840044041 -0.493069571 -0.226292745 -0.840044041 -0.493069571 -0.226292745 -0.840044041 -0.493069571 -0.508154171 0.350918216 -0.786534007 -0.574188057 0.111401205 -0.811109023 -0.645559724 0.0319901889 -0.763039495 -0.332123996 0.538102883 -0.774686349 -0.210947956 0.731943018 -0.647889171 0.0167756319 0.847573916 -0.530412138 0.110933688 -0.475900453 -0.872474914 0.082049849 -0.499706312 -0.862300078 0.0345229194 -0.537035977 -0.842852613 0.18075342 -0.414764655 -0.89179509 0.1662592 0.790396455 -0.589602681 0.103453284 0.778257381 -0.61936489 0.0924793841 0.77575117 -0.624225668 0.18933455 0.793897644 -0.577822602</float_array>
        <technique_common><accessor source="#vfx_kurp_1173-mesh-normals-array" count="144" stride="3"><param name="X" type="float"/><param name="Y" type="float"/><param name="Z" type="float"/></accessor></technique_common>
      </source>
      <source id="vfx_kurp_1173-mesh-uv0">
        <float_array id="vfx_kurp_1173-mesh-uv0-array" count="288">0 0 0 0.166666627 1 0 1 0.166666627 0 0.333333313 1 0.166666627 0 0.166666627 1 0.166666627 0 0.333333313 1 0.333333313 0 0.5 1 0.333333313 0 0.333333313 1 0.5 0 0.666666627 1 0.5 0 0.5 1 0.666666627 0 0.833333313 1 0.666666627 0 0.666666627 1 0.666666627 0 0.833333313 1 0.833333313 0 1 1 0.833333313 0 0.833333313 1 1 0 0 0 0.166666627 1 0 1 0.166666627 0 0.333333313 1 0.166666627 0 0.166666627 1 0.333333313 0 0.5 1 0.333333313 0 0.333333313 1 0.5 0 0.666666627 1 0.5 0 0.5 1 0.5 0 0.666666627 1 0.666666627 0 0.833333313 1 0.833333313 0 1 1 0.833333313 0 0.833333313 1 1 0 0 0 0.166666627 1 0 1 0.166666627 0 0.333333313 1 0.166666627 0 0.166666627 1 0.333333313 0 0.5 1 0.333333313 0 0.333333313 1 0.333333313 0 0.5 1 0.5 0 0.666666627 1 0.5 0 0.5 1 0.666666627 0 0.833333313 1 0.666666627 0 0.666666627 1 0.833333313 0 1 1 0.833333313 0 0.833333313 1 1 0 0 0 0.166666627 1 0 1 0.166666627 0 0.333333313 1 0.166666627 0 0.166666627 1 0.333333313 0 0.5 1 0.5 0 0.666666627 1 0.5 0 0.666666627 1 0.666666627 0 0.833333313 1 0.833333313 0 1 1 1 0 0 0 0.166666627 1 0 1 0.166666627 0 0.333333313 1 0.333333313 0 0.5 1 0.333333313 0 0.333333313 1 0.5 0 0.666666627 1 0.5 0 0.5 1 0.666666627 0 0.75 1 0.75 0 0.833333313 1 0.75 0 0.75 1 0.833333313 0 1 1 1 0 0 0 0.166666627 1 0 1 0.166666627 0 0.333333313 1 0.166666627 0 0.166666627 1 0.333333313 0 0.5 1 0.333333313 0 0.5 1 0.5 0 0.666666627 1 0.5 0 0.5 1 0.666666627 0 0.75 1 0.75 0 0.833333313 1 0.75 0 0.75 1 0.833333313 0 1 1 0.833333313 0 0.833333313 1 1</float_array>
        <technique_common><accessor source="#vfx_kurp_1173-mesh-uv0-array" count="144" stride="2"><param name="S" type="float"/><param name="T" type="float"/></accessor></technique_common>
      </source>
      <source id="vfx_kurp_1173-mesh-colors">
        <float_array id="vfx_kurp_1173-mesh-colors-array" count="576">0 0 0 0 0.611764729 0.611764729 0.611764729 1 0 0 0 0 0.505882382 0.505882382 0.505882382 1 0.505882382 0.505882382 0.505882382 1 0.505882382 0.505882382 0.505882382 1 0.611764729 0.611764729 0.611764729 1 0.505882382 0.505882382 0.505882382 1 0.505882382 0.505882382 0.505882382 1 0 0 0 1 0.580392182 0.580392182 0.580392182 1 0 0 0 1 0.505882382 0.505882382 0.505882382 1 0.505882382 0.505882382 0.505882382 1 0 0 0 1 0.505882382 0.505882382 0.505882382 1 0.580392182 0.580392182 0.580392182 1 0.580392182 0.580392182 0.580392182 1 0 0 0 1 0.580392182 0.580392182 0.580392182 1 0 0 0 1 0.580392182 0.580392182 0.580392182 1 0 0 0 1 0 0 0 1 0 0 0 0 0 0 0 1 0 0 0 1 0 0 0 0 0 0 0 0 0 0 0 1 0 0 0 0 0 0 0 1 0 0 0 1 0 0 0 1 0 0 0 1 0 0 0 1 0 0 0 1 0 0 0 1 0 0 0 1 0 0 0 1 0 0 0 1 0 0 0 1 0 0 0 1 0 0 0 1 0 0 0 1 0 0 0 1 0 0 0 1 0 0 0 1 0 0 0 0 0 0 0 1 0 0 0 1 0 0 0 0 0.00784313772 0.00784313772 0.00784313772 0 0.00784313772 0.00784313772 0.00784313772 1 0.00784313772 0.00784313772 0.00784313772 0 0.00784313772 0.00784313772 0.00784313772 1 0.00784313772 0.00784313772 0.00784313772 1 0.00784313772 0.00784313772 0.00784313772 1 0.00784313772 0.00784313772 0.00784313772 1 0.00784313772 0.00784313772 0.00784313772 1 0.00784313772 0.00784313772 0.00784313772 1 0.00784313772 0.00784313772 0.00784313772 1 0.00784313772 0.00784313772 0.00784313772 1 0.00784313772 0.00784313772 0.00784313772 1 0.00784313772 0.00784313772 0.00784313772 1 0.00784313772 0.00784313772 0.00784313772 1 0.00784313772 0.00784313772 0.00784313772 1 0.00784313772 0.00784313772 0.00784313772 1 0.00784313772 0.00784313772 0.00784313772 1 0.00784313772 0.00784313772 0.00784313772 1 0.00784313772 0.00784313772 0.00784313772 1 0.00784313772 0.00784313772 0.00784313772 1 0.00784313772 0.00784313772 0.00784313772 1 0.00784313772 0.00784313772 0.00784313772 1 0.00784313772 0.00784313772 0.00784313772 0 0.00784313772 0.00784313772 0.00784313772 1 0.00784313772 0.00784313772 0.00784313772 1 0.00784313772 0.00784313772 0.00784313772 0 0.00784313772 0.00784313772 0.00784313772 0 0.00784313772 0.00784313772 0.00784313772 1 0.00784313772 0.00784313772 0.00784313772 0 0.00784313772 0.00784313772 0.00784313772 1 0.00784313772 0.00784313772 0.00784313772 1 0.00784313772 0.00784313772 0.00784313772 1 0.00784313772 0.00784313772 0.00784313772 1 0.00784313772 0.00784313772 0.00784313772 1 0.00784313772 0.00784313772 0.00784313772 1 0.00784313772 0.00784313772 0.00784313772 1 0.00784313772 0.00784313772 0.00784313772 1 0.00784313772 0.00784313772 0.00784313772 1 0.00784313772 0.00784313772 0.00784313772 1 0.00784313772 0.00784313772 0.00784313772 1 0.00784313772 0.00784313772 0.00784313772 1 0.00784313772 0.00784313772 0.00784313772 1 0.00784313772 0.00784313772 0.00784313772 0 0.00784313772 0.00784313772 0.00784313772 0 0 0 0 0 0 0 0 1 0 0 0 0 0 0 0 1 0.34117648 0.34117648 0.34117648 1 0 0 0 1 0.282352954 0.282352954 0.282352954 1 0 0 0 1 0.34117648 0.34117648 0.34117648 1 0.356862754 0.356862754 0.356862754 1 0 0 0 1 0.356862754 0.356862754 0.356862754 1 0.282352954 0.282352954 0.282352954 1 0.34117648 0.34117648 0.34117648 1 0 0 0 1 0 0 0 1 0 0 0 1 0 0 0 1 0 0 0 1 0 0 0 1 0 0 0 0 0 0 0 0 0 0 0 0 0 0 0 1 0 0 0 0 0 0 0 1 0 0 0 1 0 0 0 1 0 0 0 1 0 0 0 1 0 0 0 1 0 0 0 1 0 0 0 1 0 0 0 1 0 0 0 1 0 0 0 1 0 0 0 1 0 0 0 1 0 0 0 1 0 0 0 1 0 0 0 1 0 0 0 1 0 0 0 1 0 0 0 1 0 0 0 0 0 0 0 1 0 0 0 1 0 0 0 0</float_array>
        <technique_common><accessor source="#vfx_kurp_1173-mesh-colors-array" count="144" stride="4"><param name="R" type="float"/><param name="G" type="float"/><param name="B" type="float"/><param name="A" type="float"/></accessor></technique_common>
      </source>
      <vertices id="vfx_kurp_1173-mesh-vertices"><input semantic="POSITION" source="#vfx_kurp_1173-mesh-positions"/></vertices>
      <triangles material="PreviewMaterial" count="76">
        <input semantic="VERTEX" source="#vfx_kurp_1173-mesh-vertices" offset="0"/>
        <input semantic="NORMAL" source="#vfx_kurp_1173-mesh-normals" offset="1"/>
        <input semantic="TEXCOORD" source="#vfx_kurp_1173-mesh-uv0" offset="2" set="0"/>
        <input semantic="COLOR" source="#vfx_kurp_1173-mesh-colors" offset="3" set="0"/>
        <p>0 0 0 0 1 1 1 1 2 2 2 2 2 2 2 2 1 1 1 1 3 3 3 3 4 4 4 4 5 5 5 5 6 6 6 6 7 7 7 7 8 8 8 8 9 9 9 9 10 10 10 10 11 11 11 11 12 12 12 12 11 11 11 11 10 10 10 10 13 13 13 13 14 14 14 14 15 15 15 15 16 16 16 16 15 15 15 15 14 14 14 14 17 17 17 17 18 18 18 18 19 19 19 19 20 20 20 20 21 21 21 21 22 22 22 22 23 23 23 23 24 24 24 24 25 25 25 25 26 26 26 26 25 25 25 25 24 24 24 24 27 27 27 27 28 28 28 28 29 29 29 29 30 30 30 30 30 30 30 30 29 29 29 29 31 31 31 31 32 32 32 32 33 33 33 33 34 34 34 34 33 33 33 33 32 32 32 32 35 35 35 35 36 36 36 36 37 37 37 37 38 38 38 38 37 37 37 37 36 36 36 36 39 39 39 39 40 40 40 40 41 41 41 41 42 42 42 42 43 43 43 43 44 44 44 44 45 45 45 45 46 46 46 46 45 45 45 45 44 44 44 44 45 45 45 45 46 46 46 46 47 47 47 47 48 48 48 48 49 49 49 49 50 50 50 50 49 49 49 49 48 48 48 48 51 51 51 51 52 52 52 52 53 53 53 53 54 54 54 54 54 54 54 54 53 53 53 53 55 55 55 55 56 56 56 56 57 57 57 57 58 58 58 58 57 57 57 57 56 56 56 56 59 59 59 59 60 60 60 60 61 61 61 61 62 62 62 62 63 63 63 63 64 64 64 64 65 65 65 65 66 66 66 66 67 67 67 67 68 68 68 68 67 67 67 67 66 66 66 66 69 69 69 69 70 70 70 70 71 71 71 71 72 72 72 72 71 71 71 71 70 70 70 70 73 73 73 73 74 74 74 74 75 75 75 75 76 76 76 76 75 75 75 75 74 74 74 74 77 77 77 77 78 78 78 78 79 79 79 79 80 80 80 80 80 80 80 80 79 79 79 79 81 81 81 81 82 82 82 82 83 83 83 83 84 84 84 84 83 83 83 83 82 82 82 82 85 85 85 85 86 86 86 86 85 85 85 85 82 82 82 82 85 85 85 85 86 86 86 86 87 87 87 87 88 88 88 88 87 87 87 87 86 86 86 86 89 89 89 89 90 90 90 90 91 91 91 91 92 92 92 92 91 91 91 91 90 90 90 90 91 91 91 91 92 92 92 92 93 93 93 93 94 94 94 94 93 93 93 93 92 92 92 92 93 93 93 93 94 94 94 94 95 95 95 95 96 96 96 96 97 97 97 97 98 98 98 98 98 98 98 98 97 97 97 97 99 99 99 99 100 100 100 100 99 99 99 99 97 97 97 97 99 99 99 99 100 100 100 100 101 101 101 101 102 102 102 102 103 103 103 103 104 104 104 104 103 103 103 103 102 102 102 102 105 105 105 105 106 106 106 106 107 107 107 107 108 108 108 108 107 107 107 107 106 106 106 106 109 109 109 109 110 110 110 110 109 109 109 109 106 106 106 106 109 109 109 109 110 110 110 110 111 111 111 111 112 112 112 112 113 113 113 113 114 114 114 114 113 113 113 113 112 112 112 112 115 115 115 115 116 116 116 116 115 115 115 115 112 112 112 112 115 115 115 115 116 116 116 116 117 117 117 117 118 118 118 118 119 119 119 119 120 120 120 120 120 120 120 120 119 119 119 119 121 121 121 121 122 122 122 122 123 123 123 123 124 124 124 124 123 123 123 123 122 122 122 122 125 125 125 125 126 126 126 126 125 125 125 125 122 122 122 122 127 127 127 127 128 128 128 128 129 129 129 129 130 130 130 130 131 131 131 131 132 132 132 132 131 131 131 131 130 130 130 130 133 133 133 133 134 134 134 134 133 133 133 133 130 130 130 130 133 133 133 133 134 134 134 134 135 135 135 135 136 136 136 136 137 137 137 137 138 138 138 138 137 137 137 137 136 136 136 136 139 139 139 139 140 140 140 140 141 141 141 141 142 142 142 142 141 141 141 141 140 140 140 140 143 143 143 143</p>
      </triangles>
    </mesh></geometry>
  </library_geometries>
  <library_visual_scenes>
    <visual_scene id="Scene" name="Scene">
      <node id="vfx_kurp_1173" name="vfx_kurp_1173" type="NODE">
        <instance_geometry url="#vfx_kurp_1173-mesh"><bind_material><technique_common><instance_material symbol="PreviewMaterial" target="#PreviewMaterial"><bind_vertex_input semantic="UVSET0" input_semantic="TEXCOORD" input_set="0"/></instance_material></technique_common></bind_material></instance_geometry>
      </node>
    </visual_scene>
  </library_visual_scenes>
  <scene><instance_visual_scene url="#Scene"/></scene>
</COLLADA>
