<?xml version="1.0" encoding="utf-8"?>
<COLLADA xmlns="http://www.collada.org/2005/11/COLLADASchema" version="1.4.1">
  <asset>
    <contributor><authoring_tool>Morrobroom Kurpulio VFX preview converter</authoring_tool></contributor>
    <unit name="unit" meter="1"/>
    <up_axis>Z_UP</up_axis>
  </asset>
  <library_images>
    <image id="VFXTexture" name="darkmap_newgen-1.dds">
      <init_from>../../../Textures/Kurp/darkmap_newgen-1.dds</init_from>
    </image>
  </library_images>
  <library_effects>
    <effect id="PreviewEffect">
      <profile_COMMON>
        <newparam sid="VFXTexture-surface">
          <surface type="2D"><init_from>VFXTexture</init_from></surface>
        </newparam>
        <newparam sid="VFXTexture-sampler">
          <sampler2D><source>VFXTexture-surface</source></sampler2D>
        </newparam>
        <technique sid="common"><phong>
          <emission><color>0.08 0.08 0.08 1</color></emission>
          <ambient><color>0.2 0.2 0.2 1</color></ambient>
          <diffuse><texture texture="VFXTexture-sampler" texcoord="UVSET0"/></diffuse>
          <specular><color>0.15 0.15 0.15 1</color></specular>
          <shininess><float>8</float></shininess>
          <transparent opaque="A_ONE"><texture texture="VFXTexture-sampler" texcoord="UVSET0"/></transparent>
          <transparency><float>1</float></transparency>
        </phong></technique>
      </profile_COMMON>
      <extra><technique profile="GOOGLEEARTH"><double_sided>1</double_sided></technique></extra>
    </effect>
  </library_effects>
  <library_materials><material id="PreviewMaterial" name="PreviewMaterial"><instance_effect url="#PreviewEffect"/></material></library_materials>
  <library_geometries>
    <geometry id="vfx_kurp_0325-mesh" name="vfx_kurp_0325"><mesh>
      <source id="vfx_kurp_0325-mesh-positions">
        <float_array id="vfx_kurp_0325-mesh-positions-array" count="558">-5.75786575 -0.29732955 8.96614082 -6.36706205 -0.474624667 8.50531262 -5.52277862 -1.20363631 9.1174947 -6.07289421 -1.55910273 8.68629497 -4.99847412 -2.08930909 9.26509461 -5.49704963 -2.52769629 8.84777458 -5.9956254 -2.96608358 8.43045388 -6.62300985 -1.91456936 8.25509519 -6.97625922 -0.651919733 8.04448369 -7.01004146 0.644466727 7.81282089 -6.40017468 0.644023967 8.30575111 -6.73266358 1.81367152 7.57509049 -6.14266364 1.7304294 8.08488308 -6.13287435 2.93515531 7.29877095 -5.61637403 2.7082872 7.84345032 -5.27585307 3.85455266 7.00365787 -4.86590009 3.52267104 7.58392553 -4.2710115 4.462657 6.70933112 -3.92164861 4.09480952 7.30728697 -3.0887534 4.80144239 6.38626172 -2.86473838 4.39537204 7.01859181 -1.87334047 4.80972476 6.05796 -1.76742728 4.40681235 6.72231043 -5.79030913 0.643581271 8.79868119 -5.55266425 1.64718733 8.59467499 -5.09987433 2.48141921 8.38812964 -4.45594736 3.19078978 8.16419321 -3.57228633 3.72696214 7.90524277 -2.64072372 3.98930143 7.65092182 -1.66151417 4.00390006 7.38666023 -0.709866822 4.11098045 6.42323137 -0.656249122 3.72262626 7.10236563 0.219174357 3.52643471 6.12709164 0.187304559 3.18602171 6.83279704 -0.763484612 4.4993344 5.74409675 0.251044102 3.86684814 5.42138566 1.03973119 2.98594557 5.11096498 0.951359115 2.7077004 5.83876153 1.54300149 1.92818805 4.81733474 1.4264854 1.71345061 5.56247193 1.72234373 0.780554326 4.54375974 1.6004775 0.61989298 5.3015551 1.56062383 -0.341164585 4.29608496 1.44186922 -0.48067195 5.05854966 1.07450574 -1.37769899 4.06439266 0.966907446 -1.48874756 4.83316357 0.314707922 -2.21462833 3.85196679 0.215926933 -2.31470992 4.62342193 -0.646741735 -2.77950842 3.6547822 -0.748115251 -2.88079896 4.42574318 0.86298681 2.42945537 6.56655744 1.30996908 1.49871332 6.30760848 1.47861101 0.459231736 6.05935014 1.32311433 -0.620179073 5.82101437 0.859308991 -1.59979571 5.60193358 0.117145757 -2.41479153 5.39487736 -0.849488839 -2.98208923 5.19670451 -1.83891882 -3.12976359 4.23486162 -1.9598374 -3.2354734 5.00240386 -2.95342858 -3.03258994 4.0441871 -3.11159489 -3.13514679 4.80535895 -1.71800009 -3.02405369 3.46731877 -2.79526214 -2.93003243 3.28301505 -3.77253852 -2.51257662 3.09486508 -3.98118916 -2.59402612 3.84636243 -4.55246571 -1.82022131 2.89611226 -4.8156766 -1.85486586 3.63397217 -5.05701914 -0.931314652 2.6809633 -5.36642557 -0.890238027 3.40033634 -5.23687068 0.0531373461 2.44524551 -5.57049529 0.196365125 3.14029763 -5.09180843 0.954422451 2.20463169 -5.39458825 1.28053028 2.85030573 -4.62959321 1.7807417 1.92678147 -4.85654723 2.2273506 2.53006399 -3.92184315 2.37465868 1.62988787 -4.02844096 2.92016443 2.18304068 -4.18983976 -2.67547532 4.59785983 -5.07888679 -1.88951016 4.37183187 -5.67583198 -0.849161327 4.11970939 -5.90412021 0.339592892 3.83534971 -5.69736844 1.60663792 3.49598 -5.08350101 2.67395899 3.13334646 -4.13503794 3.46566943 2.73619331 -3.01371447 3.26950939 1.81482731 -2.96309585 3.87500439 2.31053914 -1.94758529 3.20587121 1.43284297 -1.6248207 3.79944721 1.83084711 -3.06433319 2.66401381 1.31911529 -2.27034984 2.61229457 1.0348388 -1.48505693 2.23679156 0.719776351 -0.986010616 2.74547993 1.0470471 -0.486964661 3.25416852 1.37431787 -5.88911952 -0.502619092 7.88426191 -6.36706205 -0.474624667 8.50531262 -5.64240503 -1.44285072 8.04125121 -6.07289421 -1.55910273 8.68629497 -5.10466664 -2.35013717 8.19246903 -5.49704963 -2.52769629 8.84777458 -5.88943297 -2.70525531 9.50308075 -6.50338346 -1.67535475 9.33133935 -6.84500522 -0.446630062 9.12636391 -6.87834558 0.833946743 8.89752753 -6.40017468 0.644023967 8.30575111 -6.6010463 2.00282546 8.65986419 -6.14266364 1.7304294 8.08488308 -5.9942637 3.13704156 8.38037369 -5.61637403 2.7082872 7.84345032 -5.1121465 4.08052384 8.07695771 -4.86590009 3.52267104 7.58392553 -4.08575585 4.70141935 7.77634 -3.92164861 4.09480952 7.30728697 -2.8410551 5.0586858 7.43616918 -2.86473838 4.39537204 7.01859181 -1.54036403 5.06408659 7.08473255 -1.76742728 4.40681235 6.72231043 -5.92200382 0.454101245 7.71397532 -5.68428129 1.45803359 7.5099026 -5.238485 2.27953316 7.30652756 -4.61965395 2.9648188 7.09089403 -3.7575417 3.48819995 6.83823459 -2.88842166 3.73205827 6.60101445 -1.99449049 3.74953768 6.35988887 -0.709866822 4.11098045 6.42323137 -1.03779135 3.4817841 6.08932332 0.219174357 3.52643471 6.12709164 -0.294772706 3.00240594 5.85110433 -0.381942104 4.74017676 6.75713944 0.733121687 4.05046405 6.40307906 1.61259342 3.06837229 6.05694088 0.951359115 2.7077004 5.83876153 2.17814893 1.86741634 5.72437943 1.4264854 1.71345061 5.56247193 2.37344684 0.544329744 5.40984183 1.6004775 0.61989298 5.3015551 2.19778772 -0.672154501 5.14124986 1.44186922 -0.48067195 5.05854966 1.63433674 -1.89897779 4.86732054 0.966907446 -1.48874756 4.83316357 0.729826178 -2.90691226 4.61239774 0.215926933 -2.31470992 4.62342193 -0.437267123 -3.59873604 4.37229287 -0.748115251 -2.88079896 4.42574318 0.290124933 2.34702874 5.62058253 0.674822227 1.55948513 5.40056451 0.827508345 0.695455765 5.19326896 0.685951099 -0.289189576 4.97585012 0.299478367 -1.07851749 4.79900659 -0.297972303 -1.72250815 4.63444666 -1.05896334 -2.162862 4.47919411 -1.83891882 -3.12976359 4.23486162 -1.91846374 -2.35534151 4.32898743 -2.95342858 -3.03258994 4.0441871 -2.79780768 -2.27584474 4.17848494 -1.75937402 -3.90418642 4.14073567 -3.10904963 -3.78933511 3.90988925 -4.35140378 -3.26271253 3.67109987 -3.98118916 -2.59402612 3.84636243 -5.3585239 -2.37701478 3.41581051 -4.8156766 -1.85486586 3.63397217 -6.0242852 -1.22572446 3.13654389 -5.36642557 -0.890238027 3.40033634 -6.27769507 0.0654109189 2.82782774 -5.57049529 0.196365125 3.14029763 -6.05566385 1.43991754 2.45980304 -5.39458825 1.28053028 2.85030573 -5.42145852 2.54072546 2.08555474 -4.85654723 2.2273506 2.53006399 -4.46415082 3.34044521 1.68460508 -4.02844096 2.92016443 2.18304068 -3.61097497 -1.92534005 4.02162552 -4.27282903 -1.33271721 3.8521338 -4.70856602 -0.554751766 3.66412938 -4.86329677 0.327319507 3.45276772 -4.73351354 1.12114344 3.24080869 -4.29163626 1.91397589 2.97457355 -3.59273076 2.49988376 2.68147618 -3.01371447 3.26950939 1.81482731 -2.72053704 2.79426814 2.36538123 -1.94758529 3.20587121 1.43284297 -1.85222563 2.73729317 2.05433959 -3.30689215 3.74475103 1.26427326 -2.04294473 3.67444956 0.811346184 -0.980936189 3.16622402 0.385332488 -0.986010616 2.74547993 1.0470471 -0.991084979 2.32473664 1.70876167</float_array>
        <technique_common><accessor source="#vfx_kurp_0325-mesh-positions-array" count="186" stride="3"><param name="X" type="float"/><param name="Y" type="float"/><param name="Z" type="float"/></accessor></technique_common>
      </source>
      <source id="vfx_kurp_0325-mesh-normals">
        <float_array id="vfx_kurp_0325-mesh-normals-array" count="558">-0.612329781 0.0489238159 0.789087258 -0.612260596 0.0468164447 0.789268765 -0.571082624 -0.100196045 0.814754803 -0.56962918 -0.105800123 0.815063759 -0.533592992 -0.178928004 0.826597416 -0.533411027 -0.179692602 0.826548998 -0.533252793 -0.180328843 0.826512533 -0.568177703 -0.110483485 0.815455393 -0.612146794 0.045270744 0.789447188 -0.61395745 0.210158228 0.760848059 -0.614608188 0.20691024 0.761212801 -0.574165539 0.377962552 0.726276974 -0.573184818 0.380146359 0.725911779 -0.486441034 0.54118397 0.685926403 -0.487500276 0.540253707 0.685907729 -0.351228173 0.683010858 0.640417784 -0.355246157 0.6803768 0.641005131 -0.179252268 0.787669765 0.589444625 -0.177480186 0.788350278 0.589070983 0.0242252795 0.845323051 0.533705982 0.0232551619 0.845332851 0.533733612 0.245390462 0.845332535 0.474548655 0.242064095 0.845998733 0.475069593 -0.61541614 0.203335864 0.761523145 -0.572060062 0.382422849 0.725603232 -0.488767925 0.539237665 0.685805116 -0.359886054 0.677434101 0.641533372 -0.175624986 0.789008519 0.588745634 0.0222258702 0.845372518 0.53371464 0.238441648 0.84676021 0.475544664 0.469093642 0.781854637 0.41067564 0.472158368 0.780207817 0.410295304 0.67400777 0.653227275 0.344974859 0.675739903 0.651450946 0.344945284 0.466272376 0.783317496 0.411100684 0.672546734 0.654698574 0.345037199 0.837525524 0.468753865 0.280750441 0.837028201 0.469591944 0.280833041 0.947363234 0.235807072 0.216559292 0.946653954 0.238569433 0.216635449 0.987733712 -0.030360522 0.153167726 0.987779739 -0.027770283 0.153362309 0.948244352 -0.303890971 0.0921027989 0.947872782 -0.305054568 0.0920809396 0.827484487 -0.560436118 0.0343624939 0.826942026 -0.561226608 0.0345192581 0.632833066 -0.774040198 -0.0195980162 0.632784386 -0.774083183 -0.0194716915 0.379001782 -0.922633414 -0.0714509111 0.379340529 -0.922502022 -0.0713497124 0.836524239 0.470451415 0.280896178 0.945895894 0.241528863 0.216667409 0.987826006 -0.0250507841 0.153532537 0.947485112 -0.306260688 0.0920671095 0.826361807 -0.562070267 0.0346868748 0.63272675 -0.774133509 -0.0193434683 0.379684558 -0.922368359 -0.0712477896 0.0891217335 -0.988506087 -0.122118932 0.0896934516 -0.988465479 -0.122029017 -0.209338848 -0.96238098 -0.173205357 -0.208557939 -0.962565232 -0.173123538 0.0885602986 -0.988545766 -0.122206142 -0.21011974 -0.962197396 -0.173279733 -0.485860389 -0.844234076 -0.226292967 -0.484682831 -0.844924765 -0.226240346 -0.708544008 -0.6465184 -0.2828062 -0.706844334 -0.648390345 -0.282773845 -0.853417462 -0.391580774 -0.344010369 -0.851532557 -0.395709201 -0.343957166 -0.905163673 -0.111696542 -0.410125113 -0.904822585 -0.115890499 -0.409713903 -0.862928823 0.152225037 -0.481852037 -0.861654584 0.15692628 -0.48262358 -0.735249061 0.381035803 -0.560553775 -0.733650988 0.383819638 -0.560748351 -0.549098506 0.539515393 -0.63828988 -0.55096179 0.538203173 -0.637791856 -0.483553508 -0.845590728 -0.2261688 -0.705289987 -0.650112961 -0.282699792 -0.849882329 -0.399351678 -0.343828829 -0.904496467 -0.12025213 -0.409176693 -0.860422384 0.161080856 -0.483452458 -0.732407459 0.385921926 -0.560930995 -0.552478559 0.537172555 -0.637348483 -0.340532359 0.612524945 -0.713337861 -0.346089955 0.611057179 -0.711920548 -0.14190229 0.603656405 -0.784514299 -0.141028336 0.603158065 -0.785055002 -0.334323752 0.614391579 -0.714668186 -0.141946706 0.604180065 -0.784103043 -0.0519071288 0.575674854 -0.81602948 -0.051708781 0.575652762 -0.816057657 -0.0515747991 0.575632174 -0.816080658 0.779342873 0.214091452 0.58888839 0.77950704 0.216093277 0.587939172 0.728096507 0.39600928 0.559510614 0.726009007 0.403495028 0.556868642 0.679981842 0.494094727 0.541751876 0.680078681 0.494547078 0.541217308 0.679569088 0.495344711 0.541127963 0.724848593 0.405971585 0.556580264 0.779069247 0.217512963 0.587995935 0.782514308 0.0363751697 0.621569148 0.783556485 0.0408426341 0.619976705 0.743394862 -0.132689569 0.655558966 0.741778399 -0.136379239 0.656631944 0.664143076 -0.282380538 0.692224823 0.665187286 -0.281883496 0.691424305 0.553495771 -0.399719612 0.730661798 0.558989906 -0.396853462 0.728036823 0.427440524 -0.477692073 0.767531681 0.424310888 -0.47893305 0.768494245 0.291876848 -0.517318538 0.804480849 0.292551355 -0.517627359 0.804037078 0.161281264 -0.517937523 0.840076828 0.165564337 -0.519431071 0.838319636 0.783791586 0.0427379339 0.619551628 0.74135233 -0.137245129 0.656932643 0.666298319 -0.2808966 0.690755855 0.561833348 -0.394716645 0.727008982 0.423722816 -0.47907316 0.768731346 0.293439289 -0.517803624 0.803599894 0.167872074 -0.519833635 0.837610864 0.0474055448 -0.487424 0.871877605 0.0431146038 -0.484497851 0.873729342 -0.0470853861 -0.430427765 0.901396087 -0.0484192879 -0.427721957 0.902612597 0.0487008998 -0.48791306 0.871532598 -0.0454255792 -0.431339263 0.90104548 -0.109348898 -0.360131097 0.926470945 -0.109256039 -0.360943355 0.926165759 -0.144929393 -0.286181562 0.9471513 -0.145336167 -0.289040375 0.946220408 -0.155747886 -0.220492148 0.962873724 -0.156646386 -0.223670137 0.961994584 -0.150186429 -0.172506668 0.97349139 -0.149450317 -0.170871258 0.973893021 -0.137583912 -0.14152301 0.980327448 -0.136683818 -0.140954324 0.980535268 -0.128478512 -0.129643983 0.983201764 -0.128283189 -0.129609364 0.983231832 -0.13359896 -0.13099248 0.98234021 -0.133814307 -0.131003616 0.982309414 -0.108972626 -0.361754183 0.925882756 -0.144892669 -0.291990618 0.945382247 -0.156787362 -0.225857614 0.961460379 -0.149080533 -0.170089906 0.974086453 -0.135988906 -0.139915126 0.980780697 -0.128074767 -0.129422738 0.983283585 -0.13399921 -0.131048051 0.98227828 -0.159811038 -0.135352738 0.97782415 -0.160331651 -0.135170198 0.977764174 -0.208101825 -0.129397934 0.969510085 -0.208758386 -0.128873878 0.969438734 -0.159554991 -0.135305022 0.977872566 -0.207685472 -0.129457032 0.969591472 -0.272832262 -0.0999242168 0.956858249 -0.273442758 -0.099022936 0.956777673 -0.343227239 -0.0357782599 0.93857071 -0.343846807 -0.0337285667 0.938419819 -0.40171632 0.0682886538 0.913214464 -0.401683338 0.0722502578 0.912924091 -0.428602229 0.213618331 0.877876608 -0.428015811 0.219867532 0.876618922 -0.395448019 0.39339791 0.82997527 -0.398783838 0.387328071 0.83123307 -0.29431834 0.562705098 0.77248928 -0.297531843 0.560371842 0.772954204 -0.126283467 0.701115394 0.701776097 -0.125035142 0.701158831 0.701956201 -0.274371026 -0.0982900138 0.956587483 -0.345102379 -0.031854006 0.938024344 -0.402792656 0.076120749 0.912120446 -0.428171818 0.222654253 0.875839014 -0.399844116 0.385501194 0.831572915 -0.299465449 0.558181665 0.773791751 -0.123512298 0.701790113 0.701594861 0.111954925 0.781733683 0.613480679 0.120599178 0.781499766 0.612138835 0.394587035 0.76243152 0.512834525 0.392082272 0.762432082 0.514751215 0.109200598 0.781105746 0.614775604 0.393081071 0.762668155 0.513638547 0.526649259 0.715570215 0.458911566 0.526711882 0.71548499 0.458972573 0.526892995 0.715390025 0.458912719</float_array>
        <technique_common><accessor source="#vfx_kurp_0325-mesh-normals-array" count="186" stride="3"><param name="X" type="float"/><param name="Y" type="float"/><param name="Z" type="float"/></accessor></technique_common>
      </source>
      <source id="vfx_kurp_0325-mesh-uv0">
        <float_array id="vfx_kurp_0325-mesh-uv0-array" count="372">0.933333397 0 0.933333397 0.5 0.966666698 0 0.966666698 0.5 1 0 1 0.5 1 1 0.966666698 1 0.933333397 1 0.900000036 1 0.900000036 0.5 0.866666734 1 0.866666734 0.5 0.833333373 1 0.833333373 0.5 0.800000072 1 0.800000072 0.5 0.76666671 1 0.76666671 0.5 0.733333349 1 0.733333349 0.5 0.700000048 1 0.700000048 0.5 0.900000036 0 0.866666734 0 0.833333373 0 0.800000072 0 0.76666671 0 0.733333349 0 0.700000048 0 0.666666687 0.5 0.666666687 0 0.633333385 0.5 0.633333385 0 0.666666687 1 0.633333385 1 0.600000024 1 0.600000024 0.5 0.566666722 1 0.566666722 0.5 0.533333361 1 0.533333361 0.5 0.5 1 0.5 0.5 0.466666698 1 0.466666698 0.5 0.433333367 1 0.433333367 0.5 0.400000036 1 0.400000036 0.5 0.600000024 0 0.566666722 0 0.533333361 0 0.5 0 0.466666698 0 0.433333367 0 0.400000036 0 0.366666675 0.5 0.366666675 0 0.333333343 0.5 0.333333343 0 0.366666675 1 0.333333343 1 0.300000012 1 0.300000012 0.5 0.266666681 1 0.266666681 0.5 0.233333349 1 0.233333349 0.5 0.200000018 1 0.200000018 0.5 0.166666672 1 0.166666672 0.5 0.13333334 1 0.13333334 0.5 0.100000009 1 0.100000009 0.5 0.300000012 0 0.266666681 0 0.233333349 0 0.200000018 0 0.166666672 0 0.13333334 0 0.100000009 0 0.0666666701 0.5 0.0666666701 0 0.0333333351 0.5 0.0333333351 0 0.0666666701 1 0.0333333351 1 0 1 0 0.5 0 0 0.933333397 0 0.933333397 0.5 0.966666698 0 0.966666698 0.5 1 0 1 0.5 1 1 0.966666698 1 0.933333397 1 0.900000036 1 0.900000036 0.5 0.866666734 1 0.866666734 0.5 0.833333373 1 0.833333373 0.5 0.800000072 1 0.800000072 0.5 0.76666671 1 0.76666671 0.5 0.733333349 1 0.733333349 0.5 0.700000048 1 0.700000048 0.5 0.900000036 0 0.866666734 0 0.833333373 0 0.800000072 0 0.76666671 0 0.733333349 0 0.700000048 0 0.666666687 0.5 0.666666687 0 0.633333385 0.5 0.633333385 0 0.666666687 1 0.633333385 1 0.600000024 1 0.600000024 0.5 0.566666722 1 0.566666722 0.5 0.533333361 1 0.533333361 0.5 0.5 1 0.5 0.5 0.466666698 1 0.466666698 0.5 0.433333367 1 0.433333367 0.5 0.400000036 1 0.400000036 0.5 0.600000024 0 0.566666722 0 0.533333361 0 0.5 0 0.466666698 0 0.433333367 0 0.400000036 0 0.366666675 0.5 0.366666675 0 0.333333343 0.5 0.333333343 0 0.366666675 1 0.333333343 1 0.300000012 1 0.300000012 0.5 0.266666681 1 0.266666681 0.5 0.233333349 1 0.233333349 0.5 0.200000018 1 0.200000018 0.5 0.166666672 1 0.166666672 0.5 0.13333334 1 0.13333334 0.5 0.100000009 1 0.100000009 0.5 0.300000012 0 0.266666681 0 0.233333349 0 0.200000018 0 0.166666672 0 0.13333334 0 0.100000009 0 0.0666666701 0.5 0.0666666701 0 0.0333333351 0.5 0.0333333351 0 0.0666666701 1 0.0333333351 1 0 1 0 0.5 0 0</float_array>
        <technique_common><accessor source="#vfx_kurp_0325-mesh-uv0-array" count="186" stride="2"><param name="S" type="float"/><param name="T" type="float"/></accessor></technique_common>
      </source>
      <source id="vfx_kurp_0325-mesh-colors">
        <float_array id="vfx_kurp_0325-mesh-colors-array" count="744">0 0 0 0 0 0 0 0.5 0 0 0 0 0 0 0 0 0 0 0 0 0 0 0 0 0 0 0 0 0 0 0 0 0 0 0 0 0 0 0 0 0 0 0 0.799999952 0 0 0 0 0 0 0 0.799999952 0 0 0 0 0 0 0 0.799999952 0 0 0 0 0 0 0 0.799999952 0 0 0 0 0 0 0 0.799999952 0 0 0 0 0 0 0 0.799999952 0 0 0 0 0 0 0 0.799999952 0 0 0 0 0 0 0 0 0 0 0 0 0 0 0 0 0 0 0 0 0 0 0 0 0 0 0 0 0 0 0 0.799999952 0 0 0 0 0 0 0 0.799999952 0 0 0 0 0 0 0 0 0 0 0 0 0 0 0 0 0 0 0 0.799999952 0 0 0 0 0 0 0 0.799999952 0 0 0 0 0 0 0 0.799999952 0 0 0 0 0 0 0 0.799999952 0 0 0 0 0 0 0 0.799999952 0 0 0 0 0 0 0 0.799999952 0 0 0 0 0 0 0 0.799999952 0 0 0 0 0 0 0 0 0 0 0 0 0 0 0 0 0 0 0 0 0 0 0 0 0 0 0 0 0 0 0 0.799999952 0 0 0 0 0 0 0 0.799999952 0 0 0 0 0 0 0 0 0 0 0 0 0 0 0 0 0 0 0 0.799999952 0 0 0 0 0 0 0 0.799999952 0 0 0 0 0 0 0 0.799999952 0 0 0 0 0 0 0 0.799999952 0 0 0 0 0 0 0 0.799999952 0 0 0 0 0 0 0 0.799999952 0 0 0 0 0 0 0 0.799999952 0 0 0 0 0 0 0 0 0 0 0 0 0 0 0 0 0 0 0 0 0 0 0 0 0 0 0 0 0 0 0 0.5 0 0 0 0 0 0 0 0 0 0 0 0 0 0 0 0 0 0 0 0 0 0 0 0 0 0 0 0 0 0 0 0 0 0 0 0 0 0 0 0.5 0 0 0 0 0 0 0 0 0 0 0 0 0 0 0 0 0 0 0 0 0 0 0 0 0 0 0 0 0 0 0 0 0 0 0 0.799999952 0 0 0 0 0 0 0 0.799999952 0 0 0 0 0 0 0 0.799999952 0 0 0 0 0 0 0 0.799999952 0 0 0 0 0 0 0 0.799999952 0 0 0 0 0 0 0 0.799999952 0 0 0 0 0 0 0 0.799999952 0 0 0 0 0 0 0 0 0 0 0 0 0 0 0 0 0 0 0 0 0 0 0 0 0 0 0 0 0 0 0 0.799999952 0 0 0 0 0 0 0 0.799999952 0 0 0 0 0 0 0 0 0 0 0 0 0 0 0 0 0 0 0 0.799999952 0 0 0 0 0 0 0 0.799999952 0 0 0 0 0 0 0 0.799999952 0 0 0 0 0 0 0 0.799999952 0 0 0 0 0 0 0 0.799999952 0 0 0 0 0 0 0 0.799999952 0 0 0 0 0 0 0 0.799999952 0 0 0 0 0 0 0 0 0 0 0 0 0 0 0 0 0 0 0 0 0 0 0 0 0 0 0 0 0 0 0 0.799999952 0 0 0 0 0 0 0 0.799999952 0 0 0 0 0 0 0 0 0 0 0 0 0 0 0 0 0 0 0 0.799999952 0 0 0 0 0 0 0 0.799999952 0 0 0 0 0 0 0 0.799999952 0 0 0 0 0 0 0 0.799999952 0 0 0 0 0 0 0 0.799999952 0 0 0 0 0 0 0 0.799999952 0 0 0 0 0 0 0 0.799999952 0 0 0 0 0 0 0 0 0 0 0 0 0 0 0 0 0 0 0 0 0 0 0 0 0 0 0 0 0 0 0 0.5 0 0 0 0 0 0 0 0 0 0 0 0 0 0 0 0 0 0 0 0 0 0 0 0 0 0 0 0 0 0 0 0</float_array>
        <technique_common><accessor source="#vfx_kurp_0325-mesh-colors-array" count="186" stride="4"><param name="R" type="float"/><param name="G" type="float"/><param name="B" type="float"/><param name="A" type="float"/></accessor></technique_common>
      </source>
      <vertices id="vfx_kurp_0325-mesh-vertices"><input semantic="POSITION" source="#vfx_kurp_0325-mesh-positions"/></vertices>
      <triangles material="PreviewMaterial" count="240">
        <input semantic="VERTEX" source="#vfx_kurp_0325-mesh-vertices" offset="0"/>
        <input semantic="NORMAL" source="#vfx_kurp_0325-mesh-normals" offset="1"/>
        <input semantic="TEXCOORD" source="#vfx_kurp_0325-mesh-uv0" offset="2" set="0"/>
        <input semantic="COLOR" source="#vfx_kurp_0325-mesh-colors" offset="3" set="0"/>
        <p>0 0 0 0 1 1 1 1 2 2 2 2 3 3 3 3 2 2 2 2 1 1 1 1 2 2 2 2 3 3 3 3 4 4 4 4 5 5 5 5 4 4 4 4 3 3 3 3 6 6 6 6 5 5 5 5 7 7 7 7 3 3 3 3 7 7 7 7 5 5 5 5 7 7 7 7 3 3 3 3 8 8 8 8 1 1 1 1 8 8 8 8 3 3 3 3 8 8 8 8 1 1 1 1 9 9 9 9 10 10 10 10 9 9 9 9 1 1 1 1 9 9 9 9 10 10 10 10 11 11 11 11 12 12 12 12 11 11 11 11 10 10 10 10 11 11 11 11 12 12 12 12 13 13 13 13 14 14 14 14 13 13 13 13 12 12 12 12 13 13 13 13 14 14 14 14 15 15 15 15 16 16 16 16 15 15 15 15 14 14 14 14 15 15 15 15 16 16 16 16 17 17 17 17 18 18 18 18 17 17 17 17 16 16 16 16 17 17 17 17 18 18 18 18 19 19 19 19 20 20 20 20 19 19 19 19 18 18 18 18 19 19 19 19 20 20 20 20 21 21 21 21 22 22 22 22 21 21 21 21 20 20 20 20 1 1 1 1 0 0 0 0 10 10 10 10 23 23 23 23 10 10 10 10 0 0 0 0 10 10 10 10 23 23 23 23 12 12 12 12 24 24 24 24 12 12 12 12 23 23 23 23 12 12 12 12 24 24 24 24 14 14 14 14 25 25 25 25 14 14 14 14 24 24 24 24 14 14 14 14 25 25 25 25 16 16 16 16 26 26 26 26 16 16 16 16 25 25 25 25 16 16 16 16 26 26 26 26 18 18 18 18 27 27 27 27 18 18 18 18 26 26 26 26 18 18 18 18 27 27 27 27 20 20 20 20 28 28 28 28 20 20 20 20 27 27 27 27 20 20 20 20 28 28 28 28 22 22 22 22 29 29 29 29 22 22 22 22 28 28 28 28 22 22 22 22 29 29 29 29 30 30 30 30 31 31 31 31 30 30 30 30 29 29 29 29 30 30 30 30 31 31 31 31 32 32 32 32 33 33 33 33 32 32 32 32 31 31 31 31 21 21 21 21 22 22 22 22 34 34 34 34 30 30 30 30 34 34 34 34 22 22 22 22 34 34 34 34 30 30 30 30 35 35 35 35 32 32 32 32 35 35 35 35 30 30 30 30 35 35 35 35 32 32 32 32 36 36 36 36 37 37 37 37 36 36 36 36 32 32 32 32 36 36 36 36 37 37 37 37 38 38 38 38 39 39 39 39 38 38 38 38 37 37 37 37 38 38 38 38 39 39 39 39 40 40 40 40 41 41 41 41 40 40 40 40 39 39 39 39 40 40 40 40 41 41 41 41 42 42 42 42 43 43 43 43 42 42 42 42 41 41 41 41 42 42 42 42 43 43 43 43 44 44 44 44 45 45 45 45 44 44 44 44 43 43 43 43 44 44 44 44 45 45 45 45 46 46 46 46 47 47 47 47 46 46 46 46 45 45 45 45 46 46 46 46 47 47 47 47 48 48 48 48 49 49 49 49 48 48 48 48 47 47 47 47 32 32 32 32 33 33 33 33 37 37 37 37 50 50 50 50 37 37 37 37 33 33 33 33 37 37 37 37 50 50 50 50 39 39 39 39 51 51 51 51 39 39 39 39 50 50 50 50 39 39 39 39 51 51 51 51 41 41 41 41 52 52 52 52 41 41 41 41 51 51 51 51 41 41 41 41 52 52 52 52 43 43 43 43 53 53 53 53 43 43 43 43 52 52 52 52 43 43 43 43 53 53 53 53 45 45 45 45 54 54 54 54 45 45 45 45 53 53 53 53 45 45 45 45 54 54 54 54 47 47 47 47 55 55 55 55 47 47 47 47 54 54 54 54 47 47 47 47 55 55 55 55 49 49 49 49 56 56 56 56 49 49 49 49 55 55 55 55 49 49 49 49 56 56 56 56 57 57 57 57 58 58 58 58 57 57 57 57 56 56 56 56 57 57 57 57 58 58 58 58 59 59 59 59 60 60 60 60 59 59 59 59 58 58 58 58 48 48 48 48 49 49 49 49 61 61 61 61 57 57 57 57 61 61 61 61 49 49 49 49 61 61 61 61 57 57 57 57 62 62 62 62 59 59 59 59 62 62 62 62 57 57 57 57 62 62 62 62 59 59 59 59 63 63 63 63 64 64 64 64 63 63 63 63 59 59 59 59 63 63 63 63 64 64 64 64 65 65 65 65 66 66 66 66 65 65 65 65 64 64 64 64 65 65 65 65 66 66 66 66 67 67 67 67 68 68 68 68 67 67 67 67 66 66 66 66 67 67 67 67 68 68 68 68 69 69 69 69 70 70 70 70 69 69 69 69 68 68 68 68 69 69 69 69 70 70 70 70 71 71 71 71 72 72 72 72 71 71 71 71 70 70 70 70 71 71 71 71 72 72 72 72 73 73 73 73 74 74 74 74 73 73 73 73 72 72 72 72 73 73 73 73 74 74 74 74 75 75 75 75 76 76 76 76 75 75 75 75 74 74 74 74 59 59 59 59 60 60 60 60 64 64 64 64 77 77 77 77 64 64 64 64 60 60 60 60 64 64 64 64 77 77 77 77 66 66 66 66 78 78 78 78 66 66 66 66 77 77 77 77 66 66 66 66 78 78 78 78 68 68 68 68 79 79 79 79 68 68 68 68 78 78 78 78 68 68 68 68 79 79 79 79 70 70 70 70 80 80 80 80 70 70 70 70 79 79 79 79 70 70 70 70 80 80 80 80 72 72 72 72 81 81 81 81 72 72 72 72 80 80 80 80 72 72 72 72 81 81 81 81 74 74 74 74 82 82 82 82 74 74 74 74 81 81 81 81 74 74 74 74 82 82 82 82 76 76 76 76 83 83 83 83 76 76 76 76 82 82 82 82 76 76 76 76 83 83 83 83 84 84 84 84 85 85 85 85 84 84 84 84 83 83 83 83 84 84 84 84 85 85 85 85 86 86 86 86 87 87 87 87 86 86 86 86 85 85 85 85 75 75 75 75 76 76 76 76 88 88 88 88 84 84 84 84 88 88 88 88 76 76 76 76 88 88 88 88 84 84 84 84 89 89 89 89 86 86 86 86 89 89 89 89 84 84 84 84 89 89 89 89 86 86 86 86 90 90 90 90 90 90 90 90 86 86 86 86 91 91 91 91 87 87 87 87 91 91 91 91 86 86 86 86 91 91 91 91 87 87 87 87 92 92 92 92 93 93 93 93 94 94 94 94 95 95 95 95 96 96 96 96 95 95 95 95 94 94 94 94 95 95 95 95 96 96 96 96 97 97 97 97 98 98 98 98 97 97 97 97 96 96 96 96 99 99 99 99 98 98 98 98 100 100 100 100 96 96 96 96 100 100 100 100 98 98 98 98 100 100 100 100 96 96 96 96 101 101 101 101 94 94 94 94 101 101 101 101 96 96 96 96 101 101 101 101 94 94 94 94 102 102 102 102 103 103 103 103 102 102 102 102 94 94 94 94 102 102 102 102 103 103 103 103 104 104 104 104 105 105 105 105 104 104 104 104 103 103 103 103 104 104 104 104 105 105 105 105 106 106 106 106 107 107 107 107 106 106 106 106 105 105 105 105 106 106 106 106 107 107 107 107 108 108 108 108 109 109 109 109 108 108 108 108 107 107 107 107 108 108 108 108 109 109 109 109 110 110 110 110 111 111 111 111 110 110 110 110 109 109 109 109 110 110 110 110 111 111 111 111 112 112 112 112 113 113 113 113 112 112 112 112 111 111 111 111 112 112 112 112 113 113 113 113 114 114 114 114 115 115 115 115 114 114 114 114 113 113 113 113 94 94 94 94 93 93 93 93 103 103 103 103 116 116 116 116 103 103 103 103 93 93 93 93 103 103 103 103 116 116 116 116 105 105 105 105 117 117 117 117 105 105 105 105 116 116 116 116 105 105 105 105 117 117 117 117 107 107 107 107 118 118 118 118 107 107 107 107 117 117 117 117 107 107 107 107 118 118 118 118 109 109 109 109 119 119 119 119 109 109 109 109 118 118 118 118 109 109 109 109 119 119 119 119 111 111 111 111 120 120 120 120 111 111 111 111 119 119 119 119 111 111 111 111 120 120 120 120 113 113 113 113 121 121 121 121 113 113 113 113 120 120 120 120 113 113 113 113 121 121 121 121 115 115 115 115 122 122 122 122 115 115 115 115 121 121 121 121 115 115 115 115 122 122 122 122 123 123 123 123 124 124 124 124 123 123 123 123 122 122 122 122 123 123 123 123 124 124 124 124 125 125 125 125 126 126 126 126 125 125 125 125 124 124 124 124 114 114 114 114 115 115 115 115 127 127 127 127 123 123 123 123 127 127 127 127 115 115 115 115 127 127 127 127 123 123 123 123 128 128 128 128 125 125 125 125 128 128 128 128 123 123 123 123 128 128 128 128 125 125 125 125 129 129 129 129 130 130 130 130 129 129 129 129 125 125 125 125 129 129 129 129 130 130 130 130 131 131 131 131 132 132 132 132 131 131 131 131 130 130 130 130 131 131 131 131 132 132 132 132 133 133 133 133 134 134 134 134 133 133 133 133 132 132 132 132 133 133 133 133 134 134 134 134 135 135 135 135 136 136 136 136 135 135 135 135 134 134 134 134 135 135 135 135 136 136 136 136 137 137 137 137 138 138 138 138 137 137 137 137 136 136 136 136 137 137 137 137 138 138 138 138 139 139 139 139 140 140 140 140 139 139 139 139 138 138 138 138 139 139 139 139 140 140 140 140 141 141 141 141 142 142 142 142 141 141 141 141 140 140 140 140 125 125 125 125 126 126 126 126 130 130 130 130 143 143 143 143 130 130 130 130 126 126 126 126 130 130 130 130 143 143 143 143 132 132 132 132 144 144 144 144 132 132 132 132 143 143 143 143 132 132 132 132 144 144 144 144 134 134 134 134 145 145 145 145 134 134 134 134 144 144 144 144 134 134 134 134 145 145 145 145 136 136 136 136 146 146 146 146 136 136 136 136 145 145 145 145 136 136 136 136 146 146 146 146 138 138 138 138 147 147 147 147 138 138 138 138 146 146 146 146 138 138 138 138 147 147 147 147 140 140 140 140 148 148 148 148 140 140 140 140 147 147 147 147 140 140 140 140 148 148 148 148 142 142 142 142 149 149 149 149 142 142 142 142 148 148 148 148 142 142 142 142 149 149 149 149 150 150 150 150 151 151 151 151 150 150 150 150 149 149 149 149 150 150 150 150 151 151 151 151 152 152 152 152 153 153 153 153 152 152 152 152 151 151 151 151 141 141 141 141 142 142 142 142 154 154 154 154 150 150 150 150 154 154 154 154 142 142 142 142 154 154 154 154 150 150 150 150 155 155 155 155 152 152 152 152 155 155 155 155 150 150 150 150 155 155 155 155 152 152 152 152 156 156 156 156 157 157 157 157 156 156 156 156 152 152 152 152 156 156 156 156 157 157 157 157 158 158 158 158 159 159 159 159 158 158 158 158 157 157 157 157 158 158 158 158 159 159 159 159 160 160 160 160 161 161 161 161 160 160 160 160 159 159 159 159 160 160 160 160 161 161 161 161 162 162 162 162 163 163 163 163 162 162 162 162 161 161 161 161 162 162 162 162 163 163 163 163 164 164 164 164 165 165 165 165 164 164 164 164 163 163 163 163 164 164 164 164 165 165 165 165 166 166 166 166 167 167 167 167 166 166 166 166 165 165 165 165 166 166 166 166 167 167 167 167 168 168 168 168 169 169 169 169 168 168 168 168 167 167 167 167 152 152 152 152 153 153 153 153 157 157 157 157 170 170 170 170 157 157 157 157 153 153 153 153 157 157 157 157 170 170 170 170 159 159 159 159 171 171 171 171 159 159 159 159 170 170 170 170 159 159 159 159 171 171 171 171 161 161 161 161 172 172 172 172 161 161 161 161 171 171 171 171 161 161 161 161 172 172 172 172 163 163 163 163 173 173 173 173 163 163 163 163 172 172 172 172 163 163 163 163 173 173 173 173 165 165 165 165 174 174 174 174 165 165 165 165 173 173 173 173 165 165 165 165 174 174 174 174 167 167 167 167 175 175 175 175 167 167 167 167 174 174 174 174 167 167 167 167 175 175 175 175 169 169 169 169 176 176 176 176 169 169 169 169 175 175 175 175 169 169 169 169 176 176 176 176 177 177 177 177 178 178 178 178 177 177 177 177 176 176 176 176 177 177 177 177 178 178 178 178 179 179 179 179 180 180 180 180 179 179 179 179 178 178 178 178 168 168 168 168 169 169 169 169 181 181 181 181 177 177 177 177 181 181 181 181 169 169 169 169 181 181 181 181 177 177 177 177 182 182 182 182 179 179 179 179 182 182 182 182 177 177 177 177 182 182 182 182 179 179 179 179 183 183 183 183 183 183 183 183 179 179 179 179 184 184 184 184 180 180 180 180 184 184 184 184 179 179 179 179 184 184 184 184 180 180 180 180 185 185 185 185</p>
      </triangles>
    </mesh></geometry>
  </library_geometries>
  <library_visual_scenes>
    <visual_scene id="Scene" name="Scene">
      <node id="vfx_kurp_0325" name="vfx_kurp_0325" type="NODE">
        <instance_geometry url="#vfx_kurp_0325-mesh"><bind_material><technique_common><instance_material symbol="PreviewMaterial" target="#PreviewMaterial"><bind_vertex_input semantic="UVSET0" input_semantic="TEXCOORD" input_set="0"/></instance_material></technique_common></bind_material></instance_geometry>
      </node>
    </visual_scene>
  </library_visual_scenes>
  <scene><instance_visual_scene url="#Scene"/></scene>
</COLLADA>
