<?xml version="1.0" encoding="utf-8"?>
<COLLADA xmlns="http://www.collada.org/2005/11/COLLADASchema" version="1.4.1">
  <asset>
    <contributor><authoring_tool>Morrobroom Kurpulio VFX preview converter</authoring_tool></contributor>
    <unit name="unit" meter="1"/>
    <up_axis>Z_UP</up_axis>
  </asset>
  <library_images>
    <image id="VFXTexture" name="darkmap_newgen-1.dds">
      <init_from>../../../Textures/Kurp/darkmap_newgen-1.dds</init_from>
    </image>
  </library_images>
  <library_effects>
    <effect id="PreviewEffect">
      <profile_COMMON>
        <newparam sid="VFXTexture-surface">
          <surface type="2D"><init_from>VFXTexture</init_from></surface>
        </newparam>
        <newparam sid="VFXTexture-sampler">
          <sampler2D><source>VFXTexture-surface</source></sampler2D>
        </newparam>
        <technique sid="common"><phong>
          <emission><color>0.08 0.08 0.08 1</color></emission>
          <ambient><color>0.2 0.2 0.2 1</color></ambient>
          <diffuse><texture texture="VFXTexture-sampler" texcoord="UVSET0"/></diffuse>
          <specular><color>0.15 0.15 0.15 1</color></specular>
          <shininess><float>8</float></shininess>
          <transparent opaque="A_ONE"><texture texture="VFXTexture-sampler" texcoord="UVSET0"/></transparent>
          <transparency><float>1</float></transparency>
        </phong></technique>
      </profile_COMMON>
      <extra><technique profile="GOOGLEEARTH"><double_sided>1</double_sided></technique></extra>
    </effect>
  </library_effects>
  <library_materials><material id="PreviewMaterial" name="PreviewMaterial"><instance_effect url="#PreviewEffect"/></material></library_materials>
  <library_geometries>
    <geometry id="vfx_kurp_0459-mesh" name="vfx_kurp_0459"><mesh>
      <source id="vfx_kurp_0459-mesh-positions">
        <float_array id="vfx_kurp_0459-mesh-positions-array" count="990">2.20327781 6.6430442 -0.268923666 2.97328527 6.3654148 -0.36290785 2.34933924 7.77820417 -0.42778601 3.53633784 7.44896933 -0.583079641 3.89754377 5.71027345 -0.475719222 4.72400223 6.71971866 -0.7390406 3.07108564 4.70082825 -0.21239776 2.41023319 5.28185862 -0.142735966 2.05721638 5.5078839 -0.110061094 1.57508643 6.5817579 -0.19224892 1.97083953 5.58572002 -0.109345012 1.07503789 6.22120816 -0.131215014 1.82409623 5.56050592 -0.100674673 0.689458386 5.60105054 -0.0841526211 1.53562828 5.21925464 -0.0741195543 0.404673055 4.76093566 -0.0493928788 1.2402147 4.54793578 -0.0461305383 0.207008855 3.74052007 -0.0252666975 0.999740078 3.62591945 -0.0242607844 0.0827912548 2.57945553 -0.0101051998 0.825153534 2.52336061 -0.00984690972 0.0183463459 1.31739587 -0.00223923407 0.710820564 1.29654894 -0.00220109698 1.17933433 7.57779577 -0.275152993 0.325979558 6.88191039 -0.161755356 -0.156711718 5.98284347 -0.0941856517 -0.430868585 4.97393553 -0.0526552297 -0.585722493 3.85512068 -0.0262726572 -0.659571087 2.63555045 -0.0103635416 -0.67412795 1.3382423 -0.00227768008 -0.645900667 -0.00429735927 -3.91703425e-08 -1.55330478e-07 -0.00431299781 1.25861448e-08 0.645900419 -0.00432863668 -3.91703425e-08 2.20327781 6.6430442 -0.268923666 2.97328527 6.3654148 -0.36290785 2.04441538 6.50449118 -1.40502456 2.75311352 6.23316001 -1.57683886 3.89754377 5.71027345 -0.475719222 3.63422268 5.58706487 -1.77450044 4.16086486 5.8334827 0.82306191 3.19345718 6.4976696 0.851023164 2.3621409 6.78159722 0.867177066 1.57508643 6.5817579 -0.19224892 1.65799038 6.70333015 0.872612656 1.07503789 6.22120816 -0.131215014 1.10557819 6.30185089 0.864331371 0.689458386 5.60105054 -0.0841526211 0.699491277 5.6476496 0.842993042 0.404673055 4.76093566 -0.0493928788 0.407935536 4.78693414 0.812478827 0.207008855 3.74052007 -0.0252666975 0.208014835 3.75450773 0.775583162 0.0827912548 2.57945553 -0.0101051998 0.0830496232 2.58630229 0.734342105 0.0183463459 1.31739587 -0.00223923407 0.0183846314 1.31994005 0.690543988 1.49218248 6.46018565 -1.25711108 1.04449751 6.14056543 -1.12676134 0.679425081 5.5544495 -1.01129825 0.401410699 4.73493784 -0.911264564 0.206002957 3.72653207 -0.826116453 0.0825328865 2.57260876 -0.754552391 0.0183079956 1.31485119 -0.69502258 -1.8125492e-07 -0.00431490601 -0.645900543 -1.55330478e-07 -0.00431299781 1.25861448e-08 -1.29406026e-07 -0.00431108961 0.64590046 -4.39238544 1.32318845 1.64615827 -4.72784033 0.775965829 1.82306806 -4.0218279 1.31645423 2.37665806 -4.31638506 0.790557927 2.60038353 -4.96467435 0.0660217142 1.9735201 -4.51565531 0.104267535 2.80244482 -5.4136934 0.0277760847 1.1445953 -5.13929593 0.761374061 1.04575283 -4.76294331 1.3299221 0.915658731 -3.97552597 1.71181199 1.44932695 -4.30261469 1.73442667 0.761400395 -3.49447852 1.94595849 1.23911067 -3.77843099 1.97676908 0.590847751 -2.96646103 2.02975049 1.02204621 -3.21110474 2.0614715 0.411899627 -2.40868894 1.96730998 0.804669643 -2.61979196 1.99502926 0.231677879 -1.83838069 1.76275892 0.593517972 -2.02180964 1.78401452 0.0565652561 -1.27275222 1.42021977 0.395127338 -1.43357692 1.43415941 -0.107346746 -0.729020379 0.943814341 0.216034295 -0.871383668 0.950422526 -0.25395683 -3.64843758 1.6891973 2.13725376 -3.21052606 1.91514773 1.88737363 -2.72181683 1.99802915 1.63219263 -2.19758609 1.93959037 1.37766145 -1.65495124 1.74150266 1.13047033 -1.11192751 1.40628013 0.897601349 -0.586657008 0.937206073 0.686025482 -0.097120472 0.338023374 0.502613919 -0.224402615 0.33766522 0.0627756045 -0.351684685 0.337307085 -0.377062669 2.12590526 1.93811982 -5.32549803 2.28433111 1.27283652 -5.63880015 2.29330395 2.49702227 -6.0915079 2.52392173 1.62699827 -6.58023286 2.40392884 0.373580203 -5.83434327 2.6906104 0.536244703 -6.89331437 2.11724744 0.210915082 -4.77537216 2.0447405 0.918674022 -4.69736777 1.95850658 1.37921779 -4.55948849 1.9355368 2.38728809 -4.91288011 1.8678577 1.66209645 -4.39136323 1.72011091 2.63819773 -4.4193899 1.75833535 1.84581772 -4.16623495 1.48651345 2.70870546 -3.86347095 1.60747489 1.94526089 -3.83147733 1.24162935 2.61666869 -3.26356544 1.4140658 1.92906467 -3.38093622 0.992344698 2.37994414 -2.63811889 1.19256387 1.77864145 -2.847545 0.745544444 2.01638854 -2.00557318 0.958905786 1.49735184 -2.27007349 0.508114226 1.54385864 -1.38437182 0.726234887 1.0996638 -1.68170313 2.00321623 3.11247891 -5.43439798 1.68188631 3.4305774 -4.67254453 1.36555176 3.47214986 -3.89546358 1.06919281 3.3042727 -3.14619498 0.792125528 2.98124666 -2.42869295 0.532183144 2.53542525 -1.74107303 0.289993275 1.98805315 -1.08704043 0.0686424555 1.35633521 -0.475812259 0.286939353 0.980211653 -0.7929586 0.505236193 0.604088012 -1.11010511 -3.25343806 7.36550111 -3.63959178 -3.7951557 7.19085337 -4.44828973 -3.37260981 8.24046956 -3.49406712 -4.15484687 8.06181578 -4.63705995 -4.35337646 6.52423781 -5.35202484 -4.87710503 7.30419891 -5.77627199 -3.82964821 5.74427672 -4.92777836 -3.43546487 6.3198903 -4.25951951 -3.13426631 6.49053333 -3.78511643 -2.73908594 7.10964025 -2.93274992 -2.83055993 6.39303438 -3.34667194 -2.25295377 6.50249711 -2.31753741 -2.45288285 5.97586089 -2.84829261 -1.79589185 5.62329672 -1.78372402 -2.03581784 5.23648516 -2.34035664 -1.36875172 4.55126344 -1.32107977 -1.61741214 4.25613157 -1.86613806 -0.972386735 3.36562591 -0.919377082 -1.21611356 3.12934638 -1.43863878 -0.607647409 2.14560618 -0.568385355 -0.840170947 1.94592222 -1.056798 -0.275386312 0.970432327 -0.257876079 -0.493411948 0.790407958 -0.713920073 -2.64761343 7.82624743 -2.51882906 -2.05302452 7.02913399 -1.78678221 -1.55596535 6.01010795 -1.22709099 -1.12009129 4.8463953 -0.776021394 -0.728659575 3.60190444 -0.400115048 -0.375123912 2.34529031 -0.0799726278 -0.0573608257 1.15045645 0.198168164 0.227043437 0.0862284857 0.447754614 0.0258942837 -0.0890377552 0.0245676693 -0.175254968 -0.264304027 -0.398619244 -3.25343806 7.36550111 -3.63959178 -3.7951557 7.19085337 -4.44828973 -3.97797418 7.18477443 -3.14630297 -4.5449036 7.0051574 -3.87646588 -4.35337646 6.52423781 -5.35202484 -5.14074378 6.34388278 -4.7116032 -3.56600946 6.70459351 -5.99244682 -3.0454078 7.37655 -5.02011292 -2.52890228 7.5462278 -4.13288059 -2.73908594 7.10964025 -2.93274992 -2.04033598 7.2658862 -3.35767048 -2.25295377 6.50249711 -2.31753741 -1.58938994 6.63071274 -2.69471448 -1.79589185 5.62329672 -1.78372402 -1.17279769 5.72990879 -2.12638291 -1.36875172 4.55126344 -1.32107977 -0.786871541 4.64245753 -1.63591728 -0.972386735 3.36562591 -0.919377082 -0.430315494 3.44571315 -1.21025216 -0.607647409 2.14560618 -0.568385355 -0.103078678 2.21761245 -0.838039739 -0.275386312 0.970432327 -0.257876079 0.194350005 1.03673155 -0.508619328 -3.43783656 6.95339363 -2.50782886 -2.91651743 6.37428148 -1.94036034 -2.41898542 5.516684 -1.4410643 -1.95063214 4.46007033 -1.0062426 -1.51445748 3.28553735 -0.628501711 -1.11221603 2.07360008 -0.298731011 -0.745122691 0.904132852 -0.00713264704 -0.411791808 -0.151756448 0.258584066 0.0258942837 -0.0890377552 0.0245676693 0.463580297 -0.026319075 -0.209448697 -1.75356796 6.79335828 1.74681461 -2.1629735 6.84437146 2.4433426 -1.13357481 6.77542619 2.13673173 -1.47589252 6.82187883 2.82589638 -2.62609085 6.52172435 3.30087847 -1.87525151 6.50634481 3.68572378 -3.37693019 6.53710456 2.91603349 -2.85005416 6.8668654 2.06078799 -2.37356128 6.81129103 1.35689774 -1.40057914 6.4197934 1.20660213 -1.96039051 6.41884538 0.817800139 -1.09791451 5.78505519 0.800965949 -1.60952809 5.76623935 0.427703821 -0.839480723 4.95051809 0.508164119 -1.31103479 4.92112769 0.157088122 -0.619184053 3.97755847 0.306455315 -1.05553166 3.94314645 -0.0211348765 -0.430932142 2.92755605 0.174099039 -0.835519074 2.8914918 -0.130731453 -0.268631014 1.86188376 0.0893538217 -0.644355674 1.82623738 -0.194149687 -0.126187834 0.841920151 0.0304786453 -0.475738558 0.808134429 -0.233377168 -0.840767182 6.42074141 1.59540429 -0.586300965 5.80387104 1.17422808 -0.367926242 4.97990716 0.859239858 -0.182836651 4.01197148 0.634045617 -0.0263451499 2.96361931 0.47892949 0.107093574 1.89753015 0.372857268 0.223363034 0.875705624 0.294334485 0.329498419 -0.0475036792 0.221282258 0.00349323754 -0.0782151329 -0.0246675179 -0.322511874 -0.108926561 -0.270617242 -1.75356796 6.79335828 1.74681461 -2.1629735 6.84437146 2.4433426 -1.62426834 7.49333118 1.57341101 -2.1987345 7.62254849 2.55332521 -2.62609085 6.52172435 3.30087847 -2.77798197 7.28475172 3.62771379 -2.4741999 5.75869698 2.97404414 -2.127213 6.06619443 2.33336032 -1.88286791 6.09338604 1.92021821 -1.40057914 6.4197934 1.20660213 -1.66000864 5.91303962 1.58137406 -1.09791451 5.78505519 0.800965949 -1.41094716 5.46092844 1.24636469 -0.839480723 4.95051809 0.508164119 -1.16108822 4.7469576 0.957178113 -0.619184053 3.97755847 0.306455315 -0.931263849 3.84679294 0.735879728 -0.430932142 2.92755605 0.174099039 -0.726899937 2.83965417 0.57732254 -0.268631014 1.86188376 0.0893538217 -0.546396012 1.79760006 0.465555987 -0.126187834 0.841920151 0.0304786453 -0.385375298 0.787132559 0.380860353 -1.14115005 6.9265485 0.831831032 -0.784881939 6.10918096 0.355567249 -0.517873014 5.15407758 0.0591500732 -0.307104279 4.10832433 -0.122969047 -0.13496413 3.01545728 -0.229124503 0.00913405021 1.92616747 -0.286848385 0.132999837 0.896707577 -0.319902974 0.244223816 -0.0206832481 -0.350938522 0.00349323754 -0.0782151329 -0.0246675179 -0.237237312 -0.135746998 0.301603538 2.12590526 1.93811982 -5.32549803 2.28433111 1.27283652 -5.63880015 1.21014973 1.83157898 -5.60335665 1.29365993 1.18845581 -5.92266616 2.40392884 0.373580203 -5.83434327 1.33768383 0.309583435 -6.13282431 3.47017401 0.437576929 -5.53586189 3.27500221 1.35721756 -5.35493513 3.0416608 2.0446605 -5.04764008 1.9355368 2.38728809 -4.91288011 2.77673783 2.51145546 -4.63105454 1.72011091 2.63819773 -4.4193899 2.48972502 2.76805499 -4.12913954 1.48651345 2.70870546 -3.86347095 2.19108961 2.83267922 -3.56901316 1.24162935 2.61666869 -3.26356544 1.88870555 2.72919341 -2.97212095 0.992344698 2.37994414 -2.63811889 1.58853417 2.47990222 -2.35513845 0.745544444 2.01638854 -2.00557318 1.29635615 2.10443187 -1.7340267 0.508114226 1.54385864 -1.38437182 1.01829258 1.62105248 -1.12543057 1.09433544 2.26312073 -5.19470633 0.950496641 2.5083403 -4.70963993 0.781936788 2.58473154 -4.15792741 0.594553143 2.50414396 -3.55500992 0.39615518 2.27998539 -2.92109883 0.194732983 1.92834522 -2.27711966 -0.00206430476 1.46666447 -1.6433129 -0.186887217 0.912881188 -1.03924949 0.286939353 0.980211653 -0.7929586 0.760765902 1.04754212 -0.546667755 -4.39238544 1.32318845 1.64615827 -4.72784033 0.775965829 1.82306806 -4.93187581 1.87295766 1.9248912 -5.41808467 1.18752833 2.18070851 -4.96467435 0.0660217142 1.9735201 -5.76797638 0.322359192 2.39683248 -4.16137199 -0.190316291 1.55020755 -4.03759599 0.364402826 1.46542761 -3.8528954 0.773419161 1.36742518 -3.97552597 1.71181199 1.44932695 -3.61822935 1.06639614 1.25822587 -3.49447852 1.94595849 1.23911067 -3.32702634 1.26579954 1.13343652 -2.96646103 2.02975049 1.02204621 -2.96787344 1.37247984 0.988441265 -2.40868894 1.96730998 0.804669643 -2.54208917 1.37111827 0.824975161 -1.83838069 1.76275892 0.593517972 -2.06607642 1.245762 0.650835503 -1.27275222 1.42021977 0.395127338 -1.56358871 0.987346263 0.47620536 -0.729020379 0.943814341 0.216034295 -1.05943087 0.593132821 0.311187162 -4.33282292 2.35722693 1.64042812 -3.6619307 2.62611702 1.34478482 -2.96504795 2.68702074 1.05565099 -2.27528888 2.56350178 0.784364125 -1.61068429 2.27975501 0.536200233 -0.981915559 1.85309328 0.314049337 -0.398609721 1.29449565 0.120881594 0.128266106 0.611202003 -0.0395037209 -0.224402615 0.33766522 0.0627756045 -0.577071293 0.0641284569 0.165054997</float_array>
        <technique_common><accessor source="#vfx_kurp_0459-mesh-positions-array" count="330" stride="3"><param name="X" type="float"/><param name="Y" type="float"/><param name="Z" type="float"/></accessor></technique_common>
      </source>
      <source id="vfx_kurp_0459-mesh-normals">
        <float_array id="vfx_kurp_0459-mesh-normals-array" count="990">0.134914187 0.120231939 0.983535685 0.175540338 0.107715023 0.978561732 0.136018139 0.119892535 0.983425059 0.175955082 0.107299593 0.978532885 0.189706342 0.0996004202 0.976775952 0.189477374 0.0996789285 0.976812385 0.190092294 0.0994819095 0.976712992 0.178124832 0.106860207 0.978188346 0.149082113 0.119794051 0.981541598 0.0784603955 0.113266126 0.990461888 0.0996419578 0.120729649 0.987671925 0.0326143506 0.0831762187 0.996001014 0.0318894197 0.0817943283 0.996138922 0.0115712547 0.0521006141 0.9985748 0.0118066583 0.0522627004 0.998563575 0.00403982312 0.0312477819 0.999503505 0.00414700239 0.0315157355 0.999494653 0.00134331453 0.018108109 0.999835132 0.00137757285 0.0182741931 0.999832064 0.000376298929 0.00960639473 0.999953787 0.000386794303 0.00970241803 0.999952856 6.33807157e-05 0.0039595008 0.999992159 6.64128226e-05 0.00401541584 0.999991936 0.0795535647 0.113843885 0.990308437 0.0334037029 0.0841883962 0.995889806 0.0118394637 0.0528434679 0.998532621 0.00410277198 0.0316011077 0.99949214 0.00135967989 0.0182821514 0.999831943 0.0003804174 0.00970027062 0.999952879 6.37018161e-05 0.00401304333 0.999991946 -1.38784718e-06 0.0016948817 0.999998564 -6.08028243e-07 0.00169345142 0.999998566 1.21097457e-07 0.00169197074 0.999998569 0.107400743 0.985032356 -0.134819653 0.439396322 0.881012261 -0.175351843 0.125000241 0.982556124 -0.137689519 0.446686161 0.877071465 -0.176683669 0.552594061 0.811774545 -0.188843562 0.552734677 0.811628645 -0.189059035 0.552261352 0.812009214 -0.188807934 0.445263243 0.87790699 -0.176124843 0.120960508 0.983218883 -0.136562016 -0.3608607 0.929325627 -0.0783162478 -0.343096756 0.935852747 -0.080400577 -0.732074299 0.680456321 -0.0323483636 -0.723333359 0.689668775 -0.0338501521 -0.904178303 0.427000931 -0.0114804476 -0.901573517 0.432458658 -0.0120292592 -0.966627071 0.256156209 -0.00401279986 -0.965905719 0.258860556 -0.00416596324 -0.988924231 0.148415241 -0.00133497516 -0.988713115 0.149814804 -0.00137896234 -0.996896207 0.0787261873 -0.000373429502 -0.996834884 0.0794988283 -0.000386704869 -0.999473401 0.032448672 -6.22946032e-05 -0.999458878 0.0328929583 -6.61716131e-05 -0.339427737 0.937141173 -0.0809643933 -0.723144017 0.689893565 -0.0333106677 -0.901682432 0.432239381 -0.0117434533 -0.965918086 0.258815593 -0.00409139702 -0.988713478 0.14981259 -0.00135904163 -0.996834641 0.0795019124 -0.000380465035 -0.999458793 0.0328955502 -6.38391577e-05 -0.999903683 0.0138789081 1.33445213e-06 -0.999903674 0.0138795571 -8.71625101e-10 -0.999903643 0.0138818001 -8.7823656e-10 -0.657243477 0.672827231 0.339609378 -0.783212109 0.471127798 0.405730686 -0.662140866 0.666742822 0.342086951 -0.78592951 0.465179866 0.407335852 -0.825146547 0.366352852 0.430021818 -0.825169556 0.366223689 0.430087682 -0.825122311 0.366480089 0.429959901 -0.785740186 0.465682739 0.407126451 -0.661752263 0.667272487 0.341806043 -0.469139519 0.846728985 0.250914605 -0.475370265 0.842407061 0.253719244 -0.238927824 0.959340741 0.150262563 -0.245662093 0.957185565 0.153120637 -0.00146682069 0.998619478 0.0525070195 -0.00741149964 0.998464006 0.0549062686 0.21500158 0.976089465 -0.0319949496 0.210409691 0.977145815 -0.0302294184 0.398766077 0.911568598 -0.100141438 0.395460903 0.913138985 -0.0989336594 0.549781254 0.821141766 -0.153188688 0.547478688 0.822826344 -0.152393881 0.672145305 0.714674054 -0.193550214 0.670573751 0.716285386 -0.193044269 -0.475864029 0.842050205 0.253978106 -0.246066645 0.957058192 0.15326716 -0.00764551437 0.99846 0.0549470078 0.210297834 0.977169675 -0.0302365324 0.395410426 0.913158971 -0.0989509393 0.547456667 0.822838046 -0.152409803 0.670565502 0.716289716 -0.193056856 0.724574208 0.656351208 -0.210226804 0.724567431 0.656361298 -0.210218658 0.724560569 0.656371484 -0.210210505 0.950845398 0.111254563 0.288990401 0.957949821 0.0825034011 0.27481872 0.951037748 0.110580405 0.288615967 0.958031161 0.0819480256 0.274701322 0.960250588 0.0689506064 0.270489595 0.960221447 0.0690814166 0.270559662 0.960301097 0.0687342283 0.270365326 0.958224237 0.0811934918 0.27425158 0.95150664 0.109344836 0.287539251 0.939089712 0.138485565 0.314534991 0.940027254 0.136903706 0.312419808 0.92461432 0.15565248 0.347650204 0.925288829 0.155104811 0.346096923 0.911185076 0.160292072 0.379536833 0.911546282 0.160236179 0.378692147 0.900853267 0.156833394 0.404804494 0.901069818 0.156931549 0.404284148 0.893404179 0.150000914 0.423472193 0.893540316 0.150141745 0.42313492 0.887951319 0.142099486 0.437435927 0.888040029 0.142240722 0.437209886 0.883754854 0.133815841 0.448409053 0.883816045 0.133948159 0.448248914 0.939406136 0.137942341 0.313828014 0.924968488 0.155435057 0.346804324 0.911475172 0.160345001 0.378817227 0.901045444 0.156992242 0.404314907 0.893524713 0.150165961 0.423159275 0.88803012 0.142245994 0.437228296 0.8838102 0.133946147 0.448261041 0.881878172 0.1296007 0.453315066 0.881877839 0.129596561 0.453316897 0.881877457 0.1295917 0.45331903 0.809171838 0.201830442 -0.551820088 0.781201427 0.193972812 -0.593379203 0.80873085 0.201891842 -0.552443749 0.780889277 0.193565251 -0.593922916 0.769631448 0.184565306 -0.611230793 0.769869193 0.184661728 -0.610902178 0.769221726 0.184442863 -0.611783268 0.780111908 0.193540797 -0.59495157 0.807863426 0.20193817 -0.553694555 0.837806875 0.188944517 -0.512230035 0.837324081 0.189219623 -0.512917458 0.856437578 0.167187127 -0.488429257 0.856247257 0.167392494 -0.488692528 0.866080179 0.149351838 -0.477073528 0.865982657 0.149533735 -0.477193567 0.871010681 0.13728382 -0.471692215 0.87096424 0.13740045 -0.471744007 0.873609505 0.129647094 -0.469039512 0.873587397 0.12971345 -0.469062343 0.87490765 0.12536819 -0.467781383 0.874898436 0.125398517 -0.467790486 0.875266324 0.124119641 -0.467443233 0.875267168 0.124116252 -0.467442553 0.837473047 0.189307871 -0.512641616 0.856251369 0.167540701 -0.488634533 0.866000632 0.14955635 -0.477153857 0.870974499 0.137394446 -0.471726815 0.873592134 0.129706606 -0.469055412 0.874900445 0.125394879 -0.467787704 0.875267094 0.124117256 -0.467442426 0.875227343 0.124262327 -0.467478311 0.875227198 0.124263404 -0.467478297 0.875227092 0.124264575 -0.467478185 -0.135801899 0.977890627 0.159021276 -0.366117862 0.912171476 -0.184121995 -0.141955184 0.978392077 0.150325211 -0.370287924 0.909314571 -0.189825877 -0.456253527 0.826903817 -0.328729062 -0.456716537 0.826656342 -0.328708529 -0.455922168 0.827305396 -0.328177937 -0.36949148 0.909748833 -0.189296346 -0.141287027 0.978367257 0.151114149 0.0984878618 0.870681587 0.481885584 0.0945353278 0.873816604 0.476977584 0.250610382 0.692816676 0.676165284 0.248750113 0.695477704 0.674117307 0.329689947 0.546865101 0.769573324 0.328910497 0.548470731 0.768763775 0.370140584 0.447979214 0.813824657 0.369792906 0.448892353 0.813479479 0.391450402 0.385395434 0.835605734 0.391286907 0.385898141 0.835450287 0.402090965 0.350330679 0.84592628 0.402023317 0.350558044 0.845864239 0.405029467 0.34009596 0.848696571 0.405035944 0.340073318 0.848702552 0.0945466386 0.874019564 0.47660333 0.248889214 0.695510284 0.674032346 0.328951317 0.548492232 0.768730969 0.369801722 0.448908767 0.813466413 0.391288478 0.385907817 0.835445081 0.402023704 0.350562633 0.845862153 0.405036176 0.340072479 0.848702778 0.404702659 0.341256466 0.848386576 0.404703616 0.3412562 0.848386226 0.404704061 0.341254649 0.848386638 0.174348133 0.956734432 -0.232941958 -0.0375100152 0.991359833 0.1256928 0.169038938 0.95975728 -0.224258336 -0.0412374326 0.990290107 0.132759095 -0.128392829 0.94899141 0.28797671 -0.128451867 0.948815629 0.288529064 -0.128323096 0.94916483 0.287435747 -0.0411042456 0.990433328 0.131727993 0.169474128 0.959471303 -0.225151811 0.371586383 0.757425966 -0.536870064 0.368439971 0.762270686 -0.532161055 0.48841444 0.526281182 -0.696045582 0.487124993 0.529743031 -0.694320936 0.543715436 0.355812234 -0.760112609 0.543222658 0.357723499 -0.759567668 0.569494723 0.245785415 -0.784388481 0.569290458 0.246819242 -0.784212111 0.581984871 0.177935151 -0.793493977 0.581894704 0.178488778 -0.793435763 0.587824991 0.140461338 -0.796700943 0.587789486 0.140708613 -0.796683504 0.589379789 0.129596875 -0.797393325 0.589383246 0.129572347 -0.797394755 0.368089835 0.762498756 -0.532076611 0.486988484 0.529744266 -0.694415747 0.543175647 0.357736236 -0.759595288 0.569274597 0.246833694 -0.784219077 0.581889152 0.178498179 -0.793437719 0.587787387 0.140713095 -0.796684261 0.589383361 0.129571497 -0.797394809 0.589204424 0.130826755 -0.797322085 0.589204248 0.130825698 -0.797322388 0.589203971 0.130824599 -0.797322773 -0.846671025 0.0246279234 -0.531546461 -0.872147627 0.0290826841 -0.488377635 -0.847037593 0.0247886827 -0.530954646 -0.872682878 0.0286039825 -0.487448876 -0.883322822 0.0250422243 -0.468095802 -0.883187659 0.0248081351 -0.46836323 -0.883707539 0.0248643369 -0.467378595 -0.873287453 0.0288971015 -0.486347594 -0.847807338 0.0251961459 -0.529705458 -0.822213362 0.00019689264 -0.569179364 -0.822899087 0.000881376484 -0.568186868 -0.808009926 -0.0280518757 -0.588500681 -0.808305787 -0.027601426 -0.588115563 -0.8013774 -0.04878747 -0.596166122 -0.801488867 -0.0484979668 -0.596039884 -0.798269854 -0.0621710036 -0.599082638 -0.79831165 -0.0620113574 -0.599043488 -0.796756294 -0.0704340511 -0.600182017 -0.796773189 -0.0703497375 -0.600169475 -0.79604666 -0.0750001208 -0.60057031 -0.79605316 -0.0749626 -0.600566379 -0.795858199 -0.0763207445 -0.600653704 -0.795857624 -0.0763247252 -0.600653959 -0.822714182 0.000897193996 -0.568454545 -0.808259023 -0.0274663348 -0.588186154 -0.80146087 -0.0484850449 -0.596078581 -0.798300155 -0.0620216585 -0.59905774 -0.796768617 -0.0703581954 -0.600174554 -0.796051412 -0.0749669493 -0.600568152 -0.795857496 -0.0763237707 -0.60065425 -0.795877319 -0.0761705396 -0.600647436 -0.795876813 -0.0761700135 -0.600648173 -0.79587711 -0.0761683221 -0.600647994 0.172399682 0.585259607 -0.79230647 0.230570341 0.349389576 -0.908165317 0.174832761 0.576968907 -0.797834811 0.231573737 0.342944601 -0.910363996 0.248772249 0.237167686 -0.939076066 0.248672803 0.237025459 -0.939138312 0.248736572 0.237412465 -0.939023663 0.23159158 0.343684074 -0.910080544 0.174676994 0.578045231 -0.797089492 0.0757123064 0.809125821 -0.582737551 0.0794368391 0.802840953 -0.590877477 -0.0428039772 0.949381005 -0.311196927 -0.0391458306 0.946641255 -0.319903012 -0.152616236 0.987010085 -0.0501933929 -0.149977831 0.987055051 -0.0568240874 -0.237246897 0.958726333 0.156709058 -0.235588117 0.959825509 0.152424513 -0.298329419 0.90282895 0.309676355 -0.297298107 0.904090772 0.3069751 -0.343041004 0.83812255 0.424114914 -0.342367952 0.839296829 0.422332829 -0.377440504 0.770263058 0.514036465 -0.376970107 0.77133273 0.512776129 0.0798084464 0.802055505 -0.591893216 -0.0387965583 0.946452662 -0.320503021 -0.149788944 0.987075851 -0.0569608427 -0.235500524 0.959849155 0.152410965 -0.297257277 0.904105968 0.306969883 -0.342348277 0.839308142 0.422326296 -0.376960721 0.771341436 0.512769933 -0.392136158 0.734706523 0.553566219 -0.392138691 0.734707596 0.553563 -0.392136992 0.734711827 0.553558589 -0.452192585 0.00848172438 -0.891879996 -0.467581334 -0.0161027145 -0.883803371 -0.452609562 0.00787481281 -0.891674028 -0.467790871 -0.0167210437 -0.883680999 -0.473211709 -0.0286518766 -0.880482679 -0.473136604 -0.0286138411 -0.880524277 -0.473291923 -0.0288418692 -0.880433361 -0.468127401 -0.0172381625 -0.883492831 -0.453162701 0.00731208316 -0.891397835 -0.429251645 0.0296068716 -0.902699539 -0.43046528 0.0288118273 -0.902147173 -0.401126931 0.0434062306 -0.914993488 -0.402284775 0.043010917 -0.914503702 -0.372115316 0.0482202436 -0.926933115 -0.373030715 0.0481436728 -0.926569087 -0.345689894 0.0454597847 -0.937246982 -0.34635573 0.0455623894 -0.936996146 -0.323273058 0.0375706958 -0.945559608 -0.32373794 0.0377525789 -0.945393298 -0.304855711 0.0265263548 -0.952029069 -0.305172378 0.0267296354 -0.951921922 -0.289931415 0.0135292597 -0.956951793 -0.29014325 0.0137251354 -0.956884797 -0.429851981 0.0292091297 -0.902426784 -0.401849281 0.0431800013 -0.914687183 -0.372813165 0.0481982716 -0.926653803 -0.346257785 0.0455852052 -0.937031235 -0.323690389 0.0377652725 -0.945409073 -0.3051477 0.0267377526 -0.951929605 -0.290130552 0.0137323754 -0.956888544 -0.283278132 0.00665700515 -0.959014695 -0.283282497 0.00664486848 -0.959013489 -0.283269621 0.0066265512 -0.959017419</float_array>
        <technique_common><accessor source="#vfx_kurp_0459-mesh-normals-array" count="330" stride="3"><param name="X" type="float"/><param name="Y" type="float"/><param name="Z" type="float"/></accessor></technique_common>
      </source>
      <source id="vfx_kurp_0459-mesh-uv0">
        <float_array id="vfx_kurp_0459-mesh-uv0-array" count="660">0.5 0.199999988 0.5 0.0999999642 0 0.199999988 0 0.0999999642 0.5 0 0 0 1 0 1 0.0999999642 1 0.199999988 0.5 0.300000012 1 0.300000012 0.5 0.399999976 1 0.399999976 0.5 0.5 1 0.5 0.5 0.600000024 1 0.600000024 0.5 0.699999988 1 0.699999988 0.5 0.800000012 1 0.800000012 0.5 0.899999976 1 0.899999976 0 0.300000012 0 0.399999976 0 0.5 0 0.600000024 0 0.699999988 0 0.800000012 0 0.899999976 0 1 0.5 1 1 1 0.5 0.199999988 0.5 0.0999999642 0 0.199999988 0 0.0999999642 0.5 0 0 0 1 0 1 0.0999999642 1 0.199999988 0.5 0.300000012 1 0.300000012 0.5 0.399999976 1 0.399999976 0.5 0.5 1 0.5 0.5 0.600000024 1 0.600000024 0.5 0.699999988 1 0.699999988 0.5 0.800000012 1 0.800000012 0.5 0.899999976 1 0.899999976 0 0.300000012 0 0.399999976 0 0.5 0 0.600000024 0 0.699999988 0 0.800000012 0 0.899999976 0 1 0.5 1 1 1 0.5 0.199999988 0.5 0.0999999642 0 0.199999988 0 0.0999999642 0.5 0 0 0 1 0 1 0.0999999642 1 0.199999988 0.5 0.300000012 1 0.300000012 0.5 0.399999976 1 0.399999976 0.5 0.5 1 0.5 0.5 0.600000024 1 0.600000024 0.5 0.699999988 1 0.699999988 0.5 0.800000012 1 0.800000012 0.5 0.899999976 1 0.899999976 0 0.300000012 0 0.399999976 0 0.5 0 0.600000024 0 0.699999988 0 0.800000012 0 0.899999976 0 1 0.5 1 1 1 0.5 0.199999988 0.5 0.0999999642 0 0.199999988 0 0.0999999642 0.5 0 0 0 1 0 1 0.0999999642 1 0.199999988 0.5 0.300000012 1 0.300000012 0.5 0.399999976 1 0.399999976 0.5 0.5 1 0.5 0.5 0.600000024 1 0.600000024 0.5 0.699999988 1 0.699999988 0.5 0.800000012 1 0.800000012 0.5 0.899999976 1 0.899999976 0 0.300000012 0 0.399999976 0 0.5 0 0.600000024 0 0.699999988 0 0.800000012 0 0.899999976 0 1 0.5 1 1 1 0.5 0.199999988 0.5 0.0999999642 0 0.199999988 0 0.0999999642 0.5 0 0 0 1 0 1 0.0999999642 1 0.199999988 0.5 0.300000012 1 0.300000012 0.5 0.399999976 1 0.399999976 0.5 0.5 1 0.5 0.5 0.600000024 1 0.600000024 0.5 0.699999988 1 0.699999988 0.5 0.800000012 1 0.800000012 0.5 0.899999976 1 0.899999976 0 0.300000012 0 0.399999976 0 0.5 0 0.600000024 0 0.699999988 0 0.800000012 0 0.899999976 0 1 0.5 1 1 1 0.5 0.199999988 0.5 0.0999999642 0 0.199999988 0 0.0999999642 0.5 0 0 0 1 0 1 0.0999999642 1 0.199999988 0.5 0.300000012 1 0.300000012 0.5 0.399999976 1 0.399999976 0.5 0.5 1 0.5 0.5 0.600000024 1 0.600000024 0.5 0.699999988 1 0.699999988 0.5 0.800000012 1 0.800000012 0.5 0.899999976 1 0.899999976 0 0.300000012 0 0.399999976 0 0.5 0 0.600000024 0 0.699999988 0 0.800000012 0 0.899999976 0 1 0.5 1 1 1 0.5 0.199999988 0.5 0.0999999642 0 0.199999988 0 0.0999999642 0.5 0 0 0 1 0 1 0.0999999642 1 0.199999988 0.5 0.300000012 1 0.300000012 0.5 0.399999976 1 0.399999976 0.5 0.5 1 0.5 0.5 0.600000024 1 0.600000024 0.5 0.699999988 1 0.699999988 0.5 0.800000012 1 0.800000012 0.5 0.899999976 1 0.899999976 0 0.300000012 0 0.399999976 0 0.5 0 0.600000024 0 0.699999988 0 0.800000012 0 0.899999976 0 1 0.5 1 1 1 0.5 0.199999988 0.5 0.0999999642 0 0.199999988 0 0.0999999642 0.5 0 0 0 1 0 1 0.0999999642 1 0.199999988 0.5 0.300000012 1 0.300000012 0.5 0.399999976 1 0.399999976 0.5 0.5 1 0.5 0.5 0.600000024 1 0.600000024 0.5 0.699999988 1 0.699999988 0.5 0.800000012 1 0.800000012 0.5 0.899999976 1 0.899999976 0 0.300000012 0 0.399999976 0 0.5 0 0.600000024 0 0.699999988 0 0.800000012 0 0.899999976 0 1 0.5 1 1 1 0.5 0.199999988 0.5 0.0999999642 0 0.199999988 0 0.0999999642 0.5 0 0 0 1 0 1 0.0999999642 1 0.199999988 0.5 0.300000012 1 0.300000012 0.5 0.399999976 1 0.399999976 0.5 0.5 1 0.5 0.5 0.600000024 1 0.600000024 0.5 0.699999988 1 0.699999988 0.5 0.800000012 1 0.800000012 0.5 0.899999976 1 0.899999976 0 0.300000012 0 0.399999976 0 0.5 0 0.600000024 0 0.699999988 0 0.800000012 0 0.899999976 0 1 0.5 1 1 1 0.5 0.199999988 0.5 0.0999999642 0 0.199999988 0 0.0999999642 0.5 0 0 0 1 0 1 0.0999999642 1 0.199999988 0.5 0.300000012 1 0.300000012 0.5 0.399999976 1 0.399999976 0.5 0.5 1 0.5 0.5 0.600000024 1 0.600000024 0.5 0.699999988 1 0.699999988 0.5 0.800000012 1 0.800000012 0.5 0.899999976 1 0.899999976 0 0.300000012 0 0.399999976 0 0.5 0 0.600000024 0 0.699999988 0 0.800000012 0 0.899999976 0 1 0.5 1 1 1</float_array>
        <technique_common><accessor source="#vfx_kurp_0459-mesh-uv0-array" count="330" stride="2"><param name="S" type="float"/><param name="T" type="float"/></accessor></technique_common>
      </source>
      <source id="vfx_kurp_0459-mesh-colors">
        <float_array id="vfx_kurp_0459-mesh-colors-array" count="1320">0.0392156877 0.0392156877 0.0392156877 0.649999976 0.0392156877 0.0392156877 0.0392156877 0.449999988 0.0392156877 0.0392156877 0.0392156877 0 0.0392156877 0.0392156877 0.0392156877 0 0.0392156877 0.0392156877 0.0392156877 0 0.0392156877 0.0392156877 0.0392156877 0 0.0392156877 0.0392156877 0.0392156877 0 0.0392156877 0.0392156877 0.0392156877 0 0.0392156877 0.0392156877 0.0392156877 0 0.0392156877 0.0392156877 0.0392156877 0.849999964 0.0392156877 0.0392156877 0.0392156877 0 0.0392156877 0.0392156877 0.0392156877 1 0.0392156877 0.0392156877 0.0392156877 0 0.0392156877 0.0392156877 0.0392156877 1 0.0392156877 0.0392156877 0.0392156877 0 0.0392156877 0.0392156877 0.0392156877 1 0.0392156877 0.0392156877 0.0392156877 0 0.0392156877 0.0392156877 0.0392156877 1 0.0392156877 0.0392156877 0.0392156877 0 0.0392156877 0.0392156877 0.0392156877 1 0.0392156877 0.0392156877 0.0392156877 0 0.0392156877 0.0392156877 0.0392156877 1 0.0392156877 0.0392156877 0.0392156877 0 0.0392156877 0.0392156877 0.0392156877 0 0.0392156877 0.0392156877 0.0392156877 0 0.0392156877 0.0392156877 0.0392156877 0 0.0392156877 0.0392156877 0.0392156877 0 0.0392156877 0.0392156877 0.0392156877 0 0.0392156877 0.0392156877 0.0392156877 0 0.0392156877 0.0392156877 0.0392156877 0 0.0392156877 0.0392156877 0.0392156877 0 0.0392156877 0.0392156877 0.0392156877 0 0.0392156877 0.0392156877 0.0392156877 0 0.0392156877 0.0392156877 0.0392156877 0.649999976 0.0392156877 0.0392156877 0.0392156877 0.449999988 0.0392156877 0.0392156877 0.0392156877 0 0.0392156877 0.0392156877 0.0392156877 0 0.0392156877 0.0392156877 0.0392156877 0 0.0392156877 0.0392156877 0.0392156877 0 0.0392156877 0.0392156877 0.0392156877 0 0.0392156877 0.0392156877 0.0392156877 0 0.0392156877 0.0392156877 0.0392156877 0 0.0392156877 0.0392156877 0.0392156877 0.849999964 0.0392156877 0.0392156877 0.0392156877 0 0.0392156877 0.0392156877 0.0392156877 1 0.0392156877 0.0392156877 0.0392156877 0 0.0392156877 0.0392156877 0.0392156877 1 0.0392156877 0.0392156877 0.0392156877 0 0.0392156877 0.0392156877 0.0392156877 1 0.0392156877 0.0392156877 0.0392156877 0 0.0392156877 0.0392156877 0.0392156877 1 0.0392156877 0.0392156877 0.0392156877 0 0.0392156877 0.0392156877 0.0392156877 1 0.0392156877 0.0392156877 0.0392156877 0 0.0392156877 0.0392156877 0.0392156877 1 0.0392156877 0.0392156877 0.0392156877 0 0.0392156877 0.0392156877 0.0392156877 0 0.0392156877 0.0392156877 0.0392156877 0 0.0392156877 0.0392156877 0.0392156877 0 0.0392156877 0.0392156877 0.0392156877 0 0.0392156877 0.0392156877 0.0392156877 0 0.0392156877 0.0392156877 0.0392156877 0 0.0392156877 0.0392156877 0.0392156877 0 0.0392156877 0.0392156877 0.0392156877 0 0.0392156877 0.0392156877 0.0392156877 0 0.0392156877 0.0392156877 0.0392156877 0 0.0392156877 0.0392156877 0.0392156877 0.649999976 0.0392156877 0.0392156877 0.0392156877 0.449999988 0.0392156877 0.0392156877 0.0392156877 0 0.0392156877 0.0392156877 0.0392156877 0 0.0392156877 0.0392156877 0.0392156877 0 0.0392156877 0.0392156877 0.0392156877 0 0.0392156877 0.0392156877 0.0392156877 0 0.0392156877 0.0392156877 0.0392156877 0 0.0392156877 0.0392156877 0.0392156877 0 0.0392156877 0.0392156877 0.0392156877 0.849999964 0.0392156877 0.0392156877 0.0392156877 0 0.0392156877 0.0392156877 0.0392156877 1 0.0392156877 0.0392156877 0.0392156877 0 0.0392156877 0.0392156877 0.0392156877 1 0.0392156877 0.0392156877 0.0392156877 0 0.0392156877 0.0392156877 0.0392156877 1 0.0392156877 0.0392156877 0.0392156877 0 0.0392156877 0.0392156877 0.0392156877 1 0.0392156877 0.0392156877 0.0392156877 0 0.0392156877 0.0392156877 0.0392156877 1 0.0392156877 0.0392156877 0.0392156877 0 0.0392156877 0.0392156877 0.0392156877 1 0.0392156877 0.0392156877 0.0392156877 0 0.0392156877 0.0392156877 0.0392156877 0 0.0392156877 0.0392156877 0.0392156877 0 0.0392156877 0.0392156877 0.0392156877 0 0.0392156877 0.0392156877 0.0392156877 0 0.0392156877 0.0392156877 0.0392156877 0 0.0392156877 0.0392156877 0.0392156877 0 0.0392156877 0.0392156877 0.0392156877 0 0.0392156877 0.0392156877 0.0392156877 0 0.0392156877 0.0392156877 0.0392156877 0 0.0392156877 0.0392156877 0.0392156877 0 0.0392156877 0.0392156877 0.0392156877 0.649999976 0.0392156877 0.0392156877 0.0392156877 0.449999988 0.0392156877 0.0392156877 0.0392156877 0 0.0392156877 0.0392156877 0.0392156877 0 0.0392156877 0.0392156877 0.0392156877 0 0.0392156877 0.0392156877 0.0392156877 0 0.0392156877 0.0392156877 0.0392156877 0 0.0392156877 0.0392156877 0.0392156877 0 0.0392156877 0.0392156877 0.0392156877 0 0.0392156877 0.0392156877 0.0392156877 0.849999964 0.0392156877 0.0392156877 0.0392156877 0 0.0392156877 0.0392156877 0.0392156877 1 0.0392156877 0.0392156877 0.0392156877 0 0.0392156877 0.0392156877 0.0392156877 1 0.0392156877 0.0392156877 0.0392156877 0 0.0392156877 0.0392156877 0.0392156877 1 0.0392156877 0.0392156877 0.0392156877 0 0.0392156877 0.0392156877 0.0392156877 1 0.0392156877 0.0392156877 0.0392156877 0 0.0392156877 0.0392156877 0.0392156877 1 0.0392156877 0.0392156877 0.0392156877 0 0.0392156877 0.0392156877 0.0392156877 1 0.0392156877 0.0392156877 0.0392156877 0 0.0392156877 0.0392156877 0.0392156877 0 0.0392156877 0.0392156877 0.0392156877 0 0.0392156877 0.0392156877 0.0392156877 0 0.0392156877 0.0392156877 0.0392156877 0 0.0392156877 0.0392156877 0.0392156877 0 0.0392156877 0.0392156877 0.0392156877 0 0.0392156877 0.0392156877 0.0392156877 0 0.0392156877 0.0392156877 0.0392156877 0 0.0392156877 0.0392156877 0.0392156877 0 0.0392156877 0.0392156877 0.0392156877 0 0.0392156877 0.0392156877 0.0392156877 0.649999976 0.0392156877 0.0392156877 0.0392156877 0.449999988 0.0392156877 0.0392156877 0.0392156877 0 0.0392156877 0.0392156877 0.0392156877 0 0.0392156877 0.0392156877 0.0392156877 0 0.0392156877 0.0392156877 0.0392156877 0 0.0392156877 0.0392156877 0.0392156877 0 0.0392156877 0.0392156877 0.0392156877 0 0.0392156877 0.0392156877 0.0392156877 0 0.0392156877 0.0392156877 0.0392156877 0.849999964 0.0392156877 0.0392156877 0.0392156877 0 0.0392156877 0.0392156877 0.0392156877 1 0.0392156877 0.0392156877 0.0392156877 0 0.0392156877 0.0392156877 0.0392156877 1 0.0392156877 0.0392156877 0.0392156877 0 0.0392156877 0.0392156877 0.0392156877 1 0.0392156877 0.0392156877 0.0392156877 0 0.0392156877 0.0392156877 0.0392156877 1 0.0392156877 0.0392156877 0.0392156877 0 0.0392156877 0.0392156877 0.0392156877 1 0.0392156877 0.0392156877 0.0392156877 0 0.0392156877 0.0392156877 0.0392156877 1 0.0392156877 0.0392156877 0.0392156877 0 0.0392156877 0.0392156877 0.0392156877 0 0.0392156877 0.0392156877 0.0392156877 0 0.0392156877 0.0392156877 0.0392156877 0 0.0392156877 0.0392156877 0.0392156877 0 0.0392156877 0.0392156877 0.0392156877 0 0.0392156877 0.0392156877 0.0392156877 0 0.0392156877 0.0392156877 0.0392156877 0 0.0392156877 0.0392156877 0.0392156877 0 0.0392156877 0.0392156877 0.0392156877 0 0.0392156877 0.0392156877 0.0392156877 0 0.0392156877 0.0392156877 0.0392156877 0.649999976 0.0392156877 0.0392156877 0.0392156877 0.449999988 0.0392156877 0.0392156877 0.0392156877 0 0.0392156877 0.0392156877 0.0392156877 0 0.0392156877 0.0392156877 0.0392156877 0 0.0392156877 0.0392156877 0.0392156877 0 0.0392156877 0.0392156877 0.0392156877 0 0.0392156877 0.0392156877 0.0392156877 0 0.0392156877 0.0392156877 0.0392156877 0 0.0392156877 0.0392156877 0.0392156877 0.849999964 0.0392156877 0.0392156877 0.0392156877 0 0.0392156877 0.0392156877 0.0392156877 1 0.0392156877 0.0392156877 0.0392156877 0 0.0392156877 0.0392156877 0.0392156877 1 0.0392156877 0.0392156877 0.0392156877 0 0.0392156877 0.0392156877 0.0392156877 1 0.0392156877 0.0392156877 0.0392156877 0 0.0392156877 0.0392156877 0.0392156877 1 0.0392156877 0.0392156877 0.0392156877 0 0.0392156877 0.0392156877 0.0392156877 1 0.0392156877 0.0392156877 0.0392156877 0 0.0392156877 0.0392156877 0.0392156877 1 0.0392156877 0.0392156877 0.0392156877 0 0.0392156877 0.0392156877 0.0392156877 0 0.0392156877 0.0392156877 0.0392156877 0 0.0392156877 0.0392156877 0.0392156877 0 0.0392156877 0.0392156877 0.0392156877 0 0.0392156877 0.0392156877 0.0392156877 0 0.0392156877 0.0392156877 0.0392156877 0 0.0392156877 0.0392156877 0.0392156877 0 0.0392156877 0.0392156877 0.0392156877 0 0.0392156877 0.0392156877 0.0392156877 0 0.0392156877 0.0392156877 0.0392156877 0 0.0392156877 0.0392156877 0.0392156877 0.649999976 0.0392156877 0.0392156877 0.0392156877 0.449999988 0.0392156877 0.0392156877 0.0392156877 0 0.0392156877 0.0392156877 0.0392156877 0 0.0392156877 0.0392156877 0.0392156877 0 0.0392156877 0.0392156877 0.0392156877 0 0.0392156877 0.0392156877 0.0392156877 0 0.0392156877 0.0392156877 0.0392156877 0 0.0392156877 0.0392156877 0.0392156877 0 0.0392156877 0.0392156877 0.0392156877 0.849999964 0.0392156877 0.0392156877 0.0392156877 0 0.0392156877 0.0392156877 0.0392156877 1 0.0392156877 0.0392156877 0.0392156877 0 0.0392156877 0.0392156877 0.0392156877 1 0.0392156877 0.0392156877 0.0392156877 0 0.0392156877 0.0392156877 0.0392156877 1 0.0392156877 0.0392156877 0.0392156877 0 0.0392156877 0.0392156877 0.0392156877 1 0.0392156877 0.0392156877 0.0392156877 0 0.0392156877 0.0392156877 0.0392156877 1 0.0392156877 0.0392156877 0.0392156877 0 0.0392156877 0.0392156877 0.0392156877 1 0.0392156877 0.0392156877 0.0392156877 0 0.0392156877 0.0392156877 0.0392156877 0 0.0392156877 0.0392156877 0.0392156877 0 0.0392156877 0.0392156877 0.0392156877 0 0.0392156877 0.0392156877 0.0392156877 0 0.0392156877 0.0392156877 0.0392156877 0 0.0392156877 0.0392156877 0.0392156877 0 0.0392156877 0.0392156877 0.0392156877 0 0.0392156877 0.0392156877 0.0392156877 0 0.0392156877 0.0392156877 0.0392156877 0 0.0392156877 0.0392156877 0.0392156877 0 0.0392156877 0.0392156877 0.0392156877 0.649999976 0.0392156877 0.0392156877 0.0392156877 0.449999988 0.0392156877 0.0392156877 0.0392156877 0 0.0392156877 0.0392156877 0.0392156877 0 0.0392156877 0.0392156877 0.0392156877 0 0.0392156877 0.0392156877 0.0392156877 0 0.0392156877 0.0392156877 0.0392156877 0 0.0392156877 0.0392156877 0.0392156877 0 0.0392156877 0.0392156877 0.0392156877 0 0.0392156877 0.0392156877 0.0392156877 0.849999964 0.0392156877 0.0392156877 0.0392156877 0 0.0392156877 0.0392156877 0.0392156877 1 0.0392156877 0.0392156877 0.0392156877 0 0.0392156877 0.0392156877 0.0392156877 1 0.0392156877 0.0392156877 0.0392156877 0 0.0392156877 0.0392156877 0.0392156877 1 0.0392156877 0.0392156877 0.0392156877 0 0.0392156877 0.0392156877 0.0392156877 1 0.0392156877 0.0392156877 0.0392156877 0 0.0392156877 0.0392156877 0.0392156877 1 0.0392156877 0.0392156877 0.0392156877 0 0.0392156877 0.0392156877 0.0392156877 1 0.0392156877 0.0392156877 0.0392156877 0 0.0392156877 0.0392156877 0.0392156877 0 0.0392156877 0.0392156877 0.0392156877 0 0.0392156877 0.0392156877 0.0392156877 0 0.0392156877 0.0392156877 0.0392156877 0 0.0392156877 0.0392156877 0.0392156877 0 0.0392156877 0.0392156877 0.0392156877 0 0.0392156877 0.0392156877 0.0392156877 0 0.0392156877 0.0392156877 0.0392156877 0 0.0392156877 0.0392156877 0.0392156877 0 0.0392156877 0.0392156877 0.0392156877 0 0.0392156877 0.0392156877 0.0392156877 0.649999976 0.0392156877 0.0392156877 0.0392156877 0.449999988 0.0392156877 0.0392156877 0.0392156877 0 0.0392156877 0.0392156877 0.0392156877 0 0.0392156877 0.0392156877 0.0392156877 0 0.0392156877 0.0392156877 0.0392156877 0 0.0392156877 0.0392156877 0.0392156877 0 0.0392156877 0.0392156877 0.0392156877 0 0.0392156877 0.0392156877 0.0392156877 0 0.0392156877 0.0392156877 0.0392156877 0.849999964 0.0392156877 0.0392156877 0.0392156877 0 0.0392156877 0.0392156877 0.0392156877 1 0.0392156877 0.0392156877 0.0392156877 0 0.0392156877 0.0392156877 0.0392156877 1 0.0392156877 0.0392156877 0.0392156877 0 0.0392156877 0.0392156877 0.0392156877 1 0.0392156877 0.0392156877 0.0392156877 0 0.0392156877 0.0392156877 0.0392156877 1 0.0392156877 0.0392156877 0.0392156877 0 0.0392156877 0.0392156877 0.0392156877 1 0.0392156877 0.0392156877 0.0392156877 0 0.0392156877 0.0392156877 0.0392156877 1 0.0392156877 0.0392156877 0.0392156877 0 0.0392156877 0.0392156877 0.0392156877 0 0.0392156877 0.0392156877 0.0392156877 0 0.0392156877 0.0392156877 0.0392156877 0 0.0392156877 0.0392156877 0.0392156877 0 0.0392156877 0.0392156877 0.0392156877 0 0.0392156877 0.0392156877 0.0392156877 0 0.0392156877 0.0392156877 0.0392156877 0 0.0392156877 0.0392156877 0.0392156877 0 0.0392156877 0.0392156877 0.0392156877 0 0.0392156877 0.0392156877 0.0392156877 0 0.0392156877 0.0392156877 0.0392156877 0.649999976 0.0392156877 0.0392156877 0.0392156877 0.449999988 0.0392156877 0.0392156877 0.0392156877 0 0.0392156877 0.0392156877 0.0392156877 0 0.0392156877 0.0392156877 0.0392156877 0 0.0392156877 0.0392156877 0.0392156877 0 0.0392156877 0.0392156877 0.0392156877 0 0.0392156877 0.0392156877 0.0392156877 0 0.0392156877 0.0392156877 0.0392156877 0 0.0392156877 0.0392156877 0.0392156877 0.849999964 0.0392156877 0.0392156877 0.0392156877 0 0.0392156877 0.0392156877 0.0392156877 1 0.0392156877 0.0392156877 0.0392156877 0 0.0392156877 0.0392156877 0.0392156877 1 0.0392156877 0.0392156877 0.0392156877 0 0.0392156877 0.0392156877 0.0392156877 1 0.0392156877 0.0392156877 0.0392156877 0 0.0392156877 0.0392156877 0.0392156877 1 0.0392156877 0.0392156877 0.0392156877 0 0.0392156877 0.0392156877 0.0392156877 1 0.0392156877 0.0392156877 0.0392156877 0 0.0392156877 0.0392156877 0.0392156877 1 0.0392156877 0.0392156877 0.0392156877 0 0.0392156877 0.0392156877 0.0392156877 0 0.0392156877 0.0392156877 0.0392156877 0 0.0392156877 0.0392156877 0.0392156877 0 0.0392156877 0.0392156877 0.0392156877 0 0.0392156877 0.0392156877 0.0392156877 0 0.0392156877 0.0392156877 0.0392156877 0 0.0392156877 0.0392156877 0.0392156877 0 0.0392156877 0.0392156877 0.0392156877 0 0.0392156877 0.0392156877 0.0392156877 0 0.0392156877 0.0392156877 0.0392156877 0</float_array>
        <technique_common><accessor source="#vfx_kurp_0459-mesh-colors-array" count="330" stride="4"><param name="R" type="float"/><param name="G" type="float"/><param name="B" type="float"/><param name="A" type="float"/></accessor></technique_common>
      </source>
      <vertices id="vfx_kurp_0459-mesh-vertices"><input semantic="POSITION" source="#vfx_kurp_0459-mesh-positions"/></vertices>
      <triangles material="PreviewMaterial" count="400">
        <input semantic="VERTEX" source="#vfx_kurp_0459-mesh-vertices" offset="0"/>
        <input semantic="NORMAL" source="#vfx_kurp_0459-mesh-normals" offset="1"/>
        <input semantic="TEXCOORD" source="#vfx_kurp_0459-mesh-uv0" offset="2" set="0"/>
        <input semantic="COLOR" source="#vfx_kurp_0459-mesh-colors" offset="3" set="0"/>
        <p>0 0 0 0 1 1 1 1 2 2 2 2 2 2 2 2 1 1 1 1 3 3 3 3 4 4 4 4 3 3 3 3 1 1 1 1 3 3 3 3 4 4 4 4 5 5 5 5 4 4 4 4 1 1 1 1 6 6 6 6 6 6 6 6 1 1 1 1 7 7 7 7 0 0 0 0 7 7 7 7 1 1 1 1 7 7 7 7 0 0 0 0 8 8 8 8 9 9 9 9 8 8 8 8 0 0 0 0 8 8 8 8 9 9 9 9 10 10 10 10 11 11 11 11 10 10 10 10 9 9 9 9 10 10 10 10 11 11 11 11 12 12 12 12 13 13 13 13 12 12 12 12 11 11 11 11 12 12 12 12 13 13 13 13 14 14 14 14 15 15 15 15 14 14 14 14 13 13 13 13 14 14 14 14 15 15 15 15 16 16 16 16 17 17 17 17 16 16 16 16 15 15 15 15 16 16 16 16 17 17 17 17 18 18 18 18 19 19 19 19 18 18 18 18 17 17 17 17 18 18 18 18 19 19 19 19 20 20 20 20 21 21 21 21 20 20 20 20 19 19 19 19 20 20 20 20 21 21 21 21 22 22 22 22 23 23 23 23 0 0 0 0 2 2 2 2 0 0 0 0 23 23 23 23 9 9 9 9 24 24 24 24 9 9 9 9 23 23 23 23 9 9 9 9 24 24 24 24 11 11 11 11 25 25 25 25 11 11 11 11 24 24 24 24 11 11 11 11 25 25 25 25 13 13 13 13 26 26 26 26 13 13 13 13 25 25 25 25 13 13 13 13 26 26 26 26 15 15 15 15 27 27 27 27 15 15 15 15 26 26 26 26 15 15 15 15 27 27 27 27 17 17 17 17 28 28 28 28 17 17 17 17 27 27 27 27 17 17 17 17 28 28 28 28 19 19 19 19 29 29 29 29 19 19 19 19 28 28 28 28 19 19 19 19 29 29 29 29 21 21 21 21 30 30 30 30 21 21 21 21 29 29 29 29 31 31 31 31 21 21 21 21 30 30 30 30 21 21 21 21 31 31 31 31 22 22 22 22 32 32 32 32 22 22 22 22 31 31 31 31 33 33 33 33 34 34 34 34 35 35 35 35 35 35 35 35 34 34 34 34 36 36 36 36 37 37 37 37 36 36 36 36 34 34 34 34 36 36 36 36 37 37 37 37 38 38 38 38 37 37 37 37 34 34 34 34 39 39 39 39 39 39 39 39 34 34 34 34 40 40 40 40 33 33 33 33 40 40 40 40 34 34 34 34 40 40 40 40 33 33 33 33 41 41 41 41 42 42 42 42 41 41 41 41 33 33 33 33 41 41 41 41 42 42 42 42 43 43 43 43 44 44 44 44 43 43 43 43 42 42 42 42 43 43 43 43 44 44 44 44 45 45 45 45 46 46 46 46 45 45 45 45 44 44 44 44 45 45 45 45 46 46 46 46 47 47 47 47 48 48 48 48 47 47 47 47 46 46 46 46 47 47 47 47 48 48 48 48 49 49 49 49 50 50 50 50 49 49 49 49 48 48 48 48 49 49 49 49 50 50 50 50 51 51 51 51 52 52 52 52 51 51 51 51 50 50 50 50 51 51 51 51 52 52 52 52 53 53 53 53 54 54 54 54 53 53 53 53 52 52 52 52 53 53 53 53 54 54 54 54 55 55 55 55 56 56 56 56 33 33 33 33 35 35 35 35 33 33 33 33 56 56 56 56 42 42 42 42 57 57 57 57 42 42 42 42 56 56 56 56 42 42 42 42 57 57 57 57 44 44 44 44 58 58 58 58 44 44 44 44 57 57 57 57 44 44 44 44 58 58 58 58 46 46 46 46 59 59 59 59 46 46 46 46 58 58 58 58 46 46 46 46 59 59 59 59 48 48 48 48 60 60 60 60 48 48 48 48 59 59 59 59 48 48 48 48 60 60 60 60 50 50 50 50 61 61 61 61 50 50 50 50 60 60 60 60 50 50 50 50 61 61 61 61 52 52 52 52 62 62 62 62 52 52 52 52 61 61 61 61 52 52 52 52 62 62 62 62 54 54 54 54 63 63 63 63 54 54 54 54 62 62 62 62 64 64 64 64 54 54 54 54 63 63 63 63 54 54 54 54 64 64 64 64 55 55 55 55 65 65 65 65 55 55 55 55 64 64 64 64 66 66 66 66 67 67 67 67 68 68 68 68 68 68 68 68 67 67 67 67 69 69 69 69 70 70 70 70 69 69 69 69 67 67 67 67 69 69 69 69 70 70 70 70 71 71 71 71 70 70 70 70 67 67 67 67 72 72 72 72 72 72 72 72 67 67 67 67 73 73 73 73 66 66 66 66 73 73 73 73 67 67 67 67 73 73 73 73 66 66 66 66 74 74 74 74 75 75 75 75 74 74 74 74 66 66 66 66 74 74 74 74 75 75 75 75 76 76 76 76 77 77 77 77 76 76 76 76 75 75 75 75 76 76 76 76 77 77 77 77 78 78 78 78 79 79 79 79 78 78 78 78 77 77 77 77 78 78 78 78 79 79 79 79 80 80 80 80 81 81 81 81 80 80 80 80 79 79 79 79 80 80 80 80 81 81 81 81 82 82 82 82 83 83 83 83 82 82 82 82 81 81 81 81 82 82 82 82 83 83 83 83 84 84 84 84 85 85 85 85 84 84 84 84 83 83 83 83 84 84 84 84 85 85 85 85 86 86 86 86 87 87 87 87 86 86 86 86 85 85 85 85 86 86 86 86 87 87 87 87 88 88 88 88 89 89 89 89 66 66 66 66 68 68 68 68 66 66 66 66 89 89 89 89 75 75 75 75 90 90 90 90 75 75 75 75 89 89 89 89 75 75 75 75 90 90 90 90 77 77 77 77 91 91 91 91 77 77 77 77 90 90 90 90 77 77 77 77 91 91 91 91 79 79 79 79 92 92 92 92 79 79 79 79 91 91 91 91 79 79 79 79 92 92 92 92 81 81 81 81 93 93 93 93 81 81 81 81 92 92 92 92 81 81 81 81 93 93 93 93 83 83 83 83 94 94 94 94 83 83 83 83 93 93 93 93 83 83 83 83 94 94 94 94 85 85 85 85 95 95 95 95 85 85 85 85 94 94 94 94 85 85 85 85 95 95 95 95 87 87 87 87 96 96 96 96 87 87 87 87 95 95 95 95 97 97 97 97 87 87 87 87 96 96 96 96 87 87 87 87 97 97 97 97 88 88 88 88 98 98 98 98 88 88 88 88 97 97 97 97 99 99 99 99 100 100 100 100 101 101 101 101 101 101 101 101 100 100 100 100 102 102 102 102 103 103 103 103 102 102 102 102 100 100 100 100 102 102 102 102 103 103 103 103 104 104 104 104 103 103 103 103 100 100 100 100 105 105 105 105 105 105 105 105 100 100 100 100 106 106 106 106 99 99 99 99 106 106 106 106 100 100 100 100 106 106 106 106 99 99 99 99 107 107 107 107 108 108 108 108 107 107 107 107 99 99 99 99 107 107 107 107 108 108 108 108 109 109 109 109 110 110 110 110 109 109 109 109 108 108 108 108 109 109 109 109 110 110 110 110 111 111 111 111 112 112 112 112 111 111 111 111 110 110 110 110 111 111 111 111 112 112 112 112 113 113 113 113 114 114 114 114 113 113 113 113 112 112 112 112 113 113 113 113 114 114 114 114 115 115 115 115 116 116 116 116 115 115 115 115 114 114 114 114 115 115 115 115 116 116 116 116 117 117 117 117 118 118 118 118 117 117 117 117 116 116 116 116 117 117 117 117 118 118 118 118 119 119 119 119 120 120 120 120 119 119 119 119 118 118 118 118 119 119 119 119 120 120 120 120 121 121 121 121 122 122 122 122 99 99 99 99 101 101 101 101 99 99 99 99 122 122 122 122 108 108 108 108 123 123 123 123 108 108 108 108 122 122 122 122 108 108 108 108 123 123 123 123 110 110 110 110 124 124 124 124 110 110 110 110 123 123 123 123 110 110 110 110 124 124 124 124 112 112 112 112 125 125 125 125 112 112 112 112 124 124 124 124 112 112 112 112 125 125 125 125 114 114 114 114 126 126 126 126 114 114 114 114 125 125 125 125 114 114 114 114 126 126 126 126 116 116 116 116 127 127 127 127 116 116 116 116 126 126 126 126 116 116 116 116 127 127 127 127 118 118 118 118 128 128 128 128 118 118 118 118 127 127 127 127 118 118 118 118 128 128 128 128 120 120 120 120 129 129 129 129 120 120 120 120 128 128 128 128 130 130 130 130 120 120 120 120 129 129 129 129 120 120 120 120 130 130 130 130 121 121 121 121 131 131 131 131 121 121 121 121 130 130 130 130 132 132 132 132 133 133 133 133 134 134 134 134 134 134 134 134 133 133 133 133 135 135 135 135 136 136 136 136 135 135 135 135 133 133 133 133 135 135 135 135 136 136 136 136 137 137 137 137 136 136 136 136 133 133 133 133 138 138 138 138 138 138 138 138 133 133 133 133 139 139 139 139 132 132 132 132 139 139 139 139 133 133 133 133 139 139 139 139 132 132 132 132 140 140 140 140 141 141 141 141 140 140 140 140 132 132 132 132 140 140 140 140 141 141 141 141 142 142 142 142 143 143 143 143 142 142 142 142 141 141 141 141 142 142 142 142 143 143 143 143 144 144 144 144 145 145 145 145 144 144 144 144 143 143 143 143 144 144 144 144 145 145 145 145 146 146 146 146 147 147 147 147 146 146 146 146 145 145 145 145 146 146 146 146 147 147 147 147 148 148 148 148 149 149 149 149 148 148 148 148 147 147 147 147 148 148 148 148 149 149 149 149 150 150 150 150 151 151 151 151 150 150 150 150 149 149 149 149 150 150 150 150 151 151 151 151 152 152 152 152 153 153 153 153 152 152 152 152 151 151 151 151 152 152 152 152 153 153 153 153 154 154 154 154 155 155 155 155 132 132 132 132 134 134 134 134 132 132 132 132 155 155 155 155 141 141 141 141 156 156 156 156 141 141 141 141 155 155 155 155 141 141 141 141 156 156 156 156 143 143 143 143 157 157 157 157 143 143 143 143 156 156 156 156 143 143 143 143 157 157 157 157 145 145 145 145 158 158 158 158 145 145 145 145 157 157 157 157 145 145 145 145 158 158 158 158 147 147 147 147 159 159 159 159 147 147 147 147 158 158 158 158 147 147 147 147 159 159 159 159 149 149 149 149 160 160 160 160 149 149 149 149 159 159 159 159 149 149 149 149 160 160 160 160 151 151 151 151 161 161 161 161 151 151 151 151 160 160 160 160 151 151 151 151 161 161 161 161 153 153 153 153 162 162 162 162 153 153 153 153 161 161 161 161 163 163 163 163 153 153 153 153 162 162 162 162 153 153 153 153 163 163 163 163 154 154 154 154 164 164 164 164 154 154 154 154 163 163 163 163 165 165 165 165 166 166 166 166 167 167 167 167 167 167 167 167 166 166 166 166 168 168 168 168 169 169 169 169 168 168 168 168 166 166 166 166 168 168 168 168 169 169 169 169 170 170 170 170 169 169 169 169 166 166 166 166 171 171 171 171 171 171 171 171 166 166 166 166 172 172 172 172 165 165 165 165 172 172 172 172 166 166 166 166 172 172 172 172 165 165 165 165 173 173 173 173 174 174 174 174 173 173 173 173 165 165 165 165 173 173 173 173 174 174 174 174 175 175 175 175 176 176 176 176 175 175 175 175 174 174 174 174 175 175 175 175 176 176 176 176 177 177 177 177 178 178 178 178 177 177 177 177 176 176 176 176 177 177 177 177 178 178 178 178 179 179 179 179 180 180 180 180 179 179 179 179 178 178 178 178 179 179 179 179 180 180 180 180 181 181 181 181 182 182 182 182 181 181 181 181 180 180 180 180 181 181 181 181 182 182 182 182 183 183 183 183 184 184 184 184 183 183 183 183 182 182 182 182 183 183 183 183 184 184 184 184 185 185 185 185 186 186 186 186 185 185 185 185 184 184 184 184 185 185 185 185 186 186 186 186 187 187 187 187 188 188 188 188 165 165 165 165 167 167 167 167 165 165 165 165 188 188 188 188 174 174 174 174 189 189 189 189 174 174 174 174 188 188 188 188 174 174 174 174 189 189 189 189 176 176 176 176 190 190 190 190 176 176 176 176 189 189 189 189 176 176 176 176 190 190 190 190 178 178 178 178 191 191 191 191 178 178 178 178 190 190 190 190 178 178 178 178 191 191 191 191 180 180 180 180 192 192 192 192 180 180 180 180 191 191 191 191 180 180 180 180 192 192 192 192 182 182 182 182 193 193 193 193 182 182 182 182 192 192 192 192 182 182 182 182 193 193 193 193 184 184 184 184 194 194 194 194 184 184 184 184 193 193 193 193 184 184 184 184 194 194 194 194 186 186 186 186 195 195 195 195 186 186 186 186 194 194 194 194 196 196 196 196 186 186 186 186 195 195 195 195 186 186 186 186 196 196 196 196 187 187 187 187 197 197 197 197 187 187 187 187 196 196 196 196 198 198 198 198 199 199 199 199 200 200 200 200 200 200 200 200 199 199 199 199 201 201 201 201 202 202 202 202 201 201 201 201 199 199 199 199 201 201 201 201 202 202 202 202 203 203 203 203 202 202 202 202 199 199 199 199 204 204 204 204 204 204 204 204 199 199 199 199 205 205 205 205 198 198 198 198 205 205 205 205 199 199 199 199 205 205 205 205 198 198 198 198 206 206 206 206 207 207 207 207 206 206 206 206 198 198 198 198 206 206 206 206 207 207 207 207 208 208 208 208 209 209 209 209 208 208 208 208 207 207 207 207 208 208 208 208 209 209 209 209 210 210 210 210 211 211 211 211 210 210 210 210 209 209 209 209 210 210 210 210 211 211 211 211 212 212 212 212 213 213 213 213 212 212 212 212 211 211 211 211 212 212 212 212 213 213 213 213 214 214 214 214 215 215 215 215 214 214 214 214 213 213 213 213 214 214 214 214 215 215 215 215 216 216 216 216 217 217 217 217 216 216 216 216 215 215 215 215 216 216 216 216 217 217 217 217 218 218 218 218 219 219 219 219 218 218 218 218 217 217 217 217 218 218 218 218 219 219 219 219 220 220 220 220 221 221 221 221 198 198 198 198 200 200 200 200 198 198 198 198 221 221 221 221 207 207 207 207 222 222 222 222 207 207 207 207 221 221 221 221 207 207 207 207 222 222 222 222 209 209 209 209 223 223 223 223 209 209 209 209 222 222 222 222 209 209 209 209 223 223 223 223 211 211 211 211 224 224 224 224 211 211 211 211 223 223 223 223 211 211 211 211 224 224 224 224 213 213 213 213 225 225 225 225 213 213 213 213 224 224 224 224 213 213 213 213 225 225 225 225 215 215 215 215 226 226 226 226 215 215 215 215 225 225 225 225 215 215 215 215 226 226 226 226 217 217 217 217 227 227 227 227 217 217 217 217 226 226 226 226 217 217 217 217 227 227 227 227 219 219 219 219 228 228 228 228 219 219 219 219 227 227 227 227 229 229 229 229 219 219 219 219 228 228 228 228 219 219 219 219 229 229 229 229 220 220 220 220 230 230 230 230 220 220 220 220 229 229 229 229 231 231 231 231 232 232 232 232 233 233 233 233 233 233 233 233 232 232 232 232 234 234 234 234 235 235 235 235 234 234 234 234 232 232 232 232 234 234 234 234 235 235 235 235 236 236 236 236 235 235 235 235 232 232 232 232 237 237 237 237 237 237 237 237 232 232 232 232 238 238 238 238 231 231 231 231 238 238 238 238 232 232 232 232 238 238 238 238 231 231 231 231 239 239 239 239 240 240 240 240 239 239 239 239 231 231 231 231 239 239 239 239 240 240 240 240 241 241 241 241 242 242 242 242 241 241 241 241 240 240 240 240 241 241 241 241 242 242 242 242 243 243 243 243 244 244 244 244 243 243 243 243 242 242 242 242 243 243 243 243 244 244 244 244 245 245 245 245 246 246 246 246 245 245 245 245 244 244 244 244 245 245 245 245 246 246 246 246 247 247 247 247 248 248 248 248 247 247 247 247 246 246 246 246 247 247 247 247 248 248 248 248 249 249 249 249 250 250 250 250 249 249 249 249 248 248 248 248 249 249 249 249 250 250 250 250 251 251 251 251 252 252 252 252 251 251 251 251 250 250 250 250 251 251 251 251 252 252 252 252 253 253 253 253 254 254 254 254 231 231 231 231 233 233 233 233 231 231 231 231 254 254 254 254 240 240 240 240 255 255 255 255 240 240 240 240 254 254 254 254 240 240 240 240 255 255 255 255 242 242 242 242 256 256 256 256 242 242 242 242 255 255 255 255 242 242 242 242 256 256 256 256 244 244 244 244 257 257 257 257 244 244 244 244 256 256 256 256 244 244 244 244 257 257 257 257 246 246 246 246 258 258 258 258 246 246 246 246 257 257 257 257 246 246 246 246 258 258 258 258 248 248 248 248 259 259 259 259 248 248 248 248 258 258 258 258 248 248 248 248 259 259 259 259 250 250 250 250 260 260 260 260 250 250 250 250 259 259 259 259 250 250 250 250 260 260 260 260 252 252 252 252 261 261 261 261 252 252 252 252 260 260 260 260 262 262 262 262 252 252 252 252 261 261 261 261 252 252 252 252 262 262 262 262 253 253 253 253 263 263 263 263 253 253 253 253 262 262 262 262 264 264 264 264 265 265 265 265 266 266 266 266 266 266 266 266 265 265 265 265 267 267 267 267 268 268 268 268 267 267 267 267 265 265 265 265 267 267 267 267 268 268 268 268 269 269 269 269 268 268 268 268 265 265 265 265 270 270 270 270 270 270 270 270 265 265 265 265 271 271 271 271 264 264 264 264 271 271 271 271 265 265 265 265 271 271 271 271 264 264 264 264 272 272 272 272 273 273 273 273 272 272 272 272 264 264 264 264 272 272 272 272 273 273 273 273 274 274 274 274 275 275 275 275 274 274 274 274 273 273 273 273 274 274 274 274 275 275 275 275 276 276 276 276 277 277 277 277 276 276 276 276 275 275 275 275 276 276 276 276 277 277 277 277 278 278 278 278 279 279 279 279 278 278 278 278 277 277 277 277 278 278 278 278 279 279 279 279 280 280 280 280 281 281 281 281 280 280 280 280 279 279 279 279 280 280 280 280 281 281 281 281 282 282 282 282 283 283 283 283 282 282 282 282 281 281 281 281 282 282 282 282 283 283 283 283 284 284 284 284 285 285 285 285 284 284 284 284 283 283 283 283 284 284 284 284 285 285 285 285 286 286 286 286 287 287 287 287 264 264 264 264 266 266 266 266 264 264 264 264 287 287 287 287 273 273 273 273 288 288 288 288 273 273 273 273 287 287 287 287 273 273 273 273 288 288 288 288 275 275 275 275 289 289 289 289 275 275 275 275 288 288 288 288 275 275 275 275 289 289 289 289 277 277 277 277 290 290 290 290 277 277 277 277 289 289 289 289 277 277 277 277 290 290 290 290 279 279 279 279 291 291 291 291 279 279 279 279 290 290 290 290 279 279 279 279 291 291 291 291 281 281 281 281 292 292 292 292 281 281 281 281 291 291 291 291 281 281 281 281 292 292 292 292 283 283 283 283 293 293 293 293 283 283 283 283 292 292 292 292 283 283 283 283 293 293 293 293 285 285 285 285 294 294 294 294 285 285 285 285 293 293 293 293 295 295 295 295 285 285 285 285 294 294 294 294 285 285 285 285 295 295 295 295 286 286 286 286 296 296 296 296 286 286 286 286 295 295 295 295 297 297 297 297 298 298 298 298 299 299 299 299 299 299 299 299 298 298 298 298 300 300 300 300 301 301 301 301 300 300 300 300 298 298 298 298 300 300 300 300 301 301 301 301 302 302 302 302 301 301 301 301 298 298 298 298 303 303 303 303 303 303 303 303 298 298 298 298 304 304 304 304 297 297 297 297 304 304 304 304 298 298 298 298 304 304 304 304 297 297 297 297 305 305 305 305 306 306 306 306 305 305 305 305 297 297 297 297 305 305 305 305 306 306 306 306 307 307 307 307 308 308 308 308 307 307 307 307 306 306 306 306 307 307 307 307 308 308 308 308 309 309 309 309 310 310 310 310 309 309 309 309 308 308 308 308 309 309 309 309 310 310 310 310 311 311 311 311 312 312 312 312 311 311 311 311 310 310 310 310 311 311 311 311 312 312 312 312 313 313 313 313 314 314 314 314 313 313 313 313 312 312 312 312 313 313 313 313 314 314 314 314 315 315 315 315 316 316 316 316 315 315 315 315 314 314 314 314 315 315 315 315 316 316 316 316 317 317 317 317 318 318 318 318 317 317 317 317 316 316 316 316 317 317 317 317 318 318 318 318 319 319 319 319 320 320 320 320 297 297 297 297 299 299 299 299 297 297 297 297 320 320 320 320 306 306 306 306 321 321 321 321 306 306 306 306 320 320 320 320 306 306 306 306 321 321 321 321 308 308 308 308 322 322 322 322 308 308 308 308 321 321 321 321 308 308 308 308 322 322 322 322 310 310 310 310 323 323 323 323 310 310 310 310 322 322 322 322 310 310 310 310 323 323 323 323 312 312 312 312 324 324 324 324 312 312 312 312 323 323 323 323 312 312 312 312 324 324 324 324 314 314 314 314 325 325 325 325 314 314 314 314 324 324 324 324 314 314 314 314 325 325 325 325 316 316 316 316 326 326 326 326 316 316 316 316 325 325 325 325 316 316 316 316 326 326 326 326 318 318 318 318 327 327 327 327 318 318 318 318 326 326 326 326 328 328 328 328 318 318 318 318 327 327 327 327 318 318 318 318 328 328 328 328 319 319 319 319 329 329 329 329 319 319 319 319 328 328 328 328</p>
      </triangles>
    </mesh></geometry>
  </library_geometries>
  <library_visual_scenes>
    <visual_scene id="Scene" name="Scene">
      <node id="vfx_kurp_0459" name="vfx_kurp_0459" type="NODE">
        <instance_geometry url="#vfx_kurp_0459-mesh"><bind_material><technique_common><instance_material symbol="PreviewMaterial" target="#PreviewMaterial"><bind_vertex_input semantic="UVSET0" input_semantic="TEXCOORD" input_set="0"/></instance_material></technique_common></bind_material></instance_geometry>
      </node>
    </visual_scene>
  </library_visual_scenes>
  <scene><instance_visual_scene url="#Scene"/></scene>
</COLLADA>
