<?xml version="1.0" encoding="utf-8"?>
<COLLADA xmlns="http://www.collada.org/2005/11/COLLADASchema" version="1.4.1">
  <asset>
    <contributor><authoring_tool>Morrobroom Kurpulio VFX preview converter</authoring_tool></contributor>
    <unit name="unit" meter="1"/>
    <up_axis>Z_UP</up_axis>
  </asset>
  <library_images>
    <image id="VFXTexture" name="darkmap_newgen-1.dds">
      <init_from>../../../Textures/Kurp/darkmap_newgen-1.dds</init_from>
    </image>
  </library_images>
  <library_effects>
    <effect id="PreviewEffect">
      <profile_COMMON>
        <newparam sid="VFXTexture-surface">
          <surface type="2D"><init_from>VFXTexture</init_from></surface>
        </newparam>
        <newparam sid="VFXTexture-sampler">
          <sampler2D><source>VFXTexture-surface</source></sampler2D>
        </newparam>
        <technique sid="common"><phong>
          <emission><color>0.08 0.08 0.08 1</color></emission>
          <ambient><color>0.2 0.2 0.2 1</color></ambient>
          <diffuse><texture texture="VFXTexture-sampler" texcoord="UVSET0"/></diffuse>
          <specular><color>0.15 0.15 0.15 1</color></specular>
          <shininess><float>8</float></shininess>
          <transparent opaque="A_ONE"><texture texture="VFXTexture-sampler" texcoord="UVSET0"/></transparent>
          <transparency><float>1</float></transparency>
        </phong></technique>
      </profile_COMMON>
      <extra><technique profile="GOOGLEEARTH"><double_sided>1</double_sided></technique></extra>
    </effect>
  </library_effects>
  <library_materials><material id="PreviewMaterial" name="PreviewMaterial"><instance_effect url="#PreviewEffect"/></material></library_materials>
  <library_geometries>
    <geometry id="vfx_kurp_0224-mesh" name="vfx_kurp_0224"><mesh>
      <source id="vfx_kurp_0224-mesh-positions">
        <float_array id="vfx_kurp_0224-mesh-positions-array" count="288">0.901643425 0.50258629 -0.29472962 1.82512951 0.312748253 1.81273037 0.95715782 -0.552615523 -1.15187055 1.83129448 -1.05729836 1.22573349 0.95715782 -0.552615523 -1.15187055 1.83129448 -1.05729836 1.22573349 0.0155692594 -1.03213951 -0.294729531 0.641716942 -1.736983 1.81273055 2.43774694 0.302390657 4.22540545 2.35471344 -1.35949427 3.9476763 2.35471344 -1.35949427 3.9476763 0.956995904 -2.26234585 4.22540581 0.930483252 -2.59037554 6.78248906 2.49252856 -1.43906182 6.83253765 2.49252856 -1.43906182 6.83253765 2.7085728 0.489366174 6.78248906 0.00132429897 -1.0223861 -0.369131416 -0.718916908 -1.78155434 1.60249186 -0.898898542 -0.518979326 -1.30525383 -1.87918979 -1.08495077 0.919100761 -0.898898542 -0.518979326 -1.30525383 -1.87918979 -1.08495077 0.919100761 -0.884749979 0.512339875 -0.369131282 -1.90232974 0.26817707 1.60249186 -1.14352629 -2.37003958 3.92945087 -2.52595425 -1.45836014 3.54434001 -2.52595425 -1.45836014 3.54434001 -2.62427759 0.194697104 3.92945087 -3.0123843 0.313960701 6.45665216 -2.79608381 -1.61431932 6.39548922 -2.79608381 -1.61431932 6.39548922 -1.23429465 -2.76578146 6.45665216 0.886074364 -0.370815754 -0.326469295 1.18341279 -1.15880451 0.909759879 -1.56450373e-08 -0.743640795 -1.06476849 -2.82921127e-08 -1.63263756 0.329925947 -1.56450373e-08 -0.743640795 -1.06476849 -2.82921127e-08 -1.63263756 0.329925947 -0.886074454 -0.370815687 -0.326469317 -1.18341297 -1.15880442 0.909759879 1.48075148 -1.70041895 2.44747943 5.73282541e-08 -2.24367857 2.06475735 5.73282541e-08 -2.24367857 2.06475735 -1.48075131 -1.70041877 2.44747943 -1.77808964 -1.95956039 4.18419886 -6.25372341e-08 -2.53603792 4.02409744 -6.25372341e-08 -2.53603792 4.02409744 1.77808982 -1.95956057 4.18419921 -0.886074275 0.370815732 -0.326469362 -1.18341279 1.15880468 0.9097597 5.76332102e-08 0.743640617 -1.06476894 1.8127735e-07 1.63263738 0.329925768 5.76332102e-08 0.743640617 -1.06476894 1.8127735e-07 1.63263738 0.329925768 0.886074454 0.370815441 -0.326469317 1.18341306 1.15880424 0.909759611 -1.48075113 1.70041913 2.44747925 2.31233017e-07 2.24367875 2.06475699 2.31233017e-07 2.24367875 2.06475699 1.48075148 1.70041859 2.44747889 1.77809 1.95956039 4.18419814 4.81696517e-07 2.5360381 4.02409673 4.81696517e-07 2.5360381 4.02409673 -1.77808946 1.95956093 4.18419886 -0.898898631 0.518979236 -1.07728261 -0.884749889 -0.512340099 -0.300479271 -1.87918997 1.08495113 0.768507421 -1.90232974 -0.268176869 1.33559141 -2.5259546 1.45836085 2.94695485 -2.62427759 -0.194696724 3.26652324 -2.79608417 1.6143204 5.31286418 -3.0123843 -0.313960008 5.36361802 0.0013241749 1.0223861 -0.300479606 -0.898898631 0.518979236 -1.07728261 -0.718917087 1.7815547 1.33559141 -1.87918997 1.08495113 0.768507421 -1.14352655 2.3700403 3.26652324 -2.5259546 1.45836085 2.94695485 -1.23429519 2.76578254 5.36361802 -2.79608417 1.6143204 5.31286418 0.95715782 0.5526153 -0.950003833 0.0155691421 1.03213951 -0.23874034 1.83129448 1.05729845 1.02295357 0.641716808 1.73698336 1.51004934 2.35471344 1.35949463 3.28164661 0.956995726 2.26234639 3.51210916 2.49252874 1.43906254 5.67553067 0.930483073 2.59037662 5.63400006 0.901643604 -0.502586648 -0.23874025 0.95715782 0.5526153 -0.950003833 1.82512987 -0.312748432 1.51004934 1.83129448 1.05729845 1.02295357 2.4377473 -0.302390613 3.51210916 2.35471344 1.35949463 3.28164661 2.70857334 -0.48936595 5.63400042 2.49252874 1.43906254 5.67553067</float_array>
        <technique_common><accessor source="#vfx_kurp_0224-mesh-positions-array" count="96" stride="3"><param name="X" type="float"/><param name="Y" type="float"/><param name="Z" type="float"/></accessor></technique_common>
      </source>
      <source id="vfx_kurp_0224-mesh-normals">
        <float_array id="vfx_kurp_0224-mesh-normals-array" count="288">0.874347048 0.332866228 -0.353153385 0.949728924 0.144076916 -0.277951097 0.905598509 0.254372206 -0.33939081 0.955154138 0.104973601 -0.276877438 0.221228037 -0.934267179 -0.279647981 0.342176502 -0.896792664 -0.280496274 0.248827953 -0.916810586 -0.312318747 0.392648035 -0.877556907 -0.27517521 0.988841446 -0.00916369513 -0.148689683 0.989385905 -0.0402358771 -0.139630244 0.501493761 -0.853255466 -0.14303537 0.530388713 -0.835191071 -0.14540869 0.592544746 -0.799742595 -0.0964494963 0.571868075 -0.816535909 -0.0789684373 0.992368577 -0.112487197 -0.050509788 0.993970929 -0.0860464274 -0.0679544284 -0.105247094 -0.914530804 -0.390584763 -0.319354776 -0.891011187 -0.32266328 -0.195634323 -0.903903556 -0.380375569 -0.356663559 -0.876125645 -0.324337725 -0.898340935 0.301948963 -0.319077401 -0.928012718 0.179397313 -0.326510336 -0.894702213 0.270129418 -0.355721868 -0.939261301 0.120949237 -0.321184511 -0.487724958 -0.850795384 -0.195631235 -0.515289365 -0.835789858 -0.189557865 -0.981154237 0.00572555544 -0.193141351 -0.980808739 -0.0308028852 -0.192523763 -0.983611583 -0.10570135 -0.146066695 -0.98855873 -0.080232242 -0.127727928 -0.587940937 -0.80274678 -0.0996145689 -0.564054625 -0.817434752 -0.11680242 0.658271261 -0.552963442 -0.510793871 0.527495024 -0.740843888 -0.415811656 0.588260299 -0.644732542 -0.488128846 0.487341148 -0.770946224 -0.410049419 -0.625965483 -0.657617218 -0.41917396 -0.535735973 -0.737674128 -0.410881794 -0.585041992 -0.657679012 -0.474535757 -0.48024649 -0.772995839 -0.414536779 0.405827436 -0.877863832 -0.254281702 0.375687141 -0.894063803 -0.243944846 -0.409659808 -0.877761195 -0.248423281 -0.371823521 -0.894085172 -0.249717788 -0.318291162 -0.928142024 -0.192984763 -0.343936778 -0.9240699 -0.166740257 0.316753954 -0.938121795 -0.139980107 0.345065034 -0.923846202 -0.165645155 -0.658271429 0.552963195 -0.510793922 -0.527494838 0.740844057 -0.415811591 -0.588260234 0.644732536 -0.488128931 -0.487340927 0.770946384 -0.410049379 0.625965639 0.657617135 -0.419173856 0.535736085 0.737673999 -0.410881878 0.585042124 0.657678908 -0.474535738 0.480246597 0.772995699 -0.414536917 -0.405827402 0.877863823 -0.254281789 -0.375687151 0.894063769 -0.243944957 0.40965999 0.877761084 -0.248423373 0.371823706 0.894085069 -0.249717882 0.318291249 0.928141958 -0.19298494 0.343936921 0.924069825 -0.166740373 -0.316753899 0.938121811 -0.139980125 -0.34506503 0.923846193 -0.165645213 -0.878346983 -0.29522878 -0.375960828 -0.86913376 -0.259211328 -0.421207781 -0.911247964 -0.172127321 -0.374164848 -0.915285646 -0.118252814 -0.385056436 -0.974530611 -0.00627795357 -0.224166626 -0.971796699 0.0323567654 -0.233589845 -0.985738568 0.076142616 -0.150072574 -0.978900173 0.105194812 -0.17518134 -0.101793943 0.884525822 -0.455249452 -0.192869889 0.875230023 -0.443591718 -0.307564547 0.871204052 -0.382632393 -0.354592089 0.855610618 -0.377087418 -0.480861199 0.844468496 -0.235892913 -0.514374142 0.828191349 -0.222527149 -0.558567759 0.816962833 -0.143435656 -0.586626098 0.800951521 -0.119776805 0.21741667 0.918171328 -0.331196927 0.24686913 0.894341403 -0.373107341 0.339440793 0.883613229 -0.322502107 0.385766117 0.860688503 -0.33226466 0.498455655 0.850840289 -0.166170884 0.529492932 0.829640655 -0.177013046 0.567983822 0.817893885 -0.0918910827 0.591302216 0.798065543 -0.115987405 0.850684948 -0.323857966 -0.414066586 0.884425595 -0.243931029 -0.397855527 0.932036274 -0.145588233 -0.33183196 0.941155577 -0.0982184882 -0.323387244 0.983626141 0.00650889389 -0.180103439 0.985528519 0.0428811605 -0.163996173 0.993010629 0.0817735037 -0.0851057311 0.991796544 0.112422495 -0.0608341763</float_array>
        <technique_common><accessor source="#vfx_kurp_0224-mesh-normals-array" count="96" stride="3"><param name="X" type="float"/><param name="Y" type="float"/><param name="Z" type="float"/></accessor></technique_common>
      </source>
      <source id="vfx_kurp_0224-mesh-uv0">
        <float_array id="vfx_kurp_0224-mesh-uv0-array" count="192">1 1 1 0.666666627 0.5 1 0.5 0.666666627 0.5 1 0.5 0.666666627 0 1 0 0.666666627 1 0.333333313 0.5 0.333333313 0.5 0.333333313 0 0.333333313 0 0 0.5 0 0.5 0 1 0 1 1 1 0.666666627 0.5 1 0.5 0.666666627 0.5 1 0.5 0.666666627 0 1 0 0.666666627 1 0.333333313 0.5 0.333333313 0.5 0.333333313 0 0.333333313 0 0 0.5 0 0.5 0 1 0 1 1 1 0.666666627 0.5 1 0.5 0.666666627 0.5 1 0.5 0.666666627 0 1 0 0.666666627 1 0.333333313 0.5 0.333333313 0.5 0.333333313 0 0.333333313 0 0 0.5 0 0.5 0 1 0 1 1 1 0.666666627 0.5 1 0.5 0.666666627 0.5 1 0.5 0.666666627 0 1 0 0.666666627 1 0.333333313 0.5 0.333333313 0.5 0.333333313 0 0.333333313 0 0 0.5 0 0.5 0 1 0 0.5 1 0 1 0.5 0.666666627 0 0.666666627 0.5 0.333333313 0 0.333333313 0.5 0 0 0 1 1 0.5 1 1 0.666666627 0.5 0.666666627 1 0.333333313 0.5 0.333333313 1 0 0.5 0 0.5 1 0 1 0.5 0.666666627 0 0.666666627 0.5 0.333333313 0 0.333333313 0.5 0 0 0 1 1 0.5 1 1 0.666666627 0.5 0.666666627 1 0.333333313 0.5 0.333333313 1 0 0.5 0</float_array>
        <technique_common><accessor source="#vfx_kurp_0224-mesh-uv0-array" count="96" stride="2"><param name="S" type="float"/><param name="T" type="float"/></accessor></technique_common>
      </source>
      <vertices id="vfx_kurp_0224-mesh-vertices"><input semantic="POSITION" source="#vfx_kurp_0224-mesh-positions"/></vertices>
      <triangles material="PreviewMaterial" count="72">
        <input semantic="VERTEX" source="#vfx_kurp_0224-mesh-vertices" offset="0"/>
        <input semantic="NORMAL" source="#vfx_kurp_0224-mesh-normals" offset="1"/>
        <input semantic="TEXCOORD" source="#vfx_kurp_0224-mesh-uv0" offset="2" set="0"/>
        <p>0 0 0 1 1 1 2 2 2 3 3 3 2 2 2 1 1 1 4 4 4 5 5 5 6 6 6 7 7 7 6 6 6 5 5 5 1 1 1 8 8 8 3 3 3 9 9 9 3 3 3 8 8 8 5 5 5 10 10 10 7 7 7 11 11 11 7 7 7 10 10 10 12 12 12 11 11 11 13 13 13 10 10 10 13 13 13 11 11 11 14 14 14 9 9 9 15 15 15 8 8 8 15 15 15 9 9 9 16 16 16 17 17 17 18 18 18 19 19 19 18 18 18 17 17 17 20 20 20 21 21 21 22 22 22 23 23 23 22 22 22 21 21 21 17 17 17 24 24 24 19 19 19 25 25 25 19 19 19 24 24 24 21 21 21 26 26 26 23 23 23 27 27 27 23 23 23 26 26 26 28 28 28 27 27 27 29 29 29 26 26 26 29 29 29 27 27 27 30 30 30 25 25 25 31 31 31 24 24 24 31 31 31 25 25 25 32 32 32 33 33 33 34 34 34 35 35 35 34 34 34 33 33 33 36 36 36 37 37 37 38 38 38 39 39 39 38 38 38 37 37 37 33 33 33 40 40 40 35 35 35 41 41 41 35 35 35 40 40 40 37 37 37 42 42 42 39 39 39 43 43 43 39 39 39 42 42 42 44 44 44 43 43 43 45 45 45 42 42 42 45 45 45 43 43 43 46 46 46 41 41 41 47 47 47 40 40 40 47 47 47 41 41 41 48 48 48 49 49 49 50 50 50 51 51 51 50 50 50 49 49 49 52 52 52 53 53 53 54 54 54 55 55 55 54 54 54 53 53 53 49 49 49 56 56 56 51 51 51 57 57 57 51 51 51 56 56 56 53 53 53 58 58 58 55 55 55 59 59 59 55 55 55 58 58 58 60 60 60 59 59 59 61 61 61 58 58 58 61 61 61 59 59 59 62 62 62 57 57 57 63 63 63 56 56 56 63 63 63 57 57 57 64 64 64 65 65 65 66 66 66 67 67 67 66 66 66 65 65 65 66 66 66 67 67 67 68 68 68 69 69 69 68 68 68 67 67 67 68 68 68 69 69 69 70 70 70 71 71 71 70 70 70 69 69 69 72 72 72 73 73 73 74 74 74 75 75 75 74 74 74 73 73 73 74 74 74 75 75 75 76 76 76 77 77 77 76 76 76 75 75 75 76 76 76 77 77 77 78 78 78 79 79 79 78 78 78 77 77 77 80 80 80 81 81 81 82 82 82 83 83 83 82 82 82 81 81 81 82 82 82 83 83 83 84 84 84 85 85 85 84 84 84 83 83 83 84 84 84 85 85 85 86 86 86 87 87 87 86 86 86 85 85 85 88 88 88 89 89 89 90 90 90 91 91 91 90 90 90 89 89 89 90 90 90 91 91 91 92 92 92 93 93 93 92 92 92 91 91 91 92 92 92 93 93 93 94 94 94 95 95 95 94 94 94 93 93 93</p>
      </triangles>
    </mesh></geometry>
  </library_geometries>
  <library_visual_scenes>
    <visual_scene id="Scene" name="Scene">
      <node id="vfx_kurp_0224" name="vfx_kurp_0224" type="NODE">
        <instance_geometry url="#vfx_kurp_0224-mesh"><bind_material><technique_common><instance_material symbol="PreviewMaterial" target="#PreviewMaterial"><bind_vertex_input semantic="UVSET0" input_semantic="TEXCOORD" input_set="0"/></instance_material></technique_common></bind_material></instance_geometry>
      </node>
    </visual_scene>
  </library_visual_scenes>
  <scene><instance_visual_scene url="#Scene"/></scene>
</COLLADA>
