<?xml version="1.0" encoding="utf-8"?>
<COLLADA xmlns="http://www.collada.org/2005/11/COLLADASchema" version="1.4.1">
  <asset>
    <contributor><authoring_tool>Morrobroom Kurpulio VFX preview converter</authoring_tool></contributor>
    <unit name="unit" meter="1"/>
    <up_axis>Z_UP</up_axis>
  </asset>
  <library_images>
    <image id="VFXTexture" name="darkmap_newgen-1.dds">
      <init_from>../../../Textures/Kurp/darkmap_newgen-1.dds</init_from>
    </image>
  </library_images>
  <library_effects>
    <effect id="PreviewEffect">
      <profile_COMMON>
        <newparam sid="VFXTexture-surface">
          <surface type="2D"><init_from>VFXTexture</init_from></surface>
        </newparam>
        <newparam sid="VFXTexture-sampler">
          <sampler2D><source>VFXTexture-surface</source></sampler2D>
        </newparam>
        <technique sid="common"><phong>
          <emission><color>0.08 0.08 0.08 1</color></emission>
          <ambient><color>0.2 0.2 0.2 1</color></ambient>
          <diffuse><texture texture="VFXTexture-sampler" texcoord="UVSET0"/></diffuse>
          <specular><color>0.15 0.15 0.15 1</color></specular>
          <shininess><float>8</float></shininess>
          <transparent opaque="A_ONE"><texture texture="VFXTexture-sampler" texcoord="UVSET0"/></transparent>
          <transparency><float>1</float></transparency>
        </phong></technique>
      </profile_COMMON>
      <extra><technique profile="GOOGLEEARTH"><double_sided>1</double_sided></technique></extra>
    </effect>
  </library_effects>
  <library_materials><material id="PreviewMaterial" name="PreviewMaterial"><instance_effect url="#PreviewEffect"/></material></library_materials>
  <library_geometries>
    <geometry id="vfx_kurp_0109-mesh" name="vfx_kurp_0109"><mesh>
      <source id="vfx_kurp_0109-mesh-positions">
        <float_array id="vfx_kurp_0109-mesh-positions-array" count="48">1.15916317e-06 -4.25225043 -3.69258428 1.15916287e-06 4.25225043 -3.69258428 -1.15916287e-06 -4.25225043 3.69258428 -1.15916317e-06 4.25225043 3.69258428 -3.69258571 -4.25225043 -2.36600653e-06 -3.6925832 4.25225079 -1.4079877e-06 3.6925832 -4.25225079 1.40798842e-06 3.69258571 4.25225043 2.36600722e-06 -2.12756569 -4.88979435 2.12757348 -2.12757481 4.88979256 2.1275674 2.12757481 -4.88979256 -2.1275674 2.12756569 4.88979435 -2.12757348 2.12757527 -4.88979006 2.12757481 2.12756507 4.88979685 2.12756677 -2.12756507 -4.88979685 -2.12756677 -2.12757527 4.88979006 -2.12757481</float_array>
        <technique_common><accessor source="#vfx_kurp_0109-mesh-positions-array" count="16" stride="3"><param name="X" type="float"/><param name="Y" type="float"/><param name="Z" type="float"/></accessor></technique_common>
      </source>
      <source id="vfx_kurp_0109-mesh-normals">
        <float_array id="vfx_kurp_0109-mesh-normals-array" count="48">1 0 3.13916469e-07 1 0 3.13916469e-07 1 0 3.13916469e-07 1 0 3.13916469e-07 5.11023501e-07 1.12648287e-07 -1 5.11023515e-07 1.12648287e-07 -1 5.11023515e-07 1.12648287e-07 -1 5.11023501e-07 1.12648287e-07 -1 -0.707106798 -1.09896736e-06 -0.707106765 -0.707106798 -1.09896736e-06 -0.707106765 -0.707106798 -1.09896736e-06 -0.707106765 -0.707106798 -1.09896736e-06 -0.707106765 -0.707106884 -1.55148103e-07 0.707106678 -0.707106884 -1.55148117e-07 0.707106678 -0.707106884 -1.55148117e-07 0.707106678 -0.707106884 -1.55148103e-07 0.707106678</float_array>
        <technique_common><accessor source="#vfx_kurp_0109-mesh-normals-array" count="16" stride="3"><param name="X" type="float"/><param name="Y" type="float"/><param name="Z" type="float"/></accessor></technique_common>
      </source>
      <source id="vfx_kurp_0109-mesh-uv0">
        <float_array id="vfx_kurp_0109-mesh-uv0-array" count="32">0.940999985 0.949999988 0.940999985 0.0500000119 0.0410000086 0.949999988 0.0410000086 0.0500000119 0.940999985 0.949999988 0.940999985 0.0500000119 0.0410000086 0.949999988 0.0410000086 0.0500000119 0.940999985 0.949999988 0.940999985 0.0500000119 0.0410000086 0.949999988 0.0410000086 0.0500000119 0.940999985 0.949999988 0.940999985 0.0500000119 0.0410000086 0.949999988 0.0410000086 0.0500000119</float_array>
        <technique_common><accessor source="#vfx_kurp_0109-mesh-uv0-array" count="16" stride="2"><param name="S" type="float"/><param name="T" type="float"/></accessor></technique_common>
      </source>
      <vertices id="vfx_kurp_0109-mesh-vertices"><input semantic="POSITION" source="#vfx_kurp_0109-mesh-positions"/></vertices>
      <triangles material="PreviewMaterial" count="8">
        <input semantic="VERTEX" source="#vfx_kurp_0109-mesh-vertices" offset="0"/>
        <input semantic="NORMAL" source="#vfx_kurp_0109-mesh-normals" offset="1"/>
        <input semantic="TEXCOORD" source="#vfx_kurp_0109-mesh-uv0" offset="2" set="0"/>
        <p>0 0 0 1 1 1 2 2 2 3 3 3 2 2 2 1 1 1 4 4 4 5 5 5 6 6 6 7 7 7 6 6 6 5 5 5 8 8 8 9 9 9 10 10 10 11 11 11 10 10 10 9 9 9 12 12 12 13 13 13 14 14 14 15 15 15 14 14 14 13 13 13</p>
      </triangles>
    </mesh></geometry>
  </library_geometries>
  <library_visual_scenes>
    <visual_scene id="Scene" name="Scene">
      <node id="vfx_kurp_0109" name="vfx_kurp_0109" type="NODE">
        <instance_geometry url="#vfx_kurp_0109-mesh"><bind_material><technique_common><instance_material symbol="PreviewMaterial" target="#PreviewMaterial"><bind_vertex_input semantic="UVSET0" input_semantic="TEXCOORD" input_set="0"/></instance_material></technique_common></bind_material></instance_geometry>
      </node>
    </visual_scene>
  </library_visual_scenes>
  <scene><instance_visual_scene url="#Scene"/></scene>
</COLLADA>
