<?xml version="1.0" encoding="utf-8"?>
<COLLADA xmlns="http://www.collada.org/2005/11/COLLADASchema" version="1.4.1">
  <asset>
    <contributor><authoring_tool>Morrobroom Kurpulio VFX preview converter</authoring_tool></contributor>
    <unit name="unit" meter="1"/>
    <up_axis>Z_UP</up_axis>
  </asset>
  <library_images>
    <image id="VFXTexture" name="darkmap_newgen-1.dds">
      <init_from>../../../Textures/Kurp/darkmap_newgen-1.dds</init_from>
    </image>
  </library_images>
  <library_effects>
    <effect id="PreviewEffect">
      <profile_COMMON>
        <newparam sid="VFXTexture-surface">
          <surface type="2D"><init_from>VFXTexture</init_from></surface>
        </newparam>
        <newparam sid="VFXTexture-sampler">
          <sampler2D><source>VFXTexture-surface</source></sampler2D>
        </newparam>
        <technique sid="common"><phong>
          <emission><color>0.08 0.08 0.08 1</color></emission>
          <ambient><color>0.2 0.2 0.2 1</color></ambient>
          <diffuse><texture texture="VFXTexture-sampler" texcoord="UVSET0"/></diffuse>
          <specular><color>0.15 0.15 0.15 1</color></specular>
          <shininess><float>8</float></shininess>
          <transparent opaque="A_ONE"><texture texture="VFXTexture-sampler" texcoord="UVSET0"/></transparent>
          <transparency><float>1</float></transparency>
        </phong></technique>
      </profile_COMMON>
      <extra><technique profile="GOOGLEEARTH"><double_sided>1</double_sided></technique></extra>
    </effect>
  </library_effects>
  <library_materials><material id="PreviewMaterial" name="PreviewMaterial"><instance_effect url="#PreviewEffect"/></material></library_materials>
  <library_geometries>
    <geometry id="vfx_kurp_0945-mesh" name="vfx_kurp_0945"><mesh>
      <source id="vfx_kurp_0945-mesh-positions">
        <float_array id="vfx_kurp_0945-mesh-positions-array" count="1032">1.54533246 -1.18719926 5.01582527 1.89693205 -1.16374404 4.18802452 2.00063685 -0.42797187 5.16151047 2.21113431 -0.266616773 4.29624891 2.33636552 0.617326993 4.44024134 2.1753485 0.447532719 5.31855822 3.60441255 -0.0206544003 6.30607557 2.00063685 -0.42797187 5.16151047 2.1753485 0.447532719 5.31855822 3.29399341 -1.13360932 6.16056871 1.54533246 -1.18719926 5.01582527 2.40154233 -2.20988507 6.12143898 0.811759216 -1.66063836 4.86286736 1.0318858 -2.87330414 6.02419519 -0.0214578813 -1.7512431 4.70698643 -0.404985552 -2.82306413 5.91174746 -0.773563607 -1.46602367 4.54816008 -1.58088822 -2.14366957 5.78541613 -1.28882618 -0.891361933 4.38640308 -2.25706914 -1.0521307 5.6465764 -1.46947428 -0.173104137 4.22176552 -2.32847826 0.162445463 5.49658918 -1.29182326 0.52284201 4.05233335 -1.78601906 1.3081335 5.30944347 1.16608698 -1.86724003 4.06751013 0.811759216 -1.66063836 4.86286736 0.196813 -2.16058073 3.94478297 -0.0214578813 -1.7512431 4.70698643 -0.792752851 -1.97698627 3.81860852 -0.773563607 -1.46602367 4.54816008 -1.57617992 -1.36205205 3.68792605 -1.28882618 -0.891361933 4.38640308 -1.97513424 -0.465341252 3.55186129 -1.46947428 -0.173104137 4.22176552 -1.86225077 0.579783493 3.38544297 -1.29182326 0.52284201 4.05233335 -1.31685265 1.33957592 3.23511291 -0.822540872 1.01583389 3.88212276 -0.497148881 1.72972691 3.07769704 -0.198999783 1.20739386 3.70893979 0.378297411 1.67286342 2.91268134 0.411429199 1.06858413 3.53256583 -0.822540872 1.01583389 3.88212276 -0.852791292 1.91235905 5.14142895 -0.198999783 1.20739386 3.70893979 0.21453885 1.98425426 4.96456242 0.411429199 1.06858413 3.53256583 1.15122547 1.539048 4.77889967 0.847831378 0.644858731 3.3499856 1.78913074 0.619907659 4.55136251 0.987930636 0.084637223 3.16501093 1.82542174 -0.394535518 4.34273911 0.801836813 -0.448108459 2.97028089 1.28457206 -1.39009597 4.07526922 0.362521341 -0.770486528 2.76601481 0.244017457 -1.92640018 3.77260756 -0.163741539 -0.771318358 2.54931164 -0.954862122 -1.75846126 3.42452359 -0.56359617 -0.46110329 2.31686592 -1.84328158 -0.894587115 3.02072167 1.12744338 1.13577038 2.7113719 0.847831378 0.644858731 3.3499856 1.44165023 0.406164614 2.5283494 0.987930636 0.084637223 3.16501093 1.30377751 -0.396417047 2.30829287 0.801836813 -0.448108459 2.97028089 0.788847601 -0.926344652 2.08058596 0.362521341 -0.770486528 2.76601481 0.148633175 -1.04670544 1.84781837 -0.163741539 -0.771318358 2.54931164 -0.349009305 -0.811271203 1.61453485 -0.56359617 -0.46110329 2.31686592 -0.549191916 -0.425409145 1.38755441 -0.663359925 0.0305835508 2.05194211 -0.518753128 -0.159731722 1.20985913 -0.409009374 0.423953102 1.75911319 -0.469751978 -0.0511411982 1.09986246 -0.00390829625 0.490925493 1.44087553 -0.469751978 -0.0511411982 1.09986246 -0.409009374 0.423953102 1.75911319 -0.663359925 0.0305835508 2.05194211 -1.99212384 0.507897492 2.44479299 -0.409009374 0.423953102 1.75911319 -1.15541563 1.54200204 1.78170598 -0.00390829625 0.490925493 1.44087553 -0.0532151457 1.63360467 1.0930742 -1.5453327 1.18719949 5.01582527 -1.89693169 1.16374357 4.18802452 -2.00063685 0.427971691 5.16151047 -2.21113407 0.266616237 4.29624844 -2.33636504 -0.617327232 4.44024134 -2.1753485 -0.447532838 5.31855822 -3.60441183 0.0206536757 6.30607653 -2.00063685 0.427971691 5.16151047 -2.1753485 -0.447532838 5.31855822 -3.29399293 1.13360872 6.16056871 -1.5453327 1.18719949 5.01582527 -2.40154113 2.20988436 6.1214385 -0.811758978 1.6606386 4.86286688 -1.0318864 2.87330534 6.02419615 0.0214578813 1.75124346 4.70698595 0.404985194 2.82306437 5.91174746 0.773563548 1.46602391 4.54816008 1.5808881 2.14366981 5.78541613 1.28882606 0.89136247 4.38640308 2.25706914 1.05213117 5.6465764 1.46947464 0.173104286 4.22176552 2.32847802 -0.162445225 5.49658918 1.29182326 -0.52284207 4.05233335 1.78601942 -1.3081329 5.30944347 -1.16608721 1.86724015 4.06750917 -0.811758978 1.6606386 4.86286688 -0.196813 2.16058144 3.94478226 0.0214578813 1.75124346 4.70698595 0.792752851 1.97698651 3.81860781 0.773563548 1.46602391 4.54816008 1.57617992 1.3620524 3.68792629 1.28882606 0.89136247 4.38640308 1.97513471 0.465342057 3.55186129 1.46947464 0.173104286 4.22176552 1.86225065 -0.579783136 3.38544297 1.29182326 -0.52284207 4.05233335 1.31685241 -1.33957568 3.23511291 0.82254111 -1.01583353 3.88212276 0.497149358 -1.72972691 3.07769775 0.199000275 -1.2073935 3.70893979 -0.378297173 -1.67286354 2.91268158 -0.411428842 -1.06858413 3.53256583 0.82254111 -1.01583353 3.88212276 0.852791649 -1.91235881 5.14142942 0.199000275 -1.2073935 3.70893979 -0.214538358 -1.9842539 4.96456242 -0.411428842 -1.06858413 3.53256583 -1.15122451 -1.53904824 4.77889967 -0.847830782 -0.644858969 3.3499856 -1.78913015 -0.619907837 4.55136204 -0.987930934 -0.0846374465 3.16501093 -1.82542222 0.394535071 4.34273911 -0.801836456 0.448108549 2.97028089 -1.28457218 1.39009608 4.07526922 -0.362521579 0.770486289 2.76601481 -0.244018053 1.92640018 3.77260685 0.16374142 0.771318358 2.54931164 0.954861585 1.75846138 3.42452264 0.56359617 0.461103647 2.31686592 1.84328158 0.894587234 3.02072167 -1.12744278 -1.1357705 2.71137261 -0.847830782 -0.644858969 3.3499856 -1.44164987 -0.406164823 2.5283494 -0.987930934 -0.0846374465 3.16501093 -1.30377715 0.396416898 2.30829287 -0.801836456 0.448108549 2.97028089 -0.78884772 0.926344532 2.08058596 -0.362521579 0.770486289 2.76601481 -0.148633786 1.04670508 1.84781802 0.16374142 0.771318358 2.54931164 0.349009394 0.811271203 1.61453485 0.56359617 0.461103647 2.31686592 0.549191916 0.425409025 1.38755429 0.663359925 -0.030584037 2.05194235 0.518753009 0.159731483 1.20985913 0.409009165 -0.423953311 1.75911319 0.469751978 0.0511408592 1.09986246 0.0039086604 -0.490925672 1.44087553 0.469751978 0.0511408592 1.09986246 0.409009165 -0.423953311 1.75911319 0.663359925 -0.030584037 2.05194235 1.99212348 -0.507897135 2.44479275 0.409009165 -0.423953311 1.75911319 1.15541623 -1.5420018 1.78170633 0.0039086604 -0.490925672 1.44087553 0.0532153878 -1.63360467 1.09307456 -0.712024654 -0.926815051 3.24289632 -0.734006558 -1.19644917 2.53277588 -0.254675896 -1.19053101 3.36562657 -0.166956996 -1.38462583 2.62688732 0.383005017 -1.44953961 2.75149775 0.264162554 -1.28403009 3.49720764 -0.0116644448 -2.03557133 4.30819798 -0.254675896 -1.19053101 3.36562657 0.264162554 -1.28403009 3.49720764 -0.643936692 -1.87112325 4.19041872 -0.712024654 -0.926815051 3.24289632 -1.25732022 -1.36636376 4.15864563 -1.00450444 -0.491025118 3.11333418 -1.64142255 -0.589481227 4.07950544 -1.06893026 0.0130979636 2.98054147 -1.6205181 0.23247358 3.98766422 -0.903453659 0.476717605 2.8444407 -1.2374231 0.912560695 3.88405967 -0.554922735 0.802366521 2.7049861 -0.611210257 1.3111909 3.76967382 -0.108934744 0.924743406 2.56215858 0.0950437649 1.36234768 3.64547968 0.332854425 0.822407206 2.41421723 0.772501614 1.05471121 3.48959112 -1.18747675 -0.741575927 2.42750835 -1.00450444 -0.491025118 3.11333418 -1.3859821 -0.126252452 2.31979632 -1.06893026 0.0130979636 2.98054147 -1.27991986 0.51323612 2.20851135 -0.903453659 0.476717605 2.8444407 -0.8905233 1.03052241 2.0926559 -0.554922735 0.802366521 2.7049861 -0.307486687 1.30512264 1.97137642 -0.108934744 0.924743406 2.56215858 0.38830602 1.24722951 1.82212019 0.332854425 0.822407206 2.41421723 0.908625492 0.893212243 1.6864059 0.654600277 0.53004323 2.26460028 1.18959968 0.341908633 1.5433737 0.788140776 0.129899752 2.11132669 1.16802728 -0.264134934 1.39240265 0.707178642 -0.272279779 1.95412362 0.654600277 0.53004323 2.26460028 1.1392082 0.50801503 3.34874773 0.788140776 0.129899752 2.11132669 1.19342321 -0.129033434 3.19955564 0.707178642 -0.272279779 1.95412362 0.935458684 -0.699733465 3.04189897 0.433164474 -0.569505004 1.790187 0.381949763 -1.10235447 2.847193 0.0577594515 -0.674198655 1.6228267 -0.246312685 -1.1396302 2.66719556 -0.311207441 -0.556868584 1.44522071 -0.883559438 -0.816486772 2.43430161 -0.545561257 -0.256691732 1.25731444 -1.25144942 -0.15852107 2.167799 -0.55815703 0.118490061 1.05612385 -1.17393392 0.637457931 1.85726249 -0.342053423 0.418084248 0.838146746 -0.618417251 1.274239 1.49136734 0.808534239 -0.802606491 1.20676458 0.433164474 -0.569505004 1.790187 0.294556298 -1.04550483 1.03655994 0.0577594515 -0.674198655 1.6228267 -0.294346377 -0.968076506 0.830063403 -0.311207441 -0.556868584 1.44522071 -0.705925632 -0.601145289 0.614198387 -0.545561257 -0.256691732 1.25731444 -0.820587989 -0.116524491 0.391160548 -0.55815703 0.118490061 1.05612385 -0.655661627 0.282066062 0.165139526 -0.342053423 0.418084248 0.838146746 -0.354893078 0.458157887 -0.0572478287 0.0233857107 0.507232118 0.586882949 -0.136824083 0.444357848 -0.23310338 0.336151993 0.324302751 0.30551517 -0.0445634298 0.409334472 -0.342754215 0.406427951 0.00323575331 -0.00478200708 -0.0445634298 0.409334472 -0.342754215 0.336151993 0.324302751 0.30551517 0.0233857107 0.507232118 0.586882949 0.371584365 1.45746297 0.958392859 0.336151993 0.324302751 0.30551517 1.21909662 0.913463965 0.327363282 0.406427951 0.00323575331 -0.00478200708 1.42503097 0.0464208074 -0.349541098 0.712024535 0.926815588 3.24289632 0.734006439 1.19644976 2.53277564 0.254675718 1.19053161 3.36562657 0.166956772 1.38462619 2.62688708 -0.383005256 1.44953984 2.75149727 -0.264162733 1.28403068 3.49720764 0.0116641374 2.03557181 4.3081975 0.254675718 1.19053161 3.36562657 -0.264162733 1.28403068 3.49720764 0.643936394 1.87112396 4.19041777 0.712024535 0.926815588 3.24289632 1.2573201 1.36636448 4.15864563 1.00450432 0.491025684 3.11333418 1.64142243 0.589482061 4.07950544 1.06893026 -0.0130973545 2.98054147 1.6205181 -0.232472701 3.98766422 0.903453719 -0.476717039 2.8444407 1.23742334 -0.912559921 3.88405967 0.554922854 -0.802365985 2.7049861 0.611210496 -1.31119018 3.76967382 0.108934878 -0.924742929 2.56215906 -0.0950435563 -1.36234708 3.64547968 -0.332854305 -0.822406849 2.41421723 -0.772501435 -1.05471074 3.48959112 1.18747651 0.741576523 2.42750835 1.00450432 0.491025684 3.11333418 1.3859821 0.126253004 2.31979632 1.06893026 -0.0130973545 2.98054147 1.27991998 -0.513235583 2.20851135 0.903453719 -0.476717039 2.8444407 0.890523479 -1.03052206 2.09265614 0.554922854 -0.802365985 2.7049861 0.307486895 -1.30512228 1.97137678 0.108934878 -0.924742929 2.56215906 -0.388305842 -1.24722915 1.82212055 -0.332854305 -0.822406849 2.41421723 -0.908625373 -0.893212064 1.68640625 -0.654600217 -0.530042992 2.26460028 -1.18959968 -0.341908573 1.5433737 -0.788140776 -0.129899543 2.11132669 -1.16802728 0.264134994 1.39240265 -0.707178701 0.272279957 1.95412362 -0.654600217 -0.530042992 2.26460028 -1.13920808 -0.508014732 3.34874773 -0.788140776 -0.129899543 2.11132669 -1.19342321 0.129033747 3.19955564 -0.707178701 0.272279957 1.95412362 -0.935458744 0.699733763 3.04189897 -0.433164563 0.569505183 1.790187 -0.381949972 1.10235483 2.847193 -0.0577595558 0.674198893 1.6228267 0.246312506 1.13963068 2.66719532 0.311207381 0.556868822 1.44522071 0.883559259 0.816487368 2.43430161 0.545561198 0.256692 1.25731444 1.25144942 0.158521577 2.167799 0.55815703 -0.118489815 1.05612385 1.17393404 -0.637457454 1.85726249 0.342053482 -0.418084069 0.838146925 0.61841749 -1.27423864 1.4913677 -0.808534418 0.802606491 1.20676446 -0.433164563 0.569505183 1.790187 -0.294556447 1.04550495 1.0365597 -0.0577595558 0.674198893 1.6228267 0.294346258 0.968076744 0.830063224 0.311207381 0.556868822 1.44522071 0.705925572 0.601145467 0.614198327 0.545561198 0.256692 1.25731444 0.820587989 0.11652467 0.391160548 0.55815703 -0.118489815 1.05612385 0.655661687 -0.282065913 0.165139601 0.342053482 -0.418084069 0.838146925 0.354893168 -0.458157858 -0.0572477356 -0.0233856344 -0.507231999 0.586883008 0.136824143 -0.444357818 -0.23310329 -0.336151963 -0.324302722 0.30551526 0.0445634932 -0.409334562 -0.342754126 -0.406427951 -0.00323581524 -0.00478200661 0.0445634932 -0.409334562 -0.342754126 -0.336151963 -0.324302722 0.30551526 -0.0233856344 -0.507231999 0.586883008 -0.371584127 -1.45746297 0.958393157 -0.336151963 -0.324302722 0.30551526 -1.2190965 -0.913464203 0.327363431 -0.406427951 -0.00323581524 -0.00478200661 -1.42503097 -0.0464210793 -0.349541098</float_array>
        <technique_common><accessor source="#vfx_kurp_0945-mesh-positions-array" count="344" stride="3"><param name="X" type="float"/><param name="Y" type="float"/><param name="Z" type="float"/></accessor></technique_common>
      </source>
      <source id="vfx_kurp_0945-mesh-normals">
        <float_array id="vfx_kurp_0945-mesh-normals-array" count="1032">0.670136715 -0.666351861 0.32694339 0.776732227 -0.577281546 0.251859217 0.914969511 -0.339778498 0.217672614 0.94996505 -0.264703786 0.165826141 0.975663308 -0.162252314 0.147496763 0.966361654 -0.193727772 0.169158814 0.585924849 -0.0316283666 -0.809747935 0.564472535 -0.0841506087 -0.821151285 0.575243681 0.0318253099 -0.817362745 0.563272392 -0.192154709 -0.80361731 0.494978633 -0.362419268 -0.789714143 0.452087244 -0.48062982 -0.751406747 0.308406419 -0.597792878 -0.739952131 0.220247743 -0.675861424 -0.703350743 -0.000807378331 -0.717393886 -0.696667324 -0.126672414 -0.74314797 -0.657027544 -0.350956734 -0.669530174 -0.654643962 -0.482362446 -0.625832025 -0.612911696 -0.649812372 -0.445916162 -0.615550694 -0.74765915 -0.335958015 -0.572833316 -0.808901776 -0.087384815 -0.581413632 -0.840078934 0.0596843614 -0.53917081 -0.767410073 0.312482277 -0.559854093 -0.705268213 0.477957494 -0.523596583 0.407978865 -0.846885972 0.341082683 0.274207957 -0.869986323 0.409797259 -0.0347543295 -0.908078241 0.417356016 -0.161703 -0.862513291 0.479502829 -0.444090603 -0.756110091 0.480708922 -0.532742402 -0.654431932 0.536567218 -0.725854917 -0.43658327 0.531535218 -0.754763791 -0.303448459 0.581593202 -0.82411502 -0.0166139114 0.566178781 -0.787515713 0.109491658 0.606490378 -0.704131313 0.400450547 0.586377399 -0.619059043 0.473632306 0.626448993 -0.407556176 0.686092212 0.60264039 -0.290099612 0.712486533 0.638909348 -0.0142697278 0.793610094 0.608259314 0.111815932 0.75909596 0.641303767 0.40169549 0.694980842 0.596357579 0.501375794 0.601017845 0.622414543 -0.51950857 0.654870499 -0.548867447 -0.3719314 0.774772837 -0.511267136 -0.13466901 0.832207259 -0.537861819 0.0485773616 0.862597548 -0.503553085 0.298499983 0.788159091 -0.538240659 0.458213162 0.729740865 -0.507463267 0.642773178 0.528271678 -0.554771733 0.750139844 0.389590176 -0.534331086 0.801310137 0.117191926 -0.586658432 0.823297366 -0.040557129 -0.566159489 0.721997465 -0.294487964 -0.626096238 0.66299651 -0.42619737 -0.61546034 0.440654682 -0.582523969 -0.683000202 0.324949734 -0.657914274 -0.679379481 0.0837659573 -0.663101052 -0.743828112 -0.0397479352 -0.663838615 -0.74681885 -0.207078694 -0.56199171 -0.80080193 -0.291424515 -0.511365388 -0.808441212 0.726985812 0.388089605 0.566461021 0.75909889 0.262325013 0.595780549 0.850198233 -0.0528129661 0.523806983 0.81529922 -0.193745535 0.545664595 0.714251694 -0.536631816 0.449300358 0.61330532 -0.633672107 0.471504237 0.314275056 -0.882661622 0.349484835 0.174548522 -0.912418169 0.370170094 -0.234193924 -0.946997287 0.219884841 -0.381575117 -0.893583474 0.236450851 -0.733095723 -0.677392186 0.0609137782 -0.843650741 -0.532580348 0.0679087586 -0.974699911 -0.200676666 -0.0984325131 -0.990085421 0.0496103317 -0.131414133 -0.962398554 0.214123009 -0.167153703 -0.895840223 0.382031093 -0.226985767 -0.946077911 0.297813387 -0.127451061 -0.495102115 0.725867144 -0.477483805 -0.495102086 0.725867145 -0.477483835 -0.49510207 0.725867166 -0.477483819 -0.360423376 -0.410767089 -0.837475605 -0.390407246 -0.336703383 -0.856862307 -0.469522463 -0.330700984 -0.818648591 -0.449087684 -0.269036464 -0.852020911 -0.518847959 -0.310099288 -0.796639961 -0.493381302 -0.272690806 -0.825962841 -0.670137129 0.666351739 0.326942792 -0.776732689 0.577281237 0.251858497 -0.914969681 0.339778376 0.21767209 -0.949965134 0.264703763 0.165825699 -0.975663418 0.162252119 0.147496255 -0.966361753 0.193727676 0.169158359 -0.585925272 0.031627931 -0.809747645 -0.564472868 0.0841504783 -0.821151069 -0.575244211 -0.0318251456 -0.817362379 -0.563272797 0.192154347 -0.803617113 -0.49497888 0.362419423 -0.789713917 -0.452087493 0.480630009 -0.751406477 -0.308406664 0.597792952 -0.739951969 -0.220247993 0.675861475 -0.703350615 0.000807639623 0.717394003 -0.696667203 0.126672442 0.743148079 -0.657027416 0.350956786 0.669530219 -0.654643888 0.4823624 0.625832102 -0.612911654 0.649812251 0.44591634 -0.615550693 0.747659161 0.335958053 -0.572833279 0.808901885 0.0873846426 -0.581413505 0.840079001 -0.0596844402 -0.539170696 0.767410063 -0.312482422 -0.559854026 0.705268251 -0.47795739 -0.523596627 -0.407979212 0.846885894 0.341082461 -0.27420795 0.869986359 0.409797188 0.0347543147 0.908078186 0.417356138 0.161703077 0.86251324 0.479502894 0.444090407 0.756110291 0.480708787 0.532742161 0.654432227 0.536567097 0.725854622 0.43658354 0.531535399 0.754763568 0.303448645 0.581593394 0.824114898 0.0166139579 0.566178958 0.787515681 -0.10949169 0.606490413 0.704131429 -0.400450694 0.586377158 0.619059051 -0.473632521 0.626448822 0.407556514 -0.686092051 0.602640345 0.290099698 -0.712486345 0.638909518 0.0142697559 -0.79360963 0.608259919 -0.111815999 -0.759095545 0.641304246 -0.40169544 -0.694980501 0.596358011 -0.501375602 -0.601017651 0.622414885 0.519508584 -0.654870576 -0.548867343 0.371931462 -0.774772844 -0.511267081 0.134669322 -0.83220725 -0.537861754 -0.0485770982 -0.862597627 -0.503552976 -0.298499784 -0.788159236 -0.538240557 -0.458212844 -0.729741058 -0.507463277 -0.642772885 -0.528272218 -0.554771558 -0.750139641 -0.38959067 -0.53433101 -0.80131 -0.117192043 -0.586658597 -0.823297326 0.0405569214 -0.566159562 -0.721997369 0.294488033 -0.626096317 -0.662996554 0.426197063 -0.615460504 -0.440655039 0.582523491 -0.68300038 -0.324950144 0.657913841 -0.679379703 -0.0837665253 0.663100828 -0.743828247 0.0397478338 0.663838303 -0.746819133 0.207078879 0.561991188 -0.800802249 0.29142464 0.5113651 -0.808441348 -0.726985753 -0.388089277 0.56646132 -0.759098731 -0.262325169 0.595780683 -0.850198379 0.0528128151 0.523806761 -0.815299457 0.193745043 0.545664415 -0.714251897 0.53663179 0.449300067 -0.613305265 0.63367229 0.471504062 -0.314274868 0.882661716 0.349484766 -0.174548564 0.912418212 0.370169968 0.234193302 0.946997482 0.219884666 0.381574378 0.893583847 0.236450632 0.733095442 0.6773925 0.060913653 0.843650673 0.532580462 0.0679087206 0.974699959 0.200676351 -0.0984326833 0.990085379 -0.049610717 -0.131414306 0.962398607 -0.214122948 -0.167153478 0.895840139 -0.382031231 -0.226985865 0.946078157 -0.297812912 -0.127450347 0.495102447 -0.72586715 -0.477483452 0.49510247 -0.72586714 -0.477483445 0.495102447 -0.72586715 -0.477483452 0.360423342 0.410767143 -0.837475593 0.390406983 0.336703507 -0.856862379 0.469522602 0.330701424 -0.818648334 0.449087617 0.26903643 -0.852020957 0.518848101 0.31009942 -0.796639817 0.49338113 0.272690541 -0.825963031 -0.665654845 -0.670673813 0.327261768 -0.575105277 -0.77485536 0.262398727 -0.341415458 -0.906987107 0.24659658 -0.263410812 -0.943154518 0.202667954 -0.157433018 -0.969080073 0.189996466 -0.198948137 -0.957418098 0.209213344 -0.0417779386 -0.749258265 -0.660958891 -0.114578444 -0.72547609 -0.678642928 0.0373001931 -0.739261701 -0.672384438 -0.243978034 -0.718229464 -0.651629616 -0.458667789 -0.622209933 -0.634412057 -0.593598535 -0.55627612 -0.581547641 -0.732492294 -0.372459523 -0.56984993 -0.810503778 -0.264483003 -0.522620672 -0.855152888 0.00670259094 -0.518332532 -0.870059644 0.147099788 -0.470486842 -0.777685311 0.415371036 -0.471881828 -0.718562281 0.550982759 -0.4243657 -0.503712703 0.748417124 -0.431445619 -0.381466786 0.84035014 -0.385090553 -0.0888153439 0.912992409 -0.398191783 0.0610395328 0.933263412 -0.35396833 0.360781753 0.85192402 -0.379554992 0.520669297 0.783025911 -0.340255648 -0.851056476 -0.410300297 0.327653081 -0.878344335 -0.278060889 0.388835918 -0.922008863 0.0352666046 0.385559234 -0.881570992 0.163916862 0.442678042 -0.776012938 0.456077898 0.435656827 -0.677526559 0.549650328 0.488714926 -0.452365308 0.753136553 0.477651507 -0.318551347 0.788094919 0.526717608 -0.0152796893 0.861642646 0.507285404 0.111339069 0.827976583 0.54959839 0.421777291 0.738249976 0.526394234 0.498263249 0.655261511 0.567772919 0.72333873 0.42781389 0.541992949 0.753487919 0.309445531 0.580085699 0.835941249 0.0130465168 0.548663847 0.803562816 -0.115474681 0.583911294 0.726870809 -0.424772787 0.539654432 0.634311004 -0.521939992 0.570287818 0.735778667 0.567264449 -0.369919988 0.847209352 0.41541369 -0.33116126 0.922684895 0.134091918 -0.361485743 0.944420344 -0.0437155523 -0.325820754 0.864444201 -0.346618435 -0.364131685 0.805131662 -0.492000001 -0.331208402 0.569730424 -0.726712931 -0.383791037 0.443327022 -0.821914801 -0.357655157 0.108410912 -0.902322166 -0.417207122 -0.0309316202 -0.919664174 -0.391485685 -0.359329163 -0.810183532 -0.463125467 -0.469827232 -0.763124347 -0.443738214 -0.692427222 -0.488476162 -0.530976065 -0.759180031 -0.3947019 -0.517548152 -0.788875909 -0.0716863608 -0.610357163 -0.79630748 0.0309917846 -0.604097597 -0.666857543 0.272494699 -0.693575992 -0.632115632 0.345266831 -0.693700688 0.399855295 -0.75704286 0.516722218 0.277619215 -0.788452313 0.548881154 -0.0603569229 -0.87392418 0.482300289 -0.191056858 -0.838694472 0.509989077 -0.550632995 -0.719450266 0.423313854 -0.634042141 -0.627460472 0.451977787 -0.887589773 -0.304862998 0.345315722 -0.90863926 -0.186394671 0.373673281 -0.938080195 0.245994613 0.243910224 -0.891356943 0.364297156 0.269759861 -0.661026903 0.741376303 0.115778283 -0.544383666 0.82796653 0.134602561 -0.18452854 0.982633807 -0.0194941053 0.0280963175 0.998953021 -0.0361034494 0.223079405 0.971733546 -0.0772625077 0.386762724 0.91204535 -0.136337354 0.30037576 0.952430858 -0.051476835 0.759644344 0.530217524 -0.376576483 0.759644344 0.530217524 -0.376576483 0.759644336 0.530217518 -0.376576509 -0.481342756 0.441099481 -0.757456533 -0.415564786 0.473652261 -0.776504632 -0.372544266 0.536618403 -0.757133713 -0.309019195 0.523126269 -0.794258172 -0.335047955 0.572267274 -0.748500525 -0.289370935 0.545402729 -0.786638624 0.665654851 0.670673819 0.327261742 0.575105157 0.774855479 0.262398637 0.341415362 0.906987209 0.246596337 0.263410453 0.943154692 0.20266761 0.157432628 0.969080236 0.189995956 0.19894796 0.957418223 0.209212943 0.0417772663 0.749258116 -0.660959103 0.114578154 0.725475797 -0.67864329 -0.0373002566 0.739261586 -0.672384561 0.24397778 0.718229282 -0.651629911 0.458667747 0.622209738 -0.634412279 0.593598688 0.556275857 -0.581547735 0.732492209 0.37245963 -0.569849969 0.810503739 0.264483099 -0.522620685 0.855152888 -0.00670246847 -0.518332533 0.870059697 -0.147099578 -0.470486809 0.777685374 -0.415370949 -0.471881801 0.718562395 -0.550982636 -0.424365667 0.503712592 -0.748417195 -0.431445625 0.381466882 -0.840350093 -0.385090559 0.088815639 -0.912992438 -0.398191651 -0.0610393445 -0.93326344 -0.353968288 -0.360781547 -0.851924145 -0.379554905 -0.520669183 -0.783026037 -0.340255532 0.851056422 0.410300479 0.327652994 0.878344319 0.278061033 0.388835851 0.922008869 -0.0352664074 0.385559237 0.881571019 -0.163916677 0.442678056 0.77601304 -0.456077619 0.435656936 0.677526611 -0.549650083 0.488715129 0.452365359 -0.7531363 0.477651856 0.31855141 -0.78809469 0.526717913 0.0152798175 -0.861642562 0.507285544 -0.111338844 -0.827976457 0.549598625 -0.421777199 -0.738249962 0.526394327 -0.498263344 -0.655261279 0.567773104 -0.72333865 -0.427813763 0.541993157 -0.753487848 -0.309445497 0.58008581 -0.83594125 -0.0130464517 0.548663847 -0.803562822 0.115474622 0.583911298 -0.726870818 0.424772762 0.539654439 -0.634311082 0.521940008 0.570287716 -0.73577859 -0.567264614 -0.36991989 -0.847209308 -0.415413847 -0.331161177 -0.922684906 -0.134092069 -0.361485658 -0.944420374 0.0437154429 -0.325820683 -0.864444252 0.346618312 -0.364131682 -0.805131723 0.491999882 -0.331208432 -0.569730593 0.726712739 -0.38379115 -0.44332731 0.8219146 -0.357655263 -0.108411091 0.902322048 -0.417207331 0.0309313825 0.919664077 -0.391485932 0.35932902 0.810183487 -0.463125654 0.469827159 0.763124314 -0.443738349 0.692427086 0.488476239 -0.530976171 0.75917988 0.394702063 -0.51754825 0.788875857 0.071686369 -0.610357229 0.79630743 -0.03099177 -0.604097664 0.666857609 -0.272494672 -0.693575939 0.632115619 -0.345266883 -0.693700673 -0.399855427 0.757042887 0.516722077 -0.277619407 0.788452351 0.548881002 0.0603566954 0.873924296 0.482300108 0.191056627 0.838694622 0.509988917 0.550632869 0.719450436 0.423313729 0.63404209 0.62746054 0.451977763 0.887589728 0.304863122 0.345315728 0.90863923 0.186394796 0.373673293 0.938080209 -0.245994483 0.243910302 0.89135696 -0.364297044 0.269759956 0.661027081 -0.741376123 0.115778417 0.544383861 -0.827966377 0.134602714 0.184528598 -0.982633798 -0.0194939785 -0.0280962227 -0.998953029 -0.036103297 -0.223079115 -0.971733637 -0.0772621925 -0.38676254 -0.912045456 -0.136337173 -0.300375228 -0.952431052 -0.0514763292 -0.75964429 -0.530217706 -0.376576337 -0.759644281 -0.5302177 -0.376576362 -0.759644281 -0.5302177 -0.376576362 0.481342771 -0.441099525 -0.757456498 0.415564936 -0.473652322 -0.776504515 0.372544442 -0.536618459 -0.757133587 0.309019313 -0.523126386 -0.794258049 0.335048068 -0.572267382 -0.748500391 0.289370994 -0.545402787 -0.786638562</float_array>
        <technique_common><accessor source="#vfx_kurp_0945-mesh-normals-array" count="344" stride="3"><param name="X" type="float"/><param name="Y" type="float"/><param name="Z" type="float"/></accessor></technique_common>
      </source>
      <source id="vfx_kurp_0945-mesh-uv0">
        <float_array id="vfx_kurp_0945-mesh-uv0-array" count="688">0.5 0.0999999642 0 0.0999999642 0.5 0.0500000119 0 0.0500000119 0 0 0.5 0 1 0 0.5 0.0500000119 0.5 0 1 0.0500000119 0.5 0.0999999642 1 0.0999999642 0.5 0.149999976 1 0.149999976 0.5 0.199999988 1 0.199999988 0.5 0.25 1 0.25 0.5 0.300000012 1 0.300000012 0.5 0.349999964 1 0.349999964 0.5 0.399999976 1 0.399999976 0 0.149999976 0.5 0.149999976 0 0.199999988 0.5 0.199999988 0 0.25 0.5 0.25 0 0.300000012 0.5 0.300000012 0 0.349999964 0.5 0.349999964 0 0.399999976 0.5 0.399999976 0 0.449999988 0.5 0.449999988 0 0.5 0.5 0.5 0 0.549999952 0.5 0.549999952 0.5 0.449999988 1 0.449999988 0.5 0.5 1 0.5 0.5 0.549999952 1 0.549999952 0.5 0.600000024 1 0.600000024 0.5 0.649999976 1 0.649999976 0.5 0.699999988 1 0.699999988 0.5 0.75 1 0.75 0.5 0.800000012 1 0.800000012 0.5 0.850000024 1 0.850000024 0 0.600000024 0.5 0.600000024 0 0.649999976 0.5 0.649999976 0 0.699999988 0.5 0.699999988 0 0.75 0.5 0.75 0 0.800000012 0.5 0.800000012 0 0.850000024 0.5 0.850000024 0 0.899999976 0.5 0.899999976 0 0.949999988 0.5 0.949999988 0 1 0.5 1 0 1 0.5 0.949999988 0.5 0.899999976 1 0.899999976 0.5 0.949999988 1 0.949999988 0.5 1 1 1 0.5 0.0999999642 0 0.0999999642 0.5 0.0500000119 0 0.0500000119 0 0 0.5 0 1 0 0.5 0.0500000119 0.5 0 1 0.0500000119 0.5 0.0999999642 1 0.0999999642 0.5 0.149999976 1 0.149999976 0.5 0.199999988 1 0.199999988 0.5 0.25 1 0.25 0.5 0.300000012 1 0.300000012 0.5 0.349999964 1 0.349999964 0.5 0.399999976 1 0.399999976 0 0.149999976 0.5 0.149999976 0 0.199999988 0.5 0.199999988 0 0.25 0.5 0.25 0 0.300000012 0.5 0.300000012 0 0.349999964 0.5 0.349999964 0 0.399999976 0.5 0.399999976 0 0.449999988 0.5 0.449999988 0 0.5 0.5 0.5 0 0.549999952 0.5 0.549999952 0.5 0.449999988 1 0.449999988 0.5 0.5 1 0.5 0.5 0.549999952 1 0.549999952 0.5 0.600000024 1 0.600000024 0.5 0.649999976 1 0.649999976 0.5 0.699999988 1 0.699999988 0.5 0.75 1 0.75 0.5 0.800000012 1 0.800000012 0.5 0.850000024 1 0.850000024 0 0.600000024 0.5 0.600000024 0 0.649999976 0.5 0.649999976 0 0.699999988 0.5 0.699999988 0 0.75 0.5 0.75 0 0.800000012 0.5 0.800000012 0 0.850000024 0.5 0.850000024 0 0.899999976 0.5 0.899999976 0 0.949999988 0.5 0.949999988 0 1 0.5 1 0 1 0.5 0.949999988 0.5 0.899999976 1 0.899999976 0.5 0.949999988 1 0.949999988 0.5 1 1 1 0.5 0.0999999642 0 0.0999999642 0.5 0.0500000119 0 0.0500000119 0 0 0.5 0 1 0 0.5 0.0500000119 0.5 0 1 0.0500000119 0.5 0.0999999642 1 0.0999999642 0.5 0.149999976 1 0.149999976 0.5 0.199999988 1 0.199999988 0.5 0.25 1 0.25 0.5 0.300000012 1 0.300000012 0.5 0.349999964 1 0.349999964 0.5 0.399999976 1 0.399999976 0 0.149999976 0.5 0.149999976 0 0.199999988 0.5 0.199999988 0 0.25 0.5 0.25 0 0.300000012 0.5 0.300000012 0 0.349999964 0.5 0.349999964 0 0.399999976 0.5 0.399999976 0 0.449999988 0.5 0.449999988 0 0.5 0.5 0.5 0 0.549999952 0.5 0.549999952 0.5 0.449999988 1 0.449999988 0.5 0.5 1 0.5 0.5 0.549999952 1 0.549999952 0.5 0.600000024 1 0.600000024 0.5 0.649999976 1 0.649999976 0.5 0.699999988 1 0.699999988 0.5 0.75 1 0.75 0.5 0.800000012 1 0.800000012 0.5 0.850000024 1 0.850000024 0 0.600000024 0.5 0.600000024 0 0.649999976 0.5 0.649999976 0 0.699999988 0.5 0.699999988 0 0.75 0.5 0.75 0 0.800000012 0.5 0.800000012 0 0.850000024 0.5 0.850000024 0 0.899999976 0.5 0.899999976 0 0.949999988 0.5 0.949999988 0 1 0.5 1 0 1 0.5 0.949999988 0.5 0.899999976 1 0.899999976 0.5 0.949999988 1 0.949999988 0.5 1 1 1 0.5 0.0999999642 0 0.0999999642 0.5 0.0500000119 0 0.0500000119 0 0 0.5 0 1 0 0.5 0.0500000119 0.5 0 1 0.0500000119 0.5 0.0999999642 1 0.0999999642 0.5 0.149999976 1 0.149999976 0.5 0.199999988 1 0.199999988 0.5 0.25 1 0.25 0.5 0.300000012 1 0.300000012 0.5 0.349999964 1 0.349999964 0.5 0.399999976 1 0.399999976 0 0.149999976 0.5 0.149999976 0 0.199999988 0.5 0.199999988 0 0.25 0.5 0.25 0 0.300000012 0.5 0.300000012 0 0.349999964 0.5 0.349999964 0 0.399999976 0.5 0.399999976 0 0.449999988 0.5 0.449999988 0 0.5 0.5 0.5 0 0.549999952 0.5 0.549999952 0.5 0.449999988 1 0.449999988 0.5 0.5 1 0.5 0.5 0.549999952 1 0.549999952 0.5 0.600000024 1 0.600000024 0.5 0.649999976 1 0.649999976 0.5 0.699999988 1 0.699999988 0.5 0.75 1 0.75 0.5 0.800000012 1 0.800000012 0.5 0.850000024 1 0.850000024 0 0.600000024 0.5 0.600000024 0 0.649999976 0.5 0.649999976 0 0.699999988 0.5 0.699999988 0 0.75 0.5 0.75 0 0.800000012 0.5 0.800000012 0 0.850000024 0.5 0.850000024 0 0.899999976 0.5 0.899999976 0 0.949999988 0.5 0.949999988 0 1 0.5 1 0 1 0.5 0.949999988 0.5 0.899999976 1 0.899999976 0.5 0.949999988 1 0.949999988 0.5 1 1 1</float_array>
        <technique_common><accessor source="#vfx_kurp_0945-mesh-uv0-array" count="344" stride="2"><param name="S" type="float"/><param name="T" type="float"/></accessor></technique_common>
      </source>
      <vertices id="vfx_kurp_0945-mesh-vertices"><input semantic="POSITION" source="#vfx_kurp_0945-mesh-positions"/></vertices>
      <triangles material="PreviewMaterial" count="320">
        <input semantic="VERTEX" source="#vfx_kurp_0945-mesh-vertices" offset="0"/>
        <input semantic="NORMAL" source="#vfx_kurp_0945-mesh-normals" offset="1"/>
        <input semantic="TEXCOORD" source="#vfx_kurp_0945-mesh-uv0" offset="2" set="0"/>
        <p>0 0 0 1 1 1 2 2 2 3 3 3 2 2 2 1 1 1 4 4 4 5 5 5 3 3 3 3 3 3 5 5 5 2 2 2 6 6 6 7 7 7 8 8 8 9 9 9 7 7 7 6 6 6 7 7 7 9 9 9 10 10 10 11 11 11 10 10 10 9 9 9 10 10 10 11 11 11 12 12 12 13 13 13 12 12 12 11 11 11 12 12 12 13 13 13 14 14 14 15 15 15 14 14 14 13 13 13 14 14 14 15 15 15 16 16 16 17 17 17 16 16 16 15 15 15 16 16 16 17 17 17 18 18 18 19 19 19 18 18 18 17 17 17 18 18 18 19 19 19 20 20 20 21 21 21 20 20 20 19 19 19 20 20 20 21 21 21 22 22 22 23 23 23 22 22 22 21 21 21 1 1 1 0 0 0 24 24 24 25 25 25 24 24 24 0 0 0 24 24 24 25 25 25 26 26 26 27 27 27 26 26 26 25 25 25 26 26 26 27 27 27 28 28 28 29 29 29 28 28 28 27 27 27 28 28 28 29 29 29 30 30 30 31 31 31 30 30 30 29 29 29 30 30 30 31 31 31 32 32 32 33 33 33 32 32 32 31 31 31 32 32 32 33 33 33 34 34 34 35 35 35 34 34 34 33 33 33 34 34 34 35 35 35 36 36 36 37 37 37 36 36 36 35 35 35 36 36 36 37 37 37 38 38 38 39 39 39 38 38 38 37 37 37 38 38 38 39 39 39 40 40 40 41 41 41 40 40 40 39 39 39 22 22 22 23 23 23 42 42 42 43 43 43 42 42 42 23 23 23 42 42 42 43 43 43 44 44 44 45 45 45 44 44 44 43 43 43 44 44 44 45 45 45 46 46 46 47 47 47 46 46 46 45 45 45 46 46 46 47 47 47 48 48 48 49 49 49 48 48 48 47 47 47 48 48 48 49 49 49 50 50 50 51 51 51 50 50 50 49 49 49 50 50 50 51 51 51 52 52 52 53 53 53 52 52 52 51 51 51 52 52 52 53 53 53 54 54 54 55 55 55 54 54 54 53 53 53 54 54 54 55 55 55 56 56 56 57 57 57 56 56 56 55 55 55 56 56 56 57 57 57 58 58 58 59 59 59 58 58 58 57 57 57 40 40 40 41 41 41 60 60 60 61 61 61 60 60 60 41 41 41 60 60 60 61 61 61 62 62 62 63 63 63 62 62 62 61 61 61 62 62 62 63 63 63 64 64 64 65 65 65 64 64 64 63 63 63 64 64 64 65 65 65 66 66 66 67 67 67 66 66 66 65 65 65 66 66 66 67 67 67 68 68 68 69 69 69 68 68 68 67 67 67 68 68 68 69 69 69 70 70 70 71 71 71 70 70 70 69 69 69 70 70 70 71 71 71 72 72 72 73 73 73 72 72 72 71 71 71 72 72 72 73 73 73 74 74 74 75 75 75 74 74 74 73 73 73 74 74 74 75 75 75 76 76 76 77 77 77 78 78 78 79 79 79 58 58 58 59 59 59 80 80 80 81 81 81 80 80 80 59 59 59 80 80 80 81 81 81 82 82 82 83 83 83 82 82 82 81 81 81 82 82 82 83 83 83 84 84 84 85 85 85 84 84 84 83 83 83 86 86 86 87 87 87 88 88 88 89 89 89 88 88 88 87 87 87 90 90 90 91 91 91 89 89 89 89 89 89 91 91 91 88 88 88 92 92 92 93 93 93 94 94 94 95 95 95 93 93 93 92 92 92 93 93 93 95 95 95 96 96 96 97 97 97 96 96 96 95 95 95 96 96 96 97 97 97 98 98 98 99 99 99 98 98 98 97 97 97 98 98 98 99 99 99 100 100 100 101 101 101 100 100 100 99 99 99 100 100 100 101 101 101 102 102 102 103 103 103 102 102 102 101 101 101 102 102 102 103 103 103 104 104 104 105 105 105 104 104 104 103 103 103 104 104 104 105 105 105 106 106 106 107 107 107 106 106 106 105 105 105 106 106 106 107 107 107 108 108 108 109 109 109 108 108 108 107 107 107 87 87 87 86 86 86 110 110 110 111 111 111 110 110 110 86 86 86 110 110 110 111 111 111 112 112 112 113 113 113 112 112 112 111 111 111 112 112 112 113 113 113 114 114 114 115 115 115 114 114 114 113 113 113 114 114 114 115 115 115 116 116 116 117 117 117 116 116 116 115 115 115 116 116 116 117 117 117 118 118 118 119 119 119 118 118 118 117 117 117 118 118 118 119 119 119 120 120 120 121 121 121 120 120 120 119 119 119 120 120 120 121 121 121 122 122 122 123 123 123 122 122 122 121 121 121 122 122 122 123 123 123 124 124 124 125 125 125 124 124 124 123 123 123 124 124 124 125 125 125 126 126 126 127 127 127 126 126 126 125 125 125 108 108 108 109 109 109 128 128 128 129 129 129 128 128 128 109 109 109 128 128 128 129 129 129 130 130 130 131 131 131 130 130 130 129 129 129 130 130 130 131 131 131 132 132 132 133 133 133 132 132 132 131 131 131 132 132 132 133 133 133 134 134 134 135 135 135 134 134 134 133 133 133 134 134 134 135 135 135 136 136 136 137 137 137 136 136 136 135 135 135 136 136 136 137 137 137 138 138 138 139 139 139 138 138 138 137 137 137 138 138 138 139 139 139 140 140 140 141 141 141 140 140 140 139 139 139 140 140 140 141 141 141 142 142 142 143 143 143 142 142 142 141 141 141 142 142 142 143 143 143 144 144 144 145 145 145 144 144 144 143 143 143 126 126 126 127 127 127 146 146 146 147 147 147 146 146 146 127 127 127 146 146 146 147 147 147 148 148 148 149 149 149 148 148 148 147 147 147 148 148 148 149 149 149 150 150 150 151 151 151 150 150 150 149 149 149 150 150 150 151 151 151 152 152 152 153 153 153 152 152 152 151 151 151 152 152 152 153 153 153 154 154 154 155 155 155 154 154 154 153 153 153 154 154 154 155 155 155 156 156 156 157 157 157 156 156 156 155 155 155 156 156 156 157 157 157 158 158 158 159 159 159 158 158 158 157 157 157 158 158 158 159 159 159 160 160 160 161 161 161 160 160 160 159 159 159 160 160 160 161 161 161 162 162 162 163 163 163 164 164 164 165 165 165 144 144 144 145 145 145 166 166 166 167 167 167 166 166 166 145 145 145 166 166 166 167 167 167 168 168 168 169 169 169 168 168 168 167 167 167 168 168 168 169 169 169 170 170 170 171 171 171 170 170 170 169 169 169 172 172 172 173 173 173 174 174 174 175 175 175 174 174 174 173 173 173 176 176 176 177 177 177 175 175 175 175 175 175 177 177 177 174 174 174 178 178 178 179 179 179 180 180 180 181 181 181 179 179 179 178 178 178 179 179 179 181 181 181 182 182 182 183 183 183 182 182 182 181 181 181 182 182 182 183 183 183 184 184 184 185 185 185 184 184 184 183 183 183 184 184 184 185 185 185 186 186 186 187 187 187 186 186 186 185 185 185 186 186 186 187 187 187 188 188 188 189 189 189 188 188 188 187 187 187 188 188 188 189 189 189 190 190 190 191 191 191 190 190 190 189 189 189 190 190 190 191 191 191 192 192 192 193 193 193 192 192 192 191 191 191 192 192 192 193 193 193 194 194 194 195 195 195 194 194 194 193 193 193 173 173 173 172 172 172 196 196 196 197 197 197 196 196 196 172 172 172 196 196 196 197 197 197 198 198 198 199 199 199 198 198 198 197 197 197 198 198 198 199 199 199 200 200 200 201 201 201 200 200 200 199 199 199 200 200 200 201 201 201 202 202 202 203 203 203 202 202 202 201 201 201 202 202 202 203 203 203 204 204 204 205 205 205 204 204 204 203 203 203 204 204 204 205 205 205 206 206 206 207 207 207 206 206 206 205 205 205 206 206 206 207 207 207 208 208 208 209 209 209 208 208 208 207 207 207 208 208 208 209 209 209 210 210 210 211 211 211 210 210 210 209 209 209 210 210 210 211 211 211 212 212 212 213 213 213 212 212 212 211 211 211 194 194 194 195 195 195 214 214 214 215 215 215 214 214 214 195 195 195 214 214 214 215 215 215 216 216 216 217 217 217 216 216 216 215 215 215 216 216 216 217 217 217 218 218 218 219 219 219 218 218 218 217 217 217 218 218 218 219 219 219 220 220 220 221 221 221 220 220 220 219 219 219 220 220 220 221 221 221 222 222 222 223 223 223 222 222 222 221 221 221 222 222 222 223 223 223 224 224 224 225 225 225 224 224 224 223 223 223 224 224 224 225 225 225 226 226 226 227 227 227 226 226 226 225 225 225 226 226 226 227 227 227 228 228 228 229 229 229 228 228 228 227 227 227 228 228 228 229 229 229 230 230 230 231 231 231 230 230 230 229 229 229 212 212 212 213 213 213 232 232 232 233 233 233 232 232 232 213 213 213 232 232 232 233 233 233 234 234 234 235 235 235 234 234 234 233 233 233 234 234 234 235 235 235 236 236 236 237 237 237 236 236 236 235 235 235 236 236 236 237 237 237 238 238 238 239 239 239 238 238 238 237 237 237 238 238 238 239 239 239 240 240 240 241 241 241 240 240 240 239 239 239 240 240 240 241 241 241 242 242 242 243 243 243 242 242 242 241 241 241 242 242 242 243 243 243 244 244 244 245 245 245 244 244 244 243 243 243 244 244 244 245 245 245 246 246 246 247 247 247 246 246 246 245 245 245 246 246 246 247 247 247 248 248 248 249 249 249 250 250 250 251 251 251 230 230 230 231 231 231 252 252 252 253 253 253 252 252 252 231 231 231 252 252 252 253 253 253 254 254 254 255 255 255 254 254 254 253 253 253 254 254 254 255 255 255 256 256 256 257 257 257 256 256 256 255 255 255 258 258 258 259 259 259 260 260 260 261 261 261 260 260 260 259 259 259 262 262 262 263 263 263 261 261 261 261 261 261 263 263 263 260 260 260 264 264 264 265 265 265 266 266 266 267 267 267 265 265 265 264 264 264 265 265 265 267 267 267 268 268 268 269 269 269 268 268 268 267 267 267 268 268 268 269 269 269 270 270 270 271 271 271 270 270 270 269 269 269 270 270 270 271 271 271 272 272 272 273 273 273 272 272 272 271 271 271 272 272 272 273 273 273 274 274 274 275 275 275 274 274 274 273 273 273 274 274 274 275 275 275 276 276 276 277 277 277 276 276 276 275 275 275 276 276 276 277 277 277 278 278 278 279 279 279 278 278 278 277 277 277 278 278 278 279 279 279 280 280 280 281 281 281 280 280 280 279 279 279 259 259 259 258 258 258 282 282 282 283 283 283 282 282 282 258 258 258 282 282 282 283 283 283 284 284 284 285 285 285 284 284 284 283 283 283 284 284 284 285 285 285 286 286 286 287 287 287 286 286 286 285 285 285 286 286 286 287 287 287 288 288 288 289 289 289 288 288 288 287 287 287 288 288 288 289 289 289 290 290 290 291 291 291 290 290 290 289 289 289 290 290 290 291 291 291 292 292 292 293 293 293 292 292 292 291 291 291 292 292 292 293 293 293 294 294 294 295 295 295 294 294 294 293 293 293 294 294 294 295 295 295 296 296 296 297 297 297 296 296 296 295 295 295 296 296 296 297 297 297 298 298 298 299 299 299 298 298 298 297 297 297 280 280 280 281 281 281 300 300 300 301 301 301 300 300 300 281 281 281 300 300 300 301 301 301 302 302 302 303 303 303 302 302 302 301 301 301 302 302 302 303 303 303 304 304 304 305 305 305 304 304 304 303 303 303 304 304 304 305 305 305 306 306 306 307 307 307 306 306 306 305 305 305 306 306 306 307 307 307 308 308 308 309 309 309 308 308 308 307 307 307 308 308 308 309 309 309 310 310 310 311 311 311 310 310 310 309 309 309 310 310 310 311 311 311 312 312 312 313 313 313 312 312 312 311 311 311 312 312 312 313 313 313 314 314 314 315 315 315 314 314 314 313 313 313 314 314 314 315 315 315 316 316 316 317 317 317 316 316 316 315 315 315 298 298 298 299 299 299 318 318 318 319 319 319 318 318 318 299 299 299 318 318 318 319 319 319 320 320 320 321 321 321 320 320 320 319 319 319 320 320 320 321 321 321 322 322 322 323 323 323 322 322 322 321 321 321 322 322 322 323 323 323 324 324 324 325 325 325 324 324 324 323 323 323 324 324 324 325 325 325 326 326 326 327 327 327 326 326 326 325 325 325 326 326 326 327 327 327 328 328 328 329 329 329 328 328 328 327 327 327 328 328 328 329 329 329 330 330 330 331 331 331 330 330 330 329 329 329 330 330 330 331 331 331 332 332 332 333 333 333 332 332 332 331 331 331 332 332 332 333 333 333 334 334 334 335 335 335 336 336 336 337 337 337 316 316 316 317 317 317 338 338 338 339 339 339 338 338 338 317 317 317 338 338 338 339 339 339 340 340 340 341 341 341 340 340 340 339 339 339 340 340 340 341 341 341 342 342 342 343 343 343 342 342 342 341 341 341</p>
      </triangles>
    </mesh></geometry>
  </library_geometries>
  <library_visual_scenes>
    <visual_scene id="Scene" name="Scene">
      <node id="vfx_kurp_0945" name="vfx_kurp_0945" type="NODE">
        <instance_geometry url="#vfx_kurp_0945-mesh"><bind_material><technique_common><instance_material symbol="PreviewMaterial" target="#PreviewMaterial"><bind_vertex_input semantic="UVSET0" input_semantic="TEXCOORD" input_set="0"/></instance_material></technique_common></bind_material></instance_geometry>
      </node>
    </visual_scene>
  </library_visual_scenes>
  <scene><instance_visual_scene url="#Scene"/></scene>
</COLLADA>
