<?xml version="1.0" encoding="utf-8"?>
<COLLADA xmlns="http://www.collada.org/2005/11/COLLADASchema" version="1.4.1">
  <asset>
    <contributor><authoring_tool>Morrobroom Kurpulio VFX preview converter</authoring_tool></contributor>
    <unit name="unit" meter="1"/>
    <up_axis>Z_UP</up_axis>
  </asset>
  <library_images>
    <image id="VFXTexture" name="darkmap_newgen-1.dds">
      <init_from>../../../Textures/Kurp/darkmap_newgen-1.dds</init_from>
    </image>
  </library_images>
  <library_effects>
    <effect id="PreviewEffect">
      <profile_COMMON>
        <newparam sid="VFXTexture-surface">
          <surface type="2D"><init_from>VFXTexture</init_from></surface>
        </newparam>
        <newparam sid="VFXTexture-sampler">
          <sampler2D><source>VFXTexture-surface</source></sampler2D>
        </newparam>
        <technique sid="common"><phong>
          <emission><color>0.08 0.08 0.08 1</color></emission>
          <ambient><color>0.2 0.2 0.2 1</color></ambient>
          <diffuse><texture texture="VFXTexture-sampler" texcoord="UVSET0"/></diffuse>
          <specular><color>0.15 0.15 0.15 1</color></specular>
          <shininess><float>8</float></shininess>
          <transparent opaque="A_ONE"><texture texture="VFXTexture-sampler" texcoord="UVSET0"/></transparent>
          <transparency><float>1</float></transparency>
        </phong></technique>
      </profile_COMMON>
      <extra><technique profile="GOOGLEEARTH"><double_sided>1</double_sided></technique></extra>
    </effect>
  </library_effects>
  <library_materials><material id="PreviewMaterial" name="PreviewMaterial"><instance_effect url="#PreviewEffect"/></material></library_materials>
  <library_geometries>
    <geometry id="vfx_kurp_0475-mesh" name="vfx_kurp_0475"><mesh>
      <source id="vfx_kurp_0475-mesh-positions">
        <float_array id="vfx_kurp_0475-mesh-positions-array" count="1104">0.902136558 -1.74305138 1.8455119 1.28924024 -1.74815072 2.16579782 0.751699975 -2.47411351 1.92825768 1.19781311 -2.49064278 2.23119093 0.402471161 -2.42587638 1.26933295 0.50026471 -2.45593714 1.6060616 -0.327667789 -2.59315981 1.32265426 -0.157525286 -2.65396026 1.909424 0.751699975 -2.47411351 1.92825768 0.243708071 -2.72181056 2.42274728 1.19781311 -2.49064278 2.23119093 0.849712536 -2.79770491 2.82150318 0.50026471 -2.45593714 1.6060616 0.718449311 -1.73863038 1.5636817 0.402471161 -2.42587638 1.26933295 0.653113851 -1.71979927 1.31995975 0.431557034 -2.37632117 0.920151775 0.658959135 -1.67717933 1.07318316 0.568067481 -2.30100074 0.574650766 0.731156472 -1.60731201 0.81156373 0.787505675 -2.19347907 0.257241103 0.859779402 -1.50991636 0.559644809 1.06070159 -2.04668214 -0.00775836064 1.01681021 -1.38807026 0.350338927 1.37620045 -1.8863819 -0.27454228 1.31922576 -1.29103496 0.179600276 1.74562372 -1.66279668 -0.494058007 1.63028059 -1.13829768 0.0308481913 2.11229126 -1.36092602 -0.649184522 1.88704608 -0.933388368 -0.074375023 -0.281236787 -2.53248781 0.742762784 0.431557034 -2.37632117 0.920151775 -0.075090225 -2.45909972 0.220697885 0.568067481 -2.30100074 0.574650766 0.239010701 -2.35697737 -0.228918533 0.787505675 -2.19347907 0.257241103 0.627395688 -2.2067402 -0.599837065 1.06070159 -2.04668214 -0.00775836064 0.998478139 -1.92978919 -0.922131102 1.37620045 -1.8863819 -0.27454228 1.40883142 -1.63469658 -1.16466294 1.74562372 -1.66279668 -0.494058007 1.80660928 -1.30126554 -1.33250662 2.11229126 -1.36092602 -0.649184522 2.13402273 -0.884133358 -1.42337299 2.41141133 -0.949852553 -0.728631119 2.29981943 -0.348667982 -1.41897632 2.54035133 -0.413975119 -0.710591512 2.41141133 -0.949852553 -0.728631119 2.03775189 -0.701571709 -0.126414363 2.54035133 -0.413975119 -0.710591512 2.06408803 -0.457382127 -0.131610606 2.40814576 0.179046114 -0.591033161 1.94981735 -0.135840128 -0.0863436111 2.02109086 0.759371665 -0.381172849 1.6057107 0.272619601 0.011843025 1.54669624 1.13649266 -0.162893691 1.237347 0.494519598 0.0739680604 1.06037951 1.28368799 0.0235228957 0.98413576 0.540027455 0.0948373798 0.613211452 1.20730255 0.174133827 0.850858733 0.500945347 0.0818670403 0.265775873 0.936829678 0.2815363 0.771089341 0.428524886 0.057450759 0.056282362 0.521108227 0.344074324 0.695595819 0.278973074 0.0333031769 2.21067597 0.260248091 -1.31099273 2.40814576 0.179046114 -0.591033161 1.88889273 0.899170893 -1.10705817 2.02109086 0.759371665 -0.381172849 1.4531684 1.38757373 -0.864420982 1.54669624 1.13649266 -0.162893691 0.905958312 1.63912043 -0.619712197 1.06037951 1.28368799 0.0235228957 0.306226283 1.59987621 -0.387627459 0.613211452 1.20730255 0.174133827 -0.215853207 1.25645535 -0.197840798 0.265775873 0.936829678 0.2815363 -0.547300854 0.690517933 -0.0693470616 0.056282362 0.521108227 0.344074324 -0.656639489 -0.00315485345 1.35739697e-07 -6.55172637e-07 -0.00326237091 0.364355864 -6.55172637e-07 -0.00326237091 0.364355864 0.65663813 -0.00340307819 1.58497274e-07 -1.46036402 0.658362469 -0.654839334 -2.11768214 0.278816183 -0.292903877 -1.83998683 1.23031061 -0.350387242 -2.18082091 0.814177918 0.229905997 -1.83998683 1.23031061 -0.350387242 -2.11768214 0.278816183 -0.292903877 -0.569358982 1.785962 -0.5270348 -1.23740837 1.57388711 -0.57242228 -0.770293404 2.08631703 0.131252388 -1.3429033 1.8631491 0.112506931 -1.68343596 1.49034825 0.336491541 -1.68343596 1.49034825 0.336491541 -2.18082091 0.814177918 0.229905997 -1.60334592 1.01299697 0.666853841 -1.23740837 1.57388711 -0.57242228 -0.911883419 0.905055874 -0.675514086 -0.569358982 1.785962 -0.5270348 -0.395240784 1.05867828 -0.595378483 0.101293179 1.86490835 -0.330713705 0.145602528 1.12473071 -0.449470434 0.742132929 1.81049541 -0.0542073068 0.673356803 1.09230517 -0.262539288 1.31606662 1.61198077 0.250013551 1.12607589 0.963627376 -0.0778144283 1.77735604 1.24165842 0.532448391 1.44721662 0.762359431 0.0578852589 2.04069488 0.686759979 0.854974815 1.44721662 0.762359431 0.0578852589 2.04069488 0.686759979 0.854974815 1.82852543 0.425049816 0.183840258 2.01907871 0.055510838 1.1464149 1.82852543 0.425049816 0.183840258 2.04069488 0.686759979 0.854974815 1.96702669 -0.179456098 0.43507062 1.79770893 -0.554561308 1.40752507 1.96702669 -0.179456098 0.43507062 2.01907871 0.055510838 1.1464149 1.83789199 -0.828942297 0.709649807 -0.133184115 2.14905368 0.323665218 0.101293179 1.86490835 -0.330713705 0.494174129 2.05696938 0.610395419 0.742132929 1.81049541 -0.0542073068 1.06218139 1.80253919 0.930571763 1.31606662 1.61198077 0.250013551 1.51583925 1.35680472 1.22691228 1.77735604 1.24165842 0.532448391 1.55332136 0.774401476 1.41952406 1.77735604 1.24165842 0.532448391 1.51583925 1.35680472 1.22691228 1.77735604 1.24165842 0.532448391 1.55332136 0.774401476 1.41952406 2.04069488 0.686759979 0.854974815 1.41863543 0.287246329 1.53332096 2.04069488 0.686759979 0.854974815 1.55332136 0.774401476 1.41952406 2.01907871 0.055510838 1.1464149 1.19423318 -0.181567461 1.6537404 1.79770893 -0.554561308 1.40752507 0.879783173 -0.585424806 1.76523675 1.4237342 -1.08975177 1.64818415 0.524966995 -0.856244751 1.8432238 0.928585498 -1.48930984 1.85903595 1.4237342 -1.08975177 1.64818415 1.51070514 -1.4340974 0.986525787 0.928585498 -1.48930984 1.85903595 1.00503818 -1.92707494 1.25368788 0.341819123 -1.67829256 2.02313149 0.309234183 -2.210599 1.49443708 -0.281591357 -1.57105828 2.11569473 -0.530082719 -2.11837866 1.66555943 -0.990063298 -1.15598259 2.08163425 -1.29274771 -1.54447866 1.5147276 -1.50370622 -0.572803332 1.68979616 -1.29274771 -1.54447866 1.5147276 -1.50370622 -0.572803332 1.68979616 -1.38625952 -0.931819312 1.04076348 -1.41379357 -0.0465577366 1.16392772 -1.20048831 -0.646460328 0.765747597 -1.03658796 0.262529954 0.666128572 -0.956234064 -0.452197739 0.45017235 -0.573523308 0.371802964 0.191777003 -0.683226759 -0.366983821 0.11374604 0.210695695 -0.9553754 1.86780256 0.341819123 -1.67829256 2.02313149 -0.0404034263 -0.913181465 1.84559101 -0.281591357 -1.57105828 2.11569473 -0.444325099 -0.65206736 1.97132309 -0.990063298 -1.15598259 2.08163425 -0.94459149 -0.246117929 2.07005512 -0.94459149 -0.246117929 2.07005512 -0.971599116 0.260685989 1.68737287 -1.41379357 -0.0465577366 1.16392772 -0.59213748 0.573028566 1.18572865 -1.03658796 0.262529954 0.666128572 -0.0640658415 0.649748072 0.668357738 -0.573523308 0.371802964 0.191777003 0.473690064 0.4260491 0.128810273 -0.152436814 0.250247869 -0.24667438 -0.152436814 0.250247869 -0.24667438 -0.530129783 -0.385135187 -0.114137884 -0.119226696 -0.0232574576 2.86173145 -0.163904776 -0.100187019 3.39333752 0.613719069 0.0716083961 2.99485084 0.563818862 0.0766496523 3.33786544 0.902264732 0.0392023197 2.52556929 0.735235361 0.0557818216 2.7347584 1.1805512 -0.62947043 2.72397092 1.10362144 -0.574886478 2.9093403 0.613719069 0.0716083961 2.99485084 1.08180893 -0.51025086 3.07397986 0.563818862 0.0766496523 3.33786544 1.0967512 -0.448669419 3.27499446 0.735235361 0.0557818216 2.7347584 0.0575307693 0.0436150808 2.41149659 0.902264732 0.0392023197 2.52556929 0.30891543 0.103308913 2.06976616 1.10394116 0.031656437 2.33653994 0.57585869 0.161118015 1.81856493 1.33185832 0.04257796 2.14798523 0.826107024 0.222938369 1.62299414 1.57309704 0.0815232437 1.94517777 1.04389745 0.293578828 1.45639363 1.81046165 0.15866653 1.71318659 1.22127693 0.376216306 1.30152733 2.02254798 0.284541769 1.43637863 1.35867268 0.475516756 1.14188283 2.183941 0.468074091 1.10108128 1.46095796 0.604775727 0.950955334 2.26911093 0.714730196 0.697412497 1.52167917 0.787215138 0.692762906 1.33257744 -0.663313111 2.50587 1.10394116 0.031656437 2.33653994 1.55286517 -0.666327556 2.25996109 1.33185832 0.04257796 2.14798523 1.81808613 -0.627338539 1.98293083 1.57309704 0.0815232437 1.94517777 2.09710423 -0.533539907 1.66203894 1.81046165 0.15866653 1.71318659 2.35040288 -0.373613383 1.28382475 2.02254798 0.284541769 1.43637863 2.53401932 -0.144872126 0.844816324 2.183941 0.468074091 1.10108128 2.61531728 0.145445976 0.351021567 2.26911093 0.714730196 0.697412497 2.64010347 0.482406456 -0.0712446528 2.21594053 0.997032607 0.273973526 2.54156098 0.725171857 -0.486092562 2.09622776 1.19423261 -0.104529926 2.21594053 0.997032607 0.273973526 1.47170797 0.920264428 0.33842713 2.09622776 1.19423261 -0.104529926 1.39681555 1.00549351 0.0932829861 1.90666025 1.31498215 -0.430444096 1.31091205 1.04872142 -0.0588004286 1.64972167 1.35963899 -0.690835363 1.22860286 1.06504463 -0.143292815 1.34033052 1.32803699 -0.867336436 1.14257849 1.06621371 -0.191857201 1.00386358 1.2267389 -0.946881524 1.02795354 1.0470297 -0.218146836 0.663659581 1.06715706 -0.927261631 0.870670672 0.992769039 -0.209248822 0.335329286 0.859556457 -0.81092987 0.677098091 0.893449277 -0.143116156 0.0299897347 0.611342847 -0.599337602 0.464061113 0.746701411 -0.00168400471 2.33002024 0.87638392 -0.868995972 1.90666025 1.31498215 -0.430444096 2.01511733 0.92952892 -1.18623512 1.64972167 1.35963899 -0.690835363 1.62840419 0.881439061 -1.39789602 1.34033052 1.32803699 -0.867336436 1.21900842 0.74589589 -1.48207517 1.00386358 1.2267389 -0.946881524 0.82522919 0.546205512 -1.44343449 0.663659581 1.06715706 -0.927261631 0.464940771 0.300933248 -1.29577066 0.335329286 0.859556457 -0.81092987 0.145560167 0.0210307526 -1.04889816 0.0299897347 0.611342847 -0.599337602 -0.127487032 -0.287038029 -0.707062226 -0.242329398 0.328108744 -0.291929412 -0.242329398 0.328108744 -0.291929412 0.250376168 0.554643956 0.227544008 0.722026877 2.00196922 0.348000541 0.988536227 2.36952839 0.946166125 1.03576127 2.52487349 -0.121506949 1.40487276 2.87373917 0.431646619 1.1748898 0.96408092 1.45520817 1.7962325 1.32975561 1.24510152 1.04262207 1.66524129 1.43729602 1.72666358 1.60963631 1.13246012 0.988536227 2.36952839 0.946166125 1.6767064 2.2405748 1.21768591 0.988536227 2.36952839 0.946166125 1.72666358 1.60963631 1.13246012 0.988536227 2.36952839 0.946166125 1.6767064 2.2405748 1.21768591 1.40487276 2.87373917 0.431646619 2.05643651 2.61420263 0.700040346 1.04262207 1.66524129 1.43729602 0.418978261 1.52969919 1.04153567 1.04262207 1.66524129 1.43729602 0.722026877 2.00196922 0.348000541 1.04262207 1.66524129 1.43729602 0.418978261 1.52969919 1.04153567 1.1748898 0.96408092 1.45520817 0.633784709 0.786237813 0.965813698 1.57096472 0.437459896 1.21945846 1.03549713 0.24888942 0.727884392 2.05592611 0.0954695674 0.838993499 1.52350064 -0.112324934 0.351885632 2.55115742 -0.0463639962 0.379112519 2.02914178 -0.277357955 -0.108812251 2.98521491 0.0799785596 -0.115999462 2.48904032 -0.167397853 -0.622502409 2.98521491 0.0799785596 -0.115999462 2.48904032 -0.167397853 -0.622502409 3.21495533 0.5837407 -0.544037572 2.74911959 0.337349812 -1.07903124 3.21495533 0.5837407 -0.544037572 2.74911959 0.337349812 -1.07903124 3.10809184 1.22050216 -0.797805143 2.67482341 0.883011265 -1.30996548 2.74753831 1.78288139 -0.897330612 2.36527648 1.39648911 -1.4155069 2.0391804 1.0115106 1.09629458 1.57096472 0.437459896 1.21945846 2.3789443 0.772763325 0.809633111 2.05592611 0.0954695674 0.838993499 2.7069939 0.681352289 0.479480953 2.55115742 -0.0463639962 0.379112519 2.90952799 0.746349004 0.22186402 2.98521491 0.0799785596 -0.115999462 2.96416437 0.936189023 0.0698140386 3.21495533 0.5837407 -0.544037572 2.87442724 1.33592869 -0.093527237 3.10809184 1.22050216 -0.797805143 2.60275682 1.71451883 -0.163644978 2.74753831 1.78288139 -0.897330612 2.19530154 2.03506081 -0.143334514 2.22882057 2.23125688 -0.867429205 1.71144509 2.25135384 -0.0369839162 1.61307268 2.53951077 -0.723437362 2.22882057 2.23125688 -0.867429205 1.8919719 1.82846092 -1.40428869 1.61307268 2.53951077 -0.723437362 1.3131694 2.13890492 -1.28335039 0.952109042 2.66654962 -0.468902214 0.680810482 2.28096457 -1.05341113 0.309231644 2.55557484 -0.10484522 0.0540664194 2.19532229 -0.712330299 -0.253065333 2.13540246 0.358982434 -0.483964033 1.78934401 -0.266204812 -0.757309153 1.38626438 0.737221412 -0.69989894 1.07082697 0.0581538508 -0.878594775 0.664266904 0.811378836 -0.631012807 0.722681479 0.10482336 -0.707683926 0.116350975 0.595856631 -0.559691265 0.62483357 0.0634345345 -0.424393569 -0.173946519 0.181733544 -0.474846812 0.528824405 -0.0780687643 1.21689012 2.32403341 0.144696352 0.952109042 2.66654962 -0.468902214 0.770106151 2.22619487 0.388138688 0.309231644 2.55557484 -0.10484522 0.366534211 1.92190736 0.725650935 -0.253065333 2.13540246 0.358982434 -0.185815419 1.38758289 1.22437913 -0.757309153 1.38626438 0.737221412 -0.410678934 0.675483973 1.39862543 -0.878594775 0.664266904 0.811378836 -0.410678934 0.675483973 1.39862543 -0.878594775 0.664266904 0.811378836 -0.225624512 -0.0268707416 1.15356252 -0.707683926 0.116350975 0.595856631 -0.225624512 -0.0268707416 1.15356252 -0.707683926 0.116350975 0.595856631 0.15830563 -0.403579736 0.596052003 -0.424393569 -0.173946519 0.181733544 0.484163089 -0.481990392 -0.0311920147 -0.155493655 -0.246292898 -0.346177033 -0.155493655 -0.246292898 -0.346177033 -0.298794168 0.482439287 -0.457280668</float_array>
        <technique_common><accessor source="#vfx_kurp_0475-mesh-positions-array" count="368" stride="3"><param name="X" type="float"/><param name="Y" type="float"/><param name="Z" type="float"/></accessor></technique_common>
      </source>
      <source id="vfx_kurp_0475-mesh-normals">
        <float_array id="vfx_kurp_0475-mesh-normals-array" count="1104">0.710361175 -0.238086817 -0.662345581 0.594908243 -0.18451743 -0.782328256 0.678845543 -0.199274083 -0.706723828 0.552642412 -0.140402036 -0.821506928 0.22063803 -0.967250796 -0.125478115 0.203254267 -0.962428566 -0.180052652 0.215403914 -0.968983173 -0.121131182 0.204277349 -0.95674883 -0.207129044 0.180364311 -0.946227435 -0.268556059 0.172732251 -0.933583391 -0.313983474 0.155355211 -0.926098919 -0.343810341 0.142291368 -0.909993178 -0.389442655 0.854785238 -0.270803503 -0.442727523 0.865653355 -0.291429467 -0.407078782 0.938284425 -0.320426831 -0.13018826 0.939720438 -0.311377402 -0.141313879 0.927815987 -0.3432954 0.145964937 0.947391279 -0.30584875 0.0943732269 0.870526181 -0.343630696 0.352281297 0.913073892 -0.285105972 0.291565864 0.797586316 -0.331333158 0.50405794 0.856158081 -0.255126835 0.449336888 0.734340059 -0.306496883 0.605643739 0.732713481 -0.322087237 0.59949209 0.64891402 -0.392996627 0.651509206 0.566833271 -0.481285792 0.668628469 0.629585912 -0.46159213 0.624943425 0.599717566 -0.49876491 0.625757465 0.674359491 -0.438799077 0.593881003 0.67994712 -0.423535515 0.598572954 0.224382174 -0.971910225 -0.0710151707 0.251291749 -0.963128436 -0.0961044866 0.25117994 -0.966616239 -0.0506130917 0.299586268 -0.950887626 -0.0778510799 0.304231792 -0.951373814 -0.0482792183 0.365609256 -0.92836451 -0.0668521371 0.435023832 -0.895018611 -0.0984680251 0.420344958 -0.901417573 -0.103713425 0.468501153 -0.863978093 -0.184522421 0.389783523 -0.902066271 -0.18532471 0.493680773 -0.828005965 -0.265867291 0.463530027 -0.843844758 -0.270307119 0.616263157 -0.712348349 -0.335826668 0.624793422 -0.706752969 -0.331863558 0.809369692 -0.451944624 -0.375055675 0.833990581 -0.421656076 -0.355901483 0.940236428 -0.0327339053 -0.338945351 0.952909421 0.0123227184 -0.303004596 0.754361328 -0.303491591 0.58209264 0.761121447 -0.230359925 0.606323715 0.784152778 -0.0707750722 0.616518702 0.750815162 0.0186822528 0.660248109 0.710308418 0.127824214 0.692187057 0.638160725 0.178061521 0.749029361 0.574435155 0.203685098 0.792803023 0.453175657 0.219717484 0.863919007 0.425606855 0.178115118 0.887205618 0.244540635 0.155674549 0.957060767 0.319895571 0.0984135511 0.942327754 0.0794129839 -0.00625068943 0.996822204 0.286445549 0.00741836498 0.958067803 0.0475363274 -0.215455975 0.975355843 0.324708011 -0.0510249318 0.944436956 0.210425882 -0.290237394 0.933532647 0.39711045 -0.0496154823 0.916428717 0.399062465 -0.203444337 0.894069098 0.907170234 0.353734701 -0.227846279 0.900543025 0.400076117 -0.170180379 0.79946457 0.597506096 -0.0619908598 0.766673922 0.641500293 0.0262387395 0.61250655 0.775472976 0.153223331 0.550702037 0.797218504 0.24732554 0.298717967 0.876560006 0.377372671 0.234340356 0.861116233 0.451180042 -0.0724498636 0.813349135 0.577247089 -0.117245792 0.766673857 0.631240542 -0.364645339 0.583558749 0.725598349 -0.378975839 0.523447992 0.763137938 -0.497924386 0.294282912 0.815762756 -0.48529583 0.238103612 0.841305312 -0.509161238 0.134462566 0.85010273 -0.483400642 0.0855819209 0.871205805 0.445618034 -0.049829837 0.893835307 0.47829637 -0.167656049 0.862046421 -0.377592298 0.129730747 -0.91683913 -0.52435714 0.101962455 -0.845371663 -0.470207295 0.150789452 -0.869579002 -0.886964928 0.39669842 -0.236481669 -0.785678109 0.577732876 -0.221211737 -0.90241145 0.241825935 -0.356614347 -0.109261413 0.893586848 -0.435390042 -0.41432762 0.805502054 -0.4236733 -0.128145291 0.895217406 -0.426807427 -0.518589436 0.791391014 -0.323674619 -0.775674767 0.628175621 -0.0610249532 -0.638494204 0.362667388 0.678820681 -0.638494204 0.362667388 0.678820681 -0.638494197 0.362667414 0.678820674 -0.142709551 0.159159926 -0.976883873 -0.00463429272 0.126124916 -0.992003543 0.159625041 0.148998904 -0.97586842 0.183805212 0.140920996 -0.972808777 0.328839072 0.16409551 -0.930020176 0.303309616 0.185118837 -0.934737553 0.445802427 0.194971922 -0.873639597 0.403861488 0.242686612 -0.882042577 0.55560427 0.218295451 -0.802278625 0.509052389 0.29807144 -0.807476986 0.718728173 0.140178172 -0.681013871 0.637105042 0.274346498 -0.720299357 0.803195846 0.0355399033 -0.594653973 0.671529889 0.593440175 -0.443707525 0.671529889 0.593440175 -0.443707525 0.671529889 0.593440175 -0.443707525 0.981011368 0.000661403915 -0.193949114 0.982191297 0.0197923029 -0.186838219 0.958197182 -0.14632313 -0.245861144 0.976990289 0.170698733 -0.127874614 0.914753203 -0.370170982 0.161864207 0.969123146 -0.233719294 0.0785851049 0.944514278 -0.326190741 0.0386313201 0.941032242 -0.278581116 0.191965836 0.148085174 0.923565963 -0.35369011 0.120921806 0.930974133 -0.344477984 0.359404705 0.907240073 -0.218503336 0.312606726 0.927367817 -0.205586883 0.566953179 0.822783525 -0.0398919096 0.513040654 0.858016358 -0.0244380195 0.641592562 0.763993442 0.0683593824 0.589821506 0.802610501 0.0890335646 0.931535048 0.166817349 0.323132211 0.931535048 0.166817349 0.323132211 0.931535046 0.166817364 0.32313221 0.65560507 0.587122553 0.474835867 0.65560507 0.587122553 0.474835867 0.655605079 0.587122561 0.474835844 0.612037591 0.0413596513 0.789746394 0.670190874 0.179330201 0.7201978 0.751652415 -0.0542653795 0.657323297 0.555307788 0.219144412 0.802252446 0.433982466 0.0229438378 0.900629113 0.419020993 0.146798034 0.896031107 0.28444452 0.0335016522 0.958106964 0.299665983 0.145844547 0.942830667 0.142044755 0.0749590929 0.987017944 0.206871936 0.188832948 0.959971937 0.777235962 -0.525988802 0.345311512 0.811156201 -0.453898542 0.368784124 0.55287319 -0.655705149 0.514180895 0.599730368 -0.597207244 0.532603975 0.207349064 -0.711149281 0.671768611 0.268335702 -0.673815553 0.688453739 -0.148041606 -0.605719923 0.781784534 -0.185778411 -0.609837 0.770444816 -0.60866564 -0.325417218 0.723622673 -0.635435094 -0.435430222 0.637669792 -0.733285406 0.166485409 0.65922312 -0.977500125 -0.200317692 -0.0660781999 -0.987631101 -0.0855940298 -0.131371501 -0.968226012 -0.0757671293 -0.238322749 -0.896956469 0.049251636 -0.439367009 -0.832384017 0.0661583266 -0.550236243 -0.771870271 0.104662525 -0.627106083 -0.786710799 0.117953204 -0.60594815 -0.716276406 0.159931972 -0.679242133 -0.762448526 0.222641282 -0.607538562 0.0277785447 0.174099873 0.984336115 0.165642408 0.26312771 0.950434848 0.238532574 0.237325848 0.941689255 0.192934334 0.248197093 0.949302136 0.214771522 0.110100059 0.970438648 0.10475137 0.1030858 0.989141278 0.19573024 0.00269810856 0.980654064 -0.645483539 0.275599384 0.712317331 -0.698802792 0.654337905 0.288992325 -0.709410065 0.675091499 0.202456979 -0.49008021 0.866168683 -0.0978427312 -0.48997134 0.868378937 -0.07645984 -0.221801584 0.919762573 -0.323791392 -0.223254326 0.936292064 -0.2711359 -0.0711180499 0.91680742 -0.392945769 -0.0684890003 0.942512811 -0.327076227 -0.707618832 0.215590969 -0.672901272 -0.766935843 0.342722007 -0.542541278 -0.118124975 0.988141764 0.0980935532 -0.176067796 0.981169385 0.0794151635 -0.153819818 0.986920977 -0.0482332681 -0.239374345 0.96968635 -0.0490744944 0.695277699 0.427321707 0.577914423 0.76082563 0.512487409 0.398121861 0.788533551 0.4880596 0.374182663 0.816923731 0.569102045 0.0935867496 0.779312973 0.601244275 0.176569001 0.746987701 0.648173809 -0.147919193 0.757398594 0.651913812 0.0368205415 0.661050489 0.702260126 -0.264278199 -0.0372664437 0.998162191 -0.0477854935 -0.0432096173 0.992534069 0.114057224 0.0420224591 0.998771664 0.0262540504 0.00333904314 0.98463065 0.174617679 0.0712081496 0.988874203 0.130603255 0.019052448 0.966760705 0.254972043 0.0667557948 0.96988238 0.234247374 0.0158383959 0.941093393 0.337775621 0.0488066309 0.943750516 0.327036505 0.00728778046 0.909178398 0.416343043 0.0326763204 0.91272014 0.407276569 0.00588596459 0.873731891 0.486372221 0.0289852972 0.880692956 0.472799926 0.0206015654 0.841330069 0.540128958 0.0418524041 0.853627994 0.519199022 0.0505447464 0.820099655 0.569984021 0.0670368532 0.835558486 0.545296319 0.0304967359 0.859246275 0.510652316 0.715725501 0.407239031 0.567356483 0.634258865 0.350688874 0.689008712 0.667353581 0.336745893 0.66426004 0.609095396 0.286689818 0.739467205 0.667040945 0.284888625 0.68840021 0.629587945 0.241043536 0.738591249 0.712142416 0.26066232 0.651849933 0.691159586 0.222216272 0.687690596 0.782471176 0.271692364 0.560287532 0.77393676 0.237835947 0.5869037 0.84692712 0.315685992 0.427851386 0.847362682 0.285738552 0.447582356 0.87758515 0.337387821 0.340607932 0.866468478 0.379399384 0.32448187 0.842789118 0.490388664 0.221868114 0.802167441 0.570956785 0.174744805 0.746273045 0.665360395 0.0192895272 0.717843482 0.696183095 -0.00546201652 -0.00578999603 0.874967203 0.48414757 -0.0910431375 0.919958954 0.381296041 -0.0991770845 0.897244033 0.430252312 -0.156054093 0.915555943 0.370681043 -0.164740072 0.91208679 0.375444265 -0.183487315 0.915724713 0.357464201 -0.226992588 0.919379633 0.321271622 -0.186547849 0.924683468 0.331904179 -0.294032068 0.915401523 0.274927617 -0.20514606 0.937533978 0.280971767 -0.362624199 0.899859849 0.242396251 -0.274476558 0.935788395 0.221275166 -0.427375193 0.87587749 0.224029166 -0.366836278 0.911891456 0.18407911 -0.485897283 0.846618551 0.21711946 -0.451285663 0.875764912 0.171397404 -0.537999392 0.813961685 0.219141573 -0.521869357 0.834875934 0.17502728 0.586968013 0.778613459 -0.221877518 0.577601775 0.783878843 -0.227837989 0.347192848 0.820120679 -0.454817764 0.359212635 0.816522772 -0.451947835 0.0525435276 0.780939687 -0.622392467 0.0814975655 0.778615659 -0.622186308 -0.238873777 0.677756183 -0.69540339 -0.202538383 0.679780773 -0.704894534 -0.481830631 0.543399756 -0.68742705 -0.4468942 0.548151137 -0.706976594 -0.664139569 0.403795451 -0.629180313 -0.635302438 0.408590593 -0.655320181 -0.793103388 0.271403429 -0.545277172 -0.771471996 0.274430013 -0.574037566 -0.836821266 0.207438903 -0.506654982 -0.819303094 0.207697376 -0.534419536 -0.561247751 0.799977877 0.212217713 -0.552814717 0.816103391 0.16843736 -0.896094361 0.421027204 0.140538212 -0.89932506 0.389144802 0.199451146 -0.787151567 0.614340836 0.0545687409 -0.735560301 0.674278441 0.0655715542 0.337576486 -0.0287624288 0.940858565 0.374603156 0.0804826849 0.92368556 0.355651136 0.378274824 0.854646375 0.390844231 0.470262653 0.791260908 0.377031114 0.549092407 0.745885425 -0.387421943 -0.153466764 0.909039158 -0.387421968 -0.153466777 0.909039145 -0.387421943 -0.153466779 0.909039156 -0.113898151 0.75409085 0.646818522 -0.0320653058 0.772923469 0.633688509 -0.026653601 0.77397055 0.632660393 0.0610889985 0.787531026 0.613239771 -0.934217437 0.152968374 0.322239751 -0.419522857 0.825060438 0.37851796 -0.419522857 0.825060438 0.37851796 -0.419522817 0.825060476 0.378517921 -0.5222709 -0.0768249158 0.849312098 -0.566817713 -0.167583216 0.806618588 -0.505708209 -0.395979606 0.766458974 -0.515084081 -0.444822425 0.732680967 -0.300776086 -0.734750133 0.608009859 -0.301173429 -0.727444971 0.616537412 -0.0655951958 -0.89386268 0.443516381 -0.0679106572 -0.883770358 0.462966627 0.205970693 -0.953682317 0.219239849 0.202139279 -0.94822475 0.244968436 0.349284501 -0.932728592 0.089541674 0.348605414 -0.930441175 0.11293133 0.687580758 -0.626072103 -0.367785838 0.693920851 -0.635193825 -0.339120418 0.693554561 -0.634656948 -0.340870401 0.69914406 -0.643008883 -0.312629429 0.775093752 -0.117348875 -0.620853378 0.788017228 -0.128581169 -0.602076184 0.727582174 0.0810724069 -0.681213216 0.747198576 0.0649908403 -0.661415512 0.546965228 0.416118373 -0.7264121 0.572535393 0.406283585 -0.712135431 0.454295705 -0.186992486 0.87100472 0.451950871 -0.17155045 0.875391828 0.581288562 -0.252777392 0.773438555 0.571553482 -0.229293158 0.787877697 0.719126643 -0.25344649 0.647009851 0.698381058 -0.234338907 0.67627596 0.887119632 -0.136710402 0.440827658 0.848311365 -0.147076234 0.50866139 0.950241453 0.122025319 0.286619963 0.936921815 0.111099233 0.331412845 0.872126713 0.445071466 0.203239727 0.876555604 0.421247295 0.232811059 0.70990045 0.677999984 0.190676096 0.72534367 0.654251896 0.214081801 0.536568832 0.811026888 0.233086412 0.558827173 0.790763752 0.249809687 0.36023634 0.881007773 0.306684011 0.38834721 0.865097645 0.31747836 0.328674051 0.637485272 -0.696839936 0.355883717 0.634073376 -0.686511277 0.08384317 0.782721862 -0.616698313 0.111110217 0.785062666 -0.609369453 -0.205506847 0.853507402 -0.478844495 -0.179708469 0.86190547 -0.474155911 -0.519138334 0.80997729 -0.272822617 -0.509143125 0.816656964 -0.27174378 -0.753034487 0.652857853 -0.0819492877 -0.80855238 0.577049014 -0.115141145 -0.952951646 0.276938014 -0.123241623 -0.972554155 0.0687896242 -0.222275512 -0.960150866 -0.0557900124 -0.273857244 -0.878684203 -0.249399388 -0.407079866 -0.892158344 -0.197252232 -0.406380421 -0.835227298 -0.273885782 -0.476845823 -0.877929734 -0.215558392 -0.427520716 -0.891471849 -0.218606633 -0.396848941 0.171242594 0.894654328 0.41263738 0.204785745 0.885499578 0.417077086 0.000360278058 0.839205431 0.543814412 0.016209023 0.838481424 0.544689058 -0.107521484 0.769046563 0.630084529 -0.199614666 0.752559932 0.627540863 -0.482897461 0.551322461 0.680333437 -0.616374441 0.45552454 0.64232386 -0.691823013 0.281398389 0.664978094 -0.769347719 0.191826967 0.609349244 -0.716344951 -0.390497773 0.578239916 -0.725369204 -0.412457519 0.551106444 -0.724403442 -0.410019785 0.554187179 -0.733635167 -0.434394884 0.522571073 -0.502245368 -0.836450699 0.219316707 -0.500959705 -0.834305186 0.230161314 -0.421885579 -0.902529953 0.0863263754 -0.422503298 -0.900740873 0.100781166 -0.330732645 -0.942519312 -0.0476787466 -0.32887876 -0.943598984 -0.0382062755 -0.885177257 -0.223567591 -0.408018083 -0.892404618 -0.23428242 -0.385649771</float_array>
        <technique_common><accessor source="#vfx_kurp_0475-mesh-normals-array" count="368" stride="3"><param name="X" type="float"/><param name="Y" type="float"/><param name="Z" type="float"/></accessor></technique_common>
      </source>
      <source id="vfx_kurp_0475-mesh-uv0">
        <float_array id="vfx_kurp_0475-mesh-uv0-array" count="736">1 0.0500000119 1 0 0.5 0.0500000119 0.5 0 0.5 0.149999976 0.5 0.0999999642 0 0.149999976 0 0.0999999642 0.5 0.0500000119 0 0.0500000119 0.5 0 0 0 0.5 0.0999999642 1 0.0999999642 0.5 0.149999976 1 0.149999976 0.5 0.199999988 1 0.199999988 0.5 0.25 1 0.25 0.5 0.300000012 1 0.300000012 0.5 0.349999964 1 0.349999964 0.5 0.399999976 1 0.399999976 0.5 0.449999988 1 0.449999988 0.5 0.5 1 0.5 0 0.199999988 0.5 0.199999988 0 0.25 0.5 0.25 0 0.300000012 0.5 0.300000012 0 0.349999964 0.5 0.349999964 0 0.399999976 0.5 0.399999976 0 0.449999988 0.5 0.449999988 0 0.5 0.5 0.5 0 0.549999952 0.5 0.549999952 0 0.600000024 0.5 0.600000024 0.5 0.549999952 1 0.549999952 0.5 0.600000024 1 0.600000024 0.5 0.649999976 1 0.649999976 0.5 0.699999988 1 0.699999988 0.5 0.75 1 0.75 0.5 0.800000012 1 0.800000012 0.5 0.850000024 1 0.850000024 0.5 0.899999976 1 0.899999976 0.5 0.949999988 1 0.949999988 0 0.649999976 0.5 0.649999976 0 0.699999988 0.5 0.699999988 0 0.75 0.5 0.75 0 0.800000012 0.5 0.800000012 0 0.850000024 0.5 0.850000024 0 0.899999976 0.5 0.899999976 0 0.949999988 0.5 0.949999988 0 1 0.5 1 0.5 1 1 1 1 0.0500000119 1 0 0.5 0.0500000119 0.5 0 0.5 0.0500000119 1 0 0.5 0.149999976 0.5 0.0999999642 0 0.149999976 0 0.0999999642 0 0.0500000119 0 0.0500000119 0.5 0 0 0 0.5 0.0999999642 1 0.0999999642 0.5 0.149999976 1 0.149999976 0.5 0.199999988 1 0.199999988 0.5 0.25 1 0.25 0.5 0.300000012 1 0.300000012 0.5 0.349999964 1 0.349999964 0.5 0.399999976 1 0.349999964 0.5 0.399999976 1 0.399999976 0.5 0.449999988 1 0.399999976 0.5 0.399999976 1 0.449999988 0.5 0.5 1 0.449999988 0.5 0.449999988 1 0.5 0 0.199999988 0.5 0.199999988 0 0.25 0.5 0.25 0 0.300000012 0.5 0.300000012 0 0.349999964 0.5 0.349999964 0 0.399999976 0.5 0.349999964 0 0.349999964 0.5 0.349999964 0 0.399999976 0.5 0.399999976 0 0.449999988 0.5 0.399999976 0 0.399999976 0.5 0.449999988 0 0.5 0.5 0.5 0 0.549999952 0.5 0.549999952 0 0.600000024 0.5 0.600000024 0.5 0.549999952 1 0.549999952 0.5 0.600000024 1 0.600000024 0.5 0.649999976 1 0.649999976 0.5 0.699999988 1 0.699999988 0.5 0.75 1 0.75 0.5 0.800000012 1 0.75 0.5 0.800000012 1 0.800000012 0.5 0.850000024 1 0.850000024 0.5 0.899999976 1 0.899999976 0.5 0.949999988 1 0.949999988 0 0.649999976 0.5 0.649999976 0 0.699999988 0.5 0.699999988 0 0.75 0.5 0.75 0 0.800000012 0 0.800000012 0 0.850000024 0.5 0.850000024 0 0.899999976 0.5 0.899999976 0 0.949999988 0.5 0.949999988 0 1 0.5 1 0.5 1 1 1 1 0.0500000119 1 0 0.5 0.0500000119 0.5 0 0.5 0.149999976 0.5 0.0999999642 0 0.149999976 0 0.0999999642 0.5 0.0500000119 0 0.0500000119 0.5 0 0 0 0.5 0.0999999642 1 0.0999999642 0.5 0.149999976 1 0.149999976 0.5 0.199999988 1 0.199999988 0.5 0.25 1 0.25 0.5 0.300000012 1 0.300000012 0.5 0.349999964 1 0.349999964 0.5 0.399999976 1 0.399999976 0.5 0.449999988 1 0.449999988 0.5 0.5 1 0.5 0 0.199999988 0.5 0.199999988 0 0.25 0.5 0.25 0 0.300000012 0.5 0.300000012 0 0.349999964 0.5 0.349999964 0 0.399999976 0.5 0.399999976 0 0.449999988 0.5 0.449999988 0 0.5 0.5 0.5 0 0.549999952 0.5 0.549999952 0 0.600000024 0.5 0.600000024 0.5 0.549999952 1 0.549999952 0.5 0.600000024 1 0.600000024 0.5 0.649999976 1 0.649999976 0.5 0.699999988 1 0.699999988 0.5 0.75 1 0.75 0.5 0.800000012 1 0.800000012 0.5 0.850000024 1 0.850000024 0.5 0.899999976 1 0.899999976 0.5 0.949999988 1 0.949999988 0 0.649999976 0.5 0.649999976 0 0.699999988 0.5 0.699999988 0 0.75 0.5 0.75 0 0.800000012 0.5 0.800000012 0 0.850000024 0.5 0.850000024 0 0.899999976 0.5 0.899999976 0 0.949999988 0.5 0.949999988 0 1 0.5 1 0.5 1 1 1 1 0.0500000119 0.5 0.0500000119 1 0 0.5 0 0.5 0.149999976 0 0.149999976 0.5 0.0999999642 0 0.0999999642 0.5 0.0500000119 0 0.0500000119 0.5 0.0500000119 0 0.0999999642 0.5 0.0500000119 0 0.0500000119 0.5 0 0 0 0.5 0.0999999642 1 0.0999999642 0.5 0.0999999642 1 0.0500000119 0.5 0.0999999642 1 0.0999999642 0.5 0.149999976 1 0.149999976 0.5 0.199999988 1 0.199999988 0.5 0.25 1 0.25 0.5 0.300000012 1 0.300000012 0.5 0.349999964 1 0.349999964 0.5 0.349999964 1 0.349999964 0.5 0.399999976 1 0.399999976 0.5 0.399999976 1 0.399999976 0.5 0.449999988 1 0.449999988 0.5 0.5 1 0.5 0 0.199999988 0.5 0.199999988 0 0.25 0.5 0.25 0 0.300000012 0.5 0.300000012 0 0.349999964 0.5 0.349999964 0 0.399999976 0.5 0.399999976 0 0.449999988 0.5 0.449999988 0 0.5 0.5 0.5 0 0.549999952 0.5 0.549999952 0 0.600000024 0.5 0.600000024 0.5 0.549999952 1 0.549999952 0.5 0.600000024 1 0.600000024 0.5 0.649999976 1 0.649999976 0.5 0.699999988 1 0.699999988 0.5 0.75 1 0.75 0.5 0.800000012 1 0.800000012 0.5 0.850000024 1 0.850000024 0.5 0.899999976 1 0.899999976 0.5 0.949999988 1 0.949999988 0 0.649999976 0.5 0.649999976 0 0.699999988 0.5 0.699999988 0 0.75 0.5 0.75 0 0.800000012 0.5 0.800000012 0 0.850000024 0.5 0.850000024 0 0.850000024 0.5 0.850000024 0 0.899999976 0.5 0.899999976 0 0.899999976 0.5 0.899999976 0 0.949999988 0.5 0.949999988 0 1 0.5 1 0.5 1 1 1</float_array>
        <technique_common><accessor source="#vfx_kurp_0475-mesh-uv0-array" count="368" stride="2"><param name="S" type="float"/><param name="T" type="float"/></accessor></technique_common>
      </source>
      <vertices id="vfx_kurp_0475-mesh-vertices"><input semantic="POSITION" source="#vfx_kurp_0475-mesh-positions"/></vertices>
      <triangles material="PreviewMaterial" count="320">
        <input semantic="VERTEX" source="#vfx_kurp_0475-mesh-vertices" offset="0"/>
        <input semantic="NORMAL" source="#vfx_kurp_0475-mesh-normals" offset="1"/>
        <input semantic="TEXCOORD" source="#vfx_kurp_0475-mesh-uv0" offset="2" set="0"/>
        <p>0 0 0 1 1 1 2 2 2 3 3 3 2 2 2 1 1 1 4 4 4 5 5 5 6 6 6 6 6 6 5 5 5 7 7 7 8 8 8 7 7 7 5 5 5 7 7 7 8 8 8 9 9 9 10 10 10 9 9 9 8 8 8 9 9 9 10 10 10 11 11 11 12 12 12 0 0 0 2 2 2 0 0 0 12 12 12 13 13 13 14 14 14 13 13 13 12 12 12 13 13 13 14 14 14 15 15 15 16 16 16 15 15 15 14 14 14 15 15 15 16 16 16 17 17 17 18 18 18 17 17 17 16 16 16 17 17 17 18 18 18 19 19 19 20 20 20 19 19 19 18 18 18 19 19 19 20 20 20 21 21 21 22 22 22 21 21 21 20 20 20 21 21 21 22 22 22 23 23 23 24 24 24 23 23 23 22 22 22 23 23 23 24 24 24 25 25 25 26 26 26 25 25 25 24 24 24 25 25 25 26 26 26 27 27 27 28 28 28 27 27 27 26 26 26 29 29 29 27 27 27 28 28 28 30 30 30 4 4 4 6 6 6 4 4 4 30 30 30 31 31 31 32 32 32 31 31 31 30 30 30 31 31 31 32 32 32 33 33 33 34 34 34 33 33 33 32 32 32 33 33 33 34 34 34 35 35 35 36 36 36 35 35 35 34 34 34 35 35 35 36 36 36 37 37 37 38 38 38 37 37 37 36 36 36 37 37 37 38 38 38 39 39 39 40 40 40 39 39 39 38 38 38 39 39 39 40 40 40 41 41 41 42 42 42 41 41 41 40 40 40 41 41 41 42 42 42 43 43 43 44 44 44 43 43 43 42 42 42 43 43 43 44 44 44 45 45 45 46 46 46 45 45 45 44 44 44 47 47 47 45 45 45 46 46 46 48 48 48 29 29 29 28 28 28 29 29 29 48 48 48 49 49 49 50 50 50 49 49 49 48 48 48 49 49 49 50 50 50 51 51 51 52 52 52 51 51 51 50 50 50 51 51 51 52 52 52 53 53 53 54 54 54 53 53 53 52 52 52 53 53 53 54 54 54 55 55 55 56 56 56 55 55 55 54 54 54 55 55 55 56 56 56 57 57 57 58 58 58 57 57 57 56 56 56 57 57 57 58 58 58 59 59 59 60 60 60 59 59 59 58 58 58 59 59 59 60 60 60 61 61 61 62 62 62 61 61 61 60 60 60 61 61 61 62 62 62 63 63 63 64 64 64 63 63 63 62 62 62 65 65 65 63 63 63 64 64 64 66 66 66 47 47 47 46 46 46 47 47 47 66 66 66 67 67 67 68 68 68 67 67 67 66 66 66 67 67 67 68 68 68 69 69 69 70 70 70 69 69 69 68 68 68 69 69 69 70 70 70 71 71 71 72 72 72 71 71 71 70 70 70 71 71 71 72 72 72 73 73 73 74 74 74 73 73 73 72 72 72 73 73 73 74 74 74 75 75 75 76 76 76 75 75 75 74 74 74 75 75 75 76 76 76 77 77 77 78 78 78 77 77 77 76 76 76 77 77 77 78 78 78 79 79 79 80 80 80 79 79 79 78 78 78 81 81 81 79 79 79 80 80 80 64 64 64 82 82 82 65 65 65 83 83 83 65 65 65 82 82 82 84 84 84 85 85 85 86 86 86 87 87 87 88 88 88 89 89 89 90 90 90 91 91 91 92 92 92 92 92 92 91 91 91 93 93 93 88 88 88 93 93 93 91 91 91 93 93 93 88 88 88 94 94 94 87 87 87 94 94 94 88 88 88 95 95 95 96 96 96 97 97 97 98 98 98 84 84 84 86 86 86 84 84 84 98 98 98 99 99 99 100 100 100 99 99 99 98 98 98 99 99 99 100 100 100 101 101 101 102 102 102 101 101 101 100 100 100 101 101 101 102 102 102 103 103 103 104 104 104 103 103 103 102 102 102 103 103 103 104 104 104 105 105 105 106 106 106 105 105 105 104 104 104 105 105 105 106 106 106 107 107 107 108 108 108 107 107 107 106 106 106 107 107 107 108 108 108 109 109 109 110 110 110 109 109 109 108 108 108 111 111 111 112 112 112 113 113 113 114 114 114 115 115 115 116 116 116 115 115 115 114 114 114 117 117 117 118 118 118 119 119 119 120 120 120 121 121 121 119 119 119 118 118 118 122 122 122 90 90 90 92 92 92 90 90 90 122 122 122 123 123 123 124 124 124 123 123 123 122 122 122 123 123 123 124 124 124 125 125 125 126 126 126 125 125 125 124 124 124 125 125 125 126 126 126 127 127 127 128 128 128 127 127 127 126 126 126 127 127 127 128 128 128 129 129 129 130 130 130 131 131 131 132 132 132 133 133 133 134 134 134 135 135 135 136 136 136 137 137 137 138 138 138 137 137 137 136 136 136 139 139 139 140 140 140 139 139 139 136 136 136 139 139 139 140 140 140 141 141 141 142 142 142 141 141 141 140 140 140 141 141 141 142 142 142 143 143 143 144 144 144 143 143 143 142 142 142 145 145 145 143 143 143 144 144 144 146 146 146 121 121 121 118 118 118 121 121 121 146 146 146 147 147 147 148 148 148 147 147 147 146 146 146 147 147 147 148 148 148 149 149 149 150 150 150 149 149 149 148 148 148 149 149 149 150 150 150 151 151 151 152 152 152 151 151 151 150 150 150 151 151 151 152 152 152 153 153 153 154 154 154 153 153 153 152 152 152 153 153 153 154 154 154 155 155 155 156 156 156 155 155 155 154 154 154 157 157 157 158 158 158 159 159 159 160 160 160 159 159 159 158 158 158 159 159 159 160 160 160 161 161 161 162 162 162 161 161 161 160 160 160 161 161 161 162 162 162 163 163 163 164 164 164 163 163 163 162 162 162 165 165 165 163 163 163 164 164 164 166 166 166 145 145 145 144 144 144 145 145 145 166 166 166 167 167 167 168 168 168 167 167 167 166 166 166 167 167 167 168 168 168 169 169 169 170 170 170 169 169 169 168 168 168 169 169 169 170 170 170 171 171 171 172 172 172 171 171 171 170 170 170 154 154 154 173 173 173 156 156 156 174 174 174 156 156 156 173 173 173 156 156 156 174 174 174 175 175 175 176 176 176 175 175 175 174 174 174 175 175 175 176 176 176 177 177 177 178 178 178 177 177 177 176 176 176 177 177 177 178 178 178 179 179 179 180 180 180 179 179 179 178 178 178 181 181 181 179 179 179 180 180 180 164 164 164 182 182 182 165 165 165 183 183 183 165 165 165 182 182 182 184 184 184 185 185 185 186 186 186 187 187 187 186 186 186 185 185 185 188 188 188 189 189 189 190 190 190 190 190 190 189 189 189 191 191 191 192 192 192 191 191 191 189 189 189 191 191 191 192 192 192 193 193 193 194 194 194 193 193 193 192 192 192 193 193 193 194 194 194 195 195 195 196 196 196 184 184 184 186 186 186 184 184 184 196 196 196 197 197 197 198 198 198 197 197 197 196 196 196 197 197 197 198 198 198 199 199 199 200 200 200 199 199 199 198 198 198 199 199 199 200 200 200 201 201 201 202 202 202 201 201 201 200 200 200 201 201 201 202 202 202 203 203 203 204 204 204 203 203 203 202 202 202 203 203 203 204 204 204 205 205 205 206 206 206 205 205 205 204 204 204 205 205 205 206 206 206 207 207 207 208 208 208 207 207 207 206 206 206 207 207 207 208 208 208 209 209 209 210 210 210 209 209 209 208 208 208 209 209 209 210 210 210 211 211 211 212 212 212 211 211 211 210 210 210 213 213 213 211 211 211 212 212 212 214 214 214 188 188 188 190 190 190 188 188 188 214 214 214 215 215 215 216 216 216 215 215 215 214 214 214 215 215 215 216 216 216 217 217 217 218 218 218 217 217 217 216 216 216 217 217 217 218 218 218 219 219 219 220 220 220 219 219 219 218 218 218 219 219 219 220 220 220 221 221 221 222 222 222 221 221 221 220 220 220 221 221 221 222 222 222 223 223 223 224 224 224 223 223 223 222 222 222 223 223 223 224 224 224 225 225 225 226 226 226 225 225 225 224 224 224 225 225 225 226 226 226 227 227 227 228 228 228 227 227 227 226 226 226 227 227 227 228 228 228 229 229 229 230 230 230 229 229 229 228 228 228 231 231 231 229 229 229 230 230 230 232 232 232 213 213 213 212 212 212 213 213 213 232 232 232 233 233 233 234 234 234 233 233 233 232 232 232 233 233 233 234 234 234 235 235 235 236 236 236 235 235 235 234 234 234 235 235 235 236 236 236 237 237 237 238 238 238 237 237 237 236 236 236 237 237 237 238 238 238 239 239 239 240 240 240 239 239 239 238 238 238 239 239 239 240 240 240 241 241 241 242 242 242 241 241 241 240 240 240 241 241 241 242 242 242 243 243 243 244 244 244 243 243 243 242 242 242 243 243 243 244 244 244 245 245 245 246 246 246 245 245 245 244 244 244 245 245 245 246 246 246 247 247 247 248 248 248 247 247 247 246 246 246 249 249 249 247 247 247 248 248 248 250 250 250 231 231 231 230 230 230 231 231 231 250 250 250 251 251 251 252 252 252 251 251 251 250 250 250 251 251 251 252 252 252 253 253 253 254 254 254 253 253 253 252 252 252 253 253 253 254 254 254 255 255 255 256 256 256 255 255 255 254 254 254 255 255 255 256 256 256 257 257 257 258 258 258 257 257 257 256 256 256 257 257 257 258 258 258 259 259 259 260 260 260 259 259 259 258 258 258 259 259 259 260 260 260 261 261 261 262 262 262 261 261 261 260 260 260 261 261 261 262 262 262 263 263 263 264 264 264 263 263 263 262 262 262 265 265 265 263 263 263 264 264 264 248 248 248 266 266 266 249 249 249 267 267 267 249 249 249 266 266 266 268 268 268 269 269 269 270 270 270 271 271 271 270 270 270 269 269 269 272 272 272 273 273 273 274 274 274 275 275 275 274 274 274 273 273 273 274 274 274 275 275 275 276 276 276 277 277 277 278 278 278 279 279 279 280 280 280 281 281 281 282 282 282 283 283 283 282 282 282 281 281 281 269 269 269 268 268 268 284 284 284 285 285 285 286 286 286 287 287 287 288 288 288 289 289 289 290 290 290 291 291 291 290 290 290 289 289 289 290 290 290 291 291 291 292 292 292 293 293 293 292 292 292 291 291 291 292 292 292 293 293 293 294 294 294 295 295 295 294 294 294 293 293 293 294 294 294 295 295 295 296 296 296 297 297 297 296 296 296 295 295 295 296 296 296 297 297 297 298 298 298 299 299 299 298 298 298 297 297 297 300 300 300 301 301 301 302 302 302 303 303 303 302 302 302 301 301 301 304 304 304 305 305 305 306 306 306 307 307 307 306 306 306 305 305 305 306 306 306 307 307 307 308 308 308 309 309 309 308 308 308 307 307 307 273 273 273 272 272 272 310 310 310 311 311 311 310 310 310 272 272 272 310 310 310 311 311 311 312 312 312 313 313 313 312 312 312 311 311 311 312 312 312 313 313 313 314 314 314 315 315 315 314 314 314 313 313 313 314 314 314 315 315 315 316 316 316 317 317 317 316 316 316 315 315 315 316 316 316 317 317 317 318 318 318 319 319 319 318 318 318 317 317 317 318 318 318 319 319 319 320 320 320 321 321 321 320 320 320 319 319 319 320 320 320 321 321 321 322 322 322 323 323 323 322 322 322 321 321 321 322 322 322 323 323 323 324 324 324 325 325 325 324 324 324 323 323 323 324 324 324 325 325 325 326 326 326 327 327 327 326 326 326 325 325 325 308 308 308 309 309 309 328 328 328 329 329 329 328 328 328 309 309 309 328 328 328 329 329 329 330 330 330 331 331 331 330 330 330 329 329 329 330 330 330 331 331 331 332 332 332 333 333 333 332 332 332 331 331 331 332 332 332 333 333 333 334 334 334 335 335 335 334 334 334 333 333 333 334 334 334 335 335 335 336 336 336 337 337 337 336 336 336 335 335 335 336 336 336 337 337 337 338 338 338 339 339 339 338 338 338 337 337 337 338 338 338 339 339 339 340 340 340 341 341 341 340 340 340 339 339 339 340 340 340 341 341 341 342 342 342 343 343 343 342 342 342 341 341 341 342 342 342 343 343 343 344 344 344 345 345 345 344 344 344 343 343 343 326 326 326 327 327 327 346 346 346 347 347 347 346 346 346 327 327 327 346 346 346 347 347 347 348 348 348 349 349 349 348 348 348 347 347 347 348 348 348 349 349 349 350 350 350 351 351 351 350 350 350 349 349 349 350 350 350 351 351 351 352 352 352 353 353 353 352 352 352 351 351 351 352 352 352 353 353 353 354 354 354 355 355 355 354 354 354 353 353 353 356 356 356 357 357 357 358 358 358 359 359 359 358 358 358 357 357 357 360 360 360 361 361 361 362 362 362 363 363 363 362 362 362 361 361 361 362 362 362 363 363 363 364 364 364 364 364 364 363 363 363 365 365 365 345 345 345 366 366 366 344 344 344 367 367 367 366 366 366 345 345 345</p>
      </triangles>
    </mesh></geometry>
  </library_geometries>
  <library_visual_scenes>
    <visual_scene id="Scene" name="Scene">
      <node id="vfx_kurp_0475" name="vfx_kurp_0475" type="NODE">
        <instance_geometry url="#vfx_kurp_0475-mesh"><bind_material><technique_common><instance_material symbol="PreviewMaterial" target="#PreviewMaterial"><bind_vertex_input semantic="UVSET0" input_semantic="TEXCOORD" input_set="0"/></instance_material></technique_common></bind_material></instance_geometry>
      </node>
    </visual_scene>
  </library_visual_scenes>
  <scene><instance_visual_scene url="#Scene"/></scene>
</COLLADA>
