<?xml version="1.0" encoding="utf-8"?>
<COLLADA xmlns="http://www.collada.org/2005/11/COLLADASchema" version="1.4.1">
  <asset>
    <contributor><authoring_tool>Morrobroom Kurpulio VFX preview converter</authoring_tool></contributor>
    <unit name="unit" meter="1"/>
    <up_axis>Z_UP</up_axis>
  </asset>
  <library_images>
    <image id="VFXTexture" name="darkmap_newgen-1.dds">
      <init_from>../../../Textures/Kurp/darkmap_newgen-1.dds</init_from>
    </image>
  </library_images>
  <library_effects>
    <effect id="PreviewEffect">
      <profile_COMMON>
        <newparam sid="VFXTexture-surface">
          <surface type="2D"><init_from>VFXTexture</init_from></surface>
        </newparam>
        <newparam sid="VFXTexture-sampler">
          <sampler2D><source>VFXTexture-surface</source></sampler2D>
        </newparam>
        <technique sid="common"><phong>
          <emission><color>0.08 0.08 0.08 1</color></emission>
          <ambient><color>0.2 0.2 0.2 1</color></ambient>
          <diffuse><texture texture="VFXTexture-sampler" texcoord="UVSET0"/></diffuse>
          <specular><color>0.15 0.15 0.15 1</color></specular>
          <shininess><float>8</float></shininess>
          <transparent opaque="A_ONE"><texture texture="VFXTexture-sampler" texcoord="UVSET0"/></transparent>
          <transparency><float>1</float></transparency>
        </phong></technique>
      </profile_COMMON>
      <extra><technique profile="GOOGLEEARTH"><double_sided>1</double_sided></technique></extra>
    </effect>
  </library_effects>
  <library_materials><material id="PreviewMaterial" name="PreviewMaterial"><instance_effect url="#PreviewEffect"/></material></library_materials>
  <library_geometries>
    <geometry id="vfx_kurp_0279-mesh" name="vfx_kurp_0279"><mesh>
      <source id="vfx_kurp_0279-mesh-positions">
        <float_array id="vfx_kurp_0279-mesh-positions-array" count="405">1.32012212 2.08147144 5.59170806 0.87761271 1.20658422 3.13724434 0.41932413 2.39647293 4.79928517 0.253954388 1.37622169 2.52873856 -0.630109727 2.30763692 3.8797785 -0.35818027 1.28875655 1.91840011 -1.5241574 1.78648227 2.90849054 -0.855235487 0.966779977 1.29535639 -2.02951527 1.06767431 2.01369309 -1.16077825 0.498707503 0.658723041 -2.19882649 0.129323859 0.940905333 -1.2411595 -0.0268693361 4.26606982e-06 -0.766884059 0.213596776 -2.67278409 -0.693763465 0.584819555 -2.0849542 -0.435890079 0.949974239 -1.45643297 0.0065485239 1.20918095 -0.798847765 0.601500571 1.27815101 -0.0916371569 1.2127423 1.08984581 0.615158021 1.7958827 0.591363743 1.42340273 1.40302277 0.782251507 3.75303841 2.14622694 -0.10627614 2.21479136 1.72223246 0.160377983 4.38170636 2.19590789 -1.05097005 3.15289021 1.77374572 -0.562395707 5.02956069 1.81592828 -2.02432036 4.1672684 1.51845843 -1.26563206 5.69943845 2.0912531 1.36491627 6.44330621 2.47429347 0.488597095 7.20505428 2.46369982 -0.515264645 8.00674939 2.0656262 -1.3787173 8.77031851 0.987482876 -1.8235513 6.39012623 1.3969388 -1.96440786 9.48698044 0.257338308 -2.13331246 7.09608221 0.583616227 -2.20884705 10.1728842 -0.558120936 -2.10797507 7.8129487 -0.190175056 -2.11789834 10.7956767 -1.31523201 -1.74744558 8.53119636 -0.856434256 -1.70565677 11.409452 -1.87305665 -1.09196243 9.2400341 -1.22639805 -1.15397412 11.9134133 1.11381608 -2.73462296 5.11520469 -0.013540417 -3.17766452 6.2402451 -1.30552572 -3.09104097 7.40149927 -2.35405809 -2.53397566 8.4200027 -3.2281158 -1.41119707 9.58196282 1.17132327 -2.19226474 5.59170485 0.64863342 -1.37554246 3.13724291 1.89879638 -1.57088006 4.79927874 1.11099941 -0.921299547 2.52873462 2.35172939 -0.619106457 3.87976992 1.34504387 -0.348514192 1.91839457 2.35307658 0.414112017 2.90848178 1.31862527 0.24181775 1.29535022 1.98866165 1.20961234 2.01368308 1.07010949 0.739290744 0.658717588 1.26741922 1.82348013 0.940897733 0.65945448 1.07045057 1.00579913e-06 0.649141073 0.534144178 -2.67278802 0.929838538 0.286423601 -2.08495939 1.11270162 -0.118203554 -1.45643878 1.11142418 -0.629664883 -0.798852682 0.868913144 -1.17802387 -0.09163999 0.395572364 -1.61188745 0.615158021 -0.332860641 -1.8661775 1.42340541 0.0148665416 -1.61736578 3.75303769 -1.1171135 -1.819354 2.21479744 -0.686858118 -1.58184922 4.3817085 -1.96570605 -1.38841608 3.15289986 -1.34212616 -1.26404715 5.02956569 -2.62450719 -0.570988387 4.16727841 -1.82709163 -0.690313295 5.69944525 0.160773542 -2.50053281 6.44330478 -0.793477178 -2.39299947 7.20505571 -1.66141731 -1.88078249 8.00675368 -2.21369219 -1.10329708 8.77032566 -2.04836351 0.0495159253 6.39013124 -2.38976848 -0.230432086 9.48698831 -1.95510149 0.837740421 7.09608579 -2.19774252 0.596992314 10.1728899 -1.52891171 1.53228092 7.812953 -1.73466039 1.22238046 10.7956789 -0.841495782 2.00866199 8.53119493 -1.046969 1.59396189 11.4094555 0.00187871541 2.16493034 9.24003196 -0.386160895 1.63907558 11.9134119 -2.89383066 0.393715873 5.11521327 -2.71977907 1.59326434 6.24025011 -2.00458521 2.67051548 7.40150213 -1.00272381 3.30142844 8.42000198 0.401440188 3.49849391 9.5819571 -2.45544165 0.0734668672 5.5917145 -1.47306418 0.113822747 3.13724828 -2.27676737 -0.868464947 4.7992866 -1.30723563 -0.514761463 2.52873963 -1.67382449 -1.73808271 3.87977672 -0.924485743 -1.00491419 1.91839832 -0.774046093 -2.25748497 2.90848428 -0.396139696 -1.27832007 1.29535103 0.102496874 -2.34119743 2.01368308 0.163016595 -1.31300569 0.658716738 1.00147891 -2.02545261 0.940891653 0.659452692 -1.12418827 -3.34122865e-06 0.21873153 -0.852442503 -2.67279035 -0.140380528 -0.970457643 -2.08495903 -0.586663082 -0.92523399 -1.45643565 -1.03350109 -0.667092428 -0.798847765 -1.39190331 -0.18152225 -0.0916325971 -1.53561276 0.446669519 0.615165576 -1.39678261 1.20614004 1.4234114 -1.36918482 0.784622312 3.75304484 -0.969011307 1.8633213 2.21480316 -0.991125494 1.37559888 4.38171279 -0.177134871 2.3843708 3.15289986 -0.391837746 1.78520215 5.02956748 0.854334533 2.54787344 4.16727448 0.343925178 1.91935784 5.69944239 -2.2215634 1.10403621 6.44331408 -1.65512663 1.87777197 7.2050643 -0.781430483 2.37443215 8.00675511 0.164489809 2.46499085 8.77032566 1.09168419 1.74210101 6.39012837 1.00525296 2.18196255 9.4869833 1.72412628 1.26824185 7.09608221 1.62286502 1.60279942 10.1728857 2.1090374 0.552881598 7.81294584 1.93034953 0.889803439 10.7956753 2.17452031 -0.279659897 8.53118992 1.90585148 0.10915957 11.4094491 1.88496155 -1.08725756 9.24002624 1.61257356 -0.485115543 11.9134097 1.8192147 2.30026817 5.11520827 2.76508516 1.55146837 6.24024153 3.33459663 0.395138606 7.4014914 3.37521458 -0.786563337 8.41999125 2.83857733 -2.09963804 9.58194852</float_array>
        <technique_common><accessor source="#vfx_kurp_0279-mesh-positions-array" count="135" stride="3"><param name="X" type="float"/><param name="Y" type="float"/><param name="Z" type="float"/></accessor></technique_common>
      </source>
      <source id="vfx_kurp_0279-mesh-normals">
        <float_array id="vfx_kurp_0279-mesh-normals-array" count="405">0.746807337 0.574776829 -0.334530115 0.591887472 0.785976288 -0.17863509 0.498513899 0.77804135 -0.382276797 0.278610088 0.93382236 -0.224393001 0.205043589 0.879957995 -0.428521941 -0.0558302702 0.960992278 -0.270881564 -0.0772273563 0.874052372 -0.479654446 -0.361171219 0.876887807 -0.317211482 -0.28623176 0.799230644 -0.528490073 -0.60063346 0.712820371 -0.362114023 -0.408690985 0.724150114 -0.555498237 -0.828100741 0.484805494 -0.281447679 -0.91494406 0.382772687 -0.127915741 -0.882371232 0.45366358 -0.124941444 -0.659914862 0.745126319 -0.096432069 -0.340380309 0.938076072 -0.0644556279 0.0273369424 0.999214663 -0.0286836106 0.385023348 0.922806006 0.0136417241 0.687700391 0.72348243 0.0603435561 0.83461357 0.53656358 -0.124578142 0.889159929 0.44180817 0.119164431 0.974858578 0.212149947 -0.0681406779 0.975529784 0.107085719 0.192026793 0.991055726 -0.133418351 -0.0028446801 0.934071277 -0.212122464 0.287254087 0.889307208 -0.450866912 0.0764965198 0.91605748 0.277294967 -0.289734695 0.96794535 -0.0711478749 -0.240872953 0.884361734 -0.427142496 -0.188291294 0.673085261 -0.727162408 -0.134874252 0.691724413 -0.702440613 0.167614205 0.365501352 -0.927805921 -0.0747324244 0.439868596 -0.855273538 0.273902891 0.010910797 -0.999864409 -0.0123335869 0.176099585 -0.903832564 0.389968757 -0.34675858 -0.936150744 0.0581401 -0.0582070762 -0.858154776 0.510080696 -0.655076621 -0.743246493 0.135864898 -0.233322144 -0.792748333 0.563125969 -0.743010688 -0.648703505 0.164678109 0.800307915 -0.447736642 0.398797117 0.609715529 -0.590625234 0.528591342 0.440328919 -0.608638277 0.660052945 0.352999144 -0.567378212 0.743958042 0.326785169 -0.547749984 0.770182711 0.124352773 -0.93483947 -0.332583153 0.384966575 -0.906192406 -0.174974453 0.42519662 -0.821894172 -0.379074933 0.670178673 -0.709017835 -0.21944078 0.66104033 -0.618697308 -0.424546019 0.861540614 -0.432836025 -0.265331387 0.797707132 -0.370891329 -0.475502843 0.94176539 -0.12593976 -0.311796613 0.837682249 -0.151988343 -0.524583639 0.919438373 0.163944827 -0.357428555 0.833927739 -0.00814548216 -0.551813535 0.835198412 0.474687463 -0.277696643 0.789509911 0.601148858 -0.123669523 0.834746523 0.537336279 -0.120282856 0.975887726 0.198741989 -0.0902483696 0.982963037 -0.174532565 -0.0576372414 0.85179698 -0.523400483 -0.0222225095 0.606706982 -0.794701345 0.0188788475 0.282857325 -0.957043694 0.0637110835 0.0473749968 -0.991315592 -0.122674389 -0.0616938942 -0.990803041 0.120429223 -0.303691564 -0.950323932 -0.0682338471 -0.394909315 -0.898598355 0.191226643 -0.611014185 -0.791605231 -0.00477751203 -0.651171791 -0.703401492 0.284959013 -0.835229213 -0.545011696 0.0731738504 -0.218170464 -0.931999145 -0.289446443 -0.545704829 -0.802171332 -0.242337356 -0.811853724 -0.551609349 -0.191365246 -0.965806731 -0.218799459 -0.139083267 -0.954784634 -0.248270319 0.163548619 -0.985848012 0.147623644 -0.0794415327 -0.961792761 0.0463779938 0.269821732 -0.871228443 0.49058824 -0.0168575884 -0.872311291 0.299472122 0.386509328 -0.637490874 0.768533475 0.0544213471 -0.715541006 0.479906888 0.507632197 -0.316386098 0.939201398 0.133418781 -0.571328836 0.598596591 0.561485069 -0.190264746 0.968137502 0.162816167 -0.789023349 -0.469789898 0.395903532 -0.817976377 -0.233009732 0.525947823 -0.74891168 -0.077104196 0.658168853 -0.669336381 -0.022050066 0.742632213 -0.639161509 -0.00914086097 0.769018211 -0.870114341 0.359346098 -0.337300187 -0.976267131 0.1195472 -0.180585037 -0.922518179 0.0429755852 -0.383553528 -0.948026942 -0.225644213 -0.224342611 -0.864749752 -0.262303538 -0.428257774 -0.804777286 -0.529173388 -0.268903412 -0.719015416 -0.504398045 -0.478120742 -0.579513303 -0.752176095 -0.313680495 -0.549900364 -0.64864601 -0.526182424 -0.31757676 -0.878220721 -0.357593858 -0.423725927 -0.717592468 -0.552736275 -0.00618058676 -0.961193919 -0.275804371 0.125770868 -0.984670823 -0.120851391 0.0481432039 -0.991844228 -0.118013813 -0.315543302 -0.944579863 -0.0905610644 -0.642258465 -0.764101088 -0.0604449473 -0.878927197 -0.476189329 -0.0270315677 -0.991654377 -0.128281844 0.0128594485 -0.970637317 0.233602567 0.0573850048 -0.881588235 0.45426292 -0.128247353 -0.827726087 0.549289598 0.114675465 -0.67099238 0.737860983 -0.0730095586 -0.581099752 0.79210562 0.186793373 -0.380104117 0.924907487 -0.00818544889 -0.283653406 0.916452102 0.282234458 -0.0544188348 0.995958907 0.0714454042 -0.696994505 0.654147526 -0.29375104 -0.421504881 0.87293022 -0.245614467 -0.07194764 0.978537656 -0.193099956 0.293109294 0.945914851 -0.139039693 0.262415113 0.951003498 0.163495124 0.620544478 0.780314069 -0.0776820686 0.520976546 0.809372668 0.271107586 0.860320661 0.509568557 -0.0137202717 0.694955475 0.605005271 0.388594274 0.98403926 0.168094533 0.058403448 0.772228855 0.379073628 0.509868395 0.971040093 -0.195310404 0.137604448 0.802881316 0.194731984 0.563436817 0.932978304 -0.318903824 0.166888694 -0.0122536086 0.918729967 0.394696208 0.207171838 0.824997527 0.525793601 0.30754715 0.687002179 0.658363697 0.315434761 0.59046836 0.742864744 0.3115043 0.557808749 0.769294788</float_array>
        <technique_common><accessor source="#vfx_kurp_0279-mesh-normals-array" count="135" stride="3"><param name="X" type="float"/><param name="Y" type="float"/><param name="Z" type="float"/></accessor></technique_common>
      </source>
      <source id="vfx_kurp_0279-mesh-uv0">
        <float_array id="vfx_kurp_0279-mesh-uv0-array" count="270">1 0.642857075 0.5 0.642857134 1 0.714285672 0.5 0.714285672 1 0.785714269 0.5 0.785714269 1 0.857142806 0.5 0.857142806 1 0.928571403 0.5 0.928571403 1 1 0.5 1 0 1 0 0.928571403 0 0.857142866 0 0.785714269 0 0.714285731 0 0.642857134 0 0.571428537 0.5 0.571428537 0 0.5 0.5 0.5 0 0.428571403 0.5 0.428571403 0 0.357142806 0.5 0.357142806 1 0.571428537 1 0.5 1 0.428571343 1 0.357142806 0.5 0.285714269 1 0.285714269 0.5 0.214285672 1 0.214285612 0.5 0.142857075 1 0.142857075 0.5 0.0714285374 1 0.0714285374 0.5 0 1 0 0 0.285714269 0 0.214285672 0 0.142857075 0 0.0714285374 0 0 1 0.642857075 0.5 0.642857134 1 0.714285672 0.5 0.714285672 1 0.785714269 0.5 0.785714269 1 0.857142806 0.5 0.857142806 1 0.928571403 0.5 0.928571403 1 1 0.5 1 0 1 0 0.928571403 0 0.857142866 0 0.785714269 0 0.714285731 0 0.642857134 0 0.571428537 0.5 0.571428537 0 0.5 0.5 0.5 0 0.428571403 0.5 0.428571403 0 0.357142806 0.5 0.357142806 1 0.571428537 1 0.5 1 0.428571343 1 0.357142806 0.5 0.285714269 1 0.285714269 0.5 0.214285672 1 0.214285612 0.5 0.142857075 1 0.142857075 0.5 0.0714285374 1 0.0714285374 0.5 0 1 0 0 0.285714269 0 0.214285672 0 0.142857075 0 0.0714285374 0 0 1 0.642857075 0.5 0.642857134 1 0.714285672 0.5 0.714285672 1 0.785714269 0.5 0.785714269 1 0.857142806 0.5 0.857142806 1 0.928571403 0.5 0.928571403 1 1 0.5 1 0 1 0 0.928571403 0 0.857142866 0 0.785714269 0 0.714285731 0 0.642857134 0 0.571428537 0.5 0.571428537 0 0.5 0.5 0.5 0 0.428571403 0.5 0.428571403 0 0.357142806 0.5 0.357142806 1 0.571428537 1 0.5 1 0.428571343 1 0.357142806 0.5 0.285714269 1 0.285714269 0.5 0.214285672 1 0.214285612 0.5 0.142857075 1 0.142857075 0.5 0.0714285374 1 0.0714285374 0.5 0 1 0 0 0.285714269 0 0.214285672 0 0.142857075 0 0.0714285374 0 0</float_array>
        <technique_common><accessor source="#vfx_kurp_0279-mesh-uv0-array" count="135" stride="2"><param name="S" type="float"/><param name="T" type="float"/></accessor></technique_common>
      </source>
      <vertices id="vfx_kurp_0279-mesh-vertices"><input semantic="POSITION" source="#vfx_kurp_0279-mesh-positions"/></vertices>
      <triangles material="PreviewMaterial" count="168">
        <input semantic="VERTEX" source="#vfx_kurp_0279-mesh-vertices" offset="0"/>
        <input semantic="NORMAL" source="#vfx_kurp_0279-mesh-normals" offset="1"/>
        <input semantic="TEXCOORD" source="#vfx_kurp_0279-mesh-uv0" offset="2" set="0"/>
        <p>0 0 0 1 1 1 2 2 2 3 3 3 2 2 2 1 1 1 2 2 2 3 3 3 4 4 4 5 5 5 4 4 4 3 3 3 4 4 4 5 5 5 6 6 6 7 7 7 6 6 6 5 5 5 6 6 6 7 7 7 8 8 8 9 9 9 8 8 8 7 7 7 8 8 8 9 9 9 10 10 10 11 11 11 10 10 10 9 9 9 12 12 12 11 11 11 13 13 13 9 9 9 13 13 13 11 11 11 13 13 13 9 9 9 14 14 14 7 7 7 14 14 14 9 9 9 14 14 14 7 7 7 15 15 15 5 5 5 15 15 15 7 7 7 15 15 15 5 5 5 16 16 16 3 3 3 16 16 16 5 5 5 16 16 16 3 3 3 17 17 17 1 1 1 17 17 17 3 3 3 17 17 17 1 1 1 18 18 18 19 19 19 18 18 18 1 1 1 18 18 18 19 19 19 20 20 20 21 21 21 20 20 20 19 19 19 20 20 20 21 21 21 22 22 22 23 23 23 22 22 22 21 21 21 22 22 22 23 23 23 24 24 24 25 25 25 24 24 24 23 23 23 1 1 1 0 0 0 19 19 19 26 26 26 19 19 19 0 0 0 19 19 19 26 26 26 21 21 21 27 27 27 21 21 21 26 26 26 21 21 21 27 27 27 23 23 23 28 28 28 23 23 23 27 27 27 23 23 23 28 28 28 25 25 25 29 29 29 25 25 25 28 28 28 25 25 25 29 29 29 30 30 30 31 31 31 30 30 30 29 29 29 30 30 30 31 31 31 32 32 32 33 33 33 32 32 32 31 31 31 32 32 32 33 33 33 34 34 34 35 35 35 34 34 34 33 33 33 34 34 34 35 35 35 36 36 36 37 37 37 36 36 36 35 35 35 36 36 36 37 37 37 38 38 38 39 39 39 38 38 38 37 37 37 24 24 24 25 25 25 40 40 40 30 30 30 40 40 40 25 25 25 40 40 40 30 30 30 41 41 41 32 32 32 41 41 41 30 30 30 41 41 41 32 32 32 42 42 42 34 34 34 42 42 42 32 32 32 42 42 42 34 34 34 43 43 43 36 36 36 43 43 43 34 34 34 43 43 43 36 36 36 44 44 44 38 38 38 44 44 44 36 36 36 45 45 45 46 46 46 47 47 47 48 48 48 47 47 47 46 46 46 47 47 47 48 48 48 49 49 49 50 50 50 49 49 49 48 48 48 49 49 49 50 50 50 51 51 51 52 52 52 51 51 51 50 50 50 51 51 51 52 52 52 53 53 53 54 54 54 53 53 53 52 52 52 53 53 53 54 54 54 55 55 55 56 56 56 55 55 55 54 54 54 57 57 57 56 56 56 58 58 58 54 54 54 58 58 58 56 56 56 58 58 58 54 54 54 59 59 59 52 52 52 59 59 59 54 54 54 59 59 59 52 52 52 60 60 60 50 50 50 60 60 60 52 52 52 60 60 60 50 50 50 61 61 61 48 48 48 61 61 61 50 50 50 61 61 61 48 48 48 62 62 62 46 46 46 62 62 62 48 48 48 62 62 62 46 46 46 63 63 63 64 64 64 63 63 63 46 46 46 63 63 63 64 64 64 65 65 65 66 66 66 65 65 65 64 64 64 65 65 65 66 66 66 67 67 67 68 68 68 67 67 67 66 66 66 67 67 67 68 68 68 69 69 69 70 70 70 69 69 69 68 68 68 46 46 46 45 45 45 64 64 64 71 71 71 64 64 64 45 45 45 64 64 64 71 71 71 66 66 66 72 72 72 66 66 66 71 71 71 66 66 66 72 72 72 68 68 68 73 73 73 68 68 68 72 72 72 68 68 68 73 73 73 70 70 70 74 74 74 70 70 70 73 73 73 70 70 70 74 74 74 75 75 75 76 76 76 75 75 75 74 74 74 75 75 75 76 76 76 77 77 77 78 78 78 77 77 77 76 76 76 77 77 77 78 78 78 79 79 79 80 80 80 79 79 79 78 78 78 79 79 79 80 80 80 81 81 81 82 82 82 81 81 81 80 80 80 81 81 81 82 82 82 83 83 83 84 84 84 83 83 83 82 82 82 69 69 69 70 70 70 85 85 85 75 75 75 85 85 85 70 70 70 85 85 85 75 75 75 86 86 86 77 77 77 86 86 86 75 75 75 86 86 86 77 77 77 87 87 87 79 79 79 87 87 87 77 77 77 87 87 87 79 79 79 88 88 88 81 81 81 88 88 88 79 79 79 88 88 88 81 81 81 89 89 89 83 83 83 89 89 89 81 81 81 90 90 90 91 91 91 92 92 92 93 93 93 92 92 92 91 91 91 92 92 92 93 93 93 94 94 94 95 95 95 94 94 94 93 93 93 94 94 94 95 95 95 96 96 96 97 97 97 96 96 96 95 95 95 96 96 96 97 97 97 98 98 98 99 99 99 98 98 98 97 97 97 98 98 98 99 99 99 100 100 100 101 101 101 100 100 100 99 99 99 102 102 102 101 101 101 103 103 103 99 99 99 103 103 103 101 101 101 103 103 103 99 99 99 104 104 104 97 97 97 104 104 104 99 99 99 104 104 104 97 97 97 105 105 105 95 95 95 105 105 105 97 97 97 105 105 105 95 95 95 106 106 106 93 93 93 106 106 106 95 95 95 106 106 106 93 93 93 107 107 107 91 91 91 107 107 107 93 93 93 107 107 107 91 91 91 108 108 108 109 109 109 108 108 108 91 91 91 108 108 108 109 109 109 110 110 110 111 111 111 110 110 110 109 109 109 110 110 110 111 111 111 112 112 112 113 113 113 112 112 112 111 111 111 112 112 112 113 113 113 114 114 114 115 115 115 114 114 114 113 113 113 91 91 91 90 90 90 109 109 109 116 116 116 109 109 109 90 90 90 109 109 109 116 116 116 111 111 111 117 117 117 111 111 111 116 116 116 111 111 111 117 117 117 113 113 113 118 118 118 113 113 113 117 117 117 113 113 113 118 118 118 115 115 115 119 119 119 115 115 115 118 118 118 115 115 115 119 119 119 120 120 120 121 121 121 120 120 120 119 119 119 120 120 120 121 121 121 122 122 122 123 123 123 122 122 122 121 121 121 122 122 122 123 123 123 124 124 124 125 125 125 124 124 124 123 123 123 124 124 124 125 125 125 126 126 126 127 127 127 126 126 126 125 125 125 126 126 126 127 127 127 128 128 128 129 129 129 128 128 128 127 127 127 114 114 114 115 115 115 130 130 130 120 120 120 130 130 130 115 115 115 130 130 130 120 120 120 131 131 131 122 122 122 131 131 131 120 120 120 131 131 131 122 122 122 132 132 132 124 124 124 132 132 132 122 122 122 132 132 132 124 124 124 133 133 133 126 126 126 133 133 133 124 124 124 133 133 133 126 126 126 134 134 134 128 128 128 134 134 134 126 126 126</p>
      </triangles>
    </mesh></geometry>
  </library_geometries>
  <library_visual_scenes>
    <visual_scene id="Scene" name="Scene">
      <node id="vfx_kurp_0279" name="vfx_kurp_0279" type="NODE">
        <instance_geometry url="#vfx_kurp_0279-mesh"><bind_material><technique_common><instance_material symbol="PreviewMaterial" target="#PreviewMaterial"><bind_vertex_input semantic="UVSET0" input_semantic="TEXCOORD" input_set="0"/></instance_material></technique_common></bind_material></instance_geometry>
      </node>
    </visual_scene>
  </library_visual_scenes>
  <scene><instance_visual_scene url="#Scene"/></scene>
</COLLADA>
