<?xml version="1.0" encoding="utf-8"?>
<COLLADA xmlns="http://www.collada.org/2005/11/COLLADASchema" version="1.4.1">
  <asset>
    <contributor><authoring_tool>Morrobroom Kurpulio VFX preview converter</authoring_tool></contributor>
    <unit name="unit" meter="1"/>
    <up_axis>Z_UP</up_axis>
  </asset>
  <library_images>
    <image id="VFXTexture" name="darkmap_newgen-1.dds">
      <init_from>../../../Textures/Kurp/darkmap_newgen-1.dds</init_from>
    </image>
  </library_images>
  <library_effects>
    <effect id="PreviewEffect">
      <profile_COMMON>
        <newparam sid="VFXTexture-surface">
          <surface type="2D"><init_from>VFXTexture</init_from></surface>
        </newparam>
        <newparam sid="VFXTexture-sampler">
          <sampler2D><source>VFXTexture-surface</source></sampler2D>
        </newparam>
        <technique sid="common"><phong>
          <emission><color>0.08 0.08 0.08 1</color></emission>
          <ambient><color>0.2 0.2 0.2 1</color></ambient>
          <diffuse><texture texture="VFXTexture-sampler" texcoord="UVSET0"/></diffuse>
          <specular><color>0.15 0.15 0.15 1</color></specular>
          <shininess><float>8</float></shininess>
          <transparent opaque="A_ONE"><texture texture="VFXTexture-sampler" texcoord="UVSET0"/></transparent>
          <transparency><float>1</float></transparency>
        </phong></technique>
      </profile_COMMON>
      <extra><technique profile="GOOGLEEARTH"><double_sided>1</double_sided></technique></extra>
    </effect>
  </library_effects>
  <library_materials><material id="PreviewMaterial" name="PreviewMaterial"><instance_effect url="#PreviewEffect"/></material></library_materials>
  <library_geometries>
    <geometry id="vfx_kurp_0436-mesh" name="vfx_kurp_0436"><mesh>
      <source id="vfx_kurp_0436-mesh-positions">
        <float_array id="vfx_kurp_0436-mesh-positions-array" count="264">4.50907429 -0.275915545 -0.738135729 4.4496209 -0.911353812 -1.61901867 5.34490367 -0.0143742947 -1.02656094 5.54081359 -0.247848504 -1.66740005 3.21695682 -1.21401567 -1.47860963 3.60829605 -0.336948238 -0.365359167 1.9634843 -1.12620956 -1.25991773 2.756407 -0.222080412 0.0301419118 0.811902469 -0.65653045 -0.984350195 2.04527283 0.047340311 0.410338459 -0.125065136 0.149047504 -0.678880967 1.52880593 0.463650754 0.763957643 -0.755701281 1.2116682 -0.373411669 1.22451541 1.0254816 1.09774227 -1.01827475 2.4273149 -0.0978439787 1.12914146 1.71721995 1.42037814 -0.887082728 3.67699161 0.120847812 1.23632301 2.48986133 1.72622549 -0.374967896 4.83837109 0.261256629 1.54404381 3.25767235 1.98603188 0.467941442 5.79776987 0.309637933 2.04784444 3.91491136 2.14922928 -0.674113189 3.10122541 -0.902389937 -1.34745117 3.49540449 -1.97929142 -0.816170207 2.04001147 -1.25499704 -1.17607492 1.94357289 -2.03843888 -1.04592583 5.01755032 -1.80763758 -0.276339205 4.13080624 -0.446661068 -0.301017212 6.36101218 -1.54028111 0.291071036 5.01533839 0.0368489593 0.814357945 7.39428201 -1.20339276 0.957000204 5.66406458 0.501648851 2.19102047 8.01621661 -0.829948939 1.68510422 6.02121067 0.933957257 3.6942128 8.16593768 -0.456504887 2.46481889 6.06808373 1.34201748 5.17679127 7.82878748 -0.119616322 3.28052993 5.81636276 1.73644802 6.49363118 7.03777037 0.147740045 4.08122778 5.29841401 2.11035414 7.51583132 5.87031626 0.319393408 4.77296247 4.5607662 2.42797404 8.14333105 4.44070264 0.378540883 5.24087871 3.66299353 2.62748687 1.47744656 5.93515257 -0.816691662 1.42014228 6.63895896 -1.79132267 0.616963505 5.48958625 -1.13581253 0.35863953 5.70634343 -1.84485293 2.70512271 7.20557433 -1.63597023 2.44722298 6.17472008 -0.404242379 4.08779606 7.35072736 -1.39400408 3.39752459 6.21323054 0.0333498494 5.4328172 7.06020955 -1.0891092 4.2241509 6.05629467 0.454008823 6.60852691 6.36245743 -0.751130592 4.86688683 5.70190451 0.845261905 7.49983781 5.32577197 -0.413151778 5.30639021 5.14818728 1.21456962 8.01950349 4.05163247 -0.108256859 5.54321417 4.41278241 1.57154187 8.11665237 2.66475848 0.133709149 5.57487414 3.55030732 1.90993892 7.78177854 1.30090908 0.289060831 5.38709508 2.65456605 2.19739516 7.04765995 0.0935856064 0.342591046 4.96442024 1.8416334 2.37796074 7.77397599 3.25120464 -0.998426612 8.58339003 2.95106934 -2.18993735 7.72487437 4.43481392 -1.38855972 8.09850439 4.60904314 -2.2553794 8.54729031 1.2345826 -2.00001513 7.53836746 2.05293335 -0.494196983 7.99374364 -0.372393577 -1.70420552 7.09005289 0.980117495 0.0407704605 6.97693449 -1.71255624 -1.33146401 6.48908431 0.14531059 0.5550365 5.59639212 -2.65472247 -0.918276455 5.7643486 -0.383731198 1.0333535 3.9872559 -3.10666686 -0.505088743 4.92376471 -0.584610522 1.48484125 2.30703834 -3.02414944 -0.1323469 3.98659024 -0.467052417 1.92124901 0.720211179 -2.41524698 0.163462829 3.01462423 -0.0565244936 2.33494818 -0.617895888 -1.33956452 0.353384373 2.11917559 0.614326112 2.68637059 -1.57629915 0.097605156 0.418826684 1.43683878 1.50265359 2.90711701</float_array>
        <technique_common><accessor source="#vfx_kurp_0436-mesh-positions-array" count="88" stride="3"><param name="X" type="float"/><param name="Y" type="float"/><param name="Z" type="float"/></accessor></technique_common>
      </source>
      <source id="vfx_kurp_0436-mesh-normals">
        <float_array id="vfx_kurp_0436-mesh-normals-array" count="264">0.335204052 -0.778092227 0.531235099 0.338624372 -0.781479671 0.524044901 0.453314856 -0.760035788 0.465672893 0.483687098 -0.764377391 0.426349618 0.143735097 -0.79911555 0.58374186 0.182128767 -0.817751356 0.545996183 -0.0546025973 -0.790286283 0.610300046 0.0109033937 -0.844993539 0.534665349 -0.261072209 -0.729470618 0.632229326 -0.19351714 -0.822991269 0.534075358 -0.443740977 -0.594879292 0.670233224 -0.405401378 -0.708057001 0.578191149 -0.559088351 -0.400571007 0.72592223 -0.560119556 -0.506990853 0.65515369 -0.59762044 -0.184883758 0.780171651 -0.633039624 -0.287274575 0.718842231 -0.578539411 0.0298365963 0.815108537 -0.652248208 -0.0769957075 0.754084833 -0.511320321 0.240904733 0.824934203 -0.614681224 0.149601541 0.77445876 -0.473927274 0.336314223 0.813809365 -0.586038346 0.258539614 0.767929896 -0.846854464 0.025037818 0.531234999 -0.851370047 0.0233694116 0.524044763 -0.880405468 -0.0896379291 0.465672904 -0.897176149 -0.11532967 0.426349651 -0.784989886 0.207452513 0.583741667 -0.818105424 0.180531903 0.545996106 -0.693166626 0.383476116 0.610300005 -0.770432221 0.347227832 0.53466534 -0.550791163 0.544899279 0.632229286 -0.664099781 0.523197092 0.534075167 -0.351611109 0.653572715 0.670233044 -0.470387953 0.666656152 0.578190927 -0.126760028 0.675994648 0.725922262 -0.222773503 0.721904279 0.655153553 0.085003226 0.619763339 0.780171683 0.00717431153 0.695136353 0.718842111 0.271541908 0.511725463 0.815108608 0.205869726 0.623677452 0.754084936 0.434426745 0.361602934 0.824934374 0.395360148 0.493866039 0.774458965 0.505094199 0.287391499 0.813809545 0.481986548 0.421867644 0.767930113 -0.465225947 0.708063665 0.531235036 -0.469182569 0.710805718 0.524044796 -0.578406838 0.669771798 0.46567292 -0.609071475 0.668773377 0.42634975 -0.280316469 0.762015804 0.583741888 -0.321362831 0.773701458 0.545996322 -0.083458801 0.787761596 0.61030017 -0.157469294 0.830262729 0.534665525 0.130434589 0.763722921 0.632229482 0.0476661047 0.844092056 0.53407541 0.33369983 0.662896422 0.670233361 0.276289586 0.76769721 0.578191195 0.481036033 0.491570236 0.725922198 0.463571954 0.596552237 0.655153778 0.556436303 0.285850577 0.780171833 0.573537476 0.392836421 0.71884234 0.574931058 0.0710789218 0.815108622 0.628968888 0.189087636 0.754084878 0.545384909 -0.148454867 0.824934212 0.631320762 -0.0405905279 0.774458846 0.525127606 -0.248908046 0.813809426 0.62202981 -0.152847359 0.767930075 0.838336307 0.122397104 0.531235527 0.842493498 0.124824207 0.52404544 0.851464345 0.2411568 0.465673562 0.863518966 0.269370466 0.426350263 0.809087716 -0.0679887613 0.583741892 0.837025634 -0.0357265334 0.545996065 0.749225836 -0.257283073 0.610299981 0.819023149 -0.208168419 0.534665307 0.637044066 -0.44097711 0.632229425 0.744862728 -0.399928884 0.534075279 0.459760958 -0.582586862 0.670233101 0.579005315 -0.574846125 0.578190953 0.242219599 -0.643713207 0.725922153 0.34474635 -0.672252676 0.655153642 0.0239089207 -0.625108363 0.780171711 0.113643832 -0.685821419 0.718842167 -0.178556399 -0.551103906 0.815108642 -0.0944415221 -0.649951348 0.754084905 -0.365035166 -0.431546736 0.824934387 -0.303594807 -0.555016721 0.774458929 -0.447515699 -0.370733957 0.81380958 -0.401407511 -0.499154813 0.767929998</float_array>
        <technique_common><accessor source="#vfx_kurp_0436-mesh-normals-array" count="88" stride="3"><param name="X" type="float"/><param name="Y" type="float"/><param name="Z" type="float"/></accessor></technique_common>
      </source>
      <source id="vfx_kurp_0436-mesh-uv0">
        <float_array id="vfx_kurp_0436-mesh-uv0-array" count="176">1 -0.0999999046 0 -0.0999999046 1 0 0 0 0 -0.200000048 1 -0.200000048 0 -0.299999952 1 -0.299999952 0 -0.399999976 1 -0.399999976 0 -0.5 1 -0.5 0 -0.600000024 1 -0.600000024 0 -0.700000048 1 -0.700000048 0 -0.799999952 1 -0.799999952 0 -0.899999976 1 -0.899999976 0 -1 1 -1 1 -0.0999999046 0 -0.0999999046 1 0 0 0 0 -0.200000048 1 -0.200000048 0 -0.299999952 1 -0.299999952 0 -0.399999976 1 -0.399999976 0 -0.5 1 -0.5 0 -0.600000024 1 -0.600000024 0 -0.700000048 1 -0.700000048 0 -0.799999952 1 -0.799999952 0 -0.899999976 1 -0.899999976 0 -1 1 -1 1 -0.0999999046 0 -0.0999999046 1 0 0 0 0 -0.200000048 1 -0.200000048 0 -0.299999952 1 -0.299999952 0 -0.399999976 1 -0.399999976 0 -0.5 1 -0.5 0 -0.600000024 1 -0.600000024 0 -0.700000048 1 -0.700000048 0 -0.799999952 1 -0.799999952 0 -0.899999976 1 -0.899999976 0 -1 1 -1 1 -0.0999999046 0 -0.0999999046 1 0 0 0 0 -0.200000048 1 -0.200000048 0 -0.299999952 1 -0.299999952 0 -0.399999976 1 -0.399999976 0 -0.5 1 -0.5 0 -0.600000024 1 -0.600000024 0 -0.700000048 1 -0.700000048 0 -0.799999952 1 -0.799999952 0 -0.899999976 1 -0.899999976 0 -1 1 -1</float_array>
        <technique_common><accessor source="#vfx_kurp_0436-mesh-uv0-array" count="88" stride="2"><param name="S" type="float"/><param name="T" type="float"/></accessor></technique_common>
      </source>
      <source id="vfx_kurp_0436-mesh-colors">
        <float_array id="vfx_kurp_0436-mesh-colors-array" count="352">0.0666666701 0.0666666701 0.0666666701 1 0.0666666701 0.0666666701 0.0666666701 1 0.0666666701 0.0666666701 0.0666666701 0 0.0666666701 0.0666666701 0.0666666701 0 0.0666666701 0.0666666701 0.0666666701 1 0.0666666701 0.0666666701 0.0666666701 1 0.0666666701 0.0666666701 0.0666666701 1 0.0666666701 0.0666666701 0.0666666701 1 0.0666666701 0.0666666701 0.0666666701 1 0.0666666701 0.0666666701 0.0666666701 1 0.0666666701 0.0666666701 0.0666666701 1 0.0666666701 0.0666666701 0.0666666701 1 0.0666666701 0.0666666701 0.0666666701 1 0.0666666701 0.0666666701 0.0666666701 1 0.0666666701 0.0666666701 0.0666666701 1 0.0666666701 0.0666666701 0.0666666701 1 0.0666666701 0.0666666701 0.0666666701 1 0.0666666701 0.0666666701 0.0666666701 1 0.0666666701 0.0666666701 0.0666666701 1 0.0666666701 0.0666666701 0.0666666701 1 0.0666666701 0.0666666701 0.0666666701 0 0.0666666701 0.0666666701 0.0666666701 0 0.0666666701 0.0666666701 0.0666666701 1 0.0666666701 0.0666666701 0.0666666701 1 0.0666666701 0.0666666701 0.0666666701 0 0.0666666701 0.0666666701 0.0666666701 0 0.0666666701 0.0666666701 0.0666666701 1 0.0666666701 0.0666666701 0.0666666701 1 0.0666666701 0.0666666701 0.0666666701 1 0.0666666701 0.0666666701 0.0666666701 1 0.0666666701 0.0666666701 0.0666666701 1 0.0666666701 0.0666666701 0.0666666701 1 0.0666666701 0.0666666701 0.0666666701 1 0.0666666701 0.0666666701 0.0666666701 1 0.0666666701 0.0666666701 0.0666666701 1 0.0666666701 0.0666666701 0.0666666701 1 0.0666666701 0.0666666701 0.0666666701 1 0.0666666701 0.0666666701 0.0666666701 1 0.0666666701 0.0666666701 0.0666666701 1 0.0666666701 0.0666666701 0.0666666701 1 0.0666666701 0.0666666701 0.0666666701 1 0.0666666701 0.0666666701 0.0666666701 1 0.0666666701 0.0666666701 0.0666666701 0 0.0666666701 0.0666666701 0.0666666701 0 0.0666666701 0.0666666701 0.0666666701 1 0.0666666701 0.0666666701 0.0666666701 1 0.0666666701 0.0666666701 0.0666666701 0 0.0666666701 0.0666666701 0.0666666701 0 0.0666666701 0.0666666701 0.0666666701 1 0.0666666701 0.0666666701 0.0666666701 1 0.0666666701 0.0666666701 0.0666666701 1 0.0666666701 0.0666666701 0.0666666701 1 0.0666666701 0.0666666701 0.0666666701 1 0.0666666701 0.0666666701 0.0666666701 1 0.0666666701 0.0666666701 0.0666666701 1 0.0666666701 0.0666666701 0.0666666701 1 0.0666666701 0.0666666701 0.0666666701 1 0.0666666701 0.0666666701 0.0666666701 1 0.0666666701 0.0666666701 0.0666666701 1 0.0666666701 0.0666666701 0.0666666701 1 0.0666666701 0.0666666701 0.0666666701 1 0.0666666701 0.0666666701 0.0666666701 1 0.0666666701 0.0666666701 0.0666666701 1 0.0666666701 0.0666666701 0.0666666701 1 0.0666666701 0.0666666701 0.0666666701 0 0.0666666701 0.0666666701 0.0666666701 0 0.0666666701 0.0666666701 0.0666666701 1 0.0666666701 0.0666666701 0.0666666701 1 0.0666666701 0.0666666701 0.0666666701 0 0.0666666701 0.0666666701 0.0666666701 0 0.0666666701 0.0666666701 0.0666666701 1 0.0666666701 0.0666666701 0.0666666701 1 0.0666666701 0.0666666701 0.0666666701 1 0.0666666701 0.0666666701 0.0666666701 1 0.0666666701 0.0666666701 0.0666666701 1 0.0666666701 0.0666666701 0.0666666701 1 0.0666666701 0.0666666701 0.0666666701 1 0.0666666701 0.0666666701 0.0666666701 1 0.0666666701 0.0666666701 0.0666666701 1 0.0666666701 0.0666666701 0.0666666701 1 0.0666666701 0.0666666701 0.0666666701 1 0.0666666701 0.0666666701 0.0666666701 1 0.0666666701 0.0666666701 0.0666666701 1 0.0666666701 0.0666666701 0.0666666701 1 0.0666666701 0.0666666701 0.0666666701 1 0.0666666701 0.0666666701 0.0666666701 1 0.0666666701 0.0666666701 0.0666666701 0 0.0666666701 0.0666666701 0.0666666701 0</float_array>
        <technique_common><accessor source="#vfx_kurp_0436-mesh-colors-array" count="88" stride="4"><param name="R" type="float"/><param name="G" type="float"/><param name="B" type="float"/><param name="A" type="float"/></accessor></technique_common>
      </source>
      <vertices id="vfx_kurp_0436-mesh-vertices"><input semantic="POSITION" source="#vfx_kurp_0436-mesh-positions"/></vertices>
      <triangles material="PreviewMaterial" count="80">
        <input semantic="VERTEX" source="#vfx_kurp_0436-mesh-vertices" offset="0"/>
        <input semantic="NORMAL" source="#vfx_kurp_0436-mesh-normals" offset="1"/>
        <input semantic="TEXCOORD" source="#vfx_kurp_0436-mesh-uv0" offset="2" set="0"/>
        <input semantic="COLOR" source="#vfx_kurp_0436-mesh-colors" offset="3" set="0"/>
        <p>0 0 0 0 1 1 1 1 2 2 2 2 3 3 3 3 2 2 2 2 1 1 1 1 1 1 1 1 0 0 0 0 4 4 4 4 5 5 5 5 4 4 4 4 0 0 0 0 4 4 4 4 5 5 5 5 6 6 6 6 7 7 7 7 6 6 6 6 5 5 5 5 6 6 6 6 7 7 7 7 8 8 8 8 9 9 9 9 8 8 8 8 7 7 7 7 8 8 8 8 9 9 9 9 10 10 10 10 11 11 11 11 10 10 10 10 9 9 9 9 10 10 10 10 11 11 11 11 12 12 12 12 13 13 13 13 12 12 12 12 11 11 11 11 12 12 12 12 13 13 13 13 14 14 14 14 15 15 15 15 14 14 14 14 13 13 13 13 14 14 14 14 15 15 15 15 16 16 16 16 17 17 17 17 16 16 16 16 15 15 15 15 16 16 16 16 17 17 17 17 18 18 18 18 19 19 19 19 18 18 18 18 17 17 17 17 18 18 18 18 19 19 19 19 20 20 20 20 21 21 21 21 20 20 20 20 19 19 19 19 22 22 22 22 23 23 23 23 24 24 24 24 25 25 25 25 24 24 24 24 23 23 23 23 23 23 23 23 22 22 22 22 26 26 26 26 27 27 27 27 26 26 26 26 22 22 22 22 26 26 26 26 27 27 27 27 28 28 28 28 29 29 29 29 28 28 28 28 27 27 27 27 28 28 28 28 29 29 29 29 30 30 30 30 31 31 31 31 30 30 30 30 29 29 29 29 30 30 30 30 31 31 31 31 32 32 32 32 33 33 33 33 32 32 32 32 31 31 31 31 32 32 32 32 33 33 33 33 34 34 34 34 35 35 35 35 34 34 34 34 33 33 33 33 34 34 34 34 35 35 35 35 36 36 36 36 37 37 37 37 36 36 36 36 35 35 35 35 36 36 36 36 37 37 37 37 38 38 38 38 39 39 39 39 38 38 38 38 37 37 37 37 38 38 38 38 39 39 39 39 40 40 40 40 41 41 41 41 40 40 40 40 39 39 39 39 40 40 40 40 41 41 41 41 42 42 42 42 43 43 43 43 42 42 42 42 41 41 41 41 44 44 44 44 45 45 45 45 46 46 46 46 47 47 47 47 46 46 46 46 45 45 45 45 45 45 45 45 44 44 44 44 48 48 48 48 49 49 49 49 48 48 48 48 44 44 44 44 48 48 48 48 49 49 49 49 50 50 50 50 51 51 51 51 50 50 50 50 49 49 49 49 50 50 50 50 51 51 51 51 52 52 52 52 53 53 53 53 52 52 52 52 51 51 51 51 52 52 52 52 53 53 53 53 54 54 54 54 55 55 55 55 54 54 54 54 53 53 53 53 54 54 54 54 55 55 55 55 56 56 56 56 57 57 57 57 56 56 56 56 55 55 55 55 56 56 56 56 57 57 57 57 58 58 58 58 59 59 59 59 58 58 58 58 57 57 57 57 58 58 58 58 59 59 59 59 60 60 60 60 61 61 61 61 60 60 60 60 59 59 59 59 60 60 60 60 61 61 61 61 62 62 62 62 63 63 63 63 62 62 62 62 61 61 61 61 62 62 62 62 63 63 63 63 64 64 64 64 65 65 65 65 64 64 64 64 63 63 63 63 66 66 66 66 67 67 67 67 68 68 68 68 69 69 69 69 68 68 68 68 67 67 67 67 67 67 67 67 66 66 66 66 70 70 70 70 71 71 71 71 70 70 70 70 66 66 66 66 70 70 70 70 71 71 71 71 72 72 72 72 73 73 73 73 72 72 72 72 71 71 71 71 72 72 72 72 73 73 73 73 74 74 74 74 75 75 75 75 74 74 74 74 73 73 73 73 74 74 74 74 75 75 75 75 76 76 76 76 77 77 77 77 76 76 76 76 75 75 75 75 76 76 76 76 77 77 77 77 78 78 78 78 79 79 79 79 78 78 78 78 77 77 77 77 78 78 78 78 79 79 79 79 80 80 80 80 81 81 81 81 80 80 80 80 79 79 79 79 80 80 80 80 81 81 81 81 82 82 82 82 83 83 83 83 82 82 82 82 81 81 81 81 82 82 82 82 83 83 83 83 84 84 84 84 85 85 85 85 84 84 84 84 83 83 83 83 84 84 84 84 85 85 85 85 86 86 86 86 87 87 87 87 86 86 86 86 85 85 85 85</p>
      </triangles>
    </mesh></geometry>
  </library_geometries>
  <library_visual_scenes>
    <visual_scene id="Scene" name="Scene">
      <node id="vfx_kurp_0436" name="vfx_kurp_0436" type="NODE">
        <instance_geometry url="#vfx_kurp_0436-mesh"><bind_material><technique_common><instance_material symbol="PreviewMaterial" target="#PreviewMaterial"><bind_vertex_input semantic="UVSET0" input_semantic="TEXCOORD" input_set="0"/></instance_material></technique_common></bind_material></instance_geometry>
      </node>
    </visual_scene>
  </library_visual_scenes>
  <scene><instance_visual_scene url="#Scene"/></scene>
</COLLADA>
