<?xml version="1.0" encoding="utf-8"?>
<COLLADA xmlns="http://www.collada.org/2005/11/COLLADASchema" version="1.4.1">
  <asset>
    <contributor><authoring_tool>Morrobroom Kurpulio VFX preview converter</authoring_tool></contributor>
    <unit name="unit" meter="1"/>
    <up_axis>Z_UP</up_axis>
  </asset>
  <library_images>
    <image id="VFXTexture" name="darkmap_newgen-1.dds">
      <init_from>../../../Textures/Kurp/darkmap_newgen-1.dds</init_from>
    </image>
  </library_images>
  <library_effects>
    <effect id="PreviewEffect">
      <profile_COMMON>
        <newparam sid="VFXTexture-surface">
          <surface type="2D"><init_from>VFXTexture</init_from></surface>
        </newparam>
        <newparam sid="VFXTexture-sampler">
          <sampler2D><source>VFXTexture-surface</source></sampler2D>
        </newparam>
        <technique sid="common"><phong>
          <emission><color>0.08 0.08 0.08 1</color></emission>
          <ambient><color>0.2 0.2 0.2 1</color></ambient>
          <diffuse><texture texture="VFXTexture-sampler" texcoord="UVSET0"/></diffuse>
          <specular><color>0.15 0.15 0.15 1</color></specular>
          <shininess><float>8</float></shininess>
          <transparent opaque="A_ONE"><texture texture="VFXTexture-sampler" texcoord="UVSET0"/></transparent>
          <transparency><float>1</float></transparency>
        </phong></technique>
      </profile_COMMON>
      <extra><technique profile="GOOGLEEARTH"><double_sided>1</double_sided></technique></extra>
    </effect>
  </library_effects>
  <library_materials><material id="PreviewMaterial" name="PreviewMaterial"><instance_effect url="#PreviewEffect"/></material></library_materials>
  <library_geometries>
    <geometry id="vfx_kurp_0396-mesh" name="vfx_kurp_0396"><mesh>
      <source id="vfx_kurp_0396-mesh-positions">
        <float_array id="vfx_kurp_0396-mesh-positions-array" count="285">-2.99683749 3.97541157 8.61604464 -5.17093633 4.00336376 10.6346578 -3.54446445 4.09277162 6.38888886 -5.44648813 3.92175816 8.26388809 -7.23496989 2.73696963 12.4999963 -7.23497008 2.73697082 9.99999715 -0.898421816 2.57354146 2.22222246 -1.97171323 3.52407899 4.3750002 -1.65943716 3.31216125 0.325437306 -2.707571 3.88093405 2.30583775 -4.10292783 4.13505455 4.16173041 -5.71569919 3.82121348 5.89311842 -7.23497027 2.73696963 7.49999738 -1.32047304 3.02938134 6.44416193 -0.350295618 1.66564508 4.11900671 -0.298144643 1.54171124 -0.0694448383 -0.00992076215 0.286278418 1.64058014 -0.0471432114 0.622625403 -2.49999855 -0.0941037055 -0.877162209 -0.991115744 -0.000912585281 -0.0867952603 -5.06944429 -0.384277472 -1.74081443 -3.7760849 -0.0372645378 -0.553879462 -7.77777596 -0.70610839 -2.31109657 -6.71432409 -0.0735836418 -0.776609406 -10.624999 -0.944119774 -2.62998675 -9.80583425 -0.0703595119 -0.759548025 -13.6111079 -1.03539144 -2.73696873 -13.050619 -0.0306170369 -0.502227199 -16.7361065 -0.959329834 -2.64833097 -16.4486711 -0.958675688 2.64755194 -1.77947027 -0.538468637 2.04043429 -4.00888209 -0.314522677 1.58185839 -6.36280228 -0.215615759 1.31784218 -8.84122817 -0.198950169 1.26719418 -11.444161 -0.256209681 1.43292294 -14.1716001 -0.41449213 1.80448232 -17.0235438 -0.732978756 2.35046737 -19.9999979 -6.72536554e-06 3.5766484e-06 -19.9999981 -0.732976148 -2.35046349 -19.9999979 -3.18733968 6.56713185 6.38888815 -6.23926261 6.29272937 8.26388953 -3.54446445 4.09277162 6.38888886 -5.44648813 3.92175816 8.26388809 -9.10900728 4.3916555 9.99999773 -7.23497008 2.73697082 9.99999715 -0.898421816 2.57354146 2.22222246 -1.97171323 3.52407899 4.3750002 -2.85526238 1.01765981 2.22222337 -3.27967565 1.39353247 4.37500061 -3.54446445 4.09277162 6.38888886 -3.9015919 1.61841213 6.38888778 -5.44648813 3.92175816 8.26388809 -3.9015919 1.61841213 6.38888778 -5.44648813 3.92175816 8.26388809 -4.65371096 1.55078784 8.26388903 -7.23497008 2.73697082 9.99999715 -4.65371096 1.55078784 8.26388903 -7.23497008 2.73697082 9.99999715 -5.36093466 1.08228502 9.99999835 -1.97171323 3.52407899 4.3750002 -0.663748362 5.65462476 4.3749992 -0.898421816 2.57354146 2.22222246 1.05842583 4.12941625 2.22222169 -0.298144643 1.54171124 -0.0694448383 2.02160605 2.47378147 -0.0694454222 -0.0471432114 0.622625403 -2.49999855 2.42435503 0.999048928 -2.50000008 -0.000912585281 -0.0867952603 -5.06944429 2.49853607 -0.139271743 -5.06944448 -0.0372645378 -0.553879462 -7.77777596 2.44020671 -0.888742198 -7.77777734 -0.0735836418 -0.776609406 -10.624999 2.38193186 -1.24611902 -10.6249985 -0.0703595119 -0.759548025 -13.6111079 2.3871049 -1.21874775 -13.6111111 -0.0306170369 -0.502227199 -16.7361065 2.45087596 -0.805853081 -16.7361096 -2.61789538 0.609641352 -0.0694439565 -0.298144643 1.54171124 -0.0694448383 -2.5186416 0.246206834 -2.49999837 -0.0471432114 0.622625403 -2.49999855 -2.50036107 -0.0343208122 -5.06944291 -0.000912585281 -0.0867952603 -5.06944429 -2.51473647 -0.219022536 -7.77777638 -0.0372645378 -0.553879462 -7.77777596 -2.5290988 -0.307095673 -10.6249982 -0.0735836418 -0.776609406 -10.624999 -2.52782539 -0.300349658 -13.6111095 -0.0703595119 -0.759548025 -13.6111079 -2.51211012 -0.198597014 -16.7361093 -0.0306170369 -0.502227199 -16.7361065 -2.50000693 1.00899418e-06 -19.9999973 -6.72536554e-06 3.5766484e-06 -19.9999981 -6.72536554e-06 3.5766484e-06 -19.9999981 2.49999259 3.89225013e-06 -19.9999989</float_array>
        <technique_common><accessor source="#vfx_kurp_0396-mesh-positions-array" count="95" stride="3"><param name="X" type="float"/><param name="Y" type="float"/><param name="Z" type="float"/></accessor></technique_common>
      </source>
      <source id="vfx_kurp_0396-mesh-normals">
        <float_array id="vfx_kurp_0396-mesh-normals-array" count="285">-0.16945767 -0.98510034 -0.0293499094 0.368230063 -0.929445255 -0.0231978184 -0.129048174 -0.991624682 -0.00520176456 0.332176019 -0.943204258 -0.0049820238 0.528849948 -0.848598827 -0.0140628322 0.553706776 -0.832703548 -0.0036887645 -0.777918943 -0.628350979 -0.00414307633 -0.513687435 -0.857962731 -0.0050171701 -0.661187109 -0.750214869 -0.00304255878 -0.405390685 -0.914128855 0.00517965689 -0.0686448862 -0.997586977 0.0103972938 0.318523818 -0.947878514 0.00830065496 0.580901443 -0.813973902 3.44276153e-07 -0.602269663 -0.797877974 -0.0257291861 -0.867516984 -0.497155687 -0.0158273348 -0.926345692 -0.376666719 -0.00241718508 -0.982184209 -0.18789054 -0.00336520686 -0.988452811 -0.151528957 0.000121782836 -0.997442123 0.0710076913 0.00819262787 -0.999745805 0.0223158528 0.00321383616 -0.965730582 0.259041989 0.0161768376 -0.990636793 0.136371661 0.00644317326 -0.925944522 0.377174922 0.0191264102 -0.98171501 0.19012588 0.00936961434 -0.90108687 0.43330938 0.0168948135 -0.982683408 0.18492554 0.0116561326 -0.900972055 0.433752502 0.0103982608 -0.992570607 0.120958623 0.0131377924 -0.925025597 0.379903084 0.00113643037 -0.831861792 -0.554891404 -0.0100741466 -0.930164879 -0.366924048 -0.0126507073 -0.977033225 -0.212891659 -0.00912241072 -0.994115243 -0.108327099 0.000350553622 -0.998055115 -0.0606980372 0.0142033954 -0.996891104 -0.0727630983 0.0302267737 -0.988396086 -0.144670038 0.0463007212 -0.970081847 -0.242754052 -0.00341763854 -0.999407331 -0.0100276166 -0.0329307394 -0.954045368 0.297509403 -0.0358551391 0.597249036 -0.147443055 0.788387046 0.530676442 0.11491636 0.839748024 0.685964332 -0.0352863854 0.726779063 0.56112552 0.250301001 0.788978809 0.43858451 0.329867042 0.83596134 0.425098414 0.481451116 0.766482982 0.501222999 -0.740832821 0.447149009 0.677419814 -0.510179032 0.529924288 0.655505045 -0.688357955 0.310606604 0.836080498 -0.399201367 0.376307944 0.768304286 -0.201451775 0.607557163 0.878889232 -0.126851395 0.459850455 0.703018105 -0.101467817 0.703896176 0.883012066 0.295251344 0.364851114 0.716277772 0.239500815 0.655427733 0.806553956 0.269686255 0.526060871 0.609116148 0.203669402 0.766483067 0.598570902 0.677919392 0.426776492 0.598570902 0.677919392 0.426776492 0.598570894 0.677919383 0.426776516 0.677368848 -0.340257974 0.652223854 0.55508826 -0.410712413 0.723320356 0.560875376 -0.604467415 0.565718973 0.431963403 -0.63275736 0.642670788 0.382308369 -0.796162261 0.469005294 0.266832199 -0.79431982 0.545762403 0.189126098 -0.911548071 0.365118382 0.097563409 -0.89561318 0.43400278 0.0185080222 -0.965980976 0.25795001 -0.0459276923 -0.949167689 0.311402223 -0.106583709 -0.982683162 0.151570827 -0.144017116 -0.972281631 0.184194192 -0.175340236 -0.983259866 0.0495564151 -0.186554281 -0.98064549 0.0594299842 -0.184405366 -0.981799159 -0.0454430585 -0.17021734 -0.983767639 -0.0568092347 -0.133649215 -0.982220135 -0.131838894 -0.0956719115 -0.98236631 -0.160634113 0.425971905 -0.870254916 0.247395064 0.295577432 -0.884280447 0.361499755 0.203200642 -0.961073481 0.187209144 0.103904333 -0.95567148 0.275492126 0.0205219031 -0.991250147 0.130391709 -0.0472808768 -0.980341602 0.191559029 -0.107078645 -0.991254545 0.0771271085 -0.14551155 -0.983024558 0.111754674 -0.17544473 -0.984105773 0.0274768037 -0.186756381 -0.981687752 0.0375661105 -0.184563087 -0.982644833 -0.0185903044 -0.170336685 -0.984925135 -0.0301312339 -0.134589306 -0.989011899 -0.0611651984 -0.0961130165 -0.991201629 -0.0910034017 -0.0501142053 -0.992129794 -0.114747716 9.67372267e-07 -0.98836744 -0.152084857 -0.0489345429 -0.97761572 -0.204628722 4.73137023e-08 -0.97084632 -0.239702782</float_array>
        <technique_common><accessor source="#vfx_kurp_0396-mesh-normals-array" count="95" stride="3"><param name="X" type="float"/><param name="Y" type="float"/><param name="Z" type="float"/></accessor></technique_common>
      </source>
      <source id="vfx_kurp_0396-mesh-uv0">
        <float_array id="vfx_kurp_0396-mesh-uv0-array" count="190">1 0.166666627 1 0.0833333135 0.5 0.166666627 0.5 0.0833333135 1 0 0.5 0 0.5 0.333333313 0.5 0.25 0 0.333333313 0 0.25 0 0.166666627 0 0.0833333135 0 0 1 0.25 1 0.333333313 0.5 0.416666627 1 0.416666627 0.5 0.5 1 0.5 0.5 0.583333313 1 0.583333313 0.5 0.666666627 1 0.666666627 0.5 0.75 1 0.75 0.5 0.833333313 1 0.833333313 0.5 0.916666687 1 0.916666687 0 0.416666627 0 0.5 0 0.583333313 0 0.666666627 0 0.75 0 0.833333313 0 0.916666687 0 1 0.5 1 1 1 1 0.166666627 1 0.0833333135 0.5 0.166666627 0.5 0.0833333135 1 0 0.5 0 0.5 0.333333313 0.5 0.25 0 0.333333313 0 0.25 0.5 0.166666627 0 0.166666627 0.5 0.0833333135 0 0.166666627 0.5 0.0833333135 0 0.0833333135 0.5 0 0 0.0833333135 0.5 0 0 0 0.5 0.25 1 0.25 0.5 0.333333313 1 0.333333313 0.5 0.416666627 1 0.416666627 0.5 0.5 1 0.5 0.5 0.583333313 1 0.583333313 0.5 0.666666627 1 0.666666627 0.5 0.75 1 0.75 0.5 0.833333313 1 0.833333313 0.5 0.916666687 1 0.916666687 0 0.416666627 0.5 0.416666627 0 0.5 0.5 0.5 0 0.583333313 0.5 0.583333313 0 0.666666627 0.5 0.666666627 0 0.75 0.5 0.75 0 0.833333313 0.5 0.833333313 0 0.916666687 0.5 0.916666687 0 1 0.5 1 0.5 1 1 1</float_array>
        <technique_common><accessor source="#vfx_kurp_0396-mesh-uv0-array" count="95" stride="2"><param name="S" type="float"/><param name="T" type="float"/></accessor></technique_common>
      </source>
      <vertices id="vfx_kurp_0396-mesh-vertices"><input semantic="POSITION" source="#vfx_kurp_0396-mesh-positions"/></vertices>
      <triangles material="PreviewMaterial" count="96">
        <input semantic="VERTEX" source="#vfx_kurp_0396-mesh-vertices" offset="0"/>
        <input semantic="NORMAL" source="#vfx_kurp_0396-mesh-normals" offset="1"/>
        <input semantic="TEXCOORD" source="#vfx_kurp_0396-mesh-uv0" offset="2" set="0"/>
        <p>0 0 0 1 1 1 2 2 2 2 2 2 1 1 1 3 3 3 4 4 4 3 3 3 1 1 1 3 3 3 4 4 4 5 5 5 6 6 6 7 7 7 8 8 8 8 8 8 7 7 7 9 9 9 2 2 2 9 9 9 7 7 7 9 9 9 2 2 2 10 10 10 3 3 3 10 10 10 2 2 2 10 10 10 3 3 3 11 11 11 5 5 5 11 11 11 3 3 3 11 11 11 5 5 5 12 12 12 7 7 7 0 0 0 2 2 2 0 0 0 7 7 7 13 13 13 6 6 6 13 13 13 7 7 7 13 13 13 6 6 6 14 14 14 15 15 15 14 14 14 6 6 6 14 14 14 15 15 15 16 16 16 17 17 17 16 16 16 15 15 15 16 16 16 17 17 17 18 18 18 19 19 19 18 18 18 17 17 17 18 18 18 19 19 19 20 20 20 21 21 21 20 20 20 19 19 19 20 20 20 21 21 21 22 22 22 23 23 23 22 22 22 21 21 21 22 22 22 23 23 23 24 24 24 25 25 25 24 24 24 23 23 23 24 24 24 25 25 25 26 26 26 27 27 27 26 26 26 25 25 25 28 28 28 26 26 26 27 27 27 29 29 29 6 6 6 8 8 8 6 6 6 29 29 29 15 15 15 30 30 30 15 15 15 29 29 29 15 15 15 30 30 30 17 17 17 31 31 31 17 17 17 30 30 30 17 17 17 31 31 31 19 19 19 32 32 32 19 19 19 31 31 31 19 19 19 32 32 32 21 21 21 33 33 33 21 21 21 32 32 32 21 21 21 33 33 33 23 23 23 34 34 34 23 23 23 33 33 33 23 23 23 34 34 34 25 25 25 35 35 35 25 25 25 34 34 34 25 25 25 35 35 35 27 27 27 36 36 36 27 27 27 35 35 35 37 37 37 27 27 27 36 36 36 27 27 27 37 37 37 28 28 28 38 38 38 28 28 28 37 37 37 39 39 39 40 40 40 41 41 41 41 41 41 40 40 40 42 42 42 43 43 43 42 42 42 40 40 40 42 42 42 43 43 43 44 44 44 45 45 45 46 46 46 47 47 47 47 47 47 46 46 46 48 48 48 49 49 49 48 48 48 46 46 46 48 48 48 49 49 49 50 50 50 51 51 51 50 50 50 49 49 49 52 52 52 53 53 53 54 54 54 55 55 55 54 54 54 53 53 53 56 56 56 57 57 57 58 58 58 59 59 59 39 39 39 41 41 41 39 39 39 59 59 59 60 60 60 61 61 61 60 60 60 59 59 59 60 60 60 61 61 61 62 62 62 63 63 63 62 62 62 61 61 61 62 62 62 63 63 63 64 64 64 65 65 65 64 64 64 63 63 63 64 64 64 65 65 65 66 66 66 67 67 67 66 66 66 65 65 65 66 66 66 67 67 67 68 68 68 69 69 69 68 68 68 67 67 67 68 68 68 69 69 69 70 70 70 71 71 71 70 70 70 69 69 69 70 70 70 71 71 71 72 72 72 73 73 73 72 72 72 71 71 71 72 72 72 73 73 73 74 74 74 75 75 75 74 74 74 73 73 73 76 76 76 74 74 74 75 75 75 77 77 77 45 45 45 47 47 47 45 45 45 77 77 77 78 78 78 79 79 79 78 78 78 77 77 77 78 78 78 79 79 79 80 80 80 81 81 81 80 80 80 79 79 79 80 80 80 81 81 81 82 82 82 83 83 83 82 82 82 81 81 81 82 82 82 83 83 83 84 84 84 85 85 85 84 84 84 83 83 83 84 84 84 85 85 85 86 86 86 87 87 87 86 86 86 85 85 85 86 86 86 87 87 87 88 88 88 89 89 89 88 88 88 87 87 87 88 88 88 89 89 89 90 90 90 91 91 91 90 90 90 89 89 89 92 92 92 90 90 90 91 91 91 75 75 75 93 93 93 76 76 76 94 94 94 76 76 76 93 93 93</p>
      </triangles>
    </mesh></geometry>
  </library_geometries>
  <library_visual_scenes>
    <visual_scene id="Scene" name="Scene">
      <node id="vfx_kurp_0396" name="vfx_kurp_0396" type="NODE">
        <instance_geometry url="#vfx_kurp_0396-mesh"><bind_material><technique_common><instance_material symbol="PreviewMaterial" target="#PreviewMaterial"><bind_vertex_input semantic="UVSET0" input_semantic="TEXCOORD" input_set="0"/></instance_material></technique_common></bind_material></instance_geometry>
      </node>
    </visual_scene>
  </library_visual_scenes>
  <scene><instance_visual_scene url="#Scene"/></scene>
</COLLADA>
