<?xml version="1.0" encoding="utf-8"?>
<COLLADA xmlns="http://www.collada.org/2005/11/COLLADASchema" version="1.4.1">
  <asset>
    <contributor><authoring_tool>Morrobroom Kurpulio VFX preview converter</authoring_tool></contributor>
    <unit name="unit" meter="1"/>
    <up_axis>Z_UP</up_axis>
  </asset>
  <library_images>
    <image id="VFXTexture" name="darkmap_newgen-1.dds">
      <init_from>../../../Textures/Kurp/darkmap_newgen-1.dds</init_from>
    </image>
  </library_images>
  <library_effects>
    <effect id="PreviewEffect">
      <profile_COMMON>
        <newparam sid="VFXTexture-surface">
          <surface type="2D"><init_from>VFXTexture</init_from></surface>
        </newparam>
        <newparam sid="VFXTexture-sampler">
          <sampler2D><source>VFXTexture-surface</source></sampler2D>
        </newparam>
        <technique sid="common"><phong>
          <emission><color>0.08 0.08 0.08 1</color></emission>
          <ambient><color>0.2 0.2 0.2 1</color></ambient>
          <diffuse><texture texture="VFXTexture-sampler" texcoord="UVSET0"/></diffuse>
          <specular><color>0.15 0.15 0.15 1</color></specular>
          <shininess><float>8</float></shininess>
          <transparent opaque="A_ONE"><texture texture="VFXTexture-sampler" texcoord="UVSET0"/></transparent>
          <transparency><float>1</float></transparency>
        </phong></technique>
      </profile_COMMON>
      <extra><technique profile="GOOGLEEARTH"><double_sided>1</double_sided></technique></extra>
    </effect>
  </library_effects>
  <library_materials><material id="PreviewMaterial" name="PreviewMaterial"><instance_effect url="#PreviewEffect"/></material></library_materials>
  <library_geometries>
    <geometry id="vfx_kurp_0414-mesh" name="vfx_kurp_0414"><mesh>
      <source id="vfx_kurp_0414-mesh-positions">
        <float_array id="vfx_kurp_0414-mesh-positions-array" count="702">-0.742305771 4.37578261 -13.075294 -0.0371270925 4.84554076 -13.8816705 -2.97775984 5.54840326 -14.1029935 -2.20472932 6.18539357 -15.1627579 -0.742305771 4.37578261 -13.075294 2.03331864 5.03097081 -11.928787 -0.0371270925 4.84554076 -13.8816705 1.25868201 4.58117723 -11.2361863 -1.3027879 3.68246627 -12.3628893 0.639400318 3.92878211 -10.6430447 -1.70751017 2.76329184 -11.760875 0.154803336 3.02470458 -10.1238785 -1.89286709 1.70708388 -11.3596573 -0.107019827 1.99294192 -9.80089617 -1.87179744 0.579214007 -11.1662328 -0.164147504 0.871430129 -9.67028475 -1.63960558 -0.542817771 -11.2082241 -0.00355580449 -0.262575746 -9.7685051 -1.20918381 -1.56842011 -11.4978769 0.368172124 -1.31373543 -10.1158819 -0.601637319 -2.41533369 -12.0386124 0.923514426 -2.18113464 -10.7122164 -3.69386208 4.48754847 -13.0149908 -1.3027879 3.68246627 -12.3628893 -4.0822252 3.34468353 -12.2497716 -1.70751017 2.76329184 -11.760875 -4.25956357 1.84541881 -11.6430473 -1.89286709 1.70708388 -11.3596573 -4.1330874 0.28122443 -11.3588247 -1.87179744 0.579214007 -11.1662328 -3.71693695 -1.2278468 -11.4165895 -1.63960558 -0.542817771 -11.2082241 -3.0487361 -2.5587464 -11.8111317 -1.20918381 -1.56842011 -11.4978769 -2.279181 -3.50106883 -12.4224 -0.601637319 -2.41533369 -12.0386124 -1.31674218 -4.19446921 -13.3447752 0.100279167 -2.96178764 -12.7706766 -0.255947359 -4.435431 -14.5323114 0.817462385 -3.15870667 -13.6223874 0.100279167 -2.96178764 -12.7706766 1.5939036 -2.75595778 -11.5122006 0.817462385 -3.15870667 -13.6223874 2.31314152 -2.9719196 -12.46556 1.48926115 -2.97946662 -14.5409088 2.97918802 -2.78098744 -13.4742336 2.00925261 -2.4278571 -15.4074469 3.49338055 -2.19014508 -14.4296007 2.29517913 -1.56506807 -16.115736 3.76559615 -1.26004547 -15.2169929 2.26618266 -0.515414357 -16.5411487 3.70103467 -0.0629281998 -15.7198477 1.91828674 0.558593005 -16.6366911 3.25857782 1.18646818 -15.8312058 1.2696206 1.44912145 -16.3653545 2.45041412 2.23305917 -15.4953303 0.424377367 1.92397535 -15.7779651 1.39390057 2.78782368 -14.7630072 0.610793754 -4.15574455 -15.6552429 1.48926115 -2.97946662 -14.5409088 1.26978636 -3.43668008 -16.6922765 2.00925261 -2.4278571 -15.4074469 1.63368881 -2.36648959 -17.5239472 2.29517913 -1.56506807 -16.115736 1.61136818 -0.995810866 -18.0506229 2.26618266 -0.515414357 -16.5411487 1.17196888 0.354579449 -18.1336212 1.91828674 0.558593005 -16.6366911 0.381228045 1.42078596 -17.7709622 1.2696206 1.44912145 -16.3653545 -0.603626981 1.95613915 -17.0658016 0.424377367 1.92397535 -15.7779651 -1.54932225 1.81702834 -16.2343655 0.424377367 1.92397535 -15.7779651 -0.603626981 1.95613915 -17.0658016 -0.425425753 1.81054759 -15.0396152 -0.425425753 1.81054759 -15.0396152 0.31437631 2.62542933 -13.82336 -3.41838598 -2.83074814 -13.075294 -4.17779768 -2.45492452 -13.8816705 -3.31617844 -5.35301828 -14.1029921 -4.25434291 -5.00204873 -15.1627564 -3.41838598 -2.83074814 -13.075294 -5.37360728 -0.754581392 -11.9287863 -4.17779768 -2.45492452 -13.8816705 -4.59675658 -1.20053977 -11.2361856 -2.53771555 -2.96948165 -12.3628879 -3.72212505 -1.4106558 -10.6430433 -1.53932565 -2.8603937 -11.7608743 -2.69687247 -1.37829012 -10.123877 -0.531944454 -2.49281341 -11.3596559 -1.67242849 -1.08915389 -9.80089545 0.434284732 -1.91063172 -11.1662321 -0.672606647 -0.57787174 -9.67028475 1.28989685 -1.14853138 -11.2082241 0.229175225 0.128207803 -9.7685051 1.96288365 -0.262973785 -11.4978769 0.953641713 0.975713432 -10.1158819 2.39255887 0.686633885 -12.0386124 1.42716104 1.89035404 -10.7122164 -2.03939974 -5.44275355 -13.0149894 -2.53771555 -2.96948165 -12.3628879 -0.855468303 -5.20765257 -12.2497702 -1.53932565 -2.8603937 -11.7608743 0.531602338 -4.61159992 -11.6430466 -0.531944454 -2.49281341 -11.3596559 1.82299644 -3.7199707 -11.3588247 0.434284732 -1.91063172 -11.1662321 2.92181522 -2.60503846 -11.4165895 1.28989685 -1.14853138 -11.2082241 3.74030721 -1.3609094 -11.8111324 1.96288365 -0.262973785 -11.4978769 4.17160463 -0.223294258 -12.4224014 2.39255887 0.686633885 -12.0386124 4.29088855 0.9569031 -13.3447752 2.51484364 1.56773812 -12.7706766 3.96916974 1.996059 -14.5323129 2.32678878 2.28729665 -13.6223888 2.51484364 1.56773812 -12.7706766 1.58977783 2.75833958 -11.5122013 2.32678878 2.28729665 -13.6223888 1.41718698 3.48919916 -12.4655614 1.83566308 2.77947146 -14.5409102 0.918811619 3.97054553 -13.4742351 1.0979594 2.95399225 -15.4074469 0.150031149 4.12042809 -14.4296021 0.20779945 2.77021748 -16.1157374 -0.79156673 3.89112425 -15.2169929 -0.686729372 2.2202788 -16.5411487 -1.79601967 3.23665309 -15.7198477 -1.44289899 1.38198799 -16.6366911 -2.65680009 2.22877586 -15.8312058 -1.88978612 0.374962449 -16.3653545 -3.1590929 1.00559029 -15.4953303 -1.87839979 -0.594466388 -15.7779651 -3.11127627 -0.186759531 -14.7630072 3.29358315 2.60683554 -15.6552429 1.83566308 2.77947146 -14.5409102 2.34135908 2.81800783 -16.6922779 1.0979594 2.95399225 -15.4074469 1.23259592 2.59806114 -17.5239487 0.20779945 2.77021748 -16.1157374 0.056713745 1.89339119 -18.0506229 -0.686729372 2.2202788 -16.5411487 -0.893059194 0.837665051 -18.1336212 -1.44289899 1.38198799 -16.6366911 -1.42105061 -0.380240142 -17.7709622 -1.88978612 0.374962449 -16.3653545 -1.39225262 -1.50082594 -17.0658016 -1.87839979 -0.594466388 -15.7779651 -0.79893145 -2.25026625 -16.2343655 -1.87839979 -0.594466388 -15.7779651 -1.39225262 -1.50082594 -17.0658016 -1.35526711 -1.27370363 -15.0396137 -1.35526711 -1.27370363 -15.0396137 -2.43087637 -1.04045731 -13.82336 4.16069233 -1.54503483 -13.075294 4.21492624 -2.39061624 -13.8816705 6.29393864 -0.1953848 -14.1029935 6.45907259 -1.18334395 -15.1627579 4.16069233 -1.54503483 -13.075294 3.34029043 -4.27639031 -11.9287863 4.21492624 -2.39061624 -13.8816705 3.338076 -3.38063908 -11.2361856 3.84050417 -0.712984979 -12.3628893 3.08272612 -2.51812702 -10.643044 3.24683654 0.0971015096 -11.7608757 2.54206985 -1.64641553 -10.123877 2.42481136 0.785728902 -11.3596573 1.77944845 -0.903789103 -9.80089545 1.43751276 1.33141682 -11.1662328 0.836754262 -0.293559372 -9.67028403 0.349708423 1.69134825 -11.2082233 -0.225619353 0.134366691 -9.76850438 -0.753700286 1.83139318 -11.4978762 -1.32181406 0.338020027 -10.1158812 -1.79092222 1.72869891 -12.0386124 -2.35067582 0.290779352 -10.7122157 5.7332629 0.95520553 -13.0149908 3.84050417 -0.712984979 -12.3628893 4.93769395 1.86296958 -12.2497716 3.24683654 0.0971015096 -11.7608757 3.72796154 2.76618111 -11.6430473 2.42481136 0.785728902 -11.3596573 2.3100906 3.43874645 -11.3588247 1.43751276 1.33141682 -11.1662328 0.795121551 3.83288455 -11.4165902 0.349708423 1.69134825 -11.2082233 -0.691572011 3.91965473 -11.8111317 -0.753700286 1.83139318 -11.4978762 -1.89242417 3.72436094 -12.4224 -1.79092222 1.72869891 -12.0386124 -2.9741469 3.23756504 -13.3447752 -2.61512339 1.39404836 -12.7706766 -3.71322227 2.43937093 -14.5323114 -3.1442517 0.87140885 -13.6223874 -2.61512339 1.39404836 -12.7706766 -3.18368161 -0.00238341093 -11.5121999 -3.1442517 0.87140885 -13.6223874 -3.73032904 -0.517281175 -12.46556 -3.32492423 0.199993908 -14.5409088 -3.89799964 -1.18955988 -13.4742336 -3.10721183 -0.526136041 -15.4074454 -3.64341116 -1.93028444 -14.4296007 -2.50297844 -1.20514995 -16.115736 -2.97402924 -2.63108021 -15.2169914 -1.57945311 -1.70486516 -16.5411472 -1.90501428 -3.17372632 -15.7198462 -0.475387082 -1.94058162 -16.6366897 -0.601776436 -3.41524458 -15.8312058 0.620166376 -1.82408398 -16.3653545 0.7086799 -3.23865008 -15.4953289 1.45402354 -1.3295086 -15.7779651 1.71737659 -2.6010645 -14.7630072 -3.90437758 1.54890776 -15.6552415 -3.32492423 0.199993908 -14.5409088 -3.61114597 0.618671715 -16.692275 -3.10721183 -0.526136041 -15.4074454 -2.86628473 -0.231571734 -17.5239472 -2.50297844 -1.20514995 -16.115736 -1.66808134 -0.897580683 -18.0506229 -1.57945311 -1.70486516 -16.5411472 -0.278909259 -1.19224459 -18.1336212 -0.475387082 -1.94058162 -16.6366897 1.03982306 -1.04054582 -17.7709622 0.620166376 -1.82408398 -16.3653545 1.99588019 -0.45531249 -17.0658016 1.45402354 -1.3295086 -15.7779651 2.34825397 0.433238804 -16.2343655 1.45402354 -1.3295086 -15.7779651 1.99588019 -0.45531249 -17.0658016 1.78069353 -0.536844134 -15.0396152 1.78069353 -0.536844134 -15.0396152 2.11650091 -1.5849722 -13.82336</float_array>
        <technique_common><accessor source="#vfx_kurp_0414-mesh-positions-array" count="234" stride="3"><param name="X" type="float"/><param name="Y" type="float"/><param name="Z" type="float"/></accessor></technique_common>
      </source>
      <source id="vfx_kurp_0414-mesh-normals">
        <float_array id="vfx_kurp_0414-mesh-normals-array" count="702">0.0931577626 0.750150337 0.654672516 0.145745664 0.795132513 0.588661608 0.0974703188 0.755450353 0.64791535 0.14641468 0.797057436 0.585885813 -0.390797917 0.858612486 0.331755313 -0.317320406 0.916224299 0.24462378 -0.319810775 0.913258903 0.252347467 -0.384152287 0.866394208 0.319042469 -0.515954326 0.706966057 0.48372526 -0.511346645 0.717585752 0.472858644 -0.610620362 0.495852755 0.617472929 -0.608831818 0.506564971 0.610504503 -0.658937593 0.244116924 0.711483082 -0.65938067 0.254793493 0.707317049 -0.655894279 -0.0220858436 0.754529595 -0.658348323 -0.0114043476 0.752627017 -0.600463215 -0.298828574 0.741717879 -0.603982038 -0.290215466 0.74228073 -0.49056399 -0.563819886 0.664420129 -0.494562731 -0.557615596 0.666687748 -0.330455155 -0.787868263 0.519675852 -0.336152971 -0.782634259 0.523912967 0.00432384789 0.637945985 0.770068974 0.00396940298 0.634034216 0.773294806 -0.0631971584 0.482036502 0.873868943 -0.0639422922 0.46596233 0.882491071 -0.10081657 0.280865311 0.954437372 -0.0983837697 0.26790765 0.95840812 -0.0930103976 0.058770695 0.993929108 -0.0933878595 0.0562278419 0.994040813 -0.0413973674 -0.17029624 0.984522955 -0.0467368802 -0.166304689 0.9849662 0.050937708 -0.381593224 0.922925762 0.0462554882 -0.377833726 0.924717311 0.173688222 -0.556167556 0.812717695 0.185130386 -0.563912386 0.804816477 0.335871516 -0.68985289 0.641321537 0.348335418 -0.693735009 0.63039208 0.526898321 -0.740515346 0.417151269 0.52223736 -0.742216646 0.419979274 -0.136281177 -0.938859221 0.316181599 -0.141396318 -0.936341429 0.321359315 0.0710977106 -0.995129128 0.068287143 0.0710074605 -0.994974019 0.0706019999 0.270725131 -0.940543591 -0.205147892 0.272093898 -0.940544209 -0.203326096 0.43221789 -0.768957306 -0.471054517 0.432785121 -0.770174856 -0.468537864 0.527169036 -0.481049735 -0.700488372 0.527362415 -0.486094244 -0.696850967 0.519960231 -0.114534618 -0.846476922 0.522578125 -0.112513417 -0.845134802 0.392177314 0.278892726 -0.876593293 0.393491542 0.290502135 -0.872222973 0.135523722 0.632200722 -0.762860124 0.132735355 0.644767215 -0.752765942 -0.222916711 0.833928898 -0.504847237 -0.225130942 0.839110599 -0.495186291 0.701124148 -0.690042631 0.179627661 0.69643659 -0.694293565 0.181473197 0.838633995 -0.541880536 -0.0553037735 0.838593408 -0.541744162 -0.0572220188 0.919250736 -0.288873407 -0.267451378 0.920588392 -0.279899007 -0.27234823 0.907906496 0.062719071 -0.414453994 0.907016403 0.0615791124 -0.416568431 0.775696567 0.447875763 -0.444637085 0.777956915 0.436260945 -0.452171899 0.510583944 0.792320144 -0.333965306 0.516310346 0.783161062 -0.346529044 0.335137603 0.912122837 -0.236039651 0.338233205 0.907983309 -0.247314798 -0.0720886791 0.994283767 0.0787592061 -0.0715751865 0.994498125 0.076488375 -0.0730827954 0.993852829 0.0831592361 -0.0704936962 0.994931313 0.0717099811 -0.40726095 0.851587942 -0.330055293 -0.4093312 0.853382464 -0.322779087 -0.696228389 -0.294397982 0.654672329 -0.761477902 -0.271346455 0.588661622 -0.702974431 -0.293313083 0.647915415 -0.763479626 -0.27172958 0.585885566 -0.548181484 -0.767747177 0.331754929 -0.634813379 -0.732919705 0.244623546 -0.631000055 -0.733593718 0.252347355 -0.558243324 -0.765882776 0.31904226 -0.354273257 -0.800312691 0.483725186 -0.365774001 -0.801632215 0.472858512 -0.124110697 -0.77673929 0.617472761 -0.134281906 -0.780546441 0.6105044 0.118057532 -0.692715157 0.71148305 0.109033195 -0.698436905 0.707317222 0.347074427 -0.556977761 0.754529731 0.339050887 -0.564443884 0.752627131 0.559024871 -0.370601923 0.741717876 0.553325103 -0.377955934 0.742280703 0.733564377 -0.142930746 0.664420128 0.73019065 -0.149496052 0.666687741 0.847541507 0.107751593 0.519675849 0.845857579 0.100199918 0.523913097 -0.554639352 -0.31522832 0.77006902 -0.551074624 -0.31357947 0.773294688 -0.385857012 -0.29574844 0.873869113 -0.371563785 -0.288356745 0.882491213 -0.192827853 -0.227742347 0.954437448 -0.182822813 -0.219156942 0.958408083 -0.0043912577 -0.109934815 0.993929099 -0.0020003067 -0.108990049 0.994040828 0.168179828 0.0492971214 0.984522899 0.167392899 0.042677277 0.984966125 0.305000996 0.234910254 0.922925547 0.304086303 0.228975136 0.924717204 0.394811502 0.428501685 0.812717776 0.395797516 0.442283476 0.804816534 0.429494241 0.63579966 0.641321673 0.426624125 0.648535141 0.630391963 0.377855714 0.826565138 0.417151209 0.381659546 0.823379297 0.419979195 0.881216533 0.351406786 0.316181424 0.881593597 0.34571812 0.321359162 0.826258225 0.559137035 0.0682870508 0.826168956 0.55898142 0.0706018956 0.679171822 0.704726837 -0.205148048 0.678488006 0.70591252 -0.203326192 0.449827917 0.758790267 -0.471054323 0.450598351 0.759890424 -0.468537799 0.153016198 0.697066799 -0.700488344 0.157287955 0.699756621 -0.696850895 -0.160790812 0.507566142 -0.846476773 -0.16384994 0.508822695 -0.845134701 -0.437617015 0.200189208 -0.876593195 -0.448328069 0.195522587 -0.872222942 -0.615263714 -0.198733424 -0.762860137 -0.62475241 -0.207431513 -0.752765962 -0.610745005 -0.610016099 -0.504847401 -0.61412526 -0.61452467 -0.495186425 0.247032295 0.952212613 0.179627907 0.253057338 0.950278606 0.18147329 0.0499649406 0.997218639 -0.0553036241 0.0498673014 0.997115299 -0.0572217806 -0.209454003 0.94053115 -0.267451261 -0.217894765 0.937202404 -0.272348168 -0.508269674 0.754910478 -0.414453988 -0.506837612 0.754709431 -0.416568493 -0.775720107 0.447835081 -0.444636993 -0.766791695 0.45559987 -0.452171709 -0.941461346 0.0460185456 -0.333965309 -0.936392601 0.0555572396 -0.346528916 -0.957490371 -0.16582377 -0.236039546 -0.955453274 -0.161073237 -0.247314482 -0.825030619 -0.559572574 0.0787592004 -0.825473023 -0.559235045 0.0764882576 -0.824160336 -0.560218035 0.0831594466 -0.826388957 -0.558515014 0.0717096256 -0.533865873 -0.778492576 -0.330055358 -0.534384899 -0.781182696 -0.322779144 0.603070448 -0.455752053 0.654672514 0.615732258 -0.523785536 0.588661616 0.605504152 -0.462136952 0.647915241 0.617064902 -0.52532763 0.585885473 0.938979247 -0.0908651331 0.331755184 0.952133788 -0.183304387 0.244623694 0.95081079 -0.179664731 0.252347827 0.942395624 -0.100511305 0.319042264 0.870227739 0.0933468325 0.483725182 0.877120848 0.0840466615 0.472858516 0.734731239 0.280886822 0.617472753 0.743113931 0.273981898 0.610504386 0.540880273 0.448598602 0.711482836 0.550347687 0.443644197 0.707316937 0.308820421 0.579064181 0.754529404 0.319297585 0.575848763 0.752626902 0.0414385635 0.669430773 0.741717794 0.0506568038 0.668171536 0.742280733 -0.243000759 0.706750686 0.664420123 -0.235628109 0.707111705 0.666687656 -0.51708657 0.680116659 0.519675677 -0.50970448 0.682434273 0.523912976 0.550315552 -0.322717573 0.770068933 0.547104958 -0.320454689 0.773294871 0.449054281 -0.186287914 0.873869021 0.435506142 -0.177605483 0.882491186 0.293644756 -0.0531230456 0.954437373 0.281206808 -0.0487510696 0.958408089 0.0974018555 0.0511641157 0.993929128 0.0953888223 0.0527625271 0.994040788 -0.126781955 0.120999679 0.984522937 -0.120655147 0.123628137 0.984966202 -0.355938254 0.146683677 0.922925706 -0.350341506 0.148858714 0.924717207 -0.568499322 0.127665623 0.812717669 -0.580927856 0.121628629 0.804816316 -0.765365898 0.0540529824 0.64132154 -0.774959916 0.0452000086 0.630392011 -0.90475425 -0.0860495595 0.417151315 -0.903897158 -0.0811625787 0.419979241 -0.744935428 0.587452571 0.316181411 -0.740197429 0.590623446 0.321359162 -0.897356053 0.435991982 0.0682869419 -0.897176598 0.435992586 0.0706018115 -0.949897188 0.235816707 -0.205148269 -0.950582078 0.234631864 -0.203326343 -0.882045549 0.0101674709 -0.471054425 -0.883383505 0.0102844954 -0.468537952 -0.68018557 -0.21601737 -0.700488462 -0.684650936 -0.213662796 -0.696850993 -0.3591696 -0.393031863 -0.846476907 -0.358728639 -0.396309188 -0.845134776 0.0454391469 -0.479081576 -0.876593479 0.054836276 -0.486024491 -0.872223124 0.479739968 -0.433467511 -0.762860066 0.49201738 -0.43733611 -0.752765584 0.833661984 -0.223912987 -0.504847175 0.839256426 -0.224586269 -0.49518649 -0.948156442 -0.262170083 0.179627975 -0.949494009 -0.255985559 0.181473196 -0.888599085 -0.455338531 -0.0553036026 -0.888460794 -0.455371369 -0.057221795 -0.709796957 -0.651657931 -0.267451343 -0.702693871 -0.657303445 -0.272348132 -0.399636651 -0.817629804 -0.414453919 -0.400178683 -0.816289091 -0.416568292 2.37027168e-05 -0.895710968 -0.444636774 -0.0111652575 -0.891861081 -0.452171594 0.430877503 -0.838338725 -0.333965209 0.420082175 -0.838718401 -0.346529091 0.622352899 -0.746298969 -0.236039654 0.617220115 -0.746910109 -0.247314815 0.897119466 -0.434711011 0.0787591341 0.897048314 -0.435262987 0.0764882655 0.897243316 -0.433634607 0.0831592451 0.896882736 -0.43641616 0.0717097837 0.941127298 -0.0730954928 -0.330055236 0.943716512 -0.0721999024 -0.322779055</float_array>
        <technique_common><accessor source="#vfx_kurp_0414-mesh-normals-array" count="234" stride="3"><param name="X" type="float"/><param name="Y" type="float"/><param name="Z" type="float"/></accessor></technique_common>
      </source>
      <source id="vfx_kurp_0414-mesh-uv0">
        <float_array id="vfx_kurp_0414-mesh-uv0-array" count="468">0.5 0.0555555224 0.5 0 0 0.0555555224 0 0 0.5 0.0555555224 1 0 0.5 0 1 0.0555555224 0.5 0.111111104 1 0.111111104 0.5 0.166666687 1 0.166666687 0.5 0.222222209 1 0.222222209 0.5 0.277777791 1 0.277777791 0.5 0.333333313 1 0.333333313 0.5 0.388888896 1 0.388888896 0.5 0.444444418 1 0.444444418 0 0.111111104 0.5 0.111111104 0 0.166666687 0.5 0.166666687 0 0.222222209 0.5 0.222222209 0 0.277777791 0.5 0.277777791 0 0.333333313 0.5 0.333333313 0 0.388888896 0.5 0.388888896 0 0.444444418 0.5 0.444444418 0 0.5 0.5 0.5 0 0.555555582 0.5 0.555555582 0.5 0.5 1 0.5 0.5 0.555555582 1 0.555555582 0.5 0.611111104 1 0.611111104 0.5 0.666666627 1 0.666666627 0.5 0.722222209 1 0.722222209 0.5 0.777777791 1 0.777777791 0.5 0.833333313 1 0.833333313 0.5 0.888888896 1 0.888888896 0.5 0.944444418 1 0.944444418 0 0.611111104 0.5 0.611111104 0 0.666666627 0.5 0.666666627 0 0.722222209 0.5 0.722222209 0 0.777777791 0.5 0.777777791 0 0.833333313 0.5 0.833333313 0 0.888888896 0.5 0.888888896 0 0.944444418 0.5 0.944444418 0 1 0.5 0.944444418 0 0.944444418 0.5 1 0.5 1 1 1 0.5 0.0555555224 0.5 0 0 0.0555555224 0 0 0.5 0.0555555224 1 0 0.5 0 1 0.0555555224 0.5 0.111111104 1 0.111111104 0.5 0.166666687 1 0.166666687 0.5 0.222222209 1 0.222222209 0.5 0.277777791 1 0.277777791 0.5 0.333333313 1 0.333333313 0.5 0.388888896 1 0.388888896 0.5 0.444444418 1 0.444444418 0 0.111111104 0.5 0.111111104 0 0.166666687 0.5 0.166666687 0 0.222222209 0.5 0.222222209 0 0.277777791 0.5 0.277777791 0 0.333333313 0.5 0.333333313 0 0.388888896 0.5 0.388888896 0 0.444444418 0.5 0.444444418 0 0.5 0.5 0.5 0 0.555555582 0.5 0.555555582 0.5 0.5 1 0.5 0.5 0.555555582 1 0.555555582 0.5 0.611111104 1 0.611111104 0.5 0.666666627 1 0.666666627 0.5 0.722222209 1 0.722222209 0.5 0.777777791 1 0.777777791 0.5 0.833333313 1 0.833333313 0.5 0.888888896 1 0.888888896 0.5 0.944444418 1 0.944444418 0 0.611111104 0.5 0.611111104 0 0.666666627 0.5 0.666666627 0 0.722222209 0.5 0.722222209 0 0.777777791 0.5 0.777777791 0 0.833333313 0.5 0.833333313 0 0.888888896 0.5 0.888888896 0 0.944444418 0.5 0.944444418 0 1 0.5 0.944444418 0 0.944444418 0.5 1 0.5 1 1 1 0.5 0.0555555224 0.5 0 0 0.0555555224 0 0 0.5 0.0555555224 1 0 0.5 0 1 0.0555555224 0.5 0.111111104 1 0.111111104 0.5 0.166666687 1 0.166666687 0.5 0.222222209 1 0.222222209 0.5 0.277777791 1 0.277777791 0.5 0.333333313 1 0.333333313 0.5 0.388888896 1 0.388888896 0.5 0.444444418 1 0.444444418 0 0.111111104 0.5 0.111111104 0 0.166666687 0.5 0.166666687 0 0.222222209 0.5 0.222222209 0 0.277777791 0.5 0.277777791 0 0.333333313 0.5 0.333333313 0 0.388888896 0.5 0.388888896 0 0.444444418 0.5 0.444444418 0 0.5 0.5 0.5 0 0.555555582 0.5 0.555555582 0.5 0.5 1 0.5 0.5 0.555555582 1 0.555555582 0.5 0.611111104 1 0.611111104 0.5 0.666666627 1 0.666666627 0.5 0.722222209 1 0.722222209 0.5 0.777777791 1 0.777777791 0.5 0.833333313 1 0.833333313 0.5 0.888888896 1 0.888888896 0.5 0.944444418 1 0.944444418 0 0.611111104 0.5 0.611111104 0 0.666666627 0.5 0.666666627 0 0.722222209 0.5 0.722222209 0 0.777777791 0.5 0.777777791 0 0.833333313 0.5 0.833333313 0 0.888888896 0.5 0.888888896 0 0.944444418 0.5 0.944444418 0 1 0.5 0.944444418 0 0.944444418 0.5 1 0.5 1 1 1</float_array>
        <technique_common><accessor source="#vfx_kurp_0414-mesh-uv0-array" count="234" stride="2"><param name="S" type="float"/><param name="T" type="float"/></accessor></technique_common>
      </source>
      <source id="vfx_kurp_0414-mesh-colors">
        <float_array id="vfx_kurp_0414-mesh-colors-array" count="936">0.0392156877 0.0392156877 0.0392156877 0.449999988 0.0392156877 0.0392156877 0.0392156877 0 0.0392156877 0.0392156877 0.0392156877 0 0.0392156877 0.0392156877 0.0392156877 0 0.0392156877 0.0392156877 0.0392156877 0.449999988 0.0392156877 0.0392156877 0.0392156877 0 0.0392156877 0.0392156877 0.0392156877 0 0.0392156877 0.0392156877 0.0392156877 0 0.0392156877 0.0392156877 0.0392156877 0.649999976 0.0392156877 0.0392156877 0.0392156877 0 0.0392156877 0.0392156877 0.0392156877 0.75 0.0392156877 0.0392156877 0.0392156877 0 0.0392156877 0.0392156877 0.0392156877 0.849999964 0.0392156877 0.0392156877 0.0392156877 0 0.0392156877 0.0392156877 0.0392156877 0.899999976 0.0392156877 0.0392156877 0.0392156877 0 0.0392156877 0.0392156877 0.0392156877 1 0.0392156877 0.0392156877 0.0392156877 0 0.0392156877 0.0392156877 0.0392156877 1 0.0392156877 0.0392156877 0.0392156877 0 0.0392156877 0.0392156877 0.0392156877 1 0.0392156877 0.0392156877 0.0392156877 0 0.0392156877 0.0392156877 0.0392156877 0 0.0392156877 0.0392156877 0.0392156877 0.649999976 0.0392156877 0.0392156877 0.0392156877 0 0.0392156877 0.0392156877 0.0392156877 0.75 0.0392156877 0.0392156877 0.0392156877 0 0.0392156877 0.0392156877 0.0392156877 0.849999964 0.0392156877 0.0392156877 0.0392156877 0 0.0392156877 0.0392156877 0.0392156877 0.899999976 0.0392156877 0.0392156877 0.0392156877 0 0.0392156877 0.0392156877 0.0392156877 1 0.0392156877 0.0392156877 0.0392156877 0 0.0392156877 0.0392156877 0.0392156877 1 0.0392156877 0.0392156877 0.0392156877 0 0.0392156877 0.0392156877 0.0392156877 1 0.0392156877 0.0392156877 0.0392156877 0 0.0392156877 0.0392156877 0.0392156877 1 0.0392156877 0.0392156877 0.0392156877 0 0.0392156877 0.0392156877 0.0392156877 1 0.0392156877 0.0392156877 0.0392156877 1 0.0392156877 0.0392156877 0.0392156877 0 0.0392156877 0.0392156877 0.0392156877 1 0.0392156877 0.0392156877 0.0392156877 0 0.0392156877 0.0392156877 0.0392156877 1 0.0392156877 0.0392156877 0.0392156877 0 0.0392156877 0.0392156877 0.0392156877 1 0.0392156877 0.0392156877 0.0392156877 0 0.0392156877 0.0392156877 0.0392156877 0.899999976 0.0392156877 0.0392156877 0.0392156877 0 0.0392156877 0.0392156877 0.0392156877 0.849999964 0.0392156877 0.0392156877 0.0392156877 0 0.0392156877 0.0392156877 0.0392156877 0.75 0.0392156877 0.0392156877 0.0392156877 0 0.0392156877 0.0392156877 0.0392156877 0.649999976 0.0392156877 0.0392156877 0.0392156877 0 0.0392156877 0.0392156877 0.0392156877 0.449999988 0.0392156877 0.0392156877 0.0392156877 0 0.0392156877 0.0392156877 0.0392156877 0 0.0392156877 0.0392156877 0.0392156877 1 0.0392156877 0.0392156877 0.0392156877 0 0.0392156877 0.0392156877 0.0392156877 1 0.0392156877 0.0392156877 0.0392156877 0 0.0392156877 0.0392156877 0.0392156877 0.899999976 0.0392156877 0.0392156877 0.0392156877 0 0.0392156877 0.0392156877 0.0392156877 0.849999964 0.0392156877 0.0392156877 0.0392156877 0 0.0392156877 0.0392156877 0.0392156877 0.75 0.0392156877 0.0392156877 0.0392156877 0 0.0392156877 0.0392156877 0.0392156877 0.649999976 0.0392156877 0.0392156877 0.0392156877 0 0.0392156877 0.0392156877 0.0392156877 0.449999988 0.0392156877 0.0392156877 0.0392156877 0 0.0392156877 0.0392156877 0.0392156877 0.449999988 0.0392156877 0.0392156877 0.0392156877 0 0.0392156877 0.0392156877 0.0392156877 0 0.0392156877 0.0392156877 0.0392156877 0 0.0392156877 0.0392156877 0.0392156877 0 0.0392156877 0.0392156877 0.0392156877 0.449999988 0.0392156877 0.0392156877 0.0392156877 0 0.0392156877 0.0392156877 0.0392156877 0 0.0392156877 0.0392156877 0.0392156877 0 0.0392156877 0.0392156877 0.0392156877 0.449999988 0.0392156877 0.0392156877 0.0392156877 0 0.0392156877 0.0392156877 0.0392156877 0 0.0392156877 0.0392156877 0.0392156877 0 0.0392156877 0.0392156877 0.0392156877 0.649999976 0.0392156877 0.0392156877 0.0392156877 0 0.0392156877 0.0392156877 0.0392156877 0.75 0.0392156877 0.0392156877 0.0392156877 0 0.0392156877 0.0392156877 0.0392156877 0.849999964 0.0392156877 0.0392156877 0.0392156877 0 0.0392156877 0.0392156877 0.0392156877 0.899999976 0.0392156877 0.0392156877 0.0392156877 0 0.0392156877 0.0392156877 0.0392156877 1 0.0392156877 0.0392156877 0.0392156877 0 0.0392156877 0.0392156877 0.0392156877 1 0.0392156877 0.0392156877 0.0392156877 0 0.0392156877 0.0392156877 0.0392156877 1 0.0392156877 0.0392156877 0.0392156877 0 0.0392156877 0.0392156877 0.0392156877 0 0.0392156877 0.0392156877 0.0392156877 0.649999976 0.0392156877 0.0392156877 0.0392156877 0 0.0392156877 0.0392156877 0.0392156877 0.75 0.0392156877 0.0392156877 0.0392156877 0 0.0392156877 0.0392156877 0.0392156877 0.849999964 0.0392156877 0.0392156877 0.0392156877 0 0.0392156877 0.0392156877 0.0392156877 0.899999976 0.0392156877 0.0392156877 0.0392156877 0 0.0392156877 0.0392156877 0.0392156877 1 0.0392156877 0.0392156877 0.0392156877 0 0.0392156877 0.0392156877 0.0392156877 1 0.0392156877 0.0392156877 0.0392156877 0 0.0392156877 0.0392156877 0.0392156877 1 0.0392156877 0.0392156877 0.0392156877 0 0.0392156877 0.0392156877 0.0392156877 1 0.0392156877 0.0392156877 0.0392156877 0 0.0392156877 0.0392156877 0.0392156877 1 0.0392156877 0.0392156877 0.0392156877 1 0.0392156877 0.0392156877 0.0392156877 0 0.0392156877 0.0392156877 0.0392156877 1 0.0392156877 0.0392156877 0.0392156877 0 0.0392156877 0.0392156877 0.0392156877 1 0.0392156877 0.0392156877 0.0392156877 0 0.0392156877 0.0392156877 0.0392156877 1 0.0392156877 0.0392156877 0.0392156877 0 0.0392156877 0.0392156877 0.0392156877 0.899999976 0.0392156877 0.0392156877 0.0392156877 0 0.0392156877 0.0392156877 0.0392156877 0.849999964 0.0392156877 0.0392156877 0.0392156877 0 0.0392156877 0.0392156877 0.0392156877 0.75 0.0392156877 0.0392156877 0.0392156877 0 0.0392156877 0.0392156877 0.0392156877 0.649999976 0.0392156877 0.0392156877 0.0392156877 0 0.0392156877 0.0392156877 0.0392156877 0.449999988 0.0392156877 0.0392156877 0.0392156877 0 0.0392156877 0.0392156877 0.0392156877 0 0.0392156877 0.0392156877 0.0392156877 1 0.0392156877 0.0392156877 0.0392156877 0 0.0392156877 0.0392156877 0.0392156877 1 0.0392156877 0.0392156877 0.0392156877 0 0.0392156877 0.0392156877 0.0392156877 0.899999976 0.0392156877 0.0392156877 0.0392156877 0 0.0392156877 0.0392156877 0.0392156877 0.849999964 0.0392156877 0.0392156877 0.0392156877 0 0.0392156877 0.0392156877 0.0392156877 0.75 0.0392156877 0.0392156877 0.0392156877 0 0.0392156877 0.0392156877 0.0392156877 0.649999976 0.0392156877 0.0392156877 0.0392156877 0 0.0392156877 0.0392156877 0.0392156877 0.449999988 0.0392156877 0.0392156877 0.0392156877 0 0.0392156877 0.0392156877 0.0392156877 0.449999988 0.0392156877 0.0392156877 0.0392156877 0 0.0392156877 0.0392156877 0.0392156877 0 0.0392156877 0.0392156877 0.0392156877 0 0.0392156877 0.0392156877 0.0392156877 0 0.0392156877 0.0392156877 0.0392156877 0.449999988 0.0392156877 0.0392156877 0.0392156877 0 0.0392156877 0.0392156877 0.0392156877 0 0.0392156877 0.0392156877 0.0392156877 0 0.0392156877 0.0392156877 0.0392156877 0.449999988 0.0392156877 0.0392156877 0.0392156877 0 0.0392156877 0.0392156877 0.0392156877 0 0.0392156877 0.0392156877 0.0392156877 0 0.0392156877 0.0392156877 0.0392156877 0.649999976 0.0392156877 0.0392156877 0.0392156877 0 0.0392156877 0.0392156877 0.0392156877 0.75 0.0392156877 0.0392156877 0.0392156877 0 0.0392156877 0.0392156877 0.0392156877 0.849999964 0.0392156877 0.0392156877 0.0392156877 0 0.0392156877 0.0392156877 0.0392156877 0.899999976 0.0392156877 0.0392156877 0.0392156877 0 0.0392156877 0.0392156877 0.0392156877 1 0.0392156877 0.0392156877 0.0392156877 0 0.0392156877 0.0392156877 0.0392156877 1 0.0392156877 0.0392156877 0.0392156877 0 0.0392156877 0.0392156877 0.0392156877 1 0.0392156877 0.0392156877 0.0392156877 0 0.0392156877 0.0392156877 0.0392156877 0 0.0392156877 0.0392156877 0.0392156877 0.649999976 0.0392156877 0.0392156877 0.0392156877 0 0.0392156877 0.0392156877 0.0392156877 0.75 0.0392156877 0.0392156877 0.0392156877 0 0.0392156877 0.0392156877 0.0392156877 0.849999964 0.0392156877 0.0392156877 0.0392156877 0 0.0392156877 0.0392156877 0.0392156877 0.899999976 0.0392156877 0.0392156877 0.0392156877 0 0.0392156877 0.0392156877 0.0392156877 1 0.0392156877 0.0392156877 0.0392156877 0 0.0392156877 0.0392156877 0.0392156877 1 0.0392156877 0.0392156877 0.0392156877 0 0.0392156877 0.0392156877 0.0392156877 1 0.0392156877 0.0392156877 0.0392156877 0 0.0392156877 0.0392156877 0.0392156877 1 0.0392156877 0.0392156877 0.0392156877 0 0.0392156877 0.0392156877 0.0392156877 1 0.0392156877 0.0392156877 0.0392156877 1 0.0392156877 0.0392156877 0.0392156877 0 0.0392156877 0.0392156877 0.0392156877 1 0.0392156877 0.0392156877 0.0392156877 0 0.0392156877 0.0392156877 0.0392156877 1 0.0392156877 0.0392156877 0.0392156877 0 0.0392156877 0.0392156877 0.0392156877 1 0.0392156877 0.0392156877 0.0392156877 0 0.0392156877 0.0392156877 0.0392156877 0.899999976 0.0392156877 0.0392156877 0.0392156877 0 0.0392156877 0.0392156877 0.0392156877 0.849999964 0.0392156877 0.0392156877 0.0392156877 0 0.0392156877 0.0392156877 0.0392156877 0.75 0.0392156877 0.0392156877 0.0392156877 0 0.0392156877 0.0392156877 0.0392156877 0.649999976 0.0392156877 0.0392156877 0.0392156877 0 0.0392156877 0.0392156877 0.0392156877 0.449999988 0.0392156877 0.0392156877 0.0392156877 0 0.0392156877 0.0392156877 0.0392156877 0 0.0392156877 0.0392156877 0.0392156877 1 0.0392156877 0.0392156877 0.0392156877 0 0.0392156877 0.0392156877 0.0392156877 1 0.0392156877 0.0392156877 0.0392156877 0 0.0392156877 0.0392156877 0.0392156877 0.899999976 0.0392156877 0.0392156877 0.0392156877 0 0.0392156877 0.0392156877 0.0392156877 0.849999964 0.0392156877 0.0392156877 0.0392156877 0 0.0392156877 0.0392156877 0.0392156877 0.75 0.0392156877 0.0392156877 0.0392156877 0 0.0392156877 0.0392156877 0.0392156877 0.649999976 0.0392156877 0.0392156877 0.0392156877 0 0.0392156877 0.0392156877 0.0392156877 0.449999988 0.0392156877 0.0392156877 0.0392156877 0 0.0392156877 0.0392156877 0.0392156877 0.449999988 0.0392156877 0.0392156877 0.0392156877 0 0.0392156877 0.0392156877 0.0392156877 0 0.0392156877 0.0392156877 0.0392156877 0 0.0392156877 0.0392156877 0.0392156877 0</float_array>
        <technique_common><accessor source="#vfx_kurp_0414-mesh-colors-array" count="234" stride="4"><param name="R" type="float"/><param name="G" type="float"/><param name="B" type="float"/><param name="A" type="float"/></accessor></technique_common>
      </source>
      <vertices id="vfx_kurp_0414-mesh-vertices"><input semantic="POSITION" source="#vfx_kurp_0414-mesh-positions"/></vertices>
      <triangles material="PreviewMaterial" count="216">
        <input semantic="VERTEX" source="#vfx_kurp_0414-mesh-vertices" offset="0"/>
        <input semantic="NORMAL" source="#vfx_kurp_0414-mesh-normals" offset="1"/>
        <input semantic="TEXCOORD" source="#vfx_kurp_0414-mesh-uv0" offset="2" set="0"/>
        <input semantic="COLOR" source="#vfx_kurp_0414-mesh-colors" offset="3" set="0"/>
        <p>0 0 0 0 1 1 1 1 2 2 2 2 3 3 3 3 2 2 2 2 1 1 1 1 4 4 4 4 5 5 5 5 6 6 6 6 5 5 5 5 4 4 4 4 7 7 7 7 8 8 8 8 7 7 7 7 4 4 4 4 7 7 7 7 8 8 8 8 9 9 9 9 10 10 10 10 9 9 9 9 8 8 8 8 9 9 9 9 10 10 10 10 11 11 11 11 12 12 12 12 11 11 11 11 10 10 10 10 11 11 11 11 12 12 12 12 13 13 13 13 14 14 14 14 13 13 13 13 12 12 12 12 13 13 13 13 14 14 14 14 15 15 15 15 16 16 16 16 15 15 15 15 14 14 14 14 15 15 15 15 16 16 16 16 17 17 17 17 18 18 18 18 17 17 17 17 16 16 16 16 17 17 17 17 18 18 18 18 19 19 19 19 20 20 20 20 19 19 19 19 18 18 18 18 21 21 21 21 19 19 19 19 20 20 20 20 22 22 22 22 0 0 0 0 2 2 2 2 0 0 0 0 22 22 22 22 23 23 23 23 24 24 24 24 23 23 23 23 22 22 22 22 23 23 23 23 24 24 24 24 25 25 25 25 26 26 26 26 25 25 25 25 24 24 24 24 25 25 25 25 26 26 26 26 27 27 27 27 28 28 28 28 27 27 27 27 26 26 26 26 27 27 27 27 28 28 28 28 29 29 29 29 30 30 30 30 29 29 29 29 28 28 28 28 29 29 29 29 30 30 30 30 31 31 31 31 32 32 32 32 31 31 31 31 30 30 30 30 31 31 31 31 32 32 32 32 33 33 33 33 34 34 34 34 33 33 33 33 32 32 32 32 33 33 33 33 34 34 34 34 35 35 35 35 36 36 36 36 35 35 35 35 34 34 34 34 35 35 35 35 36 36 36 36 37 37 37 37 38 38 38 38 37 37 37 37 36 36 36 36 39 39 39 39 37 37 37 37 38 38 38 38 40 40 40 40 21 21 21 21 20 20 20 20 21 21 21 21 40 40 40 40 41 41 41 41 42 42 42 42 41 41 41 41 40 40 40 40 41 41 41 41 42 42 42 42 43 43 43 43 44 44 44 44 43 43 43 43 42 42 42 42 43 43 43 43 44 44 44 44 45 45 45 45 46 46 46 46 45 45 45 45 44 44 44 44 45 45 45 45 46 46 46 46 47 47 47 47 48 48 48 48 47 47 47 47 46 46 46 46 47 47 47 47 48 48 48 48 49 49 49 49 50 50 50 50 49 49 49 49 48 48 48 48 49 49 49 49 50 50 50 50 51 51 51 51 52 52 52 52 51 51 51 51 50 50 50 50 51 51 51 51 52 52 52 52 53 53 53 53 54 54 54 54 53 53 53 53 52 52 52 52 53 53 53 53 54 54 54 54 55 55 55 55 56 56 56 56 55 55 55 55 54 54 54 54 57 57 57 57 55 55 55 55 56 56 56 56 58 58 58 58 39 39 39 39 38 38 38 38 39 39 39 39 58 58 58 58 59 59 59 59 60 60 60 60 59 59 59 59 58 58 58 58 59 59 59 59 60 60 60 60 61 61 61 61 62 62 62 62 61 61 61 61 60 60 60 60 61 61 61 61 62 62 62 62 63 63 63 63 64 64 64 64 63 63 63 63 62 62 62 62 63 63 63 63 64 64 64 64 65 65 65 65 66 66 66 66 65 65 65 65 64 64 64 64 65 65 65 65 66 66 66 66 67 67 67 67 68 68 68 68 67 67 67 67 66 66 66 66 67 67 67 67 68 68 68 68 69 69 69 69 70 70 70 70 69 69 69 69 68 68 68 68 69 69 69 69 70 70 70 70 71 71 71 71 72 72 72 72 73 73 73 73 74 74 74 74 75 75 75 75 73 73 73 73 72 72 72 72 56 56 56 56 76 76 76 76 57 57 57 57 77 77 77 77 57 57 57 57 76 76 76 76 78 78 78 78 79 79 79 79 80 80 80 80 81 81 81 81 80 80 80 80 79 79 79 79 82 82 82 82 83 83 83 83 84 84 84 84 83 83 83 83 82 82 82 82 85 85 85 85 86 86 86 86 85 85 85 85 82 82 82 82 85 85 85 85 86 86 86 86 87 87 87 87 88 88 88 88 87 87 87 87 86 86 86 86 87 87 87 87 88 88 88 88 89 89 89 89 90 90 90 90 89 89 89 89 88 88 88 88 89 89 89 89 90 90 90 90 91 91 91 91 92 92 92 92 91 91 91 91 90 90 90 90 91 91 91 91 92 92 92 92 93 93 93 93 94 94 94 94 93 93 93 93 92 92 92 92 93 93 93 93 94 94 94 94 95 95 95 95 96 96 96 96 95 95 95 95 94 94 94 94 95 95 95 95 96 96 96 96 97 97 97 97 98 98 98 98 97 97 97 97 96 96 96 96 99 99 99 99 97 97 97 97 98 98 98 98 100 100 100 100 78 78 78 78 80 80 80 80 78 78 78 78 100 100 100 100 101 101 101 101 102 102 102 102 101 101 101 101 100 100 100 100 101 101 101 101 102 102 102 102 103 103 103 103 104 104 104 104 103 103 103 103 102 102 102 102 103 103 103 103 104 104 104 104 105 105 105 105 106 106 106 106 105 105 105 105 104 104 104 104 105 105 105 105 106 106 106 106 107 107 107 107 108 108 108 108 107 107 107 107 106 106 106 106 107 107 107 107 108 108 108 108 109 109 109 109 110 110 110 110 109 109 109 109 108 108 108 108 109 109 109 109 110 110 110 110 111 111 111 111 112 112 112 112 111 111 111 111 110 110 110 110 111 111 111 111 112 112 112 112 113 113 113 113 114 114 114 114 113 113 113 113 112 112 112 112 113 113 113 113 114 114 114 114 115 115 115 115 116 116 116 116 115 115 115 115 114 114 114 114 117 117 117 117 115 115 115 115 116 116 116 116 118 118 118 118 99 99 99 99 98 98 98 98 99 99 99 99 118 118 118 118 119 119 119 119 120 120 120 120 119 119 119 119 118 118 118 118 119 119 119 119 120 120 120 120 121 121 121 121 122 122 122 122 121 121 121 121 120 120 120 120 121 121 121 121 122 122 122 122 123 123 123 123 124 124 124 124 123 123 123 123 122 122 122 122 123 123 123 123 124 124 124 124 125 125 125 125 126 126 126 126 125 125 125 125 124 124 124 124 125 125 125 125 126 126 126 126 127 127 127 127 128 128 128 128 127 127 127 127 126 126 126 126 127 127 127 127 128 128 128 128 129 129 129 129 130 130 130 130 129 129 129 129 128 128 128 128 129 129 129 129 130 130 130 130 131 131 131 131 132 132 132 132 131 131 131 131 130 130 130 130 131 131 131 131 132 132 132 132 133 133 133 133 134 134 134 134 133 133 133 133 132 132 132 132 135 135 135 135 133 133 133 133 134 134 134 134 136 136 136 136 117 117 117 117 116 116 116 116 117 117 117 117 136 136 136 136 137 137 137 137 138 138 138 138 137 137 137 137 136 136 136 136 137 137 137 137 138 138 138 138 139 139 139 139 140 140 140 140 139 139 139 139 138 138 138 138 139 139 139 139 140 140 140 140 141 141 141 141 142 142 142 142 141 141 141 141 140 140 140 140 141 141 141 141 142 142 142 142 143 143 143 143 144 144 144 144 143 143 143 143 142 142 142 142 143 143 143 143 144 144 144 144 145 145 145 145 146 146 146 146 145 145 145 145 144 144 144 144 145 145 145 145 146 146 146 146 147 147 147 147 148 148 148 148 147 147 147 147 146 146 146 146 147 147 147 147 148 148 148 148 149 149 149 149 150 150 150 150 151 151 151 151 152 152 152 152 153 153 153 153 151 151 151 151 150 150 150 150 134 134 134 134 154 154 154 154 135 135 135 135 155 155 155 155 135 135 135 135 154 154 154 154 156 156 156 156 157 157 157 157 158 158 158 158 159 159 159 159 158 158 158 158 157 157 157 157 160 160 160 160 161 161 161 161 162 162 162 162 161 161 161 161 160 160 160 160 163 163 163 163 164 164 164 164 163 163 163 163 160 160 160 160 163 163 163 163 164 164 164 164 165 165 165 165 166 166 166 166 165 165 165 165 164 164 164 164 165 165 165 165 166 166 166 166 167 167 167 167 168 168 168 168 167 167 167 167 166 166 166 166 167 167 167 167 168 168 168 168 169 169 169 169 170 170 170 170 169 169 169 169 168 168 168 168 169 169 169 169 170 170 170 170 171 171 171 171 172 172 172 172 171 171 171 171 170 170 170 170 171 171 171 171 172 172 172 172 173 173 173 173 174 174 174 174 173 173 173 173 172 172 172 172 173 173 173 173 174 174 174 174 175 175 175 175 176 176 176 176 175 175 175 175 174 174 174 174 177 177 177 177 175 175 175 175 176 176 176 176 178 178 178 178 156 156 156 156 158 158 158 158 156 156 156 156 178 178 178 178 179 179 179 179 180 180 180 180 179 179 179 179 178 178 178 178 179 179 179 179 180 180 180 180 181 181 181 181 182 182 182 182 181 181 181 181 180 180 180 180 181 181 181 181 182 182 182 182 183 183 183 183 184 184 184 184 183 183 183 183 182 182 182 182 183 183 183 183 184 184 184 184 185 185 185 185 186 186 186 186 185 185 185 185 184 184 184 184 185 185 185 185 186 186 186 186 187 187 187 187 188 188 188 188 187 187 187 187 186 186 186 186 187 187 187 187 188 188 188 188 189 189 189 189 190 190 190 190 189 189 189 189 188 188 188 188 189 189 189 189 190 190 190 190 191 191 191 191 192 192 192 192 191 191 191 191 190 190 190 190 191 191 191 191 192 192 192 192 193 193 193 193 194 194 194 194 193 193 193 193 192 192 192 192 195 195 195 195 193 193 193 193 194 194 194 194 196 196 196 196 177 177 177 177 176 176 176 176 177 177 177 177 196 196 196 196 197 197 197 197 198 198 198 198 197 197 197 197 196 196 196 196 197 197 197 197 198 198 198 198 199 199 199 199 200 200 200 200 199 199 199 199 198 198 198 198 199 199 199 199 200 200 200 200 201 201 201 201 202 202 202 202 201 201 201 201 200 200 200 200 201 201 201 201 202 202 202 202 203 203 203 203 204 204 204 204 203 203 203 203 202 202 202 202 203 203 203 203 204 204 204 204 205 205 205 205 206 206 206 206 205 205 205 205 204 204 204 204 205 205 205 205 206 206 206 206 207 207 207 207 208 208 208 208 207 207 207 207 206 206 206 206 207 207 207 207 208 208 208 208 209 209 209 209 210 210 210 210 209 209 209 209 208 208 208 208 209 209 209 209 210 210 210 210 211 211 211 211 212 212 212 212 211 211 211 211 210 210 210 210 213 213 213 213 211 211 211 211 212 212 212 212 214 214 214 214 195 195 195 195 194 194 194 194 195 195 195 195 214 214 214 214 215 215 215 215 216 216 216 216 215 215 215 215 214 214 214 214 215 215 215 215 216 216 216 216 217 217 217 217 218 218 218 218 217 217 217 217 216 216 216 216 217 217 217 217 218 218 218 218 219 219 219 219 220 220 220 220 219 219 219 219 218 218 218 218 219 219 219 219 220 220 220 220 221 221 221 221 222 222 222 222 221 221 221 221 220 220 220 220 221 221 221 221 222 222 222 222 223 223 223 223 224 224 224 224 223 223 223 223 222 222 222 222 223 223 223 223 224 224 224 224 225 225 225 225 226 226 226 226 225 225 225 225 224 224 224 224 225 225 225 225 226 226 226 226 227 227 227 227 228 228 228 228 229 229 229 229 230 230 230 230 231 231 231 231 229 229 229 229 228 228 228 228 212 212 212 212 232 232 232 232 213 213 213 213 233 233 233 233 213 213 213 213 232 232 232 232</p>
      </triangles>
    </mesh></geometry>
  </library_geometries>
  <library_visual_scenes>
    <visual_scene id="Scene" name="Scene">
      <node id="vfx_kurp_0414" name="vfx_kurp_0414" type="NODE">
        <instance_geometry url="#vfx_kurp_0414-mesh"><bind_material><technique_common><instance_material symbol="PreviewMaterial" target="#PreviewMaterial"><bind_vertex_input semantic="UVSET0" input_semantic="TEXCOORD" input_set="0"/></instance_material></technique_common></bind_material></instance_geometry>
      </node>
    </visual_scene>
  </library_visual_scenes>
  <scene><instance_visual_scene url="#Scene"/></scene>
</COLLADA>
