<?xml version="1.0" encoding="utf-8"?>
<COLLADA xmlns="http://www.collada.org/2005/11/COLLADASchema" version="1.4.1">
  <asset>
    <contributor><authoring_tool>Morrobroom Kurpulio VFX preview converter</authoring_tool></contributor>
    <unit name="unit" meter="1"/>
    <up_axis>Z_UP</up_axis>
  </asset>
  <library_images>
    <image id="VFXTexture" name="darkmap_newgen-1.dds">
      <init_from>../../../Textures/Kurp/darkmap_newgen-1.dds</init_from>
    </image>
  </library_images>
  <library_effects>
    <effect id="PreviewEffect">
      <profile_COMMON>
        <newparam sid="VFXTexture-surface">
          <surface type="2D"><init_from>VFXTexture</init_from></surface>
        </newparam>
        <newparam sid="VFXTexture-sampler">
          <sampler2D><source>VFXTexture-surface</source></sampler2D>
        </newparam>
        <technique sid="common"><phong>
          <emission><color>0.08 0.08 0.08 1</color></emission>
          <ambient><color>0.2 0.2 0.2 1</color></ambient>
          <diffuse><texture texture="VFXTexture-sampler" texcoord="UVSET0"/></diffuse>
          <specular><color>0.15 0.15 0.15 1</color></specular>
          <shininess><float>8</float></shininess>
          <transparent opaque="A_ONE"><texture texture="VFXTexture-sampler" texcoord="UVSET0"/></transparent>
          <transparency><float>1</float></transparency>
        </phong></technique>
      </profile_COMMON>
      <extra><technique profile="GOOGLEEARTH"><double_sided>1</double_sided></technique></extra>
    </effect>
  </library_effects>
  <library_materials><material id="PreviewMaterial" name="PreviewMaterial"><instance_effect url="#PreviewEffect"/></material></library_materials>
  <library_geometries>
    <geometry id="vfx_kurp_0947-mesh" name="vfx_kurp_0947"><mesh>
      <source id="vfx_kurp_0947-mesh-positions">
        <float_array id="vfx_kurp_0947-mesh-positions-array" count="363">-3.07273903 0.236430885 0.44634021 -3.07187932 -0.255937565 0.445921815 -1.21705392 0.0936461242 -0.230104955 -1.21671477 -0.100378098 -0.231203752 0.00980886862 -0.0135327901 -0.233095708 -2.99400646 -0.742110688 0.416755656 -1.18602876 -0.291960315 -0.233428614 0.00980886862 -0.0135327901 -0.233095708 -2.84103806 -1.21011551 0.369265572 -1.12574955 -0.476383768 -0.236495541 0.00980886862 -0.0135327901 -0.233095708 0.00980886862 -0.0135327901 -0.233095708 -1.03736295 -0.649106792 -0.239934446 -2.6167423 -1.64842975 0.320607445 -0.923044199 -0.805876469 -0.243251637 0.00980886862 -0.0135327901 -0.233095708 -2.32663951 -2.04625935 0.288155194 -0.785608862 -0.942833111 -0.246097371 0.00980886862 -0.0135327901 -0.233095708 -1.97787314 -2.39380907 0.282948371 -0.628440653 -1.05660333 -0.248374894 0.00980886862 -0.0135327901 -0.233095708 -1.57903353 -2.68252123 0.305578374 -0.455409835 -1.14438701 -0.250252992 0.00980886862 -0.0135327901 -0.233095708 -1.13993859 -2.90528665 0.346063722 -0.270777338 -1.20402187 -0.252077996 0.00980886862 -0.0135327901 -0.233095708 -0.671402095 -3.05661967 0.387731685 -0.0790886236 -1.2340393 -0.254220724 0.00980886862 -0.0135327901 -0.233095708 -0.184959603 -3.13279427 0.413612376 0.114935605 -1.2337005 -0.256916731 0.00980886862 -0.0135327901 -0.233095708 0.307410363 -3.13193443 0.412889819 0.306517975 -1.20301366 -0.260160952 0.00980886862 -0.0135327901 -0.233095708 0.793582897 -3.05406225 0.384961827 0.490941409 -1.14273469 -0.263694076 0.00980886862 -0.0135327901 -0.233095708 1.26158867 -2.90109464 0.339569945 0.663665192 -1.05434755 -0.267085789 0.00980886862 -0.0135327901 -0.233095708 1.6999028 -2.6767972 0.292987222 0.820434047 -0.940029398 -0.2698791 0.00980886862 -0.0135327901 -0.233095708 2.09773315 -2.38669398 0.261745481 0.957391201 -0.802593622 -0.271741626 0.00980886862 -0.0135327901 -0.233095708 2.44528308 -2.03792799 0.256322324 2.73399485 -1.6390874 0.277215805 1.07116165 -0.645425491 -0.272565124 0.00980886862 -0.0135327901 -0.233095708 2.95676027 -1.19999239 0.314901314 1.15894497 -0.472394764 -0.272476343 0.00980886862 -0.0135327901 -0.233095708 3.10809257 -0.731455876 0.353667783 1.21857999 -0.287761786 -0.271759358 0.00980886862 -0.0135327901 -0.233095708 3.1842674 -0.245013566 0.377837583 1.24859727 -0.0960732894 -0.270721224 0.00980886862 -0.0135327901 -0.233095708 3.18340729 0.247356048 0.377952918 1.24825835 0.0979509372 -0.269556967 0.00980886862 -0.0135327901 -0.233095708 3.10553469 0.733529361 0.354529964 1.21757188 0.289533324 -0.268268345 0.00980886862 -0.0135327901 -0.233095708 2.9525675 1.20153439 0.317910186 1.1572923 0.473956567 -0.266670911 0.00980886862 -0.0135327901 -0.233095708 2.72826934 1.63984845 0.284257825 1.06890574 0.646680185 -0.264486252 0.00980886862 -0.0135327901 -0.233095708 2.43816612 2.0376788 0.269228397 0.954586742 0.803449703 -0.261482863 0.00980886862 -0.0135327901 -0.233095708 2.08939987 2.38522851 0.281750854 0.817151053 0.940406432 -0.25761041 0.00980886862 -0.0135327901 -0.233095708 1.69055961 2.67394145 0.3203338 0.659983228 1.05417698 -0.253070593 0.00980886862 -0.0135327901 -0.233095708 1.25146527 2.89670538 0.373348877 0.486951603 1.14195989 -0.248292774 0.00980886862 -0.0135327901 -0.233095708 0.302319686 1.2015947 -0.243819029 0.782927993 3.0480387 0.42323027 0.29648613 3.12421302 0.453013336 0.110630967 1.23161248 -0.240140439 0.00980886862 -0.0135327901 -0.233095708 -0.195884004 3.12335247 0.452744549 -0.0833934524 1.2312737 -0.237541007 0.00980886862 -0.0135327901 -0.233095708 -0.682057092 3.04547889 0.423307368 -0.274976026 1.20058617 -0.236012058 0.00980886862 -0.0135327901 -0.233095708 -1.15006241 2.89251101 0.376194015 -0.459399707 1.14030709 -0.235267924 0.00980886862 -0.0135327901 -0.233095708 -1.58837676 2.66821383 0.329271367 -0.632122452 1.05192023 -0.234861659 0.00980886862 -0.0135327901 -0.233095708 -1.98620553 2.37811097 0.300134534 -0.788892057 0.937601657 -0.234355452 0.00980886862 -0.0135327901 -0.233095708 -2.33375542 2.02934545 0.299536192 -0.92584788 0.800166079 -0.233488442 0.00980886862 -0.0135327901 -0.233095708 -2.62246741 1.63050511 0.327383688 -1.0396187 0.642997796 -0.232276039 0.00980886862 -0.0135327901 -0.233095708 -2.8452318 1.19141105 0.372812972 -1.12740185 0.469967774 -0.231005865 0.00980886862 -0.0135327901 -0.233095708 -2.99656462 0.722873972 0.418312768 -1.18703652 0.285334619 -0.230131941 0.00980886862 -0.0135327901 -0.233095708 -3.07273903 0.236430885 0.44634021 -1.21705392 0.0936461242 -0.230104955 0.00980886862 -0.0135327901 -0.233095708</float_array>
        <technique_common><accessor source="#vfx_kurp_0947-mesh-positions-array" count="121" stride="3"><param name="X" type="float"/><param name="Y" type="float"/><param name="Z" type="float"/></accessor></technique_common>
      </source>
      <source id="vfx_kurp_0947-mesh-normals">
        <float_array id="vfx_kurp_0947-mesh-normals-array" count="363">0.340108545 -0.00118730564 0.940385436 0.342744225 -0.000952403291 0.939428278 0.182500027 -0.0165565649 0.983066437 0.180482331 0.00404524217 0.983569908 0.0153604916 -0.00664199107 0.99985996 0.338739373 0.0075947848 0.940849593 0.170080115 0.0237694401 0.985143527 0.0153604916 -0.00664199107 0.99985996 0.318799303 0.0367873715 0.947108069 0.156558162 0.0471628303 0.986542046 0.0153604916 -0.00664199107 0.99985996 0.0153604916 -0.00664199107 0.99985996 0.142051326 0.0629956965 0.987852703 0.28370929 0.0832431595 0.95529033 0.12050452 0.07963882 0.989513173 0.0153604916 -0.00664199107 0.99985996 0.231597062 0.150006677 0.961176778 0.0996539198 0.0969651205 0.990286252 0.0153604916 -0.00664199107 0.99985996 0.165000892 0.218606126 0.96176196 0.0803195037 0.115697672 0.99003173 0.0153604916 -0.00664199107 0.99985996 0.0973115368 0.27409318 0.956767157 0.0617706957 0.13493131 0.988927663 0.0153604916 -0.00664199107 0.99985996 0.0436630756 0.309441651 0.94991547 0.0427289078 0.152070852 0.987445541 0.0153604916 -0.00664199107 0.99985996 0.0124926411 0.326705156 0.945043742 0.0224716308 0.163766169 0.986243209 0.0153604916 -0.00664199107 0.99985996 0.00164410262 0.332223694 0.943199191 0.00135082154 0.167282972 0.985907999 0.0153604916 -0.00664199107 0.99985996 -8.19346595e-05 0.331123781 0.943587322 -0.0194877109 0.161600827 0.986663773 0.0153604916 -0.00664199107 0.99985996 -0.00775602813 0.324211908 0.945952685 -0.0389164971 0.147802442 0.988250952 0.0153604916 -0.00664199107 0.99985996 -0.0337096181 0.307687479 0.95089015 -0.0566323133 0.12861891 0.990075733 0.0153604916 -0.00664199107 0.99985996 -0.0819350162 0.275660407 0.95775675 -0.073397085 0.107288333 0.991515044 0.0153604916 -0.00664199107 0.99985996 -0.145853235 0.225149376 0.963345521 -0.0935624698 0.0862909494 0.991866894 0.0153604916 -0.00664199107 0.99985996 -0.210582311 0.158702789 0.964607959 -0.260113109 0.0924637384 0.961140795 -0.11451651 0.0684889652 0.991057632 0.0153604916 -0.00664199107 0.99985996 -0.291771279 0.041569658 0.955584368 -0.133656229 0.049587417 0.989786391 0.0153604916 -0.00664199107 0.99985996 -0.308459973 0.0127168946 0.951152315 -0.147661278 0.0287785593 0.98861921 0.0153604916 -0.00664199107 0.99985996 -0.315820567 0.00191086793 0.94881701 -0.153735839 0.00644522525 0.988090963 0.0153604916 -0.00664199107 0.99985996 -0.317329859 -0.00308277711 0.948310212 -0.15076162 -0.0161973451 0.988437444 0.0153604916 -0.00664199107 0.99985996 -0.311896984 -0.0169883371 0.949964035 -0.139744792 -0.0379244775 0.989461029 0.0153604916 -0.00664199107 0.99985996 -0.294365776 -0.0504783098 0.954358806 -0.123393872 -0.0583119233 0.99064306 0.0153604916 -0.00664199107 0.99985996 -0.258798749 -0.105220998 0.960183185 -0.104992494 -0.0780089158 0.991408687 0.0153604916 -0.00664199107 0.99985996 -0.203861114 -0.172616881 0.963661797 -0.0870293172 -0.0982082967 0.99135313 0.0153604916 -0.00664199107 0.99985996 -0.137099706 -0.237901741 0.961564575 -0.0703202609 -0.119554852 0.990334135 0.0153604916 -0.00664199107 0.99985996 -0.07328936 -0.28840223 0.954700384 -0.0541111882 -0.141176811 0.98850447 0.0153604916 -0.00664199107 0.99985996 -0.0267106747 -0.319837054 0.947095982 -0.0370544112 -0.160548809 0.98633212 0.0153604916 -0.00664199107 0.99985996 -0.0183428191 -0.17435691 0.98451166 -0.0035211964 -0.335756771 0.941942138 0.000899166604 -0.342318533 0.939583532 0.00172980865 -0.17985146 0.983692259 0.0153604916 -0.00664199107 0.99985996 -0.000498323934 -0.343325084 0.939216503 0.0220384149 -0.175985224 0.984146081 0.0153604916 -0.00664199107 0.99985996 0.00784864518 -0.337846534 0.941168486 0.0414641327 -0.163843075 0.985614617 0.0153604916 -0.00664199107 0.99985996 0.037451296 -0.320556 0.946488907 0.0597257495 -0.146240505 0.987444454 0.0153604916 -0.00664199107 0.99985996 0.0905979491 -0.284811312 0.954292685 0.0776547075 -0.126602118 0.988909324 0.0153604916 -0.00664199107 0.99985996 0.158776072 -0.228230718 0.960573213 0.0966469267 -0.107574368 0.989488316 0.0153604916 -0.00664199107 0.99985996 0.226510234 -0.15775404 0.961148676 0.117516749 -0.090070154 0.988977847 0.0153604916 -0.00664199107 0.99985996 0.279928174 -0.0886739964 0.955916911 0.139458548 -0.0733298558 0.98750901 0.0153604916 -0.00664199107 0.99985996 0.313887894 -0.0365746813 0.948755333 0.159862914 -0.0559154828 0.985554315 0.0153604916 -0.00664199107 0.99985996 0.331811559 -0.008769324 0.943304928 0.175207545 -0.0369137986 0.983839259 0.0153604916 -0.00664199107 0.99985996 0.340108545 -0.00118730564 0.940385436 0.182500027 -0.0165565649 0.983066437 0.0153604916 -0.00664199107 0.99985996</float_array>
        <technique_common><accessor source="#vfx_kurp_0947-mesh-normals-array" count="121" stride="3"><param name="X" type="float"/><param name="Y" type="float"/><param name="Z" type="float"/></accessor></technique_common>
      </source>
      <source id="vfx_kurp_0947-mesh-uv0">
        <float_array id="vfx_kurp_0947-mesh-uv0-array" count="242">0.0500000119 0.0500000119 0.0500000119 0.0724999905 0.5 0.0500000119 0.5 0.0724999905 0.949999988 0.0724999905 0.0500000119 0.0950000286 0.5 0.0950000286 0.949999988 0.0950000286 0.0500000119 0.117500007 0.5 0.117500007 0.949999988 0.117500007 0.949999988 0.139999986 0.5 0.139999986 0.0500000119 0.139999986 0.5 0.162500024 0.949999988 0.162500024 0.0500000119 0.162500024 0.5 0.185000002 0.949999988 0.185000002 0.0500000119 0.185000002 0.5 0.207500041 0.949999988 0.207500041 0.0500000119 0.207500041 0.5 0.230000019 0.949999988 0.230000019 0.0500000119 0.230000019 0.5 0.252499998 0.949999988 0.252499998 0.0500000119 0.252499998 0.5 0.274999976 0.949999988 0.274999976 0.0500000119 0.274999976 0.5 0.297499955 0.949999988 0.297499955 0.0500000119 0.297499955 0.5 0.319999993 0.949999988 0.319999993 0.0500000119 0.319999993 0.5 0.342499971 0.949999988 0.342499971 0.0500000119 0.342499971 0.5 0.36499995 0.949999988 0.36499995 0.0500000119 0.36499995 0.5 0.387499988 0.949999988 0.387499988 0.0500000119 0.387499988 0.5 0.409999967 0.949999988 0.409999967 0.0500000119 0.409999967 0.0500000119 0.432500005 0.5 0.432500005 0.949999988 0.432500005 0.0500000119 0.454999983 0.5 0.454999983 0.949999988 0.454999983 0.0500000119 0.477499962 0.5 0.477499962 0.949999988 0.477499962 0.0500000119 0.5 0.5 0.5 0.949999988 0.5 0.0500000119 0.522499979 0.5 0.522499979 0.949999988 0.522499979 0.0500000119 0.544999957 0.5 0.544999957 0.949999988 0.544999957 0.0500000119 0.567499995 0.5 0.567499995 0.949999988 0.567499995 0.0500000119 0.590000033 0.5 0.590000033 0.949999988 0.590000033 0.0500000119 0.612500012 0.5 0.612500012 0.949999988 0.612500012 0.0500000119 0.63499999 0.5 0.63499999 0.949999988 0.63499999 0.0500000119 0.657499909 0.5 0.657499909 0.949999988 0.657499909 0.0500000119 0.679999948 0.5 0.679999948 0.949999988 0.679999948 0.5 0.702499986 0.0500000119 0.702499986 0.0500000119 0.725000024 0.5 0.725000024 0.949999988 0.702499986 0.0500000119 0.747499943 0.5 0.747499943 0.949999988 0.725000024 0.0500000119 0.769999981 0.5 0.769999981 0.949999988 0.747499943 0.0500000119 0.792499959 0.5 0.792499959 0.949999988 0.769999981 0.0500000119 0.814999998 0.5 0.814999998 0.949999988 0.814999998 0.0500000119 0.837499976 0.5 0.837499976 0.949999988 0.837499976 0.0500000119 0.859999955 0.5 0.859999955 0.949999988 0.859999955 0.0500000119 0.882499993 0.5 0.882499993 0.949999988 0.882499993 0.0500000119 0.904999971 0.5 0.904999971 0.949999988 0.904999971 0.0500000119 0.92750001 0.5 0.92750001 0.949999988 0.92750001 0.0500000119 0.949999988 0.5 0.949999988 0.949999988 0.949999988</float_array>
        <technique_common><accessor source="#vfx_kurp_0947-mesh-uv0-array" count="121" stride="2"><param name="S" type="float"/><param name="T" type="float"/></accessor></technique_common>
      </source>
      <vertices id="vfx_kurp_0947-mesh-vertices"><input semantic="POSITION" source="#vfx_kurp_0947-mesh-positions"/></vertices>
      <triangles material="PreviewMaterial" count="120">
        <input semantic="VERTEX" source="#vfx_kurp_0947-mesh-vertices" offset="0"/>
        <input semantic="NORMAL" source="#vfx_kurp_0947-mesh-normals" offset="1"/>
        <input semantic="TEXCOORD" source="#vfx_kurp_0947-mesh-uv0" offset="2" set="0"/>
        <p>0 0 0 1 1 1 2 2 2 3 3 3 2 2 2 1 1 1 2 2 2 3 3 3 4 4 4 1 1 1 5 5 5 3 3 3 6 6 6 3 3 3 5 5 5 3 3 3 6 6 6 7 7 7 5 5 5 8 8 8 6 6 6 9 9 9 6 6 6 8 8 8 6 6 6 9 9 9 10 10 10 11 11 11 9 9 9 12 12 12 8 8 8 12 12 12 9 9 9 13 13 13 12 12 12 8 8 8 14 14 14 12 12 12 13 13 13 12 12 12 14 14 14 15 15 15 13 13 13 16 16 16 14 14 14 17 17 17 14 14 14 16 16 16 14 14 14 17 17 17 18 18 18 16 16 16 19 19 19 17 17 17 20 20 20 17 17 17 19 19 19 17 17 17 20 20 20 21 21 21 19 19 19 22 22 22 20 20 20 23 23 23 20 20 20 22 22 22 20 20 20 23 23 23 24 24 24 22 22 22 25 25 25 23 23 23 26 26 26 23 23 23 25 25 25 23 23 23 26 26 26 27 27 27 25 25 25 28 28 28 26 26 26 29 29 29 26 26 26 28 28 28 26 26 26 29 29 29 30 30 30 28 28 28 31 31 31 29 29 29 32 32 32 29 29 29 31 31 31 29 29 29 32 32 32 33 33 33 31 31 31 34 34 34 32 32 32 35 35 35 32 32 32 34 34 34 32 32 32 35 35 35 36 36 36 34 34 34 37 37 37 35 35 35 38 38 38 35 35 35 37 37 37 35 35 35 38 38 38 39 39 39 37 37 37 40 40 40 38 38 38 41 41 41 38 38 38 40 40 40 38 38 38 41 41 41 42 42 42 40 40 40 43 43 43 41 41 41 44 44 44 41 41 41 43 43 43 41 41 41 44 44 44 45 45 45 43 43 43 46 46 46 44 44 44 47 47 47 44 44 44 46 46 46 44 44 44 47 47 47 48 48 48 46 46 46 49 49 49 47 47 47 50 50 50 47 47 47 49 49 49 51 51 51 47 47 47 50 50 50 47 47 47 51 51 51 52 52 52 50 50 50 53 53 53 51 51 51 54 54 54 51 51 51 53 53 53 51 51 51 54 54 54 55 55 55 53 53 53 56 56 56 54 54 54 57 57 57 54 54 54 56 56 56 54 54 54 57 57 57 58 58 58 56 56 56 59 59 59 57 57 57 60 60 60 57 57 57 59 59 59 57 57 57 60 60 60 61 61 61 59 59 59 62 62 62 60 60 60 63 63 63 60 60 60 62 62 62 60 60 60 63 63 63 64 64 64 62 62 62 65 65 65 63 63 63 66 66 66 63 63 63 65 65 65 63 63 63 66 66 66 67 67 67 65 65 65 68 68 68 66 66 66 69 69 69 66 66 66 68 68 68 66 66 66 69 69 69 70 70 70 68 68 68 71 71 71 69 69 69 72 72 72 69 69 69 71 71 71 69 69 69 72 72 72 73 73 73 71 71 71 74 74 74 72 72 72 75 75 75 72 72 72 74 74 74 72 72 72 75 75 75 76 76 76 74 74 74 77 77 77 75 75 75 78 78 78 75 75 75 77 77 77 75 75 75 78 78 78 79 79 79 77 77 77 80 80 80 78 78 78 81 81 81 78 78 78 80 80 80 78 78 78 81 81 81 82 82 82 80 80 80 83 83 83 81 81 81 84 84 84 81 81 81 83 83 83 81 81 81 84 84 84 85 85 85 85 85 85 84 84 84 86 86 86 86 86 86 84 84 84 87 87 87 83 83 83 87 87 87 84 84 84 87 87 87 88 88 88 86 86 86 89 89 89 86 86 86 88 88 88 86 86 86 89 89 89 90 90 90 88 88 88 91 91 91 89 89 89 92 92 92 89 89 89 91 91 91 89 89 89 92 92 92 93 93 93 91 91 91 94 94 94 92 92 92 95 95 95 92 92 92 94 94 94 92 92 92 95 95 95 96 96 96 94 94 94 97 97 97 95 95 95 98 98 98 95 95 95 97 97 97 95 95 95 98 98 98 99 99 99 97 97 97 100 100 100 98 98 98 101 101 101 98 98 98 100 100 100 98 98 98 101 101 101 102 102 102 100 100 100 103 103 103 101 101 101 104 104 104 101 101 101 103 103 103 101 101 101 104 104 104 105 105 105 103 103 103 106 106 106 104 104 104 107 107 107 104 104 104 106 106 106 104 104 104 107 107 107 108 108 108 106 106 106 109 109 109 107 107 107 110 110 110 107 107 107 109 109 109 107 107 107 110 110 110 111 111 111 109 109 109 112 112 112 110 110 110 113 113 113 110 110 110 112 112 112 110 110 110 113 113 113 114 114 114 112 112 112 115 115 115 113 113 113 116 116 116 113 113 113 115 115 115 113 113 113 116 116 116 117 117 117 115 115 115 118 118 118 116 116 116 119 119 119 116 116 116 118 118 118 116 116 116 119 119 119 120 120 120</p>
      </triangles>
    </mesh></geometry>
  </library_geometries>
  <library_visual_scenes>
    <visual_scene id="Scene" name="Scene">
      <node id="vfx_kurp_0947" name="vfx_kurp_0947" type="NODE">
        <instance_geometry url="#vfx_kurp_0947-mesh"><bind_material><technique_common><instance_material symbol="PreviewMaterial" target="#PreviewMaterial"><bind_vertex_input semantic="UVSET0" input_semantic="TEXCOORD" input_set="0"/></instance_material></technique_common></bind_material></instance_geometry>
      </node>
    </visual_scene>
  </library_visual_scenes>
  <scene><instance_visual_scene url="#Scene"/></scene>
</COLLADA>
