<?xml version="1.0" encoding="utf-8"?>
<COLLADA xmlns="http://www.collada.org/2005/11/COLLADASchema" version="1.4.1">
  <asset>
    <contributor><authoring_tool>Morrobroom Kurpulio VFX preview converter</authoring_tool></contributor>
    <unit name="unit" meter="1"/>
    <up_axis>Z_UP</up_axis>
  </asset>
  <library_images>
    <image id="VFXTexture" name="darkmap_newgen-1.dds">
      <init_from>../../../Textures/Kurp/darkmap_newgen-1.dds</init_from>
    </image>
  </library_images>
  <library_effects>
    <effect id="PreviewEffect">
      <profile_COMMON>
        <newparam sid="VFXTexture-surface">
          <surface type="2D"><init_from>VFXTexture</init_from></surface>
        </newparam>
        <newparam sid="VFXTexture-sampler">
          <sampler2D><source>VFXTexture-surface</source></sampler2D>
        </newparam>
        <technique sid="common"><phong>
          <emission><color>0.08 0.08 0.08 1</color></emission>
          <ambient><color>0.2 0.2 0.2 1</color></ambient>
          <diffuse><texture texture="VFXTexture-sampler" texcoord="UVSET0"/></diffuse>
          <specular><color>0.15 0.15 0.15 1</color></specular>
          <shininess><float>8</float></shininess>
          <transparent opaque="A_ONE"><texture texture="VFXTexture-sampler" texcoord="UVSET0"/></transparent>
          <transparency><float>1</float></transparency>
        </phong></technique>
      </profile_COMMON>
      <extra><technique profile="GOOGLEEARTH"><double_sided>1</double_sided></technique></extra>
    </effect>
  </library_effects>
  <library_materials><material id="PreviewMaterial" name="PreviewMaterial"><instance_effect url="#PreviewEffect"/></material></library_materials>
  <library_geometries>
    <geometry id="vfx_kurp_0782-mesh" name="vfx_kurp_0782"><mesh>
      <source id="vfx_kurp_0782-mesh-positions">
        <float_array id="vfx_kurp_0782-mesh-positions-array" count="468">8.03788069 -0.133255043 -1.88344505 7.22811622 1.75931643 -1.65538582 8.47429306 -0.126830906 0.134850654 8.34592277 1.72121537 0.0804350321 5.23909552 2.71995361 -1.67782755 8.34592277 1.72121537 0.0804350321 7.22811622 1.75931643 -1.65538582 8.34592277 1.72121537 0.0804350321 5.23909552 2.71995361 -1.67782755 5.50396259 4.31684402 -0.395719344 5.23909552 2.71995361 -1.67782755 7.22811622 1.75931643 -1.65538582 4.62402264 1.22526521 -0.392678896 4.62402264 1.22526521 -0.392678896 7.22811622 1.75931643 -1.65538582 5.44031204 0.927711699 -1.04203439 8.03788069 -0.133255043 -1.88344505 6.08183412 -0.794630713 -1.90533197 8.75914124 -2.56812314 -0.329081292 6.08183412 -0.794630713 -1.90533197 8.03788069 -0.133255043 -1.88344505 6.08183412 -0.794630713 -1.90533197 8.75914124 -2.56812314 -0.329081292 6.94793307 -2.61440458 -1.31973526 7.23186767 -3.59653347 1.6680839 6.94793307 -2.61440458 -1.31973526 8.75914124 -2.56812314 -0.329081292 5.82285131 -3.66520077 0.160114478 6.10408935 -4.50643447 3.22366867 5.82285131 -3.66520077 0.160114478 6.10408935 -4.50643447 3.22366867 6.60840833 -4.80342737 1.24339864 3.49266712 -5.8688691 2.72374841 6.60840833 -4.80342737 1.24339864 6.10408935 -4.50643447 3.22366867 4.32457074 -6.4523985 0.92612677 0.81520267 -5.48452813 1.65947679 4.32457074 -6.4523985 0.92612677 3.49266712 -5.8688691 2.72374841 1.2746709 -6.50880367 -0.0736593182 0.352516789 -3.79371234 1.14632429 1.2746709 -6.50880367 -0.0736593182 0.81520267 -5.48452813 1.65947679 0.107656516 -4.13607931 -0.875269912 -0.645665183 -2.38636877 1.33407719 -1.33531247 -2.79880358 -0.568105273 8.58884853 -0.856112234 0.812860887 8.75914124 -2.56812314 -0.329081292 6.82239056 -1.78282179 2.56630032 8.75914124 -2.56812314 -0.329081292 8.58884853 -0.856112234 0.812860887 7.23186767 -3.59653347 1.6680839 4.40717754 -3.33959443 3.07204201 7.23186767 -3.59653347 1.6680839 6.82239056 -1.78282179 2.56630032 7.23186767 -3.59653347 1.6680839 4.40717754 -3.33959443 3.07204201 6.10408935 -4.50643447 3.22366867 3.02756806 -3.88876258 2.36755473 6.10408935 -4.50643447 3.22366867 4.40717754 -3.33959443 3.07204201 3.49266712 -5.8688691 2.72374841 2.02546781 -3.81761648 1.5156722 0.81520267 -5.48452813 1.65947679 2.14142001 -2.76375965 1.20143597 0.352516789 -3.79371234 1.14632429 0.982543069 -1.17419135 0.955160957 -0.645665183 -2.38636877 1.33407719 1.31464039 -0.783345651 0.491834757 -0.645665183 -2.38636877 1.33407719 0.982543069 -1.17419135 0.955160957 -0.190859481 0.436097286 1.20628773 -0.645665183 -2.38636877 1.33407719 1.31464039 -0.783345651 0.491834757 -0.645665183 -2.38636877 1.33407719 -0.190859481 0.436097286 1.20628773 -1.33531247 -2.79880358 -0.568105273 -1.28328478 0.827822602 -0.50168566 0.22092551 -4.54237964 -1.59244532 1.9112159 -5.64793375 -1.13394297 -0.237948741 -4.5167388 0.420709216 0.868634365 -5.99062834 0.615228446 4.10279458 -5.37508323 -1.08848826 0.868634365 -5.99062834 0.615228446 1.9112159 -5.64793375 -1.13394297 0.868634365 -5.99062834 0.615228446 4.10279458 -5.37508323 -1.08848826 4.68018097 -6.67600702 0.40758562 4.10279458 -5.37508323 -1.08848826 1.9112159 -5.64793375 -1.13394297 3.75377315 -3.63073931 -0.0399353471 3.75377315 -3.63073931 -0.0399353471 1.9112159 -5.64793375 -1.13394297 2.9375694 -3.91010045 -0.697428923 0.22092551 -4.54237964 -1.59244532 1.51051921 -2.9391041 -1.76700414 -1.77139532 -2.70276778 -0.363083131 1.51051921 -2.9391041 -1.76700414 0.22092551 -4.54237964 -1.59244532 1.51051921 -2.9391041 -1.76700414 -1.77139532 -2.70276778 -0.363083131 -0.226337552 -1.81697135 -1.40815355 -1.13557269 -0.759219727 1.42499167 -0.226337552 -1.81697135 -1.40815355 -1.77139532 -2.70276778 -0.363083131 0.0836089179 -0.140394333 -0.12247884 -0.750995755 0.811713664 2.80481658 0.0836089179 -0.140394333 -0.12247884 -0.750995755 0.811713664 2.80481658 -1.24167809 0.524521912 0.819680863 0.73448693 3.28848699 2.04021927 -1.24167809 0.524521912 0.819680863 -0.750995755 0.811713664 2.80481658 -0.194754902 3.08666091 0.207246179 3.24363465 4.27450015 0.953406146 -0.194754902 3.08666091 0.207246179 0.73448693 3.28848699 2.04021927 2.38701194 4.64867897 -0.887843521 4.56829629 3.05124299 0.661558349 2.38701194 4.64867897 -0.887843521 3.24363465 4.27450015 0.953406146 4.68516651 3.20093361 -1.39463933 6.15742173 2.44543133 1.0078336 6.60495143 2.90936609 -0.953924554 -0.759374713 -3.88286816 0.996030842 -1.77139532 -2.70276778 -0.363083131 0.14392542 -1.92687186 2.54904129 -1.77139532 -2.70276778 -0.363083131 -0.759374713 -3.88286816 0.996030842 -1.13557269 -0.759219727 1.42499167 1.31216001 0.738338546 2.7598752 -1.13557269 -0.759219727 1.42499167 0.14392542 -1.92687186 2.54904129 -1.13557269 -0.759219727 1.42499167 1.31216001 0.738338546 2.7598752 -0.750995755 0.811713664 2.80481658 2.20968642 1.84682425 1.9432262 -0.750995755 0.811713664 2.80481658 1.31216001 0.738338546 2.7598752 0.73448693 3.28848699 2.04021927 3.13102529 2.21635875 1.07746109 3.24363465 4.27450015 0.953406146 3.61635477 1.23628283 0.914029446 4.56829629 3.05124299 0.661558349 5.45933642 0.508453414 0.850331793 6.15742173 2.44543133 1.0078336 5.41258174 -0.0569899401 0.455606428 6.15742173 2.44543133 1.0078336 5.45933642 0.508453414 0.850331793 7.30221158 -0.163029355 1.28148157 6.15742173 2.44543133 1.0078336 5.41258174 -0.0569899401 0.455606428 6.15742173 2.44543133 1.0078336 7.30221158 -0.163029355 1.28148157 6.60495143 2.90936609 -0.953924554 8.5127278 -0.124283589 -0.390990692</float_array>
        <technique_common><accessor source="#vfx_kurp_0782-mesh-positions-array" count="156" stride="3"><param name="X" type="float"/><param name="Y" type="float"/><param name="Z" type="float"/></accessor></technique_common>
      </source>
      <source id="vfx_kurp_0782-mesh-normals">
        <float_array id="vfx_kurp_0782-mesh-normals-array" count="468">0.935115548 0.30248418 -0.184559563 0.897444013 0.244340474 -0.367276429 0.95705771 0.0679294847 -0.281826409 0.840420353 0.0424696714 -0.540268413 0.423033707 0.86998285 -0.253322569 0.423033718 0.869982842 -0.253322578 0.42303372 0.869982843 -0.253322571 0.544392747 0.468403325 -0.69586986 0.544392747 0.468403325 -0.69586986 0.544392767 0.468403304 -0.695869859 -0.263669441 -0.564211155 -0.782396445 -0.263669428 -0.564211139 -0.782396461 -0.263669428 -0.564211139 -0.782396461 -0.464066644 0.424074862 -0.777690595 -0.341938562 0.0427309848 -0.938750277 -0.378029339 0.341226967 -0.860614882 -0.228881404 0.195850898 -0.953549017 -0.127212321 0.406181508 -0.904894253 0.175939255 -0.492134241 -0.852554554 0.175939255 -0.492134241 -0.852554554 0.175939255 -0.492134241 -0.852554554 0.480234654 -0.0531794744 -0.875526482 0.480234654 -0.0531794744 -0.875526482 0.480234654 -0.0531794744 -0.875526482 0.321095041 -0.898702181 -0.298717866 0.277516541 -0.904543548 -0.323705945 0.200341032 -0.924925979 -0.323071825 0.372661625 -0.875238299 -0.308352449 0.341179448 -0.897979877 -0.277900568 0.770726507 0.6289563 0.101954028 0.770726516 0.628956289 0.101954026 0.770726516 0.628956289 0.101954026 0.454492803 -0.80791633 0.375109977 0.441040455 -0.835941929 0.326625791 0.413297095 -0.879183503 0.237111532 0.475706191 -0.747927829 0.46293367 -0.170321602 -0.907856799 0.383127373 -0.189860943 -0.929032444 0.317571315 -0.21945701 -0.953220925 0.207866519 -0.139982978 -0.868228495 0.476008451 -0.870354968 -0.473328298 0.135803357 -0.937214472 -0.344027243 0.0572214158 -0.954402204 -0.286560283 -0.0836638313 -0.808655297 -0.537217756 0.239736717 -0.697061715 -0.658457485 0.283793423 -0.588193782 -0.719498451 0.369256083 0.978312978 0.122406348 -0.167093994 0.97004263 0.19401235 -0.146207059 0.791290866 -0.190559031 0.580987109 0.780465692 -0.22533588 0.583178399 0.746730761 -0.316078407 0.585224411 0.81443395 -0.0992560925 0.571704093 0.394847623 -0.334604887 0.855648832 0.394847623 -0.334604887 0.855648832 0.394847633 -0.334604876 0.855648832 0.385861654 0.646654003 0.657988893 0.385861654 0.646654003 0.657988893 0.385861654 0.646654003 0.657988893 -0.487073657 -0.0273944216 0.872931153 -0.2802303 -0.0686926146 0.957471829 -0.31513687 -0.343324628 0.884769435 -0.344146287 0.150027176 0.926852297 -0.373621699 0.254545248 0.891971716 -0.264018173 0.284423691 0.921627673 -0.14021194 0.163239993 0.976572228 -0.0554200616 0.155278721 0.986314927 0.0491044479 0.0609423951 0.996932685 0.212299981 0.0202369263 0.976994977 -0.52486802 0.797774213 0.296765677 -0.524868041 0.797774196 0.296765685 -0.524868046 0.797774198 0.296765671 0.411910057 -0.0251335003 0.910877825 0.41191007 -0.0251335061 0.910877819 0.41191007 -0.0251335061 0.910877819 -0.938162434 0.164953973 0.304370554 -0.881359556 0.0543889641 0.469304991 -0.909160223 0.0998861171 0.404290061 -0.842191226 0.00220746192 0.539174429 -0.614680093 -0.780853964 -0.111514437 -0.605707507 -0.736323866 -0.301571849 -0.754959445 -0.610603281 -0.239164942 -0.658384906 -0.560595712 -0.502256671 0.12509468 -0.985051372 -0.118427685 0.12509468 -0.985051372 -0.118427685 0.12509468 -0.985051372 -0.118427685 -0.172510167 -0.775293575 -0.607585479 -0.172510167 -0.775293575 -0.607585479 -0.172510167 -0.775293575 -0.607585479 -0.0454026228 0.50797873 -0.860172199 -0.0454026237 0.507978766 -0.860172178 -0.0454026121 0.507978759 -0.860172183 0.655571861 -0.204594684 -0.726888266 0.354933149 0.0251227413 -0.934554069 0.542477895 -0.193160008 -0.817561584 0.343079615 -0.165162537 -0.924671679 0.368641947 -0.388464235 -0.844510896 -0.372950493 0.201369189 -0.905736374 -0.372950488 0.201369195 -0.905736375 -0.372950484 0.2013692 -0.905736375 -0.391190225 -0.330858992 -0.858779678 -0.391190238 -0.330859013 -0.858779664 -0.391190238 -0.330859013 -0.858779664 -0.740312053 0.534076889 -0.408289041 -0.705630998 0.559166877 -0.435220976 -0.651742321 0.617874122 -0.439844878 -0.770577832 0.485450484 -0.412974131 -0.757796764 0.525379657 -0.386937051 -0.313999533 -0.925562157 0.211515924 -0.313999532 -0.925562156 0.211515931 -0.313999532 -0.925562156 0.211515931 -0.835389635 0.4756067 0.275540243 -0.836891736 0.499759723 0.223276605 -0.832638519 0.538856838 0.127853061 -0.82504517 0.425893521 0.371369326 -0.364167804 0.897193438 0.249851446 -0.356052517 0.916684865 0.181426194 -0.339018519 0.938278496 0.0685558719 -0.372710067 0.860142719 0.348197802 0.470438183 0.881434397 0.0419680946 0.600068098 0.79969113 -0.0203070243 0.652149694 0.742593923 -0.15249604 0.379205731 0.914946426 0.138116076 0.217930065 0.961266715 0.168738822 0.0894369723 0.964495159 0.248495707 -0.748891564 -0.652202494 -0.117445015 -0.704328659 -0.704492272 -0.0872455049 -0.795616771 -0.192219662 0.574495913 -0.805360257 -0.157178133 0.571567923 -0.825994059 -0.0632656288 0.560117198 -0.765431414 -0.281833626 0.57851928 -0.552818309 0.177916269 0.814087046 -0.552818309 0.177916269 0.814087046 -0.552818309 0.177916269 0.814087046 -0.00705041577 -0.658936502 0.752165526 -0.00705041577 -0.658936502 0.752165526 -0.00705041577 -0.658936502 0.752165526 0.353636863 0.40118004 0.844982571 0.153431212 0.33496096 0.92965586 0.0382006152 0.57247211 0.819033819 0.326515297 0.183643547 0.92718003 0.409283954 0.10808246 0.905982796 0.331811227 0.0279705637 0.942931046 0.15978072 0.0690869597 0.984732001 0.0837200958 0.0311956076 0.996000893 -0.0555311295 0.0545542974 0.996965457 -0.213775631 -0.00238861561 0.976879867 0.857378755 -0.340389789 0.386052408 0.857378762 -0.340389776 0.386052404 0.857378762 -0.340389776 0.386052404 -0.402977987 -0.0812234397 0.911598319 -0.402977968 -0.0812234583 0.911598326 -0.402977987 -0.0812234397 0.911598319 0.863522634 0.409812392 0.293908938 0.748370484 0.492824549 0.443920695 0.799343027 0.461433317 0.384876628 0.684005798 0.52427347 0.50722125</float_array>
        <technique_common><accessor source="#vfx_kurp_0782-mesh-normals-array" count="156" stride="3"><param name="X" type="float"/><param name="Y" type="float"/><param name="Z" type="float"/></accessor></technique_common>
      </source>
      <source id="vfx_kurp_0782-mesh-uv0">
        <float_array id="vfx_kurp_0782-mesh-uv0-array" count="312">0.5 0.199999988 0.5 0.0999999642 0 0.199999988 0 0.0999999642 0.5 0 0 0.0999999642 0.5 0.0999999642 0 0.0999999642 0.5 0 0 0 0.5 0 0.5 0.0999999642 1 0 1 0 0.5 0.0999999642 1 0.0999999642 0.5 0.199999988 1 0.199999988 0.5 0.300000012 1 0.199999988 0.5 0.199999988 1 0.199999988 0.5 0.300000012 1 0.300000012 0.5 0.399999976 1 0.300000012 0.5 0.300000012 1 0.399999976 0.5 0.5 1 0.399999976 0.5 0.5 1 0.5 0.5 0.600000024 1 0.5 0.5 0.5 1 0.600000024 0.5 0.699999988 1 0.600000024 0.5 0.600000024 1 0.699999988 0.5 0.800000012 1 0.699999988 0.5 0.699999988 1 0.800000012 0.5 0.899999976 1 0.899999976 0 0.300000012 0.5 0.300000012 0 0.399999976 0.5 0.300000012 0 0.300000012 0.5 0.399999976 0 0.5 0.5 0.399999976 0 0.399999976 0.5 0.399999976 0 0.5 0.5 0.5 0 0.600000024 0.5 0.5 0 0.5 0.5 0.600000024 0 0.699999988 0.5 0.699999988 0 0.800000012 0.5 0.800000012 0 0.899999976 0.5 0.899999976 0 1 0.5 0.899999976 0 0.899999976 0.5 1 0.5 0.899999976 0 1 0.5 0.899999976 0.5 1 1 0.899999976 1 1 0.5 0.199999988 0.5 0.0999999642 0 0.199999988 0 0.0999999642 0.5 0 0 0.0999999642 0.5 0.0999999642 0 0.0999999642 0.5 0 0 0 0.5 0 0.5 0.0999999642 1 0 1 0 0.5 0.0999999642 1 0.0999999642 0.5 0.199999988 1 0.199999988 0.5 0.300000012 1 0.199999988 0.5 0.199999988 1 0.199999988 0.5 0.300000012 1 0.300000012 0.5 0.399999976 1 0.300000012 0.5 0.300000012 1 0.399999976 0.5 0.5 1 0.399999976 0.5 0.5 1 0.5 0.5 0.600000024 1 0.5 0.5 0.5 1 0.600000024 0.5 0.699999988 1 0.600000024 0.5 0.600000024 1 0.699999988 0.5 0.800000012 1 0.699999988 0.5 0.699999988 1 0.800000012 0.5 0.899999976 1 0.899999976 0 0.300000012 0.5 0.300000012 0 0.399999976 0.5 0.300000012 0 0.300000012 0.5 0.399999976 0 0.5 0.5 0.399999976 0 0.399999976 0.5 0.399999976 0 0.5 0.5 0.5 0 0.600000024 0.5 0.5 0 0.5 0.5 0.600000024 0 0.699999988 0.5 0.699999988 0 0.800000012 0.5 0.800000012 0 0.899999976 0.5 0.899999976 0 1 0.5 0.899999976 0 0.899999976 0.5 1 0.5 0.899999976 0 1 0.5 0.899999976 0.5 1 1 0.899999976 1 1</float_array>
        <technique_common><accessor source="#vfx_kurp_0782-mesh-uv0-array" count="156" stride="2"><param name="S" type="float"/><param name="T" type="float"/></accessor></technique_common>
      </source>
      <vertices id="vfx_kurp_0782-mesh-vertices"><input semantic="POSITION" source="#vfx_kurp_0782-mesh-positions"/></vertices>
      <triangles material="PreviewMaterial" count="80">
        <input semantic="VERTEX" source="#vfx_kurp_0782-mesh-vertices" offset="0"/>
        <input semantic="NORMAL" source="#vfx_kurp_0782-mesh-normals" offset="1"/>
        <input semantic="TEXCOORD" source="#vfx_kurp_0782-mesh-uv0" offset="2" set="0"/>
        <p>0 0 0 1 1 1 2 2 2 2 2 2 1 1 1 3 3 3 4 4 4 5 5 5 6 6 6 7 7 7 8 8 8 9 9 9 10 10 10 11 11 11 12 12 12 13 13 13 14 14 14 15 15 15 16 16 16 15 15 15 14 14 14 15 15 15 16 16 16 17 17 17 18 18 18 19 19 19 20 20 20 21 21 21 22 22 22 23 23 23 24 24 24 25 25 25 26 26 26 25 25 25 24 24 24 27 27 27 28 28 28 27 27 27 24 24 24 29 29 29 30 30 30 31 31 31 32 32 32 33 33 33 34 34 34 33 33 33 32 32 32 35 35 35 36 36 36 37 37 37 38 38 38 37 37 37 36 36 36 39 39 39 40 40 40 41 41 41 42 42 42 41 41 41 40 40 40 43 43 43 44 44 44 43 43 43 40 40 40 43 43 43 44 44 44 45 45 45 46 46 46 0 0 0 2 2 2 0 0 0 46 46 46 47 47 47 48 48 48 49 49 49 50 50 50 49 49 49 48 48 48 51 51 51 52 52 52 53 53 53 54 54 54 55 55 55 56 56 56 57 57 57 58 58 58 59 59 59 60 60 60 59 59 59 58 58 58 61 61 61 62 62 62 61 61 61 58 58 58 61 61 61 62 62 62 63 63 63 64 64 64 63 63 63 62 62 62 63 63 63 64 64 64 65 65 65 66 66 66 65 65 65 64 64 64 65 65 65 66 66 66 67 67 67 68 68 68 69 69 69 70 70 70 71 71 71 72 72 72 73 73 73 74 74 74 75 75 75 76 76 76 77 77 77 76 76 76 75 75 75 78 78 78 79 79 79 80 80 80 80 80 80 79 79 79 81 81 81 82 82 82 83 83 83 84 84 84 85 85 85 86 86 86 87 87 87 88 88 88 89 89 89 90 90 90 91 91 91 92 92 92 93 93 93 94 94 94 93 93 93 92 92 92 93 93 93 94 94 94 95 95 95 96 96 96 97 97 97 98 98 98 99 99 99 100 100 100 101 101 101 102 102 102 103 103 103 104 104 104 103 103 103 102 102 102 105 105 105 106 106 106 105 105 105 102 102 102 107 107 107 108 108 108 109 109 109 110 110 110 111 111 111 112 112 112 111 111 111 110 110 110 113 113 113 114 114 114 115 115 115 116 116 116 115 115 115 114 114 114 117 117 117 118 118 118 119 119 119 120 120 120 119 119 119 118 118 118 121 121 121 122 122 122 121 121 121 118 118 118 121 121 121 122 122 122 123 123 123 124 124 124 78 78 78 80 80 80 78 78 78 124 124 124 125 125 125 126 126 126 127 127 127 128 128 128 127 127 127 126 126 126 129 129 129 130 130 130 131 131 131 132 132 132 133 133 133 134 134 134 135 135 135 136 136 136 137 137 137 138 138 138 137 137 137 136 136 136 139 139 139 140 140 140 139 139 139 136 136 136 139 139 139 140 140 140 141 141 141 142 142 142 141 141 141 140 140 140 141 141 141 142 142 142 143 143 143 144 144 144 143 143 143 142 142 142 143 143 143 144 144 144 145 145 145 146 146 146 147 147 147 148 148 148 149 149 149 150 150 150 151 151 151 152 152 152 153 153 153 154 154 154 155 155 155 154 154 154 153 153 153</p>
      </triangles>
    </mesh></geometry>
  </library_geometries>
  <library_visual_scenes>
    <visual_scene id="Scene" name="Scene">
      <node id="vfx_kurp_0782" name="vfx_kurp_0782" type="NODE">
        <instance_geometry url="#vfx_kurp_0782-mesh"><bind_material><technique_common><instance_material symbol="PreviewMaterial" target="#PreviewMaterial"><bind_vertex_input semantic="UVSET0" input_semantic="TEXCOORD" input_set="0"/></instance_material></technique_common></bind_material></instance_geometry>
      </node>
    </visual_scene>
  </library_visual_scenes>
  <scene><instance_visual_scene url="#Scene"/></scene>
</COLLADA>
